<?xml version="1.0" encoding="UTF-8"?>
<svg xmlns="http://www.w3.org/2000/svg" xmlns:xlink="http://www.w3.org/1999/xlink" width="551.656" height="85.866" viewBox="0 0 551.656 85.866">
<style>/* === RDF autogenerated palette === */
:root {
    --axis-color: #000;
    --grid-stroke: rgba(0,0,0,0.2);
    --plot3d-stroke: rgba(0,0,0,0.3);
    --plot3d-grid: rgba(0,0,0,0.2);
}
@media (prefers-color-scheme: dark) {
    :root {
        --axis-color: #fff;
        --grid-stroke: rgba(255,255,255,0.2);
        --plot3d-stroke: rgba(255,255,255,0.3);
        --plot3d-grid: rgba(255,255,255,0.2);
    }
}

/* Light‑mode palette */
.black { fill:#000000; stroke:#000000; }:root { --black: #000000; }.c1 { fill:#FF0001; stroke:#FF0001; }:root { --c1: #FF0001; }.c2 { fill:#00FF02; stroke:#00FF02; }:root { --c2: #00FF02; }.c3 { fill:#0000FF; stroke:#0000FF; }:root { --c3: #0000FF; }.c4 { fill:#FF00FF; stroke:#FF00FF; }:root { --c4: #FF00FF; }.c5 { fill:#00FFFF; stroke:#00FFFF; }:root { --c5: #00FFFF; }.c6 { fill:#FFFF00; stroke:#FFFF00; }:root { --c6: #FFFF00; }.c7 { fill:#FF8000; stroke:#FF8000; }:root { --c7: #FF8000; }.c8 { fill:#8000FF; stroke:#8000FF; }:root { --c8: #8000FF; }.gray { fill:#7f7f7f; stroke:#7f7f7f; }:root { --gray: #7f7f7f; }.grey { fill:#7f7f7f; stroke:#7f7f7f; }:root { --grey: #7f7f7f; }.octonary { fill:#bcbd22; stroke:#bcbd22; }:root { --octonary: #bcbd22; }.primary { fill:#d62728; stroke:#d62728; }:root { --primary: #d62728; }.quaternary { fill:#9467bd; stroke:#9467bd; }:root { --quaternary: #9467bd; }.quinary { fill:#8c564b; stroke:#8c564b; }:root { --quinary: #8c564b; }.secondary { fill:#2ca02c; stroke:#2ca02c; }:root { --secondary: #2ca02c; }.senary { fill:#e377c2; stroke:#e377c2; }:root { --senary: #e377c2; }.septenary { fill:#7f7f7f; stroke:#7f7f7f; }:root { --septenary: #7f7f7f; }.tertiary { fill:#1f77b4; stroke:#1f77b4; }:root { --tertiary: #1f77b4; }.white { fill:#ffffff; stroke:#ffffff; }:root { --white: #ffffff; }

/* Dark overrides */
@media (prefers-color-scheme: dark) {
    .black { fill:#FFFFFF; stroke:#FFFFFF; }:root { --black: #FFFFFF; }.c1 { fill:#FF0001; stroke:#FF0001; }:root { --c1: #FF0001; }.c2 { fill:#00FF02; stroke:#00FF02; }:root { --c2: #00FF02; }.c3 { fill:#0000FF; stroke:#0000FF; }:root { --c3: #0000FF; }.c4 { fill:#FF00FF; stroke:#FF00FF; }:root { --c4: #FF00FF; }.c5 { fill:#00FFFF; stroke:#00FFFF; }:root { --c5: #00FFFF; }.c6 { fill:#FFFF00; stroke:#FFFF00; }:root { --c6: #FFFF00; }.c7 { fill:#FF8000; stroke:#FF8000; }:root { --c7: #FF8000; }.c8 { fill:#8000FF; stroke:#8000FF; }:root { --c8: #8000FF; }.gray { fill:#CCCCCC; stroke:#CCCCCC; }:root { --gray: #CCCCCC; }.grey { fill:#CCCCCC; stroke:#CCCCCC; }:root { --grey: #CCCCCC; }.octonary { fill:#E6DB74; stroke:#E6DB74; }:root { --octonary: #E6DB74; }.primary { fill:#FF4A98; stroke:#FF4A98; }:root { --primary: #FF4A98; }.quaternary { fill:#B4A0FF; stroke:#B4A0FF; }:root { --quaternary: #B4A0FF; }.quinary { fill:#FFB86B; stroke:#FFB86B; }:root { --quinary: #FFB86B; }.secondary { fill:#0AFAFA; stroke:#0AFAFA; }:root { --secondary: #0AFAFA; }.senary { fill:#FF79C6; stroke:#FF79C6; }:root { --senary: #FF79C6; }.septenary { fill:#CCCCCC; stroke:#CCCCCC; }:root { --septenary: #CCCCCC; }.tertiary { fill:#7F83FF; stroke:#7F83FF; }:root { --tertiary: #7F83FF; }.white { fill:#000000; stroke:#000000; }:root { --white: #000000; }
}/* Axis, ticks, legend */
text, .text { fill: var(--axis-color) !important; stroke: none !important; }
.axis line, .axis path,
.tick line, .tick path,
path.domain,
line.grid { stroke: var(--axis-color) !important; }
.legend text { fill: var(--axis-color) !important; }

/* Patch paths that relied on currentColor */
.patch path[style*="stroke: currentColor"] { stroke: var(--axis-color) !important; }

/* Legend background (first child of legend group) */
g.legend > g:first-child > path:first-child {
    fill: rgba(255,255,255,0.8) !important;
    stroke: rgba(0,0,0,0.1) !important;
}
@media (prefers-color-scheme: dark) {
    g.legend > g:first-child > path:first-child {
        fill: rgba(26,26,26,0.8) !important;
        stroke: rgba(255,255,255,0.1) !important;
    }
}

/* 3‑D specific rules */
.plot3d path, .plot3d polygon {
    stroke: var(--plot3d-stroke) !important;
}
.plot3d-grid line { stroke: var(--plot3d-grid) !important; }
.plot3d-surface path[style*="fill:"] {
    fill-opacity: 0.9 !important;
}
@media (prefers-color-scheme: dark) {
    .plot3d-surface path[style*="fill:"] {
        fill-opacity: 0.95 !important;
        filter: saturate(1.2) !important;
    }
}</style>

<defs>
<g class="glyph">
<g id="bayes_theorem_message_passing_glyph-0-0">
<path d="M 8.234375 -4.890625 C 8.234375 -6.46875 7.328125 -7.59375 6.046875 -7.59375 C 4.9375 -7.59375 4.015625 -6.53125 3.828125 -6.28125 C 3.6875 -7.140625 3.015625 -7.59375 2.328125 -7.59375 C 1.828125 -7.59375 1.421875 -7.359375 1.109375 -6.703125 C 0.796875 -6.078125 0.546875 -5.03125 0.546875 -4.953125 C 0.546875 -4.890625 0.625 -4.796875 0.734375 -4.796875 C 0.875 -4.796875 0.890625 -4.828125 1 -5.21875 C 1.25 -6.234375 1.578125 -7.25 2.265625 -7.25 C 2.671875 -7.25 2.8125 -6.96875 2.8125 -6.453125 C 2.8125 -6.046875 2.75 -5.875 2.6875 -5.5625 L 0.734375 2.1875 C 0.625 2.703125 0.546875 2.84375 -0.15625 2.84375 C -0.359375 2.84375 -0.53125 2.84375 -0.53125 3.171875 C -0.53125 3.171875 -0.515625 3.34375 -0.328125 3.34375 C -0.109375 3.34375 0.140625 3.3125 0.359375 3.3125 L 1.109375 3.3125 L 2.703125 3.34375 C 2.8125 3.34375 3.015625 3.34375 3.015625 3.03125 C 3.015625 2.84375 2.890625 2.84375 2.59375 2.84375 C 1.8125 2.84375 1.75 2.71875 1.75 2.578125 C 1.75 2.375 2.53125 -0.578125 2.640625 -0.984375 C 2.828125 -0.5 3.28125 0.171875 4.1875 0.171875 C 6.125 0.171875 8.234375 -2.359375 8.234375 -4.890625 Z M 6.203125 -1.921875 C 5.765625 -1 4.96875 -0.171875 4.1875 -0.171875 C 3.015625 -0.171875 2.828125 -1.65625 2.828125 -1.71875 C 2.828125 -1.78125 2.859375 -1.90625 2.875 -2 L 3.71875 -5.375 C 3.84375 -5.859375 4.328125 -6.359375 4.59375 -6.59375 C 4.78125 -6.765625 5.359375 -7.25 6.015625 -7.25 C 6.765625 -7.25 7.109375 -6.484375 7.109375 -5.59375 C 7.109375 -4.765625 6.625 -2.828125 6.203125 -1.921875 Z M 6.203125 -1.921875 "/>
</g>
<g id="bayes_theorem_message_passing_glyph-0-1">
<path d="M 8.265625 -2.46875 C 8.265625 -2.546875 8.203125 -2.625 8.09375 -2.625 C 7.9375 -2.625 7.921875 -2.53125 7.875 -2.390625 C 7.40625 -0.875 6.40625 -0.171875 5.625 -0.171875 C 5.03125 -0.171875 4.703125 -0.625 4.703125 -1.328125 C 4.703125 -1.703125 4.765625 -1.984375 5.046875 -3.109375 L 5.640625 -5.453125 C 5.90625 -6.484375 6.484375 -7.25 7.28125 -7.25 C 7.28125 -7.25 7.796875 -7.25 8.15625 -7.03125 C 7.609375 -6.921875 7.40625 -6.515625 7.40625 -6.1875 C 7.40625 -5.765625 7.734375 -5.625 7.96875 -5.625 C 8.484375 -5.625 8.84375 -6.078125 8.84375 -6.546875 C 8.84375 -7.265625 8.03125 -7.59375 7.296875 -7.59375 C 6.25 -7.59375 5.671875 -6.5625 5.515625 -6.234375 C 5.109375 -7.53125 4.046875 -7.59375 3.734375 -7.59375 C 1.984375 -7.59375 1.046875 -5.34375 1.046875 -4.953125 C 1.046875 -4.890625 1.125 -4.796875 1.234375 -4.796875 C 1.375 -4.796875 1.40625 -4.90625 1.453125 -4.96875 C 2.03125 -6.890625 3.1875 -7.25 3.6875 -7.25 C 4.453125 -7.25 4.609375 -6.53125 4.609375 -6.109375 C 4.609375 -5.734375 4.515625 -5.34375 4.3125 -4.515625 L 3.71875 -2.15625 C 3.46875 -1.125 2.96875 -0.171875 2.046875 -0.171875 C 1.96875 -0.171875 1.53125 -0.171875 1.171875 -0.390625 C 1.796875 -0.515625 1.921875 -1.03125 1.921875 -1.234375 C 1.921875 -1.578125 1.671875 -1.796875 1.34375 -1.796875 C 0.9375 -1.796875 0.484375 -1.421875 0.484375 -0.875 C 0.484375 -0.15625 1.296875 0.171875 2.03125 0.171875 C 2.859375 0.171875 3.4375 -0.484375 3.8125 -1.1875 C 4.078125 -0.171875 4.9375 0.171875 5.578125 0.171875 C 7.328125 0.171875 8.265625 -2.078125 8.265625 -2.46875 Z M 8.265625 -2.46875 "/>
</g>
<g id="bayes_theorem_message_passing_glyph-0-2">
<path d="M 8.171875 -6.703125 C 8.203125 -6.78125 8.234375 -6.890625 8.234375 -6.984375 C 8.234375 -7.25 8.03125 -7.421875 7.765625 -7.421875 C 7.609375 -7.421875 7.25 -7.359375 7.109375 -6.828125 L 5.84375 -1.78125 C 5.75 -1.46875 5.75 -1.421875 5.609375 -1.234375 C 5.265625 -0.75 4.703125 -0.171875 3.875 -0.171875 C 2.90625 -0.171875 2.828125 -1.125 2.828125 -1.578125 C 2.828125 -2.5625 3.28125 -3.890625 3.75 -5.125 C 3.9375 -5.625 4.046875 -5.875 4.046875 -6.21875 C 4.046875 -6.9375 3.53125 -7.59375 2.6875 -7.59375 C 1.109375 -7.59375 0.46875 -5.09375 0.46875 -4.953125 C 0.46875 -4.890625 0.53125 -4.796875 0.65625 -4.796875 C 0.8125 -4.796875 0.828125 -4.875 0.890625 -5.109375 C 1.3125 -6.5625 1.96875 -7.25 2.640625 -7.25 C 2.796875 -7.25 3.078125 -7.25 3.078125 -6.6875 C 3.078125 -6.234375 2.890625 -5.734375 2.640625 -5.078125 C 1.796875 -2.828125 1.796875 -2.25 1.796875 -1.84375 C 1.796875 -0.203125 2.96875 0.171875 3.828125 0.171875 C 4.328125 0.171875 4.9375 0.015625 5.546875 -0.625 L 5.5625 -0.609375 C 5.296875 0.40625 5.125 1.078125 4.53125 1.921875 C 4.0625 2.578125 3.390625 3.171875 2.546875 3.171875 C 2.34375 3.171875 1.515625 3.140625 1.25 2.34375 C 1.3125 2.359375 1.421875 2.359375 1.421875 2.359375 C 1.953125 2.359375 2.296875 1.90625 2.296875 1.515625 C 2.296875 1.125 1.96875 0.984375 1.703125 0.984375 C 1.421875 0.984375 0.828125 1.1875 0.828125 2.03125 C 0.828125 2.90625 1.5625 3.515625 2.546875 3.515625 C 4.265625 3.515625 6.015625 1.921875 6.484375 0.015625 Z M 8.171875 -6.703125 "/>
</g>
<g id="bayes_theorem_message_passing_glyph-0-3">
<path d="M 6.453125 -3.140625 C 6.609375 -3.71875 6.703125 -4.328125 6.703125 -4.890625 C 6.703125 -5.140625 6.6875 -5.40625 6.640625 -5.671875 C 6.515625 -6.46875 6.140625 -7.15625 5.6875 -7.78125 C 4.921875 -8.75 3.890625 -10.09375 3.890625 -10.90625 C 3.890625 -11.015625 3.921875 -11.125 3.984375 -11.203125 C 4.0625 -11.375 4.1875 -11.515625 4.359375 -11.609375 C 4.53125 -11.6875 4.71875 -11.71875 4.890625 -11.71875 C 5.671875 -11.703125 6.1875 -11.1875 6.828125 -10.9375 C 6.890625 -10.921875 6.9375 -10.921875 7.015625 -10.921875 C 7.21875 -10.921875 7.453125 -11.03125 7.5625 -11.265625 C 7.609375 -11.34375 7.640625 -11.453125 7.640625 -11.515625 C 7.640625 -11.71875 7.5 -11.890625 7.3125 -11.9375 C 6.71875 -12.078125 6.046875 -12.25 5.421875 -12.25 C 5.25 -12.25 5.078125 -12.21875 4.921875 -12.1875 C 4.6875 -12.15625 4.421875 -12.09375 4.203125 -11.9375 C 3.984375 -11.796875 3.78125 -11.59375 3.671875 -11.359375 C 3.53125 -11.109375 3.46875 -10.796875 3.46875 -10.484375 C 3.46875 -9.5625 4 -8.46875 4.5 -7.5 C 3.78125 -7.359375 3.09375 -6.96875 2.515625 -6.453125 C 1.671875 -5.71875 1.078125 -4.734375 0.84375 -3.734375 C 0.75 -3.375 0.703125 -3.015625 0.703125 -2.671875 C 0.703125 -2.046875 0.859375 -1.46875 1.171875 -0.984375 C 1.625 -0.28125 2.375 0.171875 3.34375 0.171875 C 4.84375 0.171875 6.046875 -1.46875 6.453125 -3.140625 Z M 5.40625 -2.8125 C 5.078125 -1.53125 4.4375 -0.15625 3.34375 -0.15625 C 2.65625 -0.15625 2.140625 -0.5625 1.890625 -1.15625 C 1.75 -1.46875 1.703125 -1.828125 1.703125 -2.1875 C 1.703125 -2.671875 1.796875 -3.171875 1.90625 -3.671875 C 2.140625 -4.5625 2.484375 -5.46875 3.171875 -6.234375 C 3.59375 -6.6875 4.109375 -7.046875 4.671875 -7.1875 L 4.71875 -7.09375 C 5.046875 -6.453125 5.359375 -5.796875 5.515625 -5.078125 C 5.5625 -4.796875 5.578125 -4.515625 5.578125 -4.21875 C 5.578125 -3.75 5.53125 -3.265625 5.40625 -2.8125 Z M 5.40625 -2.8125 "/>
</g>
<g id="bayes_theorem_message_passing_glyph-0-4">
<path d="M 9.640625 -2.46875 C 9.640625 -2.546875 9.578125 -2.625 9.46875 -2.625 C 9.3125 -2.625 9.296875 -2.53125 9.234375 -2.265625 C 8.96875 -1.25 8.640625 -0.171875 7.9375 -0.171875 C 7.4375 -0.171875 7.40625 -0.625 7.40625 -0.96875 C 7.40625 -1.359375 7.5625 -1.984375 7.671875 -2.5 L 8.15625 -4.359375 L 8.5 -5.765625 C 8.609375 -6.1875 8.796875 -6.921875 8.796875 -6.984375 C 8.796875 -7.25 8.59375 -7.421875 8.328125 -7.421875 C 8.171875 -7.421875 7.8125 -7.359375 7.671875 -6.828125 L 6.46875 -2.046875 C 6.390625 -1.703125 6.390625 -1.671875 6.171875 -1.390625 C 5.953125 -1.109375 5.28125 -0.171875 4.203125 -0.171875 C 3.234375 -0.171875 2.921875 -0.875 2.921875 -1.6875 C 2.921875 -2.1875 3.078125 -2.796875 3.15625 -3.078125 L 3.921875 -6.1875 C 4.015625 -6.515625 4.15625 -7.0625 4.15625 -7.15625 C 4.15625 -7.4375 3.921875 -7.59375 3.703125 -7.59375 C 3.546875 -7.59375 3.171875 -7.546875 3.03125 -6.984375 L 0.53125 2.984375 C 0.515625 3.0625 0.484375 3.171875 0.484375 3.265625 C 0.484375 3.53125 0.6875 3.703125 0.953125 3.703125 C 1.453125 3.703125 1.546875 3.3125 1.671875 2.828125 C 1.859375 2.09375 1.75 2.4375 2.484375 -0.375 C 2.90625 0.015625 3.546875 0.171875 4.125 0.171875 C 5.234375 0.171875 5.984375 -0.5625 6.390625 -1.109375 C 6.5625 -0.1875 7.28125 0.171875 7.890625 0.171875 C 8.40625 0.171875 8.8125 -0.140625 9.125 -0.75 C 9.40625 -1.34375 9.640625 -2.390625 9.640625 -2.46875 Z M 9.640625 -2.46875 "/>
</g>
<g id="bayes_theorem_message_passing_glyph-1-0">
<path d="M 5.265625 4.203125 C 5.265625 4.203125 5.265625 4.15625 5.21875 4.09375 C 4.421875 3.28125 2.3125 1.078125 2.3125 -4.28125 C 2.3125 -9.65625 4.390625 -11.84375 5.234375 -12.703125 C 5.234375 -12.703125 5.265625 -12.765625 5.265625 -12.8125 C 5.265625 -12.859375 5.21875 -12.890625 5.140625 -12.890625 C 4.953125 -12.890625 3.5 -11.625 2.65625 -9.734375 C 1.796875 -7.8125 1.546875 -5.953125 1.546875 -4.3125 C 1.546875 -3.0625 1.671875 -0.96875 2.703125 1.25 C 3.53125 3.046875 4.9375 4.3125 5.140625 4.3125 C 5.234375 4.3125 5.265625 4.265625 5.265625 4.203125 Z M 5.265625 4.203125 "/>
</g>
<g id="bayes_theorem_message_passing_glyph-1-1">
<path d="M 4.53125 -4.28125 C 4.53125 -5.53125 4.40625 -7.625 3.375 -9.84375 C 2.546875 -11.640625 1.140625 -12.890625 0.9375 -12.890625 C 0.875 -12.890625 0.8125 -12.875 0.8125 -12.796875 C 0.8125 -12.796875 0.828125 -12.734375 0.84375 -12.703125 C 1.671875 -11.84375 3.765625 -9.65625 3.765625 -4.3125 C 3.765625 1.0625 1.6875 3.25 0.84375 4.109375 C 0.828125 4.15625 0.8125 4.203125 0.8125 4.203125 C 0.8125 4.28125 0.875 4.3125 0.9375 4.3125 C 1.125 4.3125 2.578125 3.03125 3.421875 1.140625 C 4.28125 -0.78125 4.53125 -2.640625 4.53125 -4.28125 Z M 4.53125 -4.28125 "/>
</g>
<g id="bayes_theorem_message_passing_glyph-2-0">
<path d="M 2.734375 3.734375 L 2.734375 -12.34375 C 2.734375 -12.59375 2.734375 -12.921875 2.390625 -12.921875 C 2.046875 -12.921875 2.046875 -12.59375 2.046875 -12.34375 L 2.046875 3.734375 C 2.046875 3.984375 2.046875 4.3125 2.390625 4.3125 C 2.734375 4.3125 2.734375 3.984375 2.734375 3.734375 Z M 2.734375 3.734375 "/>
</g>
<g id="bayes_theorem_message_passing_glyph-2-1">
<path d="M 11.953125 -4.3125 C 11.953125 -4.65625 11.625 -4.65625 11.375 -4.65625 L 2 -4.65625 C 1.75 -4.65625 1.421875 -4.65625 1.421875 -4.3125 C 1.421875 -3.953125 1.75 -3.953125 2 -3.953125 L 11.375 -3.953125 C 11.625 -3.953125 11.953125 -3.953125 11.953125 -4.3125 Z M 11.953125 -4.3125 "/>
</g>
<g id="bayes_theorem_message_passing_glyph-3-0">
<path d="M 5.484375 -2.625 C 5.484375 -4.25 4.296875 -5.484375 2.921875 -5.484375 C 1.515625 -5.484375 0.359375 -4.21875 0.359375 -2.625 C 0.359375 -1.0625 1.546875 0.125 2.921875 0.125 C 4.328125 0.125 5.484375 -1.09375 5.484375 -2.625 Z M 4.578125 -2.75 C 4.578125 -1.28125 3.734375 -0.625 2.921875 -0.625 C 2.0625 -0.625 1.265625 -1.34375 1.265625 -2.75 C 1.265625 -4.203125 2.15625 -4.765625 2.921875 -4.765625 C 3.734375 -4.765625 4.578125 -4.140625 4.578125 -2.75 Z M 4.578125 -2.75 "/>
</g>
<g id="bayes_theorem_message_passing_glyph-3-1">
<path d="M 5.5625 -2.671875 C 5.5625 -4.140625 4.78125 -5.421875 3.671875 -5.421875 C 3.328125 -5.421875 2.5625 -5.359375 1.8125 -4.75 L 1.8125 -8.296875 L 0.9375 -8.296875 L 0.9375 0 L 1.84375 0 L 1.84375 -0.53125 C 2.390625 -0.015625 2.96875 0.125 3.390625 0.125 C 4.53125 0.125 5.5625 -1.046875 5.5625 -2.671875 Z M 4.65625 -2.671875 C 4.65625 -1.109375 3.6875 -0.59375 2.953125 -0.59375 C 2.625 -0.59375 2.390625 -0.71875 2.171875 -0.890625 C 1.890625 -1.140625 1.84375 -1.34375 1.84375 -1.546875 L 1.84375 -4.03125 C 2.0625 -4.359375 2.484375 -4.703125 3.078125 -4.703125 C 3.796875 -4.703125 4.65625 -4.15625 4.65625 -2.671875 Z M 4.65625 -2.671875 "/>
</g>
<g id="bayes_theorem_message_passing_glyph-3-2">
<path d="M 4.203125 -1.515625 C 4.203125 -2.125 3.84375 -2.515625 3.796875 -2.5625 C 3.34375 -3.03125 2.984375 -3.09375 2.265625 -3.234375 C 1.828125 -3.328125 1.21875 -3.4375 1.21875 -4.046875 C 1.21875 -4.78125 2.0625 -4.78125 2.21875 -4.78125 C 2.84375 -4.78125 3.34375 -4.640625 3.875 -4.34375 L 4.015625 -5.109375 C 3.25 -5.46875 2.609375 -5.484375 2.328125 -5.484375 C 2.0625 -5.484375 0.390625 -5.484375 0.390625 -3.9375 C 0.390625 -3.40625 0.6875 -3.046875 0.859375 -2.875 C 1.296875 -2.515625 1.59375 -2.453125 2.296875 -2.3125 C 2.6875 -2.21875 3.375 -2.078125 3.375 -1.453125 C 3.375 -0.625 2.453125 -0.625 2.28125 -0.625 C 1.8125 -0.625 1.109375 -0.75 0.46875 -1.21875 L 0.328125 -0.40625 C 0.375 -0.375 1.1875 0.125 2.296875 0.125 C 3.84375 0.125 4.203125 -0.8125 4.203125 -1.515625 Z M 4.203125 -1.515625 "/>
</g>
<g id="bayes_theorem_message_passing_glyph-4-0">
<path d="M 4.90625 0 L 4.90625 -0.34375 L 4.53125 -0.34375 C 3.484375 -0.34375 3.4375 -0.484375 3.4375 -0.921875 L 3.4375 -7.65625 C 3.4375 -7.9375 3.4375 -7.953125 3.203125 -7.953125 C 2.921875 -7.625 2.3125 -7.1875 1.09375 -7.1875 L 1.09375 -6.84375 C 1.359375 -6.84375 1.953125 -6.84375 2.625 -7.140625 L 2.625 -0.921875 C 2.625 -0.484375 2.578125 -0.34375 1.53125 -0.34375 L 1.15625 -0.34375 L 1.15625 0 C 1.484375 -0.03125 2.640625 -0.03125 3.03125 -0.03125 C 3.4375 -0.03125 4.578125 -0.03125 4.90625 0 Z M 4.90625 0 "/>
</g>
<g id="bayes_theorem_message_passing_glyph-4-1">
<path d="M 5.359375 -2.046875 C 5.359375 -3.140625 4.46875 -4 3.328125 -4.203125 C 4.359375 -4.5 5.03125 -5.375 5.03125 -6.3125 C 5.03125 -7.25 4.046875 -7.953125 2.890625 -7.953125 C 1.703125 -7.953125 0.8125 -7.21875 0.8125 -6.34375 C 0.8125 -5.875 1.1875 -5.765625 1.359375 -5.765625 C 1.609375 -5.765625 1.90625 -5.953125 1.90625 -6.3125 C 1.90625 -6.6875 1.609375 -6.859375 1.34375 -6.859375 C 1.28125 -6.859375 1.25 -6.859375 1.21875 -6.84375 C 1.671875 -7.65625 2.796875 -7.65625 2.859375 -7.65625 C 3.25 -7.65625 4.03125 -7.484375 4.03125 -6.3125 C 4.03125 -6.078125 4 -5.421875 3.640625 -4.90625 C 3.28125 -4.375 2.875 -4.34375 2.5625 -4.328125 L 2.203125 -4.296875 C 2 -4.28125 1.953125 -4.265625 1.953125 -4.15625 C 1.953125 -4.046875 2.015625 -4.046875 2.21875 -4.046875 L 2.765625 -4.046875 C 3.796875 -4.046875 4.25 -3.203125 4.25 -2.0625 C 4.25 -0.484375 3.4375 -0.078125 2.84375 -0.078125 C 2.265625 -0.078125 1.296875 -0.34375 0.9375 -1.140625 C 1.328125 -1.078125 1.671875 -1.296875 1.671875 -1.71875 C 1.671875 -2.0625 1.421875 -2.3125 1.09375 -2.3125 C 0.796875 -2.3125 0.484375 -2.140625 0.484375 -1.6875 C 0.484375 -0.625 1.546875 0.25 2.875 0.25 C 4.296875 0.25 5.359375 -0.84375 5.359375 -2.046875 Z M 5.359375 -2.046875 "/>
</g>
<g id="bayes_theorem_message_passing_glyph-4-2">
<path d="M 5.265625 -2.015625 L 5 -2.015625 C 4.953125 -1.8125 4.859375 -1.140625 4.75 -0.953125 C 4.65625 -0.84375 3.984375 -0.84375 3.625 -0.84375 L 1.40625 -0.84375 C 1.734375 -1.125 2.46875 -1.890625 2.765625 -2.171875 C 4.59375 -3.84375 5.265625 -4.46875 5.265625 -5.65625 C 5.265625 -7.03125 4.171875 -7.953125 2.78125 -7.953125 C 1.40625 -7.953125 0.578125 -6.765625 0.578125 -5.734375 C 0.578125 -5.125 1.109375 -5.125 1.140625 -5.125 C 1.40625 -5.125 1.703125 -5.3125 1.703125 -5.6875 C 1.703125 -6.03125 1.484375 -6.25 1.140625 -6.25 C 1.046875 -6.25 1.015625 -6.25 0.984375 -6.234375 C 1.203125 -7.046875 1.859375 -7.609375 2.625 -7.609375 C 3.640625 -7.609375 4.265625 -6.75 4.265625 -5.65625 C 4.265625 -4.640625 3.6875 -3.75 3 -2.984375 L 0.578125 -0.28125 L 0.578125 0 L 4.953125 0 Z M 5.265625 -2.015625 "/>
</g>
</g>
<clipPath id="bayes_theorem_message_passing_clip-0">
<path clip-rule="nonzero" d="M 105 0 L 213 0 L 213 85.867188 L 105 85.867188 Z M 105 0 "/>
</clipPath>
<clipPath id="bayes_theorem_message_passing_clip-1">
<path clip-rule="nonzero" d="M 294 0 L 402 0 L 402 85.867188 L 294 85.867188 Z M 294 0 "/>
</clipPath>
</defs>
<path fill-rule="nonzero" fill="var(--black)" fill-opacity="1" stroke-width="2.26773" stroke-linecap="butt" stroke-linejoin="miter" stroke="var(--black)" stroke-opacity="1" stroke-miterlimit="10" d="M -14.174625 -14.174406 L 14.173031 -14.174406 L 14.173031 14.17325 L -14.174625 14.17325 Z M -14.174625 -14.174406 " transform="matrix(1, 0, 0, -1, 64.534, 51.517)"/>
<g fill="var(--black)" fill-opacity="1">
<use xlink:href="#bayes_theorem_message_passing_glyph-0-0" x="15.276" y="55.82"/>
</g>
<g fill="var(--black)" fill-opacity="1">
<use xlink:href="#bayes_theorem_message_passing_glyph-1-0" x="23.736" y="55.82"/>
</g>
<g fill="var(--black)" fill-opacity="1">
<use xlink:href="#bayes_theorem_message_passing_glyph-0-1" x="29.833" y="55.82"/>
</g>
<g fill="var(--black)" fill-opacity="1">
<use xlink:href="#bayes_theorem_message_passing_glyph-1-1" x="39.412" y="55.82"/>
</g>
<g clip-path="url(#bayes_theorem_message_passing_clip-0)">
<path fill="none" stroke-width="2.26773" stroke-linecap="butt" stroke-linejoin="miter" stroke="var(--black)" stroke-opacity="1" stroke-miterlimit="10" d="M 115.6535 0.001375 C 115.6535 11.743563 106.137875 21.259188 94.395687 21.259188 C 82.6535 21.259188 73.133969 11.743563 73.133969 0.001375 C 73.133969 -11.740812 82.6535 -21.260344 94.395687 -21.260344 C 106.137875 -21.260344 115.6535 -11.740812 115.6535 0.001375 Z M 115.6535 0.001375 " transform="matrix(1, 0, 0, -1, 64.534, 51.517)"/>
</g>
<g fill="var(--black)" fill-opacity="1">
<use xlink:href="#bayes_theorem_message_passing_glyph-0-1" x="154.138" y="55.223"/>
</g>
<path fill-rule="nonzero" fill="var(--black)" fill-opacity="1" stroke-width="2.26773" stroke-linecap="butt" stroke-linejoin="miter" stroke="var(--black)" stroke-opacity="1" stroke-miterlimit="10" d="M 174.614438 -14.174406 L 202.962094 -14.174406 L 202.962094 14.17325 L 174.614438 14.17325 Z M 174.614438 -14.174406 " transform="matrix(1, 0, 0, -1, 64.534, 51.517)"/>
<g fill="var(--black)" fill-opacity="1">
<use xlink:href="#bayes_theorem_message_passing_glyph-0-0" x="226.614" y="28.187"/>
</g>
<g fill="var(--black)" fill-opacity="1">
<use xlink:href="#bayes_theorem_message_passing_glyph-1-0" x="235.074" y="28.187"/>
</g>
<g fill="var(--black)" fill-opacity="1">
<use xlink:href="#bayes_theorem_message_passing_glyph-0-2" x="241.171" y="28.187"/>
</g>
<g fill="var(--black)" fill-opacity="1">
<use xlink:href="#bayes_theorem_message_passing_glyph-2-0" x="254.79" y="28.187"/>
</g>
<g fill="var(--black)" fill-opacity="1">
<use xlink:href="#bayes_theorem_message_passing_glyph-0-1" x="264.354" y="28.187"/>
</g>
<g fill="var(--black)" fill-opacity="1">
<use xlink:href="#bayes_theorem_message_passing_glyph-1-1" x="273.933" y="28.187"/>
</g>
<g clip-path="url(#bayes_theorem_message_passing_clip-1)">
<path fill="none" stroke-width="2.26773" stroke-linecap="butt" stroke-linejoin="miter" stroke="var(--black)" stroke-opacity="1" stroke-miterlimit="10" d="M 304.446469 0.001375 C 304.446469 11.743563 294.926938 21.259188 283.18475 21.259188 C 271.442563 21.259188 261.923031 11.743563 261.923031 0.001375 C 261.923031 -11.740812 271.442563 -21.260344 283.18475 -21.260344 C 294.926938 -21.260344 304.446469 -11.740812 304.446469 0.001375 Z M 304.446469 0.001375 " transform="matrix(1, 0, 0, -1, 64.534, 51.517)"/>
</g>
<g fill="var(--black)" fill-opacity="1">
<use xlink:href="#bayes_theorem_message_passing_glyph-0-2" x="343.297" y="53.549"/>
</g>
<path fill-rule="nonzero" fill="var(--black)" fill-opacity="1" stroke-width="2.26773" stroke-linecap="butt" stroke-linejoin="miter" stroke="var(--black)" stroke-opacity="1" stroke-miterlimit="10" d="M 363.407406 -14.174406 L 391.751156 -14.174406 L 391.751156 14.17325 L 363.407406 14.17325 Z M 363.407406 -14.174406 " transform="matrix(1, 0, 0, -1, 64.534, 51.517)"/>
<g fill="var(--black)" fill-opacity="1">
<use xlink:href="#bayes_theorem_message_passing_glyph-0-3" x="461.135" y="55.82"/>
</g>
<g fill="var(--black)" fill-opacity="1">
<use xlink:href="#bayes_theorem_message_passing_glyph-1-0" x="469.246" y="55.82"/>
</g>
<g fill="var(--black)" fill-opacity="1">
<use xlink:href="#bayes_theorem_message_passing_glyph-0-2" x="475.343" y="55.82"/>
</g>
<g fill="var(--black)" fill-opacity="1">
<use xlink:href="#bayes_theorem_message_passing_glyph-2-1" x="488.005" y="55.82"/>
</g>
<g fill="var(--black)" fill-opacity="1">
<use xlink:href="#bayes_theorem_message_passing_glyph-0-2" x="505.221" y="55.82"/>
</g>
<g fill="var(--black)" fill-opacity="1">
<use xlink:href="#bayes_theorem_message_passing_glyph-3-0" x="513.44" y="58.402"/>
<use xlink:href="#bayes_theorem_message_passing_glyph-3-1" x="519.293266" y="58.402"/>
<use xlink:href="#bayes_theorem_message_passing_glyph-3-2" x="525.298363" y="58.402"/>
</g>
<g fill="var(--black)" fill-opacity="1">
<use xlink:href="#bayes_theorem_message_passing_glyph-1-1" x="530.284" y="55.82"/>
</g>
<path fill="none" stroke-width="2.26773" stroke-linecap="butt" stroke-linejoin="miter" stroke="var(--black)" stroke-opacity="1" stroke-miterlimit="10" d="M 15.305844 0.001375 L 72.001156 0.001375 " transform="matrix(1, 0, 0, -1, 64.534, 51.517)"/>
<path fill="none" stroke-width="2.26773" stroke-linecap="butt" stroke-linejoin="miter" stroke="var(--black)" stroke-opacity="1" stroke-miterlimit="10" d="M 116.790219 0.001375 L 173.481625 0.001375 " transform="matrix(1, 0, 0, -1, 64.534, 51.517)"/>
<path fill="none" stroke-width="2.26773" stroke-linecap="butt" stroke-linejoin="miter" stroke="var(--black)" stroke-opacity="1" stroke-miterlimit="10" d="M 204.098813 0.001375 L 260.790219 0.001375 " transform="matrix(1, 0, 0, -1, 64.534, 51.517)"/>
<path fill="none" stroke-width="2.26773" stroke-linecap="butt" stroke-linejoin="miter" stroke="var(--black)" stroke-opacity="1" stroke-miterlimit="10" d="M 305.579281 0.001375 L 362.270688 0.001375 " transform="matrix(1, 0, 0, -1, 64.534, 51.517)"/>
<path fill="none" stroke-width="2.26773" stroke-linecap="butt" stroke-linejoin="miter" stroke="rgb(100%, 0%, 0%)" stroke-opacity="1" stroke-miterlimit="10" d="M 18.880062 16.724031 L 70.719906 16.724031 " transform="matrix(1, 0, 0, -1, 64.534, 51.517)"/>
<path fill-rule="nonzero" fill="rgb(100%, 0%, 0%)" fill-opacity="1" d="M 140.050781 34.792969 L 132.375 30.957031 L 135.253906 34.792969 L 132.375 38.628906 "/>
<g fill="var(--black)" fill-opacity="1">
<use xlink:href="#bayes_theorem_message_passing_glyph-0-4" x="103.485" y="26.991"/>
</g>
<g fill="var(--black)" fill-opacity="1">
<use xlink:href="#bayes_theorem_message_passing_glyph-4-0" x="113.626" y="29.573"/>
</g>
<path fill="none" stroke-width="2.26773" stroke-linecap="butt" stroke-linejoin="miter" stroke="rgb(0%, 100%, 0%)" stroke-opacity="1" stroke-miterlimit="10" d="M 118.071469 16.724031 L 169.911313 16.724031 " transform="matrix(1, 0, 0, -1, 64.534, 51.517)"/>
<path fill-rule="nonzero" fill="rgb(0%, 100%, 0%)" fill-opacity="1" d="M 177.808594 34.792969 L 185.480469 38.628906 L 182.605469 34.792969 L 185.480469 30.957031 "/>
<g fill="var(--black)" fill-opacity="1">
<use xlink:href="#bayes_theorem_message_passing_glyph-0-4" x="197.878" y="26.991"/>
</g>
<g fill="var(--black)" fill-opacity="1">
<use xlink:href="#bayes_theorem_message_passing_glyph-4-1" x="208.02" y="29.573"/>
</g>
<path fill="none" stroke-width="2.26773" stroke-linecap="butt" stroke-linejoin="miter" stroke="rgb(0%, 0%, 100%)" stroke-opacity="1" stroke-miterlimit="10" d="M 212.466 16.724031 L 264.305844 16.724031 " transform="matrix(1, 0, 0, -1, 64.534, 51.517)"/>
<path fill-rule="nonzero" fill="rgb(0%, 0%, 100%)" fill-opacity="1" d="M 272.203125 34.792969 L 279.875 38.628906 L 277 34.792969 L 279.875 30.957031 "/>
<g fill="var(--black)" fill-opacity="1">
<use xlink:href="#bayes_theorem_message_passing_glyph-0-4" x="292.272" y="26.991"/>
</g>
<g fill="var(--black)" fill-opacity="1">
<use xlink:href="#bayes_theorem_message_passing_glyph-4-2" x="302.414" y="29.573"/>
</g>
<path fill="none" stroke-width="2.26773" stroke-linecap="butt" stroke-linejoin="miter" stroke="rgb(0%, 0%, 100%)" stroke-opacity="1" stroke-miterlimit="10" d="M 306.860531 16.724031 L 358.700375 16.724031 " transform="matrix(1, 0, 0, -1, 64.534, 51.517)"/>
<path fill-rule="nonzero" fill="rgb(0%, 0%, 100%)" fill-opacity="1" d="M 366.597656 34.792969 L 374.273438 38.628906 L 371.394531 34.792969 L 374.273438 30.957031 "/>
<g fill="var(--black)" fill-opacity="1">
<use xlink:href="#bayes_theorem_message_passing_glyph-0-4" x="386.666" y="26.991"/>
</g>
<g fill="var(--black)" fill-opacity="1">
<use xlink:href="#bayes_theorem_message_passing_glyph-4-2" x="396.807" y="29.573"/>
</g>
</svg>
