<?xml version="1.0" encoding="UTF-8"?>
<svg xmlns="http://www.w3.org/2000/svg" xmlns:xlink="http://www.w3.org/1999/xlink" width="565.372" height="237.948" viewBox="0 0 565.372 237.948">
<style>/* === RDF autogenerated palette === */
:root {
    --axis-color: #000;
    --grid-stroke: rgba(0,0,0,0.2);
    --plot3d-stroke: rgba(0,0,0,0.3);
    --plot3d-grid: rgba(0,0,0,0.2);
}
@media (prefers-color-scheme: dark) {
    :root {
        --axis-color: #fff;
        --grid-stroke: rgba(255,255,255,0.2);
        --plot3d-stroke: rgba(255,255,255,0.3);
        --plot3d-grid: rgba(255,255,255,0.2);
    }
}

/* Light‑mode palette */
.black { fill:#000000; stroke:#000000; }:root { --black: #000000; }.c1 { fill:#FF0001; stroke:#FF0001; }:root { --c1: #FF0001; }.c2 { fill:#00FF02; stroke:#00FF02; }:root { --c2: #00FF02; }.c3 { fill:#0000FF; stroke:#0000FF; }:root { --c3: #0000FF; }.c4 { fill:#FF00FF; stroke:#FF00FF; }:root { --c4: #FF00FF; }.c5 { fill:#00FFFF; stroke:#00FFFF; }:root { --c5: #00FFFF; }.c6 { fill:#FFFF00; stroke:#FFFF00; }:root { --c6: #FFFF00; }.c7 { fill:#FF8000; stroke:#FF8000; }:root { --c7: #FF8000; }.c8 { fill:#8000FF; stroke:#8000FF; }:root { --c8: #8000FF; }.gray { fill:#7f7f7f; stroke:#7f7f7f; }:root { --gray: #7f7f7f; }.grey { fill:#7f7f7f; stroke:#7f7f7f; }:root { --grey: #7f7f7f; }.octonary { fill:#bcbd22; stroke:#bcbd22; }:root { --octonary: #bcbd22; }.primary { fill:#d62728; stroke:#d62728; }:root { --primary: #d62728; }.quaternary { fill:#9467bd; stroke:#9467bd; }:root { --quaternary: #9467bd; }.quinary { fill:#8c564b; stroke:#8c564b; }:root { --quinary: #8c564b; }.secondary { fill:#2ca02c; stroke:#2ca02c; }:root { --secondary: #2ca02c; }.senary { fill:#e377c2; stroke:#e377c2; }:root { --senary: #e377c2; }.septenary { fill:#7f7f7f; stroke:#7f7f7f; }:root { --septenary: #7f7f7f; }.tertiary { fill:#1f77b4; stroke:#1f77b4; }:root { --tertiary: #1f77b4; }.white { fill:#ffffff; stroke:#ffffff; }:root { --white: #ffffff; }

/* Dark overrides */
@media (prefers-color-scheme: dark) {
    .black { fill:#FFFFFF; stroke:#FFFFFF; }:root { --black: #FFFFFF; }.c1 { fill:#FF0001; stroke:#FF0001; }:root { --c1: #FF0001; }.c2 { fill:#00FF02; stroke:#00FF02; }:root { --c2: #00FF02; }.c3 { fill:#0000FF; stroke:#0000FF; }:root { --c3: #0000FF; }.c4 { fill:#FF00FF; stroke:#FF00FF; }:root { --c4: #FF00FF; }.c5 { fill:#00FFFF; stroke:#00FFFF; }:root { --c5: #00FFFF; }.c6 { fill:#FFFF00; stroke:#FFFF00; }:root { --c6: #FFFF00; }.c7 { fill:#FF8000; stroke:#FF8000; }:root { --c7: #FF8000; }.c8 { fill:#8000FF; stroke:#8000FF; }:root { --c8: #8000FF; }.gray { fill:#CCCCCC; stroke:#CCCCCC; }:root { --gray: #CCCCCC; }.grey { fill:#CCCCCC; stroke:#CCCCCC; }:root { --grey: #CCCCCC; }.octonary { fill:#E6DB74; stroke:#E6DB74; }:root { --octonary: #E6DB74; }.primary { fill:#FF4A98; stroke:#FF4A98; }:root { --primary: #FF4A98; }.quaternary { fill:#B4A0FF; stroke:#B4A0FF; }:root { --quaternary: #B4A0FF; }.quinary { fill:#FFB86B; stroke:#FFB86B; }:root { --quinary: #FFB86B; }.secondary { fill:#0AFAFA; stroke:#0AFAFA; }:root { --secondary: #0AFAFA; }.senary { fill:#FF79C6; stroke:#FF79C6; }:root { --senary: #FF79C6; }.septenary { fill:#CCCCCC; stroke:#CCCCCC; }:root { --septenary: #CCCCCC; }.tertiary { fill:#7F83FF; stroke:#7F83FF; }:root { --tertiary: #7F83FF; }.white { fill:#000000; stroke:#000000; }:root { --white: #000000; }
}/* Axis, ticks, legend */
text, .text { fill: var(--axis-color) !important; stroke: none !important; }
.axis line, .axis path,
.tick line, .tick path,
path.domain,
line.grid { stroke: var(--axis-color) !important; }
.legend text { fill: var(--axis-color) !important; }

/* Patch paths that relied on currentColor */
.patch path[style*="stroke: currentColor"] { stroke: var(--axis-color) !important; }

/* Legend background (first child of legend group) */
g.legend > g:first-child > path:first-child {
    fill: rgba(255,255,255,0.8) !important;
    stroke: rgba(0,0,0,0.1) !important;
}
@media (prefers-color-scheme: dark) {
    g.legend > g:first-child > path:first-child {
        fill: rgba(26,26,26,0.8) !important;
        stroke: rgba(255,255,255,0.1) !important;
    }
}

/* 3‑D specific rules */
.plot3d path, .plot3d polygon {
    stroke: var(--plot3d-stroke) !important;
}
.plot3d-grid line { stroke: var(--plot3d-grid) !important; }
.plot3d-surface path[style*="fill:"] {
    fill-opacity: 0.9 !important;
}
@media (prefers-color-scheme: dark) {
    .plot3d-surface path[style*="fill:"] {
        fill-opacity: 0.95 !important;
        filter: saturate(1.2) !important;
    }
}</style>

<defs>
<g class="glyph">
<g id="bayesian_network_and_mrf_glyph-0-0">
<path d="M 6.890625 -2.046875 C 6.890625 -2.125 6.828125 -2.1875 6.734375 -2.1875 C 6.609375 -2.1875 6.59375 -2.109375 6.5625 -2 C 6.171875 -0.734375 5.328125 -0.140625 4.6875 -0.140625 C 4.1875 -0.140625 3.921875 -0.515625 3.921875 -1.109375 C 3.921875 -1.421875 3.96875 -1.65625 4.203125 -2.59375 L 4.703125 -4.546875 C 4.921875 -5.40625 5.40625 -6.03125 6.0625 -6.03125 C 6.0625 -6.03125 6.5 -6.03125 6.796875 -5.859375 C 6.34375 -5.765625 6.171875 -5.421875 6.171875 -5.15625 C 6.171875 -4.8125 6.4375 -4.6875 6.640625 -4.6875 C 7.078125 -4.6875 7.375 -5.0625 7.375 -5.453125 C 7.375 -6.046875 6.6875 -6.328125 6.078125 -6.328125 C 5.203125 -6.328125 4.71875 -5.46875 4.59375 -5.1875 C 4.265625 -6.265625 3.375 -6.328125 3.109375 -6.328125 C 1.65625 -6.328125 0.875 -4.453125 0.875 -4.125 C 0.875 -4.078125 0.9375 -4 1.03125 -4 C 1.140625 -4 1.171875 -4.09375 1.203125 -4.140625 C 1.6875 -5.734375 2.65625 -6.03125 3.0625 -6.03125 C 3.71875 -6.03125 3.84375 -5.4375 3.84375 -5.09375 C 3.84375 -4.78125 3.765625 -4.453125 3.578125 -3.765625 L 3.09375 -1.796875 C 2.890625 -0.9375 2.46875 -0.140625 1.703125 -0.140625 C 1.640625 -0.140625 1.28125 -0.140625 0.96875 -0.328125 C 1.484375 -0.4375 1.609375 -0.859375 1.609375 -1.03125 C 1.609375 -1.3125 1.390625 -1.484375 1.125 -1.484375 C 0.78125 -1.484375 0.40625 -1.1875 0.40625 -0.734375 C 0.40625 -0.125 1.078125 0.140625 1.6875 0.140625 C 2.375 0.140625 2.875 -0.40625 3.171875 -0.984375 C 3.40625 -0.140625 4.109375 0.140625 4.640625 0.140625 C 6.109375 0.140625 6.890625 -1.734375 6.890625 -2.046875 Z M 6.890625 -2.046875 "/>
</g>
<g id="bayesian_network_and_mrf_glyph-1-0">
<path d="M 4.6875 -1.640625 L 4.6875 -1.953125 L 3.703125 -1.953125 L 3.703125 -6.484375 C 3.703125 -6.6875 3.703125 -6.75 3.53125 -6.75 C 3.453125 -6.75 3.421875 -6.75 3.34375 -6.625 L 0.28125 -1.953125 L 0.28125 -1.640625 L 2.9375 -1.640625 L 2.9375 -0.78125 C 2.9375 -0.421875 2.90625 -0.3125 2.171875 -0.3125 L 1.96875 -0.3125 L 1.96875 0 C 2.375 -0.03125 2.890625 -0.03125 3.3125 -0.03125 C 3.734375 -0.03125 4.25 -0.03125 4.671875 0 L 4.671875 -0.3125 L 4.453125 -0.3125 C 3.71875 -0.3125 3.703125 -0.421875 3.703125 -0.78125 L 3.703125 -1.640625 Z M 2.984375 -1.953125 L 0.5625 -1.953125 L 2.984375 -5.671875 Z M 2.984375 -1.953125 "/>
</g>
<g id="bayesian_network_and_mrf_glyph-1-1">
<path d="M 4.171875 0 L 4.171875 -0.3125 L 3.859375 -0.3125 C 2.953125 -0.3125 2.9375 -0.421875 2.9375 -0.78125 L 2.9375 -6.375 C 2.9375 -6.625 2.9375 -6.640625 2.703125 -6.640625 C 2.078125 -6 1.203125 -6 0.890625 -6 L 0.890625 -5.6875 C 1.09375 -5.6875 1.671875 -5.6875 2.1875 -5.953125 L 2.1875 -0.78125 C 2.1875 -0.421875 2.15625 -0.3125 1.265625 -0.3125 L 0.953125 -0.3125 L 0.953125 0 C 1.296875 -0.03125 2.15625 -0.03125 2.5625 -0.03125 C 2.953125 -0.03125 3.828125 -0.03125 4.171875 0 Z M 4.171875 0 "/>
</g>
<g id="bayesian_network_and_mrf_glyph-1-2">
<path d="M 4.46875 -1.734375 L 4.234375 -1.734375 C 4.171875 -1.4375 4.109375 -1 4 -0.84375 C 3.9375 -0.765625 3.28125 -0.765625 3.0625 -0.765625 L 1.265625 -0.765625 L 2.328125 -1.796875 C 3.875 -3.171875 4.46875 -3.703125 4.46875 -4.703125 C 4.46875 -5.84375 3.578125 -6.640625 2.359375 -6.640625 C 1.234375 -6.640625 0.5 -5.71875 0.5 -4.828125 C 0.5 -4.28125 1 -4.28125 1.03125 -4.28125 C 1.203125 -4.28125 1.546875 -4.390625 1.546875 -4.8125 C 1.546875 -5.0625 1.359375 -5.328125 1.015625 -5.328125 C 0.9375 -5.328125 0.921875 -5.328125 0.890625 -5.3125 C 1.109375 -5.96875 1.65625 -6.328125 2.234375 -6.328125 C 3.140625 -6.328125 3.5625 -5.515625 3.5625 -4.703125 C 3.5625 -3.90625 3.078125 -3.125 2.515625 -2.5 L 0.609375 -0.375 C 0.5 -0.265625 0.5 -0.234375 0.5 0 L 4.203125 0 Z M 4.46875 -1.734375 "/>
</g>
<g id="bayesian_network_and_mrf_glyph-1-3">
<path d="M 4.5625 -1.703125 C 4.5625 -2.515625 3.921875 -3.296875 2.890625 -3.515625 C 3.703125 -3.78125 4.28125 -4.46875 4.28125 -5.265625 C 4.28125 -6.078125 3.40625 -6.640625 2.453125 -6.640625 C 1.453125 -6.640625 0.6875 -6.046875 0.6875 -5.28125 C 0.6875 -4.953125 0.90625 -4.765625 1.203125 -4.765625 C 1.5 -4.765625 1.703125 -4.984375 1.703125 -5.28125 C 1.703125 -5.765625 1.234375 -5.765625 1.09375 -5.765625 C 1.390625 -6.265625 2.046875 -6.390625 2.40625 -6.390625 C 2.828125 -6.390625 3.375 -6.171875 3.375 -5.28125 C 3.375 -5.15625 3.34375 -4.578125 3.09375 -4.140625 C 2.796875 -3.65625 2.453125 -3.625 2.203125 -3.625 C 2.125 -3.609375 1.890625 -3.59375 1.8125 -3.59375 C 1.734375 -3.578125 1.671875 -3.5625 1.671875 -3.46875 C 1.671875 -3.359375 1.734375 -3.359375 1.90625 -3.359375 L 2.34375 -3.359375 C 3.15625 -3.359375 3.53125 -2.6875 3.53125 -1.703125 C 3.53125 -0.34375 2.84375 -0.0625 2.40625 -0.0625 C 1.96875 -0.0625 1.21875 -0.234375 0.875 -0.8125 C 1.21875 -0.765625 1.53125 -0.984375 1.53125 -1.359375 C 1.53125 -1.71875 1.265625 -1.921875 0.984375 -1.921875 C 0.734375 -1.921875 0.421875 -1.78125 0.421875 -1.34375 C 0.421875 -0.4375 1.34375 0.21875 2.4375 0.21875 C 3.65625 0.21875 4.5625 -0.6875 4.5625 -1.703125 Z M 4.5625 -1.703125 "/>
</g>
</g>
<clipPath id="bayesian_network_and_mrf_clip-0">
<path clip-rule="nonzero" d="M 51 136 L 172 136 L 172 237.949219 L 51 237.949219 Z M 51 136 "/>
</clipPath>
<clipPath id="bayesian_network_and_mrf_clip-1">
<path clip-rule="nonzero" d="M 393 136 L 515 136 L 515 237.949219 L 393 237.949219 Z M 393 136 "/>
</clipPath>
<clipPath id="bayesian_network_and_mrf_clip-2">
<path clip-rule="nonzero" d="M 463 0 L 565.371094 0 L 565.371094 102 L 463 102 Z M 463 0 "/>
</clipPath>
</defs>
<g clip-path="url(#bayesian_network_and_mrf_clip-0)">
<path fill="none" stroke-width="2.26773" stroke-linecap="butt" stroke-linejoin="miter" stroke="var(--black)" stroke-opacity="1" stroke-miterlimit="10" d="M 28.347313 0.00128125 C 28.347313 15.657531 15.655906 28.345031 -0.00034375 28.345031 C -15.656594 28.345031 -28.348 15.657531 -28.348 0.00128125 C -28.348 -15.654969 -15.656594 -28.346375 -0.00034375 -28.346375 C 15.655906 -28.346375 28.347313 -15.654969 28.347313 0.00128125 Z M 28.347313 0.00128125 " transform="matrix(1, 0, 0, -1, 111.473, 196.513)"/>
</g>
<g fill="var(--black)" fill-opacity="1">
<use xlink:href="#bayesian_network_and_mrf_glyph-0-0" x="104.742" y="198.525"/>
</g>
<g fill="var(--black)" fill-opacity="1">
<use xlink:href="#bayesian_network_and_mrf_glyph-1-0" x="112.725" y="200.677"/>
</g>
<path fill="none" stroke-width="2.26773" stroke-linecap="butt" stroke-linejoin="miter" stroke="var(--black)" stroke-opacity="1" stroke-miterlimit="10" d="M -41.69175 155.079406 C -41.69175 170.735656 -54.383156 183.427063 -70.039406 183.427063 C -85.695656 183.427063 -98.387062 170.735656 -98.387062 155.079406 C -98.387062 139.423156 -85.695656 126.73175 -70.039406 126.73175 C -54.383156 126.73175 -41.69175 139.423156 -41.69175 155.079406 Z M -41.69175 155.079406 " transform="matrix(1, 0, 0, -1, 111.473, 196.513)"/>
<g fill="var(--black)" fill-opacity="1">
<use xlink:href="#bayesian_network_and_mrf_glyph-0-0" x="34.704" y="43.448"/>
</g>
<g fill="var(--black)" fill-opacity="1">
<use xlink:href="#bayesian_network_and_mrf_glyph-1-1" x="42.687" y="45.6"/>
</g>
<path fill="none" stroke-width="2.26773" stroke-linecap="butt" stroke-linejoin="miter" stroke="var(--black)" stroke-opacity="1" stroke-miterlimit="10" d="M 28.347313 115.653625 C 28.347313 131.309875 15.655906 144.001281 -0.00034375 144.001281 C -15.656594 144.001281 -28.348 131.309875 -28.348 115.653625 C -28.348 99.997375 -15.656594 87.309875 -0.00034375 87.309875 C 15.655906 87.309875 28.347313 99.997375 28.347313 115.653625 Z M 28.347313 115.653625 " transform="matrix(1, 0, 0, -1, 111.473, 196.513)"/>
<g fill="var(--black)" fill-opacity="1">
<use xlink:href="#bayesian_network_and_mrf_glyph-0-0" x="104.742" y="82.872"/>
</g>
<g fill="var(--black)" fill-opacity="1">
<use xlink:href="#bayesian_network_and_mrf_glyph-1-2" x="112.725" y="85.023"/>
</g>
<path fill="none" stroke-width="2.26773" stroke-linecap="butt" stroke-linejoin="miter" stroke="var(--black)" stroke-opacity="1" stroke-miterlimit="10" d="M 98.386375 155.079406 C 98.386375 170.735656 85.694969 183.427063 70.038719 183.427063 C 54.382469 183.427063 41.691063 170.735656 41.691063 155.079406 C 41.691063 139.423156 54.382469 126.73175 70.038719 126.73175 C 85.694969 126.73175 98.386375 139.423156 98.386375 155.079406 Z M 98.386375 155.079406 " transform="matrix(1, 0, 0, -1, 111.473, 196.513)"/>
<g fill="var(--black)" fill-opacity="1">
<use xlink:href="#bayesian_network_and_mrf_glyph-0-0" x="174.78" y="43.448"/>
</g>
<g fill="var(--black)" fill-opacity="1">
<use xlink:href="#bayesian_network_and_mrf_glyph-1-3" x="182.763" y="45.6"/>
</g>
<path fill="none" stroke-width="2.26773" stroke-linecap="butt" stroke-linejoin="miter" stroke="var(--black)" stroke-opacity="1" stroke-miterlimit="10" d="M -57.906594 128.212219 L -14.105812 31.239563 " transform="matrix(1, 0, 0, -1, 111.473, 196.513)"/>
<path fill-rule="nonzero" fill="var(--black)" fill-opacity="1" d="M 99.339844 169.644531 L 99.679688 161.074219 L 97.367188 165.273438 L 92.683594 164.230469 "/>
<path fill="none" stroke-width="2.26773" stroke-linecap="butt" stroke-linejoin="miter" stroke="var(--black)" stroke-opacity="1" stroke-miterlimit="10" d="M -0.00034375 86.173156 L -0.00034375 34.278625 " transform="matrix(1, 0, 0, -1, 111.473, 196.513)"/>
<path fill-rule="nonzero" fill="var(--black)" fill-opacity="1" d="M 111.472656 167.03125 L 115.308594 159.359375 L 111.472656 162.234375 L 107.636719 159.359375 "/>
<path fill="none" stroke-width="2.26773" stroke-linecap="butt" stroke-linejoin="miter" stroke="var(--black)" stroke-opacity="1" stroke-miterlimit="10" d="M 57.905906 128.212219 L 14.109031 31.239563 " transform="matrix(1, 0, 0, -1, 111.473, 196.513)"/>
<path fill-rule="nonzero" fill="var(--black)" fill-opacity="1" d="M 123.605469 169.644531 L 130.261719 164.230469 L 125.582031 165.273438 L 123.269531 161.074219 "/>
<g clip-path="url(#bayesian_network_and_mrf_clip-1)">
<path fill="none" stroke-width="2.26773" stroke-linecap="butt" stroke-linejoin="miter" stroke="var(--black)" stroke-opacity="1" stroke-miterlimit="10" d="M 370.777 0.00128125 C 370.777 15.657531 358.085594 28.345031 342.429344 28.345031 C 326.773094 28.345031 314.081687 15.657531 314.081687 0.00128125 C 314.081687 -15.654969 326.773094 -28.346375 342.429344 -28.346375 C 358.085594 -28.346375 370.777 -15.654969 370.777 0.00128125 Z M 370.777 0.00128125 " transform="matrix(1, 0, 0, -1, 111.473, 196.513)"/>
</g>
<g fill="var(--black)" fill-opacity="1">
<use xlink:href="#bayesian_network_and_mrf_glyph-0-0" x="447.167" y="198.525"/>
</g>
<g fill="var(--black)" fill-opacity="1">
<use xlink:href="#bayesian_network_and_mrf_glyph-1-0" x="455.15" y="200.677"/>
</g>
<path fill="none" stroke-width="2.26773" stroke-linecap="butt" stroke-linejoin="miter" stroke="var(--black)" stroke-opacity="1" stroke-miterlimit="10" d="M 300.737937 155.079406 C 300.737937 170.735656 288.046531 183.427063 272.390281 183.427063 C 256.734031 183.427063 244.042625 170.735656 244.042625 155.079406 C 244.042625 139.423156 256.734031 126.73175 272.390281 126.73175 C 288.046531 126.73175 300.737937 139.423156 300.737937 155.079406 Z M 300.737937 155.079406 " transform="matrix(1, 0, 0, -1, 111.473, 196.513)"/>
<g fill="var(--black)" fill-opacity="1">
<use xlink:href="#bayesian_network_and_mrf_glyph-0-0" x="377.13" y="43.448"/>
</g>
<g fill="var(--black)" fill-opacity="1">
<use xlink:href="#bayesian_network_and_mrf_glyph-1-1" x="385.112" y="45.6"/>
</g>
<path fill="none" stroke-width="2.26773" stroke-linecap="butt" stroke-linejoin="miter" stroke="var(--black)" stroke-opacity="1" stroke-miterlimit="10" d="M 370.777 115.653625 C 370.777 131.309875 358.085594 144.001281 342.429344 144.001281 C 326.773094 144.001281 314.081687 131.309875 314.081687 115.653625 C 314.081687 99.997375 326.773094 87.309875 342.429344 87.309875 C 358.085594 87.309875 370.777 99.997375 370.777 115.653625 Z M 370.777 115.653625 " transform="matrix(1, 0, 0, -1, 111.473, 196.513)"/>
<g fill="var(--black)" fill-opacity="1">
<use xlink:href="#bayesian_network_and_mrf_glyph-0-0" x="447.167" y="82.872"/>
</g>
<g fill="var(--black)" fill-opacity="1">
<use xlink:href="#bayesian_network_and_mrf_glyph-1-2" x="455.15" y="85.023"/>
</g>
<g clip-path="url(#bayesian_network_and_mrf_clip-2)">
<path fill="none" stroke-width="2.26773" stroke-linecap="butt" stroke-linejoin="miter" stroke="var(--black)" stroke-opacity="1" stroke-miterlimit="10" d="M 440.816062 155.079406 C 440.816062 170.735656 428.124656 183.427063 412.468406 183.427063 C 396.812156 183.427063 384.12075 170.735656 384.12075 155.079406 C 384.12075 139.423156 396.812156 126.73175 412.468406 126.73175 C 428.124656 126.73175 440.816062 139.423156 440.816062 155.079406 Z M 440.816062 155.079406 " transform="matrix(1, 0, 0, -1, 111.473, 196.513)"/>
</g>
<g fill="var(--black)" fill-opacity="1">
<use xlink:href="#bayesian_network_and_mrf_glyph-0-0" x="517.205" y="43.448"/>
</g>
<g fill="var(--black)" fill-opacity="1">
<use xlink:href="#bayesian_network_and_mrf_glyph-1-3" x="525.188" y="45.6"/>
</g>
<path fill="none" stroke-width="2.26773" stroke-linecap="butt" stroke-linejoin="miter" stroke="var(--black)" stroke-opacity="1" stroke-miterlimit="10" d="M 330.296531 26.868469 L 284.523094 128.212219 " transform="matrix(1, 0, 0, -1, 111.473, 196.513)"/>
<path fill="none" stroke-width="2.26773" stroke-linecap="butt" stroke-linejoin="miter" stroke="var(--black)" stroke-opacity="1" stroke-miterlimit="10" d="M 342.429344 29.48175 L 342.429344 86.173156 " transform="matrix(1, 0, 0, -1, 111.473, 196.513)"/>
<path fill="none" stroke-width="2.26773" stroke-linecap="butt" stroke-linejoin="miter" stroke="var(--black)" stroke-opacity="1" stroke-miterlimit="10" d="M 354.562156 26.868469 L 400.335594 128.212219 " transform="matrix(1, 0, 0, -1, 111.473, 196.513)"/>
<path fill="none" stroke-width="2.26773" stroke-linecap="butt" stroke-linejoin="miter" stroke="var(--black)" stroke-opacity="1" stroke-miterlimit="10" d="M 316.741844 130.114563 L 298.077781 140.618469 " transform="matrix(1, 0, 0, -1, 111.473, 196.513)"/>
<path fill="none" stroke-width="2.26773" stroke-linecap="butt" stroke-linejoin="miter" stroke="var(--black)" stroke-opacity="1" stroke-miterlimit="10" d="M 368.116844 130.114563 L 386.780906 140.618469 " transform="matrix(1, 0, 0, -1, 111.473, 196.513)"/>
<path fill="none" stroke-width="2.26773" stroke-linecap="butt" stroke-linejoin="miter" stroke="var(--black)" stroke-opacity="1" stroke-miterlimit="10" d="M 301.87075 155.079406 L 382.987937 155.079406 " transform="matrix(1, 0, 0, -1, 111.473, 196.513)"/>
</svg>
