<svg xmlns="http://www.w3.org/2000/svg" xmlns:xlink="http://www.w3.org/1999/xlink" width="325.517" height="187.186" style="--axis-color:#000;--grid-stroke:rgba(0,0,0,0.2);--plot3d-stroke:rgba(0,0,0,0.3);--plot3d-grid:rgba(0,0,0,0.2);--black:#000000;--c1:#FF0001;--c2:#00FF02;--c3:#0000FF;--c4:#FF00FF;--c5:#00FFFF;--c6:#FFFF00;--c7:#FF8000;--c8:#8000FF;--gray:#7f7f7f;--grey:#7f7f7f;--octonary:#bcbd22;--primary:#d62728;--quaternary:#9467bd;--quinary:#8c564b;--secondary:#2ca02c;--senary:#e377c2;--septenary:#7f7f7f;--tertiary:#1f77b4;--white:#ffffff" viewBox="0 0 325.517 187.186"><style><![CDATA[@media (prefers-color-scheme:dark){:root{--axis-color:#fff;--grid-stroke:rgba(255,255,255,0.2);--plot3d-stroke:rgba(255,255,255,0.3);--plot3d-grid:rgba(255,255,255,0.2);--black:#FFFFFF;--c1:#FF0001;--c2:#00FF02;--c3:#0000FF;--c4:#FF00FF;--c5:#00FFFF;--c6:#FFFF00;--c7:#FF8000;--c8:#8000FF;--gray:#CCCCCC;--grey:#CCCCCC;--octonary:#E6DB74;--primary:#FF4A98;--quaternary:#B4A0FF;--quinary:#FFB86B;--secondary:#0AFAFA;--senary:#FF79C6;--septenary:#CCCCCC;--tertiary:#7F83FF;--white:#000000}}]]></style><defs><path id="bayesian_network_glyph-0-0" d="M10.172-2.547c0-.25-.25-.25-.406-.25-.203 0-.328 0-.407.235C8.875-1 7.625-.485 6.922-.485c-.656 0-.969-.313-.969-.86 0-.36.234-1.281.39-1.906l.595-2.344c.265-1.031.859-1.562 1.468-1.562.078 0 .485 0 .828.25a1.295 1.295 0 0 0-.937 1.187c0 .375.297.797.86.797.609 0 1.25-.5 1.25-1.344 0-.921-.923-1.515-1.97-1.515-.984 0-1.624.734-1.843 1.047-.422-.72-1.39-1.047-2.375-1.047-2.172 0-3.344 2.11-3.344 2.687 0 .235.266.235.422.235.203 0 .328 0 .39-.22.5-1.562 1.735-2.077 2.438-2.077.656 0 .969.297.969.86 0 .327-.235 1.265-.39 1.89l-.595 2.36C3.86-1 3.234-.485 2.656-.485c-.094 0-.484 0-.828-.25.61-.172.922-.766.922-1.188 0-.39-.281-.797-.86-.797-.593 0-1.234.5-1.234 1.344 0 .906.907 1.516 1.969 1.516.969 0 1.61-.75 1.828-1.047C4.891-.187 5.86.14 6.828.14c2.172 0 3.344-2.125 3.344-2.688m0 0"/><path id="bayesian_network_glyph-1-0" d="M5.766 0v-.516H4.14V-7.5c0-.344-.032-.344-.407-.344-.89.766-2.218.766-2.484.766h-.219v.516h.219c.422 0 1.063-.079 1.531-.235v6.281H1.125V0l2.313-.031Zm0 0"/><path id="bayesian_network_glyph-1-1" d="M6.14-2.14c0-.579-.296-1.72-2.14-2.047 1.047-.313 1.766-1.063 1.766-2 0-.907-.86-1.657-2.516-1.657-1.344 0-2.312.703-2.312 1.672 0 .61.468.797.765.797.36 0 .766-.234.766-.781 0-.282-.11-.688-.672-.766.5-.484 1.312-.484 1.375-.484 1.078 0 1.078.812 1.078 1.172s-.047.922-.437 1.406c-.313.406-.626.422-1.079.453-.14.016-.375.031-.421.047-.079.031-.079.125-.079.172 0 .203.079.203.313.203h.578c1.328 0 1.328 1.234 1.328 1.812 0 .532 0 1.813-1.281 1.813-.25 0-1.047-.047-1.625-.453.516-.11.703-.469.703-.828 0-.5-.344-.844-.844-.844s-.843.344-.843.844C.563-.5 1.75.14 3.234.14c1.97 0 2.907-1.078 2.907-2.282m0 0"/><path id="bayesian_network_glyph-1-2" d="M6.031-2.562h-.5c-.031.25-.11.953-.297 1.062-.093.094-1.03.094-1.203.094h-1.86l1.72-1.422c1.328-1 2.14-1.61 2.14-2.75 0-1.422-1.281-2.266-2.86-2.266-1.343 0-2.5.766-2.5 1.907 0 .625.517.812.782.812.375 0 .813-.25.813-.797 0-.516-.375-.766-.75-.812.484-.547 1.109-.594 1.359-.594 1.11 0 1.625.89 1.625 1.766 0 .921-.625 1.78-1.125 2.296L.781-.546c-.11.109-.11.124-.11.343V0h5.017Zm0 0"/><path id="bayesian_network_glyph-1-3" d="M6.328 0v-.516H5.172v-1.359h1.156v-.516H5.172v-5.125c0-.296-.016-.343-.313-.343-.203 0-.234 0-.375.172L.375-2.391v.516h3.39v1.36H2.47V0C2.813-.031 4-.031 4.422-.031c.406 0 1.594 0 1.906.031M3.875-2.39H.922l2.953-3.797Zm0 0"/><path id="bayesian_network_glyph-1-4" d="M6.031-2.406c0-1.453-.984-2.5-2.625-2.5-.484 0-1.047.093-1.562.484v-1.781c.406.094.718.094.906.094.281 0 .969 0 1.766-.485.375-.234 1-.765 1-1.047 0-.062 0-.203-.157-.203 0 0-.03 0-.14.063-.563.187-1.14.328-1.813.328-.687 0-1.25-.14-1.812-.344-.094-.016-.125-.047-.157-.047-.14 0-.14.125-.14.328v3.47c0 .234 0 .359.234.359.125 0 .14 0 .235-.126.14-.171.578-.687 1.593-.687 1.094 0 1.094 1.125 1.094 2.063 0 .859 0 2.109-1.469 2.109-.437 0-1.187-.172-1.593-.86.625 0 .78-.468.78-.734a.72.72 0 0 0-.75-.75c-.359 0-.75.203-.75.766C.672-.86 1.61.14 3.032.14c1.844 0 3-1.063 3-2.547m0 0"/><clipPath id="bayesian_network_clip-0"><path d="M223 0h102.516v102H223Zm0 0"/></clipPath><clipPath id="bayesian_network_clip-1"><path d="M102 85h122v102.188H102Zm0 0"/></clipPath><clipPath id="bayesian_network_clip-2"><path d="M223 85h102.516v102.188H223Zm0 0"/></clipPath></defs><path fill="none" stroke="var(--black)" stroke-miterlimit="10" stroke-width="2.268" d="M69.781 41.438c0-15.657-12.691-28.348-28.347-28.348-15.653 0-28.344 12.691-28.344 28.348 0 15.652 12.691 28.343 28.344 28.343 15.656 0 28.347-12.691 28.347-28.344Zm0 0"/><use xlink:href="#bayesian_network_glyph-0-0" x="32.151" y="43.97" fill="var(--black)"/><use xlink:href="#bayesian_network_glyph-1-0" x="43.497" y="46.552" fill="var(--black)"/><path fill="none" stroke="var(--black)" stroke-miterlimit="10" stroke-width="2.268" d="M191.105 41.438c0-15.657-12.69-28.348-28.347-28.348-15.653 0-28.344 12.691-28.344 28.348 0 15.652 12.691 28.343 28.344 28.343 15.656 0 28.347-12.691 28.347-28.344Zm0 0"/><use xlink:href="#bayesian_network_glyph-0-0" x="153.474" y="43.97" fill="var(--black)"/><use xlink:href="#bayesian_network_glyph-1-1" x="164.819" y="46.552" fill="var(--black)"/><g clip-path="url(#bayesian_network_clip-0)"><path fill="none" stroke="var(--black)" stroke-miterlimit="10" stroke-width="2.268" d="M312.43 41.438c0-15.657-12.692-28.348-28.348-28.348-15.652 0-28.344 12.691-28.344 28.348 0 15.652 12.692 28.343 28.344 28.343 15.656 0 28.348-12.691 28.348-28.344Zm0 0"/></g><use xlink:href="#bayesian_network_glyph-0-0" x="274.797" y="43.97" fill="var(--black)"/><use xlink:href="#bayesian_network_glyph-1-2" x="286.142" y="46.552" fill="var(--black)"/><g clip-path="url(#bayesian_network_clip-1)"><path fill="none" stroke="var(--black)" stroke-miterlimit="10" stroke-width="2.268" d="M191.105 145.754c0-15.656-12.69-28.348-28.347-28.348-15.653 0-28.344 12.692-28.344 28.348 0 15.652 12.691 28.344 28.344 28.344 15.656 0 28.347-12.692 28.347-28.344Zm0 0"/></g><use xlink:href="#bayesian_network_glyph-0-0" x="153.474" y="148.285" fill="var(--black)"/><use xlink:href="#bayesian_network_glyph-1-3" x="164.819" y="150.867" fill="var(--black)"/><g clip-path="url(#bayesian_network_clip-2)"><path fill="none" stroke="var(--black)" stroke-miterlimit="10" stroke-width="2.268" d="M312.43 145.754c0-15.656-12.692-28.348-28.348-28.348-15.652 0-28.344 12.692-28.344 28.348 0 15.652 12.692 28.344 28.344 28.344 15.656 0 28.348-12.692 28.348-28.344Zm0 0"/></g><use xlink:href="#bayesian_network_glyph-0-0" x="274.797" y="148.285" fill="var(--black)"/><use xlink:href="#bayesian_network_glyph-1-4" x="286.142" y="150.867" fill="var(--black)"/><path fill="none" stroke="var(--black)" stroke-miterlimit="10" stroke-width="2.268" d="M70.914 41.438h57.566"/><path fill="var(--black)" d="m133.277 41.438-7.672-3.84 2.875 3.84-2.875 3.835"/><path fill="none" stroke="var(--black)" stroke-miterlimit="10" stroke-width="2.268" d="m63.79 60.656 72.98 62.75"/><path fill="var(--black)" d="m140.406 126.531-3.316-7.91-.32 4.785-4.684 1.031"/><path fill="none" stroke="var(--black)" stroke-miterlimit="10" stroke-width="2.268" d="M162.758 70.918v40.559"/><path fill="var(--black)" d="m162.758 116.273 3.84-7.675-3.84 2.879-3.836-2.88"/><path fill="none" stroke="var(--black)" stroke-miterlimit="10" stroke-width="2.268" d="m185.113 60.656 72.98 62.75"/><path fill="var(--black)" d="m261.73 126.531-3.316-7.91-.32 4.785-4.684 1.031"/><path fill="none" stroke="var(--black)" stroke-miterlimit="10" stroke-width="2.268" d="M284.082 70.918v40.559"/><path fill="var(--black)" d="m284.082 116.273 3.84-7.675-3.84 2.879-3.836-2.88"/><path fill="none" stroke="var(--black)" stroke-miterlimit="10" stroke-width="2.268" d="M192.238 145.754h57.57"/><path fill="var(--black)" d="m254.602 145.754-7.672-3.84 2.879 3.84-2.88 3.836"/></svg>