<svg xmlns="http://www.w3.org/2000/svg" xmlns:xlink="http://www.w3.org/1999/xlink" width="565.372" height="237.948" style="--axis-color:#000;--grid-stroke:rgba(0,0,0,0.2);--plot3d-stroke:rgba(0,0,0,0.3);--plot3d-grid:rgba(0,0,0,0.2);--black:#000000;--c1:#FF0001;--c2:#00FF02;--c3:#0000FF;--c4:#FF00FF;--c5:#00FFFF;--c6:#FFFF00;--c7:#FF8000;--c8:#8000FF;--gray:#7f7f7f;--grey:#7f7f7f;--octonary:#bcbd22;--primary:#d62728;--quaternary:#9467bd;--quinary:#8c564b;--secondary:#2ca02c;--senary:#e377c2;--septenary:#7f7f7f;--tertiary:#1f77b4;--white:#ffffff" viewBox="0 0 565.372 237.948"><style><![CDATA[@media (prefers-color-scheme:dark){:root{--axis-color:#fff;--grid-stroke:rgba(255,255,255,0.2);--plot3d-stroke:rgba(255,255,255,0.3);--plot3d-grid:rgba(255,255,255,0.2);--black:#FFFFFF;--c1:#FF0001;--c2:#00FF02;--c3:#0000FF;--c4:#FF00FF;--c5:#00FFFF;--c6:#FFFF00;--c7:#FF8000;--c8:#8000FF;--gray:#CCCCCC;--grey:#CCCCCC;--octonary:#E6DB74;--primary:#FF4A98;--quaternary:#B4A0FF;--quinary:#FFB86B;--secondary:#0AFAFA;--senary:#FF79C6;--septenary:#CCCCCC;--tertiary:#7F83FF;--white:#000000}}]]></style><defs><path id="bayesian_network_and_mrf_glyph-0-0" d="M6.89-2.047c0-.078-.062-.14-.156-.14-.125 0-.14.078-.171.187C6.172-.734 5.328-.14 4.688-.14c-.5 0-.766-.376-.766-.97 0-.312.047-.546.281-1.484l.5-1.953c.219-.86.703-1.484 1.36-1.484 0 0 .437 0 .734.172-.453.093-.625.437-.625.703 0 .343.266.468.469.468.437 0 .734-.375.734-.765 0-.594-.687-.875-1.297-.875-.875 0-1.36.86-1.484 1.14-.328-1.078-1.219-1.14-1.485-1.14-1.453 0-2.234 1.875-2.234 2.203 0 .047.063.125.156.125.11 0 .14-.094.172-.14.484-1.594 1.453-1.891 1.86-1.891.656 0 .78.593.78.937 0 .313-.077.64-.265 1.328l-.484 1.97c-.203.859-.625 1.655-1.39 1.655-.063 0-.423 0-.735-.187.515-.11.64-.531.64-.703 0-.282-.218-.453-.484-.453a.744.744 0 0 0-.719.75c0 .609.672.875 1.281.875.688 0 1.188-.547 1.485-1.125C3.406-.141 4.109.14 4.64.14c1.468 0 2.25-1.875 2.25-2.188m0 0"/><path id="bayesian_network_and_mrf_glyph-1-0" d="M4.688-1.64v-.313h-.985v-4.531c0-.203 0-.266-.172-.266-.078 0-.11 0-.187.125L.28-1.953v.312h2.657v.86c0 .36-.032.469-.766.469h-.203V0c.406-.031.922-.031 1.344-.031.421 0 .937 0 1.359.031v-.312h-.219c-.734 0-.75-.11-.75-.47v-.859Zm-1.704-.313H.563l2.421-3.719Zm0 0"/><path id="bayesian_network_and_mrf_glyph-1-1" d="M4.172 0v-.312h-.313c-.906 0-.921-.11-.921-.47v-5.593c0-.25 0-.266-.235-.266C2.078-6 1.203-6 .891-6v.313c.203 0 .78 0 1.297-.266v5.172c0 .36-.032.469-.922.469H.953V0c.344-.031 1.203-.031 1.61-.031.39 0 1.265 0 1.609.031m0 0"/><path id="bayesian_network_and_mrf_glyph-1-2" d="M4.469-1.734h-.235C4.172-1.437 4.11-1 4-.844c-.062.078-.719.078-.937.078H1.266l1.062-1.03c1.547-1.376 2.14-1.907 2.14-2.907 0-1.14-.89-1.938-2.109-1.938C1.234-6.64.5-5.719.5-4.828c0 .547.5.547.531.547.172 0 .516-.11.516-.532a.513.513 0 0 0-.531-.515c-.079 0-.094 0-.125.016.218-.657.765-1.016 1.343-1.016.907 0 1.329.812 1.329 1.625 0 .797-.485 1.578-1.047 2.203L.609-.375C.5-.265.5-.235.5 0h3.703Zm0 0"/><path id="bayesian_network_and_mrf_glyph-1-3" d="M4.563-1.703c0-.813-.641-1.594-1.672-1.813.812-.265 1.39-.953 1.39-1.75 0-.812-.875-1.375-1.828-1.375-1 0-1.765.594-1.765 1.36 0 .328.218.515.515.515s.5-.218.5-.515c0-.485-.469-.485-.61-.485.298-.5.954-.625 1.313-.625.422 0 .969.22.969 1.11 0 .125-.031.703-.281 1.14-.297.485-.64.516-.89.516a3 3 0 0 1-.392.031c-.078.016-.14.031-.14.125 0 .11.062.11.234.11h.438c.812 0 1.187.672 1.187 1.656 0 1.36-.687 1.64-1.125 1.64S1.22-.233.875-.812c.344.047.656-.171.656-.546a.537.537 0 0 0-.547-.563c-.25 0-.562.14-.562.578C.422-.437 1.344.22 2.437.22c1.22 0 2.126-.906 2.126-1.922m0 0"/><clipPath id="bayesian_network_and_mrf_clip-0"><path d="M51 136h121v101.95H51Zm0 0"/></clipPath><clipPath id="bayesian_network_and_mrf_clip-1"><path d="M393 136h122v101.95H393Zm0 0"/></clipPath><clipPath id="bayesian_network_and_mrf_clip-2"><path d="M463 0h102.371v102H463Zm0 0"/></clipPath></defs><g clip-path="url(#bayesian_network_and_mrf_clip-0)"><path fill="none" stroke="var(--black)" stroke-miterlimit="10" stroke-width="2.268" d="M139.82 196.512c0-15.657-12.691-28.344-28.347-28.344s-28.348 12.687-28.348 28.344c0 15.656 12.691 28.347 28.348 28.347s28.347-12.691 28.347-28.347Zm0 0"/></g><use xlink:href="#bayesian_network_and_mrf_glyph-0-0" x="104.742" y="198.525" fill="var(--black)"/><use xlink:href="#bayesian_network_and_mrf_glyph-1-0" x="112.725" y="200.677" fill="var(--black)"/><path fill="none" stroke="var(--black)" stroke-miterlimit="10" stroke-width="2.268" d="M69.781 41.434c0-15.657-12.691-28.348-28.347-28.348S13.086 25.777 13.086 41.434 25.777 69.78 41.434 69.78 69.78 57.09 69.78 41.434Zm0 0"/><use xlink:href="#bayesian_network_and_mrf_glyph-0-0" x="34.704" y="43.448" fill="var(--black)"/><use xlink:href="#bayesian_network_and_mrf_glyph-1-1" x="42.687" y="45.6" fill="var(--black)"/><path fill="none" stroke="var(--black)" stroke-miterlimit="10" stroke-width="2.268" d="M139.82 80.86c0-15.657-12.691-28.348-28.347-28.348S83.125 65.203 83.125 80.859s12.691 28.344 28.348 28.344S139.82 96.516 139.82 80.86Zm0 0"/><use xlink:href="#bayesian_network_and_mrf_glyph-0-0" x="104.742" y="82.872" fill="var(--black)"/><use xlink:href="#bayesian_network_and_mrf_glyph-1-2" x="112.725" y="85.023" fill="var(--black)"/><path fill="none" stroke="var(--black)" stroke-miterlimit="10" stroke-width="2.268" d="M209.86 41.434c0-15.657-12.692-28.348-28.348-28.348-15.657 0-28.348 12.691-28.348 28.348s12.691 28.347 28.348 28.347 28.347-12.691 28.347-28.347Zm0 0"/><use xlink:href="#bayesian_network_and_mrf_glyph-0-0" x="174.78" y="43.448" fill="var(--black)"/><use xlink:href="#bayesian_network_and_mrf_glyph-1-3" x="182.763" y="45.6" fill="var(--black)"/><path fill="none" stroke="var(--black)" stroke-miterlimit="10" stroke-width="2.268" d="m53.566 68.3 43.801 96.973"/><path fill="var(--black)" d="m99.34 169.645.34-8.57-2.313 4.198-4.683-1.043"/><path fill="none" stroke="var(--black)" stroke-miterlimit="10" stroke-width="2.268" d="M111.473 110.34v51.894"/><path fill="var(--black)" d="m111.473 167.031 3.836-7.672-3.836 2.875-3.836-2.875"/><path fill="none" stroke="var(--black)" stroke-miterlimit="10" stroke-width="2.268" d="m169.379 68.3-43.797 96.973"/><path fill="var(--black)" d="m123.605 169.645 6.657-5.415-4.68 1.043-2.312-4.199"/><g clip-path="url(#bayesian_network_and_mrf_clip-1)"><path fill="none" stroke="var(--black)" stroke-miterlimit="10" stroke-width="2.268" d="M482.25 196.512c0-15.657-12.691-28.344-28.348-28.344s-28.347 12.687-28.347 28.344c0 15.656 12.691 28.347 28.347 28.347s28.348-12.691 28.348-28.347Zm0 0"/></g><use xlink:href="#bayesian_network_and_mrf_glyph-0-0" x="447.167" y="198.525" fill="var(--black)"/><use xlink:href="#bayesian_network_and_mrf_glyph-1-0" x="455.15" y="200.677" fill="var(--black)"/><path fill="none" stroke="var(--black)" stroke-miterlimit="10" stroke-width="2.268" d="M412.21 41.434c0-15.657-12.69-28.348-28.347-28.348-15.656 0-28.347 12.691-28.347 28.348s12.691 28.347 28.347 28.347 28.348-12.691 28.348-28.347Zm0 0"/><use xlink:href="#bayesian_network_and_mrf_glyph-0-0" x="377.13" y="43.448" fill="var(--black)"/><use xlink:href="#bayesian_network_and_mrf_glyph-1-1" x="385.112" y="45.6" fill="var(--black)"/><path fill="none" stroke="var(--black)" stroke-miterlimit="10" stroke-width="2.268" d="M482.25 80.86c0-15.657-12.691-28.348-28.348-28.348s-28.347 12.691-28.347 28.347 12.691 28.344 28.347 28.344S482.25 96.516 482.25 80.86Zm0 0"/><use xlink:href="#bayesian_network_and_mrf_glyph-0-0" x="447.167" y="82.872" fill="var(--black)"/><use xlink:href="#bayesian_network_and_mrf_glyph-1-2" x="455.15" y="85.023" fill="var(--black)"/><g clip-path="url(#bayesian_network_and_mrf_clip-2)"><path fill="none" stroke="var(--black)" stroke-miterlimit="10" stroke-width="2.268" d="M552.29 41.434c0-15.657-12.692-28.348-28.349-28.348s-28.347 12.691-28.347 28.348S508.285 69.78 523.94 69.78 552.29 57.09 552.29 41.434Zm0 0"/></g><use xlink:href="#bayesian_network_and_mrf_glyph-0-0" x="517.205" y="43.448" fill="var(--black)"/><use xlink:href="#bayesian_network_and_mrf_glyph-1-3" x="525.188" y="45.6" fill="var(--black)"/><path fill="none" stroke="var(--black)" stroke-miterlimit="10" stroke-width="2.268" d="M441.77 169.645 395.996 68.3M453.902 167.031V110.34M466.035 169.645 511.81 68.3M428.215 66.398 409.55 55.895M479.59 66.398l18.664-10.503M413.344 41.434h81.117"/></svg>