<svg xmlns="http://www.w3.org/2000/svg" xmlns:xlink="http://www.w3.org/1999/xlink" width="551.656" height="85.866" style="--axis-color:#000;--grid-stroke:rgba(0,0,0,0.2);--plot3d-stroke:rgba(0,0,0,0.3);--plot3d-grid:rgba(0,0,0,0.2);--black:#000000;--c1:#FF0001;--c2:#00FF02;--c3:#0000FF;--c4:#FF00FF;--c5:#00FFFF;--c6:#FFFF00;--c7:#FF8000;--c8:#8000FF;--gray:#7f7f7f;--grey:#7f7f7f;--octonary:#bcbd22;--primary:#d62728;--quaternary:#9467bd;--quinary:#8c564b;--secondary:#2ca02c;--senary:#e377c2;--septenary:#7f7f7f;--tertiary:#1f77b4;--white:#ffffff" viewBox="0 0 551.656 85.866"><style><![CDATA[@media (prefers-color-scheme:dark){:root{--axis-color:#fff;--grid-stroke:rgba(255,255,255,0.2);--plot3d-stroke:rgba(255,255,255,0.3);--plot3d-grid:rgba(255,255,255,0.2);--black:#FFFFFF;--c1:#FF0001;--c2:#00FF02;--c3:#0000FF;--c4:#FF00FF;--c5:#00FFFF;--c6:#FFFF00;--c7:#FF8000;--c8:#8000FF;--gray:#CCCCCC;--grey:#CCCCCC;--octonary:#E6DB74;--primary:#FF4A98;--quaternary:#B4A0FF;--quinary:#FFB86B;--secondary:#0AFAFA;--senary:#FF79C6;--septenary:#CCCCCC;--tertiary:#7F83FF;--white:#000000}}]]></style><defs><path id="bayes_theorem_message_passing_glyph-0-0" d="M8.234-4.89c0-1.579-.906-2.704-2.187-2.704-1.11 0-2.031 1.063-2.219 1.313-.14-.86-.812-1.313-1.5-1.313-.5 0-.906.235-1.219.89-.312.626-.562 1.673-.562 1.75 0 .063.078.157.187.157.141 0 .157-.031.266-.422.25-1.015.578-2.031 1.266-2.031.406 0 .547.281.547.797 0 .406-.063.578-.126.89L.734 2.188c-.109.516-.187.657-.89.657-.203 0-.375 0-.375.328 0 0 .015.172.203.172.219 0 .469-.031.687-.031h.75l1.594.03c.11 0 .313 0 .313-.312 0-.187-.125-.187-.422-.187-.781 0-.844-.125-.844-.266 0-.203.781-3.156.89-3.562C2.829-.5 3.282.172 4.188.172c1.938 0 4.047-2.531 4.047-5.063m-2.03 2.968C5.765-1 4.968-.172 4.187-.172c-1.172 0-1.36-1.484-1.36-1.547s.031-.187.047-.281l.844-3.375c.125-.484.61-.984.875-1.219.187-.172.765-.656 1.422-.656.75 0 1.093.766 1.093 1.656 0 .828-.484 2.766-.906 3.672m0 0"/><path id="bayes_theorem_message_passing_glyph-0-1" d="M8.266-2.469c0-.078-.063-.156-.172-.156-.156 0-.172.094-.219.234C7.406-.875 6.406-.17 5.625-.17c-.594 0-.922-.454-.922-1.157 0-.375.063-.656.344-1.781l.594-2.344c.265-1.031.843-1.797 1.64-1.797 0 0 .516 0 .875.219-.547.11-.75.515-.75.843 0 .422.328.563.563.563.515 0 .875-.453.875-.922 0-.719-.813-1.047-1.547-1.047-1.047 0-1.625 1.032-1.781 1.36-.407-1.297-1.47-1.36-1.782-1.36-1.75 0-2.687 2.25-2.687 2.64 0 .063.078.157.187.157.141 0 .172-.11.22-.172C2.03-6.89 3.187-7.25 3.687-7.25c.765 0 .921.719.921 1.14 0 .376-.093.766-.296 1.594l-.594 2.36c-.25 1.031-.75 1.984-1.672 1.984-.078 0-.516 0-.875-.219a.88.88 0 0 0 .75-.843c0-.344-.25-.563-.578-.563-.407 0-.86.375-.86.922 0 .719.813 1.047 1.547 1.047.828 0 1.406-.656 1.781-1.36C4.079-.171 4.938.173 5.579.173c1.75 0 2.688-2.25 2.688-2.64m0 0"/><path id="bayes_theorem_message_passing_glyph-0-2" d="M8.172-6.703a.8.8 0 0 0 .062-.281c0-.266-.203-.438-.468-.438-.157 0-.516.063-.657.594L5.844-1.781c-.094.312-.094.36-.235.547-.343.484-.906 1.062-1.734 1.062-.969 0-1.047-.953-1.047-1.406 0-.984.453-2.313.922-3.547.188-.5.297-.75.297-1.094 0-.718-.516-1.375-1.36-1.375-1.578 0-2.218 2.5-2.218 2.64 0 .063.062.157.187.157.156 0 .172-.078.235-.312.422-1.453 1.078-2.141 1.75-2.141.156 0 .437 0 .437.563 0 .453-.187.953-.437 1.609-.844 2.25-.844 2.828-.844 3.234 0 1.64 1.172 2.016 2.031 2.016.5 0 1.11-.156 1.719-.797l.016.016C5.297.406 5.125 1.078 4.53 1.92c-.468.657-1.14 1.25-1.984 1.25-.203 0-1.031-.03-1.297-.827a.877.877 0 0 0 1.047-.828c0-.391-.328-.532-.594-.532-.281 0-.875.204-.875 1.047 0 .875.735 1.485 1.719 1.485 1.719 0 3.469-1.594 3.937-3.5Zm0 0"/><path id="bayes_theorem_message_passing_glyph-0-3" d="M6.453-3.14c.156-.579.25-1.188.25-1.75 0-.25-.016-.516-.062-.782-.125-.797-.5-1.484-.953-2.11-.766-.968-1.797-2.312-1.797-3.124a.48.48 0 0 1 .093-.297.86.86 0 0 1 .375-.406c.172-.079.36-.11.532-.11.78.016 1.297.531 1.937.781a.7.7 0 0 0 .188.016c.203 0 .437-.11.547-.344a.6.6 0 0 0 .078-.25.436.436 0 0 0-.328-.421c-.594-.141-1.266-.313-1.891-.313-.172 0-.344.031-.5.063-.234.03-.5.093-.719.25-.219.14-.422.343-.531.578-.14.25-.203.562-.203.875C3.469-9.562 4-8.47 4.5-7.5c-.719.14-1.406.531-1.984 1.047-.844.734-1.438 1.719-1.672 2.719-.094.359-.14.718-.14 1.062 0 .625.155 1.203.468 1.688C1.625-.281 2.375.172 3.344.172c1.5 0 2.703-1.64 3.11-3.313m-1.047.328c-.328 1.28-.968 2.656-2.062 2.656-.688 0-1.203-.406-1.453-1-.141-.313-.188-.672-.188-1.031 0-.485.094-.985.203-1.485.235-.89.578-1.797 1.266-2.562.422-.453.937-.813 1.5-.953l.047.093c.328.64.64 1.297.797 2.016.046.281.062.562.062.86 0 .468-.047.952-.172 1.406m0 0"/><path id="bayes_theorem_message_passing_glyph-0-4" d="M9.64-2.469c0-.078-.062-.156-.171-.156-.156 0-.172.094-.235.36C8.97-1.25 8.641-.173 7.938-.173c-.5 0-.532-.453-.532-.797 0-.39.157-1.015.266-1.531l.484-1.86.344-1.406c.11-.421.297-1.156.297-1.218 0-.266-.203-.438-.469-.438-.156 0-.515.063-.656.594L6.469-2.047c-.078.344-.078.375-.297.656S5.282-.17 4.203-.17c-.969 0-1.281-.704-1.281-1.516 0-.5.156-1.11.234-1.391l.766-3.11c.094-.328.234-.875.234-.968 0-.282-.234-.438-.453-.438-.156 0-.531.047-.672.61l-2.5 9.968c-.015.079-.047.188-.047.282 0 .265.204.437.47.437.5 0 .593-.39.718-.875.187-.734.078-.39.812-3.203.422.39 1.063.547 1.641.547 1.11 0 1.86-.734 2.266-1.281.172.922.89 1.28 1.5 1.28.515 0 .922-.312 1.234-.921.281-.594.516-1.64.516-1.719m0 0"/><path id="bayes_theorem_message_passing_glyph-1-0" d="M5.266 4.203s0-.047-.047-.11c-.797-.812-2.907-3.015-2.907-8.374 0-5.375 2.079-7.563 2.922-8.422 0 0 .032-.063.032-.11 0-.046-.047-.078-.125-.078-.188 0-1.641 1.266-2.485 3.157-.86 1.922-1.11 3.78-1.11 5.422 0 1.25.126 3.343 1.157 5.562.828 1.797 2.235 3.063 2.438 3.063.093 0 .125-.047.125-.11m0 0"/><path id="bayes_theorem_message_passing_glyph-1-1" d="M4.531-4.281c0-1.25-.125-3.344-1.156-5.563C2.547-11.64 1.141-12.89.938-12.89c-.063 0-.125.016-.125.094 0 0 .015.063.03.094.829.86 2.923 3.047 2.923 8.39 0 5.376-2.078 7.563-2.922 8.422l-.031.094c0 .078.062.11.125.11.187 0 1.64-1.282 2.484-3.172.86-1.922 1.11-3.782 1.11-5.422m0 0"/><path id="bayes_theorem_message_passing_glyph-2-0" d="M2.734 3.734v-16.078c0-.25 0-.578-.343-.578s-.344.328-.344.578V3.734c0 .25 0 .579.344.579s.343-.329.343-.579m0 0"/><path id="bayes_theorem_message_passing_glyph-2-1" d="M11.953-4.312c0-.344-.328-.344-.578-.344H2c-.25 0-.578 0-.578.343 0 .36.328.36.578.36h9.375c.25 0 .578 0 .578-.36m0 0"/><path id="bayes_theorem_message_passing_glyph-3-0" d="M5.484-2.625c0-1.625-1.187-2.86-2.562-2.86-1.406 0-2.563 1.266-2.563 2.86 0 1.563 1.188 2.75 2.563 2.75 1.406 0 2.562-1.219 2.562-2.75m-.906-.125c0 1.469-.844 2.125-1.656 2.125-.86 0-1.656-.719-1.656-2.125 0-1.453.89-2.016 1.656-2.016.812 0 1.656.625 1.656 2.016m0 0"/><path id="bayes_theorem_message_passing_glyph-3-1" d="M5.563-2.672c0-1.469-.782-2.75-1.891-2.75-.344 0-1.11.063-1.86.672v-3.547H.939V0h.906v-.531c.547.515 1.125.656 1.547.656 1.14 0 2.172-1.172 2.172-2.797m-.907 0c0 1.563-.968 2.078-1.703 2.078-.328 0-.562-.125-.781-.297-.281-.25-.328-.453-.328-.656V-4.03c.218-.328.64-.672 1.234-.672.719 0 1.578.547 1.578 2.031m0 0"/><path id="bayes_theorem_message_passing_glyph-3-2" d="M4.203-1.516c0-.609-.36-1-.406-1.046-.453-.47-.813-.532-1.531-.672-.438-.094-1.047-.203-1.047-.813 0-.734.843-.734 1-.734.625 0 1.125.14 1.656.437l.14-.765a3.9 3.9 0 0 0-1.687-.375c-.265 0-1.937 0-1.937 1.547 0 .53.297.89.468 1.062.438.36.735.422 1.438.563.39.093 1.078.234 1.078.859 0 .828-.922.828-1.094.828A3.12 3.12 0 0 1 .47-1.219l-.14.813c.046.031.859.531 1.968.531 1.547 0 1.906-.937 1.906-1.64m0 0"/><path id="bayes_theorem_message_passing_glyph-4-0" d="M4.906 0v-.344h-.375c-1.047 0-1.093-.14-1.093-.578v-6.734c0-.282 0-.297-.235-.297-.281.328-.89.766-2.11.766v.343c.266 0 .86 0 1.532-.297v6.22c0 .437-.047.577-1.094.577h-.375V0c.328-.031 1.485-.031 1.875-.031.406 0 1.547 0 1.875.031m0 0"/><path id="bayes_theorem_message_passing_glyph-4-1" d="M5.36-2.047C5.36-3.14 4.468-4 3.327-4.203 4.36-4.5 5.031-5.375 5.031-6.313s-.984-1.64-2.14-1.64c-1.188 0-2.078.734-2.078 1.61 0 .468.375.577.546.577.25 0 .547-.187.547-.546 0-.375-.297-.547-.562-.547-.063 0-.094 0-.125.015.453-.812 1.578-.812 1.64-.812.391 0 1.172.172 1.172 1.343 0 .235-.031.891-.39 1.407-.36.531-.766.562-1.078.578l-.36.031c-.203.016-.25.031-.25.14s.063.11.266.11h.547c1.03 0 1.484.844 1.484 1.984 0 1.579-.812 1.985-1.406 1.985-.578 0-1.547-.266-1.906-1.063.39.063.734-.156.734-.578a.57.57 0 0 0-.578-.593c-.297 0-.61.171-.61.624C.484-.624 1.547.25 2.875.25c1.422 0 2.484-1.094 2.484-2.297m0 0"/><path id="bayes_theorem_message_passing_glyph-4-2" d="M5.266-2.016H5c-.047.204-.14.875-.25 1.063-.094.11-.766.11-1.125.11H1.406c.328-.282 1.063-1.048 1.36-1.329 1.828-1.672 2.5-2.297 2.5-3.484 0-1.375-1.094-2.297-2.485-2.297-1.375 0-2.203 1.187-2.203 2.219 0 .609.531.609.563.609.265 0 .562-.187.562-.562 0-.344-.219-.563-.562-.563-.094 0-.125 0-.157.016.22-.813.875-1.375 1.641-1.375 1.016 0 1.64.859 1.64 1.953 0 1.015-.577 1.906-1.265 2.672L.578-.281V0h4.375Zm0 0"/><clipPath id="bayes_theorem_message_passing_clip-0"><path d="M105 0h108v85.867H105Zm0 0"/></clipPath><clipPath id="bayes_theorem_message_passing_clip-1"><path d="M294 0h108v85.867H294Zm0 0"/></clipPath></defs><path fill="var(--black)" stroke="var(--black)" stroke-miterlimit="10" stroke-width="2.268" d="M50.36 65.691h28.347V37.344H50.359Zm0 0"/><use xlink:href="#bayes_theorem_message_passing_glyph-0-0" x="15.276" y="55.82" fill="var(--black)"/><use xlink:href="#bayes_theorem_message_passing_glyph-1-0" x="23.736" y="55.82" fill="var(--black)"/><use xlink:href="#bayes_theorem_message_passing_glyph-0-1" x="29.833" y="55.82" fill="var(--black)"/><use xlink:href="#bayes_theorem_message_passing_glyph-1-1" x="39.412" y="55.82" fill="var(--black)"/><g clip-path="url(#bayes_theorem_message_passing_clip-0)"><path fill="none" stroke="var(--black)" stroke-miterlimit="10" stroke-width="2.268" d="M180.188 51.516c0-11.743-9.516-21.258-21.258-21.258-11.743 0-21.262 9.515-21.262 21.258s9.52 21.261 21.262 21.261 21.257-9.52 21.257-21.261Zm0 0"/></g><use xlink:href="#bayes_theorem_message_passing_glyph-0-1" x="154.138" y="55.223" fill="var(--black)"/><path fill="var(--black)" stroke="var(--black)" stroke-miterlimit="10" stroke-width="2.268" d="M239.148 65.691h28.348V37.344h-28.348Zm0 0"/><use xlink:href="#bayes_theorem_message_passing_glyph-0-0" x="226.614" y="28.187" fill="var(--black)"/><use xlink:href="#bayes_theorem_message_passing_glyph-1-0" x="235.074" y="28.187" fill="var(--black)"/><use xlink:href="#bayes_theorem_message_passing_glyph-0-2" x="241.171" y="28.187" fill="var(--black)"/><use xlink:href="#bayes_theorem_message_passing_glyph-2-0" x="254.79" y="28.187" fill="var(--black)"/><use xlink:href="#bayes_theorem_message_passing_glyph-0-1" x="264.354" y="28.187" fill="var(--black)"/><use xlink:href="#bayes_theorem_message_passing_glyph-1-1" x="273.933" y="28.187" fill="var(--black)"/><g clip-path="url(#bayes_theorem_message_passing_clip-1)"><path fill="none" stroke="var(--black)" stroke-miterlimit="10" stroke-width="2.268" d="M368.98 51.516c0-11.743-9.52-21.258-21.261-21.258-11.742 0-21.262 9.515-21.262 21.258s9.52 21.261 21.262 21.261 21.261-9.52 21.261-21.261Zm0 0"/></g><use xlink:href="#bayes_theorem_message_passing_glyph-0-2" x="343.297" y="53.549" fill="var(--black)"/><path fill="var(--black)" stroke="var(--black)" stroke-miterlimit="10" stroke-width="2.268" d="M427.941 65.691h28.344V37.344h-28.344Zm0 0"/><use xlink:href="#bayes_theorem_message_passing_glyph-0-3" x="461.135" y="55.82" fill="var(--black)"/><use xlink:href="#bayes_theorem_message_passing_glyph-1-0" x="469.246" y="55.82" fill="var(--black)"/><use xlink:href="#bayes_theorem_message_passing_glyph-0-2" x="475.343" y="55.82" fill="var(--black)"/><use xlink:href="#bayes_theorem_message_passing_glyph-2-1" x="488.005" y="55.82" fill="var(--black)"/><use xlink:href="#bayes_theorem_message_passing_glyph-0-2" x="505.221" y="55.82" fill="var(--black)"/><g fill="var(--black)"><use xlink:href="#bayes_theorem_message_passing_glyph-3-0" x="513.44" y="58.402"/><use xlink:href="#bayes_theorem_message_passing_glyph-3-1" x="519.293" y="58.402"/><use xlink:href="#bayes_theorem_message_passing_glyph-3-2" x="525.298" y="58.402"/></g><use xlink:href="#bayes_theorem_message_passing_glyph-1-1" x="530.284" y="55.82" fill="var(--black)"/><path fill="none" stroke="var(--black)" stroke-miterlimit="10" stroke-width="2.268" d="M79.84 51.516h56.695M181.324 51.516h56.692M268.633 51.516h56.691M370.113 51.516h56.692"/><path fill="none" stroke="red" stroke-miterlimit="10" stroke-width="2.268" d="M83.414 34.793h51.84"/><path fill="red" d="m140.05 34.793-7.675-3.836 2.879 3.836-2.879 3.836"/><use xlink:href="#bayes_theorem_message_passing_glyph-0-4" x="103.485" y="26.991" fill="var(--black)"/><use xlink:href="#bayes_theorem_message_passing_glyph-4-0" x="113.626" y="29.573" fill="var(--black)"/><path fill="none" stroke="#0f0" stroke-miterlimit="10" stroke-width="2.268" d="M182.605 34.793h51.84"/><path fill="#0f0" d="m177.809 34.793 7.671 3.836-2.875-3.836 2.875-3.836"/><use xlink:href="#bayes_theorem_message_passing_glyph-0-4" x="197.878" y="26.991" fill="var(--black)"/><use xlink:href="#bayes_theorem_message_passing_glyph-4-1" x="208.02" y="29.573" fill="var(--black)"/><path fill="none" stroke="#00f" stroke-miterlimit="10" stroke-width="2.268" d="M277 34.793h51.84"/><path fill="#00f" d="m272.203 34.793 7.672 3.836L277 34.793l2.875-3.836"/><use xlink:href="#bayes_theorem_message_passing_glyph-0-4" x="292.272" y="26.991" fill="var(--black)"/><use xlink:href="#bayes_theorem_message_passing_glyph-4-2" x="302.414" y="29.573" fill="var(--black)"/><path fill="none" stroke="#00f" stroke-miterlimit="10" stroke-width="2.268" d="M371.395 34.793h51.84"/><path fill="#00f" d="m366.598 34.793 7.675 3.836-2.878-3.836 2.878-3.836"/><use xlink:href="#bayes_theorem_message_passing_glyph-0-4" x="386.666" y="26.991" fill="var(--black)"/><use xlink:href="#bayes_theorem_message_passing_glyph-4-2" x="396.807" y="29.573" fill="var(--black)"/></svg>