<?xml version="1.0" encoding="utf-8" standalone="no"?>
<!DOCTYPE svg PUBLIC "-//W3C//DTD SVG 1.1//EN"
  "http://www.w3.org/Graphics/SVG/1.1/DTD/svg11.dtd">
<svg xmlns:xlink="http://www.w3.org/1999/xlink" width="401.94375pt" height="419.750313pt" viewBox="0 0 401.94375 419.750313" xmlns="http://www.w3.org/2000/svg" version="1.1">
        <style>
            /* Light mode (default) */
            .c1 { fill: #d62728 !important; stroke: #d62728 !important; }
.c2 { fill: #2ca02c !important; stroke: #2ca02c !important; }
.c3 { fill: #1f77b4 !important; stroke: #1f77b4 !important; }
.c4 { fill: #9467bd !important; stroke: #9467bd !important; }
.c5 { fill: #8c564b !important; stroke: #8c564b !important; }
.c6 { fill: #e377c2 !important; stroke: #e377c2 !important; }
.c7 { fill: #7f7f7f !important; stroke: #7f7f7f !important; }
.c8 { fill: #bcbd22 !important; stroke: #bcbd22 !important; }

            /* Text and graphic elements */
            text, .text {
                fill: #000000 !important;
                stroke: none !important;
            }

            .axis line, .axis path, .tick line, .tick path, path.domain, line.grid {
                stroke: #000000 !important;
            }

            .legend text {
                fill: #000000 !important;
            }

            g.legend > g:first-child > path:first-child {
                fill: rgba(255, 255, 255, 0.8) !important;
                stroke: rgba(0, 0, 0, 0.1) !important;
            }

            /* 3D specific styles - light mode */
            .plot3d path {
                stroke: rgba(0, 0, 0, 0.3) !important;
            }

            .plot3d polygon {
                stroke: rgba(0, 0, 0, 0.2) !important;
            }

            /* 3D grid lines */
            .plot3d-grid line {
                stroke: rgba(0, 0, 0, 0.2) !important;
            }

            /* Preserve mesh colors */
            .plot3d-surface path[style*="fill:"] {
                fill-opacity: 0.9 !important;
            }

            [stroke="currentColor"], [stroke="black"] {
                stroke: #000000 !important;
            }

            /* Dark mode via media query */
            @media (prefers-color-scheme: dark) {
                /* Dark theme colors */
                .c1 { fill: #FF4A98 !important; stroke: #FF4A98 !important; }
                .c2 { fill: #0AFAFA !important; stroke: #0AFAFA !important; }
                .c3 { fill: #7F83FF !important; stroke: #7F83FF !important; }
                .c4 { fill: #B4A0FF !important; stroke: #B4A0FF !important; }
                .c5 { fill: #FFB86B !important; stroke: #FFB86B !important; }
                .c6 { fill: #FF79C6 !important; stroke: #FF79C6 !important; }
                .c7 { fill: #CCCCCC !important; stroke: #CCCCCC !important; }
                .c8 { fill: #E6DB74 !important; stroke: #E6DB74 !important; }

                /* Dark theme text and graphics */
                text, .text {
                    fill: #FFFFFF !important;
                    stroke: none !important;
                }

                .axis line, .axis path, .tick line, .tick path, path.domain, line.grid {
                    stroke: #FFFFFF !important;
                }

                .grid line {
                    stroke: rgba(255, 255, 255, 0.2) !important;
                }

                .legend text {
                    fill: #FFFFFF !important;
                }

                g.legend > g:first-child > path:first-child {
                    fill: rgba(26, 26, 26, 0.8) !important;
                    stroke: rgba(255, 255, 255, 0.1) !important;
                }


                /* 3D specific styles - dark mode */
                .plot3d path {
                    stroke: rgba(255, 255, 255, 0.3) !important;
                }

                .plot3d polygon {
                    stroke: rgba(255, 255, 255, 0.2) !important;
                }

                /* 3D grid lines */
                .plot3d-grid line {
                    stroke: rgba(255, 255, 255, 0.2) !important;
                }

                /* Preserve mesh colors in dark mode */
                .plot3d-surface path[style*="fill:"] {
                    fill-opacity: 0.95 !important;
                    filter: saturate(1.2) !important; /* Boost colors in dark mode */
                }

                [stroke="currentColor"], [stroke="black"] {
                    stroke: #FFFFFF !important;
                }
            }
        </style>
        
 <metadata>
  <rdf:RDF xmlns:dc="http://purl.org/dc/elements/1.1/" xmlns:cc="http://creativecommons.org/ns#" xmlns:rdf="http://www.w3.org/1999/02/22-rdf-syntax-ns#">
   <cc:Work>
    <dc:type rdf:resource="http://purl.org/dc/dcmitype/StillImage"/>
    <dc:date>2025-04-08T18:27:01.055594</dc:date>
    <dc:format>image/svg+xml</dc:format>
    <dc:creator>
     <cc:Agent>
      <dc:title>Matplotlib v3.10.1, https://matplotlib.org/</dc:title>
     </cc:Agent>
    </dc:creator>
   </cc:Work>
  </rdf:RDF>
 </metadata>
 <defs>
  <style type="text/css">*{stroke-linejoin: round; stroke-linecap: butt}</style>
 </defs>
 <g id="figure_1">
  <g class="patch">
   <path d="M 0 419.750313 
L 401.94375 419.750313 
L 401.94375 0 
L 0 0 
L 0 419.750313 
z
" style="fill: none"/>
  </g>
  <g id="axes_1">
   <g class="patch">
    <path d="M 137.595907 201.6 
L 278.747843 201.6 
L 278.747843 50.4 
L 137.595907 50.4 
L 137.595907 201.6 
z
" style="fill: none"/>
   </g>
   <g id="PathCollection_1">
    <defs>
     <path id="m29dff36463" d="M 0 2.738613 
C 0.726289 2.738613 1.422928 2.450055 1.936492 1.936492 
C 2.450055 1.422928 2.738613 0.726289 2.738613 0 
C 2.738613 -0.726289 2.450055 -1.422928 1.936492 -1.936492 
C 1.422928 -2.450055 0.726289 -2.738613 0 -2.738613 
C -0.726289 -2.738613 -1.422928 -2.450055 -1.936492 -1.936492 
C -2.450055 -1.422928 -2.738613 -0.726289 -2.738613 0 
C -2.738613 0.726289 -2.450055 1.422928 -1.936492 1.936492 
C -1.422928 2.450055 -0.726289 2.738613 0 2.738613 
z
" style="stroke: #ff0001; stroke-opacity: 0.8"/>
    </defs>
    <g clip-path="url(#pa581a2c4af)">
     <use xlink:href="#m29dff36463" x="227.668477" y="122.189252" style="fill: #ff0001; fill-opacity: 0.8; stroke: #ff0001; stroke-opacity: 0.8"/>
    </g>
   </g>
   <g class="axis">
    <g class="tick xtick">
     <g id="line2d_1">
      <path d="M 160.280556 201.6 
L 160.280556 50.4 
" clip-path="url(#pa581a2c4af)" style="fill: none; stroke: #b0b0b0; stroke-opacity: 0.1; stroke-width: 0.8; stroke-linecap: square"/>
     </g>
     <g id="line2d_2">
      <defs>
       <path id="mdeb8c6b189" d="M 0 0 
L 0 3.5 
" style="stroke: currentColor; stroke-width: 0.8"/>
      </defs>
      <g>
       <use xlink:href="#mdeb8c6b189" x="160.280556" y="201.6" style="stroke: currentColor; stroke-width: 0.8"/>
      </g>
     </g>
    </g>
    <g class="tick xtick">
     <g id="line2d_3">
      <path d="M 208.089912 201.6 
L 208.089912 50.4 
" clip-path="url(#pa581a2c4af)" style="fill: none; stroke: #b0b0b0; stroke-opacity: 0.1; stroke-width: 0.8; stroke-linecap: square"/>
     </g>
     <g id="line2d_4">
      <g>
       <use xlink:href="#mdeb8c6b189" x="208.089912" y="201.6" style="stroke: currentColor; stroke-width: 0.8"/>
      </g>
     </g>
    </g>
    <g class="tick xtick">
     <g id="line2d_5">
      <path d="M 255.899267 201.6 
L 255.899267 50.4 
" clip-path="url(#pa581a2c4af)" style="fill: none; stroke: #b0b0b0; stroke-opacity: 0.1; stroke-width: 0.8; stroke-linecap: square"/>
     </g>
     <g id="line2d_6">
      <g>
       <use xlink:href="#mdeb8c6b189" x="255.899267" y="201.6" style="stroke: currentColor; stroke-width: 0.8"/>
      </g>
     </g>
    </g>
    <g id="text_1" class="text">
     <!-- $\beta(t)$ -->
     <g transform="translate(199.071875 216.8) scale(0.1 -0.1)">
      <defs>
       <path id="DejaVuSans-Oblique-3b2" d="M 872 216 
L 572 -1331 
L -6 -1331 
L 928 3478 
Q 1206 4903 2538 4903 
Q 3888 4903 3659 3700 
Q 3503 2844 2894 2531 
Q 3713 2250 3553 1416 
Q 3272 -69 1759 -66 
Q 1097 -63 872 216 
z
M 1019 966 
Q 1259 422 1875 425 
Q 2775 425 2966 1406 
Q 3138 2288 1675 2219 
L 1778 2750 
Q 2909 2731 3106 3750 
Q 3241 4438 2509 4434 
Q 1691 4434 1503 3459 
L 1019 966 
z
" transform="scale(0.015625)"/>
       <path id="DejaVuSans-28" d="M 1984 4856 
Q 1566 4138 1362 3434 
Q 1159 2731 1159 2009 
Q 1159 1288 1364 580 
Q 1569 -128 1984 -844 
L 1484 -844 
Q 1016 -109 783 600 
Q 550 1309 550 2009 
Q 550 2706 781 3412 
Q 1013 4119 1484 4856 
L 1984 4856 
z
" transform="scale(0.015625)"/>
       <path id="DejaVuSans-Oblique-74" d="M 2706 3500 
L 2619 3053 
L 1472 3053 
L 1100 1153 
Q 1081 1047 1072 975 
Q 1063 903 1063 863 
Q 1063 663 1183 572 
Q 1303 481 1569 481 
L 2150 481 
L 2053 0 
L 1503 0 
Q 991 0 739 200 
Q 488 400 488 806 
Q 488 878 497 964 
Q 506 1050 525 1153 
L 897 3053 
L 409 3053 
L 500 3500 
L 978 3500 
L 1172 4494 
L 1747 4494 
L 1556 3500 
L 2706 3500 
z
" transform="scale(0.015625)"/>
       <path id="DejaVuSans-29" d="M 513 4856 
L 1013 4856 
Q 1481 4119 1714 3412 
Q 1947 2706 1947 2009 
Q 1947 1309 1714 600 
Q 1481 -109 1013 -844 
L 513 -844 
Q 928 -128 1133 580 
Q 1338 1288 1338 2009 
Q 1338 2731 1133 3434 
Q 928 4138 513 4856 
z
" transform="scale(0.015625)"/>
      </defs>
      <use xlink:href="#DejaVuSans-Oblique-3b2" transform="translate(0 0.390625)"/>
      <use xlink:href="#DejaVuSans-28" transform="translate(63.818359 0.390625)"/>
      <use xlink:href="#DejaVuSans-Oblique-74" transform="translate(102.832031 0.390625)"/>
      <use xlink:href="#DejaVuSans-29" transform="translate(142.041016 0.390625)"/>
     </g>
    </g>
   </g>
   <g class="axis">
    <g class="tick ytick">
     <g id="line2d_7">
      <path d="M 137.595907 178.016289 
L 278.747843 178.016289 
" clip-path="url(#pa581a2c4af)" style="fill: none; stroke: #b0b0b0; stroke-opacity: 0.1; stroke-width: 0.8; stroke-linecap: square"/>
     </g>
     <g id="line2d_8">
      <defs>
       <path id="mea8d24149f" d="M 0 0 
L -3.5 0 
" style="stroke: currentColor; stroke-width: 0.8"/>
      </defs>
      <g>
       <use xlink:href="#mea8d24149f" x="137.595907" y="178.016289" style="stroke: currentColor; stroke-width: 0.8"/>
      </g>
     </g>
     <g id="text_2" class="text">
      <!-- −1.0 -->
      <g transform="translate(108.741376 181.435586) scale(0.09 -0.09)">
       <defs>
        <path id="DejaVuSans-2212" d="M 678 2272 
L 4684 2272 
L 4684 1741 
L 678 1741 
L 678 2272 
z
" transform="scale(0.015625)"/>
        <path id="DejaVuSans-31" d="M 794 531 
L 1825 531 
L 1825 4091 
L 703 3866 
L 703 4441 
L 1819 4666 
L 2450 4666 
L 2450 531 
L 3481 531 
L 3481 0 
L 794 0 
L 794 531 
z
" transform="scale(0.015625)"/>
        <path id="DejaVuSans-2e" d="M 684 794 
L 1344 794 
L 1344 0 
L 684 0 
L 684 794 
z
" transform="scale(0.015625)"/>
        <path id="DejaVuSans-30" d="M 2034 4250 
Q 1547 4250 1301 3770 
Q 1056 3291 1056 2328 
Q 1056 1369 1301 889 
Q 1547 409 2034 409 
Q 2525 409 2770 889 
Q 3016 1369 3016 2328 
Q 3016 3291 2770 3770 
Q 2525 4250 2034 4250 
z
M 2034 4750 
Q 2819 4750 3233 4129 
Q 3647 3509 3647 2328 
Q 3647 1150 3233 529 
Q 2819 -91 2034 -91 
Q 1250 -91 836 529 
Q 422 1150 422 2328 
Q 422 3509 836 4129 
Q 1250 4750 2034 4750 
z
" transform="scale(0.015625)"/>
       </defs>
       <use xlink:href="#DejaVuSans-2212"/>
       <use xlink:href="#DejaVuSans-31" transform="translate(83.789062 0)"/>
       <use xlink:href="#DejaVuSans-2e" transform="translate(147.412109 0)"/>
       <use xlink:href="#DejaVuSans-30" transform="translate(179.199219 0)"/>
      </g>
     </g>
    </g>
    <g class="tick ytick">
     <g id="line2d_9">
      <path d="M 137.595907 154.111612 
L 278.747843 154.111612 
" clip-path="url(#pa581a2c4af)" style="fill: none; stroke: #b0b0b0; stroke-opacity: 0.1; stroke-width: 0.8; stroke-linecap: square"/>
     </g>
     <g id="line2d_10">
      <g>
       <use xlink:href="#mea8d24149f" x="137.595907" y="154.111612" style="stroke: currentColor; stroke-width: 0.8"/>
      </g>
     </g>
     <g id="text_3" class="text">
      <!-- −0.5 -->
      <g transform="translate(108.741376 157.530908) scale(0.09 -0.09)">
       <defs>
        <path id="DejaVuSans-35" d="M 691 4666 
L 3169 4666 
L 3169 4134 
L 1269 4134 
L 1269 2991 
Q 1406 3038 1543 3061 
Q 1681 3084 1819 3084 
Q 2600 3084 3056 2656 
Q 3513 2228 3513 1497 
Q 3513 744 3044 326 
Q 2575 -91 1722 -91 
Q 1428 -91 1123 -41 
Q 819 9 494 109 
L 494 744 
Q 775 591 1075 516 
Q 1375 441 1709 441 
Q 2250 441 2565 725 
Q 2881 1009 2881 1497 
Q 2881 1984 2565 2268 
Q 2250 2553 1709 2553 
Q 1456 2553 1204 2497 
Q 953 2441 691 2322 
L 691 4666 
z
" transform="scale(0.015625)"/>
       </defs>
       <use xlink:href="#DejaVuSans-2212"/>
       <use xlink:href="#DejaVuSans-30" transform="translate(83.789062 0)"/>
       <use xlink:href="#DejaVuSans-2e" transform="translate(147.412109 0)"/>
       <use xlink:href="#DejaVuSans-35" transform="translate(179.199219 0)"/>
      </g>
     </g>
    </g>
    <g class="tick ytick">
     <g id="line2d_11">
      <path d="M 137.595907 130.206934 
L 278.747843 130.206934 
" clip-path="url(#pa581a2c4af)" style="fill: none; stroke: #b0b0b0; stroke-opacity: 0.1; stroke-width: 0.8; stroke-linecap: square"/>
     </g>
     <g id="line2d_12">
      <g>
       <use xlink:href="#mea8d24149f" x="137.595907" y="130.206934" style="stroke: currentColor; stroke-width: 0.8"/>
      </g>
     </g>
     <g id="text_4" class="text">
      <!-- 0.0 -->
      <g transform="translate(116.283095 133.626231) scale(0.09 -0.09)">
       <use xlink:href="#DejaVuSans-30"/>
       <use xlink:href="#DejaVuSans-2e" transform="translate(63.623047 0)"/>
       <use xlink:href="#DejaVuSans-30" transform="translate(95.410156 0)"/>
      </g>
     </g>
    </g>
    <g class="tick ytick">
     <g id="line2d_13">
      <path d="M 137.595907 106.302256 
L 278.747843 106.302256 
" clip-path="url(#pa581a2c4af)" style="fill: none; stroke: #b0b0b0; stroke-opacity: 0.1; stroke-width: 0.8; stroke-linecap: square"/>
     </g>
     <g id="line2d_14">
      <g>
       <use xlink:href="#mea8d24149f" x="137.595907" y="106.302256" style="stroke: currentColor; stroke-width: 0.8"/>
      </g>
     </g>
     <g id="text_5" class="text">
      <!-- 0.5 -->
      <g transform="translate(116.283095 109.721553) scale(0.09 -0.09)">
       <use xlink:href="#DejaVuSans-30"/>
       <use xlink:href="#DejaVuSans-2e" transform="translate(63.623047 0)"/>
       <use xlink:href="#DejaVuSans-35" transform="translate(95.410156 0)"/>
      </g>
     </g>
    </g>
    <g class="tick ytick">
     <g id="line2d_15">
      <path d="M 137.595907 82.397578 
L 278.747843 82.397578 
" clip-path="url(#pa581a2c4af)" style="fill: none; stroke: #b0b0b0; stroke-opacity: 0.1; stroke-width: 0.8; stroke-linecap: square"/>
     </g>
     <g id="line2d_16">
      <g>
       <use xlink:href="#mea8d24149f" x="137.595907" y="82.397578" style="stroke: currentColor; stroke-width: 0.8"/>
      </g>
     </g>
     <g id="text_6" class="text">
      <!-- 1.0 -->
      <g transform="translate(116.283095 85.816875) scale(0.09 -0.09)">
       <use xlink:href="#DejaVuSans-31"/>
       <use xlink:href="#DejaVuSans-2e" transform="translate(63.623047 0)"/>
       <use xlink:href="#DejaVuSans-30" transform="translate(95.410156 0)"/>
      </g>
     </g>
    </g>
    <g class="tick ytick">
     <g id="line2d_17">
      <path d="M 137.595907 58.492901 
L 278.747843 58.492901 
" clip-path="url(#pa581a2c4af)" style="fill: none; stroke: #b0b0b0; stroke-opacity: 0.1; stroke-width: 0.8; stroke-linecap: square"/>
     </g>
     <g id="line2d_18">
      <g>
       <use xlink:href="#mea8d24149f" x="137.595907" y="58.492901" style="stroke: currentColor; stroke-width: 0.8"/>
      </g>
     </g>
     <g id="text_7" class="text">
      <!-- 1.5 -->
      <g transform="translate(116.283095 61.912198) scale(0.09 -0.09)">
       <use xlink:href="#DejaVuSans-31"/>
       <use xlink:href="#DejaVuSans-2e" transform="translate(63.623047 0)"/>
       <use xlink:href="#DejaVuSans-35" transform="translate(95.410156 0)"/>
      </g>
     </g>
    </g>
    <g id="text_8" class="text">
     <!-- $\beta^2(t)$ -->
     <g transform="translate(102.641376 137.8) rotate(-90) scale(0.1 -0.1)">
      <defs>
       <path id="DejaVuSans-32" d="M 1228 531 
L 3431 531 
L 3431 0 
L 469 0 
L 469 531 
Q 828 903 1448 1529 
Q 2069 2156 2228 2338 
Q 2531 2678 2651 2914 
Q 2772 3150 2772 3378 
Q 2772 3750 2511 3984 
Q 2250 4219 1831 4219 
Q 1534 4219 1204 4116 
Q 875 4013 500 3803 
L 500 4441 
Q 881 4594 1212 4672 
Q 1544 4750 1819 4750 
Q 2544 4750 2975 4387 
Q 3406 4025 3406 3419 
Q 3406 3131 3298 2873 
Q 3191 2616 2906 2266 
Q 2828 2175 2409 1742 
Q 1991 1309 1228 531 
z
" transform="scale(0.015625)"/>
      </defs>
      <use xlink:href="#DejaVuSans-Oblique-3b2" transform="translate(0 0.765625)"/>
      <use xlink:href="#DejaVuSans-32" transform="translate(71.353568 39.046875) scale(0.7)"/>
      <use xlink:href="#DejaVuSans-28" transform="translate(118.624076 0.765625)"/>
      <use xlink:href="#DejaVuSans-Oblique-74" transform="translate(157.637747 0.765625)"/>
      <use xlink:href="#DejaVuSans-29" transform="translate(196.846732 0.765625)"/>
     </g>
    </g>
   </g>
   <g id="line2d_19">
    <path d="M 208.089912 130.206934 
L 204.741301 129.972394 
L 207.252809 130.192277 
L 203.006527 129.666437 
L 197.611704 127.910462 
L 192.336459 125.016082 
L 201.227354 129.221882 
L 203.365607 129.740099 
L 207.646278 130.202817 
L 216.255586 128.812265 
L 215.172495 129.157704 
L 205.876823 130.10449 
L 207.174631 130.189411 
L 205.904095 130.107 
L 202.24392 129.492103 
L 191.738485 124.614531 
L 199.046463 128.496307 
L 205.941318 130.110374 
L 196.907291 127.591316 
L 198.131551 128.132675 
L 193.037508 125.467802 
L 188.211984 121.942191 
L 190.993809 124.093554 
L 195.736718 127.015061 
L 187.162909 121.046813 
L 183.772442 117.838239 
L 181.236089 115.123531 
L 174.244114 106.246392 
L 167.091538 95.049241 
L 167.106992 95.07574 
L 162.92679 87.543578 
L 160.697518 83.227866 
L 157.077296 75.776436 
L 149.358568 58.058488 
L 155.897213 73.22901 
L 168.317545 97.120497 
L 171.436601 102.106467 
L 164.116646 89.761961 
L 161.764248 85.318918 
L 166.565523 94.141297 
L 166.093023 93.315856 
L 170.918592 101.306585 
L 175.200162 107.58091 
L 183.391937 117.448134 
L 184.423903 118.492072 
L 180.127321 113.852258 
L 176.219388 108.961504 
L 185.411766 119.44966 
L 188.712821 122.353415 
L 197.334272 127.787245 
L 194.360984 126.264537 
L 191.531783 124.472248 
L 183.725752 117.790697 
L 189.298193 122.82075 
L 186.218008 120.200939 
L 182.466241 116.473795 
L 187.316533 121.180808 
L 195.901162 127.099474 
L 201.07291 129.177045 
L 203.895476 129.838945 
L 202.359401 129.520065 
L 206.129009 130.126507 
L 203.426286 129.752014 
L 200.809856 129.098381 
L 200.860714 129.113815 
L 192.929087 125.399284 
L 191.252907 124.277451 
L 191.132526 124.192359 
L 195.994829 127.147051 
L 198.407275 128.245948 
L 198.382149 128.235758 
L 201.887227 129.402211 
L 207.546054 130.200747 
L 205.381592 130.053512 
L 211.253045 129.997657 
L 210.933178 130.037842 
L 208.020551 130.206833 
L 202.483173 129.549416 
L 209.728569 130.150769 
L 212.109044 129.869062 
L 219.103438 127.66982 
L 219.091773 127.675192 
L 227.681936 122.178224 
L 227.668477 122.189252 
L 228.535096 121.463759 
L 227.365603 122.435395 
L 232.466185 117.778348 
L 225.742979 123.688737 
L 218.271341 128.038708 
L 213.334794 129.631549 
L 219.835565 127.321298 
L 221.214699 126.603873 
L 217.459065 128.37087 
L 217.532332 128.342042 
L 216.097008 128.865908 
L 207.656455 130.203004 
L 206.696998 130.166352 
L 209.470051 130.167093 
L 215.460334 129.070689 
L 221.371672 126.517172 
L 218.047907 128.132828 
L 226.564573 123.06789 
L 222.07216 126.117708 
L 219.474635 127.495918 
L 216.025527 128.889744 
L 220.242434 127.11792 
L 217.916317 128.187282 
L 220.987701 126.727427 
L 228.94755 121.107437 
L 238.636273 110.690247 
L 244.853796 101.936668 
L 242.416484 105.560847 
L 251.562963 90.676884 
L 245.8182 100.434022 
L 247.386746 97.906955 
L 254.508271 85.139101 
L 250.016402 93.439431 
L 256.419221 81.352016 
L 249.202668 94.852792 
L 248.412819 96.198175 
L 248.808698 95.52712 
L 256.642565 80.899428 
L 255.771176 82.653417 
L 259.67385 74.550406 
L 247.15784 98.282157 
L 248.771963 95.589665 
L 242.991123 104.728771 
L 243.163935 104.475839 
L 237.386772 112.254255 
L 235.727388 114.230352 
L 239.723249 109.276553 
L 245.912071 100.285684 
L 251.557803 90.686269 
L 244.820293 101.98817 
L 242.177947 105.90219 
L 245.900174 100.304503 
L 237.424402 112.208107 
L 236.115601 113.778366 
L 229.610074 120.520182 
L 225.138732 124.127323 
L 223.373454 125.32114 
L 219.667169 127.403447 
L 219.751162 127.362621 
L 216.575916 128.700696 
L 213.931872 129.493088 
L 214.359797 129.384679 
L 224.939666 124.268468 
L 225.939326 123.542933 
L 230.143644 120.033881 
L 235.712344 114.247741 
L 246.591954 99.200299 
L 255.031615 84.117137 
L 259.721307 74.447952 
L 257.557878 79.022817 
L 263.930804 64.98528 
L 266.985182 57.655176 
L 261.692869 70.1083 
L 257.226804 79.705643 
L 237.371947 112.272419 
L 244.930879 101.817996 
L 244.048843 103.161082 
L 248.943718 95.296749 
L 239.59009 109.452392 
L 239.59009 109.452392 
" clip-path="url(#pa581a2c4af)" style="fill: none; stroke: #8000ff; stroke-width: 2; stroke-linecap: square"/>
   </g>
   <g id="line2d_20">
    <path d="M 208.089912 138.224616 
L 149.358568 186.327143 
L 266.985182 89.987829 
L 239.59009 112.425134 
" clip-path="url(#pa581a2c4af)" style="fill: none; stroke-dasharray: 7.4,3.2; stroke-dashoffset: 0; stroke: #ff8000; stroke-width: 2"/>
   </g>
   <g class="patch">
    <path d="M 137.595907 201.6 
L 137.595907 50.4 
" style="fill: none; stroke: currentColor; stroke-width: 0.8; stroke-linejoin: miter; stroke-linecap: square"/>
   </g>
   <g class="patch">
    <path d="M 137.595907 201.6 
L 278.747843 201.6 
" style="fill: none; stroke: currentColor; stroke-width: 0.8; stroke-linejoin: miter; stroke-linecap: square"/>
   </g>
   <g class="legend">
    <g class="patch">
     <path d="M 163.514804 90.414 
L 269.624804 90.414 
Q 271.424804 90.414 271.424804 88.614 
L 271.424804 59.724 
Q 271.424804 57.924 269.624804 57.924 
L 163.514804 57.924 
Q 161.714804 57.924 161.714804 59.724 
L 161.714804 88.614 
Q 161.714804 90.414 163.514804 90.414 
z
" style="fill: #ffffff; opacity: 0.9; stroke: #cccccc; stroke-linejoin: miter"/>
    </g>
    <g id="line2d_21">
     <path d="M 165.314804 66.564 
L 174.314804 66.564 
L 183.314804 66.564 
" style="fill: none; stroke: #8000ff; stroke-width: 2; stroke-linecap: square"/>
    </g>
    <g id="text_9" class="text">
     <!-- $\beta^2(t)$ -->
     <g transform="translate(190.514804 69.714) scale(0.09 -0.09)">
      <use xlink:href="#DejaVuSans-Oblique-3b2" transform="translate(0 0.765625)"/>
      <use xlink:href="#DejaVuSans-32" transform="translate(71.353568 39.046875) scale(0.7)"/>
      <use xlink:href="#DejaVuSans-28" transform="translate(118.624076 0.765625)"/>
      <use xlink:href="#DejaVuSans-Oblique-74" transform="translate(157.637747 0.765625)"/>
      <use xlink:href="#DejaVuSans-29" transform="translate(196.846732 0.765625)"/>
     </g>
    </g>
    <g id="line2d_22">
     <path d="M 165.314804 81.144 
L 174.314804 81.144 
L 183.314804 81.144 
" style="fill: none; stroke-dasharray: 7.4,3.2; stroke-dashoffset: 0; stroke: #ff8000; stroke-width: 2"/>
    </g>
    <g id="text_10" class="text">
     <!-- $2\beta_i(\beta(t) - \beta_i) + \beta_i^2$ -->
     <g transform="translate(190.514804 84.294) scale(0.09 -0.09)">
      <defs>
       <path id="DejaVuSans-Oblique-69" d="M 1172 4863 
L 1747 4863 
L 1606 4134 
L 1031 4134 
L 1172 4863 
z
M 909 3500 
L 1484 3500 
L 800 0 
L 225 0 
L 909 3500 
z
" transform="scale(0.015625)"/>
       <path id="DejaVuSans-2b" d="M 2944 4013 
L 2944 2272 
L 4684 2272 
L 4684 1741 
L 2944 1741 
L 2944 0 
L 2419 0 
L 2419 1741 
L 678 1741 
L 678 2272 
L 2419 2272 
L 2419 4013 
L 2944 4013 
z
" transform="scale(0.015625)"/>
      </defs>
      <use xlink:href="#DejaVuSans-32" transform="translate(0 0.701562)"/>
      <use xlink:href="#DejaVuSans-Oblique-3b2" transform="translate(63.623047 0.701562)"/>
      <use xlink:href="#DejaVuSans-Oblique-69" transform="translate(127.441406 -15.704688) scale(0.7)"/>
      <use xlink:href="#DejaVuSans-28" transform="translate(149.624023 0.701562)"/>
      <use xlink:href="#DejaVuSans-Oblique-3b2" transform="translate(188.637695 0.701562)"/>
      <use xlink:href="#DejaVuSans-28" transform="translate(252.456055 0.701562)"/>
      <use xlink:href="#DejaVuSans-Oblique-74" transform="translate(291.469727 0.701562)"/>
      <use xlink:href="#DejaVuSans-29" transform="translate(330.678711 0.701562)"/>
      <use xlink:href="#DejaVuSans-2212" transform="translate(389.174805 0.701562)"/>
      <use xlink:href="#DejaVuSans-Oblique-3b2" transform="translate(492.446289 0.701562)"/>
      <use xlink:href="#DejaVuSans-Oblique-69" transform="translate(556.264648 -15.704688) scale(0.7)"/>
      <use xlink:href="#DejaVuSans-29" transform="translate(578.447266 0.701562)"/>
      <use xlink:href="#DejaVuSans-2b" transform="translate(636.943359 0.701562)"/>
      <use xlink:href="#DejaVuSans-Oblique-3b2" transform="translate(740.214844 0.701562)"/>
      <use xlink:href="#DejaVuSans-32" transform="translate(811.568411 39.046875) scale(0.7)"/>
      <use xlink:href="#DejaVuSans-Oblique-69" transform="translate(804.033203 -26.642188) scale(0.7)"/>
     </g>
    </g>
   </g>
  </g>
  <g id="axes_2">
   <g class="patch">
    <path d="M 137.595907 383.04 
L 278.747843 383.04 
L 278.747843 231.84 
L 137.595907 231.84 
L 137.595907 383.04 
z
" style="fill: none"/>
   </g>
   <g id="PathCollection_2">
    <g clip-path="url(#pfd627acbb9)">
     <use xlink:href="#m29dff36463" x="227.668477" y="303.629252" style="fill: #ff0001; fill-opacity: 0.8; stroke: #ff0001; stroke-opacity: 0.8"/>
    </g>
   </g>
   <g class="axis">
    <g class="tick xtick">
     <g id="line2d_23">
      <path d="M 160.280556 383.04 
L 160.280556 231.84 
" clip-path="url(#pfd627acbb9)" style="fill: none; stroke: #b0b0b0; stroke-opacity: 0.1; stroke-width: 0.8; stroke-linecap: square"/>
     </g>
     <g id="line2d_24">
      <g>
       <use xlink:href="#mdeb8c6b189" x="160.280556" y="383.04" style="stroke: currentColor; stroke-width: 0.8"/>
      </g>
     </g>
     <g id="text_11" class="text">
      <!-- −1 -->
      <g transform="translate(153.646572 396.878594) scale(0.09 -0.09)">
       <use xlink:href="#DejaVuSans-2212"/>
       <use xlink:href="#DejaVuSans-31" transform="translate(83.789062 0)"/>
      </g>
     </g>
    </g>
    <g class="tick xtick">
     <g id="line2d_25">
      <path d="M 208.089912 383.04 
L 208.089912 231.84 
" clip-path="url(#pfd627acbb9)" style="fill: none; stroke: #b0b0b0; stroke-opacity: 0.1; stroke-width: 0.8; stroke-linecap: square"/>
     </g>
     <g id="line2d_26">
      <g>
       <use xlink:href="#mdeb8c6b189" x="208.089912" y="383.04" style="stroke: currentColor; stroke-width: 0.8"/>
      </g>
     </g>
     <g id="text_12" class="text">
      <!-- 0 -->
      <g transform="translate(205.226787 396.878594) scale(0.09 -0.09)">
       <use xlink:href="#DejaVuSans-30"/>
      </g>
     </g>
    </g>
    <g class="tick xtick">
     <g id="line2d_27">
      <path d="M 255.899267 383.04 
L 255.899267 231.84 
" clip-path="url(#pfd627acbb9)" style="fill: none; stroke: #b0b0b0; stroke-opacity: 0.1; stroke-width: 0.8; stroke-linecap: square"/>
     </g>
     <g id="line2d_28">
      <g>
       <use xlink:href="#mdeb8c6b189" x="255.899267" y="383.04" style="stroke: currentColor; stroke-width: 0.8"/>
      </g>
     </g>
     <g id="text_13" class="text">
      <!-- 1 -->
      <g transform="translate(253.036142 396.878594) scale(0.09 -0.09)">
       <use xlink:href="#DejaVuSans-31"/>
      </g>
     </g>
    </g>
    <g id="text_14" class="text">
     <!-- $\beta(t)$ -->
     <g transform="translate(199.071875 410.450312) scale(0.1 -0.1)">
      <use xlink:href="#DejaVuSans-Oblique-3b2" transform="translate(0 0.390625)"/>
      <use xlink:href="#DejaVuSans-28" transform="translate(63.818359 0.390625)"/>
      <use xlink:href="#DejaVuSans-Oblique-74" transform="translate(102.832031 0.390625)"/>
      <use xlink:href="#DejaVuSans-29" transform="translate(142.041016 0.390625)"/>
     </g>
    </g>
   </g>
   <g class="axis">
    <g class="tick ytick">
     <g id="line2d_29">
      <path d="M 137.595907 359.456289 
L 278.747843 359.456289 
" clip-path="url(#pfd627acbb9)" style="fill: none; stroke: #b0b0b0; stroke-opacity: 0.1; stroke-width: 0.8; stroke-linecap: square"/>
     </g>
     <g id="line2d_30">
      <g>
       <use xlink:href="#mea8d24149f" x="137.595907" y="359.456289" style="stroke: currentColor; stroke-width: 0.8"/>
      </g>
     </g>
     <g id="text_15" class="text">
      <!-- −1.0 -->
      <g transform="translate(108.741376 362.875586) scale(0.09 -0.09)">
       <use xlink:href="#DejaVuSans-2212"/>
       <use xlink:href="#DejaVuSans-31" transform="translate(83.789062 0)"/>
       <use xlink:href="#DejaVuSans-2e" transform="translate(147.412109 0)"/>
       <use xlink:href="#DejaVuSans-30" transform="translate(179.199219 0)"/>
      </g>
     </g>
    </g>
    <g class="tick ytick">
     <g id="line2d_31">
      <path d="M 137.595907 335.551612 
L 278.747843 335.551612 
" clip-path="url(#pfd627acbb9)" style="fill: none; stroke: #b0b0b0; stroke-opacity: 0.1; stroke-width: 0.8; stroke-linecap: square"/>
     </g>
     <g id="line2d_32">
      <g>
       <use xlink:href="#mea8d24149f" x="137.595907" y="335.551612" style="stroke: currentColor; stroke-width: 0.8"/>
      </g>
     </g>
     <g id="text_16" class="text">
      <!-- −0.5 -->
      <g transform="translate(108.741376 338.970908) scale(0.09 -0.09)">
       <use xlink:href="#DejaVuSans-2212"/>
       <use xlink:href="#DejaVuSans-30" transform="translate(83.789062 0)"/>
       <use xlink:href="#DejaVuSans-2e" transform="translate(147.412109 0)"/>
       <use xlink:href="#DejaVuSans-35" transform="translate(179.199219 0)"/>
      </g>
     </g>
    </g>
    <g class="tick ytick">
     <g id="line2d_33">
      <path d="M 137.595907 311.646934 
L 278.747843 311.646934 
" clip-path="url(#pfd627acbb9)" style="fill: none; stroke: #b0b0b0; stroke-opacity: 0.1; stroke-width: 0.8; stroke-linecap: square"/>
     </g>
     <g id="line2d_34">
      <g>
       <use xlink:href="#mea8d24149f" x="137.595907" y="311.646934" style="stroke: currentColor; stroke-width: 0.8"/>
      </g>
     </g>
     <g id="text_17" class="text">
      <!-- 0.0 -->
      <g transform="translate(116.283095 315.066231) scale(0.09 -0.09)">
       <use xlink:href="#DejaVuSans-30"/>
       <use xlink:href="#DejaVuSans-2e" transform="translate(63.623047 0)"/>
       <use xlink:href="#DejaVuSans-30" transform="translate(95.410156 0)"/>
      </g>
     </g>
    </g>
    <g class="tick ytick">
     <g id="line2d_35">
      <path d="M 137.595907 287.742256 
L 278.747843 287.742256 
" clip-path="url(#pfd627acbb9)" style="fill: none; stroke: #b0b0b0; stroke-opacity: 0.1; stroke-width: 0.8; stroke-linecap: square"/>
     </g>
     <g id="line2d_36">
      <g>
       <use xlink:href="#mea8d24149f" x="137.595907" y="287.742256" style="stroke: currentColor; stroke-width: 0.8"/>
      </g>
     </g>
     <g id="text_18" class="text">
      <!-- 0.5 -->
      <g transform="translate(116.283095 291.161553) scale(0.09 -0.09)">
       <use xlink:href="#DejaVuSans-30"/>
       <use xlink:href="#DejaVuSans-2e" transform="translate(63.623047 0)"/>
       <use xlink:href="#DejaVuSans-35" transform="translate(95.410156 0)"/>
      </g>
     </g>
    </g>
    <g class="tick ytick">
     <g id="line2d_37">
      <path d="M 137.595907 263.837578 
L 278.747843 263.837578 
" clip-path="url(#pfd627acbb9)" style="fill: none; stroke: #b0b0b0; stroke-opacity: 0.1; stroke-width: 0.8; stroke-linecap: square"/>
     </g>
     <g id="line2d_38">
      <g>
       <use xlink:href="#mea8d24149f" x="137.595907" y="263.837578" style="stroke: currentColor; stroke-width: 0.8"/>
      </g>
     </g>
     <g id="text_19" class="text">
      <!-- 1.0 -->
      <g transform="translate(116.283095 267.256875) scale(0.09 -0.09)">
       <use xlink:href="#DejaVuSans-31"/>
       <use xlink:href="#DejaVuSans-2e" transform="translate(63.623047 0)"/>
       <use xlink:href="#DejaVuSans-30" transform="translate(95.410156 0)"/>
      </g>
     </g>
    </g>
    <g class="tick ytick">
     <g id="line2d_39">
      <path d="M 137.595907 239.932901 
L 278.747843 239.932901 
" clip-path="url(#pfd627acbb9)" style="fill: none; stroke: #b0b0b0; stroke-opacity: 0.1; stroke-width: 0.8; stroke-linecap: square"/>
     </g>
     <g id="line2d_40">
      <g>
       <use xlink:href="#mea8d24149f" x="137.595907" y="239.932901" style="stroke: currentColor; stroke-width: 0.8"/>
      </g>
     </g>
     <g id="text_20" class="text">
      <!-- 1.5 -->
      <g transform="translate(116.283095 243.352198) scale(0.09 -0.09)">
       <use xlink:href="#DejaVuSans-31"/>
       <use xlink:href="#DejaVuSans-2e" transform="translate(63.623047 0)"/>
       <use xlink:href="#DejaVuSans-35" transform="translate(95.410156 0)"/>
      </g>
     </g>
    </g>
    <g id="text_21" class="text">
     <!-- $\beta^2(t)$ -->
     <g transform="translate(102.641376 319.24) rotate(-90) scale(0.1 -0.1)">
      <use xlink:href="#DejaVuSans-Oblique-3b2" transform="translate(0 0.765625)"/>
      <use xlink:href="#DejaVuSans-32" transform="translate(71.353568 39.046875) scale(0.7)"/>
      <use xlink:href="#DejaVuSans-28" transform="translate(118.624076 0.765625)"/>
      <use xlink:href="#DejaVuSans-Oblique-74" transform="translate(157.637747 0.765625)"/>
      <use xlink:href="#DejaVuSans-29" transform="translate(196.846732 0.765625)"/>
     </g>
    </g>
   </g>
   <g id="line2d_41">
    <path d="M 208.089912 311.646934 
L 204.741301 311.412394 
L 207.252809 311.632277 
L 203.006527 311.106437 
L 197.611704 309.350462 
L 192.336459 306.456082 
L 201.227354 310.661882 
L 203.365607 311.180099 
L 207.646278 311.642817 
L 216.255586 310.252265 
L 215.172495 310.597704 
L 205.876823 311.54449 
L 207.174631 311.629411 
L 205.904095 311.547 
L 202.24392 310.932103 
L 191.738485 306.054531 
L 199.046463 309.936307 
L 205.941318 311.550374 
L 196.907291 309.031316 
L 198.131551 309.572675 
L 193.037508 306.907802 
L 188.211984 303.382191 
L 190.993809 305.533554 
L 195.736718 308.455061 
L 187.162909 302.486813 
L 183.772442 299.278239 
L 181.236089 296.563531 
L 174.244114 287.686392 
L 167.091538 276.489241 
L 167.106992 276.51574 
L 162.92679 268.983578 
L 160.697518 264.667866 
L 157.077296 257.216436 
L 149.358568 239.498488 
L 155.897213 254.66901 
L 168.317545 278.560497 
L 171.436601 283.546467 
L 164.116646 271.201961 
L 161.764248 266.758918 
L 166.565523 275.581297 
L 166.093023 274.755856 
L 170.918592 282.746585 
L 175.200162 289.02091 
L 183.391937 298.888134 
L 184.423903 299.932072 
L 180.127321 295.292258 
L 176.219388 290.401504 
L 185.411766 300.88966 
L 188.712821 303.793415 
L 197.334272 309.227245 
L 194.360984 307.704537 
L 191.531783 305.912248 
L 183.725752 299.230697 
L 189.298193 304.26075 
L 186.218008 301.640939 
L 182.466241 297.913795 
L 187.316533 302.620808 
L 195.901162 308.539474 
L 201.07291 310.617045 
L 203.895476 311.278945 
L 202.359401 310.960065 
L 206.129009 311.566507 
L 203.426286 311.192014 
L 200.809856 310.538381 
L 200.860714 310.553815 
L 192.929087 306.839284 
L 191.252907 305.717451 
L 191.132526 305.632359 
L 195.994829 308.587051 
L 198.407275 309.685948 
L 198.382149 309.675758 
L 201.887227 310.842211 
L 207.546054 311.640747 
L 205.381592 311.493512 
L 211.253045 311.437657 
L 210.933178 311.477842 
L 208.020551 311.646833 
L 202.483173 310.989416 
L 209.728569 311.590769 
L 212.109044 311.309062 
L 219.103438 309.10982 
L 219.091773 309.115192 
L 227.681936 303.618224 
L 227.668477 303.629252 
L 228.535096 302.903759 
L 227.365603 303.875395 
L 232.466185 299.218348 
L 225.742979 305.128737 
L 218.271341 309.478708 
L 213.334794 311.071549 
L 219.835565 308.761298 
L 221.214699 308.043873 
L 217.459065 309.81087 
L 217.532332 309.782042 
L 216.097008 310.305908 
L 207.656455 311.643004 
L 206.696998 311.606352 
L 209.470051 311.607093 
L 215.460334 310.510689 
L 221.371672 307.957172 
L 218.047907 309.572828 
L 226.564573 304.50789 
L 222.07216 307.557708 
L 219.474635 308.935918 
L 216.025527 310.329744 
L 220.242434 308.55792 
L 217.916317 309.627282 
L 220.987701 308.167427 
L 228.94755 302.547437 
L 238.636273 292.130247 
L 244.853796 283.376668 
L 242.416484 287.000847 
L 251.562963 272.116884 
L 245.8182 281.874022 
L 247.386746 279.346955 
L 254.508271 266.579101 
L 250.016402 274.879431 
L 256.419221 262.792016 
L 249.202668 276.292792 
L 248.412819 277.638175 
L 248.808698 276.96712 
L 256.642565 262.339428 
L 255.771176 264.093417 
L 259.67385 255.990406 
L 247.15784 279.722157 
L 248.771963 277.029665 
L 242.991123 286.168771 
L 243.163935 285.915839 
L 237.386772 293.694255 
L 235.727388 295.670352 
L 239.723249 290.716553 
L 245.912071 281.725684 
L 251.557803 272.126269 
L 244.820293 283.42817 
L 242.177947 287.34219 
L 245.900174 281.744503 
L 237.424402 293.648107 
L 236.115601 295.218366 
L 229.610074 301.960182 
L 225.138732 305.567323 
L 223.373454 306.76114 
L 219.667169 308.843447 
L 219.751162 308.802621 
L 216.575916 310.140696 
L 213.931872 310.933088 
L 214.359797 310.824679 
L 224.939666 305.708468 
L 225.939326 304.982933 
L 230.143644 301.473881 
L 235.712344 295.687741 
L 246.591954 280.640299 
L 255.031615 265.557137 
L 259.721307 255.887952 
L 257.557878 260.462817 
L 263.930804 246.42528 
L 266.985182 239.095176 
L 261.692869 251.5483 
L 257.226804 261.145643 
L 237.371947 293.712419 
L 244.930879 283.257996 
L 244.048843 284.601082 
L 248.943718 276.736749 
L 239.59009 290.892392 
L 239.59009 290.892392 
" clip-path="url(#pfd627acbb9)" style="fill: none; stroke: #8000ff; stroke-width: 2; stroke-linecap: square"/>
   </g>
   <g id="line2d_42">
    <path d="M 208.089912 327.682297 
L 149.358568 375.784824 
L 266.985182 279.44551 
L 239.59009 301.882816 
" clip-path="url(#pfd627acbb9)" style="fill: none; stroke-dasharray: 7.4,3.2; stroke-dashoffset: 0; stroke: #ff8000; stroke-width: 2"/>
   </g>
   <g class="patch">
    <path d="M 137.595907 383.04 
L 137.595907 231.84 
" style="fill: none; stroke: currentColor; stroke-width: 0.8; stroke-linejoin: miter; stroke-linecap: square"/>
   </g>
   <g class="patch">
    <path d="M 137.595907 383.04 
L 278.747843 383.04 
" style="fill: none; stroke: currentColor; stroke-width: 0.8; stroke-linejoin: miter; stroke-linecap: square"/>
   </g>
   <g class="legend">
    <g class="patch">
     <path d="M 163.514804 271.854 
L 269.624804 271.854 
Q 271.424804 271.854 271.424804 270.054 
L 271.424804 241.164 
Q 271.424804 239.364 269.624804 239.364 
L 163.514804 239.364 
Q 161.714804 239.364 161.714804 241.164 
L 161.714804 270.054 
Q 161.714804 271.854 163.514804 271.854 
z
" style="fill: #ffffff; opacity: 0.9; stroke: #cccccc; stroke-linejoin: miter"/>
    </g>
    <g id="line2d_43">
     <path d="M 165.314804 248.004 
L 174.314804 248.004 
L 183.314804 248.004 
" style="fill: none; stroke: #8000ff; stroke-width: 2; stroke-linecap: square"/>
    </g>
    <g id="text_22" class="text">
     <!-- $\beta^2(t)$ -->
     <g transform="translate(190.514804 251.154) scale(0.09 -0.09)">
      <use xlink:href="#DejaVuSans-Oblique-3b2" transform="translate(0 0.765625)"/>
      <use xlink:href="#DejaVuSans-32" transform="translate(71.353568 39.046875) scale(0.7)"/>
      <use xlink:href="#DejaVuSans-28" transform="translate(118.624076 0.765625)"/>
      <use xlink:href="#DejaVuSans-Oblique-74" transform="translate(157.637747 0.765625)"/>
      <use xlink:href="#DejaVuSans-29" transform="translate(196.846732 0.765625)"/>
     </g>
    </g>
    <g id="line2d_44">
     <path d="M 165.314804 262.584 
L 174.314804 262.584 
L 183.314804 262.584 
" style="fill: none; stroke-dasharray: 7.4,3.2; stroke-dashoffset: 0; stroke: #ff8000; stroke-width: 2"/>
    </g>
    <g id="text_23" class="text">
     <!-- $2\beta_i(\beta(t) - \beta_i) + \beta_i^2$ -->
     <g transform="translate(190.514804 265.734) scale(0.09 -0.09)">
      <use xlink:href="#DejaVuSans-32" transform="translate(0 0.701562)"/>
      <use xlink:href="#DejaVuSans-Oblique-3b2" transform="translate(63.623047 0.701562)"/>
      <use xlink:href="#DejaVuSans-Oblique-69" transform="translate(127.441406 -15.704688) scale(0.7)"/>
      <use xlink:href="#DejaVuSans-28" transform="translate(149.624023 0.701562)"/>
      <use xlink:href="#DejaVuSans-Oblique-3b2" transform="translate(188.637695 0.701562)"/>
      <use xlink:href="#DejaVuSans-28" transform="translate(252.456055 0.701562)"/>
      <use xlink:href="#DejaVuSans-Oblique-74" transform="translate(291.469727 0.701562)"/>
      <use xlink:href="#DejaVuSans-29" transform="translate(330.678711 0.701562)"/>
      <use xlink:href="#DejaVuSans-2212" transform="translate(389.174805 0.701562)"/>
      <use xlink:href="#DejaVuSans-Oblique-3b2" transform="translate(492.446289 0.701562)"/>
      <use xlink:href="#DejaVuSans-Oblique-69" transform="translate(556.264648 -15.704688) scale(0.7)"/>
      <use xlink:href="#DejaVuSans-29" transform="translate(578.447266 0.701562)"/>
      <use xlink:href="#DejaVuSans-2b" transform="translate(636.943359 0.701562)"/>
      <use xlink:href="#DejaVuSans-Oblique-3b2" transform="translate(740.214844 0.701562)"/>
      <use xlink:href="#DejaVuSans-32" transform="translate(811.568411 39.046875) scale(0.7)"/>
      <use xlink:href="#DejaVuSans-Oblique-69" transform="translate(804.033203 -26.642188) scale(0.7)"/>
     </g>
    </g>
   </g>
  </g>
  <g id="text_24" class="text">
   <!-- Squared Brownian motion and its second-order Taylor expansion -->
   <g transform="translate(7.2 16.318125) scale(0.12 -0.12)">
    <defs>
     <path id="DejaVuSans-53" d="M 3425 4513 
L 3425 3897 
Q 3066 4069 2747 4153 
Q 2428 4238 2131 4238 
Q 1616 4238 1336 4038 
Q 1056 3838 1056 3469 
Q 1056 3159 1242 3001 
Q 1428 2844 1947 2747 
L 2328 2669 
Q 3034 2534 3370 2195 
Q 3706 1856 3706 1288 
Q 3706 609 3251 259 
Q 2797 -91 1919 -91 
Q 1588 -91 1214 -16 
Q 841 59 441 206 
L 441 856 
Q 825 641 1194 531 
Q 1563 422 1919 422 
Q 2459 422 2753 634 
Q 3047 847 3047 1241 
Q 3047 1584 2836 1778 
Q 2625 1972 2144 2069 
L 1759 2144 
Q 1053 2284 737 2584 
Q 422 2884 422 3419 
Q 422 4038 858 4394 
Q 1294 4750 2059 4750 
Q 2388 4750 2728 4690 
Q 3069 4631 3425 4513 
z
" transform="scale(0.015625)"/>
     <path id="DejaVuSans-71" d="M 947 1747 
Q 947 1113 1208 752 
Q 1469 391 1925 391 
Q 2381 391 2643 752 
Q 2906 1113 2906 1747 
Q 2906 2381 2643 2742 
Q 2381 3103 1925 3103 
Q 1469 3103 1208 2742 
Q 947 2381 947 1747 
z
M 2906 525 
Q 2725 213 2448 61 
Q 2172 -91 1784 -91 
Q 1150 -91 751 415 
Q 353 922 353 1747 
Q 353 2572 751 3078 
Q 1150 3584 1784 3584 
Q 2172 3584 2448 3432 
Q 2725 3281 2906 2969 
L 2906 3500 
L 3481 3500 
L 3481 -1331 
L 2906 -1331 
L 2906 525 
z
" transform="scale(0.015625)"/>
     <path id="DejaVuSans-75" d="M 544 1381 
L 544 3500 
L 1119 3500 
L 1119 1403 
Q 1119 906 1312 657 
Q 1506 409 1894 409 
Q 2359 409 2629 706 
Q 2900 1003 2900 1516 
L 2900 3500 
L 3475 3500 
L 3475 0 
L 2900 0 
L 2900 538 
Q 2691 219 2414 64 
Q 2138 -91 1772 -91 
Q 1169 -91 856 284 
Q 544 659 544 1381 
z
M 1991 3584 
L 1991 3584 
z
" transform="scale(0.015625)"/>
     <path id="DejaVuSans-61" d="M 2194 1759 
Q 1497 1759 1228 1600 
Q 959 1441 959 1056 
Q 959 750 1161 570 
Q 1363 391 1709 391 
Q 2188 391 2477 730 
Q 2766 1069 2766 1631 
L 2766 1759 
L 2194 1759 
z
M 3341 1997 
L 3341 0 
L 2766 0 
L 2766 531 
Q 2569 213 2275 61 
Q 1981 -91 1556 -91 
Q 1019 -91 701 211 
Q 384 513 384 1019 
Q 384 1609 779 1909 
Q 1175 2209 1959 2209 
L 2766 2209 
L 2766 2266 
Q 2766 2663 2505 2880 
Q 2244 3097 1772 3097 
Q 1472 3097 1187 3025 
Q 903 2953 641 2809 
L 641 3341 
Q 956 3463 1253 3523 
Q 1550 3584 1831 3584 
Q 2591 3584 2966 3190 
Q 3341 2797 3341 1997 
z
" transform="scale(0.015625)"/>
     <path id="DejaVuSans-72" d="M 2631 2963 
Q 2534 3019 2420 3045 
Q 2306 3072 2169 3072 
Q 1681 3072 1420 2755 
Q 1159 2438 1159 1844 
L 1159 0 
L 581 0 
L 581 3500 
L 1159 3500 
L 1159 2956 
Q 1341 3275 1631 3429 
Q 1922 3584 2338 3584 
Q 2397 3584 2469 3576 
Q 2541 3569 2628 3553 
L 2631 2963 
z
" transform="scale(0.015625)"/>
     <path id="DejaVuSans-65" d="M 3597 1894 
L 3597 1613 
L 953 1613 
Q 991 1019 1311 708 
Q 1631 397 2203 397 
Q 2534 397 2845 478 
Q 3156 559 3463 722 
L 3463 178 
Q 3153 47 2828 -22 
Q 2503 -91 2169 -91 
Q 1331 -91 842 396 
Q 353 884 353 1716 
Q 353 2575 817 3079 
Q 1281 3584 2069 3584 
Q 2775 3584 3186 3129 
Q 3597 2675 3597 1894 
z
M 3022 2063 
Q 3016 2534 2758 2815 
Q 2500 3097 2075 3097 
Q 1594 3097 1305 2825 
Q 1016 2553 972 2059 
L 3022 2063 
z
" transform="scale(0.015625)"/>
     <path id="DejaVuSans-64" d="M 2906 2969 
L 2906 4863 
L 3481 4863 
L 3481 0 
L 2906 0 
L 2906 525 
Q 2725 213 2448 61 
Q 2172 -91 1784 -91 
Q 1150 -91 751 415 
Q 353 922 353 1747 
Q 353 2572 751 3078 
Q 1150 3584 1784 3584 
Q 2172 3584 2448 3432 
Q 2725 3281 2906 2969 
z
M 947 1747 
Q 947 1113 1208 752 
Q 1469 391 1925 391 
Q 2381 391 2643 752 
Q 2906 1113 2906 1747 
Q 2906 2381 2643 2742 
Q 2381 3103 1925 3103 
Q 1469 3103 1208 2742 
Q 947 2381 947 1747 
z
" transform="scale(0.015625)"/>
     <path id="DejaVuSans-20" transform="scale(0.015625)"/>
     <path id="DejaVuSans-42" d="M 1259 2228 
L 1259 519 
L 2272 519 
Q 2781 519 3026 730 
Q 3272 941 3272 1375 
Q 3272 1813 3026 2020 
Q 2781 2228 2272 2228 
L 1259 2228 
z
M 1259 4147 
L 1259 2741 
L 2194 2741 
Q 2656 2741 2882 2914 
Q 3109 3088 3109 3444 
Q 3109 3797 2882 3972 
Q 2656 4147 2194 4147 
L 1259 4147 
z
M 628 4666 
L 2241 4666 
Q 2963 4666 3353 4366 
Q 3744 4066 3744 3513 
Q 3744 3084 3544 2831 
Q 3344 2578 2956 2516 
Q 3422 2416 3680 2098 
Q 3938 1781 3938 1306 
Q 3938 681 3513 340 
Q 3088 0 2303 0 
L 628 0 
L 628 4666 
z
" transform="scale(0.015625)"/>
     <path id="DejaVuSans-6f" d="M 1959 3097 
Q 1497 3097 1228 2736 
Q 959 2375 959 1747 
Q 959 1119 1226 758 
Q 1494 397 1959 397 
Q 2419 397 2687 759 
Q 2956 1122 2956 1747 
Q 2956 2369 2687 2733 
Q 2419 3097 1959 3097 
z
M 1959 3584 
Q 2709 3584 3137 3096 
Q 3566 2609 3566 1747 
Q 3566 888 3137 398 
Q 2709 -91 1959 -91 
Q 1206 -91 779 398 
Q 353 888 353 1747 
Q 353 2609 779 3096 
Q 1206 3584 1959 3584 
z
" transform="scale(0.015625)"/>
     <path id="DejaVuSans-77" d="M 269 3500 
L 844 3500 
L 1563 769 
L 2278 3500 
L 2956 3500 
L 3675 769 
L 4391 3500 
L 4966 3500 
L 4050 0 
L 3372 0 
L 2619 2869 
L 1863 0 
L 1184 0 
L 269 3500 
z
" transform="scale(0.015625)"/>
     <path id="DejaVuSans-6e" d="M 3513 2113 
L 3513 0 
L 2938 0 
L 2938 2094 
Q 2938 2591 2744 2837 
Q 2550 3084 2163 3084 
Q 1697 3084 1428 2787 
Q 1159 2491 1159 1978 
L 1159 0 
L 581 0 
L 581 3500 
L 1159 3500 
L 1159 2956 
Q 1366 3272 1645 3428 
Q 1925 3584 2291 3584 
Q 2894 3584 3203 3211 
Q 3513 2838 3513 2113 
z
" transform="scale(0.015625)"/>
     <path id="DejaVuSans-69" d="M 603 3500 
L 1178 3500 
L 1178 0 
L 603 0 
L 603 3500 
z
M 603 4863 
L 1178 4863 
L 1178 4134 
L 603 4134 
L 603 4863 
z
" transform="scale(0.015625)"/>
     <path id="DejaVuSans-6d" d="M 3328 2828 
Q 3544 3216 3844 3400 
Q 4144 3584 4550 3584 
Q 5097 3584 5394 3201 
Q 5691 2819 5691 2113 
L 5691 0 
L 5113 0 
L 5113 2094 
Q 5113 2597 4934 2840 
Q 4756 3084 4391 3084 
Q 3944 3084 3684 2787 
Q 3425 2491 3425 1978 
L 3425 0 
L 2847 0 
L 2847 2094 
Q 2847 2600 2669 2842 
Q 2491 3084 2119 3084 
Q 1678 3084 1418 2786 
Q 1159 2488 1159 1978 
L 1159 0 
L 581 0 
L 581 3500 
L 1159 3500 
L 1159 2956 
Q 1356 3278 1631 3431 
Q 1906 3584 2284 3584 
Q 2666 3584 2933 3390 
Q 3200 3197 3328 2828 
z
" transform="scale(0.015625)"/>
     <path id="DejaVuSans-74" d="M 1172 4494 
L 1172 3500 
L 2356 3500 
L 2356 3053 
L 1172 3053 
L 1172 1153 
Q 1172 725 1289 603 
Q 1406 481 1766 481 
L 2356 481 
L 2356 0 
L 1766 0 
Q 1100 0 847 248 
Q 594 497 594 1153 
L 594 3053 
L 172 3053 
L 172 3500 
L 594 3500 
L 594 4494 
L 1172 4494 
z
" transform="scale(0.015625)"/>
     <path id="DejaVuSans-73" d="M 2834 3397 
L 2834 2853 
Q 2591 2978 2328 3040 
Q 2066 3103 1784 3103 
Q 1356 3103 1142 2972 
Q 928 2841 928 2578 
Q 928 2378 1081 2264 
Q 1234 2150 1697 2047 
L 1894 2003 
Q 2506 1872 2764 1633 
Q 3022 1394 3022 966 
Q 3022 478 2636 193 
Q 2250 -91 1575 -91 
Q 1294 -91 989 -36 
Q 684 19 347 128 
L 347 722 
Q 666 556 975 473 
Q 1284 391 1588 391 
Q 1994 391 2212 530 
Q 2431 669 2431 922 
Q 2431 1156 2273 1281 
Q 2116 1406 1581 1522 
L 1381 1569 
Q 847 1681 609 1914 
Q 372 2147 372 2553 
Q 372 3047 722 3315 
Q 1072 3584 1716 3584 
Q 2034 3584 2315 3537 
Q 2597 3491 2834 3397 
z
" transform="scale(0.015625)"/>
     <path id="DejaVuSans-63" d="M 3122 3366 
L 3122 2828 
Q 2878 2963 2633 3030 
Q 2388 3097 2138 3097 
Q 1578 3097 1268 2742 
Q 959 2388 959 1747 
Q 959 1106 1268 751 
Q 1578 397 2138 397 
Q 2388 397 2633 464 
Q 2878 531 3122 666 
L 3122 134 
Q 2881 22 2623 -34 
Q 2366 -91 2075 -91 
Q 1284 -91 818 406 
Q 353 903 353 1747 
Q 353 2603 823 3093 
Q 1294 3584 2113 3584 
Q 2378 3584 2631 3529 
Q 2884 3475 3122 3366 
z
" transform="scale(0.015625)"/>
     <path id="DejaVuSans-2d" d="M 313 2009 
L 1997 2009 
L 1997 1497 
L 313 1497 
L 313 2009 
z
" transform="scale(0.015625)"/>
     <path id="DejaVuSans-54" d="M -19 4666 
L 3928 4666 
L 3928 4134 
L 2272 4134 
L 2272 0 
L 1638 0 
L 1638 4134 
L -19 4134 
L -19 4666 
z
" transform="scale(0.015625)"/>
     <path id="DejaVuSans-79" d="M 2059 -325 
Q 1816 -950 1584 -1140 
Q 1353 -1331 966 -1331 
L 506 -1331 
L 506 -850 
L 844 -850 
Q 1081 -850 1212 -737 
Q 1344 -625 1503 -206 
L 1606 56 
L 191 3500 
L 800 3500 
L 1894 763 
L 2988 3500 
L 3597 3500 
L 2059 -325 
z
" transform="scale(0.015625)"/>
     <path id="DejaVuSans-6c" d="M 603 4863 
L 1178 4863 
L 1178 0 
L 603 0 
L 603 4863 
z
" transform="scale(0.015625)"/>
     <path id="DejaVuSans-78" d="M 3513 3500 
L 2247 1797 
L 3578 0 
L 2900 0 
L 1881 1375 
L 863 0 
L 184 0 
L 1544 1831 
L 300 3500 
L 978 3500 
L 1906 2253 
L 2834 3500 
L 3513 3500 
z
" transform="scale(0.015625)"/>
     <path id="DejaVuSans-70" d="M 1159 525 
L 1159 -1331 
L 581 -1331 
L 581 3500 
L 1159 3500 
L 1159 2969 
Q 1341 3281 1617 3432 
Q 1894 3584 2278 3584 
Q 2916 3584 3314 3078 
Q 3713 2572 3713 1747 
Q 3713 922 3314 415 
Q 2916 -91 2278 -91 
Q 1894 -91 1617 61 
Q 1341 213 1159 525 
z
M 3116 1747 
Q 3116 2381 2855 2742 
Q 2594 3103 2138 3103 
Q 1681 3103 1420 2742 
Q 1159 2381 1159 1747 
Q 1159 1113 1420 752 
Q 1681 391 2138 391 
Q 2594 391 2855 752 
Q 3116 1113 3116 1747 
z
" transform="scale(0.015625)"/>
    </defs>
    <use xlink:href="#DejaVuSans-53"/>
    <use xlink:href="#DejaVuSans-71" transform="translate(63.476562 0)"/>
    <use xlink:href="#DejaVuSans-75" transform="translate(126.953125 0)"/>
    <use xlink:href="#DejaVuSans-61" transform="translate(190.332031 0)"/>
    <use xlink:href="#DejaVuSans-72" transform="translate(251.611328 0)"/>
    <use xlink:href="#DejaVuSans-65" transform="translate(290.474609 0)"/>
    <use xlink:href="#DejaVuSans-64" transform="translate(351.998047 0)"/>
    <use xlink:href="#DejaVuSans-20" transform="translate(415.474609 0)"/>
    <use xlink:href="#DejaVuSans-42" transform="translate(447.261719 0)"/>
    <use xlink:href="#DejaVuSans-72" transform="translate(515.865234 0)"/>
    <use xlink:href="#DejaVuSans-6f" transform="translate(554.728516 0)"/>
    <use xlink:href="#DejaVuSans-77" transform="translate(615.910156 0)"/>
    <use xlink:href="#DejaVuSans-6e" transform="translate(697.697266 0)"/>
    <use xlink:href="#DejaVuSans-69" transform="translate(761.076172 0)"/>
    <use xlink:href="#DejaVuSans-61" transform="translate(788.859375 0)"/>
    <use xlink:href="#DejaVuSans-6e" transform="translate(850.138672 0)"/>
    <use xlink:href="#DejaVuSans-20" transform="translate(913.517578 0)"/>
    <use xlink:href="#DejaVuSans-6d" transform="translate(945.304688 0)"/>
    <use xlink:href="#DejaVuSans-6f" transform="translate(1042.716797 0)"/>
    <use xlink:href="#DejaVuSans-74" transform="translate(1103.898438 0)"/>
    <use xlink:href="#DejaVuSans-69" transform="translate(1143.107422 0)"/>
    <use xlink:href="#DejaVuSans-6f" transform="translate(1170.890625 0)"/>
    <use xlink:href="#DejaVuSans-6e" transform="translate(1232.072266 0)"/>
    <use xlink:href="#DejaVuSans-20" transform="translate(1295.451172 0)"/>
    <use xlink:href="#DejaVuSans-61" transform="translate(1327.238281 0)"/>
    <use xlink:href="#DejaVuSans-6e" transform="translate(1388.517578 0)"/>
    <use xlink:href="#DejaVuSans-64" transform="translate(1451.896484 0)"/>
    <use xlink:href="#DejaVuSans-20" transform="translate(1515.373047 0)"/>
    <use xlink:href="#DejaVuSans-69" transform="translate(1547.160156 0)"/>
    <use xlink:href="#DejaVuSans-74" transform="translate(1574.943359 0)"/>
    <use xlink:href="#DejaVuSans-73" transform="translate(1614.152344 0)"/>
    <use xlink:href="#DejaVuSans-20" transform="translate(1666.251953 0)"/>
    <use xlink:href="#DejaVuSans-73" transform="translate(1698.039062 0)"/>
    <use xlink:href="#DejaVuSans-65" transform="translate(1750.138672 0)"/>
    <use xlink:href="#DejaVuSans-63" transform="translate(1811.662109 0)"/>
    <use xlink:href="#DejaVuSans-6f" transform="translate(1866.642578 0)"/>
    <use xlink:href="#DejaVuSans-6e" transform="translate(1927.824219 0)"/>
    <use xlink:href="#DejaVuSans-64" transform="translate(1991.203125 0)"/>
    <use xlink:href="#DejaVuSans-2d" transform="translate(2054.679688 0)"/>
    <use xlink:href="#DejaVuSans-6f" transform="translate(2092.638672 0)"/>
    <use xlink:href="#DejaVuSans-72" transform="translate(2153.820312 0)"/>
    <use xlink:href="#DejaVuSans-64" transform="translate(2193.183594 0)"/>
    <use xlink:href="#DejaVuSans-65" transform="translate(2256.660156 0)"/>
    <use xlink:href="#DejaVuSans-72" transform="translate(2318.183594 0)"/>
    <use xlink:href="#DejaVuSans-20" transform="translate(2359.296875 0)"/>
    <use xlink:href="#DejaVuSans-54" transform="translate(2391.083984 0)"/>
    <use xlink:href="#DejaVuSans-61" transform="translate(2435.667969 0)"/>
    <use xlink:href="#DejaVuSans-79" transform="translate(2496.947266 0)"/>
    <use xlink:href="#DejaVuSans-6c" transform="translate(2556.126953 0)"/>
    <use xlink:href="#DejaVuSans-6f" transform="translate(2583.910156 0)"/>
    <use xlink:href="#DejaVuSans-72" transform="translate(2645.091797 0)"/>
    <use xlink:href="#DejaVuSans-20" transform="translate(2686.205078 0)"/>
    <use xlink:href="#DejaVuSans-65" transform="translate(2717.992188 0)"/>
    <use xlink:href="#DejaVuSans-78" transform="translate(2777.765625 0)"/>
    <use xlink:href="#DejaVuSans-70" transform="translate(2836.945312 0)"/>
    <use xlink:href="#DejaVuSans-61" transform="translate(2900.421875 0)"/>
    <use xlink:href="#DejaVuSans-6e" transform="translate(2961.701172 0)"/>
    <use xlink:href="#DejaVuSans-73" transform="translate(3025.080078 0)"/>
    <use xlink:href="#DejaVuSans-69" transform="translate(3077.179688 0)"/>
    <use xlink:href="#DejaVuSans-6f" transform="translate(3104.962891 0)"/>
    <use xlink:href="#DejaVuSans-6e" transform="translate(3166.144531 0)"/>
   </g>
  </g>
 </g>
 <defs>
  <clipPath id="pa581a2c4af">
   <rect x="137.595907" y="50.4" width="141.151936" height="151.2"/>
  </clipPath>
  <clipPath id="pfd627acbb9">
   <rect x="137.595907" y="231.84" width="141.151936" height="151.2"/>
  </clipPath>
 </defs>
</svg>
