<svg xmlns="http://www.w3.org/2000/svg" xmlns:xlink="http://www.w3.org/1999/xlink" width="535.925" height="559.667" viewBox="0 0 401.944 419.75"><style><![CDATA[.text{fill:#000!important;stroke:none!important}.axis path,.tick path,[stroke=black],[stroke=currentColor]{stroke:#000!important}g.legend>g:first-child>path:first-child{fill:rgba(255,255,255,.8)!important;stroke:rgba(0,0,0,.1)!important}@media (prefers-color-scheme:dark){.text{fill:#fff!important;stroke:none!important}.axis path,.tick path,[stroke=black],[stroke=currentColor]{stroke:#fff!important}g.legend>g:first-child>path:first-child{fill:rgba(26,26,26,.8)!important;stroke:rgba(255,255,255,.1)!important}}*{stroke-linejoin:round;stroke-linecap:butt}]]></style><g id="figure_1"><path d="M0 419.75h401.944V0H0z" class="patch" style="fill:none"/><g id="axes_1"><path d="M137.596 201.6h141.152V50.4H137.596z" class="patch" style="fill:none"/><g id="PathCollection_1"><defs><path id="m29dff36463" d="M0 2.739A2.739 2.739 0 1 0 0-2.74 2.739 2.739 0 0 0 0 2.74z" style="stroke:#ff0001;stroke-opacity:.8"/></defs><g clip-path="url(#pa581a2c4af)"><use xlink:href="#m29dff36463" x="227.668" y="122.189" style="fill:#ff0001;fill-opacity:.8;stroke:#ff0001;stroke-opacity:.8"/></g></g><g class="axis"><g class="tick xtick"><path id="line2d_1" d="M160.28 201.6V50.4" clip-path="url(#pa581a2c4af)" style="fill:none;stroke:#b0b0b0;stroke-opacity:.1;stroke-width:.8;stroke-linecap:square"/><g id="line2d_2"><defs><path id="mdeb8c6b189" d="M0 0v3.5" style="stroke:currentColor;stroke-width:.8"/></defs><use xlink:href="#mdeb8c6b189" x="160.281" y="201.6" style="stroke:currentColor;stroke-width:.8"/></g></g><g class="tick xtick"><path id="line2d_3" d="M208.09 201.6V50.4" clip-path="url(#pa581a2c4af)" style="fill:none;stroke:#b0b0b0;stroke-opacity:.1;stroke-width:.8;stroke-linecap:square"/><use xlink:href="#mdeb8c6b189" id="line2d_4" x="208.09" y="201.6" style="stroke:currentColor;stroke-width:.8"/></g><g class="tick xtick"><path id="line2d_5" d="M255.9 201.6V50.4" clip-path="url(#pa581a2c4af)" style="fill:none;stroke:#b0b0b0;stroke-opacity:.1;stroke-width:.8;stroke-linecap:square"/><use xlink:href="#mdeb8c6b189" id="line2d_6" x="255.899" y="201.6" style="stroke:currentColor;stroke-width:.8"/></g><g id="text_1" class="text" transform="matrix(.1 0 0 -.1 199.072 216.8)"><defs><path id="DejaVuSans-Oblique-3b2" d="M872 216 572-1331H-6l934 4809q278 1425 1610 1425 1350 0 1121-1203-156-856-765-1169 819-281 659-1115Q3272-69 1759-66q-662 3-887 282zm147 750q240-544 856-541 900 0 1091 981 172 882-1291 813l103 531q1131-19 1328 1000 135 688-597 684-818 0-1006-975z" transform="scale(.01563)"/><path id="DejaVuSans-28" d="M1984 4856q-418-718-622-1422-203-703-203-1425 0-721 205-1429t620-1424h-500Q1016-109 783 600T550 2009q0 697 231 1403 232 707 703 1444z" transform="scale(.01563)"/><path id="DejaVuSans-Oblique-74" d="m2706 3500-87-447H1472l-372-1900q-19-106-28-178t-9-112q0-200 120-291t386-91h581L2053 0h-550Q991 0 739 200 488 400 488 806q0 72 9 158t28 189l372 1900H409l91 447h478l194 994h575l-191-994z" transform="scale(.01563)"/><path id="DejaVuSans-29" d="M513 4856h500q468-737 701-1444 233-706 233-1403 0-700-233-1409T1013-844H513q415 716 620 1424t205 1429q0 722-205 1425-205 704-620 1422z" transform="scale(.01563)"/></defs><use xlink:href="#DejaVuSans-Oblique-3b2" transform="translate(0 .39)"/><use xlink:href="#DejaVuSans-28" transform="translate(63.818 .39)"/><use xlink:href="#DejaVuSans-Oblique-74" transform="translate(102.832 .39)"/><use xlink:href="#DejaVuSans-29" transform="translate(142.041 .39)"/></g></g><g class="axis"><g class="tick ytick"><path id="line2d_7" d="M137.596 178.016h141.152" clip-path="url(#pa581a2c4af)" style="fill:none;stroke:#b0b0b0;stroke-opacity:.1;stroke-width:.8;stroke-linecap:square"/><g id="line2d_8"><defs><path id="mea8d24149f" d="M0 0h-3.5" style="stroke:currentColor;stroke-width:.8"/></defs><use xlink:href="#mea8d24149f" x="137.596" y="178.016" style="stroke:currentColor;stroke-width:.8"/></g><g id="text_2" class="text" transform="matrix(.09 0 0 -.09 108.741 181.436)"><defs><path id="DejaVuSans-2212" d="M678 2272h4006v-531H678z" transform="scale(.01563)"/><path id="DejaVuSans-31" d="M794 531h1031v3560L703 3866v575l1116 225h631V531h1031V0H794z" transform="scale(.01563)"/><path id="DejaVuSans-2e" d="M684 794h660V0H684z" transform="scale(.01563)"/><path id="DejaVuSans-30" d="M2034 4250q-487 0-733-480-245-479-245-1442 0-959 245-1439 246-480 733-480 491 0 736 480 246 480 246 1439 0 963-246 1442-245 480-736 480zm0 500q785 0 1199-621 414-620 414-1801 0-1178-414-1799Q2819-91 2034-91q-784 0-1198 620-414 621-414 1799 0 1181 414 1801 414 621 1198 621z" transform="scale(.01563)"/></defs><use xlink:href="#DejaVuSans-2212"/><use xlink:href="#DejaVuSans-31" transform="translate(83.79)"/><use xlink:href="#DejaVuSans-2e" transform="translate(147.412)"/><use xlink:href="#DejaVuSans-30" transform="translate(179.2)"/></g></g><g class="tick ytick"><path id="line2d_9" d="M137.596 154.112h141.152" clip-path="url(#pa581a2c4af)" style="fill:none;stroke:#b0b0b0;stroke-opacity:.1;stroke-width:.8;stroke-linecap:square"/><use xlink:href="#mea8d24149f" id="line2d_10" x="137.596" y="154.112" style="stroke:currentColor;stroke-width:.8"/><g id="text_3" class="text" transform="matrix(.09 0 0 -.09 108.741 157.53)"><defs><path id="DejaVuSans-35" d="M691 4666h2478v-532H1269V2991q137 47 274 70 138 23 276 23 781 0 1237-428 457-428 457-1159 0-753-469-1171Q2575-91 1722-91q-294 0-599 50Q819 9 494 109v635q281-153 581-228t634-75q541 0 856 284 316 284 316 772 0 487-316 771-315 285-856 285-253 0-505-56-251-56-513-175z" transform="scale(.01563)"/></defs><use xlink:href="#DejaVuSans-2212"/><use xlink:href="#DejaVuSans-30" transform="translate(83.79)"/><use xlink:href="#DejaVuSans-2e" transform="translate(147.412)"/><use xlink:href="#DejaVuSans-35" transform="translate(179.2)"/></g></g><g class="tick ytick"><path id="line2d_11" d="M137.596 130.207h141.152" clip-path="url(#pa581a2c4af)" style="fill:none;stroke:#b0b0b0;stroke-opacity:.1;stroke-width:.8;stroke-linecap:square"/><use xlink:href="#mea8d24149f" id="line2d_12" x="137.596" y="130.207" style="stroke:currentColor;stroke-width:.8"/><g id="text_4" class="text" transform="matrix(.09 0 0 -.09 116.283 133.626)"><use xlink:href="#DejaVuSans-30"/><use xlink:href="#DejaVuSans-2e" transform="translate(63.623)"/><use xlink:href="#DejaVuSans-30" transform="translate(95.41)"/></g></g><g class="tick ytick"><path id="line2d_13" d="M137.596 106.302h141.152" clip-path="url(#pa581a2c4af)" style="fill:none;stroke:#b0b0b0;stroke-opacity:.1;stroke-width:.8;stroke-linecap:square"/><use xlink:href="#mea8d24149f" id="line2d_14" x="137.596" y="106.302" style="stroke:currentColor;stroke-width:.8"/><g id="text_5" class="text" transform="matrix(.09 0 0 -.09 116.283 109.722)"><use xlink:href="#DejaVuSans-30"/><use xlink:href="#DejaVuSans-2e" transform="translate(63.623)"/><use xlink:href="#DejaVuSans-35" transform="translate(95.41)"/></g></g><g class="tick ytick"><path id="line2d_15" d="M137.596 82.398h141.152" clip-path="url(#pa581a2c4af)" style="fill:none;stroke:#b0b0b0;stroke-opacity:.1;stroke-width:.8;stroke-linecap:square"/><use xlink:href="#mea8d24149f" id="line2d_16" x="137.596" y="82.398" style="stroke:currentColor;stroke-width:.8"/><g id="text_6" class="text" transform="matrix(.09 0 0 -.09 116.283 85.817)"><use xlink:href="#DejaVuSans-31"/><use xlink:href="#DejaVuSans-2e" transform="translate(63.623)"/><use xlink:href="#DejaVuSans-30" transform="translate(95.41)"/></g></g><g class="tick ytick"><path id="line2d_17" d="M137.596 58.493h141.152" clip-path="url(#pa581a2c4af)" style="fill:none;stroke:#b0b0b0;stroke-opacity:.1;stroke-width:.8;stroke-linecap:square"/><use xlink:href="#mea8d24149f" id="line2d_18" x="137.596" y="58.493" style="stroke:currentColor;stroke-width:.8"/><g id="text_7" class="text" transform="matrix(.09 0 0 -.09 116.283 61.912)"><use xlink:href="#DejaVuSans-31"/><use xlink:href="#DejaVuSans-2e" transform="translate(63.623)"/><use xlink:href="#DejaVuSans-35" transform="translate(95.41)"/></g></g><g id="text_8" class="text" transform="matrix(0 -.1 -.1 0 102.641 137.8)"><defs><path id="DejaVuSans-32" d="M1228 531h2203V0H469v531q359 372 979 998 621 627 780 809 303 340 423 576 121 236 121 464 0 372-261 606-261 235-680 235-297 0-627-103-329-103-704-313v638q381 153 712 231 332 78 607 78 725 0 1156-363 431-362 431-968 0-288-108-546-107-257-392-607-78-91-497-524-418-433-1181-1211z" transform="scale(.01563)"/></defs><use xlink:href="#DejaVuSans-Oblique-3b2" transform="translate(0 .766)"/><use xlink:href="#DejaVuSans-32" transform="matrix(.7 0 0 .7 71.354 39.047)"/><use xlink:href="#DejaVuSans-28" transform="translate(118.624 .766)"/><use xlink:href="#DejaVuSans-Oblique-74" transform="translate(157.638 .766)"/><use xlink:href="#DejaVuSans-29" transform="translate(196.847 .766)"/></g></g><path id="line2d_19" d="m208.09 130.207-3.349-.235 2.512.22-4.246-.526-5.395-1.756-5.276-2.894 8.891 4.206 2.139.518 4.28.463 8.61-1.39-1.084.345-9.295.946 1.298.085-1.27-.082-3.661-.615-10.506-4.877 7.308 3.881 6.895 1.614-9.034-2.519 1.225.542-5.094-2.665-4.826-3.526 2.782 2.152 4.743 2.921-8.574-5.968-3.39-3.209-2.537-2.714-6.992-8.878-7.152-11.197.015.027-4.18-7.532-2.23-4.316-3.62-7.452-7.718-17.718 6.538 15.171 12.42 23.891 3.12 4.986-7.32-12.344-2.353-4.443 4.802 8.822-.473-.825 4.826 7.99 4.281 6.275 8.192 9.867 1.032 1.044-4.297-4.64-3.908-4.89 9.193 10.488 3.3 2.903 8.622 5.434-2.973-1.522-2.83-1.793-7.805-6.681 5.572 5.03-3.08-2.62-3.752-3.727 4.85 4.707 8.585 5.918 5.172 2.078 2.822.662-1.536-.319 3.77.607-2.703-.375-2.616-.654.05.016-7.93-3.715-1.677-1.122-.12-.085 4.862 2.955 2.412 1.099-.025-.01 3.505 1.166 5.66.799-2.165-.147 5.871-.056-.32.04-2.912.169-5.538-.658 7.246.602 2.38-.282 6.994-2.2-.011.006 8.59-5.497-.014.011.867-.725-1.17.971 5.101-4.657-6.723 5.91-7.472 4.35-4.936 1.594 6.5-2.31 1.38-.718-3.756 1.767.073-.029-1.435.524-8.44 1.337-.96-.037 2.773.001 5.99-1.096 5.912-2.554-3.324 1.616 8.517-5.065-4.493 3.05-2.597 1.378-3.45 1.394 4.217-1.772-2.326 1.07 3.072-1.46 7.96-5.62 9.688-10.418 6.218-8.753-2.438 3.624 9.147-14.884-5.745 9.757 1.569-2.527 7.121-12.768-4.492 8.3 6.403-12.087-7.216 13.5-.79 1.346.396-.67 7.834-14.629-.872 1.754 3.903-8.103-12.516 23.732 1.614-2.692-5.78 9.139.172-.253-5.777 7.778-1.66 1.976 3.996-4.953 6.19-8.991 5.645-9.6-6.738 11.302-2.642 3.914 3.722-5.597-8.476 11.903-1.308 1.57-6.506 6.742-4.471 3.607-1.766 1.194-3.706 2.082.084-.04-3.175 1.338-2.644.792.428-.108 10.58-5.117 1-.725 4.204-3.51 5.568-5.785 10.88-15.048 8.44-15.083 4.69-9.669-2.164 4.575 6.373-14.038 3.054-7.33-5.292 12.453-4.466 9.598-19.855 32.566 7.559-10.454-.882 1.343 4.895-7.864-9.354 14.155h0" clip-path="url(#pa581a2c4af)" style="fill:none;stroke:#8000ff;stroke-width:2;stroke-linecap:square"/><path id="line2d_20" d="m208.09 138.225-58.731 48.102 117.626-96.34-27.395 22.438" clip-path="url(#pa581a2c4af)" style="fill:none;stroke-dasharray:7.4,3.2;stroke-dashoffset:0;stroke:#ff8000;stroke-width:2"/><path d="M137.596 201.6V50.4M137.596 201.6h141.152" class="patch" style="fill:none;stroke:currentColor;stroke-width:.8;stroke-linejoin:miter;stroke-linecap:square"/><g class="legend"><path d="M163.515 90.414h106.11q1.8 0 1.8-1.8v-28.89q0-1.8-1.8-1.8h-106.11q-1.8 0-1.8 1.8v28.89q0 1.8 1.8 1.8z" class="patch" style="fill:#fff;opacity:.9;stroke:#ccc;stroke-linejoin:miter"/><path id="line2d_21" d="M165.315 66.564h18" style="fill:none;stroke:#8000ff;stroke-width:2;stroke-linecap:square"/><g id="text_9" class="text" transform="matrix(.09 0 0 -.09 190.515 69.714)"><use xlink:href="#DejaVuSans-Oblique-3b2" transform="translate(0 .766)"/><use xlink:href="#DejaVuSans-32" transform="matrix(.7 0 0 .7 71.354 39.047)"/><use xlink:href="#DejaVuSans-28" transform="translate(118.624 .766)"/><use xlink:href="#DejaVuSans-Oblique-74" transform="translate(157.638 .766)"/><use xlink:href="#DejaVuSans-29" transform="translate(196.847 .766)"/></g><path id="line2d_22" d="M165.315 81.144h18" style="fill:none;stroke-dasharray:7.4,3.2;stroke-dashoffset:0;stroke:#ff8000;stroke-width:2"/><g id="text_10" class="text" transform="matrix(.09 0 0 -.09 190.515 84.294)"><defs><path id="DejaVuSans-Oblique-69" d="M1172 4863h575l-141-729h-575zM909 3500h575L800 0H225z" transform="scale(.01563)"/><path id="DejaVuSans-2b" d="M2944 4013V2272h1740v-531H2944V0h-525v1741H678v531h1741v1741z" transform="scale(.01563)"/></defs><use xlink:href="#DejaVuSans-32" transform="translate(0 .702)"/><use xlink:href="#DejaVuSans-Oblique-3b2" transform="translate(63.623 .702)"/><use xlink:href="#DejaVuSans-Oblique-69" transform="matrix(.7 0 0 .7 127.441 -15.705)"/><use xlink:href="#DejaVuSans-28" transform="translate(149.624 .702)"/><use xlink:href="#DejaVuSans-Oblique-3b2" transform="translate(188.638 .702)"/><use xlink:href="#DejaVuSans-28" transform="translate(252.456 .702)"/><use xlink:href="#DejaVuSans-Oblique-74" transform="translate(291.47 .702)"/><use xlink:href="#DejaVuSans-29" transform="translate(330.679 .702)"/><use xlink:href="#DejaVuSans-2212" transform="translate(389.175 .702)"/><use xlink:href="#DejaVuSans-Oblique-3b2" transform="translate(492.446 .702)"/><use xlink:href="#DejaVuSans-Oblique-69" transform="matrix(.7 0 0 .7 556.265 -15.705)"/><use xlink:href="#DejaVuSans-29" transform="translate(578.447 .702)"/><use xlink:href="#DejaVuSans-2b" transform="translate(636.943 .702)"/><use xlink:href="#DejaVuSans-Oblique-3b2" transform="translate(740.215 .702)"/><use xlink:href="#DejaVuSans-32" transform="matrix(.7 0 0 .7 811.568 39.047)"/><use xlink:href="#DejaVuSans-Oblique-69" transform="matrix(.7 0 0 .7 804.033 -26.642)"/></g></g></g><g id="axes_2"><path d="M137.596 383.04h141.152v-151.2H137.596z" class="patch" style="fill:none"/><g id="PathCollection_2" clip-path="url(#pfd627acbb9)"><use xlink:href="#m29dff36463" x="227.668" y="303.629" style="fill:#ff0001;fill-opacity:.8;stroke:#ff0001;stroke-opacity:.8"/></g><g class="axis"><g class="tick xtick"><path id="line2d_23" d="M160.28 383.04v-151.2" clip-path="url(#pfd627acbb9)" style="fill:none;stroke:#b0b0b0;stroke-opacity:.1;stroke-width:.8;stroke-linecap:square"/><use xlink:href="#mdeb8c6b189" id="line2d_24" x="160.281" y="383.04" style="stroke:currentColor;stroke-width:.8"/><g id="text_11" class="text" transform="matrix(.09 0 0 -.09 153.647 396.879)"><use xlink:href="#DejaVuSans-2212"/><use xlink:href="#DejaVuSans-31" transform="translate(83.79)"/></g></g><g class="tick xtick"><path id="line2d_25" d="M208.09 383.04v-151.2" clip-path="url(#pfd627acbb9)" style="fill:none;stroke:#b0b0b0;stroke-opacity:.1;stroke-width:.8;stroke-linecap:square"/><use xlink:href="#mdeb8c6b189" id="line2d_26" x="208.09" y="383.04" style="stroke:currentColor;stroke-width:.8"/><use xlink:href="#DejaVuSans-30" id="text_12" class="text" transform="matrix(.09 0 0 -.09 205.227 396.879)"/></g><g class="tick xtick"><path id="line2d_27" d="M255.9 383.04v-151.2" clip-path="url(#pfd627acbb9)" style="fill:none;stroke:#b0b0b0;stroke-opacity:.1;stroke-width:.8;stroke-linecap:square"/><use xlink:href="#mdeb8c6b189" id="line2d_28" x="255.899" y="383.04" style="stroke:currentColor;stroke-width:.8"/><use xlink:href="#DejaVuSans-31" id="text_13" class="text" transform="matrix(.09 0 0 -.09 253.036 396.879)"/></g><g id="text_14" class="text" transform="matrix(.1 0 0 -.1 199.072 410.45)"><use xlink:href="#DejaVuSans-Oblique-3b2" transform="translate(0 .39)"/><use xlink:href="#DejaVuSans-28" transform="translate(63.818 .39)"/><use xlink:href="#DejaVuSans-Oblique-74" transform="translate(102.832 .39)"/><use xlink:href="#DejaVuSans-29" transform="translate(142.041 .39)"/></g></g><g class="axis"><g class="tick ytick"><path id="line2d_29" d="M137.596 359.456h141.152" clip-path="url(#pfd627acbb9)" style="fill:none;stroke:#b0b0b0;stroke-opacity:.1;stroke-width:.8;stroke-linecap:square"/><use xlink:href="#mea8d24149f" id="line2d_30" x="137.596" y="359.456" style="stroke:currentColor;stroke-width:.8"/><g id="text_15" class="text" transform="matrix(.09 0 0 -.09 108.741 362.876)"><use xlink:href="#DejaVuSans-2212"/><use xlink:href="#DejaVuSans-31" transform="translate(83.79)"/><use xlink:href="#DejaVuSans-2e" transform="translate(147.412)"/><use xlink:href="#DejaVuSans-30" transform="translate(179.2)"/></g></g><g class="tick ytick"><path id="line2d_31" d="M137.596 335.552h141.152" clip-path="url(#pfd627acbb9)" style="fill:none;stroke:#b0b0b0;stroke-opacity:.1;stroke-width:.8;stroke-linecap:square"/><use xlink:href="#mea8d24149f" id="line2d_32" x="137.596" y="335.552" style="stroke:currentColor;stroke-width:.8"/><g id="text_16" class="text" transform="matrix(.09 0 0 -.09 108.741 338.97)"><use xlink:href="#DejaVuSans-2212"/><use xlink:href="#DejaVuSans-30" transform="translate(83.79)"/><use xlink:href="#DejaVuSans-2e" transform="translate(147.412)"/><use xlink:href="#DejaVuSans-35" transform="translate(179.2)"/></g></g><g class="tick ytick"><path id="line2d_33" d="M137.596 311.647h141.152" clip-path="url(#pfd627acbb9)" style="fill:none;stroke:#b0b0b0;stroke-opacity:.1;stroke-width:.8;stroke-linecap:square"/><use xlink:href="#mea8d24149f" id="line2d_34" x="137.596" y="311.647" style="stroke:currentColor;stroke-width:.8"/><g id="text_17" class="text" transform="matrix(.09 0 0 -.09 116.283 315.066)"><use xlink:href="#DejaVuSans-30"/><use xlink:href="#DejaVuSans-2e" transform="translate(63.623)"/><use xlink:href="#DejaVuSans-30" transform="translate(95.41)"/></g></g><g class="tick ytick"><path id="line2d_35" d="M137.596 287.742h141.152" clip-path="url(#pfd627acbb9)" style="fill:none;stroke:#b0b0b0;stroke-opacity:.1;stroke-width:.8;stroke-linecap:square"/><use xlink:href="#mea8d24149f" id="line2d_36" x="137.596" y="287.742" style="stroke:currentColor;stroke-width:.8"/><g id="text_18" class="text" transform="matrix(.09 0 0 -.09 116.283 291.162)"><use xlink:href="#DejaVuSans-30"/><use xlink:href="#DejaVuSans-2e" transform="translate(63.623)"/><use xlink:href="#DejaVuSans-35" transform="translate(95.41)"/></g></g><g class="tick ytick"><path id="line2d_37" d="M137.596 263.838h141.152" clip-path="url(#pfd627acbb9)" style="fill:none;stroke:#b0b0b0;stroke-opacity:.1;stroke-width:.8;stroke-linecap:square"/><use xlink:href="#mea8d24149f" id="line2d_38" x="137.596" y="263.838" style="stroke:currentColor;stroke-width:.8"/><g id="text_19" class="text" transform="matrix(.09 0 0 -.09 116.283 267.257)"><use xlink:href="#DejaVuSans-31"/><use xlink:href="#DejaVuSans-2e" transform="translate(63.623)"/><use xlink:href="#DejaVuSans-30" transform="translate(95.41)"/></g></g><g class="tick ytick"><path id="line2d_39" d="M137.596 239.933h141.152" clip-path="url(#pfd627acbb9)" style="fill:none;stroke:#b0b0b0;stroke-opacity:.1;stroke-width:.8;stroke-linecap:square"/><use xlink:href="#mea8d24149f" id="line2d_40" x="137.596" y="239.933" style="stroke:currentColor;stroke-width:.8"/><g id="text_20" class="text" transform="matrix(.09 0 0 -.09 116.283 243.352)"><use xlink:href="#DejaVuSans-31"/><use xlink:href="#DejaVuSans-2e" transform="translate(63.623)"/><use xlink:href="#DejaVuSans-35" transform="translate(95.41)"/></g></g><g id="text_21" class="text" transform="matrix(0 -.1 -.1 0 102.641 319.24)"><use xlink:href="#DejaVuSans-Oblique-3b2" transform="translate(0 .766)"/><use xlink:href="#DejaVuSans-32" transform="matrix(.7 0 0 .7 71.354 39.047)"/><use xlink:href="#DejaVuSans-28" transform="translate(118.624 .766)"/><use xlink:href="#DejaVuSans-Oblique-74" transform="translate(157.638 .766)"/><use xlink:href="#DejaVuSans-29" transform="translate(196.847 .766)"/></g></g><path id="line2d_41" d="m208.09 311.647-3.349-.235 2.512.22-4.246-.526-5.395-1.756-5.276-2.894 8.891 4.206 2.139.518 4.28.463 8.61-1.39-1.084.345-9.295.946 1.298.085-1.27-.082-3.661-.615-10.506-4.877 7.308 3.881 6.895 1.614-9.034-2.519 1.225.542-5.094-2.665-4.826-3.526 2.782 2.152 4.743 2.921-8.574-5.968-3.39-3.209-2.537-2.714-6.992-8.878-7.152-11.197.015.027-4.18-7.532-2.23-4.316-3.62-7.452-7.718-17.718 6.538 15.171 12.42 23.891 3.12 4.986-7.32-12.344-2.353-4.443 4.802 8.822-.473-.825 4.826 7.99 4.281 6.275 8.192 9.867 1.032 1.044-4.297-4.64-3.908-4.89 9.193 10.488 3.3 2.903 8.622 5.434-2.973-1.522-2.83-1.793-7.805-6.681 5.572 5.03-3.08-2.62-3.752-3.727 4.85 4.707 8.585 5.918 5.172 2.078 2.822.662-1.536-.319 3.77.607-2.703-.375-2.616-.654.05.016-7.93-3.715-1.677-1.122-.12-.085 4.862 2.955 2.412 1.099-.025-.01 3.505 1.166 5.66.799-2.165-.147 5.871-.056-.32.04-2.912.169-5.538-.658 7.246.602 2.38-.282 6.994-2.2-.011.006 8.59-5.497-.014.011.867-.725-1.17.971 5.101-4.657-6.723 5.91-7.472 4.35-4.936 1.594 6.5-2.31 1.38-.718-3.756 1.767.073-.029-1.435.524-8.44 1.337-.96-.037 2.773.001 5.99-1.096 5.912-2.554-3.324 1.616 8.517-5.065-4.493 3.05-2.597 1.378-3.45 1.394 4.217-1.772-2.326 1.07 3.072-1.46 7.96-5.62 9.688-10.418 6.218-8.753-2.438 3.624 9.147-14.884-5.745 9.757 1.569-2.527 7.121-12.768-4.492 8.3 6.403-12.087-7.216 13.5-.79 1.346.396-.67 7.834-14.629-.872 1.754 3.903-8.103-12.516 23.732 1.614-2.692-5.78 9.139.172-.253-5.777 7.778-1.66 1.976 3.996-4.953 6.19-8.991 5.645-9.6-6.738 11.302-2.642 3.914 3.722-5.597-8.476 11.903-1.308 1.57-6.506 6.742-4.471 3.607-1.766 1.194-3.706 2.082.084-.04-3.175 1.338-2.644.792.428-.108 10.58-5.117 1-.725 4.204-3.51 5.568-5.785 10.88-15.048 8.44-15.083 4.69-9.669-2.164 4.575 6.373-14.038 3.054-7.33-5.292 12.453-4.466 9.598-19.855 32.566 7.559-10.454-.882 1.343 4.895-7.864-9.354 14.155h0" clip-path="url(#pfd627acbb9)" style="fill:none;stroke:#8000ff;stroke-width:2;stroke-linecap:square"/><path id="line2d_42" d="m208.09 327.682-58.731 48.103 117.626-96.34-27.395 22.438" clip-path="url(#pfd627acbb9)" style="fill:none;stroke-dasharray:7.4,3.2;stroke-dashoffset:0;stroke:#ff8000;stroke-width:2"/><path d="M137.596 383.04v-151.2M137.596 383.04h141.152" class="patch" style="fill:none;stroke:currentColor;stroke-width:.8;stroke-linejoin:miter;stroke-linecap:square"/><g class="legend"><path d="M163.515 271.854h106.11q1.8 0 1.8-1.8v-28.89q0-1.8-1.8-1.8h-106.11q-1.8 0-1.8 1.8v28.89q0 1.8 1.8 1.8z" class="patch" style="fill:#fff;opacity:.9;stroke:#ccc;stroke-linejoin:miter"/><path id="line2d_43" d="M165.315 248.004h18" style="fill:none;stroke:#8000ff;stroke-width:2;stroke-linecap:square"/><g id="text_22" class="text" transform="matrix(.09 0 0 -.09 190.515 251.154)"><use xlink:href="#DejaVuSans-Oblique-3b2" transform="translate(0 .766)"/><use xlink:href="#DejaVuSans-32" transform="matrix(.7 0 0 .7 71.354 39.047)"/><use xlink:href="#DejaVuSans-28" transform="translate(118.624 .766)"/><use xlink:href="#DejaVuSans-Oblique-74" transform="translate(157.638 .766)"/><use xlink:href="#DejaVuSans-29" transform="translate(196.847 .766)"/></g><path id="line2d_44" d="M165.315 262.584h18" style="fill:none;stroke-dasharray:7.4,3.2;stroke-dashoffset:0;stroke:#ff8000;stroke-width:2"/><g id="text_23" class="text" transform="matrix(.09 0 0 -.09 190.515 265.734)"><use xlink:href="#DejaVuSans-32" transform="translate(0 .702)"/><use xlink:href="#DejaVuSans-Oblique-3b2" transform="translate(63.623 .702)"/><use xlink:href="#DejaVuSans-Oblique-69" transform="matrix(.7 0 0 .7 127.441 -15.705)"/><use xlink:href="#DejaVuSans-28" transform="translate(149.624 .702)"/><use xlink:href="#DejaVuSans-Oblique-3b2" transform="translate(188.638 .702)"/><use xlink:href="#DejaVuSans-28" transform="translate(252.456 .702)"/><use xlink:href="#DejaVuSans-Oblique-74" transform="translate(291.47 .702)"/><use xlink:href="#DejaVuSans-29" transform="translate(330.679 .702)"/><use xlink:href="#DejaVuSans-2212" transform="translate(389.175 .702)"/><use xlink:href="#DejaVuSans-Oblique-3b2" transform="translate(492.446 .702)"/><use xlink:href="#DejaVuSans-Oblique-69" transform="matrix(.7 0 0 .7 556.265 -15.705)"/><use xlink:href="#DejaVuSans-29" transform="translate(578.447 .702)"/><use xlink:href="#DejaVuSans-2b" transform="translate(636.943 .702)"/><use xlink:href="#DejaVuSans-Oblique-3b2" transform="translate(740.215 .702)"/><use xlink:href="#DejaVuSans-32" transform="matrix(.7 0 0 .7 811.568 39.047)"/><use xlink:href="#DejaVuSans-Oblique-69" transform="matrix(.7 0 0 .7 804.033 -26.642)"/></g></g></g><g id="text_24" class="text" transform="matrix(.12 0 0 -.12 7.2 16.318)"><defs><path id="DejaVuSans-53" d="M3425 4513v-616q-359 172-678 256-319 85-616 85-515 0-795-200t-280-569q0-310 186-468 186-157 705-254l381-78q706-135 1042-474t336-907q0-679-455-1029Q2797-91 1919-91q-331 0-705 75-373 75-773 222v650q384-215 753-325 369-109 725-109 540 0 834 212 294 213 294 607 0 343-211 537t-692 291l-385 75q-706 140-1022 440-315 300-315 835 0 619 436 975t1201 356q329 0 669-60 341-59 697-177z" transform="scale(.01563)"/><path id="DejaVuSans-71" d="M947 1747q0-634 261-995t717-361 718 361q263 361 263 995t-263 995q-262 361-718 361t-717-361-261-995zM2906 525q-181-312-458-464-276-152-664-152-634 0-1033 506-398 507-398 1332t398 1331q399 506 1033 506 388 0 664-152 277-151 458-463v531h575v-4831h-575z" transform="scale(.01563)"/><path id="DejaVuSans-75" d="M544 1381v2119h575V1403q0-497 193-746 194-248 582-248 465 0 735 297 271 297 271 810v1984h575V0h-575v538q-209-319-486-474-276-155-642-155-603 0-916 375-312 375-312 1097zm1447 2203z" transform="scale(.01563)"/><path id="DejaVuSans-61" d="M2194 1759q-697 0-966-159t-269-544q0-306 202-486 202-179 548-179 479 0 768 339t289 901v128zm1147 238V0h-575v531q-197-318-491-470T1556-91q-537 0-855 302-317 302-317 808 0 590 395 890 396 300 1180 300h807v57q0 397-261 614t-733 217q-300 0-585-72-284-72-546-216v532q315 122 612 182 297 61 578 61 760 0 1135-394 375-393 375-1193z" transform="scale(.01563)"/><path id="DejaVuSans-72" d="M2631 2963q-97 56-211 82-114 27-251 27-488 0-749-317t-261-911V0H581v3500h578v-544q182 319 472 473 291 155 707 155 59 0 131-8 72-7 159-23z" transform="scale(.01563)"/><path id="DejaVuSans-65" d="M3597 1894v-281H953q38-594 358-905t892-311q331 0 642 81t618 244V178Q3153 47 2828-22t-659-69q-838 0-1327 487-489 488-489 1320 0 859 464 1363 464 505 1252 505 706 0 1117-455 411-454 411-1235zm-575 169q-6 471-264 752-258 282-683 282-481 0-770-272t-333-766z" transform="scale(.01563)"/><path id="DejaVuSans-64" d="M2906 2969v1894h575V0h-575v525q-181-312-458-464-276-152-664-152-634 0-1033 506-398 507-398 1332t398 1331q399 506 1033 506 388 0 664-152 277-151 458-463zM947 1747q0-634 261-995t717-361 718 361q263 361 263 995t-263 995q-262 361-718 361t-717-361-261-995z" transform="scale(.01563)"/><path id="DejaVuSans-42" d="M1259 2228V519h1013q509 0 754 211 246 211 246 645 0 438-246 645-245 208-754 208zm0 1919V2741h935q462 0 688 173 227 174 227 530 0 353-227 528-226 175-688 175zm-631 519h1613q722 0 1112-300 391-300 391-853 0-429-200-682t-588-315q466-100 724-418 258-317 258-792 0-625-425-966Q3088 0 2303 0H628z" transform="scale(.01563)"/><path id="DejaVuSans-6f" d="M1959 3097q-462 0-731-361t-269-989 267-989q268-361 733-361 460 0 728 362 269 363 269 988 0 622-269 986-268 364-728 364zm0 487q750 0 1178-488 429-487 429-1349 0-859-429-1349Q2709-91 1959-91q-753 0-1180 489-426 490-426 1349 0 862 426 1349 427 488 1180 488z" transform="scale(.01563)"/><path id="DejaVuSans-77" d="M269 3500h575l719-2731 715 2731h678l719-2731 716 2731h575L4050 0h-678l-753 2869L1863 0h-679z" transform="scale(.01563)"/><path id="DejaVuSans-6e" d="M3513 2113V0h-575v2094q0 497-194 743-194 247-581 247-466 0-735-297-269-296-269-809V0H581v3500h578v-544q207 316 486 472 280 156 646 156 603 0 912-373 310-373 310-1098z" transform="scale(.01563)"/><path id="DejaVuSans-69" d="M603 3500h575V0H603zm0 1363h575v-729H603z" transform="scale(.01563)"/><path id="DejaVuSans-6d" d="M3328 2828q216 388 516 572t706 184q547 0 844-383 297-382 297-1088V0h-578v2094q0 503-179 746-178 244-543 244-447 0-707-297-259-296-259-809V0h-578v2094q0 506-178 748t-550 242q-441 0-701-298-259-298-259-808V0H581v3500h578v-544q197 322 472 475t653 153q382 0 649-194 267-193 395-562z" transform="scale(.01563)"/><path id="DejaVuSans-74" d="M1172 4494v-994h1184v-447H1172V1153q0-428 117-550t477-122h590V0h-590q-666 0-919 248-253 249-253 905v1900H172v447h422v994z" transform="scale(.01563)"/><path id="DejaVuSans-73" d="M2834 3397v-544q-243 125-506 187-262 63-544 63-428 0-642-131t-214-394q0-200 153-314t616-217l197-44q612-131 870-370t258-667q0-488-386-773Q2250-91 1575-91q-281 0-586 55T347 128v594q319-166 628-249 309-82 613-82 406 0 624 139 219 139 219 392 0 234-158 359-157 125-692 241l-200 47q-534 112-772 345-237 233-237 639 0 494 350 762 350 269 994 269 318 0 599-47 282-46 519-140z" transform="scale(.01563)"/><path id="DejaVuSans-63" d="M3122 3366v-538q-244 135-489 202t-495 67q-560 0-870-355-309-354-309-995t309-996q310-354 870-354 250 0 495 67t489 202V134Q2881 22 2623-34q-257-57-548-57-791 0-1257 497-465 497-465 1341 0 856 470 1346 471 491 1290 491 265 0 518-55 253-54 491-163z" transform="scale(.01563)"/><path id="DejaVuSans-2d" d="M313 2009h1684v-512H313z" transform="scale(.01563)"/><path id="DejaVuSans-54" d="M-19 4666h3947v-532H2272V0h-634v4134H-19z" transform="scale(.01563)"/><path id="DejaVuSans-79" d="M2059-325q-243-625-475-815-231-191-618-191H506v481h338q237 0 368 113 132 112 291 531l103 262L191 3500h609L1894 763l1094 2737h609z" transform="scale(.01563)"/><path id="DejaVuSans-6c" d="M603 4863h575V0H603z" transform="scale(.01563)"/><path id="DejaVuSans-78" d="M3513 3500 2247 1797 3578 0h-678L1881 1375 863 0H184l1360 1831L300 3500h678l928-1247 928 1247z" transform="scale(.01563)"/><path id="DejaVuSans-70" d="M1159 525v-1856H581v4831h578v-531q182 312 458 463 277 152 661 152 638 0 1036-506 399-506 399-1331T3314 415Q2916-91 2278-91q-384 0-661 152-276 152-458 464zm1957 1222q0 634-261 995t-717 361q-457 0-718-361t-261-995 261-995 718-361q456 0 717 361t261 995z" transform="scale(.01563)"/></defs><use xlink:href="#DejaVuSans-53"/><use xlink:href="#DejaVuSans-71" transform="translate(63.477)"/><use xlink:href="#DejaVuSans-75" transform="translate(126.953)"/><use xlink:href="#DejaVuSans-61" transform="translate(190.332)"/><use xlink:href="#DejaVuSans-72" transform="translate(251.611)"/><use xlink:href="#DejaVuSans-65" transform="translate(290.475)"/><use xlink:href="#DejaVuSans-64" transform="translate(351.998)"/><use xlink:href="#DejaVuSans-42" transform="translate(447.262)"/><use xlink:href="#DejaVuSans-72" transform="translate(515.865)"/><use xlink:href="#DejaVuSans-6f" transform="translate(554.729)"/><use xlink:href="#DejaVuSans-77" transform="translate(615.91)"/><use xlink:href="#DejaVuSans-6e" transform="translate(697.697)"/><use xlink:href="#DejaVuSans-69" transform="translate(761.076)"/><use xlink:href="#DejaVuSans-61" transform="translate(788.86)"/><use xlink:href="#DejaVuSans-6e" transform="translate(850.139)"/><use xlink:href="#DejaVuSans-6d" transform="translate(945.305)"/><use xlink:href="#DejaVuSans-6f" transform="translate(1042.717)"/><use xlink:href="#DejaVuSans-74" transform="translate(1103.898)"/><use xlink:href="#DejaVuSans-69" transform="translate(1143.107)"/><use xlink:href="#DejaVuSans-6f" transform="translate(1170.89)"/><use xlink:href="#DejaVuSans-6e" transform="translate(1232.072)"/><use xlink:href="#DejaVuSans-61" transform="translate(1327.238)"/><use xlink:href="#DejaVuSans-6e" transform="translate(1388.518)"/><use xlink:href="#DejaVuSans-64" transform="translate(1451.896)"/><use xlink:href="#DejaVuSans-69" transform="translate(1547.16)"/><use xlink:href="#DejaVuSans-74" transform="translate(1574.943)"/><use xlink:href="#DejaVuSans-73" transform="translate(1614.152)"/><use xlink:href="#DejaVuSans-73" transform="translate(1698.04)"/><use xlink:href="#DejaVuSans-65" transform="translate(1750.139)"/><use xlink:href="#DejaVuSans-63" transform="translate(1811.662)"/><use xlink:href="#DejaVuSans-6f" transform="translate(1866.643)"/><use xlink:href="#DejaVuSans-6e" transform="translate(1927.824)"/><use xlink:href="#DejaVuSans-64" transform="translate(1991.203)"/><use xlink:href="#DejaVuSans-2d" transform="translate(2054.68)"/><use xlink:href="#DejaVuSans-6f" transform="translate(2092.639)"/><use xlink:href="#DejaVuSans-72" transform="translate(2153.82)"/><use xlink:href="#DejaVuSans-64" transform="translate(2193.184)"/><use xlink:href="#DejaVuSans-65" transform="translate(2256.66)"/><use xlink:href="#DejaVuSans-72" transform="translate(2318.184)"/><use xlink:href="#DejaVuSans-54" transform="translate(2391.084)"/><use xlink:href="#DejaVuSans-61" transform="translate(2435.668)"/><use xlink:href="#DejaVuSans-79" transform="translate(2496.947)"/><use xlink:href="#DejaVuSans-6c" transform="translate(2556.127)"/><use xlink:href="#DejaVuSans-6f" transform="translate(2583.91)"/><use xlink:href="#DejaVuSans-72" transform="translate(2645.092)"/><use xlink:href="#DejaVuSans-65" transform="translate(2717.992)"/><use xlink:href="#DejaVuSans-78" transform="translate(2777.766)"/><use xlink:href="#DejaVuSans-70" transform="translate(2836.945)"/><use xlink:href="#DejaVuSans-61" transform="translate(2900.422)"/><use xlink:href="#DejaVuSans-6e" transform="translate(2961.701)"/><use xlink:href="#DejaVuSans-73" transform="translate(3025.08)"/><use xlink:href="#DejaVuSans-69" transform="translate(3077.18)"/><use xlink:href="#DejaVuSans-6f" transform="translate(3104.963)"/><use xlink:href="#DejaVuSans-6e" transform="translate(3166.145)"/></g></g><defs><clipPath id="pa581a2c4af"><path d="M137.596 50.4h141.152v151.2H137.596z"/></clipPath><clipPath id="pfd627acbb9"><path d="M137.596 231.84h141.152v151.2H137.596z"/></clipPath></defs></svg>