<svg xmlns="http://www.w3.org/2000/svg" xmlns:xlink="http://www.w3.org/1999/xlink" width="540.782" height="415.781" style="--axis-color:#000;--grid-stroke:rgba(0,0,0,0.2);--plot3d-stroke:rgba(0,0,0,0.3);--plot3d-grid:rgba(0,0,0,0.2);--black:#000000;--c1:#FF0001;--c2:#00FF02;--c3:#0000FF;--c4:#FF00FF;--c5:#00FFFF;--c6:#FFFF00;--c7:#FF8000;--c8:#8000FF;--gray:#7f7f7f;--grey:#7f7f7f;--octonary:#bcbd22;--primary:#d62728;--quaternary:#9467bd;--quinary:#8c564b;--secondary:#2ca02c;--senary:#e377c2;--septenary:#7f7f7f;--tertiary:#1f77b4;--white:#ffffff" viewBox="0 0 405.586 311.836"><style><![CDATA[@media (prefers-color-scheme:dark){:root{--axis-color:#fff;--grid-stroke:rgba(255,255,255,0.2);--plot3d-stroke:rgba(255,255,255,0.3);--plot3d-grid:rgba(255,255,255,0.2);--black:#FFFFFF;--c1:#FF0001;--c2:#00FF02;--c3:#0000FF;--c4:#FF00FF;--c5:#00FFFF;--c6:#FFFF00;--c7:#FF8000;--c8:#8000FF;--gray:#CCCCCC;--grey:#CCCCCC;--octonary:#E6DB74;--primary:#FF4A98;--quaternary:#B4A0FF;--quinary:#FFB86B;--secondary:#0AFAFA;--senary:#FF79C6;--septenary:#CCCCCC;--tertiary:#7F83FF;--white:#000000}}.text{fill:var(--axis-color)!important;stroke:none!important}.axis path,.patch path[style*="stroke: currentColor"],.tick path{stroke:var(--axis-color)!important}@media (prefers-color-scheme:dark){g.legend>g:first-child>path:first-child{fill:rgba(26,26,26,.8)!important;stroke:rgba(255,255,255,.1)!important}}*{stroke-linejoin:round;stroke-linecap:butt}]]></style><g id="figure_1"><path d="M0 311.836h405.586V0H0z" class="patch" style="fill:none"/><g id="axes_1"><path d="M41.266 273.312h357.12V7.2H41.266z" class="patch" style="fill:none"/><g class="axis"><g class="tick xtick"><path id="line2d_1" d="M57.499 273.312V7.2" clip-path="url(#p7fca4b5346)" style="fill:none;stroke:#b0b0b0;stroke-opacity:.15;stroke-width:.8;stroke-linecap:square"/><g id="line2d_2"><defs><path id="ma9830c29a0" d="M0 0v3.5" style="stroke:var(--black);stroke-width:.8"/></defs><use xlink:href="#ma9830c29a0" x="57.499" y="273.312" style="stroke:var(--black);stroke-width:.8"/></g><g id="text_1" class="text" transform="matrix(.09 0 0 -.09 50.343 287.15)"><defs><path id="DejaVuSans-30" d="M2034 4250q-487 0-733-480-245-479-245-1442 0-959 245-1439 246-480 733-480 491 0 736 480 246 480 246 1439 0 963-246 1442-245 480-736 480zm0 500q785 0 1199-621 414-620 414-1801 0-1178-414-1799Q2819-91 2034-91q-784 0-1198 620-414 621-414 1799 0 1181 414 1801 414 621 1198 621z" transform="scale(.01563)"/><path id="DejaVuSans-2e" d="M684 794h660V0H684z" transform="scale(.01563)"/></defs><use xlink:href="#DejaVuSans-30"/><use xlink:href="#DejaVuSans-2e" transform="translate(63.623)"/><use xlink:href="#DejaVuSans-30" transform="translate(95.41)"/></g></g><g class="tick xtick"><path id="line2d_3" d="M122.43 273.312V7.2" clip-path="url(#p7fca4b5346)" style="fill:none;stroke:#b0b0b0;stroke-opacity:.15;stroke-width:.8;stroke-linecap:square"/><use xlink:href="#ma9830c29a0" id="line2d_4" x="122.43" y="273.312" style="stroke:var(--black);stroke-width:.8"/><g id="text_2" class="text" transform="matrix(.09 0 0 -.09 115.273 287.15)"><defs><path id="DejaVuSans-32" d="M1228 531h2203V0H469v531q359 372 979 998 621 627 780 809 303 340 423 576 121 236 121 464 0 372-261 606-261 235-680 235-297 0-627-103-329-103-704-313v638q381 153 712 231 332 78 607 78 725 0 1156-363 431-362 431-968 0-288-108-546-107-257-392-607-78-91-497-524-418-433-1181-1211z" transform="scale(.01563)"/></defs><use xlink:href="#DejaVuSans-30"/><use xlink:href="#DejaVuSans-2e" transform="translate(63.623)"/><use xlink:href="#DejaVuSans-32" transform="translate(95.41)"/></g></g><g class="tick xtick"><path id="line2d_5" d="M187.36 273.312V7.2" clip-path="url(#p7fca4b5346)" style="fill:none;stroke:#b0b0b0;stroke-opacity:.15;stroke-width:.8;stroke-linecap:square"/><use xlink:href="#ma9830c29a0" id="line2d_6" x="187.361" y="273.312" style="stroke:var(--black);stroke-width:.8"/><g id="text_3" class="text" transform="matrix(.09 0 0 -.09 180.204 287.15)"><defs><path id="DejaVuSans-34" d="M2419 4116 825 1625h1594zm-166 550h794V1625h666v-525h-666V0h-628v1100H313v609z" transform="scale(.01563)"/></defs><use xlink:href="#DejaVuSans-30"/><use xlink:href="#DejaVuSans-2e" transform="translate(63.623)"/><use xlink:href="#DejaVuSans-34" transform="translate(95.41)"/></g></g><g class="tick xtick"><path id="line2d_7" d="M252.292 273.312V7.2" clip-path="url(#p7fca4b5346)" style="fill:none;stroke:#b0b0b0;stroke-opacity:.15;stroke-width:.8;stroke-linecap:square"/><use xlink:href="#ma9830c29a0" id="line2d_8" x="252.292" y="273.312" style="stroke:var(--black);stroke-width:.8"/><g id="text_4" class="text" transform="matrix(.09 0 0 -.09 245.135 287.15)"><defs><path id="DejaVuSans-36" d="M2113 2584q-425 0-674-291-248-290-248-796 0-503 248-796 249-292 674-292t673 292q248 293 248 796 0 506-248 796-248 291-673 291zm1253 1979v-575q-238 112-480 171-242 60-480 60-625 0-955-422-329-422-376-1275 184 272 462 417 279 145 613 145 703 0 1111-427 408-426 408-1160 0-719-425-1154Q2819-91 2113-91q-810 0-1238 620-428 621-428 1799 0 1106 525 1764t1409 658q238 0 480-47t505-140z" transform="scale(.01563)"/></defs><use xlink:href="#DejaVuSans-30"/><use xlink:href="#DejaVuSans-2e" transform="translate(63.623)"/><use xlink:href="#DejaVuSans-36" transform="translate(95.41)"/></g></g><g class="tick xtick"><path id="line2d_9" d="M317.223 273.312V7.2" clip-path="url(#p7fca4b5346)" style="fill:none;stroke:#b0b0b0;stroke-opacity:.15;stroke-width:.8;stroke-linecap:square"/><use xlink:href="#ma9830c29a0" id="line2d_10" x="317.223" y="273.312" style="stroke:var(--black);stroke-width:.8"/><g id="text_5" class="text" transform="matrix(.09 0 0 -.09 310.066 287.15)"><defs><path id="DejaVuSans-38" d="M2034 2216q-450 0-708-241-257-241-257-662 0-422 257-663 258-241 708-241t709 242q260 243 260 662 0 421-258 662-257 241-711 241zm-631 268q-406 100-633 378-226 279-226 679 0 559 398 884 399 325 1092 325 697 0 1094-325t397-884q0-400-227-679-226-278-629-378 456-106 710-416 255-309 255-755 0-679-414-1042Q2806-91 2034-91q-771 0-1186 362-414 363-414 1042 0 446 256 755 257 310 713 416zm-231 997q0-362 226-565 227-203 636-203 407 0 636 203 230 203 230 565 0 363-230 566-229 203-636 203-409 0-636-203-226-203-226-566z" transform="scale(.01563)"/></defs><use xlink:href="#DejaVuSans-30"/><use xlink:href="#DejaVuSans-2e" transform="translate(63.623)"/><use xlink:href="#DejaVuSans-38" transform="translate(95.41)"/></g></g><g class="tick xtick"><path id="line2d_11" d="M382.154 273.312V7.2" clip-path="url(#p7fca4b5346)" style="fill:none;stroke:#b0b0b0;stroke-opacity:.15;stroke-width:.8;stroke-linecap:square"/><use xlink:href="#ma9830c29a0" id="line2d_12" x="382.154" y="273.312" style="stroke:var(--black);stroke-width:.8"/><g id="text_6" class="text" transform="matrix(.09 0 0 -.09 374.997 287.15)"><defs><path id="DejaVuSans-31" d="M794 531h1031v3560L703 3866v575l1116 225h631V531h1031V0H794z" transform="scale(.01563)"/></defs><use xlink:href="#DejaVuSans-31"/><use xlink:href="#DejaVuSans-2e" transform="translate(63.623)"/><use xlink:href="#DejaVuSans-30" transform="translate(95.41)"/></g></g><g id="text_7" class="text" transform="matrix(.12 0 0 -.12 216.275 302.14)"><defs><path id="DejaVuSans-78" d="M3513 3500 2247 1797 3578 0h-678L1881 1375 863 0H184l1360 1831L300 3500h678l928-1247 928 1247z" transform="scale(.01563)"/></defs><use xlink:href="#DejaVuSans-78"/></g></g><g class="axis"><g class="tick ytick"><path id="line2d_13" d="M41.266 261.216h357.12" clip-path="url(#p7fca4b5346)" style="fill:none;stroke:#b0b0b0;stroke-opacity:.15;stroke-width:.8;stroke-linecap:square"/><g id="line2d_14"><defs><path id="m550c633257" d="M0 0h-3.5" style="stroke:var(--black);stroke-width:.8"/></defs><use xlink:href="#m550c633257" x="41.266" y="261.216" style="stroke:var(--black);stroke-width:.8"/></g><use xlink:href="#DejaVuSans-30" id="text_8" class="text" transform="matrix(.09 0 0 -.09 28.54 264.635)"/></g><g class="tick ytick"><path id="line2d_15" d="M41.266 217.802h357.12" clip-path="url(#p7fca4b5346)" style="fill:none;stroke:#b0b0b0;stroke-opacity:.15;stroke-width:.8;stroke-linecap:square"/><use xlink:href="#m550c633257" id="line2d_16" x="41.266" y="217.802" style="stroke:var(--black);stroke-width:.8"/><use xlink:href="#DejaVuSans-32" id="text_9" class="text" transform="matrix(.09 0 0 -.09 28.54 221.22)"/></g><g class="tick ytick"><path id="line2d_17" d="M41.266 174.387h357.12" clip-path="url(#p7fca4b5346)" style="fill:none;stroke:#b0b0b0;stroke-opacity:.15;stroke-width:.8;stroke-linecap:square"/><use xlink:href="#m550c633257" id="line2d_18" x="41.266" y="174.387" style="stroke:var(--black);stroke-width:.8"/><use xlink:href="#DejaVuSans-34" id="text_10" class="text" transform="matrix(.09 0 0 -.09 28.54 177.806)"/></g><g class="tick ytick"><path id="line2d_19" d="M41.266 130.973h357.12" clip-path="url(#p7fca4b5346)" style="fill:none;stroke:#b0b0b0;stroke-opacity:.15;stroke-width:.8;stroke-linecap:square"/><use xlink:href="#m550c633257" id="line2d_20" x="41.266" y="130.973" style="stroke:var(--black);stroke-width:.8"/><use xlink:href="#DejaVuSans-36" id="text_11" class="text" transform="matrix(.09 0 0 -.09 28.54 134.392)"/></g><g class="tick ytick"><path id="line2d_21" d="M41.266 87.558h357.12" clip-path="url(#p7fca4b5346)" style="fill:none;stroke:#b0b0b0;stroke-opacity:.15;stroke-width:.8;stroke-linecap:square"/><use xlink:href="#m550c633257" id="line2d_22" x="41.266" y="87.558" style="stroke:var(--black);stroke-width:.8"/><use xlink:href="#DejaVuSans-38" id="text_12" class="text" transform="matrix(.09 0 0 -.09 28.54 90.978)"/></g><g class="tick ytick"><path id="line2d_23" d="M41.266 44.144h357.12" clip-path="url(#p7fca4b5346)" style="fill:none;stroke:#b0b0b0;stroke-opacity:.15;stroke-width:.8;stroke-linecap:square"/><use xlink:href="#m550c633257" id="line2d_24" x="41.266" y="44.144" style="stroke:var(--black);stroke-width:.8"/><g id="text_13" class="text" transform="matrix(.09 0 0 -.09 22.814 47.563)"><use xlink:href="#DejaVuSans-31"/><use xlink:href="#DejaVuSans-30" transform="translate(63.623)"/></g></g><g id="text_14" class="text" transform="matrix(0 -.12 -.12 0 16.318 196.688)"><defs><path id="DejaVuSans-50" d="M1259 4147V2394h794q441 0 681 228 241 228 241 650 0 419-241 647-240 228-681 228zm-631 519h1425q785 0 1186-355 402-355 402-1039 0-691-402-1044-401-353-1186-353h-794V0H628z" transform="scale(.01563)"/><path id="DejaVuSans-72" d="M2631 2963q-97 56-211 82-114 27-251 27-488 0-749-317t-261-911V0H581v3500h578v-544q182 319 472 473 291 155 707 155 59 0 131-8 72-7 159-23z" transform="scale(.01563)"/><path id="DejaVuSans-6f" d="M1959 3097q-462 0-731-361t-269-989 267-989q268-361 733-361 460 0 728 362 269 363 269 988 0 622-269 986-268 364-728 364zm0 487q750 0 1178-488 429-487 429-1349 0-859-429-1349Q2709-91 1959-91q-753 0-1180 489-426 490-426 1349 0 862 426 1349 427 488 1180 488z" transform="scale(.01563)"/><path id="DejaVuSans-62" d="M3116 1747q0 634-261 995t-717 361q-457 0-718-361t-261-995 261-995 718-361q456 0 717 361t261 995zM1159 2969q182 312 458 463 277 152 661 152 638 0 1036-506 399-506 399-1331T3314 415Q2916-91 2278-91q-384 0-661 152-276 152-458 464V0H581v4863h578z" transform="scale(.01563)"/><path id="DejaVuSans-61" d="M2194 1759q-697 0-966-159t-269-544q0-306 202-486 202-179 548-179 479 0 768 339t289 901v128zm1147 238V0h-575v531q-197-318-491-470T1556-91q-537 0-855 302-317 302-317 808 0 590 395 890 396 300 1180 300h807v57q0 397-261 614t-733 217q-300 0-585-72-284-72-546-216v532q315 122 612 182 297 61 578 61 760 0 1135-394 375-393 375-1193z" transform="scale(.01563)"/><path id="DejaVuSans-69" d="M603 3500h575V0H603zm0 1363h575v-729H603z" transform="scale(.01563)"/><path id="DejaVuSans-6c" d="M603 4863h575V0H603z" transform="scale(.01563)"/><path id="DejaVuSans-74" d="M1172 4494v-994h1184v-447H1172V1153q0-428 117-550t477-122h590V0h-590q-666 0-919 248-253 249-253 905v1900H172v447h422v994z" transform="scale(.01563)"/><path id="DejaVuSans-79" d="M2059-325q-243-625-475-815-231-191-618-191H506v481h338q237 0 368 113 132 112 291 531l103 262L191 3500h609L1894 763l1094 2737h609z" transform="scale(.01563)"/><path id="DejaVuSans-44" d="M1259 4147V519h763q966 0 1414 437 448 438 448 1382 0 937-448 1373t-1414 436zm-631 519h1297q1356 0 1990-564 635-564 635-1764 0-1207-638-1773Q3275 0 1925 0H628z" transform="scale(.01563)"/><path id="DejaVuSans-65" d="M3597 1894v-281H953q38-594 358-905t892-311q331 0 642 81t618 244V178Q3153 47 2828-22t-659-69q-838 0-1327 487-489 488-489 1320 0 859 464 1363 464 505 1252 505 706 0 1117-455 411-454 411-1235zm-575 169q-6 471-264 752-258 282-683 282-481 0-770-272t-333-766z" transform="scale(.01563)"/><path id="DejaVuSans-6e" d="M3513 2113V0h-575v2094q0 497-194 743-194 247-581 247-466 0-735-297-269-296-269-809V0H581v3500h578v-544q207 316 486 472 280 156 646 156 603 0 912-373 310-373 310-1098z" transform="scale(.01563)"/><path id="DejaVuSans-73" d="M2834 3397v-544q-243 125-506 187-262 63-544 63-428 0-642-131t-214-394q0-200 153-314t616-217l197-44q612-131 870-370t258-667q0-488-386-773Q2250-91 1575-91q-281 0-586 55T347 128v594q319-166 628-249 309-82 613-82 406 0 624 139 219 139 219 392 0 234-158 359-157 125-692 241l-200 47q-534 112-772 345-237 233-237 639 0 494 350 762 350 269 994 269 318 0 599-47 282-46 519-140z" transform="scale(.01563)"/></defs><use xlink:href="#DejaVuSans-50"/><use xlink:href="#DejaVuSans-72" transform="translate(58.553)"/><use xlink:href="#DejaVuSans-6f" transform="translate(97.416)"/><use xlink:href="#DejaVuSans-62" transform="translate(158.598)"/><use xlink:href="#DejaVuSans-61" transform="translate(222.074)"/><use xlink:href="#DejaVuSans-62" transform="translate(283.354)"/><use xlink:href="#DejaVuSans-69" transform="translate(346.83)"/><use xlink:href="#DejaVuSans-6c" transform="translate(374.613)"/><use xlink:href="#DejaVuSans-69" transform="translate(402.396)"/><use xlink:href="#DejaVuSans-74" transform="translate(430.18)"/><use xlink:href="#DejaVuSans-79" transform="translate(469.389)"/><use xlink:href="#DejaVuSans-44" transform="translate(560.355)"/><use xlink:href="#DejaVuSans-65" transform="translate(637.357)"/><use xlink:href="#DejaVuSans-6e" transform="translate(698.88)"/><use xlink:href="#DejaVuSans-73" transform="translate(762.26)"/><use xlink:href="#DejaVuSans-69" transform="translate(814.36)"/><use xlink:href="#DejaVuSans-74" transform="translate(842.143)"/><use xlink:href="#DejaVuSans-79" transform="translate(881.352)"/></g></g><path id="line2d_25" d="M57.499 239.509h324.655" clip-path="url(#p7fca4b5346)" style="fill:none;stroke:var(--tertiary);stroke-width:2;stroke-linecap:square"/><path id="line2d_26" d="m58.313 19.296.813 111.984.814 39.523.814 20.465.813 12.596.814 8.568.814 6.222.813 4.733.814 3.726.814 3.014.813 2.49.814 2.092 1.627 3.326 1.628 2.528 1.627 1.99 1.627 1.608 1.628 1.327 2.44 1.608 2.442 1.276 2.44 1.039 3.255 1.117 3.255.895 4.068.896 4.883.844 5.695.764 7.323.746 8.95.673 11.392.613 13.832.515 17.901.434 22.783.318 26.851.15 29.292-.06 26.038-.27 21.155-.432 16.273-.549 12.206-.618 9.764-.704 7.323-.722 6.509-.858 4.882-.844 4.068-.896 3.255-.895 3.255-1.117 2.44-1.039 2.442-1.276 2.44-1.608 1.628-1.327 1.627-1.608 1.628-1.99 1.627-2.528.814-1.541.813-1.785.814-2.093.814-2.49.813-3.013.814-3.726.814-4.733.813-6.222.814-8.568.814-12.596.814-20.465.813-39.523.814-111.984h0" clip-path="url(#p7fca4b5346)" style="fill:none;stroke:#ff7f0e;stroke-width:2;stroke-linecap:square"/><path id="line2d_27" d="m57.499 261.216 4.068-5.238 4.069-4.845 4.068-4.466 4.068-4.101 4.069-3.753 4.068-3.416 4.068-3.095 4.069-2.788 4.068-2.493 4.069-2.212 4.068-1.944 4.068-1.689 4.069-1.445 4.068-1.215 4.068-.996 4.069-.788 4.068-.593 4.882-.468 4.882-.22 4.882.008 4.882.22 5.696.501 5.695.739 5.696.952 6.51 1.317 7.323 1.732 8.136 2.182 8.95 2.642 11.392 3.616 20.342 6.76 16.273 5.31 11.392 3.503 10.577 3.019 9.764 2.544 8.95 2.104 8.951 1.87 8.95 1.624 8.95 1.379 8.951 1.134 8.95.899 8.951.678 9.764.514 10.578.33 13.018.166 12.206.022h0" clip-path="url(#p7fca4b5346)" style="fill:none;stroke:var(--secondary);stroke-width:2;stroke-linecap:square"/><path d="M41.266 273.312V7.2M41.266 273.312h357.12" class="patch" style="fill:none;stroke:var(--black);stroke-width:.8;stroke-linejoin:miter;stroke-linecap:square"/><g class="legend"><path d="M169.926 59.234h99.8q2 0 2-2V14.2q0-2-2-2h-99.8q-2 0-2 2v43.034q0 2 2 2z" class="patch" style="fill:rgba(255,255,255,.8)!important;opacity:.8;stroke:rgba(0,0,0,.1)!important;stroke-linejoin:miter"/><path id="line2d_28" d="M171.926 20.298h20" style="fill:none;stroke:var(--tertiary);stroke-width:2;stroke-linecap:square"/><g id="text_15" class="text" transform="matrix(.1 0 0 -.1 199.926 23.798)"><defs><path id="DejaVuSans-42" d="M1259 2228V519h1013q509 0 754 211 246 211 246 645 0 438-246 645-245 208-754 208zm0 1919V2741h935q462 0 688 173 227 174 227 530 0 353-227 528-226 175-688 175zm-631 519h1613q722 0 1112-300 391-300 391-853 0-429-200-682t-588-315q466-100 724-418 258-317 258-792 0-625-425-966Q3088 0 2303 0H628z" transform="scale(.01563)"/><path id="DejaVuSans-28" d="M1984 4856q-418-718-622-1422-203-703-203-1425 0-721 205-1429t620-1424h-500Q1016-109 783 600T550 2009q0 697 231 1403 232 707 703 1444z" transform="scale(.01563)"/><path id="DejaVuSans-2c" d="M750 794h659V256L897-744H494L750 256z" transform="scale(.01563)"/><path id="DejaVuSans-29" d="M513 4856h500q468-737 701-1444 233-706 233-1403 0-700-233-1409T1013-844H513q415 716 620 1424t205 1429q0 722-205 1425-205 704-620 1422" transform="scale(.01563)"/></defs><use xlink:href="#DejaVuSans-42" transform="translate(0 .125)"/><use xlink:href="#DejaVuSans-65" transform="translate(68.604 .125)"/><use xlink:href="#DejaVuSans-74" transform="translate(130.127 .125)"/><use xlink:href="#DejaVuSans-61" transform="translate(169.336 .125)"/><use xlink:href="#DejaVuSans-28" transform="translate(230.615 .125)"/><use xlink:href="#DejaVuSans-31" transform="translate(269.629 .125)"/><use xlink:href="#DejaVuSans-2c" transform="translate(333.252 .125)"/><use xlink:href="#DejaVuSans-31" transform="translate(384.521 .125)"/><use xlink:href="#DejaVuSans-29" transform="translate(448.145 .125)"/></g><path id="line2d_29" d="M171.926 34.977h20" style="fill:none;stroke:#ff7f0e;stroke-width:2;stroke-linecap:square"/><g id="text_16" class="text" transform="matrix(.1 0 0 -.1 199.926 38.477)"><use xlink:href="#DejaVuSans-42" transform="translate(0 .125)"/><use xlink:href="#DejaVuSans-65" transform="translate(68.604 .125)"/><use xlink:href="#DejaVuSans-74" transform="translate(130.127 .125)"/><use xlink:href="#DejaVuSans-61" transform="translate(169.336 .125)"/><use xlink:href="#DejaVuSans-28" transform="translate(230.615 .125)"/><use xlink:href="#DejaVuSans-30" transform="translate(269.629 .125)"/><use xlink:href="#DejaVuSans-2e" transform="translate(333.252 .125)"/><use xlink:href="#DejaVuSans-31" transform="translate(365.04 .125)"/><use xlink:href="#DejaVuSans-2c" transform="translate(428.662 .125)"/><use xlink:href="#DejaVuSans-30" transform="translate(479.932 .125)"/><use xlink:href="#DejaVuSans-2e" transform="translate(543.555 .125)"/><use xlink:href="#DejaVuSans-31" transform="translate(575.342 .125)"/><use xlink:href="#DejaVuSans-29" transform="translate(638.965 .125)"/></g><path id="line2d_30" d="M171.926 49.655h20" style="fill:none;stroke:var(--secondary);stroke-width:2;stroke-linecap:square"/><g id="text_17" class="text" transform="matrix(.1 0 0 -.1 199.926 53.155)"><use xlink:href="#DejaVuSans-42" transform="translate(0 .125)"/><use xlink:href="#DejaVuSans-65" transform="translate(68.604 .125)"/><use xlink:href="#DejaVuSans-74" transform="translate(130.127 .125)"/><use xlink:href="#DejaVuSans-61" transform="translate(169.336 .125)"/><use xlink:href="#DejaVuSans-28" transform="translate(230.615 .125)"/><use xlink:href="#DejaVuSans-32" transform="translate(269.629 .125)"/><use xlink:href="#DejaVuSans-2c" transform="translate(333.252 .125)"/><use xlink:href="#DejaVuSans-34" transform="translate(384.521 .125)"/><use xlink:href="#DejaVuSans-29" transform="translate(448.145 .125)"/></g></g></g></g><defs><clipPath id="p7fca4b5346"><path d="M41.266 7.2h357.12v266.112H41.266z"/></clipPath></defs></svg>