<?xml version="1.0" encoding="utf-8" standalone="no"?>
<!DOCTYPE svg PUBLIC "-//W3C//DTD SVG 1.1//EN"
  "http://www.w3.org/Graphics/SVG/1.1/DTD/svg11.dtd">
<svg xmlns:xlink="http://www.w3.org/1999/xlink" width="279.255919pt" height="334.018562pt" viewBox="0 0 279.255919 334.018562" xmlns="http://www.w3.org/2000/svg" version="1.1">
        <style>
            /* Light mode (default) */
            .c1 { fill: #d62728 !important; stroke: #d62728 !important; }
.c2 { fill: #2ca02c !important; stroke: #2ca02c !important; }
.c3 { fill: #1f77b4 !important; stroke: #1f77b4 !important; }
.c4 { fill: #9467bd !important; stroke: #9467bd !important; }
.c5 { fill: #8c564b !important; stroke: #8c564b !important; }
.c6 { fill: #e377c2 !important; stroke: #e377c2 !important; }
.c7 { fill: #7f7f7f !important; stroke: #7f7f7f !important; }
.c8 { fill: #bcbd22 !important; stroke: #bcbd22 !important; }

            /* Text and graphic elements */
            text, .text {
                fill: #000000 !important;
                stroke: none !important;
            }

            .axis line, .axis path, .tick line, .tick path, path.domain, line.grid {
                stroke: #000000 !important;
            }

            .legend text {
                fill: #000000 !important;
            }

            g.legend > g:first-child > path:first-child {
                fill: rgba(255, 255, 255, 0.8) !important;
                stroke: rgba(0, 0, 0, 0.1) !important;
            }

            /* 3D specific styles - light mode */
            .plot3d path {
                stroke: rgba(0, 0, 0, 0.3) !important;
            }

            .plot3d polygon {
                stroke: rgba(0, 0, 0, 0.2) !important;
            }

            /* 3D grid lines */
            .plot3d-grid line {
                stroke: rgba(0, 0, 0, 0.2) !important;
            }

            /* Preserve mesh colors */
            .plot3d-surface path[style*="fill:"] {
                fill-opacity: 0.9 !important;
            }

            [stroke="currentColor"], [stroke="black"] {
                stroke: #000000 !important;
            }

            /* Dark mode via media query */
            @media (prefers-color-scheme: dark) {
                /* Dark theme colors */
                .c1 { fill: #FF4A98 !important; stroke: #FF4A98 !important; }
                .c2 { fill: #0AFAFA !important; stroke: #0AFAFA !important; }
                .c3 { fill: #7F83FF !important; stroke: #7F83FF !important; }
                .c4 { fill: #B4A0FF !important; stroke: #B4A0FF !important; }
                .c5 { fill: #FFB86B !important; stroke: #FFB86B !important; }
                .c6 { fill: #FF79C6 !important; stroke: #FF79C6 !important; }
                .c7 { fill: #CCCCCC !important; stroke: #CCCCCC !important; }
                .c8 { fill: #E6DB74 !important; stroke: #E6DB74 !important; }

                /* Dark theme text and graphics */
                text, .text {
                    fill: #FFFFFF !important;
                    stroke: none !important;
                }

                .axis line, .axis path, .tick line, .tick path, path.domain, line.grid {
                    stroke: #FFFFFF !important;
                }

                .grid line {
                    stroke: rgba(255, 255, 255, 0.2) !important;
                }

                .legend text {
                    fill: #FFFFFF !important;
                }

                g.legend > g:first-child > path:first-child {
                    fill: rgba(26, 26, 26, 0.8) !important;
                    stroke: rgba(255, 255, 255, 0.1) !important;
                }


                /* 3D specific styles - dark mode */
                .plot3d path {
                    stroke: rgba(255, 255, 255, 0.3) !important;
                }

                .plot3d polygon {
                    stroke: rgba(255, 255, 255, 0.2) !important;
                }

                /* 3D grid lines */
                .plot3d-grid line {
                    stroke: rgba(255, 255, 255, 0.2) !important;
                }

                /* Preserve mesh colors in dark mode */
                .plot3d-surface path[style*="fill:"] {
                    fill-opacity: 0.95 !important;
                    filter: saturate(1.2) !important; /* Boost colors in dark mode */
                }

                [stroke="currentColor"], [stroke="black"] {
                    stroke: #FFFFFF !important;
                }
            }
        </style>
        
 <metadata>
  <rdf:RDF xmlns:dc="http://purl.org/dc/elements/1.1/" xmlns:cc="http://creativecommons.org/ns#" xmlns:rdf="http://www.w3.org/1999/02/22-rdf-syntax-ns#">
   <cc:Work>
    <dc:type rdf:resource="http://purl.org/dc/dcmitype/StillImage"/>
    <dc:date>2025-04-08T19:26:30.602773</dc:date>
    <dc:format>image/svg+xml</dc:format>
    <dc:creator>
     <cc:Agent>
      <dc:title>Matplotlib v3.10.1, https://matplotlib.org/</dc:title>
     </cc:Agent>
    </dc:creator>
   </cc:Work>
  </rdf:RDF>
 </metadata>
 <defs>
  <style type="text/css">*{stroke-linejoin: round; stroke-linecap: butt}</style>
 </defs>
 <g id="figure_1">
  <g class="patch">
   <path d="M 0 334.018562 
L 279.255919 334.018562 
L 279.255919 0 
L 0 0 
L 0 334.018562 
z
" style="fill: none"/>
  </g>
  <g id="axes_1">
   <g class="patch">
    <path d="M 56.980781 297.430125 
L 240.784182 297.430125 
L 240.784182 31.318125 
L 56.980781 31.318125 
L 56.980781 297.430125 
z
" style="fill: none"/>
   </g>
   <g class="axis">
    <g class="tick xtick">
     <g id="line2d_1">
      <path d="M 82.584682 297.430125 
L 82.584682 31.318125 
" clip-path="url(#p10b1541726)" style="fill: none; stroke: #b0b0b0; stroke-opacity: 0.1; stroke-width: 0.8; stroke-linecap: square"/>
     </g>
     <g id="line2d_2">
      <defs>
       <path id="m876c6002c1" d="M 0 0 
L 0 3.5 
" style="stroke: currentColor; stroke-width: 0.8"/>
      </defs>
      <g>
       <use xlink:href="#m876c6002c1" x="82.584682" y="297.430125" style="stroke: currentColor; stroke-width: 0.8"/>
      </g>
     </g>
     <g id="text_1" class="text">
      <!-- 0.00 -->
      <g transform="translate(72.565151 311.268719) scale(0.09 -0.09)">
       <defs>
        <path id="DejaVuSans-30" d="M 2034 4250 
Q 1547 4250 1301 3770 
Q 1056 3291 1056 2328 
Q 1056 1369 1301 889 
Q 1547 409 2034 409 
Q 2525 409 2770 889 
Q 3016 1369 3016 2328 
Q 3016 3291 2770 3770 
Q 2525 4250 2034 4250 
z
M 2034 4750 
Q 2819 4750 3233 4129 
Q 3647 3509 3647 2328 
Q 3647 1150 3233 529 
Q 2819 -91 2034 -91 
Q 1250 -91 836 529 
Q 422 1150 422 2328 
Q 422 3509 836 4129 
Q 1250 4750 2034 4750 
z
" transform="scale(0.015625)"/>
        <path id="DejaVuSans-2e" d="M 684 794 
L 1344 794 
L 1344 0 
L 684 0 
L 684 794 
z
" transform="scale(0.015625)"/>
       </defs>
       <use xlink:href="#DejaVuSans-30"/>
       <use xlink:href="#DejaVuSans-2e" transform="translate(63.623047 0)"/>
       <use xlink:href="#DejaVuSans-30" transform="translate(95.410156 0)"/>
       <use xlink:href="#DejaVuSans-30" transform="translate(159.033203 0)"/>
      </g>
     </g>
    </g>
    <g class="tick xtick">
     <g id="line2d_3">
      <path d="M 114.589558 297.430125 
L 114.589558 31.318125 
" clip-path="url(#p10b1541726)" style="fill: none; stroke: #b0b0b0; stroke-opacity: 0.1; stroke-width: 0.8; stroke-linecap: square"/>
     </g>
     <g id="line2d_4">
      <g>
       <use xlink:href="#m876c6002c1" x="114.589558" y="297.430125" style="stroke: currentColor; stroke-width: 0.8"/>
      </g>
     </g>
     <g id="text_2" class="text">
      <!-- 0.25 -->
      <g transform="translate(104.570027 311.268719) scale(0.09 -0.09)">
       <defs>
        <path id="DejaVuSans-32" d="M 1228 531 
L 3431 531 
L 3431 0 
L 469 0 
L 469 531 
Q 828 903 1448 1529 
Q 2069 2156 2228 2338 
Q 2531 2678 2651 2914 
Q 2772 3150 2772 3378 
Q 2772 3750 2511 3984 
Q 2250 4219 1831 4219 
Q 1534 4219 1204 4116 
Q 875 4013 500 3803 
L 500 4441 
Q 881 4594 1212 4672 
Q 1544 4750 1819 4750 
Q 2544 4750 2975 4387 
Q 3406 4025 3406 3419 
Q 3406 3131 3298 2873 
Q 3191 2616 2906 2266 
Q 2828 2175 2409 1742 
Q 1991 1309 1228 531 
z
" transform="scale(0.015625)"/>
        <path id="DejaVuSans-35" d="M 691 4666 
L 3169 4666 
L 3169 4134 
L 1269 4134 
L 1269 2991 
Q 1406 3038 1543 3061 
Q 1681 3084 1819 3084 
Q 2600 3084 3056 2656 
Q 3513 2228 3513 1497 
Q 3513 744 3044 326 
Q 2575 -91 1722 -91 
Q 1428 -91 1123 -41 
Q 819 9 494 109 
L 494 744 
Q 775 591 1075 516 
Q 1375 441 1709 441 
Q 2250 441 2565 725 
Q 2881 1009 2881 1497 
Q 2881 1984 2565 2268 
Q 2250 2553 1709 2553 
Q 1456 2553 1204 2497 
Q 953 2441 691 2322 
L 691 4666 
z
" transform="scale(0.015625)"/>
       </defs>
       <use xlink:href="#DejaVuSans-30"/>
       <use xlink:href="#DejaVuSans-2e" transform="translate(63.623047 0)"/>
       <use xlink:href="#DejaVuSans-32" transform="translate(95.410156 0)"/>
       <use xlink:href="#DejaVuSans-35" transform="translate(159.033203 0)"/>
      </g>
     </g>
    </g>
    <g class="tick xtick">
     <g id="line2d_5">
      <path d="M 146.594434 297.430125 
L 146.594434 31.318125 
" clip-path="url(#p10b1541726)" style="fill: none; stroke: #b0b0b0; stroke-opacity: 0.1; stroke-width: 0.8; stroke-linecap: square"/>
     </g>
     <g id="line2d_6">
      <g>
       <use xlink:href="#m876c6002c1" x="146.594434" y="297.430125" style="stroke: currentColor; stroke-width: 0.8"/>
      </g>
     </g>
     <g id="text_3" class="text">
      <!-- 0.50 -->
      <g transform="translate(136.574903 311.268719) scale(0.09 -0.09)">
       <use xlink:href="#DejaVuSans-30"/>
       <use xlink:href="#DejaVuSans-2e" transform="translate(63.623047 0)"/>
       <use xlink:href="#DejaVuSans-35" transform="translate(95.410156 0)"/>
       <use xlink:href="#DejaVuSans-30" transform="translate(159.033203 0)"/>
      </g>
     </g>
    </g>
    <g class="tick xtick">
     <g id="line2d_7">
      <path d="M 178.59931 297.430125 
L 178.59931 31.318125 
" clip-path="url(#p10b1541726)" style="fill: none; stroke: #b0b0b0; stroke-opacity: 0.1; stroke-width: 0.8; stroke-linecap: square"/>
     </g>
     <g id="line2d_8">
      <g>
       <use xlink:href="#m876c6002c1" x="178.59931" y="297.430125" style="stroke: currentColor; stroke-width: 0.8"/>
      </g>
     </g>
     <g id="text_4" class="text">
      <!-- 0.75 -->
      <g transform="translate(168.579779 311.268719) scale(0.09 -0.09)">
       <defs>
        <path id="DejaVuSans-37" d="M 525 4666 
L 3525 4666 
L 3525 4397 
L 1831 0 
L 1172 0 
L 2766 4134 
L 525 4134 
L 525 4666 
z
" transform="scale(0.015625)"/>
       </defs>
       <use xlink:href="#DejaVuSans-30"/>
       <use xlink:href="#DejaVuSans-2e" transform="translate(63.623047 0)"/>
       <use xlink:href="#DejaVuSans-37" transform="translate(95.410156 0)"/>
       <use xlink:href="#DejaVuSans-35" transform="translate(159.033203 0)"/>
      </g>
     </g>
    </g>
    <g class="tick xtick">
     <g id="line2d_9">
      <path d="M 210.604186 297.430125 
L 210.604186 31.318125 
" clip-path="url(#p10b1541726)" style="fill: none; stroke: #b0b0b0; stroke-opacity: 0.1; stroke-width: 0.8; stroke-linecap: square"/>
     </g>
     <g id="line2d_10">
      <g>
       <use xlink:href="#m876c6002c1" x="210.604186" y="297.430125" style="stroke: currentColor; stroke-width: 0.8"/>
      </g>
     </g>
     <g id="text_5" class="text">
      <!-- 1.00 -->
      <g transform="translate(200.584655 311.268719) scale(0.09 -0.09)">
       <defs>
        <path id="DejaVuSans-31" d="M 794 531 
L 1825 531 
L 1825 4091 
L 703 3866 
L 703 4441 
L 1819 4666 
L 2450 4666 
L 2450 531 
L 3481 531 
L 3481 0 
L 794 0 
L 794 531 
z
" transform="scale(0.015625)"/>
       </defs>
       <use xlink:href="#DejaVuSans-31"/>
       <use xlink:href="#DejaVuSans-2e" transform="translate(63.623047 0)"/>
       <use xlink:href="#DejaVuSans-30" transform="translate(95.410156 0)"/>
       <use xlink:href="#DejaVuSans-30" transform="translate(159.033203 0)"/>
      </g>
     </g>
    </g>
    <g id="text_6" class="text">
     <!-- $t$ -->
     <g transform="translate(146.882482 324.738875) scale(0.1 -0.1)">
      <defs>
       <path id="DejaVuSans-Oblique-74" d="M 2706 3500 
L 2619 3053 
L 1472 3053 
L 1100 1153 
Q 1081 1047 1072 975 
Q 1063 903 1063 863 
Q 1063 663 1183 572 
Q 1303 481 1569 481 
L 2150 481 
L 2053 0 
L 1503 0 
Q 991 0 739 200 
Q 488 400 488 806 
Q 488 878 497 964 
Q 506 1050 525 1153 
L 897 3053 
L 409 3053 
L 500 3500 
L 978 3500 
L 1172 4494 
L 1747 4494 
L 1556 3500 
L 2706 3500 
z
" transform="scale(0.015625)"/>
      </defs>
      <use xlink:href="#DejaVuSans-Oblique-74" transform="translate(0 0.78125)"/>
     </g>
    </g>
   </g>
   <g class="axis">
    <g class="tick ytick">
     <g id="line2d_11">
      <path d="M 56.980781 291.933228 
L 240.784182 291.933228 
" clip-path="url(#p10b1541726)" style="fill: none; stroke: #b0b0b0; stroke-opacity: 0.1; stroke-width: 0.8; stroke-linecap: square"/>
     </g>
     <g id="line2d_12">
      <defs>
       <path id="m97e8260bc6" d="M 0 0 
L -3.5 0 
" style="stroke: currentColor; stroke-width: 0.8"/>
      </defs>
      <g>
       <use xlink:href="#m97e8260bc6" x="56.980781" y="291.933228" style="stroke: currentColor; stroke-width: 0.8"/>
      </g>
     </g>
     <g id="text_7" class="text">
      <!-- −1.00 -->
      <g transform="translate(22.4 295.352525) scale(0.09 -0.09)">
       <defs>
        <path id="DejaVuSans-2212" d="M 678 2272 
L 4684 2272 
L 4684 1741 
L 678 1741 
L 678 2272 
z
" transform="scale(0.015625)"/>
       </defs>
       <use xlink:href="#DejaVuSans-2212"/>
       <use xlink:href="#DejaVuSans-31" transform="translate(83.789062 0)"/>
       <use xlink:href="#DejaVuSans-2e" transform="translate(147.412109 0)"/>
       <use xlink:href="#DejaVuSans-30" transform="translate(179.199219 0)"/>
       <use xlink:href="#DejaVuSans-30" transform="translate(242.822266 0)"/>
      </g>
     </g>
    </g>
    <g class="tick ytick">
     <g id="line2d_13">
      <path d="M 56.980781 259.928352 
L 240.784182 259.928352 
" clip-path="url(#p10b1541726)" style="fill: none; stroke: #b0b0b0; stroke-opacity: 0.1; stroke-width: 0.8; stroke-linecap: square"/>
     </g>
     <g id="line2d_14">
      <g>
       <use xlink:href="#m97e8260bc6" x="56.980781" y="259.928352" style="stroke: currentColor; stroke-width: 0.8"/>
      </g>
     </g>
     <g id="text_8" class="text">
      <!-- −0.75 -->
      <g transform="translate(22.4 263.347649) scale(0.09 -0.09)">
       <use xlink:href="#DejaVuSans-2212"/>
       <use xlink:href="#DejaVuSans-30" transform="translate(83.789062 0)"/>
       <use xlink:href="#DejaVuSans-2e" transform="translate(147.412109 0)"/>
       <use xlink:href="#DejaVuSans-37" transform="translate(179.199219 0)"/>
       <use xlink:href="#DejaVuSans-35" transform="translate(242.822266 0)"/>
      </g>
     </g>
    </g>
    <g class="tick ytick">
     <g id="line2d_15">
      <path d="M 56.980781 227.923476 
L 240.784182 227.923476 
" clip-path="url(#p10b1541726)" style="fill: none; stroke: #b0b0b0; stroke-opacity: 0.1; stroke-width: 0.8; stroke-linecap: square"/>
     </g>
     <g id="line2d_16">
      <g>
       <use xlink:href="#m97e8260bc6" x="56.980781" y="227.923476" style="stroke: currentColor; stroke-width: 0.8"/>
      </g>
     </g>
     <g id="text_9" class="text">
      <!-- −0.50 -->
      <g transform="translate(22.4 231.342773) scale(0.09 -0.09)">
       <use xlink:href="#DejaVuSans-2212"/>
       <use xlink:href="#DejaVuSans-30" transform="translate(83.789062 0)"/>
       <use xlink:href="#DejaVuSans-2e" transform="translate(147.412109 0)"/>
       <use xlink:href="#DejaVuSans-35" transform="translate(179.199219 0)"/>
       <use xlink:href="#DejaVuSans-30" transform="translate(242.822266 0)"/>
      </g>
     </g>
    </g>
    <g class="tick ytick">
     <g id="line2d_17">
      <path d="M 56.980781 195.9186 
L 240.784182 195.9186 
" clip-path="url(#p10b1541726)" style="fill: none; stroke: #b0b0b0; stroke-opacity: 0.1; stroke-width: 0.8; stroke-linecap: square"/>
     </g>
     <g id="line2d_18">
      <g>
       <use xlink:href="#m97e8260bc6" x="56.980781" y="195.9186" style="stroke: currentColor; stroke-width: 0.8"/>
      </g>
     </g>
     <g id="text_10" class="text">
      <!-- −0.25 -->
      <g transform="translate(22.4 199.337897) scale(0.09 -0.09)">
       <use xlink:href="#DejaVuSans-2212"/>
       <use xlink:href="#DejaVuSans-30" transform="translate(83.789062 0)"/>
       <use xlink:href="#DejaVuSans-2e" transform="translate(147.412109 0)"/>
       <use xlink:href="#DejaVuSans-32" transform="translate(179.199219 0)"/>
       <use xlink:href="#DejaVuSans-35" transform="translate(242.822266 0)"/>
      </g>
     </g>
    </g>
    <g class="tick ytick">
     <g id="line2d_19">
      <path d="M 56.980781 163.913724 
L 240.784182 163.913724 
" clip-path="url(#p10b1541726)" style="fill: none; stroke: #b0b0b0; stroke-opacity: 0.1; stroke-width: 0.8; stroke-linecap: square"/>
     </g>
     <g id="line2d_20">
      <g>
       <use xlink:href="#m97e8260bc6" x="56.980781" y="163.913724" style="stroke: currentColor; stroke-width: 0.8"/>
      </g>
     </g>
     <g id="text_11" class="text">
      <!-- 0.00 -->
      <g transform="translate(29.941719 167.333021) scale(0.09 -0.09)">
       <use xlink:href="#DejaVuSans-30"/>
       <use xlink:href="#DejaVuSans-2e" transform="translate(63.623047 0)"/>
       <use xlink:href="#DejaVuSans-30" transform="translate(95.410156 0)"/>
       <use xlink:href="#DejaVuSans-30" transform="translate(159.033203 0)"/>
      </g>
     </g>
    </g>
    <g class="tick ytick">
     <g id="line2d_21">
      <path d="M 56.980781 131.908848 
L 240.784182 131.908848 
" clip-path="url(#p10b1541726)" style="fill: none; stroke: #b0b0b0; stroke-opacity: 0.1; stroke-width: 0.8; stroke-linecap: square"/>
     </g>
     <g id="line2d_22">
      <g>
       <use xlink:href="#m97e8260bc6" x="56.980781" y="131.908848" style="stroke: currentColor; stroke-width: 0.8"/>
      </g>
     </g>
     <g id="text_12" class="text">
      <!-- 0.25 -->
      <g transform="translate(29.941719 135.328145) scale(0.09 -0.09)">
       <use xlink:href="#DejaVuSans-30"/>
       <use xlink:href="#DejaVuSans-2e" transform="translate(63.623047 0)"/>
       <use xlink:href="#DejaVuSans-32" transform="translate(95.410156 0)"/>
       <use xlink:href="#DejaVuSans-35" transform="translate(159.033203 0)"/>
      </g>
     </g>
    </g>
    <g class="tick ytick">
     <g id="line2d_23">
      <path d="M 56.980781 99.903972 
L 240.784182 99.903972 
" clip-path="url(#p10b1541726)" style="fill: none; stroke: #b0b0b0; stroke-opacity: 0.1; stroke-width: 0.8; stroke-linecap: square"/>
     </g>
     <g id="line2d_24">
      <g>
       <use xlink:href="#m97e8260bc6" x="56.980781" y="99.903972" style="stroke: currentColor; stroke-width: 0.8"/>
      </g>
     </g>
     <g id="text_13" class="text">
      <!-- 0.50 -->
      <g transform="translate(29.941719 103.323269) scale(0.09 -0.09)">
       <use xlink:href="#DejaVuSans-30"/>
       <use xlink:href="#DejaVuSans-2e" transform="translate(63.623047 0)"/>
       <use xlink:href="#DejaVuSans-35" transform="translate(95.410156 0)"/>
       <use xlink:href="#DejaVuSans-30" transform="translate(159.033203 0)"/>
      </g>
     </g>
    </g>
    <g class="tick ytick">
     <g id="line2d_25">
      <path d="M 56.980781 67.899096 
L 240.784182 67.899096 
" clip-path="url(#p10b1541726)" style="fill: none; stroke: #b0b0b0; stroke-opacity: 0.1; stroke-width: 0.8; stroke-linecap: square"/>
     </g>
     <g id="line2d_26">
      <g>
       <use xlink:href="#m97e8260bc6" x="56.980781" y="67.899096" style="stroke: currentColor; stroke-width: 0.8"/>
      </g>
     </g>
     <g id="text_14" class="text">
      <!-- 0.75 -->
      <g transform="translate(29.941719 71.318393) scale(0.09 -0.09)">
       <use xlink:href="#DejaVuSans-30"/>
       <use xlink:href="#DejaVuSans-2e" transform="translate(63.623047 0)"/>
       <use xlink:href="#DejaVuSans-37" transform="translate(95.410156 0)"/>
       <use xlink:href="#DejaVuSans-35" transform="translate(159.033203 0)"/>
      </g>
     </g>
    </g>
    <g class="tick ytick">
     <g id="line2d_27">
      <path d="M 56.980781 35.89422 
L 240.784182 35.89422 
" clip-path="url(#p10b1541726)" style="fill: none; stroke: #b0b0b0; stroke-opacity: 0.1; stroke-width: 0.8; stroke-linecap: square"/>
     </g>
     <g id="line2d_28">
      <g>
       <use xlink:href="#m97e8260bc6" x="56.980781" y="35.89422" style="stroke: currentColor; stroke-width: 0.8"/>
      </g>
     </g>
     <g id="text_15" class="text">
      <!-- 1.00 -->
      <g transform="translate(29.941719 39.313517) scale(0.09 -0.09)">
       <use xlink:href="#DejaVuSans-31"/>
       <use xlink:href="#DejaVuSans-2e" transform="translate(63.623047 0)"/>
       <use xlink:href="#DejaVuSans-30" transform="translate(95.410156 0)"/>
       <use xlink:href="#DejaVuSans-30" transform="translate(159.033203 0)"/>
      </g>
     </g>
    </g>
    <g id="text_16" class="text">
     <!-- $\beta(t), \beta^2(t)$ -->
     <g transform="translate(16.3 187.824125) rotate(-90) scale(0.1 -0.1)">
      <defs>
       <path id="DejaVuSans-Oblique-3b2" d="M 872 216 
L 572 -1331 
L -6 -1331 
L 928 3478 
Q 1206 4903 2538 4903 
Q 3888 4903 3659 3700 
Q 3503 2844 2894 2531 
Q 3713 2250 3553 1416 
Q 3272 -69 1759 -66 
Q 1097 -63 872 216 
z
M 1019 966 
Q 1259 422 1875 425 
Q 2775 425 2966 1406 
Q 3138 2288 1675 2219 
L 1778 2750 
Q 2909 2731 3106 3750 
Q 3241 4438 2509 4434 
Q 1691 4434 1503 3459 
L 1019 966 
z
" transform="scale(0.015625)"/>
       <path id="DejaVuSans-28" d="M 1984 4856 
Q 1566 4138 1362 3434 
Q 1159 2731 1159 2009 
Q 1159 1288 1364 580 
Q 1569 -128 1984 -844 
L 1484 -844 
Q 1016 -109 783 600 
Q 550 1309 550 2009 
Q 550 2706 781 3412 
Q 1013 4119 1484 4856 
L 1984 4856 
z
" transform="scale(0.015625)"/>
       <path id="DejaVuSans-29" d="M 513 4856 
L 1013 4856 
Q 1481 4119 1714 3412 
Q 1947 2706 1947 2009 
Q 1947 1309 1714 600 
Q 1481 -109 1013 -844 
L 513 -844 
Q 928 -128 1133 580 
Q 1338 1288 1338 2009 
Q 1338 2731 1133 3434 
Q 928 4138 513 4856 
z
" transform="scale(0.015625)"/>
       <path id="DejaVuSans-2c" d="M 750 794 
L 1409 794 
L 1409 256 
L 897 -744 
L 494 -744 
L 750 256 
L 750 794 
z
" transform="scale(0.015625)"/>
      </defs>
      <use xlink:href="#DejaVuSans-Oblique-3b2" transform="translate(0 0.765625)"/>
      <use xlink:href="#DejaVuSans-28" transform="translate(63.818359 0.765625)"/>
      <use xlink:href="#DejaVuSans-Oblique-74" transform="translate(102.832031 0.765625)"/>
      <use xlink:href="#DejaVuSans-29" transform="translate(142.041016 0.765625)"/>
      <use xlink:href="#DejaVuSans-2c" transform="translate(181.054688 0.765625)"/>
      <use xlink:href="#DejaVuSans-Oblique-3b2" transform="translate(232.324219 0.765625)"/>
      <use xlink:href="#DejaVuSans-32" transform="translate(303.677786 39.046875) scale(0.7)"/>
      <use xlink:href="#DejaVuSans-28" transform="translate(350.948294 0.765625)"/>
      <use xlink:href="#DejaVuSans-Oblique-74" transform="translate(389.961966 0.765625)"/>
      <use xlink:href="#DejaVuSans-29" transform="translate(429.170951 0.765625)"/>
     </g>
    </g>
   </g>
   <g id="line2d_29">
    <path d="M 82.584682 163.913724 
L 83.864877 181.20338 
L 85.145072 192.474686 
L 86.425267 172.382095 
L 87.705462 148.039475 
L 88.985657 132.034787 
L 90.265852 147.565919 
L 91.546047 169.954913 
L 92.826242 168.9362 
L 94.106437 172.457199 
L 95.386632 183.424181 
L 96.666827 178.514142 
L 97.947023 183.002023 
L 99.227218 190.284228 
L 100.507413 202.577366 
L 101.787608 186.312403 
L 103.067803 186.711622 
L 104.347998 166.420321 
L 105.628193 170.174368 
L 106.908388 178.847678 
L 108.188583 176.802525 
L 109.468778 163.694069 
L 110.748973 165.247974 
L 112.029168 165.240693 
L 113.309363 168.669803 
L 114.589558 151.71549 
L 115.869753 150.49556 
L 117.149948 144.08865 
L 118.430143 153.267559 
L 119.710338 156.210063 
L 120.990533 148.260593 
L 122.270728 144.765607 
L 123.550923 162.9794 
L 124.831118 167.263664 
L 126.111313 168.786676 
L 127.391508 179.250151 
L 128.671703 176.794017 
L 129.951898 148.56957 
L 131.232094 145.483013 
L 132.512289 155.219948 
L 133.792484 142.29542 
L 135.072679 118.8326 
L 136.352874 128.534181 
L 137.633069 127.079969 
L 138.913264 104.328972 
L 140.193459 131.041462 
L 141.473654 140.200056 
L 142.753849 164.275816 
L 144.034044 161.943966 
L 145.314239 154.342594 
L 146.594434 157.513837 
L 147.874629 143.726893 
L 149.154824 157.981959 
L 150.435019 152.680101 
L 151.715214 154.866462 
L 152.995409 147.509615 
L 154.275604 159.317604 
L 155.555799 149.137565 
L 156.835994 163.87299 
L 158.116189 163.997295 
L 159.396384 160.621545 
L 160.676579 172.291441 
L 161.956774 179.850297 
L 163.23697 182.810642 
L 164.517165 183.913206 
L 165.79736 192.492927 
L 167.077555 171.185767 
L 168.35775 171.66273 
L 169.637945 175.427478 
L 170.91814 179.883745 
L 172.198335 173.456261 
L 173.47853 196.196664 
L 174.758725 200.548391 
L 176.03892 188.587006 
L 177.319115 194.929482 
L 178.59931 215.387302 
L 179.879505 219.844435 
L 181.1597 213.188711 
L 182.439895 192.898646 
L 183.72009 194.602661 
L 185.000285 203.408971 
L 186.28048 206.389168 
L 187.560675 206.698856 
L 188.84087 194.03776 
L 190.121065 190.281169 
L 191.40126 203.656955 
L 192.681455 205.981302 
L 193.96165 196.37553 
L 195.241846 202.410271 
L 196.522041 194.670031 
L 197.802236 199.277102 
L 199.082431 191.611635 
L 200.362626 187.582538 
L 201.642821 208.229048 
L 202.923016 233.725848 
L 204.203211 243.60304 
L 205.483406 246.222323 
L 206.763601 240.463331 
L 209.323991 192.968822 
L 210.604186 198.723373 
L 211.884381 216.320214 
L 213.164576 228.531038 
L 214.444771 237.855162 
L 215.724966 223.581911 
L 217.005161 215.4296 
L 218.285356 201.409283 
L 219.565551 210.732263 
L 220.845746 210.769903 
L 222.125941 210.090571 
L 223.406136 227.637934 
L 224.686331 226.389403 
L 225.966526 232.726155 
L 227.246721 235.578931 
L 228.526917 223.161821 
L 229.807112 205.553801 
L 231.087307 194.432111 
L 232.367502 198.701545 
L 233.647697 192.451309 
L 234.927892 175.370851 
L 236.208087 184.4845 
L 238.768477 166.454373 
L 240.048672 154.227446 
L 241.328867 156.483958 
L 242.609062 157.943457 
L 243.889257 183.445842 
L 245.169452 183.781539 
L 247.729842 225.07576 
L 249.010037 220.799233 
L 250.290232 217.632897 
L 251.570427 226.721374 
L 252.850622 231.439033 
L 254.130817 227.088628 
L 255.411012 217.210512 
L 256.691207 222.577387 
L 257.971402 219.047316 
L 259.251597 211.162951 
L 260.531793 215.076608 
L 261.811988 199.083606 
L 263.092183 198.473843 
L 264.372378 203.016327 
L 266.932768 184.299779 
L 268.212963 192.605762 
L 269.493158 197.771818 
L 272.053548 157.624077 
L 273.333743 154.710831 
L 274.613938 148.795109 
L 275.894133 153.62904 
L 277.174328 144.394829 
L 278.454523 156.672035 
L 279.734718 135.158406 
L 280.255919 138.015687 
L 280.255919 138.015687 
" clip-path="url(#p10b1541726)" style="fill: none; stroke: #8000ff; stroke-width: 2; stroke-linecap: square"/>
   </g>
   <g id="line2d_30">
    <path d="M 82.584682 163.913724 
L 83.864877 161.578672 
L 85.145072 157.541816 
L 86.425267 163.353549 
L 87.705462 161.945338 
L 88.985657 155.975351 
L 90.265852 161.826146 
L 91.546047 163.628643 
L 92.826242 163.716682 
L 94.106437 163.343569 
L 95.386632 160.940287 
L 96.666827 162.24857 
L 97.947023 161.06757 
L 99.227218 158.481712 
L 100.507413 152.236775 
L 101.787608 159.994783 
L 103.067803 159.853841 
L 104.347998 163.864645 
L 105.628193 163.607554 
L 106.908388 162.171622 
L 108.188583 162.6161 
L 109.468778 163.913347 
L 112.029168 163.899969 
L 113.309363 163.73703 
L 114.589558 162.751425 
L 115.869753 162.50732 
L 117.149948 160.843617 
L 118.430143 163.028384 
L 119.710338 163.450151 
L 120.990533 161.999793 
L 122.270728 161.049704 
L 123.550923 163.906905 
L 126.111313 163.728239 
L 127.391508 162.076457 
L 128.671703 162.617813 
L 129.951898 162.074605 
L 131.232094 161.260291 
L 132.512289 163.323332 
L 133.792484 160.2631 
L 135.072679 148.038739 
L 136.352874 154.136213 
L 137.633069 153.315921 
L 138.913264 136.180898 
L 140.193459 155.472935 
L 142.753849 163.9127 
L 144.034044 163.883416 
L 145.314239 163.198157 
L 146.594434 163.593784 
L 147.874629 160.730551 
L 149.154824 163.638876 
L 150.435019 162.927981 
L 151.715214 163.274345 
L 152.995409 161.811741 
L 154.275604 163.748715 
L 155.555799 162.208243 
L 156.835994 163.913711 
L 159.396384 163.829062 
L 160.676579 163.365478 
L 161.956774 161.929852 
L 163.23697 161.124356 
L 164.517165 160.789362 
L 165.79736 157.533674 
L 167.077555 163.500641 
L 168.35775 163.444677 
L 169.637945 162.878206 
L 170.91814 161.921515 
L 172.198335 163.202426 
L 173.47853 155.772869 
L 174.758725 153.430174 
L 176.03892 159.158426 
L 177.319115 156.399422 
L 178.59931 143.217431 
L 179.879505 139.478038 
L 181.1597 144.947674 
L 182.439895 157.351242 
L 183.72009 156.556947 
L 185.000285 151.729061 
L 186.28048 149.820845 
L 187.560675 149.614594 
L 188.84087 156.825292 
L 190.121065 158.482972 
L 191.40126 151.575569 
L 192.681455 150.090197 
L 193.96165 155.682409 
L 195.241846 152.337487 
L 196.522041 156.524612 
L 197.802236 154.145146 
L 199.082431 157.921088 
L 200.362626 159.537728 
L 201.642821 148.5735 
L 202.923016 125.843488 
L 204.203211 114.308883 
L 205.483406 110.9944 
L 206.763601 118.14068 
L 208.043796 142.421968 
L 209.323991 157.319426 
L 210.604186 154.448669 
L 213.164576 131.298403 
L 214.444771 121.206667 
L 215.724966 136.103176 
L 217.005161 143.183402 
L 218.285356 152.931671 
L 219.565551 146.791523 
L 220.845746 146.763982 
L 222.125941 147.257659 
L 223.406136 132.193753 
L 224.686331 133.424538 
L 225.966526 126.925995 
L 227.246721 123.795603 
L 228.526917 136.493394 
L 229.807112 150.369725 
L 231.087307 156.638489 
L 232.367502 154.460535 
L 233.647697 157.552242 
L 234.927892 162.888366 
L 236.208087 160.608315 
L 237.488282 162.879681 
L 238.768477 163.863303 
L 240.048672 163.180836 
L 241.328867 163.482529 
L 242.609062 163.635297 
L 243.889257 160.933681 
L 245.169452 160.830365 
L 246.449647 150.984168 
L 247.729842 134.693218 
L 249.010037 138.636629 
L 250.290232 141.37224 
L 251.570427 133.099662 
L 252.850622 128.29675 
L 254.130817 132.738252 
L 255.411012 141.725327 
L 256.691207 137.031685 
L 257.971402 140.169584 
L 259.251597 146.475057 
L 260.531793 143.466522 
L 261.811988 154.251754 
L 263.092183 154.583881 
L 264.372378 151.970125 
L 265.652573 157.108889 
L 266.932768 160.667412 
L 268.212963 157.483195 
L 269.493158 154.959068 
L 270.773353 162.617818 
L 272.053548 163.604711 
L 273.333743 163.252159 
L 274.613938 162.128273 
L 275.894133 163.087485 
L 277.174328 160.937714 
L 278.454523 163.504083 
L 279.734718 157.454799 
L 280.255919 158.581746 
L 280.255919 158.581746 
" clip-path="url(#p10b1541726)" style="fill: none; stroke: #ff8000; stroke-width: 2; stroke-linecap: square"/>
   </g>
   <g class="patch">
    <path d="M 56.980781 297.430125 
L 56.980781 31.318125 
" style="fill: none; stroke: currentColor; stroke-width: 0.8; stroke-linejoin: miter; stroke-linecap: square"/>
   </g>
   <g class="patch">
    <path d="M 56.980781 297.430125 
L 240.784182 297.430125 
" style="fill: none; stroke: currentColor; stroke-width: 0.8; stroke-linejoin: miter; stroke-linecap: square"/>
   </g>
   <g id="text_17" class="text">
    <!-- Brownian motion and its squared version -->
    <g transform="translate(25.709044 16.318125) scale(0.12 -0.12)">
     <defs>
      <path id="DejaVuSans-42" d="M 1259 2228 
L 1259 519 
L 2272 519 
Q 2781 519 3026 730 
Q 3272 941 3272 1375 
Q 3272 1813 3026 2020 
Q 2781 2228 2272 2228 
L 1259 2228 
z
M 1259 4147 
L 1259 2741 
L 2194 2741 
Q 2656 2741 2882 2914 
Q 3109 3088 3109 3444 
Q 3109 3797 2882 3972 
Q 2656 4147 2194 4147 
L 1259 4147 
z
M 628 4666 
L 2241 4666 
Q 2963 4666 3353 4366 
Q 3744 4066 3744 3513 
Q 3744 3084 3544 2831 
Q 3344 2578 2956 2516 
Q 3422 2416 3680 2098 
Q 3938 1781 3938 1306 
Q 3938 681 3513 340 
Q 3088 0 2303 0 
L 628 0 
L 628 4666 
z
" transform="scale(0.015625)"/>
      <path id="DejaVuSans-72" d="M 2631 2963 
Q 2534 3019 2420 3045 
Q 2306 3072 2169 3072 
Q 1681 3072 1420 2755 
Q 1159 2438 1159 1844 
L 1159 0 
L 581 0 
L 581 3500 
L 1159 3500 
L 1159 2956 
Q 1341 3275 1631 3429 
Q 1922 3584 2338 3584 
Q 2397 3584 2469 3576 
Q 2541 3569 2628 3553 
L 2631 2963 
z
" transform="scale(0.015625)"/>
      <path id="DejaVuSans-6f" d="M 1959 3097 
Q 1497 3097 1228 2736 
Q 959 2375 959 1747 
Q 959 1119 1226 758 
Q 1494 397 1959 397 
Q 2419 397 2687 759 
Q 2956 1122 2956 1747 
Q 2956 2369 2687 2733 
Q 2419 3097 1959 3097 
z
M 1959 3584 
Q 2709 3584 3137 3096 
Q 3566 2609 3566 1747 
Q 3566 888 3137 398 
Q 2709 -91 1959 -91 
Q 1206 -91 779 398 
Q 353 888 353 1747 
Q 353 2609 779 3096 
Q 1206 3584 1959 3584 
z
" transform="scale(0.015625)"/>
      <path id="DejaVuSans-77" d="M 269 3500 
L 844 3500 
L 1563 769 
L 2278 3500 
L 2956 3500 
L 3675 769 
L 4391 3500 
L 4966 3500 
L 4050 0 
L 3372 0 
L 2619 2869 
L 1863 0 
L 1184 0 
L 269 3500 
z
" transform="scale(0.015625)"/>
      <path id="DejaVuSans-6e" d="M 3513 2113 
L 3513 0 
L 2938 0 
L 2938 2094 
Q 2938 2591 2744 2837 
Q 2550 3084 2163 3084 
Q 1697 3084 1428 2787 
Q 1159 2491 1159 1978 
L 1159 0 
L 581 0 
L 581 3500 
L 1159 3500 
L 1159 2956 
Q 1366 3272 1645 3428 
Q 1925 3584 2291 3584 
Q 2894 3584 3203 3211 
Q 3513 2838 3513 2113 
z
" transform="scale(0.015625)"/>
      <path id="DejaVuSans-69" d="M 603 3500 
L 1178 3500 
L 1178 0 
L 603 0 
L 603 3500 
z
M 603 4863 
L 1178 4863 
L 1178 4134 
L 603 4134 
L 603 4863 
z
" transform="scale(0.015625)"/>
      <path id="DejaVuSans-61" d="M 2194 1759 
Q 1497 1759 1228 1600 
Q 959 1441 959 1056 
Q 959 750 1161 570 
Q 1363 391 1709 391 
Q 2188 391 2477 730 
Q 2766 1069 2766 1631 
L 2766 1759 
L 2194 1759 
z
M 3341 1997 
L 3341 0 
L 2766 0 
L 2766 531 
Q 2569 213 2275 61 
Q 1981 -91 1556 -91 
Q 1019 -91 701 211 
Q 384 513 384 1019 
Q 384 1609 779 1909 
Q 1175 2209 1959 2209 
L 2766 2209 
L 2766 2266 
Q 2766 2663 2505 2880 
Q 2244 3097 1772 3097 
Q 1472 3097 1187 3025 
Q 903 2953 641 2809 
L 641 3341 
Q 956 3463 1253 3523 
Q 1550 3584 1831 3584 
Q 2591 3584 2966 3190 
Q 3341 2797 3341 1997 
z
" transform="scale(0.015625)"/>
      <path id="DejaVuSans-20" transform="scale(0.015625)"/>
      <path id="DejaVuSans-6d" d="M 3328 2828 
Q 3544 3216 3844 3400 
Q 4144 3584 4550 3584 
Q 5097 3584 5394 3201 
Q 5691 2819 5691 2113 
L 5691 0 
L 5113 0 
L 5113 2094 
Q 5113 2597 4934 2840 
Q 4756 3084 4391 3084 
Q 3944 3084 3684 2787 
Q 3425 2491 3425 1978 
L 3425 0 
L 2847 0 
L 2847 2094 
Q 2847 2600 2669 2842 
Q 2491 3084 2119 3084 
Q 1678 3084 1418 2786 
Q 1159 2488 1159 1978 
L 1159 0 
L 581 0 
L 581 3500 
L 1159 3500 
L 1159 2956 
Q 1356 3278 1631 3431 
Q 1906 3584 2284 3584 
Q 2666 3584 2933 3390 
Q 3200 3197 3328 2828 
z
" transform="scale(0.015625)"/>
      <path id="DejaVuSans-74" d="M 1172 4494 
L 1172 3500 
L 2356 3500 
L 2356 3053 
L 1172 3053 
L 1172 1153 
Q 1172 725 1289 603 
Q 1406 481 1766 481 
L 2356 481 
L 2356 0 
L 1766 0 
Q 1100 0 847 248 
Q 594 497 594 1153 
L 594 3053 
L 172 3053 
L 172 3500 
L 594 3500 
L 594 4494 
L 1172 4494 
z
" transform="scale(0.015625)"/>
      <path id="DejaVuSans-64" d="M 2906 2969 
L 2906 4863 
L 3481 4863 
L 3481 0 
L 2906 0 
L 2906 525 
Q 2725 213 2448 61 
Q 2172 -91 1784 -91 
Q 1150 -91 751 415 
Q 353 922 353 1747 
Q 353 2572 751 3078 
Q 1150 3584 1784 3584 
Q 2172 3584 2448 3432 
Q 2725 3281 2906 2969 
z
M 947 1747 
Q 947 1113 1208 752 
Q 1469 391 1925 391 
Q 2381 391 2643 752 
Q 2906 1113 2906 1747 
Q 2906 2381 2643 2742 
Q 2381 3103 1925 3103 
Q 1469 3103 1208 2742 
Q 947 2381 947 1747 
z
" transform="scale(0.015625)"/>
      <path id="DejaVuSans-73" d="M 2834 3397 
L 2834 2853 
Q 2591 2978 2328 3040 
Q 2066 3103 1784 3103 
Q 1356 3103 1142 2972 
Q 928 2841 928 2578 
Q 928 2378 1081 2264 
Q 1234 2150 1697 2047 
L 1894 2003 
Q 2506 1872 2764 1633 
Q 3022 1394 3022 966 
Q 3022 478 2636 193 
Q 2250 -91 1575 -91 
Q 1294 -91 989 -36 
Q 684 19 347 128 
L 347 722 
Q 666 556 975 473 
Q 1284 391 1588 391 
Q 1994 391 2212 530 
Q 2431 669 2431 922 
Q 2431 1156 2273 1281 
Q 2116 1406 1581 1522 
L 1381 1569 
Q 847 1681 609 1914 
Q 372 2147 372 2553 
Q 372 3047 722 3315 
Q 1072 3584 1716 3584 
Q 2034 3584 2315 3537 
Q 2597 3491 2834 3397 
z
" transform="scale(0.015625)"/>
      <path id="DejaVuSans-71" d="M 947 1747 
Q 947 1113 1208 752 
Q 1469 391 1925 391 
Q 2381 391 2643 752 
Q 2906 1113 2906 1747 
Q 2906 2381 2643 2742 
Q 2381 3103 1925 3103 
Q 1469 3103 1208 2742 
Q 947 2381 947 1747 
z
M 2906 525 
Q 2725 213 2448 61 
Q 2172 -91 1784 -91 
Q 1150 -91 751 415 
Q 353 922 353 1747 
Q 353 2572 751 3078 
Q 1150 3584 1784 3584 
Q 2172 3584 2448 3432 
Q 2725 3281 2906 2969 
L 2906 3500 
L 3481 3500 
L 3481 -1331 
L 2906 -1331 
L 2906 525 
z
" transform="scale(0.015625)"/>
      <path id="DejaVuSans-75" d="M 544 1381 
L 544 3500 
L 1119 3500 
L 1119 1403 
Q 1119 906 1312 657 
Q 1506 409 1894 409 
Q 2359 409 2629 706 
Q 2900 1003 2900 1516 
L 2900 3500 
L 3475 3500 
L 3475 0 
L 2900 0 
L 2900 538 
Q 2691 219 2414 64 
Q 2138 -91 1772 -91 
Q 1169 -91 856 284 
Q 544 659 544 1381 
z
M 1991 3584 
L 1991 3584 
z
" transform="scale(0.015625)"/>
      <path id="DejaVuSans-65" d="M 3597 1894 
L 3597 1613 
L 953 1613 
Q 991 1019 1311 708 
Q 1631 397 2203 397 
Q 2534 397 2845 478 
Q 3156 559 3463 722 
L 3463 178 
Q 3153 47 2828 -22 
Q 2503 -91 2169 -91 
Q 1331 -91 842 396 
Q 353 884 353 1716 
Q 353 2575 817 3079 
Q 1281 3584 2069 3584 
Q 2775 3584 3186 3129 
Q 3597 2675 3597 1894 
z
M 3022 2063 
Q 3016 2534 2758 2815 
Q 2500 3097 2075 3097 
Q 1594 3097 1305 2825 
Q 1016 2553 972 2059 
L 3022 2063 
z
" transform="scale(0.015625)"/>
      <path id="DejaVuSans-76" d="M 191 3500 
L 800 3500 
L 1894 563 
L 2988 3500 
L 3597 3500 
L 2284 0 
L 1503 0 
L 191 3500 
z
" transform="scale(0.015625)"/>
     </defs>
     <use xlink:href="#DejaVuSans-42"/>
     <use xlink:href="#DejaVuSans-72" transform="translate(68.603516 0)"/>
     <use xlink:href="#DejaVuSans-6f" transform="translate(107.466797 0)"/>
     <use xlink:href="#DejaVuSans-77" transform="translate(168.648438 0)"/>
     <use xlink:href="#DejaVuSans-6e" transform="translate(250.435547 0)"/>
     <use xlink:href="#DejaVuSans-69" transform="translate(313.814453 0)"/>
     <use xlink:href="#DejaVuSans-61" transform="translate(341.597656 0)"/>
     <use xlink:href="#DejaVuSans-6e" transform="translate(402.876953 0)"/>
     <use xlink:href="#DejaVuSans-20" transform="translate(466.255859 0)"/>
     <use xlink:href="#DejaVuSans-6d" transform="translate(498.042969 0)"/>
     <use xlink:href="#DejaVuSans-6f" transform="translate(595.455078 0)"/>
     <use xlink:href="#DejaVuSans-74" transform="translate(656.636719 0)"/>
     <use xlink:href="#DejaVuSans-69" transform="translate(695.845703 0)"/>
     <use xlink:href="#DejaVuSans-6f" transform="translate(723.628906 0)"/>
     <use xlink:href="#DejaVuSans-6e" transform="translate(784.810547 0)"/>
     <use xlink:href="#DejaVuSans-20" transform="translate(848.189453 0)"/>
     <use xlink:href="#DejaVuSans-61" transform="translate(879.976562 0)"/>
     <use xlink:href="#DejaVuSans-6e" transform="translate(941.255859 0)"/>
     <use xlink:href="#DejaVuSans-64" transform="translate(1004.634766 0)"/>
     <use xlink:href="#DejaVuSans-20" transform="translate(1068.111328 0)"/>
     <use xlink:href="#DejaVuSans-69" transform="translate(1099.898438 0)"/>
     <use xlink:href="#DejaVuSans-74" transform="translate(1127.681641 0)"/>
     <use xlink:href="#DejaVuSans-73" transform="translate(1166.890625 0)"/>
     <use xlink:href="#DejaVuSans-20" transform="translate(1218.990234 0)"/>
     <use xlink:href="#DejaVuSans-73" transform="translate(1250.777344 0)"/>
     <use xlink:href="#DejaVuSans-71" transform="translate(1302.876953 0)"/>
     <use xlink:href="#DejaVuSans-75" transform="translate(1366.353516 0)"/>
     <use xlink:href="#DejaVuSans-61" transform="translate(1429.732422 0)"/>
     <use xlink:href="#DejaVuSans-72" transform="translate(1491.011719 0)"/>
     <use xlink:href="#DejaVuSans-65" transform="translate(1529.875 0)"/>
     <use xlink:href="#DejaVuSans-64" transform="translate(1591.398438 0)"/>
     <use xlink:href="#DejaVuSans-20" transform="translate(1654.875 0)"/>
     <use xlink:href="#DejaVuSans-76" transform="translate(1686.662109 0)"/>
     <use xlink:href="#DejaVuSans-65" transform="translate(1745.841797 0)"/>
     <use xlink:href="#DejaVuSans-72" transform="translate(1807.365234 0)"/>
     <use xlink:href="#DejaVuSans-73" transform="translate(1848.478516 0)"/>
     <use xlink:href="#DejaVuSans-69" transform="translate(1900.578125 0)"/>
     <use xlink:href="#DejaVuSans-6f" transform="translate(1928.361328 0)"/>
     <use xlink:href="#DejaVuSans-6e" transform="translate(1989.542969 0)"/>
    </g>
   </g>
   <g class="legend">
    <g class="patch">
     <path d="M 180.768114 71.740365 
L 230.808114 71.740365 
Q 232.608114 71.740365 232.608114 69.940365 
L 232.608114 42.940365 
Q 232.608114 41.140365 230.808114 41.140365 
L 180.768114 41.140365 
Q 178.968114 41.140365 178.968114 42.940365 
L 178.968114 69.940365 
Q 178.968114 71.740365 180.768114 71.740365 
z
" style="fill: #ffffff; opacity: 0.9; stroke: #cccccc; stroke-linejoin: miter"/>
    </g>
    <g id="line2d_31">
     <path d="M 182.568114 48.520365 
L 191.568114 48.520365 
L 200.568114 48.520365 
" style="fill: none; stroke: #8000ff; stroke-width: 2; stroke-linecap: square"/>
    </g>
    <g id="text_18" class="text">
     <!-- $\beta(t)$ -->
     <g transform="translate(207.768114 51.670365) scale(0.09 -0.09)">
      <use xlink:href="#DejaVuSans-Oblique-3b2" transform="translate(0 0.390625)"/>
      <use xlink:href="#DejaVuSans-28" transform="translate(63.818359 0.390625)"/>
      <use xlink:href="#DejaVuSans-Oblique-74" transform="translate(102.832031 0.390625)"/>
      <use xlink:href="#DejaVuSans-29" transform="translate(142.041016 0.390625)"/>
     </g>
    </g>
    <g id="line2d_32">
     <path d="M 182.568114 63.100365 
L 191.568114 63.100365 
L 200.568114 63.100365 
" style="fill: none; stroke: #ff8000; stroke-width: 2; stroke-linecap: square"/>
    </g>
    <g id="text_19" class="text">
     <!-- $\beta^2(t)$ -->
     <g transform="translate(207.768114 66.250365) scale(0.09 -0.09)">
      <use xlink:href="#DejaVuSans-Oblique-3b2" transform="translate(0 0.765625)"/>
      <use xlink:href="#DejaVuSans-32" transform="translate(71.353568 39.046875) scale(0.7)"/>
      <use xlink:href="#DejaVuSans-28" transform="translate(118.624076 0.765625)"/>
      <use xlink:href="#DejaVuSans-Oblique-74" transform="translate(157.637747 0.765625)"/>
      <use xlink:href="#DejaVuSans-29" transform="translate(196.846732 0.765625)"/>
     </g>
    </g>
   </g>
  </g>
 </g>
 <defs>
  <clipPath id="p10b1541726">
   <rect x="56.980781" y="31.318125" width="183.803401" height="266.112"/>
  </clipPath>
 </defs>
</svg>
