<svg xmlns="http://www.w3.org/2000/svg" xmlns:xlink="http://www.w3.org/1999/xlink" width="397.312" height="445.358" style="--axis-color:#000;--grid-stroke:rgba(0,0,0,0.2);--plot3d-stroke:rgba(0,0,0,0.3);--plot3d-grid:rgba(0,0,0,0.2)" viewBox="0 0 297.984 334.019"><style><![CDATA[@keyframes drawLine{0%{stroke-dashoffset:var(--len)}to{stroke-dashoffset:0}}@keyframes fadeIn{0%{opacity:0}to{opacity:1}}@keyframes pulse{0%,to{opacity:.7}50%{opacity:1}}.anim-draw{--len:1000;stroke-dasharray:var(--len);stroke-dashoffset:var(--len);animation:drawLine 2s ease-in-out infinite;animation-delay:0s}.anim-fade{opacity:0;animation:fadeIn 2s ease-in-out infinite;animation-delay:0s}.anim-pulse{animation:pulse 2s ease-in-out infinite;animation-delay:0s}@media (prefers-color-scheme:dark){:root{--axis-color:#fff;--grid-stroke:rgba(255,255,255,0.2);--plot3d-stroke:rgba(255,255,255,0.3);--plot3d-grid:rgba(255,255,255,0.2)}}.c1{fill:#ff0001;stroke:#ff0001}.c2{fill:#00ff02;stroke:#00ff02}.c3{fill:#00f;stroke:#00f}.c4{fill:#f0f;stroke:#f0f}.c5{fill:#0ff;stroke:#0ff}.c6{fill:#ff0;stroke:#ff0}.c7{fill:#ff8000;stroke:#ff8000}.c8{fill:#8000ff;stroke:#8000ff}.octonary{fill:#bcbd22;stroke:#bcbd22}.primary{fill:#d62728;stroke:#d62728}.quaternary{fill:#9467bd;stroke:#9467bd}.quinary{fill:#8c564b;stroke:#8c564b}.secondary{fill:#2ca02c;stroke:#2ca02c}.senary{fill:#e377c2;stroke:#e377c2}.septenary{fill:#7f7f7f;stroke:#7f7f7f}.tertiary{fill:#1f77b4;stroke:#1f77b4}@media (prefers-color-scheme:dark){.c1{fill:#ff0001;stroke:#ff0001}.c2{fill:#00ff02;stroke:#00ff02}.c3{fill:#00f;stroke:#00f}.c4{fill:#f0f;stroke:#f0f}.c5{fill:#0ff;stroke:#0ff}.c6{fill:#ff0;stroke:#ff0}.c7{fill:#ff8000;stroke:#ff8000}.c8{fill:#8000ff;stroke:#8000ff}.octonary{fill:#e6db74;stroke:#e6db74}.primary{fill:#ff4a98;stroke:#ff4a98}.quaternary{fill:#b4a0ff;stroke:#b4a0ff}.quinary{fill:#ffb86b;stroke:#ffb86b}.secondary{fill:#0afafa;stroke:#0afafa}.senary{fill:#ff79c6;stroke:#ff79c6}.septenary{fill:#ccc;stroke:#ccc}.tertiary{fill:#7f83ff;stroke:#7f83ff}}.text,text{stroke:none!important}.axis line,.axis path,.patch path[style*="stroke: currentColor"],.tick line,.tick path,line.grid,path.domain{stroke:var(--axis-color)!important}.legend text,.text,text{fill:var(--axis-color)!important}@media (prefers-color-scheme:dark){g.legend>g:first-child>path:first-child{fill:rgba(26,26,26,.8)!important;stroke:rgba(255,255,255,.1)!important}}.plot3d path,.plot3d polygon{stroke:var(--plot3d-stroke)!important}.plot3d-grid line{stroke:var(--plot3d-grid)!important}.plot3d-surface path[style*="fill:"]{fill-opacity:.9!important}@media (prefers-color-scheme:dark){.plot3d-surface path[style*="fill:"]{fill-opacity:.95!important;filter:saturate(1.2)!important}}*{stroke-linejoin:round;stroke-linecap:butt}]]></style><g id="figure_1"><g class="patch"><path d="M0 334.019h297.984V0H0z" class="anim-draw" style="fill:none"/></g><g id="axes_1"><g class="patch"><path d="M51.255 297.43h232.711V31.318H51.255z" class="anim-draw" style="fill:none"/></g><g class="axis"><g class="tick xtick"><path id="line2d_1" d="M74.553 297.43V31.318" class="anim-draw" clip-path="url(#pf631f08ec2)" style="fill:none;stroke:#b0b0b0;stroke-opacity:.1;stroke-width:.8;stroke-linecap:square"/><g id="line2d_2"><defs><path id="mb550aef207" d="M0 0v3.5" class="anim-draw" style="stroke:currentColor;stroke-width:.8"/></defs><use xlink:href="#mb550aef207" x="74.553" y="297.43" style="stroke:currentColor;stroke-width:.8"/></g><g id="text_1" class="text" transform="matrix(.09 0 0 -.09 64.534 311.269)"><defs><path id="DejaVuSans-30" d="M2034 4250q-487 0-733-480-245-479-245-1442 0-959 245-1439 246-480 733-480 491 0 736 480 246 480 246 1439 0 963-246 1442-245 480-736 480zm0 500q785 0 1199-621 414-620 414-1801 0-1178-414-1799Q2819-91 2034-91q-784 0-1198 620-414 621-414 1799 0 1181 414 1801 414 621 1198 621z" class="anim-draw" transform="scale(.01563)"/><path id="DejaVuSans-2e" d="M684 794h660V0H684z" class="anim-draw" transform="scale(.01563)"/></defs><use xlink:href="#DejaVuSans-30"/><use xlink:href="#DejaVuSans-2e" transform="translate(63.623)"/><use xlink:href="#DejaVuSans-30" transform="translate(95.41)"/><use xlink:href="#DejaVuSans-30" transform="translate(159.033)"/></g></g><g class="tick xtick"><path id="line2d_3" d="M103.677 297.43V31.318" class="anim-draw" clip-path="url(#pf631f08ec2)" style="fill:none;stroke:#b0b0b0;stroke-opacity:.1;stroke-width:.8;stroke-linecap:square"/><use xlink:href="#mb550aef207" id="line2d_4" x="103.677" y="297.43" style="stroke:currentColor;stroke-width:.8"/><g id="text_2" class="text" transform="matrix(.09 0 0 -.09 93.657 311.269)"><defs><path id="DejaVuSans-32" d="M1228 531h2203V0H469v531q359 372 979 998 621 627 780 809 303 340 423 576 121 236 121 464 0 372-261 606-261 235-680 235-297 0-627-103-329-103-704-313v638q381 153 712 231 332 78 607 78 725 0 1156-363 431-362 431-968 0-288-108-546-107-257-392-607-78-91-497-524-418-433-1181-1211z" class="anim-draw" transform="scale(.01563)"/><path id="DejaVuSans-35" d="M691 4666h2478v-532H1269V2991q137 47 274 70 138 23 276 23 781 0 1237-428 457-428 457-1159 0-753-469-1171Q2575-91 1722-91q-294 0-599 50Q819 9 494 109v635q281-153 581-228t634-75q541 0 856 284 316 284 316 772 0 487-316 771-315 285-856 285-253 0-505-56-251-56-513-175z" class="anim-draw" transform="scale(.01563)"/></defs><use xlink:href="#DejaVuSans-30"/><use xlink:href="#DejaVuSans-2e" transform="translate(63.623)"/><use xlink:href="#DejaVuSans-32" transform="translate(95.41)"/><use xlink:href="#DejaVuSans-35" transform="translate(159.033)"/></g></g><g class="tick xtick"><path id="line2d_5" d="M132.8 297.43V31.318" class="anim-draw" clip-path="url(#pf631f08ec2)" style="fill:none;stroke:#b0b0b0;stroke-opacity:.1;stroke-width:.8;stroke-linecap:square"/><use xlink:href="#mb550aef207" id="line2d_6" x="132.8" y="297.43" style="stroke:currentColor;stroke-width:.8"/><g id="text_3" class="text" transform="matrix(.09 0 0 -.09 122.78 311.269)"><use xlink:href="#DejaVuSans-30"/><use xlink:href="#DejaVuSans-2e" transform="translate(63.623)"/><use xlink:href="#DejaVuSans-35" transform="translate(95.41)"/><use xlink:href="#DejaVuSans-30" transform="translate(159.033)"/></g></g><g class="tick xtick"><path id="line2d_7" d="M161.924 297.43V31.318" class="anim-draw" clip-path="url(#pf631f08ec2)" style="fill:none;stroke:#b0b0b0;stroke-opacity:.1;stroke-width:.8;stroke-linecap:square"/><use xlink:href="#mb550aef207" id="line2d_8" x="161.924" y="297.43" style="stroke:currentColor;stroke-width:.8"/><g id="text_4" class="text" transform="matrix(.09 0 0 -.09 151.904 311.269)"><defs><path id="DejaVuSans-37" d="M525 4666h3000v-269L1831 0h-659l1594 4134H525z" class="anim-draw" transform="scale(.01563)"/></defs><use xlink:href="#DejaVuSans-30"/><use xlink:href="#DejaVuSans-2e" transform="translate(63.623)"/><use xlink:href="#DejaVuSans-37" transform="translate(95.41)"/><use xlink:href="#DejaVuSans-35" transform="translate(159.033)"/></g></g><g class="tick xtick"><path id="line2d_9" d="M191.047 297.43V31.318" class="anim-draw" clip-path="url(#pf631f08ec2)" style="fill:none;stroke:#b0b0b0;stroke-opacity:.1;stroke-width:.8;stroke-linecap:square"/><use xlink:href="#mb550aef207" id="line2d_10" x="191.047" y="297.43" style="stroke:currentColor;stroke-width:.8"/><g id="text_5" class="text" transform="matrix(.09 0 0 -.09 181.028 311.269)"><defs><path id="DejaVuSans-31" d="M794 531h1031v3560L703 3866v575l1116 225h631V531h1031V0H794z" class="anim-draw" transform="scale(.01563)"/></defs><use xlink:href="#DejaVuSans-31"/><use xlink:href="#DejaVuSans-2e" transform="translate(63.623)"/><use xlink:href="#DejaVuSans-30" transform="translate(95.41)"/><use xlink:href="#DejaVuSans-30" transform="translate(159.033)"/></g></g><g class="tick xtick"><path id="line2d_11" d="M220.17 297.43V31.318" class="anim-draw" clip-path="url(#pf631f08ec2)" style="fill:none;stroke:#b0b0b0;stroke-opacity:.1;stroke-width:.8;stroke-linecap:square"/><use xlink:href="#mb550aef207" id="line2d_12" x="220.171" y="297.43" style="stroke:currentColor;stroke-width:.8"/><g id="text_6" class="text" transform="matrix(.09 0 0 -.09 210.151 311.269)"><use xlink:href="#DejaVuSans-31"/><use xlink:href="#DejaVuSans-2e" transform="translate(63.623)"/><use xlink:href="#DejaVuSans-32" transform="translate(95.41)"/><use xlink:href="#DejaVuSans-35" transform="translate(159.033)"/></g></g><g class="tick xtick"><path id="line2d_13" d="M249.294 297.43V31.318" class="anim-draw" clip-path="url(#pf631f08ec2)" style="fill:none;stroke:#b0b0b0;stroke-opacity:.1;stroke-width:.8;stroke-linecap:square"/><use xlink:href="#mb550aef207" id="line2d_14" x="249.294" y="297.43" style="stroke:currentColor;stroke-width:.8"/><g id="text_7" class="text" transform="matrix(.09 0 0 -.09 239.275 311.269)"><use xlink:href="#DejaVuSans-31"/><use xlink:href="#DejaVuSans-2e" transform="translate(63.623)"/><use xlink:href="#DejaVuSans-35" transform="translate(95.41)"/><use xlink:href="#DejaVuSans-30" transform="translate(159.033)"/></g></g><g class="tick xtick"><path id="line2d_15" d="M278.418 297.43V31.318" class="anim-draw" clip-path="url(#pf631f08ec2)" style="fill:none;stroke:#b0b0b0;stroke-opacity:.1;stroke-width:.8;stroke-linecap:square"/><use xlink:href="#mb550aef207" id="line2d_16" x="278.418" y="297.43" style="stroke:currentColor;stroke-width:.8"/><g id="text_8" class="text" transform="matrix(.09 0 0 -.09 268.398 311.269)"><use xlink:href="#DejaVuSans-31"/><use xlink:href="#DejaVuSans-2e" transform="translate(63.623)"/><use xlink:href="#DejaVuSans-37" transform="translate(95.41)"/><use xlink:href="#DejaVuSans-35" transform="translate(159.033)"/></g></g><g id="text_9" class="text" transform="matrix(.1 0 0 -.1 165.61 324.739)"><defs><path id="DejaVuSans-Oblique-74" d="m2706 3500-87-447H1472l-372-1900q-19-106-28-178t-9-112q0-200 120-291t386-91h581L2053 0h-550Q991 0 739 200 488 400 488 806q0 72 9 158t28 189l372 1900H409l91 447h478l194 994h575l-191-994z" class="anim-draw" transform="scale(.01563)"/></defs><use xlink:href="#DejaVuSans-Oblique-74" transform="translate(0 .781)"/></g></g><g class="axis"><g class="tick ytick"><path id="line2d_17" d="M51.255 275.68h232.711" class="anim-draw" clip-path="url(#pf631f08ec2)" style="fill:none;stroke:#b0b0b0;stroke-opacity:.1;stroke-width:.8;stroke-linecap:square"/><g id="line2d_18"><defs><path id="mfc766cf8d3" d="M0 0h-3.5" class="anim-draw" style="stroke:currentColor;stroke-width:.8"/></defs><use xlink:href="#mfc766cf8d3" x="51.255" y="275.679" style="stroke:currentColor;stroke-width:.8"/></g><g id="text_10" class="text" transform="matrix(.09 0 0 -.09 22.4 279.099)"><defs><path id="DejaVuSans-2212" d="M678 2272h4006v-531H678z" class="anim-draw" transform="scale(.01563)"/></defs><use xlink:href="#DejaVuSans-2212"/><use xlink:href="#DejaVuSans-30" transform="translate(83.79)"/><use xlink:href="#DejaVuSans-2e" transform="translate(147.412)"/><use xlink:href="#DejaVuSans-35" transform="translate(179.2)"/></g></g><g class="tick ytick"><path id="line2d_19" d="M51.255 217.432h232.711" class="anim-draw" clip-path="url(#pf631f08ec2)" style="fill:none;stroke:#b0b0b0;stroke-opacity:.1;stroke-width:.8;stroke-linecap:square"/><use xlink:href="#mfc766cf8d3" id="line2d_20" x="51.255" y="217.432" style="stroke:currentColor;stroke-width:.8"/><g id="text_11" class="text" transform="matrix(.09 0 0 -.09 29.942 220.852)"><use xlink:href="#DejaVuSans-30"/><use xlink:href="#DejaVuSans-2e" transform="translate(63.623)"/><use xlink:href="#DejaVuSans-30" transform="translate(95.41)"/></g></g><g class="tick ytick"><path id="line2d_21" d="M51.255 159.185h232.711" class="anim-draw" clip-path="url(#pf631f08ec2)" style="fill:none;stroke:#b0b0b0;stroke-opacity:.1;stroke-width:.8;stroke-linecap:square"/><use xlink:href="#mfc766cf8d3" id="line2d_22" x="51.255" y="159.185" style="stroke:currentColor;stroke-width:.8"/><g id="text_12" class="text" transform="matrix(.09 0 0 -.09 29.942 162.605)"><use xlink:href="#DejaVuSans-30"/><use xlink:href="#DejaVuSans-2e" transform="translate(63.623)"/><use xlink:href="#DejaVuSans-35" transform="translate(95.41)"/></g></g><g class="tick ytick"><path id="line2d_23" d="M51.255 100.939h232.711" class="anim-draw" clip-path="url(#pf631f08ec2)" style="fill:none;stroke:#b0b0b0;stroke-opacity:.1;stroke-width:.8;stroke-linecap:square"/><use xlink:href="#mfc766cf8d3" id="line2d_24" x="51.255" y="100.939" style="stroke:currentColor;stroke-width:.8"/><g id="text_13" class="text" transform="matrix(.09 0 0 -.09 29.942 104.358)"><use xlink:href="#DejaVuSans-31"/><use xlink:href="#DejaVuSans-2e" transform="translate(63.623)"/><use xlink:href="#DejaVuSans-30" transform="translate(95.41)"/></g></g><g class="tick ytick"><path id="line2d_25" d="M51.255 42.692h232.711" class="anim-draw" clip-path="url(#pf631f08ec2)" style="fill:none;stroke:#b0b0b0;stroke-opacity:.1;stroke-width:.8;stroke-linecap:square"/><use xlink:href="#mfc766cf8d3" id="line2d_26" x="51.255" y="42.692" style="stroke:currentColor;stroke-width:.8"/><g id="text_14" class="text" transform="matrix(.09 0 0 -.09 29.942 46.11)"><use xlink:href="#DejaVuSans-31"/><use xlink:href="#DejaVuSans-2e" transform="translate(63.623)"/><use xlink:href="#DejaVuSans-35" transform="translate(95.41)"/></g></g><g id="text_15" class="text" transform="matrix(0 -.1 -.1 0 16.3 187.824)"><defs><path id="DejaVuSans-Oblique-3b2" d="M872 216 572-1331H-6l934 4809q278 1425 1610 1425 1350 0 1121-1203-156-856-765-1169 819-281 659-1115Q3272-69 1759-66q-662 3-887 282zm147 750q240-544 856-541 900 0 1091 981 172 882-1291 813l103 531q1131-19 1328 1000 135 688-597 684-818 0-1006-975z" class="anim-draw" transform="scale(.01563)"/><path id="DejaVuSans-28" d="M1984 4856q-418-718-622-1422-203-703-203-1425 0-721 205-1429t620-1424h-500Q1016-109 783 600T550 2009q0 697 231 1403 232 707 703 1444z" class="anim-draw" transform="scale(.01563)"/><path id="DejaVuSans-29" d="M513 4856h500q468-737 701-1444 233-706 233-1403 0-700-233-1409T1013-844H513q415 716 620 1424t205 1429q0 722-205 1425-205 704-620 1422z" class="anim-draw" transform="scale(.01563)"/><path id="DejaVuSans-2c" d="M750 794h659V256L897-744H494L750 256z" class="anim-draw" transform="scale(.01563)"/></defs><use xlink:href="#DejaVuSans-Oblique-3b2" transform="translate(0 .766)"/><use xlink:href="#DejaVuSans-28" transform="translate(63.818 .766)"/><use xlink:href="#DejaVuSans-Oblique-74" transform="translate(102.832 .766)"/><use xlink:href="#DejaVuSans-29" transform="translate(142.041 .766)"/><use xlink:href="#DejaVuSans-2c" transform="translate(181.055 .766)"/><use xlink:href="#DejaVuSans-Oblique-3b2" transform="translate(232.324 .766)"/><use xlink:href="#DejaVuSans-32" transform="matrix(.7 0 0 .7 303.678 39.047)"/><use xlink:href="#DejaVuSans-28" transform="translate(350.948 .766)"/><use xlink:href="#DejaVuSans-Oblique-74" transform="translate(389.962 .766)"/><use xlink:href="#DejaVuSans-29" transform="translate(429.171 .766)"/></g></g><path id="line2d_27" d="m74.553 217.432 1.165 2.241 1.165-3.513 1.165.405 1.165 13.614 1.165-13.313 1.165-8.76 1.165-9.215 1.165 10.594 1.165-16.341 1.165 16.33 1.165-6.836 1.165-25.518 1.165 11.54 1.164 6.596 1.165-1.16 1.165 5.865 1.165 18.064 1.165-.799 1.165 12.375 1.165-5.517 1.165 10.711 1.165-18.056 1.165 9.125 1.165 3.752 1.165-9.477 1.165 14.338 1.165-2.65 1.165-15.227 1.165 18.726 1.164-2.15 1.165-3.028 1.165-9.108 1.165 14.41 1.165 15.383 1.165-6.08 1.165-3.46 1.165-2.919 1.165-4.035 1.165 7.921 1.165-2.705 1.165-3.414 1.165 8.321 1.165-21.735 1.165-5.52 1.165 13.878 1.164-7.648 1.165 11.354 1.165-9.169 1.165-13.497 1.165 9.56 1.165-11.222 1.165-4.808 1.165-9.577 1.165-22.096 1.165 2.858 1.165 8.78 1.165 10.363 1.165 9.504 1.165.898 1.165-3.974 1.165-3.224 1.165-9.636 1.164-.151 1.165-16.933 1.165 3.083 1.165-31.688 1.165-7.289 1.165 9.985 1.165 12.476 1.165-5.62 1.165 2.602 1.165-8.317 1.165-5.513 1.165.848 1.165 9.865 1.165 17.647 1.165 5.202 1.165-9.977 1.164-2.494 1.165 14.512 1.165-2.017 1.165-4.49 1.165 10.297 1.165-1.79 1.165-.679 1.165 13.315 1.165-4.168 1.165-6.532 1.165-12.617 1.165-12.277 1.165 16.05 1.165 10.925 1.165-6 1.165-5.986 1.164-6 1.165-44.882 1.165-6.65 1.165-13.229 1.165-11.113" class="anim-draw" clip-path="url(#pf631f08ec2)" style="fill:none;stroke:#8000ff;stroke-width:2;stroke-linecap:square"/><path id="line2d_28" d="m74.553 217.432 1.165-.043 1.165.03 1.165.007 1.165-1.388 1.165 1.392 1.165-.744 1.165-2.205 1.165 2.41 1.165-4.523 1.165 4.52 1.165-1.335 1.165-12.07 1.165 6.843 1.164 2.885 1.165-.454 1.165 2.055 1.165 2.617 1.165.003 1.165-1.27 1.165.89 1.165-2.207 1.165 2.583 1.165-.606 1.165-.664 1.165 1.212 1.165-2.432 1.165.716 1.165 1.772 1.165-2.742 1.164.62 1.165.74 1.165 1.277 1.165-2.675 1.165-6.79 1.165 3.17 1.165 1.52 1.165 1.122 1.165 1.31 1.165-2.837 1.165 1.09 1.165 1.197 1.165-3.267 1.165 6.03 1.165.241 1.165-1.6 1.164 1.29 1.165-2.276 1.165 2.01 1.165.335 1.165.086 1.165-.262 1.165-.773 1.165-2.724 1.165-12.292 1.165 2.062 1.165 5.457 1.165 4.738 1.165 2.724 1.165.178 1.165-.89 1.165-.92 1.165-3.816 1.164-.072 1.165-10.61 1.165 2.298 1.165-31.405 1.165-9.663 1.165 13.006 1.165 13.844 1.165-5.906 1.165 2.803 1.165-9.364 1.165-6.861 1.165 1.09 1.165 11.764 1.165 16.879 1.165 3.954 1.165-7.994 1.164-2.265 1.165 11.685 1.165-1.408 1.165-3.384 1.165 7.248 1.165-1.13 1.165-.442 1.165 7.238 1.165-1.938 1.165-3.639 1.165-9.101 1.165-11.479 1.165 14.487 1.165 7.332 1.165-3.773 1.165-4.38 1.164-5.007 1.165-57.061 1.165-11.397 1.165-24.928 1.165-23.264" class="anim-draw" clip-path="url(#pf631f08ec2)" style="fill:none;stroke:#ff8000;stroke-width:2;stroke-linecap:square"/><g class="patch"><path d="M51.255 297.43V31.318" class="anim-draw" style="fill:none;stroke:currentColor;stroke-width:.8;stroke-linejoin:miter;stroke-linecap:square"/></g><g class="patch"><path d="M51.255 297.43h232.711" class="anim-draw" style="fill:none;stroke:currentColor;stroke-width:.8;stroke-linejoin:miter;stroke-linecap:square"/></g><g id="text_16" class="text" transform="matrix(.12 0 0 -.12 44.437 16.318)"><defs><path id="DejaVuSans-42" d="M1259 2228V519h1013q509 0 754 211 246 211 246 645 0 438-246 645-245 208-754 208zm0 1919V2741h935q462 0 688 173 227 174 227 530 0 353-227 528-226 175-688 175zm-631 519h1613q722 0 1112-300 391-300 391-853 0-429-200-682t-588-315q466-100 724-418 258-317 258-792 0-625-425-966Q3088 0 2303 0H628z" class="anim-draw" transform="scale(.01563)"/><path id="DejaVuSans-72" d="M2631 2963q-97 56-211 82-114 27-251 27-488 0-749-317t-261-911V0H581v3500h578v-544q182 319 472 473 291 155 707 155 59 0 131-8 72-7 159-23z" class="anim-draw" transform="scale(.01563)"/><path id="DejaVuSans-6f" d="M1959 3097q-462 0-731-361t-269-989 267-989q268-361 733-361 460 0 728 362 269 363 269 988 0 622-269 986-268 364-728 364m0 487q750 0 1178-488 429-487 429-1349 0-859-429-1349Q2709-91 1959-91q-753 0-1180 489-426 490-426 1349 0 862 426 1349 427 488 1180 488" class="anim-draw" transform="scale(.01563)"/><path id="DejaVuSans-77" d="M269 3500h575l719-2731 715 2731h678l719-2731 716 2731h575L4050 0h-678l-753 2869L1863 0h-679z" class="anim-draw" transform="scale(.01563)"/><path id="DejaVuSans-6e" d="M3513 2113V0h-575v2094q0 497-194 743-194 247-581 247-466 0-735-297-269-296-269-809V0H581v3500h578v-544q207 316 486 472 280 156 646 156 603 0 912-373 310-373 310-1098" class="anim-draw" transform="scale(.01563)"/><path id="DejaVuSans-69" d="M603 3500h575V0H603zm0 1363h575v-729H603z" class="anim-draw" transform="scale(.01563)"/><path id="DejaVuSans-61" d="M2194 1759q-697 0-966-159t-269-544q0-306 202-486 202-179 548-179 479 0 768 339t289 901v128zm1147 238V0h-575v531q-197-318-491-470T1556-91q-537 0-855 302-317 302-317 808 0 590 395 890 396 300 1180 300h807v57q0 397-261 614t-733 217q-300 0-585-72-284-72-546-216v532q315 122 612 182 297 61 578 61 760 0 1135-394 375-393 375-1193" class="anim-draw" transform="scale(.01563)"/><path id="DejaVuSans-6d" d="M3328 2828q216 388 516 572t706 184q547 0 844-383 297-382 297-1088V0h-578v2094q0 503-179 746-178 244-543 244-447 0-707-297-259-296-259-809V0h-578v2094q0 506-178 748t-550 242q-441 0-701-298-259-298-259-808V0H581v3500h578v-544q197 322 472 475t653 153q382 0 649-194 267-193 395-562" class="anim-draw" transform="scale(.01563)"/><path id="DejaVuSans-74" d="M1172 4494v-994h1184v-447H1172V1153q0-428 117-550t477-122h590V0h-590q-666 0-919 248-253 249-253 905v1900H172v447h422v994z" class="anim-draw" transform="scale(.01563)"/><path id="DejaVuSans-64" d="M2906 2969v1894h575V0h-575v525q-181-312-458-464-276-152-664-152-634 0-1033 506-398 507-398 1332t398 1331q399 506 1033 506 388 0 664-152 277-151 458-463M947 1747q0-634 261-995t717-361 718 361q263 361 263 995t-263 995q-262 361-718 361t-717-361-261-995" class="anim-draw" transform="scale(.01563)"/><path id="DejaVuSans-73" d="M2834 3397v-544q-243 125-506 187-262 63-544 63-428 0-642-131t-214-394q0-200 153-314t616-217l197-44q612-131 870-370t258-667q0-488-386-773Q2250-91 1575-91q-281 0-586 55T347 128v594q319-166 628-249 309-82 613-82 406 0 624 139 219 139 219 392 0 234-158 359-157 125-692 241l-200 47q-534 112-772 345-237 233-237 639 0 494 350 762 350 269 994 269 318 0 599-47 282-46 519-140" class="anim-draw" transform="scale(.01563)"/><path id="DejaVuSans-71" d="M947 1747q0-634 261-995t717-361 718 361q263 361 263 995t-263 995q-262 361-718 361t-717-361-261-995M2906 525q-181-312-458-464-276-152-664-152-634 0-1033 506-398 507-398 1332t398 1331q399 506 1033 506 388 0 664-152 277-151 458-463v531h575v-4831h-575z" class="anim-draw" transform="scale(.01563)"/><path id="DejaVuSans-75" d="M544 1381v2119h575V1403q0-497 193-746 194-248 582-248 465 0 735 297 271 297 271 810v1984h575V0h-575v538q-209-319-486-474-276-155-642-155-603 0-916 375-312 375-312 1097m1447 2203" class="anim-draw" transform="scale(.01563)"/><path id="DejaVuSans-65" d="M3597 1894v-281H953q38-594 358-905t892-311q331 0 642 81t618 244V178Q3153 47 2828-22t-659-69q-838 0-1327 487-489 488-489 1320 0 859 464 1363 464 505 1252 505 706 0 1117-455 411-454 411-1235m-575 169q-6 471-264 752-258 282-683 282-481 0-770-272t-333-766z" class="anim-draw" transform="scale(.01563)"/><path id="DejaVuSans-76" d="M191 3500h609L1894 563l1094 2937h609L2284 0h-781z" class="anim-draw" transform="scale(.01563)"/></defs><use xlink:href="#DejaVuSans-42"/><use xlink:href="#DejaVuSans-72" transform="translate(68.604)"/><use xlink:href="#DejaVuSans-6f" transform="translate(107.467)"/><use xlink:href="#DejaVuSans-77" transform="translate(168.648)"/><use xlink:href="#DejaVuSans-6e" transform="translate(250.436)"/><use xlink:href="#DejaVuSans-69" transform="translate(313.814)"/><use xlink:href="#DejaVuSans-61" transform="translate(341.598)"/><use xlink:href="#DejaVuSans-6e" transform="translate(402.877)"/><use xlink:href="#DejaVuSans-6d" transform="translate(498.043)"/><use xlink:href="#DejaVuSans-6f" transform="translate(595.455)"/><use xlink:href="#DejaVuSans-74" transform="translate(656.637)"/><use xlink:href="#DejaVuSans-69" transform="translate(695.846)"/><use xlink:href="#DejaVuSans-6f" transform="translate(723.629)"/><use xlink:href="#DejaVuSans-6e" transform="translate(784.81)"/><use xlink:href="#DejaVuSans-61" transform="translate(879.977)"/><use xlink:href="#DejaVuSans-6e" transform="translate(941.256)"/><use xlink:href="#DejaVuSans-64" transform="translate(1004.635)"/><use xlink:href="#DejaVuSans-69" transform="translate(1099.898)"/><use xlink:href="#DejaVuSans-74" transform="translate(1127.682)"/><use xlink:href="#DejaVuSans-73" transform="translate(1166.89)"/><use xlink:href="#DejaVuSans-73" transform="translate(1250.777)"/><use xlink:href="#DejaVuSans-71" transform="translate(1302.877)"/><use xlink:href="#DejaVuSans-75" transform="translate(1366.354)"/><use xlink:href="#DejaVuSans-61" transform="translate(1429.732)"/><use xlink:href="#DejaVuSans-72" transform="translate(1491.012)"/><use xlink:href="#DejaVuSans-65" transform="translate(1529.875)"/><use xlink:href="#DejaVuSans-64" transform="translate(1591.398)"/><use xlink:href="#DejaVuSans-76" transform="translate(1686.662)"/><use xlink:href="#DejaVuSans-65" transform="translate(1745.842)"/><use xlink:href="#DejaVuSans-72" transform="translate(1807.365)"/><use xlink:href="#DejaVuSans-73" transform="translate(1848.479)"/><use xlink:href="#DejaVuSans-69" transform="translate(1900.578)"/><use xlink:href="#DejaVuSans-6f" transform="translate(1928.361)"/><use xlink:href="#DejaVuSans-6e" transform="translate(1989.543)"/></g><g class="legend"><g class="patch"><path d="M222.972 71.74h50.04q1.8 0 1.8-1.8v-27q0-1.8-1.8-1.8h-50.04q-1.8 0-1.8 1.8v27q0 1.8 1.8 1.8z" class="anim-draw" style="fill:rgba(255,255,255,.8)!important;opacity:.9;stroke:rgba(0,0,0,.1)!important;stroke-linejoin:miter"/></g><path id="line2d_29" d="M224.772 48.52h18" class="anim-draw" style="fill:none;stroke:#8000ff;stroke-width:2;stroke-linecap:square"/><g id="text_17" class="text" transform="matrix(.09 0 0 -.09 249.972 51.67)"><use xlink:href="#DejaVuSans-Oblique-3b2" transform="translate(0 .39)"/><use xlink:href="#DejaVuSans-28" transform="translate(63.818 .39)"/><use xlink:href="#DejaVuSans-Oblique-74" transform="translate(102.832 .39)"/><use xlink:href="#DejaVuSans-29" transform="translate(142.041 .39)"/></g><path id="line2d_30" d="M224.772 63.1h18" class="anim-draw" style="fill:none;stroke:#ff8000;stroke-width:2;stroke-linecap:square"/><g id="text_18" class="text" transform="matrix(.09 0 0 -.09 249.972 66.25)"><use xlink:href="#DejaVuSans-Oblique-3b2" transform="translate(0 .766)"/><use xlink:href="#DejaVuSans-32" transform="matrix(.7 0 0 .7 71.354 39.047)"/><use xlink:href="#DejaVuSans-28" transform="translate(118.624 .766)"/><use xlink:href="#DejaVuSans-Oblique-74" transform="translate(157.638 .766)"/><use xlink:href="#DejaVuSans-29" transform="translate(196.847 .766)"/></g></g></g></g><defs><clipPath id="pf631f08ec2"><path d="M51.255 31.318h232.712V297.43H51.255z"/></clipPath></defs><script>document.addEventListener(&apos;DOMContentLoaded&apos;,()=&gt;{
        document.querySelectorAll(&apos;.anim-draw&apos;).forEach(p=&gt;{
            if(p.getTotalLength){
                const L=p.getTotalLength();
                p.style.setProperty(&apos;--len&apos;,L);
                p.setAttribute(&apos;stroke-dasharray&apos;,L);
                p.setAttribute(&apos;stroke-dashoffset&apos;,L);
            }
        });
    });</script></svg>