<?xml version="1.0" encoding="utf-8" standalone="no"?>
<!DOCTYPE svg PUBLIC "-//W3C//DTD SVG 1.1//EN"
  "http://www.w3.org/Graphics/SVG/1.1/DTD/svg11.dtd">
<svg xmlns:xlink="http://www.w3.org/1999/xlink" width="297.983888pt" height="334.018562pt" viewBox="0 0 297.983888 334.018562" xmlns="http://www.w3.org/2000/svg" version="1.1">
<style>
    @keyframes drawLine { from { stroke-dashoffset: var(--len); } to { stroke-dashoffset: 0; } }
    @keyframes fadeIn { from { opacity:0; } to { opacity:1; } }
    @keyframes pulse { 0% { opacity:.7; } 50% { opacity:1; } 100% { opacity:.7; } }

    .anim-draw { --len:1000; stroke-dasharray:var(--len); stroke-dashoffset:var(--len); animation:drawLine 2.0s ease-in-out infinite; animation-delay:0.0s; }
    .anim-fade { opacity:0; animation:fadeIn 2.0s ease-in-out infinite; animation-delay:0.0s; }
    .anim-pulse { animation:pulse 2.0s ease-in-out infinite; animation-delay:0.0s; }
</style>

<style>/* === RDF autogenerated palette === */
:root {
    --axis-color: #000;
    --grid-stroke: rgba(0,0,0,0.2);
    --plot3d-stroke: rgba(0,0,0,0.3);
    --plot3d-grid: rgba(0,0,0,0.2);
}
@media (prefers-color-scheme: dark) {
    :root {
        --axis-color: #fff;
        --grid-stroke: rgba(255,255,255,0.2);
        --plot3d-stroke: rgba(255,255,255,0.3);
        --plot3d-grid: rgba(255,255,255,0.2);
    }
}

/* Light‑mode palette */
.c1 { fill:#FF0001; stroke:#FF0001; }.c2 { fill:#00FF02; stroke:#00FF02; }.c3 { fill:#0000FF; stroke:#0000FF; }.c4 { fill:#FF00FF; stroke:#FF00FF; }.c5 { fill:#00FFFF; stroke:#00FFFF; }.c6 { fill:#FFFF00; stroke:#FFFF00; }.c7 { fill:#FF8000; stroke:#FF8000; }.c8 { fill:#8000FF; stroke:#8000FF; }.octonary { fill:#bcbd22; stroke:#bcbd22; }.primary { fill:#d62728; stroke:#d62728; }.quaternary { fill:#9467bd; stroke:#9467bd; }.quinary { fill:#8c564b; stroke:#8c564b; }.secondary { fill:#2ca02c; stroke:#2ca02c; }.senary { fill:#e377c2; stroke:#e377c2; }.septenary { fill:#7f7f7f; stroke:#7f7f7f; }.tertiary { fill:#1f77b4; stroke:#1f77b4; }

/* Dark overrides */
@media (prefers-color-scheme: dark) {
    .c1 { fill:#FF0001; stroke:#FF0001; }.c2 { fill:#00FF02; stroke:#00FF02; }.c3 { fill:#0000FF; stroke:#0000FF; }.c4 { fill:#FF00FF; stroke:#FF00FF; }.c5 { fill:#00FFFF; stroke:#00FFFF; }.c6 { fill:#FFFF00; stroke:#FFFF00; }.c7 { fill:#FF8000; stroke:#FF8000; }.c8 { fill:#8000FF; stroke:#8000FF; }.octonary { fill:#E6DB74; stroke:#E6DB74; }.primary { fill:#FF4A98; stroke:#FF4A98; }.quaternary { fill:#B4A0FF; stroke:#B4A0FF; }.quinary { fill:#FFB86B; stroke:#FFB86B; }.secondary { fill:#0AFAFA; stroke:#0AFAFA; }.senary { fill:#FF79C6; stroke:#FF79C6; }.septenary { fill:#CCCCCC; stroke:#CCCCCC; }.tertiary { fill:#7F83FF; stroke:#7F83FF; }
}/* Axis, ticks, legend */
text, .text { fill: var(--axis-color) !important; stroke: none !important; }
.axis line, .axis path,
.tick line, .tick path,
path.domain,
line.grid { stroke: var(--axis-color) !important; }
.legend text { fill: var(--axis-color) !important; }

/* Patch paths that relied on currentColor */
.patch path[style*="stroke: currentColor"] { stroke: var(--axis-color) !important; }

/* Legend background (first child of legend group) */
g.legend > g:first-child > path:first-child {
    fill: rgba(255,255,255,0.8) !important;
    stroke: rgba(0,0,0,0.1) !important;
}
@media (prefers-color-scheme: dark) {
    g.legend > g:first-child > path:first-child {
        fill: rgba(26,26,26,0.8) !important;
        stroke: rgba(255,255,255,0.1) !important;
    }
}

/* 3‑D specific rules */
.plot3d path, .plot3d polygon {
    stroke: var(--plot3d-stroke) !important;
}
.plot3d-grid line { stroke: var(--plot3d-grid) !important; }
.plot3d-surface path[style*="fill:"] {
    fill-opacity: 0.9 !important;
}
@media (prefers-color-scheme: dark) {
    .plot3d-surface path[style*="fill:"] {
        fill-opacity: 0.95 !important;
        filter: saturate(1.2) !important;
    }
}</style>

 <metadata>
  <rdf:RDF xmlns:dc="http://purl.org/dc/elements/1.1/" xmlns:cc="http://creativecommons.org/ns#" xmlns:rdf="http://www.w3.org/1999/02/22-rdf-syntax-ns#">
   <cc:Work>
    <dc:type rdf:resource="http://purl.org/dc/dcmitype/StillImage"/>
    <dc:date>2025-04-16T21:55:24.431710</dc:date>
    <dc:format>image/svg+xml</dc:format>
    <dc:creator>
     <cc:Agent>
      <dc:title>Matplotlib v3.10.1, https://matplotlib.org/</dc:title>
     </cc:Agent>
    </dc:creator>
   </cc:Work>
  </rdf:RDF>
 </metadata>
 <defs>
  <style type="text/css">*{stroke-linejoin: round; stroke-linecap: butt}</style>
 </defs>
 <g id="figure_1">
  <g class="patch">
   <path class="anim-draw" d="M 0 334.018562 
L 297.983888 334.018562 
L 297.983888 0 
L 0 0 
L 0 334.018562 
z
" style="fill: none"/>
  </g>
  <g id="axes_1">
   <g class="patch">
    <path class="anim-draw" d="M 51.254531 297.430125 
L 283.96637 297.430125 
L 283.96637 31.318125 
L 51.254531 31.318125 
L 51.254531 297.430125 
z
" style="fill: none"/>
   </g>
   <g class="axis">
    <g class="tick xtick">
     <g id="line2d_1">
      <path class="anim-draw" d="M 74.553307 297.430125 
L 74.553307 31.318125 
" clip-path="url(#pf631f08ec2)" style="fill: none; stroke: #b0b0b0; stroke-opacity: 0.1; stroke-width: 0.8; stroke-linecap: square"/>
     </g>
     <g id="line2d_2">
      <defs>
       <path class="anim-draw" id="mb550aef207" d="M 0 0 
L 0 3.5 
" style="stroke: currentColor; stroke-width: 0.8"/>
      </defs>
      <g>
       <use xlink:href="#mb550aef207" x="74.553307" y="297.430125" style="stroke: currentColor; stroke-width: 0.8"/>
      </g>
     </g>
     <g id="text_1" class="text">
      <!-- 0.00 -->
      <g transform="translate(64.533776 311.268719) scale(0.09 -0.09)">
       <defs>
        <path class="anim-draw" id="DejaVuSans-30" d="M 2034 4250 
Q 1547 4250 1301 3770 
Q 1056 3291 1056 2328 
Q 1056 1369 1301 889 
Q 1547 409 2034 409 
Q 2525 409 2770 889 
Q 3016 1369 3016 2328 
Q 3016 3291 2770 3770 
Q 2525 4250 2034 4250 
z
M 2034 4750 
Q 2819 4750 3233 4129 
Q 3647 3509 3647 2328 
Q 3647 1150 3233 529 
Q 2819 -91 2034 -91 
Q 1250 -91 836 529 
Q 422 1150 422 2328 
Q 422 3509 836 4129 
Q 1250 4750 2034 4750 
z
" transform="scale(0.015625)"/>
        <path class="anim-draw" id="DejaVuSans-2e" d="M 684 794 
L 1344 794 
L 1344 0 
L 684 0 
L 684 794 
z
" transform="scale(0.015625)"/>
       </defs>
       <use xlink:href="#DejaVuSans-30"/>
       <use xlink:href="#DejaVuSans-2e" transform="translate(63.623047 0)"/>
       <use xlink:href="#DejaVuSans-30" transform="translate(95.410156 0)"/>
       <use xlink:href="#DejaVuSans-30" transform="translate(159.033203 0)"/>
      </g>
     </g>
    </g>
    <g class="tick xtick">
     <g id="line2d_3">
      <path class="anim-draw" d="M 103.676776 297.430125 
L 103.676776 31.318125 
" clip-path="url(#pf631f08ec2)" style="fill: none; stroke: #b0b0b0; stroke-opacity: 0.1; stroke-width: 0.8; stroke-linecap: square"/>
     </g>
     <g id="line2d_4">
      <g>
       <use xlink:href="#mb550aef207" x="103.676776" y="297.430125" style="stroke: currentColor; stroke-width: 0.8"/>
      </g>
     </g>
     <g id="text_2" class="text">
      <!-- 0.25 -->
      <g transform="translate(93.657245 311.268719) scale(0.09 -0.09)">
       <defs>
        <path class="anim-draw" id="DejaVuSans-32" d="M 1228 531 
L 3431 531 
L 3431 0 
L 469 0 
L 469 531 
Q 828 903 1448 1529 
Q 2069 2156 2228 2338 
Q 2531 2678 2651 2914 
Q 2772 3150 2772 3378 
Q 2772 3750 2511 3984 
Q 2250 4219 1831 4219 
Q 1534 4219 1204 4116 
Q 875 4013 500 3803 
L 500 4441 
Q 881 4594 1212 4672 
Q 1544 4750 1819 4750 
Q 2544 4750 2975 4387 
Q 3406 4025 3406 3419 
Q 3406 3131 3298 2873 
Q 3191 2616 2906 2266 
Q 2828 2175 2409 1742 
Q 1991 1309 1228 531 
z
" transform="scale(0.015625)"/>
        <path class="anim-draw" id="DejaVuSans-35" d="M 691 4666 
L 3169 4666 
L 3169 4134 
L 1269 4134 
L 1269 2991 
Q 1406 3038 1543 3061 
Q 1681 3084 1819 3084 
Q 2600 3084 3056 2656 
Q 3513 2228 3513 1497 
Q 3513 744 3044 326 
Q 2575 -91 1722 -91 
Q 1428 -91 1123 -41 
Q 819 9 494 109 
L 494 744 
Q 775 591 1075 516 
Q 1375 441 1709 441 
Q 2250 441 2565 725 
Q 2881 1009 2881 1497 
Q 2881 1984 2565 2268 
Q 2250 2553 1709 2553 
Q 1456 2553 1204 2497 
Q 953 2441 691 2322 
L 691 4666 
z
" transform="scale(0.015625)"/>
       </defs>
       <use xlink:href="#DejaVuSans-30"/>
       <use xlink:href="#DejaVuSans-2e" transform="translate(63.623047 0)"/>
       <use xlink:href="#DejaVuSans-32" transform="translate(95.410156 0)"/>
       <use xlink:href="#DejaVuSans-35" transform="translate(159.033203 0)"/>
      </g>
     </g>
    </g>
    <g class="tick xtick">
     <g id="line2d_5">
      <path class="anim-draw" d="M 132.800246 297.430125 
L 132.800246 31.318125 
" clip-path="url(#pf631f08ec2)" style="fill: none; stroke: #b0b0b0; stroke-opacity: 0.1; stroke-width: 0.8; stroke-linecap: square"/>
     </g>
     <g id="line2d_6">
      <g>
       <use xlink:href="#mb550aef207" x="132.800246" y="297.430125" style="stroke: currentColor; stroke-width: 0.8"/>
      </g>
     </g>
     <g id="text_3" class="text">
      <!-- 0.50 -->
      <g transform="translate(122.780715 311.268719) scale(0.09 -0.09)">
       <use xlink:href="#DejaVuSans-30"/>
       <use xlink:href="#DejaVuSans-2e" transform="translate(63.623047 0)"/>
       <use xlink:href="#DejaVuSans-35" transform="translate(95.410156 0)"/>
       <use xlink:href="#DejaVuSans-30" transform="translate(159.033203 0)"/>
      </g>
     </g>
    </g>
    <g class="tick xtick">
     <g id="line2d_7">
      <path class="anim-draw" d="M 161.923715 297.430125 
L 161.923715 31.318125 
" clip-path="url(#pf631f08ec2)" style="fill: none; stroke: #b0b0b0; stroke-opacity: 0.1; stroke-width: 0.8; stroke-linecap: square"/>
     </g>
     <g id="line2d_8">
      <g>
       <use xlink:href="#mb550aef207" x="161.923715" y="297.430125" style="stroke: currentColor; stroke-width: 0.8"/>
      </g>
     </g>
     <g id="text_4" class="text">
      <!-- 0.75 -->
      <g transform="translate(151.904184 311.268719) scale(0.09 -0.09)">
       <defs>
        <path class="anim-draw" id="DejaVuSans-37" d="M 525 4666 
L 3525 4666 
L 3525 4397 
L 1831 0 
L 1172 0 
L 2766 4134 
L 525 4134 
L 525 4666 
z
" transform="scale(0.015625)"/>
       </defs>
       <use xlink:href="#DejaVuSans-30"/>
       <use xlink:href="#DejaVuSans-2e" transform="translate(63.623047 0)"/>
       <use xlink:href="#DejaVuSans-37" transform="translate(95.410156 0)"/>
       <use xlink:href="#DejaVuSans-35" transform="translate(159.033203 0)"/>
      </g>
     </g>
    </g>
    <g class="tick xtick">
     <g id="line2d_9">
      <path class="anim-draw" d="M 191.047185 297.430125 
L 191.047185 31.318125 
" clip-path="url(#pf631f08ec2)" style="fill: none; stroke: #b0b0b0; stroke-opacity: 0.1; stroke-width: 0.8; stroke-linecap: square"/>
     </g>
     <g id="line2d_10">
      <g>
       <use xlink:href="#mb550aef207" x="191.047185" y="297.430125" style="stroke: currentColor; stroke-width: 0.8"/>
      </g>
     </g>
     <g id="text_5" class="text">
      <!-- 1.00 -->
      <g transform="translate(181.027654 311.268719) scale(0.09 -0.09)">
       <defs>
        <path class="anim-draw" id="DejaVuSans-31" d="M 794 531 
L 1825 531 
L 1825 4091 
L 703 3866 
L 703 4441 
L 1819 4666 
L 2450 4666 
L 2450 531 
L 3481 531 
L 3481 0 
L 794 0 
L 794 531 
z
" transform="scale(0.015625)"/>
       </defs>
       <use xlink:href="#DejaVuSans-31"/>
       <use xlink:href="#DejaVuSans-2e" transform="translate(63.623047 0)"/>
       <use xlink:href="#DejaVuSans-30" transform="translate(95.410156 0)"/>
       <use xlink:href="#DejaVuSans-30" transform="translate(159.033203 0)"/>
      </g>
     </g>
    </g>
    <g class="tick xtick">
     <g id="line2d_11">
      <path class="anim-draw" d="M 220.170654 297.430125 
L 220.170654 31.318125 
" clip-path="url(#pf631f08ec2)" style="fill: none; stroke: #b0b0b0; stroke-opacity: 0.1; stroke-width: 0.8; stroke-linecap: square"/>
     </g>
     <g id="line2d_12">
      <g>
       <use xlink:href="#mb550aef207" x="220.170654" y="297.430125" style="stroke: currentColor; stroke-width: 0.8"/>
      </g>
     </g>
     <g id="text_6" class="text">
      <!-- 1.25 -->
      <g transform="translate(210.151123 311.268719) scale(0.09 -0.09)">
       <use xlink:href="#DejaVuSans-31"/>
       <use xlink:href="#DejaVuSans-2e" transform="translate(63.623047 0)"/>
       <use xlink:href="#DejaVuSans-32" transform="translate(95.410156 0)"/>
       <use xlink:href="#DejaVuSans-35" transform="translate(159.033203 0)"/>
      </g>
     </g>
    </g>
    <g class="tick xtick">
     <g id="line2d_13">
      <path class="anim-draw" d="M 249.294124 297.430125 
L 249.294124 31.318125 
" clip-path="url(#pf631f08ec2)" style="fill: none; stroke: #b0b0b0; stroke-opacity: 0.1; stroke-width: 0.8; stroke-linecap: square"/>
     </g>
     <g id="line2d_14">
      <g>
       <use xlink:href="#mb550aef207" x="249.294124" y="297.430125" style="stroke: currentColor; stroke-width: 0.8"/>
      </g>
     </g>
     <g id="text_7" class="text">
      <!-- 1.50 -->
      <g transform="translate(239.274593 311.268719) scale(0.09 -0.09)">
       <use xlink:href="#DejaVuSans-31"/>
       <use xlink:href="#DejaVuSans-2e" transform="translate(63.623047 0)"/>
       <use xlink:href="#DejaVuSans-35" transform="translate(95.410156 0)"/>
       <use xlink:href="#DejaVuSans-30" transform="translate(159.033203 0)"/>
      </g>
     </g>
    </g>
    <g class="tick xtick">
     <g id="line2d_15">
      <path class="anim-draw" d="M 278.417594 297.430125 
L 278.417594 31.318125 
" clip-path="url(#pf631f08ec2)" style="fill: none; stroke: #b0b0b0; stroke-opacity: 0.1; stroke-width: 0.8; stroke-linecap: square"/>
     </g>
     <g id="line2d_16">
      <g>
       <use xlink:href="#mb550aef207" x="278.417594" y="297.430125" style="stroke: currentColor; stroke-width: 0.8"/>
      </g>
     </g>
     <g id="text_8" class="text">
      <!-- 1.75 -->
      <g transform="translate(268.398062 311.268719) scale(0.09 -0.09)">
       <use xlink:href="#DejaVuSans-31"/>
       <use xlink:href="#DejaVuSans-2e" transform="translate(63.623047 0)"/>
       <use xlink:href="#DejaVuSans-37" transform="translate(95.410156 0)"/>
       <use xlink:href="#DejaVuSans-35" transform="translate(159.033203 0)"/>
      </g>
     </g>
    </g>
    <g id="text_9" class="text">
     <!-- $t$ -->
     <g transform="translate(165.610451 324.738875) scale(0.1 -0.1)">
      <defs>
       <path class="anim-draw" id="DejaVuSans-Oblique-74" d="M 2706 3500 
L 2619 3053 
L 1472 3053 
L 1100 1153 
Q 1081 1047 1072 975 
Q 1063 903 1063 863 
Q 1063 663 1183 572 
Q 1303 481 1569 481 
L 2150 481 
L 2053 0 
L 1503 0 
Q 991 0 739 200 
Q 488 400 488 806 
Q 488 878 497 964 
Q 506 1050 525 1153 
L 897 3053 
L 409 3053 
L 500 3500 
L 978 3500 
L 1172 4494 
L 1747 4494 
L 1556 3500 
L 2706 3500 
z
" transform="scale(0.015625)"/>
      </defs>
      <use xlink:href="#DejaVuSans-Oblique-74" transform="translate(0 0.78125)"/>
     </g>
    </g>
   </g>
   <g class="axis">
    <g class="tick ytick">
     <g id="line2d_17">
      <path class="anim-draw" d="M 51.254531 275.679352 
L 283.96637 275.679352 
" clip-path="url(#pf631f08ec2)" style="fill: none; stroke: #b0b0b0; stroke-opacity: 0.1; stroke-width: 0.8; stroke-linecap: square"/>
     </g>
     <g id="line2d_18">
      <defs>
       <path class="anim-draw" id="mfc766cf8d3" d="M 0 0 
L -3.5 0 
" style="stroke: currentColor; stroke-width: 0.8"/>
      </defs>
      <g>
       <use xlink:href="#mfc766cf8d3" x="51.254531" y="275.679352" style="stroke: currentColor; stroke-width: 0.8"/>
      </g>
     </g>
     <g id="text_10" class="text">
      <!-- −0.5 -->
      <g transform="translate(22.4 279.098649) scale(0.09 -0.09)">
       <defs>
        <path class="anim-draw" id="DejaVuSans-2212" d="M 678 2272 
L 4684 2272 
L 4684 1741 
L 678 1741 
L 678 2272 
z
" transform="scale(0.015625)"/>
       </defs>
       <use xlink:href="#DejaVuSans-2212"/>
       <use xlink:href="#DejaVuSans-30" transform="translate(83.789062 0)"/>
       <use xlink:href="#DejaVuSans-2e" transform="translate(147.412109 0)"/>
       <use xlink:href="#DejaVuSans-35" transform="translate(179.199219 0)"/>
      </g>
     </g>
    </g>
    <g class="tick ytick">
     <g id="line2d_19">
      <path class="anim-draw" d="M 51.254531 217.432413 
L 283.96637 217.432413 
" clip-path="url(#pf631f08ec2)" style="fill: none; stroke: #b0b0b0; stroke-opacity: 0.1; stroke-width: 0.8; stroke-linecap: square"/>
     </g>
     <g id="line2d_20">
      <g>
       <use xlink:href="#mfc766cf8d3" x="51.254531" y="217.432413" style="stroke: currentColor; stroke-width: 0.8"/>
      </g>
     </g>
     <g id="text_11" class="text">
      <!-- 0.0 -->
      <g transform="translate(29.941719 220.851709) scale(0.09 -0.09)">
       <use xlink:href="#DejaVuSans-30"/>
       <use xlink:href="#DejaVuSans-2e" transform="translate(63.623047 0)"/>
       <use xlink:href="#DejaVuSans-30" transform="translate(95.410156 0)"/>
      </g>
     </g>
    </g>
    <g class="tick ytick">
     <g id="line2d_21">
      <path class="anim-draw" d="M 51.254531 159.185474 
L 283.96637 159.185474 
" clip-path="url(#pf631f08ec2)" style="fill: none; stroke: #b0b0b0; stroke-opacity: 0.1; stroke-width: 0.8; stroke-linecap: square"/>
     </g>
     <g id="line2d_22">
      <g>
       <use xlink:href="#mfc766cf8d3" x="51.254531" y="159.185474" style="stroke: currentColor; stroke-width: 0.8"/>
      </g>
     </g>
     <g id="text_12" class="text">
      <!-- 0.5 -->
      <g transform="translate(29.941719 162.60477) scale(0.09 -0.09)">
       <use xlink:href="#DejaVuSans-30"/>
       <use xlink:href="#DejaVuSans-2e" transform="translate(63.623047 0)"/>
       <use xlink:href="#DejaVuSans-35" transform="translate(95.410156 0)"/>
      </g>
     </g>
    </g>
    <g class="tick ytick">
     <g id="line2d_23">
      <path class="anim-draw" d="M 51.254531 100.938534 
L 283.96637 100.938534 
" clip-path="url(#pf631f08ec2)" style="fill: none; stroke: #b0b0b0; stroke-opacity: 0.1; stroke-width: 0.8; stroke-linecap: square"/>
     </g>
     <g id="line2d_24">
      <g>
       <use xlink:href="#mfc766cf8d3" x="51.254531" y="100.938534" style="stroke: currentColor; stroke-width: 0.8"/>
      </g>
     </g>
     <g id="text_13" class="text">
      <!-- 1.0 -->
      <g transform="translate(29.941719 104.357831) scale(0.09 -0.09)">
       <use xlink:href="#DejaVuSans-31"/>
       <use xlink:href="#DejaVuSans-2e" transform="translate(63.623047 0)"/>
       <use xlink:href="#DejaVuSans-30" transform="translate(95.410156 0)"/>
      </g>
     </g>
    </g>
    <g class="tick ytick">
     <g id="line2d_25">
      <path class="anim-draw" d="M 51.254531 42.691595 
L 283.96637 42.691595 
" clip-path="url(#pf631f08ec2)" style="fill: none; stroke: #b0b0b0; stroke-opacity: 0.1; stroke-width: 0.8; stroke-linecap: square"/>
     </g>
     <g id="line2d_26">
      <g>
       <use xlink:href="#mfc766cf8d3" x="51.254531" y="42.691595" style="stroke: currentColor; stroke-width: 0.8"/>
      </g>
     </g>
     <g id="text_14" class="text">
      <!-- 1.5 -->
      <g transform="translate(29.941719 46.110892) scale(0.09 -0.09)">
       <use xlink:href="#DejaVuSans-31"/>
       <use xlink:href="#DejaVuSans-2e" transform="translate(63.623047 0)"/>
       <use xlink:href="#DejaVuSans-35" transform="translate(95.410156 0)"/>
      </g>
     </g>
    </g>
    <g id="text_15" class="text">
     <!-- $\beta(t), \beta^2(t)$ -->
     <g transform="translate(16.3 187.824125) rotate(-90) scale(0.1 -0.1)">
      <defs>
       <path class="anim-draw" id="DejaVuSans-Oblique-3b2" d="M 872 216 
L 572 -1331 
L -6 -1331 
L 928 3478 
Q 1206 4903 2538 4903 
Q 3888 4903 3659 3700 
Q 3503 2844 2894 2531 
Q 3713 2250 3553 1416 
Q 3272 -69 1759 -66 
Q 1097 -63 872 216 
z
M 1019 966 
Q 1259 422 1875 425 
Q 2775 425 2966 1406 
Q 3138 2288 1675 2219 
L 1778 2750 
Q 2909 2731 3106 3750 
Q 3241 4438 2509 4434 
Q 1691 4434 1503 3459 
L 1019 966 
z
" transform="scale(0.015625)"/>
       <path class="anim-draw" id="DejaVuSans-28" d="M 1984 4856 
Q 1566 4138 1362 3434 
Q 1159 2731 1159 2009 
Q 1159 1288 1364 580 
Q 1569 -128 1984 -844 
L 1484 -844 
Q 1016 -109 783 600 
Q 550 1309 550 2009 
Q 550 2706 781 3412 
Q 1013 4119 1484 4856 
L 1984 4856 
z
" transform="scale(0.015625)"/>
       <path class="anim-draw" id="DejaVuSans-29" d="M 513 4856 
L 1013 4856 
Q 1481 4119 1714 3412 
Q 1947 2706 1947 2009 
Q 1947 1309 1714 600 
Q 1481 -109 1013 -844 
L 513 -844 
Q 928 -128 1133 580 
Q 1338 1288 1338 2009 
Q 1338 2731 1133 3434 
Q 928 4138 513 4856 
z
" transform="scale(0.015625)"/>
       <path class="anim-draw" id="DejaVuSans-2c" d="M 750 794 
L 1409 794 
L 1409 256 
L 897 -744 
L 494 -744 
L 750 256 
L 750 794 
z
" transform="scale(0.015625)"/>
      </defs>
      <use xlink:href="#DejaVuSans-Oblique-3b2" transform="translate(0 0.765625)"/>
      <use xlink:href="#DejaVuSans-28" transform="translate(63.818359 0.765625)"/>
      <use xlink:href="#DejaVuSans-Oblique-74" transform="translate(102.832031 0.765625)"/>
      <use xlink:href="#DejaVuSans-29" transform="translate(142.041016 0.765625)"/>
      <use xlink:href="#DejaVuSans-2c" transform="translate(181.054688 0.765625)"/>
      <use xlink:href="#DejaVuSans-Oblique-3b2" transform="translate(232.324219 0.765625)"/>
      <use xlink:href="#DejaVuSans-32" transform="translate(303.677786 39.046875) scale(0.7)"/>
      <use xlink:href="#DejaVuSans-28" transform="translate(350.948294 0.765625)"/>
      <use xlink:href="#DejaVuSans-Oblique-74" transform="translate(389.961966 0.765625)"/>
      <use xlink:href="#DejaVuSans-29" transform="translate(429.170951 0.765625)"/>
     </g>
    </g>
   </g>
   <g id="line2d_27">
    <path class="anim-draw" d="M 74.553307 217.432413 
L 75.718246 219.6733 
L 76.883184 216.160458 
L 78.048123 216.564829 
L 79.213062 230.179213 
L 80.378001 216.866027 
L 81.54294 208.106467 
L 82.707878 198.891429 
L 83.872817 209.485236 
L 85.037756 193.143541 
L 86.202695 209.474248 
L 87.367633 202.637722 
L 88.532572 177.120255 
L 89.697511 188.659397 
L 90.86245 195.256419 
L 92.027389 194.095541 
L 93.192327 199.960724 
L 94.357266 218.025004 
L 95.522205 217.226287 
L 96.687144 229.601475 
L 97.852082 224.084413 
L 99.017021 234.795143 
L 100.18196 216.739356 
L 101.346899 225.863777 
L 102.511838 229.615597 
L 103.676776 220.138619 
L 104.841715 234.477435 
L 106.006654 231.827666 
L 107.171593 216.600253 
L 108.336532 235.326449 
L 109.50147 233.175577 
L 110.666409 230.148102 
L 111.831348 221.040344 
L 112.996287 235.450063 
L 114.161225 250.832574 
L 115.326164 244.752274 
L 116.491103 241.292584 
L 117.656042 238.374496 
L 118.820981 234.338587 
L 119.985919 242.260458 
L 121.150858 239.554845 
L 122.315797 236.14073 
L 123.480736 244.462487 
L 124.645674 222.727356 
L 125.810613 217.207492 
L 126.975552 231.085449 
L 128.140491 223.437001 
L 129.30543 234.791446 
L 130.470368 225.622392 
L 131.635307 212.125463 
L 132.800246 221.68591 
L 133.965185 210.463167 
L 135.130123 205.654522 
L 136.295062 196.078025 
L 137.460001 173.981548 
L 138.62494 176.840169 
L 139.789879 185.620734 
L 140.954817 195.983032 
L 142.119756 205.486723 
L 143.284695 206.384911 
L 144.449634 202.410699 
L 145.614573 199.18742 
L 146.779511 189.551242 
L 147.94445 189.399778 
L 149.109389 172.466996 
L 150.274328 175.550086 
L 151.439266 143.86178 
L 152.604205 136.573139 
L 153.769144 146.558499 
L 154.934083 159.033742 
L 156.099022 153.413233 
L 157.26396 156.016438 
L 158.428899 147.698769 
L 159.593838 142.185841 
L 160.758777 143.034253 
L 161.923715 152.898881 
L 163.088654 170.545924 
L 164.253593 175.74755 
L 165.418532 165.771028 
L 166.583471 163.276967 
L 167.748409 177.789061 
L 168.913348 175.77161 
L 170.078287 171.282898 
L 171.243226 181.579296 
L 172.408164 179.788493 
L 173.573103 179.110397 
L 174.738042 192.425301 
L 175.902981 188.257297 
L 177.06792 181.724501 
L 178.232858 169.107617 
L 179.397797 156.831468 
L 180.562736 172.880473 
L 181.727675 183.80556 
L 182.892613 177.805715 
L 184.057552 171.820423 
L 185.222491 165.820433 
L 186.38743 120.93847 
L 187.552369 114.287945 
L 188.717307 101.0593 
L 189.882246 89.945764 
" clip-path="url(#pf631f08ec2)" style="fill: none; stroke: #8000ff; stroke-width: 2; stroke-linecap: square"/>
   </g>
   <g id="line2d_28">
    <path class="anim-draw" d="M 74.553307 217.432413 
L 75.718246 217.389307 
L 76.883184 217.418525 
L 78.048123 217.425951 
L 79.213062 216.037653 
L 80.378001 217.429659 
L 81.54294 216.685822 
L 82.707878 214.481459 
L 83.872817 216.890259 
L 85.037756 212.368204 
L 86.202695 216.888758 
L 87.367633 215.553491 
L 88.532572 203.48258 
L 89.697511 210.325718 
L 90.86245 213.210949 
L 92.027389 212.757407 
L 93.192327 214.812018 
L 94.357266 217.429398 
L 95.522205 217.432048 
L 96.687144 216.161221 
L 97.852082 217.052572 
L 99.017021 214.844599 
L 100.18196 217.428289 
L 101.346899 216.822184 
L 102.511838 216.158269 
L 103.676776 217.369546 
L 104.841715 214.938438 
L 106.006654 215.653578 
L 107.171593 217.426468 
L 108.336532 214.6838 
L 109.50147 215.304857 
L 110.666409 216.044453 
L 111.831348 217.320671 
L 112.996287 214.645694 
L 114.161225 207.856195 
L 115.326164 211.025425 
L 116.491103 212.545394 
L 117.656042 213.667658 
L 118.820981 214.978904 
L 119.985919 212.140874 
L 121.150858 213.231316 
L 122.315797 214.427953 
L 123.480736 211.160625 
L 124.645674 217.191744 
L 125.810613 217.431978 
L 126.975552 215.832282 
L 128.140491 217.122911 
L 129.30543 214.845701 
L 130.470368 216.856625 
L 131.635307 217.190651 
L 132.800246 217.277106 
L 133.965185 217.015478 
L 135.130123 216.241632 
L 136.295062 213.517959 
L 137.460001 201.225744 
L 138.62494 203.288062 
L 139.789879 208.745408 
L 140.954817 213.483056 
L 142.119756 216.20746 
L 143.284695 216.384741 
L 144.449634 215.495385 
L 145.614573 214.574926 
L 146.779511 210.759447 
L 147.94445 210.686748 
L 149.109389 200.076233 
L 150.274328 202.374717 
L 151.439266 170.96956 
L 152.604205 161.307385 
L 153.769144 174.313309 
L 154.934083 188.157013 
L 156.099022 182.25069 
L 157.26396 185.053699 
L 158.428899 175.689609 
L 159.593838 168.8286 
L 160.758777 169.918447 
L 161.923715 181.683095 
L 163.088654 198.561526 
L 164.253593 202.516369 
L 165.418532 194.522208 
L 166.583471 192.256735 
L 167.748409 203.941615 
L 168.913348 202.533582 
L 170.078287 199.150098 
L 171.243226 206.397962 
L 172.408164 205.268128 
L 173.573103 204.82594 
L 174.738042 212.064271 
L 175.902981 210.125699 
L 177.06792 206.48716 
L 178.232858 197.385987 
L 179.397797 185.90737 
L 180.562736 200.393961 
L 181.727675 207.725764 
L 182.892613 203.952947 
L 184.057552 199.573503 
L 185.222491 194.566005 
L 186.38743 137.50477 
L 187.552369 126.107603 
L 188.717307 101.17994 
L 189.882246 77.915676 
" clip-path="url(#pf631f08ec2)" style="fill: none; stroke: #ff8000; stroke-width: 2; stroke-linecap: square"/>
   </g>
   <g class="patch">
    <path class="anim-draw" d="M 51.254531 297.430125 
L 51.254531 31.318125 
" style="fill: none; stroke: currentColor; stroke-width: 0.8; stroke-linejoin: miter; stroke-linecap: square"/>
   </g>
   <g class="patch">
    <path class="anim-draw" d="M 51.254531 297.430125 
L 283.96637 297.430125 
" style="fill: none; stroke: currentColor; stroke-width: 0.8; stroke-linejoin: miter; stroke-linecap: square"/>
   </g>
   <g id="text_16" class="text">
    <!-- Brownian motion and its squared version -->
    <g transform="translate(44.437013 16.318125) scale(0.12 -0.12)">
     <defs>
      <path class="anim-draw" id="DejaVuSans-42" d="M 1259 2228 
L 1259 519 
L 2272 519 
Q 2781 519 3026 730 
Q 3272 941 3272 1375 
Q 3272 1813 3026 2020 
Q 2781 2228 2272 2228 
L 1259 2228 
z
M 1259 4147 
L 1259 2741 
L 2194 2741 
Q 2656 2741 2882 2914 
Q 3109 3088 3109 3444 
Q 3109 3797 2882 3972 
Q 2656 4147 2194 4147 
L 1259 4147 
z
M 628 4666 
L 2241 4666 
Q 2963 4666 3353 4366 
Q 3744 4066 3744 3513 
Q 3744 3084 3544 2831 
Q 3344 2578 2956 2516 
Q 3422 2416 3680 2098 
Q 3938 1781 3938 1306 
Q 3938 681 3513 340 
Q 3088 0 2303 0 
L 628 0 
L 628 4666 
z
" transform="scale(0.015625)"/>
      <path class="anim-draw" id="DejaVuSans-72" d="M 2631 2963 
Q 2534 3019 2420 3045 
Q 2306 3072 2169 3072 
Q 1681 3072 1420 2755 
Q 1159 2438 1159 1844 
L 1159 0 
L 581 0 
L 581 3500 
L 1159 3500 
L 1159 2956 
Q 1341 3275 1631 3429 
Q 1922 3584 2338 3584 
Q 2397 3584 2469 3576 
Q 2541 3569 2628 3553 
L 2631 2963 
z
" transform="scale(0.015625)"/>
      <path class="anim-draw" id="DejaVuSans-6f" d="M 1959 3097 
Q 1497 3097 1228 2736 
Q 959 2375 959 1747 
Q 959 1119 1226 758 
Q 1494 397 1959 397 
Q 2419 397 2687 759 
Q 2956 1122 2956 1747 
Q 2956 2369 2687 2733 
Q 2419 3097 1959 3097 
z
M 1959 3584 
Q 2709 3584 3137 3096 
Q 3566 2609 3566 1747 
Q 3566 888 3137 398 
Q 2709 -91 1959 -91 
Q 1206 -91 779 398 
Q 353 888 353 1747 
Q 353 2609 779 3096 
Q 1206 3584 1959 3584 
z
" transform="scale(0.015625)"/>
      <path class="anim-draw" id="DejaVuSans-77" d="M 269 3500 
L 844 3500 
L 1563 769 
L 2278 3500 
L 2956 3500 
L 3675 769 
L 4391 3500 
L 4966 3500 
L 4050 0 
L 3372 0 
L 2619 2869 
L 1863 0 
L 1184 0 
L 269 3500 
z
" transform="scale(0.015625)"/>
      <path class="anim-draw" id="DejaVuSans-6e" d="M 3513 2113 
L 3513 0 
L 2938 0 
L 2938 2094 
Q 2938 2591 2744 2837 
Q 2550 3084 2163 3084 
Q 1697 3084 1428 2787 
Q 1159 2491 1159 1978 
L 1159 0 
L 581 0 
L 581 3500 
L 1159 3500 
L 1159 2956 
Q 1366 3272 1645 3428 
Q 1925 3584 2291 3584 
Q 2894 3584 3203 3211 
Q 3513 2838 3513 2113 
z
" transform="scale(0.015625)"/>
      <path class="anim-draw" id="DejaVuSans-69" d="M 603 3500 
L 1178 3500 
L 1178 0 
L 603 0 
L 603 3500 
z
M 603 4863 
L 1178 4863 
L 1178 4134 
L 603 4134 
L 603 4863 
z
" transform="scale(0.015625)"/>
      <path class="anim-draw" id="DejaVuSans-61" d="M 2194 1759 
Q 1497 1759 1228 1600 
Q 959 1441 959 1056 
Q 959 750 1161 570 
Q 1363 391 1709 391 
Q 2188 391 2477 730 
Q 2766 1069 2766 1631 
L 2766 1759 
L 2194 1759 
z
M 3341 1997 
L 3341 0 
L 2766 0 
L 2766 531 
Q 2569 213 2275 61 
Q 1981 -91 1556 -91 
Q 1019 -91 701 211 
Q 384 513 384 1019 
Q 384 1609 779 1909 
Q 1175 2209 1959 2209 
L 2766 2209 
L 2766 2266 
Q 2766 2663 2505 2880 
Q 2244 3097 1772 3097 
Q 1472 3097 1187 3025 
Q 903 2953 641 2809 
L 641 3341 
Q 956 3463 1253 3523 
Q 1550 3584 1831 3584 
Q 2591 3584 2966 3190 
Q 3341 2797 3341 1997 
z
" transform="scale(0.015625)"/>
      <path class="anim-draw" id="DejaVuSans-20" transform="scale(0.015625)"/>
      <path class="anim-draw" id="DejaVuSans-6d" d="M 3328 2828 
Q 3544 3216 3844 3400 
Q 4144 3584 4550 3584 
Q 5097 3584 5394 3201 
Q 5691 2819 5691 2113 
L 5691 0 
L 5113 0 
L 5113 2094 
Q 5113 2597 4934 2840 
Q 4756 3084 4391 3084 
Q 3944 3084 3684 2787 
Q 3425 2491 3425 1978 
L 3425 0 
L 2847 0 
L 2847 2094 
Q 2847 2600 2669 2842 
Q 2491 3084 2119 3084 
Q 1678 3084 1418 2786 
Q 1159 2488 1159 1978 
L 1159 0 
L 581 0 
L 581 3500 
L 1159 3500 
L 1159 2956 
Q 1356 3278 1631 3431 
Q 1906 3584 2284 3584 
Q 2666 3584 2933 3390 
Q 3200 3197 3328 2828 
z
" transform="scale(0.015625)"/>
      <path class="anim-draw" id="DejaVuSans-74" d="M 1172 4494 
L 1172 3500 
L 2356 3500 
L 2356 3053 
L 1172 3053 
L 1172 1153 
Q 1172 725 1289 603 
Q 1406 481 1766 481 
L 2356 481 
L 2356 0 
L 1766 0 
Q 1100 0 847 248 
Q 594 497 594 1153 
L 594 3053 
L 172 3053 
L 172 3500 
L 594 3500 
L 594 4494 
L 1172 4494 
z
" transform="scale(0.015625)"/>
      <path class="anim-draw" id="DejaVuSans-64" d="M 2906 2969 
L 2906 4863 
L 3481 4863 
L 3481 0 
L 2906 0 
L 2906 525 
Q 2725 213 2448 61 
Q 2172 -91 1784 -91 
Q 1150 -91 751 415 
Q 353 922 353 1747 
Q 353 2572 751 3078 
Q 1150 3584 1784 3584 
Q 2172 3584 2448 3432 
Q 2725 3281 2906 2969 
z
M 947 1747 
Q 947 1113 1208 752 
Q 1469 391 1925 391 
Q 2381 391 2643 752 
Q 2906 1113 2906 1747 
Q 2906 2381 2643 2742 
Q 2381 3103 1925 3103 
Q 1469 3103 1208 2742 
Q 947 2381 947 1747 
z
" transform="scale(0.015625)"/>
      <path class="anim-draw" id="DejaVuSans-73" d="M 2834 3397 
L 2834 2853 
Q 2591 2978 2328 3040 
Q 2066 3103 1784 3103 
Q 1356 3103 1142 2972 
Q 928 2841 928 2578 
Q 928 2378 1081 2264 
Q 1234 2150 1697 2047 
L 1894 2003 
Q 2506 1872 2764 1633 
Q 3022 1394 3022 966 
Q 3022 478 2636 193 
Q 2250 -91 1575 -91 
Q 1294 -91 989 -36 
Q 684 19 347 128 
L 347 722 
Q 666 556 975 473 
Q 1284 391 1588 391 
Q 1994 391 2212 530 
Q 2431 669 2431 922 
Q 2431 1156 2273 1281 
Q 2116 1406 1581 1522 
L 1381 1569 
Q 847 1681 609 1914 
Q 372 2147 372 2553 
Q 372 3047 722 3315 
Q 1072 3584 1716 3584 
Q 2034 3584 2315 3537 
Q 2597 3491 2834 3397 
z
" transform="scale(0.015625)"/>
      <path class="anim-draw" id="DejaVuSans-71" d="M 947 1747 
Q 947 1113 1208 752 
Q 1469 391 1925 391 
Q 2381 391 2643 752 
Q 2906 1113 2906 1747 
Q 2906 2381 2643 2742 
Q 2381 3103 1925 3103 
Q 1469 3103 1208 2742 
Q 947 2381 947 1747 
z
M 2906 525 
Q 2725 213 2448 61 
Q 2172 -91 1784 -91 
Q 1150 -91 751 415 
Q 353 922 353 1747 
Q 353 2572 751 3078 
Q 1150 3584 1784 3584 
Q 2172 3584 2448 3432 
Q 2725 3281 2906 2969 
L 2906 3500 
L 3481 3500 
L 3481 -1331 
L 2906 -1331 
L 2906 525 
z
" transform="scale(0.015625)"/>
      <path class="anim-draw" id="DejaVuSans-75" d="M 544 1381 
L 544 3500 
L 1119 3500 
L 1119 1403 
Q 1119 906 1312 657 
Q 1506 409 1894 409 
Q 2359 409 2629 706 
Q 2900 1003 2900 1516 
L 2900 3500 
L 3475 3500 
L 3475 0 
L 2900 0 
L 2900 538 
Q 2691 219 2414 64 
Q 2138 -91 1772 -91 
Q 1169 -91 856 284 
Q 544 659 544 1381 
z
M 1991 3584 
L 1991 3584 
z
" transform="scale(0.015625)"/>
      <path class="anim-draw" id="DejaVuSans-65" d="M 3597 1894 
L 3597 1613 
L 953 1613 
Q 991 1019 1311 708 
Q 1631 397 2203 397 
Q 2534 397 2845 478 
Q 3156 559 3463 722 
L 3463 178 
Q 3153 47 2828 -22 
Q 2503 -91 2169 -91 
Q 1331 -91 842 396 
Q 353 884 353 1716 
Q 353 2575 817 3079 
Q 1281 3584 2069 3584 
Q 2775 3584 3186 3129 
Q 3597 2675 3597 1894 
z
M 3022 2063 
Q 3016 2534 2758 2815 
Q 2500 3097 2075 3097 
Q 1594 3097 1305 2825 
Q 1016 2553 972 2059 
L 3022 2063 
z
" transform="scale(0.015625)"/>
      <path class="anim-draw" id="DejaVuSans-76" d="M 191 3500 
L 800 3500 
L 1894 563 
L 2988 3500 
L 3597 3500 
L 2284 0 
L 1503 0 
L 191 3500 
z
" transform="scale(0.015625)"/>
     </defs>
     <use xlink:href="#DejaVuSans-42"/>
     <use xlink:href="#DejaVuSans-72" transform="translate(68.603516 0)"/>
     <use xlink:href="#DejaVuSans-6f" transform="translate(107.466797 0)"/>
     <use xlink:href="#DejaVuSans-77" transform="translate(168.648438 0)"/>
     <use xlink:href="#DejaVuSans-6e" transform="translate(250.435547 0)"/>
     <use xlink:href="#DejaVuSans-69" transform="translate(313.814453 0)"/>
     <use xlink:href="#DejaVuSans-61" transform="translate(341.597656 0)"/>
     <use xlink:href="#DejaVuSans-6e" transform="translate(402.876953 0)"/>
     <use xlink:href="#DejaVuSans-20" transform="translate(466.255859 0)"/>
     <use xlink:href="#DejaVuSans-6d" transform="translate(498.042969 0)"/>
     <use xlink:href="#DejaVuSans-6f" transform="translate(595.455078 0)"/>
     <use xlink:href="#DejaVuSans-74" transform="translate(656.636719 0)"/>
     <use xlink:href="#DejaVuSans-69" transform="translate(695.845703 0)"/>
     <use xlink:href="#DejaVuSans-6f" transform="translate(723.628906 0)"/>
     <use xlink:href="#DejaVuSans-6e" transform="translate(784.810547 0)"/>
     <use xlink:href="#DejaVuSans-20" transform="translate(848.189453 0)"/>
     <use xlink:href="#DejaVuSans-61" transform="translate(879.976562 0)"/>
     <use xlink:href="#DejaVuSans-6e" transform="translate(941.255859 0)"/>
     <use xlink:href="#DejaVuSans-64" transform="translate(1004.634766 0)"/>
     <use xlink:href="#DejaVuSans-20" transform="translate(1068.111328 0)"/>
     <use xlink:href="#DejaVuSans-69" transform="translate(1099.898438 0)"/>
     <use xlink:href="#DejaVuSans-74" transform="translate(1127.681641 0)"/>
     <use xlink:href="#DejaVuSans-73" transform="translate(1166.890625 0)"/>
     <use xlink:href="#DejaVuSans-20" transform="translate(1218.990234 0)"/>
     <use xlink:href="#DejaVuSans-73" transform="translate(1250.777344 0)"/>
     <use xlink:href="#DejaVuSans-71" transform="translate(1302.876953 0)"/>
     <use xlink:href="#DejaVuSans-75" transform="translate(1366.353516 0)"/>
     <use xlink:href="#DejaVuSans-61" transform="translate(1429.732422 0)"/>
     <use xlink:href="#DejaVuSans-72" transform="translate(1491.011719 0)"/>
     <use xlink:href="#DejaVuSans-65" transform="translate(1529.875 0)"/>
     <use xlink:href="#DejaVuSans-64" transform="translate(1591.398438 0)"/>
     <use xlink:href="#DejaVuSans-20" transform="translate(1654.875 0)"/>
     <use xlink:href="#DejaVuSans-76" transform="translate(1686.662109 0)"/>
     <use xlink:href="#DejaVuSans-65" transform="translate(1745.841797 0)"/>
     <use xlink:href="#DejaVuSans-72" transform="translate(1807.365234 0)"/>
     <use xlink:href="#DejaVuSans-73" transform="translate(1848.478516 0)"/>
     <use xlink:href="#DejaVuSans-69" transform="translate(1900.578125 0)"/>
     <use xlink:href="#DejaVuSans-6f" transform="translate(1928.361328 0)"/>
     <use xlink:href="#DejaVuSans-6e" transform="translate(1989.542969 0)"/>
    </g>
   </g>
   <g class="legend">
    <g class="patch">
     <path class="anim-draw" d="M 222.972133 71.740365 
L 273.012133 71.740365 
Q 274.812133 71.740365 274.812133 69.940365 
L 274.812133 42.940365 
Q 274.812133 41.140365 273.012133 41.140365 
L 222.972133 41.140365 
Q 221.172133 41.140365 221.172133 42.940365 
L 221.172133 69.940365 
Q 221.172133 71.740365 222.972133 71.740365 
z
" style="fill: #ffffff; opacity: 0.9; stroke: #cccccc; stroke-linejoin: miter"/>
    </g>
    <g id="line2d_29">
     <path class="anim-draw" d="M 224.772133 48.520365 
L 233.772133 48.520365 
L 242.772133 48.520365 
" style="fill: none; stroke: #8000ff; stroke-width: 2; stroke-linecap: square"/>
    </g>
    <g id="text_17" class="text">
     <!-- $\beta(t)$ -->
     <g transform="translate(249.972133 51.670365) scale(0.09 -0.09)">
      <use xlink:href="#DejaVuSans-Oblique-3b2" transform="translate(0 0.390625)"/>
      <use xlink:href="#DejaVuSans-28" transform="translate(63.818359 0.390625)"/>
      <use xlink:href="#DejaVuSans-Oblique-74" transform="translate(102.832031 0.390625)"/>
      <use xlink:href="#DejaVuSans-29" transform="translate(142.041016 0.390625)"/>
     </g>
    </g>
    <g id="line2d_30">
     <path class="anim-draw" d="M 224.772133 63.100365 
L 233.772133 63.100365 
L 242.772133 63.100365 
" style="fill: none; stroke: #ff8000; stroke-width: 2; stroke-linecap: square"/>
    </g>
    <g id="text_18" class="text">
     <!-- $\beta^2(t)$ -->
     <g transform="translate(249.972133 66.250365) scale(0.09 -0.09)">
      <use xlink:href="#DejaVuSans-Oblique-3b2" transform="translate(0 0.765625)"/>
      <use xlink:href="#DejaVuSans-32" transform="translate(71.353568 39.046875) scale(0.7)"/>
      <use xlink:href="#DejaVuSans-28" transform="translate(118.624076 0.765625)"/>
      <use xlink:href="#DejaVuSans-Oblique-74" transform="translate(157.637747 0.765625)"/>
      <use xlink:href="#DejaVuSans-29" transform="translate(196.846732 0.765625)"/>
     </g>
    </g>
   </g>
  </g>
 </g>
 <defs>
  <clipPath id="pf631f08ec2">
   <rect x="51.254531" y="31.318125" width="232.711839" height="266.112"/>
  </clipPath>
 </defs>

<script>
    document.addEventListener('DOMContentLoaded',()=>{
        document.querySelectorAll('.anim-draw').forEach(p=>{
            if(p.getTotalLength){
                const L=p.getTotalLength();
                p.style.setProperty('--len',L);
                p.setAttribute('stroke-dasharray',L);
                p.setAttribute('stroke-dashoffset',L);
            }
        });
    });
</script>
</svg>
