<svg xmlns="http://www.w3.org/2000/svg" xmlns:xlink="http://www.w3.org/1999/xlink" width="530.566" height="433.358" style="--axis-color:#000;--grid-stroke:rgba(0,0,0,0.2);--plot3d-stroke:rgba(0,0,0,0.3);--plot3d-grid:rgba(0,0,0,0.2);--black:#000000;--c1:#FF0001;--c2:#00FF02;--c3:#0000FF;--c4:#FF00FF;--c5:#00FFFF;--c6:#FFFF00;--c7:#FF8000;--c8:#8000FF;--gray:#7f7f7f;--grey:#7f7f7f;--octonary:#bcbd22;--primary:#d62728;--quaternary:#9467bd;--quinary:#8c564b;--secondary:#2ca02c;--senary:#e377c2;--septenary:#7f7f7f;--tertiary:#1f77b4;--white:#ffffff" viewBox="0 0 397.924 325.019"><style><![CDATA[@media (prefers-color-scheme:dark){:root{--axis-color:#fff;--grid-stroke:rgba(255,255,255,0.2);--plot3d-stroke:rgba(255,255,255,0.3);--plot3d-grid:rgba(255,255,255,0.2);--black:#FFFFFF;--c1:#FF0001;--c2:#00FF02;--c3:#0000FF;--c4:#FF00FF;--c5:#00FFFF;--c6:#FFFF00;--c7:#FF8000;--c8:#8000FF;--gray:#CCCCCC;--grey:#CCCCCC;--octonary:#E6DB74;--primary:#FF4A98;--quaternary:#B4A0FF;--quinary:#FFB86B;--secondary:#0AFAFA;--senary:#FF79C6;--septenary:#CCCCCC;--tertiary:#7F83FF;--white:#000000}}.text{fill:var(--axis-color)!important;stroke:none!important}.axis path,.patch path[style*="stroke: currentColor"],.tick path{stroke:var(--axis-color)!important}@media (prefers-color-scheme:dark){g.legend>g:first-child>path:first-child{fill:rgba(26,26,26,.8)!important;stroke:rgba(255,255,255,.1)!important}}*{stroke-linejoin:round;stroke-linecap:butt}]]></style><g id="figure_1"><path d="M0 325.019h397.924V0H0z" class="patch" style="fill:none"/><g id="axes_1"><path d="M33.604 288.43h357.12V22.318H33.604z" class="patch" style="fill:none"/><g class="axis"><g class="tick xtick"><path id="line2d_1" d="M49.837 288.43V22.318" clip-path="url(#pe2e37f6409)" style="fill:none;stroke:#b0b0b0;stroke-opacity:.15;stroke-width:.8;stroke-linecap:square"/><g id="line2d_2"><defs><path id="m4097dc0fde" d="M0 0v3.5" style="stroke:var(--black);stroke-width:.8"/></defs><use xlink:href="#m4097dc0fde" x="49.837" y="288.43" style="stroke:var(--black);stroke-width:.8"/></g><g id="text_1" class="text" transform="matrix(.09 0 0 -.09 42.68 302.269)"><defs><path id="DejaVuSans-30" d="M2034 4250q-487 0-733-480-245-479-245-1442 0-959 245-1439 246-480 733-480 491 0 736 480 246 480 246 1439 0 963-246 1442-245 480-736 480zm0 500q785 0 1199-621 414-620 414-1801 0-1178-414-1799Q2819-91 2034-91q-784 0-1198 620-414 621-414 1799 0 1181 414 1801 414 621 1198 621z" transform="scale(.01563)"/><path id="DejaVuSans-2e" d="M684 794h660V0H684z" transform="scale(.01563)"/></defs><use xlink:href="#DejaVuSans-30"/><use xlink:href="#DejaVuSans-2e" transform="translate(63.623)"/><use xlink:href="#DejaVuSans-30" transform="translate(95.41)"/></g></g><g class="tick xtick"><path id="line2d_3" d="M114.768 288.43V22.318" clip-path="url(#pe2e37f6409)" style="fill:none;stroke:#b0b0b0;stroke-opacity:.15;stroke-width:.8;stroke-linecap:square"/><use xlink:href="#m4097dc0fde" id="line2d_4" x="114.768" y="288.43" style="stroke:var(--black);stroke-width:.8"/><g id="text_2" class="text" transform="matrix(.09 0 0 -.09 107.612 302.269)"><defs><path id="DejaVuSans-32" d="M1228 531h2203V0H469v531q359 372 979 998 621 627 780 809 303 340 423 576 121 236 121 464 0 372-261 606-261 235-680 235-297 0-627-103-329-103-704-313v638q381 153 712 231 332 78 607 78 725 0 1156-363 431-362 431-968 0-288-108-546-107-257-392-607-78-91-497-524-418-433-1181-1211z" transform="scale(.01563)"/></defs><use xlink:href="#DejaVuSans-30"/><use xlink:href="#DejaVuSans-2e" transform="translate(63.623)"/><use xlink:href="#DejaVuSans-32" transform="translate(95.41)"/></g></g><g class="tick xtick"><path id="line2d_5" d="M179.699 288.43V22.318" clip-path="url(#pe2e37f6409)" style="fill:none;stroke:#b0b0b0;stroke-opacity:.15;stroke-width:.8;stroke-linecap:square"/><use xlink:href="#m4097dc0fde" id="line2d_6" x="179.699" y="288.43" style="stroke:var(--black);stroke-width:.8"/><g id="text_3" class="text" transform="matrix(.09 0 0 -.09 172.543 302.269)"><defs><path id="DejaVuSans-34" d="M2419 4116 825 1625h1594zm-166 550h794V1625h666v-525h-666V0h-628v1100H313v609z" transform="scale(.01563)"/></defs><use xlink:href="#DejaVuSans-30"/><use xlink:href="#DejaVuSans-2e" transform="translate(63.623)"/><use xlink:href="#DejaVuSans-34" transform="translate(95.41)"/></g></g><g class="tick xtick"><path id="line2d_7" d="M244.63 288.43V22.318" clip-path="url(#pe2e37f6409)" style="fill:none;stroke:#b0b0b0;stroke-opacity:.15;stroke-width:.8;stroke-linecap:square"/><use xlink:href="#m4097dc0fde" id="line2d_8" x="244.63" y="288.43" style="stroke:var(--black);stroke-width:.8"/><g id="text_4" class="text" transform="matrix(.09 0 0 -.09 237.473 302.269)"><defs><path id="DejaVuSans-36" d="M2113 2584q-425 0-674-291-248-290-248-796 0-503 248-796 249-292 674-292t673 292q248 293 248 796 0 506-248 796-248 291-673 291zm1253 1979v-575q-238 112-480 171-242 60-480 60-625 0-955-422-329-422-376-1275 184 272 462 417 279 145 613 145 703 0 1111-427 408-426 408-1160 0-719-425-1154Q2819-91 2113-91q-810 0-1238 620-428 621-428 1799 0 1106 525 1764t1409 658q238 0 480-47t505-140z" transform="scale(.01563)"/></defs><use xlink:href="#DejaVuSans-30"/><use xlink:href="#DejaVuSans-2e" transform="translate(63.623)"/><use xlink:href="#DejaVuSans-36" transform="translate(95.41)"/></g></g><g class="tick xtick"><path id="line2d_9" d="M309.56 288.43V22.318" clip-path="url(#pe2e37f6409)" style="fill:none;stroke:#b0b0b0;stroke-opacity:.15;stroke-width:.8;stroke-linecap:square"/><use xlink:href="#m4097dc0fde" id="line2d_10" x="309.561" y="288.43" style="stroke:var(--black);stroke-width:.8"/><g id="text_5" class="text" transform="matrix(.09 0 0 -.09 302.404 302.269)"><defs><path id="DejaVuSans-38" d="M2034 2216q-450 0-708-241-257-241-257-662 0-422 257-663 258-241 708-241t709 242q260 243 260 662 0 421-258 662-257 241-711 241zm-631 268q-406 100-633 378-226 279-226 679 0 559 398 884 399 325 1092 325 697 0 1094-325t397-884q0-400-227-679-226-278-629-378 456-106 710-416 255-309 255-755 0-679-414-1042Q2806-91 2034-91q-771 0-1186 362-414 363-414 1042 0 446 256 755 257 310 713 416zm-231 997q0-362 226-565 227-203 636-203 407 0 636 203 230 203 230 565 0 363-230 566-229 203-636 203-409 0-636-203-226-203-226-566z" transform="scale(.01563)"/></defs><use xlink:href="#DejaVuSans-30"/><use xlink:href="#DejaVuSans-2e" transform="translate(63.623)"/><use xlink:href="#DejaVuSans-38" transform="translate(95.41)"/></g></g><g class="tick xtick"><path id="line2d_11" d="M374.492 288.43V22.318" clip-path="url(#pe2e37f6409)" style="fill:none;stroke:#b0b0b0;stroke-opacity:.15;stroke-width:.8;stroke-linecap:square"/><use xlink:href="#m4097dc0fde" id="line2d_12" x="374.492" y="288.43" style="stroke:var(--black);stroke-width:.8"/><g id="text_6" class="text" transform="matrix(.09 0 0 -.09 367.335 302.269)"><defs><path id="DejaVuSans-31" d="M794 531h1031v3560L703 3866v575l1116 225h631V531h1031V0H794z" transform="scale(.01563)"/></defs><use xlink:href="#DejaVuSans-31"/><use xlink:href="#DejaVuSans-2e" transform="translate(63.623)"/><use xlink:href="#DejaVuSans-30" transform="translate(95.41)"/></g></g><g id="text_7" class="text" transform="matrix(.1 0 0 -.1 185.735 315.739)"><defs><path id="DejaVuSans-50" d="M1259 4147V2394h794q441 0 681 228 241 228 241 650 0 419-241 647-240 228-681 228zm-631 519h1425q785 0 1186-355 402-355 402-1039 0-691-402-1044-401-353-1186-353h-794V0H628z" transform="scale(.01563)"/><path id="DejaVuSans-72" d="M2631 2963q-97 56-211 82-114 27-251 27-488 0-749-317t-261-911V0H581v3500h578v-544q182 319 472 473 291 155 707 155 59 0 131-8 72-7 159-23z" transform="scale(.01563)"/><path id="DejaVuSans-6f" d="M1959 3097q-462 0-731-361t-269-989 267-989q268-361 733-361 460 0 728 362 269 363 269 988 0 622-269 986-268 364-728 364zm0 487q750 0 1178-488 429-487 429-1349 0-859-429-1349Q2709-91 1959-91q-753 0-1180 489-426 490-426 1349 0 862 426 1349 427 488 1180 488z" transform="scale(.01563)"/><path id="DejaVuSans-62" d="M3116 1747q0 634-261 995t-717 361q-457 0-718-361t-261-995 261-995 718-361q456 0 717 361t261 995zM1159 2969q182 312 458 463 277 152 661 152 638 0 1036-506 399-506 399-1331T3314 415Q2916-91 2278-91q-384 0-661 152-276 152-458 464V0H581v4863h578z" transform="scale(.01563)"/><path id="DejaVuSans-61" d="M2194 1759q-697 0-966-159t-269-544q0-306 202-486 202-179 548-179 479 0 768 339t289 901v128zm1147 238V0h-575v531q-197-318-491-470T1556-91q-537 0-855 302-317 302-317 808 0 590 395 890 396 300 1180 300h807v57q0 397-261 614t-733 217q-300 0-585-72-284-72-546-216v532q315 122 612 182 297 61 578 61 760 0 1135-394 375-393 375-1193z" transform="scale(.01563)"/><path id="DejaVuSans-69" d="M603 3500h575V0H603zm0 1363h575v-729H603z" transform="scale(.01563)"/><path id="DejaVuSans-6c" d="M603 4863h575V0H603z" transform="scale(.01563)"/><path id="DejaVuSans-74" d="M1172 4494v-994h1184v-447H1172V1153q0-428 117-550t477-122h590V0h-590q-666 0-919 248-253 249-253 905v1900H172v447h422v994z" transform="scale(.01563)"/><path id="DejaVuSans-79" d="M2059-325q-243-625-475-815-231-191-618-191H506v481h338q237 0 368 113 132 112 291 531l103 262L191 3500h609L1894 763l1094 2737h609z" transform="scale(.01563)"/></defs><use xlink:href="#DejaVuSans-50"/><use xlink:href="#DejaVuSans-72" transform="translate(58.553)"/><use xlink:href="#DejaVuSans-6f" transform="translate(97.416)"/><use xlink:href="#DejaVuSans-62" transform="translate(158.598)"/><use xlink:href="#DejaVuSans-61" transform="translate(222.074)"/><use xlink:href="#DejaVuSans-62" transform="translate(283.354)"/><use xlink:href="#DejaVuSans-69" transform="translate(346.83)"/><use xlink:href="#DejaVuSans-6c" transform="translate(374.613)"/><use xlink:href="#DejaVuSans-69" transform="translate(402.396)"/><use xlink:href="#DejaVuSans-74" transform="translate(430.18)"/><use xlink:href="#DejaVuSans-79" transform="translate(469.389)"/></g></g><g class="axis"><g class="tick ytick"><path id="line2d_13" d="M33.604 276.334h357.12" clip-path="url(#pe2e37f6409)" style="fill:none;stroke:#b0b0b0;stroke-opacity:.15;stroke-width:.8;stroke-linecap:square"/><g id="line2d_14"><defs><path id="m4791c948ab" d="M0 0h-3.5" style="stroke:var(--black);stroke-width:.8"/></defs><use xlink:href="#m4791c948ab" x="33.604" y="276.334" style="stroke:var(--black);stroke-width:.8"/></g><use xlink:href="#DejaVuSans-30" id="text_8" class="text" transform="matrix(.09 0 0 -.09 20.878 279.753)"/></g><g class="tick ytick"><path id="line2d_15" d="M33.604 245.484h357.12" clip-path="url(#pe2e37f6409)" style="fill:none;stroke:#b0b0b0;stroke-opacity:.15;stroke-width:.8;stroke-linecap:square"/><use xlink:href="#m4791c948ab" id="line2d_16" x="33.604" y="245.484" style="stroke:var(--black);stroke-width:.8"/><use xlink:href="#DejaVuSans-31" id="text_9" class="text" transform="matrix(.09 0 0 -.09 20.878 248.903)"/></g><g class="tick ytick"><path id="line2d_17" d="M33.604 214.634h357.12" clip-path="url(#pe2e37f6409)" style="fill:none;stroke:#b0b0b0;stroke-opacity:.15;stroke-width:.8;stroke-linecap:square"/><use xlink:href="#m4791c948ab" id="line2d_18" x="33.604" y="214.634" style="stroke:var(--black);stroke-width:.8"/><use xlink:href="#DejaVuSans-32" id="text_10" class="text" transform="matrix(.09 0 0 -.09 20.878 218.053)"/></g><g class="tick ytick"><path id="line2d_19" d="M33.604 183.784h357.12" clip-path="url(#pe2e37f6409)" style="fill:none;stroke:#b0b0b0;stroke-opacity:.15;stroke-width:.8;stroke-linecap:square"/><use xlink:href="#m4791c948ab" id="line2d_20" x="33.604" y="183.784" style="stroke:var(--black);stroke-width:.8"/><g id="text_11" class="text" transform="matrix(.09 0 0 -.09 20.878 187.203)"><defs><path id="DejaVuSans-33" d="M2597 2516q453-97 707-404 255-306 255-756 0-690-475-1069Q2609-91 1734-91q-293 0-604 58T488 141v609q262-153 574-231 313-78 654-78 593 0 904 234t311 681q0 413-289 645-289 233-804 233h-544v519h569q465 0 712 186t247 536q0 359-255 551-254 193-729 193-260 0-557-57-297-56-653-174v562q360 100 674 150t592 50q719 0 1137-327 419-326 419-882 0-388-222-655t-631-370z" transform="scale(.01563)"/></defs><use xlink:href="#DejaVuSans-33"/></g></g><g class="tick ytick"><path id="line2d_21" d="M33.604 152.934h357.12" clip-path="url(#pe2e37f6409)" style="fill:none;stroke:#b0b0b0;stroke-opacity:.15;stroke-width:.8;stroke-linecap:square"/><use xlink:href="#m4791c948ab" id="line2d_22" x="33.604" y="152.934" style="stroke:var(--black);stroke-width:.8"/><use xlink:href="#DejaVuSans-34" id="text_12" class="text" transform="matrix(.09 0 0 -.09 20.878 156.353)"/></g><g class="tick ytick"><path id="line2d_23" d="M33.604 122.083h357.12" clip-path="url(#pe2e37f6409)" style="fill:none;stroke:#b0b0b0;stroke-opacity:.15;stroke-width:.8;stroke-linecap:square"/><use xlink:href="#m4791c948ab" id="line2d_24" x="33.604" y="122.083" style="stroke:var(--black);stroke-width:.8"/><g id="text_13" class="text" transform="matrix(.09 0 0 -.09 20.878 125.503)"><defs><path id="DejaVuSans-35" d="M691 4666h2478v-532H1269V2991q137 47 274 70 138 23 276 23 781 0 1237-428 457-428 457-1159 0-753-469-1171Q2575-91 1722-91q-294 0-599 50Q819 9 494 109v635q281-153 581-228t634-75q541 0 856 284 316 284 316 772 0 487-316 771-315 285-856 285-253 0-505-56-251-56-513-175z" transform="scale(.01563)"/></defs><use xlink:href="#DejaVuSans-35"/></g></g><g class="tick ytick"><path id="line2d_25" d="M33.604 91.233h357.12" clip-path="url(#pe2e37f6409)" style="fill:none;stroke:#b0b0b0;stroke-opacity:.15;stroke-width:.8;stroke-linecap:square"/><use xlink:href="#m4791c948ab" id="line2d_26" x="33.604" y="91.233" style="stroke:var(--black);stroke-width:.8"/><use xlink:href="#DejaVuSans-36" id="text_14" class="text" transform="matrix(.09 0 0 -.09 20.878 94.653)"/></g><g class="tick ytick"><path id="line2d_27" d="M33.604 60.383h357.12" clip-path="url(#pe2e37f6409)" style="fill:none;stroke:#b0b0b0;stroke-opacity:.15;stroke-width:.8;stroke-linecap:square"/><use xlink:href="#m4791c948ab" id="line2d_28" x="33.604" y="60.383" style="stroke:var(--black);stroke-width:.8"/><g id="text_15" class="text" transform="matrix(.09 0 0 -.09 20.878 63.803)"><defs><path id="DejaVuSans-37" d="M525 4666h3000v-269L1831 0h-659l1594 4134H525z" transform="scale(.01563)"/></defs><use xlink:href="#DejaVuSans-37"/></g></g><g class="tick ytick"><path id="line2d_29" d="M33.604 29.533h357.12" clip-path="url(#pe2e37f6409)" style="fill:none;stroke:#b0b0b0;stroke-opacity:.15;stroke-width:.8;stroke-linecap:square"/><use xlink:href="#m4791c948ab" id="line2d_30" x="33.604" y="29.533" style="stroke:var(--black);stroke-width:.8"/><use xlink:href="#DejaVuSans-38" id="text_16" class="text" transform="matrix(.09 0 0 -.09 20.878 32.952)"/></g><g id="text_17" class="text" transform="matrix(0 -.1 -.1 0 14.798 174.383)"><defs><path id="DejaVuSans-44" d="M1259 4147V519h763q966 0 1414 437 448 438 448 1382 0 937-448 1373t-1414 436zm-631 519h1297q1356 0 1990-564 635-564 635-1764 0-1207-638-1773Q3275 0 1925 0H628z" transform="scale(.01563)"/><path id="DejaVuSans-65" d="M3597 1894v-281H953q38-594 358-905t892-311q331 0 642 81t618 244V178Q3153 47 2828-22t-659-69q-838 0-1327 487-489 488-489 1320 0 859 464 1363 464 505 1252 505 706 0 1117-455 411-454 411-1235zm-575 169q-6 471-264 752-258 282-683 282-481 0-770-272t-333-766z" transform="scale(.01563)"/><path id="DejaVuSans-6e" d="M3513 2113V0h-575v2094q0 497-194 743-194 247-581 247-466 0-735-297-269-296-269-809V0H581v3500h578v-544q207 316 486 472 280 156 646 156 603 0 912-373 310-373 310-1098z" transform="scale(.01563)"/><path id="DejaVuSans-73" d="M2834 3397v-544q-243 125-506 187-262 63-544 63-428 0-642-131t-214-394q0-200 153-314t616-217l197-44q612-131 870-370t258-667q0-488-386-773Q2250-91 1575-91q-281 0-586 55T347 128v594q319-166 628-249 309-82 613-82 406 0 624 139 219 139 219 392 0 234-158 359-157 125-692 241l-200 47q-534 112-772 345-237 233-237 639 0 494 350 762 350 269 994 269 318 0 599-47 282-46 519-140z" transform="scale(.01563)"/></defs><use xlink:href="#DejaVuSans-44"/><use xlink:href="#DejaVuSans-65" transform="translate(77.002)"/><use xlink:href="#DejaVuSans-6e" transform="translate(138.525)"/><use xlink:href="#DejaVuSans-73" transform="translate(201.904)"/><use xlink:href="#DejaVuSans-69" transform="translate(254.004)"/><use xlink:href="#DejaVuSans-74" transform="translate(281.787)"/><use xlink:href="#DejaVuSans-79" transform="translate(320.996)"/></g></g><path id="line2d_31" d="M49.837 276.334h68.867l3.279-.001 3.279-.002 3.28-.006 3.279-.013 3.279-.029 3.28-.06 3.279-.118 3.279-.222 3.28-.398 3.279-.682 3.279-1.119 3.28-1.762 3.279-2.665 3.279-3.877 3.28-5.428 3.279-7.319 3.279-9.505 3.28-11.89 3.279-14.318 3.279-16.585 3.28-18.443 3.279-19.639 3.279-19.936 3.28-19.157 3.279-17.212 3.279-14.125 3.28-10.04 3.279-5.216h3.279l3.28 5.216 3.279 10.04 3.28 14.125 3.278 17.212 3.28 19.157 3.28 19.936 3.278 19.64 3.28 18.442 3.28 16.585 3.278 14.318 3.28 11.89 3.28 9.505 3.278 7.319 3.28 5.428 3.28 3.877 3.278 2.665 3.28 1.762 3.28 1.12 3.278.681 3.28.398 3.28.222 3.278.118 3.28.06 3.28.029 3.279.013 3.279.006 3.28.002h3.279l3.279.001h65.587" clip-path="url(#pe2e37f6409)" style="fill:none;stroke-dasharray:7.4,3.2;stroke-dashoffset:0;stroke:#8000ff;stroke-width:2"/><path id="line2d_32" d="M49.837 276.334h72.146l3.279-.002 3.28-.005 3.279-.015 3.279-.037 3.28-.091 3.279-.205 3.279-.43 3.28-.848 3.279-1.568 3.279-2.728 3.28-4.477 3.279-6.938 3.279-10.161 3.28-14.07 3.279-18.417 3.279-22.758 3.28-26.491 3.279-28.927 3.279-29.414 3.28-27.49 3.279-23.002 3.279-16.186 3.28-7.66 3.279 1.661 3.279 10.735 3.28 18.57 3.279 24.412 3.279 27.839 3.28 28.82 3.279 27.652 3.28 24.868 3.278 21.1 3.28 16.96 3.28 12.949 3.278 9.403 3.28 6.502 3.28 4.282 3.278 2.686 3.28 1.604 3.28.912 3.278.492 3.28.253 3.28.123 3.278.056 3.28.025 3.28.01 3.278.004 3.28.001h3.28l3.278.001h88.543" clip-path="url(#pe2e37f6409)" style="fill:none;stroke:#ff8000;stroke-width:2;stroke-linecap:square"/><path d="M33.604 288.43V22.318M33.604 288.43h357.12" class="patch" style="fill:none;stroke:var(--black);stroke-width:.8;stroke-linejoin:miter;stroke-linecap:square"/><g id="text_18" class="text" transform="matrix(.12 0 0 -.12 100.986 16.318)"><defs><path id="DejaVuSans-42" d="M1259 2228V519h1013q509 0 754 211 246 211 246 645 0 438-246 645-245 208-754 208zm0 1919V2741h935q462 0 688 173 227 174 227 530 0 353-227 528-226 175-688 175zm-631 519h1613q722 0 1112-300 391-300 391-853 0-429-200-682t-588-315q466-100 724-418 258-317 258-792 0-625-425-966Q3088 0 2303 0H628z" transform="scale(.01563)"/><path id="DejaVuSans-64" d="M2906 2969v1894h575V0h-575v525q-181-312-458-464-276-152-664-152-634 0-1033 506-398 507-398 1332t398 1331q399 506 1033 506 388 0 664-152 277-151 458-463M947 1747q0-634 261-995t717-361 718 361q263 361 263 995t-263 995q-262 361-718 361t-717-361-261-995" transform="scale(.01563)"/><path id="DejaVuSans-75" d="M544 1381v2119h575V1403q0-497 193-746 194-248 582-248 465 0 735 297 271 297 271 810v1984h575V0h-575v538q-209-319-486-474-276-155-642-155-603 0-916 375-312 375-312 1097m1447 2203" transform="scale(.01563)"/></defs><use xlink:href="#DejaVuSans-42"/><use xlink:href="#DejaVuSans-65" transform="translate(68.604)"/><use xlink:href="#DejaVuSans-74" transform="translate(130.127)"/><use xlink:href="#DejaVuSans-61" transform="translate(169.336)"/><use xlink:href="#DejaVuSans-50" transform="translate(262.402)"/><use xlink:href="#DejaVuSans-72" transform="translate(320.955)"/><use xlink:href="#DejaVuSans-69" transform="translate(362.068)"/><use xlink:href="#DejaVuSans-6f" transform="translate(389.852)"/><use xlink:href="#DejaVuSans-72" transform="translate(451.033)"/><use xlink:href="#DejaVuSans-61" transform="translate(523.934)"/><use xlink:href="#DejaVuSans-6e" transform="translate(585.213)"/><use xlink:href="#DejaVuSans-64" transform="translate(648.592)"/><use xlink:href="#DejaVuSans-50" transform="translate(743.855)"/><use xlink:href="#DejaVuSans-6f" transform="translate(800.533)"/><use xlink:href="#DejaVuSans-73" transform="translate(861.715)"/><use xlink:href="#DejaVuSans-74" transform="translate(913.814)"/><use xlink:href="#DejaVuSans-65" transform="translate(953.023)"/><use xlink:href="#DejaVuSans-72" transform="translate(1014.547)"/><use xlink:href="#DejaVuSans-69" transform="translate(1055.66)"/><use xlink:href="#DejaVuSans-6f" transform="translate(1083.443)"/><use xlink:href="#DejaVuSans-72" transform="translate(1144.625)"/><use xlink:href="#DejaVuSans-44" transform="translate(1217.525)"/><use xlink:href="#DejaVuSans-69" transform="translate(1294.527)"/><use xlink:href="#DejaVuSans-73" transform="translate(1322.31)"/><use xlink:href="#DejaVuSans-74" transform="translate(1374.41)"/><use xlink:href="#DejaVuSans-72" transform="translate(1413.62)"/><use xlink:href="#DejaVuSans-69" transform="translate(1454.732)"/><use xlink:href="#DejaVuSans-62" transform="translate(1482.516)"/><use xlink:href="#DejaVuSans-75" transform="translate(1545.992)"/><use xlink:href="#DejaVuSans-74" transform="translate(1609.371)"/><use xlink:href="#DejaVuSans-69" transform="translate(1648.58)"/><use xlink:href="#DejaVuSans-6f" transform="translate(1676.363)"/><use xlink:href="#DejaVuSans-6e" transform="translate(1737.545)"/><use xlink:href="#DejaVuSans-73" transform="translate(1800.924)"/></g><g class="legend"><path d="M222.606 59.674h161.118q2 0 2-2V29.318q0-2-2-2H222.606q-2 0-2 2v28.356q0 2 2 2z" class="patch" style="fill:rgba(255,255,255,.8)!important;opacity:.8;stroke:rgba(0,0,0,.1)!important;stroke-linejoin:miter"/><path id="line2d_33" d="M224.606 35.417h20" style="fill:none;stroke-dasharray:7.4,3.2;stroke-dashoffset:0;stroke:#8000ff;stroke-width:2"/><g id="text_19" class="text" transform="matrix(.1 0 0 -.1 252.606 38.917)"><defs><path id="DejaVuSans-28" d="M1984 4856q-418-718-622-1422-203-703-203-1425 0-721 205-1429t620-1424h-500Q1016-109 783 600T550 2009q0 697 231 1403 232 707 703 1444z" transform="scale(.01563)"/><path id="DejaVuSans-2c" d="M750 794h659V256L897-744H494L750 256z" transform="scale(.01563)"/><path id="DejaVuSans-29" d="M513 4856h500q468-737 701-1444 233-706 233-1403 0-700-233-1409T1013-844H513q415 716 620 1424t205 1429q0 722-205 1425-205 704-620 1422" transform="scale(.01563)"/></defs><use xlink:href="#DejaVuSans-50"/><use xlink:href="#DejaVuSans-72" transform="translate(58.553)"/><use xlink:href="#DejaVuSans-69" transform="translate(99.666)"/><use xlink:href="#DejaVuSans-6f" transform="translate(127.45)"/><use xlink:href="#DejaVuSans-72" transform="translate(188.63)"/><use xlink:href="#DejaVuSans-42" transform="translate(261.531)"/><use xlink:href="#DejaVuSans-65" transform="translate(330.135)"/><use xlink:href="#DejaVuSans-74" transform="translate(391.658)"/><use xlink:href="#DejaVuSans-61" transform="translate(430.867)"/><use xlink:href="#DejaVuSans-28" transform="translate(492.146)"/><use xlink:href="#DejaVuSans-33" transform="translate(531.16)"/><use xlink:href="#DejaVuSans-33" transform="translate(594.783)"/><use xlink:href="#DejaVuSans-2e" transform="translate(658.406)"/><use xlink:href="#DejaVuSans-34" transform="translate(690.193)"/><use xlink:href="#DejaVuSans-2c" transform="translate(753.816)"/><use xlink:href="#DejaVuSans-33" transform="translate(817.39)"/><use xlink:href="#DejaVuSans-33" transform="translate(881.014)"/><use xlink:href="#DejaVuSans-2e" transform="translate(944.637)"/><use xlink:href="#DejaVuSans-34" transform="translate(976.424)"/><use xlink:href="#DejaVuSans-29" transform="translate(1040.047)"/></g><path id="line2d_34" d="M224.606 50.095h20" style="fill:none;stroke:#ff8000;stroke-width:2;stroke-linecap:square"/><g id="text_20" class="text" transform="matrix(.1 0 0 -.1 252.606 53.595)"><use xlink:href="#DejaVuSans-50"/><use xlink:href="#DejaVuSans-6f" transform="translate(56.678)"/><use xlink:href="#DejaVuSans-73" transform="translate(117.86)"/><use xlink:href="#DejaVuSans-74" transform="translate(169.959)"/><use xlink:href="#DejaVuSans-65" transform="translate(209.168)"/><use xlink:href="#DejaVuSans-72" transform="translate(270.691)"/><use xlink:href="#DejaVuSans-69" transform="translate(311.805)"/><use xlink:href="#DejaVuSans-6f" transform="translate(339.588)"/><use xlink:href="#DejaVuSans-72" transform="translate(400.77)"/><use xlink:href="#DejaVuSans-42" transform="translate(473.67)"/><use xlink:href="#DejaVuSans-65" transform="translate(542.273)"/><use xlink:href="#DejaVuSans-74" transform="translate(603.797)"/><use xlink:href="#DejaVuSans-61" transform="translate(643.006)"/><use xlink:href="#DejaVuSans-28" transform="translate(704.285)"/><use xlink:href="#DejaVuSans-34" transform="translate(743.299)"/><use xlink:href="#DejaVuSans-34" transform="translate(806.922)"/><use xlink:href="#DejaVuSans-2e" transform="translate(870.545)"/><use xlink:href="#DejaVuSans-34" transform="translate(902.332)"/><use xlink:href="#DejaVuSans-2c" transform="translate(965.955)"/><use xlink:href="#DejaVuSans-35" transform="translate(1029.53)"/><use xlink:href="#DejaVuSans-32" transform="translate(1093.152)"/><use xlink:href="#DejaVuSans-2e" transform="translate(1156.775)"/><use xlink:href="#DejaVuSans-34" transform="translate(1188.563)"/><use xlink:href="#DejaVuSans-29" transform="translate(1252.186)"/></g></g></g></g><defs><clipPath id="pe2e37f6409"><path d="M33.604 22.318h357.12V288.43H33.604z"/></clipPath></defs></svg>