<?xml version="1.0" encoding="utf-8" standalone="no"?>
<!DOCTYPE svg PUBLIC "-//W3C//DTD SVG 1.1//EN"
  "http://www.w3.org/Graphics/SVG/1.1/DTD/svg11.dtd">
<svg xmlns:xlink="http://www.w3.org/1999/xlink" width="306.309375pt" height="334.018562pt" viewBox="0 0 306.309375 334.018562" xmlns="http://www.w3.org/2000/svg" version="1.1">
<style>/* === RDF autogenerated palette === */
:root {
    --axis-color: #000;
    --grid-stroke: rgba(0,0,0,0.2);
    --plot3d-stroke: rgba(0,0,0,0.3);
    --plot3d-grid: rgba(0,0,0,0.2);
}
@media (prefers-color-scheme: dark) {
    :root {
        --axis-color: #fff;
        --grid-stroke: rgba(255,255,255,0.2);
        --plot3d-stroke: rgba(255,255,255,0.3);
        --plot3d-grid: rgba(255,255,255,0.2);
    }
}

/* Light‑mode palette */
.c1 { fill:#FF0001; stroke:#FF0001; }.c2 { fill:#00FF02; stroke:#00FF02; }.c3 { fill:#0000FF; stroke:#0000FF; }.c4 { fill:#FF00FF; stroke:#FF00FF; }.c5 { fill:#00FFFF; stroke:#00FFFF; }.c6 { fill:#FFFF00; stroke:#FFFF00; }.c7 { fill:#FF8000; stroke:#FF8000; }.c8 { fill:#8000FF; stroke:#8000FF; }.octonary { fill:#bcbd22; stroke:#bcbd22; }.primary { fill:#d62728; stroke:#d62728; }.quaternary { fill:#9467bd; stroke:#9467bd; }.quinary { fill:#8c564b; stroke:#8c564b; }.secondary { fill:#2ca02c; stroke:#2ca02c; }.senary { fill:#e377c2; stroke:#e377c2; }.septenary { fill:#7f7f7f; stroke:#7f7f7f; }.tertiary { fill:#1f77b4; stroke:#1f77b4; }

/* Dark overrides */
@media (prefers-color-scheme: dark) {
    .c1 { fill:#FF0001; stroke:#FF0001; }.c2 { fill:#00FF02; stroke:#00FF02; }.c3 { fill:#0000FF; stroke:#0000FF; }.c4 { fill:#FF00FF; stroke:#FF00FF; }.c5 { fill:#00FFFF; stroke:#00FFFF; }.c6 { fill:#FFFF00; stroke:#FFFF00; }.c7 { fill:#FF8000; stroke:#FF8000; }.c8 { fill:#8000FF; stroke:#8000FF; }.octonary { fill:#E6DB74; stroke:#E6DB74; }.primary { fill:#FF4A98; stroke:#FF4A98; }.quaternary { fill:#B4A0FF; stroke:#B4A0FF; }.quinary { fill:#FFB86B; stroke:#FFB86B; }.secondary { fill:#0AFAFA; stroke:#0AFAFA; }.senary { fill:#FF79C6; stroke:#FF79C6; }.septenary { fill:#CCCCCC; stroke:#CCCCCC; }.tertiary { fill:#7F83FF; stroke:#7F83FF; }
}/* Axis, ticks, legend */
text, .text { fill: var(--axis-color) !important; stroke: none !important; }
.axis line, .axis path,
.tick line, .tick path,
path.domain,
line.grid { stroke: var(--axis-color) !important; }
.legend text { fill: var(--axis-color) !important; }

/* Patch paths that relied on currentColor */
.patch path[style*="stroke: currentColor"] { stroke: var(--axis-color) !important; }

/* Legend background (first child of legend group) */
g.legend > g:first-child > path:first-child {
    fill: rgba(255,255,255,0.8) !important;
    stroke: rgba(0,0,0,0.1) !important;
}
@media (prefers-color-scheme: dark) {
    g.legend > g:first-child > path:first-child {
        fill: rgba(26,26,26,0.8) !important;
        stroke: rgba(255,255,255,0.1) !important;
    }
}

/* 3‑D specific rules */
.plot3d path, .plot3d polygon {
    stroke: var(--plot3d-stroke) !important;
}
.plot3d-grid line { stroke: var(--plot3d-grid) !important; }
.plot3d-surface path[style*="fill:"] {
    fill-opacity: 0.9 !important;
}
@media (prefers-color-scheme: dark) {
    .plot3d-surface path[style*="fill:"] {
        fill-opacity: 0.95 !important;
        filter: saturate(1.2) !important;
    }
}</style>

 <metadata>
  <rdf:RDF xmlns:dc="http://purl.org/dc/elements/1.1/" xmlns:cc="http://creativecommons.org/ns#" xmlns:rdf="http://www.w3.org/1999/02/22-rdf-syntax-ns#">
   <cc:Work>
    <dc:type rdf:resource="http://purl.org/dc/dcmitype/StillImage"/>
    <dc:date>2025-04-28T18:52:54.339579</dc:date>
    <dc:format>image/svg+xml</dc:format>
    <dc:creator>
     <cc:Agent>
      <dc:title>Matplotlib v3.10.1, https://matplotlib.org/</dc:title>
     </cc:Agent>
    </dc:creator>
   </cc:Work>
  </rdf:RDF>
 </metadata>
 <defs>
  <style type="text/css">*{stroke-linejoin: round; stroke-linecap: butt}</style>
 </defs>
 <g id="figure_1">
  <g class="patch">
   <path d="M 0 334.018562 
L 306.309375 334.018562 
L 306.309375 0 
L 0 0 
L 0 334.018562 
z
" style="fill: none"/>
  </g>
  <g id="axes_1">
   <g class="patch">
    <path d="M 58.669476 297.430125 
L 247.639899 297.430125 
L 247.639899 31.318125 
L 58.669476 31.318125 
L 58.669476 297.430125 
z
" style="fill: none"/>
   </g>
   <g class="axis">
    <g class="tick xtick">
     <g id="line2d_1">
      <path d="M 74.417011 297.430125 
L 74.417011 31.318125 
" clip-path="url(#p2436fce490)" style="fill: none; stroke: #b0b0b0; stroke-opacity: 0.1; stroke-width: 0.8; stroke-linecap: square"/>
     </g>
     <g id="line2d_2">
      <defs>
       <path id="m42e031475a" d="M 0 0 
L 0 3.5 
" style="stroke: currentColor; stroke-width: 0.8"/>
      </defs>
      <g>
       <use xlink:href="#m42e031475a" x="74.417011" y="297.430125" style="stroke: currentColor; stroke-width: 0.8"/>
      </g>
     </g>
     <g id="text_1" class="text">
      <!-- 0.0 -->
      <g transform="translate(67.260605 311.268719) scale(0.09 -0.09)">
       <defs>
        <path id="DejaVuSans-30" d="M 2034 4250 
Q 1547 4250 1301 3770 
Q 1056 3291 1056 2328 
Q 1056 1369 1301 889 
Q 1547 409 2034 409 
Q 2525 409 2770 889 
Q 3016 1369 3016 2328 
Q 3016 3291 2770 3770 
Q 2525 4250 2034 4250 
z
M 2034 4750 
Q 2819 4750 3233 4129 
Q 3647 3509 3647 2328 
Q 3647 1150 3233 529 
Q 2819 -91 2034 -91 
Q 1250 -91 836 529 
Q 422 1150 422 2328 
Q 422 3509 836 4129 
Q 1250 4750 2034 4750 
z
" transform="scale(0.015625)"/>
        <path id="DejaVuSans-2e" d="M 684 794 
L 1344 794 
L 1344 0 
L 684 0 
L 684 794 
z
" transform="scale(0.015625)"/>
       </defs>
       <use xlink:href="#DejaVuSans-30"/>
       <use xlink:href="#DejaVuSans-2e" transform="translate(63.623047 0)"/>
       <use xlink:href="#DejaVuSans-30" transform="translate(95.410156 0)"/>
      </g>
     </g>
    </g>
    <g class="tick xtick">
     <g id="line2d_3">
      <path d="M 113.785849 297.430125 
L 113.785849 31.318125 
" clip-path="url(#p2436fce490)" style="fill: none; stroke: #b0b0b0; stroke-opacity: 0.1; stroke-width: 0.8; stroke-linecap: square"/>
     </g>
     <g id="line2d_4">
      <g>
       <use xlink:href="#m42e031475a" x="113.785849" y="297.430125" style="stroke: currentColor; stroke-width: 0.8"/>
      </g>
     </g>
     <g id="text_2" class="text">
      <!-- 0.5 -->
      <g transform="translate(106.629443 311.268719) scale(0.09 -0.09)">
       <defs>
        <path id="DejaVuSans-35" d="M 691 4666 
L 3169 4666 
L 3169 4134 
L 1269 4134 
L 1269 2991 
Q 1406 3038 1543 3061 
Q 1681 3084 1819 3084 
Q 2600 3084 3056 2656 
Q 3513 2228 3513 1497 
Q 3513 744 3044 326 
Q 2575 -91 1722 -91 
Q 1428 -91 1123 -41 
Q 819 9 494 109 
L 494 744 
Q 775 591 1075 516 
Q 1375 441 1709 441 
Q 2250 441 2565 725 
Q 2881 1009 2881 1497 
Q 2881 1984 2565 2268 
Q 2250 2553 1709 2553 
Q 1456 2553 1204 2497 
Q 953 2441 691 2322 
L 691 4666 
z
" transform="scale(0.015625)"/>
       </defs>
       <use xlink:href="#DejaVuSans-30"/>
       <use xlink:href="#DejaVuSans-2e" transform="translate(63.623047 0)"/>
       <use xlink:href="#DejaVuSans-35" transform="translate(95.410156 0)"/>
      </g>
     </g>
    </g>
    <g class="tick xtick">
     <g id="line2d_5">
      <path d="M 153.154687 297.430125 
L 153.154687 31.318125 
" clip-path="url(#p2436fce490)" style="fill: none; stroke: #b0b0b0; stroke-opacity: 0.1; stroke-width: 0.8; stroke-linecap: square"/>
     </g>
     <g id="line2d_6">
      <g>
       <use xlink:href="#m42e031475a" x="153.154687" y="297.430125" style="stroke: currentColor; stroke-width: 0.8"/>
      </g>
     </g>
     <g id="text_3" class="text">
      <!-- 1.0 -->
      <g transform="translate(145.998281 311.268719) scale(0.09 -0.09)">
       <defs>
        <path id="DejaVuSans-31" d="M 794 531 
L 1825 531 
L 1825 4091 
L 703 3866 
L 703 4441 
L 1819 4666 
L 2450 4666 
L 2450 531 
L 3481 531 
L 3481 0 
L 794 0 
L 794 531 
z
" transform="scale(0.015625)"/>
       </defs>
       <use xlink:href="#DejaVuSans-31"/>
       <use xlink:href="#DejaVuSans-2e" transform="translate(63.623047 0)"/>
       <use xlink:href="#DejaVuSans-30" transform="translate(95.410156 0)"/>
      </g>
     </g>
    </g>
    <g class="tick xtick">
     <g id="line2d_7">
      <path d="M 192.523526 297.430125 
L 192.523526 31.318125 
" clip-path="url(#p2436fce490)" style="fill: none; stroke: #b0b0b0; stroke-opacity: 0.1; stroke-width: 0.8; stroke-linecap: square"/>
     </g>
     <g id="line2d_8">
      <g>
       <use xlink:href="#m42e031475a" x="192.523526" y="297.430125" style="stroke: currentColor; stroke-width: 0.8"/>
      </g>
     </g>
     <g id="text_4" class="text">
      <!-- 1.5 -->
      <g transform="translate(185.367119 311.268719) scale(0.09 -0.09)">
       <use xlink:href="#DejaVuSans-31"/>
       <use xlink:href="#DejaVuSans-2e" transform="translate(63.623047 0)"/>
       <use xlink:href="#DejaVuSans-35" transform="translate(95.410156 0)"/>
      </g>
     </g>
    </g>
    <g class="tick xtick">
     <g id="line2d_9">
      <path d="M 231.892364 297.430125 
L 231.892364 31.318125 
" clip-path="url(#p2436fce490)" style="fill: none; stroke: #b0b0b0; stroke-opacity: 0.1; stroke-width: 0.8; stroke-linecap: square"/>
     </g>
     <g id="line2d_10">
      <g>
       <use xlink:href="#m42e031475a" x="231.892364" y="297.430125" style="stroke: currentColor; stroke-width: 0.8"/>
      </g>
     </g>
     <g id="text_5" class="text">
      <!-- 2.0 -->
      <g transform="translate(224.735957 311.268719) scale(0.09 -0.09)">
       <defs>
        <path id="DejaVuSans-32" d="M 1228 531 
L 3431 531 
L 3431 0 
L 469 0 
L 469 531 
Q 828 903 1448 1529 
Q 2069 2156 2228 2338 
Q 2531 2678 2651 2914 
Q 2772 3150 2772 3378 
Q 2772 3750 2511 3984 
Q 2250 4219 1831 4219 
Q 1534 4219 1204 4116 
Q 875 4013 500 3803 
L 500 4441 
Q 881 4594 1212 4672 
Q 1544 4750 1819 4750 
Q 2544 4750 2975 4387 
Q 3406 4025 3406 3419 
Q 3406 3131 3298 2873 
Q 3191 2616 2906 2266 
Q 2828 2175 2409 1742 
Q 1991 1309 1228 531 
z
" transform="scale(0.015625)"/>
       </defs>
       <use xlink:href="#DejaVuSans-32"/>
       <use xlink:href="#DejaVuSans-2e" transform="translate(63.623047 0)"/>
       <use xlink:href="#DejaVuSans-30" transform="translate(95.410156 0)"/>
      </g>
     </g>
    </g>
    <g id="text_6" class="text">
     <!-- $t$ -->
     <g transform="translate(151.154688 324.738875) scale(0.1 -0.1)">
      <defs>
       <path id="DejaVuSans-Oblique-74" d="M 2706 3500 
L 2619 3053 
L 1472 3053 
L 1100 1153 
Q 1081 1047 1072 975 
Q 1063 903 1063 863 
Q 1063 663 1183 572 
Q 1303 481 1569 481 
L 2150 481 
L 2053 0 
L 1503 0 
Q 991 0 739 200 
Q 488 400 488 806 
Q 488 878 497 964 
Q 506 1050 525 1153 
L 897 3053 
L 409 3053 
L 500 3500 
L 978 3500 
L 1172 4494 
L 1747 4494 
L 1556 3500 
L 2706 3500 
z
" transform="scale(0.015625)"/>
      </defs>
      <use xlink:href="#DejaVuSans-Oblique-74" transform="translate(0 0.78125)"/>
     </g>
    </g>
   </g>
   <g class="axis">
    <g class="tick ytick">
     <g id="line2d_11">
      <path d="M 58.669476 259.657386 
L 247.639899 259.657386 
" clip-path="url(#p2436fce490)" style="fill: none; stroke: #b0b0b0; stroke-opacity: 0.1; stroke-width: 0.8; stroke-linecap: square"/>
     </g>
     <g id="line2d_12">
      <defs>
       <path id="m81a8f43d76" d="M 0 0 
L -3.5 0 
" style="stroke: currentColor; stroke-width: 0.8"/>
      </defs>
      <g>
       <use xlink:href="#m81a8f43d76" x="58.669476" y="259.657386" style="stroke: currentColor; stroke-width: 0.8"/>
      </g>
     </g>
     <g id="text_7" class="text">
      <!-- −0.5 -->
      <g transform="translate(29.814945 263.076683) scale(0.09 -0.09)">
       <defs>
        <path id="DejaVuSans-2212" d="M 678 2272 
L 4684 2272 
L 4684 1741 
L 678 1741 
L 678 2272 
z
" transform="scale(0.015625)"/>
       </defs>
       <use xlink:href="#DejaVuSans-2212"/>
       <use xlink:href="#DejaVuSans-30" transform="translate(83.789062 0)"/>
       <use xlink:href="#DejaVuSans-2e" transform="translate(147.412109 0)"/>
       <use xlink:href="#DejaVuSans-35" transform="translate(179.199219 0)"/>
      </g>
     </g>
    </g>
    <g class="tick ytick">
     <g id="line2d_13">
      <path d="M 58.669476 220.288548 
L 247.639899 220.288548 
" clip-path="url(#p2436fce490)" style="fill: none; stroke: #b0b0b0; stroke-opacity: 0.1; stroke-width: 0.8; stroke-linecap: square"/>
     </g>
     <g id="line2d_14">
      <g>
       <use xlink:href="#m81a8f43d76" x="58.669476" y="220.288548" style="stroke: currentColor; stroke-width: 0.8"/>
      </g>
     </g>
     <g id="text_8" class="text">
      <!-- 0.0 -->
      <g transform="translate(37.356664 223.707845) scale(0.09 -0.09)">
       <use xlink:href="#DejaVuSans-30"/>
       <use xlink:href="#DejaVuSans-2e" transform="translate(63.623047 0)"/>
       <use xlink:href="#DejaVuSans-30" transform="translate(95.410156 0)"/>
      </g>
     </g>
    </g>
    <g class="tick ytick">
     <g id="line2d_15">
      <path d="M 58.669476 180.91971 
L 247.639899 180.91971 
" clip-path="url(#p2436fce490)" style="fill: none; stroke: #b0b0b0; stroke-opacity: 0.1; stroke-width: 0.8; stroke-linecap: square"/>
     </g>
     <g id="line2d_16">
      <g>
       <use xlink:href="#m81a8f43d76" x="58.669476" y="180.91971" style="stroke: currentColor; stroke-width: 0.8"/>
      </g>
     </g>
     <g id="text_9" class="text">
      <!-- 0.5 -->
      <g transform="translate(37.356664 184.339007) scale(0.09 -0.09)">
       <use xlink:href="#DejaVuSans-30"/>
       <use xlink:href="#DejaVuSans-2e" transform="translate(63.623047 0)"/>
       <use xlink:href="#DejaVuSans-35" transform="translate(95.410156 0)"/>
      </g>
     </g>
    </g>
    <g class="tick ytick">
     <g id="line2d_17">
      <path d="M 58.669476 141.550872 
L 247.639899 141.550872 
" clip-path="url(#p2436fce490)" style="fill: none; stroke: #b0b0b0; stroke-opacity: 0.1; stroke-width: 0.8; stroke-linecap: square"/>
     </g>
     <g id="line2d_18">
      <g>
       <use xlink:href="#m81a8f43d76" x="58.669476" y="141.550872" style="stroke: currentColor; stroke-width: 0.8"/>
      </g>
     </g>
     <g id="text_10" class="text">
      <!-- 1.0 -->
      <g transform="translate(37.356664 144.970169) scale(0.09 -0.09)">
       <use xlink:href="#DejaVuSans-31"/>
       <use xlink:href="#DejaVuSans-2e" transform="translate(63.623047 0)"/>
       <use xlink:href="#DejaVuSans-30" transform="translate(95.410156 0)"/>
      </g>
     </g>
    </g>
    <g class="tick ytick">
     <g id="line2d_19">
      <path d="M 58.669476 102.182034 
L 247.639899 102.182034 
" clip-path="url(#p2436fce490)" style="fill: none; stroke: #b0b0b0; stroke-opacity: 0.1; stroke-width: 0.8; stroke-linecap: square"/>
     </g>
     <g id="line2d_20">
      <g>
       <use xlink:href="#m81a8f43d76" x="58.669476" y="102.182034" style="stroke: currentColor; stroke-width: 0.8"/>
      </g>
     </g>
     <g id="text_11" class="text">
      <!-- 1.5 -->
      <g transform="translate(37.356664 105.60133) scale(0.09 -0.09)">
       <use xlink:href="#DejaVuSans-31"/>
       <use xlink:href="#DejaVuSans-2e" transform="translate(63.623047 0)"/>
       <use xlink:href="#DejaVuSans-35" transform="translate(95.410156 0)"/>
      </g>
     </g>
    </g>
    <g class="tick ytick">
     <g id="line2d_21">
      <path d="M 58.669476 62.813195 
L 247.639899 62.813195 
" clip-path="url(#p2436fce490)" style="fill: none; stroke: #b0b0b0; stroke-opacity: 0.1; stroke-width: 0.8; stroke-linecap: square"/>
     </g>
     <g id="line2d_22">
      <g>
       <use xlink:href="#m81a8f43d76" x="58.669476" y="62.813195" style="stroke: currentColor; stroke-width: 0.8"/>
      </g>
     </g>
     <g id="text_12" class="text">
      <!-- 2.0 -->
      <g transform="translate(37.356664 66.232492) scale(0.09 -0.09)">
       <use xlink:href="#DejaVuSans-32"/>
       <use xlink:href="#DejaVuSans-2e" transform="translate(63.623047 0)"/>
       <use xlink:href="#DejaVuSans-30" transform="translate(95.410156 0)"/>
      </g>
     </g>
    </g>
    <g id="text_13" class="text">
     <!-- $\beta(t)$ -->
     <g transform="translate(23.714945 173.474125) rotate(-90) scale(0.1 -0.1)">
      <defs>
       <path id="DejaVuSans-Oblique-3b2" d="M 872 216 
L 572 -1331 
L -6 -1331 
L 928 3478 
Q 1206 4903 2538 4903 
Q 3888 4903 3659 3700 
Q 3503 2844 2894 2531 
Q 3713 2250 3553 1416 
Q 3272 -69 1759 -66 
Q 1097 -63 872 216 
z
M 1019 966 
Q 1259 422 1875 425 
Q 2775 425 2966 1406 
Q 3138 2288 1675 2219 
L 1778 2750 
Q 2909 2731 3106 3750 
Q 3241 4438 2509 4434 
Q 1691 4434 1503 3459 
L 1019 966 
z
" transform="scale(0.015625)"/>
       <path id="DejaVuSans-28" d="M 1984 4856 
Q 1566 4138 1362 3434 
Q 1159 2731 1159 2009 
Q 1159 1288 1364 580 
Q 1569 -128 1984 -844 
L 1484 -844 
Q 1016 -109 783 600 
Q 550 1309 550 2009 
Q 550 2706 781 3412 
Q 1013 4119 1484 4856 
L 1984 4856 
z
" transform="scale(0.015625)"/>
       <path id="DejaVuSans-29" d="M 513 4856 
L 1013 4856 
Q 1481 4119 1714 3412 
Q 1947 2706 1947 2009 
Q 1947 1309 1714 600 
Q 1481 -109 1013 -844 
L 513 -844 
Q 928 -128 1133 580 
Q 1338 1288 1338 2009 
Q 1338 2731 1133 3434 
Q 928 4138 513 4856 
z
" transform="scale(0.015625)"/>
      </defs>
      <use xlink:href="#DejaVuSans-Oblique-3b2" transform="translate(0 0.390625)"/>
      <use xlink:href="#DejaVuSans-28" transform="translate(63.818359 0.390625)"/>
      <use xlink:href="#DejaVuSans-Oblique-74" transform="translate(102.832031 0.390625)"/>
      <use xlink:href="#DejaVuSans-29" transform="translate(142.041016 0.390625)"/>
     </g>
    </g>
   </g>
   <g id="line2d_23">
    <path d="M 74.417011 220.288548 
L 75.204388 219.846498 
L 75.991765 214.58557 
L 76.779142 192.821595 
L 77.566518 191.401963 
L 78.353895 194.639317 
L 79.141272 187.519736 
L 79.928649 193.243569 
L 80.716025 176.934828 
L 81.503402 165.891676 
L 82.290779 161.459967 
L 83.078156 177.2659 
L 83.865532 187.351094 
L 84.652909 176.304324 
L 85.440286 193.483858 
L 86.227663 197.722983 
L 87.015039 221.623931 
L 87.802416 225.425077 
L 88.589793 224.353264 
L 89.37717 227.344682 
L 90.164547 214.716415 
L 90.951923 212.665216 
L 91.7393 217.65702 
L 92.526677 214.27223 
L 93.314054 217.206607 
L 94.10143 215.790926 
L 94.888807 223.096713 
L 95.676184 224.820663 
L 96.463561 232.905704 
L 97.250937 220.759878 
L 98.038314 218.153929 
L 98.825691 219.056193 
L 99.613068 219.51965 
L 100.400444 209.403507 
L 101.187821 207.397606 
L 101.975198 201.637187 
L 103.549951 215.921961 
L 105.124705 243.886948 
L 106.699459 265.935055 
L 107.486835 258.424273 
L 108.274212 248.828836 
L 109.061589 250.137751 
L 109.848966 235.134214 
L 110.636342 223.770642 
L 111.423719 236.459702 
L 112.211096 230.308579 
L 113.785849 244.143736 
L 114.573226 246.226701 
L 115.360603 237.336847 
L 116.14798 233.070696 
L 116.935356 230.408419 
L 117.722733 231.966038 
L 118.51011 247.675193 
L 119.297487 251.231586 
L 120.084863 259.555897 
L 120.87224 246.280833 
L 121.659617 240.144571 
L 122.446994 246.125317 
L 123.234371 249.287149 
L 124.021747 253.112957 
L 124.809124 256.307172 
L 126.383878 236.598265 
L 127.171254 232.667959 
L 127.958631 235.742657 
L 128.746008 230.628657 
L 129.533385 236.798003 
L 130.320761 223.054275 
L 131.108138 222.061689 
L 131.895515 223.726617 
L 132.682892 211.428405 
L 133.470268 220.775564 
L 134.257645 213.311381 
L 135.045022 200.606335 
L 135.832399 205.28134 
L 136.619775 195.58797 
L 137.407152 196.933607 
L 138.194529 188.601437 
L 138.981906 184.945216 
L 139.769283 193.131165 
L 140.556659 187.565177 
L 141.344036 185.709536 
L 142.131413 204.024078 
L 142.91879 179.249826 
L 143.706166 179.489226 
L 144.493543 168.150907 
L 145.28092 167.763978 
L 146.068297 165.958817 
L 146.855673 162.411515 
L 147.64305 167.402306 
L 148.430427 185.216935 
L 149.217804 194.187925 
L 150.00518 198.160397 
L 152.367311 186.932568 
L 153.154687 192.164847 
L 153.942064 172.160563 
L 154.729441 162.651711 
L 155.516818 148.144978 
L 156.304195 144.313553 
L 157.091571 130.756913 
L 157.878948 135.405748 
L 158.666325 125.643287 
L 159.453702 127.131498 
L 160.241078 137.027956 
L 161.815832 110.260314 
L 162.603209 106.549549 
L 163.390585 111.549714 
L 164.177962 115.119371 
L 164.965339 114.705159 
L 165.752716 111.892451 
L 166.540092 122.038434 
L 167.327469 119.053239 
L 168.114846 124.643778 
L 168.902223 118.243982 
L 169.6896 115.867745 
L 170.476976 108.002393 
L 171.264353 122.568729 
L 172.05173 116.098135 
L 172.839107 102.138984 
L 173.626483 96.036797 
L 174.41386 92.798294 
L 175.201237 88.122073 
L 175.988614 91.044386 
L 176.77599 104.017029 
L 177.563367 112.899497 
L 178.350744 108.286642 
L 179.138121 115.788628 
L 179.925497 119.1318 
L 180.712874 113.483563 
L 181.500251 114.950042 
L 182.287628 114.569245 
L 183.075004 114.510291 
L 183.862381 113.960493 
L 184.649758 108.512926 
L 185.437135 118.312561 
L 186.224512 111.555655 
L 187.011888 121.825993 
L 187.799265 124.408928 
L 188.586642 128.942482 
L 189.374019 131.005503 
L 190.161395 127.489018 
L 190.948772 131.475949 
L 191.736149 139.152428 
L 192.523526 149.400386 
L 193.310902 148.008943 
L 194.098279 142.409228 
L 194.885656 135.386456 
L 195.673033 135.641511 
L 196.460409 142.979681 
L 197.247786 152.006683 
L 198.035163 157.451412 
L 198.82254 154.117461 
L 199.609916 155.008019 
L 200.397293 155.060392 
L 201.18467 146.293927 
L 201.972047 146.164691 
L 202.759424 146.240204 
L 203.5468 150.872478 
L 204.334177 152.299119 
L 205.121554 139.338112 
L 205.908931 136.860451 
L 206.696307 136.607675 
L 207.483684 158.099803 
L 208.271061 153.001983 
L 209.058438 144.435113 
L 209.845814 141.515462 
L 210.633191 135.994751 
L 211.420568 142.949948 
L 212.207945 137.50187 
L 212.995321 139.988179 
L 213.782698 144.579285 
L 214.570075 140.18177 
L 215.357452 138.656089 
L 216.144828 131.172599 
L 216.932205 128.259744 
L 217.719582 137.932511 
L 218.506959 138.971515 
L 220.081712 153.73745 
L 220.869089 144.745495 
L 221.656466 143.69023 
L 222.443843 144.063937 
L 223.231219 146.835017 
L 224.018596 151.429533 
L 224.805973 150.273366 
L 225.59335 149.662003 
L 226.380726 152.70201 
L 227.168103 162.884357 
L 228.742857 154.343923 
L 229.530233 152.136797 
L 230.31761 144.478994 
L 231.104987 144.557834 
L 231.104987 144.557834 
" clip-path="url(#p2436fce490)" style="fill: none; stroke: #ff8000; stroke-width: 2; stroke-linecap: square"/>
   </g>
   <g id="line2d_24">
    <defs>
     <path id="mc790f6aa82" d="M 0 4 
C 1.060812 4 2.078319 3.578535 2.828427 2.828427 
C 3.578535 2.078319 4 1.060812 4 0 
C 4 -1.060812 3.578535 -2.078319 2.828427 -2.828427 
C 2.078319 -3.578535 1.060812 -4 0 -4 
C -1.060812 -4 -2.078319 -3.578535 -2.828427 -2.828427 
C -3.578535 -2.078319 -4 -1.060812 -4 0 
C -4 1.060812 -3.578535 2.078319 -2.828427 2.828427 
C -2.078319 3.578535 -1.060812 4 0 4 
z
" style="stroke: #ff0000"/>
    </defs>
    <g clip-path="url(#p2436fce490)">
     <use xlink:href="#mc790f6aa82" x="231.892364" y="141.550872" style="fill: #ff0000; stroke: #ff0000"/>
    </g>
   </g>
   <g id="line2d_25">
    <path d="M 58.669476 141.550872 
L 247.639899 141.550872 
" clip-path="url(#p2436fce490)" style="fill: none; stroke-dasharray: 5.55,2.4; stroke-dashoffset: 0; stroke: #8000ff; stroke-width: 1.5"/>
   </g>
   <g class="patch">
    <path d="M 58.669476 297.430125 
L 58.669476 31.318125 
" style="fill: none; stroke: currentColor; stroke-width: 0.8; stroke-linejoin: miter; stroke-linecap: square"/>
   </g>
   <g class="patch">
    <path d="M 58.669476 297.430125 
L 247.639899 297.430125 
" style="fill: none; stroke: currentColor; stroke-width: 0.8; stroke-linejoin: miter; stroke-linecap: square"/>
   </g>
   <g id="text_14" class="text">
    <!-- Brownian motion converging to a point at time T -->
    <g transform="translate(7.2 16.318125) scale(0.12 -0.12)">
     <defs>
      <path id="DejaVuSans-42" d="M 1259 2228 
L 1259 519 
L 2272 519 
Q 2781 519 3026 730 
Q 3272 941 3272 1375 
Q 3272 1813 3026 2020 
Q 2781 2228 2272 2228 
L 1259 2228 
z
M 1259 4147 
L 1259 2741 
L 2194 2741 
Q 2656 2741 2882 2914 
Q 3109 3088 3109 3444 
Q 3109 3797 2882 3972 
Q 2656 4147 2194 4147 
L 1259 4147 
z
M 628 4666 
L 2241 4666 
Q 2963 4666 3353 4366 
Q 3744 4066 3744 3513 
Q 3744 3084 3544 2831 
Q 3344 2578 2956 2516 
Q 3422 2416 3680 2098 
Q 3938 1781 3938 1306 
Q 3938 681 3513 340 
Q 3088 0 2303 0 
L 628 0 
L 628 4666 
z
" transform="scale(0.015625)"/>
      <path id="DejaVuSans-72" d="M 2631 2963 
Q 2534 3019 2420 3045 
Q 2306 3072 2169 3072 
Q 1681 3072 1420 2755 
Q 1159 2438 1159 1844 
L 1159 0 
L 581 0 
L 581 3500 
L 1159 3500 
L 1159 2956 
Q 1341 3275 1631 3429 
Q 1922 3584 2338 3584 
Q 2397 3584 2469 3576 
Q 2541 3569 2628 3553 
L 2631 2963 
z
" transform="scale(0.015625)"/>
      <path id="DejaVuSans-6f" d="M 1959 3097 
Q 1497 3097 1228 2736 
Q 959 2375 959 1747 
Q 959 1119 1226 758 
Q 1494 397 1959 397 
Q 2419 397 2687 759 
Q 2956 1122 2956 1747 
Q 2956 2369 2687 2733 
Q 2419 3097 1959 3097 
z
M 1959 3584 
Q 2709 3584 3137 3096 
Q 3566 2609 3566 1747 
Q 3566 888 3137 398 
Q 2709 -91 1959 -91 
Q 1206 -91 779 398 
Q 353 888 353 1747 
Q 353 2609 779 3096 
Q 1206 3584 1959 3584 
z
" transform="scale(0.015625)"/>
      <path id="DejaVuSans-77" d="M 269 3500 
L 844 3500 
L 1563 769 
L 2278 3500 
L 2956 3500 
L 3675 769 
L 4391 3500 
L 4966 3500 
L 4050 0 
L 3372 0 
L 2619 2869 
L 1863 0 
L 1184 0 
L 269 3500 
z
" transform="scale(0.015625)"/>
      <path id="DejaVuSans-6e" d="M 3513 2113 
L 3513 0 
L 2938 0 
L 2938 2094 
Q 2938 2591 2744 2837 
Q 2550 3084 2163 3084 
Q 1697 3084 1428 2787 
Q 1159 2491 1159 1978 
L 1159 0 
L 581 0 
L 581 3500 
L 1159 3500 
L 1159 2956 
Q 1366 3272 1645 3428 
Q 1925 3584 2291 3584 
Q 2894 3584 3203 3211 
Q 3513 2838 3513 2113 
z
" transform="scale(0.015625)"/>
      <path id="DejaVuSans-69" d="M 603 3500 
L 1178 3500 
L 1178 0 
L 603 0 
L 603 3500 
z
M 603 4863 
L 1178 4863 
L 1178 4134 
L 603 4134 
L 603 4863 
z
" transform="scale(0.015625)"/>
      <path id="DejaVuSans-61" d="M 2194 1759 
Q 1497 1759 1228 1600 
Q 959 1441 959 1056 
Q 959 750 1161 570 
Q 1363 391 1709 391 
Q 2188 391 2477 730 
Q 2766 1069 2766 1631 
L 2766 1759 
L 2194 1759 
z
M 3341 1997 
L 3341 0 
L 2766 0 
L 2766 531 
Q 2569 213 2275 61 
Q 1981 -91 1556 -91 
Q 1019 -91 701 211 
Q 384 513 384 1019 
Q 384 1609 779 1909 
Q 1175 2209 1959 2209 
L 2766 2209 
L 2766 2266 
Q 2766 2663 2505 2880 
Q 2244 3097 1772 3097 
Q 1472 3097 1187 3025 
Q 903 2953 641 2809 
L 641 3341 
Q 956 3463 1253 3523 
Q 1550 3584 1831 3584 
Q 2591 3584 2966 3190 
Q 3341 2797 3341 1997 
z
" transform="scale(0.015625)"/>
      <path id="DejaVuSans-20" transform="scale(0.015625)"/>
      <path id="DejaVuSans-6d" d="M 3328 2828 
Q 3544 3216 3844 3400 
Q 4144 3584 4550 3584 
Q 5097 3584 5394 3201 
Q 5691 2819 5691 2113 
L 5691 0 
L 5113 0 
L 5113 2094 
Q 5113 2597 4934 2840 
Q 4756 3084 4391 3084 
Q 3944 3084 3684 2787 
Q 3425 2491 3425 1978 
L 3425 0 
L 2847 0 
L 2847 2094 
Q 2847 2600 2669 2842 
Q 2491 3084 2119 3084 
Q 1678 3084 1418 2786 
Q 1159 2488 1159 1978 
L 1159 0 
L 581 0 
L 581 3500 
L 1159 3500 
L 1159 2956 
Q 1356 3278 1631 3431 
Q 1906 3584 2284 3584 
Q 2666 3584 2933 3390 
Q 3200 3197 3328 2828 
z
" transform="scale(0.015625)"/>
      <path id="DejaVuSans-74" d="M 1172 4494 
L 1172 3500 
L 2356 3500 
L 2356 3053 
L 1172 3053 
L 1172 1153 
Q 1172 725 1289 603 
Q 1406 481 1766 481 
L 2356 481 
L 2356 0 
L 1766 0 
Q 1100 0 847 248 
Q 594 497 594 1153 
L 594 3053 
L 172 3053 
L 172 3500 
L 594 3500 
L 594 4494 
L 1172 4494 
z
" transform="scale(0.015625)"/>
      <path id="DejaVuSans-63" d="M 3122 3366 
L 3122 2828 
Q 2878 2963 2633 3030 
Q 2388 3097 2138 3097 
Q 1578 3097 1268 2742 
Q 959 2388 959 1747 
Q 959 1106 1268 751 
Q 1578 397 2138 397 
Q 2388 397 2633 464 
Q 2878 531 3122 666 
L 3122 134 
Q 2881 22 2623 -34 
Q 2366 -91 2075 -91 
Q 1284 -91 818 406 
Q 353 903 353 1747 
Q 353 2603 823 3093 
Q 1294 3584 2113 3584 
Q 2378 3584 2631 3529 
Q 2884 3475 3122 3366 
z
" transform="scale(0.015625)"/>
      <path id="DejaVuSans-76" d="M 191 3500 
L 800 3500 
L 1894 563 
L 2988 3500 
L 3597 3500 
L 2284 0 
L 1503 0 
L 191 3500 
z
" transform="scale(0.015625)"/>
      <path id="DejaVuSans-65" d="M 3597 1894 
L 3597 1613 
L 953 1613 
Q 991 1019 1311 708 
Q 1631 397 2203 397 
Q 2534 397 2845 478 
Q 3156 559 3463 722 
L 3463 178 
Q 3153 47 2828 -22 
Q 2503 -91 2169 -91 
Q 1331 -91 842 396 
Q 353 884 353 1716 
Q 353 2575 817 3079 
Q 1281 3584 2069 3584 
Q 2775 3584 3186 3129 
Q 3597 2675 3597 1894 
z
M 3022 2063 
Q 3016 2534 2758 2815 
Q 2500 3097 2075 3097 
Q 1594 3097 1305 2825 
Q 1016 2553 972 2059 
L 3022 2063 
z
" transform="scale(0.015625)"/>
      <path id="DejaVuSans-67" d="M 2906 1791 
Q 2906 2416 2648 2759 
Q 2391 3103 1925 3103 
Q 1463 3103 1205 2759 
Q 947 2416 947 1791 
Q 947 1169 1205 825 
Q 1463 481 1925 481 
Q 2391 481 2648 825 
Q 2906 1169 2906 1791 
z
M 3481 434 
Q 3481 -459 3084 -895 
Q 2688 -1331 1869 -1331 
Q 1566 -1331 1297 -1286 
Q 1028 -1241 775 -1147 
L 775 -588 
Q 1028 -725 1275 -790 
Q 1522 -856 1778 -856 
Q 2344 -856 2625 -561 
Q 2906 -266 2906 331 
L 2906 616 
Q 2728 306 2450 153 
Q 2172 0 1784 0 
Q 1141 0 747 490 
Q 353 981 353 1791 
Q 353 2603 747 3093 
Q 1141 3584 1784 3584 
Q 2172 3584 2450 3431 
Q 2728 3278 2906 2969 
L 2906 3500 
L 3481 3500 
L 3481 434 
z
" transform="scale(0.015625)"/>
      <path id="DejaVuSans-70" d="M 1159 525 
L 1159 -1331 
L 581 -1331 
L 581 3500 
L 1159 3500 
L 1159 2969 
Q 1341 3281 1617 3432 
Q 1894 3584 2278 3584 
Q 2916 3584 3314 3078 
Q 3713 2572 3713 1747 
Q 3713 922 3314 415 
Q 2916 -91 2278 -91 
Q 1894 -91 1617 61 
Q 1341 213 1159 525 
z
M 3116 1747 
Q 3116 2381 2855 2742 
Q 2594 3103 2138 3103 
Q 1681 3103 1420 2742 
Q 1159 2381 1159 1747 
Q 1159 1113 1420 752 
Q 1681 391 2138 391 
Q 2594 391 2855 752 
Q 3116 1113 3116 1747 
z
" transform="scale(0.015625)"/>
      <path id="DejaVuSans-54" d="M -19 4666 
L 3928 4666 
L 3928 4134 
L 2272 4134 
L 2272 0 
L 1638 0 
L 1638 4134 
L -19 4134 
L -19 4666 
z
" transform="scale(0.015625)"/>
     </defs>
     <use xlink:href="#DejaVuSans-42"/>
     <use xlink:href="#DejaVuSans-72" transform="translate(68.603516 0)"/>
     <use xlink:href="#DejaVuSans-6f" transform="translate(107.466797 0)"/>
     <use xlink:href="#DejaVuSans-77" transform="translate(168.648438 0)"/>
     <use xlink:href="#DejaVuSans-6e" transform="translate(250.435547 0)"/>
     <use xlink:href="#DejaVuSans-69" transform="translate(313.814453 0)"/>
     <use xlink:href="#DejaVuSans-61" transform="translate(341.597656 0)"/>
     <use xlink:href="#DejaVuSans-6e" transform="translate(402.876953 0)"/>
     <use xlink:href="#DejaVuSans-20" transform="translate(466.255859 0)"/>
     <use xlink:href="#DejaVuSans-6d" transform="translate(498.042969 0)"/>
     <use xlink:href="#DejaVuSans-6f" transform="translate(595.455078 0)"/>
     <use xlink:href="#DejaVuSans-74" transform="translate(656.636719 0)"/>
     <use xlink:href="#DejaVuSans-69" transform="translate(695.845703 0)"/>
     <use xlink:href="#DejaVuSans-6f" transform="translate(723.628906 0)"/>
     <use xlink:href="#DejaVuSans-6e" transform="translate(784.810547 0)"/>
     <use xlink:href="#DejaVuSans-20" transform="translate(848.189453 0)"/>
     <use xlink:href="#DejaVuSans-63" transform="translate(879.976562 0)"/>
     <use xlink:href="#DejaVuSans-6f" transform="translate(934.957031 0)"/>
     <use xlink:href="#DejaVuSans-6e" transform="translate(996.138672 0)"/>
     <use xlink:href="#DejaVuSans-76" transform="translate(1059.517578 0)"/>
     <use xlink:href="#DejaVuSans-65" transform="translate(1118.697266 0)"/>
     <use xlink:href="#DejaVuSans-72" transform="translate(1180.220703 0)"/>
     <use xlink:href="#DejaVuSans-67" transform="translate(1219.583984 0)"/>
     <use xlink:href="#DejaVuSans-69" transform="translate(1283.060547 0)"/>
     <use xlink:href="#DejaVuSans-6e" transform="translate(1310.84375 0)"/>
     <use xlink:href="#DejaVuSans-67" transform="translate(1374.222656 0)"/>
     <use xlink:href="#DejaVuSans-20" transform="translate(1437.699219 0)"/>
     <use xlink:href="#DejaVuSans-74" transform="translate(1469.486328 0)"/>
     <use xlink:href="#DejaVuSans-6f" transform="translate(1508.695312 0)"/>
     <use xlink:href="#DejaVuSans-20" transform="translate(1569.876953 0)"/>
     <use xlink:href="#DejaVuSans-61" transform="translate(1601.664062 0)"/>
     <use xlink:href="#DejaVuSans-20" transform="translate(1662.943359 0)"/>
     <use xlink:href="#DejaVuSans-70" transform="translate(1694.730469 0)"/>
     <use xlink:href="#DejaVuSans-6f" transform="translate(1758.207031 0)"/>
     <use xlink:href="#DejaVuSans-69" transform="translate(1819.388672 0)"/>
     <use xlink:href="#DejaVuSans-6e" transform="translate(1847.171875 0)"/>
     <use xlink:href="#DejaVuSans-74" transform="translate(1910.550781 0)"/>
     <use xlink:href="#DejaVuSans-20" transform="translate(1949.759766 0)"/>
     <use xlink:href="#DejaVuSans-61" transform="translate(1981.546875 0)"/>
     <use xlink:href="#DejaVuSans-74" transform="translate(2042.826172 0)"/>
     <use xlink:href="#DejaVuSans-20" transform="translate(2082.035156 0)"/>
     <use xlink:href="#DejaVuSans-74" transform="translate(2113.822266 0)"/>
     <use xlink:href="#DejaVuSans-69" transform="translate(2153.03125 0)"/>
     <use xlink:href="#DejaVuSans-6d" transform="translate(2180.814453 0)"/>
     <use xlink:href="#DejaVuSans-65" transform="translate(2278.226562 0)"/>
     <use xlink:href="#DejaVuSans-20" transform="translate(2339.75 0)"/>
     <use xlink:href="#DejaVuSans-54" transform="translate(2371.537109 0)"/>
    </g>
   </g>
  </g>
 </g>
 <defs>
  <clipPath id="p2436fce490">
   <rect x="58.669476" y="31.318125" width="188.970423" height="266.112"/>
  </clipPath>
 </defs>
</svg>
