<?xml version="1.0" encoding="utf-8" standalone="no"?>
<!DOCTYPE svg PUBLIC "-//W3C//DTD SVG 1.1//EN"
  "http://www.w3.org/Graphics/SVG/1.1/DTD/svg11.dtd">
<svg xmlns:xlink="http://www.w3.org/1999/xlink" width="419.778906pt" height="334.018562pt" viewBox="0 0 419.778906 334.018562" xmlns="http://www.w3.org/2000/svg" version="1.1">
<style>/* === RDF autogenerated palette === */
:root {
    --axis-color: #000;
    --grid-stroke: rgba(0,0,0,0.2);
    --plot3d-stroke: rgba(0,0,0,0.3);
    --plot3d-grid: rgba(0,0,0,0.2);
}
@media (prefers-color-scheme: dark) {
    :root {
        --axis-color: #fff;
        --grid-stroke: rgba(255,255,255,0.2);
        --plot3d-stroke: rgba(255,255,255,0.3);
        --plot3d-grid: rgba(255,255,255,0.2);
    }
}

/* Light‑mode palette */
.c1 { fill:#FF0001; stroke:#FF0001; }.c2 { fill:#00FF02; stroke:#00FF02; }.c3 { fill:#0000FF; stroke:#0000FF; }.c4 { fill:#FF00FF; stroke:#FF00FF; }.c5 { fill:#00FFFF; stroke:#00FFFF; }.c6 { fill:#FFFF00; stroke:#FFFF00; }.c7 { fill:#FF8000; stroke:#FF8000; }.c8 { fill:#8000FF; stroke:#8000FF; }.octonary { fill:#bcbd22; stroke:#bcbd22; }.primary { fill:#d62728; stroke:#d62728; }.quaternary { fill:#9467bd; stroke:#9467bd; }.quinary { fill:#8c564b; stroke:#8c564b; }.secondary { fill:#2ca02c; stroke:#2ca02c; }.senary { fill:#e377c2; stroke:#e377c2; }.septenary { fill:#7f7f7f; stroke:#7f7f7f; }.tertiary { fill:#1f77b4; stroke:#1f77b4; }

/* Dark overrides */
@media (prefers-color-scheme: dark) {
    .c1 { fill:#FF0001; stroke:#FF0001; }.c2 { fill:#00FF02; stroke:#00FF02; }.c3 { fill:#0000FF; stroke:#0000FF; }.c4 { fill:#FF00FF; stroke:#FF00FF; }.c5 { fill:#00FFFF; stroke:#00FFFF; }.c6 { fill:#FFFF00; stroke:#FFFF00; }.c7 { fill:#FF8000; stroke:#FF8000; }.c8 { fill:#8000FF; stroke:#8000FF; }.octonary { fill:#E6DB74; stroke:#E6DB74; }.primary { fill:#FF4A98; stroke:#FF4A98; }.quaternary { fill:#B4A0FF; stroke:#B4A0FF; }.quinary { fill:#FFB86B; stroke:#FFB86B; }.secondary { fill:#0AFAFA; stroke:#0AFAFA; }.senary { fill:#FF79C6; stroke:#FF79C6; }.septenary { fill:#CCCCCC; stroke:#CCCCCC; }.tertiary { fill:#7F83FF; stroke:#7F83FF; }
}/* Axis, ticks, legend */
text, .text { fill: var(--axis-color) !important; stroke: none !important; }
.axis line, .axis path,
.tick line, .tick path,
path.domain,
line.grid { stroke: var(--axis-color) !important; }
.legend text { fill: var(--axis-color) !important; }

/* Patch paths that relied on currentColor */
.patch path[style*="stroke: currentColor"] { stroke: var(--axis-color) !important; }

/* Legend background (first child of legend group) */
g.legend > g:first-child > path:first-child {
    fill: rgba(255,255,255,0.8) !important;
    stroke: rgba(0,0,0,0.1) !important;
}
@media (prefers-color-scheme: dark) {
    g.legend > g:first-child > path:first-child {
        fill: rgba(26,26,26,0.8) !important;
        stroke: rgba(255,255,255,0.1) !important;
    }
}

/* 3‑D specific rules */
.plot3d path, .plot3d polygon {
    stroke: var(--plot3d-stroke) !important;
}
.plot3d-grid line { stroke: var(--plot3d-grid) !important; }
.plot3d-surface path[style*="fill:"] {
    fill-opacity: 0.9 !important;
}
@media (prefers-color-scheme: dark) {
    .plot3d-surface path[style*="fill:"] {
        fill-opacity: 0.95 !important;
        filter: saturate(1.2) !important;
    }
}</style>

 <metadata>
  <rdf:RDF xmlns:dc="http://purl.org/dc/elements/1.1/" xmlns:cc="http://creativecommons.org/ns#" xmlns:rdf="http://www.w3.org/1999/02/22-rdf-syntax-ns#">
   <cc:Work>
    <dc:type rdf:resource="http://purl.org/dc/dcmitype/StillImage"/>
    <dc:date>2025-04-28T19:39:16.756775</dc:date>
    <dc:format>image/svg+xml</dc:format>
    <dc:creator>
     <cc:Agent>
      <dc:title>Matplotlib v3.10.1, https://matplotlib.org/</dc:title>
     </cc:Agent>
    </dc:creator>
   </cc:Work>
  </rdf:RDF>
 </metadata>
 <defs>
  <style type="text/css">*{stroke-linejoin: round; stroke-linecap: butt}</style>
 </defs>
 <g id="figure_1">
  <g class="patch">
   <path d="M 0 334.018562 
L 419.778906 334.018562 
L 419.778906 0 
L 0 0 
L 0 334.018562 
z
" style="fill: none"/>
  </g>
  <g id="axes_1">
   <g class="patch">
    <path d="M 55.458906 297.430125 
L 412.578906 297.430125 
L 412.578906 31.318125 
L 55.458906 31.318125 
L 55.458906 297.430125 
z
" style="fill: none"/>
   </g>
   <g class="axis">
    <g class="tick xtick">
     <g id="line2d_1">
      <path d="M 85.218906 297.430125 
L 85.218906 31.318125 
" clip-path="url(#pce7a36bac0)" style="fill: none; stroke: #b0b0b0; stroke-opacity: 0.15; stroke-width: 0.8; stroke-linecap: square"/>
     </g>
     <g id="line2d_2">
      <defs>
       <path id="m92a462895b" d="M 0 0 
L 0 3.5 
" style="stroke: currentColor; stroke-width: 0.8"/>
      </defs>
      <g>
       <use xlink:href="#m92a462895b" x="85.218906" y="297.430125" style="stroke: currentColor; stroke-width: 0.8"/>
      </g>
     </g>
     <g id="text_1" class="text">
      <!-- 0.0 -->
      <g transform="translate(78.0625 311.268719) scale(0.09 -0.09)">
       <defs>
        <path id="DejaVuSans-30" d="M 2034 4250 
Q 1547 4250 1301 3770 
Q 1056 3291 1056 2328 
Q 1056 1369 1301 889 
Q 1547 409 2034 409 
Q 2525 409 2770 889 
Q 3016 1369 3016 2328 
Q 3016 3291 2770 3770 
Q 2525 4250 2034 4250 
z
M 2034 4750 
Q 2819 4750 3233 4129 
Q 3647 3509 3647 2328 
Q 3647 1150 3233 529 
Q 2819 -91 2034 -91 
Q 1250 -91 836 529 
Q 422 1150 422 2328 
Q 422 3509 836 4129 
Q 1250 4750 2034 4750 
z
" transform="scale(0.015625)"/>
        <path id="DejaVuSans-2e" d="M 684 794 
L 1344 794 
L 1344 0 
L 684 0 
L 684 794 
z
" transform="scale(0.015625)"/>
       </defs>
       <use xlink:href="#DejaVuSans-30"/>
       <use xlink:href="#DejaVuSans-2e" transform="translate(63.623047 0)"/>
       <use xlink:href="#DejaVuSans-30" transform="translate(95.410156 0)"/>
      </g>
     </g>
    </g>
    <g class="tick xtick">
     <g id="line2d_3">
      <path d="M 159.618906 297.430125 
L 159.618906 31.318125 
" clip-path="url(#pce7a36bac0)" style="fill: none; stroke: #b0b0b0; stroke-opacity: 0.15; stroke-width: 0.8; stroke-linecap: square"/>
     </g>
     <g id="line2d_4">
      <g>
       <use xlink:href="#m92a462895b" x="159.618906" y="297.430125" style="stroke: currentColor; stroke-width: 0.8"/>
      </g>
     </g>
     <g id="text_2" class="text">
      <!-- 0.5 -->
      <g transform="translate(152.4625 311.268719) scale(0.09 -0.09)">
       <defs>
        <path id="DejaVuSans-35" d="M 691 4666 
L 3169 4666 
L 3169 4134 
L 1269 4134 
L 1269 2991 
Q 1406 3038 1543 3061 
Q 1681 3084 1819 3084 
Q 2600 3084 3056 2656 
Q 3513 2228 3513 1497 
Q 3513 744 3044 326 
Q 2575 -91 1722 -91 
Q 1428 -91 1123 -41 
Q 819 9 494 109 
L 494 744 
Q 775 591 1075 516 
Q 1375 441 1709 441 
Q 2250 441 2565 725 
Q 2881 1009 2881 1497 
Q 2881 1984 2565 2268 
Q 2250 2553 1709 2553 
Q 1456 2553 1204 2497 
Q 953 2441 691 2322 
L 691 4666 
z
" transform="scale(0.015625)"/>
       </defs>
       <use xlink:href="#DejaVuSans-30"/>
       <use xlink:href="#DejaVuSans-2e" transform="translate(63.623047 0)"/>
       <use xlink:href="#DejaVuSans-35" transform="translate(95.410156 0)"/>
      </g>
     </g>
    </g>
    <g class="tick xtick">
     <g id="line2d_5">
      <path d="M 234.018906 297.430125 
L 234.018906 31.318125 
" clip-path="url(#pce7a36bac0)" style="fill: none; stroke: #b0b0b0; stroke-opacity: 0.15; stroke-width: 0.8; stroke-linecap: square"/>
     </g>
     <g id="line2d_6">
      <g>
       <use xlink:href="#m92a462895b" x="234.018906" y="297.430125" style="stroke: currentColor; stroke-width: 0.8"/>
      </g>
     </g>
     <g id="text_3" class="text">
      <!-- 1.0 -->
      <g transform="translate(226.8625 311.268719) scale(0.09 -0.09)">
       <defs>
        <path id="DejaVuSans-31" d="M 794 531 
L 1825 531 
L 1825 4091 
L 703 3866 
L 703 4441 
L 1819 4666 
L 2450 4666 
L 2450 531 
L 3481 531 
L 3481 0 
L 794 0 
L 794 531 
z
" transform="scale(0.015625)"/>
       </defs>
       <use xlink:href="#DejaVuSans-31"/>
       <use xlink:href="#DejaVuSans-2e" transform="translate(63.623047 0)"/>
       <use xlink:href="#DejaVuSans-30" transform="translate(95.410156 0)"/>
      </g>
     </g>
    </g>
    <g class="tick xtick">
     <g id="line2d_7">
      <path d="M 308.418906 297.430125 
L 308.418906 31.318125 
" clip-path="url(#pce7a36bac0)" style="fill: none; stroke: #b0b0b0; stroke-opacity: 0.15; stroke-width: 0.8; stroke-linecap: square"/>
     </g>
     <g id="line2d_8">
      <g>
       <use xlink:href="#m92a462895b" x="308.418906" y="297.430125" style="stroke: currentColor; stroke-width: 0.8"/>
      </g>
     </g>
     <g id="text_4" class="text">
      <!-- 1.5 -->
      <g transform="translate(301.2625 311.268719) scale(0.09 -0.09)">
       <use xlink:href="#DejaVuSans-31"/>
       <use xlink:href="#DejaVuSans-2e" transform="translate(63.623047 0)"/>
       <use xlink:href="#DejaVuSans-35" transform="translate(95.410156 0)"/>
      </g>
     </g>
    </g>
    <g class="tick xtick">
     <g id="line2d_9">
      <path d="M 382.818906 297.430125 
L 382.818906 31.318125 
" clip-path="url(#pce7a36bac0)" style="fill: none; stroke: #b0b0b0; stroke-opacity: 0.15; stroke-width: 0.8; stroke-linecap: square"/>
     </g>
     <g id="line2d_10">
      <g>
       <use xlink:href="#m92a462895b" x="382.818906" y="297.430125" style="stroke: currentColor; stroke-width: 0.8"/>
      </g>
     </g>
     <g id="text_5" class="text">
      <!-- 2.0 -->
      <g transform="translate(375.6625 311.268719) scale(0.09 -0.09)">
       <defs>
        <path id="DejaVuSans-32" d="M 1228 531 
L 3431 531 
L 3431 0 
L 469 0 
L 469 531 
Q 828 903 1448 1529 
Q 2069 2156 2228 2338 
Q 2531 2678 2651 2914 
Q 2772 3150 2772 3378 
Q 2772 3750 2511 3984 
Q 2250 4219 1831 4219 
Q 1534 4219 1204 4116 
Q 875 4013 500 3803 
L 500 4441 
Q 881 4594 1212 4672 
Q 1544 4750 1819 4750 
Q 2544 4750 2975 4387 
Q 3406 4025 3406 3419 
Q 3406 3131 3298 2873 
Q 3191 2616 2906 2266 
Q 2828 2175 2409 1742 
Q 1991 1309 1228 531 
z
" transform="scale(0.015625)"/>
       </defs>
       <use xlink:href="#DejaVuSans-32"/>
       <use xlink:href="#DejaVuSans-2e" transform="translate(63.623047 0)"/>
       <use xlink:href="#DejaVuSans-30" transform="translate(95.410156 0)"/>
      </g>
     </g>
    </g>
    <g id="text_6" class="text">
     <!-- $t$ -->
     <g transform="translate(232.018906 324.738875) scale(0.1 -0.1)">
      <defs>
       <path id="DejaVuSans-Oblique-74" d="M 2706 3500 
L 2619 3053 
L 1472 3053 
L 1100 1153 
Q 1081 1047 1072 975 
Q 1063 903 1063 863 
Q 1063 663 1183 572 
Q 1303 481 1569 481 
L 2150 481 
L 2053 0 
L 1503 0 
Q 991 0 739 200 
Q 488 400 488 806 
Q 488 878 497 964 
Q 506 1050 525 1153 
L 897 3053 
L 409 3053 
L 500 3500 
L 978 3500 
L 1172 4494 
L 1747 4494 
L 1556 3500 
L 2706 3500 
z
" transform="scale(0.015625)"/>
      </defs>
      <use xlink:href="#DejaVuSans-Oblique-74" transform="translate(0 0.78125)"/>
     </g>
    </g>
   </g>
   <g class="axis">
    <g class="tick ytick">
     <g id="line2d_11">
      <path d="M 55.458906 282.011759 
L 412.578906 282.011759 
" clip-path="url(#pce7a36bac0)" style="fill: none; stroke: #b0b0b0; stroke-opacity: 0.15; stroke-width: 0.8; stroke-linecap: square"/>
     </g>
     <g id="line2d_12">
      <defs>
       <path id="ma53e3fcbc4" d="M 0 0 
L -3.5 0 
" style="stroke: currentColor; stroke-width: 0.8"/>
      </defs>
      <g>
       <use xlink:href="#ma53e3fcbc4" x="55.458906" y="282.011759" style="stroke: currentColor; stroke-width: 0.8"/>
      </g>
     </g>
     <g id="text_7" class="text">
      <!-- −1.75 -->
      <g transform="translate(20.878125 285.431056) scale(0.09 -0.09)">
       <defs>
        <path id="DejaVuSans-2212" d="M 678 2272 
L 4684 2272 
L 4684 1741 
L 678 1741 
L 678 2272 
z
" transform="scale(0.015625)"/>
        <path id="DejaVuSans-37" d="M 525 4666 
L 3525 4666 
L 3525 4397 
L 1831 0 
L 1172 0 
L 2766 4134 
L 525 4134 
L 525 4666 
z
" transform="scale(0.015625)"/>
       </defs>
       <use xlink:href="#DejaVuSans-2212"/>
       <use xlink:href="#DejaVuSans-31" transform="translate(83.789062 0)"/>
       <use xlink:href="#DejaVuSans-2e" transform="translate(147.412109 0)"/>
       <use xlink:href="#DejaVuSans-37" transform="translate(179.199219 0)"/>
       <use xlink:href="#DejaVuSans-35" transform="translate(242.822266 0)"/>
      </g>
     </g>
    </g>
    <g class="tick ytick">
     <g id="line2d_13">
      <path d="M 55.458906 249.871549 
L 412.578906 249.871549 
" clip-path="url(#pce7a36bac0)" style="fill: none; stroke: #b0b0b0; stroke-opacity: 0.15; stroke-width: 0.8; stroke-linecap: square"/>
     </g>
     <g id="line2d_14">
      <g>
       <use xlink:href="#ma53e3fcbc4" x="55.458906" y="249.871549" style="stroke: currentColor; stroke-width: 0.8"/>
      </g>
     </g>
     <g id="text_8" class="text">
      <!-- −1.50 -->
      <g transform="translate(20.878125 253.290846) scale(0.09 -0.09)">
       <use xlink:href="#DejaVuSans-2212"/>
       <use xlink:href="#DejaVuSans-31" transform="translate(83.789062 0)"/>
       <use xlink:href="#DejaVuSans-2e" transform="translate(147.412109 0)"/>
       <use xlink:href="#DejaVuSans-35" transform="translate(179.199219 0)"/>
       <use xlink:href="#DejaVuSans-30" transform="translate(242.822266 0)"/>
      </g>
     </g>
    </g>
    <g class="tick ytick">
     <g id="line2d_15">
      <path d="M 55.458906 217.73134 
L 412.578906 217.73134 
" clip-path="url(#pce7a36bac0)" style="fill: none; stroke: #b0b0b0; stroke-opacity: 0.15; stroke-width: 0.8; stroke-linecap: square"/>
     </g>
     <g id="line2d_16">
      <g>
       <use xlink:href="#ma53e3fcbc4" x="55.458906" y="217.73134" style="stroke: currentColor; stroke-width: 0.8"/>
      </g>
     </g>
     <g id="text_9" class="text">
      <!-- −1.25 -->
      <g transform="translate(20.878125 221.150637) scale(0.09 -0.09)">
       <use xlink:href="#DejaVuSans-2212"/>
       <use xlink:href="#DejaVuSans-31" transform="translate(83.789062 0)"/>
       <use xlink:href="#DejaVuSans-2e" transform="translate(147.412109 0)"/>
       <use xlink:href="#DejaVuSans-32" transform="translate(179.199219 0)"/>
       <use xlink:href="#DejaVuSans-35" transform="translate(242.822266 0)"/>
      </g>
     </g>
    </g>
    <g class="tick ytick">
     <g id="line2d_17">
      <path d="M 55.458906 185.59113 
L 412.578906 185.59113 
" clip-path="url(#pce7a36bac0)" style="fill: none; stroke: #b0b0b0; stroke-opacity: 0.15; stroke-width: 0.8; stroke-linecap: square"/>
     </g>
     <g id="line2d_18">
      <g>
       <use xlink:href="#ma53e3fcbc4" x="55.458906" y="185.59113" style="stroke: currentColor; stroke-width: 0.8"/>
      </g>
     </g>
     <g id="text_10" class="text">
      <!-- −1.00 -->
      <g transform="translate(20.878125 189.010427) scale(0.09 -0.09)">
       <use xlink:href="#DejaVuSans-2212"/>
       <use xlink:href="#DejaVuSans-31" transform="translate(83.789062 0)"/>
       <use xlink:href="#DejaVuSans-2e" transform="translate(147.412109 0)"/>
       <use xlink:href="#DejaVuSans-30" transform="translate(179.199219 0)"/>
       <use xlink:href="#DejaVuSans-30" transform="translate(242.822266 0)"/>
      </g>
     </g>
    </g>
    <g class="tick ytick">
     <g id="line2d_19">
      <path d="M 55.458906 153.450921 
L 412.578906 153.450921 
" clip-path="url(#pce7a36bac0)" style="fill: none; stroke: #b0b0b0; stroke-opacity: 0.15; stroke-width: 0.8; stroke-linecap: square"/>
     </g>
     <g id="line2d_20">
      <g>
       <use xlink:href="#ma53e3fcbc4" x="55.458906" y="153.450921" style="stroke: currentColor; stroke-width: 0.8"/>
      </g>
     </g>
     <g id="text_11" class="text">
      <!-- −0.75 -->
      <g transform="translate(20.878125 156.870218) scale(0.09 -0.09)">
       <use xlink:href="#DejaVuSans-2212"/>
       <use xlink:href="#DejaVuSans-30" transform="translate(83.789062 0)"/>
       <use xlink:href="#DejaVuSans-2e" transform="translate(147.412109 0)"/>
       <use xlink:href="#DejaVuSans-37" transform="translate(179.199219 0)"/>
       <use xlink:href="#DejaVuSans-35" transform="translate(242.822266 0)"/>
      </g>
     </g>
    </g>
    <g class="tick ytick">
     <g id="line2d_21">
      <path d="M 55.458906 121.310712 
L 412.578906 121.310712 
" clip-path="url(#pce7a36bac0)" style="fill: none; stroke: #b0b0b0; stroke-opacity: 0.15; stroke-width: 0.8; stroke-linecap: square"/>
     </g>
     <g id="line2d_22">
      <g>
       <use xlink:href="#ma53e3fcbc4" x="55.458906" y="121.310712" style="stroke: currentColor; stroke-width: 0.8"/>
      </g>
     </g>
     <g id="text_12" class="text">
      <!-- −0.50 -->
      <g transform="translate(20.878125 124.730008) scale(0.09 -0.09)">
       <use xlink:href="#DejaVuSans-2212"/>
       <use xlink:href="#DejaVuSans-30" transform="translate(83.789062 0)"/>
       <use xlink:href="#DejaVuSans-2e" transform="translate(147.412109 0)"/>
       <use xlink:href="#DejaVuSans-35" transform="translate(179.199219 0)"/>
       <use xlink:href="#DejaVuSans-30" transform="translate(242.822266 0)"/>
      </g>
     </g>
    </g>
    <g class="tick ytick">
     <g id="line2d_23">
      <path d="M 55.458906 89.170502 
L 412.578906 89.170502 
" clip-path="url(#pce7a36bac0)" style="fill: none; stroke: #b0b0b0; stroke-opacity: 0.15; stroke-width: 0.8; stroke-linecap: square"/>
     </g>
     <g id="line2d_24">
      <g>
       <use xlink:href="#ma53e3fcbc4" x="55.458906" y="89.170502" style="stroke: currentColor; stroke-width: 0.8"/>
      </g>
     </g>
     <g id="text_13" class="text">
      <!-- −0.25 -->
      <g transform="translate(20.878125 92.589799) scale(0.09 -0.09)">
       <use xlink:href="#DejaVuSans-2212"/>
       <use xlink:href="#DejaVuSans-30" transform="translate(83.789062 0)"/>
       <use xlink:href="#DejaVuSans-2e" transform="translate(147.412109 0)"/>
       <use xlink:href="#DejaVuSans-32" transform="translate(179.199219 0)"/>
       <use xlink:href="#DejaVuSans-35" transform="translate(242.822266 0)"/>
      </g>
     </g>
    </g>
    <g class="tick ytick">
     <g id="line2d_25">
      <path d="M 55.458906 57.030293 
L 412.578906 57.030293 
" clip-path="url(#pce7a36bac0)" style="fill: none; stroke: #b0b0b0; stroke-opacity: 0.15; stroke-width: 0.8; stroke-linecap: square"/>
     </g>
     <g id="line2d_26">
      <g>
       <use xlink:href="#ma53e3fcbc4" x="55.458906" y="57.030293" style="stroke: currentColor; stroke-width: 0.8"/>
      </g>
     </g>
     <g id="text_14" class="text">
      <!-- 0.00 -->
      <g transform="translate(28.419844 60.449589) scale(0.09 -0.09)">
       <use xlink:href="#DejaVuSans-30"/>
       <use xlink:href="#DejaVuSans-2e" transform="translate(63.623047 0)"/>
       <use xlink:href="#DejaVuSans-30" transform="translate(95.410156 0)"/>
       <use xlink:href="#DejaVuSans-30" transform="translate(159.033203 0)"/>
      </g>
     </g>
    </g>
    <g id="text_15" class="text">
     <!-- Value -->
     <g transform="translate(14.798438 178.105375) rotate(-90) scale(0.1 -0.1)">
      <defs>
       <path id="DejaVuSans-56" d="M 1831 0 
L 50 4666 
L 709 4666 
L 2188 738 
L 3669 4666 
L 4325 4666 
L 2547 0 
L 1831 0 
z
" transform="scale(0.015625)"/>
       <path id="DejaVuSans-61" d="M 2194 1759 
Q 1497 1759 1228 1600 
Q 959 1441 959 1056 
Q 959 750 1161 570 
Q 1363 391 1709 391 
Q 2188 391 2477 730 
Q 2766 1069 2766 1631 
L 2766 1759 
L 2194 1759 
z
M 3341 1997 
L 3341 0 
L 2766 0 
L 2766 531 
Q 2569 213 2275 61 
Q 1981 -91 1556 -91 
Q 1019 -91 701 211 
Q 384 513 384 1019 
Q 384 1609 779 1909 
Q 1175 2209 1959 2209 
L 2766 2209 
L 2766 2266 
Q 2766 2663 2505 2880 
Q 2244 3097 1772 3097 
Q 1472 3097 1187 3025 
Q 903 2953 641 2809 
L 641 3341 
Q 956 3463 1253 3523 
Q 1550 3584 1831 3584 
Q 2591 3584 2966 3190 
Q 3341 2797 3341 1997 
z
" transform="scale(0.015625)"/>
       <path id="DejaVuSans-6c" d="M 603 4863 
L 1178 4863 
L 1178 0 
L 603 0 
L 603 4863 
z
" transform="scale(0.015625)"/>
       <path id="DejaVuSans-75" d="M 544 1381 
L 544 3500 
L 1119 3500 
L 1119 1403 
Q 1119 906 1312 657 
Q 1506 409 1894 409 
Q 2359 409 2629 706 
Q 2900 1003 2900 1516 
L 2900 3500 
L 3475 3500 
L 3475 0 
L 2900 0 
L 2900 538 
Q 2691 219 2414 64 
Q 2138 -91 1772 -91 
Q 1169 -91 856 284 
Q 544 659 544 1381 
z
M 1991 3584 
L 1991 3584 
z
" transform="scale(0.015625)"/>
       <path id="DejaVuSans-65" d="M 3597 1894 
L 3597 1613 
L 953 1613 
Q 991 1019 1311 708 
Q 1631 397 2203 397 
Q 2534 397 2845 478 
Q 3156 559 3463 722 
L 3463 178 
Q 3153 47 2828 -22 
Q 2503 -91 2169 -91 
Q 1331 -91 842 396 
Q 353 884 353 1716 
Q 353 2575 817 3079 
Q 1281 3584 2069 3584 
Q 2775 3584 3186 3129 
Q 3597 2675 3597 1894 
z
M 3022 2063 
Q 3016 2534 2758 2815 
Q 2500 3097 2075 3097 
Q 1594 3097 1305 2825 
Q 1016 2553 972 2059 
L 3022 2063 
z
" transform="scale(0.015625)"/>
      </defs>
      <use xlink:href="#DejaVuSans-56"/>
      <use xlink:href="#DejaVuSans-61" transform="translate(60.658203 0)"/>
      <use xlink:href="#DejaVuSans-6c" transform="translate(121.9375 0)"/>
      <use xlink:href="#DejaVuSans-75" transform="translate(149.720703 0)"/>
      <use xlink:href="#DejaVuSans-65" transform="translate(213.099609 0)"/>
     </g>
    </g>
   </g>
   <g id="line2d_27">
    <path d="M 85.218906 57.030293 
L 85.218906 62.577625 
L 86.714384 62.346665 
L 88.209861 65.647216 
L 89.705338 66.587759 
L 91.200816 77.870695 
L 92.696293 77.43852 
L 94.191771 71.131214 
L 95.687248 82.621428 
L 97.182725 102.261743 
L 98.678203 113.821349 
L 100.17368 109.818563 
L 101.669158 90.230188 
L 103.164635 90.775593 
L 104.660112 89.424364 
L 107.651067 107.074684 
L 109.146544 98.844706 
L 110.642022 98.534706 
L 112.137499 111.171546 
L 113.632977 115.084938 
L 115.128454 116.257574 
L 116.623931 111.684662 
L 118.119409 116.191981 
L 119.614886 117.215654 
L 121.110364 112.981782 
L 122.605841 103.961855 
L 124.101318 86.933466 
L 125.596796 95.789986 
L 127.092273 86.582706 
L 128.58775 88.20368 
L 130.083228 103.236118 
L 131.578705 129.906971 
L 133.074183 126.651009 
L 134.56966 131.932583 
L 136.065137 146.542946 
L 137.560615 144.609606 
L 139.056092 150.421742 
L 140.55157 175.186517 
L 142.047047 180.254917 
L 143.542524 163.988266 
L 145.038002 167.045745 
L 146.533479 161.782835 
L 148.028957 164.915552 
L 149.524434 162.490582 
L 151.019911 146.220711 
L 152.515389 147.940525 
L 154.010866 134.375705 
L 155.506343 128.932261 
L 157.001821 130.924136 
L 158.497298 121.903918 
L 159.992776 126.084854 
L 161.488253 117.544755 
L 162.98373 130.43408 
L 164.479208 172.02172 
L 165.974685 168.925435 
L 167.470163 169.800929 
L 168.96564 157.767182 
L 170.461117 178.858817 
L 171.956595 190.310095 
L 173.452072 195.611562 
L 174.947549 216.733584 
L 176.443027 204.049592 
L 177.938504 211.930147 
L 179.433982 208.49773 
L 180.929459 187.354513 
L 182.424936 187.146009 
L 183.920414 181.967931 
L 185.415891 200.91072 
L 186.911369 199.852069 
L 188.406846 184.425969 
L 189.902323 191.835168 
L 191.397801 187.267263 
L 192.893278 220.317365 
L 194.388755 225.594134 
L 195.884233 232.51826 
L 197.37971 217.794367 
L 198.875188 207.965375 
L 200.370665 218.771713 
L 201.866142 223.570378 
L 203.36162 223.633746 
L 204.857097 231.708154 
L 206.352575 241.901211 
L 207.848052 242.678992 
L 209.343529 223.738062 
L 210.839007 216.79518 
L 212.334484 206.660872 
L 213.829962 189.562616 
L 215.325439 192.177525 
L 216.820916 178.134406 
L 218.316394 186.035305 
L 219.811871 192.883086 
L 221.307348 187.047343 
L 222.802826 196.124804 
L 224.298303 191.337241 
L 225.793781 197.653289 
L 227.289258 201.530698 
L 228.784735 203.104497 
L 230.280213 198.729929 
L 231.77569 187.748875 
L 233.271168 201.106751 
L 234.766645 210.114145 
L 236.262122 204.327237 
L 237.7576 214.761749 
L 239.253077 189.53786 
L 240.748554 182.24115 
L 242.244032 193.579022 
L 243.739509 202.219785 
L 245.234987 220.346145 
L 246.730464 221.092708 
L 248.225941 239.391167 
L 249.721419 249.570818 
L 251.216896 271.717957 
L 252.712374 234.934574 
L 255.703328 215.243295 
L 257.198806 232.137652 
L 258.694283 228.733609 
L 260.189761 224.838516 
L 261.685238 221.865101 
L 263.180715 210.598012 
L 264.676193 213.547893 
L 266.17167 211.83603 
L 267.667147 218.001937 
L 269.162625 237.967083 
L 270.658102 237.936814 
L 272.15358 234.744662 
L 273.649057 255.943675 
L 275.144534 241.977503 
L 276.640012 245.864311 
L 278.135489 248.55361 
L 279.630967 249.588137 
L 281.126444 245.628984 
L 282.621921 248.135483 
L 284.117399 241.255901 
L 285.612876 251.548732 
L 287.108353 233.732126 
L 288.603831 234.211619 
L 290.099308 211.758259 
L 291.594786 213.871189 
L 293.090263 218.251843 
L 294.58574 215.715288 
L 296.081218 196.023905 
L 297.576695 218.342958 
L 299.072173 224.755629 
L 300.56765 227.099062 
L 302.063127 204.694777 
L 303.558605 203.257252 
L 305.054082 219.755323 
L 306.54956 196.156983 
L 308.045037 225.709094 
L 309.540514 215.557328 
L 311.035992 221.349123 
L 312.531469 200.123664 
L 314.026946 191.380236 
L 315.522424 213.684645 
L 317.017901 247.44005 
L 318.513379 257.398209 
L 320.008856 258.012912 
L 321.504333 269.335576 
L 322.999811 269.211175 
L 324.495288 252.622106 
L 325.990766 243.200712 
L 327.486243 239.776974 
L 328.98172 243.265783 
L 330.477198 239.262656 
L 331.972675 251.138568 
L 333.468152 219.997474 
L 334.96363 221.216906 
L 336.459107 224.089687 
L 337.954585 215.696526 
L 339.450062 231.539448 
L 340.945539 230.268812 
L 342.441017 220.672495 
L 343.936494 205.603717 
L 345.431972 199.712625 
L 346.927449 191.773622 
L 348.422926 161.124107 
L 349.918404 153.984394 
L 351.413881 120.834048 
L 352.909359 128.560279 
L 354.404836 117.135299 
L 355.900313 120.447445 
L 357.395791 143.946561 
L 358.891268 149.627862 
L 360.386745 139.203986 
L 361.882223 143.304991 
L 363.3777 138.84571 
L 364.873178 153.94567 
L 366.368655 145.053123 
L 367.864132 154.801581 
L 369.35961 152.741088 
L 370.855087 158.524052 
L 372.350565 148.325314 
L 373.846042 140.476044 
L 375.341519 139.941056 
L 376.836997 123.113138 
L 378.332474 107.748239 
L 379.827951 112.999806 
L 381.323429 125.796125 
L 382.818906 115.227206 
L 382.818906 115.227206 
" clip-path="url(#pce7a36bac0)" style="fill: none; stroke: #ff0001; stroke-width: 2; stroke-linecap: square"/>
   </g>
   <g id="line2d_28">
    <path d="M 85.218906 297.430125 
L 85.218906 31.318125 
" clip-path="url(#pce7a36bac0)" style="fill: none; stroke-dasharray: 5.55,2.4; stroke-dashoffset: 0; stroke: #808080; stroke-opacity: 0.7; stroke-width: 1.5"/>
   </g>
   <g id="line2d_29">
    <path d="M 234.018906 297.430125 
L 234.018906 31.318125 
" clip-path="url(#pce7a36bac0)" style="fill: none; stroke-dasharray: 5.55,2.4; stroke-dashoffset: 0; stroke: #808080; stroke-opacity: 0.7; stroke-width: 1.5"/>
   </g>
   <g id="line2d_30">
    <path d="M 382.818906 297.430125 
L 382.818906 31.318125 
" clip-path="url(#pce7a36bac0)" style="fill: none; stroke-dasharray: 5.55,2.4; stroke-dashoffset: 0; stroke: #808080; stroke-opacity: 0.7; stroke-width: 1.5"/>
   </g>
   <g class="patch">
    <path d="M 55.458906 297.430125 
L 55.458906 31.318125 
" style="fill: none; stroke: currentColor; stroke-width: 0.8; stroke-linejoin: miter; stroke-linecap: square"/>
   </g>
   <g class="patch">
    <path d="M 55.458906 297.430125 
L 412.578906 297.430125 
" style="fill: none; stroke: currentColor; stroke-width: 0.8; stroke-linejoin: miter; stroke-linecap: square"/>
   </g>
   <g id="text_16" class="text">
    <!-- $t_0$ -->
    <g transform="translate(79.998906 280.836082) scale(0.12 -0.12)">
     <use xlink:href="#DejaVuSans-Oblique-74" transform="translate(0 0.78125)"/>
     <use xlink:href="#DejaVuSans-30" transform="translate(39.208984 -15.625) scale(0.7)"/>
    </g>
   </g>
   <g id="text_17" class="text">
    <!-- $t_1$ -->
    <g transform="translate(228.798906 280.836082) scale(0.12 -0.12)">
     <use xlink:href="#DejaVuSans-Oblique-74" transform="translate(0 0.78125)"/>
     <use xlink:href="#DejaVuSans-31" transform="translate(39.208984 -15.625) scale(0.7)"/>
    </g>
   </g>
   <g id="text_18" class="text">
    <!-- $t_2$ -->
    <g transform="translate(377.598906 280.836082) scale(0.12 -0.12)">
     <use xlink:href="#DejaVuSans-Oblique-74" transform="translate(0 0.78125)"/>
     <use xlink:href="#DejaVuSans-32" transform="translate(39.208984 -15.625) scale(0.7)"/>
    </g>
   </g>
   <g id="text_19" class="text">
    <!-- Brownian Motion Path -->
    <g transform="translate(168.709844 16.318125) scale(0.12 -0.12)">
     <defs>
      <path id="DejaVuSans-42" d="M 1259 2228 
L 1259 519 
L 2272 519 
Q 2781 519 3026 730 
Q 3272 941 3272 1375 
Q 3272 1813 3026 2020 
Q 2781 2228 2272 2228 
L 1259 2228 
z
M 1259 4147 
L 1259 2741 
L 2194 2741 
Q 2656 2741 2882 2914 
Q 3109 3088 3109 3444 
Q 3109 3797 2882 3972 
Q 2656 4147 2194 4147 
L 1259 4147 
z
M 628 4666 
L 2241 4666 
Q 2963 4666 3353 4366 
Q 3744 4066 3744 3513 
Q 3744 3084 3544 2831 
Q 3344 2578 2956 2516 
Q 3422 2416 3680 2098 
Q 3938 1781 3938 1306 
Q 3938 681 3513 340 
Q 3088 0 2303 0 
L 628 0 
L 628 4666 
z
" transform="scale(0.015625)"/>
      <path id="DejaVuSans-72" d="M 2631 2963 
Q 2534 3019 2420 3045 
Q 2306 3072 2169 3072 
Q 1681 3072 1420 2755 
Q 1159 2438 1159 1844 
L 1159 0 
L 581 0 
L 581 3500 
L 1159 3500 
L 1159 2956 
Q 1341 3275 1631 3429 
Q 1922 3584 2338 3584 
Q 2397 3584 2469 3576 
Q 2541 3569 2628 3553 
L 2631 2963 
z
" transform="scale(0.015625)"/>
      <path id="DejaVuSans-6f" d="M 1959 3097 
Q 1497 3097 1228 2736 
Q 959 2375 959 1747 
Q 959 1119 1226 758 
Q 1494 397 1959 397 
Q 2419 397 2687 759 
Q 2956 1122 2956 1747 
Q 2956 2369 2687 2733 
Q 2419 3097 1959 3097 
z
M 1959 3584 
Q 2709 3584 3137 3096 
Q 3566 2609 3566 1747 
Q 3566 888 3137 398 
Q 2709 -91 1959 -91 
Q 1206 -91 779 398 
Q 353 888 353 1747 
Q 353 2609 779 3096 
Q 1206 3584 1959 3584 
z
" transform="scale(0.015625)"/>
      <path id="DejaVuSans-77" d="M 269 3500 
L 844 3500 
L 1563 769 
L 2278 3500 
L 2956 3500 
L 3675 769 
L 4391 3500 
L 4966 3500 
L 4050 0 
L 3372 0 
L 2619 2869 
L 1863 0 
L 1184 0 
L 269 3500 
z
" transform="scale(0.015625)"/>
      <path id="DejaVuSans-6e" d="M 3513 2113 
L 3513 0 
L 2938 0 
L 2938 2094 
Q 2938 2591 2744 2837 
Q 2550 3084 2163 3084 
Q 1697 3084 1428 2787 
Q 1159 2491 1159 1978 
L 1159 0 
L 581 0 
L 581 3500 
L 1159 3500 
L 1159 2956 
Q 1366 3272 1645 3428 
Q 1925 3584 2291 3584 
Q 2894 3584 3203 3211 
Q 3513 2838 3513 2113 
z
" transform="scale(0.015625)"/>
      <path id="DejaVuSans-69" d="M 603 3500 
L 1178 3500 
L 1178 0 
L 603 0 
L 603 3500 
z
M 603 4863 
L 1178 4863 
L 1178 4134 
L 603 4134 
L 603 4863 
z
" transform="scale(0.015625)"/>
      <path id="DejaVuSans-20" transform="scale(0.015625)"/>
      <path id="DejaVuSans-4d" d="M 628 4666 
L 1569 4666 
L 2759 1491 
L 3956 4666 
L 4897 4666 
L 4897 0 
L 4281 0 
L 4281 4097 
L 3078 897 
L 2444 897 
L 1241 4097 
L 1241 0 
L 628 0 
L 628 4666 
z
" transform="scale(0.015625)"/>
      <path id="DejaVuSans-74" d="M 1172 4494 
L 1172 3500 
L 2356 3500 
L 2356 3053 
L 1172 3053 
L 1172 1153 
Q 1172 725 1289 603 
Q 1406 481 1766 481 
L 2356 481 
L 2356 0 
L 1766 0 
Q 1100 0 847 248 
Q 594 497 594 1153 
L 594 3053 
L 172 3053 
L 172 3500 
L 594 3500 
L 594 4494 
L 1172 4494 
z
" transform="scale(0.015625)"/>
      <path id="DejaVuSans-50" d="M 1259 4147 
L 1259 2394 
L 2053 2394 
Q 2494 2394 2734 2622 
Q 2975 2850 2975 3272 
Q 2975 3691 2734 3919 
Q 2494 4147 2053 4147 
L 1259 4147 
z
M 628 4666 
L 2053 4666 
Q 2838 4666 3239 4311 
Q 3641 3956 3641 3272 
Q 3641 2581 3239 2228 
Q 2838 1875 2053 1875 
L 1259 1875 
L 1259 0 
L 628 0 
L 628 4666 
z
" transform="scale(0.015625)"/>
      <path id="DejaVuSans-68" d="M 3513 2113 
L 3513 0 
L 2938 0 
L 2938 2094 
Q 2938 2591 2744 2837 
Q 2550 3084 2163 3084 
Q 1697 3084 1428 2787 
Q 1159 2491 1159 1978 
L 1159 0 
L 581 0 
L 581 4863 
L 1159 4863 
L 1159 2956 
Q 1366 3272 1645 3428 
Q 1925 3584 2291 3584 
Q 2894 3584 3203 3211 
Q 3513 2838 3513 2113 
z
" transform="scale(0.015625)"/>
     </defs>
     <use xlink:href="#DejaVuSans-42"/>
     <use xlink:href="#DejaVuSans-72" transform="translate(68.603516 0)"/>
     <use xlink:href="#DejaVuSans-6f" transform="translate(107.466797 0)"/>
     <use xlink:href="#DejaVuSans-77" transform="translate(168.648438 0)"/>
     <use xlink:href="#DejaVuSans-6e" transform="translate(250.435547 0)"/>
     <use xlink:href="#DejaVuSans-69" transform="translate(313.814453 0)"/>
     <use xlink:href="#DejaVuSans-61" transform="translate(341.597656 0)"/>
     <use xlink:href="#DejaVuSans-6e" transform="translate(402.876953 0)"/>
     <use xlink:href="#DejaVuSans-20" transform="translate(466.255859 0)"/>
     <use xlink:href="#DejaVuSans-4d" transform="translate(498.042969 0)"/>
     <use xlink:href="#DejaVuSans-6f" transform="translate(584.322266 0)"/>
     <use xlink:href="#DejaVuSans-74" transform="translate(645.503906 0)"/>
     <use xlink:href="#DejaVuSans-69" transform="translate(684.712891 0)"/>
     <use xlink:href="#DejaVuSans-6f" transform="translate(712.496094 0)"/>
     <use xlink:href="#DejaVuSans-6e" transform="translate(773.677734 0)"/>
     <use xlink:href="#DejaVuSans-20" transform="translate(837.056641 0)"/>
     <use xlink:href="#DejaVuSans-50" transform="translate(868.84375 0)"/>
     <use xlink:href="#DejaVuSans-61" transform="translate(924.646484 0)"/>
     <use xlink:href="#DejaVuSans-74" transform="translate(985.925781 0)"/>
     <use xlink:href="#DejaVuSans-68" transform="translate(1025.134766 0)"/>
    </g>
   </g>
  </g>
 </g>
 <defs>
  <clipPath id="pce7a36bac0">
   <rect x="55.458906" y="31.318125" width="357.12" height="266.112"/>
  </clipPath>
 </defs>
</svg>
