<svg xmlns="http://www.w3.org/2000/svg" xmlns:xlink="http://www.w3.org/1999/xlink" width="209.535" height="501.905" viewBox="0 0 157.151 376.428"><style><![CDATA[.text{fill:#000!important;stroke:none!important}.axis path,.tick path,[stroke=black],[stroke=currentColor]{stroke:#000!important}@media (prefers-color-scheme:dark){.text{fill:#fff!important;stroke:none!important}.axis path,.tick path,[stroke=black],[stroke=currentColor]{stroke:#fff!important}}*{stroke-linejoin:round;stroke-linecap:butt}]]></style><g id="figure_1"><path d="M0 376.428h157.151V0H0z" class="patch" style="fill:none"/><g id="axes_1"><path d="M41.268 158.4h108.683V7.2H41.268z" class="patch" style="fill:none"/><g class="axis"><g class="tick xtick"><path id="line2d_1" d="M44.52 158.4V7.2" clip-path="url(#p10401bce92)" style="fill:none;stroke:#b0b0b0;stroke-opacity:.1;stroke-width:.8;stroke-linecap:square"/><g id="line2d_2"><defs><path id="m1a8b9188ba" d="M0 0v3.5" style="stroke:currentColor;stroke-width:.8"/></defs><use xlink:href="#m1a8b9188ba" x="44.52" y="158.4" style="stroke:currentColor;stroke-width:.8"/></g></g><g class="tick xtick"><path id="line2d_3" d="M77.045 158.4V7.2" clip-path="url(#p10401bce92)" style="fill:none;stroke:#b0b0b0;stroke-opacity:.1;stroke-width:.8;stroke-linecap:square"/><use xlink:href="#m1a8b9188ba" id="line2d_4" x="77.045" y="158.4" style="stroke:currentColor;stroke-width:.8"/></g><g class="tick xtick"><path id="line2d_5" d="M109.57 158.4V7.2" clip-path="url(#p10401bce92)" style="fill:none;stroke:#b0b0b0;stroke-opacity:.1;stroke-width:.8;stroke-linecap:square"/><use xlink:href="#m1a8b9188ba" id="line2d_6" x="109.569" y="158.4" style="stroke:currentColor;stroke-width:.8"/></g><g class="tick xtick"><path id="line2d_7" d="M142.094 158.4V7.2" clip-path="url(#p10401bce92)" style="fill:none;stroke:#b0b0b0;stroke-opacity:.1;stroke-width:.8;stroke-linecap:square"/><use xlink:href="#m1a8b9188ba" id="line2d_8" x="142.094" y="158.4" style="stroke:currentColor;stroke-width:.8"/></g><g id="text_1" class="text" transform="matrix(.1 0 0 -.1 93.61 173.498)"><defs><path id="DejaVuSans-Oblique-74" d="m2706 3500-87-447H1472l-372-1900q-19-106-28-178t-9-112q0-200 120-291t386-91h581L2053 0h-550Q991 0 739 200 488 400 488 806q0 72 9 158t28 189l372 1900H409l91 447h478l194 994h575l-191-994z" transform="scale(.01563)"/></defs><use xlink:href="#DejaVuSans-Oblique-74" transform="translate(0 .781)"/></g></g><g class="axis"><g class="tick ytick"><path id="line2d_9" d="M41.268 148.408h108.683" clip-path="url(#p10401bce92)" style="fill:none;stroke:#b0b0b0;stroke-opacity:.1;stroke-width:.8;stroke-linecap:square"/><g id="line2d_10"><defs><path id="m134dd2a1bf" d="M0 0h-3.5" style="stroke:currentColor;stroke-width:.8"/></defs><use xlink:href="#m134dd2a1bf" x="41.268" y="148.408" style="stroke:currentColor;stroke-width:.8"/></g><g id="text_2" class="text" transform="matrix(.09 0 0 -.09 21 151.827)"><defs><path id="DejaVuSans-2212" d="M678 2272h4006v-531H678z" transform="scale(.01563)"/><path id="DejaVuSans-32" d="M1228 531h2203V0H469v531q359 372 979 998 621 627 780 809 303 340 423 576 121 236 121 464 0 372-261 606-261 235-680 235-297 0-627-103-329-103-704-313v638q381 153 712 231 332 78 607 78 725 0 1156-363 431-362 431-968 0-288-108-546-107-257-392-607-78-91-497-524-418-433-1181-1211z" transform="scale(.01563)"/></defs><use xlink:href="#DejaVuSans-2212"/><use xlink:href="#DejaVuSans-32" transform="translate(83.79)"/></g></g><g class="tick ytick"><path id="line2d_11" d="M41.268 115.883h108.683" clip-path="url(#p10401bce92)" style="fill:none;stroke:#b0b0b0;stroke-opacity:.1;stroke-width:.8;stroke-linecap:square"/><use xlink:href="#m134dd2a1bf" id="line2d_12" x="41.268" y="115.883" style="stroke:currentColor;stroke-width:.8"/><g id="text_3" class="text" transform="matrix(.09 0 0 -.09 28.542 119.303)"><defs><path id="DejaVuSans-30" d="M2034 4250q-487 0-733-480-245-479-245-1442 0-959 245-1439 246-480 733-480 491 0 736 480 246 480 246 1439 0 963-246 1442-245 480-736 480zm0 500q785 0 1199-621 414-620 414-1801 0-1178-414-1799Q2819-91 2034-91q-784 0-1198 620-414 621-414 1799 0 1181 414 1801 414 621 1198 621z" transform="scale(.01563)"/></defs><use xlink:href="#DejaVuSans-30"/></g></g><g class="tick ytick"><path id="line2d_13" d="M41.268 83.359h108.683" clip-path="url(#p10401bce92)" style="fill:none;stroke:#b0b0b0;stroke-opacity:.1;stroke-width:.8;stroke-linecap:square"/><use xlink:href="#m134dd2a1bf" id="line2d_14" x="41.268" y="83.359" style="stroke:currentColor;stroke-width:.8"/><use xlink:href="#DejaVuSans-32" id="text_4" class="text" transform="matrix(.09 0 0 -.09 28.542 86.778)"/></g><g class="tick ytick"><path id="line2d_15" d="M41.268 50.835h108.683" clip-path="url(#p10401bce92)" style="fill:none;stroke:#b0b0b0;stroke-opacity:.1;stroke-width:.8;stroke-linecap:square"/><use xlink:href="#m134dd2a1bf" id="line2d_16" x="41.268" y="50.835" style="stroke:currentColor;stroke-width:.8"/><g id="text_5" class="text" transform="matrix(.09 0 0 -.09 28.542 54.254)"><defs><path id="DejaVuSans-34" d="M2419 4116 825 1625h1594zm-166 550h794V1625h666v-525h-666V0h-628v1100H313v609z" transform="scale(.01563)"/></defs><use xlink:href="#DejaVuSans-34"/></g></g><g class="tick ytick"><path id="line2d_17" d="M41.268 18.31h108.683" clip-path="url(#p10401bce92)" style="fill:none;stroke:#b0b0b0;stroke-opacity:.1;stroke-width:.8;stroke-linecap:square"/><use xlink:href="#m134dd2a1bf" id="line2d_18" x="41.268" y="18.31" style="stroke:currentColor;stroke-width:.8"/><g id="text_6" class="text" transform="matrix(.09 0 0 -.09 28.542 21.73)"><defs><path id="DejaVuSans-36" d="M2113 2584q-425 0-674-291-248-290-248-796 0-503 248-796 249-292 674-292t673 292q248 293 248 796 0 506-248 796-248 291-673 291zm1253 1979v-575q-238 112-480 171-242 60-480 60-625 0-955-422-329-422-376-1275 184 272 462 417 279 145 613 145 703 0 1111-427 408-426 408-1160 0-719-425-1154Q2819-91 2113-91q-810 0-1238 620-428 621-428 1799 0 1106 525 1764t1409 658q238 0 480-47t505-140z" transform="scale(.01563)"/></defs><use xlink:href="#DejaVuSans-36"/></g></g><g id="text_7" class="text" transform="matrix(0 -.1 -.1 0 14.92 90.45)"><defs><path id="DejaVuSans-Oblique-66" d="m3059 4863-90-479h-550q-313 0-455-123t-211-452l-62-309h947l-85-447h-947L1013 0H434l597 3053H481l82 447h550l46 244q119 619 417 869 299 250 940 250z" transform="scale(.01563)"/><path id="DejaVuSans-28" d="M1984 4856q-418-718-622-1422-203-703-203-1425 0-721 205-1429t620-1424h-500Q1016-109 783 600T550 2009q0 697 231 1403 232 707 703 1444z" transform="scale(.01563)"/><path id="DejaVuSans-29" d="M513 4856h500q468-737 701-1444 233-706 233-1403 0-700-233-1409T1013-844H513q415 716 620 1424t205 1429q0 722-205 1425-205 704-620 1422z" transform="scale(.01563)"/></defs><use xlink:href="#DejaVuSans-Oblique-66" transform="translate(0 .016)"/><use xlink:href="#DejaVuSans-28" transform="translate(35.205 .016)"/><use xlink:href="#DejaVuSans-Oblique-74" transform="translate(74.219 .016)"/><use xlink:href="#DejaVuSans-29" transform="translate(113.428 .016)"/></g></g><path id="line2d_19" d="m44.52 133.844 1.033-1.753 1.032-1.818 1.032-1.876 1.032-1.927 1.032-1.969 1.032-2.004 1.032-2.03 1.032-2.05 1.032-2.058 1.032-2.062 1.033-2.054 1.032-2.04 1.032-2.017 1.032-1.987 1.032-1.947 1.032-1.9 1.032-1.846 1.032-1.784 1.032-1.715 1.033-1.638 1.032-1.557 1.032-1.467 1.032-1.372L69.29 89.7l1.032-1.166 1.032-1.057 1.032-.942 1.032-.825 1.032-.702 1.033-.579 1.032-.451 1.032-.323 1.032-.194 1.032-.063 1.032.068 1.032.199 1.032.328 1.032.457 1.033.583 1.032.707 1.032.83 1.032.946 1.032 1.061 1.032 1.171 1.032 1.276 1.032 1.377 1.032 1.47 1.032 1.56 1.033 1.642 1.032 1.718 1.032 1.786 1.032 1.848 1.032 1.902 1.032 1.95 1.032 1.987 1.032 2.018 1.032 2.04 1.033 2.056 1.032 2.06 1.032 2.06 1.032 2.048 1.032 2.03 1.032 2.002 1.032 1.968 1.032 1.925 1.032 1.874 1.032 1.816 1.033 1.75 1.032 1.678 1.032 1.598 1.032 1.512 1.032 1.421 1.032 1.323 1.032 1.22 1.032 1.112 1.032 1 1.033.884 1.032.764 1.032.64 1.032.516 1.032.388 1.032.258 1.032.128 1.032-.002 1.032-.134 1.032-.263 1.033-.393 1.032-.52 1.032-.646 1.032-.768 1.032-.888 1.032-1.005 1.032-1.116 1.032-1.225 1.032-1.327 1.033-1.424 1.032-1.516 1.032-1.601 1.032-1.681" clip-path="url(#p10401bce92)" style="fill:none;stroke:#8000ff;stroke-width:2;stroke-linecap:square"/><path d="M41.268 158.4V7.2M41.268 158.4h108.683" class="patch" style="fill:none;stroke:currentColor;stroke-width:.8;stroke-linejoin:miter;stroke-linecap:square"/></g><g id="axes_2"><path d="M41.268 339.84h108.683v-151.2H41.268z" class="patch" style="fill:none"/><g class="axis"><g class="tick xtick"><path id="line2d_20" d="M44.52 339.84v-151.2" clip-path="url(#pa0f0c07b43)" style="fill:none;stroke:#b0b0b0;stroke-opacity:.1;stroke-width:.8;stroke-linecap:square"/><use xlink:href="#m1a8b9188ba" id="line2d_21" x="44.52" y="339.84" style="stroke:currentColor;stroke-width:.8"/><use xlink:href="#DejaVuSans-30" id="text_8" class="text" transform="matrix(.09 0 0 -.09 41.657 353.679)"/></g><g class="tick xtick"><path id="line2d_22" d="M77.045 339.84v-151.2" clip-path="url(#pa0f0c07b43)" style="fill:none;stroke:#b0b0b0;stroke-opacity:.1;stroke-width:.8;stroke-linecap:square"/><use xlink:href="#m1a8b9188ba" id="line2d_23" x="77.045" y="339.84" style="stroke:currentColor;stroke-width:.8"/><use xlink:href="#DejaVuSans-32" id="text_9" class="text" transform="matrix(.09 0 0 -.09 74.182 353.679)"/></g><g class="tick xtick"><path id="line2d_24" d="M109.57 339.84v-151.2" clip-path="url(#pa0f0c07b43)" style="fill:none;stroke:#b0b0b0;stroke-opacity:.1;stroke-width:.8;stroke-linecap:square"/><use xlink:href="#m1a8b9188ba" id="line2d_25" x="109.569" y="339.84" style="stroke:currentColor;stroke-width:.8"/><use xlink:href="#DejaVuSans-34" id="text_10" class="text" transform="matrix(.09 0 0 -.09 106.706 353.679)"/></g><g class="tick xtick"><path id="line2d_26" d="M142.094 339.84v-151.2" clip-path="url(#pa0f0c07b43)" style="fill:none;stroke:#b0b0b0;stroke-opacity:.1;stroke-width:.8;stroke-linecap:square"/><use xlink:href="#m1a8b9188ba" id="line2d_27" x="142.094" y="339.84" style="stroke:currentColor;stroke-width:.8"/><use xlink:href="#DejaVuSans-36" id="text_11" class="text" transform="matrix(.09 0 0 -.09 139.23 353.679)"/></g><use xlink:href="#DejaVuSans-Oblique-74" id="text_12" class="text" transform="matrix(.1 0 0 -.1 93.61 367.07)"/></g><g class="axis"><g class="tick ytick"><path id="line2d_28" d="M41.268 329.848h108.683" clip-path="url(#pa0f0c07b43)" style="fill:none;stroke:#b0b0b0;stroke-opacity:.1;stroke-width:.8;stroke-linecap:square"/><use xlink:href="#m134dd2a1bf" id="line2d_29" x="41.268" y="329.848" style="stroke:currentColor;stroke-width:.8"/><g id="text_13" class="text" transform="matrix(.09 0 0 -.09 21 333.267)"><use xlink:href="#DejaVuSans-2212"/><use xlink:href="#DejaVuSans-32" transform="translate(83.79)"/></g></g><g class="tick ytick"><path id="line2d_30" d="M41.268 297.323h108.683" clip-path="url(#pa0f0c07b43)" style="fill:none;stroke:#b0b0b0;stroke-opacity:.1;stroke-width:.8;stroke-linecap:square"/><use xlink:href="#m134dd2a1bf" id="line2d_31" x="41.268" y="297.323" style="stroke:currentColor;stroke-width:.8"/><use xlink:href="#DejaVuSans-30" id="text_14" class="text" transform="matrix(.09 0 0 -.09 28.542 300.743)"/></g><g class="tick ytick"><path id="line2d_32" d="M41.268 264.799h108.683" clip-path="url(#pa0f0c07b43)" style="fill:none;stroke:#b0b0b0;stroke-opacity:.1;stroke-width:.8;stroke-linecap:square"/><use xlink:href="#m134dd2a1bf" id="line2d_33" x="41.268" y="264.799" style="stroke:currentColor;stroke-width:.8"/><use xlink:href="#DejaVuSans-32" id="text_15" class="text" transform="matrix(.09 0 0 -.09 28.542 268.218)"/></g><g class="tick ytick"><path id="line2d_34" d="M41.268 232.275h108.683" clip-path="url(#pa0f0c07b43)" style="fill:none;stroke:#b0b0b0;stroke-opacity:.1;stroke-width:.8;stroke-linecap:square"/><use xlink:href="#m134dd2a1bf" id="line2d_35" x="41.268" y="232.275" style="stroke:currentColor;stroke-width:.8"/><use xlink:href="#DejaVuSans-34" id="text_16" class="text" transform="matrix(.09 0 0 -.09 28.542 235.694)"/></g><g class="tick ytick"><path id="line2d_36" d="M41.268 199.75h108.683" clip-path="url(#pa0f0c07b43)" style="fill:none;stroke:#b0b0b0;stroke-opacity:.1;stroke-width:.8;stroke-linecap:square"/><use xlink:href="#m134dd2a1bf" id="line2d_37" x="41.268" y="199.75" style="stroke:currentColor;stroke-width:.8"/><use xlink:href="#DejaVuSans-36" id="text_17" class="text" transform="matrix(.09 0 0 -.09 28.542 203.17)"/></g><g id="text_18" class="text" transform="matrix(0 -.1 -.1 0 14.9 273.34)"><defs><path id="DejaVuSans-Oblique-3b2" d="M872 216 572-1331H-6l934 4809q278 1425 1610 1425 1350 0 1121-1203-156-856-765-1169 819-281 659-1115Q3272-69 1759-66q-662 3-887 282zm147 750q240-544 856-541 900 0 1091 981 172 882-1291 813l103 531q1131-19 1328 1000 135 688-597 684-818 0-1006-975z" transform="scale(.01563)"/></defs><use xlink:href="#DejaVuSans-Oblique-3b2" transform="translate(0 .39)"/><use xlink:href="#DejaVuSans-28" transform="translate(63.818 .39)"/><use xlink:href="#DejaVuSans-Oblique-74" transform="translate(102.832 .39)"/><use xlink:href="#DejaVuSans-29" transform="translate(142.041 .39)"/></g></g><path id="line2d_38" d="m44.52 297.323.326 1.814.162-1.036.326-4.722.162.014.325-.301.163-3.928.163.544.162 1.963.163-.645.162-1.399.163-.175.325 1.263.163-.512.163.047.162-.46.163-1.381.162-.115.163-1.362.163.516.162-.777.488 5.43.163-2.496.162.185.163-1.085.163 1.84.162-.605.163.283.325-3.496.325-6.379.488-5.458.326 1.817.162-1.012.163-2.626.325 4.245.163-2.009.162-.268.163 1.526.163-1.009.325.514.488 1.756.162 3.085.325-2.503.163.654.163-2.137.162-.17.163.073.325-1.67.163-.035.162-2.494.163.05.163 2.29.162-.204.163-1.369.163.578.162 1.324.325-3.315.163.69.163-.672.325.46.163-1.068.162.931.163-.326.162 2.092.163-.66.163 1.847.162-.436.163 2.64.163-.357.162-3.469.325-.454.163 1.54.163.177.162-.897.163.3.163 2.833.162.689.325 3.855.163 1.247.163-.385.162 1.679.163-1.202.488 2.52.162-.573.326 3.846.162.876.163-.527.162.39.488-4.79.163 1.005.163-.915.325-3.736.162-1.23.163.043.325 2.569.163-.637.163 2.135.162-.871.325 3.937.163.373.163-1.306.162.137.163-2.8.163 2.376.325-3.93.162.426.326 1.176.162-2.134.163 1.088.162-.337.163.737.163-.033.162 2.145.163.469.163 1.256.487-2.334.163 2.067.325-.543.326-3.032.162-.246.488 7.166.163-1.12.162.876.163-.196.163.762.162-1.782.163-.424.162.378.163.84.163 1.81.325-1.525.163.879.162-1.22.163 3.016.325 1.535.163-1.14.162 4.16.163.302.163 3.248.325-2.501.162-2.237.163-.46.163.458.162-.43.163 2.464.162-2.994.163 1.608.163-.631.162-.133.326 4.884.487-3.304.163-.062.163.147.162.962.163-.498.163 1.76.162-.417.325-3.187.163 1.73.163-3.184.162-.528.326-2.412.162 1.135.163-.334.325 2.303.163-.497.162-1.664.163.21.163 2.061.162.32.163 1.648.162.255.163-.152.163-.885.325 3.345.163-.053.487 4.274.163.82.163 3.048.162-1.259.325.914.163.746.163-.028.162.119.326-1.003.162-.004.325 1.505.163-.89.163-1.785.325 1.484.163-1.773.162-.066.163 1.486.162-.429.163 1.397.163 2.374.488-1.422.162.89.163-3.526.162.781.488 6.827.163-1.227.163 1.358.162-2.458.325 2.709.163-.764.163 1.78.162-.53.163 1.554.162-.855.163.45.163.851.325 3.159.488-3.183.162-.63.163-1.16.163 1.15.162-.206.163 1.55.325-1.824.163 2.732.162-1.277.163 1.955.163-.444.162-1.463.163.925.163 1.571.162.364.163 2.55.162.575.163 1.116.163-1.412.162 1.066.326-3.093.162 1.335.163-1.093.162-2.643.163-.534.163.3.162-2.904.163-.698.163.238.325-3.242.162.143.163-1.166.163 3.99.162.247.325 1.588.163-.164.325 2.089.163-.815.163 1.544.162.425.163-.25.162.024.326 2.371.325-2.532.163.348.162 2.996.325-1.806.163.14.163-2.89.162.638.326 2.967.325-4.582.162.593.163 1.86.163.281.325-3.828.163-.883.325 3.326.162-.829.163 1.295.163 3.086.325-1.783.163-.162.487-4.996.163.939.163-.738.162-3.08.325 2.245.163-1.228.325 2.417.488-2.61.163.7.162-.22.326-3.35.325 2.093.163-1.031.162 2.857.325.578.326 3.256.162-.61.163 1.87.325-3.553.163-.567.162.127.326 1.07.162-.694.326 4.863.162-.403.325 3.897.326-3.59.162-1.193.325.41.163-3.38.488 4.322.163 3.646.487-2.259.163-.095.163-1.545.162 1.59.163-2.692.163 1.27.162-.715.163.871.162-1.35.326 4.659.162.766.163-2.125.163-.12.162 1.612.163.195.162-.223.488-3.712.326-.228.162.696.325 3.464.326 3.288.162.71.163-1.256.163 1.11.162 3.037.163-2.211.488 2.277.162 2.806.163-.587.162-2.563.163.503.163-.817.162-2.683.163-.144.163.106.325-1.624.162-.82.163.616.163-1.247.162-.052.163-3.74.163-1.174.162-.024.163-.87.325-6.066.163-.453.162-.835.163 1.697.163-.121.487 2.067.163.212.163-1.794.162.044.163 1.217.163-.61.162.337.163-.12.325-1.558.163 1.14.162 2.943.326-1.069.65-8.07.163-.322.162.008.163 2.053.162-3 .163 2.683.163.383.325 2.65.325-1.54.163 1.21.162-4.863.163 2.664.325.443.163-.085.163 1.512.162-.56.163.384.162.813.326 3.48.162-.14.163.543.325-1.94.488 3.784.163.836.162 1.776.163-.337.163 1.06.162-1.262.163-.381.325 1.417.325.285.163.586.325-1.253.325 3.34.163-1.131.163 2.064.162-.533.163-2.387.162 2.709.163-.314.163-1.651.162.354.163 2.114.325-2.339.163.588.162-.685.326 4.216.162 2.464.163-.356.163-1.21.162 1.434.163-1.072.162.91.326 4.456.162.456.163-.994.325-3.334.163 1.062.162-2.157.163 1.221.163-.793.162 2.084.326-3.427.162-.935.163 2.249.162-4.056.163-.225.163-2.269.162.502.163-1.732.162 3.023.326 2.192.162-2.997.326.015.487 5.013.488-3.715.163.205.163-3.038.162-.036.325-2.836.163-2.123.163-4.075.162-.17.488 3.441.163.307.162-1.468.163.025.163-.474.325 4.222.163 2.592.325-.73.162-2.99.163.263.65-7.552.163-3.48.325 5.175.163-.869.163.216.325 3.026.325.376.163-1.908.162.114.163 2.912.163 4.983.162-1.301.163.86.162-1.5.163 1.105.163-2.753.162 2.28.163-1.9.163-.064.162-.41.163 3.138.162-.008.163.88h0" clip-path="url(#pa0f0c07b43)" style="fill:none;stroke:#8000ff;stroke-width:2;stroke-linecap:square"/><path d="M41.268 339.84v-151.2M41.268 339.84h108.683" class="patch" style="fill:none;stroke:currentColor;stroke-width:.8;stroke-linejoin:miter;stroke-linecap:square"/></g></g><defs><clipPath id="p10401bce92"><path d="M41.268 7.2h108.683v151.2H41.268z"/></clipPath><clipPath id="pa0f0c07b43"><path d="M41.268 188.64h108.683v151.2H41.268z"/></clipPath></defs></svg>