<?xml version="1.0" encoding="utf-8" standalone="no"?>
<!DOCTYPE svg PUBLIC "-//W3C//DTD SVG 1.1//EN"
  "http://www.w3.org/Graphics/SVG/1.1/DTD/svg11.dtd">
<svg xmlns:xlink="http://www.w3.org/1999/xlink" width="405.466094pt" height="334.198307pt" viewBox="0 0 405.466094 334.198307" xmlns="http://www.w3.org/2000/svg" version="1.1">
<style>/* === RDF autogenerated palette === */
:root {
    --axis-color: #000;
    --grid-stroke: rgba(0,0,0,0.2);
    --plot3d-stroke: rgba(0,0,0,0.3);
    --plot3d-grid: rgba(0,0,0,0.2);
}
@media (prefers-color-scheme: dark) {
    :root {
        --axis-color: #fff;
        --grid-stroke: rgba(255,255,255,0.2);
        --plot3d-stroke: rgba(255,255,255,0.3);
        --plot3d-grid: rgba(255,255,255,0.2);
    }
}

/* Light‑mode palette */
.c1 { fill:#FF0001; stroke:#FF0001; }.c2 { fill:#00FF02; stroke:#00FF02; }.c3 { fill:#0000FF; stroke:#0000FF; }.c4 { fill:#FF00FF; stroke:#FF00FF; }.c5 { fill:#00FFFF; stroke:#00FFFF; }.c6 { fill:#FFFF00; stroke:#FFFF00; }.c7 { fill:#FF8000; stroke:#FF8000; }.c8 { fill:#8000FF; stroke:#8000FF; }.octonary { fill:#bcbd22; stroke:#bcbd22; }.primary { fill:#d62728; stroke:#d62728; }.quaternary { fill:#9467bd; stroke:#9467bd; }.quinary { fill:#8c564b; stroke:#8c564b; }.secondary { fill:#2ca02c; stroke:#2ca02c; }.senary { fill:#e377c2; stroke:#e377c2; }.septenary { fill:#7f7f7f; stroke:#7f7f7f; }.tertiary { fill:#1f77b4; stroke:#1f77b4; }

/* Dark overrides */
@media (prefers-color-scheme: dark) {
    .c1 { fill:#FF0001; stroke:#FF0001; }.c2 { fill:#00FF02; stroke:#00FF02; }.c3 { fill:#0000FF; stroke:#0000FF; }.c4 { fill:#FF00FF; stroke:#FF00FF; }.c5 { fill:#00FFFF; stroke:#00FFFF; }.c6 { fill:#FFFF00; stroke:#FFFF00; }.c7 { fill:#FF8000; stroke:#FF8000; }.c8 { fill:#8000FF; stroke:#8000FF; }.octonary { fill:#E6DB74; stroke:#E6DB74; }.primary { fill:#FF4A98; stroke:#FF4A98; }.quaternary { fill:#B4A0FF; stroke:#B4A0FF; }.quinary { fill:#FFB86B; stroke:#FFB86B; }.secondary { fill:#0AFAFA; stroke:#0AFAFA; }.senary { fill:#FF79C6; stroke:#FF79C6; }.septenary { fill:#CCCCCC; stroke:#CCCCCC; }.tertiary { fill:#7F83FF; stroke:#7F83FF; }
}/* Axis, ticks, legend */
text, .text { fill: var(--axis-color) !important; stroke: none !important; }
.axis line, .axis path,
.tick line, .tick path,
path.domain,
line.grid { stroke: var(--axis-color) !important; }
.legend text { fill: var(--axis-color) !important; }

/* Patch paths that relied on currentColor */
.patch path[style*="stroke: currentColor"] { stroke: var(--axis-color) !important; }

/* Legend background (first child of legend group) */
g.legend > g:first-child > path:first-child {
    fill: rgba(255,255,255,0.8) !important;
    stroke: rgba(0,0,0,0.1) !important;
}
@media (prefers-color-scheme: dark) {
    g.legend > g:first-child > path:first-child {
        fill: rgba(26,26,26,0.8) !important;
        stroke: rgba(255,255,255,0.1) !important;
    }
}

/* 3‑D specific rules */
.plot3d path, .plot3d polygon {
    stroke: var(--plot3d-stroke) !important;
}
.plot3d-grid line { stroke: var(--plot3d-grid) !important; }
.plot3d-surface path[style*="fill:"] {
    fill-opacity: 0.9 !important;
}
@media (prefers-color-scheme: dark) {
    .plot3d-surface path[style*="fill:"] {
        fill-opacity: 0.95 !important;
        filter: saturate(1.2) !important;
    }
}</style>

 <metadata>
  <rdf:RDF xmlns:dc="http://purl.org/dc/elements/1.1/" xmlns:cc="http://creativecommons.org/ns#" xmlns:rdf="http://www.w3.org/1999/02/22-rdf-syntax-ns#">
   <cc:Work>
    <dc:type rdf:resource="http://purl.org/dc/dcmitype/StillImage"/>
    <dc:date>2025-04-28T19:45:29.805250</dc:date>
    <dc:format>image/svg+xml</dc:format>
    <dc:creator>
     <cc:Agent>
      <dc:title>Matplotlib v3.10.1, https://matplotlib.org/</dc:title>
     </cc:Agent>
    </dc:creator>
   </cc:Work>
  </rdf:RDF>
 </metadata>
 <defs>
  <style type="text/css">*{stroke-linejoin: round; stroke-linecap: butt}</style>
 </defs>
 <g id="figure_1">
  <g class="patch">
   <path d="M 0 334.198307 
L 405.466094 334.198307 
L 405.466094 0 
L 0 0 
L 0 334.198307 
z
" style="fill: none"/>
  </g>
  <g id="axes_1">
   <g class="patch">
    <path d="M 41.146094 297.430125 
L 398.266094 297.430125 
L 398.266094 31.318125 
L 41.146094 31.318125 
L 41.146094 297.430125 
z
" style="fill: none"/>
   </g>
   <g id="FillBetweenPolyCollection_1">
    <defs>
     <path id="m664859e76d" d="M 317.698974 -36.768182 
L 317.626094 -36.768182 
L 317.626094 -39.456182 
L 317.626094 -42.144182 
L 317.626094 -44.832182 
L 317.626094 -47.520182 
L 317.626094 -50.208182 
L 317.626094 -52.896182 
L 317.626094 -55.584182 
L 317.626094 -58.272182 
L 317.626094 -60.960182 
L 317.626094 -63.648182 
L 317.626094 -66.336182 
L 317.626094 -69.024182 
L 317.626094 -71.712182 
L 317.626094 -74.400182 
L 317.626094 -77.088182 
L 317.626094 -79.776182 
L 317.626094 -82.464182 
L 317.626094 -85.152182 
L 317.626094 -87.840182 
L 317.626094 -90.528182 
L 317.626094 -93.216182 
L 317.626094 -95.904182 
L 317.626094 -98.592182 
L 317.626094 -101.280182 
L 317.626094 -103.968182 
L 317.626094 -106.656182 
L 317.626094 -109.344182 
L 317.626094 -112.032182 
L 317.626094 -114.720182 
L 317.626094 -117.408182 
L 317.626094 -120.096182 
L 317.626094 -122.784182 
L 317.626094 -125.472182 
L 317.626094 -128.160182 
L 317.626094 -130.848182 
L 317.626094 -133.536182 
L 317.626094 -136.224182 
L 317.626094 -138.912182 
L 317.626094 -141.600182 
L 317.626094 -144.288182 
L 317.626094 -146.976182 
L 317.626094 -149.664182 
L 317.626094 -152.352182 
L 317.626094 -155.040182 
L 317.626094 -157.728182 
L 317.626094 -160.416182 
L 317.626094 -163.104182 
L 317.626094 -165.792182 
L 317.626094 -168.480182 
L 317.626094 -171.168182 
L 317.626094 -173.856182 
L 317.626094 -176.544182 
L 317.626094 -179.232182 
L 317.626094 -181.920182 
L 317.626094 -184.608182 
L 317.626094 -187.296182 
L 317.626094 -189.984182 
L 317.626094 -192.672182 
L 317.626094 -195.360182 
L 317.626094 -198.048182 
L 317.626094 -200.736182 
L 317.626094 -203.424182 
L 317.626094 -206.112182 
L 317.626094 -208.800182 
L 317.626094 -211.488182 
L 317.626094 -214.176182 
L 317.626094 -216.864182 
L 317.626094 -219.552182 
L 317.626094 -222.240182 
L 317.626094 -224.928182 
L 317.626094 -227.616182 
L 317.626094 -230.304182 
L 317.626094 -232.992182 
L 317.626094 -235.680182 
L 317.626094 -238.368182 
L 317.626094 -241.056182 
L 317.626094 -243.744182 
L 317.626094 -246.432182 
L 317.626094 -249.120182 
L 317.626094 -251.808182 
L 317.626094 -254.496182 
L 317.626094 -257.184182 
L 317.626094 -259.872182 
L 317.626094 -262.560182 
L 317.626094 -265.248182 
L 317.626094 -267.936182 
L 317.626094 -270.624182 
L 317.626094 -273.312182 
L 317.626094 -276.000182 
L 317.626094 -278.688182 
L 317.626094 -281.376182 
L 317.626094 -284.064182 
L 317.626094 -286.752182 
L 317.626094 -289.440182 
L 317.626094 -292.128182 
L 317.626094 -294.816182 
L 317.626094 -297.504182 
L 317.626094 -300.192182 
L 317.626094 -302.880182 
L 317.654252 -302.880182 
L 317.654252 -302.880182 
L 317.664198 -300.192182 
L 317.677349 -297.504182 
L 317.694629 -294.816182 
L 317.717188 -292.128182 
L 317.746452 -289.440182 
L 317.784168 -286.752182 
L 317.832466 -284.064182 
L 317.893916 -281.376182 
L 317.971591 -278.688182 
L 318.069139 -276.000182 
L 318.190843 -273.312182 
L 318.341688 -270.624182 
L 318.527421 -267.936182 
L 318.754596 -265.248182 
L 319.030609 -262.560182 
L 319.363714 -259.872182 
L 319.76301 -257.184182 
L 320.238401 -254.496182 
L 320.800519 -251.808182 
L 321.460608 -249.120182 
L 322.230353 -246.432182 
L 323.121672 -243.744182 
L 324.146449 -241.056182 
L 325.316218 -238.368182 
L 326.641798 -235.680182 
L 328.132886 -232.992182 
L 329.797616 -230.304182 
L 331.642085 -227.616182 
L 333.669884 -224.928182 
L 335.88162 -222.240182 
L 338.274473 -219.552182 
L 340.841794 -216.864182 
L 343.572775 -214.176182 
L 346.452206 -211.488182 
L 349.460338 -208.800182 
L 352.572879 -206.112182 
L 355.761128 -203.424182 
L 358.992259 -200.736182 
L 362.229765 -198.048182 
L 365.434049 -195.360182 
L 368.563162 -192.672182 
L 371.573671 -189.984182 
L 374.421624 -187.296182 
L 377.063602 -184.608182 
L 379.457802 -181.920182 
L 381.565134 -179.232182 
L 383.350277 -176.544182 
L 384.782664 -173.856182 
L 385.837347 -171.168182 
L 386.495727 -168.480182 
L 386.746094 -165.792182 
L 386.583975 -163.104182 
L 386.012267 -160.416182 
L 385.041152 -157.728182 
L 383.687794 -155.040182 
L 381.975834 -152.352182 
L 379.934704 -149.664182 
L 377.598787 -146.976182 
L 375.006452 -144.288182 
L 372.199012 -141.600182 
L 369.219632 -138.912182 
L 366.112241 -136.224182 
L 362.920466 -133.536182 
L 359.686653 -130.848182 
L 356.450968 -128.160182 
L 353.250635 -125.472182 
L 350.119312 -122.784182 
L 347.086613 -120.096182 
L 344.177791 -117.408182 
L 341.413571 -114.720182 
L 338.81013 -112.032182 
L 336.379201 -109.344182 
L 334.1283 -106.656182 
L 332.061033 -103.968182 
L 330.177494 -101.280182 
L 328.474691 -98.592182 
L 326.947023 -95.904182 
L 325.586753 -93.216182 
L 324.384482 -90.528182 
L 323.329593 -87.840182 
L 322.410675 -85.152182 
L 321.615889 -82.464182 
L 320.933302 -79.776182 
L 320.351158 -77.088182 
L 319.858103 -74.400182 
L 319.443365 -71.712182 
L 319.096873 -69.024182 
L 318.809352 -66.336182 
L 318.572365 -63.648182 
L 318.378333 -60.960182 
L 318.220524 -58.272182 
L 318.093022 -55.584182 
L 317.990682 -52.896182 
L 317.909077 -50.208182 
L 317.844428 -47.520182 
L 317.793545 -44.832182 
L 317.753755 -42.144182 
L 317.722839 -39.456182 
L 317.698974 -36.768182 
z
" style="stroke: #0000ff; stroke-opacity: 0.3"/>
    </defs>
    <g clip-path="url(#p8c48ecf9c7)">
     <use xlink:href="#m664859e76d" x="0" y="334.198307" style="fill: #0000ff; fill-opacity: 0.3; stroke: #0000ff; stroke-opacity: 0.3"/>
    </g>
   </g>
   <g class="axis">
    <g class="tick xtick">
     <g id="line2d_1">
      <path d="M 41.146094 297.430125 
L 41.146094 31.318125 
" clip-path="url(#p8c48ecf9c7)" style="fill: none; stroke: #b0b0b0; stroke-opacity: 0.15; stroke-width: 0.8; stroke-linecap: square"/>
     </g>
     <g id="line2d_2">
      <defs>
       <path id="m58fdbcb895" d="M 0 0 
L 0 3.5 
" style="stroke: currentColor; stroke-width: 0.8"/>
      </defs>
      <g>
       <use xlink:href="#m58fdbcb895" x="41.146094" y="297.430125" style="stroke: currentColor; stroke-width: 0.8"/>
      </g>
     </g>
     <g id="text_1" class="text">
      <!-- 0.0 -->
      <g transform="translate(33.989688 311.268719) scale(0.09 -0.09)">
       <defs>
        <path id="DejaVuSans-30" d="M 2034 4250 
Q 1547 4250 1301 3770 
Q 1056 3291 1056 2328 
Q 1056 1369 1301 889 
Q 1547 409 2034 409 
Q 2525 409 2770 889 
Q 3016 1369 3016 2328 
Q 3016 3291 2770 3770 
Q 2525 4250 2034 4250 
z
M 2034 4750 
Q 2819 4750 3233 4129 
Q 3647 3509 3647 2328 
Q 3647 1150 3233 529 
Q 2819 -91 2034 -91 
Q 1250 -91 836 529 
Q 422 1150 422 2328 
Q 422 3509 836 4129 
Q 1250 4750 2034 4750 
z
" transform="scale(0.015625)"/>
        <path id="DejaVuSans-2e" d="M 684 794 
L 1344 794 
L 1344 0 
L 684 0 
L 684 794 
z
" transform="scale(0.015625)"/>
       </defs>
       <use xlink:href="#DejaVuSans-30"/>
       <use xlink:href="#DejaVuSans-2e" transform="translate(63.623047 0)"/>
       <use xlink:href="#DejaVuSans-30" transform="translate(95.410156 0)"/>
      </g>
     </g>
    </g>
    <g class="tick xtick">
     <g id="line2d_3">
      <path d="M 87.226094 297.430125 
L 87.226094 31.318125 
" clip-path="url(#p8c48ecf9c7)" style="fill: none; stroke: #b0b0b0; stroke-opacity: 0.15; stroke-width: 0.8; stroke-linecap: square"/>
     </g>
     <g id="line2d_4">
      <g>
       <use xlink:href="#m58fdbcb895" x="87.226094" y="297.430125" style="stroke: currentColor; stroke-width: 0.8"/>
      </g>
     </g>
     <g id="text_2" class="text">
      <!-- 0.2 -->
      <g transform="translate(80.069688 311.268719) scale(0.09 -0.09)">
       <defs>
        <path id="DejaVuSans-32" d="M 1228 531 
L 3431 531 
L 3431 0 
L 469 0 
L 469 531 
Q 828 903 1448 1529 
Q 2069 2156 2228 2338 
Q 2531 2678 2651 2914 
Q 2772 3150 2772 3378 
Q 2772 3750 2511 3984 
Q 2250 4219 1831 4219 
Q 1534 4219 1204 4116 
Q 875 4013 500 3803 
L 500 4441 
Q 881 4594 1212 4672 
Q 1544 4750 1819 4750 
Q 2544 4750 2975 4387 
Q 3406 4025 3406 3419 
Q 3406 3131 3298 2873 
Q 3191 2616 2906 2266 
Q 2828 2175 2409 1742 
Q 1991 1309 1228 531 
z
" transform="scale(0.015625)"/>
       </defs>
       <use xlink:href="#DejaVuSans-30"/>
       <use xlink:href="#DejaVuSans-2e" transform="translate(63.623047 0)"/>
       <use xlink:href="#DejaVuSans-32" transform="translate(95.410156 0)"/>
      </g>
     </g>
    </g>
    <g class="tick xtick">
     <g id="line2d_5">
      <path d="M 133.306094 297.430125 
L 133.306094 31.318125 
" clip-path="url(#p8c48ecf9c7)" style="fill: none; stroke: #b0b0b0; stroke-opacity: 0.15; stroke-width: 0.8; stroke-linecap: square"/>
     </g>
     <g id="line2d_6">
      <g>
       <use xlink:href="#m58fdbcb895" x="133.306094" y="297.430125" style="stroke: currentColor; stroke-width: 0.8"/>
      </g>
     </g>
     <g id="text_3" class="text">
      <!-- 0.4 -->
      <g transform="translate(126.149688 311.268719) scale(0.09 -0.09)">
       <defs>
        <path id="DejaVuSans-34" d="M 2419 4116 
L 825 1625 
L 2419 1625 
L 2419 4116 
z
M 2253 4666 
L 3047 4666 
L 3047 1625 
L 3713 1625 
L 3713 1100 
L 3047 1100 
L 3047 0 
L 2419 0 
L 2419 1100 
L 313 1100 
L 313 1709 
L 2253 4666 
z
" transform="scale(0.015625)"/>
       </defs>
       <use xlink:href="#DejaVuSans-30"/>
       <use xlink:href="#DejaVuSans-2e" transform="translate(63.623047 0)"/>
       <use xlink:href="#DejaVuSans-34" transform="translate(95.410156 0)"/>
      </g>
     </g>
    </g>
    <g class="tick xtick">
     <g id="line2d_7">
      <path d="M 179.386094 297.430125 
L 179.386094 31.318125 
" clip-path="url(#p8c48ecf9c7)" style="fill: none; stroke: #b0b0b0; stroke-opacity: 0.15; stroke-width: 0.8; stroke-linecap: square"/>
     </g>
     <g id="line2d_8">
      <g>
       <use xlink:href="#m58fdbcb895" x="179.386094" y="297.430125" style="stroke: currentColor; stroke-width: 0.8"/>
      </g>
     </g>
     <g id="text_4" class="text">
      <!-- 0.6 -->
      <g transform="translate(172.229688 311.268719) scale(0.09 -0.09)">
       <defs>
        <path id="DejaVuSans-36" d="M 2113 2584 
Q 1688 2584 1439 2293 
Q 1191 2003 1191 1497 
Q 1191 994 1439 701 
Q 1688 409 2113 409 
Q 2538 409 2786 701 
Q 3034 994 3034 1497 
Q 3034 2003 2786 2293 
Q 2538 2584 2113 2584 
z
M 3366 4563 
L 3366 3988 
Q 3128 4100 2886 4159 
Q 2644 4219 2406 4219 
Q 1781 4219 1451 3797 
Q 1122 3375 1075 2522 
Q 1259 2794 1537 2939 
Q 1816 3084 2150 3084 
Q 2853 3084 3261 2657 
Q 3669 2231 3669 1497 
Q 3669 778 3244 343 
Q 2819 -91 2113 -91 
Q 1303 -91 875 529 
Q 447 1150 447 2328 
Q 447 3434 972 4092 
Q 1497 4750 2381 4750 
Q 2619 4750 2861 4703 
Q 3103 4656 3366 4563 
z
" transform="scale(0.015625)"/>
       </defs>
       <use xlink:href="#DejaVuSans-30"/>
       <use xlink:href="#DejaVuSans-2e" transform="translate(63.623047 0)"/>
       <use xlink:href="#DejaVuSans-36" transform="translate(95.410156 0)"/>
      </g>
     </g>
    </g>
    <g class="tick xtick">
     <g id="line2d_9">
      <path d="M 225.466094 297.430125 
L 225.466094 31.318125 
" clip-path="url(#p8c48ecf9c7)" style="fill: none; stroke: #b0b0b0; stroke-opacity: 0.15; stroke-width: 0.8; stroke-linecap: square"/>
     </g>
     <g id="line2d_10">
      <g>
       <use xlink:href="#m58fdbcb895" x="225.466094" y="297.430125" style="stroke: currentColor; stroke-width: 0.8"/>
      </g>
     </g>
     <g id="text_5" class="text">
      <!-- 0.8 -->
      <g transform="translate(218.309688 311.268719) scale(0.09 -0.09)">
       <defs>
        <path id="DejaVuSans-38" d="M 2034 2216 
Q 1584 2216 1326 1975 
Q 1069 1734 1069 1313 
Q 1069 891 1326 650 
Q 1584 409 2034 409 
Q 2484 409 2743 651 
Q 3003 894 3003 1313 
Q 3003 1734 2745 1975 
Q 2488 2216 2034 2216 
z
M 1403 2484 
Q 997 2584 770 2862 
Q 544 3141 544 3541 
Q 544 4100 942 4425 
Q 1341 4750 2034 4750 
Q 2731 4750 3128 4425 
Q 3525 4100 3525 3541 
Q 3525 3141 3298 2862 
Q 3072 2584 2669 2484 
Q 3125 2378 3379 2068 
Q 3634 1759 3634 1313 
Q 3634 634 3220 271 
Q 2806 -91 2034 -91 
Q 1263 -91 848 271 
Q 434 634 434 1313 
Q 434 1759 690 2068 
Q 947 2378 1403 2484 
z
M 1172 3481 
Q 1172 3119 1398 2916 
Q 1625 2713 2034 2713 
Q 2441 2713 2670 2916 
Q 2900 3119 2900 3481 
Q 2900 3844 2670 4047 
Q 2441 4250 2034 4250 
Q 1625 4250 1398 4047 
Q 1172 3844 1172 3481 
z
" transform="scale(0.015625)"/>
       </defs>
       <use xlink:href="#DejaVuSans-30"/>
       <use xlink:href="#DejaVuSans-2e" transform="translate(63.623047 0)"/>
       <use xlink:href="#DejaVuSans-38" transform="translate(95.410156 0)"/>
      </g>
     </g>
    </g>
    <g class="tick xtick">
     <g id="line2d_11">
      <path d="M 271.546094 297.430125 
L 271.546094 31.318125 
" clip-path="url(#p8c48ecf9c7)" style="fill: none; stroke: #b0b0b0; stroke-opacity: 0.15; stroke-width: 0.8; stroke-linecap: square"/>
     </g>
     <g id="line2d_12">
      <g>
       <use xlink:href="#m58fdbcb895" x="271.546094" y="297.430125" style="stroke: currentColor; stroke-width: 0.8"/>
      </g>
     </g>
     <g id="text_6" class="text">
      <!-- 1.0 -->
      <g transform="translate(264.389688 311.268719) scale(0.09 -0.09)">
       <defs>
        <path id="DejaVuSans-31" d="M 794 531 
L 1825 531 
L 1825 4091 
L 703 3866 
L 703 4441 
L 1819 4666 
L 2450 4666 
L 2450 531 
L 3481 531 
L 3481 0 
L 794 0 
L 794 531 
z
" transform="scale(0.015625)"/>
       </defs>
       <use xlink:href="#DejaVuSans-31"/>
       <use xlink:href="#DejaVuSans-2e" transform="translate(63.623047 0)"/>
       <use xlink:href="#DejaVuSans-30" transform="translate(95.410156 0)"/>
      </g>
     </g>
    </g>
    <g class="tick xtick">
     <g id="line2d_13">
      <path d="M 317.626094 297.430125 
L 317.626094 31.318125 
" clip-path="url(#p8c48ecf9c7)" style="fill: none; stroke: #b0b0b0; stroke-opacity: 0.15; stroke-width: 0.8; stroke-linecap: square"/>
     </g>
     <g id="line2d_14">
      <g>
       <use xlink:href="#m58fdbcb895" x="317.626094" y="297.430125" style="stroke: currentColor; stroke-width: 0.8"/>
      </g>
     </g>
     <g id="text_7" class="text">
      <!-- 1.2 -->
      <g transform="translate(310.469688 311.268719) scale(0.09 -0.09)">
       <use xlink:href="#DejaVuSans-31"/>
       <use xlink:href="#DejaVuSans-2e" transform="translate(63.623047 0)"/>
       <use xlink:href="#DejaVuSans-32" transform="translate(95.410156 0)"/>
      </g>
     </g>
    </g>
    <g class="tick xtick">
     <g id="line2d_15">
      <path d="M 363.706094 297.430125 
L 363.706094 31.318125 
" clip-path="url(#p8c48ecf9c7)" style="fill: none; stroke: #b0b0b0; stroke-opacity: 0.15; stroke-width: 0.8; stroke-linecap: square"/>
     </g>
     <g id="line2d_16">
      <g>
       <use xlink:href="#m58fdbcb895" x="363.706094" y="297.430125" style="stroke: currentColor; stroke-width: 0.8"/>
      </g>
     </g>
     <g id="text_8" class="text">
      <!-- 1.4 -->
      <g transform="translate(356.549688 311.268719) scale(0.09 -0.09)">
       <use xlink:href="#DejaVuSans-31"/>
       <use xlink:href="#DejaVuSans-2e" transform="translate(63.623047 0)"/>
       <use xlink:href="#DejaVuSans-34" transform="translate(95.410156 0)"/>
      </g>
     </g>
    </g>
    <g id="text_9" class="text">
     <!-- Time -->
     <g transform="translate(207.4725 324.738875) scale(0.1 -0.1)">
      <defs>
       <path id="DejaVuSans-54" d="M -19 4666 
L 3928 4666 
L 3928 4134 
L 2272 4134 
L 2272 0 
L 1638 0 
L 1638 4134 
L -19 4134 
L -19 4666 
z
" transform="scale(0.015625)"/>
       <path id="DejaVuSans-69" d="M 603 3500 
L 1178 3500 
L 1178 0 
L 603 0 
L 603 3500 
z
M 603 4863 
L 1178 4863 
L 1178 4134 
L 603 4134 
L 603 4863 
z
" transform="scale(0.015625)"/>
       <path id="DejaVuSans-6d" d="M 3328 2828 
Q 3544 3216 3844 3400 
Q 4144 3584 4550 3584 
Q 5097 3584 5394 3201 
Q 5691 2819 5691 2113 
L 5691 0 
L 5113 0 
L 5113 2094 
Q 5113 2597 4934 2840 
Q 4756 3084 4391 3084 
Q 3944 3084 3684 2787 
Q 3425 2491 3425 1978 
L 3425 0 
L 2847 0 
L 2847 2094 
Q 2847 2600 2669 2842 
Q 2491 3084 2119 3084 
Q 1678 3084 1418 2786 
Q 1159 2488 1159 1978 
L 1159 0 
L 581 0 
L 581 3500 
L 1159 3500 
L 1159 2956 
Q 1356 3278 1631 3431 
Q 1906 3584 2284 3584 
Q 2666 3584 2933 3390 
Q 3200 3197 3328 2828 
z
" transform="scale(0.015625)"/>
       <path id="DejaVuSans-65" d="M 3597 1894 
L 3597 1613 
L 953 1613 
Q 991 1019 1311 708 
Q 1631 397 2203 397 
Q 2534 397 2845 478 
Q 3156 559 3463 722 
L 3463 178 
Q 3153 47 2828 -22 
Q 2503 -91 2169 -91 
Q 1331 -91 842 396 
Q 353 884 353 1716 
Q 353 2575 817 3079 
Q 1281 3584 2069 3584 
Q 2775 3584 3186 3129 
Q 3597 2675 3597 1894 
z
M 3022 2063 
Q 3016 2534 2758 2815 
Q 2500 3097 2075 3097 
Q 1594 3097 1305 2825 
Q 1016 2553 972 2059 
L 3022 2063 
z
" transform="scale(0.015625)"/>
      </defs>
      <use xlink:href="#DejaVuSans-54"/>
      <use xlink:href="#DejaVuSans-69" transform="translate(57.958984 0)"/>
      <use xlink:href="#DejaVuSans-6d" transform="translate(85.742188 0)"/>
      <use xlink:href="#DejaVuSans-65" transform="translate(183.154297 0)"/>
     </g>
    </g>
   </g>
   <g class="axis">
    <g class="tick ytick">
     <g id="line2d_17">
      <path d="M 41.146094 261.701259 
L 398.266094 261.701259 
" clip-path="url(#p8c48ecf9c7)" style="fill: none; stroke: #b0b0b0; stroke-opacity: 0.15; stroke-width: 0.8; stroke-linecap: square"/>
     </g>
     <g id="line2d_18">
      <defs>
       <path id="mc634988f93" d="M 0 0 
L -3.5 0 
" style="stroke: currentColor; stroke-width: 0.8"/>
      </defs>
      <g>
       <use xlink:href="#mc634988f93" x="41.146094" y="261.701259" style="stroke: currentColor; stroke-width: 0.8"/>
      </g>
     </g>
     <g id="text_10" class="text">
      <!-- −3 -->
      <g transform="translate(20.878125 265.120556) scale(0.09 -0.09)">
       <defs>
        <path id="DejaVuSans-2212" d="M 678 2272 
L 4684 2272 
L 4684 1741 
L 678 1741 
L 678 2272 
z
" transform="scale(0.015625)"/>
        <path id="DejaVuSans-33" d="M 2597 2516 
Q 3050 2419 3304 2112 
Q 3559 1806 3559 1356 
Q 3559 666 3084 287 
Q 2609 -91 1734 -91 
Q 1441 -91 1130 -33 
Q 819 25 488 141 
L 488 750 
Q 750 597 1062 519 
Q 1375 441 1716 441 
Q 2309 441 2620 675 
Q 2931 909 2931 1356 
Q 2931 1769 2642 2001 
Q 2353 2234 1838 2234 
L 1294 2234 
L 1294 2753 
L 1863 2753 
Q 2328 2753 2575 2939 
Q 2822 3125 2822 3475 
Q 2822 3834 2567 4026 
Q 2313 4219 1838 4219 
Q 1578 4219 1281 4162 
Q 984 4106 628 3988 
L 628 4550 
Q 988 4650 1302 4700 
Q 1616 4750 1894 4750 
Q 2613 4750 3031 4423 
Q 3450 4097 3450 3541 
Q 3450 3153 3228 2886 
Q 3006 2619 2597 2516 
z
" transform="scale(0.015625)"/>
       </defs>
       <use xlink:href="#DejaVuSans-2212"/>
       <use xlink:href="#DejaVuSans-33" transform="translate(83.789062 0)"/>
      </g>
     </g>
    </g>
    <g class="tick ytick">
     <g id="line2d_19">
      <path d="M 41.146094 216.815178 
L 398.266094 216.815178 
" clip-path="url(#p8c48ecf9c7)" style="fill: none; stroke: #b0b0b0; stroke-opacity: 0.15; stroke-width: 0.8; stroke-linecap: square"/>
     </g>
     <g id="line2d_20">
      <g>
       <use xlink:href="#mc634988f93" x="41.146094" y="216.815178" style="stroke: currentColor; stroke-width: 0.8"/>
      </g>
     </g>
     <g id="text_11" class="text">
      <!-- −2 -->
      <g transform="translate(20.878125 220.234475) scale(0.09 -0.09)">
       <use xlink:href="#DejaVuSans-2212"/>
       <use xlink:href="#DejaVuSans-32" transform="translate(83.789062 0)"/>
      </g>
     </g>
    </g>
    <g class="tick ytick">
     <g id="line2d_21">
      <path d="M 41.146094 171.929097 
L 398.266094 171.929097 
" clip-path="url(#p8c48ecf9c7)" style="fill: none; stroke: #b0b0b0; stroke-opacity: 0.15; stroke-width: 0.8; stroke-linecap: square"/>
     </g>
     <g id="line2d_22">
      <g>
       <use xlink:href="#mc634988f93" x="41.146094" y="171.929097" style="stroke: currentColor; stroke-width: 0.8"/>
      </g>
     </g>
     <g id="text_12" class="text">
      <!-- −1 -->
      <g transform="translate(20.878125 175.348394) scale(0.09 -0.09)">
       <use xlink:href="#DejaVuSans-2212"/>
       <use xlink:href="#DejaVuSans-31" transform="translate(83.789062 0)"/>
      </g>
     </g>
    </g>
    <g class="tick ytick">
     <g id="line2d_23">
      <path d="M 41.146094 127.043016 
L 398.266094 127.043016 
" clip-path="url(#p8c48ecf9c7)" style="fill: none; stroke: #b0b0b0; stroke-opacity: 0.15; stroke-width: 0.8; stroke-linecap: square"/>
     </g>
     <g id="line2d_24">
      <g>
       <use xlink:href="#mc634988f93" x="41.146094" y="127.043016" style="stroke: currentColor; stroke-width: 0.8"/>
      </g>
     </g>
     <g id="text_13" class="text">
      <!-- 0 -->
      <g transform="translate(28.419844 130.462313) scale(0.09 -0.09)">
       <use xlink:href="#DejaVuSans-30"/>
      </g>
     </g>
    </g>
    <g class="tick ytick">
     <g id="line2d_25">
      <path d="M 41.146094 82.156935 
L 398.266094 82.156935 
" clip-path="url(#p8c48ecf9c7)" style="fill: none; stroke: #b0b0b0; stroke-opacity: 0.15; stroke-width: 0.8; stroke-linecap: square"/>
     </g>
     <g id="line2d_26">
      <g>
       <use xlink:href="#mc634988f93" x="41.146094" y="82.156935" style="stroke: currentColor; stroke-width: 0.8"/>
      </g>
     </g>
     <g id="text_14" class="text">
      <!-- 1 -->
      <g transform="translate(28.419844 85.576232) scale(0.09 -0.09)">
       <use xlink:href="#DejaVuSans-31"/>
      </g>
     </g>
    </g>
    <g class="tick ytick">
     <g id="line2d_27">
      <path d="M 41.146094 37.270854 
L 398.266094 37.270854 
" clip-path="url(#p8c48ecf9c7)" style="fill: none; stroke: #b0b0b0; stroke-opacity: 0.15; stroke-width: 0.8; stroke-linecap: square"/>
     </g>
     <g id="line2d_28">
      <g>
       <use xlink:href="#mc634988f93" x="41.146094" y="37.270854" style="stroke: currentColor; stroke-width: 0.8"/>
      </g>
     </g>
     <g id="text_15" class="text">
      <!-- 2 -->
      <g transform="translate(28.419844 40.690151) scale(0.09 -0.09)">
       <use xlink:href="#DejaVuSans-32"/>
      </g>
     </g>
    </g>
    <g id="text_16" class="text">
     <!-- Value -->
     <g transform="translate(14.798438 178.105375) rotate(-90) scale(0.1 -0.1)">
      <defs>
       <path id="DejaVuSans-56" d="M 1831 0 
L 50 4666 
L 709 4666 
L 2188 738 
L 3669 4666 
L 4325 4666 
L 2547 0 
L 1831 0 
z
" transform="scale(0.015625)"/>
       <path id="DejaVuSans-61" d="M 2194 1759 
Q 1497 1759 1228 1600 
Q 959 1441 959 1056 
Q 959 750 1161 570 
Q 1363 391 1709 391 
Q 2188 391 2477 730 
Q 2766 1069 2766 1631 
L 2766 1759 
L 2194 1759 
z
M 3341 1997 
L 3341 0 
L 2766 0 
L 2766 531 
Q 2569 213 2275 61 
Q 1981 -91 1556 -91 
Q 1019 -91 701 211 
Q 384 513 384 1019 
Q 384 1609 779 1909 
Q 1175 2209 1959 2209 
L 2766 2209 
L 2766 2266 
Q 2766 2663 2505 2880 
Q 2244 3097 1772 3097 
Q 1472 3097 1187 3025 
Q 903 2953 641 2809 
L 641 3341 
Q 956 3463 1253 3523 
Q 1550 3584 1831 3584 
Q 2591 3584 2966 3190 
Q 3341 2797 3341 1997 
z
" transform="scale(0.015625)"/>
       <path id="DejaVuSans-6c" d="M 603 4863 
L 1178 4863 
L 1178 0 
L 603 0 
L 603 4863 
z
" transform="scale(0.015625)"/>
       <path id="DejaVuSans-75" d="M 544 1381 
L 544 3500 
L 1119 3500 
L 1119 1403 
Q 1119 906 1312 657 
Q 1506 409 1894 409 
Q 2359 409 2629 706 
Q 2900 1003 2900 1516 
L 2900 3500 
L 3475 3500 
L 3475 0 
L 2900 0 
L 2900 538 
Q 2691 219 2414 64 
Q 2138 -91 1772 -91 
Q 1169 -91 856 284 
Q 544 659 544 1381 
z
M 1991 3584 
L 1991 3584 
z
" transform="scale(0.015625)"/>
      </defs>
      <use xlink:href="#DejaVuSans-56"/>
      <use xlink:href="#DejaVuSans-61" transform="translate(60.658203 0)"/>
      <use xlink:href="#DejaVuSans-6c" transform="translate(121.9375 0)"/>
      <use xlink:href="#DejaVuSans-75" transform="translate(149.720703 0)"/>
      <use xlink:href="#DejaVuSans-65" transform="translate(213.099609 0)"/>
     </g>
    </g>
   </g>
   <g id="line2d_29">
    <path d="M 41.146094 127.043016 
L 43.450094 124.813461 
L 45.754094 125.434075 
L 48.058094 122.526855 
L 50.362094 115.690571 
L 52.666094 116.741594 
L 54.970094 117.792543 
L 57.274094 110.704076 
L 59.578094 107.259362 
L 61.882094 109.366648 
L 64.186094 106.931309 
L 66.490094 109.011409 
L 68.794094 111.101888 
L 71.098094 110.015814 
L 73.402094 118.603779 
L 75.706094 126.346259 
L 78.010094 128.870148 
L 80.314094 133.41635 
L 82.618094 132.005816 
L 84.922094 136.081581 
L 87.226094 142.420859 
L 89.530094 135.842136 
L 91.834094 136.855557 
L 94.138094 136.552449 
L 96.442094 142.947586 
L 98.746094 145.391106 
L 101.050094 144.893218 
L 103.354094 150.059577 
L 105.658094 148.373216 
L 107.962094 151.069248 
L 110.266094 152.378547 
L 112.570094 155.079372 
L 114.874094 146.765221 
L 117.178094 146.825805 
L 119.482094 151.573455 
L 121.786094 147.881373 
L 124.090094 153.361262 
L 126.394094 152.423755 
L 128.698094 161.219946 
L 131.002094 167.181653 
L 133.306094 166.29802 
L 135.610094 162.983333 
L 137.914094 162.214128 
L 140.218094 162.733227 
L 142.522094 164.084764 
L 144.826094 170.72127 
L 147.130094 173.952368 
L 149.434094 176.019995 
L 151.738094 171.274988 
L 154.042094 169.73262 
L 156.346094 177.646216 
L 158.650094 176.19153 
L 160.954094 177.920014 
L 163.258094 180.958451 
L 165.562094 178.212876 
L 167.866094 173.585123 
L 170.170094 169.404972 
L 172.474094 173.17189 
L 174.778094 174.559824 
L 177.082094 173.072912 
L 179.386094 168.694072 
" clip-path="url(#p8c48ecf9c7)" style="fill: none; stroke: #ff0001; stroke-width: 2.5; stroke-linecap: square"/>
   </g>
   <g id="line2d_30">
    <path d="M 179.386094 168.694072 
L 181.690094 176.548084 
L 183.994094 175.009926 
L 186.298094 169.8344 
L 188.602094 170.967486 
L 190.906094 166.562722 
L 193.210094 164.254595 
L 195.514094 163.261806 
L 197.818094 168.064811 
L 200.122094 168.915384 
L 202.426094 167.770782 
L 204.730094 169.826686 
L 207.034094 167.873407 
L 209.338094 170.492937 
L 211.642094 166.826431 
L 213.946094 163.80685 
L 216.250094 164.275511 
L 218.554094 166.660221 
L 220.858094 162.038154 
L 223.162094 164.004773 
L 225.466094 169.024466 
L 227.770094 161.757491 
L 230.074094 154.83783 
L 232.378094 155.968417 
L 234.682094 159.74978 
L 236.986094 158.921548 
L 239.290094 154.715354 
L 241.594094 151.43418 
L 243.898094 145.322688 
L 246.202094 146.787043 
L 248.506094 146.537135 
L 250.810094 145.53887 
L 253.114094 152.016906 
L 255.418094 155.411875 
L 257.722094 151.747133 
L 260.026094 148.37868 
L 262.330094 150.425247 
L 264.634094 145.085499 
L 266.938094 152.674015 
L 269.242094 158.762359 
L 271.546094 164.294275 
L 273.850094 166.738049 
L 276.154094 169.73721 
L 278.458094 169.704378 
L 280.762094 172.455619 
L 283.066094 166.62156 
L 285.370094 174.400747 
L 287.674094 178.81444 
L 289.978094 177.209728 
L 292.282094 184.45245 
L 294.586094 177.850992 
L 296.890094 183.183537 
L 299.194094 185.651132 
L 301.498094 189.870631 
L 303.802094 193.586895 
L 306.106094 193.098249 
L 308.410094 190.818891 
L 310.714094 194.689092 
L 313.018094 189.080712 
L 315.322094 189.438056 
L 317.626094 193.431711 
" clip-path="url(#p8c48ecf9c7)" style="fill: none; stroke: #00ff02; stroke-opacity: 0.3; stroke-linecap: square"/>
   </g>
   <g id="line2d_31">
    <path d="M 179.386094 168.694072 
L 181.690094 156.544084 
L 183.994094 153.724642 
L 186.298094 149.649123 
L 188.602094 147.387647 
L 190.906094 144.465034 
L 193.210094 145.898327 
L 195.514094 149.705013 
L 197.818094 146.985072 
L 200.122094 156.043838 
L 202.426094 152.72172 
L 204.730094 150.348084 
L 207.034094 152.991876 
L 209.338094 152.144897 
L 211.642094 155.551176 
L 213.946094 159.740112 
L 216.250094 155.453238 
L 218.554094 154.596837 
L 220.858094 145.714971 
L 223.162094 134.017805 
L 225.466094 130.949801 
L 227.770094 129.591255 
L 230.074094 121.988796 
L 232.378094 129.646747 
L 234.682094 134.84958 
L 236.986094 135.454827 
L 239.290094 133.701901 
L 241.594094 132.952731 
L 243.898094 132.124575 
L 246.202094 128.4991 
L 248.506094 128.171612 
L 250.810094 125.304348 
L 253.114094 123.824695 
L 255.418094 126.056 
L 257.722094 129.440723 
L 260.026094 133.675305 
L 262.330094 131.499445 
L 264.634094 132.023594 
L 266.938094 123.487362 
L 269.242094 122.418504 
L 271.546094 113.456314 
L 273.850094 117.914685 
L 276.154094 117.031329 
L 278.458094 122.133281 
L 280.762094 122.131636 
L 283.066094 117.526395 
L 285.370094 118.229302 
L 287.674094 118.371048 
L 289.978094 115.454235 
L 292.282094 105.781973 
L 294.586094 108.521186 
L 296.890094 111.911546 
L 299.194094 113.466483 
L 301.498094 112.806537 
L 303.802094 114.958591 
L 306.106094 112.450495 
L 308.410094 107.850523 
L 310.714094 112.00641 
L 313.018094 103.644742 
L 315.322094 108.734003 
L 317.626094 105.993807 
" clip-path="url(#p8c48ecf9c7)" style="fill: none; stroke: #00ff02; stroke-opacity: 0.3; stroke-linecap: square"/>
   </g>
   <g id="line2d_32">
    <path d="M 179.386094 168.694072 
L 181.690094 161.206767 
L 183.994094 157.050936 
L 186.298094 152.302004 
L 188.602094 156.433045 
L 190.906094 150.598983 
L 193.210094 149.112432 
L 195.514094 151.400927 
L 197.818094 155.454584 
L 200.122094 156.038176 
L 202.426094 166.084595 
L 204.730094 161.716439 
L 207.034094 161.824995 
L 209.338094 164.001646 
L 211.642094 168.980699 
L 213.946094 171.489717 
L 216.250094 166.810853 
L 218.554094 174.496529 
L 220.858094 173.88554 
L 223.162094 175.970247 
L 225.466094 175.741418 
L 227.770094 169.242369 
L 230.074094 166.580002 
L 232.378094 169.971665 
L 234.682094 172.786765 
L 236.986094 168.818679 
L 239.290094 168.088303 
L 241.594094 179.322449 
L 243.898094 177.478569 
L 246.202094 174.207494 
L 248.506094 174.076695 
L 250.810094 175.383116 
L 253.114094 173.972377 
L 255.418094 169.496384 
L 257.722094 154.106908 
L 260.026094 156.70387 
L 262.330094 157.620278 
L 264.634094 166.001267 
L 266.938094 159.522257 
L 269.242094 157.711642 
L 271.546094 160.812218 
L 273.850094 155.550279 
L 276.154094 162.602458 
L 278.458094 159.002629 
L 280.762094 161.569991 
L 283.066094 154.597415 
L 285.370094 151.449914 
L 287.674094 146.894009 
L 289.978094 147.423854 
L 292.282094 152.199243 
L 294.586094 146.917537 
L 296.890094 140.868602 
L 299.194094 144.433903 
L 301.498094 150.179066 
L 303.802094 147.680021 
L 306.106094 147.897286 
L 308.410094 146.845317 
L 310.714094 151.260568 
L 313.018094 146.354497 
L 315.322094 151.971074 
L 317.626094 145.320753 
" clip-path="url(#p8c48ecf9c7)" style="fill: none; stroke: #00ff02; stroke-opacity: 0.3; stroke-linecap: square"/>
   </g>
   <g id="line2d_33">
    <path d="M 179.386094 168.694072 
L 181.690094 174.301593 
L 183.994094 175.470119 
L 186.298094 173.747421 
L 188.602094 175.477607 
L 190.906094 180.34836 
L 193.210094 169.902386 
L 195.514094 167.968725 
L 197.818094 166.028229 
L 200.122094 170.427116 
L 202.426094 173.26376 
L 204.730094 170.671849 
L 207.034094 171.231837 
L 209.338094 166.837724 
L 211.642094 159.678746 
L 213.946094 165.073804 
L 216.250094 171.251785 
L 218.554094 166.519241 
L 220.858094 166.693639 
L 223.162094 163.640103 
L 225.466094 157.673958 
L 227.770094 151.913056 
L 230.074094 159.805168 
L 232.378094 157.047789 
L 234.682094 150.241452 
L 236.986094 151.121118 
L 239.290094 154.789236 
L 241.594094 159.036033 
L 243.898094 158.045671 
L 246.202094 160.742129 
L 248.506094 161.426938 
L 250.810094 166.756905 
L 253.114094 165.41419 
L 255.418094 169.668332 
L 257.722094 177.942551 
L 260.026094 174.304134 
L 262.330094 177.680719 
L 264.634094 179.639858 
L 266.938094 179.427651 
L 269.242094 180.553518 
L 271.546094 179.803528 
L 273.850094 176.815704 
L 276.154094 169.197795 
L 278.458094 164.468218 
L 280.762094 163.154762 
L 283.066094 166.855615 
L 285.370094 166.4022 
L 287.674094 165.285768 
L 289.978094 157.586404 
L 292.282094 159.279917 
L 294.586094 168.699944 
L 296.890094 171.40637 
L 299.194094 173.735542 
L 301.498094 183.667695 
L 303.802094 185.490318 
L 306.106094 186.821173 
L 308.410094 185.601448 
L 310.714094 187.661213 
L 313.018094 185.579047 
L 315.322094 190.191446 
L 317.626094 189.418281 
" clip-path="url(#p8c48ecf9c7)" style="fill: none; stroke: #00ff02; stroke-opacity: 0.3; stroke-linecap: square"/>
   </g>
   <g id="line2d_34">
    <path d="M 179.386094 168.694072 
L 181.690094 170.571267 
L 183.994094 173.003795 
L 186.298094 175.732464 
L 188.602094 171.568981 
L 190.906094 169.044534 
L 193.210094 171.960036 
L 195.514094 162.208908 
L 197.818094 163.121716 
L 200.122094 164.543638 
L 202.426094 164.243649 
L 204.730094 159.77172 
L 207.034094 162.166965 
L 209.338094 169.049617 
L 211.642094 170.583826 
L 213.946094 167.38759 
L 216.250094 167.995671 
L 218.554094 165.72458 
L 220.858094 168.636961 
L 223.162094 167.030858 
L 225.466094 170.614881 
L 227.770094 166.081724 
L 230.074094 160.300165 
L 232.378094 167.55559 
L 234.682094 169.737816 
L 236.986094 172.641055 
L 239.290094 175.557701 
L 241.594094 179.892686 
L 243.898094 179.640034 
L 246.202094 174.109685 
L 248.506094 166.831619 
L 250.810094 167.537262 
L 253.114094 166.172682 
L 255.418094 159.142586 
L 257.722094 153.904639 
L 260.026094 156.215706 
L 262.330094 157.198818 
L 264.634094 153.738526 
L 266.938094 151.743313 
L 269.242094 156.362791 
L 271.546094 159.693074 
L 273.850094 155.366879 
L 276.154094 158.590668 
L 278.458094 161.795401 
L 280.762094 162.351549 
L 283.066094 163.730024 
L 285.370094 167.677159 
L 287.674094 170.267631 
L 289.978094 171.283446 
L 292.282094 174.441805 
L 294.586094 172.59885 
L 296.890094 182.670513 
L 299.194094 180.193227 
L 301.498094 176.120932 
L 303.802094 173.595914 
L 306.106094 183.479265 
L 308.410094 186.53328 
L 310.714094 186.293074 
L 313.018094 181.979479 
L 315.322094 181.149089 
L 317.626094 181.467177 
" clip-path="url(#p8c48ecf9c7)" style="fill: none; stroke: #00ff02; stroke-opacity: 0.3; stroke-linecap: square"/>
   </g>
   <g id="line2d_35">
    <path d="M 179.386094 168.694072 
L 181.690094 169.795243 
L 183.994094 172.548341 
L 186.298094 175.810517 
L 188.602094 175.544046 
L 190.906094 171.03039 
L 193.210094 171.605559 
L 195.514094 178.49105 
L 197.818094 176.378217 
L 200.122094 178.870791 
L 202.426094 179.789682 
L 204.730094 172.13767 
L 207.034094 160.584685 
L 209.338094 158.090651 
L 211.642094 153.823558 
L 213.946094 160.132807 
L 216.250094 153.757538 
L 218.554094 159.533902 
L 220.858094 158.895739 
L 223.162094 155.799422 
L 225.466094 157.15623 
L 227.770094 164.22615 
L 230.074094 162.902071 
L 232.378094 158.886213 
L 234.682094 166.653283 
L 236.986094 167.067363 
L 239.290094 160.575794 
L 241.594094 152.338087 
L 243.898094 145.373596 
L 246.202094 142.603521 
L 248.506094 139.6365 
L 250.810094 139.004725 
L 253.114094 129.62574 
L 255.418094 135.402296 
L 257.722094 134.759641 
L 260.026094 131.928306 
L 262.330094 130.709187 
L 264.634094 136.715454 
L 266.938094 136.040474 
L 269.242094 135.375621 
L 271.546094 139.199038 
L 273.850094 140.760321 
L 276.154094 139.281612 
L 278.458094 142.330391 
L 280.762094 141.144847 
L 283.066094 132.422049 
L 285.370094 137.270473 
L 287.674094 137.960647 
L 289.978094 130.984454 
L 292.282094 135.267469 
L 294.586094 139.018033 
L 296.890094 137.953858 
L 299.194094 139.635442 
L 301.498094 133.284267 
L 303.802094 132.752474 
L 306.106094 128.557616 
L 308.410094 135.349778 
L 310.714094 145.995866 
L 313.018094 140.642453 
L 315.322094 143.435033 
L 317.626094 149.304491 
" clip-path="url(#p8c48ecf9c7)" style="fill: none; stroke: #00ff02; stroke-opacity: 0.6; stroke-linecap: square"/>
   </g>
   <g id="line2d_36">
    <path d="M 179.386094 168.694072 
L 181.690094 158.976528 
L 183.994094 163.423175 
L 186.298094 161.397671 
L 188.602094 158.411624 
L 190.906094 163.679523 
L 193.210094 166.381834 
L 195.514094 165.238423 
L 197.818094 164.435584 
L 200.122094 157.336627 
L 202.426094 157.057729 
L 204.730094 163.657809 
L 207.034094 164.004681 
L 209.338094 157.02429 
L 211.642094 165.874072 
L 213.946094 164.510887 
L 216.250094 175.495757 
L 218.554094 170.157414 
L 220.858094 168.363133 
L 223.162094 171.463155 
L 225.466094 175.59961 
L 227.770094 184.744525 
L 230.074094 188.873672 
L 232.378094 190.056174 
L 234.682094 192.106508 
L 236.986094 189.418105 
L 239.290094 191.863857 
L 241.594094 192.129069 
L 243.898094 188.62273 
L 246.202094 188.156576 
L 248.506094 189.762585 
L 250.810094 192.288823 
L 253.114094 188.658544 
L 255.418094 194.643555 
L 257.722094 194.174473 
L 260.026094 192.668245 
L 262.330094 202.837652 
L 264.634094 197.483348 
L 266.938094 195.904586 
L 269.242094 195.394999 
L 271.546094 197.132098 
L 273.850094 189.977337 
L 276.154094 189.150165 
L 278.458094 181.73864 
L 280.762094 192.200204 
L 283.066094 190.522481 
L 285.370094 197.150943 
L 287.674094 194.283399 
L 289.978094 198.872611 
L 292.282094 200.373647 
L 294.586094 206.682179 
L 296.890094 216.66344 
L 299.194094 211.578122 
L 301.498094 218.517089 
L 303.802094 216.907496 
L 306.106094 218.767183 
L 308.410094 223.993467 
L 310.714094 223.184327 
L 313.018094 224.536228 
L 315.322094 228.499865 
L 317.626094 230.902125 
" clip-path="url(#p8c48ecf9c7)" style="fill: none; stroke: #00ff02; stroke-opacity: 0.6; stroke-linecap: square"/>
   </g>
   <g id="line2d_37">
    <path d="M 179.386094 168.694072 
L 181.690094 166.476736 
L 183.994094 169.412186 
L 186.298094 176.032782 
L 188.602094 174.50492 
L 190.906094 178.740548 
L 193.210094 180.675336 
L 195.514094 182.220625 
L 197.818094 182.742578 
L 200.122094 180.157475 
L 202.426094 186.688314 
L 204.730094 190.601744 
L 207.034094 187.755161 
L 209.338094 194.366786 
L 211.642094 194.462305 
L 213.946094 191.892429 
L 216.250094 189.554291 
L 218.554094 189.087558 
L 220.858094 192.972694 
L 223.162094 193.324714 
L 225.466094 197.05208 
L 227.770094 198.117814 
L 230.074094 208.931066 
L 232.378094 216.503499 
L 234.682094 217.319448 
L 236.986094 213.67877 
L 239.290094 214.28583 
L 241.594094 210.024028 
L 243.898094 209.753619 
L 246.202094 199.074054 
L 248.506094 195.882944 
L 250.810094 190.462552 
L 253.114094 195.453546 
L 255.418094 187.146394 
L 257.722094 185.263037 
L 260.026094 183.031791 
L 262.330094 184.30311 
L 264.634094 181.896481 
L 266.938094 182.659552 
L 269.242094 175.760021 
L 271.546094 171.078313 
L 273.850094 169.952301 
L 276.154094 172.07446 
L 278.458094 175.746232 
L 280.762094 177.096962 
L 283.066094 170.881041 
L 285.370094 172.224213 
L 287.674094 179.485959 
L 289.978094 178.457183 
L 292.282094 184.33187 
L 294.586094 191.334482 
L 296.890094 193.259032 
L 299.194094 197.827383 
L 301.498094 198.038251 
L 303.802094 201.172985 
L 306.106094 206.260787 
L 308.410094 204.403009 
L 310.714094 207.150505 
L 313.018094 207.945358 
L 315.322094 201.561862 
L 317.626094 201.177626 
" clip-path="url(#p8c48ecf9c7)" style="fill: none; stroke: #00ff02; stroke-opacity: 0.6; stroke-linecap: square"/>
   </g>
   <g id="line2d_38">
    <path d="M 179.386094 168.694072 
L 181.690094 173.303444 
L 183.994094 172.308098 
L 186.298094 167.23422 
L 188.602094 162.089443 
L 190.906094 164.749995 
L 193.210094 164.21682 
L 195.514094 166.391238 
L 197.818094 175.121189 
L 200.122094 174.707889 
L 202.426094 170.658406 
L 204.730094 164.758272 
L 207.034094 161.297096 
L 209.338094 163.721606 
L 211.642094 164.996888 
L 213.946094 168.988747 
L 216.250094 167.174589 
L 218.554094 172.3132 
L 220.858094 169.865131 
L 223.162094 163.338381 
L 225.466094 157.844429 
L 227.770094 156.851538 
L 230.074094 148.742195 
L 232.378094 147.10368 
L 234.682094 147.963109 
L 236.986094 146.269711 
L 239.290094 147.026108 
L 241.594094 147.482736 
L 243.898094 142.972161 
L 246.202094 139.677644 
L 248.506094 140.110578 
L 250.810094 134.318814 
L 253.114094 127.142759 
L 255.418094 133.451048 
L 257.722094 133.222297 
L 260.026094 137.381305 
L 262.330094 137.412791 
L 264.634094 134.82764 
L 266.938094 132.07808 
L 269.242094 134.909555 
L 271.546094 137.005281 
L 273.850094 138.343074 
L 276.154094 132.280807 
L 278.458094 126.1139 
L 280.762094 130.036457 
L 283.066094 124.008027 
L 285.370094 118.520108 
L 287.674094 110.951959 
L 289.978094 108.953635 
L 292.282094 103.639271 
L 294.586094 97.846125 
L 296.890094 99.084523 
L 299.194094 100.418813 
L 301.498094 101.269015 
L 303.802094 105.958161 
L 306.106094 108.684362 
L 308.410094 103.337214 
L 310.714094 98.065711 
L 313.018094 105.297855 
L 315.322094 108.258962 
L 317.626094 109.030955 
" clip-path="url(#p8c48ecf9c7)" style="fill: none; stroke: #00ff02; stroke-opacity: 0.6; stroke-linecap: square"/>
   </g>
   <g id="line2d_39">
    <path d="M 179.386094 168.694072 
L 181.690094 169.536741 
L 183.994094 158.581679 
L 186.298094 162.805045 
L 188.602094 160.049436 
L 190.906094 156.747497 
L 193.210094 152.380449 
L 195.514094 151.217025 
L 197.818094 151.549518 
L 200.122094 152.34709 
L 202.426094 156.111881 
L 204.730094 156.813393 
L 207.034094 158.347427 
L 209.338094 154.672467 
L 211.642094 155.088175 
L 213.946094 152.807599 
L 216.250094 160.681616 
L 218.554094 162.319141 
L 220.858094 162.457922 
L 223.162094 163.024135 
L 225.466094 161.681228 
L 227.770094 153.502652 
L 230.074094 147.1415 
L 232.378094 149.194214 
L 234.682094 145.333115 
L 236.986094 144.055286 
L 239.290094 141.76328 
L 241.594094 134.678934 
L 243.898094 133.954882 
L 246.202094 130.731179 
L 248.506094 134.348979 
L 250.810094 137.033978 
L 253.114094 131.091796 
L 255.418094 125.987049 
L 257.722094 128.178972 
L 260.026094 126.616634 
L 262.330094 130.97445 
L 264.634094 131.926647 
L 266.938094 130.02639 
L 269.242094 129.560607 
L 271.546094 129.331801 
L 273.850094 132.345635 
L 276.154094 131.126069 
L 278.458094 131.094588 
L 280.762094 129.628506 
L 283.066094 129.466101 
L 285.370094 134.82226 
L 287.674094 135.531917 
L 289.978094 135.47169 
L 292.282094 137.59187 
L 294.586094 138.525978 
L 296.890094 132.055451 
L 299.194094 139.556343 
L 301.498094 137.11203 
L 303.802094 131.450451 
L 306.106094 127.128653 
L 308.410094 128.385022 
L 310.714094 129.419411 
L 313.018094 127.389958 
L 315.322094 128.979871 
L 317.626094 127.453057 
" clip-path="url(#p8c48ecf9c7)" style="fill: none; stroke: #00ff02; stroke-opacity: 0.6; stroke-linecap: square"/>
   </g>
   <g id="line2d_40">
    <path d="M 179.386094 297.430125 
L 179.386094 31.318125 
" clip-path="url(#p8c48ecf9c7)" style="fill: none; stroke-dasharray: 5.55,2.4; stroke-dashoffset: 0; stroke: #808080; stroke-opacity: 0.7; stroke-width: 1.5"/>
   </g>
   <g id="line2d_41">
    <path d="M 317.626094 297.430125 
L 317.626094 31.318125 
" clip-path="url(#p8c48ecf9c7)" style="fill: none; stroke-dasharray: 5.55,2.4; stroke-dashoffset: 0; stroke: #808080; stroke-opacity: 0.7; stroke-width: 1.5"/>
   </g>
   <g id="line2d_42">
    <path d="M 317.698974 297.430125 
L 317.722839 294.742125 
L 317.753755 292.054125 
L 317.793545 289.366125 
L 317.844428 286.678125 
L 317.909077 283.990125 
L 317.990682 281.302125 
L 318.093022 278.614125 
L 318.220524 275.926125 
L 318.378333 273.238125 
L 318.572365 270.550125 
L 318.809352 267.862125 
L 319.096873 265.174125 
L 319.443365 262.486125 
L 319.858103 259.798125 
L 320.351158 257.110125 
L 320.933302 254.422125 
L 321.615889 251.734125 
L 322.410675 249.046125 
L 323.329593 246.358125 
L 324.384482 243.670125 
L 325.586753 240.982125 
L 326.947023 238.294125 
L 328.474691 235.606125 
L 330.177494 232.918125 
L 332.061033 230.230125 
L 334.1283 227.542125 
L 336.379201 224.854125 
L 338.81013 222.166125 
L 341.413571 219.478125 
L 344.177791 216.790125 
L 347.086613 214.102125 
L 350.119312 211.414125 
L 353.250635 208.726125 
L 356.450968 206.038125 
L 359.686653 203.350125 
L 362.920466 200.662125 
L 366.112241 197.974125 
L 369.219632 195.286125 
L 372.199012 192.598125 
L 375.006452 189.910125 
L 377.598787 187.222125 
L 379.934704 184.534125 
L 381.975834 181.846125 
L 383.687794 179.158125 
L 385.041152 176.470125 
L 386.012267 173.782125 
L 386.583975 171.094125 
L 386.746094 168.406125 
L 386.495727 165.718125 
L 385.837347 163.030125 
L 384.782664 160.342125 
L 383.350277 157.654125 
L 381.565134 154.966125 
L 379.457802 152.278125 
L 377.063602 149.590125 
L 374.421624 146.902125 
L 371.573671 144.214125 
L 368.563162 141.526125 
L 365.434049 138.838125 
L 362.229765 136.150125 
L 358.992259 133.462125 
L 355.761128 130.774125 
L 352.572879 128.086125 
L 349.460338 125.398125 
L 346.452206 122.710125 
L 343.572775 120.022125 
L 340.841794 117.334125 
L 338.274473 114.646125 
L 335.88162 111.958125 
L 333.669884 109.270125 
L 331.642085 106.582125 
L 329.797616 103.894125 
L 328.132886 101.206125 
L 326.641798 98.518125 
L 325.316218 95.830125 
L 324.146449 93.142125 
L 323.121672 90.454125 
L 322.230353 87.766125 
L 321.460608 85.078125 
L 320.800519 82.390125 
L 320.238401 79.702125 
L 319.76301 77.014125 
L 319.363714 74.326125 
L 319.030609 71.638125 
L 318.754596 68.950125 
L 318.527421 66.262125 
L 318.341688 63.574125 
L 318.190843 60.886125 
L 318.069139 58.198125 
L 317.971591 55.510125 
L 317.893916 52.822125 
L 317.832466 50.134125 
L 317.784168 47.446125 
L 317.746452 44.758125 
L 317.717188 42.070125 
L 317.694629 39.382125 
L 317.677349 36.694125 
L 317.664198 34.006125 
L 317.654252 31.318125 
" clip-path="url(#p8c48ecf9c7)" style="fill: none; stroke: #0000ff; stroke-width: 2; stroke-linecap: square"/>
   </g>
   <g class="patch">
    <path d="M 41.146094 297.430125 
L 41.146094 31.318125 
" style="fill: none; stroke: currentColor; stroke-width: 0.8; stroke-linejoin: miter; stroke-linecap: square"/>
   </g>
   <g class="patch">
    <path d="M 41.146094 297.430125 
L 398.266094 297.430125 
" style="fill: none; stroke: currentColor; stroke-width: 0.8; stroke-linejoin: miter; stroke-linecap: square"/>
   </g>
   <g id="text_17" class="text">
    <!-- $s$ -->
    <g transform="translate(176.206094 324.502682) scale(0.12 -0.12)">
     <defs>
      <path id="DejaVuSans-Oblique-73" d="M 3200 3397 
L 3091 2853 
Q 2863 2978 2609 3040 
Q 2356 3103 2088 3103 
Q 1634 3103 1373 2948 
Q 1113 2794 1113 2528 
Q 1113 2219 1719 2053 
Q 1766 2041 1788 2034 
L 1972 1978 
Q 2547 1819 2739 1644 
Q 2931 1469 2931 1166 
Q 2931 609 2489 259 
Q 2047 -91 1331 -91 
Q 1053 -91 747 -37 
Q 441 16 72 128 
L 184 722 
Q 500 559 806 475 
Q 1113 391 1394 391 
Q 1816 391 2080 572 
Q 2344 753 2344 1031 
Q 2344 1331 1650 1516 
L 1591 1531 
L 1394 1581 
Q 956 1697 753 1886 
Q 550 2075 550 2369 
Q 550 2928 970 3256 
Q 1391 3584 2113 3584 
Q 2397 3584 2667 3537 
Q 2938 3491 3200 3397 
z
" transform="scale(0.015625)"/>
     </defs>
     <use xlink:href="#DejaVuSans-Oblique-73"/>
    </g>
   </g>
   <g id="text_18" class="text">
    <!-- $t$ -->
    <g transform="translate(315.226094 324.502682) scale(0.12 -0.12)">
     <defs>
      <path id="DejaVuSans-Oblique-74" d="M 2706 3500 
L 2619 3053 
L 1472 3053 
L 1100 1153 
Q 1081 1047 1072 975 
Q 1063 903 1063 863 
Q 1063 663 1183 572 
Q 1303 481 1569 481 
L 2150 481 
L 2053 0 
L 1503 0 
Q 991 0 739 200 
Q 488 400 488 806 
Q 488 878 497 964 
Q 506 1050 525 1153 
L 897 3053 
L 409 3053 
L 500 3500 
L 978 3500 
L 1172 4494 
L 1747 4494 
L 1556 3500 
L 2706 3500 
z
" transform="scale(0.015625)"/>
     </defs>
     <use xlink:href="#DejaVuSans-Oblique-74" transform="translate(0 0.78125)"/>
    </g>
   </g>
   <g id="text_19" class="text">
    <!-- Brownian Motion Transition Density -->
    <g transform="translate(113.848281 16.318125) scale(0.12 -0.12)">
     <defs>
      <path id="DejaVuSans-42" d="M 1259 2228 
L 1259 519 
L 2272 519 
Q 2781 519 3026 730 
Q 3272 941 3272 1375 
Q 3272 1813 3026 2020 
Q 2781 2228 2272 2228 
L 1259 2228 
z
M 1259 4147 
L 1259 2741 
L 2194 2741 
Q 2656 2741 2882 2914 
Q 3109 3088 3109 3444 
Q 3109 3797 2882 3972 
Q 2656 4147 2194 4147 
L 1259 4147 
z
M 628 4666 
L 2241 4666 
Q 2963 4666 3353 4366 
Q 3744 4066 3744 3513 
Q 3744 3084 3544 2831 
Q 3344 2578 2956 2516 
Q 3422 2416 3680 2098 
Q 3938 1781 3938 1306 
Q 3938 681 3513 340 
Q 3088 0 2303 0 
L 628 0 
L 628 4666 
z
" transform="scale(0.015625)"/>
      <path id="DejaVuSans-72" d="M 2631 2963 
Q 2534 3019 2420 3045 
Q 2306 3072 2169 3072 
Q 1681 3072 1420 2755 
Q 1159 2438 1159 1844 
L 1159 0 
L 581 0 
L 581 3500 
L 1159 3500 
L 1159 2956 
Q 1341 3275 1631 3429 
Q 1922 3584 2338 3584 
Q 2397 3584 2469 3576 
Q 2541 3569 2628 3553 
L 2631 2963 
z
" transform="scale(0.015625)"/>
      <path id="DejaVuSans-6f" d="M 1959 3097 
Q 1497 3097 1228 2736 
Q 959 2375 959 1747 
Q 959 1119 1226 758 
Q 1494 397 1959 397 
Q 2419 397 2687 759 
Q 2956 1122 2956 1747 
Q 2956 2369 2687 2733 
Q 2419 3097 1959 3097 
z
M 1959 3584 
Q 2709 3584 3137 3096 
Q 3566 2609 3566 1747 
Q 3566 888 3137 398 
Q 2709 -91 1959 -91 
Q 1206 -91 779 398 
Q 353 888 353 1747 
Q 353 2609 779 3096 
Q 1206 3584 1959 3584 
z
" transform="scale(0.015625)"/>
      <path id="DejaVuSans-77" d="M 269 3500 
L 844 3500 
L 1563 769 
L 2278 3500 
L 2956 3500 
L 3675 769 
L 4391 3500 
L 4966 3500 
L 4050 0 
L 3372 0 
L 2619 2869 
L 1863 0 
L 1184 0 
L 269 3500 
z
" transform="scale(0.015625)"/>
      <path id="DejaVuSans-6e" d="M 3513 2113 
L 3513 0 
L 2938 0 
L 2938 2094 
Q 2938 2591 2744 2837 
Q 2550 3084 2163 3084 
Q 1697 3084 1428 2787 
Q 1159 2491 1159 1978 
L 1159 0 
L 581 0 
L 581 3500 
L 1159 3500 
L 1159 2956 
Q 1366 3272 1645 3428 
Q 1925 3584 2291 3584 
Q 2894 3584 3203 3211 
Q 3513 2838 3513 2113 
z
" transform="scale(0.015625)"/>
      <path id="DejaVuSans-20" transform="scale(0.015625)"/>
      <path id="DejaVuSans-4d" d="M 628 4666 
L 1569 4666 
L 2759 1491 
L 3956 4666 
L 4897 4666 
L 4897 0 
L 4281 0 
L 4281 4097 
L 3078 897 
L 2444 897 
L 1241 4097 
L 1241 0 
L 628 0 
L 628 4666 
z
" transform="scale(0.015625)"/>
      <path id="DejaVuSans-74" d="M 1172 4494 
L 1172 3500 
L 2356 3500 
L 2356 3053 
L 1172 3053 
L 1172 1153 
Q 1172 725 1289 603 
Q 1406 481 1766 481 
L 2356 481 
L 2356 0 
L 1766 0 
Q 1100 0 847 248 
Q 594 497 594 1153 
L 594 3053 
L 172 3053 
L 172 3500 
L 594 3500 
L 594 4494 
L 1172 4494 
z
" transform="scale(0.015625)"/>
      <path id="DejaVuSans-73" d="M 2834 3397 
L 2834 2853 
Q 2591 2978 2328 3040 
Q 2066 3103 1784 3103 
Q 1356 3103 1142 2972 
Q 928 2841 928 2578 
Q 928 2378 1081 2264 
Q 1234 2150 1697 2047 
L 1894 2003 
Q 2506 1872 2764 1633 
Q 3022 1394 3022 966 
Q 3022 478 2636 193 
Q 2250 -91 1575 -91 
Q 1294 -91 989 -36 
Q 684 19 347 128 
L 347 722 
Q 666 556 975 473 
Q 1284 391 1588 391 
Q 1994 391 2212 530 
Q 2431 669 2431 922 
Q 2431 1156 2273 1281 
Q 2116 1406 1581 1522 
L 1381 1569 
Q 847 1681 609 1914 
Q 372 2147 372 2553 
Q 372 3047 722 3315 
Q 1072 3584 1716 3584 
Q 2034 3584 2315 3537 
Q 2597 3491 2834 3397 
z
" transform="scale(0.015625)"/>
      <path id="DejaVuSans-44" d="M 1259 4147 
L 1259 519 
L 2022 519 
Q 2988 519 3436 956 
Q 3884 1394 3884 2338 
Q 3884 3275 3436 3711 
Q 2988 4147 2022 4147 
L 1259 4147 
z
M 628 4666 
L 1925 4666 
Q 3281 4666 3915 4102 
Q 4550 3538 4550 2338 
Q 4550 1131 3912 565 
Q 3275 0 1925 0 
L 628 0 
L 628 4666 
z
" transform="scale(0.015625)"/>
      <path id="DejaVuSans-79" d="M 2059 -325 
Q 1816 -950 1584 -1140 
Q 1353 -1331 966 -1331 
L 506 -1331 
L 506 -850 
L 844 -850 
Q 1081 -850 1212 -737 
Q 1344 -625 1503 -206 
L 1606 56 
L 191 3500 
L 800 3500 
L 1894 763 
L 2988 3500 
L 3597 3500 
L 2059 -325 
z
" transform="scale(0.015625)"/>
     </defs>
     <use xlink:href="#DejaVuSans-42"/>
     <use xlink:href="#DejaVuSans-72" transform="translate(68.603516 0)"/>
     <use xlink:href="#DejaVuSans-6f" transform="translate(107.466797 0)"/>
     <use xlink:href="#DejaVuSans-77" transform="translate(168.648438 0)"/>
     <use xlink:href="#DejaVuSans-6e" transform="translate(250.435547 0)"/>
     <use xlink:href="#DejaVuSans-69" transform="translate(313.814453 0)"/>
     <use xlink:href="#DejaVuSans-61" transform="translate(341.597656 0)"/>
     <use xlink:href="#DejaVuSans-6e" transform="translate(402.876953 0)"/>
     <use xlink:href="#DejaVuSans-20" transform="translate(466.255859 0)"/>
     <use xlink:href="#DejaVuSans-4d" transform="translate(498.042969 0)"/>
     <use xlink:href="#DejaVuSans-6f" transform="translate(584.322266 0)"/>
     <use xlink:href="#DejaVuSans-74" transform="translate(645.503906 0)"/>
     <use xlink:href="#DejaVuSans-69" transform="translate(684.712891 0)"/>
     <use xlink:href="#DejaVuSans-6f" transform="translate(712.496094 0)"/>
     <use xlink:href="#DejaVuSans-6e" transform="translate(773.677734 0)"/>
     <use xlink:href="#DejaVuSans-20" transform="translate(837.056641 0)"/>
     <use xlink:href="#DejaVuSans-54" transform="translate(868.84375 0)"/>
     <use xlink:href="#DejaVuSans-72" transform="translate(915.177734 0)"/>
     <use xlink:href="#DejaVuSans-61" transform="translate(956.291016 0)"/>
     <use xlink:href="#DejaVuSans-6e" transform="translate(1017.570312 0)"/>
     <use xlink:href="#DejaVuSans-73" transform="translate(1080.949219 0)"/>
     <use xlink:href="#DejaVuSans-69" transform="translate(1133.048828 0)"/>
     <use xlink:href="#DejaVuSans-74" transform="translate(1160.832031 0)"/>
     <use xlink:href="#DejaVuSans-69" transform="translate(1200.041016 0)"/>
     <use xlink:href="#DejaVuSans-6f" transform="translate(1227.824219 0)"/>
     <use xlink:href="#DejaVuSans-6e" transform="translate(1289.005859 0)"/>
     <use xlink:href="#DejaVuSans-20" transform="translate(1352.384766 0)"/>
     <use xlink:href="#DejaVuSans-44" transform="translate(1384.171875 0)"/>
     <use xlink:href="#DejaVuSans-65" transform="translate(1461.173828 0)"/>
     <use xlink:href="#DejaVuSans-6e" transform="translate(1522.697266 0)"/>
     <use xlink:href="#DejaVuSans-73" transform="translate(1586.076172 0)"/>
     <use xlink:href="#DejaVuSans-69" transform="translate(1638.175781 0)"/>
     <use xlink:href="#DejaVuSans-74" transform="translate(1665.958984 0)"/>
     <use xlink:href="#DejaVuSans-79" transform="translate(1705.167969 0)"/>
    </g>
   </g>
   <g id="PathCollection_1">
    <defs>
     <path id="m403d9ce680" d="M 0 4.472136 
C 1.186024 4.472136 2.323632 4.000923 3.162278 3.162278 
C 4.000923 2.323632 4.472136 1.186024 4.472136 0 
C 4.472136 -1.186024 4.000923 -2.323632 3.162278 -3.162278 
C 2.323632 -4.000923 1.186024 -4.472136 0 -4.472136 
C -1.186024 -4.472136 -2.323632 -4.000923 -3.162278 -3.162278 
C -4.000923 -2.323632 -4.472136 -1.186024 -4.472136 0 
C -4.472136 1.186024 -4.000923 2.323632 -3.162278 3.162278 
C -2.323632 4.000923 -1.186024 4.472136 0 4.472136 
z
" style="stroke: #ffffff"/>
    </defs>
    <g clip-path="url(#p8c48ecf9c7)">
     <use xlink:href="#m403d9ce680" x="179.386094" y="168.694072" style="fill: #ff0001; stroke: #ffffff"/>
    </g>
   </g>
   <g class="legend">
    <g class="patch">
     <path d="M 47.446094 64.958437 
L 136.752812 64.958437 
Q 138.552812 64.958437 138.552812 63.158437 
L 138.552812 37.618125 
Q 138.552812 35.818125 136.752812 35.818125 
L 47.446094 35.818125 
Q 45.646094 35.818125 45.646094 37.618125 
L 45.646094 63.158437 
Q 45.646094 64.958437 47.446094 64.958437 
z
" style="fill: #ffffff; opacity: 0.9; stroke: #cccccc; stroke-linejoin: miter"/>
    </g>
    <g id="line2d_43">
     <path d="M 49.246094 43.106719 
L 58.246094 43.106719 
L 67.246094 43.106719 
" style="fill: none; stroke: #ff0001; stroke-width: 2.5; stroke-linecap: square"/>
    </g>
    <g id="text_20" class="text">
     <!-- Realized Path -->
     <g transform="translate(74.446094 46.256719) scale(0.09 -0.09)">
      <defs>
       <path id="DejaVuSans-52" d="M 2841 2188 
Q 3044 2119 3236 1894 
Q 3428 1669 3622 1275 
L 4263 0 
L 3584 0 
L 2988 1197 
Q 2756 1666 2539 1819 
Q 2322 1972 1947 1972 
L 1259 1972 
L 1259 0 
L 628 0 
L 628 4666 
L 2053 4666 
Q 2853 4666 3247 4331 
Q 3641 3997 3641 3322 
Q 3641 2881 3436 2590 
Q 3231 2300 2841 2188 
z
M 1259 4147 
L 1259 2491 
L 2053 2491 
Q 2509 2491 2742 2702 
Q 2975 2913 2975 3322 
Q 2975 3731 2742 3939 
Q 2509 4147 2053 4147 
L 1259 4147 
z
" transform="scale(0.015625)"/>
       <path id="DejaVuSans-7a" d="M 353 3500 
L 3084 3500 
L 3084 2975 
L 922 459 
L 3084 459 
L 3084 0 
L 275 0 
L 275 525 
L 2438 3041 
L 353 3041 
L 353 3500 
z
" transform="scale(0.015625)"/>
       <path id="DejaVuSans-64" d="M 2906 2969 
L 2906 4863 
L 3481 4863 
L 3481 0 
L 2906 0 
L 2906 525 
Q 2725 213 2448 61 
Q 2172 -91 1784 -91 
Q 1150 -91 751 415 
Q 353 922 353 1747 
Q 353 2572 751 3078 
Q 1150 3584 1784 3584 
Q 2172 3584 2448 3432 
Q 2725 3281 2906 2969 
z
M 947 1747 
Q 947 1113 1208 752 
Q 1469 391 1925 391 
Q 2381 391 2643 752 
Q 2906 1113 2906 1747 
Q 2906 2381 2643 2742 
Q 2381 3103 1925 3103 
Q 1469 3103 1208 2742 
Q 947 2381 947 1747 
z
" transform="scale(0.015625)"/>
       <path id="DejaVuSans-50" d="M 1259 4147 
L 1259 2394 
L 2053 2394 
Q 2494 2394 2734 2622 
Q 2975 2850 2975 3272 
Q 2975 3691 2734 3919 
Q 2494 4147 2053 4147 
L 1259 4147 
z
M 628 4666 
L 2053 4666 
Q 2838 4666 3239 4311 
Q 3641 3956 3641 3272 
Q 3641 2581 3239 2228 
Q 2838 1875 2053 1875 
L 1259 1875 
L 1259 0 
L 628 0 
L 628 4666 
z
" transform="scale(0.015625)"/>
       <path id="DejaVuSans-68" d="M 3513 2113 
L 3513 0 
L 2938 0 
L 2938 2094 
Q 2938 2591 2744 2837 
Q 2550 3084 2163 3084 
Q 1697 3084 1428 2787 
Q 1159 2491 1159 1978 
L 1159 0 
L 581 0 
L 581 4863 
L 1159 4863 
L 1159 2956 
Q 1366 3272 1645 3428 
Q 1925 3584 2291 3584 
Q 2894 3584 3203 3211 
Q 3513 2838 3513 2113 
z
" transform="scale(0.015625)"/>
      </defs>
      <use xlink:href="#DejaVuSans-52"/>
      <use xlink:href="#DejaVuSans-65" transform="translate(64.982422 0)"/>
      <use xlink:href="#DejaVuSans-61" transform="translate(126.505859 0)"/>
      <use xlink:href="#DejaVuSans-6c" transform="translate(187.785156 0)"/>
      <use xlink:href="#DejaVuSans-69" transform="translate(215.568359 0)"/>
      <use xlink:href="#DejaVuSans-7a" transform="translate(243.351562 0)"/>
      <use xlink:href="#DejaVuSans-65" transform="translate(295.841797 0)"/>
      <use xlink:href="#DejaVuSans-64" transform="translate(357.365234 0)"/>
      <use xlink:href="#DejaVuSans-20" transform="translate(420.841797 0)"/>
      <use xlink:href="#DejaVuSans-50" transform="translate(452.628906 0)"/>
      <use xlink:href="#DejaVuSans-61" transform="translate(508.431641 0)"/>
      <use xlink:href="#DejaVuSans-74" transform="translate(569.710938 0)"/>
      <use xlink:href="#DejaVuSans-68" transform="translate(608.919922 0)"/>
     </g>
    </g>
    <g id="line2d_44">
     <path d="M 49.246094 56.318437 
L 58.246094 56.318437 
L 67.246094 56.318437 
" style="fill: none; stroke: #0000ff; stroke-width: 2; stroke-linecap: square"/>
    </g>
    <g id="text_21" class="text">
     <!-- Density at $t$ -->
     <g transform="translate(74.446094 59.468437) scale(0.09 -0.09)">
      <use xlink:href="#DejaVuSans-44" transform="translate(0 0.015625)"/>
      <use xlink:href="#DejaVuSans-65" transform="translate(77.001953 0.015625)"/>
      <use xlink:href="#DejaVuSans-6e" transform="translate(138.525391 0.015625)"/>
      <use xlink:href="#DejaVuSans-73" transform="translate(201.904297 0.015625)"/>
      <use xlink:href="#DejaVuSans-69" transform="translate(254.003906 0.015625)"/>
      <use xlink:href="#DejaVuSans-74" transform="translate(281.787109 0.015625)"/>
      <use xlink:href="#DejaVuSans-79" transform="translate(320.996094 0.015625)"/>
      <use xlink:href="#DejaVuSans-20" transform="translate(380.175781 0.015625)"/>
      <use xlink:href="#DejaVuSans-61" transform="translate(411.962891 0.015625)"/>
      <use xlink:href="#DejaVuSans-74" transform="translate(473.242188 0.015625)"/>
      <use xlink:href="#DejaVuSans-20" transform="translate(512.451172 0.015625)"/>
      <use xlink:href="#DejaVuSans-Oblique-74" transform="translate(544.238281 0.015625)"/>
     </g>
    </g>
   </g>
  </g>
 </g>
 <defs>
  <clipPath id="p8c48ecf9c7">
   <rect x="41.146094" y="31.318125" width="357.12" height="266.112"/>
  </clipPath>
 </defs>
</svg>
