<svg xmlns="http://www.w3.org/2000/svg" xmlns:xlink="http://www.w3.org/1999/xlink" width="540.621" height="445.598" style="--axis-color:#000;--grid-stroke:rgba(0,0,0,0.2);--plot3d-stroke:rgba(0,0,0,0.3);--plot3d-grid:rgba(0,0,0,0.2)" viewBox="0 0 405.466 334.198"><style><![CDATA[@media (prefers-color-scheme:dark){:root{--axis-color:#fff;--grid-stroke:rgba(255,255,255,0.2);--plot3d-stroke:rgba(255,255,255,0.3);--plot3d-grid:rgba(255,255,255,0.2)}}.text{fill:var(--axis-color)!important;stroke:none!important}.axis path,.patch path[style*="stroke: currentColor"],.tick path{stroke:var(--axis-color)!important}@media (prefers-color-scheme:dark){g.legend>g:first-child>path:first-child{fill:rgba(26,26,26,.8)!important;stroke:rgba(255,255,255,.1)!important}}*{stroke-linejoin:round;stroke-linecap:butt}]]></style><g id="figure_1"><path d="M0 334.198h405.466V0H0z" class="patch" style="fill:none"/><g id="axes_1"><path d="M41.146 297.43h357.12V31.318H41.146z" class="patch" style="fill:none"/><g id="FillBetweenPolyCollection_1"><defs><path id="m664859e76d" d="M317.699-36.768h-.073V-302.88h.028l.01 2.688.013 2.688.018 2.688.022 2.688.03 2.688.037 2.688.048 2.688.062 2.688.078 2.688.097 2.688.122 2.688.15 2.688.186 2.688.228 2.688.276 2.688.333 2.688.399 2.688.475 2.688.563 2.688.66 2.688.77 2.688.89 2.688 1.025 2.688 1.17 2.688 1.326 2.688 1.49 2.688 1.666 2.688 1.844 2.688 2.028 2.688 2.212 2.688 2.392 2.688 2.568 2.688 2.73 2.688 2.88 2.688 3.008 2.688 3.113 2.688 3.188 2.688 3.231 2.688 3.238 2.688 3.204 2.688 3.13 2.688 3.01 2.688 2.848 2.688 2.642 2.688 2.394 2.688 2.107 2.688 1.785 2.688 1.433 2.688 1.054 2.688.659 2.688.25 2.688-.162 2.688-.572 2.688-.97 2.688-1.354 2.688-1.712 2.688-2.041 2.688-2.336 2.688-2.593 2.688-2.807 2.688-2.98 2.688-3.107 2.688-3.192 2.688-3.233 2.688-3.236 2.688-3.2 2.688-3.132 2.688-3.032 2.688-2.91 2.688-2.763 2.688-2.604 2.688-2.43 2.688-2.252 2.688-2.067 2.688-1.884 2.688-1.702 2.688-1.528 2.688-1.36 2.688-1.203 2.688-1.054 2.688-.92 2.688-.794 2.688-.683 2.688-.582 2.688-.493 2.688-.415 2.688-.346 2.688-.288 2.688-.237 2.688-.194 2.688-.157 2.688-.128 2.688-.102 2.688-.082 2.688-.065 2.688-.05 2.688-.04 2.688-.031 2.688z" style="stroke:#00f;stroke-opacity:.3"/></defs><g clip-path="url(#p8c48ecf9c7)"><use xlink:href="#m664859e76d" y="334.198" style="fill:#00f;fill-opacity:.3;stroke:#00f;stroke-opacity:.3"/></g></g><g class="axis"><g class="tick xtick"><path id="line2d_1" d="M41.146 297.43V31.318" clip-path="url(#p8c48ecf9c7)" style="fill:none;stroke:#b0b0b0;stroke-opacity:.15;stroke-width:.8;stroke-linecap:square"/><g id="line2d_2"><defs><path id="m58fdbcb895" d="M0 0v3.5" style="stroke:currentColor;stroke-width:.8"/></defs><use xlink:href="#m58fdbcb895" x="41.146" y="297.43" style="stroke:currentColor;stroke-width:.8"/></g><g id="text_1" class="text" transform="matrix(.09 0 0 -.09 33.99 311.269)"><defs><path id="DejaVuSans-30" d="M2034 4250q-487 0-733-480-245-479-245-1442 0-959 245-1439 246-480 733-480 491 0 736 480 246 480 246 1439 0 963-246 1442-245 480-736 480zm0 500q785 0 1199-621 414-620 414-1801 0-1178-414-1799Q2819-91 2034-91q-784 0-1198 620-414 621-414 1799 0 1181 414 1801 414 621 1198 621z" transform="scale(.01563)"/><path id="DejaVuSans-2e" d="M684 794h660V0H684z" transform="scale(.01563)"/></defs><use xlink:href="#DejaVuSans-30"/><use xlink:href="#DejaVuSans-2e" transform="translate(63.623)"/><use xlink:href="#DejaVuSans-30" transform="translate(95.41)"/></g></g><g class="tick xtick"><path id="line2d_3" d="M87.226 297.43V31.318" clip-path="url(#p8c48ecf9c7)" style="fill:none;stroke:#b0b0b0;stroke-opacity:.15;stroke-width:.8;stroke-linecap:square"/><use xlink:href="#m58fdbcb895" id="line2d_4" x="87.226" y="297.43" style="stroke:currentColor;stroke-width:.8"/><g id="text_2" class="text" transform="matrix(.09 0 0 -.09 80.07 311.269)"><defs><path id="DejaVuSans-32" d="M1228 531h2203V0H469v531q359 372 979 998 621 627 780 809 303 340 423 576 121 236 121 464 0 372-261 606-261 235-680 235-297 0-627-103-329-103-704-313v638q381 153 712 231 332 78 607 78 725 0 1156-363 431-362 431-968 0-288-108-546-107-257-392-607-78-91-497-524-418-433-1181-1211z" transform="scale(.01563)"/></defs><use xlink:href="#DejaVuSans-30"/><use xlink:href="#DejaVuSans-2e" transform="translate(63.623)"/><use xlink:href="#DejaVuSans-32" transform="translate(95.41)"/></g></g><g class="tick xtick"><path id="line2d_5" d="M133.306 297.43V31.318" clip-path="url(#p8c48ecf9c7)" style="fill:none;stroke:#b0b0b0;stroke-opacity:.15;stroke-width:.8;stroke-linecap:square"/><use xlink:href="#m58fdbcb895" id="line2d_6" x="133.306" y="297.43" style="stroke:currentColor;stroke-width:.8"/><g id="text_3" class="text" transform="matrix(.09 0 0 -.09 126.15 311.269)"><defs><path id="DejaVuSans-34" d="M2419 4116 825 1625h1594zm-166 550h794V1625h666v-525h-666V0h-628v1100H313v609z" transform="scale(.01563)"/></defs><use xlink:href="#DejaVuSans-30"/><use xlink:href="#DejaVuSans-2e" transform="translate(63.623)"/><use xlink:href="#DejaVuSans-34" transform="translate(95.41)"/></g></g><g class="tick xtick"><path id="line2d_7" d="M179.386 297.43V31.318" clip-path="url(#p8c48ecf9c7)" style="fill:none;stroke:#b0b0b0;stroke-opacity:.15;stroke-width:.8;stroke-linecap:square"/><use xlink:href="#m58fdbcb895" id="line2d_8" x="179.386" y="297.43" style="stroke:currentColor;stroke-width:.8"/><g id="text_4" class="text" transform="matrix(.09 0 0 -.09 172.23 311.269)"><defs><path id="DejaVuSans-36" d="M2113 2584q-425 0-674-291-248-290-248-796 0-503 248-796 249-292 674-292t673 292q248 293 248 796 0 506-248 796-248 291-673 291zm1253 1979v-575q-238 112-480 171-242 60-480 60-625 0-955-422-329-422-376-1275 184 272 462 417 279 145 613 145 703 0 1111-427 408-426 408-1160 0-719-425-1154Q2819-91 2113-91q-810 0-1238 620-428 621-428 1799 0 1106 525 1764t1409 658q238 0 480-47t505-140z" transform="scale(.01563)"/></defs><use xlink:href="#DejaVuSans-30"/><use xlink:href="#DejaVuSans-2e" transform="translate(63.623)"/><use xlink:href="#DejaVuSans-36" transform="translate(95.41)"/></g></g><g class="tick xtick"><path id="line2d_9" d="M225.466 297.43V31.318" clip-path="url(#p8c48ecf9c7)" style="fill:none;stroke:#b0b0b0;stroke-opacity:.15;stroke-width:.8;stroke-linecap:square"/><use xlink:href="#m58fdbcb895" id="line2d_10" x="225.466" y="297.43" style="stroke:currentColor;stroke-width:.8"/><g id="text_5" class="text" transform="matrix(.09 0 0 -.09 218.31 311.269)"><defs><path id="DejaVuSans-38" d="M2034 2216q-450 0-708-241-257-241-257-662 0-422 257-663 258-241 708-241t709 242q260 243 260 662 0 421-258 662-257 241-711 241zm-631 268q-406 100-633 378-226 279-226 679 0 559 398 884 399 325 1092 325 697 0 1094-325t397-884q0-400-227-679-226-278-629-378 456-106 710-416 255-309 255-755 0-679-414-1042Q2806-91 2034-91q-771 0-1186 362-414 363-414 1042 0 446 256 755 257 310 713 416zm-231 997q0-362 226-565 227-203 636-203 407 0 636 203 230 203 230 565 0 363-230 566-229 203-636 203-409 0-636-203-226-203-226-566z" transform="scale(.01563)"/></defs><use xlink:href="#DejaVuSans-30"/><use xlink:href="#DejaVuSans-2e" transform="translate(63.623)"/><use xlink:href="#DejaVuSans-38" transform="translate(95.41)"/></g></g><g class="tick xtick"><path id="line2d_11" d="M271.546 297.43V31.318" clip-path="url(#p8c48ecf9c7)" style="fill:none;stroke:#b0b0b0;stroke-opacity:.15;stroke-width:.8;stroke-linecap:square"/><use xlink:href="#m58fdbcb895" id="line2d_12" x="271.546" y="297.43" style="stroke:currentColor;stroke-width:.8"/><g id="text_6" class="text" transform="matrix(.09 0 0 -.09 264.39 311.269)"><defs><path id="DejaVuSans-31" d="M794 531h1031v3560L703 3866v575l1116 225h631V531h1031V0H794z" transform="scale(.01563)"/></defs><use xlink:href="#DejaVuSans-31"/><use xlink:href="#DejaVuSans-2e" transform="translate(63.623)"/><use xlink:href="#DejaVuSans-30" transform="translate(95.41)"/></g></g><g class="tick xtick"><path id="line2d_13" d="M317.626 297.43V31.318" clip-path="url(#p8c48ecf9c7)" style="fill:none;stroke:#b0b0b0;stroke-opacity:.15;stroke-width:.8;stroke-linecap:square"/><use xlink:href="#m58fdbcb895" id="line2d_14" x="317.626" y="297.43" style="stroke:currentColor;stroke-width:.8"/><g id="text_7" class="text" transform="matrix(.09 0 0 -.09 310.47 311.269)"><use xlink:href="#DejaVuSans-31"/><use xlink:href="#DejaVuSans-2e" transform="translate(63.623)"/><use xlink:href="#DejaVuSans-32" transform="translate(95.41)"/></g></g><g class="tick xtick"><path id="line2d_15" d="M363.706 297.43V31.318" clip-path="url(#p8c48ecf9c7)" style="fill:none;stroke:#b0b0b0;stroke-opacity:.15;stroke-width:.8;stroke-linecap:square"/><use xlink:href="#m58fdbcb895" id="line2d_16" x="363.706" y="297.43" style="stroke:currentColor;stroke-width:.8"/><g id="text_8" class="text" transform="matrix(.09 0 0 -.09 356.55 311.269)"><use xlink:href="#DejaVuSans-31"/><use xlink:href="#DejaVuSans-2e" transform="translate(63.623)"/><use xlink:href="#DejaVuSans-34" transform="translate(95.41)"/></g></g><g id="text_9" class="text" transform="matrix(.1 0 0 -.1 207.472 324.739)"><defs><path id="DejaVuSans-54" d="M-19 4666h3947v-532H2272V0h-634v4134H-19z" transform="scale(.01563)"/><path id="DejaVuSans-69" d="M603 3500h575V0H603zm0 1363h575v-729H603z" transform="scale(.01563)"/><path id="DejaVuSans-6d" d="M3328 2828q216 388 516 572t706 184q547 0 844-383 297-382 297-1088V0h-578v2094q0 503-179 746-178 244-543 244-447 0-707-297-259-296-259-809V0h-578v2094q0 506-178 748t-550 242q-441 0-701-298-259-298-259-808V0H581v3500h578v-544q197 322 472 475t653 153q382 0 649-194 267-193 395-562z" transform="scale(.01563)"/><path id="DejaVuSans-65" d="M3597 1894v-281H953q38-594 358-905t892-311q331 0 642 81t618 244V178Q3153 47 2828-22t-659-69q-838 0-1327 487-489 488-489 1320 0 859 464 1363 464 505 1252 505 706 0 1117-455 411-454 411-1235zm-575 169q-6 471-264 752-258 282-683 282-481 0-770-272t-333-766z" transform="scale(.01563)"/></defs><use xlink:href="#DejaVuSans-54"/><use xlink:href="#DejaVuSans-69" transform="translate(57.959)"/><use xlink:href="#DejaVuSans-6d" transform="translate(85.742)"/><use xlink:href="#DejaVuSans-65" transform="translate(183.154)"/></g></g><g class="axis"><g class="tick ytick"><path id="line2d_17" d="M41.146 261.701h357.12" clip-path="url(#p8c48ecf9c7)" style="fill:none;stroke:#b0b0b0;stroke-opacity:.15;stroke-width:.8;stroke-linecap:square"/><g id="line2d_18"><defs><path id="mc634988f93" d="M0 0h-3.5" style="stroke:currentColor;stroke-width:.8"/></defs><use xlink:href="#mc634988f93" x="41.146" y="261.701" style="stroke:currentColor;stroke-width:.8"/></g><g id="text_10" class="text" transform="matrix(.09 0 0 -.09 20.878 265.12)"><defs><path id="DejaVuSans-2212" d="M678 2272h4006v-531H678z" transform="scale(.01563)"/><path id="DejaVuSans-33" d="M2597 2516q453-97 707-404 255-306 255-756 0-690-475-1069Q2609-91 1734-91q-293 0-604 58T488 141v609q262-153 574-231 313-78 654-78 593 0 904 234t311 681q0 413-289 645-289 233-804 233h-544v519h569q465 0 712 186t247 536q0 359-255 551-254 193-729 193-260 0-557-57-297-56-653-174v562q360 100 674 150t592 50q719 0 1137-327 419-326 419-882 0-388-222-655t-631-370z" transform="scale(.01563)"/></defs><use xlink:href="#DejaVuSans-2212"/><use xlink:href="#DejaVuSans-33" transform="translate(83.79)"/></g></g><g class="tick ytick"><path id="line2d_19" d="M41.146 216.815h357.12" clip-path="url(#p8c48ecf9c7)" style="fill:none;stroke:#b0b0b0;stroke-opacity:.15;stroke-width:.8;stroke-linecap:square"/><use xlink:href="#mc634988f93" id="line2d_20" x="41.146" y="216.815" style="stroke:currentColor;stroke-width:.8"/><g id="text_11" class="text" transform="matrix(.09 0 0 -.09 20.878 220.234)"><use xlink:href="#DejaVuSans-2212"/><use xlink:href="#DejaVuSans-32" transform="translate(83.79)"/></g></g><g class="tick ytick"><path id="line2d_21" d="M41.146 171.93h357.12" clip-path="url(#p8c48ecf9c7)" style="fill:none;stroke:#b0b0b0;stroke-opacity:.15;stroke-width:.8;stroke-linecap:square"/><use xlink:href="#mc634988f93" id="line2d_22" x="41.146" y="171.929" style="stroke:currentColor;stroke-width:.8"/><g id="text_12" class="text" transform="matrix(.09 0 0 -.09 20.878 175.348)"><use xlink:href="#DejaVuSans-2212"/><use xlink:href="#DejaVuSans-31" transform="translate(83.79)"/></g></g><g class="tick ytick"><path id="line2d_23" d="M41.146 127.043h357.12" clip-path="url(#p8c48ecf9c7)" style="fill:none;stroke:#b0b0b0;stroke-opacity:.15;stroke-width:.8;stroke-linecap:square"/><use xlink:href="#mc634988f93" id="line2d_24" x="41.146" y="127.043" style="stroke:currentColor;stroke-width:.8"/><use xlink:href="#DejaVuSans-30" id="text_13" class="text" transform="matrix(.09 0 0 -.09 28.42 130.462)"/></g><g class="tick ytick"><path id="line2d_25" d="M41.146 82.157h357.12" clip-path="url(#p8c48ecf9c7)" style="fill:none;stroke:#b0b0b0;stroke-opacity:.15;stroke-width:.8;stroke-linecap:square"/><use xlink:href="#mc634988f93" id="line2d_26" x="41.146" y="82.157" style="stroke:currentColor;stroke-width:.8"/><use xlink:href="#DejaVuSans-31" id="text_14" class="text" transform="matrix(.09 0 0 -.09 28.42 85.576)"/></g><g class="tick ytick"><path id="line2d_27" d="M41.146 37.27h357.12" clip-path="url(#p8c48ecf9c7)" style="fill:none;stroke:#b0b0b0;stroke-opacity:.15;stroke-width:.8;stroke-linecap:square"/><use xlink:href="#mc634988f93" id="line2d_28" x="41.146" y="37.271" style="stroke:currentColor;stroke-width:.8"/><use xlink:href="#DejaVuSans-32" id="text_15" class="text" transform="matrix(.09 0 0 -.09 28.42 40.69)"/></g><g id="text_16" class="text" transform="matrix(0 -.1 -.1 0 14.798 178.105)"><defs><path id="DejaVuSans-56" d="M1831 0 50 4666h659L2188 738l1481 3928h656L2547 0z" transform="scale(.01563)"/><path id="DejaVuSans-61" d="M2194 1759q-697 0-966-159t-269-544q0-306 202-486 202-179 548-179 479 0 768 339t289 901v128zm1147 238V0h-575v531q-197-318-491-470T1556-91q-537 0-855 302-317 302-317 808 0 590 395 890 396 300 1180 300h807v57q0 397-261 614t-733 217q-300 0-585-72-284-72-546-216v532q315 122 612 182 297 61 578 61 760 0 1135-394 375-393 375-1193z" transform="scale(.01563)"/><path id="DejaVuSans-6c" d="M603 4863h575V0H603z" transform="scale(.01563)"/><path id="DejaVuSans-75" d="M544 1381v2119h575V1403q0-497 193-746 194-248 582-248 465 0 735 297 271 297 271 810v1984h575V0h-575v538q-209-319-486-474-276-155-642-155-603 0-916 375-312 375-312 1097zm1447 2203z" transform="scale(.01563)"/></defs><use xlink:href="#DejaVuSans-56"/><use xlink:href="#DejaVuSans-61" transform="translate(60.658)"/><use xlink:href="#DejaVuSans-6c" transform="translate(121.938)"/><use xlink:href="#DejaVuSans-75" transform="translate(149.72)"/><use xlink:href="#DejaVuSans-65" transform="translate(213.1)"/></g></g><path id="line2d_29" d="m41.146 127.043 2.304-2.23 2.304.621 2.304-2.907 2.304-6.836 2.304 1.05 2.304 1.052 2.304-7.089 2.304-3.445 2.304 2.108 2.304-2.436 2.304 2.08 2.304 2.09 2.304-1.085 2.304 8.588 2.304 7.742 2.304 2.524 2.304 4.546 2.304-1.41 2.304 4.076 2.304 6.339 2.304-6.579 2.304 1.014 2.304-.304 2.304 6.396 2.304 2.443 2.304-.498 2.304 5.167 2.304-1.687 2.304 2.696 2.304 1.31 2.304 2.7 2.304-8.314 2.304.06 2.304 4.748 2.304-3.692 2.304 5.48 2.304-.937 2.304 8.796 2.304 5.962 2.304-.884 2.304-3.315 2.304-.769 2.304.52 2.304 1.35 2.304 6.637 2.304 3.231 2.304 2.068 2.304-4.745 2.304-1.542 2.304 7.913 2.304-1.454 2.304 1.728 2.304 3.038 2.304-2.745 2.304-4.628 2.304-4.18 2.304 3.767 2.304 1.388 2.304-1.487 2.304-4.379" clip-path="url(#p8c48ecf9c7)" style="fill:none;stroke:#ff0001;stroke-width:2.5;stroke-linecap:square"/><path id="line2d_30" d="m179.386 168.694 2.304 7.854 2.304-1.538 2.304-5.176 2.304 1.133 2.304-4.404 2.304-2.308 2.304-.993 2.304 4.803 2.304.85 2.304-1.144 2.304 2.056 2.304-1.954 2.304 2.62 2.304-3.667 2.304-3.02 2.304.47 2.304 2.384 2.304-4.622 2.304 1.967 2.304 5.02 2.304-7.268 2.304-6.92 2.304 1.131 2.304 3.782 2.304-.828 2.304-4.207 2.304-3.28 2.304-6.112 2.304 1.464 2.304-.25 2.304-.998 2.304 6.478 2.304 3.395 2.304-3.665 2.304-3.368 2.304 2.046 2.304-5.34 2.304 7.589 2.304 6.088 2.304 5.532 2.304 2.444 2.304 3 2.304-.034 2.304 2.752 2.304-5.834 2.304 7.779 2.304 4.413 2.304-1.604 2.304 7.242 2.304-6.601 2.304 5.333 2.304 2.467 2.304 4.22 2.304 3.716 2.304-.489 2.304-2.28 2.304 3.871 2.304-5.608 2.304.357 2.304 3.994" clip-path="url(#p8c48ecf9c7)" style="fill:none;stroke:#00ff02;stroke-opacity:.3;stroke-linecap:square"/><path id="line2d_31" d="m179.386 168.694 2.304-12.15 2.304-2.82 2.304-4.075 2.304-2.261 2.304-2.923 2.304 1.433 2.304 3.807 2.304-2.72 2.304 9.059 2.304-3.322 2.304-2.374 2.304 2.644 2.304-.847 2.304 3.406 2.304 4.19 2.304-4.288 2.304-.856 2.304-8.882 2.304-11.697 2.304-3.068 2.304-1.359 2.304-7.602 2.304 7.658 2.304 5.203 2.304.605 2.304-1.753 2.304-.75 2.304-.827 2.304-3.626 2.304-.327 2.304-2.868 2.304-1.48 2.304 2.232 2.304 3.385 2.304 4.234 2.304-2.176 2.304.525 2.304-8.537 2.304-1.068 2.304-8.963 2.304 4.459 2.304-.884 2.304 5.102 2.304-.001 2.304-4.606 2.304.703 2.304.142 2.304-2.917 2.304-9.672 2.304 2.74 2.304 3.39 2.304 1.554 2.304-.66 2.304 2.153 2.304-2.509 2.304-4.6 2.304 4.156 2.304-8.361 2.304 5.089 2.304-2.74" clip-path="url(#p8c48ecf9c7)" style="fill:none;stroke:#00ff02;stroke-opacity:.3;stroke-linecap:square"/><path id="line2d_32" d="m179.386 168.694 2.304-7.487 2.304-4.156 2.304-4.749 2.304 4.131 2.304-5.834 2.304-1.487 2.304 2.289 2.304 4.054 2.304.583 2.304 10.047 2.304-4.369 2.304.109 2.304 2.177 2.304 4.979 2.304 2.509 2.304-4.68 2.304 7.687 2.304-.611 2.304 2.084 2.304-.229 2.304-6.499 2.304-2.662 2.304 3.392 2.304 2.815 2.304-3.968 2.304-.73 2.304 11.233 2.304-1.843 2.304-3.272 2.304-.13 2.304 1.306 2.304-1.41 2.304-4.477 2.304-15.39 2.304 2.598 2.304.916 2.304 8.381 2.304-6.479 2.304-1.81 2.304 3.1 2.304-5.262 2.304 7.052 2.304-3.6 2.304 2.568 2.304-6.973 2.304-3.147 2.304-4.556 2.304.53 2.304 4.775 2.304-5.281 2.304-6.05 2.304 3.566 2.304 5.745 2.304-2.499 2.304.217 2.304-1.052 2.304 4.416 2.304-4.907 2.304 5.617 2.304-6.65" clip-path="url(#p8c48ecf9c7)" style="fill:none;stroke:#00ff02;stroke-opacity:.3;stroke-linecap:square"/><path id="line2d_33" d="m179.386 168.694 2.304 5.608 2.304 1.168 2.304-1.723 2.304 1.73 2.304 4.871 2.304-10.446 2.304-1.933 2.304-1.94 2.304 4.398 2.304 2.837 2.304-2.592 2.304.56 2.304-4.394 2.304-7.16 2.304 5.396 2.304 6.178 2.304-4.733 2.304.175 2.304-3.054 2.304-5.966 2.304-5.76 2.304 7.891 2.304-2.757 2.304-6.807 2.304.88 2.304 3.668 2.304 4.247 2.304-.99 2.304 2.696 2.304.685 2.304 5.33 2.304-1.343 2.304 4.254 2.304 8.275 2.304-3.639 2.304 3.377 2.304 1.959 2.304-.212 2.304 1.126 2.304-.75 2.304-2.988 2.304-7.618 2.304-4.73 2.304-1.313 2.304 3.7 2.304-.453 2.304-1.116 2.304-7.7 2.304 1.694 2.304 9.42 2.304 2.706 2.304 2.33 2.304 9.932 2.304 1.822 2.304 1.331 2.304-1.22 2.304 2.06 2.304-2.082 2.304 4.612 2.304-.773" clip-path="url(#p8c48ecf9c7)" style="fill:none;stroke:#00ff02;stroke-opacity:.3;stroke-linecap:square"/><path id="line2d_34" d="m179.386 168.694 2.304 1.877 2.304 2.433 2.304 2.728 2.304-4.163 2.304-2.524 2.304 2.915 2.304-9.751 2.304.913 2.304 1.422 2.304-.3 2.304-4.472 2.304 2.395 2.304 6.883 2.304 1.534 2.304-3.196 2.304.608 2.304-2.271 2.304 2.912 2.304-1.606 2.304 3.584 2.304-4.533 2.304-5.782 2.304 7.256 2.304 2.182 2.304 2.903 2.304 2.917 2.304 4.335 2.304-.253 2.304-5.53 2.304-7.278 2.304.705 2.304-1.364 2.304-7.03 2.304-5.238 2.304 2.31 2.304.984 2.304-3.46 2.304-1.996 2.304 4.62 2.304 3.33 2.304-4.326 2.304 3.224 2.304 3.204 2.304.557 2.304 1.378 2.304 3.947 2.304 2.59 2.304 1.016 2.304 3.159 2.304-1.843 2.304 10.072 2.304-2.478 2.304-4.072 2.304-2.525 2.304 9.883 2.304 3.054 2.304-.24 2.304-4.314 2.304-.83 2.304.318" clip-path="url(#p8c48ecf9c7)" style="fill:none;stroke:#00ff02;stroke-opacity:.3;stroke-linecap:square"/><path id="line2d_35" d="m179.386 168.694 2.304 1.101 2.304 2.753 2.304 3.263 2.304-.267 2.304-4.514 2.304.576 2.304 6.885 2.304-2.113 2.304 2.493 2.304.919 2.304-7.652 2.304-11.553 2.304-2.494 2.304-4.267 2.304 6.309 2.304-6.375 2.304 5.776 2.304-.638 2.304-3.097 2.304 1.357 2.304 7.07 2.304-1.324 2.304-4.016 2.304 7.767 2.304.414 2.304-6.491 2.304-8.238 2.304-6.964 2.304-2.77 2.304-2.968 2.304-.631 2.304-9.38 2.304 5.777 2.304-.642 2.304-2.832 2.304-1.219 2.304 6.006 2.304-.675 2.304-.664 2.304 3.823 2.304 1.561 2.304-1.478 2.304 3.048 2.304-1.185 2.304-8.723 2.304 4.848 2.304.69 2.304-6.976 2.304 4.283 2.304 3.751 2.304-1.064 2.304 1.681 2.304-6.35 2.304-.533 2.304-4.194 2.304 6.792 2.304 10.646 2.304-5.354 2.304 2.793 2.304 5.87" clip-path="url(#p8c48ecf9c7)" style="fill:none;stroke:#00ff02;stroke-opacity:.6;stroke-linecap:square"/><path id="line2d_36" d="m179.386 168.694 2.304-9.717 2.304 4.446 2.304-2.025 2.304-2.986 2.304 5.268 2.304 2.702 2.304-1.144 2.304-.802 2.304-7.1 2.304-.278 2.304 6.6 2.304.347 2.304-6.98 2.304 8.85 2.304-1.364 2.304 10.985 2.304-5.339 2.304-1.794 2.304 3.1 2.304 4.137 2.304 9.145 2.304 4.129 2.304 1.182 2.304 2.05 2.304-2.688 2.304 2.446 2.304.265 2.304-3.506 2.304-.466 2.304 1.606 2.304 2.526 2.304-3.63 2.304 5.985 2.304-.47 2.304-1.506 2.304 10.17 2.304-5.355 2.304-1.578 2.304-.51 2.304 1.737 2.304-7.155 2.304-.827 2.304-7.411 2.304 10.461 2.304-1.678 2.304 6.629 2.304-2.868 2.304 4.59 2.304 1.5 2.304 6.31 2.304 9.98 2.304-5.085 2.304 6.94 2.304-1.61 2.304 1.86 2.304 5.225 2.304-.809 2.304 1.352 2.304 3.964 2.304 2.402" clip-path="url(#p8c48ecf9c7)" style="fill:none;stroke:#00ff02;stroke-opacity:.6;stroke-linecap:square"/><path id="line2d_37" d="m179.386 168.694 2.304-2.217 2.304 2.935 2.304 6.62 2.304-1.527 2.304 4.236 2.304 1.934 2.304 1.546 2.304.522 2.304-2.586 2.304 6.531 2.304 3.914 2.304-2.847 2.304 6.612 2.304.095 2.304-2.57 2.304-2.338 2.304-.466 2.304 3.885 2.304.352 2.304 3.727 2.304 1.066 2.304 10.813 2.304 7.572 2.304.816 2.304-3.64 2.304.607 2.304-4.262 2.304-.27 2.304-10.68 2.304-3.191 2.304-5.42 2.304 4.99 2.304-8.307 2.304-1.883 2.304-2.231 2.304 1.271 2.304-2.407 2.304.764 2.304-6.9 2.304-4.682 2.304-1.126 2.304 2.122 2.304 3.672 2.304 1.351 2.304-6.216 2.304 1.343 2.304 7.262 2.304-1.029 2.304 5.875 2.304 7.002 2.304 1.925 2.304 4.568 2.304.211 2.304 3.135 2.304 5.088 2.304-1.858 2.304 2.748 2.304.794 2.304-6.383 2.304-.384" clip-path="url(#p8c48ecf9c7)" style="fill:none;stroke:#00ff02;stroke-opacity:.6;stroke-linecap:square"/><path id="line2d_38" d="m179.386 168.694 2.304 4.61 2.304-.996 2.304-5.074 2.304-5.145 2.304 2.661 2.304-.533 2.304 2.174 2.304 8.73 2.304-.413 2.304-4.05 2.304-5.9 2.304-3.46 2.304 2.424 2.304 1.275 2.304 3.992 2.304-1.814 2.304 5.138 2.304-2.448 2.304-6.527 2.304-5.494 2.304-.992 2.304-8.11 2.304-1.638 2.304.86 2.304-1.694 2.304.756 2.304.457 2.304-4.51 2.304-3.295 2.304.433 2.304-5.792 2.304-7.176 2.304 6.308 2.304-.229 2.304 4.16 2.304.03 2.304-2.584 2.304-2.75 2.304 2.832 2.304 2.095 2.304 1.338 2.304-6.062 2.304-6.167 2.304 3.922 2.304-6.028 2.304-5.488 2.304-7.568 2.304-1.998 2.304-5.315 2.304-5.793 2.304 1.239 2.304 1.334 2.304.85 2.304 4.69 2.304 2.725 2.304-5.347 2.304-5.271 2.304 7.232 2.304 2.961 2.304.772" clip-path="url(#p8c48ecf9c7)" style="fill:none;stroke:#00ff02;stroke-opacity:.6;stroke-linecap:square"/><path id="line2d_39" d="m179.386 168.694 2.304.843 2.304-10.955 2.304 4.223 2.304-2.756 2.304-3.302 2.304-4.367 2.304-1.163 2.304.333 2.304.797 2.304 3.765 2.304.701 2.304 1.534 2.304-3.675 2.304.416 2.304-2.28 2.304 7.874 2.304 1.637 2.304.139 2.304.566 2.304-1.343 2.304-8.178 2.304-6.361 2.304 2.052 2.304-3.86 2.304-1.279 2.304-2.292 2.304-7.084 2.304-.724 2.304-3.224 2.304 3.618 2.304 2.685 2.304-5.942 2.304-5.105 2.304 2.192 2.304-1.562 2.304 4.357 2.304.953 2.304-1.9 2.304-.466 2.304-.23 2.304 3.015 2.304-1.22 2.304-.031 2.304-1.466 2.304-.163 2.304 5.356 2.304.71 2.304-.06 2.304 2.12 2.304.934 2.304-6.47 2.304 7.5 2.304-2.444 2.304-5.662 2.304-4.321 2.304 1.256 2.304 1.034 2.304-2.029 2.304 1.59 2.304-1.527" clip-path="url(#p8c48ecf9c7)" style="fill:none;stroke:#00ff02;stroke-opacity:.6;stroke-linecap:square"/><path id="line2d_40" d="M179.386 297.43V31.318" clip-path="url(#p8c48ecf9c7)" style="fill:none;stroke-dasharray:5.55,2.4;stroke-dashoffset:0;stroke:gray;stroke-opacity:.7;stroke-width:1.5"/><path id="line2d_41" d="M317.626 297.43V31.318" clip-path="url(#p8c48ecf9c7)" style="fill:none;stroke-dasharray:5.55,2.4;stroke-dashoffset:0;stroke:gray;stroke-opacity:.7;stroke-width:1.5"/><path id="line2d_42" d="m317.699 297.43.024-2.688.03-2.688.04-2.688.051-2.688.065-2.688.082-2.688.102-2.688.128-2.688.157-2.688.194-2.688.237-2.688.288-2.688.346-2.688.415-2.688.493-2.688.582-2.688.683-2.688.795-2.688.919-2.688 1.054-2.688 1.203-2.688 1.36-2.688 1.528-2.688 1.702-2.688 1.884-2.688 2.067-2.688 2.251-2.688 2.431-2.688 2.604-2.688 2.764-2.688 2.909-2.688 3.032-2.688 3.132-2.688 3.2-2.688 3.236-2.688 3.233-2.688 3.192-2.688 3.108-2.688 2.979-2.688 2.807-2.688 2.593-2.688 2.336-2.688 2.04-2.688 1.713-2.688 1.353-2.688.971-2.688.572-2.688.162-2.688-.25-2.688-.659-2.688-1.054-2.688-1.433-2.688-1.785-2.688-2.107-2.688-2.394-2.688-2.642-2.688-2.848-2.688-3.01-2.688-3.13-2.688-3.204-2.688-3.238-2.688-3.23-2.688-3.19-2.688-3.112-2.688-3.008-2.688-2.88-2.688-2.73-2.688-2.568-2.688-2.392-2.688-2.212-2.688-2.028-2.688-1.844-2.688-1.665-2.688-1.491-2.688-1.326-2.688-1.17-2.688-1.024-2.688-.892-2.688-.77-2.688-.66-2.688-.562-2.688-.475-2.688-.4-2.688-.332-2.688-.276-2.688-.228-2.688-.185-2.688-.151-2.688-.122-2.688-.097-2.688-.078-2.688-.062-2.688-.048-2.688-.038-2.688-.029-2.688-.022-2.688-.018-2.688-.013-2.688-.01-2.688" clip-path="url(#p8c48ecf9c7)" style="fill:none;stroke:#00f;stroke-width:2;stroke-linecap:square"/><path d="M41.146 297.43V31.318M41.146 297.43h357.12" class="patch" style="fill:none;stroke:currentColor;stroke-width:.8;stroke-linejoin:miter;stroke-linecap:square"/><g id="text_17" class="text" transform="matrix(.12 0 0 -.12 176.206 324.503)"><defs><path id="DejaVuSans-Oblique-73" d="m3200 3397-109-544q-228 125-482 187-253 63-521 63-454 0-715-155-260-154-260-420 0-309 606-475 47-12 69-19l184-56q575-159 767-334t192-478q0-557-442-907T1331-91q-278 0-584 54Q441 16 72 128l112 594q316-163 622-247 307-84 588-84 422 0 686 181t264 459q0 300-694 485l-59 15-197 50q-438 116-641 305t-203 483q0 559 420 887 421 328 1143 328 284 0 554-47 271-46 533-140" transform="scale(.01563)"/></defs><use xlink:href="#DejaVuSans-Oblique-73"/></g><g id="text_18" class="text" transform="matrix(.12 0 0 -.12 315.226 324.503)"><defs><path id="DejaVuSans-Oblique-74" d="m2706 3500-87-447H1472l-372-1900q-19-106-28-178t-9-112q0-200 120-291t386-91h581L2053 0h-550Q991 0 739 200 488 400 488 806q0 72 9 158t28 189l372 1900H409l91 447h478l194 994h575l-191-994z" transform="scale(.01563)"/></defs><use xlink:href="#DejaVuSans-Oblique-74" transform="translate(0 .781)"/></g><g id="text_19" class="text" transform="matrix(.12 0 0 -.12 113.848 16.318)"><defs><path id="DejaVuSans-42" d="M1259 2228V519h1013q509 0 754 211 246 211 246 645 0 438-246 645-245 208-754 208zm0 1919V2741h935q462 0 688 173 227 174 227 530 0 353-227 528-226 175-688 175zm-631 519h1613q722 0 1112-300 391-300 391-853 0-429-200-682t-588-315q466-100 724-418 258-317 258-792 0-625-425-966Q3088 0 2303 0H628z" transform="scale(.01563)"/><path id="DejaVuSans-72" d="M2631 2963q-97 56-211 82-114 27-251 27-488 0-749-317t-261-911V0H581v3500h578v-544q182 319 472 473 291 155 707 155 59 0 131-8 72-7 159-23z" transform="scale(.01563)"/><path id="DejaVuSans-6f" d="M1959 3097q-462 0-731-361t-269-989 267-989q268-361 733-361 460 0 728 362 269 363 269 988 0 622-269 986-268 364-728 364m0 487q750 0 1178-488 429-487 429-1349 0-859-429-1349Q2709-91 1959-91q-753 0-1180 489-426 490-426 1349 0 862 426 1349 427 488 1180 488" transform="scale(.01563)"/><path id="DejaVuSans-77" d="M269 3500h575l719-2731 715 2731h678l719-2731 716 2731h575L4050 0h-678l-753 2869L1863 0h-679z" transform="scale(.01563)"/><path id="DejaVuSans-6e" d="M3513 2113V0h-575v2094q0 497-194 743-194 247-581 247-466 0-735-297-269-296-269-809V0H581v3500h578v-544q207 316 486 472 280 156 646 156 603 0 912-373 310-373 310-1098" transform="scale(.01563)"/><path id="DejaVuSans-4d" d="M628 4666h941l1190-3175 1197 3175h941V0h-616v4097L3078 897h-634L1241 4097V0H628z" transform="scale(.01563)"/><path id="DejaVuSans-74" d="M1172 4494v-994h1184v-447H1172V1153q0-428 117-550t477-122h590V0h-590q-666 0-919 248-253 249-253 905v1900H172v447h422v994z" transform="scale(.01563)"/><path id="DejaVuSans-73" d="M2834 3397v-544q-243 125-506 187-262 63-544 63-428 0-642-131t-214-394q0-200 153-314t616-217l197-44q612-131 870-370t258-667q0-488-386-773Q2250-91 1575-91q-281 0-586 55T347 128v594q319-166 628-249 309-82 613-82 406 0 624 139 219 139 219 392 0 234-158 359-157 125-692 241l-200 47q-534 112-772 345-237 233-237 639 0 494 350 762 350 269 994 269 318 0 599-47 282-46 519-140" transform="scale(.01563)"/><path id="DejaVuSans-44" d="M1259 4147V519h763q966 0 1414 437 448 438 448 1382 0 937-448 1373t-1414 436zm-631 519h1297q1356 0 1990-564 635-564 635-1764 0-1207-638-1773Q3275 0 1925 0H628z" transform="scale(.01563)"/><path id="DejaVuSans-79" d="M2059-325q-243-625-475-815-231-191-618-191H506v481h338q237 0 368 113 132 112 291 531l103 262L191 3500h609L1894 763l1094 2737h609z" transform="scale(.01563)"/></defs><use xlink:href="#DejaVuSans-42"/><use xlink:href="#DejaVuSans-72" transform="translate(68.604)"/><use xlink:href="#DejaVuSans-6f" transform="translate(107.467)"/><use xlink:href="#DejaVuSans-77" transform="translate(168.648)"/><use xlink:href="#DejaVuSans-6e" transform="translate(250.436)"/><use xlink:href="#DejaVuSans-69" transform="translate(313.814)"/><use xlink:href="#DejaVuSans-61" transform="translate(341.598)"/><use xlink:href="#DejaVuSans-6e" transform="translate(402.877)"/><use xlink:href="#DejaVuSans-4d" transform="translate(498.043)"/><use xlink:href="#DejaVuSans-6f" transform="translate(584.322)"/><use xlink:href="#DejaVuSans-74" transform="translate(645.504)"/><use xlink:href="#DejaVuSans-69" transform="translate(684.713)"/><use xlink:href="#DejaVuSans-6f" transform="translate(712.496)"/><use xlink:href="#DejaVuSans-6e" transform="translate(773.678)"/><use xlink:href="#DejaVuSans-54" transform="translate(868.844)"/><use xlink:href="#DejaVuSans-72" transform="translate(915.178)"/><use xlink:href="#DejaVuSans-61" transform="translate(956.291)"/><use xlink:href="#DejaVuSans-6e" transform="translate(1017.57)"/><use xlink:href="#DejaVuSans-73" transform="translate(1080.95)"/><use xlink:href="#DejaVuSans-69" transform="translate(1133.049)"/><use xlink:href="#DejaVuSans-74" transform="translate(1160.832)"/><use xlink:href="#DejaVuSans-69" transform="translate(1200.041)"/><use xlink:href="#DejaVuSans-6f" transform="translate(1227.824)"/><use xlink:href="#DejaVuSans-6e" transform="translate(1289.006)"/><use xlink:href="#DejaVuSans-44" transform="translate(1384.172)"/><use xlink:href="#DejaVuSans-65" transform="translate(1461.174)"/><use xlink:href="#DejaVuSans-6e" transform="translate(1522.697)"/><use xlink:href="#DejaVuSans-73" transform="translate(1586.076)"/><use xlink:href="#DejaVuSans-69" transform="translate(1638.176)"/><use xlink:href="#DejaVuSans-74" transform="translate(1665.959)"/><use xlink:href="#DejaVuSans-79" transform="translate(1705.168)"/></g><g id="PathCollection_1"><defs><path id="m403d9ce680" d="M0 4.472a4.472 4.472 0 1 0 0-8.945 4.472 4.472 0 0 0 0 8.945z" style="stroke:#fff"/></defs><g clip-path="url(#p8c48ecf9c7)"><use xlink:href="#m403d9ce680" x="179.386" y="168.694" style="fill:#ff0001;stroke:#fff"/></g></g><g class="legend"><path d="M47.446 64.958h89.307q1.8 0 1.8-1.8v-25.54q0-1.8-1.8-1.8H47.446q-1.8 0-1.8 1.8v25.54q0 1.8 1.8 1.8z" class="patch" style="fill:rgba(255,255,255,.8)!important;opacity:.9;stroke:rgba(0,0,0,.1)!important;stroke-linejoin:miter"/><path id="line2d_43" d="M49.246 43.107h18" style="fill:none;stroke:#ff0001;stroke-width:2.5;stroke-linecap:square"/><g id="text_20" class="text" transform="matrix(.09 0 0 -.09 74.446 46.257)"><defs><path id="DejaVuSans-52" d="M2841 2188q203-69 395-294t386-619L4263 0h-679l-596 1197q-232 469-449 622t-592 153h-688V0H628v4666h1425q800 0 1194-335 394-334 394-1009 0-441-205-732-205-290-595-402M1259 4147V2491h794q456 0 689 211t233 620-233 617-689 208z" transform="scale(.01563)"/><path id="DejaVuSans-7a" d="M353 3500h2731v-525L922 459h2162V0H275v525l2163 2516H353z" transform="scale(.01563)"/><path id="DejaVuSans-64" d="M2906 2969v1894h575V0h-575v525q-181-312-458-464-276-152-664-152-634 0-1033 506-398 507-398 1332t398 1331q399 506 1033 506 388 0 664-152 277-151 458-463M947 1747q0-634 261-995t717-361 718 361q263 361 263 995t-263 995q-262 361-718 361t-717-361-261-995" transform="scale(.01563)"/><path id="DejaVuSans-50" d="M1259 4147V2394h794q441 0 681 228 241 228 241 650 0 419-241 647-240 228-681 228zm-631 519h1425q785 0 1186-355 402-355 402-1039 0-691-402-1044-401-353-1186-353h-794V0H628z" transform="scale(.01563)"/><path id="DejaVuSans-68" d="M3513 2113V0h-575v2094q0 497-194 743-194 247-581 247-466 0-735-297-269-296-269-809V0H581v4863h578V2956q207 316 486 472 280 156 646 156 603 0 912-373 310-373 310-1098" transform="scale(.01563)"/></defs><use xlink:href="#DejaVuSans-52"/><use xlink:href="#DejaVuSans-65" transform="translate(64.982)"/><use xlink:href="#DejaVuSans-61" transform="translate(126.506)"/><use xlink:href="#DejaVuSans-6c" transform="translate(187.785)"/><use xlink:href="#DejaVuSans-69" transform="translate(215.568)"/><use xlink:href="#DejaVuSans-7a" transform="translate(243.352)"/><use xlink:href="#DejaVuSans-65" transform="translate(295.842)"/><use xlink:href="#DejaVuSans-64" transform="translate(357.365)"/><use xlink:href="#DejaVuSans-50" transform="translate(452.629)"/><use xlink:href="#DejaVuSans-61" transform="translate(508.432)"/><use xlink:href="#DejaVuSans-74" transform="translate(569.71)"/><use xlink:href="#DejaVuSans-68" transform="translate(608.92)"/></g><path id="line2d_44" d="M49.246 56.318h18" style="fill:none;stroke:#00f;stroke-width:2;stroke-linecap:square"/><g id="text_21" class="text" transform="matrix(.09 0 0 -.09 74.446 59.468)"><use xlink:href="#DejaVuSans-44" transform="translate(0 .016)"/><use xlink:href="#DejaVuSans-65" transform="translate(77.002 .016)"/><use xlink:href="#DejaVuSans-6e" transform="translate(138.525 .016)"/><use xlink:href="#DejaVuSans-73" transform="translate(201.904 .016)"/><use xlink:href="#DejaVuSans-69" transform="translate(254.004 .016)"/><use xlink:href="#DejaVuSans-74" transform="translate(281.787 .016)"/><use xlink:href="#DejaVuSans-79" transform="translate(320.996 .016)"/><use xlink:href="#DejaVuSans-61" transform="translate(411.963 .016)"/><use xlink:href="#DejaVuSans-74" transform="translate(473.242 .016)"/><use xlink:href="#DejaVuSans-Oblique-74" transform="translate(544.238 .016)"/></g></g></g></g><defs><clipPath id="p8c48ecf9c7"><path d="M41.146 31.318h357.12V297.43H41.146z"/></clipPath></defs></svg>