<svg xmlns="http://www.w3.org/2000/svg" xmlns:xlink="http://www.w3.org/1999/xlink" width="408.412" height="445.358" style="--axis-color:#000;--grid-stroke:rgba(0,0,0,0.2);--plot3d-stroke:rgba(0,0,0,0.3);--plot3d-grid:rgba(0,0,0,0.2)" viewBox="0 0 306.309 334.019"><style><![CDATA[@media (prefers-color-scheme:dark){:root{--axis-color:#fff;--grid-stroke:rgba(255,255,255,0.2);--plot3d-stroke:rgba(255,255,255,0.3);--plot3d-grid:rgba(255,255,255,0.2)}}.text{fill:var(--axis-color)!important;stroke:none!important}.axis path,.patch path[style*="stroke: currentColor"],.tick path{stroke:var(--axis-color)!important}*{stroke-linejoin:round;stroke-linecap:butt}]]></style><g id="figure_1"><path d="M0 334.019h306.31V0H0z" class="patch" style="fill:none"/><g id="axes_1"><path d="M58.67 297.43h188.97V31.318H58.67z" class="patch" style="fill:none"/><g class="axis"><g class="tick xtick"><path id="line2d_1" d="M74.417 297.43V31.318" clip-path="url(#p2436fce490)" style="fill:none;stroke:#b0b0b0;stroke-opacity:.1;stroke-width:.8;stroke-linecap:square"/><g id="line2d_2"><defs><path id="m42e031475a" d="M0 0v3.5" style="stroke:currentColor;stroke-width:.8"/></defs><use xlink:href="#m42e031475a" x="74.417" y="297.43" style="stroke:currentColor;stroke-width:.8"/></g><g id="text_1" class="text" transform="matrix(.09 0 0 -.09 67.26 311.269)"><defs><path id="DejaVuSans-30" d="M2034 4250q-487 0-733-480-245-479-245-1442 0-959 245-1439 246-480 733-480 491 0 736 480 246 480 246 1439 0 963-246 1442-245 480-736 480zm0 500q785 0 1199-621 414-620 414-1801 0-1178-414-1799Q2819-91 2034-91q-784 0-1198 620-414 621-414 1799 0 1181 414 1801 414 621 1198 621z" transform="scale(.01563)"/><path id="DejaVuSans-2e" d="M684 794h660V0H684z" transform="scale(.01563)"/></defs><use xlink:href="#DejaVuSans-30"/><use xlink:href="#DejaVuSans-2e" transform="translate(63.623)"/><use xlink:href="#DejaVuSans-30" transform="translate(95.41)"/></g></g><g class="tick xtick"><path id="line2d_3" d="M113.786 297.43V31.318" clip-path="url(#p2436fce490)" style="fill:none;stroke:#b0b0b0;stroke-opacity:.1;stroke-width:.8;stroke-linecap:square"/><use xlink:href="#m42e031475a" id="line2d_4" x="113.786" y="297.43" style="stroke:currentColor;stroke-width:.8"/><g id="text_2" class="text" transform="matrix(.09 0 0 -.09 106.63 311.269)"><defs><path id="DejaVuSans-35" d="M691 4666h2478v-532H1269V2991q137 47 274 70 138 23 276 23 781 0 1237-428 457-428 457-1159 0-753-469-1171Q2575-91 1722-91q-294 0-599 50Q819 9 494 109v635q281-153 581-228t634-75q541 0 856 284 316 284 316 772 0 487-316 771-315 285-856 285-253 0-505-56-251-56-513-175z" transform="scale(.01563)"/></defs><use xlink:href="#DejaVuSans-30"/><use xlink:href="#DejaVuSans-2e" transform="translate(63.623)"/><use xlink:href="#DejaVuSans-35" transform="translate(95.41)"/></g></g><g class="tick xtick"><path id="line2d_5" d="M153.155 297.43V31.318" clip-path="url(#p2436fce490)" style="fill:none;stroke:#b0b0b0;stroke-opacity:.1;stroke-width:.8;stroke-linecap:square"/><use xlink:href="#m42e031475a" id="line2d_6" x="153.155" y="297.43" style="stroke:currentColor;stroke-width:.8"/><g id="text_3" class="text" transform="matrix(.09 0 0 -.09 145.998 311.269)"><defs><path id="DejaVuSans-31" d="M794 531h1031v3560L703 3866v575l1116 225h631V531h1031V0H794z" transform="scale(.01563)"/></defs><use xlink:href="#DejaVuSans-31"/><use xlink:href="#DejaVuSans-2e" transform="translate(63.623)"/><use xlink:href="#DejaVuSans-30" transform="translate(95.41)"/></g></g><g class="tick xtick"><path id="line2d_7" d="M192.524 297.43V31.318" clip-path="url(#p2436fce490)" style="fill:none;stroke:#b0b0b0;stroke-opacity:.1;stroke-width:.8;stroke-linecap:square"/><use xlink:href="#m42e031475a" id="line2d_8" x="192.524" y="297.43" style="stroke:currentColor;stroke-width:.8"/><g id="text_4" class="text" transform="matrix(.09 0 0 -.09 185.367 311.269)"><use xlink:href="#DejaVuSans-31"/><use xlink:href="#DejaVuSans-2e" transform="translate(63.623)"/><use xlink:href="#DejaVuSans-35" transform="translate(95.41)"/></g></g><g class="tick xtick"><path id="line2d_9" d="M231.892 297.43V31.318" clip-path="url(#p2436fce490)" style="fill:none;stroke:#b0b0b0;stroke-opacity:.1;stroke-width:.8;stroke-linecap:square"/><use xlink:href="#m42e031475a" id="line2d_10" x="231.892" y="297.43" style="stroke:currentColor;stroke-width:.8"/><g id="text_5" class="text" transform="matrix(.09 0 0 -.09 224.736 311.269)"><defs><path id="DejaVuSans-32" d="M1228 531h2203V0H469v531q359 372 979 998 621 627 780 809 303 340 423 576 121 236 121 464 0 372-261 606-261 235-680 235-297 0-627-103-329-103-704-313v638q381 153 712 231 332 78 607 78 725 0 1156-363 431-362 431-968 0-288-108-546-107-257-392-607-78-91-497-524-418-433-1181-1211z" transform="scale(.01563)"/></defs><use xlink:href="#DejaVuSans-32"/><use xlink:href="#DejaVuSans-2e" transform="translate(63.623)"/><use xlink:href="#DejaVuSans-30" transform="translate(95.41)"/></g></g><g id="text_6" class="text" transform="matrix(.1 0 0 -.1 151.155 324.739)"><defs><path id="DejaVuSans-Oblique-74" d="m2706 3500-87-447H1472l-372-1900q-19-106-28-178t-9-112q0-200 120-291t386-91h581L2053 0h-550Q991 0 739 200 488 400 488 806q0 72 9 158t28 189l372 1900H409l91 447h478l194 994h575l-191-994z" transform="scale(.01563)"/></defs><use xlink:href="#DejaVuSans-Oblique-74" transform="translate(0 .781)"/></g></g><g class="axis"><g class="tick ytick"><path id="line2d_11" d="M58.67 259.657h188.97" clip-path="url(#p2436fce490)" style="fill:none;stroke:#b0b0b0;stroke-opacity:.1;stroke-width:.8;stroke-linecap:square"/><g id="line2d_12"><defs><path id="m81a8f43d76" d="M0 0h-3.5" style="stroke:currentColor;stroke-width:.8"/></defs><use xlink:href="#m81a8f43d76" x="58.669" y="259.657" style="stroke:currentColor;stroke-width:.8"/></g><g id="text_7" class="text" transform="matrix(.09 0 0 -.09 29.815 263.077)"><defs><path id="DejaVuSans-2212" d="M678 2272h4006v-531H678z" transform="scale(.01563)"/></defs><use xlink:href="#DejaVuSans-2212"/><use xlink:href="#DejaVuSans-30" transform="translate(83.79)"/><use xlink:href="#DejaVuSans-2e" transform="translate(147.412)"/><use xlink:href="#DejaVuSans-35" transform="translate(179.2)"/></g></g><g class="tick ytick"><path id="line2d_13" d="M58.67 220.289h188.97" clip-path="url(#p2436fce490)" style="fill:none;stroke:#b0b0b0;stroke-opacity:.1;stroke-width:.8;stroke-linecap:square"/><use xlink:href="#m81a8f43d76" id="line2d_14" x="58.669" y="220.289" style="stroke:currentColor;stroke-width:.8"/><g id="text_8" class="text" transform="matrix(.09 0 0 -.09 37.357 223.708)"><use xlink:href="#DejaVuSans-30"/><use xlink:href="#DejaVuSans-2e" transform="translate(63.623)"/><use xlink:href="#DejaVuSans-30" transform="translate(95.41)"/></g></g><g class="tick ytick"><path id="line2d_15" d="M58.67 180.92h188.97" clip-path="url(#p2436fce490)" style="fill:none;stroke:#b0b0b0;stroke-opacity:.1;stroke-width:.8;stroke-linecap:square"/><use xlink:href="#m81a8f43d76" id="line2d_16" x="58.669" y="180.92" style="stroke:currentColor;stroke-width:.8"/><g id="text_9" class="text" transform="matrix(.09 0 0 -.09 37.357 184.339)"><use xlink:href="#DejaVuSans-30"/><use xlink:href="#DejaVuSans-2e" transform="translate(63.623)"/><use xlink:href="#DejaVuSans-35" transform="translate(95.41)"/></g></g><g class="tick ytick"><path id="line2d_17" d="M58.67 141.55h188.97" clip-path="url(#p2436fce490)" style="fill:none;stroke:#b0b0b0;stroke-opacity:.1;stroke-width:.8;stroke-linecap:square"/><use xlink:href="#m81a8f43d76" id="line2d_18" x="58.669" y="141.551" style="stroke:currentColor;stroke-width:.8"/><g id="text_10" class="text" transform="matrix(.09 0 0 -.09 37.357 144.97)"><use xlink:href="#DejaVuSans-31"/><use xlink:href="#DejaVuSans-2e" transform="translate(63.623)"/><use xlink:href="#DejaVuSans-30" transform="translate(95.41)"/></g></g><g class="tick ytick"><path id="line2d_19" d="M58.67 102.182h188.97" clip-path="url(#p2436fce490)" style="fill:none;stroke:#b0b0b0;stroke-opacity:.1;stroke-width:.8;stroke-linecap:square"/><use xlink:href="#m81a8f43d76" id="line2d_20" x="58.669" y="102.182" style="stroke:currentColor;stroke-width:.8"/><g id="text_11" class="text" transform="matrix(.09 0 0 -.09 37.357 105.601)"><use xlink:href="#DejaVuSans-31"/><use xlink:href="#DejaVuSans-2e" transform="translate(63.623)"/><use xlink:href="#DejaVuSans-35" transform="translate(95.41)"/></g></g><g class="tick ytick"><path id="line2d_21" d="M58.67 62.813h188.97" clip-path="url(#p2436fce490)" style="fill:none;stroke:#b0b0b0;stroke-opacity:.1;stroke-width:.8;stroke-linecap:square"/><use xlink:href="#m81a8f43d76" id="line2d_22" x="58.669" y="62.813" style="stroke:currentColor;stroke-width:.8"/><g id="text_12" class="text" transform="matrix(.09 0 0 -.09 37.357 66.232)"><use xlink:href="#DejaVuSans-32"/><use xlink:href="#DejaVuSans-2e" transform="translate(63.623)"/><use xlink:href="#DejaVuSans-30" transform="translate(95.41)"/></g></g><g id="text_13" class="text" transform="matrix(0 -.1 -.1 0 23.715 173.474)"><defs><path id="DejaVuSans-Oblique-3b2" d="M872 216 572-1331H-6l934 4809q278 1425 1610 1425 1350 0 1121-1203-156-856-765-1169 819-281 659-1115Q3272-69 1759-66q-662 3-887 282zm147 750q240-544 856-541 900 0 1091 981 172 882-1291 813l103 531q1131-19 1328 1000 135 688-597 684-818 0-1006-975z" transform="scale(.01563)"/><path id="DejaVuSans-28" d="M1984 4856q-418-718-622-1422-203-703-203-1425 0-721 205-1429t620-1424h-500Q1016-109 783 600T550 2009q0 697 231 1403 232 707 703 1444z" transform="scale(.01563)"/><path id="DejaVuSans-29" d="M513 4856h500q468-737 701-1444 233-706 233-1403 0-700-233-1409T1013-844H513q415 716 620 1424t205 1429q0 722-205 1425-205 704-620 1422z" transform="scale(.01563)"/></defs><use xlink:href="#DejaVuSans-Oblique-3b2" transform="translate(0 .39)"/><use xlink:href="#DejaVuSans-28" transform="translate(63.818 .39)"/><use xlink:href="#DejaVuSans-Oblique-74" transform="translate(102.832 .39)"/><use xlink:href="#DejaVuSans-29" transform="translate(142.041 .39)"/></g></g><path id="line2d_23" d="m74.417 220.289.787-.443.788-5.26.787-21.764.788-1.42.787 3.237.787-7.12.788 5.725.787-16.31.787-11.042.788-4.432.787 15.806.788 10.085.787-11.047.787 17.18.788 4.239.787 23.9.787 3.802.788-1.072.787 2.992.788-12.629.787-2.05.787 4.991.788-3.385.787 2.935.787-1.416.788 7.306.787 1.724.788 8.085.787-12.146.787-2.606.788.902.787.464.787-10.116.788-2.006.787-5.76 1.575 14.284 1.575 27.965 1.574 22.048.788-7.51.787-9.596.788 1.309.787-15.004.787-11.363.788 12.689.787-6.151 1.575 13.835.787 2.083.788-8.89.787-4.266.787-2.663.788 1.558.787 15.71.787 3.556.788 8.324.787-13.275.788-6.136.787 5.98.787 3.162.788 3.826.787 3.194 1.575-19.709.787-3.93.788 3.075.787-5.114.787 6.169.788-13.744.787-.992.788 1.665.787-12.299.787 9.348.788-7.465.787-12.705.787 4.675.788-9.693.787 1.346.788-8.333.787-3.656.787 8.186.788-5.566.787-1.855.787 18.314.788-24.774.787.24.788-11.34.787-.386.787-1.805.788-3.547.787 4.99.787 17.815.788 8.97.787 3.973 2.362-11.227.788 5.232.787-20.004.787-9.51.788-14.506.787-3.831.788-13.557.787 4.649.787-9.763.788 1.488.787 9.897 1.575-26.768.787-3.71.788 5 .787 3.57.787-.415.788-2.813.787 10.146.787-2.985.788 5.59.787-6.399.788-2.376.787-7.866.787 14.567.788-6.47.787-13.96.787-6.102.788-3.239.787-4.676.788 2.922.787 12.973.787 8.882.788-4.612.787 7.502.787 3.343.788-5.648.787 1.466.788-.38.787-.06.787-.55.788-5.447.787 9.8.788-6.757.787 10.27.787 2.583.788 4.533.787 2.064.787-3.517.788 3.987.787 7.676.788 10.248.787-1.391.787-5.6.788-7.023.787.256.787 7.338.788 9.027.787 5.444.788-3.334.787.891.787.052.788-8.766.787-.13.787.076.788 4.632.787 1.427.788-12.96.787-2.479.787-.252.788 21.492.787-5.098.787-8.567.788-2.92.787-5.52.788 6.955.787-5.448.787 2.486.788 4.591.787-4.397.787-1.526.788-7.483.787-2.913.788 9.673.787 1.039 1.575 14.765.787-8.992.787-1.055.788.374.787 2.771.788 4.595.787-1.157.787-.611.788 3.04.787 10.182 1.575-8.54.787-2.207.788-7.658.787.079h0" clip-path="url(#p2436fce490)" style="fill:none;stroke:#ff8000;stroke-width:2;stroke-linecap:square"/><g id="line2d_24"><defs><path id="mc790f6aa82" d="M0 4a4 4 0 1 0 0-8 4 4 0 0 0 0 8z" style="stroke:red"/></defs><g clip-path="url(#p2436fce490)"><use xlink:href="#mc790f6aa82" x="231.892" y="141.551" style="fill:red;stroke:red"/></g></g><path id="line2d_25" d="M58.67 141.55h188.97" clip-path="url(#p2436fce490)" style="fill:none;stroke-dasharray:5.55,2.4;stroke-dashoffset:0;stroke:#8000ff;stroke-width:1.5"/><path d="M58.67 297.43V31.318M58.67 297.43h188.97" class="patch" style="fill:none;stroke:currentColor;stroke-width:.8;stroke-linejoin:miter;stroke-linecap:square"/><g id="text_14" class="text" transform="matrix(.12 0 0 -.12 7.2 16.318)"><defs><path id="DejaVuSans-42" d="M1259 2228V519h1013q509 0 754 211 246 211 246 645 0 438-246 645-245 208-754 208zm0 1919V2741h935q462 0 688 173 227 174 227 530 0 353-227 528-226 175-688 175zm-631 519h1613q722 0 1112-300 391-300 391-853 0-429-200-682t-588-315q466-100 724-418 258-317 258-792 0-625-425-966Q3088 0 2303 0H628z" transform="scale(.01563)"/><path id="DejaVuSans-72" d="M2631 2963q-97 56-211 82-114 27-251 27-488 0-749-317t-261-911V0H581v3500h578v-544q182 319 472 473 291 155 707 155 59 0 131-8 72-7 159-23z" transform="scale(.01563)"/><path id="DejaVuSans-6f" d="M1959 3097q-462 0-731-361t-269-989 267-989q268-361 733-361 460 0 728 362 269 363 269 988 0 622-269 986-268 364-728 364m0 487q750 0 1178-488 429-487 429-1349 0-859-429-1349Q2709-91 1959-91q-753 0-1180 489-426 490-426 1349 0 862 426 1349 427 488 1180 488" transform="scale(.01563)"/><path id="DejaVuSans-77" d="M269 3500h575l719-2731 715 2731h678l719-2731 716 2731h575L4050 0h-678l-753 2869L1863 0h-679z" transform="scale(.01563)"/><path id="DejaVuSans-6e" d="M3513 2113V0h-575v2094q0 497-194 743-194 247-581 247-466 0-735-297-269-296-269-809V0H581v3500h578v-544q207 316 486 472 280 156 646 156 603 0 912-373 310-373 310-1098" transform="scale(.01563)"/><path id="DejaVuSans-69" d="M603 3500h575V0H603zm0 1363h575v-729H603z" transform="scale(.01563)"/><path id="DejaVuSans-61" d="M2194 1759q-697 0-966-159t-269-544q0-306 202-486 202-179 548-179 479 0 768 339t289 901v128zm1147 238V0h-575v531q-197-318-491-470T1556-91q-537 0-855 302-317 302-317 808 0 590 395 890 396 300 1180 300h807v57q0 397-261 614t-733 217q-300 0-585-72-284-72-546-216v532q315 122 612 182 297 61 578 61 760 0 1135-394 375-393 375-1193" transform="scale(.01563)"/><path id="DejaVuSans-6d" d="M3328 2828q216 388 516 572t706 184q547 0 844-383 297-382 297-1088V0h-578v2094q0 503-179 746-178 244-543 244-447 0-707-297-259-296-259-809V0h-578v2094q0 506-178 748t-550 242q-441 0-701-298-259-298-259-808V0H581v3500h578v-544q197 322 472 475t653 153q382 0 649-194 267-193 395-562" transform="scale(.01563)"/><path id="DejaVuSans-74" d="M1172 4494v-994h1184v-447H1172V1153q0-428 117-550t477-122h590V0h-590q-666 0-919 248-253 249-253 905v1900H172v447h422v994z" transform="scale(.01563)"/><path id="DejaVuSans-63" d="M3122 3366v-538q-244 135-489 202t-495 67q-560 0-870-355-309-354-309-995t309-996q310-354 870-354 250 0 495 67t489 202V134Q2881 22 2623-34q-257-57-548-57-791 0-1257 497-465 497-465 1341 0 856 470 1346 471 491 1290 491 265 0 518-55 253-54 491-163" transform="scale(.01563)"/><path id="DejaVuSans-76" d="M191 3500h609L1894 563l1094 2937h609L2284 0h-781z" transform="scale(.01563)"/><path id="DejaVuSans-65" d="M3597 1894v-281H953q38-594 358-905t892-311q331 0 642 81t618 244V178Q3153 47 2828-22t-659-69q-838 0-1327 487-489 488-489 1320 0 859 464 1363 464 505 1252 505 706 0 1117-455 411-454 411-1235m-575 169q-6 471-264 752-258 282-683 282-481 0-770-272t-333-766z" transform="scale(.01563)"/><path id="DejaVuSans-67" d="M2906 1791q0 625-258 968-257 344-723 344-462 0-720-344-258-343-258-968 0-622 258-966t720-344q466 0 723 344 258 344 258 966m575-1357q0-893-397-1329-396-436-1215-436-303 0-572 45t-522 139v559q253-137 500-202 247-66 503-66 566 0 847 295t281 892v285q-178-310-456-463T1784 0Q1141 0 747 490 353 981 353 1791q0 812 394 1302 394 491 1037 491 388 0 666-153t456-462v531h575z" transform="scale(.01563)"/><path id="DejaVuSans-70" d="M1159 525v-1856H581v4831h578v-531q182 312 458 463 277 152 661 152 638 0 1036-506 399-506 399-1331T3314 415Q2916-91 2278-91q-384 0-661 152-276 152-458 464m1957 1222q0 634-261 995t-717 361q-457 0-718-361t-261-995 261-995 718-361q456 0 717 361t261 995" transform="scale(.01563)"/><path id="DejaVuSans-54" d="M-19 4666h3947v-532H2272V0h-634v4134H-19z" transform="scale(.01563)"/></defs><use xlink:href="#DejaVuSans-42"/><use xlink:href="#DejaVuSans-72" transform="translate(68.604)"/><use xlink:href="#DejaVuSans-6f" transform="translate(107.467)"/><use xlink:href="#DejaVuSans-77" transform="translate(168.648)"/><use xlink:href="#DejaVuSans-6e" transform="translate(250.436)"/><use xlink:href="#DejaVuSans-69" transform="translate(313.814)"/><use xlink:href="#DejaVuSans-61" transform="translate(341.598)"/><use xlink:href="#DejaVuSans-6e" transform="translate(402.877)"/><use xlink:href="#DejaVuSans-6d" transform="translate(498.043)"/><use xlink:href="#DejaVuSans-6f" transform="translate(595.455)"/><use xlink:href="#DejaVuSans-74" transform="translate(656.637)"/><use xlink:href="#DejaVuSans-69" transform="translate(695.846)"/><use xlink:href="#DejaVuSans-6f" transform="translate(723.629)"/><use xlink:href="#DejaVuSans-6e" transform="translate(784.81)"/><use xlink:href="#DejaVuSans-63" transform="translate(879.977)"/><use xlink:href="#DejaVuSans-6f" transform="translate(934.957)"/><use xlink:href="#DejaVuSans-6e" transform="translate(996.139)"/><use xlink:href="#DejaVuSans-76" transform="translate(1059.518)"/><use xlink:href="#DejaVuSans-65" transform="translate(1118.697)"/><use xlink:href="#DejaVuSans-72" transform="translate(1180.22)"/><use xlink:href="#DejaVuSans-67" transform="translate(1219.584)"/><use xlink:href="#DejaVuSans-69" transform="translate(1283.06)"/><use xlink:href="#DejaVuSans-6e" transform="translate(1310.844)"/><use xlink:href="#DejaVuSans-67" transform="translate(1374.223)"/><use xlink:href="#DejaVuSans-74" transform="translate(1469.486)"/><use xlink:href="#DejaVuSans-6f" transform="translate(1508.695)"/><use xlink:href="#DejaVuSans-61" transform="translate(1601.664)"/><use xlink:href="#DejaVuSans-70" transform="translate(1694.73)"/><use xlink:href="#DejaVuSans-6f" transform="translate(1758.207)"/><use xlink:href="#DejaVuSans-69" transform="translate(1819.389)"/><use xlink:href="#DejaVuSans-6e" transform="translate(1847.172)"/><use xlink:href="#DejaVuSans-74" transform="translate(1910.55)"/><use xlink:href="#DejaVuSans-61" transform="translate(1981.547)"/><use xlink:href="#DejaVuSans-74" transform="translate(2042.826)"/><use xlink:href="#DejaVuSans-74" transform="translate(2113.822)"/><use xlink:href="#DejaVuSans-69" transform="translate(2153.031)"/><use xlink:href="#DejaVuSans-6d" transform="translate(2180.814)"/><use xlink:href="#DejaVuSans-65" transform="translate(2278.227)"/><use xlink:href="#DejaVuSans-54" transform="translate(2371.537)"/></g></g></g><defs><clipPath id="p2436fce490"><path d="M58.669 31.318h188.97V297.43H58.669z"/></clipPath></defs></svg>