<svg xmlns="http://www.w3.org/2000/svg" xmlns:xlink="http://www.w3.org/1999/xlink" width="559.705" height="445.358" style="--axis-color:#000;--grid-stroke:rgba(0,0,0,0.2);--plot3d-stroke:rgba(0,0,0,0.3);--plot3d-grid:rgba(0,0,0,0.2)" viewBox="0 0 419.779 334.019"><style><![CDATA[@media (prefers-color-scheme:dark){:root{--axis-color:#fff;--grid-stroke:rgba(255,255,255,0.2);--plot3d-stroke:rgba(255,255,255,0.3);--plot3d-grid:rgba(255,255,255,0.2)}}.text{fill:var(--axis-color)!important;stroke:none!important}.axis path,.patch path[style*="stroke: currentColor"],.tick path{stroke:var(--axis-color)!important}*{stroke-linejoin:round;stroke-linecap:butt}]]></style><g id="figure_1"><path d="M0 334.019h419.779V0H0z" class="patch" style="fill:none"/><g id="axes_1"><path d="M55.459 297.43h357.12V31.318H55.459z" class="patch" style="fill:none"/><g class="axis"><g class="tick xtick"><path id="line2d_1" d="M85.219 297.43V31.318" clip-path="url(#pce7a36bac0)" style="fill:none;stroke:#b0b0b0;stroke-opacity:.15;stroke-width:.8;stroke-linecap:square"/><g id="line2d_2"><defs><path id="m92a462895b" d="M0 0v3.5" style="stroke:currentColor;stroke-width:.8"/></defs><use xlink:href="#m92a462895b" x="85.219" y="297.43" style="stroke:currentColor;stroke-width:.8"/></g><g id="text_1" class="text" transform="matrix(.09 0 0 -.09 78.063 311.269)"><defs><path id="DejaVuSans-30" d="M2034 4250q-487 0-733-480-245-479-245-1442 0-959 245-1439 246-480 733-480 491 0 736 480 246 480 246 1439 0 963-246 1442-245 480-736 480zm0 500q785 0 1199-621 414-620 414-1801 0-1178-414-1799Q2819-91 2034-91q-784 0-1198 620-414 621-414 1799 0 1181 414 1801 414 621 1198 621z" transform="scale(.01563)"/><path id="DejaVuSans-2e" d="M684 794h660V0H684z" transform="scale(.01563)"/></defs><use xlink:href="#DejaVuSans-30"/><use xlink:href="#DejaVuSans-2e" transform="translate(63.623)"/><use xlink:href="#DejaVuSans-30" transform="translate(95.41)"/></g></g><g class="tick xtick"><path id="line2d_3" d="M159.619 297.43V31.318" clip-path="url(#pce7a36bac0)" style="fill:none;stroke:#b0b0b0;stroke-opacity:.15;stroke-width:.8;stroke-linecap:square"/><use xlink:href="#m92a462895b" id="line2d_4" x="159.619" y="297.43" style="stroke:currentColor;stroke-width:.8"/><g id="text_2" class="text" transform="matrix(.09 0 0 -.09 152.463 311.269)"><defs><path id="DejaVuSans-35" d="M691 4666h2478v-532H1269V2991q137 47 274 70 138 23 276 23 781 0 1237-428 457-428 457-1159 0-753-469-1171Q2575-91 1722-91q-294 0-599 50Q819 9 494 109v635q281-153 581-228t634-75q541 0 856 284 316 284 316 772 0 487-316 771-315 285-856 285-253 0-505-56-251-56-513-175z" transform="scale(.01563)"/></defs><use xlink:href="#DejaVuSans-30"/><use xlink:href="#DejaVuSans-2e" transform="translate(63.623)"/><use xlink:href="#DejaVuSans-35" transform="translate(95.41)"/></g></g><g class="tick xtick"><path id="line2d_5" d="M234.019 297.43V31.318" clip-path="url(#pce7a36bac0)" style="fill:none;stroke:#b0b0b0;stroke-opacity:.15;stroke-width:.8;stroke-linecap:square"/><use xlink:href="#m92a462895b" id="line2d_6" x="234.019" y="297.43" style="stroke:currentColor;stroke-width:.8"/><g id="text_3" class="text" transform="matrix(.09 0 0 -.09 226.863 311.269)"><defs><path id="DejaVuSans-31" d="M794 531h1031v3560L703 3866v575l1116 225h631V531h1031V0H794z" transform="scale(.01563)"/></defs><use xlink:href="#DejaVuSans-31"/><use xlink:href="#DejaVuSans-2e" transform="translate(63.623)"/><use xlink:href="#DejaVuSans-30" transform="translate(95.41)"/></g></g><g class="tick xtick"><path id="line2d_7" d="M308.419 297.43V31.318" clip-path="url(#pce7a36bac0)" style="fill:none;stroke:#b0b0b0;stroke-opacity:.15;stroke-width:.8;stroke-linecap:square"/><use xlink:href="#m92a462895b" id="line2d_8" x="308.419" y="297.43" style="stroke:currentColor;stroke-width:.8"/><g id="text_4" class="text" transform="matrix(.09 0 0 -.09 301.262 311.269)"><use xlink:href="#DejaVuSans-31"/><use xlink:href="#DejaVuSans-2e" transform="translate(63.623)"/><use xlink:href="#DejaVuSans-35" transform="translate(95.41)"/></g></g><g class="tick xtick"><path id="line2d_9" d="M382.819 297.43V31.318" clip-path="url(#pce7a36bac0)" style="fill:none;stroke:#b0b0b0;stroke-opacity:.15;stroke-width:.8;stroke-linecap:square"/><use xlink:href="#m92a462895b" id="line2d_10" x="382.819" y="297.43" style="stroke:currentColor;stroke-width:.8"/><g id="text_5" class="text" transform="matrix(.09 0 0 -.09 375.663 311.269)"><defs><path id="DejaVuSans-32" d="M1228 531h2203V0H469v531q359 372 979 998 621 627 780 809 303 340 423 576 121 236 121 464 0 372-261 606-261 235-680 235-297 0-627-103-329-103-704-313v638q381 153 712 231 332 78 607 78 725 0 1156-363 431-362 431-968 0-288-108-546-107-257-392-607-78-91-497-524-418-433-1181-1211z" transform="scale(.01563)"/></defs><use xlink:href="#DejaVuSans-32"/><use xlink:href="#DejaVuSans-2e" transform="translate(63.623)"/><use xlink:href="#DejaVuSans-30" transform="translate(95.41)"/></g></g><g id="text_6" class="text" transform="matrix(.1 0 0 -.1 232.019 324.739)"><defs><path id="DejaVuSans-Oblique-74" d="m2706 3500-87-447H1472l-372-1900q-19-106-28-178t-9-112q0-200 120-291t386-91h581L2053 0h-550Q991 0 739 200 488 400 488 806q0 72 9 158t28 189l372 1900H409l91 447h478l194 994h575l-191-994z" transform="scale(.01563)"/></defs><use xlink:href="#DejaVuSans-Oblique-74" transform="translate(0 .781)"/></g></g><g class="axis"><g class="tick ytick"><path id="line2d_11" d="M55.459 282.012h357.12" clip-path="url(#pce7a36bac0)" style="fill:none;stroke:#b0b0b0;stroke-opacity:.15;stroke-width:.8;stroke-linecap:square"/><g id="line2d_12"><defs><path id="ma53e3fcbc4" d="M0 0h-3.5" style="stroke:currentColor;stroke-width:.8"/></defs><use xlink:href="#ma53e3fcbc4" x="55.459" y="282.012" style="stroke:currentColor;stroke-width:.8"/></g><g id="text_7" class="text" transform="matrix(.09 0 0 -.09 20.878 285.431)"><defs><path id="DejaVuSans-2212" d="M678 2272h4006v-531H678z" transform="scale(.01563)"/><path id="DejaVuSans-37" d="M525 4666h3000v-269L1831 0h-659l1594 4134H525z" transform="scale(.01563)"/></defs><use xlink:href="#DejaVuSans-2212"/><use xlink:href="#DejaVuSans-31" transform="translate(83.79)"/><use xlink:href="#DejaVuSans-2e" transform="translate(147.412)"/><use xlink:href="#DejaVuSans-37" transform="translate(179.2)"/><use xlink:href="#DejaVuSans-35" transform="translate(242.822)"/></g></g><g class="tick ytick"><path id="line2d_13" d="M55.459 249.872h357.12" clip-path="url(#pce7a36bac0)" style="fill:none;stroke:#b0b0b0;stroke-opacity:.15;stroke-width:.8;stroke-linecap:square"/><use xlink:href="#ma53e3fcbc4" id="line2d_14" x="55.459" y="249.872" style="stroke:currentColor;stroke-width:.8"/><g id="text_8" class="text" transform="matrix(.09 0 0 -.09 20.878 253.29)"><use xlink:href="#DejaVuSans-2212"/><use xlink:href="#DejaVuSans-31" transform="translate(83.79)"/><use xlink:href="#DejaVuSans-2e" transform="translate(147.412)"/><use xlink:href="#DejaVuSans-35" transform="translate(179.2)"/><use xlink:href="#DejaVuSans-30" transform="translate(242.822)"/></g></g><g class="tick ytick"><path id="line2d_15" d="M55.459 217.731h357.12" clip-path="url(#pce7a36bac0)" style="fill:none;stroke:#b0b0b0;stroke-opacity:.15;stroke-width:.8;stroke-linecap:square"/><use xlink:href="#ma53e3fcbc4" id="line2d_16" x="55.459" y="217.731" style="stroke:currentColor;stroke-width:.8"/><g id="text_9" class="text" transform="matrix(.09 0 0 -.09 20.878 221.15)"><use xlink:href="#DejaVuSans-2212"/><use xlink:href="#DejaVuSans-31" transform="translate(83.79)"/><use xlink:href="#DejaVuSans-2e" transform="translate(147.412)"/><use xlink:href="#DejaVuSans-32" transform="translate(179.2)"/><use xlink:href="#DejaVuSans-35" transform="translate(242.822)"/></g></g><g class="tick ytick"><path id="line2d_17" d="M55.459 185.591h357.12" clip-path="url(#pce7a36bac0)" style="fill:none;stroke:#b0b0b0;stroke-opacity:.15;stroke-width:.8;stroke-linecap:square"/><use xlink:href="#ma53e3fcbc4" id="line2d_18" x="55.459" y="185.591" style="stroke:currentColor;stroke-width:.8"/><g id="text_10" class="text" transform="matrix(.09 0 0 -.09 20.878 189.01)"><use xlink:href="#DejaVuSans-2212"/><use xlink:href="#DejaVuSans-31" transform="translate(83.79)"/><use xlink:href="#DejaVuSans-2e" transform="translate(147.412)"/><use xlink:href="#DejaVuSans-30" transform="translate(179.2)"/><use xlink:href="#DejaVuSans-30" transform="translate(242.822)"/></g></g><g class="tick ytick"><path id="line2d_19" d="M55.459 153.45h357.12" clip-path="url(#pce7a36bac0)" style="fill:none;stroke:#b0b0b0;stroke-opacity:.15;stroke-width:.8;stroke-linecap:square"/><use xlink:href="#ma53e3fcbc4" id="line2d_20" x="55.459" y="153.451" style="stroke:currentColor;stroke-width:.8"/><g id="text_11" class="text" transform="matrix(.09 0 0 -.09 20.878 156.87)"><use xlink:href="#DejaVuSans-2212"/><use xlink:href="#DejaVuSans-30" transform="translate(83.79)"/><use xlink:href="#DejaVuSans-2e" transform="translate(147.412)"/><use xlink:href="#DejaVuSans-37" transform="translate(179.2)"/><use xlink:href="#DejaVuSans-35" transform="translate(242.822)"/></g></g><g class="tick ytick"><path id="line2d_21" d="M55.459 121.31h357.12" clip-path="url(#pce7a36bac0)" style="fill:none;stroke:#b0b0b0;stroke-opacity:.15;stroke-width:.8;stroke-linecap:square"/><use xlink:href="#ma53e3fcbc4" id="line2d_22" x="55.459" y="121.311" style="stroke:currentColor;stroke-width:.8"/><g id="text_12" class="text" transform="matrix(.09 0 0 -.09 20.878 124.73)"><use xlink:href="#DejaVuSans-2212"/><use xlink:href="#DejaVuSans-30" transform="translate(83.79)"/><use xlink:href="#DejaVuSans-2e" transform="translate(147.412)"/><use xlink:href="#DejaVuSans-35" transform="translate(179.2)"/><use xlink:href="#DejaVuSans-30" transform="translate(242.822)"/></g></g><g class="tick ytick"><path id="line2d_23" d="M55.459 89.17h357.12" clip-path="url(#pce7a36bac0)" style="fill:none;stroke:#b0b0b0;stroke-opacity:.15;stroke-width:.8;stroke-linecap:square"/><use xlink:href="#ma53e3fcbc4" id="line2d_24" x="55.459" y="89.171" style="stroke:currentColor;stroke-width:.8"/><g id="text_13" class="text" transform="matrix(.09 0 0 -.09 20.878 92.59)"><use xlink:href="#DejaVuSans-2212"/><use xlink:href="#DejaVuSans-30" transform="translate(83.79)"/><use xlink:href="#DejaVuSans-2e" transform="translate(147.412)"/><use xlink:href="#DejaVuSans-32" transform="translate(179.2)"/><use xlink:href="#DejaVuSans-35" transform="translate(242.822)"/></g></g><g class="tick ytick"><path id="line2d_25" d="M55.459 57.03h357.12" clip-path="url(#pce7a36bac0)" style="fill:none;stroke:#b0b0b0;stroke-opacity:.15;stroke-width:.8;stroke-linecap:square"/><use xlink:href="#ma53e3fcbc4" id="line2d_26" x="55.459" y="57.03" style="stroke:currentColor;stroke-width:.8"/><g id="text_14" class="text" transform="matrix(.09 0 0 -.09 28.42 60.45)"><use xlink:href="#DejaVuSans-30"/><use xlink:href="#DejaVuSans-2e" transform="translate(63.623)"/><use xlink:href="#DejaVuSans-30" transform="translate(95.41)"/><use xlink:href="#DejaVuSans-30" transform="translate(159.033)"/></g></g><g id="text_15" class="text" transform="matrix(0 -.1 -.1 0 14.798 178.105)"><defs><path id="DejaVuSans-56" d="M1831 0 50 4666h659L2188 738l1481 3928h656L2547 0z" transform="scale(.01563)"/><path id="DejaVuSans-61" d="M2194 1759q-697 0-966-159t-269-544q0-306 202-486 202-179 548-179 479 0 768 339t289 901v128zm1147 238V0h-575v531q-197-318-491-470T1556-91q-537 0-855 302-317 302-317 808 0 590 395 890 396 300 1180 300h807v57q0 397-261 614t-733 217q-300 0-585-72-284-72-546-216v532q315 122 612 182 297 61 578 61 760 0 1135-394 375-393 375-1193z" transform="scale(.01563)"/><path id="DejaVuSans-6c" d="M603 4863h575V0H603z" transform="scale(.01563)"/><path id="DejaVuSans-75" d="M544 1381v2119h575V1403q0-497 193-746 194-248 582-248 465 0 735 297 271 297 271 810v1984h575V0h-575v538q-209-319-486-474-276-155-642-155-603 0-916 375-312 375-312 1097zm1447 2203z" transform="scale(.01563)"/><path id="DejaVuSans-65" d="M3597 1894v-281H953q38-594 358-905t892-311q331 0 642 81t618 244V178Q3153 47 2828-22t-659-69q-838 0-1327 487-489 488-489 1320 0 859 464 1363 464 505 1252 505 706 0 1117-455 411-454 411-1235zm-575 169q-6 471-264 752-258 282-683 282-481 0-770-272t-333-766z" transform="scale(.01563)"/></defs><use xlink:href="#DejaVuSans-56"/><use xlink:href="#DejaVuSans-61" transform="translate(60.658)"/><use xlink:href="#DejaVuSans-6c" transform="translate(121.938)"/><use xlink:href="#DejaVuSans-75" transform="translate(149.72)"/><use xlink:href="#DejaVuSans-65" transform="translate(213.1)"/></g></g><path id="line2d_27" d="M85.219 57.03v5.548l1.495-.231 1.496 3.3 1.495.94 1.496 11.284 1.495-.432 1.496-6.308 1.495 11.49 1.496 19.64 1.495 11.56 1.496-4.002 1.495-19.589 1.496.546 1.495-1.352 2.991 17.65 1.496-8.23 1.495-.31 1.495 12.638 1.496 3.913 1.495 1.173 1.496-4.573 1.495 4.507 1.496 1.024 1.495-4.234 1.496-9.02 1.495-17.029 1.496 8.857 1.495-9.207 1.496 1.62 1.495 15.033 1.496 26.671 1.495-3.256 1.496 5.282 1.495 14.61 1.496-1.933 1.495 5.812 1.496 24.765 1.495 5.068 1.496-16.267 1.495 3.058 1.495-5.263 1.496 3.133 1.495-2.425 1.496-16.27 1.495 1.72 1.496-13.565 1.495-5.444 1.496 1.992 1.495-9.02 1.496 4.18 1.495-8.54 1.496 12.89 1.495 41.588 1.496-3.097 1.495.876 1.496-12.034 1.495 21.092 1.496 11.451 1.495 5.302 1.496 21.122 1.495-12.684 1.496 7.88 1.495-3.432 1.495-21.143 1.496-.209 1.495-5.178 1.496 18.943 1.495-1.059 1.496-15.426 1.495 7.41 1.496-4.569 1.495 33.05 1.496 5.277 1.495 6.924 1.496-14.724 1.495-9.829 1.496 10.807 1.495 4.798 1.496.064 1.495 8.074 1.496 10.193 1.495.778 1.496-18.94 1.495-6.944 1.495-10.134 1.496-17.098 1.495 2.615 1.496-14.044 1.495 7.901 1.496 6.848 1.495-5.836 1.496 9.078 1.495-4.788 1.496 6.316 1.495 3.878 1.496 1.573 1.495-4.374 1.496-10.981 1.495 13.358 1.496 9.007 1.495-5.787 1.496 10.435 1.495-25.224 1.496-7.297 1.495 11.338 1.496 8.64 1.495 18.127 1.495.747 1.496 18.298 1.495 10.18 1.496 22.147 1.495-36.783 2.991-19.692 1.496 16.895 1.495-3.404 1.496-3.895 1.495-2.974 1.496-11.267 1.495 2.95 1.496-1.712 1.495 6.166 1.496 19.965 1.495-.03 1.496-3.192 1.495 21.199 1.496-13.966 1.495 3.886 1.495 2.69 1.496 1.034 1.495-3.959 1.496 2.506 1.495-6.88 1.496 10.294 1.495-17.817 1.496.48 1.495-22.454 1.496 2.113 1.495 4.38 1.496-2.536 1.495-19.691 1.496 22.319 1.495 6.413 1.496 2.343 1.495-22.404 1.496-1.438 1.495 16.498 1.496-23.598 1.495 29.552 1.496-10.152 1.495 5.792 1.495-21.225 1.496-8.744 1.495 22.305 1.496 33.755 1.495 9.958 1.496.615 1.495 11.323 1.496-.125 1.495-16.589 1.496-9.421 1.495-3.424 1.496 3.489 1.495-4.003 1.496 11.876 1.495-31.142 1.496 1.22 1.495 2.873 1.496-8.393 1.495 15.842 1.496-1.27 1.495-9.597 1.495-15.068 1.496-5.891 1.495-7.94 1.496-30.649 1.495-7.14 1.496-33.15 1.495 7.726 1.496-11.425 1.495 3.312 1.496 23.5 1.495 5.68 1.496-10.423 1.495 4.101 1.496-4.46 1.495 15.1 1.496-8.892 1.495 9.749 1.496-2.06 1.495 5.782 1.496-10.199 1.495-7.849 1.496-.535 1.495-16.828 1.495-15.365 1.496 5.252 1.495 12.796 1.496-10.569h0" clip-path="url(#pce7a36bac0)" style="fill:none;stroke:#ff0001;stroke-width:2;stroke-linecap:square"/><path id="line2d_28" d="M85.219 297.43V31.318" clip-path="url(#pce7a36bac0)" style="fill:none;stroke-dasharray:5.55,2.4;stroke-dashoffset:0;stroke:gray;stroke-opacity:.7;stroke-width:1.5"/><path id="line2d_29" d="M234.019 297.43V31.318" clip-path="url(#pce7a36bac0)" style="fill:none;stroke-dasharray:5.55,2.4;stroke-dashoffset:0;stroke:gray;stroke-opacity:.7;stroke-width:1.5"/><path id="line2d_30" d="M382.819 297.43V31.318" clip-path="url(#pce7a36bac0)" style="fill:none;stroke-dasharray:5.55,2.4;stroke-dashoffset:0;stroke:gray;stroke-opacity:.7;stroke-width:1.5"/><path d="M55.459 297.43V31.318M55.459 297.43h357.12" class="patch" style="fill:none;stroke:currentColor;stroke-width:.8;stroke-linejoin:miter;stroke-linecap:square"/><g id="text_16" class="text" transform="matrix(.12 0 0 -.12 79.999 280.836)"><use xlink:href="#DejaVuSans-Oblique-74" transform="translate(0 .781)"/><use xlink:href="#DejaVuSans-30" transform="matrix(.7 0 0 .7 39.209 -15.625)"/></g><g id="text_17" class="text" transform="matrix(.12 0 0 -.12 228.799 280.836)"><use xlink:href="#DejaVuSans-Oblique-74" transform="translate(0 .781)"/><use xlink:href="#DejaVuSans-31" transform="matrix(.7 0 0 .7 39.209 -15.625)"/></g><g id="text_18" class="text" transform="matrix(.12 0 0 -.12 377.599 280.836)"><use xlink:href="#DejaVuSans-Oblique-74" transform="translate(0 .781)"/><use xlink:href="#DejaVuSans-32" transform="matrix(.7 0 0 .7 39.209 -15.625)"/></g><g id="text_19" class="text" transform="matrix(.12 0 0 -.12 168.71 16.318)"><defs><path id="DejaVuSans-42" d="M1259 2228V519h1013q509 0 754 211 246 211 246 645 0 438-246 645-245 208-754 208zm0 1919V2741h935q462 0 688 173 227 174 227 530 0 353-227 528-226 175-688 175zm-631 519h1613q722 0 1112-300 391-300 391-853 0-429-200-682t-588-315q466-100 724-418 258-317 258-792 0-625-425-966Q3088 0 2303 0H628z" transform="scale(.01563)"/><path id="DejaVuSans-72" d="M2631 2963q-97 56-211 82-114 27-251 27-488 0-749-317t-261-911V0H581v3500h578v-544q182 319 472 473 291 155 707 155 59 0 131-8 72-7 159-23z" transform="scale(.01563)"/><path id="DejaVuSans-6f" d="M1959 3097q-462 0-731-361t-269-989 267-989q268-361 733-361 460 0 728 362 269 363 269 988 0 622-269 986-268 364-728 364m0 487q750 0 1178-488 429-487 429-1349 0-859-429-1349Q2709-91 1959-91q-753 0-1180 489-426 490-426 1349 0 862 426 1349 427 488 1180 488" transform="scale(.01563)"/><path id="DejaVuSans-77" d="M269 3500h575l719-2731 715 2731h678l719-2731 716 2731h575L4050 0h-678l-753 2869L1863 0h-679z" transform="scale(.01563)"/><path id="DejaVuSans-6e" d="M3513 2113V0h-575v2094q0 497-194 743-194 247-581 247-466 0-735-297-269-296-269-809V0H581v3500h578v-544q207 316 486 472 280 156 646 156 603 0 912-373 310-373 310-1098" transform="scale(.01563)"/><path id="DejaVuSans-69" d="M603 3500h575V0H603zm0 1363h575v-729H603z" transform="scale(.01563)"/><path id="DejaVuSans-4d" d="M628 4666h941l1190-3175 1197 3175h941V0h-616v4097L3078 897h-634L1241 4097V0H628z" transform="scale(.01563)"/><path id="DejaVuSans-74" d="M1172 4494v-994h1184v-447H1172V1153q0-428 117-550t477-122h590V0h-590q-666 0-919 248-253 249-253 905v1900H172v447h422v994z" transform="scale(.01563)"/><path id="DejaVuSans-50" d="M1259 4147V2394h794q441 0 681 228 241 228 241 650 0 419-241 647-240 228-681 228zm-631 519h1425q785 0 1186-355 402-355 402-1039 0-691-402-1044-401-353-1186-353h-794V0H628z" transform="scale(.01563)"/><path id="DejaVuSans-68" d="M3513 2113V0h-575v2094q0 497-194 743-194 247-581 247-466 0-735-297-269-296-269-809V0H581v4863h578V2956q207 316 486 472 280 156 646 156 603 0 912-373 310-373 310-1098" transform="scale(.01563)"/></defs><use xlink:href="#DejaVuSans-42"/><use xlink:href="#DejaVuSans-72" transform="translate(68.604)"/><use xlink:href="#DejaVuSans-6f" transform="translate(107.467)"/><use xlink:href="#DejaVuSans-77" transform="translate(168.648)"/><use xlink:href="#DejaVuSans-6e" transform="translate(250.436)"/><use xlink:href="#DejaVuSans-69" transform="translate(313.814)"/><use xlink:href="#DejaVuSans-61" transform="translate(341.598)"/><use xlink:href="#DejaVuSans-6e" transform="translate(402.877)"/><use xlink:href="#DejaVuSans-4d" transform="translate(498.043)"/><use xlink:href="#DejaVuSans-6f" transform="translate(584.322)"/><use xlink:href="#DejaVuSans-74" transform="translate(645.504)"/><use xlink:href="#DejaVuSans-69" transform="translate(684.713)"/><use xlink:href="#DejaVuSans-6f" transform="translate(712.496)"/><use xlink:href="#DejaVuSans-6e" transform="translate(773.678)"/><use xlink:href="#DejaVuSans-50" transform="translate(868.844)"/><use xlink:href="#DejaVuSans-61" transform="translate(924.646)"/><use xlink:href="#DejaVuSans-74" transform="translate(985.926)"/><use xlink:href="#DejaVuSans-68" transform="translate(1025.135)"/></g></g></g><defs><clipPath id="pce7a36bac0"><path d="M55.459 31.318h357.12V297.43H55.459z"/></clipPath></defs></svg>