<svg xmlns="http://www.w3.org/2000/svg" xmlns:xlink="http://www.w3.org/1999/xlink" width="629.907" height="161.249" style="--axis-color:#000;--grid-stroke:rgba(0,0,0,0.2);--plot3d-stroke:rgba(0,0,0,0.3);--plot3d-grid:rgba(0,0,0,0.2);--black:#000000;--c1:#FF0001;--c2:#00FF02;--c3:#0000FF;--c4:#FF00FF;--c5:#00FFFF;--c6:#FFFF00;--c7:#FF8000;--c8:#8000FF;--gray:#7f7f7f;--grey:#7f7f7f;--octonary:#bcbd22;--primary:#d62728;--quaternary:#9467bd;--quinary:#8c564b;--secondary:#2ca02c;--senary:#e377c2;--septenary:#7f7f7f;--tertiary:#1f77b4;--white:#ffffff" viewBox="0 0 629.907 161.249"><style><![CDATA[@media (prefers-color-scheme:dark){:root{--axis-color:#fff;--grid-stroke:rgba(255,255,255,0.2);--plot3d-stroke:rgba(255,255,255,0.3);--plot3d-grid:rgba(255,255,255,0.2);--black:#FFFFFF;--c1:#FF0001;--c2:#00FF02;--c3:#0000FF;--c4:#FF00FF;--c5:#00FFFF;--c6:#FFFF00;--c7:#FF8000;--c8:#8000FF;--gray:#CCCCCC;--grey:#CCCCCC;--octonary:#E6DB74;--primary:#FF4A98;--quaternary:#B4A0FF;--quinary:#FFB86B;--secondary:#0AFAFA;--senary:#FF79C6;--septenary:#CCCCCC;--tertiary:#7F83FF;--white:#000000}}]]></style><defs><path id="conditional_independence_glyph-0-0" d="m12.734-7.578-.343-4.078H1.047L.703-7.578h.719c.156-1.875.297-3.344 2.781-3.344h1.39V-.734H3V0l3.734-.031L10.47 0v-.734H7.875v-10.188H9.25c2.469 0 2.61 1.453 2.766 3.344Zm0 0"/><path id="conditional_independence_glyph-0-1" d="M9.313-.375c0-.36-.157-.36-.391-.36-1.094-.015-1.094-.296-1.094-.687V-5.14c0-1.593-1.25-2.656-3.672-2.656-.968 0-3 .078-3 1.531 0 .72.547 1.032 1.016 1.032.515 0 1.015-.36 1.015-1.016 0-.328-.124-.64-.421-.828.578-.156.984-.156 1.312-.156 1.172 0 1.875.656 1.875 2.062v.688C3.234-4.484.5-3.72.5-1.812.5-.234 2.5.109 3.688.109c1.328 0 2.171-.734 2.515-1.484 0 .64 0 1.375 1.734 1.375h.875c.36 0 .5 0 .5-.375m-3.36-2.016c0 1.61-1.437 1.922-2 1.922-.844 0-1.547-.562-1.547-1.36 0-1.562 1.86-2.093 3.547-2.187Zm0 0"/><path id="conditional_independence_glyph-0-2" d="M4.797 0v-.734H3.734V-7.75l-2.921.14v.735c1.015 0 1.14 0 1.14.672v5.469H.75V0c.406-.031 1.594-.031 2.063-.031.468 0 1.578 0 1.984.031m-.86-10.469c0-.703-.578-1.234-1.234-1.234a1.24 1.24 0 0 0-1.25 1.234c0 .703.578 1.235 1.235 1.235a1.24 1.24 0 0 0 1.25-1.235m0 0"/><path id="conditional_independence_glyph-0-3" d="M4.922 0v-.734H3.734v-11.22l-2.984.142v.734c1.078 0 1.203 0 1.203.672v9.672H.75V0c.406-.031 1.625-.031 2.094-.031s1.687 0 2.078.031m0 0"/><path id="conditional_independence_glyph-0-4" d="M5.375-3.031V-4.61H.203v1.578Zm0 0"/><path id="conditional_independence_glyph-0-5" d="M6.438-2.14v-.907h-.72v.89c0 1.141-.515 1.641-1.046 1.641-1.031 0-1.031-1.156-1.031-1.546v-4.844h2.468v-.735H3.641v-3.296h-.735C2.891-9.234 2.062-7.531.36-7.47v.563H1.75v4.781C1.75-.297 3.172.109 4.406.109c1.282 0 2.032-.968 2.032-2.25m0 0"/><path id="conditional_independence_glyph-0-6" d="M9.125-3.766c0-2.328-1.578-4.03-4.281-4.03C2.03-7.797.53-6.017.53-3.767S2.125.11 4.828.11c2.797 0 4.297-1.703 4.297-3.875m-2.062-.171c0 1.421 0 3.421-2.22 3.421-2.25 0-2.25-2.015-2.25-3.421 0-.813 0-1.672.329-2.297.39-.688 1.156-1 1.906-1 .969 0 1.594.468 1.89.953.345.61.345 1.515.345 2.343m0 0"/><path id="conditional_independence_glyph-0-7" d="M10.328 0v-.734H9.141v-4.532c0-1.64-.703-2.484-2.594-2.484-1.25 0-2.313.61-2.89 1.89H3.64v-1.89l-2.922.14v.735c1.078 0 1.187 0 1.187.672v5.469H.72V0c.406-.031 1.64-.031 2.125-.031.484 0 1.734 0 2.125.031v-.734H3.78v-3.672c0-1.86 1.39-2.782 2.485-2.782.64 0 1 .422 1 1.735v4.719H6.078V0c.39-.031 1.64-.031 2.125-.031.469 0 1.735 0 2.125.031m0 0"/><path id="conditional_independence_glyph-0-8" d="M10.14 0v-.734c-1.062 0-1.187 0-1.187-.672v-10.547l-2.984.14v.735c1.078 0 1.187 0 1.187.672v3.484c-.375-.328-1.125-.828-2.312-.828C2.39-7.75.656-6.234.656-3.828c0 2.469 1.703 3.937 4 3.937.938 0 1.75-.328 2.422-.906V.11ZM7.079-1.734C6.36-.687 5.468-.47 4.86-.47c-2.14 0-2.14-2.187-2.14-3.312 0-.813 0-1.672.375-2.328.547-.97 1.562-1.078 1.953-1.078.703 0 1.469.312 2.031 1.078Zm0 0"/><path id="conditional_independence_glyph-0-9" d="M8.281-2.016c0-.25-.25-.25-.36-.25-.28 0-.296.047-.39.266C7.078-.875 5.938-.516 5.11-.516c-2.484 0-2.515-2.328-2.515-3.296H7.78c.39 0 .5 0 .5-.422 0-.516-.125-1.813-.906-2.625-.734-.72-1.687-.938-2.687-.938C2-7.797.53-6.047.53-3.875.531-1.469 2.312.109 4.906.109s3.375-1.828 3.375-2.125M6.703-4.312h-4.11c.048-.704.063-1.375.423-1.985.328-.562.922-.937 1.672-.937 1.843 0 2 2.062 2.015 2.922m0 0"/><path id="conditional_independence_glyph-0-10" d="M6.969-2.39c0-.829-.438-1.391-.782-1.704-.718-.593-1.296-.687-2.234-.86-1.094-.187-2.125-.39-2.125-1.218 0-1.11 1.531-1.11 1.89-1.11 1.907 0 2.016 1.204 2.048 1.641.015.22.156.22.359.22.36 0 .36-.048.36-.454v-1.484c0-.313 0-.438-.25-.438-.11 0-.141 0-.391.156-.078.047-.266.172-.344.22-.484-.282-1.125-.376-1.75-.376-.516 0-3.094 0-3.094 2.234 0 1.813 2.14 2.188 2.672 2.282.453.078 1.031.187 1.094.187.687.156 1.375.578 1.375 1.297 0 1.328-1.563 1.328-1.922 1.328-.875 0-1.969-.265-2.453-1.937-.094-.344-.11-.36-.406-.36-.36 0-.36.047-.36.438v1.984c0 .328 0 .453.25.453.125 0 .156 0 .5-.28L1.86-.5c.782.61 1.704.61 2.016.61.953 0 3.094-.22 3.094-2.5m0 0"/><path id="conditional_independence_glyph-0-11" d="M14.484 0v-.734h-1.828v-10.344h1.828v-.735c-.5.032-2.343.032-2.968.032-.61 0-2.453 0-2.953-.031v.734h1.828v4.562H4.75v-4.562h1.828v-.735c-.5.032-2.344.032-2.969.032-.609 0-2.453 0-2.953-.031v.734h1.828V-.734H.656V0C1.156-.031 3-.031 3.61-.031c.625 0 2.47 0 2.97.031v-.734H4.75v-5.032h5.64v5.032H8.563V0c.5-.031 2.344-.031 2.954-.031.625 0 2.468 0 2.968.031m0 0"/><path id="conditional_independence_glyph-0-12" d="M10.328 0v-.734H9.141v-4.532c0-1.64-.703-2.484-2.594-2.484a3.07 3.07 0 0 0-2.828 1.734h-.016v-5.937l-2.984.14v.735c1.078 0 1.187 0 1.187.672v9.672H.72V0c.406-.031 1.64-.031 2.125-.031.484 0 1.734 0 2.125.031v-.734H3.78v-3.672c0-1.86 1.39-2.782 2.485-2.782.64 0 1 .422 1 1.735v4.719H6.078V0c.39-.031 1.64-.031 2.125-.031.469 0 1.735 0 2.125.031m0 0"/><path id="conditional_independence_glyph-1-0" d="M7.203-1.875c0-.11-.11-.187-.172-.187s-.078.015-.234.171C5.703-.437 4.063-.17 3.407-.17c-1.188 0-1.563-1.032-1.563-1.891 0-.61.297-2.282.906-3.454.453-.796 1.375-1.734 2.469-1.734.218 0 1.172.031 1.515.781-.328 0-.484 0-.718.203a.88.88 0 0 0-.297.625c0 .344.25.547.578.547.422 0 .89-.343.89-1.031 0-.828-.796-1.469-1.984-1.469-2.266 0-4.515 2.469-4.515 4.907 0 1.5.937 2.859 2.687 2.859 2.344 0 3.828-1.828 3.828-2.047m0 0"/><path id="conditional_independence_glyph-1-1" d="M5.188-2.047c-.094.297-.094.328-.329.656-.375.485-1.14 1.22-1.953 1.22-.703 0-1.094-.641-1.094-1.657 0-.938.532-2.875.86-3.594.578-1.203 1.39-1.828 2.062-1.828 1.141 0 1.36 1.406 1.36 1.547 0 0-.047.25-.063.281Zm3.156-.422c0-.078-.063-.156-.172-.156-.14 0-.172.094-.235.36C7.673-1.25 7.36-.173 6.642-.173c-.5 0-.532-.453-.532-.797 0-.39.063-.578.204-1.25l.343-1.312c.64-2.578.797-3.203.797-3.297a.427.427 0 0 0-.437-.438c-.563 0-.703.61-.735.813-.187-.453-.656-1.14-1.547-1.14-1.937 0-4.046 2.515-4.046 5.062 0 1.703 1 2.703 2.171 2.703.954 0 1.75-.734 2.235-1.313.172 1.016.984 1.313 1.5 1.313.515 0 .937-.313 1.234-.922.281-.594.516-1.64.516-1.719m0 0"/><path id="conditional_independence_glyph-1-2" d="M6.938-4.89c0-1.579-.891-2.704-2.188-2.704-.89 0-1.703.735-2.031 1.078l1.265-5c.016-.078.047-.171.047-.265 0-.172-.203-.172-.203-.172l-.953.094c-.297.015-.547.046-.86.062-.421.031-.53.047-.53.36 0 .171.171.171.343.171.875 0 .875.157.875.329 0 .124-.14.624-.203.937l-.422 1.656L.86-3.438c-.078.422-.078.72-.078.938C.781-.734 1.75.172 2.875.172c2 0 4.063-2.563 4.063-5.063M4.906-1.923C4.484-1 3.688-.172 2.891-.172c-.547 0-1.157-.406-1.157-1.75 0-.578.063-.906.36-2.11L2.5-5.577c.031-.14 1.047-1.672 2.219-1.672.75 0 1.093.766 1.093 1.656 0 .828-.468 2.766-.906 3.672m0 0"/></defs><use xlink:href="#conditional_independence_glyph-0-0" x="20.025" y="27.045" fill="red"/><g fill="red"><use xlink:href="#conditional_independence_glyph-0-1" x="31.876" y="27.045"/><use xlink:href="#conditional_independence_glyph-0-2" x="41.291" y="27.045"/><use xlink:href="#conditional_independence_glyph-0-3" x="46.671" y="27.045"/><use xlink:href="#conditional_independence_glyph-0-4" x="52.051" y="27.045"/><use xlink:href="#conditional_independence_glyph-0-5" x="58.507" y="27.045"/><use xlink:href="#conditional_independence_glyph-0-6" x="66.038" y="27.045"/><use xlink:href="#conditional_independence_glyph-0-4" x="75.722" y="27.045"/><use xlink:href="#conditional_independence_glyph-0-5" x="82.178" y="27.045"/><use xlink:href="#conditional_independence_glyph-0-1" x="89.709" y="27.045"/><use xlink:href="#conditional_independence_glyph-0-2" x="99.125" y="27.045"/><use xlink:href="#conditional_independence_glyph-0-3" x="104.504" y="27.045"/></g><g fill="red"><use xlink:href="#conditional_independence_glyph-0-7" x="116.374" y="27.045"/><use xlink:href="#conditional_independence_glyph-0-6" x="127.134" y="27.045"/></g><g fill="red"><use xlink:href="#conditional_independence_glyph-0-8" x="137.351" y="27.045"/><use xlink:href="#conditional_independence_glyph-0-9" x="148.111" y="27.045"/><use xlink:href="#conditional_independence_glyph-0-10" x="156.948" y="27.045"/></g><g fill="red"><use xlink:href="#conditional_independence_glyph-0-11" x="232.624" y="27.045"/><use xlink:href="#conditional_independence_glyph-0-9" x="247.767" y="27.045"/><use xlink:href="#conditional_independence_glyph-0-1" x="256.603" y="27.045"/><use xlink:href="#conditional_independence_glyph-0-8" x="266.018" y="27.045"/><use xlink:href="#conditional_independence_glyph-0-4" x="276.778" y="27.045"/><use xlink:href="#conditional_independence_glyph-0-5" x="283.234" y="27.045"/><use xlink:href="#conditional_independence_glyph-0-6" x="290.766" y="27.045"/><use xlink:href="#conditional_independence_glyph-0-4" x="300.449" y="27.045"/><use xlink:href="#conditional_independence_glyph-0-5" x="306.905" y="27.045"/><use xlink:href="#conditional_independence_glyph-0-1" x="314.437" y="27.045"/><use xlink:href="#conditional_independence_glyph-0-2" x="323.852" y="27.045"/><use xlink:href="#conditional_independence_glyph-0-3" x="329.232" y="27.045"/></g><g fill="red"><use xlink:href="#conditional_independence_glyph-0-7" x="341.084" y="27.045"/><use xlink:href="#conditional_independence_glyph-0-6" x="351.844" y="27.045"/></g><g fill="red"><use xlink:href="#conditional_independence_glyph-0-8" x="362.061" y="27.045"/><use xlink:href="#conditional_independence_glyph-0-9" x="372.821" y="27.045"/></g><use xlink:href="#conditional_independence_glyph-0-10" x="381.675" y="27.045" fill="red"/><g fill="red"><use xlink:href="#conditional_independence_glyph-0-11" x="445.222" y="27.045"/><use xlink:href="#conditional_independence_glyph-0-9" x="460.365" y="27.045"/><use xlink:href="#conditional_independence_glyph-0-1" x="469.201" y="27.045"/><use xlink:href="#conditional_independence_glyph-0-8" x="478.616" y="27.045"/><use xlink:href="#conditional_independence_glyph-0-4" x="489.376" y="27.045"/><use xlink:href="#conditional_independence_glyph-0-5" x="495.832" y="27.045"/><use xlink:href="#conditional_independence_glyph-0-6" x="503.364" y="27.045"/><use xlink:href="#conditional_independence_glyph-0-4" x="513.047" y="27.045"/><use xlink:href="#conditional_independence_glyph-0-12" x="519.503" y="27.045"/><use xlink:href="#conditional_independence_glyph-0-9" x="530.263" y="27.045"/><use xlink:href="#conditional_independence_glyph-0-1" x="539.099" y="27.045"/><use xlink:href="#conditional_independence_glyph-0-8" x="548.514" y="27.045"/></g><g fill="red"><use xlink:href="#conditional_independence_glyph-0-7" x="565.73" y="27.045"/><use xlink:href="#conditional_independence_glyph-0-6" x="576.489" y="27.045"/></g><g fill="red"><use xlink:href="#conditional_independence_glyph-0-8" x="586.707" y="27.045"/><use xlink:href="#conditional_independence_glyph-0-9" x="597.466" y="27.045"/><use xlink:href="#conditional_independence_glyph-0-10" x="606.303" y="27.045"/></g><path fill="#7f7fff" stroke="var(--black)" stroke-miterlimit="10" stroke-width=".797" d="M113.566 60.926c0-11.742-9.52-21.258-21.261-21.258-11.743 0-21.258 9.516-21.258 21.258s9.516 21.261 21.258 21.261 21.261-9.519 21.261-21.261Zm0 0"/><use xlink:href="#conditional_independence_glyph-1-0" x="88.677" y="64.633" fill="var(--black)"/><path fill="none" stroke="var(--black)" stroke-miterlimit="10" stroke-width=".797" d="M54.875 119.617c0-11.738-9.52-21.258-21.262-21.258s-21.261 9.52-21.261 21.258c0 11.742 9.52 21.262 21.261 21.262 11.742 0 21.262-9.52 21.262-21.262Zm0 0"/><use xlink:href="#conditional_independence_glyph-1-1" x="29.189" y="123.324" fill="var(--black)"/><path fill="none" stroke="var(--black)" stroke-miterlimit="10" stroke-width=".797" d="M180.273 127.637c0-11.742-9.515-21.262-21.257-21.262s-21.262 9.52-21.262 21.262 9.52 21.261 21.262 21.261 21.257-9.52 21.257-21.261Zm0 0"/><use xlink:href="#conditional_independence_glyph-1-2" x="155.43" y="133.613" fill="var(--black)"/><path fill="none" stroke="var(--black)" stroke-miterlimit="10" stroke-width=".797" d="m76.988 76.242-26.226 26.23"/><path fill="var(--black)" d="m48.93 104.305 4.394-1.465-2.562-.367-.367-2.567"/><path fill="none" stroke="var(--black)" stroke-miterlimit="10" stroke-width=".797" d="m107.621 76.242 34.246 34.246"/><path fill="var(--black)" d="m143.7 112.32-1.466-4.394-.367 2.562-2.562.367"/><path fill="#7f7fff" stroke="var(--black)" stroke-miterlimit="10" stroke-width=".797" d="M332.227 60.926c0-11.742-9.516-21.258-21.258-21.258s-21.262 9.516-21.262 21.258 9.52 21.261 21.262 21.261 21.258-9.519 21.258-21.261Zm0 0"/><use xlink:href="#conditional_independence_glyph-1-0" x="307.337" y="64.633" fill="var(--black)"/><path fill="none" stroke="var(--black)" stroke-miterlimit="10" stroke-width=".797" d="M249.227 60.926c0-11.742-9.52-21.258-21.262-21.258s-21.258 9.516-21.258 21.258 9.516 21.261 21.258 21.261 21.262-9.519 21.262-21.261Zm0 0"/><use xlink:href="#conditional_independence_glyph-1-1" x="223.539" y="64.633" fill="var(--black)"/><path fill="none" stroke="var(--black)" stroke-miterlimit="10" stroke-width=".797" d="M426.57 60.926c0-11.742-9.52-21.258-21.261-21.258-11.743 0-21.258 9.516-21.258 21.258s9.515 21.261 21.258 21.261 21.261-9.519 21.261-21.261Zm0 0"/><use xlink:href="#conditional_independence_glyph-1-2" x="401.722" y="66.904" fill="var(--black)"/><path fill="none" stroke="var(--black)" stroke-miterlimit="10" stroke-width=".797" d="M249.625 60.926h37.094"/><path fill="var(--black)" d="m289.309 60.926-4.145-2.07 1.555 2.07L285.164 63"/><path fill="none" stroke="var(--black)" stroke-miterlimit="10" stroke-width=".797" d="M332.625 60.926h48.438"/><path fill="var(--black)" d="m383.652 60.926-4.144-2.07 1.555 2.07L379.508 63"/><path fill="none" stroke="var(--black)" stroke-miterlimit="10" stroke-width=".797" d="M550.852 123.29c0-11.743-9.52-21.259-21.262-21.259s-21.258 9.516-21.258 21.258 9.516 21.262 21.258 21.262 21.262-9.52 21.262-21.262Zm0 0"/><use xlink:href="#conditional_independence_glyph-1-0" x="525.957" y="126.995" fill="var(--black)"/><path fill="none" stroke="var(--black)" stroke-miterlimit="10" stroke-width=".797" d="M492.16 64.598c0-11.743-9.52-21.258-21.262-21.258s-21.257 9.515-21.257 21.258 9.515 21.261 21.257 21.261 21.262-9.52 21.262-21.261Zm0 0"/><use xlink:href="#conditional_independence_glyph-1-1" x="466.469" y="68.304" fill="var(--black)"/><path fill="none" stroke="var(--black)" stroke-miterlimit="10" stroke-width=".797" d="M617.563 56.582c0-11.742-9.52-21.262-21.262-21.262s-21.262 9.52-21.262 21.262c0 11.738 9.52 21.258 21.262 21.258s21.261-9.52 21.261-21.258Zm0 0"/><use xlink:href="#conditional_independence_glyph-1-2" x="592.71" y="62.558" fill="var(--black)"/><path fill="none" stroke="var(--black)" stroke-miterlimit="10" stroke-width=".797" d="m486.215 79.914 26.23 26.23"/><path fill="var(--black)" d="m514.277 107.977-1.465-4.399-.367 2.567-2.566.363"/><path fill="none" stroke="var(--black)" stroke-miterlimit="10" stroke-width=".797" d="m580.984 71.895-34.246 34.25"/><path fill="var(--black)" d="m544.906 107.977 4.395-1.47-2.563-.362-.367-2.567"/></svg>