<?xml version="1.0" encoding="UTF-8"?>
<svg xmlns="http://www.w3.org/2000/svg" xmlns:xlink="http://www.w3.org/1999/xlink" width="629.907" height="161.249" viewBox="0 0 629.907 161.249">
<style>/* === RDF autogenerated palette === */
:root {
    --axis-color: #000;
    --grid-stroke: rgba(0,0,0,0.2);
    --plot3d-stroke: rgba(0,0,0,0.3);
    --plot3d-grid: rgba(0,0,0,0.2);
}
@media (prefers-color-scheme: dark) {
    :root {
        --axis-color: #fff;
        --grid-stroke: rgba(255,255,255,0.2);
        --plot3d-stroke: rgba(255,255,255,0.3);
        --plot3d-grid: rgba(255,255,255,0.2);
    }
}

/* Light‑mode palette */
.black { fill:#000000; stroke:#000000; }:root { --black: #000000; }.c1 { fill:#FF0001; stroke:#FF0001; }:root { --c1: #FF0001; }.c2 { fill:#00FF02; stroke:#00FF02; }:root { --c2: #00FF02; }.c3 { fill:#0000FF; stroke:#0000FF; }:root { --c3: #0000FF; }.c4 { fill:#FF00FF; stroke:#FF00FF; }:root { --c4: #FF00FF; }.c5 { fill:#00FFFF; stroke:#00FFFF; }:root { --c5: #00FFFF; }.c6 { fill:#FFFF00; stroke:#FFFF00; }:root { --c6: #FFFF00; }.c7 { fill:#FF8000; stroke:#FF8000; }:root { --c7: #FF8000; }.c8 { fill:#8000FF; stroke:#8000FF; }:root { --c8: #8000FF; }.gray { fill:#7f7f7f; stroke:#7f7f7f; }:root { --gray: #7f7f7f; }.grey { fill:#7f7f7f; stroke:#7f7f7f; }:root { --grey: #7f7f7f; }.octonary { fill:#bcbd22; stroke:#bcbd22; }:root { --octonary: #bcbd22; }.primary { fill:#d62728; stroke:#d62728; }:root { --primary: #d62728; }.quaternary { fill:#9467bd; stroke:#9467bd; }:root { --quaternary: #9467bd; }.quinary { fill:#8c564b; stroke:#8c564b; }:root { --quinary: #8c564b; }.secondary { fill:#2ca02c; stroke:#2ca02c; }:root { --secondary: #2ca02c; }.senary { fill:#e377c2; stroke:#e377c2; }:root { --senary: #e377c2; }.septenary { fill:#7f7f7f; stroke:#7f7f7f; }:root { --septenary: #7f7f7f; }.tertiary { fill:#1f77b4; stroke:#1f77b4; }:root { --tertiary: #1f77b4; }.white { fill:#ffffff; stroke:#ffffff; }:root { --white: #ffffff; }

/* Dark overrides */
@media (prefers-color-scheme: dark) {
    .black { fill:#FFFFFF; stroke:#FFFFFF; }:root { --black: #FFFFFF; }.c1 { fill:#FF0001; stroke:#FF0001; }:root { --c1: #FF0001; }.c2 { fill:#00FF02; stroke:#00FF02; }:root { --c2: #00FF02; }.c3 { fill:#0000FF; stroke:#0000FF; }:root { --c3: #0000FF; }.c4 { fill:#FF00FF; stroke:#FF00FF; }:root { --c4: #FF00FF; }.c5 { fill:#00FFFF; stroke:#00FFFF; }:root { --c5: #00FFFF; }.c6 { fill:#FFFF00; stroke:#FFFF00; }:root { --c6: #FFFF00; }.c7 { fill:#FF8000; stroke:#FF8000; }:root { --c7: #FF8000; }.c8 { fill:#8000FF; stroke:#8000FF; }:root { --c8: #8000FF; }.gray { fill:#CCCCCC; stroke:#CCCCCC; }:root { --gray: #CCCCCC; }.grey { fill:#CCCCCC; stroke:#CCCCCC; }:root { --grey: #CCCCCC; }.octonary { fill:#E6DB74; stroke:#E6DB74; }:root { --octonary: #E6DB74; }.primary { fill:#FF4A98; stroke:#FF4A98; }:root { --primary: #FF4A98; }.quaternary { fill:#B4A0FF; stroke:#B4A0FF; }:root { --quaternary: #B4A0FF; }.quinary { fill:#FFB86B; stroke:#FFB86B; }:root { --quinary: #FFB86B; }.secondary { fill:#0AFAFA; stroke:#0AFAFA; }:root { --secondary: #0AFAFA; }.senary { fill:#FF79C6; stroke:#FF79C6; }:root { --senary: #FF79C6; }.septenary { fill:#CCCCCC; stroke:#CCCCCC; }:root { --septenary: #CCCCCC; }.tertiary { fill:#7F83FF; stroke:#7F83FF; }:root { --tertiary: #7F83FF; }.white { fill:#000000; stroke:#000000; }:root { --white: #000000; }
}/* Axis, ticks, legend */
text, .text { fill: var(--axis-color) !important; stroke: none !important; }
.axis line, .axis path,
.tick line, .tick path,
path.domain,
line.grid { stroke: var(--axis-color) !important; }
.legend text { fill: var(--axis-color) !important; }

/* Patch paths that relied on currentColor */
.patch path[style*="stroke: currentColor"] { stroke: var(--axis-color) !important; }

/* Legend background (first child of legend group) */
g.legend > g:first-child > path:first-child {
    fill: rgba(255,255,255,0.8) !important;
    stroke: rgba(0,0,0,0.1) !important;
}
@media (prefers-color-scheme: dark) {
    g.legend > g:first-child > path:first-child {
        fill: rgba(26,26,26,0.8) !important;
        stroke: rgba(255,255,255,0.1) !important;
    }
}

/* 3‑D specific rules */
.plot3d path, .plot3d polygon {
    stroke: var(--plot3d-stroke) !important;
}
.plot3d-grid line { stroke: var(--plot3d-grid) !important; }
.plot3d-surface path[style*="fill:"] {
    fill-opacity: 0.9 !important;
}
@media (prefers-color-scheme: dark) {
    .plot3d-surface path[style*="fill:"] {
        fill-opacity: 0.95 !important;
        filter: saturate(1.2) !important;
    }
}</style>

<defs>
<g class="glyph">
<g id="conditional_independence_glyph-0-0">
<path d="M 12.734375 -7.578125 L 12.390625 -11.65625 L 1.046875 -11.65625 L 0.703125 -7.578125 L 1.421875 -7.578125 C 1.578125 -9.453125 1.71875 -10.921875 4.203125 -10.921875 L 5.59375 -10.921875 L 5.59375 -0.734375 L 3 -0.734375 L 3 0 L 6.734375 -0.03125 L 10.46875 0 L 10.46875 -0.734375 L 7.875 -0.734375 L 7.875 -10.921875 L 9.25 -10.921875 C 11.71875 -10.921875 11.859375 -9.46875 12.015625 -7.578125 Z M 12.734375 -7.578125 "/>
</g>
<g id="conditional_independence_glyph-0-1">
<path d="M 9.3125 -0.375 C 9.3125 -0.734375 9.15625 -0.734375 8.921875 -0.734375 C 7.828125 -0.75 7.828125 -1.03125 7.828125 -1.421875 L 7.828125 -5.140625 C 7.828125 -6.734375 6.578125 -7.796875 4.15625 -7.796875 C 3.1875 -7.796875 1.15625 -7.71875 1.15625 -6.265625 C 1.15625 -5.546875 1.703125 -5.234375 2.171875 -5.234375 C 2.6875 -5.234375 3.1875 -5.59375 3.1875 -6.25 C 3.1875 -6.578125 3.0625 -6.890625 2.765625 -7.078125 C 3.34375 -7.234375 3.75 -7.234375 4.078125 -7.234375 C 5.25 -7.234375 5.953125 -6.578125 5.953125 -5.171875 L 5.953125 -4.484375 C 3.234375 -4.484375 0.5 -3.71875 0.5 -1.8125 C 0.5 -0.234375 2.5 0.109375 3.6875 0.109375 C 5.015625 0.109375 5.859375 -0.625 6.203125 -1.375 C 6.203125 -0.734375 6.203125 0 7.9375 0 L 8.8125 0 C 9.171875 0 9.3125 0 9.3125 -0.375 Z M 5.953125 -2.390625 C 5.953125 -0.78125 4.515625 -0.46875 3.953125 -0.46875 C 3.109375 -0.46875 2.40625 -1.03125 2.40625 -1.828125 C 2.40625 -3.390625 4.265625 -3.921875 5.953125 -4.015625 Z M 5.953125 -2.390625 "/>
</g>
<g id="conditional_independence_glyph-0-2">
<path d="M 4.796875 0 L 4.796875 -0.734375 L 3.734375 -0.734375 L 3.734375 -7.75 L 0.8125 -7.609375 L 0.8125 -6.875 C 1.828125 -6.875 1.953125 -6.875 1.953125 -6.203125 L 1.953125 -0.734375 L 0.75 -0.734375 L 0.75 0 C 1.15625 -0.03125 2.34375 -0.03125 2.8125 -0.03125 C 3.28125 -0.03125 4.390625 -0.03125 4.796875 0 Z M 3.9375 -10.46875 C 3.9375 -11.171875 3.359375 -11.703125 2.703125 -11.703125 C 2 -11.703125 1.453125 -11.140625 1.453125 -10.46875 C 1.453125 -9.765625 2.03125 -9.234375 2.6875 -9.234375 C 3.390625 -9.234375 3.9375 -9.796875 3.9375 -10.46875 Z M 3.9375 -10.46875 "/>
</g>
<g id="conditional_independence_glyph-0-3">
<path d="M 4.921875 0 L 4.921875 -0.734375 L 3.734375 -0.734375 L 3.734375 -11.953125 L 0.75 -11.8125 L 0.75 -11.078125 C 1.828125 -11.078125 1.953125 -11.078125 1.953125 -10.40625 L 1.953125 -0.734375 L 0.75 -0.734375 L 0.75 0 C 1.15625 -0.03125 2.375 -0.03125 2.84375 -0.03125 C 3.3125 -0.03125 4.53125 -0.03125 4.921875 0 Z M 4.921875 0 "/>
</g>
<g id="conditional_independence_glyph-0-4">
<path d="M 5.375 -3.03125 L 5.375 -4.609375 L 0.203125 -4.609375 L 0.203125 -3.03125 Z M 5.375 -3.03125 "/>
</g>
<g id="conditional_independence_glyph-0-5">
<path d="M 6.4375 -2.140625 L 6.4375 -3.046875 L 5.71875 -3.046875 L 5.71875 -2.15625 C 5.71875 -1.015625 5.203125 -0.515625 4.671875 -0.515625 C 3.640625 -0.515625 3.640625 -1.671875 3.640625 -2.0625 L 3.640625 -6.90625 L 6.109375 -6.90625 L 6.109375 -7.640625 L 3.640625 -7.640625 L 3.640625 -10.9375 L 2.90625 -10.9375 C 2.890625 -9.234375 2.0625 -7.53125 0.359375 -7.46875 L 0.359375 -6.90625 L 1.75 -6.90625 L 1.75 -2.125 C 1.75 -0.296875 3.171875 0.109375 4.40625 0.109375 C 5.6875 0.109375 6.4375 -0.859375 6.4375 -2.140625 Z M 6.4375 -2.140625 "/>
</g>
<g id="conditional_independence_glyph-0-6">
<path d="M 9.125 -3.765625 C 9.125 -6.09375 7.546875 -7.796875 4.84375 -7.796875 C 2.03125 -7.796875 0.53125 -6.015625 0.53125 -3.765625 C 0.53125 -1.515625 2.125 0.109375 4.828125 0.109375 C 7.625 0.109375 9.125 -1.59375 9.125 -3.765625 Z M 7.0625 -3.9375 C 7.0625 -2.515625 7.0625 -0.515625 4.84375 -0.515625 C 2.59375 -0.515625 2.59375 -2.53125 2.59375 -3.9375 C 2.59375 -4.75 2.59375 -5.609375 2.921875 -6.234375 C 3.3125 -6.921875 4.078125 -7.234375 4.828125 -7.234375 C 5.796875 -7.234375 6.421875 -6.765625 6.71875 -6.28125 C 7.0625 -5.671875 7.0625 -4.765625 7.0625 -3.9375 Z M 7.0625 -3.9375 "/>
</g>
<g id="conditional_independence_glyph-0-7">
<path d="M 10.328125 0 L 10.328125 -0.734375 L 9.140625 -0.734375 L 9.140625 -5.265625 C 9.140625 -6.90625 8.4375 -7.75 6.546875 -7.75 C 5.296875 -7.75 4.234375 -7.140625 3.65625 -5.859375 L 3.640625 -5.859375 L 3.640625 -7.75 L 0.71875 -7.609375 L 0.71875 -6.875 C 1.796875 -6.875 1.90625 -6.875 1.90625 -6.203125 L 1.90625 -0.734375 L 0.71875 -0.734375 L 0.71875 0 C 1.125 -0.03125 2.359375 -0.03125 2.84375 -0.03125 C 3.328125 -0.03125 4.578125 -0.03125 4.96875 0 L 4.96875 -0.734375 L 3.78125 -0.734375 L 3.78125 -4.40625 C 3.78125 -6.265625 5.171875 -7.1875 6.265625 -7.1875 C 6.90625 -7.1875 7.265625 -6.765625 7.265625 -5.453125 L 7.265625 -0.734375 L 6.078125 -0.734375 L 6.078125 0 C 6.46875 -0.03125 7.71875 -0.03125 8.203125 -0.03125 C 8.671875 -0.03125 9.9375 -0.03125 10.328125 0 Z M 10.328125 0 "/>
</g>
<g id="conditional_independence_glyph-0-8">
<path d="M 10.140625 0 L 10.140625 -0.734375 C 9.078125 -0.734375 8.953125 -0.734375 8.953125 -1.40625 L 8.953125 -11.953125 L 5.96875 -11.8125 L 5.96875 -11.078125 C 7.046875 -11.078125 7.15625 -11.078125 7.15625 -10.40625 L 7.15625 -6.921875 C 6.78125 -7.25 6.03125 -7.75 4.84375 -7.75 C 2.390625 -7.75 0.65625 -6.234375 0.65625 -3.828125 C 0.65625 -1.359375 2.359375 0.109375 4.65625 0.109375 C 5.59375 0.109375 6.40625 -0.21875 7.078125 -0.796875 L 7.078125 0.109375 Z M 7.078125 -1.734375 C 6.359375 -0.6875 5.46875 -0.46875 4.859375 -0.46875 C 2.71875 -0.46875 2.71875 -2.65625 2.71875 -3.78125 C 2.71875 -4.59375 2.71875 -5.453125 3.09375 -6.109375 C 3.640625 -7.078125 4.65625 -7.1875 5.046875 -7.1875 C 5.75 -7.1875 6.515625 -6.875 7.078125 -6.109375 Z M 7.078125 -1.734375 "/>
</g>
<g id="conditional_independence_glyph-0-9">
<path d="M 8.28125 -2.015625 C 8.28125 -2.265625 8.03125 -2.265625 7.921875 -2.265625 C 7.640625 -2.265625 7.625 -2.21875 7.53125 -2 C 7.078125 -0.875 5.9375 -0.515625 5.109375 -0.515625 C 2.625 -0.515625 2.59375 -2.84375 2.59375 -3.8125 L 7.78125 -3.8125 C 8.171875 -3.8125 8.28125 -3.8125 8.28125 -4.234375 C 8.28125 -4.75 8.15625 -6.046875 7.375 -6.859375 C 6.640625 -7.578125 5.6875 -7.796875 4.6875 -7.796875 C 2 -7.796875 0.53125 -6.046875 0.53125 -3.875 C 0.53125 -1.46875 2.3125 0.109375 4.90625 0.109375 C 7.5 0.109375 8.28125 -1.71875 8.28125 -2.015625 Z M 6.703125 -4.3125 L 2.59375 -4.3125 C 2.640625 -5.015625 2.65625 -5.6875 3.015625 -6.296875 C 3.34375 -6.859375 3.9375 -7.234375 4.6875 -7.234375 C 6.53125 -7.234375 6.6875 -5.171875 6.703125 -4.3125 Z M 6.703125 -4.3125 "/>
</g>
<g id="conditional_independence_glyph-0-10">
<path d="M 6.96875 -2.390625 C 6.96875 -3.21875 6.53125 -3.78125 6.1875 -4.09375 C 5.46875 -4.6875 4.890625 -4.78125 3.953125 -4.953125 C 2.859375 -5.140625 1.828125 -5.34375 1.828125 -6.171875 C 1.828125 -7.28125 3.359375 -7.28125 3.71875 -7.28125 C 5.625 -7.28125 5.734375 -6.078125 5.765625 -5.640625 C 5.78125 -5.421875 5.921875 -5.421875 6.125 -5.421875 C 6.484375 -5.421875 6.484375 -5.46875 6.484375 -5.875 L 6.484375 -7.359375 C 6.484375 -7.671875 6.484375 -7.796875 6.234375 -7.796875 C 6.125 -7.796875 6.09375 -7.796875 5.84375 -7.640625 C 5.765625 -7.59375 5.578125 -7.46875 5.5 -7.421875 C 5.015625 -7.703125 4.375 -7.796875 3.75 -7.796875 C 3.234375 -7.796875 0.65625 -7.796875 0.65625 -5.5625 C 0.65625 -3.75 2.796875 -3.375 3.328125 -3.28125 C 3.78125 -3.203125 4.359375 -3.09375 4.421875 -3.09375 C 5.109375 -2.9375 5.796875 -2.515625 5.796875 -1.796875 C 5.796875 -0.46875 4.234375 -0.46875 3.875 -0.46875 C 3 -0.46875 1.90625 -0.734375 1.421875 -2.40625 C 1.328125 -2.75 1.3125 -2.765625 1.015625 -2.765625 C 0.65625 -2.765625 0.65625 -2.71875 0.65625 -2.328125 L 0.65625 -0.34375 C 0.65625 -0.015625 0.65625 0.109375 0.90625 0.109375 C 1.03125 0.109375 1.0625 0.109375 1.40625 -0.171875 L 1.859375 -0.5 C 2.640625 0.109375 3.5625 0.109375 3.875 0.109375 C 4.828125 0.109375 6.96875 -0.109375 6.96875 -2.390625 Z M 6.96875 -2.390625 "/>
</g>
<g id="conditional_independence_glyph-0-11">
<path d="M 14.484375 0 L 14.484375 -0.734375 L 12.65625 -0.734375 L 12.65625 -11.078125 L 14.484375 -11.078125 L 14.484375 -11.8125 C 13.984375 -11.78125 12.140625 -11.78125 11.515625 -11.78125 C 10.90625 -11.78125 9.0625 -11.78125 8.5625 -11.8125 L 8.5625 -11.078125 L 10.390625 -11.078125 L 10.390625 -6.515625 L 4.75 -6.515625 L 4.75 -11.078125 L 6.578125 -11.078125 L 6.578125 -11.8125 C 6.078125 -11.78125 4.234375 -11.78125 3.609375 -11.78125 C 3 -11.78125 1.15625 -11.78125 0.65625 -11.8125 L 0.65625 -11.078125 L 2.484375 -11.078125 L 2.484375 -0.734375 L 0.65625 -0.734375 L 0.65625 0 C 1.15625 -0.03125 3 -0.03125 3.609375 -0.03125 C 4.234375 -0.03125 6.078125 -0.03125 6.578125 0 L 6.578125 -0.734375 L 4.75 -0.734375 L 4.75 -5.765625 L 10.390625 -5.765625 L 10.390625 -0.734375 L 8.5625 -0.734375 L 8.5625 0 C 9.0625 -0.03125 10.90625 -0.03125 11.515625 -0.03125 C 12.140625 -0.03125 13.984375 -0.03125 14.484375 0 Z M 14.484375 0 "/>
</g>
<g id="conditional_independence_glyph-0-12">
<path d="M 10.328125 0 L 10.328125 -0.734375 L 9.140625 -0.734375 L 9.140625 -5.265625 C 9.140625 -6.90625 8.4375 -7.75 6.546875 -7.75 C 4.796875 -7.75 3.953125 -6.53125 3.71875 -6.015625 L 3.703125 -6.015625 L 3.703125 -11.953125 L 0.71875 -11.8125 L 0.71875 -11.078125 C 1.796875 -11.078125 1.90625 -11.078125 1.90625 -10.40625 L 1.90625 -0.734375 L 0.71875 -0.734375 L 0.71875 0 C 1.125 -0.03125 2.359375 -0.03125 2.84375 -0.03125 C 3.328125 -0.03125 4.578125 -0.03125 4.96875 0 L 4.96875 -0.734375 L 3.78125 -0.734375 L 3.78125 -4.40625 C 3.78125 -6.265625 5.171875 -7.1875 6.265625 -7.1875 C 6.90625 -7.1875 7.265625 -6.765625 7.265625 -5.453125 L 7.265625 -0.734375 L 6.078125 -0.734375 L 6.078125 0 C 6.46875 -0.03125 7.71875 -0.03125 8.203125 -0.03125 C 8.671875 -0.03125 9.9375 -0.03125 10.328125 0 Z M 10.328125 0 "/>
</g>
<g id="conditional_independence_glyph-1-0">
<path d="M 7.203125 -1.875 C 7.203125 -1.984375 7.09375 -2.0625 7.03125 -2.0625 C 6.96875 -2.0625 6.953125 -2.046875 6.796875 -1.890625 C 5.703125 -0.4375 4.0625 -0.171875 3.40625 -0.171875 C 2.21875 -0.171875 1.84375 -1.203125 1.84375 -2.0625 C 1.84375 -2.671875 2.140625 -4.34375 2.75 -5.515625 C 3.203125 -6.3125 4.125 -7.25 5.21875 -7.25 C 5.4375 -7.25 6.390625 -7.21875 6.734375 -6.46875 C 6.40625 -6.46875 6.25 -6.46875 6.015625 -6.265625 C 5.90625 -6.1875 5.71875 -5.921875 5.71875 -5.640625 C 5.71875 -5.296875 5.96875 -5.09375 6.296875 -5.09375 C 6.71875 -5.09375 7.1875 -5.4375 7.1875 -6.125 C 7.1875 -6.953125 6.390625 -7.59375 5.203125 -7.59375 C 2.9375 -7.59375 0.6875 -5.125 0.6875 -2.6875 C 0.6875 -1.1875 1.625 0.171875 3.375 0.171875 C 5.71875 0.171875 7.203125 -1.65625 7.203125 -1.875 Z M 7.203125 -1.875 "/>
</g>
<g id="conditional_independence_glyph-1-1">
<path d="M 5.1875 -2.046875 C 5.09375 -1.75 5.09375 -1.71875 4.859375 -1.390625 C 4.484375 -0.90625 3.71875 -0.171875 2.90625 -0.171875 C 2.203125 -0.171875 1.8125 -0.8125 1.8125 -1.828125 C 1.8125 -2.765625 2.34375 -4.703125 2.671875 -5.421875 C 3.25 -6.625 4.0625 -7.25 4.734375 -7.25 C 5.875 -7.25 6.09375 -5.84375 6.09375 -5.703125 C 6.09375 -5.703125 6.046875 -5.453125 6.03125 -5.421875 Z M 8.34375 -2.46875 C 8.34375 -2.546875 8.28125 -2.625 8.171875 -2.625 C 8.03125 -2.625 8 -2.53125 7.9375 -2.265625 C 7.671875 -1.25 7.359375 -0.171875 6.640625 -0.171875 C 6.140625 -0.171875 6.109375 -0.625 6.109375 -0.96875 C 6.109375 -1.359375 6.171875 -1.546875 6.3125 -2.21875 L 6.65625 -3.53125 C 7.296875 -6.109375 7.453125 -6.734375 7.453125 -6.828125 C 7.453125 -7.078125 7.265625 -7.265625 7.015625 -7.265625 C 6.453125 -7.265625 6.3125 -6.65625 6.28125 -6.453125 C 6.09375 -6.90625 5.625 -7.59375 4.734375 -7.59375 C 2.796875 -7.59375 0.6875 -5.078125 0.6875 -2.53125 C 0.6875 -0.828125 1.6875 0.171875 2.859375 0.171875 C 3.8125 0.171875 4.609375 -0.5625 5.09375 -1.140625 C 5.265625 -0.125 6.078125 0.171875 6.59375 0.171875 C 7.109375 0.171875 7.53125 -0.140625 7.828125 -0.75 C 8.109375 -1.34375 8.34375 -2.390625 8.34375 -2.46875 Z M 8.34375 -2.46875 "/>
</g>
<g id="conditional_independence_glyph-1-2">
<path d="M 6.9375 -4.890625 C 6.9375 -6.46875 6.046875 -7.59375 4.75 -7.59375 C 3.859375 -7.59375 3.046875 -6.859375 2.71875 -6.515625 L 3.984375 -11.515625 C 4 -11.59375 4.03125 -11.6875 4.03125 -11.78125 C 4.03125 -11.953125 3.828125 -11.953125 3.828125 -11.953125 L 2.875 -11.859375 C 2.578125 -11.84375 2.328125 -11.8125 2.015625 -11.796875 C 1.59375 -11.765625 1.484375 -11.75 1.484375 -11.4375 C 1.484375 -11.265625 1.65625 -11.265625 1.828125 -11.265625 C 2.703125 -11.265625 2.703125 -11.109375 2.703125 -10.9375 C 2.703125 -10.8125 2.5625 -10.3125 2.5 -10 L 2.078125 -8.34375 L 0.859375 -3.4375 C 0.78125 -3.015625 0.78125 -2.71875 0.78125 -2.5 C 0.78125 -0.734375 1.75 0.171875 2.875 0.171875 C 4.875 0.171875 6.9375 -2.390625 6.9375 -4.890625 Z M 4.90625 -1.921875 C 4.484375 -1 3.6875 -0.171875 2.890625 -0.171875 C 2.34375 -0.171875 1.734375 -0.578125 1.734375 -1.921875 C 1.734375 -2.5 1.796875 -2.828125 2.09375 -4.03125 L 2.5 -5.578125 C 2.53125 -5.71875 3.546875 -7.25 4.71875 -7.25 C 5.46875 -7.25 5.8125 -6.484375 5.8125 -5.59375 C 5.8125 -4.765625 5.34375 -2.828125 4.90625 -1.921875 Z M 4.90625 -1.921875 "/>
</g>
</g>
</defs>
<g fill="rgb(100%, 0%, 0%)" fill-opacity="1">
<use xlink:href="#conditional_independence_glyph-0-0" x="20.025" y="27.045"/>
</g>
<g fill="rgb(100%, 0%, 0%)" fill-opacity="1">
<use xlink:href="#conditional_independence_glyph-0-1" x="31.876081" y="27.045"/>
<use xlink:href="#conditional_independence_glyph-0-2" x="41.291184" y="27.045"/>
<use xlink:href="#conditional_independence_glyph-0-3" x="46.670996" y="27.045"/>
<use xlink:href="#conditional_independence_glyph-0-4" x="52.050809" y="27.045"/>
<use xlink:href="#conditional_independence_glyph-0-5" x="58.506584" y="27.045"/>
<use xlink:href="#conditional_independence_glyph-0-6" x="66.038321" y="27.045"/>
<use xlink:href="#conditional_independence_glyph-0-4" x="75.721984" y="27.045"/>
<use xlink:href="#conditional_independence_glyph-0-5" x="82.177759" y="27.045"/>
<use xlink:href="#conditional_independence_glyph-0-1" x="89.709496" y="27.045"/>
<use xlink:href="#conditional_independence_glyph-0-2" x="99.124598" y="27.045"/>
<use xlink:href="#conditional_independence_glyph-0-3" x="104.504411" y="27.045"/>
</g>
<g fill="rgb(100%, 0%, 0%)" fill-opacity="1">
<use xlink:href="#conditional_independence_glyph-0-7" x="116.374429" y="27.045"/>
<use xlink:href="#conditional_independence_glyph-0-6" x="127.134054" y="27.045"/>
</g>
<g fill="rgb(100%, 0%, 0%)" fill-opacity="1">
<use xlink:href="#conditional_independence_glyph-0-8" x="137.351394" y="27.045"/>
<use xlink:href="#conditional_independence_glyph-0-9" x="148.111019" y="27.045"/>
<use xlink:href="#conditional_independence_glyph-0-10" x="156.947684" y="27.045"/>
</g>
<g fill="rgb(100%, 0%, 0%)" fill-opacity="1">
<use xlink:href="#conditional_independence_glyph-0-11" x="232.624" y="27.045"/>
<use xlink:href="#conditional_independence_glyph-0-9" x="247.766666" y="27.045"/>
<use xlink:href="#conditional_independence_glyph-0-1" x="256.603331" y="27.045"/>
<use xlink:href="#conditional_independence_glyph-0-8" x="266.018433" y="27.045"/>
<use xlink:href="#conditional_independence_glyph-0-4" x="276.778058" y="27.045"/>
<use xlink:href="#conditional_independence_glyph-0-5" x="283.233833" y="27.045"/>
<use xlink:href="#conditional_independence_glyph-0-6" x="290.76557" y="27.045"/>
<use xlink:href="#conditional_independence_glyph-0-4" x="300.449233" y="27.045"/>
<use xlink:href="#conditional_independence_glyph-0-5" x="306.905008" y="27.045"/>
<use xlink:href="#conditional_independence_glyph-0-1" x="314.436745" y="27.045"/>
<use xlink:href="#conditional_independence_glyph-0-2" x="323.851848" y="27.045"/>
<use xlink:href="#conditional_independence_glyph-0-3" x="329.23166" y="27.045"/>
</g>
<g fill="rgb(100%, 0%, 0%)" fill-opacity="1">
<use xlink:href="#conditional_independence_glyph-0-7" x="341.084463" y="27.045"/>
<use xlink:href="#conditional_independence_glyph-0-6" x="351.844088" y="27.045"/>
</g>
<g fill="rgb(100%, 0%, 0%)" fill-opacity="1">
<use xlink:href="#conditional_independence_glyph-0-8" x="362.061428" y="27.045"/>
<use xlink:href="#conditional_independence_glyph-0-9" x="372.821053" y="27.045"/>
</g>
<g fill="rgb(100%, 0%, 0%)" fill-opacity="1">
<use xlink:href="#conditional_independence_glyph-0-10" x="381.674933" y="27.045"/>
</g>
<g fill="rgb(100%, 0%, 0%)" fill-opacity="1">
<use xlink:href="#conditional_independence_glyph-0-11" x="445.222" y="27.045"/>
<use xlink:href="#conditional_independence_glyph-0-9" x="460.364666" y="27.045"/>
<use xlink:href="#conditional_independence_glyph-0-1" x="469.201331" y="27.045"/>
<use xlink:href="#conditional_independence_glyph-0-8" x="478.616433" y="27.045"/>
<use xlink:href="#conditional_independence_glyph-0-4" x="489.376058" y="27.045"/>
<use xlink:href="#conditional_independence_glyph-0-5" x="495.831833" y="27.045"/>
<use xlink:href="#conditional_independence_glyph-0-6" x="503.36357" y="27.045"/>
<use xlink:href="#conditional_independence_glyph-0-4" x="513.047233" y="27.045"/>
<use xlink:href="#conditional_independence_glyph-0-12" x="519.503008" y="27.045"/>
<use xlink:href="#conditional_independence_glyph-0-9" x="530.262633" y="27.045"/>
<use xlink:href="#conditional_independence_glyph-0-1" x="539.099298" y="27.045"/>
<use xlink:href="#conditional_independence_glyph-0-8" x="548.5144" y="27.045"/>
</g>
<g fill="rgb(100%, 0%, 0%)" fill-opacity="1">
<use xlink:href="#conditional_independence_glyph-0-7" x="565.7298" y="27.045"/>
<use xlink:href="#conditional_independence_glyph-0-6" x="576.489425" y="27.045"/>
</g>
<g fill="rgb(100%, 0%, 0%)" fill-opacity="1">
<use xlink:href="#conditional_independence_glyph-0-8" x="586.706765" y="27.045"/>
<use xlink:href="#conditional_independence_glyph-0-9" x="597.46639" y="27.045"/>
<use xlink:href="#conditional_independence_glyph-0-10" x="606.303055" y="27.045"/>
</g>
<path fill-rule="nonzero" fill="rgb(50%, 50%, 100%)" fill-opacity="1" stroke-width="0.79701" stroke-linecap="butt" stroke-linejoin="miter" stroke="var(--black)" stroke-opacity="1" stroke-miterlimit="10" d="M 97.260406 -39.765781 C 97.260406 -28.023594 87.740875 -18.507969 75.998688 -18.507969 C 64.2565 -18.507969 54.740875 -28.023594 54.740875 -39.765781 C 54.740875 -51.507969 64.2565 -61.0275 75.998688 -61.0275 C 87.740875 -61.0275 97.260406 -51.507969 97.260406 -39.765781 Z M 97.260406 -39.765781 " transform="matrix(1, 0, 0, -1, 16.306, 21.16)"/>
<g fill="var(--black)" fill-opacity="1">
<use xlink:href="#conditional_independence_glyph-1-0" x="88.677" y="64.633"/>
</g>
<path fill="none" stroke-width="0.79701" stroke-linecap="butt" stroke-linejoin="miter" stroke="var(--black)" stroke-opacity="1" stroke-miterlimit="10" d="M 38.569 -98.457188 C 38.569 -86.718906 29.049469 -77.199375 17.307281 -77.199375 C 5.565094 -77.199375 -3.954438 -86.718906 -3.954438 -98.457188 C -3.954438 -110.199375 5.565094 -119.718906 17.307281 -119.718906 C 29.049469 -119.718906 38.569 -110.199375 38.569 -98.457188 Z M 38.569 -98.457188 " transform="matrix(1, 0, 0, -1, 16.306, 21.16)"/>
<g fill="var(--black)" fill-opacity="1">
<use xlink:href="#conditional_independence_glyph-1-1" x="29.189" y="123.324"/>
</g>
<path fill="none" stroke-width="0.79701" stroke-linecap="butt" stroke-linejoin="miter" stroke="var(--black)" stroke-opacity="1" stroke-miterlimit="10" d="M 163.967437 -106.476719 C 163.967437 -94.734531 154.451812 -85.215 142.709625 -85.215 C 130.967437 -85.215 121.447906 -94.734531 121.447906 -106.476719 C 121.447906 -118.218906 130.967437 -127.738438 142.709625 -127.738438 C 154.451812 -127.738438 163.967437 -118.218906 163.967437 -106.476719 Z M 163.967437 -106.476719 " transform="matrix(1, 0, 0, -1, 16.306, 21.16)"/>
<g fill="var(--black)" fill-opacity="1">
<use xlink:href="#conditional_independence_glyph-1-2" x="155.43" y="133.613"/>
</g>
<path fill="none" stroke-width="0.79701" stroke-linecap="butt" stroke-linejoin="miter" stroke="var(--black)" stroke-opacity="1" stroke-miterlimit="10" d="M 60.682281 -55.082188 L 34.455719 -81.312656 " transform="matrix(1, 0, 0, -1, 16.306, 21.16)"/>
<path fill-rule="nonzero" fill="var(--black)" fill-opacity="1" d="M 48.929688 104.304688 L 53.324219 102.839844 L 50.761719 102.472656 L 50.394531 99.90625 "/>
<path fill="none" stroke-width="0.79701" stroke-linecap="butt" stroke-linejoin="miter" stroke="var(--black)" stroke-opacity="1" stroke-miterlimit="10" d="M 91.315094 -55.082188 L 125.561188 -89.328281 " transform="matrix(1, 0, 0, -1, 16.306, 21.16)"/>
<path fill-rule="nonzero" fill="var(--black)" fill-opacity="1" d="M 143.699219 112.320312 L 142.234375 107.925781 L 141.867188 110.488281 L 139.304688 110.855469 "/>
<path fill-rule="nonzero" fill="rgb(50%, 50%, 100%)" fill-opacity="1" stroke-width="0.79701" stroke-linecap="butt" stroke-linejoin="miter" stroke="var(--black)" stroke-opacity="1" stroke-miterlimit="10" d="M 315.920563 -39.765781 C 315.920563 -28.023594 306.404938 -18.507969 294.66275 -18.507969 C 282.920563 -18.507969 273.401031 -28.023594 273.401031 -39.765781 C 273.401031 -51.507969 282.920563 -61.0275 294.66275 -61.0275 C 306.404938 -61.0275 315.920563 -51.507969 315.920563 -39.765781 Z M 315.920563 -39.765781 " transform="matrix(1, 0, 0, -1, 16.306, 21.16)"/>
<g fill="var(--black)" fill-opacity="1">
<use xlink:href="#conditional_independence_glyph-1-0" x="307.337" y="64.633"/>
</g>
<path fill="none" stroke-width="0.79701" stroke-linecap="butt" stroke-linejoin="miter" stroke="var(--black)" stroke-opacity="1" stroke-miterlimit="10" d="M 232.920562 -39.765781 C 232.920562 -28.023594 223.401031 -18.507969 211.658844 -18.507969 C 199.916656 -18.507969 190.401031 -28.023594 190.401031 -39.765781 C 190.401031 -51.507969 199.916656 -61.0275 211.658844 -61.0275 C 223.401031 -61.0275 232.920562 -51.507969 232.920562 -39.765781 Z M 232.920562 -39.765781 " transform="matrix(1, 0, 0, -1, 16.306, 21.16)"/>
<g fill="var(--black)" fill-opacity="1">
<use xlink:href="#conditional_independence_glyph-1-1" x="223.539" y="64.633"/>
</g>
<path fill="none" stroke-width="0.79701" stroke-linecap="butt" stroke-linejoin="miter" stroke="var(--black)" stroke-opacity="1" stroke-miterlimit="10" d="M 410.264313 -39.765781 C 410.264313 -28.023594 400.744781 -18.507969 389.002594 -18.507969 C 377.260406 -18.507969 367.744781 -28.023594 367.744781 -39.765781 C 367.744781 -51.507969 377.260406 -61.0275 389.002594 -61.0275 C 400.744781 -61.0275 410.264313 -51.507969 410.264313 -39.765781 Z M 410.264313 -39.765781 " transform="matrix(1, 0, 0, -1, 16.306, 21.16)"/>
<g fill="var(--black)" fill-opacity="1">
<use xlink:href="#conditional_independence_glyph-1-2" x="401.722" y="66.904"/>
</g>
<path fill="none" stroke-width="0.79701" stroke-linecap="butt" stroke-linejoin="miter" stroke="var(--black)" stroke-opacity="1" stroke-miterlimit="10" d="M 233.319 -39.765781 L 270.41275 -39.765781 " transform="matrix(1, 0, 0, -1, 16.306, 21.16)"/>
<path fill-rule="nonzero" fill="var(--black)" fill-opacity="1" d="M 289.308594 60.925781 L 285.164062 58.855469 L 286.71875 60.925781 L 285.164062 63 "/>
<path fill="none" stroke-width="0.79701" stroke-linecap="butt" stroke-linejoin="miter" stroke="var(--black)" stroke-opacity="1" stroke-miterlimit="10" d="M 316.319 -39.765781 L 364.7565 -39.765781 " transform="matrix(1, 0, 0, -1, 16.306, 21.16)"/>
<path fill-rule="nonzero" fill="var(--black)" fill-opacity="1" d="M 383.652344 60.925781 L 379.507812 58.855469 L 381.0625 60.925781 L 379.507812 63 "/>
<path fill="none" stroke-width="0.79701" stroke-linecap="butt" stroke-linejoin="miter" stroke="var(--black)" stroke-opacity="1" stroke-miterlimit="10" d="M 534.545562 -102.129063 C 534.545562 -90.386875 525.026031 -80.87125 513.283844 -80.87125 C 501.541656 -80.87125 492.026031 -90.386875 492.026031 -102.129063 C 492.026031 -113.87125 501.541656 -123.390781 513.283844 -123.390781 C 525.026031 -123.390781 534.545562 -113.87125 534.545562 -102.129063 Z M 534.545562 -102.129063 " transform="matrix(1, 0, 0, -1, 16.306, 21.16)"/>
<g fill="var(--black)" fill-opacity="1">
<use xlink:href="#conditional_independence_glyph-1-0" x="525.957" y="126.995"/>
</g>
<path fill="none" stroke-width="0.79701" stroke-linecap="butt" stroke-linejoin="miter" stroke="var(--black)" stroke-opacity="1" stroke-miterlimit="10" d="M 475.854156 -43.437656 C 475.854156 -31.695469 466.334625 -22.179844 454.592438 -22.179844 C 442.85025 -22.179844 433.334625 -31.695469 433.334625 -43.437656 C 433.334625 -55.179844 442.85025 -64.699375 454.592438 -64.699375 C 466.334625 -64.699375 475.854156 -55.179844 475.854156 -43.437656 Z M 475.854156 -43.437656 " transform="matrix(1, 0, 0, -1, 16.306, 21.16)"/>
<g fill="var(--black)" fill-opacity="1">
<use xlink:href="#conditional_independence_glyph-1-1" x="466.469" y="68.304"/>
</g>
<path fill="none" stroke-width="0.79701" stroke-linecap="butt" stroke-linejoin="miter" stroke="var(--black)" stroke-opacity="1" stroke-miterlimit="10" d="M 601.2565 -35.422031 C 601.2565 -23.679844 591.736969 -14.160313 579.994781 -14.160313 C 568.252594 -14.160313 558.733062 -23.679844 558.733062 -35.422031 C 558.733062 -47.160313 568.252594 -56.679844 579.994781 -56.679844 C 591.736969 -56.679844 601.2565 -47.160313 601.2565 -35.422031 Z M 601.2565 -35.422031 " transform="matrix(1, 0, 0, -1, 16.306, 21.16)"/>
<g fill="var(--black)" fill-opacity="1">
<use xlink:href="#conditional_independence_glyph-1-2" x="592.71" y="62.558"/>
</g>
<path fill="none" stroke-width="0.79701" stroke-linecap="butt" stroke-linejoin="miter" stroke="var(--black)" stroke-opacity="1" stroke-miterlimit="10" d="M 469.908844 -58.754063 L 496.139313 -84.984531 " transform="matrix(1, 0, 0, -1, 16.306, 21.16)"/>
<path fill-rule="nonzero" fill="var(--black)" fill-opacity="1" d="M 514.277344 107.976562 L 512.8125 103.578125 L 512.445312 106.144531 L 509.878906 106.507812 "/>
<path fill="none" stroke-width="0.79701" stroke-linecap="butt" stroke-linejoin="miter" stroke="var(--black)" stroke-opacity="1" stroke-miterlimit="10" d="M 564.678375 -50.734531 L 530.432281 -84.984531 " transform="matrix(1, 0, 0, -1, 16.306, 21.16)"/>
<path fill-rule="nonzero" fill="var(--black)" fill-opacity="1" d="M 544.90625 107.976562 L 549.300781 106.507812 L 546.738281 106.144531 L 546.371094 103.578125 "/>
</svg>
