<?xml version="1.0" encoding="utf-8" standalone="no"?>
<!DOCTYPE svg PUBLIC "-//W3C//DTD SVG 1.1//EN"
  "http://www.w3.org/Graphics/SVG/1.1/DTD/svg11.dtd">
<svg xmlns:xlink="http://www.w3.org/1999/xlink" width="371.52pt" height="138.4pt" viewBox="0 0 371.52 138.4" xmlns="http://www.w3.org/2000/svg" version="1.1">
<style>/* === RDF autogenerated palette === */
:root {
    --axis-color: #000;
    --grid-stroke: rgba(0,0,0,0.2);
    --plot3d-stroke: rgba(0,0,0,0.3);
    --plot3d-grid: rgba(0,0,0,0.2);
}
@media (prefers-color-scheme: dark) {
    :root {
        --axis-color: #fff;
        --grid-stroke: rgba(255,255,255,0.2);
        --plot3d-stroke: rgba(255,255,255,0.3);
        --plot3d-grid: rgba(255,255,255,0.2);
    }
}

/* Light‑mode palette */
.c1 { fill:#FF0001; stroke:#FF0001; }.c2 { fill:#00FF02; stroke:#00FF02; }.c3 { fill:#0000FF; stroke:#0000FF; }.c4 { fill:#FF00FF; stroke:#FF00FF; }.c5 { fill:#00FFFF; stroke:#00FFFF; }.c6 { fill:#FFFF00; stroke:#FFFF00; }.c7 { fill:#FF8000; stroke:#FF8000; }.c8 { fill:#8000FF; stroke:#8000FF; }.octonary { fill:#bcbd22; stroke:#bcbd22; }.primary { fill:#d62728; stroke:#d62728; }.quaternary { fill:#9467bd; stroke:#9467bd; }.quinary { fill:#8c564b; stroke:#8c564b; }.secondary { fill:#2ca02c; stroke:#2ca02c; }.senary { fill:#e377c2; stroke:#e377c2; }.septenary { fill:#7f7f7f; stroke:#7f7f7f; }.tertiary { fill:#1f77b4; stroke:#1f77b4; }

/* Dark overrides */
@media (prefers-color-scheme: dark) {
    .c1 { fill:#FF0001; stroke:#FF0001; }.c2 { fill:#00FF02; stroke:#00FF02; }.c3 { fill:#0000FF; stroke:#0000FF; }.c4 { fill:#FF00FF; stroke:#FF00FF; }.c5 { fill:#00FFFF; stroke:#00FFFF; }.c6 { fill:#FFFF00; stroke:#FFFF00; }.c7 { fill:#FF8000; stroke:#FF8000; }.c8 { fill:#8000FF; stroke:#8000FF; }.octonary { fill:#E6DB74; stroke:#E6DB74; }.primary { fill:#FF4A98; stroke:#FF4A98; }.quaternary { fill:#B4A0FF; stroke:#B4A0FF; }.quinary { fill:#FFB86B; stroke:#FFB86B; }.secondary { fill:#0AFAFA; stroke:#0AFAFA; }.senary { fill:#FF79C6; stroke:#FF79C6; }.septenary { fill:#CCCCCC; stroke:#CCCCCC; }.tertiary { fill:#7F83FF; stroke:#7F83FF; }
}/* Axis, ticks, legend */
text, .text { fill: var(--axis-color) !important; stroke: none !important; }
.axis line, .axis path,
.tick line, .tick path,
path.domain,
line.grid { stroke: var(--axis-color) !important; }
.legend text { fill: var(--axis-color) !important; }

/* Patch paths that relied on currentColor */
.patch path[style*="stroke: currentColor"] { stroke: var(--axis-color) !important; }

/* Legend background (first child of legend group) */
g.legend > g:first-child > path:first-child {
    fill: rgba(255,255,255,0.8) !important;
    stroke: rgba(0,0,0,0.1) !important;
}
@media (prefers-color-scheme: dark) {
    g.legend > g:first-child > path:first-child {
        fill: rgba(26,26,26,0.8) !important;
        stroke: rgba(255,255,255,0.1) !important;
    }
}

/* 3‑D specific rules */
.plot3d path, .plot3d polygon {
    stroke: var(--plot3d-stroke) !important;
}
.plot3d-grid line { stroke: var(--plot3d-grid) !important; }
.plot3d-surface path[style*="fill:"] {
    fill-opacity: 0.9 !important;
}
@media (prefers-color-scheme: dark) {
    .plot3d-surface path[style*="fill:"] {
        fill-opacity: 0.95 !important;
        filter: saturate(1.2) !important;
    }
}</style>

 <metadata>
  <rdf:RDF xmlns:dc="http://purl.org/dc/elements/1.1/" xmlns:cc="http://creativecommons.org/ns#" xmlns:rdf="http://www.w3.org/1999/02/22-rdf-syntax-ns#">
   <cc:Work>
    <dc:type rdf:resource="http://purl.org/dc/dcmitype/StillImage"/>
    <dc:date>2025-09-03T18:12:23.561922</dc:date>
    <dc:format>image/svg+xml</dc:format>
    <dc:creator>
     <cc:Agent>
      <dc:title>Matplotlib v3.10.1, https://matplotlib.org/</dc:title>
     </cc:Agent>
    </dc:creator>
   </cc:Work>
  </rdf:RDF>
 </metadata>
 <defs>
  <style type="text/css">*{stroke-linejoin: round; stroke-linecap: butt}</style>
 </defs>
 <g id="figure_1">
  <g class="patch">
   <path d="M 0 138.4 
L 371.52 138.4 
L 371.52 0 
L 0 0 
L 0 138.4 
z
" style="fill: none"/>
  </g>
  <g id="axes_1">
   <g class="patch">
    <path d="M 7.2 131.2 
L 156 131.2 
L 156 7.2 
L 7.2 7.2 
L 7.2 131.2 
z
" style="fill: none"/>
   </g>
   <g class="patch">
    <path d="M 81.6 56.8 
L 134.208745 109.408745 
L 135.036811 108.567434 
L 135.851425 107.713091 
L 136.652382 106.845932 
L 137.439479 105.966173 
L 138.212519 105.074037 
L 138.971307 104.169749 
L 139.715652 103.253535 
L 140.445367 102.325627 
L 141.160268 101.386258 
L 141.860175 100.435665 
L 142.544912 99.474087 
L 143.214306 98.501766 
L 143.86819 97.518946 
L 144.506397 96.525876 
L 145.128768 95.522805 
L 145.735146 94.509986 
L 146.325379 93.487673 
L 146.899317 92.456125 
L 147.456816 91.4156 
L 147.997737 90.366361 
L 148.521942 89.308672 
L 149.029299 88.242799 
L 149.519682 87.16901 
L 149.992967 86.087576 
L 150.449033 84.998769 
L 150.887768 83.902864 
L 151.30906 82.800135 
L 151.712802 81.690861 
L 152.098895 80.575321 
L 152.467239 79.453795 
L 152.817743 78.326566 
L 153.150319 77.193919 
L 153.464881 76.056137 
L 153.761353 74.913508 
L 154.039658 73.766318 
L 154.299727 72.614858 
L 154.541494 71.459416 
L 154.764898 70.300283 
L 154.969884 69.137752 
L 155.156399 67.972115 
L 155.324397 66.803666 
L 155.473835 65.632698 
L 155.604675 64.459507 
L 155.716886 63.284387 
L 155.810437 62.107635 
L 155.885307 60.929547 
L 155.941476 59.750419 
L 155.97893 58.570549 
L 155.997659 57.390232 
L 155.997659 56.209768 
L 155.97893 55.029451 
L 155.941476 53.849581 
L 155.885307 52.670453 
L 155.810437 51.492365 
L 155.716886 50.315613 
L 155.604675 49.140493 
L 155.473835 47.967302 
L 155.324397 46.796334 
L 155.156399 45.627885 
L 154.969884 44.462248 
L 154.764898 43.299717 
L 154.541494 42.140584 
L 154.299727 40.985142 
L 154.039658 39.833682 
L 153.761353 38.686492 
L 153.464881 37.543863 
L 153.150319 36.406081 
L 152.817743 35.273434 
L 152.467239 34.146205 
L 152.098895 33.024679 
L 151.712802 31.909139 
L 151.30906 30.799865 
L 150.887768 29.697136 
L 150.449033 28.601231 
L 149.992967 27.512424 
L 149.519682 26.43099 
L 149.029299 25.357201 
L 148.521942 24.291328 
L 147.997737 23.233639 
L 147.456816 22.1844 
L 146.899317 21.143875 
L 146.325379 20.112327 
L 145.735146 19.090014 
L 145.128768 18.077195 
L 144.506397 17.074124 
L 143.86819 16.081054 
L 143.214306 15.098234 
L 142.544912 14.125913 
L 141.860175 13.164335 
L 141.160268 12.213742 
L 140.445367 11.274373 
L 139.715652 10.346465 
L 138.971307 9.430251 
L 138.212519 8.525963 
L 137.439479 7.633827 
L 136.652382 6.754068 
L 135.851425 5.886909 
L 135.036811 5.032566 
L 134.208745 4.191255 
z
" clip-path="url(#pc515e81c65)" style="fill: #8000ff; opacity: 0.3; stroke: #8000ff; stroke-width: 2; stroke-linejoin: miter"/>
   </g>
   <g class="axis"/>
   <g class="axis"/>
   <g id="line2d_1">
    <path d="M 81.6 56.8 
L 134.208745 109.408745 
" clip-path="url(#pc515e81c65)" style="fill: none; stroke: currentColor; stroke-width: 2; stroke-linecap: square"/>
   </g>
   <g id="line2d_2">
    <path d="M 81.6 56.8 
L 134.208745 4.191255 
" clip-path="url(#pc515e81c65)" style="fill: none; stroke: currentColor; stroke-width: 2; stroke-linecap: square"/>
   </g>
   <g id="line2d_3">
    <path d="M 81.6 56.8 
L 103.92 44.896 
" clip-path="url(#pc515e81c65)" style="fill: none; stroke-dasharray: 3.7,1.6; stroke-dashoffset: 0; stroke: #ff0000; stroke-opacity: 0.7"/>
   </g>
   <g id="line2d_4">
    <path d="M 81.6 56.8 
L 133.68 29.024 
" clip-path="url(#pc515e81c65)" style="fill: none; stroke-dasharray: 3.7,1.6; stroke-dashoffset: 0; stroke: #ff0000; stroke-opacity: 0.7"/>
   </g>
   <g id="text_1" class="text">
    <!-- $x$ -->
    <g transform="translate(121.28 34.48) scale(0.11 -0.11)">
     <defs>
      <path id="DejaVuSans-Oblique-78" d="M 3841 3500 
L 2234 1784 
L 3219 0 
L 2559 0 
L 1819 1388 
L 531 0 
L -166 0 
L 1556 1844 
L 641 3500 
L 1300 3500 
L 1972 2234 
L 3144 3500 
L 3841 3500 
z
" transform="scale(0.015625)"/>
     </defs>
     <use xlink:href="#DejaVuSans-Oblique-78" transform="translate(0 0.3125)"/>
    </g>
   </g>
   <g id="text_2" class="text">
    <!-- $0.6x$ -->
    <g style="fill: #ff0000" transform="translate(77.06 44.896) scale(0.1 -0.1)">
     <defs>
      <path id="DejaVuSans-30" d="M 2034 4250 
Q 1547 4250 1301 3770 
Q 1056 3291 1056 2328 
Q 1056 1369 1301 889 
Q 1547 409 2034 409 
Q 2525 409 2770 889 
Q 3016 1369 3016 2328 
Q 3016 3291 2770 3770 
Q 2525 4250 2034 4250 
z
M 2034 4750 
Q 2819 4750 3233 4129 
Q 3647 3509 3647 2328 
Q 3647 1150 3233 529 
Q 2819 -91 2034 -91 
Q 1250 -91 836 529 
Q 422 1150 422 2328 
Q 422 3509 836 4129 
Q 1250 4750 2034 4750 
z
" transform="scale(0.015625)"/>
      <path id="DejaVuSans-2e" d="M 684 794 
L 1344 794 
L 1344 0 
L 684 0 
L 684 794 
z
" transform="scale(0.015625)"/>
      <path id="DejaVuSans-36" d="M 2113 2584 
Q 1688 2584 1439 2293 
Q 1191 2003 1191 1497 
Q 1191 994 1439 701 
Q 1688 409 2113 409 
Q 2538 409 2786 701 
Q 3034 994 3034 1497 
Q 3034 2003 2786 2293 
Q 2538 2584 2113 2584 
z
M 3366 4563 
L 3366 3988 
Q 3128 4100 2886 4159 
Q 2644 4219 2406 4219 
Q 1781 4219 1451 3797 
Q 1122 3375 1075 2522 
Q 1259 2794 1537 2939 
Q 1816 3084 2150 3084 
Q 2853 3084 3261 2657 
Q 3669 2231 3669 1497 
Q 3669 778 3244 343 
Q 2819 -91 2113 -91 
Q 1303 -91 875 529 
Q 447 1150 447 2328 
Q 447 3434 972 4092 
Q 1497 4750 2381 4750 
Q 2619 4750 2861 4703 
Q 3103 4656 3366 4563 
z
" transform="scale(0.015625)"/>
     </defs>
     <use xlink:href="#DejaVuSans-30" transform="translate(0 0.78125)"/>
     <use xlink:href="#DejaVuSans-2e" transform="translate(63.623047 0.78125)"/>
     <use xlink:href="#DejaVuSans-36" transform="translate(95.410156 0.78125)"/>
     <use xlink:href="#DejaVuSans-Oblique-78" transform="translate(159.033203 0.78125)"/>
    </g>
   </g>
   <g id="text_3" class="text">
    <!-- $1.4x$ -->
    <g style="fill: #ff0000" transform="translate(136.16 29.024) scale(0.1 -0.1)">
     <defs>
      <path id="DejaVuSans-31" d="M 794 531 
L 1825 531 
L 1825 4091 
L 703 3866 
L 703 4441 
L 1819 4666 
L 2450 4666 
L 2450 531 
L 3481 531 
L 3481 0 
L 794 0 
L 794 531 
z
" transform="scale(0.015625)"/>
      <path id="DejaVuSans-34" d="M 2419 4116 
L 825 1625 
L 2419 1625 
L 2419 4116 
z
M 2253 4666 
L 3047 4666 
L 3047 1625 
L 3713 1625 
L 3713 1100 
L 3047 1100 
L 3047 0 
L 2419 0 
L 2419 1100 
L 313 1100 
L 313 1709 
L 2253 4666 
z
" transform="scale(0.015625)"/>
     </defs>
     <use xlink:href="#DejaVuSans-31" transform="translate(0 0.09375)"/>
     <use xlink:href="#DejaVuSans-2e" transform="translate(63.623047 0.09375)"/>
     <use xlink:href="#DejaVuSans-34" transform="translate(95.410156 0.09375)"/>
     <use xlink:href="#DejaVuSans-Oblique-78" transform="translate(159.033203 0.09375)"/>
    </g>
   </g>
   <g id="PathCollection_1">
    <defs>
     <path id="maf25b6b92c" d="M 0 2.236068 
C 0.593012 2.236068 1.161816 2.000462 1.581139 1.581139 
C 2.000462 1.161816 2.236068 0.593012 2.236068 0 
C 2.236068 -0.593012 2.000462 -1.161816 1.581139 -1.581139 
C 1.161816 -2.000462 0.593012 -2.236068 0 -2.236068 
C -0.593012 -2.236068 -1.161816 -2.000462 -1.581139 -1.581139 
C -2.000462 -1.161816 -2.236068 -0.593012 -2.236068 0 
C -2.236068 0.593012 -2.000462 1.161816 -1.581139 1.581139 
C -1.161816 2.000462 -0.593012 2.236068 0 2.236068 
z
" style="stroke: currentColor"/>
    </defs>
    <g clip-path="url(#pc515e81c65)">
     <use xlink:href="#maf25b6b92c" x="118.8" y="36.96" style="stroke: currentColor"/>
    </g>
   </g>
   <g id="PathCollection_2">
    <defs>
     <path id="m1801dae59a" d="M 0 2.236068 
C 0.593012 2.236068 1.161816 2.000462 1.581139 1.581139 
C 2.000462 1.161816 2.236068 0.593012 2.236068 0 
C 2.236068 -0.593012 2.000462 -1.161816 1.581139 -1.581139 
C 1.161816 -2.000462 0.593012 -2.236068 0 -2.236068 
C -0.593012 -2.236068 -1.161816 -2.000462 -1.581139 -1.581139 
C -2.000462 -1.161816 -2.236068 -0.593012 -2.236068 0 
C -2.236068 0.593012 -2.000462 1.161816 -1.581139 1.581139 
C -1.161816 2.000462 -0.593012 2.236068 0 2.236068 
z
" style="stroke: #ff0000; stroke-opacity: 0.7"/>
    </defs>
    <g clip-path="url(#pc515e81c65)">
     <use xlink:href="#m1801dae59a" x="103.92" y="44.896" style="fill: #ff0000; fill-opacity: 0.7; stroke: #ff0000; stroke-opacity: 0.7"/>
    </g>
   </g>
   <g id="PathCollection_3">
    <g clip-path="url(#pc515e81c65)">
     <use xlink:href="#m1801dae59a" x="133.68" y="29.024" style="fill: #ff0000; fill-opacity: 0.7; stroke: #ff0000; stroke-opacity: 0.7"/>
    </g>
   </g>
   <g id="PathCollection_4">
    <g clip-path="url(#pc515e81c65)">
     <use xlink:href="#maf25b6b92c" x="81.6" y="56.8" style="stroke: currentColor"/>
    </g>
   </g>
  </g>
  <g id="axes_2">
   <g class="patch">
    <path d="M 215.52 131.2 
L 364.32 131.2 
L 364.32 7.2 
L 215.52 7.2 
L 215.52 131.2 
z
" style="fill: none"/>
   </g>
   <g class="patch">
    <path d="M 289.92 56.8 
L 343.613575 25.8 
L 343.44887 25.516456 
L 343.282667 25.233787 
L 343.114972 24.952002 
L 342.945788 24.671107 
L 342.775122 24.391111 
L 342.602977 24.112021 
L 342.429358 23.833846 
L 342.25427 23.556593 
L 342.077719 23.280269 
L 341.899709 23.004884 
L 341.720244 22.730443 
L 341.539331 22.456956 
L 341.356974 22.184429 
L 341.173178 21.912871 
L 340.987948 21.642288 
L 340.80129 21.372689 
L 340.613208 21.104081 
L 340.423709 20.836472 
L 340.232797 20.569868 
L 340.040477 20.304278 
L 339.846756 20.039708 
L 339.651638 19.776167 
L 339.455129 19.513662 
L 339.257234 19.252199 
L 339.057959 18.991787 
L 338.85731 18.732433 
L 338.655292 18.474143 
L 338.45191 18.216925 
L 338.247172 17.960787 
L 338.041081 17.705735 
L 337.833644 17.451776 
L 337.624867 17.198918 
L 337.414755 16.947168 
L 337.203315 16.696533 
L 336.990553 16.447019 
L 336.776474 16.198634 
L 336.561084 15.951385 
L 336.344389 15.705279 
L 336.126396 15.460322 
L 335.90711 15.216521 
L 335.686538 14.973884 
L 335.464686 14.732416 
L 335.24156 14.492126 
L 335.017166 14.253018 
L 334.79151 14.015101 
L 334.5646 13.778381 
L 334.33644 13.542864 
L 334.107039 13.308557 
L 333.876401 13.075467 
L 333.644533 12.843599 
L 333.411443 12.612961 
L 333.177136 12.38356 
L 332.941619 12.1554 
L 332.704899 11.92849 
L 332.466982 11.702834 
L 332.227874 11.47844 
L 331.987584 11.255314 
L 331.746116 11.033462 
L 331.503479 10.81289 
L 331.259678 10.593604 
L 331.014721 10.375611 
L 330.768615 10.158916 
L 330.521366 9.943526 
L 330.272981 9.729447 
L 330.023467 9.516685 
L 329.772832 9.305245 
L 329.521082 9.095133 
L 329.268224 8.886356 
L 329.014265 8.678919 
L 328.759213 8.472828 
L 328.503075 8.26809 
L 328.245857 8.064708 
L 327.987567 7.86269 
L 327.728213 7.662041 
L 327.467801 7.462766 
L 327.206338 7.264871 
L 326.943833 7.068362 
L 326.680292 6.873244 
L 326.415722 6.679523 
L 326.150132 6.487203 
L 325.883528 6.296291 
L 325.615919 6.106792 
L 325.347311 5.91871 
L 325.077712 5.732052 
L 324.807129 5.546822 
L 324.535571 5.363026 
L 324.263044 5.180669 
L 323.989557 4.999756 
L 323.715116 4.820291 
L 323.439731 4.642281 
L 323.163407 4.46573 
L 322.886154 4.290642 
L 322.607979 4.117023 
L 322.328889 3.944878 
L 322.048893 3.774212 
L 321.767998 3.605028 
L 321.486213 3.437333 
L 321.203544 3.27113 
L 320.92 3.106425 
z
" clip-path="url(#p1d45ba7290)" style="fill: #8000ff; opacity: 0.4; stroke: #8000ff; stroke-width: 2; stroke-linejoin: miter"/>
   </g>
   <g class="patch">
    <path d="M 289.92 56.8 
L 320.92 110.493575 
L 321.203544 110.32887 
L 321.486213 110.162667 
L 321.767998 109.994972 
L 322.048893 109.825788 
L 322.328889 109.655122 
L 322.607979 109.482977 
L 322.886154 109.309358 
L 323.163407 109.13427 
L 323.439731 108.957719 
L 323.715116 108.779709 
L 323.989557 108.600244 
L 324.263044 108.419331 
L 324.535571 108.236974 
L 324.807129 108.053178 
L 325.077712 107.867948 
L 325.347311 107.68129 
L 325.615919 107.493208 
L 325.883528 107.303709 
L 326.150132 107.112797 
L 326.415722 106.920477 
L 326.680292 106.726756 
L 326.943833 106.531638 
L 327.206338 106.335129 
L 327.467801 106.137234 
L 327.728213 105.937959 
L 327.987567 105.73731 
L 328.245857 105.535292 
L 328.503075 105.33191 
L 328.759213 105.127172 
L 329.014265 104.921081 
L 329.268224 104.713644 
L 329.521082 104.504867 
L 329.772832 104.294755 
L 330.023467 104.083315 
L 330.272981 103.870553 
L 330.521366 103.656474 
L 330.768615 103.441084 
L 331.014721 103.224389 
L 331.259678 103.006396 
L 331.503479 102.78711 
L 331.746116 102.566538 
L 331.987584 102.344686 
L 332.227874 102.12156 
L 332.466982 101.897166 
L 332.704899 101.67151 
L 332.941619 101.4446 
L 333.177136 101.21644 
L 333.411443 100.987039 
L 333.644533 100.756401 
L 333.876401 100.524533 
L 334.107039 100.291443 
L 334.33644 100.057136 
L 334.5646 99.821619 
L 334.79151 99.584899 
L 335.017166 99.346982 
L 335.24156 99.107874 
L 335.464686 98.867584 
L 335.686538 98.626116 
L 335.90711 98.383479 
L 336.126396 98.139678 
L 336.344389 97.894721 
L 336.561084 97.648615 
L 336.776474 97.401366 
L 336.990553 97.152981 
L 337.203315 96.903467 
L 337.414755 96.652832 
L 337.624867 96.401082 
L 337.833644 96.148224 
L 338.041081 95.894265 
L 338.247172 95.639213 
L 338.45191 95.383075 
L 338.655292 95.125857 
L 338.85731 94.867567 
L 339.057959 94.608213 
L 339.257234 94.347801 
L 339.455129 94.086338 
L 339.651638 93.823833 
L 339.846756 93.560292 
L 340.040477 93.295722 
L 340.232797 93.030132 
L 340.423709 92.763528 
L 340.613208 92.495919 
L 340.80129 92.227311 
L 340.987948 91.957712 
L 341.173178 91.687129 
L 341.356974 91.415571 
L 341.539331 91.143044 
L 341.720244 90.869557 
L 341.899709 90.595116 
L 342.077719 90.319731 
L 342.25427 90.043407 
L 342.429358 89.766154 
L 342.602977 89.487979 
L 342.775122 89.208889 
L 342.945788 88.928893 
L 343.114972 88.647998 
L 343.282667 88.366213 
L 343.44887 88.083544 
L 343.613575 87.8 
z
" clip-path="url(#p1d45ba7290)" style="fill: #8000ff; opacity: 0.4; stroke: #8000ff; stroke-width: 2; stroke-linejoin: miter"/>
   </g>
   <g class="axis"/>
   <g class="axis"/>
   <g id="line2d_5">
    <path d="M 289.92 56.8 
L 343.613575 25.8 
" clip-path="url(#p1d45ba7290)" style="fill: none; stroke: currentColor; stroke-width: 2; stroke-linecap: square"/>
   </g>
   <g id="line2d_6">
    <path d="M 289.92 56.8 
L 320.92 3.106425 
" clip-path="url(#p1d45ba7290)" style="fill: none; stroke: currentColor; stroke-width: 2; stroke-linecap: square"/>
   </g>
   <g id="line2d_7">
    <path d="M 289.92 56.8 
L 320.92 110.493575 
" clip-path="url(#p1d45ba7290)" style="fill: none; stroke: currentColor; stroke-width: 2; stroke-linecap: square"/>
   </g>
   <g id="line2d_8">
    <path d="M 289.92 56.8 
L 343.613575 87.8 
" clip-path="url(#p1d45ba7290)" style="fill: none; stroke: currentColor; stroke-width: 2; stroke-linecap: square"/>
   </g>
   <g id="line2d_9">
    <path d="M 316.224372 30.495628 
L 316.224372 83.104372 
" clip-path="url(#p1d45ba7290)" style="fill: none; stroke-dasharray: 7.4,3.2; stroke-dashoffset: 0; stroke: currentColor; stroke-opacity: 0.8; stroke-width: 2"/>
   </g>
   <g id="text_4" class="text">
    <!-- $x_1$ -->
    <g transform="translate(318.704372 30.495628) scale(0.11 -0.11)">
     <use xlink:href="#DejaVuSans-Oblique-78" transform="translate(0 0.3125)"/>
     <use xlink:href="#DejaVuSans-31" transform="translate(59.179688 -16.09375) scale(0.7)"/>
    </g>
   </g>
   <g id="text_5" class="text">
    <!-- $x_2$ -->
    <g transform="translate(318.704372 83.104372) scale(0.11 -0.11)">
     <defs>
      <path id="DejaVuSans-32" d="M 1228 531 
L 3431 531 
L 3431 0 
L 469 0 
L 469 531 
Q 828 903 1448 1529 
Q 2069 2156 2228 2338 
Q 2531 2678 2651 2914 
Q 2772 3150 2772 3378 
Q 2772 3750 2511 3984 
Q 2250 4219 1831 4219 
Q 1534 4219 1204 4116 
Q 875 4013 500 3803 
L 500 4441 
Q 881 4594 1212 4672 
Q 1544 4750 1819 4750 
Q 2544 4750 2975 4387 
Q 3406 4025 3406 3419 
Q 3406 3131 3298 2873 
Q 3191 2616 2906 2266 
Q 2828 2175 2409 1742 
Q 1991 1309 1228 531 
z
" transform="scale(0.015625)"/>
     </defs>
     <use xlink:href="#DejaVuSans-Oblique-78" transform="translate(0 0.3125)"/>
     <use xlink:href="#DejaVuSans-32" transform="translate(59.179688 -16.09375) scale(0.7)"/>
    </g>
   </g>
   <g id="PathCollection_5">
    <defs>
     <path id="m9fad14dcb4" d="M 0 3.162278 
C 0.838646 3.162278 1.643056 2.82908 2.236068 2.236068 
C 2.82908 1.643056 3.162278 0.838646 3.162278 0 
C 3.162278 -0.838646 2.82908 -1.643056 2.236068 -2.236068 
C 1.643056 -2.82908 0.838646 -3.162278 0 -3.162278 
C -0.838646 -3.162278 -1.643056 -2.82908 -2.236068 -2.236068 
C -2.82908 -1.643056 -3.162278 -0.838646 -3.162278 0 
C -3.162278 0.838646 -2.82908 1.643056 -2.236068 2.236068 
C -1.643056 2.82908 -0.838646 3.162278 0 3.162278 
z
" style="stroke: currentColor"/>
    </defs>
    <g clip-path="url(#p1d45ba7290)">
     <use xlink:href="#m9fad14dcb4" x="316.224372" y="30.495628" style="stroke: currentColor"/>
    </g>
   </g>
   <g id="PathCollection_6">
    <g clip-path="url(#p1d45ba7290)">
     <use xlink:href="#m9fad14dcb4" x="316.224372" y="83.104372" style="stroke: currentColor"/>
    </g>
   </g>
   <g id="PathCollection_7">
    <g clip-path="url(#p1d45ba7290)">
     <use xlink:href="#maf25b6b92c" x="289.92" y="56.8" style="stroke: currentColor"/>
    </g>
   </g>
  </g>
 </g>
 <defs>
  <clipPath id="pc515e81c65">
   <rect x="7.2" y="7.2" width="148.8" height="124"/>
  </clipPath>
  <clipPath id="p1d45ba7290">
   <rect x="215.52" y="7.2" width="148.8" height="124"/>
  </clipPath>
 </defs>
</svg>
