<svg xmlns="http://www.w3.org/2000/svg" xmlns:xlink="http://www.w3.org/1999/xlink" width="571.013" height="144.477" style="--axis-color:#000;--grid-stroke:rgba(0,0,0,0.2);--plot3d-stroke:rgba(0,0,0,0.3);--plot3d-grid:rgba(0,0,0,0.2);--black:#000000;--c1:#FF0001;--c2:#00FF02;--c3:#0000FF;--c4:#FF00FF;--c5:#00FFFF;--c6:#FFFF00;--c7:#FF8000;--c8:#8000FF;--gray:#7f7f7f;--grey:#7f7f7f;--octonary:#bcbd22;--primary:#d62728;--quaternary:#9467bd;--quinary:#8c564b;--secondary:#2ca02c;--senary:#e377c2;--septenary:#7f7f7f;--tertiary:#1f77b4;--white:#ffffff" viewBox="0 0 428.26 108.358"><style><![CDATA[@media (prefers-color-scheme:dark){:root{--axis-color:#fff;--grid-stroke:rgba(255,255,255,0.2);--plot3d-stroke:rgba(255,255,255,0.3);--plot3d-grid:rgba(255,255,255,0.2);--black:#FFFFFF;--c1:#FF0001;--c2:#00FF02;--c3:#0000FF;--c4:#FF00FF;--c5:#00FFFF;--c6:#FFFF00;--c7:#FF8000;--c8:#8000FF;--gray:#CCCCCC;--grey:#CCCCCC;--octonary:#E6DB74;--primary:#FF4A98;--quaternary:#B4A0FF;--quinary:#FFB86B;--secondary:#0AFAFA;--senary:#FF79C6;--septenary:#CCCCCC;--tertiary:#7F83FF;--white:#000000}}.text{fill:var(--axis-color)!important;stroke:none!important}.axis path,.patch path[style*="stroke: currentColor"]{stroke:var(--axis-color)!important}*{stroke-linejoin:round;stroke-linecap:butt}]]></style><g id="figure_1"><path d="M0 108.358h428.26V0H0z" class="patch" style="fill:none"/><g id="axes_1"><path d="M27.008 98.568h93.98V7.2h-93.98z" class="patch" style="fill:none"/><path d="m58.635 67.464 1.199.822 1.242.755 1.283.684 1.319.612 1.35.537 1.38.461 1.402.384 1.42.305 1.437.226 1.447.145 1.452.065 1.454-.017 1.45-.097 1.443-.178 1.43-.258 1.415-.337 1.393-.416 1.368-.492 1.338-.568 1.305-.641 1.267-.713 1.225-.782 1.18-.85 1.13-.913 1.079-.976 1.022-1.034.963-1.089.9-1.14.837-1.19.768-1.234.699-1.275.626-1.312.553-1.344.477-1.374.4-1.398.32-1.417.242-1.434.162-1.445.081-1.451V45.63l-.081-1.452-.162-1.444-.241-1.434-.322-1.418-.4-1.397-.476-1.374-.553-1.344-.626-1.312-.699-1.275-.768-1.234-.836-1.19-.901-1.14-.963-1.09-1.022-1.033-1.078-.976-1.131-.913-1.18-.85-1.225-.782-1.267-.713-1.305-.642-1.338-.567-1.368-.493-1.393-.415-1.414-.337-1.431-.258-1.443-.178-1.45-.097-1.454-.017-1.452.065-1.447.145-1.436.226-1.421.305-1.403.384-1.378.46-1.351.538-1.319.612-1.283.684-1.242.754-1.2.823 7.682 10.553.6-.411.621-.378.641-.342.66-.306.675-.268.69-.23.7-.193.711-.152.718-.113.724-.073.726-.032.727.008.725.049.721.089.716.129.707.168.696.208.684.246.67.284.652.32.633.357.613.392.59.424.565.457.54.488.51.517.482.544.45.57.418.595.385.617.349.638.313.656.276.672.239.687.2.699.16.709.121.716.08.723.041.725v.727l-.04.726-.08.722-.122.717-.16.71-.2.698-.239.687-.276.672-.313.656-.35.637-.384.617-.418.595-.45.57-.482.545-.51.517-.54.488-.565.457-.59.424-.613.391-.633.357-.653.32-.669.284-.684.247-.696.207-.707.169-.716.129-.721.089-.725.049-.727.008-.726-.033-.724-.072-.718-.113-.71-.153-.701-.191-.69-.231-.675-.269-.66-.306-.641-.342-.621-.377-.6-.411z" class="patch" clip-path="url(#p32c0f53c5d)" style="fill:#8000ff;opacity:.6;stroke:#8000ff;stroke-width:2;stroke-linejoin:miter"/><path id="line2d_1" d="M58.635 67.464V25.252" clip-path="url(#p32c0f53c5d)" style="fill:none;stroke:var(--black);stroke-width:2;stroke-linecap:square"/><g id="text_1" class="text" transform="matrix(.12 0 0 -.12 7.2 82.905)"><defs><path id="DejaVuSans-Bold-4d" d="M588 4666h1531l1062-2497 1069 2497h1528V0H4641v3413L3566 897h-763L1728 3413V0H588z" transform="scale(.01563)"/><path id="DejaVuSans-Bold-69" d="M538 3500h1118V0H538zm0 1363h1118v-913H538z" transform="scale(.01563)"/><path id="DejaVuSans-Bold-6e" d="M4056 2131V0H2931v1631q0 453-20 625t-70 253q-66 110-179 171-112 61-256 61-350 0-550-271-200-270-200-748V0H538v3500h1118v-512q253 306 537 451 285 145 629 145 606 0 920-372 314-371 314-1081" transform="scale(.01563)"/><path id="DejaVuSans-Bold-6d" d="M3781 2919q213 325 505 495t642 170q603 0 919-372 316-371 316-1081V0H5038v1825q3 41 4 84 2 44 2 125 0 372-110 539-109 168-353 168-318 0-492-263-173-262-180-759V0H2784v1825q0 581-100 748-100 168-356 168-322 0-497-264t-175-755V0H531v3500h1125v-512q207 296 474 446t589 150q362 0 640-175 279-175 422-490" transform="scale(.01563)"/><path id="DejaVuSans-Bold-61" d="M2106 1575q-350 0-527-119-176-118-176-350 0-212 142-333 143-120 396-120 315 0 531 226 216 227 216 568v128zm1710 422V0H2688v519q-225-319-507-465-281-145-684-145-544 0-883 317-339 318-339 824 0 616 423 903 424 288 1330 288h660v87q0 266-210 389-209 124-653 124-359 0-669-72-309-72-575-216v853q360 88 722 133 363 45 725 45 947 0 1367-373 421-373 421-1214" transform="scale(.01563)"/><path id="DejaVuSans-Bold-6c" d="M538 4863h1118V0H538z" transform="scale(.01563)"/><path id="DejaVuSans-Bold-43" d="M4288 256Q3956 84 3597-3q-359-88-750-88-1166 0-1847 652T319 2328q0 1119 681 1770 681 652 1847 652 391 0 750-88 359-87 691-259v-965q-335 228-660 334t-684 106q-644 0-1013-413-368-412-368-1137 0-722 368-1135 369-412 1013-412 359 0 684 106 325 107 660 335z" transform="scale(.01563)"/><path id="DejaVuSans-Bold-6f" d="M2203 2784q-372 0-567-267t-195-770 195-771q195-267 567-267 366 0 559 267 194 268 194 771t-194 770q-193 267-559 267m0 800q903 0 1411-488 508-487 508-1349 0-863-508-1351Q3106-91 2203-91q-906 0-1417 487-511 488-511 1351 0 862 511 1349 511 488 1417 488" transform="scale(.01563)"/><path id="DejaVuSans-Bold-76" d="M97 3500h1119l872-2419 868 2419h1122L2700 0H1472z" transform="scale(.01563)"/><path id="DejaVuSans-Bold-65" d="M4031 1759v-318H1416q40-394 284-591t681-197q353 0 723 105 371 105 762 317V213Q3469 63 3072-14t-794-77q-950 0-1477 483-526 483-526 1355 0 856 517 1346 517 491 1424 491 825 0 1320-497 495-496 495-1328m-1150 372q0 319-186 514-186 196-486 196-325 0-528-183t-253-527z" transform="scale(.01563)"/><path id="DejaVuSans-Bold-78" d="M1422 1791 159 3500h1185l715-1037 725 1037h1185L2706 1797 4031 0H2847l-788 1106L1281 0H97z" transform="scale(.01563)"/><path id="DejaVuSans-Bold-53" d="M3834 4519v-988q-384 172-750 259-365 88-690 88-431 0-638-119-206-118-206-368 0-188 139-293 139-104 505-179l512-103q778-157 1106-476 329-318 329-906 0-771-458-1148T2284-91q-443 0-890 85-447 84-894 250v1015q447-237 864-358 417-120 805-120 394 0 603 131 209 132 209 376 0 218-142 337t-567 213l-466 103q-700 150-1024 478-323 328-323 884 0 697 450 1072t1294 375q385 0 791-58t840-173" transform="scale(.01563)"/><path id="DejaVuSans-Bold-74" d="M1759 4494v-994h1154v-800H1759V1216q0-244 97-330t385-86h575V0h-960q-662 0-939 276-276 277-276 940v1484H84v800h557v994z" transform="scale(.01563)"/></defs><use xlink:href="#DejaVuSans-Bold-4d"/><use xlink:href="#DejaVuSans-Bold-69" transform="translate(99.512)"/><use xlink:href="#DejaVuSans-Bold-6e" transform="translate(133.79)"/><use xlink:href="#DejaVuSans-Bold-69" transform="translate(204.98)"/><use xlink:href="#DejaVuSans-Bold-6d" transform="translate(239.258)"/><use xlink:href="#DejaVuSans-Bold-61" transform="translate(343.457)"/><use xlink:href="#DejaVuSans-Bold-6c" transform="translate(410.938)"/><use xlink:href="#DejaVuSans-Bold-43" transform="translate(480.03)"/><use xlink:href="#DejaVuSans-Bold-6f" transform="translate(553.418)"/><use xlink:href="#DejaVuSans-Bold-6e" transform="translate(622.12)"/><use xlink:href="#DejaVuSans-Bold-76" transform="translate(693.31)"/><use xlink:href="#DejaVuSans-Bold-65" transform="translate(758.496)"/><use xlink:href="#DejaVuSans-Bold-78" transform="translate(826.318)"/><use xlink:href="#DejaVuSans-Bold-53" transform="translate(925.635)"/><use xlink:href="#DejaVuSans-Bold-65" transform="translate(997.656)"/><use xlink:href="#DejaVuSans-Bold-74" transform="translate(1065.479)"/></g><g id="PathCollection_1"><defs><path id="mcba3ad9754" d="M0 2.739A2.739 2.739 0 1 0 0-2.74 2.739 2.739 0 0 0 0 2.74z" style="stroke:var(--black)"/></defs><g clip-path="url(#p32c0f53c5d)"><use xlink:href="#mcba3ad9754" x="58.635" y="67.464" style="stroke:var(--black)"/><use xlink:href="#mcba3ad9754" x="58.635" y="25.252" style="stroke:var(--black)"/></g></g></g><g id="axes_2"><path d="M158.579 98.568h93.979V7.2h-93.98z" class="patch" style="fill:none"/><path d="m190.205 67.464 1.2.822 1.242.755 1.283.684 1.318.612 1.351.537 1.379.461 1.402.384 1.421.305 1.437.226 1.446.145 1.452.065 1.454-.017 1.45-.097 1.443-.178 1.431-.258 1.414-.337 1.393-.416 1.368-.492 1.339-.568 1.304-.641 1.267-.713 1.226-.782 1.18-.85 1.13-.913 1.078-.976 1.022-1.034.963-1.089.901-1.14.836-1.19.769-1.234.698-1.275.627-1.312.552-1.344.477-1.374.4-1.398.321-1.417.242-1.434.162-1.445.08-1.451V45.63l-.08-1.452-.162-1.444-.242-1.434-.321-1.418-.4-1.397-.477-1.374-.552-1.344-.627-1.312-.698-1.275-.769-1.234-.836-1.19-.9-1.14-.964-1.09-1.022-1.033-1.078-.976-1.13-.913-1.18-.85-1.226-.782-1.267-.713-1.304-.642-1.339-.567-1.368-.493-1.393-.415-1.414-.337-1.43-.258-1.443-.178-1.45-.097-1.455-.017-1.452.065-1.446.145-1.437.226-1.421.305-1.402.384-1.379.46-1.35.538-1.32.612-1.282.684-1.243.754-1.199.823 7.682 10.553.6-.411.62-.378.642-.342.66-.306.675-.268.69-.23.7-.193.71-.152.719-.113.723-.073.726-.032.727.008.725.049.722.089.715.129.707.168.697.208.684.246.669.284.652.32.634.357.612.392.59.424.566.457.539.488.51.517.482.544.45.57.419.595.384.617.35.638.313.656.276.672.238.687.2.699.16.709.122.716.08.723.04.725v.727l-.04.726-.08.722-.121.717-.16.71-.2.698-.24.687-.275.672-.314.656-.349.637-.384.617-.418.595-.45.57-.482.545-.511.517-.54.488-.565.457-.59.424-.612.391-.634.357-.652.32-.67.284-.683.247-.697.207-.707.169-.715.129-.722.089-.725.049-.727.008-.726-.033-.723-.072-.718-.113-.71-.153-.702-.191-.69-.231-.675-.269-.66-.306-.64-.342-.622-.377-.6-.411z" class="patch" clip-path="url(#p83c17bcd9a)" style="fill:#8000ff;opacity:.6;stroke:#8000ff;stroke-width:2;stroke-linejoin:miter"/><path d="M205.568 82.905c11.077 0 21.702-3.85 29.535-10.704s12.234-16.15 12.234-25.843-4.401-18.99-12.234-25.843-18.458-10.704-29.535-10.704-21.702 3.85-29.534 10.704C168.2 27.369 163.8 36.665 163.8 46.358c0 9.692 4.4 18.99 12.234 25.843 7.832 6.853 18.457 10.704 29.534 10.704z" class="patch" clip-path="url(#p83c17bcd9a)" style="fill:none;opacity:.7;stroke-dasharray:7.4,3.2;stroke-dashoffset:0;stroke:gray;stroke-width:2;stroke-linejoin:miter"/><path d="M213.676 76.617c9.362-2.509 17.488-8.103 22.588-15.551s6.757-16.143 4.606-24.167-7.932-14.725-16.072-18.626c-8.141-3.9-17.975-4.683-27.338-2.174s-17.487 8.103-22.587 15.551-6.757 16.142-4.607 24.167 7.933 14.725 16.073 18.626c8.14 3.9 17.975 4.682 27.337 2.174z" class="patch" clip-path="url(#p83c17bcd9a)" style="fill:none;opacity:.7;stroke-dasharray:7.4,3.2;stroke-dashoffset:0;stroke:gray;stroke-width:2;stroke-linejoin:miter"/><g id="text_2" class="text" transform="matrix(.12 0 0 -.12 139.76 98.568)"><defs><path id="DejaVuSans-Bold-4c" d="M588 4666h1203V909h2112V0H588z" transform="scale(.01563)"/><path id="DejaVuSans-Bold-72" d="M3138 2547q-147 69-293 101-145 33-292 33-431 0-664-277-233-276-233-791V0H538v3500h1118v-575q216 344 495 501 280 158 671 158 56 0 121-5 66-4 191-20z" transform="scale(.01563)"/><path id="DejaVuSans-Bold-67" d="M2919 594q-231-306-510-450Q2131 0 1766 0 1125 0 706 504q-418 505-418 1287 0 784 418 1285 419 502 1060 502 365 0 643-144 279-143 510-453v519h1125V353q0-844-533-1289t-1545-445q-328 0-635 50-306 50-615 153v872q293-169 574-252 282-83 566-83 550 0 806 241 257 241 257 753zm-738 2178q-347 0-541-257-193-256-193-724 0-482 187-730 188-248 547-248 350 0 544 256t194 722q0 468-194 724-194 257-544 257" transform="scale(.01563)"/><path id="DejaVuSans-Bold-73" d="M3272 3391v-850q-359 150-694 225-334 75-631 75-319 0-474-80-154-80-154-245 0-135 117-207 117-71 420-106l197-28q860-109 1156-359 297-250 297-785 0-559-413-841Q2681-91 1863-91q-347 0-718 55-370 55-761 164v850q335-162 686-244 352-81 714-81 329 0 494 90 166 91 166 270 0 150-114 223t-455 114l-197 25q-747 94-1047 347t-300 769q0 556 381 824 382 269 1169 269 310 0 650-47 341-46 741-146" transform="scale(.01563)"/></defs><use xlink:href="#DejaVuSans-Bold-4c"/><use xlink:href="#DejaVuSans-Bold-61" transform="translate(63.72)"/><use xlink:href="#DejaVuSans-Bold-72" transform="translate(131.201)"/><use xlink:href="#DejaVuSans-Bold-67" transform="translate(180.518)"/><use xlink:href="#DejaVuSans-Bold-65" transform="translate(252.1)"/><use xlink:href="#DejaVuSans-Bold-72" transform="translate(319.922)"/><use xlink:href="#DejaVuSans-Bold-43" transform="translate(404.053)"/><use xlink:href="#DejaVuSans-Bold-6f" transform="translate(477.441)"/><use xlink:href="#DejaVuSans-Bold-6e" transform="translate(546.143)"/><use xlink:href="#DejaVuSans-Bold-76" transform="translate(617.334)"/><use xlink:href="#DejaVuSans-Bold-65" transform="translate(682.52)"/><use xlink:href="#DejaVuSans-Bold-78" transform="translate(750.342)"/><use xlink:href="#DejaVuSans-Bold-53" transform="translate(849.658)"/><use xlink:href="#DejaVuSans-Bold-65" transform="translate(921.68)"/><use xlink:href="#DejaVuSans-Bold-74" transform="translate(989.502)"/><use xlink:href="#DejaVuSans-Bold-73" transform="translate(1037.305)"/></g></g><g id="axes_3"><path d="M290.15 98.568h93.978V7.2H290.15z" class="patch" style="fill:none"/><path d="m321.776 67.464 1.199.822 1.242.755 1.283.684 1.319.612 1.35.537 1.38.461 1.402.384 1.42.305 1.437.226 1.447.145 1.452.065 1.454-.017 1.45-.097 1.443-.178 1.43-.258 1.415-.337 1.393-.416 1.368-.492 1.338-.568 1.305-.641 1.267-.713 1.225-.782 1.18-.85 1.13-.913 1.079-.976 1.022-1.034.963-1.089.9-1.14.837-1.19.768-1.234.699-1.275.626-1.312.553-1.344.477-1.374.4-1.398.32-1.417.242-1.434.162-1.445.081-1.451V45.63l-.08-1.452-.163-1.444-.241-1.434-.322-1.418-.4-1.397-.476-1.374-.553-1.344-.626-1.312-.699-1.275-.768-1.234-.836-1.19-.901-1.14-.963-1.09-1.022-1.033-1.078-.976-1.131-.913-1.18-.85-1.225-.782-1.267-.713-1.305-.642-1.338-.567-1.368-.493-1.393-.415-1.414-.337-1.431-.258-1.443-.178-1.45-.097-1.454-.017-1.452.065-1.447.145-1.436.226-1.421.305-1.403.384-1.378.46-1.351.538-1.319.612-1.283.684-1.242.754-1.2.823 7.682 10.553.6-.411.621-.378.641-.342.66-.306.675-.268.69-.23.7-.193.711-.152.718-.113.724-.073.726-.032.727.008.725.049.721.089.716.129.707.168.696.208.684.246.67.284.652.32.633.357.613.392.59.424.565.457.54.488.51.517.482.544.45.57.418.595.385.617.349.638.313.656.276.672.239.687.2.699.16.709.121.716.081.723.04.725v.727l-.04.726-.08.722-.122.717-.16.71-.2.698-.239.687-.276.672-.313.656-.35.637-.384.617-.418.595-.45.57-.482.545-.51.517-.54.488-.565.457-.59.424-.613.391-.633.357-.652.32-.67.284-.684.247-.696.207-.707.169-.716.129-.721.089-.725.049-.727.008-.726-.033-.724-.072-.718-.113-.71-.153-.701-.191-.69-.231-.675-.269-.66-.306-.64-.342-.622-.377-.6-.411z" class="patch" clip-path="url(#pa94e4a4c22)" style="fill:#8000ff;opacity:.6;stroke:#8000ff;stroke-width:2;stroke-linejoin:miter"/><g class="patch"><path d="m331.222 33.88 20.668 6.2M348.633 37.015l3.257 3.065-4.406.766" style="fill:none;opacity:.7;stroke:var(--black);stroke-width:1.5;stroke-linecap:round"/></g><g class="patch"><path d="m333.17 32.26 17.336 21.67M349.569 49.557l.937 4.373-4.06-1.874" style="fill:none;opacity:.7;stroke:var(--black);stroke-width:1.5;stroke-linecap:round"/></g><g id="text_3" class="text" transform="matrix(.12 0 0 -.12 253.218 82.905)"><defs><path id="DejaVuSans-Bold-41" d="M3419 850H1538L1241 0H31l1728 4666h1435L4922 0H3713zm-1581 866h1278l-638 1856z" transform="scale(.01563)"/><path id="DejaVuSans-Bold-62" d="M2400 722q359 0 548 262 190 263 190 763t-190 762q-189 263-548 263t-552-264q-192-264-192-761t192-761q193-264 552-264m-744 2266q232 306 513 451t647 145q647 0 1062-514 416-514 416-1323T3878 423Q3463-91 2816-91q-366 0-647 145-281 146-513 452V0H538v4863h1118z" transform="scale(.01563)"/></defs><use xlink:href="#DejaVuSans-Bold-41"/><use xlink:href="#DejaVuSans-Bold-6c" transform="translate(77.393)"/><use xlink:href="#DejaVuSans-Bold-6c" transform="translate(111.67)"/><use xlink:href="#DejaVuSans-Bold-43" transform="translate(180.762)"/><use xlink:href="#DejaVuSans-Bold-6f" transform="translate(254.15)"/><use xlink:href="#DejaVuSans-Bold-6e" transform="translate(322.852)"/><use xlink:href="#DejaVuSans-Bold-76" transform="translate(394.043)"/><use xlink:href="#DejaVuSans-Bold-65" transform="translate(459.229)"/><use xlink:href="#DejaVuSans-Bold-78" transform="translate(527.05)"/><use xlink:href="#DejaVuSans-Bold-43" transform="translate(626.367)"/><use xlink:href="#DejaVuSans-Bold-6f" transform="translate(699.756)"/><use xlink:href="#DejaVuSans-Bold-6d" transform="translate(768.457)"/><use xlink:href="#DejaVuSans-Bold-62" transform="translate(872.656)"/><use xlink:href="#DejaVuSans-Bold-69" transform="translate(944.238)"/><use xlink:href="#DejaVuSans-Bold-6e" transform="translate(978.516)"/><use xlink:href="#DejaVuSans-Bold-61" transform="translate(1049.707)"/><use xlink:href="#DejaVuSans-Bold-74" transform="translate(1117.188)"/><use xlink:href="#DejaVuSans-Bold-69" transform="translate(1164.99)"/><use xlink:href="#DejaVuSans-Bold-6f" transform="translate(1199.268)"/><use xlink:href="#DejaVuSans-Bold-6e" transform="translate(1267.969)"/><use xlink:href="#DejaVuSans-Bold-73" transform="translate(1339.16)"/></g><g id="PathCollection_2"><defs><path id="m8513cf31e0" d="M0 2.236a2.236 2.236 0 1 0 0-4.472 2.236 2.236 0 0 0 0 4.472z" style="stroke:var(--black);stroke-opacity:.7"/></defs><g clip-path="url(#pa94e4a4c22)"><use xlink:href="#m8513cf31e0" x="329.307" y="33.305" style="fill-opacity:.7;stroke:var(--black);stroke-opacity:.7"/></g></g><g id="PathCollection_3" clip-path="url(#pa94e4a4c22)"><use xlink:href="#m8513cf31e0" x="355.413" y="41.137" style="fill-opacity:.7;stroke:var(--black);stroke-opacity:.7"/></g><g id="PathCollection_4" clip-path="url(#pa94e4a4c22)"><use xlink:href="#m8513cf31e0" x="331.918" y="30.695" style="fill-opacity:.7;stroke:var(--black);stroke-opacity:.7"/></g><g id="PathCollection_5" clip-path="url(#pa94e4a4c22)"><use xlink:href="#m8513cf31e0" x="352.802" y="56.8" style="fill-opacity:.7;stroke:var(--black);stroke-opacity:.7"/></g></g></g><defs><clipPath id="p32c0f53c5d"><path d="M27.008 7.2h93.979v91.368H27.008z"/></clipPath><clipPath id="p83c17bcd9a"><path d="M158.579 7.2h93.979v91.368h-93.979z"/></clipPath><clipPath id="pa94e4a4c22"><path d="M290.149 7.2h93.979v91.368h-93.979z"/></clipPath></defs></svg>