<?xml version="1.0" encoding="utf-8" standalone="no"?>
<!DOCTYPE svg PUBLIC "-//W3C//DTD SVG 1.1//EN"
  "http://www.w3.org/Graphics/SVG/1.1/DTD/svg11.dtd">
<svg xmlns:xlink="http://www.w3.org/1999/xlink" width="406.510937pt" height="312.171931pt" viewBox="0 0 406.510937 312.171931" xmlns="http://www.w3.org/2000/svg" version="1.1">
<style>/* === RDF autogenerated palette === */
:root {
    --axis-color: #000;
    --grid-stroke: rgba(0,0,0,0.2);
    --plot3d-stroke: rgba(0,0,0,0.3);
    --plot3d-grid: rgba(0,0,0,0.2);
}
@media (prefers-color-scheme: dark) {
    :root {
        --axis-color: #fff;
        --grid-stroke: rgba(255,255,255,0.2);
        --plot3d-stroke: rgba(255,255,255,0.3);
        --plot3d-grid: rgba(255,255,255,0.2);
    }
}

/* Light‑mode palette */
.black { fill:#000000; stroke:#000000; }:root { --black: #000000; }.c1 { fill:#FF0001; stroke:#FF0001; }:root { --c1: #FF0001; }.c2 { fill:#00FF02; stroke:#00FF02; }:root { --c2: #00FF02; }.c3 { fill:#0000FF; stroke:#0000FF; }:root { --c3: #0000FF; }.c4 { fill:#FF00FF; stroke:#FF00FF; }:root { --c4: #FF00FF; }.c5 { fill:#00FFFF; stroke:#00FFFF; }:root { --c5: #00FFFF; }.c6 { fill:#FFFF00; stroke:#FFFF00; }:root { --c6: #FFFF00; }.c7 { fill:#FF8000; stroke:#FF8000; }:root { --c7: #FF8000; }.c8 { fill:#8000FF; stroke:#8000FF; }:root { --c8: #8000FF; }.gray { fill:#7f7f7f; stroke:#7f7f7f; }:root { --gray: #7f7f7f; }.grey { fill:#7f7f7f; stroke:#7f7f7f; }:root { --grey: #7f7f7f; }.octonary { fill:#bcbd22; stroke:#bcbd22; }:root { --octonary: #bcbd22; }.primary { fill:#d62728; stroke:#d62728; }:root { --primary: #d62728; }.quaternary { fill:#9467bd; stroke:#9467bd; }:root { --quaternary: #9467bd; }.quinary { fill:#8c564b; stroke:#8c564b; }:root { --quinary: #8c564b; }.secondary { fill:#2ca02c; stroke:#2ca02c; }:root { --secondary: #2ca02c; }.senary { fill:#e377c2; stroke:#e377c2; }:root { --senary: #e377c2; }.septenary { fill:#7f7f7f; stroke:#7f7f7f; }:root { --septenary: #7f7f7f; }.tertiary { fill:#1f77b4; stroke:#1f77b4; }:root { --tertiary: #1f77b4; }.white { fill:#ffffff; stroke:#ffffff; }:root { --white: #ffffff; }

/* Dark overrides */
@media (prefers-color-scheme: dark) {
    .black { fill:#FFFFFF; stroke:#FFFFFF; }:root { --black: #FFFFFF; }.c1 { fill:#FF0001; stroke:#FF0001; }:root { --c1: #FF0001; }.c2 { fill:#00FF02; stroke:#00FF02; }:root { --c2: #00FF02; }.c3 { fill:#0000FF; stroke:#0000FF; }:root { --c3: #0000FF; }.c4 { fill:#FF00FF; stroke:#FF00FF; }:root { --c4: #FF00FF; }.c5 { fill:#00FFFF; stroke:#00FFFF; }:root { --c5: #00FFFF; }.c6 { fill:#FFFF00; stroke:#FFFF00; }:root { --c6: #FFFF00; }.c7 { fill:#FF8000; stroke:#FF8000; }:root { --c7: #FF8000; }.c8 { fill:#8000FF; stroke:#8000FF; }:root { --c8: #8000FF; }.gray { fill:#CCCCCC; stroke:#CCCCCC; }:root { --gray: #CCCCCC; }.grey { fill:#CCCCCC; stroke:#CCCCCC; }:root { --grey: #CCCCCC; }.octonary { fill:#E6DB74; stroke:#E6DB74; }:root { --octonary: #E6DB74; }.primary { fill:#FF4A98; stroke:#FF4A98; }:root { --primary: #FF4A98; }.quaternary { fill:#B4A0FF; stroke:#B4A0FF; }:root { --quaternary: #B4A0FF; }.quinary { fill:#FFB86B; stroke:#FFB86B; }:root { --quinary: #FFB86B; }.secondary { fill:#0AFAFA; stroke:#0AFAFA; }:root { --secondary: #0AFAFA; }.senary { fill:#FF79C6; stroke:#FF79C6; }:root { --senary: #FF79C6; }.septenary { fill:#CCCCCC; stroke:#CCCCCC; }:root { --septenary: #CCCCCC; }.tertiary { fill:#7F83FF; stroke:#7F83FF; }:root { --tertiary: #7F83FF; }.white { fill:#000000; stroke:#000000; }:root { --white: #000000; }
}/* Axis, ticks, legend */
text, .text { fill: var(--axis-color) !important; stroke: none !important; }
.axis line, .axis path,
.tick line, .tick path,
path.domain,
line.grid { stroke: var(--axis-color) !important; }
.legend text { fill: var(--axis-color) !important; }

/* Patch paths that relied on currentColor */
.patch path[style*="stroke: currentColor"] { stroke: var(--axis-color) !important; }

/* Legend background (first child of legend group) */
g.legend > g:first-child > path:first-child {
    fill: rgba(255,255,255,0.8) !important;
    stroke: rgba(0,0,0,0.1) !important;
}
@media (prefers-color-scheme: dark) {
    g.legend > g:first-child > path:first-child {
        fill: rgba(26,26,26,0.8) !important;
        stroke: rgba(255,255,255,0.1) !important;
    }
}

/* 3‑D specific rules */
.plot3d path, .plot3d polygon {
    stroke: var(--plot3d-stroke) !important;
}
.plot3d-grid line { stroke: var(--plot3d-grid) !important; }
.plot3d-surface path[style*="fill:"] {
    fill-opacity: 0.9 !important;
}
@media (prefers-color-scheme: dark) {
    .plot3d-surface path[style*="fill:"] {
        fill-opacity: 0.95 !important;
        filter: saturate(1.2) !important;
    }
}</style>

 <metadata>
  <rdf:RDF xmlns:dc="http://purl.org/dc/elements/1.1/" xmlns:cc="http://creativecommons.org/ns#" xmlns:rdf="http://www.w3.org/1999/02/22-rdf-syntax-ns#">
   <cc:Work>
    <dc:type rdf:resource="http://purl.org/dc/dcmitype/StillImage"/>
    <dc:date>2025-09-15T16:43:12.470942</dc:date>
    <dc:format>image/svg+xml</dc:format>
    <dc:creator>
     <cc:Agent>
      <dc:title>Matplotlib v3.10.1, https://matplotlib.org/</dc:title>
     </cc:Agent>
    </dc:creator>
   </cc:Work>
  </rdf:RDF>
 </metadata>
 <defs>
  <style type="text/css">*{stroke-linejoin: round; stroke-linecap: butt}</style>
 </defs>
 <g id="figure_1">
  <g class="patch">
   <path d="M -0 312.171931 
L 406.510937 312.171931 
L 406.510937 0 
L -0 0 
L -0 312.171931 
z
" style="fill: none"/>
  </g>
  <g id="axes_1">
   <g class="patch">
    <path d="M 42.190938 273.312 
L 399.310938 273.312 
L 399.310938 7.2 
L 42.190938 7.2 
L 42.190938 273.312 
z
" style="fill: none"/>
   </g>
   <g id="LineCollection_1">
    <path d="M 166.641847 313.171931 
L 166.641847 217.292191 
" clip-path="url(#p3bccd29f88)" style="fill: none; stroke-dasharray: 2,3.3; stroke-dashoffset: 0; stroke: #8000ff; stroke-width: 2"/>
   </g>
   <g id="LineCollection_2">
    <path d="M 301.914574 313.171931 
L 301.914574 191.030667 
" clip-path="url(#p3bccd29f88)" style="fill: none; stroke-dasharray: 2,3.3; stroke-dashoffset: 0; stroke: #8000ff; stroke-width: 2"/>
   </g>
   <g class="axis">
    <g class="tick xtick">
     <g id="line2d_1">
      <path d="M 58.423665 273.312 
L 58.423665 7.2 
" clip-path="url(#p3bccd29f88)" style="fill: none; stroke: #b0b0b0; stroke-opacity: 0.15; stroke-width: 0.8; stroke-linecap: square"/>
     </g>
     <g id="line2d_2">
      <defs>
       <path id="mf09fa34aae" d="M 0 0 
L 0 3.5 
" style="stroke: var(--black); stroke-width: 0.8"/>
      </defs>
      <g>
       <use xlink:href="#mf09fa34aae" x="58.423665" y="273.312" style="stroke: var(--black); stroke-width: 0.8"/>
      </g>
     </g>
     <g id="text_1" class="text">
      <!-- −2 -->
      <g transform="translate(51.78968 287.150594) scale(0.09 -0.09)">
       <defs>
        <path id="DejaVuSans-2212" d="M 678 2272 
L 4684 2272 
L 4684 1741 
L 678 1741 
L 678 2272 
z
" transform="scale(0.015625)"/>
        <path id="DejaVuSans-32" d="M 1228 531 
L 3431 531 
L 3431 0 
L 469 0 
L 469 531 
Q 828 903 1448 1529 
Q 2069 2156 2228 2338 
Q 2531 2678 2651 2914 
Q 2772 3150 2772 3378 
Q 2772 3750 2511 3984 
Q 2250 4219 1831 4219 
Q 1534 4219 1204 4116 
Q 875 4013 500 3803 
L 500 4441 
Q 881 4594 1212 4672 
Q 1544 4750 1819 4750 
Q 2544 4750 2975 4387 
Q 3406 4025 3406 3419 
Q 3406 3131 3298 2873 
Q 3191 2616 2906 2266 
Q 2828 2175 2409 1742 
Q 1991 1309 1228 531 
z
" transform="scale(0.015625)"/>
       </defs>
       <use xlink:href="#DejaVuSans-2212"/>
       <use xlink:href="#DejaVuSans-32" transform="translate(83.789062 0)"/>
      </g>
     </g>
    </g>
    <g class="tick xtick">
     <g id="line2d_3">
      <path d="M 112.532756 273.312 
L 112.532756 7.2 
" clip-path="url(#p3bccd29f88)" style="fill: none; stroke: #b0b0b0; stroke-opacity: 0.15; stroke-width: 0.8; stroke-linecap: square"/>
     </g>
     <g id="line2d_4">
      <g>
       <use xlink:href="#mf09fa34aae" x="112.532756" y="273.312" style="stroke: var(--black); stroke-width: 0.8"/>
      </g>
     </g>
     <g id="text_2" class="text">
      <!-- −1 -->
      <g transform="translate(105.898771 287.150594) scale(0.09 -0.09)">
       <defs>
        <path id="DejaVuSans-31" d="M 794 531 
L 1825 531 
L 1825 4091 
L 703 3866 
L 703 4441 
L 1819 4666 
L 2450 4666 
L 2450 531 
L 3481 531 
L 3481 0 
L 794 0 
L 794 531 
z
" transform="scale(0.015625)"/>
       </defs>
       <use xlink:href="#DejaVuSans-2212"/>
       <use xlink:href="#DejaVuSans-31" transform="translate(83.789062 0)"/>
      </g>
     </g>
    </g>
    <g class="tick xtick">
     <g id="line2d_5">
      <path d="M 166.641847 273.312 
L 166.641847 7.2 
" clip-path="url(#p3bccd29f88)" style="fill: none; stroke: #b0b0b0; stroke-opacity: 0.15; stroke-width: 0.8; stroke-linecap: square"/>
     </g>
     <g id="line2d_6">
      <g>
       <use xlink:href="#mf09fa34aae" x="166.641847" y="273.312" style="stroke: var(--black); stroke-width: 0.8"/>
      </g>
     </g>
     <g id="text_3" class="text">
      <!-- 0 -->
      <g transform="translate(163.778722 287.150594) scale(0.09 -0.09)">
       <defs>
        <path id="DejaVuSans-30" d="M 2034 4250 
Q 1547 4250 1301 3770 
Q 1056 3291 1056 2328 
Q 1056 1369 1301 889 
Q 1547 409 2034 409 
Q 2525 409 2770 889 
Q 3016 1369 3016 2328 
Q 3016 3291 2770 3770 
Q 2525 4250 2034 4250 
z
M 2034 4750 
Q 2819 4750 3233 4129 
Q 3647 3509 3647 2328 
Q 3647 1150 3233 529 
Q 2819 -91 2034 -91 
Q 1250 -91 836 529 
Q 422 1150 422 2328 
Q 422 3509 836 4129 
Q 1250 4750 2034 4750 
z
" transform="scale(0.015625)"/>
       </defs>
       <use xlink:href="#DejaVuSans-30"/>
      </g>
     </g>
    </g>
    <g class="tick xtick">
     <g id="line2d_7">
      <path d="M 220.750938 273.312 
L 220.750938 7.2 
" clip-path="url(#p3bccd29f88)" style="fill: none; stroke: #b0b0b0; stroke-opacity: 0.15; stroke-width: 0.8; stroke-linecap: square"/>
     </g>
     <g id="line2d_8">
      <g>
       <use xlink:href="#mf09fa34aae" x="220.750938" y="273.312" style="stroke: var(--black); stroke-width: 0.8"/>
      </g>
     </g>
     <g id="text_4" class="text">
      <!-- 1 -->
      <g transform="translate(217.887813 287.150594) scale(0.09 -0.09)">
       <use xlink:href="#DejaVuSans-31"/>
      </g>
     </g>
    </g>
    <g class="tick xtick">
     <g id="line2d_9">
      <path d="M 274.860028 273.312 
L 274.860028 7.2 
" clip-path="url(#p3bccd29f88)" style="fill: none; stroke: #b0b0b0; stroke-opacity: 0.15; stroke-width: 0.8; stroke-linecap: square"/>
     </g>
     <g id="line2d_10">
      <g>
       <use xlink:href="#mf09fa34aae" x="274.860028" y="273.312" style="stroke: var(--black); stroke-width: 0.8"/>
      </g>
     </g>
     <g id="text_5" class="text">
      <!-- 2 -->
      <g transform="translate(271.996903 287.150594) scale(0.09 -0.09)">
       <use xlink:href="#DejaVuSans-32"/>
      </g>
     </g>
    </g>
    <g class="tick xtick">
     <g id="line2d_11">
      <path d="M 328.969119 273.312 
L 328.969119 7.2 
" clip-path="url(#p3bccd29f88)" style="fill: none; stroke: #b0b0b0; stroke-opacity: 0.15; stroke-width: 0.8; stroke-linecap: square"/>
     </g>
     <g id="line2d_12">
      <g>
       <use xlink:href="#mf09fa34aae" x="328.969119" y="273.312" style="stroke: var(--black); stroke-width: 0.8"/>
      </g>
     </g>
     <g id="text_6" class="text">
      <!-- 3 -->
      <g transform="translate(326.105994 287.150594) scale(0.09 -0.09)">
       <defs>
        <path id="DejaVuSans-33" d="M 2597 2516 
Q 3050 2419 3304 2112 
Q 3559 1806 3559 1356 
Q 3559 666 3084 287 
Q 2609 -91 1734 -91 
Q 1441 -91 1130 -33 
Q 819 25 488 141 
L 488 750 
Q 750 597 1062 519 
Q 1375 441 1716 441 
Q 2309 441 2620 675 
Q 2931 909 2931 1356 
Q 2931 1769 2642 2001 
Q 2353 2234 1838 2234 
L 1294 2234 
L 1294 2753 
L 1863 2753 
Q 2328 2753 2575 2939 
Q 2822 3125 2822 3475 
Q 2822 3834 2567 4026 
Q 2313 4219 1838 4219 
Q 1578 4219 1281 4162 
Q 984 4106 628 3988 
L 628 4550 
Q 988 4650 1302 4700 
Q 1616 4750 1894 4750 
Q 2613 4750 3031 4423 
Q 3450 4097 3450 3541 
Q 3450 3153 3228 2886 
Q 3006 2619 2597 2516 
z
" transform="scale(0.015625)"/>
       </defs>
       <use xlink:href="#DejaVuSans-33"/>
      </g>
     </g>
    </g>
    <g class="tick xtick">
     <g id="line2d_13">
      <path d="M 383.07821 273.312 
L 383.07821 7.2 
" clip-path="url(#p3bccd29f88)" style="fill: none; stroke: #b0b0b0; stroke-opacity: 0.15; stroke-width: 0.8; stroke-linecap: square"/>
     </g>
     <g id="line2d_14">
      <g>
       <use xlink:href="#mf09fa34aae" x="383.07821" y="273.312" style="stroke: var(--black); stroke-width: 0.8"/>
      </g>
     </g>
     <g id="text_7" class="text">
      <!-- 4 -->
      <g transform="translate(380.215085 287.150594) scale(0.09 -0.09)">
       <defs>
        <path id="DejaVuSans-34" d="M 2419 4116 
L 825 1625 
L 2419 1625 
L 2419 4116 
z
M 2253 4666 
L 3047 4666 
L 3047 1625 
L 3713 1625 
L 3713 1100 
L 3047 1100 
L 3047 0 
L 2419 0 
L 2419 1100 
L 313 1100 
L 313 1709 
L 2253 4666 
z
" transform="scale(0.015625)"/>
       </defs>
       <use xlink:href="#DejaVuSans-34"/>
      </g>
     </g>
    </g>
    <g id="text_8" class="text">
     <!-- $x$ -->
     <g transform="translate(217.750938 300.62075) scale(0.1 -0.1)">
      <defs>
       <path id="DejaVuSans-Oblique-78" d="M 3841 3500 
L 2234 1784 
L 3219 0 
L 2559 0 
L 1819 1388 
L 531 0 
L -166 0 
L 1556 1844 
L 641 3500 
L 1300 3500 
L 1972 2234 
L 3144 3500 
L 3841 3500 
z
" transform="scale(0.015625)"/>
      </defs>
      <use xlink:href="#DejaVuSans-Oblique-78" transform="translate(0 0.3125)"/>
     </g>
    </g>
   </g>
   <g class="axis">
    <g class="tick ytick">
     <g id="line2d_15">
      <path d="M 42.190938 238.30141 
L 399.310938 238.30141 
" clip-path="url(#p3bccd29f88)" style="fill: none; stroke: #b0b0b0; stroke-opacity: 0.15; stroke-width: 0.8; stroke-linecap: square"/>
     </g>
     <g id="line2d_16">
      <defs>
       <path id="m135b714646" d="M 0 0 
L -3.5 0 
" style="stroke: var(--black); stroke-width: 0.8"/>
      </defs>
      <g>
       <use xlink:href="#m135b714646" x="42.190938" y="238.30141" style="stroke: var(--black); stroke-width: 0.8"/>
      </g>
     </g>
     <g id="text_9" class="text">
      <!-- 0.5 -->
      <g transform="translate(20.878125 241.720706) scale(0.09 -0.09)">
       <defs>
        <path id="DejaVuSans-2e" d="M 684 794 
L 1344 794 
L 1344 0 
L 684 0 
L 684 794 
z
" transform="scale(0.015625)"/>
        <path id="DejaVuSans-35" d="M 691 4666 
L 3169 4666 
L 3169 4134 
L 1269 4134 
L 1269 2991 
Q 1406 3038 1543 3061 
Q 1681 3084 1819 3084 
Q 2600 3084 3056 2656 
Q 3513 2228 3513 1497 
Q 3513 744 3044 326 
Q 2575 -91 1722 -91 
Q 1428 -91 1123 -41 
Q 819 9 494 109 
L 494 744 
Q 775 591 1075 516 
Q 1375 441 1709 441 
Q 2250 441 2565 725 
Q 2881 1009 2881 1497 
Q 2881 1984 2565 2268 
Q 2250 2553 1709 2553 
Q 1456 2553 1204 2497 
Q 953 2441 691 2322 
L 691 4666 
z
" transform="scale(0.015625)"/>
       </defs>
       <use xlink:href="#DejaVuSans-30"/>
       <use xlink:href="#DejaVuSans-2e" transform="translate(63.623047 0)"/>
       <use xlink:href="#DejaVuSans-35" transform="translate(95.410156 0)"/>
      </g>
     </g>
    </g>
    <g class="tick ytick">
     <g id="line2d_17">
      <path d="M 42.190938 203.286045 
L 399.310938 203.286045 
" clip-path="url(#p3bccd29f88)" style="fill: none; stroke: #b0b0b0; stroke-opacity: 0.15; stroke-width: 0.8; stroke-linecap: square"/>
     </g>
     <g id="line2d_18">
      <g>
       <use xlink:href="#m135b714646" x="42.190938" y="203.286045" style="stroke: var(--black); stroke-width: 0.8"/>
      </g>
     </g>
     <g id="text_10" class="text">
      <!-- 1.0 -->
      <g transform="translate(20.878125 206.705341) scale(0.09 -0.09)">
       <use xlink:href="#DejaVuSans-31"/>
       <use xlink:href="#DejaVuSans-2e" transform="translate(63.623047 0)"/>
       <use xlink:href="#DejaVuSans-30" transform="translate(95.410156 0)"/>
      </g>
     </g>
    </g>
    <g class="tick ytick">
     <g id="line2d_19">
      <path d="M 42.190938 168.270679 
L 399.310938 168.270679 
" clip-path="url(#p3bccd29f88)" style="fill: none; stroke: #b0b0b0; stroke-opacity: 0.15; stroke-width: 0.8; stroke-linecap: square"/>
     </g>
     <g id="line2d_20">
      <g>
       <use xlink:href="#m135b714646" x="42.190938" y="168.270679" style="stroke: var(--black); stroke-width: 0.8"/>
      </g>
     </g>
     <g id="text_11" class="text">
      <!-- 1.5 -->
      <g transform="translate(20.878125 171.689976) scale(0.09 -0.09)">
       <use xlink:href="#DejaVuSans-31"/>
       <use xlink:href="#DejaVuSans-2e" transform="translate(63.623047 0)"/>
       <use xlink:href="#DejaVuSans-35" transform="translate(95.410156 0)"/>
      </g>
     </g>
    </g>
    <g class="tick ytick">
     <g id="line2d_21">
      <path d="M 42.190938 133.255314 
L 399.310938 133.255314 
" clip-path="url(#p3bccd29f88)" style="fill: none; stroke: #b0b0b0; stroke-opacity: 0.15; stroke-width: 0.8; stroke-linecap: square"/>
     </g>
     <g id="line2d_22">
      <g>
       <use xlink:href="#m135b714646" x="42.190938" y="133.255314" style="stroke: var(--black); stroke-width: 0.8"/>
      </g>
     </g>
     <g id="text_12" class="text">
      <!-- 2.0 -->
      <g transform="translate(20.878125 136.674611) scale(0.09 -0.09)">
       <use xlink:href="#DejaVuSans-32"/>
       <use xlink:href="#DejaVuSans-2e" transform="translate(63.623047 0)"/>
       <use xlink:href="#DejaVuSans-30" transform="translate(95.410156 0)"/>
      </g>
     </g>
    </g>
    <g class="tick ytick">
     <g id="line2d_23">
      <path d="M 42.190938 98.239949 
L 399.310938 98.239949 
" clip-path="url(#p3bccd29f88)" style="fill: none; stroke: #b0b0b0; stroke-opacity: 0.15; stroke-width: 0.8; stroke-linecap: square"/>
     </g>
     <g id="line2d_24">
      <g>
       <use xlink:href="#m135b714646" x="42.190938" y="98.239949" style="stroke: var(--black); stroke-width: 0.8"/>
      </g>
     </g>
     <g id="text_13" class="text">
      <!-- 2.5 -->
      <g transform="translate(20.878125 101.659246) scale(0.09 -0.09)">
       <use xlink:href="#DejaVuSans-32"/>
       <use xlink:href="#DejaVuSans-2e" transform="translate(63.623047 0)"/>
       <use xlink:href="#DejaVuSans-35" transform="translate(95.410156 0)"/>
      </g>
     </g>
    </g>
    <g class="tick ytick">
     <g id="line2d_25">
      <path d="M 42.190938 63.224584 
L 399.310938 63.224584 
" clip-path="url(#p3bccd29f88)" style="fill: none; stroke: #b0b0b0; stroke-opacity: 0.15; stroke-width: 0.8; stroke-linecap: square"/>
     </g>
     <g id="line2d_26">
      <g>
       <use xlink:href="#m135b714646" x="42.190938" y="63.224584" style="stroke: var(--black); stroke-width: 0.8"/>
      </g>
     </g>
     <g id="text_14" class="text">
      <!-- 3.0 -->
      <g transform="translate(20.878125 66.643881) scale(0.09 -0.09)">
       <use xlink:href="#DejaVuSans-33"/>
       <use xlink:href="#DejaVuSans-2e" transform="translate(63.623047 0)"/>
       <use xlink:href="#DejaVuSans-30" transform="translate(95.410156 0)"/>
      </g>
     </g>
    </g>
    <g class="tick ytick">
     <g id="line2d_27">
      <path d="M 42.190938 28.209219 
L 399.310938 28.209219 
" clip-path="url(#p3bccd29f88)" style="fill: none; stroke: #b0b0b0; stroke-opacity: 0.15; stroke-width: 0.8; stroke-linecap: square"/>
     </g>
     <g id="line2d_28">
      <g>
       <use xlink:href="#m135b714646" x="42.190938" y="28.209219" style="stroke: var(--black); stroke-width: 0.8"/>
      </g>
     </g>
     <g id="text_15" class="text">
      <!-- 3.5 -->
      <g transform="translate(20.878125 31.628516) scale(0.09 -0.09)">
       <use xlink:href="#DejaVuSans-33"/>
       <use xlink:href="#DejaVuSans-2e" transform="translate(63.623047 0)"/>
       <use xlink:href="#DejaVuSans-35" transform="translate(95.410156 0)"/>
      </g>
     </g>
    </g>
    <g id="text_16" class="text">
     <!-- $f(x)$ -->
     <g transform="translate(14.798438 148.906) rotate(-90) scale(0.1 -0.1)">
      <defs>
       <path id="DejaVuSans-Oblique-66" d="M 3059 4863 
L 2969 4384 
L 2419 4384 
Q 2106 4384 1964 4261 
Q 1822 4138 1753 3809 
L 1691 3500 
L 2638 3500 
L 2553 3053 
L 1606 3053 
L 1013 0 
L 434 0 
L 1031 3053 
L 481 3053 
L 563 3500 
L 1113 3500 
L 1159 3744 
Q 1278 4363 1576 4613 
Q 1875 4863 2516 4863 
L 3059 4863 
z
" transform="scale(0.015625)"/>
       <path id="DejaVuSans-28" d="M 1984 4856 
Q 1566 4138 1362 3434 
Q 1159 2731 1159 2009 
Q 1159 1288 1364 580 
Q 1569 -128 1984 -844 
L 1484 -844 
Q 1016 -109 783 600 
Q 550 1309 550 2009 
Q 550 2706 781 3412 
Q 1013 4119 1484 4856 
L 1984 4856 
z
" transform="scale(0.015625)"/>
       <path id="DejaVuSans-29" d="M 513 4856 
L 1013 4856 
Q 1481 4119 1714 3412 
Q 1947 2706 1947 2009 
Q 1947 1309 1714 600 
Q 1481 -109 1013 -844 
L 513 -844 
Q 928 -128 1133 580 
Q 1338 1288 1338 2009 
Q 1338 2731 1133 3434 
Q 928 4138 513 4856 
z
" transform="scale(0.015625)"/>
      </defs>
      <use xlink:href="#DejaVuSans-Oblique-66" transform="translate(0 0.015625)"/>
      <use xlink:href="#DejaVuSans-28" transform="translate(35.205078 0.015625)"/>
      <use xlink:href="#DejaVuSans-Oblique-78" transform="translate(74.21875 0.015625)"/>
      <use xlink:href="#DejaVuSans-29" transform="translate(133.398438 0.015625)"/>
     </g>
    </g>
   </g>
   <g id="line2d_29">
    <path d="M 166.641847 217.292191 
L 168.008238 217.026923 
L 169.374629 216.761655 
L 170.74102 216.496387 
L 172.107411 216.231119 
L 173.473803 215.965851 
L 174.840194 215.700583 
L 176.206585 215.435315 
L 177.572976 215.170047 
L 178.939367 214.904779 
L 180.305758 214.639511 
L 181.67215 214.374243 
L 183.038541 214.108976 
L 184.404932 213.843708 
L 185.771323 213.57844 
L 187.137714 213.313172 
L 188.504106 213.047904 
L 189.870497 212.782636 
L 191.236888 212.517368 
L 192.603279 212.2521 
L 193.96967 211.986832 
L 195.336061 211.721564 
L 196.702453 211.456296 
L 198.068844 211.191028 
L 199.435235 210.925761 
L 200.801626 210.660493 
L 202.168017 210.395225 
L 203.534409 210.129957 
L 204.9008 209.864689 
L 206.267191 209.599421 
L 207.633582 209.334153 
L 208.999973 209.068885 
L 210.366364 208.803617 
L 211.732756 208.538349 
L 213.099147 208.273081 
L 214.465538 208.007813 
L 215.831929 207.742546 
L 217.19832 207.477278 
L 218.564712 207.21201 
L 219.931103 206.946742 
L 221.297494 206.681474 
L 222.663885 206.416206 
L 224.030276 206.150938 
L 225.396668 205.88567 
L 226.763059 205.620402 
L 228.12945 205.355134 
L 229.495841 205.089866 
L 230.862232 204.824598 
L 232.228623 204.559331 
L 233.595015 204.294063 
L 234.961406 204.028795 
L 236.327797 203.763527 
L 237.694188 203.498259 
L 239.060579 203.232991 
L 240.426971 202.967723 
L 241.793362 202.702455 
L 243.159753 202.437187 
L 244.526144 202.171919 
L 245.892535 201.906651 
L 247.258926 201.641383 
L 248.625318 201.376116 
L 249.991709 201.110848 
L 251.3581 200.84558 
L 252.724491 200.580312 
L 254.090882 200.315044 
L 255.457274 200.049776 
L 256.823665 199.784508 
L 258.190056 199.51924 
L 259.556447 199.253972 
L 260.922838 198.988704 
L 262.28923 198.723436 
L 263.655621 198.458168 
L 265.022012 198.192901 
L 266.388403 197.927633 
L 267.754794 197.662365 
L 269.121185 197.397097 
L 270.487577 197.131829 
L 271.853968 196.866561 
L 273.220359 196.601293 
L 274.58675 196.336025 
L 275.953141 196.070757 
L 277.319533 195.805489 
L 278.685924 195.540221 
L 280.052315 195.274953 
L 281.418706 195.009685 
L 282.785097 194.744418 
L 284.151488 194.47915 
L 285.51788 194.213882 
L 286.884271 193.948614 
L 288.250662 193.683346 
L 289.617053 193.418078 
L 290.983444 193.15281 
L 292.349836 192.887542 
L 293.716227 192.622274 
L 295.082618 192.357006 
L 296.449009 192.091738 
L 297.8154 191.82647 
L 299.181791 191.561203 
L 300.548183 191.295935 
L 301.914574 191.030667 
" clip-path="url(#p3bccd29f88)" style="fill: none; stroke-dasharray: 7.4,3.2; stroke-dashoffset: 0; stroke: #8000ff; stroke-opacity: 0.7; stroke-width: 2"/>
   </g>
   <g class="patch">
    <path d="M 42.190938 273.312 
L 42.190938 7.2 
" style="fill: none; stroke: var(--black); stroke-width: 0.8; stroke-linejoin: miter; stroke-linecap: square"/>
   </g>
   <g class="patch">
    <path d="M 42.190938 273.312 
L 399.310938 273.312 
" style="fill: none; stroke: var(--black); stroke-width: 0.8; stroke-linejoin: miter; stroke-linecap: square"/>
   </g>
   <g id="line2d_30">
    <path d="M 58.423665 49.218438 
L 64.949384 64.115508 
L 71.475104 78.401416 
L 78.000823 92.076163 
L 84.526543 105.139747 
L 91.052262 117.59217 
L 97.577982 129.433431 
L 102.472271 137.913301 
L 107.366561 146.049393 
L 112.260851 153.841707 
L 117.15514 161.290242 
L 122.04943 168.394999 
L 126.94372 175.155976 
L 131.838009 181.573176 
L 136.732299 187.646597 
L 141.626588 193.376239 
L 146.520878 198.762103 
L 151.415168 203.804188 
L 156.309457 208.502495 
L 161.203747 212.857023 
L 166.098037 216.867773 
L 170.992326 220.534744 
L 175.886616 223.857936 
L 180.780906 226.83735 
L 185.675195 229.472986 
L 190.569485 231.764843 
L 195.463774 233.712921 
L 200.358064 235.317221 
L 205.252354 236.577742 
L 208.515213 237.227102 
L 211.778073 237.723671 
L 215.040933 238.067449 
L 218.303793 238.258437 
L 221.566652 238.296635 
L 224.829512 238.182042 
L 228.092372 237.914659 
L 231.355232 237.494485 
L 234.618091 236.921521 
L 237.880951 236.195766 
L 242.775241 234.820652 
L 247.66953 233.101759 
L 252.56382 231.039088 
L 257.45811 228.632638 
L 262.352399 225.88241 
L 267.246689 222.788403 
L 272.140979 219.350618 
L 277.035268 215.569054 
L 281.929558 211.443711 
L 286.823848 206.97459 
L 291.718137 202.161691 
L 296.612427 197.005013 
L 301.506716 191.504556 
L 306.401006 185.660321 
L 311.295296 179.472307 
L 316.189585 172.940515 
L 321.083875 166.064944 
L 325.978165 158.845595 
L 330.872454 151.282467 
L 335.766744 143.37556 
L 340.661033 135.124875 
L 345.555323 126.530412 
L 350.449613 117.59217 
L 356.975332 105.139747 
L 363.501052 92.076163 
L 370.026771 78.401416 
L 376.552491 64.115508 
L 383.07821 49.218438 
L 383.07821 49.218438 
" clip-path="url(#p3bccd29f88)" style="fill: none; stroke: #8000ff; stroke-width: 2.5; stroke-linecap: square"/>
   </g>
   <g id="text_17" class="text">
    <!-- $f(x_1)$ -->
    <g transform="translate(154.541847 204.499925) scale(0.11 -0.11)">
     <use xlink:href="#DejaVuSans-Oblique-66" transform="translate(0 0.015625)"/>
     <use xlink:href="#DejaVuSans-28" transform="translate(35.205078 0.015625)"/>
     <use xlink:href="#DejaVuSans-Oblique-78" transform="translate(74.21875 0.015625)"/>
     <use xlink:href="#DejaVuSans-31" transform="translate(133.398438 -16.390625) scale(0.7)"/>
     <use xlink:href="#DejaVuSans-29" transform="translate(180.668945 0.015625)"/>
    </g>
   </g>
   <g id="text_18" class="text">
    <!-- $f(x_2)$ -->
    <g transform="translate(289.814574 178.238401) scale(0.11 -0.11)">
     <use xlink:href="#DejaVuSans-Oblique-66" transform="translate(0 0.015625)"/>
     <use xlink:href="#DejaVuSans-28" transform="translate(35.205078 0.015625)"/>
     <use xlink:href="#DejaVuSans-Oblique-78" transform="translate(74.21875 0.015625)"/>
     <use xlink:href="#DejaVuSans-32" transform="translate(133.398438 -16.390625) scale(0.7)"/>
     <use xlink:href="#DejaVuSans-29" transform="translate(180.668945 0.015625)"/>
    </g>
   </g>
   <g id="text_19" class="text">
    <!-- $x_1$ -->
    <g transform="translate(154.871847 302.684275) scale(0.11 -0.11)">
     <use xlink:href="#DejaVuSans-Oblique-78" transform="translate(0 0.3125)"/>
     <use xlink:href="#DejaVuSans-31" transform="translate(59.179688 -16.09375) scale(0.7)"/>
    </g>
   </g>
   <g id="text_20" class="text">
    <!-- $x_2$ -->
    <g transform="translate(301.914574 302.684275) scale(0.11 -0.11)">
     <use xlink:href="#DejaVuSans-Oblique-78" transform="translate(0 0.3125)"/>
     <use xlink:href="#DejaVuSans-32" transform="translate(59.179688 -16.09375) scale(0.7)"/>
    </g>
   </g>
   <g id="PathCollection_1">
    <defs>
     <path id="m8a762b8a92" d="M 0 4.472136 
C 1.186024 4.472136 2.323632 4.000923 3.162278 3.162278 
C 4.000923 2.323632 4.472136 1.186024 4.472136 0 
C 4.472136 -1.186024 4.000923 -2.323632 3.162278 -3.162278 
C 2.323632 -4.000923 1.186024 -4.472136 0 -4.472136 
C -1.186024 -4.472136 -2.323632 -4.000923 -3.162278 -3.162278 
C -4.000923 -2.323632 -4.472136 -1.186024 -4.472136 0 
C -4.472136 1.186024 -4.000923 2.323632 -3.162278 3.162278 
C -2.323632 4.000923 -1.186024 4.472136 0 4.472136 
z
" style="stroke: var(--white); stroke-width: 1.5"/>
    </defs>
    <g clip-path="url(#p3bccd29f88)">
     <use xlink:href="#m8a762b8a92" x="166.641847" y="217.292191" style="fill: #8000ff; stroke: var(--white); stroke-width: 1.5"/>
    </g>
   </g>
   <g id="PathCollection_2">
    <g clip-path="url(#p3bccd29f88)">
     <use xlink:href="#m8a762b8a92" x="301.914574" y="191.030667" style="fill: #8000ff; stroke: var(--white); stroke-width: 1.5"/>
    </g>
   </g>
   <g class="legend">
    <g class="patch">
     <path d="M 279.160938 40.820625 
L 393.010938 40.820625 
Q 394.810938 40.820625 394.810938 39.020625 
L 394.810938 13.5 
Q 394.810938 11.7 393.010938 11.7 
L 279.160938 11.7 
Q 277.360938 11.7 277.360938 13.5 
L 277.360938 39.020625 
Q 277.360938 40.820625 279.160938 40.820625 
z
" style="fill: var(--white); opacity: 0.9; stroke: #cccccc; stroke-linejoin: miter"/>
    </g>
    <g id="line2d_31">
     <path d="M 280.960938 18.988594 
L 289.960938 18.988594 
L 298.960938 18.988594 
" style="fill: none; stroke: #8000ff; stroke-width: 2.5; stroke-linecap: square"/>
    </g>
    <g id="text_21" class="text">
     <!-- $f(x)$ -->
     <g transform="translate(306.160938 22.138594) scale(0.09 -0.09)">
      <use xlink:href="#DejaVuSans-Oblique-66" transform="translate(0 0.015625)"/>
      <use xlink:href="#DejaVuSans-28" transform="translate(35.205078 0.015625)"/>
      <use xlink:href="#DejaVuSans-Oblique-78" transform="translate(74.21875 0.015625)"/>
      <use xlink:href="#DejaVuSans-29" transform="translate(133.398438 0.015625)"/>
     </g>
    </g>
    <g id="line2d_32">
     <path d="M 280.960938 32.198906 
L 289.960938 32.198906 
L 298.960938 32.198906 
" style="fill: none; stroke-dasharray: 7.4,3.2; stroke-dashoffset: 0; stroke: #8000ff; stroke-opacity: 0.7; stroke-width: 2"/>
    </g>
    <g id="text_22" class="text">
     <!-- $\lambda f(x_1) + (1-\lambda)f(x_2)$ -->
     <g transform="translate(306.160938 35.348906) scale(0.09 -0.09)">
      <defs>
       <path id="DejaVuSans-Oblique-3bb" d="M 2350 4316 
L 3125 0 
L 2516 0 
L 2038 2588 
L 328 0 
L -281 0 
L 1903 3356 
L 1794 3975 
Q 1725 4369 1391 4369 
L 1091 4369 
L 1184 4863 
L 1550 4856 
Q 2253 4847 2350 4316 
z
" transform="scale(0.015625)"/>
       <path id="DejaVuSans-2b" d="M 2944 4013 
L 2944 2272 
L 4684 2272 
L 4684 1741 
L 2944 1741 
L 2944 0 
L 2419 0 
L 2419 1741 
L 678 1741 
L 678 2272 
L 2419 2272 
L 2419 4013 
L 2944 4013 
z
" transform="scale(0.015625)"/>
      </defs>
      <use xlink:href="#DejaVuSans-Oblique-3bb" transform="translate(0 0.015625)"/>
      <use xlink:href="#DejaVuSans-Oblique-66" transform="translate(59.179688 0.015625)"/>
      <use xlink:href="#DejaVuSans-28" transform="translate(94.384766 0.015625)"/>
      <use xlink:href="#DejaVuSans-Oblique-78" transform="translate(133.398438 0.015625)"/>
      <use xlink:href="#DejaVuSans-31" transform="translate(192.578125 -16.390625) scale(0.7)"/>
      <use xlink:href="#DejaVuSans-29" transform="translate(239.848633 0.015625)"/>
      <use xlink:href="#DejaVuSans-2b" transform="translate(298.344727 0.015625)"/>
      <use xlink:href="#DejaVuSans-28" transform="translate(401.616211 0.015625)"/>
      <use xlink:href="#DejaVuSans-31" transform="translate(440.629883 0.015625)"/>
      <use xlink:href="#DejaVuSans-2212" transform="translate(523.735352 0.015625)"/>
      <use xlink:href="#DejaVuSans-Oblique-3bb" transform="translate(627.006836 0.015625)"/>
      <use xlink:href="#DejaVuSans-29" transform="translate(686.186523 0.015625)"/>
      <use xlink:href="#DejaVuSans-Oblique-66" transform="translate(725.200195 0.015625)"/>
      <use xlink:href="#DejaVuSans-28" transform="translate(760.405273 0.015625)"/>
      <use xlink:href="#DejaVuSans-Oblique-78" transform="translate(799.418945 0.015625)"/>
      <use xlink:href="#DejaVuSans-32" transform="translate(858.598633 -16.390625) scale(0.7)"/>
      <use xlink:href="#DejaVuSans-29" transform="translate(905.869141 0.015625)"/>
     </g>
    </g>
   </g>
  </g>
 </g>
 <defs>
  <clipPath id="p3bccd29f88">
   <rect x="42.190938" y="7.2" width="357.12" height="266.112"/>
  </clipPath>
 </defs>
</svg>
