<svg xmlns="http://www.w3.org/2000/svg" xmlns:xlink="http://www.w3.org/1999/xlink" width="542.015" height="416.229" style="--axis-color:#000;--grid-stroke:rgba(0,0,0,0.2);--plot3d-stroke:rgba(0,0,0,0.3);--plot3d-grid:rgba(0,0,0,0.2);--black:#000000;--c1:#FF0001;--c2:#00FF02;--c3:#0000FF;--c4:#FF00FF;--c5:#00FFFF;--c6:#FFFF00;--c7:#FF8000;--c8:#8000FF;--gray:#7f7f7f;--grey:#7f7f7f;--octonary:#bcbd22;--primary:#d62728;--quaternary:#9467bd;--quinary:#8c564b;--secondary:#2ca02c;--senary:#e377c2;--septenary:#7f7f7f;--tertiary:#1f77b4;--white:#ffffff" viewBox="0 0 406.511 312.172"><style><![CDATA[@media (prefers-color-scheme:dark){:root{--axis-color:#fff;--grid-stroke:rgba(255,255,255,0.2);--plot3d-stroke:rgba(255,255,255,0.3);--plot3d-grid:rgba(255,255,255,0.2);--black:#FFFFFF;--c1:#FF0001;--c2:#00FF02;--c3:#0000FF;--c4:#FF00FF;--c5:#00FFFF;--c6:#FFFF00;--c7:#FF8000;--c8:#8000FF;--gray:#CCCCCC;--grey:#CCCCCC;--octonary:#E6DB74;--primary:#FF4A98;--quaternary:#B4A0FF;--quinary:#FFB86B;--secondary:#0AFAFA;--senary:#FF79C6;--septenary:#CCCCCC;--tertiary:#7F83FF;--white:#000000}}.text{fill:var(--axis-color)!important;stroke:none!important}.axis path,.patch path[style*="stroke: currentColor"],.tick path{stroke:var(--axis-color)!important}@media (prefers-color-scheme:dark){g.legend>g:first-child>path:first-child{fill:rgba(26,26,26,.8)!important;stroke:rgba(255,255,255,.1)!important}}*{stroke-linejoin:round;stroke-linecap:butt}]]></style><g id="figure_1"><path d="M0 312.172h406.51V0H0z" class="patch" style="fill:none"/><g id="axes_1"><path d="M42.19 273.312h357.12V7.2H42.19z" class="patch" style="fill:none"/><path id="LineCollection_1" d="M166.642 313.172v-95.88" clip-path="url(#p3bccd29f88)" style="fill:none;stroke-dasharray:2,3.3;stroke-dashoffset:0;stroke:#8000ff;stroke-width:2"/><path id="LineCollection_2" d="M301.915 313.172V191.03" clip-path="url(#p3bccd29f88)" style="fill:none;stroke-dasharray:2,3.3;stroke-dashoffset:0;stroke:#8000ff;stroke-width:2"/><g class="axis"><g class="tick xtick"><path id="line2d_1" d="M58.424 273.312V7.2" clip-path="url(#p3bccd29f88)" style="fill:none;stroke:#b0b0b0;stroke-opacity:.15;stroke-width:.8;stroke-linecap:square"/><g id="line2d_2"><defs><path id="mf09fa34aae" d="M0 0v3.5" style="stroke:var(--black);stroke-width:.8"/></defs><use xlink:href="#mf09fa34aae" x="58.424" y="273.312" style="stroke:var(--black);stroke-width:.8"/></g><g id="text_1" class="text" transform="matrix(.09 0 0 -.09 51.79 287.15)"><defs><path id="DejaVuSans-2212" d="M678 2272h4006v-531H678z" transform="scale(.01563)"/><path id="DejaVuSans-32" d="M1228 531h2203V0H469v531q359 372 979 998 621 627 780 809 303 340 423 576 121 236 121 464 0 372-261 606-261 235-680 235-297 0-627-103-329-103-704-313v638q381 153 712 231 332 78 607 78 725 0 1156-363 431-362 431-968 0-288-108-546-107-257-392-607-78-91-497-524-418-433-1181-1211z" transform="scale(.01563)"/></defs><use xlink:href="#DejaVuSans-2212"/><use xlink:href="#DejaVuSans-32" transform="translate(83.79)"/></g></g><g class="tick xtick"><path id="line2d_3" d="M112.533 273.312V7.2" clip-path="url(#p3bccd29f88)" style="fill:none;stroke:#b0b0b0;stroke-opacity:.15;stroke-width:.8;stroke-linecap:square"/><use xlink:href="#mf09fa34aae" id="line2d_4" x="112.533" y="273.312" style="stroke:var(--black);stroke-width:.8"/><g id="text_2" class="text" transform="matrix(.09 0 0 -.09 105.899 287.15)"><defs><path id="DejaVuSans-31" d="M794 531h1031v3560L703 3866v575l1116 225h631V531h1031V0H794z" transform="scale(.01563)"/></defs><use xlink:href="#DejaVuSans-2212"/><use xlink:href="#DejaVuSans-31" transform="translate(83.79)"/></g></g><g class="tick xtick"><path id="line2d_5" d="M166.642 273.312V7.2" clip-path="url(#p3bccd29f88)" style="fill:none;stroke:#b0b0b0;stroke-opacity:.15;stroke-width:.8;stroke-linecap:square"/><use xlink:href="#mf09fa34aae" id="line2d_6" x="166.642" y="273.312" style="stroke:var(--black);stroke-width:.8"/><g id="text_3" class="text" transform="matrix(.09 0 0 -.09 163.779 287.15)"><defs><path id="DejaVuSans-30" d="M2034 4250q-487 0-733-480-245-479-245-1442 0-959 245-1439 246-480 733-480 491 0 736 480 246 480 246 1439 0 963-246 1442-245 480-736 480zm0 500q785 0 1199-621 414-620 414-1801 0-1178-414-1799Q2819-91 2034-91q-784 0-1198 620-414 621-414 1799 0 1181 414 1801 414 621 1198 621z" transform="scale(.01563)"/></defs><use xlink:href="#DejaVuSans-30"/></g></g><g class="tick xtick"><path id="line2d_7" d="M220.75 273.312V7.2" clip-path="url(#p3bccd29f88)" style="fill:none;stroke:#b0b0b0;stroke-opacity:.15;stroke-width:.8;stroke-linecap:square"/><use xlink:href="#mf09fa34aae" id="line2d_8" x="220.751" y="273.312" style="stroke:var(--black);stroke-width:.8"/><use xlink:href="#DejaVuSans-31" id="text_4" class="text" transform="matrix(.09 0 0 -.09 217.888 287.15)"/></g><g class="tick xtick"><path id="line2d_9" d="M274.86 273.312V7.2" clip-path="url(#p3bccd29f88)" style="fill:none;stroke:#b0b0b0;stroke-opacity:.15;stroke-width:.8;stroke-linecap:square"/><use xlink:href="#mf09fa34aae" id="line2d_10" x="274.86" y="273.312" style="stroke:var(--black);stroke-width:.8"/><use xlink:href="#DejaVuSans-32" id="text_5" class="text" transform="matrix(.09 0 0 -.09 271.997 287.15)"/></g><g class="tick xtick"><path id="line2d_11" d="M328.97 273.312V7.2" clip-path="url(#p3bccd29f88)" style="fill:none;stroke:#b0b0b0;stroke-opacity:.15;stroke-width:.8;stroke-linecap:square"/><use xlink:href="#mf09fa34aae" id="line2d_12" x="328.969" y="273.312" style="stroke:var(--black);stroke-width:.8"/><g id="text_6" class="text" transform="matrix(.09 0 0 -.09 326.106 287.15)"><defs><path id="DejaVuSans-33" d="M2597 2516q453-97 707-404 255-306 255-756 0-690-475-1069Q2609-91 1734-91q-293 0-604 58T488 141v609q262-153 574-231 313-78 654-78 593 0 904 234t311 681q0 413-289 645-289 233-804 233h-544v519h569q465 0 712 186t247 536q0 359-255 551-254 193-729 193-260 0-557-57-297-56-653-174v562q360 100 674 150t592 50q719 0 1137-327 419-326 419-882 0-388-222-655t-631-370z" transform="scale(.01563)"/></defs><use xlink:href="#DejaVuSans-33"/></g></g><g class="tick xtick"><path id="line2d_13" d="M383.078 273.312V7.2" clip-path="url(#p3bccd29f88)" style="fill:none;stroke:#b0b0b0;stroke-opacity:.15;stroke-width:.8;stroke-linecap:square"/><use xlink:href="#mf09fa34aae" id="line2d_14" x="383.078" y="273.312" style="stroke:var(--black);stroke-width:.8"/><g id="text_7" class="text" transform="matrix(.09 0 0 -.09 380.215 287.15)"><defs><path id="DejaVuSans-34" d="M2419 4116 825 1625h1594zm-166 550h794V1625h666v-525h-666V0h-628v1100H313v609z" transform="scale(.01563)"/></defs><use xlink:href="#DejaVuSans-34"/></g></g><g id="text_8" class="text" transform="matrix(.1 0 0 -.1 217.75 300.62)"><defs><path id="DejaVuSans-Oblique-78" d="M3841 3500 2234 1784 3219 0h-660l-740 1388L531 0h-697l1722 1844-915 1656h659l672-1266 1172 1266z" transform="scale(.01563)"/></defs><use xlink:href="#DejaVuSans-Oblique-78" transform="translate(0 .313)"/></g></g><g class="axis"><g class="tick ytick"><path id="line2d_15" d="M42.19 238.301h357.12" clip-path="url(#p3bccd29f88)" style="fill:none;stroke:#b0b0b0;stroke-opacity:.15;stroke-width:.8;stroke-linecap:square"/><g id="line2d_16"><defs><path id="m135b714646" d="M0 0h-3.5" style="stroke:var(--black);stroke-width:.8"/></defs><use xlink:href="#m135b714646" x="42.191" y="238.301" style="stroke:var(--black);stroke-width:.8"/></g><g id="text_9" class="text" transform="matrix(.09 0 0 -.09 20.878 241.72)"><defs><path id="DejaVuSans-2e" d="M684 794h660V0H684z" transform="scale(.01563)"/><path id="DejaVuSans-35" d="M691 4666h2478v-532H1269V2991q137 47 274 70 138 23 276 23 781 0 1237-428 457-428 457-1159 0-753-469-1171Q2575-91 1722-91q-294 0-599 50Q819 9 494 109v635q281-153 581-228t634-75q541 0 856 284 316 284 316 772 0 487-316 771-315 285-856 285-253 0-505-56-251-56-513-175z" transform="scale(.01563)"/></defs><use xlink:href="#DejaVuSans-30"/><use xlink:href="#DejaVuSans-2e" transform="translate(63.623)"/><use xlink:href="#DejaVuSans-35" transform="translate(95.41)"/></g></g><g class="tick ytick"><path id="line2d_17" d="M42.19 203.286h357.12" clip-path="url(#p3bccd29f88)" style="fill:none;stroke:#b0b0b0;stroke-opacity:.15;stroke-width:.8;stroke-linecap:square"/><use xlink:href="#m135b714646" id="line2d_18" x="42.191" y="203.286" style="stroke:var(--black);stroke-width:.8"/><g id="text_10" class="text" transform="matrix(.09 0 0 -.09 20.878 206.705)"><use xlink:href="#DejaVuSans-31"/><use xlink:href="#DejaVuSans-2e" transform="translate(63.623)"/><use xlink:href="#DejaVuSans-30" transform="translate(95.41)"/></g></g><g class="tick ytick"><path id="line2d_19" d="M42.19 168.27h357.12" clip-path="url(#p3bccd29f88)" style="fill:none;stroke:#b0b0b0;stroke-opacity:.15;stroke-width:.8;stroke-linecap:square"/><use xlink:href="#m135b714646" id="line2d_20" x="42.191" y="168.271" style="stroke:var(--black);stroke-width:.8"/><g id="text_11" class="text" transform="matrix(.09 0 0 -.09 20.878 171.69)"><use xlink:href="#DejaVuSans-31"/><use xlink:href="#DejaVuSans-2e" transform="translate(63.623)"/><use xlink:href="#DejaVuSans-35" transform="translate(95.41)"/></g></g><g class="tick ytick"><path id="line2d_21" d="M42.19 133.255h357.12" clip-path="url(#p3bccd29f88)" style="fill:none;stroke:#b0b0b0;stroke-opacity:.15;stroke-width:.8;stroke-linecap:square"/><use xlink:href="#m135b714646" id="line2d_22" x="42.191" y="133.255" style="stroke:var(--black);stroke-width:.8"/><g id="text_12" class="text" transform="matrix(.09 0 0 -.09 20.878 136.675)"><use xlink:href="#DejaVuSans-32"/><use xlink:href="#DejaVuSans-2e" transform="translate(63.623)"/><use xlink:href="#DejaVuSans-30" transform="translate(95.41)"/></g></g><g class="tick ytick"><path id="line2d_23" d="M42.19 98.24h357.12" clip-path="url(#p3bccd29f88)" style="fill:none;stroke:#b0b0b0;stroke-opacity:.15;stroke-width:.8;stroke-linecap:square"/><use xlink:href="#m135b714646" id="line2d_24" x="42.191" y="98.24" style="stroke:var(--black);stroke-width:.8"/><g id="text_13" class="text" transform="matrix(.09 0 0 -.09 20.878 101.66)"><use xlink:href="#DejaVuSans-32"/><use xlink:href="#DejaVuSans-2e" transform="translate(63.623)"/><use xlink:href="#DejaVuSans-35" transform="translate(95.41)"/></g></g><g class="tick ytick"><path id="line2d_25" d="M42.19 63.225h357.12" clip-path="url(#p3bccd29f88)" style="fill:none;stroke:#b0b0b0;stroke-opacity:.15;stroke-width:.8;stroke-linecap:square"/><use xlink:href="#m135b714646" id="line2d_26" x="42.191" y="63.225" style="stroke:var(--black);stroke-width:.8"/><g id="text_14" class="text" transform="matrix(.09 0 0 -.09 20.878 66.644)"><use xlink:href="#DejaVuSans-33"/><use xlink:href="#DejaVuSans-2e" transform="translate(63.623)"/><use xlink:href="#DejaVuSans-30" transform="translate(95.41)"/></g></g><g class="tick ytick"><path id="line2d_27" d="M42.19 28.21h357.12" clip-path="url(#p3bccd29f88)" style="fill:none;stroke:#b0b0b0;stroke-opacity:.15;stroke-width:.8;stroke-linecap:square"/><use xlink:href="#m135b714646" id="line2d_28" x="42.191" y="28.209" style="stroke:var(--black);stroke-width:.8"/><g id="text_15" class="text" transform="matrix(.09 0 0 -.09 20.878 31.629)"><use xlink:href="#DejaVuSans-33"/><use xlink:href="#DejaVuSans-2e" transform="translate(63.623)"/><use xlink:href="#DejaVuSans-35" transform="translate(95.41)"/></g></g><g id="text_16" class="text" transform="matrix(0 -.1 -.1 0 14.798 148.906)"><defs><path id="DejaVuSans-Oblique-66" d="m3059 4863-90-479h-550q-313 0-455-123t-211-452l-62-309h947l-85-447h-947L1013 0H434l597 3053H481l82 447h550l46 244q119 619 417 869 299 250 940 250z" transform="scale(.01563)"/><path id="DejaVuSans-28" d="M1984 4856q-418-718-622-1422-203-703-203-1425 0-721 205-1429t620-1424h-500Q1016-109 783 600T550 2009q0 697 231 1403 232 707 703 1444z" transform="scale(.01563)"/><path id="DejaVuSans-29" d="M513 4856h500q468-737 701-1444 233-706 233-1403 0-700-233-1409T1013-844H513q415 716 620 1424t205 1429q0 722-205 1425-205 704-620 1422z" transform="scale(.01563)"/></defs><use xlink:href="#DejaVuSans-Oblique-66" transform="translate(0 .016)"/><use xlink:href="#DejaVuSans-28" transform="translate(35.205 .016)"/><use xlink:href="#DejaVuSans-Oblique-78" transform="translate(74.219 .016)"/><use xlink:href="#DejaVuSans-29" transform="translate(133.398 .016)"/></g></g><path id="line2d_29" d="m166.642 217.292 1.366-.265 1.367-.265 1.366-.266 1.366-.265 1.367-.265 1.366-.265 1.367-.266 1.366-.265 1.366-.265 1.367-.265 1.366-.266 1.367-.265 1.366-.265 1.366-.266 1.367-.265 1.366-.265 1.366-.265 1.367-.266 1.366-.265 1.367-.265 1.366-.265 1.366-.266 1.367-.265 1.366-.265 1.367-.266 1.366-.265 1.366-.265 1.367-.265 1.366-.266 1.367-.265 1.366-.265 1.366-.265 1.367-.266 1.366-.265 1.367-.265 1.366-.265 1.366-.266 1.367-.265 1.366-.265 1.366-.266 1.367-.265 1.366-.265 1.367-.265 1.366-.266 1.366-.265 1.367-.265 1.366-.265 1.367-.266 1.366-.265 1.366-.265 1.367-.265 1.366-.266 1.367-.265 1.366-.265 1.366-.266 1.367-.265 1.366-.265 1.367-.265 1.366-.266 1.366-.265 1.367-.265 1.366-.265 1.366-.266 1.367-.265 1.366-.265 1.367-.265 1.366-.266 1.366-.265 1.367-.265 1.366-.266 1.367-.265 1.366-.265 1.366-.265 1.367-.266 1.366-.265 1.367-.265 1.366-.265 1.366-.266 1.367-.265 1.366-.265 1.367-.266 1.366-.265 1.366-.265 1.367-.265 1.366-.266 1.366-.265 1.367-.265 1.366-.265 1.367-.266 1.366-.265 1.366-.265 1.367-.265 1.366-.266 1.367-.265 1.366-.265 1.366-.266 1.367-.265 1.366-.265 1.367-.265" clip-path="url(#p3bccd29f88)" style="fill:none;stroke-dasharray:7.4,3.2;stroke-dashoffset:0;stroke:#8000ff;stroke-opacity:.7;stroke-width:2"/><path d="M42.19 273.312V7.2M42.19 273.312h357.12" class="patch" style="fill:none;stroke:var(--black);stroke-width:.8;stroke-linejoin:miter;stroke-linecap:square"/><path id="line2d_30" d="m58.424 49.218 6.525 14.898L71.475 78.4l6.526 13.675 6.526 13.064 6.525 12.452 6.526 11.841 4.894 8.48 4.895 8.136 4.894 7.793 4.894 7.448 4.894 7.105 4.895 6.761 4.894 6.417 4.894 6.074 4.895 5.73 4.894 5.385 4.894 5.042 4.894 4.698 4.895 4.355 4.894 4.01 4.894 3.668 4.895 3.323 4.894 2.98 4.894 2.635 4.894 2.292 4.895 1.948 4.894 1.604 4.894 1.26 3.263.65 3.263.497 3.263.343 3.263.191 3.263.039 3.263-.115 3.262-.267 3.263-.42 3.263-.573 3.263-.726 4.894-1.375 4.895-1.72 4.894-2.062 4.894-2.406 4.894-2.75 4.895-3.095 4.894-3.437 4.894-3.782 4.895-4.125 4.894-4.47 4.894-4.812 4.894-5.157 4.895-5.5 4.894-5.845 4.894-6.188 4.895-6.531 4.894-6.876 4.894-7.22 4.894-7.563 4.895-7.906 4.894-8.251 4.894-8.595 4.895-8.938 6.525-12.452 6.526-13.064 6.526-13.675 6.525-14.285 6.526-14.898h0" clip-path="url(#p3bccd29f88)" style="fill:none;stroke:#8000ff;stroke-width:2.5;stroke-linecap:square"/><g id="text_17" class="text" transform="matrix(.11 0 0 -.11 154.542 204.5)"><use xlink:href="#DejaVuSans-Oblique-66" transform="translate(0 .016)"/><use xlink:href="#DejaVuSans-28" transform="translate(35.205 .016)"/><use xlink:href="#DejaVuSans-Oblique-78" transform="translate(74.219 .016)"/><use xlink:href="#DejaVuSans-31" transform="matrix(.7 0 0 .7 133.398 -16.39)"/><use xlink:href="#DejaVuSans-29" transform="translate(180.669 .016)"/></g><g id="text_18" class="text" transform="matrix(.11 0 0 -.11 289.815 178.238)"><use xlink:href="#DejaVuSans-Oblique-66" transform="translate(0 .016)"/><use xlink:href="#DejaVuSans-28" transform="translate(35.205 .016)"/><use xlink:href="#DejaVuSans-Oblique-78" transform="translate(74.219 .016)"/><use xlink:href="#DejaVuSans-32" transform="matrix(.7 0 0 .7 133.398 -16.39)"/><use xlink:href="#DejaVuSans-29" transform="translate(180.669 .016)"/></g><g id="text_19" class="text" transform="matrix(.11 0 0 -.11 154.872 302.684)"><use xlink:href="#DejaVuSans-Oblique-78" transform="translate(0 .313)"/><use xlink:href="#DejaVuSans-31" transform="matrix(.7 0 0 .7 59.18 -16.094)"/></g><g id="text_20" class="text" transform="matrix(.11 0 0 -.11 301.915 302.684)"><use xlink:href="#DejaVuSans-Oblique-78" transform="translate(0 .313)"/><use xlink:href="#DejaVuSans-32" transform="matrix(.7 0 0 .7 59.18 -16.094)"/></g><g id="PathCollection_1"><defs><path id="m8a762b8a92" d="M0 4.472a4.472 4.472 0 1 0 0-8.945 4.472 4.472 0 0 0 0 8.945z" style="stroke:var(--white);stroke-width:1.5"/></defs><g clip-path="url(#p3bccd29f88)"><use xlink:href="#m8a762b8a92" x="166.642" y="217.292" style="fill:#8000ff;stroke:var(--white);stroke-width:1.5"/></g></g><g id="PathCollection_2" clip-path="url(#p3bccd29f88)"><use xlink:href="#m8a762b8a92" x="301.915" y="191.031" style="fill:#8000ff;stroke:var(--white);stroke-width:1.5"/></g><g class="legend"><path d="M279.16 40.82h113.85q1.8 0 1.8-1.8V13.5q0-1.8-1.8-1.8H279.16q-1.8 0-1.8 1.8v25.52q0 1.8 1.8 1.8z" class="patch" style="fill:rgba(255,255,255,.8)!important;opacity:.9;stroke:rgba(0,0,0,.1)!important;stroke-linejoin:miter"/><path id="line2d_31" d="M280.96 18.989h18" style="fill:none;stroke:#8000ff;stroke-width:2.5;stroke-linecap:square"/><g id="text_21" class="text" transform="matrix(.09 0 0 -.09 306.16 22.139)"><use xlink:href="#DejaVuSans-Oblique-66" transform="translate(0 .016)"/><use xlink:href="#DejaVuSans-28" transform="translate(35.205 .016)"/><use xlink:href="#DejaVuSans-Oblique-78" transform="translate(74.219 .016)"/><use xlink:href="#DejaVuSans-29" transform="translate(133.398 .016)"/></g><path id="line2d_32" d="M280.96 32.199h18" style="fill:none;stroke-dasharray:7.4,3.2;stroke-dashoffset:0;stroke:#8000ff;stroke-opacity:.7;stroke-width:2"/><g id="text_22" class="text" transform="matrix(.09 0 0 -.09 306.16 35.349)"><defs><path id="DejaVuSans-Oblique-3bb" d="M2350 4316 3125 0h-609l-478 2588L328 0h-609l2184 3356-109 619q-69 394-403 394h-300l93 494 366-7q703-9 800-540" transform="scale(.01563)"/><path id="DejaVuSans-2b" d="M2944 4013V2272h1740v-531H2944V0h-525v1741H678v531h1741v1741z" transform="scale(.01563)"/></defs><use xlink:href="#DejaVuSans-Oblique-3bb" transform="translate(0 .016)"/><use xlink:href="#DejaVuSans-Oblique-66" transform="translate(59.18 .016)"/><use xlink:href="#DejaVuSans-28" transform="translate(94.385 .016)"/><use xlink:href="#DejaVuSans-Oblique-78" transform="translate(133.398 .016)"/><use xlink:href="#DejaVuSans-31" transform="matrix(.7 0 0 .7 192.578 -16.39)"/><use xlink:href="#DejaVuSans-29" transform="translate(239.849 .016)"/><use xlink:href="#DejaVuSans-2b" transform="translate(298.345 .016)"/><use xlink:href="#DejaVuSans-28" transform="translate(401.616 .016)"/><use xlink:href="#DejaVuSans-31" transform="translate(440.63 .016)"/><use xlink:href="#DejaVuSans-2212" transform="translate(523.735 .016)"/><use xlink:href="#DejaVuSans-Oblique-3bb" transform="translate(627.007 .016)"/><use xlink:href="#DejaVuSans-29" transform="translate(686.187 .016)"/><use xlink:href="#DejaVuSans-Oblique-66" transform="translate(725.2 .016)"/><use xlink:href="#DejaVuSans-28" transform="translate(760.405 .016)"/><use xlink:href="#DejaVuSans-Oblique-78" transform="translate(799.419 .016)"/><use xlink:href="#DejaVuSans-32" transform="matrix(.7 0 0 .7 858.599 -16.39)"/><use xlink:href="#DejaVuSans-29" transform="translate(905.87 .016)"/></g></g></g></g><defs><clipPath id="p3bccd29f88"><path d="M42.191 7.2h357.12v266.112H42.191z"/></clipPath></defs></svg>