<?xml version="1.0" encoding="utf-8" standalone="no"?>
<!DOCTYPE svg PUBLIC "-//W3C//DTD SVG 1.1//EN"
  "http://www.w3.org/Graphics/SVG/1.1/DTD/svg11.dtd">
<svg xmlns:xlink="http://www.w3.org/1999/xlink" width="371.52pt" height="164.253465pt" viewBox="0 0 371.52 164.253465" xmlns="http://www.w3.org/2000/svg" version="1.1">
<style>/* === RDF autogenerated palette === */
:root {
    --axis-color: #000;
    --grid-stroke: rgba(0,0,0,0.2);
    --plot3d-stroke: rgba(0,0,0,0.3);
    --plot3d-grid: rgba(0,0,0,0.2);
}
@media (prefers-color-scheme: dark) {
    :root {
        --axis-color: #fff;
        --grid-stroke: rgba(255,255,255,0.2);
        --plot3d-stroke: rgba(255,255,255,0.3);
        --plot3d-grid: rgba(255,255,255,0.2);
    }
}

/* Light‑mode palette */
.black { fill:#000000; stroke:#000000; }:root { --black: #000000; }.c1 { fill:#FF0001; stroke:#FF0001; }:root { --c1: #FF0001; }.c2 { fill:#00FF02; stroke:#00FF02; }:root { --c2: #00FF02; }.c3 { fill:#0000FF; stroke:#0000FF; }:root { --c3: #0000FF; }.c4 { fill:#FF00FF; stroke:#FF00FF; }:root { --c4: #FF00FF; }.c5 { fill:#00FFFF; stroke:#00FFFF; }:root { --c5: #00FFFF; }.c6 { fill:#FFFF00; stroke:#FFFF00; }:root { --c6: #FFFF00; }.c7 { fill:#FF8000; stroke:#FF8000; }:root { --c7: #FF8000; }.c8 { fill:#8000FF; stroke:#8000FF; }:root { --c8: #8000FF; }.gray { fill:#7f7f7f; stroke:#7f7f7f; }:root { --gray: #7f7f7f; }.grey { fill:#7f7f7f; stroke:#7f7f7f; }:root { --grey: #7f7f7f; }.octonary { fill:#bcbd22; stroke:#bcbd22; }:root { --octonary: #bcbd22; }.primary { fill:#d62728; stroke:#d62728; }:root { --primary: #d62728; }.quaternary { fill:#9467bd; stroke:#9467bd; }:root { --quaternary: #9467bd; }.quinary { fill:#8c564b; stroke:#8c564b; }:root { --quinary: #8c564b; }.secondary { fill:#2ca02c; stroke:#2ca02c; }:root { --secondary: #2ca02c; }.senary { fill:#e377c2; stroke:#e377c2; }:root { --senary: #e377c2; }.septenary { fill:#7f7f7f; stroke:#7f7f7f; }:root { --septenary: #7f7f7f; }.tertiary { fill:#1f77b4; stroke:#1f77b4; }:root { --tertiary: #1f77b4; }.white { fill:#ffffff; stroke:#ffffff; }:root { --white: #ffffff; }

/* Dark overrides */
@media (prefers-color-scheme: dark) {
    .black { fill:#FFFFFF; stroke:#FFFFFF; }:root { --black: #FFFFFF; }.c1 { fill:#FF0001; stroke:#FF0001; }:root { --c1: #FF0001; }.c2 { fill:#00FF02; stroke:#00FF02; }:root { --c2: #00FF02; }.c3 { fill:#0000FF; stroke:#0000FF; }:root { --c3: #0000FF; }.c4 { fill:#FF00FF; stroke:#FF00FF; }:root { --c4: #FF00FF; }.c5 { fill:#00FFFF; stroke:#00FFFF; }:root { --c5: #00FFFF; }.c6 { fill:#FFFF00; stroke:#FFFF00; }:root { --c6: #FFFF00; }.c7 { fill:#FF8000; stroke:#FF8000; }:root { --c7: #FF8000; }.c8 { fill:#8000FF; stroke:#8000FF; }:root { --c8: #8000FF; }.gray { fill:#CCCCCC; stroke:#CCCCCC; }:root { --gray: #CCCCCC; }.grey { fill:#CCCCCC; stroke:#CCCCCC; }:root { --grey: #CCCCCC; }.octonary { fill:#E6DB74; stroke:#E6DB74; }:root { --octonary: #E6DB74; }.primary { fill:#FF4A98; stroke:#FF4A98; }:root { --primary: #FF4A98; }.quaternary { fill:#B4A0FF; stroke:#B4A0FF; }:root { --quaternary: #B4A0FF; }.quinary { fill:#FFB86B; stroke:#FFB86B; }:root { --quinary: #FFB86B; }.secondary { fill:#0AFAFA; stroke:#0AFAFA; }:root { --secondary: #0AFAFA; }.senary { fill:#FF79C6; stroke:#FF79C6; }:root { --senary: #FF79C6; }.septenary { fill:#CCCCCC; stroke:#CCCCCC; }:root { --septenary: #CCCCCC; }.tertiary { fill:#7F83FF; stroke:#7F83FF; }:root { --tertiary: #7F83FF; }.white { fill:#000000; stroke:#000000; }:root { --white: #000000; }
}/* Axis, ticks, legend */
text, .text { fill: var(--axis-color) !important; stroke: none !important; }
.axis line, .axis path,
.tick line, .tick path,
path.domain,
line.grid { stroke: var(--axis-color) !important; }
.legend text { fill: var(--axis-color) !important; }

/* Patch paths that relied on currentColor */
.patch path[style*="stroke: currentColor"] { stroke: var(--axis-color) !important; }

/* Legend background (first child of legend group) */
g.legend > g:first-child > path:first-child {
    fill: rgba(255,255,255,0.8) !important;
    stroke: rgba(0,0,0,0.1) !important;
}
@media (prefers-color-scheme: dark) {
    g.legend > g:first-child > path:first-child {
        fill: rgba(26,26,26,0.8) !important;
        stroke: rgba(255,255,255,0.1) !important;
    }
}

/* 3‑D specific rules */
.plot3d path, .plot3d polygon {
    stroke: var(--plot3d-stroke) !important;
}
.plot3d-grid line { stroke: var(--plot3d-grid) !important; }
.plot3d-surface path[style*="fill:"] {
    fill-opacity: 0.9 !important;
}
@media (prefers-color-scheme: dark) {
    .plot3d-surface path[style*="fill:"] {
        fill-opacity: 0.95 !important;
        filter: saturate(1.2) !important;
    }
}</style>

 <metadata>
  <rdf:RDF xmlns:dc="http://purl.org/dc/elements/1.1/" xmlns:cc="http://creativecommons.org/ns#" xmlns:rdf="http://www.w3.org/1999/02/22-rdf-syntax-ns#">
   <cc:Work>
    <dc:type rdf:resource="http://purl.org/dc/dcmitype/StillImage"/>
    <dc:date>2025-09-15T16:43:56.150690</dc:date>
    <dc:format>image/svg+xml</dc:format>
    <dc:creator>
     <cc:Agent>
      <dc:title>Matplotlib v3.10.1, https://matplotlib.org/</dc:title>
     </cc:Agent>
    </dc:creator>
   </cc:Work>
  </rdf:RDF>
 </metadata>
 <defs>
  <style type="text/css">*{stroke-linejoin: round; stroke-linecap: butt}</style>
 </defs>
 <g id="figure_1">
  <g class="patch">
   <path d="M 0 164.253465 
L 371.52 164.253465 
L 371.52 0 
L 0 0 
L 0 164.253465 
z
" style="fill: none"/>
  </g>
  <g id="axes_1">
   <g class="patch">
    <path d="M 7.2 157.053465 
L 162.469565 157.053465 
L 162.469565 32.837812 
L 7.2 32.837812 
L 7.2 157.053465 
z
" style="fill: none"/>
   </g>
   <g class="patch">
    <path d="M 92.068392 121.941838 
C 104.000852 118.744545 114.684016 112.833284 121.765043 105.509943 
C 128.846069 98.186602 131.746823 90.049098 129.828448 82.889622 
C 127.910072 75.730147 121.329193 70.133239 111.535174 67.331552 
C 101.741154 64.529866 89.533632 64.752147 77.601173 67.94944 
C 65.668713 71.146732 54.985549 77.057993 47.904523 84.381334 
C 40.823496 91.704675 37.922742 99.842179 39.841118 107.001655 
C 41.759493 114.16113 48.340372 119.758038 58.134392 122.559725 
C 67.928411 125.361411 80.135933 125.13913 92.068392 121.941838 
z
" clip-path="url(#p957f67b15c)" style="fill: #8000ff; stroke: #8000ff; stroke-width: 2; stroke-linejoin: miter"/>
   </g>
   <g class="axis"/>
   <g class="axis"/>
   <g id="text_1" class="text">
    <!-- $x_1$ -->
    <g transform="translate(47.36087 107.367204) scale(0.12 -0.12)">
     <defs>
      <path id="DejaVuSans-Oblique-78" d="M 3841 3500 
L 2234 1784 
L 3219 0 
L 2559 0 
L 1819 1388 
L 531 0 
L -166 0 
L 1556 1844 
L 641 3500 
L 1300 3500 
L 1972 2234 
L 3144 3500 
L 3841 3500 
z
" transform="scale(0.015625)"/>
      <path id="DejaVuSans-31" d="M 794 531 
L 1825 531 
L 1825 4091 
L 703 3866 
L 703 4441 
L 1819 4666 
L 2450 4666 
L 2450 531 
L 3481 531 
L 3481 0 
L 794 0 
L 794 531 
z
" transform="scale(0.015625)"/>
     </defs>
     <use xlink:href="#DejaVuSans-Oblique-78" transform="translate(0 0.3125)"/>
     <use xlink:href="#DejaVuSans-31" transform="translate(59.179688 -16.09375) scale(0.7)"/>
    </g>
   </g>
   <g id="text_2" class="text">
    <!-- $x_2$ -->
    <g transform="translate(103.257913 82.524073) scale(0.12 -0.12)">
     <defs>
      <path id="DejaVuSans-32" d="M 1228 531 
L 3431 531 
L 3431 0 
L 469 0 
L 469 531 
Q 828 903 1448 1529 
Q 2069 2156 2228 2338 
Q 2531 2678 2651 2914 
Q 2772 3150 2772 3378 
Q 2772 3750 2511 3984 
Q 2250 4219 1831 4219 
Q 1534 4219 1204 4116 
Q 875 4013 500 3803 
L 500 4441 
Q 881 4594 1212 4672 
Q 1544 4750 1819 4750 
Q 2544 4750 2975 4387 
Q 3406 4025 3406 3419 
Q 3406 3131 3298 2873 
Q 3191 2616 2906 2266 
Q 2828 2175 2409 1742 
Q 1991 1309 1228 531 
z
" transform="scale(0.015625)"/>
     </defs>
     <use xlink:href="#DejaVuSans-Oblique-78" transform="translate(0 0.3125)"/>
     <use xlink:href="#DejaVuSans-32" transform="translate(59.179688 -16.09375) scale(0.7)"/>
    </g>
   </g>
   <g id="text_3" class="text">
    <!-- Convex Set -->
    <g transform="translate(40.507283 17.837812) scale(0.14 -0.14)">
     <defs>
      <path id="DejaVuSans-Bold-43" d="M 4288 256 
Q 3956 84 3597 -3 
Q 3238 -91 2847 -91 
Q 1681 -91 1000 561 
Q 319 1213 319 2328 
Q 319 3447 1000 4098 
Q 1681 4750 2847 4750 
Q 3238 4750 3597 4662 
Q 3956 4575 4288 4403 
L 4288 3438 
Q 3953 3666 3628 3772 
Q 3303 3878 2944 3878 
Q 2300 3878 1931 3465 
Q 1563 3053 1563 2328 
Q 1563 1606 1931 1193 
Q 2300 781 2944 781 
Q 3303 781 3628 887 
Q 3953 994 4288 1222 
L 4288 256 
z
" transform="scale(0.015625)"/>
      <path id="DejaVuSans-Bold-6f" d="M 2203 2784 
Q 1831 2784 1636 2517 
Q 1441 2250 1441 1747 
Q 1441 1244 1636 976 
Q 1831 709 2203 709 
Q 2569 709 2762 976 
Q 2956 1244 2956 1747 
Q 2956 2250 2762 2517 
Q 2569 2784 2203 2784 
z
M 2203 3584 
Q 3106 3584 3614 3096 
Q 4122 2609 4122 1747 
Q 4122 884 3614 396 
Q 3106 -91 2203 -91 
Q 1297 -91 786 396 
Q 275 884 275 1747 
Q 275 2609 786 3096 
Q 1297 3584 2203 3584 
z
" transform="scale(0.015625)"/>
      <path id="DejaVuSans-Bold-6e" d="M 4056 2131 
L 4056 0 
L 2931 0 
L 2931 347 
L 2931 1631 
Q 2931 2084 2911 2256 
Q 2891 2428 2841 2509 
Q 2775 2619 2662 2680 
Q 2550 2741 2406 2741 
Q 2056 2741 1856 2470 
Q 1656 2200 1656 1722 
L 1656 0 
L 538 0 
L 538 3500 
L 1656 3500 
L 1656 2988 
Q 1909 3294 2193 3439 
Q 2478 3584 2822 3584 
Q 3428 3584 3742 3212 
Q 4056 2841 4056 2131 
z
" transform="scale(0.015625)"/>
      <path id="DejaVuSans-Bold-76" d="M 97 3500 
L 1216 3500 
L 2088 1081 
L 2956 3500 
L 4078 3500 
L 2700 0 
L 1472 0 
L 97 3500 
z
" transform="scale(0.015625)"/>
      <path id="DejaVuSans-Bold-65" d="M 4031 1759 
L 4031 1441 
L 1416 1441 
Q 1456 1047 1700 850 
Q 1944 653 2381 653 
Q 2734 653 3104 758 
Q 3475 863 3866 1075 
L 3866 213 
Q 3469 63 3072 -14 
Q 2675 -91 2278 -91 
Q 1328 -91 801 392 
Q 275 875 275 1747 
Q 275 2603 792 3093 
Q 1309 3584 2216 3584 
Q 3041 3584 3536 3087 
Q 4031 2591 4031 1759 
z
M 2881 2131 
Q 2881 2450 2695 2645 
Q 2509 2841 2209 2841 
Q 1884 2841 1681 2658 
Q 1478 2475 1428 2131 
L 2881 2131 
z
" transform="scale(0.015625)"/>
      <path id="DejaVuSans-Bold-78" d="M 1422 1791 
L 159 3500 
L 1344 3500 
L 2059 2463 
L 2784 3500 
L 3969 3500 
L 2706 1797 
L 4031 0 
L 2847 0 
L 2059 1106 
L 1281 0 
L 97 0 
L 1422 1791 
z
" transform="scale(0.015625)"/>
      <path id="DejaVuSans-Bold-20" transform="scale(0.015625)"/>
      <path id="DejaVuSans-Bold-53" d="M 3834 4519 
L 3834 3531 
Q 3450 3703 3084 3790 
Q 2719 3878 2394 3878 
Q 1963 3878 1756 3759 
Q 1550 3641 1550 3391 
Q 1550 3203 1689 3098 
Q 1828 2994 2194 2919 
L 2706 2816 
Q 3484 2659 3812 2340 
Q 4141 2022 4141 1434 
Q 4141 663 3683 286 
Q 3225 -91 2284 -91 
Q 1841 -91 1394 -6 
Q 947 78 500 244 
L 500 1259 
Q 947 1022 1364 901 
Q 1781 781 2169 781 
Q 2563 781 2772 912 
Q 2981 1044 2981 1288 
Q 2981 1506 2839 1625 
Q 2697 1744 2272 1838 
L 1806 1941 
Q 1106 2091 782 2419 
Q 459 2747 459 3303 
Q 459 4000 909 4375 
Q 1359 4750 2203 4750 
Q 2588 4750 2994 4692 
Q 3400 4634 3834 4519 
z
" transform="scale(0.015625)"/>
      <path id="DejaVuSans-Bold-74" d="M 1759 4494 
L 1759 3500 
L 2913 3500 
L 2913 2700 
L 1759 2700 
L 1759 1216 
Q 1759 972 1856 886 
Q 1953 800 2241 800 
L 2816 800 
L 2816 0 
L 1856 0 
Q 1194 0 917 276 
Q 641 553 641 1216 
L 641 2700 
L 84 2700 
L 84 3500 
L 641 3500 
L 641 4494 
L 1759 4494 
z
" transform="scale(0.015625)"/>
     </defs>
     <use xlink:href="#DejaVuSans-Bold-43"/>
     <use xlink:href="#DejaVuSans-Bold-6f" transform="translate(73.388672 0)"/>
     <use xlink:href="#DejaVuSans-Bold-6e" transform="translate(142.089844 0)"/>
     <use xlink:href="#DejaVuSans-Bold-76" transform="translate(213.28125 0)"/>
     <use xlink:href="#DejaVuSans-Bold-65" transform="translate(278.466797 0)"/>
     <use xlink:href="#DejaVuSans-Bold-78" transform="translate(346.289062 0)"/>
     <use xlink:href="#DejaVuSans-Bold-20" transform="translate(410.791016 0)"/>
     <use xlink:href="#DejaVuSans-Bold-53" transform="translate(445.605469 0)"/>
     <use xlink:href="#DejaVuSans-Bold-65" transform="translate(517.626953 0)"/>
     <use xlink:href="#DejaVuSans-Bold-74" transform="translate(585.449219 0)"/>
    </g>
   </g>
   <g id="line2d_1">
    <path d="M 59.991652 101.156421 
L 103.46713 85.629465 
" clip-path="url(#p957f67b15c)" style="fill: none; stroke: var(--black); stroke-width: 2; stroke-linecap: square"/>
   </g>
   <g id="PathCollection_1">
    <defs>
     <path id="m730351991d" d="M 0 2.236068 
C 0.593012 2.236068 1.161816 2.000462 1.581139 1.581139 
C 2.000462 1.161816 2.236068 0.593012 2.236068 0 
C 2.236068 -0.593012 2.000462 -1.161816 1.581139 -1.581139 
C 1.161816 -2.000462 0.593012 -2.236068 0 -2.236068 
C -0.593012 -2.236068 -1.161816 -2.000462 -1.581139 -1.581139 
C -2.000462 -1.161816 -2.236068 -0.593012 -2.236068 0 
C -2.236068 0.593012 -2.000462 1.161816 -1.581139 1.581139 
C -1.161816 2.000462 -0.593012 2.236068 0 2.236068 
z
" style="stroke: var(--black); stroke-opacity: 0.9"/>
    </defs>
    <g clip-path="url(#p957f67b15c)">
     <use xlink:href="#m730351991d" x="59.991652" y="101.156421" style="fill-opacity: 0.9; stroke: var(--black); stroke-opacity: 0.9"/>
    </g>
   </g>
   <g id="PathCollection_2">
    <g clip-path="url(#p957f67b15c)">
     <use xlink:href="#m730351991d" x="103.46713" y="85.629465" style="fill-opacity: 0.9; stroke: var(--black); stroke-opacity: 0.9"/>
    </g>
   </g>
  </g>
  <g id="axes_2">
   <g class="patch">
    <path d="M 209.050435 157.053465 
L 364.32 157.053465 
L 364.32 32.837812 
L 209.050435 32.837812 
L 209.050435 157.053465 
z
" style="fill: none"/>
   </g>
   <g class="patch">
    <path d="M 256.830844 117.247521 
L 258.301189 119.091124 
L 259.885195 120.838038 
L 261.57652 122.481267 
L 263.368391 124.014232 
L 265.253633 125.430794 
L 267.224696 126.72528 
L 269.273687 127.892507 
L 271.392401 128.9278 
L 273.572355 129.827014 
L 275.804818 130.586548 
L 278.080851 131.203361 
L 280.39134 131.674982 
L 282.727032 131.999522 
L 285.078574 132.175683 
L 287.43655 132.202759 
L 289.791517 132.080642 
L 292.134046 131.809819 
L 294.454755 131.391377 
L 296.744351 130.82699 
L 298.993666 130.118919 
L 301.193693 129.269998 
L 303.335622 128.283629 
L 305.410875 127.163759 
L 307.411142 125.914874 
L 309.328415 124.541976 
L 311.155014 123.05056 
L 312.883625 121.446601 
L 314.507327 119.73652 
L 316.019616 117.927165 
L 317.414439 116.025783 
L 318.686208 114.039987 
L 319.829832 111.977729 
L 320.84073 109.847267 
L 321.714855 107.657132 
L 322.448706 105.416095 
L 323.039344 103.13313 
L 323.484405 100.817379 
L 323.782106 98.478114 
L 323.931255 96.124704 
L 323.931255 93.766573 
L 323.782106 91.413163 
L 323.484405 89.073899 
L 323.039344 86.758147 
L 322.448706 84.475182 
L 321.714855 82.234145 
L 320.84073 80.044011 
L 319.829832 77.913548 
L 318.686208 75.85129 
L 317.414439 73.865494 
L 316.019616 71.964112 
L 314.507327 70.154758 
L 312.883625 68.444677 
L 311.155014 66.840717 
L 309.328415 65.349302 
L 307.411142 63.976403 
L 305.410875 62.727518 
L 303.335622 61.607648 
L 301.193693 60.621279 
L 298.993666 59.772358 
L 296.744351 59.064287 
L 294.454755 58.4999 
L 292.134046 58.081458 
L 289.791517 57.810636 
L 287.43655 57.688518 
L 285.078574 57.715594 
L 282.727032 57.891755 
L 280.39134 58.216295 
L 278.080851 58.687916 
L 275.804818 59.304729 
L 273.572355 60.064263 
L 271.392401 60.963477 
L 269.273687 61.99877 
L 267.224696 63.165997 
L 265.253633 64.460483 
L 263.368391 65.877045 
L 261.57652 67.41001 
L 259.885195 69.053239 
L 258.301189 70.800153 
L 256.830844 72.643756 
L 269.270166 81.936207 
L 269.270166 81.936207 
L 270.127867 80.860772 
L 271.051871 79.841739 
L 272.038477 78.883189 
L 273.083735 77.988959 
L 274.18346 77.162631 
L 275.333246 76.407514 
L 276.528491 75.726632 
L 277.764408 75.122711 
L 279.036048 74.598169 
L 280.338318 74.155108 
L 281.666004 73.795301 
L 283.013789 73.520188 
L 284.376276 73.330873 
L 285.748009 73.228112 
L 287.123495 73.212318 
L 288.497226 73.283554 
L 289.863701 73.441533 
L 291.217447 73.685625 
L 292.553045 74.01485 
L 293.865146 74.427892 
L 295.148495 74.923095 
L 296.397953 75.498478 
L 297.608518 76.151735 
L 298.77534 76.880251 
L 299.893749 77.681109 
L 300.959265 78.551101 
L 301.967622 79.486744 
L 302.914781 80.484291 
L 303.79695 81.539748 
L 304.610597 82.648888 
L 305.352462 83.807269 
L 306.019576 85.010253 
L 306.609266 86.253022 
L 307.119172 87.530601 
L 307.547252 88.837872 
L 307.891791 90.169602 
L 308.15141 91.520457 
L 308.325069 92.885028 
L 308.412073 94.25785 
L 308.412073 95.633427 
L 308.325069 97.006249 
L 308.15141 98.37082 
L 307.891791 99.721675 
L 307.547252 101.053405 
L 307.119172 102.360676 
L 306.609266 103.638255 
L 306.019576 104.881024 
L 305.352462 106.084008 
L 304.610597 107.24239 
L 303.79695 108.351529 
L 302.914781 109.406986 
L 301.967622 110.404533 
L 300.959265 111.340176 
L 299.893749 112.210169 
L 298.77534 113.011026 
L 297.608518 113.739542 
L 296.397953 114.392799 
L 295.148495 114.968182 
L 293.865146 115.463385 
L 292.553045 115.876427 
L 291.217447 116.205653 
L 289.863701 116.449744 
L 288.497226 116.607724 
L 287.123495 116.678959 
L 285.748009 116.663165 
L 284.376276 116.560404 
L 283.013789 116.371089 
L 281.666004 116.095977 
L 280.338318 115.736169 
L 279.036048 115.293108 
L 277.764408 114.768566 
L 276.528491 114.164645 
L 275.333246 113.483763 
L 274.18346 112.728646 
L 273.083735 111.902318 
L 272.038477 111.008089 
L 271.051871 110.049538 
L 270.127867 109.030505 
L 269.270166 107.95507 
z
" clip-path="url(#p14d808b76f)" style="fill: #8000ff; stroke: #8000ff; stroke-width: 2; stroke-linejoin: miter"/>
   </g>
   <g class="axis"/>
   <g class="axis"/>
   <g id="text_4" class="text">
    <!-- $x_1$ -->
    <g transform="translate(258.527478 66.997117) scale(0.12 -0.12)">
     <use xlink:href="#DejaVuSans-Oblique-78" transform="translate(0 0.3125)"/>
     <use xlink:href="#DejaVuSans-31" transform="translate(59.179688 -16.09375) scale(0.7)"/>
    </g>
   </g>
   <g id="text_5" class="text">
    <!-- $x_2$ -->
    <g transform="translate(258.527478 122.89416) scale(0.12 -0.12)">
     <use xlink:href="#DejaVuSans-Oblique-78" transform="translate(0 0.3125)"/>
     <use xlink:href="#DejaVuSans-32" transform="translate(59.179688 -16.09375) scale(0.7)"/>
    </g>
   </g>
   <g id="text_6" class="text">
    <!-- Non-convex Set -->
    <g transform="translate(224.789905 17.837812) scale(0.14 -0.14)">
     <defs>
      <path id="DejaVuSans-Bold-4e" d="M 588 4666 
L 1931 4666 
L 3628 1466 
L 3628 4666 
L 4769 4666 
L 4769 0 
L 3425 0 
L 1728 3200 
L 1728 0 
L 588 0 
L 588 4666 
z
" transform="scale(0.015625)"/>
      <path id="DejaVuSans-Bold-2d" d="M 347 2297 
L 2309 2297 
L 2309 1388 
L 347 1388 
L 347 2297 
z
" transform="scale(0.015625)"/>
      <path id="DejaVuSans-Bold-63" d="M 3366 3391 
L 3366 2478 
Q 3138 2634 2908 2709 
Q 2678 2784 2431 2784 
Q 1963 2784 1702 2511 
Q 1441 2238 1441 1747 
Q 1441 1256 1702 982 
Q 1963 709 2431 709 
Q 2694 709 2930 787 
Q 3166 866 3366 1019 
L 3366 103 
Q 3103 6 2833 -42 
Q 2563 -91 2291 -91 
Q 1344 -91 809 395 
Q 275 881 275 1747 
Q 275 2613 809 3098 
Q 1344 3584 2291 3584 
Q 2566 3584 2833 3536 
Q 3100 3488 3366 3391 
z
" transform="scale(0.015625)"/>
     </defs>
     <use xlink:href="#DejaVuSans-Bold-4e"/>
     <use xlink:href="#DejaVuSans-Bold-6f" transform="translate(83.691406 0)"/>
     <use xlink:href="#DejaVuSans-Bold-6e" transform="translate(152.392578 0)"/>
     <use xlink:href="#DejaVuSans-Bold-2d" transform="translate(223.583984 0)"/>
     <use xlink:href="#DejaVuSans-Bold-63" transform="translate(265.087891 0)"/>
     <use xlink:href="#DejaVuSans-Bold-6f" transform="translate(324.365234 0)"/>
     <use xlink:href="#DejaVuSans-Bold-6e" transform="translate(393.066406 0)"/>
     <use xlink:href="#DejaVuSans-Bold-76" transform="translate(464.257812 0)"/>
     <use xlink:href="#DejaVuSans-Bold-65" transform="translate(529.443359 0)"/>
     <use xlink:href="#DejaVuSans-Bold-78" transform="translate(597.265625 0)"/>
     <use xlink:href="#DejaVuSans-Bold-20" transform="translate(661.767578 0)"/>
     <use xlink:href="#DejaVuSans-Bold-53" transform="translate(696.582031 0)"/>
     <use xlink:href="#DejaVuSans-Bold-65" transform="translate(768.603516 0)"/>
     <use xlink:href="#DejaVuSans-Bold-74" transform="translate(836.425781 0)"/>
    </g>
   </g>
   <g id="line2d_2">
    <path d="M 271.158261 73.207899 
L 271.158261 116.683378 
" clip-path="url(#p14d808b76f)" style="fill: none; stroke-dasharray: 11.1,4.8; stroke-dashoffset: 0; stroke: var(--black); stroke-opacity: 0.8; stroke-width: 3"/>
   </g>
   <g id="PathCollection_3">
    <g clip-path="url(#p14d808b76f)">
     <use xlink:href="#m730351991d" x="271.158261" y="73.207899" style="fill-opacity: 0.9; stroke: var(--black); stroke-opacity: 0.9"/>
    </g>
   </g>
   <g id="PathCollection_4">
    <g clip-path="url(#p14d808b76f)">
     <use xlink:href="#m730351991d" x="271.158261" y="116.683378" style="fill-opacity: 0.9; stroke: var(--black); stroke-opacity: 0.9"/>
    </g>
   </g>
  </g>
 </g>
 <defs>
  <clipPath id="p957f67b15c">
   <rect x="7.2" y="32.837812" width="155.269565" height="124.215652"/>
  </clipPath>
  <clipPath id="p14d808b76f">
   <rect x="209.050435" y="32.837812" width="155.269565" height="124.215652"/>
  </clipPath>
 </defs>
</svg>
