<?xml version="1.0" encoding="utf-8" standalone="no"?>
<!DOCTYPE svg PUBLIC "-//W3C//DTD SVG 1.1//EN"
  "http://www.w3.org/Graphics/SVG/1.1/DTD/svg11.dtd">
<svg xmlns:xlink="http://www.w3.org/1999/xlink" width="428.260115pt" height="108.357796pt" viewBox="0 0 428.260115 108.357796" xmlns="http://www.w3.org/2000/svg" version="1.1">
<style>/* === RDF autogenerated palette === */
:root {
    --axis-color: #000;
    --grid-stroke: rgba(0,0,0,0.2);
    --plot3d-stroke: rgba(0,0,0,0.3);
    --plot3d-grid: rgba(0,0,0,0.2);
}
@media (prefers-color-scheme: dark) {
    :root {
        --axis-color: #fff;
        --grid-stroke: rgba(255,255,255,0.2);
        --plot3d-stroke: rgba(255,255,255,0.3);
        --plot3d-grid: rgba(255,255,255,0.2);
    }
}

/* Light‑mode palette */
.black { fill:#000000; stroke:#000000; }:root { --black: #000000; }.c1 { fill:#FF0001; stroke:#FF0001; }:root { --c1: #FF0001; }.c2 { fill:#00FF02; stroke:#00FF02; }:root { --c2: #00FF02; }.c3 { fill:#0000FF; stroke:#0000FF; }:root { --c3: #0000FF; }.c4 { fill:#FF00FF; stroke:#FF00FF; }:root { --c4: #FF00FF; }.c5 { fill:#00FFFF; stroke:#00FFFF; }:root { --c5: #00FFFF; }.c6 { fill:#FFFF00; stroke:#FFFF00; }:root { --c6: #FFFF00; }.c7 { fill:#FF8000; stroke:#FF8000; }:root { --c7: #FF8000; }.c8 { fill:#8000FF; stroke:#8000FF; }:root { --c8: #8000FF; }.gray { fill:#7f7f7f; stroke:#7f7f7f; }:root { --gray: #7f7f7f; }.grey { fill:#7f7f7f; stroke:#7f7f7f; }:root { --grey: #7f7f7f; }.octonary { fill:#bcbd22; stroke:#bcbd22; }:root { --octonary: #bcbd22; }.primary { fill:#d62728; stroke:#d62728; }:root { --primary: #d62728; }.quaternary { fill:#9467bd; stroke:#9467bd; }:root { --quaternary: #9467bd; }.quinary { fill:#8c564b; stroke:#8c564b; }:root { --quinary: #8c564b; }.secondary { fill:#2ca02c; stroke:#2ca02c; }:root { --secondary: #2ca02c; }.senary { fill:#e377c2; stroke:#e377c2; }:root { --senary: #e377c2; }.septenary { fill:#7f7f7f; stroke:#7f7f7f; }:root { --septenary: #7f7f7f; }.tertiary { fill:#1f77b4; stroke:#1f77b4; }:root { --tertiary: #1f77b4; }.white { fill:#ffffff; stroke:#ffffff; }:root { --white: #ffffff; }

/* Dark overrides */
@media (prefers-color-scheme: dark) {
    .black { fill:#FFFFFF; stroke:#FFFFFF; }:root { --black: #FFFFFF; }.c1 { fill:#FF0001; stroke:#FF0001; }:root { --c1: #FF0001; }.c2 { fill:#00FF02; stroke:#00FF02; }:root { --c2: #00FF02; }.c3 { fill:#0000FF; stroke:#0000FF; }:root { --c3: #0000FF; }.c4 { fill:#FF00FF; stroke:#FF00FF; }:root { --c4: #FF00FF; }.c5 { fill:#00FFFF; stroke:#00FFFF; }:root { --c5: #00FFFF; }.c6 { fill:#FFFF00; stroke:#FFFF00; }:root { --c6: #FFFF00; }.c7 { fill:#FF8000; stroke:#FF8000; }:root { --c7: #FF8000; }.c8 { fill:#8000FF; stroke:#8000FF; }:root { --c8: #8000FF; }.gray { fill:#CCCCCC; stroke:#CCCCCC; }:root { --gray: #CCCCCC; }.grey { fill:#CCCCCC; stroke:#CCCCCC; }:root { --grey: #CCCCCC; }.octonary { fill:#E6DB74; stroke:#E6DB74; }:root { --octonary: #E6DB74; }.primary { fill:#FF4A98; stroke:#FF4A98; }:root { --primary: #FF4A98; }.quaternary { fill:#B4A0FF; stroke:#B4A0FF; }:root { --quaternary: #B4A0FF; }.quinary { fill:#FFB86B; stroke:#FFB86B; }:root { --quinary: #FFB86B; }.secondary { fill:#0AFAFA; stroke:#0AFAFA; }:root { --secondary: #0AFAFA; }.senary { fill:#FF79C6; stroke:#FF79C6; }:root { --senary: #FF79C6; }.septenary { fill:#CCCCCC; stroke:#CCCCCC; }:root { --septenary: #CCCCCC; }.tertiary { fill:#7F83FF; stroke:#7F83FF; }:root { --tertiary: #7F83FF; }.white { fill:#000000; stroke:#000000; }:root { --white: #000000; }
}/* Axis, ticks, legend */
text, .text { fill: var(--axis-color) !important; stroke: none !important; }
.axis line, .axis path,
.tick line, .tick path,
path.domain,
line.grid { stroke: var(--axis-color) !important; }
.legend text { fill: var(--axis-color) !important; }

/* Patch paths that relied on currentColor */
.patch path[style*="stroke: currentColor"] { stroke: var(--axis-color) !important; }

/* Legend background (first child of legend group) */
g.legend > g:first-child > path:first-child {
    fill: rgba(255,255,255,0.8) !important;
    stroke: rgba(0,0,0,0.1) !important;
}
@media (prefers-color-scheme: dark) {
    g.legend > g:first-child > path:first-child {
        fill: rgba(26,26,26,0.8) !important;
        stroke: rgba(255,255,255,0.1) !important;
    }
}

/* 3‑D specific rules */
.plot3d path, .plot3d polygon {
    stroke: var(--plot3d-stroke) !important;
}
.plot3d-grid line { stroke: var(--plot3d-grid) !important; }
.plot3d-surface path[style*="fill:"] {
    fill-opacity: 0.9 !important;
}
@media (prefers-color-scheme: dark) {
    .plot3d-surface path[style*="fill:"] {
        fill-opacity: 0.95 !important;
        filter: saturate(1.2) !important;
    }
}</style>

 <metadata>
  <rdf:RDF xmlns:dc="http://purl.org/dc/elements/1.1/" xmlns:cc="http://creativecommons.org/ns#" xmlns:rdf="http://www.w3.org/1999/02/22-rdf-syntax-ns#">
   <cc:Work>
    <dc:type rdf:resource="http://purl.org/dc/dcmitype/StillImage"/>
    <dc:date>2025-09-15T16:43:57.129668</dc:date>
    <dc:format>image/svg+xml</dc:format>
    <dc:creator>
     <cc:Agent>
      <dc:title>Matplotlib v3.10.1, https://matplotlib.org/</dc:title>
     </cc:Agent>
    </dc:creator>
   </cc:Work>
  </rdf:RDF>
 </metadata>
 <defs>
  <style type="text/css">*{stroke-linejoin: round; stroke-linecap: butt}</style>
 </defs>
 <g id="figure_1">
  <g class="patch">
   <path d="M 0 108.357796 
L 428.260115 108.357796 
L 428.260115 0 
L 0 0 
L 0 108.357796 
z
" style="fill: none"/>
  </g>
  <g id="axes_1">
   <g class="patch">
    <path d="M 27.008339 98.568421 
L 120.987286 98.568421 
L 120.987286 7.2 
L 27.008339 7.2 
L 27.008339 98.568421 
z
" style="fill: none"/>
   </g>
   <g class="patch">
    <path d="M 58.634836 67.463906 
L 59.833575 68.286396 
L 61.076242 69.040879 
L 62.358981 69.725016 
L 63.677816 70.336686 
L 65.028656 70.873991 
L 66.407311 71.335266 
L 67.809507 71.719078 
L 69.230894 72.02424 
L 70.667065 72.249802 
L 72.113565 72.395068 
L 73.565909 72.459585 
L 75.019592 72.443154 
L 76.470107 72.345825 
L 77.912954 72.167901 
L 79.343659 71.909934 
L 80.757786 71.572722 
L 82.150948 71.157313 
L 83.518824 70.664994 
L 84.857174 70.097293 
L 86.161846 69.455969 
L 87.428794 68.743012 
L 88.654089 67.960633 
L 89.833931 67.111258 
L 90.964661 66.197522 
L 92.042773 65.222257 
L 93.064922 64.188489 
L 94.027939 63.099424 
L 94.928837 61.958439 
L 95.764823 60.769072 
L 96.533303 59.535013 
L 97.231895 58.260087 
L 97.858431 56.94825 
L 98.41097 55.60357 
L 98.887797 54.230216 
L 99.287433 52.832448 
L 99.60864 51.4146 
L 99.850421 49.981071 
L 100.012026 48.536305 
L 100.092954 47.084783 
L 100.092954 45.631007 
L 100.012026 44.179485 
L 99.850421 42.734719 
L 99.60864 41.301189 
L 99.287433 39.883342 
L 98.887797 38.485574 
L 98.41097 37.11222 
L 97.858431 35.767539 
L 97.231895 34.455702 
L 96.533303 33.180777 
L 95.764823 31.946717 
L 94.928837 30.757351 
L 94.027939 29.616365 
L 93.064922 28.5273 
L 92.042773 27.493532 
L 90.964661 26.518268 
L 89.833931 25.604531 
L 88.654089 24.755156 
L 87.428794 23.972777 
L 86.161846 23.25982 
L 84.857174 22.618497 
L 83.518824 22.050795 
L 82.150948 21.558476 
L 80.757786 21.143067 
L 79.343659 20.805856 
L 77.912954 20.547888 
L 76.470107 20.369964 
L 75.019592 20.272636 
L 73.565909 20.256205 
L 72.113565 20.320722 
L 70.667065 20.465987 
L 69.230894 20.69155 
L 67.809507 20.996711 
L 66.407311 21.380524 
L 65.028656 21.841798 
L 63.677816 22.379103 
L 62.358981 22.990773 
L 61.076242 23.674911 
L 59.833575 24.429394 
L 58.634836 25.251883 
L 66.316324 35.804889 
L 66.316324 35.804889 
L 66.915694 35.393644 
L 67.537027 35.016403 
L 68.178397 34.674334 
L 68.837814 34.368499 
L 69.513234 34.099846 
L 70.202562 33.869209 
L 70.90366 33.677303 
L 71.614353 33.524722 
L 72.332439 33.411941 
L 73.055689 33.339308 
L 73.781861 33.30705 
L 74.508702 33.315265 
L 75.23396 33.36393 
L 75.955383 33.452892 
L 76.670736 33.581875 
L 77.377799 33.750481 
L 78.07438 33.958186 
L 78.758318 34.204345 
L 79.427493 34.488196 
L 80.079829 34.808857 
L 80.713303 35.165336 
L 81.325951 35.556525 
L 81.915872 35.981213 
L 82.481237 36.438081 
L 83.020293 36.925713 
L 83.531367 37.442597 
L 84.012876 37.98713 
L 84.463325 38.557623 
L 84.881318 39.152306 
L 85.265558 39.769336 
L 85.614854 40.406798 
L 85.928122 41.062717 
L 86.204391 41.735057 
L 86.442805 42.421734 
L 86.642623 43.120618 
L 86.803226 43.829542 
L 86.924117 44.546307 
L 87.004919 45.26869 
L 87.045383 45.994451 
L 87.045383 46.721339 
L 87.004919 47.4471 
L 86.924117 48.169483 
L 86.803226 48.886247 
L 86.642623 49.595171 
L 86.442805 50.294055 
L 86.204391 50.980732 
L 85.928122 51.653072 
L 85.614854 52.308991 
L 85.265558 52.946454 
L 84.881318 53.563483 
L 84.463325 54.158167 
L 84.012876 54.728659 
L 83.531367 55.273192 
L 83.020293 55.790076 
L 82.481237 56.277708 
L 81.915872 56.734577 
L 81.325951 57.159264 
L 80.713303 57.550454 
L 80.079829 57.906932 
L 79.427493 58.227594 
L 78.758318 58.511445 
L 78.07438 58.757604 
L 77.377799 58.965309 
L 76.670736 59.133914 
L 75.955383 59.262898 
L 75.23396 59.35186 
L 74.508702 59.400524 
L 73.781861 59.40874 
L 73.055689 59.376481 
L 72.332439 59.303849 
L 71.614353 59.191067 
L 70.90366 59.038487 
L 70.202562 58.84658 
L 69.513234 58.615943 
L 68.837814 58.34729 
L 68.178397 58.041456 
L 67.537027 57.699387 
L 66.915694 57.322145 
L 66.316324 56.9109 
z
" clip-path="url(#p32c0f53c5d)" style="fill: #8000ff; opacity: 0.6; stroke: #8000ff; stroke-width: 2; stroke-linejoin: miter"/>
   </g>
   <g class="axis"/>
   <g class="axis"/>
   <g id="line2d_1">
    <path d="M 58.634836 67.463906 
L 58.634836 25.251883 
" clip-path="url(#p32c0f53c5d)" style="fill: none; stroke: var(--black); stroke-width: 2; stroke-linecap: square"/>
   </g>
   <g id="text_1" class="text">
    <!-- Minimal Convex Set -->
    <g transform="translate(7.2 82.905263) scale(0.12 -0.12)">
     <defs>
      <path id="DejaVuSans-Bold-4d" d="M 588 4666 
L 2119 4666 
L 3181 2169 
L 4250 4666 
L 5778 4666 
L 5778 0 
L 4641 0 
L 4641 3413 
L 3566 897 
L 2803 897 
L 1728 3413 
L 1728 0 
L 588 0 
L 588 4666 
z
" transform="scale(0.015625)"/>
      <path id="DejaVuSans-Bold-69" d="M 538 3500 
L 1656 3500 
L 1656 0 
L 538 0 
L 538 3500 
z
M 538 4863 
L 1656 4863 
L 1656 3950 
L 538 3950 
L 538 4863 
z
" transform="scale(0.015625)"/>
      <path id="DejaVuSans-Bold-6e" d="M 4056 2131 
L 4056 0 
L 2931 0 
L 2931 347 
L 2931 1631 
Q 2931 2084 2911 2256 
Q 2891 2428 2841 2509 
Q 2775 2619 2662 2680 
Q 2550 2741 2406 2741 
Q 2056 2741 1856 2470 
Q 1656 2200 1656 1722 
L 1656 0 
L 538 0 
L 538 3500 
L 1656 3500 
L 1656 2988 
Q 1909 3294 2193 3439 
Q 2478 3584 2822 3584 
Q 3428 3584 3742 3212 
Q 4056 2841 4056 2131 
z
" transform="scale(0.015625)"/>
      <path id="DejaVuSans-Bold-6d" d="M 3781 2919 
Q 3994 3244 4286 3414 
Q 4578 3584 4928 3584 
Q 5531 3584 5847 3212 
Q 6163 2841 6163 2131 
L 6163 0 
L 5038 0 
L 5038 1825 
Q 5041 1866 5042 1909 
Q 5044 1953 5044 2034 
Q 5044 2406 4934 2573 
Q 4825 2741 4581 2741 
Q 4263 2741 4089 2478 
Q 3916 2216 3909 1719 
L 3909 0 
L 2784 0 
L 2784 1825 
Q 2784 2406 2684 2573 
Q 2584 2741 2328 2741 
Q 2006 2741 1831 2477 
Q 1656 2213 1656 1722 
L 1656 0 
L 531 0 
L 531 3500 
L 1656 3500 
L 1656 2988 
Q 1863 3284 2130 3434 
Q 2397 3584 2719 3584 
Q 3081 3584 3359 3409 
Q 3638 3234 3781 2919 
z
" transform="scale(0.015625)"/>
      <path id="DejaVuSans-Bold-61" d="M 2106 1575 
Q 1756 1575 1579 1456 
Q 1403 1338 1403 1106 
Q 1403 894 1545 773 
Q 1688 653 1941 653 
Q 2256 653 2472 879 
Q 2688 1106 2688 1447 
L 2688 1575 
L 2106 1575 
z
M 3816 1997 
L 3816 0 
L 2688 0 
L 2688 519 
Q 2463 200 2181 54 
Q 1900 -91 1497 -91 
Q 953 -91 614 226 
Q 275 544 275 1050 
Q 275 1666 698 1953 
Q 1122 2241 2028 2241 
L 2688 2241 
L 2688 2328 
Q 2688 2594 2478 2717 
Q 2269 2841 1825 2841 
Q 1466 2841 1156 2769 
Q 847 2697 581 2553 
L 581 3406 
Q 941 3494 1303 3539 
Q 1666 3584 2028 3584 
Q 2975 3584 3395 3211 
Q 3816 2838 3816 1997 
z
" transform="scale(0.015625)"/>
      <path id="DejaVuSans-Bold-6c" d="M 538 4863 
L 1656 4863 
L 1656 0 
L 538 0 
L 538 4863 
z
" transform="scale(0.015625)"/>
      <path id="DejaVuSans-Bold-20" transform="scale(0.015625)"/>
      <path id="DejaVuSans-Bold-43" d="M 4288 256 
Q 3956 84 3597 -3 
Q 3238 -91 2847 -91 
Q 1681 -91 1000 561 
Q 319 1213 319 2328 
Q 319 3447 1000 4098 
Q 1681 4750 2847 4750 
Q 3238 4750 3597 4662 
Q 3956 4575 4288 4403 
L 4288 3438 
Q 3953 3666 3628 3772 
Q 3303 3878 2944 3878 
Q 2300 3878 1931 3465 
Q 1563 3053 1563 2328 
Q 1563 1606 1931 1193 
Q 2300 781 2944 781 
Q 3303 781 3628 887 
Q 3953 994 4288 1222 
L 4288 256 
z
" transform="scale(0.015625)"/>
      <path id="DejaVuSans-Bold-6f" d="M 2203 2784 
Q 1831 2784 1636 2517 
Q 1441 2250 1441 1747 
Q 1441 1244 1636 976 
Q 1831 709 2203 709 
Q 2569 709 2762 976 
Q 2956 1244 2956 1747 
Q 2956 2250 2762 2517 
Q 2569 2784 2203 2784 
z
M 2203 3584 
Q 3106 3584 3614 3096 
Q 4122 2609 4122 1747 
Q 4122 884 3614 396 
Q 3106 -91 2203 -91 
Q 1297 -91 786 396 
Q 275 884 275 1747 
Q 275 2609 786 3096 
Q 1297 3584 2203 3584 
z
" transform="scale(0.015625)"/>
      <path id="DejaVuSans-Bold-76" d="M 97 3500 
L 1216 3500 
L 2088 1081 
L 2956 3500 
L 4078 3500 
L 2700 0 
L 1472 0 
L 97 3500 
z
" transform="scale(0.015625)"/>
      <path id="DejaVuSans-Bold-65" d="M 4031 1759 
L 4031 1441 
L 1416 1441 
Q 1456 1047 1700 850 
Q 1944 653 2381 653 
Q 2734 653 3104 758 
Q 3475 863 3866 1075 
L 3866 213 
Q 3469 63 3072 -14 
Q 2675 -91 2278 -91 
Q 1328 -91 801 392 
Q 275 875 275 1747 
Q 275 2603 792 3093 
Q 1309 3584 2216 3584 
Q 3041 3584 3536 3087 
Q 4031 2591 4031 1759 
z
M 2881 2131 
Q 2881 2450 2695 2645 
Q 2509 2841 2209 2841 
Q 1884 2841 1681 2658 
Q 1478 2475 1428 2131 
L 2881 2131 
z
" transform="scale(0.015625)"/>
      <path id="DejaVuSans-Bold-78" d="M 1422 1791 
L 159 3500 
L 1344 3500 
L 2059 2463 
L 2784 3500 
L 3969 3500 
L 2706 1797 
L 4031 0 
L 2847 0 
L 2059 1106 
L 1281 0 
L 97 0 
L 1422 1791 
z
" transform="scale(0.015625)"/>
      <path id="DejaVuSans-Bold-53" d="M 3834 4519 
L 3834 3531 
Q 3450 3703 3084 3790 
Q 2719 3878 2394 3878 
Q 1963 3878 1756 3759 
Q 1550 3641 1550 3391 
Q 1550 3203 1689 3098 
Q 1828 2994 2194 2919 
L 2706 2816 
Q 3484 2659 3812 2340 
Q 4141 2022 4141 1434 
Q 4141 663 3683 286 
Q 3225 -91 2284 -91 
Q 1841 -91 1394 -6 
Q 947 78 500 244 
L 500 1259 
Q 947 1022 1364 901 
Q 1781 781 2169 781 
Q 2563 781 2772 912 
Q 2981 1044 2981 1288 
Q 2981 1506 2839 1625 
Q 2697 1744 2272 1838 
L 1806 1941 
Q 1106 2091 782 2419 
Q 459 2747 459 3303 
Q 459 4000 909 4375 
Q 1359 4750 2203 4750 
Q 2588 4750 2994 4692 
Q 3400 4634 3834 4519 
z
" transform="scale(0.015625)"/>
      <path id="DejaVuSans-Bold-74" d="M 1759 4494 
L 1759 3500 
L 2913 3500 
L 2913 2700 
L 1759 2700 
L 1759 1216 
Q 1759 972 1856 886 
Q 1953 800 2241 800 
L 2816 800 
L 2816 0 
L 1856 0 
Q 1194 0 917 276 
Q 641 553 641 1216 
L 641 2700 
L 84 2700 
L 84 3500 
L 641 3500 
L 641 4494 
L 1759 4494 
z
" transform="scale(0.015625)"/>
     </defs>
     <use xlink:href="#DejaVuSans-Bold-4d"/>
     <use xlink:href="#DejaVuSans-Bold-69" transform="translate(99.511719 0)"/>
     <use xlink:href="#DejaVuSans-Bold-6e" transform="translate(133.789062 0)"/>
     <use xlink:href="#DejaVuSans-Bold-69" transform="translate(204.980469 0)"/>
     <use xlink:href="#DejaVuSans-Bold-6d" transform="translate(239.257812 0)"/>
     <use xlink:href="#DejaVuSans-Bold-61" transform="translate(343.457031 0)"/>
     <use xlink:href="#DejaVuSans-Bold-6c" transform="translate(410.9375 0)"/>
     <use xlink:href="#DejaVuSans-Bold-20" transform="translate(445.214844 0)"/>
     <use xlink:href="#DejaVuSans-Bold-43" transform="translate(480.029297 0)"/>
     <use xlink:href="#DejaVuSans-Bold-6f" transform="translate(553.417969 0)"/>
     <use xlink:href="#DejaVuSans-Bold-6e" transform="translate(622.119141 0)"/>
     <use xlink:href="#DejaVuSans-Bold-76" transform="translate(693.310547 0)"/>
     <use xlink:href="#DejaVuSans-Bold-65" transform="translate(758.496094 0)"/>
     <use xlink:href="#DejaVuSans-Bold-78" transform="translate(826.318359 0)"/>
     <use xlink:href="#DejaVuSans-Bold-20" transform="translate(890.820312 0)"/>
     <use xlink:href="#DejaVuSans-Bold-53" transform="translate(925.634766 0)"/>
     <use xlink:href="#DejaVuSans-Bold-65" transform="translate(997.65625 0)"/>
     <use xlink:href="#DejaVuSans-Bold-74" transform="translate(1065.478516 0)"/>
    </g>
   </g>
   <g id="PathCollection_1">
    <defs>
     <path id="mcba3ad9754" d="M 0 2.738613 
C 0.726289 2.738613 1.422928 2.450055 1.936492 1.936492 
C 2.450055 1.422928 2.738613 0.726289 2.738613 0 
C 2.738613 -0.726289 2.450055 -1.422928 1.936492 -1.936492 
C 1.422928 -2.450055 0.726289 -2.738613 0 -2.738613 
C -0.726289 -2.738613 -1.422928 -2.450055 -1.936492 -1.936492 
C -2.450055 -1.422928 -2.738613 -0.726289 -2.738613 0 
C -2.738613 0.726289 -2.450055 1.422928 -1.936492 1.936492 
C -1.422928 2.450055 -0.726289 2.738613 0 2.738613 
z
" style="stroke: var(--black)"/>
    </defs>
    <g clip-path="url(#p32c0f53c5d)">
     <use xlink:href="#mcba3ad9754" x="58.634836" y="67.463906" style="stroke: var(--black)"/>
     <use xlink:href="#mcba3ad9754" x="58.634836" y="25.251883" style="stroke: var(--black)"/>
    </g>
   </g>
  </g>
  <g id="axes_2">
   <g class="patch">
    <path d="M 158.578865 98.568421 
L 252.557813 98.568421 
L 252.557813 7.2 
L 158.578865 7.2 
L 158.578865 98.568421 
z
" style="fill: none"/>
   </g>
   <g class="patch">
    <path d="M 190.205362 67.463906 
L 191.404102 68.286396 
L 192.646768 69.040879 
L 193.929508 69.725016 
L 195.248342 70.336686 
L 196.599182 70.873991 
L 197.977838 71.335266 
L 199.380033 71.719078 
L 200.801421 72.02424 
L 202.237591 72.249802 
L 203.684092 72.395068 
L 205.136435 72.459585 
L 206.590119 72.443154 
L 208.040633 72.345825 
L 209.48348 72.167901 
L 210.914185 71.909934 
L 212.328312 71.572722 
L 213.721474 71.157313 
L 215.089351 70.664994 
L 216.4277 70.097293 
L 217.732372 69.455969 
L 218.999321 68.743012 
L 220.224616 67.960633 
L 221.404458 67.111258 
L 222.535188 66.197522 
L 223.613299 65.222257 
L 224.635448 64.188489 
L 225.598465 63.099424 
L 226.499363 61.958439 
L 227.335349 60.769072 
L 228.103829 59.535013 
L 228.802421 58.260087 
L 229.428958 56.94825 
L 229.981496 55.60357 
L 230.458323 54.230216 
L 230.85796 52.832448 
L 231.179166 51.4146 
L 231.420947 49.981071 
L 231.582552 48.536305 
L 231.66348 47.084783 
L 231.66348 45.631007 
L 231.582552 44.179485 
L 231.420947 42.734719 
L 231.179166 41.301189 
L 230.85796 39.883342 
L 230.458323 38.485574 
L 229.981496 37.11222 
L 229.428958 35.767539 
L 228.802421 34.455702 
L 228.103829 33.180777 
L 227.335349 31.946717 
L 226.499363 30.757351 
L 225.598465 29.616365 
L 224.635448 28.5273 
L 223.613299 27.493532 
L 222.535188 26.518268 
L 221.404458 25.604531 
L 220.224616 24.755156 
L 218.999321 23.972777 
L 217.732372 23.25982 
L 216.4277 22.618497 
L 215.089351 22.050795 
L 213.721474 21.558476 
L 212.328312 21.143067 
L 210.914185 20.805856 
L 209.48348 20.547888 
L 208.040633 20.369964 
L 206.590119 20.272636 
L 205.136435 20.256205 
L 203.684092 20.320722 
L 202.237591 20.465987 
L 200.801421 20.69155 
L 199.380033 20.996711 
L 197.977838 21.380524 
L 196.599182 21.841798 
L 195.248342 22.379103 
L 193.929508 22.990773 
L 192.646768 23.674911 
L 191.404102 24.429394 
L 190.205362 25.251883 
L 197.886851 35.804889 
L 197.886851 35.804889 
L 198.48622 35.393644 
L 199.107553 35.016403 
L 199.748923 34.674334 
L 200.408341 34.368499 
L 201.08376 34.099846 
L 201.773088 33.869209 
L 202.474186 33.677303 
L 203.18488 33.524722 
L 203.902965 33.411941 
L 204.626215 33.339308 
L 205.352387 33.30705 
L 206.079229 33.315265 
L 206.804486 33.36393 
L 207.52591 33.452892 
L 208.241262 33.581875 
L 208.948325 33.750481 
L 209.644906 33.958186 
L 210.328845 34.204345 
L 210.99802 34.488196 
L 211.650356 34.808857 
L 212.28383 35.165336 
L 212.896477 35.556525 
L 213.486398 35.981213 
L 214.051763 36.438081 
L 214.590819 36.925713 
L 215.101893 37.442597 
L 215.583402 37.98713 
L 216.033851 38.557623 
L 216.451844 39.152306 
L 216.836084 39.769336 
L 217.18538 40.406798 
L 217.498648 41.062717 
L 217.774918 41.735057 
L 218.013331 42.421734 
L 218.213149 43.120618 
L 218.373753 43.829542 
L 218.494643 44.546307 
L 218.575445 45.26869 
L 218.615909 45.994451 
L 218.615909 46.721339 
L 218.575445 47.4471 
L 218.494643 48.169483 
L 218.373753 48.886247 
L 218.213149 49.595171 
L 218.013331 50.294055 
L 217.774918 50.980732 
L 217.498648 51.653072 
L 217.18538 52.308991 
L 216.836084 52.946454 
L 216.451844 53.563483 
L 216.033851 54.158167 
L 215.583402 54.728659 
L 215.101893 55.273192 
L 214.590819 55.790076 
L 214.051763 56.277708 
L 213.486398 56.734577 
L 212.896477 57.159264 
L 212.28383 57.550454 
L 211.650356 57.906932 
L 210.99802 58.227594 
L 210.328845 58.511445 
L 209.644906 58.757604 
L 208.948325 58.965309 
L 208.241262 59.133914 
L 207.52591 59.262898 
L 206.804486 59.35186 
L 206.079229 59.400524 
L 205.352387 59.40874 
L 204.626215 59.376481 
L 203.902965 59.303849 
L 203.18488 59.191067 
L 202.474186 59.038487 
L 201.773088 58.84658 
L 201.08376 58.615943 
L 200.408341 58.34729 
L 199.748923 58.041456 
L 199.107553 57.699387 
L 198.48622 57.322145 
L 197.886851 56.9109 
z
" clip-path="url(#p83c17bcd9a)" style="fill: #8000ff; opacity: 0.6; stroke: #8000ff; stroke-width: 2; stroke-linejoin: miter"/>
   </g>
   <g class="patch">
    <path d="M 205.568339 82.905263 
C 216.645454 82.905263 227.27037 79.054402 235.103073 72.200787 
C 242.935776 65.347172 247.33676 56.05037 247.33676 46.357895 
C 247.33676 36.665419 242.935776 27.368618 235.103073 20.515003 
C 227.27037 13.661388 216.645454 9.810526 205.568339 9.810526 
C 194.491224 9.810526 183.866308 13.661388 176.033605 20.515003 
C 168.200902 27.368618 163.799918 36.665419 163.799918 46.357895 
C 163.799918 56.05037 168.200902 65.347172 176.033605 72.200787 
C 183.866308 79.054402 194.491224 82.905263 205.568339 82.905263 
L 205.568339 82.905263 
z
" clip-path="url(#p83c17bcd9a)" style="fill: none; opacity: 0.7; stroke-dasharray: 7.4,3.2; stroke-dashoffset: 0; stroke: #808080; stroke-width: 2; stroke-linejoin: miter"/>
   </g>
   <g class="patch">
    <path d="M 213.676186 76.616792 
C 223.038398 74.108195 231.164125 68.513737 236.263769 61.065534 
C 241.363414 53.61733 243.020612 44.923493 240.870386 36.89874 
C 238.72016 28.873986 232.938065 22.173502 224.797542 18.272991 
C 216.657019 14.372479 206.822704 13.5904 197.460492 16.098997 
C 188.098279 18.607595 179.972553 24.202052 174.872908 31.650256 
C 169.773264 39.098459 168.116066 47.792296 170.266292 55.81705 
C 172.416518 63.841803 178.198612 70.542288 186.339136 74.442799 
C 194.479659 78.34331 204.313974 79.125389 213.676186 76.616792 
L 213.676186 76.616792 
z
" clip-path="url(#p83c17bcd9a)" style="fill: none; opacity: 0.7; stroke-dasharray: 7.4,3.2; stroke-dashoffset: 0; stroke: #808080; stroke-width: 2; stroke-linejoin: miter"/>
   </g>
   <g class="axis"/>
   <g class="axis"/>
   <g id="text_2" class="text">
    <!-- Larger Convex Sets -->
    <g transform="translate(139.759589 98.568421) scale(0.12 -0.12)">
     <defs>
      <path id="DejaVuSans-Bold-4c" d="M 588 4666 
L 1791 4666 
L 1791 909 
L 3903 909 
L 3903 0 
L 588 0 
L 588 4666 
z
" transform="scale(0.015625)"/>
      <path id="DejaVuSans-Bold-72" d="M 3138 2547 
Q 2991 2616 2845 2648 
Q 2700 2681 2553 2681 
Q 2122 2681 1889 2404 
Q 1656 2128 1656 1613 
L 1656 0 
L 538 0 
L 538 3500 
L 1656 3500 
L 1656 2925 
Q 1872 3269 2151 3426 
Q 2431 3584 2822 3584 
Q 2878 3584 2943 3579 
Q 3009 3575 3134 3559 
L 3138 2547 
z
" transform="scale(0.015625)"/>
      <path id="DejaVuSans-Bold-67" d="M 2919 594 
Q 2688 288 2409 144 
Q 2131 0 1766 0 
Q 1125 0 706 504 
Q 288 1009 288 1791 
Q 288 2575 706 3076 
Q 1125 3578 1766 3578 
Q 2131 3578 2409 3434 
Q 2688 3291 2919 2981 
L 2919 3500 
L 4044 3500 
L 4044 353 
Q 4044 -491 3511 -936 
Q 2978 -1381 1966 -1381 
Q 1638 -1381 1331 -1331 
Q 1025 -1281 716 -1178 
L 716 -306 
Q 1009 -475 1290 -558 
Q 1572 -641 1856 -641 
Q 2406 -641 2662 -400 
Q 2919 -159 2919 353 
L 2919 594 
z
M 2181 2772 
Q 1834 2772 1640 2515 
Q 1447 2259 1447 1791 
Q 1447 1309 1634 1061 
Q 1822 813 2181 813 
Q 2531 813 2725 1069 
Q 2919 1325 2919 1791 
Q 2919 2259 2725 2515 
Q 2531 2772 2181 2772 
z
" transform="scale(0.015625)"/>
      <path id="DejaVuSans-Bold-73" d="M 3272 3391 
L 3272 2541 
Q 2913 2691 2578 2766 
Q 2244 2841 1947 2841 
Q 1628 2841 1473 2761 
Q 1319 2681 1319 2516 
Q 1319 2381 1436 2309 
Q 1553 2238 1856 2203 
L 2053 2175 
Q 2913 2066 3209 1816 
Q 3506 1566 3506 1031 
Q 3506 472 3093 190 
Q 2681 -91 1863 -91 
Q 1516 -91 1145 -36 
Q 775 19 384 128 
L 384 978 
Q 719 816 1070 734 
Q 1422 653 1784 653 
Q 2113 653 2278 743 
Q 2444 834 2444 1013 
Q 2444 1163 2330 1236 
Q 2216 1309 1875 1350 
L 1678 1375 
Q 931 1469 631 1722 
Q 331 1975 331 2491 
Q 331 3047 712 3315 
Q 1094 3584 1881 3584 
Q 2191 3584 2531 3537 
Q 2872 3491 3272 3391 
z
" transform="scale(0.015625)"/>
     </defs>
     <use xlink:href="#DejaVuSans-Bold-4c"/>
     <use xlink:href="#DejaVuSans-Bold-61" transform="translate(63.720703 0)"/>
     <use xlink:href="#DejaVuSans-Bold-72" transform="translate(131.201172 0)"/>
     <use xlink:href="#DejaVuSans-Bold-67" transform="translate(180.517578 0)"/>
     <use xlink:href="#DejaVuSans-Bold-65" transform="translate(252.099609 0)"/>
     <use xlink:href="#DejaVuSans-Bold-72" transform="translate(319.921875 0)"/>
     <use xlink:href="#DejaVuSans-Bold-20" transform="translate(369.238281 0)"/>
     <use xlink:href="#DejaVuSans-Bold-43" transform="translate(404.052734 0)"/>
     <use xlink:href="#DejaVuSans-Bold-6f" transform="translate(477.441406 0)"/>
     <use xlink:href="#DejaVuSans-Bold-6e" transform="translate(546.142578 0)"/>
     <use xlink:href="#DejaVuSans-Bold-76" transform="translate(617.333984 0)"/>
     <use xlink:href="#DejaVuSans-Bold-65" transform="translate(682.519531 0)"/>
     <use xlink:href="#DejaVuSans-Bold-78" transform="translate(750.341797 0)"/>
     <use xlink:href="#DejaVuSans-Bold-20" transform="translate(814.84375 0)"/>
     <use xlink:href="#DejaVuSans-Bold-53" transform="translate(849.658203 0)"/>
     <use xlink:href="#DejaVuSans-Bold-65" transform="translate(921.679688 0)"/>
     <use xlink:href="#DejaVuSans-Bold-74" transform="translate(989.501953 0)"/>
     <use xlink:href="#DejaVuSans-Bold-73" transform="translate(1037.304688 0)"/>
    </g>
   </g>
  </g>
  <g id="axes_3">
   <g class="patch">
    <path d="M 290.149391 98.568421 
L 384.128339 98.568421 
L 384.128339 7.2 
L 290.149391 7.2 
L 290.149391 98.568421 
z
" style="fill: none"/>
   </g>
   <g class="patch">
    <path d="M 321.775889 67.463906 
L 322.974628 68.286396 
L 324.217294 69.040879 
L 325.500034 69.725016 
L 326.818869 70.336686 
L 328.169708 70.873991 
L 329.548364 71.335266 
L 330.95056 71.719078 
L 332.371947 72.02424 
L 333.808118 72.249802 
L 335.254618 72.395068 
L 336.706962 72.459585 
L 338.160645 72.443154 
L 339.611159 72.345825 
L 341.054007 72.167901 
L 342.484712 71.909934 
L 343.898838 71.572722 
L 345.292 71.157313 
L 346.659877 70.664994 
L 347.998227 70.097293 
L 349.302899 69.455969 
L 350.569847 68.743012 
L 351.795142 67.960633 
L 352.974984 67.111258 
L 354.105714 66.197522 
L 355.183825 65.222257 
L 356.205974 64.188489 
L 357.168991 63.099424 
L 358.06989 61.958439 
L 358.905875 60.769072 
L 359.674356 59.535013 
L 360.372947 58.260087 
L 360.999484 56.94825 
L 361.552023 55.60357 
L 362.02885 54.230216 
L 362.428486 52.832448 
L 362.749693 51.4146 
L 362.991474 49.981071 
L 363.153078 48.536305 
L 363.234006 47.084783 
L 363.234006 45.631007 
L 363.153078 44.179485 
L 362.991474 42.734719 
L 362.749693 41.301189 
L 362.428486 39.883342 
L 362.02885 38.485574 
L 361.552023 37.11222 
L 360.999484 35.767539 
L 360.372947 34.455702 
L 359.674356 33.180777 
L 358.905875 31.946717 
L 358.06989 30.757351 
L 357.168991 29.616365 
L 356.205974 28.5273 
L 355.183825 27.493532 
L 354.105714 26.518268 
L 352.974984 25.604531 
L 351.795142 24.755156 
L 350.569847 23.972777 
L 349.302899 23.25982 
L 347.998227 22.618497 
L 346.659877 22.050795 
L 345.292 21.558476 
L 343.898838 21.143067 
L 342.484712 20.805856 
L 341.054007 20.547888 
L 339.611159 20.369964 
L 338.160645 20.272636 
L 336.706962 20.256205 
L 335.254618 20.320722 
L 333.808118 20.465987 
L 332.371947 20.69155 
L 330.95056 20.996711 
L 329.548364 21.380524 
L 328.169708 21.841798 
L 326.818869 22.379103 
L 325.500034 22.990773 
L 324.217294 23.674911 
L 322.974628 24.429394 
L 321.775889 25.251883 
L 329.457377 35.804889 
L 329.457377 35.804889 
L 330.056747 35.393644 
L 330.67808 35.016403 
L 331.31945 34.674334 
L 331.978867 34.368499 
L 332.654287 34.099846 
L 333.343615 33.869209 
L 334.044712 33.677303 
L 334.755406 33.524722 
L 335.473491 33.411941 
L 336.196741 33.339308 
L 336.922913 33.30705 
L 337.649755 33.315265 
L 338.375012 33.36393 
L 339.096436 33.452892 
L 339.811788 33.581875 
L 340.518852 33.750481 
L 341.215433 33.958186 
L 341.899371 34.204345 
L 342.568546 34.488196 
L 343.220882 34.808857 
L 343.854356 35.165336 
L 344.467004 35.556525 
L 345.056925 35.981213 
L 345.62229 36.438081 
L 346.161345 36.925713 
L 346.67242 37.442597 
L 347.153928 37.98713 
L 347.604377 38.557623 
L 348.02237 39.152306 
L 348.40661 39.769336 
L 348.755906 40.406798 
L 349.069175 41.062717 
L 349.345444 41.735057 
L 349.583857 42.421734 
L 349.783676 43.120618 
L 349.944279 43.829542 
L 350.065169 44.546307 
L 350.145972 45.26869 
L 350.186436 45.994451 
L 350.186436 46.721339 
L 350.145972 47.4471 
L 350.065169 48.169483 
L 349.944279 48.886247 
L 349.783676 49.595171 
L 349.583857 50.294055 
L 349.345444 50.980732 
L 349.069175 51.653072 
L 348.755906 52.308991 
L 348.40661 52.946454 
L 348.02237 53.563483 
L 347.604377 54.158167 
L 347.153928 54.728659 
L 346.67242 55.273192 
L 346.161345 55.790076 
L 345.62229 56.277708 
L 345.056925 56.734577 
L 344.467004 57.159264 
L 343.854356 57.550454 
L 343.220882 57.906932 
L 342.568546 58.227594 
L 341.899371 58.511445 
L 341.215433 58.757604 
L 340.518852 58.965309 
L 339.811788 59.133914 
L 339.096436 59.262898 
L 338.375012 59.35186 
L 337.649755 59.400524 
L 336.922913 59.40874 
L 336.196741 59.376481 
L 335.473491 59.303849 
L 334.755406 59.191067 
L 334.044712 59.038487 
L 333.343615 58.84658 
L 332.654287 58.615943 
L 331.978867 58.34729 
L 331.31945 58.041456 
L 330.67808 57.699387 
L 330.056747 57.322145 
L 329.457377 56.9109 
z
" clip-path="url(#pa94e4a4c22)" style="fill: #8000ff; opacity: 0.6; stroke: #8000ff; stroke-width: 2; stroke-linejoin: miter"/>
   </g>
   <g class="axis"/>
   <g class="axis"/>
   <g class="patch">
    <path d="M 331.222479 33.879821 
Q 342.359302 37.220868 351.889801 40.080017 
" style="fill: none; opacity: 0.7; stroke: var(--black); stroke-width: 1.5; stroke-linecap: round"/>
    <path d="M 348.633191 37.014973 
L 351.889801 40.080017 
L 347.4838 40.846279 
" style="fill: none; opacity: 0.7; stroke: var(--black); stroke-width: 1.5; stroke-linecap: round"/>
   </g>
   <g class="patch">
    <path d="M 333.169539 32.259396 
Q 342.361482 43.749323 350.505778 53.929694 
" style="fill: none; opacity: 0.7; stroke: var(--black); stroke-width: 1.5; stroke-linecap: round"/>
    <path d="M 349.568736 49.556829 
L 350.505778 53.929694 
L 346.445261 52.055609 
" style="fill: none; opacity: 0.7; stroke: var(--black); stroke-width: 1.5; stroke-linecap: round"/>
   </g>
   <g id="text_3" class="text">
    <!-- All Convex Combinations -->
    <g transform="translate(253.217615 82.905263) scale(0.12 -0.12)">
     <defs>
      <path id="DejaVuSans-Bold-41" d="M 3419 850 
L 1538 850 
L 1241 0 
L 31 0 
L 1759 4666 
L 3194 4666 
L 4922 0 
L 3713 0 
L 3419 850 
z
M 1838 1716 
L 3116 1716 
L 2478 3572 
L 1838 1716 
z
" transform="scale(0.015625)"/>
      <path id="DejaVuSans-Bold-62" d="M 2400 722 
Q 2759 722 2948 984 
Q 3138 1247 3138 1747 
Q 3138 2247 2948 2509 
Q 2759 2772 2400 2772 
Q 2041 2772 1848 2508 
Q 1656 2244 1656 1747 
Q 1656 1250 1848 986 
Q 2041 722 2400 722 
z
M 1656 2988 
Q 1888 3294 2169 3439 
Q 2450 3584 2816 3584 
Q 3463 3584 3878 3070 
Q 4294 2556 4294 1747 
Q 4294 938 3878 423 
Q 3463 -91 2816 -91 
Q 2450 -91 2169 54 
Q 1888 200 1656 506 
L 1656 0 
L 538 0 
L 538 4863 
L 1656 4863 
L 1656 2988 
z
" transform="scale(0.015625)"/>
     </defs>
     <use xlink:href="#DejaVuSans-Bold-41"/>
     <use xlink:href="#DejaVuSans-Bold-6c" transform="translate(77.392578 0)"/>
     <use xlink:href="#DejaVuSans-Bold-6c" transform="translate(111.669922 0)"/>
     <use xlink:href="#DejaVuSans-Bold-20" transform="translate(145.947266 0)"/>
     <use xlink:href="#DejaVuSans-Bold-43" transform="translate(180.761719 0)"/>
     <use xlink:href="#DejaVuSans-Bold-6f" transform="translate(254.150391 0)"/>
     <use xlink:href="#DejaVuSans-Bold-6e" transform="translate(322.851562 0)"/>
     <use xlink:href="#DejaVuSans-Bold-76" transform="translate(394.042969 0)"/>
     <use xlink:href="#DejaVuSans-Bold-65" transform="translate(459.228516 0)"/>
     <use xlink:href="#DejaVuSans-Bold-78" transform="translate(527.050781 0)"/>
     <use xlink:href="#DejaVuSans-Bold-20" transform="translate(591.552734 0)"/>
     <use xlink:href="#DejaVuSans-Bold-43" transform="translate(626.367188 0)"/>
     <use xlink:href="#DejaVuSans-Bold-6f" transform="translate(699.755859 0)"/>
     <use xlink:href="#DejaVuSans-Bold-6d" transform="translate(768.457031 0)"/>
     <use xlink:href="#DejaVuSans-Bold-62" transform="translate(872.65625 0)"/>
     <use xlink:href="#DejaVuSans-Bold-69" transform="translate(944.238281 0)"/>
     <use xlink:href="#DejaVuSans-Bold-6e" transform="translate(978.515625 0)"/>
     <use xlink:href="#DejaVuSans-Bold-61" transform="translate(1049.707031 0)"/>
     <use xlink:href="#DejaVuSans-Bold-74" transform="translate(1117.1875 0)"/>
     <use xlink:href="#DejaVuSans-Bold-69" transform="translate(1164.990234 0)"/>
     <use xlink:href="#DejaVuSans-Bold-6f" transform="translate(1199.267578 0)"/>
     <use xlink:href="#DejaVuSans-Bold-6e" transform="translate(1267.96875 0)"/>
     <use xlink:href="#DejaVuSans-Bold-73" transform="translate(1339.160156 0)"/>
    </g>
   </g>
   <g id="PathCollection_2">
    <defs>
     <path id="m8513cf31e0" d="M 0 2.236068 
C 0.593012 2.236068 1.161816 2.000462 1.581139 1.581139 
C 2.000462 1.161816 2.236068 0.593012 2.236068 0 
C 2.236068 -0.593012 2.000462 -1.161816 1.581139 -1.581139 
C 1.161816 -2.000462 0.593012 -2.236068 0 -2.236068 
C -0.593012 -2.236068 -1.161816 -2.000462 -1.581139 -1.581139 
C -2.000462 -1.161816 -2.236068 -0.593012 -2.236068 0 
C -2.236068 0.593012 -2.000462 1.161816 -1.581139 1.581139 
C -1.161816 2.000462 -0.593012 2.236068 0 2.236068 
z
" style="stroke: var(--black); stroke-opacity: 0.7"/>
    </defs>
    <g clip-path="url(#pa94e4a4c22)">
     <use xlink:href="#m8513cf31e0" x="329.307286" y="33.305263" style="fill-opacity: 0.7; stroke: var(--black); stroke-opacity: 0.7"/>
    </g>
   </g>
   <g id="PathCollection_3">
    <g clip-path="url(#pa94e4a4c22)">
     <use xlink:href="#m8513cf31e0" x="355.412549" y="41.136842" style="fill-opacity: 0.7; stroke: var(--black); stroke-opacity: 0.7"/>
    </g>
   </g>
   <g id="PathCollection_4">
    <g clip-path="url(#pa94e4a4c22)">
     <use xlink:href="#m8513cf31e0" x="331.917813" y="30.694737" style="fill-opacity: 0.7; stroke: var(--black); stroke-opacity: 0.7"/>
    </g>
   </g>
   <g id="PathCollection_5">
    <g clip-path="url(#pa94e4a4c22)">
     <use xlink:href="#m8513cf31e0" x="352.802023" y="56.8" style="fill-opacity: 0.7; stroke: var(--black); stroke-opacity: 0.7"/>
    </g>
   </g>
  </g>
 </g>
 <defs>
  <clipPath id="p32c0f53c5d">
   <rect x="27.008339" y="7.2" width="93.978947" height="91.368421"/>
  </clipPath>
  <clipPath id="p83c17bcd9a">
   <rect x="158.578865" y="7.2" width="93.978947" height="91.368421"/>
  </clipPath>
  <clipPath id="pa94e4a4c22">
   <rect x="290.149391" y="7.2" width="93.978947" height="91.368421"/>
  </clipPath>
 </defs>
</svg>
