<svg xmlns="http://www.w3.org/2000/svg" xmlns:xlink="http://www.w3.org/1999/xlink" width="694.4pt" height="348.584" viewBox="0 0 694.4 261.438"><style><![CDATA[.text{fill:#000!important;stroke:none!important}.axis path,[stroke=black],[stroke=currentColor]{stroke:#000!important}@media (prefers-color-scheme:dark){.text{fill:#fff!important;stroke:none!important}.axis path,[stroke=black],[stroke=currentColor]{stroke:#fff!important}g.legend>g:first-child>path:first-child{fill:rgba(26,26,26,.8)!important;stroke:rgba(255,255,255,.1)!important}}*{stroke-linejoin:round;stroke-linecap:butt}]]></style><g id="figure_1"><path d="M0 261.438h694.4V0H0z" class="patch" style="fill:none"/><g id="axes_1"><path d="M7.2 254.238h327V31.318H7.2z" class="patch" style="fill:none"/><path id="line2d_1" d="m22.064 31.318 5.975 15.612 5.975 14.97 5.976 14.331 5.975 13.69 5.975 13.05 5.976 12.41 5.975 11.768 4.481 8.406 4.482 8.046 4.481 7.686 4.482 7.325 4.481 6.965 4.482 6.605 4.481 6.245 4.482 5.884 4.481 5.524 4.482 5.164 4.481 4.803 4.482 4.444 4.481 4.083 4.482 3.722 4.481 3.363 4.482 3.002 4.481 2.642 4.482 2.282 4.481 1.921 2.988 1.08 2.988.922 2.987.76 2.988.6 2.988.44 2.987.281 2.988.12 2.988-.04 2.987-.2 2.988-.36 2.988-.52 2.987-.681 2.988-.84 2.988-1.001 2.987-1.161 4.482-2.042 4.481-2.402 4.482-2.762 4.481-3.122 4.482-3.482 4.481-3.843 4.482-4.203 4.481-4.564 4.482-4.923 4.481-5.284 4.482-5.644 4.481-6.005 4.482-6.365 4.481-6.725 4.482-7.085 4.481-7.445 4.482-7.806 4.481-8.166 4.482-8.526 5.975-11.93 5.976-12.568 5.975-13.21 5.975-13.85 5.976-14.491 5.975-15.131 4.481-11.769h0" clip-path="url(#p8763c69a24)" style="fill:none;stroke:#ff0001;stroke-width:2;stroke-linecap:square"/><g id="line2d_2"><defs><path id="m7d0c49dded" d="M0 4a4 4 0 1 0 0-8 4 4 0 0 0 0 8z" style="stroke:#ff0001"/></defs><g clip-path="url(#p8763c69a24)"><use xlink:href="#m7d0c49dded" x="170.7" y="229.469" style="fill:#ff0001;stroke:#ff0001"/></g></g><g id="line2d_3"><defs><path id="m0f4ce71924" d="m3 0-6-3v6z" style="stroke:currentColor;stroke-linejoin:miter"/></defs><use xlink:href="#m0f4ce71924" x="334.2" y="229.469" style="stroke:currentColor;stroke-linejoin:miter"/></g><g id="line2d_4"><defs><path id="m1b51dcb250" d="m0-3-3 6h6z" style="stroke:currentColor;stroke-linejoin:miter"/></defs><use xlink:href="#m1b51dcb250" x="170.7" y="31.318" style="stroke:currentColor;stroke-linejoin:miter"/></g><path d="M170.7 254.238V31.318M7.2 229.47h327" class="patch" style="fill:none;stroke:currentColor;stroke-width:.8;stroke-linejoin:miter;stroke-linecap:square"/><g id="text_1" class="text" transform="matrix(.12 0 0 -.12 120.922 16.318)"><defs><path id="DejaVuSans-43" d="M4122 4306v-665q-319 297-680 443-361 147-767 147-800 0-1225-489t-425-1414q0-922 425-1411t1225-489q406 0 767 147t680 444V359q-331-225-702-338-370-112-782-112-1060 0-1670 648-609 649-609 1771 0 1125 609 1773 610 649 1670 649 418 0 788-111 371-111 696-333z" transform="scale(.01563)"/><path id="DejaVuSans-6f" d="M1959 3097q-462 0-731-361t-269-989 267-989q268-361 733-361 460 0 728 362 269 363 269 988 0 622-269 986-268 364-728 364zm0 487q750 0 1178-488 429-487 429-1349 0-859-429-1349Q2709-91 1959-91q-753 0-1180 489-426 490-426 1349 0 862 426 1349 427 488 1180 488z" transform="scale(.01563)"/><path id="DejaVuSans-6e" d="M3513 2113V0h-575v2094q0 497-194 743-194 247-581 247-466 0-735-297-269-296-269-809V0H581v3500h578v-544q207 316 486 472 280 156 646 156 603 0 912-373 310-373 310-1098z" transform="scale(.01563)"/><path id="DejaVuSans-76" d="M191 3500h609L1894 563l1094 2937h609L2284 0h-781z" transform="scale(.01563)"/><path id="DejaVuSans-65" d="M3597 1894v-281H953q38-594 358-905t892-311q331 0 642 81t618 244V178Q3153 47 2828-22t-659-69q-838 0-1327 487-489 488-489 1320 0 859 464 1363 464 505 1252 505 706 0 1117-455 411-454 411-1235zm-575 169q-6 471-264 752-258 282-683 282-481 0-770-272t-333-766z" transform="scale(.01563)"/><path id="DejaVuSans-78" d="M3513 3500 2247 1797 3578 0h-678L1881 1375 863 0H184l1360 1831L300 3500h678l928-1247 928 1247z" transform="scale(.01563)"/><path id="DejaVuSans-46" d="M628 4666h2681v-532H1259V2759h1850v-531H1259V0H628z" transform="scale(.01563)"/><path id="DejaVuSans-75" d="M544 1381v2119h575V1403q0-497 193-746 194-248 582-248 465 0 735 297 271 297 271 810v1984h575V0h-575v538q-209-319-486-474-276-155-642-155-603 0-916 375-312 375-312 1097zm1447 2203z" transform="scale(.01563)"/><path id="DejaVuSans-63" d="M3122 3366v-538q-244 135-489 202t-495 67q-560 0-870-355-309-354-309-995t309-996q310-354 870-354 250 0 495 67t489 202V134Q2881 22 2623-34q-257-57-548-57-791 0-1257 497-465 497-465 1341 0 856 470 1346 471 491 1290 491 265 0 518-55 253-54 491-163z" transform="scale(.01563)"/><path id="DejaVuSans-74" d="M1172 4494v-994h1184v-447H1172V1153q0-428 117-550t477-122h590V0h-590q-666 0-919 248-253 249-253 905v1900H172v447h422v994z" transform="scale(.01563)"/><path id="DejaVuSans-69" d="M603 3500h575V0H603zm0 1363h575v-729H603z" transform="scale(.01563)"/></defs><use xlink:href="#DejaVuSans-43"/><use xlink:href="#DejaVuSans-6f" transform="translate(69.824)"/><use xlink:href="#DejaVuSans-6e" transform="translate(131.006)"/><use xlink:href="#DejaVuSans-76" transform="translate(194.385)"/><use xlink:href="#DejaVuSans-65" transform="translate(253.564)"/><use xlink:href="#DejaVuSans-78" transform="translate(313.338)"/><use xlink:href="#DejaVuSans-46" transform="translate(404.305)"/><use xlink:href="#DejaVuSans-75" transform="translate(456.324)"/><use xlink:href="#DejaVuSans-6e" transform="translate(519.703)"/><use xlink:href="#DejaVuSans-63" transform="translate(583.082)"/><use xlink:href="#DejaVuSans-74" transform="translate(638.063)"/><use xlink:href="#DejaVuSans-69" transform="translate(677.271)"/><use xlink:href="#DejaVuSans-6f" transform="translate(705.055)"/><use xlink:href="#DejaVuSans-6e" transform="translate(766.236)"/></g></g><g id="axes_2"><path d="M357.2 254.238h327V31.318h-327z" class="patch" style="fill:none"/><path id="line2d_5" d="m388.656-1 2.827 27.723 2.988 26.75 2.988 24.299 2.987 21.976 2.988 19.782 2.988 17.709 2.987 15.757 2.988 13.924 2.988 12.203 2.987 10.593 2.988 9.093 1.494 4.016 1.494 3.68 1.494 3.356 1.493 3.045 1.494 2.745 1.494 2.46 1.494 2.183 1.494 1.92 1.494 1.668 1.493 1.428 1.494 1.198 1.494.978 1.494.77 1.494.574 1.494.385 1.493.209 1.494.04 1.494-.117 1.494-.265 1.494-.404 1.494-.534 2.987-1.422 2.988-1.836 2.988-2.184 2.987-2.47 4.482-4.112 5.975-5.949 10.457-10.6 4.481-4.245 4.482-3.894 2.988-2.35 2.987-2.124 2.988-1.874 2.988-1.606 2.987-1.32 2.988-1.023 2.988-.714 2.987-.4 2.988-.08 2.988.24 2.987.558 2.988.87 2.988 1.172 2.987 1.465 2.988 1.743 2.988 2.001 2.987 2.24 2.988 2.454 4.481 4.023 4.482 4.339 8.963 9.125 5.975 5.95 4.482 4.11 2.987 2.47 2.988 2.185 2.988 1.836 2.987 1.422 1.494.534 1.494.404 1.494.265 1.494.117 1.494-.04 1.493-.209 1.494-.385 1.494-.573 1.494-.77 1.494-.98 1.494-1.197 1.493-1.428 1.494-1.668 1.494-1.92 1.494-2.184 1.494-2.459 1.494-2.745 1.493-3.045 1.494-3.356 1.494-3.68 1.494-4.016 1.494-4.365 1.494-4.728 2.987-10.593 2.988-12.203 2.988-13.924 2.987-15.757 2.988-17.71 2.988-19.78 2.987-21.977 2.988-24.299 2.988-26.75L652.744-1h0" clip-path="url(#p528e1700c2)" style="fill:none;stroke:#00ff02;stroke-width:2;stroke-linecap:square"/><g id="line2d_6"><defs><path id="m5ef1746584" d="M0 4a4 4 0 1 0 0-8 4 4 0 0 0 0 8z" style="stroke:#00ff02"/></defs><g clip-path="url(#p528e1700c2)"><use xlink:href="#m5ef1746584" x="446.382" y="229.469" style="fill:#00ff02;stroke:#00ff02"/><use xlink:href="#m5ef1746584" x="595.018" y="229.469" style="fill:#00ff02;stroke:#00ff02"/></g></g><g id="line2d_7"><defs><path id="mc689742618" d="M-4 4h8v-8h-8z" style="stroke:#00f;stroke-linejoin:miter"/></defs><g clip-path="url(#p528e1700c2)"><use xlink:href="#mc689742618" x="520.7" y="179.931" style="fill:#00f;stroke:#00f;stroke-linejoin:miter"/></g></g><use xlink:href="#m0f4ce71924" id="line2d_8" x="684.2" y="229.469" style="stroke:currentColor;stroke-linejoin:miter"/><use xlink:href="#m1b51dcb250" id="line2d_9" x="520.7" y="31.318" style="stroke:currentColor;stroke-linejoin:miter"/><path d="M520.7 254.238V31.318M357.2 229.47h327" class="patch" style="fill:none;stroke:currentColor;stroke-width:.8;stroke-linejoin:miter;stroke-linecap:square"/><g id="text_2" class="text" transform="matrix(.12 0 0 -.12 457.686 16.318)"><defs><path id="DejaVuSans-4e" d="M628 4666h850L3547 763v3903h612V0h-850L1241 3903V0H628z" transform="scale(.01563)"/><path id="DejaVuSans-2d" d="M313 2009h1684v-512H313z" transform="scale(.01563)"/></defs><use xlink:href="#DejaVuSans-4e"/><use xlink:href="#DejaVuSans-6f" transform="translate(74.805)"/><use xlink:href="#DejaVuSans-6e" transform="translate(135.986)"/><use xlink:href="#DejaVuSans-2d" transform="translate(199.365)"/><use xlink:href="#DejaVuSans-63" transform="translate(235.45)"/><use xlink:href="#DejaVuSans-6f" transform="translate(290.43)"/><use xlink:href="#DejaVuSans-6e" transform="translate(351.611)"/><use xlink:href="#DejaVuSans-76" transform="translate(414.99)"/><use xlink:href="#DejaVuSans-65" transform="translate(474.17)"/><use xlink:href="#DejaVuSans-78" transform="translate(533.943)"/><use xlink:href="#DejaVuSans-46" transform="translate(624.91)"/><use xlink:href="#DejaVuSans-75" transform="translate(676.93)"/><use xlink:href="#DejaVuSans-6e" transform="translate(740.309)"/><use xlink:href="#DejaVuSans-63" transform="translate(803.688)"/><use xlink:href="#DejaVuSans-74" transform="translate(858.668)"/><use xlink:href="#DejaVuSans-69" transform="translate(897.877)"/><use xlink:href="#DejaVuSans-6f" transform="translate(925.66)"/><use xlink:href="#DejaVuSans-6e" transform="translate(986.842)"/></g><g class="legend"><path d="M583.62 69.397h87.74q1.8 0 1.8-1.8v-25.52q0-1.8-1.8-1.8h-87.74q-1.8 0-1.8 1.8v25.52q0 1.8 1.8 1.8z" class="patch" style="fill:rgba(255,255,255,.8)!important;opacity:.9;stroke:rgba(0,0,0,.1)!important;stroke-linejoin:miter"/><use xlink:href="#m5ef1746584" id="line2d_10" x="594.42" y="47.565" style="fill:#00ff02;stroke:#00ff02"/><g id="text_3" class="text" transform="matrix(.09 0 0 -.09 610.62 50.715)"><defs><path id="DejaVuSans-4c" d="M628 4666h631V531h2272V0H628z" transform="scale(.01563)"/><path id="DejaVuSans-61" d="M2194 1759q-697 0-966-159t-269-544q0-306 202-486 202-179 548-179 479 0 768 339t289 901v128zm1147 238V0h-575v531q-197-318-491-470T1556-91q-537 0-855 302-317 302-317 808 0 590 395 890 396 300 1180 300h807v57q0 397-261 614t-733 217q-300 0-585-72-284-72-546-216v532q315 122 612 182 297 61 578 61 760 0 1135-394 375-393 375-1193z" transform="scale(.01563)"/><path id="DejaVuSans-6c" d="M603 4863h575V0H603z" transform="scale(.01563)"/><path id="DejaVuSans-4d" d="M628 4666h941l1190-3175 1197 3175h941V0h-616v4097L3078 897h-634L1241 4097V0H628z" transform="scale(.01563)"/><path id="DejaVuSans-6d" d="M3328 2828q216 388 516 572t706 184q547 0 844-383 297-382 297-1088V0h-578v2094q0 503-179 746-178 244-543 244-447 0-707-297-259-296-259-809V0h-578v2094q0 506-178 748t-550 242q-441 0-701-298-259-298-259-808V0H581v3500h578v-544q197 322 472 475t653 153q382 0 649-194 267-193 395-562z" transform="scale(.01563)"/></defs><use xlink:href="#DejaVuSans-4c"/><use xlink:href="#DejaVuSans-6f" transform="translate(53.963)"/><use xlink:href="#DejaVuSans-63" transform="translate(115.145)"/><use xlink:href="#DejaVuSans-61" transform="translate(170.125)"/><use xlink:href="#DejaVuSans-6c" transform="translate(231.404)"/><use xlink:href="#DejaVuSans-4d" transform="translate(290.975)"/><use xlink:href="#DejaVuSans-69" transform="translate(377.254)"/><use xlink:href="#DejaVuSans-6e" transform="translate(405.037)"/><use xlink:href="#DejaVuSans-69" transform="translate(468.416)"/><use xlink:href="#DejaVuSans-6d" transform="translate(496.2)"/><use xlink:href="#DejaVuSans-61" transform="translate(593.611)"/></g><use xlink:href="#mc689742618" id="line2d_11" x="594.42" y="60.775" style="fill:#00f;stroke:#00f;stroke-linejoin:miter"/><g id="text_4" class="text" transform="matrix(.09 0 0 -.09 610.62 63.925)"><defs><path id="DejaVuSans-53" d="M3425 4513v-616q-359 172-678 256-319 85-616 85-515 0-795-200t-280-569q0-310 186-468 186-157 705-254l381-78q706-135 1042-474t336-907q0-679-455-1029Q2797-91 1919-91q-331 0-705 75-373 75-773 222v650q384-215 753-325 369-109 725-109 540 0 834 212 294 213 294 607 0 343-211 537t-692 291l-385 75q-706 140-1022 440-315 300-315 835 0 619 436 975t1201 356q329 0 669-60 341-59 697-177z" transform="scale(.01563)"/><path id="DejaVuSans-64" d="M2906 2969v1894h575V0h-575v525q-181-312-458-464-276-152-664-152-634 0-1033 506-398 507-398 1332t398 1331q399 506 1033 506 388 0 664-152 277-151 458-463zM947 1747q0-634 261-995t717-361 718 361q263 361 263 995t-263 995q-262 361-718 361t-717-361-261-995z" transform="scale(.01563)"/><path id="DejaVuSans-50" d="M1259 4147V2394h794q441 0 681 228 241 228 241 650 0 419-241 647-240 228-681 228zm-631 519h1425q785 0 1186-355 402-355 402-1039 0-691-402-1044-401-353-1186-353h-794V0H628z" transform="scale(.01563)"/></defs><use xlink:href="#DejaVuSans-53"/><use xlink:href="#DejaVuSans-61" transform="translate(63.477)"/><use xlink:href="#DejaVuSans-64" transform="translate(124.756)"/><use xlink:href="#DejaVuSans-64" transform="translate(188.232)"/><use xlink:href="#DejaVuSans-6c" transform="translate(251.709)"/><use xlink:href="#DejaVuSans-65" transform="translate(279.492)"/><use xlink:href="#DejaVuSans-50" transform="translate(372.803)"/><use xlink:href="#DejaVuSans-6f" transform="translate(429.48)"/><use xlink:href="#DejaVuSans-69" transform="translate(490.662)"/><use xlink:href="#DejaVuSans-6e" transform="translate(518.445)"/><use xlink:href="#DejaVuSans-74" transform="translate(581.824)"/></g></g></g></g><defs><clipPath id="p8763c69a24"><path d="M7.2 31.318h327v222.92H7.2z"/></clipPath><clipPath id="p528e1700c2"><path d="M357.2 31.318h327v222.92h-327z"/></clipPath></defs></svg>