<svg xmlns="http://www.w3.org/2000/svg" xmlns:xlink="http://www.w3.org/1999/xlink" width="495.36" height="219.005" style="--axis-color:#000;--grid-stroke:rgba(0,0,0,0.2);--plot3d-stroke:rgba(0,0,0,0.3);--plot3d-grid:rgba(0,0,0,0.2);--black:#000000;--c1:#FF0001;--c2:#00FF02;--c3:#0000FF;--c4:#FF00FF;--c5:#00FFFF;--c6:#FFFF00;--c7:#FF8000;--c8:#8000FF;--gray:#7f7f7f;--grey:#7f7f7f;--octonary:#bcbd22;--primary:#d62728;--quaternary:#9467bd;--quinary:#8c564b;--secondary:#2ca02c;--senary:#e377c2;--septenary:#7f7f7f;--tertiary:#1f77b4;--white:#ffffff" viewBox="0 0 371.52 164.253"><style><![CDATA[@media (prefers-color-scheme:dark){:root{--axis-color:#fff;--grid-stroke:rgba(255,255,255,0.2);--plot3d-stroke:rgba(255,255,255,0.3);--plot3d-grid:rgba(255,255,255,0.2);--black:#FFFFFF;--c1:#FF0001;--c2:#00FF02;--c3:#0000FF;--c4:#FF00FF;--c5:#00FFFF;--c6:#FFFF00;--c7:#FF8000;--c8:#8000FF;--gray:#CCCCCC;--grey:#CCCCCC;--octonary:#E6DB74;--primary:#FF4A98;--quaternary:#B4A0FF;--quinary:#FFB86B;--secondary:#0AFAFA;--senary:#FF79C6;--septenary:#CCCCCC;--tertiary:#7F83FF;--white:#000000}}.text{fill:var(--axis-color)!important;stroke:none!important}.axis path,.patch path[style*="stroke: currentColor"]{stroke:var(--axis-color)!important}*{stroke-linejoin:round;stroke-linecap:butt}]]></style><g id="figure_1"><path d="M0 164.253h371.52V0H0z" class="patch" style="fill:none"/><g id="axes_1"><path d="M7.2 157.053h155.27V32.838H7.2z" class="patch" style="fill:none"/><path d="M92.068 121.942c11.933-3.197 22.616-9.109 29.697-16.432s9.982-15.46 8.063-22.62-8.499-12.757-18.293-15.558-22.001-2.58-33.934.617-22.615 9.109-29.696 16.432c-7.082 7.324-9.982 15.461-8.064 22.62s8.5 12.757 18.293 15.559c9.794 2.801 22.002 2.58 33.934-.618z" class="patch" clip-path="url(#p957f67b15c)" style="fill:#8000ff;stroke:#8000ff;stroke-width:2;stroke-linejoin:miter"/><g id="text_1" class="text" transform="matrix(.12 0 0 -.12 47.36 107.367)"><defs><path id="DejaVuSans-Oblique-78" d="M3841 3500 2234 1784 3219 0h-660l-740 1388L531 0h-697l1722 1844-915 1656h659l672-1266 1172 1266z" transform="scale(.01563)"/><path id="DejaVuSans-31" d="M794 531h1031v3560L703 3866v575l1116 225h631V531h1031V0H794z" transform="scale(.01563)"/></defs><use xlink:href="#DejaVuSans-Oblique-78" transform="translate(0 .313)"/><use xlink:href="#DejaVuSans-31" transform="matrix(.7 0 0 .7 59.18 -16.094)"/></g><g id="text_2" class="text" transform="matrix(.12 0 0 -.12 103.258 82.524)"><defs><path id="DejaVuSans-32" d="M1228 531h2203V0H469v531q359 372 979 998 621 627 780 809 303 340 423 576 121 236 121 464 0 372-261 606-261 235-680 235-297 0-627-103-329-103-704-313v638q381 153 712 231 332 78 607 78 725 0 1156-363 431-362 431-968 0-288-108-546-107-257-392-607-78-91-497-524-418-433-1181-1211" transform="scale(.01563)"/></defs><use xlink:href="#DejaVuSans-Oblique-78" transform="translate(0 .313)"/><use xlink:href="#DejaVuSans-32" transform="matrix(.7 0 0 .7 59.18 -16.094)"/></g><g id="text_3" class="text" transform="matrix(.14 0 0 -.14 40.507 17.838)"><defs><path id="DejaVuSans-Bold-43" d="M4288 256Q3956 84 3597-3q-359-88-750-88-1166 0-1847 652T319 2328q0 1119 681 1770 681 652 1847 652 391 0 750-88 359-87 691-259v-965q-335 228-660 334t-684 106q-644 0-1013-413-368-412-368-1137 0-722 368-1135 369-412 1013-412 359 0 684 106 325 107 660 335z" transform="scale(.01563)"/><path id="DejaVuSans-Bold-6f" d="M2203 2784q-372 0-567-267t-195-770 195-771q195-267 567-267 366 0 559 267 194 268 194 771t-194 770q-193 267-559 267m0 800q903 0 1411-488 508-487 508-1349 0-863-508-1351Q3106-91 2203-91q-906 0-1417 487-511 488-511 1351 0 862 511 1349 511 488 1417 488" transform="scale(.01563)"/><path id="DejaVuSans-Bold-6e" d="M4056 2131V0H2931v1631q0 453-20 625t-70 253q-66 110-179 171-112 61-256 61-350 0-550-271-200-270-200-748V0H538v3500h1118v-512q253 306 537 451 285 145 629 145 606 0 920-372 314-371 314-1081" transform="scale(.01563)"/><path id="DejaVuSans-Bold-76" d="M97 3500h1119l872-2419 868 2419h1122L2700 0H1472z" transform="scale(.01563)"/><path id="DejaVuSans-Bold-65" d="M4031 1759v-318H1416q40-394 284-591t681-197q353 0 723 105 371 105 762 317V213Q3469 63 3072-14t-794-77q-950 0-1477 483-526 483-526 1355 0 856 517 1346 517 491 1424 491 825 0 1320-497 495-496 495-1328m-1150 372q0 319-186 514-186 196-486 196-325 0-528-183t-253-527z" transform="scale(.01563)"/><path id="DejaVuSans-Bold-78" d="M1422 1791 159 3500h1185l715-1037 725 1037h1185L2706 1797 4031 0H2847l-788 1106L1281 0H97z" transform="scale(.01563)"/><path id="DejaVuSans-Bold-53" d="M3834 4519v-988q-384 172-750 259-365 88-690 88-431 0-638-119-206-118-206-368 0-188 139-293 139-104 505-179l512-103q778-157 1106-476 329-318 329-906 0-771-458-1148T2284-91q-443 0-890 85-447 84-894 250v1015q447-237 864-358 417-120 805-120 394 0 603 131 209 132 209 376 0 218-142 337t-567 213l-466 103q-700 150-1024 478-323 328-323 884 0 697 450 1072t1294 375q385 0 791-58t840-173" transform="scale(.01563)"/><path id="DejaVuSans-Bold-74" d="M1759 4494v-994h1154v-800H1759V1216q0-244 97-330t385-86h575V0h-960q-662 0-939 276-276 277-276 940v1484H84v800h557v994z" transform="scale(.01563)"/></defs><use xlink:href="#DejaVuSans-Bold-43"/><use xlink:href="#DejaVuSans-Bold-6f" transform="translate(73.389)"/><use xlink:href="#DejaVuSans-Bold-6e" transform="translate(142.09)"/><use xlink:href="#DejaVuSans-Bold-76" transform="translate(213.281)"/><use xlink:href="#DejaVuSans-Bold-65" transform="translate(278.467)"/><use xlink:href="#DejaVuSans-Bold-78" transform="translate(346.29)"/><use xlink:href="#DejaVuSans-Bold-53" transform="translate(445.605)"/><use xlink:href="#DejaVuSans-Bold-65" transform="translate(517.627)"/><use xlink:href="#DejaVuSans-Bold-74" transform="translate(585.45)"/></g><path id="line2d_1" d="m59.992 101.156 43.475-15.527" clip-path="url(#p957f67b15c)" style="fill:none;stroke:var(--black);stroke-width:2;stroke-linecap:square"/><g id="PathCollection_1"><defs><path id="m730351991d" d="M0 2.236a2.236 2.236 0 1 0 0-4.472 2.236 2.236 0 0 0 0 4.472z" style="stroke:var(--black);stroke-opacity:.9"/></defs><g clip-path="url(#p957f67b15c)"><use xlink:href="#m730351991d" x="59.992" y="101.156" style="fill-opacity:.9;stroke:var(--black);stroke-opacity:.9"/></g></g><g id="PathCollection_2" clip-path="url(#p957f67b15c)"><use xlink:href="#m730351991d" x="103.467" y="85.629" style="fill-opacity:.9;stroke:var(--black);stroke-opacity:.9"/></g></g><g id="axes_2"><path d="M209.05 157.053h155.27V32.838H209.05z" class="patch" style="fill:none"/><path d="m256.83 117.248 1.471 1.843 1.584 1.747 1.692 1.643 1.791 1.533 1.886 1.417 1.97 1.294 2.05 1.168 2.118 1.035 2.18.899 2.233.76 2.276.616 2.31.472 2.336.325 2.352.176 2.358.027 2.355-.122 2.342-.271 2.32-.419 2.29-.564 2.25-.708 2.2-.849 2.142-.986 2.075-1.12 2-1.25 1.917-1.372 1.827-1.491 1.729-1.604 1.623-1.71 1.513-1.81 1.394-1.901 1.272-1.986 1.144-2.062 1.01-2.13.875-2.19.734-2.242.59-2.283.445-2.316.298-2.339.15-2.353v-2.358l-.15-2.354-.298-2.34-.445-2.315-.59-2.283-.734-2.24-.874-2.191-1.011-2.13-1.144-2.063-1.272-1.986-1.394-1.9-1.513-1.81-1.623-1.71-1.729-1.604-1.827-1.492-1.917-1.373-2-1.248-2.075-1.12-2.142-.987-2.2-.849-2.25-.708-2.29-.564-2.32-.419-2.342-.27-2.355-.122-2.358.027-2.352.176-2.336.324-2.31.472-2.276.617-2.233.76-2.18.898L269.274 62l-2.05 1.167-1.97 1.294-1.886 1.417-1.791 1.533-1.692 1.643-1.584 1.747-1.47 1.844 12.44 9.292.857-1.075.924-1.02.986-.958 1.046-.894 1.1-.826 1.15-.755 1.194-.681 1.236-.604 1.272-.525 1.302-.443 1.328-.36 1.348-.275 1.362-.19 1.372-.102 1.375-.016 1.374.072 1.367.158 1.353.244 1.336.329 1.312.413 1.283.495 1.25.575 1.21.654 1.167.728 1.119.801 1.065.87 1.009.936.947.997.882 1.056.814 1.109.741 1.158.668 1.203.59 1.243.51 1.278.427 1.307.345 1.332.26 1.35.173 1.365.087 1.373v1.375l-.087 1.373-.174 1.365-.26 1.35-.344 1.332-.428 1.308-.51 1.277-.59 1.243-.667 1.203-.741 1.158-.814 1.11-.882 1.055-.947.998-1.009.935-1.065.87-1.119.801-1.166.729-1.211.653-1.25.575-1.283.495-1.312.413-1.336.33-1.353.244-1.367.158-1.374.071-1.375-.016-1.372-.103-1.362-.189-1.348-.275-1.328-.36-1.302-.443-1.272-.524-1.236-.604-1.195-.681-1.15-.755-1.1-.827-1.045-.894-.986-.958-.924-1.02-.858-1.075z" class="patch" clip-path="url(#p14d808b76f)" style="fill:#8000ff;stroke:#8000ff;stroke-width:2;stroke-linejoin:miter"/><g id="text_4" class="text" transform="matrix(.12 0 0 -.12 258.527 66.997)"><use xlink:href="#DejaVuSans-Oblique-78" transform="translate(0 .313)"/><use xlink:href="#DejaVuSans-31" transform="matrix(.7 0 0 .7 59.18 -16.094)"/></g><g id="text_5" class="text" transform="matrix(.12 0 0 -.12 258.527 122.894)"><use xlink:href="#DejaVuSans-Oblique-78" transform="translate(0 .313)"/><use xlink:href="#DejaVuSans-32" transform="matrix(.7 0 0 .7 59.18 -16.094)"/></g><g id="text_6" class="text" transform="matrix(.14 0 0 -.14 224.79 17.838)"><defs><path id="DejaVuSans-Bold-4e" d="M588 4666h1343l1697-3200v3200h1141V0H3425L1728 3200V0H588z" transform="scale(.01563)"/><path id="DejaVuSans-Bold-2d" d="M347 2297h1962v-909H347z" transform="scale(.01563)"/><path id="DejaVuSans-Bold-63" d="M3366 3391v-913q-228 156-458 231t-477 75q-468 0-729-273t-261-764 261-765q261-273 729-273 263 0 499 78 236 79 436 232V103Q3103 6 2833-42q-270-49-542-49-947 0-1482 486-534 486-534 1352t534 1351q535 486 1482 486 275 0 542-48t533-145" transform="scale(.01563)"/></defs><use xlink:href="#DejaVuSans-Bold-4e"/><use xlink:href="#DejaVuSans-Bold-6f" transform="translate(83.691)"/><use xlink:href="#DejaVuSans-Bold-6e" transform="translate(152.393)"/><use xlink:href="#DejaVuSans-Bold-2d" transform="translate(223.584)"/><use xlink:href="#DejaVuSans-Bold-63" transform="translate(265.088)"/><use xlink:href="#DejaVuSans-Bold-6f" transform="translate(324.365)"/><use xlink:href="#DejaVuSans-Bold-6e" transform="translate(393.066)"/><use xlink:href="#DejaVuSans-Bold-76" transform="translate(464.258)"/><use xlink:href="#DejaVuSans-Bold-65" transform="translate(529.443)"/><use xlink:href="#DejaVuSans-Bold-78" transform="translate(597.266)"/><use xlink:href="#DejaVuSans-Bold-53" transform="translate(696.582)"/><use xlink:href="#DejaVuSans-Bold-65" transform="translate(768.604)"/><use xlink:href="#DejaVuSans-Bold-74" transform="translate(836.426)"/></g><path id="line2d_2" d="M271.158 73.208v43.475" clip-path="url(#p14d808b76f)" style="fill:none;stroke-dasharray:11.1,4.8;stroke-dashoffset:0;stroke:var(--black);stroke-opacity:.8;stroke-width:3"/><g id="PathCollection_3" clip-path="url(#p14d808b76f)"><use xlink:href="#m730351991d" x="271.158" y="73.208" style="fill-opacity:.9;stroke:var(--black);stroke-opacity:.9"/></g><g id="PathCollection_4" clip-path="url(#p14d808b76f)"><use xlink:href="#m730351991d" x="271.158" y="116.683" style="fill-opacity:.9;stroke:var(--black);stroke-opacity:.9"/></g></g></g><defs><clipPath id="p957f67b15c"><path d="M7.2 32.838h155.27v124.216H7.2z"/></clipPath><clipPath id="p14d808b76f"><path d="M209.05 32.838h155.27v124.216H209.05z"/></clipPath></defs></svg>