<?xml version="1.0" encoding="utf-8" standalone="no"?>
<!DOCTYPE svg PUBLIC "-//W3C//DTD SVG 1.1//EN"
  "http://www.w3.org/Graphics/SVG/1.1/DTD/svg11.dtd">
<svg xmlns:xlink="http://www.w3.org/1999/xlink" width="384.591217pt" height="88.385987pt" viewBox="0 0 384.591217 88.385987" xmlns="http://www.w3.org/2000/svg" version="1.1">
<style>:root { --axis-color:#000; --grid-stroke:rgba(0,0,0,0.2); --plot3d-stroke:rgba(0,0,0,0.3); --plot3d-grid:rgba(0,0,0,0.2); }
@media (prefers-color-scheme:dark) { :root { --axis-color:#fff; --grid-stroke:rgba(255,255,255,0.2); --plot3d-stroke:rgba(255,255,255,0.3); --plot3d-grid:rgba(255,255,255,0.2); } }
.black{fill:#000000;stroke:#000000;}:root{--black:#000000;}.c1{fill:#FF0001;stroke:#FF0001;}:root{--c1:#FF0001;}.c2{fill:#00FF02;stroke:#00FF02;}:root{--c2:#00FF02;}.c3{fill:#0000FF;stroke:#0000FF;}:root{--c3:#0000FF;}.c4{fill:#FF00FF;stroke:#FF00FF;}:root{--c4:#FF00FF;}.c5{fill:#00FFFF;stroke:#00FFFF;}:root{--c5:#00FFFF;}.c6{fill:#FFFF00;stroke:#FFFF00;}:root{--c6:#FFFF00;}.c7{fill:#FF8000;stroke:#FF8000;}:root{--c7:#FF8000;}.c8{fill:#8000FF;stroke:#8000FF;}:root{--c8:#8000FF;}.gray{fill:#7f7f7f;stroke:#7f7f7f;}:root{--gray:#7f7f7f;}.grey{fill:#7f7f7f;stroke:#7f7f7f;}:root{--grey:#7f7f7f;}.octonary{fill:#bcbd22;stroke:#bcbd22;}:root{--octonary:#bcbd22;}.primary{fill:#d62728;stroke:#d62728;}:root{--primary:#d62728;}.quaternary{fill:#9467bd;stroke:#9467bd;}:root{--quaternary:#9467bd;}.quinary{fill:#8c564b;stroke:#8c564b;}:root{--quinary:#8c564b;}.secondary{fill:#2ca02c;stroke:#2ca02c;}:root{--secondary:#2ca02c;}.senary{fill:#e377c2;stroke:#e377c2;}:root{--senary:#e377c2;}.septenary{fill:#7f7f7f;stroke:#7f7f7f;}:root{--septenary:#7f7f7f;}.tertiary{fill:#1f77b4;stroke:#1f77b4;}:root{--tertiary:#1f77b4;}.white{fill:#ffffff;stroke:#ffffff;}:root{--white:#ffffff;}
@media (prefers-color-scheme:dark) { .black{fill:#FFFFFF;stroke:#FFFFFF;}:root{--black:#FFFFFF;}.c1{fill:#FF0001;stroke:#FF0001;}:root{--c1:#FF0001;}.c2{fill:#00FF02;stroke:#00FF02;}:root{--c2:#00FF02;}.c3{fill:#0000FF;stroke:#0000FF;}:root{--c3:#0000FF;}.c4{fill:#FF00FF;stroke:#FF00FF;}:root{--c4:#FF00FF;}.c5{fill:#00FFFF;stroke:#00FFFF;}:root{--c5:#00FFFF;}.c6{fill:#FFFF00;stroke:#FFFF00;}:root{--c6:#FFFF00;}.c7{fill:#FF8000;stroke:#FF8000;}:root{--c7:#FF8000;}.c8{fill:#8000FF;stroke:#8000FF;}:root{--c8:#8000FF;}.gray{fill:#CCCCCC;stroke:#CCCCCC;}:root{--gray:#CCCCCC;}.grey{fill:#CCCCCC;stroke:#CCCCCC;}:root{--grey:#CCCCCC;}.octonary{fill:#E6DB74;stroke:#E6DB74;}:root{--octonary:#E6DB74;}.primary{fill:#FF4A98;stroke:#FF4A98;}:root{--primary:#FF4A98;}.quaternary{fill:#B4A0FF;stroke:#B4A0FF;}:root{--quaternary:#B4A0FF;}.quinary{fill:#FFB86B;stroke:#FFB86B;}:root{--quinary:#FFB86B;}.secondary{fill:#0AFAFA;stroke:#0AFAFA;}:root{--secondary:#0AFAFA;}.senary{fill:#FF79C6;stroke:#FF79C6;}:root{--senary:#FF79C6;}.septenary{fill:#CCCCCC;stroke:#CCCCCC;}:root{--septenary:#CCCCCC;}.tertiary{fill:#7F83FF;stroke:#7F83FF;}:root{--tertiary:#7F83FF;}.white{fill:#000000;stroke:#000000;}:root{--white:#000000;} }
text,.text { fill:var(--axis-color)!important; stroke:none!important; }
.axis line,.axis path,.tick line,.tick path,path.domain,line.grid { stroke:var(--axis-color)!important; }
.legend text { fill:var(--axis-color)!important; }
.patch path[style*="stroke: currentColor"] { stroke:var(--axis-color)!important; }
g.legend>g:first-child>path:first-child { fill:rgba(255,255,255,0.8)!important; stroke:rgba(0,0,0,0.1)!important; }
@media (prefers-color-scheme:dark) { g.legend>g:first-child>path:first-child { fill:rgba(26,26,26,0.8)!important; stroke:rgba(255,255,255,0.1)!important; } }
.plot3d path,.plot3d polygon { stroke:var(--plot3d-stroke)!important; }
.plot3d-grid line { stroke:var(--plot3d-grid)!important; }
.plot3d-surface path[style*="fill:"] { fill-opacity:0.9!important; }
@media (prefers-color-scheme:dark) { .plot3d-surface path[style*="fill:"] { fill-opacity:0.95!important; filter:saturate(1.2)!important; } }</style>

 <metadata>
  <rdf:RDF xmlns:dc="http://purl.org/dc/elements/1.1/" xmlns:cc="http://creativecommons.org/ns#" xmlns:rdf="http://www.w3.org/1999/02/22-rdf-syntax-ns#">
   <cc:Work>
    <dc:type rdf:resource="http://purl.org/dc/dcmitype/StillImage"/>
    <dc:date>2026-05-06T23:46:22.902468</dc:date>
    <dc:format>image/svg+xml</dc:format>
    <dc:creator>
     <cc:Agent>
      <dc:title>Matplotlib v3.10.1, https://matplotlib.org/</dc:title>
     </cc:Agent>
    </dc:creator>
   </cc:Work>
  </rdf:RDF>
 </metadata>
 <defs>
  <style type="text/css">*{stroke-linejoin: round; stroke-linecap: butt}</style>
 </defs>
 <g id="figure_1">
  <g class="patch">
   <path d="M 0 88.385987 
L 384.591217 88.385987 
L 384.591217 0 
L 0 0 
L 0 88.385987 
z
" style="fill: none"/>
  </g>
  <g id="axes_1">
   <g class="patch">
    <path d="M 30.416546 82.119737 
L 111.179704 82.119737 
L 111.179704 3.6 
L 30.416546 3.6 
L 30.416546 82.119737 
z
" style="fill: none"/>
   </g>
   <g class="axis"/>
   <g class="axis"/>
   <g class="patch">
    <path d="M 57.595567 55.389294 
L 58.625734 56.096121 
L 59.69365 56.744505 
L 60.796004 57.332436 
L 61.929378 57.85809 
L 63.090256 58.319836 
L 64.275038 58.716244 
L 65.48005 59.046083 
L 66.701555 59.308331 
L 67.935764 59.502174 
L 69.17885 59.627011 
L 70.426958 59.682456 
L 71.676217 59.668335 
L 72.922753 59.584693 
L 74.1627 59.43179 
L 75.392212 59.210099 
L 76.607477 58.920308 
L 77.804725 58.563316 
L 78.980245 58.14023 
L 80.130389 57.652361 
L 81.251591 57.101224 
L 82.340375 56.488526 
L 83.393363 55.816169 
L 84.40729 55.086238 
L 85.379011 54.300995 
L 86.305513 53.462877 
L 87.183922 52.574483 
L 88.011515 51.638568 
L 88.785724 50.658033 
L 89.504149 49.635921 
L 90.164562 48.575402 
L 90.764914 47.479763 
L 91.303344 46.352403 
L 91.778182 45.196818 
L 92.187955 44.016592 
L 92.531393 42.815385 
L 92.80743 41.596922 
L 93.01521 40.364983 
L 93.15409 39.123387 
L 93.223637 37.875985 
L 93.223637 36.626646 
L 93.15409 35.379245 
L 93.01521 34.137649 
L 92.80743 32.90571 
L 92.531393 31.687247 
L 92.187955 30.48604 
L 91.778182 29.305814 
L 91.303344 28.150229 
L 90.764914 27.022869 
L 90.164562 25.92723 
L 89.504149 24.86671 
L 88.785724 23.844598 
L 88.011515 22.864064 
L 87.183922 21.928148 
L 86.305513 21.039754 
L 85.379011 20.201636 
L 84.40729 19.416394 
L 83.393363 18.686462 
L 82.340375 18.014105 
L 81.251591 17.401408 
L 80.130389 16.85027 
L 78.980245 16.362402 
L 77.804725 15.939316 
L 76.607477 15.582323 
L 75.392212 15.292532 
L 74.1627 15.070842 
L 72.922753 14.917938 
L 71.676217 14.834296 
L 70.426958 14.820176 
L 69.17885 14.87562 
L 67.935764 15.000458 
L 66.701555 15.194301 
L 65.48005 15.456549 
L 64.275038 15.786388 
L 63.090256 16.182795 
L 61.929378 16.644542 
L 60.796004 17.170196 
L 59.69365 17.758126 
L 58.625734 18.40651 
L 57.595567 19.113337 
L 64.196846 28.182327 
L 64.196846 28.182327 
L 64.711929 27.828913 
L 65.245888 27.504721 
L 65.797065 27.210756 
L 66.363752 26.947929 
L 66.94419 26.717056 
L 67.536582 26.518852 
L 68.139087 26.353932 
L 68.74984 26.222808 
L 69.366944 26.125887 
L 69.988487 26.063468 
L 70.612541 26.035746 
L 71.237171 26.042806 
L 71.860439 26.084627 
L 72.480412 26.161079 
L 73.095168 26.271924 
L 73.702801 26.41682 
L 74.301425 26.595316 
L 74.889185 26.806859 
L 75.464257 27.050793 
L 76.024858 27.326362 
L 76.56925 27.632711 
L 77.095744 27.968889 
L 77.602707 28.333855 
L 78.088568 28.726476 
L 78.551819 29.145535 
L 78.991024 29.589732 
L 79.40482 30.05769 
L 79.791925 30.547957 
L 80.151137 31.059013 
L 80.481344 31.589273 
L 80.78152 32.137092 
L 81.050735 32.700772 
L 81.288154 33.278565 
L 81.49304 33.868678 
L 81.664759 34.469281 
L 81.802778 35.078513 
L 81.906668 35.694482 
L 81.976107 36.31528 
L 82.010881 36.938981 
L 82.010881 37.56365 
L 81.976107 38.187351 
L 81.906668 38.808149 
L 81.802778 39.424119 
L 81.664759 40.03335 
L 81.49304 40.633954 
L 81.288154 41.224067 
L 81.050735 41.801859 
L 80.78152 42.365539 
L 80.481344 42.913359 
L 80.151137 43.443619 
L 79.791925 43.954675 
L 79.40482 44.444942 
L 78.991024 44.912899 
L 78.551819 45.357097 
L 78.088568 45.776156 
L 77.602707 46.168777 
L 77.095744 46.533743 
L 76.56925 46.869921 
L 76.024858 47.17627 
L 75.464257 47.451838 
L 74.889185 47.695773 
L 74.301425 47.907316 
L 73.702801 48.085812 
L 73.095168 48.230707 
L 72.480412 48.341553 
L 71.860439 48.418005 
L 71.237171 48.459825 
L 70.612541 48.466886 
L 69.988487 48.439164 
L 69.366944 48.376745 
L 68.74984 48.279823 
L 68.139087 48.148699 
L 67.536582 47.98378 
L 66.94419 47.785576 
L 66.363752 47.554703 
L 65.797065 47.291876 
L 65.245888 46.997911 
L 64.711929 46.673718 
L 64.196846 46.320305 
z
" clip-path="url(#pedaa1daf15)" style="fill:var(--c8); opacity: 0.6; stroke:var(--c8); stroke-width: 2; stroke-linejoin: miter"/>
   </g>
   <g id="line2d_1">
    <path d="M 57.595567 55.389294 
L 57.595567 19.113337 
" clip-path="url(#pedaa1daf15)" style="fill: none; stroke:var(--black); stroke-width: 2; stroke-linecap: square"/>
   </g>
   <g id="text_1" class="text">
    <!-- Minimal Convex Set -->
    <g transform="translate(3.6 68.659211) scale(0.12 -0.12)">
     <defs>
      <path id="DejaVuSerif-Bold-4d" d="M 269 0 
L 269 378 
L 863 378 
L 863 4288 
L 269 4288 
L 269 4666 
L 2194 4666 
L 3525 1672 
L 4863 4666 
L 6784 4666 
L 6784 4288 
L 6188 4288 
L 6188 378 
L 6784 378 
L 6784 0 
L 4384 0 
L 4384 378 
L 4978 378 
L 4978 3938 
L 3531 684 
L 2741 684 
L 1300 3938 
L 1300 378 
L 1894 378 
L 1894 0 
L 269 0 
z
" transform="scale(0.015625)"/>
      <path id="DejaVuSerif-Bold-69" d="M 588 4263 
Q 588 4516 763 4689 
Q 938 4863 1191 4863 
Q 1438 4863 1611 4689 
Q 1784 4516 1784 4263 
Q 1784 4016 1611 3842 
Q 1438 3669 1191 3669 
Q 938 3669 763 3841 
Q 588 4013 588 4263 
z
M 1797 378 
L 2272 378 
L 2272 0 
L 219 0 
L 219 378 
L 691 378 
L 691 2944 
L 219 2944 
L 219 3322 
L 1797 3322 
L 1797 378 
z
" transform="scale(0.015625)"/>
      <path id="DejaVuSerif-Bold-6e" d="M 219 0 
L 219 378 
L 691 378 
L 691 2944 
L 219 2944 
L 219 3322 
L 1797 3322 
L 1797 2853 
Q 1997 3150 2253 3281 
Q 2509 3413 2900 3413 
Q 3459 3413 3745 3083 
Q 4031 2753 4031 2113 
L 4031 378 
L 4506 378 
L 4506 0 
L 2522 0 
L 2522 378 
L 2925 378 
L 2925 2144 
Q 2925 2566 2817 2730 
Q 2709 2894 2444 2894 
Q 2109 2894 1953 2648 
Q 1797 2403 1797 1869 
L 1797 378 
L 2203 378 
L 2203 0 
L 219 0 
z
" transform="scale(0.015625)"/>
      <path id="DejaVuSerif-Bold-6d" d="M 3884 2778 
Q 4116 3109 4384 3261 
Q 4653 3413 5013 3413 
Q 5584 3413 5867 3089 
Q 6150 2766 6150 2113 
L 6150 378 
L 6625 378 
L 6625 0 
L 4647 0 
L 4647 378 
L 5044 378 
L 5044 1947 
Q 5044 2569 4948 2731 
Q 4853 2894 4594 2894 
Q 4300 2894 4137 2667 
Q 3975 2441 3975 2022 
L 3975 378 
L 4372 378 
L 4372 0 
L 2472 0 
L 2472 378 
L 2869 378 
L 2869 1947 
Q 2869 2569 2772 2731 
Q 2675 2894 2419 2894 
Q 2122 2894 1959 2667 
Q 1797 2441 1797 2022 
L 1797 378 
L 2194 378 
L 2194 0 
L 219 0 
L 219 378 
L 691 378 
L 691 2944 
L 219 2944 
L 219 3322 
L 1797 3322 
L 1797 2853 
Q 1991 3144 2241 3278 
Q 2491 3413 2834 3413 
Q 3241 3413 3494 3258 
Q 3747 3103 3884 2778 
z
" transform="scale(0.015625)"/>
      <path id="DejaVuSerif-Bold-61" d="M 3525 2041 
L 3525 378 
L 4000 378 
L 4000 0 
L 2419 0 
L 2419 422 
Q 2200 159 1931 34 
Q 1663 -91 1319 -91 
Q 809 -91 536 182 
Q 263 456 263 966 
Q 263 1525 655 1803 
Q 1047 2081 1838 2081 
L 2419 2081 
L 2419 2278 
Q 2419 2681 2228 2873 
Q 2038 3066 1638 3066 
Q 1306 3066 1126 2930 
Q 947 2794 872 2484 
L 519 2484 
L 519 3200 
Q 816 3306 1134 3359 
Q 1453 3413 1806 3413 
Q 2697 3413 3111 3081 
Q 3525 2750 3525 2041 
z
M 2419 1044 
L 2419 1709 
L 2003 1709 
Q 1694 1709 1528 1540 
Q 1363 1372 1363 1056 
Q 1363 741 1483 584 
Q 1603 428 1850 428 
Q 2106 428 2262 597 
Q 2419 766 2419 1044 
z
" transform="scale(0.015625)"/>
      <path id="DejaVuSerif-Bold-6c" d="M 1797 378 
L 2272 378 
L 2272 0 
L 219 0 
L 219 378 
L 691 378 
L 691 4488 
L 219 4488 
L 219 4863 
L 1797 4863 
L 1797 378 
z
" transform="scale(0.015625)"/>
      <path id="DejaVuSerif-Bold-20" transform="scale(0.015625)"/>
      <path id="DejaVuSerif-Bold-43" d="M 4769 1331 
Q 4584 609 4106 259 
Q 3628 -91 2822 -91 
Q 1641 -91 955 561 
Q 269 1213 269 2328 
Q 269 3447 955 4098 
Q 1641 4750 2822 4750 
Q 3238 4750 3688 4650 
Q 4138 4550 4641 4347 
L 4641 3200 
L 4244 3200 
Q 4122 3788 3800 4080 
Q 3478 4372 2950 4372 
Q 2269 4372 1937 3870 
Q 1606 3369 1606 2328 
Q 1606 1288 1937 788 
Q 2269 288 2956 288 
Q 3422 288 3717 547 
Q 4013 806 4147 1331 
L 4769 1331 
z
" transform="scale(0.015625)"/>
      <path id="DejaVuSerif-Bold-6f" d="M 2138 263 
Q 2488 263 2630 563 
Q 2772 863 2772 1663 
Q 2772 2463 2631 2761 
Q 2491 3059 2138 3059 
Q 1784 3059 1640 2757 
Q 1497 2456 1497 1663 
Q 1497 869 1640 566 
Q 1784 263 2138 263 
z
M 2138 -91 
Q 1259 -91 761 376 
Q 263 844 263 1663 
Q 263 2484 761 2948 
Q 1259 3413 2138 3413 
Q 3019 3413 3516 2948 
Q 4013 2484 4013 1663 
Q 4013 844 3514 376 
Q 3016 -91 2138 -91 
z
" transform="scale(0.015625)"/>
      <path id="DejaVuSerif-Bold-76" d="M 1428 0 
L 250 2944 
L -116 2944 
L -116 3322 
L 1791 3322 
L 1791 2944 
L 1388 2944 
L 2228 844 
L 3066 2944 
L 2631 2944 
L 2631 3322 
L 3878 3322 
L 3878 2944 
L 3494 2944 
L 2316 0 
L 1428 0 
z
" transform="scale(0.015625)"/>
      <path id="DejaVuSerif-Bold-65" d="M 2566 1875 
Q 2566 2531 2444 2795 
Q 2322 3059 2028 3059 
Q 1744 3059 1620 2800 
Q 1497 2541 1497 1931 
L 1497 1875 
L 2566 1875 
z
M 3781 1503 
L 1497 1503 
L 1497 1478 
Q 1497 834 1690 548 
Q 1884 263 2316 263 
Q 2675 263 2897 453 
Q 3119 644 3181 1006 
L 3700 1006 
Q 3566 441 3166 175 
Q 2766 -91 2047 -91 
Q 1184 -91 723 364 
Q 263 819 263 1663 
Q 263 2488 734 2950 
Q 1206 3413 2047 3413 
Q 2872 3413 3312 2927 
Q 3753 2441 3781 1503 
z
" transform="scale(0.015625)"/>
      <path id="DejaVuSerif-Bold-78" d="M 2247 2119 
L 2834 2944 
L 2425 2944 
L 2425 3322 
L 3719 3322 
L 3719 2944 
L 3278 2944 
L 2431 1759 
L 3419 378 
L 3859 378 
L 3859 0 
L 1747 0 
L 1747 378 
L 2175 378 
L 1550 1253 
L 922 378 
L 1369 378 
L 1369 0 
L 0 0 
L 0 378 
L 475 378 
L 1356 1619 
L 403 2944 
L 31 2944 
L 31 3322 
L 2059 3322 
L 2059 2944 
L 1656 2944 
L 2247 2119 
z
" transform="scale(0.015625)"/>
      <path id="DejaVuSerif-Bold-53" d="M 494 225 
L 494 1331 
L 891 1331 
Q 981 806 1318 547 
Q 1656 288 2253 288 
Q 2738 288 2991 472 
Q 3244 656 3244 1013 
Q 3244 1294 3072 1450 
Q 2900 1606 2363 1741 
L 1663 1913 
Q 978 2088 700 2398 
Q 422 2709 422 3284 
Q 422 3978 883 4364 
Q 1344 4750 2175 4750 
Q 2584 4750 3026 4681 
Q 3469 4613 3944 4475 
L 3944 3444 
L 3547 3444 
Q 3456 3925 3150 4148 
Q 2844 4372 2278 4372 
Q 1816 4372 1580 4211 
Q 1344 4050 1344 3731 
Q 1344 3441 1506 3289 
Q 1669 3138 2303 2975 
L 3003 2803 
Q 3653 2641 3945 2297 
Q 4238 1953 4238 1350 
Q 4238 644 3750 276 
Q 3263 -91 2316 -91 
Q 1859 -91 1409 -12 
Q 959 66 494 225 
z
" transform="scale(0.015625)"/>
      <path id="DejaVuSerif-Bold-74" d="M 634 2944 
L 153 2944 
L 153 3322 
L 634 3322 
L 634 4353 
L 1741 4353 
L 1741 3322 
L 2663 3322 
L 2663 2944 
L 1741 2944 
L 1741 909 
Q 1741 475 1809 369 
Q 1878 263 2059 263 
Q 2259 263 2356 397 
Q 2453 531 2459 813 
L 2925 813 
Q 2897 313 2651 111 
Q 2406 -91 1806 -91 
Q 1122 -91 878 123 
Q 634 338 634 909 
L 634 2944 
z
" transform="scale(0.015625)"/>
     </defs>
     <use xlink:href="#DejaVuSerif-Bold-4d"/>
     <use xlink:href="#DejaVuSerif-Bold-69" transform="translate(110.693359 0)"/>
     <use xlink:href="#DejaVuSerif-Bold-6e" transform="translate(148.681641 0)"/>
     <use xlink:href="#DejaVuSerif-Bold-69" transform="translate(221.386719 0)"/>
     <use xlink:href="#DejaVuSerif-Bold-6d" transform="translate(259.375 0)"/>
     <use xlink:href="#DejaVuSerif-Bold-61" transform="translate(365.185547 0)"/>
     <use xlink:href="#DejaVuSerif-Bold-6c" transform="translate(429.980469 0)"/>
     <use xlink:href="#DejaVuSerif-Bold-20" transform="translate(467.96875 0)"/>
     <use xlink:href="#DejaVuSerif-Bold-43" transform="translate(502.783203 0)"/>
     <use xlink:href="#DejaVuSerif-Bold-6f" transform="translate(582.373047 0)"/>
     <use xlink:href="#DejaVuSerif-Bold-6e" transform="translate(649.072266 0)"/>
     <use xlink:href="#DejaVuSerif-Bold-76" transform="translate(721.777344 0)"/>
     <use xlink:href="#DejaVuSerif-Bold-65" transform="translate(779.882812 0)"/>
     <use xlink:href="#DejaVuSerif-Bold-78" transform="translate(843.505859 0)"/>
     <use xlink:href="#DejaVuSerif-Bold-20" transform="translate(903.125 0)"/>
     <use xlink:href="#DejaVuSerif-Bold-53" transform="translate(937.939453 0)"/>
     <use xlink:href="#DejaVuSerif-Bold-65" transform="translate(1010.15625 0)"/>
     <use xlink:href="#DejaVuSerif-Bold-74" transform="translate(1073.779297 0)"/>
    </g>
   </g>
   <g id="PathCollection_1">
    <defs>
     <path id="m2345630ac9" d="M 0 2.738613 
C 0.726289 2.738613 1.422928 2.450055 1.936492 1.936492 
C 2.450055 1.422928 2.738613 0.726289 2.738613 0 
C 2.738613 -0.726289 2.450055 -1.422928 1.936492 -1.936492 
C 1.422928 -2.450055 0.726289 -2.738613 0 -2.738613 
C -0.726289 -2.738613 -1.422928 -2.450055 -1.936492 -1.936492 
C -2.450055 -1.422928 -2.738613 -0.726289 -2.738613 0 
C -2.738613 0.726289 -2.450055 1.422928 -1.936492 1.936492 
C -1.422928 2.450055 -0.726289 2.738613 0 2.738613 
z
" style="stroke:var(--black)"/>
    </defs>
    <g clip-path="url(#pedaa1daf15)">
     <use xlink:href="#m2345630ac9" x="57.595567" y="55.389294" style="stroke:var(--black)"/>
     <use xlink:href="#m2345630ac9" x="57.595567" y="19.113337" style="stroke:var(--black)"/>
    </g>
   </g>
  </g>
  <g id="axes_2">
   <g class="patch">
    <path d="M 143.484967 82.119737 
L 224.248125 82.119737 
L 224.248125 3.6 
L 143.484967 3.6 
L 143.484967 82.119737 
z
" style="fill: none"/>
   </g>
   <g class="axis"/>
   <g class="axis"/>
   <g class="patch">
    <path d="M 170.663988 55.389294 
L 171.694155 56.096121 
L 172.762071 56.744505 
L 173.864426 57.332436 
L 174.997799 57.85809 
L 176.158677 58.319836 
L 177.343459 58.716244 
L 178.548471 59.046083 
L 179.769976 59.308331 
L 181.004185 59.502174 
L 182.247271 59.627011 
L 183.495379 59.682456 
L 184.744638 59.668335 
L 185.991174 59.584693 
L 187.231121 59.43179 
L 188.460633 59.210099 
L 189.675898 58.920308 
L 190.873146 58.563316 
L 192.048666 58.14023 
L 193.19881 57.652361 
L 194.320012 57.101224 
L 195.408796 56.488526 
L 196.461784 55.816169 
L 197.475711 55.086238 
L 198.447432 54.300995 
L 199.373934 53.462877 
L 200.252343 52.574483 
L 201.079936 51.638568 
L 201.854145 50.658033 
L 202.57257 49.635921 
L 203.232983 48.575402 
L 203.833335 47.479763 
L 204.371765 46.352403 
L 204.846603 45.196818 
L 205.256376 44.016592 
L 205.599814 42.815385 
L 205.875851 41.596922 
L 206.083631 40.364983 
L 206.222511 39.123387 
L 206.292058 37.875985 
L 206.292058 36.626646 
L 206.222511 35.379245 
L 206.083631 34.137649 
L 205.875851 32.90571 
L 205.599814 31.687247 
L 205.256376 30.48604 
L 204.846603 29.305814 
L 204.371765 28.150229 
L 203.833335 27.022869 
L 203.232983 25.92723 
L 202.57257 24.86671 
L 201.854145 23.844598 
L 201.079936 22.864064 
L 200.252343 21.928148 
L 199.373934 21.039754 
L 198.447432 20.201636 
L 197.475711 19.416394 
L 196.461784 18.686462 
L 195.408796 18.014105 
L 194.320012 17.401408 
L 193.19881 16.85027 
L 192.048666 16.362402 
L 190.873146 15.939316 
L 189.675898 15.582323 
L 188.460633 15.292532 
L 187.231121 15.070842 
L 185.991174 14.917938 
L 184.744638 14.834296 
L 183.495379 14.820176 
L 182.247271 14.87562 
L 181.004185 15.000458 
L 179.769976 15.194301 
L 178.548471 15.456549 
L 177.343459 15.786388 
L 176.158677 16.182795 
L 174.997799 16.644542 
L 173.864426 17.170196 
L 172.762071 17.758126 
L 171.694155 18.40651 
L 170.663988 19.113337 
L 177.265267 28.182327 
L 177.265267 28.182327 
L 177.78035 27.828913 
L 178.314309 27.504721 
L 178.865486 27.210756 
L 179.432173 26.947929 
L 180.012612 26.717056 
L 180.605003 26.518852 
L 181.207509 26.353932 
L 181.818261 26.222808 
L 182.435365 26.125887 
L 183.056909 26.063468 
L 183.680963 26.035746 
L 184.305592 26.042806 
L 184.92886 26.084627 
L 185.548833 26.161079 
L 186.16359 26.271924 
L 186.771222 26.41682 
L 187.369846 26.595316 
L 187.957606 26.806859 
L 188.532678 27.050793 
L 189.093279 27.326362 
L 189.637671 27.632711 
L 190.164165 27.968889 
L 190.671128 28.333855 
L 191.156989 28.726476 
L 191.62024 29.145535 
L 192.059445 29.589732 
L 192.473241 30.05769 
L 192.860346 30.547957 
L 193.219558 31.059013 
L 193.549765 31.589273 
L 193.849941 32.137092 
L 194.119156 32.700772 
L 194.356575 33.278565 
L 194.561461 33.868678 
L 194.73318 34.469281 
L 194.871199 35.078513 
L 194.975089 35.694482 
L 195.044528 36.31528 
L 195.079302 36.938981 
L 195.079302 37.56365 
L 195.044528 38.187351 
L 194.975089 38.808149 
L 194.871199 39.424119 
L 194.73318 40.03335 
L 194.561461 40.633954 
L 194.356575 41.224067 
L 194.119156 41.801859 
L 193.849941 42.365539 
L 193.549765 42.913359 
L 193.219558 43.443619 
L 192.860346 43.954675 
L 192.473241 44.444942 
L 192.059445 44.912899 
L 191.62024 45.357097 
L 191.156989 45.776156 
L 190.671128 46.168777 
L 190.164165 46.533743 
L 189.637671 46.869921 
L 189.093279 47.17627 
L 188.532678 47.451838 
L 187.957606 47.695773 
L 187.369846 47.907316 
L 186.771222 48.085812 
L 186.16359 48.230707 
L 185.548833 48.341553 
L 184.92886 48.418005 
L 184.305592 48.459825 
L 183.680963 48.466886 
L 183.056909 48.439164 
L 182.435365 48.376745 
L 181.818261 48.279823 
L 181.207509 48.148699 
L 180.605003 47.98378 
L 180.012612 47.785576 
L 179.432173 47.554703 
L 178.865486 47.291876 
L 178.314309 46.997911 
L 177.78035 46.673718 
L 177.265267 46.320305 
z
" clip-path="url(#pe9658d6892)" style="fill:var(--c8); opacity: 0.6; stroke:var(--c8); stroke-width: 2; stroke-linejoin: miter"/>
   </g>
   <g class="patch">
    <path d="M 183.866546 68.659211 
C 193.385942 68.659211 202.516729 65.349877 209.247958 59.460051 
C 215.979187 53.570226 219.761283 45.580787 219.761283 37.251316 
C 219.761283 28.921845 215.979187 20.932406 209.247958 15.04258 
C 202.516729 9.152755 193.385942 5.843421 183.866546 5.843421 
C 174.347151 5.843421 165.216363 9.152755 158.485134 15.04258 
C 151.753905 20.932406 147.971809 28.921845 147.971809 37.251316 
C 147.971809 45.580787 151.753905 53.570226 158.485134 59.460051 
C 165.216363 65.349877 174.347151 68.659211 183.866546 68.659211 
L 183.866546 68.659211 
z
" clip-path="url(#pe9658d6892)" style="fill: none; opacity: 0.7; stroke-dasharray: 7.4,3.2; stroke-dashoffset: 0; stroke: #808080; stroke-width: 2; stroke-linejoin: miter"/>
   </g>
   <g class="patch">
    <path d="M 190.834227 63.255056 
C 198.879878 61.09923 205.862925 56.291493 210.245432 49.890693 
C 214.627938 43.489893 216.052093 36.018627 214.204243 29.122354 
C 212.356392 22.226082 207.387405 16.467853 200.391643 13.115851 
C 193.39588 9.763849 184.944516 9.09175 176.898865 11.247576 
C 168.853214 13.403402 161.870167 18.211139 157.48766 24.611939 
C 153.105154 31.012739 151.680999 38.484005 153.528849 45.380277 
C 155.3767 52.27655 160.345687 58.034778 167.34145 61.38678 
C 174.337212 64.738782 182.788576 65.410882 190.834227 63.255056 
L 190.834227 63.255056 
z
" clip-path="url(#pe9658d6892)" style="fill: none; opacity: 0.7; stroke-dasharray: 7.4,3.2; stroke-dashoffset: 0; stroke: #808080; stroke-width: 2; stroke-linejoin: miter"/>
   </g>
   <g id="text_2" class="text">
    <!-- Larger Convex Sets -->
    <g transform="translate(118.925921 82.119737) scale(0.12 -0.12)">
     <defs>
      <path id="DejaVuSerif-Bold-4c" d="M 300 0 
L 300 378 
L 897 378 
L 897 4288 
L 300 4288 
L 300 4666 
L 2700 4666 
L 2700 4288 
L 2100 4288 
L 2100 428 
L 3938 428 
L 3938 1166 
L 4359 1166 
L 4359 0 
L 300 0 
z
" transform="scale(0.015625)"/>
      <path id="DejaVuSerif-Bold-72" d="M 3438 3359 
L 3438 2369 
L 3084 2369 
Q 3066 2634 2941 2764 
Q 2816 2894 2578 2894 
Q 2216 2894 2006 2575 
Q 1797 2256 1797 1691 
L 1797 378 
L 2400 378 
L 2400 0 
L 219 0 
L 219 378 
L 691 378 
L 691 2944 
L 184 2944 
L 184 3322 
L 1797 3322 
L 1797 2731 
Q 1959 3078 2226 3245 
Q 2494 3413 2881 3413 
Q 2978 3413 3117 3398 
Q 3256 3384 3438 3359 
z
" transform="scale(0.015625)"/>
      <path id="DejaVuSerif-Bold-67" d="M 3853 2944 
L 3853 44 
Q 3853 -656 3354 -1039 
Q 2856 -1422 1947 -1422 
Q 1616 -1422 1275 -1370 
Q 934 -1319 575 -1216 
L 575 -422 
L 928 -422 
Q 975 -750 1192 -909 
Q 1409 -1069 1813 -1069 
Q 2325 -1069 2536 -823 
Q 2747 -578 2747 44 
L 2747 422 
Q 2606 163 2367 36 
Q 2128 -91 1778 -91 
Q 1072 -91 667 378 
Q 263 847 263 1663 
Q 263 2481 667 2947 
Q 1072 3413 1778 3413 
Q 2128 3413 2367 3286 
Q 2606 3159 2747 2900 
L 2747 3322 
L 4325 3322 
L 4325 2944 
L 3853 2944 
z
M 2747 1825 
Q 2747 2406 2597 2665 
Q 2447 2925 2119 2925 
Q 1775 2925 1636 2651 
Q 1497 2378 1497 1663 
Q 1497 947 1637 672 
Q 1778 397 2119 397 
Q 2447 397 2597 656 
Q 2747 916 2747 1497 
L 2747 1825 
z
" transform="scale(0.015625)"/>
      <path id="DejaVuSerif-Bold-73" d="M 300 97 
L 300 1025 
L 653 1025 
Q 697 653 931 458 
Q 1166 263 1569 263 
Q 1906 263 2086 380 
Q 2266 497 2266 716 
Q 2266 916 2152 1025 
Q 2038 1134 1709 1216 
L 1253 1331 
Q 738 1459 506 1698 
Q 275 1938 275 2344 
Q 275 2884 650 3148 
Q 1025 3413 1806 3413 
Q 2100 3413 2433 3364 
Q 2766 3316 3169 3213 
L 3169 2375 
L 2816 2375 
Q 2788 2716 2573 2887 
Q 2359 3059 1959 3059 
Q 1622 3059 1448 2951 
Q 1275 2844 1275 2638 
Q 1275 2469 1375 2372 
Q 1475 2275 1734 2209 
L 2188 2094 
Q 2841 1928 3091 1684 
Q 3341 1441 3341 1006 
Q 3341 444 2939 176 
Q 2538 -91 1691 -91 
Q 1381 -91 1034 -44 
Q 688 3 300 97 
z
" transform="scale(0.015625)"/>
     </defs>
     <use xlink:href="#DejaVuSerif-Bold-4c"/>
     <use xlink:href="#DejaVuSerif-Bold-61" transform="translate(70.3125 0)"/>
     <use xlink:href="#DejaVuSerif-Bold-72" transform="translate(135.107422 0)"/>
     <use xlink:href="#DejaVuSerif-Bold-67" transform="translate(187.792969 0)"/>
     <use xlink:href="#DejaVuSerif-Bold-65" transform="translate(257.714844 0)"/>
     <use xlink:href="#DejaVuSerif-Bold-72" transform="translate(321.337891 0)"/>
     <use xlink:href="#DejaVuSerif-Bold-20" transform="translate(374.023438 0)"/>
     <use xlink:href="#DejaVuSerif-Bold-43" transform="translate(408.837891 0)"/>
     <use xlink:href="#DejaVuSerif-Bold-6f" transform="translate(488.427734 0)"/>
     <use xlink:href="#DejaVuSerif-Bold-6e" transform="translate(555.126953 0)"/>
     <use xlink:href="#DejaVuSerif-Bold-76" transform="translate(627.832031 0)"/>
     <use xlink:href="#DejaVuSerif-Bold-65" transform="translate(685.9375 0)"/>
     <use xlink:href="#DejaVuSerif-Bold-78" transform="translate(749.560547 0)"/>
     <use xlink:href="#DejaVuSerif-Bold-20" transform="translate(809.179688 0)"/>
     <use xlink:href="#DejaVuSerif-Bold-53" transform="translate(843.994141 0)"/>
     <use xlink:href="#DejaVuSerif-Bold-65" transform="translate(916.210938 0)"/>
     <use xlink:href="#DejaVuSerif-Bold-74" transform="translate(979.833984 0)"/>
     <use xlink:href="#DejaVuSerif-Bold-73" transform="translate(1026.025391 0)"/>
    </g>
   </g>
  </g>
  <g id="axes_3">
   <g class="patch">
    <path d="M 256.553388 82.119737 
L 337.316546 82.119737 
L 337.316546 3.6 
L 256.553388 3.6 
L 256.553388 82.119737 
z
" style="fill: none"/>
   </g>
   <g class="axis"/>
   <g class="axis"/>
   <g class="patch">
    <path d="M 283.732409 55.389294 
L 284.762576 56.096121 
L 285.830492 56.744505 
L 286.932847 57.332436 
L 288.06622 57.85809 
L 289.227098 58.319836 
L 290.41188 58.716244 
L 291.616892 59.046083 
L 292.838397 59.308331 
L 294.072606 59.502174 
L 295.315692 59.627011 
L 296.5638 59.682456 
L 297.813059 59.668335 
L 299.059595 59.584693 
L 300.299542 59.43179 
L 301.529054 59.210099 
L 302.744319 58.920308 
L 303.941568 58.563316 
L 305.117087 58.14023 
L 306.267231 57.652361 
L 307.388434 57.101224 
L 308.477217 56.488526 
L 309.530205 55.816169 
L 310.544132 55.086238 
L 311.515853 54.300995 
L 312.442355 53.462877 
L 313.320764 52.574483 
L 314.148357 51.638568 
L 314.922566 50.658033 
L 315.640991 49.635921 
L 316.301404 48.575402 
L 316.901756 47.479763 
L 317.440186 46.352403 
L 317.915024 45.196818 
L 318.324798 44.016592 
L 318.668235 42.815385 
L 318.944272 41.596922 
L 319.152052 40.364983 
L 319.290932 39.123387 
L 319.360479 37.875985 
L 319.360479 36.626646 
L 319.290932 35.379245 
L 319.152052 34.137649 
L 318.944272 32.90571 
L 318.668235 31.687247 
L 318.324798 30.48604 
L 317.915024 29.305814 
L 317.440186 28.150229 
L 316.901756 27.022869 
L 316.301404 25.92723 
L 315.640991 24.86671 
L 314.922566 23.844598 
L 314.148357 22.864064 
L 313.320764 21.928148 
L 312.442355 21.039754 
L 311.515853 20.201636 
L 310.544132 19.416394 
L 309.530205 18.686462 
L 308.477217 18.014105 
L 307.388434 17.401408 
L 306.267231 16.85027 
L 305.117087 16.362402 
L 303.941568 15.939316 
L 302.744319 15.582323 
L 301.529054 15.292532 
L 300.299542 15.070842 
L 299.059595 14.917938 
L 297.813059 14.834296 
L 296.5638 14.820176 
L 295.315692 14.87562 
L 294.072606 15.000458 
L 292.838397 15.194301 
L 291.616892 15.456549 
L 290.41188 15.786388 
L 289.227098 16.182795 
L 288.06622 16.644542 
L 286.932847 17.170196 
L 285.830492 17.758126 
L 284.762576 18.40651 
L 283.732409 19.113337 
L 290.333688 28.182327 
L 290.333688 28.182327 
L 290.848771 27.828913 
L 291.38273 27.504721 
L 291.933907 27.210756 
L 292.500594 26.947929 
L 293.081033 26.717056 
L 293.673424 26.518852 
L 294.27593 26.353932 
L 294.886682 26.222808 
L 295.503787 26.125887 
L 296.12533 26.063468 
L 296.749384 26.035746 
L 297.374013 26.042806 
L 297.997281 26.084627 
L 298.617254 26.161079 
L 299.232011 26.271924 
L 299.839643 26.41682 
L 300.438267 26.595316 
L 301.026027 26.806859 
L 301.601099 27.050793 
L 302.1617 27.326362 
L 302.706092 27.632711 
L 303.232586 27.968889 
L 303.739549 28.333855 
L 304.22541 28.726476 
L 304.688661 29.145535 
L 305.127866 29.589732 
L 305.541662 30.05769 
L 305.928767 30.547957 
L 306.287979 31.059013 
L 306.618186 31.589273 
L 306.918362 32.137092 
L 307.187577 32.700772 
L 307.424996 33.278565 
L 307.629882 33.868678 
L 307.801601 34.469281 
L 307.93962 35.078513 
L 308.04351 35.694482 
L 308.112949 36.31528 
L 308.147723 36.938981 
L 308.147723 37.56365 
L 308.112949 38.187351 
L 308.04351 38.808149 
L 307.93962 39.424119 
L 307.801601 40.03335 
L 307.629882 40.633954 
L 307.424996 41.224067 
L 307.187577 41.801859 
L 306.918362 42.365539 
L 306.618186 42.913359 
L 306.287979 43.443619 
L 305.928767 43.954675 
L 305.541662 44.444942 
L 305.127866 44.912899 
L 304.688661 45.357097 
L 304.22541 45.776156 
L 303.739549 46.168777 
L 303.232586 46.533743 
L 302.706092 46.869921 
L 302.1617 47.17627 
L 301.601099 47.451838 
L 301.026027 47.695773 
L 300.438267 47.907316 
L 299.839643 48.085812 
L 299.232011 48.230707 
L 298.617254 48.341553 
L 297.997281 48.418005 
L 297.374013 48.459825 
L 296.749384 48.466886 
L 296.12533 48.439164 
L 295.503787 48.376745 
L 294.886682 48.279823 
L 294.27593 48.148699 
L 293.673424 47.98378 
L 293.081033 47.785576 
L 292.500594 47.554703 
L 291.933907 47.291876 
L 291.38273 46.997911 
L 290.848771 46.673718 
L 290.333688 46.320305 
z
" clip-path="url(#p6536743eeb)" style="fill:var(--c8); opacity: 0.6; stroke:var(--c8); stroke-width: 2; stroke-linejoin: miter"/>
   </g>
   <g class="patch">
    <path d="M 292.118951 26.608485 
Q 301.420817 29.399044 309.116359 31.707707 
" style="fill: none; opacity: 0.7; stroke:var(--black); stroke-width: 1.5; stroke-linecap: round"/>
    <path d="M 305.534089 28.336159 
L 309.116359 31.707707 
L 304.269758 32.550594 
" style="fill: none; opacity: 0.7; stroke:var(--black); stroke-width: 1.5; stroke-linecap: round"/>
   </g>
   <g class="patch">
    <path d="M 293.699095 25.354502 
Q 301.422606 35.008891 308.098471 43.353723 
" style="fill: none; opacity: 0.7; stroke:var(--black); stroke-width: 1.5; stroke-linecap: round"/>
    <path d="M 307.067725 38.543571 
L 308.098471 43.353723 
L 303.631902 41.292229 
" style="fill: none; opacity: 0.7; stroke:var(--black); stroke-width: 1.5; stroke-linecap: round"/>
   </g>
   <g id="text_3" class="text">
    <!-- All Convex Combinations -->
    <g transform="translate(212.878717 68.659211) scale(0.12 -0.12)">
     <defs>
      <path id="DejaVuSerif-Bold-41" d="M -50 0 
L -50 378 
L 331 378 
L 2088 4666 
L 2834 4666 
L 4594 378 
L 5038 378 
L 5038 0 
L 2853 0 
L 2853 378 
L 3309 378 
L 2925 1331 
L 1172 1331 
L 781 378 
L 1338 378 
L 1338 0 
L -50 0 
z
M 1325 1709 
L 2772 1709 
L 2053 3494 
L 1325 1709 
z
" transform="scale(0.015625)"/>
      <path id="DejaVuSerif-Bold-62" d="M 622 378 
L 622 4488 
L 147 4488 
L 147 4863 
L 1728 4863 
L 1728 2900 
Q 1869 3159 2106 3286 
Q 2344 3413 2694 3413 
Q 3403 3413 3811 2945 
Q 4219 2478 4219 1663 
Q 4219 847 3811 378 
Q 3403 -91 2694 -91 
Q 2344 -91 2106 36 
Q 1869 163 1728 422 
L 1728 0 
L 147 0 
L 147 378 
L 622 378 
z
M 1728 1497 
Q 1728 916 1876 656 
Q 2025 397 2356 397 
Q 2697 397 2836 672 
Q 2975 947 2975 1663 
Q 2975 2378 2836 2651 
Q 2697 2925 2356 2925 
Q 2025 2925 1876 2665 
Q 1728 2406 1728 1825 
L 1728 1497 
z
" transform="scale(0.015625)"/>
     </defs>
     <use xlink:href="#DejaVuSerif-Bold-41"/>
     <use xlink:href="#DejaVuSerif-Bold-6c" transform="translate(77.587891 0)"/>
     <use xlink:href="#DejaVuSerif-Bold-6c" transform="translate(115.576172 0)"/>
     <use xlink:href="#DejaVuSerif-Bold-20" transform="translate(153.564453 0)"/>
     <use xlink:href="#DejaVuSerif-Bold-43" transform="translate(188.378906 0)"/>
     <use xlink:href="#DejaVuSerif-Bold-6f" transform="translate(267.96875 0)"/>
     <use xlink:href="#DejaVuSerif-Bold-6e" transform="translate(334.667969 0)"/>
     <use xlink:href="#DejaVuSerif-Bold-76" transform="translate(407.373047 0)"/>
     <use xlink:href="#DejaVuSerif-Bold-65" transform="translate(465.478516 0)"/>
     <use xlink:href="#DejaVuSerif-Bold-78" transform="translate(529.101562 0)"/>
     <use xlink:href="#DejaVuSerif-Bold-20" transform="translate(588.720703 0)"/>
     <use xlink:href="#DejaVuSerif-Bold-43" transform="translate(623.535156 0)"/>
     <use xlink:href="#DejaVuSerif-Bold-6f" transform="translate(703.125 0)"/>
     <use xlink:href="#DejaVuSerif-Bold-6d" transform="translate(769.824219 0)"/>
     <use xlink:href="#DejaVuSerif-Bold-62" transform="translate(875.634766 0)"/>
     <use xlink:href="#DejaVuSerif-Bold-69" transform="translate(945.556641 0)"/>
     <use xlink:href="#DejaVuSerif-Bold-6e" transform="translate(983.544922 0)"/>
     <use xlink:href="#DejaVuSerif-Bold-61" transform="translate(1056.25 0)"/>
     <use xlink:href="#DejaVuSerif-Bold-74" transform="translate(1121.044922 0)"/>
     <use xlink:href="#DejaVuSerif-Bold-69" transform="translate(1167.236328 0)"/>
     <use xlink:href="#DejaVuSerif-Bold-6f" transform="translate(1205.224609 0)"/>
     <use xlink:href="#DejaVuSerif-Bold-6e" transform="translate(1271.923828 0)"/>
     <use xlink:href="#DejaVuSerif-Bold-73" transform="translate(1344.628906 0)"/>
    </g>
   </g>
   <g id="PathCollection_2">
    <defs>
     <path id="m508f1234b2" d="M 0 2.236068 
C 0.593012 2.236068 1.161816 2.000462 1.581139 1.581139 
C 2.000462 1.161816 2.236068 0.593012 2.236068 0 
C 2.236068 -0.593012 2.000462 -1.161816 1.581139 -1.581139 
C 1.161816 -2.000462 0.593012 -2.236068 0 -2.236068 
C -0.593012 -2.236068 -1.161816 -2.000462 -1.581139 -1.581139 
C -2.000462 -1.161816 -2.236068 -0.593012 -2.236068 0 
C -2.236068 0.593012 -2.000462 1.161816 -1.581139 1.581139 
C -1.161816 2.000462 -0.593012 2.236068 0 2.236068 
z
" style="stroke:var(--black); stroke-opacity: 0.7"/>
    </defs>
    <g clip-path="url(#p6536743eeb)">
     <use xlink:href="#m508f1234b2" x="290.204704" y="26.034211" style="fill-opacity: 0.7; stroke:var(--black); stroke-opacity: 0.7"/>
    </g>
   </g>
   <g id="PathCollection_3">
    <g clip-path="url(#p6536743eeb)">
     <use xlink:href="#m508f1234b2" x="312.638914" y="32.764474" style="fill-opacity: 0.7; stroke:var(--black); stroke-opacity: 0.7"/>
    </g>
   </g>
   <g id="PathCollection_4">
    <g clip-path="url(#p6536743eeb)">
     <use xlink:href="#m508f1234b2" x="292.448125" y="23.790789" style="fill-opacity: 0.7; stroke:var(--black); stroke-opacity: 0.7"/>
    </g>
   </g>
   <g id="PathCollection_5">
    <g clip-path="url(#p6536743eeb)">
     <use xlink:href="#m508f1234b2" x="310.395493" y="46.225" style="fill-opacity: 0.7; stroke:var(--black); stroke-opacity: 0.7"/>
    </g>
   </g>
  </g>
 </g>
 <defs>
  <clipPath id="pedaa1daf15">
   <rect x="30.416546" y="3.6" width="80.763158" height="78.519737"/>
  </clipPath>
  <clipPath id="pe9658d6892">
   <rect x="143.484967" y="3.6" width="80.763158" height="78.519737"/>
  </clipPath>
  <clipPath id="p6536743eeb">
   <rect x="256.553388" y="3.6" width="80.763158" height="78.519737"/>
  </clipPath>
 </defs>
</svg>
