<?xml version="1.0" encoding="utf-8" standalone="no"?>
<!DOCTYPE svg PUBLIC "-//W3C//DTD SVG 1.1//EN"
  "http://www.w3.org/Graphics/SVG/1.1/DTD/svg11.dtd">
<svg xmlns:xlink="http://www.w3.org/1999/xlink" width="694.4pt" height="261.438125pt" viewBox="0 0 694.4 261.438125" xmlns="http://www.w3.org/2000/svg" version="1.1">
        <style>
            /* Light mode (default) */
            .c1 { fill: #d62728 !important; stroke: #d62728 !important; }
.c2 { fill: #2ca02c !important; stroke: #2ca02c !important; }
.c3 { fill: #1f77b4 !important; stroke: #1f77b4 !important; }
.c4 { fill: #9467bd !important; stroke: #9467bd !important; }
.c5 { fill: #8c564b !important; stroke: #8c564b !important; }
.c6 { fill: #e377c2 !important; stroke: #e377c2 !important; }
.c7 { fill: #7f7f7f !important; stroke: #7f7f7f !important; }
.c8 { fill: #bcbd22 !important; stroke: #bcbd22 !important; }

            /* Text and graphic elements */
            text, .text {
                fill: #000000 !important;
                stroke: none !important;
            }

            .axis line, .axis path, .tick line, .tick path, path.domain, line.grid {
                stroke: #000000 !important;
            }

            .legend text {
                fill: #000000 !important;
            }

            g.legend > g:first-child > path:first-child {
                fill: rgba(255, 255, 255, 0.8) !important;
                stroke: rgba(0, 0, 0, 0.1) !important;
            }

            [stroke="currentColor"], [stroke="black"] {
                stroke: #000000 !important;
            }

            /* Dark mode via media query */
            @media (prefers-color-scheme: dark) {
                /* Dark theme colors */
                .c1 { fill: #FF4A98 !important; stroke: #FF4A98 !important; }
                .c2 { fill: #0AFAFA !important; stroke: #0AFAFA !important; }
                .c3 { fill: #7F83FF !important; stroke: #7F83FF !important; }
                .c4 { fill: #B4A0FF !important; stroke: #B4A0FF !important; }
                .c5 { fill: #FFB86B !important; stroke: #FFB86B !important; }
                .c6 { fill: #FF79C6 !important; stroke: #FF79C6 !important; }
                .c7 { fill: #CCCCCC !important; stroke: #CCCCCC !important; }
                .c8 { fill: #E6DB74 !important; stroke: #E6DB74 !important; }

                /* Dark theme text and graphics */
                text, .text {
                    fill: #FFFFFF !important;
                    stroke: none !important;
                }

                .axis line, .axis path, .tick line, .tick path, path.domain, line.grid {
                    stroke: #FFFFFF !important;
                }

                .grid line {
                    stroke: rgba(255, 255, 255, 0.2) !important;
                }

                .legend text {
                    fill: #FFFFFF !important;
                }

                g.legend > g:first-child > path:first-child {
                    fill: rgba(26, 26, 26, 0.8) !important;
                    stroke: rgba(255, 255, 255, 0.1) !important;
                }

                [stroke="currentColor"], [stroke="black"] {
                    stroke: #FFFFFF !important;
                }
            }
        </style>
        
 <metadata>
  <rdf:RDF xmlns:dc="http://purl.org/dc/elements/1.1/" xmlns:cc="http://creativecommons.org/ns#" xmlns:rdf="http://www.w3.org/1999/02/22-rdf-syntax-ns#">
   <cc:Work>
    <dc:type rdf:resource="http://purl.org/dc/dcmitype/StillImage"/>
    <dc:date>2025-04-02T14:33:17.704142</dc:date>
    <dc:format>image/svg+xml</dc:format>
    <dc:creator>
     <cc:Agent>
      <dc:title>Matplotlib v3.10.1, https://matplotlib.org/</dc:title>
     </cc:Agent>
    </dc:creator>
   </cc:Work>
  </rdf:RDF>
 </metadata>
 <defs>
  <style type="text/css">*{stroke-linejoin: round; stroke-linecap: butt}</style>
 </defs>
 <g id="figure_1">
  <g class="patch">
   <path d="M 0 261.438125 
L 694.4 261.438125 
L 694.4 0 
L 0 0 
L 0 261.438125 
z
" style="fill: none"/>
  </g>
  <g id="axes_1">
   <g class="patch">
    <path d="M 7.2 254.238125 
L 334.2 254.238125 
L 334.2 31.318125 
L 7.2 31.318125 
L 7.2 254.238125 
z
" style="fill: none"/>
   </g>
   <g class="axis"/>
   <g class="axis"/>
   <g id="line2d_1">
    <path d="M 22.063636 31.318125 
L 28.038968 46.929636 
L 34.014299 61.900676 
L 39.98963 76.231243 
L 45.964961 89.921337 
L 51.940292 102.97096 
L 57.915624 115.38011 
L 63.890955 127.148788 
L 68.372453 135.554986 
L 72.853952 143.600919 
L 77.33545 151.286586 
L 81.816948 158.611988 
L 86.298447 165.577124 
L 90.779945 172.181994 
L 95.261444 178.426599 
L 99.742942 184.310938 
L 104.22444 189.835011 
L 108.705939 194.998819 
L 113.187437 199.802361 
L 117.668936 204.245637 
L 122.150434 208.328648 
L 126.631932 212.051393 
L 131.113431 215.413872 
L 135.594929 218.416086 
L 140.076428 221.058034 
L 144.557926 223.339716 
L 149.039424 225.261133 
L 152.02709 226.34193 
L 155.014756 227.262609 
L 158.002421 228.02317 
L 160.990087 228.623613 
L 163.977752 229.063937 
L 166.965418 229.344144 
L 169.953084 229.464232 
L 172.940749 229.424203 
L 175.928415 229.224055 
L 178.91608 228.86379 
L 181.903746 228.343406 
L 184.891412 227.662904 
L 187.879077 226.822284 
L 190.866743 225.821546 
L 193.854408 224.66069 
L 198.335907 222.619185 
L 202.817405 220.217414 
L 207.298904 217.455377 
L 211.780402 214.333075 
L 216.2619 210.850507 
L 220.743399 207.007674 
L 225.224897 202.804574 
L 229.706396 198.241209 
L 234.187894 193.317579 
L 238.669392 188.033683 
L 243.150891 182.389521 
L 247.632389 176.385093 
L 252.113888 170.0204 
L 256.595386 163.295441 
L 261.076884 156.210217 
L 265.558383 148.764727 
L 270.039881 140.958971 
L 274.52138 132.79295 
L 279.002878 124.266663 
L 284.978209 112.337867 
L 290.95354 99.768598 
L 296.928872 86.558858 
L 302.904203 72.708645 
L 308.879534 58.21796 
L 314.854865 43.086803 
L 319.336364 31.318125 
L 319.336364 31.318125 
" clip-path="url(#p8763c69a24)" style="fill: none; stroke: #ff0001; stroke-width: 2; stroke-linecap: square"/>
   </g>
   <g id="line2d_2">
    <defs>
     <path id="m7d0c49dded" d="M 0 4 
C 1.060812 4 2.078319 3.578535 2.828427 2.828427 
C 3.578535 2.078319 4 1.060812 4 0 
C 4 -1.060812 3.578535 -2.078319 2.828427 -2.828427 
C 2.078319 -3.578535 1.060812 -4 0 -4 
C -1.060812 -4 -2.078319 -3.578535 -2.828427 -2.828427 
C -3.578535 -2.078319 -4 -1.060812 -4 0 
C -4 1.060812 -3.578535 2.078319 -2.828427 2.828427 
C -2.078319 3.578535 -1.060812 4 0 4 
z
" style="stroke: #ff0001"/>
    </defs>
    <g clip-path="url(#p8763c69a24)">
     <use xlink:href="#m7d0c49dded" x="170.7" y="229.469236" style="fill: #ff0001; stroke: #ff0001"/>
    </g>
   </g>
   <g id="line2d_3">
    <defs>
     <path id="m0f4ce71924" d="M 3 0 
L -3 -3 
L -3 3 
z
" style="stroke: currentColor; stroke-linejoin: miter"/>
    </defs>
    <g>
     <use xlink:href="#m0f4ce71924" x="334.2" y="229.469236" style="stroke: currentColor; stroke-linejoin: miter"/>
    </g>
   </g>
   <g id="line2d_4">
    <defs>
     <path id="m1b51dcb250" d="M 0 -3 
L -3 3 
L 3 3 
z
" style="stroke: currentColor; stroke-linejoin: miter"/>
    </defs>
    <g>
     <use xlink:href="#m1b51dcb250" x="170.7" y="31.318125" style="stroke: currentColor; stroke-linejoin: miter"/>
    </g>
   </g>
   <g class="patch">
    <path d="M 170.7 254.238125 
L 170.7 31.318125 
" style="fill: none; stroke: currentColor; stroke-width: 0.8; stroke-linejoin: miter; stroke-linecap: square"/>
   </g>
   <g class="patch">
    <path d="M 7.2 229.469236 
L 334.2 229.469236 
" style="fill: none; stroke: currentColor; stroke-width: 0.8; stroke-linejoin: miter; stroke-linecap: square"/>
   </g>
   <g id="text_1" class="text">
    <!-- Convex Function -->
    <g transform="translate(120.9225 16.318125) scale(0.12 -0.12)">
     <defs>
      <path id="DejaVuSans-43" d="M 4122 4306 
L 4122 3641 
Q 3803 3938 3442 4084 
Q 3081 4231 2675 4231 
Q 1875 4231 1450 3742 
Q 1025 3253 1025 2328 
Q 1025 1406 1450 917 
Q 1875 428 2675 428 
Q 3081 428 3442 575 
Q 3803 722 4122 1019 
L 4122 359 
Q 3791 134 3420 21 
Q 3050 -91 2638 -91 
Q 1578 -91 968 557 
Q 359 1206 359 2328 
Q 359 3453 968 4101 
Q 1578 4750 2638 4750 
Q 3056 4750 3426 4639 
Q 3797 4528 4122 4306 
z
" transform="scale(0.015625)"/>
      <path id="DejaVuSans-6f" d="M 1959 3097 
Q 1497 3097 1228 2736 
Q 959 2375 959 1747 
Q 959 1119 1226 758 
Q 1494 397 1959 397 
Q 2419 397 2687 759 
Q 2956 1122 2956 1747 
Q 2956 2369 2687 2733 
Q 2419 3097 1959 3097 
z
M 1959 3584 
Q 2709 3584 3137 3096 
Q 3566 2609 3566 1747 
Q 3566 888 3137 398 
Q 2709 -91 1959 -91 
Q 1206 -91 779 398 
Q 353 888 353 1747 
Q 353 2609 779 3096 
Q 1206 3584 1959 3584 
z
" transform="scale(0.015625)"/>
      <path id="DejaVuSans-6e" d="M 3513 2113 
L 3513 0 
L 2938 0 
L 2938 2094 
Q 2938 2591 2744 2837 
Q 2550 3084 2163 3084 
Q 1697 3084 1428 2787 
Q 1159 2491 1159 1978 
L 1159 0 
L 581 0 
L 581 3500 
L 1159 3500 
L 1159 2956 
Q 1366 3272 1645 3428 
Q 1925 3584 2291 3584 
Q 2894 3584 3203 3211 
Q 3513 2838 3513 2113 
z
" transform="scale(0.015625)"/>
      <path id="DejaVuSans-76" d="M 191 3500 
L 800 3500 
L 1894 563 
L 2988 3500 
L 3597 3500 
L 2284 0 
L 1503 0 
L 191 3500 
z
" transform="scale(0.015625)"/>
      <path id="DejaVuSans-65" d="M 3597 1894 
L 3597 1613 
L 953 1613 
Q 991 1019 1311 708 
Q 1631 397 2203 397 
Q 2534 397 2845 478 
Q 3156 559 3463 722 
L 3463 178 
Q 3153 47 2828 -22 
Q 2503 -91 2169 -91 
Q 1331 -91 842 396 
Q 353 884 353 1716 
Q 353 2575 817 3079 
Q 1281 3584 2069 3584 
Q 2775 3584 3186 3129 
Q 3597 2675 3597 1894 
z
M 3022 2063 
Q 3016 2534 2758 2815 
Q 2500 3097 2075 3097 
Q 1594 3097 1305 2825 
Q 1016 2553 972 2059 
L 3022 2063 
z
" transform="scale(0.015625)"/>
      <path id="DejaVuSans-78" d="M 3513 3500 
L 2247 1797 
L 3578 0 
L 2900 0 
L 1881 1375 
L 863 0 
L 184 0 
L 1544 1831 
L 300 3500 
L 978 3500 
L 1906 2253 
L 2834 3500 
L 3513 3500 
z
" transform="scale(0.015625)"/>
      <path id="DejaVuSans-20" transform="scale(0.015625)"/>
      <path id="DejaVuSans-46" d="M 628 4666 
L 3309 4666 
L 3309 4134 
L 1259 4134 
L 1259 2759 
L 3109 2759 
L 3109 2228 
L 1259 2228 
L 1259 0 
L 628 0 
L 628 4666 
z
" transform="scale(0.015625)"/>
      <path id="DejaVuSans-75" d="M 544 1381 
L 544 3500 
L 1119 3500 
L 1119 1403 
Q 1119 906 1312 657 
Q 1506 409 1894 409 
Q 2359 409 2629 706 
Q 2900 1003 2900 1516 
L 2900 3500 
L 3475 3500 
L 3475 0 
L 2900 0 
L 2900 538 
Q 2691 219 2414 64 
Q 2138 -91 1772 -91 
Q 1169 -91 856 284 
Q 544 659 544 1381 
z
M 1991 3584 
L 1991 3584 
z
" transform="scale(0.015625)"/>
      <path id="DejaVuSans-63" d="M 3122 3366 
L 3122 2828 
Q 2878 2963 2633 3030 
Q 2388 3097 2138 3097 
Q 1578 3097 1268 2742 
Q 959 2388 959 1747 
Q 959 1106 1268 751 
Q 1578 397 2138 397 
Q 2388 397 2633 464 
Q 2878 531 3122 666 
L 3122 134 
Q 2881 22 2623 -34 
Q 2366 -91 2075 -91 
Q 1284 -91 818 406 
Q 353 903 353 1747 
Q 353 2603 823 3093 
Q 1294 3584 2113 3584 
Q 2378 3584 2631 3529 
Q 2884 3475 3122 3366 
z
" transform="scale(0.015625)"/>
      <path id="DejaVuSans-74" d="M 1172 4494 
L 1172 3500 
L 2356 3500 
L 2356 3053 
L 1172 3053 
L 1172 1153 
Q 1172 725 1289 603 
Q 1406 481 1766 481 
L 2356 481 
L 2356 0 
L 1766 0 
Q 1100 0 847 248 
Q 594 497 594 1153 
L 594 3053 
L 172 3053 
L 172 3500 
L 594 3500 
L 594 4494 
L 1172 4494 
z
" transform="scale(0.015625)"/>
      <path id="DejaVuSans-69" d="M 603 3500 
L 1178 3500 
L 1178 0 
L 603 0 
L 603 3500 
z
M 603 4863 
L 1178 4863 
L 1178 4134 
L 603 4134 
L 603 4863 
z
" transform="scale(0.015625)"/>
     </defs>
     <use xlink:href="#DejaVuSans-43"/>
     <use xlink:href="#DejaVuSans-6f" transform="translate(69.824219 0)"/>
     <use xlink:href="#DejaVuSans-6e" transform="translate(131.005859 0)"/>
     <use xlink:href="#DejaVuSans-76" transform="translate(194.384766 0)"/>
     <use xlink:href="#DejaVuSans-65" transform="translate(253.564453 0)"/>
     <use xlink:href="#DejaVuSans-78" transform="translate(313.337891 0)"/>
     <use xlink:href="#DejaVuSans-20" transform="translate(372.517578 0)"/>
     <use xlink:href="#DejaVuSans-46" transform="translate(404.304688 0)"/>
     <use xlink:href="#DejaVuSans-75" transform="translate(456.324219 0)"/>
     <use xlink:href="#DejaVuSans-6e" transform="translate(519.703125 0)"/>
     <use xlink:href="#DejaVuSans-63" transform="translate(583.082031 0)"/>
     <use xlink:href="#DejaVuSans-74" transform="translate(638.0625 0)"/>
     <use xlink:href="#DejaVuSans-69" transform="translate(677.271484 0)"/>
     <use xlink:href="#DejaVuSans-6f" transform="translate(705.054688 0)"/>
     <use xlink:href="#DejaVuSans-6e" transform="translate(766.236328 0)"/>
    </g>
   </g>
  </g>
  <g id="axes_2">
   <g class="patch">
    <path d="M 357.2 254.238125 
L 684.2 254.238125 
L 684.2 31.318125 
L 357.2 31.318125 
L 357.2 254.238125 
z
" style="fill: none"/>
   </g>
   <g class="axis"/>
   <g class="axis"/>
   <g id="line2d_5">
    <path d="M 388.656235 -1 
L 391.483463 26.723426 
L 394.471128 53.473402 
L 397.458794 77.771832 
L 400.44646 99.748357 
L 403.434125 119.529516 
L 406.421791 137.238744 
L 409.409456 152.996367 
L 412.397122 166.91961 
L 415.384788 179.122589 
L 418.372453 189.716317 
L 421.360119 198.808701 
L 422.853952 202.824761 
L 424.347784 206.504543 
L 425.841617 209.860663 
L 427.33545 212.90554 
L 428.829283 215.651403 
L 430.323116 218.110283 
L 431.816948 220.29402 
L 433.310781 222.214258 
L 434.804614 223.882448 
L 436.298447 225.309846 
L 437.79228 226.507516 
L 439.286112 227.486324 
L 440.779945 228.256945 
L 442.273778 228.82986 
L 443.767611 229.215355 
L 445.261444 229.423521 
L 446.755276 229.464258 
L 448.249109 229.347267 
L 449.742942 229.08206 
L 451.236775 228.677952 
L 452.730608 228.144065 
L 455.718273 226.722469 
L 458.705939 224.886363 
L 461.693604 222.701735 
L 464.68127 220.231464 
L 469.162768 216.120391 
L 475.1381 210.171084 
L 485.594929 199.571517 
L 490.076428 195.325694 
L 494.557926 191.432066 
L 497.545592 189.081793 
L 500.533257 186.958242 
L 503.520923 185.083927 
L 506.508588 183.478257 
L 509.496254 182.157532 
L 512.48392 181.134951 
L 515.471585 180.420606 
L 518.459251 180.021484 
L 521.446916 179.941465 
L 524.434582 180.181327 
L 527.422248 180.73874 
L 530.409913 181.60827 
L 533.397579 182.781379 
L 536.385244 184.24642 
L 539.37291 185.988644 
L 542.360576 187.990197 
L 545.348241 190.230117 
L 548.335907 192.68434 
L 552.817405 196.707205 
L 557.298904 201.045585 
L 566.2619 210.171084 
L 572.237232 216.120391 
L 576.71873 220.231464 
L 579.706396 222.701735 
L 582.694061 224.886363 
L 585.681727 226.722469 
L 588.669392 228.144065 
L 590.163225 228.677952 
L 591.657058 229.08206 
L 593.150891 229.347267 
L 594.644724 229.464258 
L 596.138556 229.423521 
L 597.632389 229.215355 
L 599.126222 228.82986 
L 600.620055 228.256945 
L 602.113888 227.486324 
L 603.60772 226.507516 
L 605.101553 225.309846 
L 606.595386 223.882448 
L 608.089219 222.214258 
L 609.583052 220.29402 
L 611.076884 218.110283 
L 612.570717 215.651403 
L 614.06455 212.90554 
L 615.558383 209.860663 
L 617.052216 206.504543 
L 618.546048 202.824761 
L 620.039881 198.808701 
L 621.533714 194.443554 
L 623.027547 189.716317 
L 626.015212 179.122589 
L 629.002878 166.91961 
L 631.990544 152.996367 
L 634.978209 137.238744 
L 637.965875 119.529516 
L 640.95354 99.748357 
L 643.941206 77.771832 
L 646.928872 53.473402 
L 649.916537 26.723426 
L 652.743765 -1 
L 652.743765 -1 
" clip-path="url(#p528e1700c2)" style="fill: none; stroke: #00ff02; stroke-width: 2; stroke-linecap: square"/>
   </g>
   <g id="line2d_6">
    <defs>
     <path id="m5ef1746584" d="M 0 4 
C 1.060812 4 2.078319 3.578535 2.828427 2.828427 
C 3.578535 2.078319 4 1.060812 4 0 
C 4 -1.060812 3.578535 -2.078319 2.828427 -2.828427 
C 2.078319 -3.578535 1.060812 -4 0 -4 
C -1.060812 -4 -2.078319 -3.578535 -2.828427 -2.828427 
C -3.578535 -2.078319 -4 -1.060812 -4 0 
C -4 1.060812 -3.578535 2.078319 -2.828427 2.828427 
C -2.078319 3.578535 -1.060812 4 0 4 
z
" style="stroke: #00ff02"/>
    </defs>
    <g clip-path="url(#p528e1700c2)">
     <use xlink:href="#m5ef1746584" x="446.381818" y="229.469236" style="fill: #00ff02; stroke: #00ff02"/>
     <use xlink:href="#m5ef1746584" x="595.018182" y="229.469236" style="fill: #00ff02; stroke: #00ff02"/>
    </g>
   </g>
   <g id="line2d_7">
    <defs>
     <path id="mc689742618" d="M -4 4 
L 4 4 
L 4 -4 
L -4 -4 
z
" style="stroke: #0000ff; stroke-linejoin: miter"/>
    </defs>
    <g clip-path="url(#p528e1700c2)">
     <use xlink:href="#mc689742618" x="520.7" y="179.931458" style="fill: #0000ff; stroke: #0000ff; stroke-linejoin: miter"/>
    </g>
   </g>
   <g id="line2d_8">
    <g>
     <use xlink:href="#m0f4ce71924" x="684.2" y="229.469236" style="stroke: currentColor; stroke-linejoin: miter"/>
    </g>
   </g>
   <g id="line2d_9">
    <g>
     <use xlink:href="#m1b51dcb250" x="520.7" y="31.318125" style="stroke: currentColor; stroke-linejoin: miter"/>
    </g>
   </g>
   <g class="patch">
    <path d="M 520.7 254.238125 
L 520.7 31.318125 
" style="fill: none; stroke: currentColor; stroke-width: 0.8; stroke-linejoin: miter; stroke-linecap: square"/>
   </g>
   <g class="patch">
    <path d="M 357.2 229.469236 
L 684.2 229.469236 
" style="fill: none; stroke: currentColor; stroke-width: 0.8; stroke-linejoin: miter; stroke-linecap: square"/>
   </g>
   <g id="text_2" class="text">
    <!-- Non-convex Function -->
    <g transform="translate(457.685938 16.318125) scale(0.12 -0.12)">
     <defs>
      <path id="DejaVuSans-4e" d="M 628 4666 
L 1478 4666 
L 3547 763 
L 3547 4666 
L 4159 4666 
L 4159 0 
L 3309 0 
L 1241 3903 
L 1241 0 
L 628 0 
L 628 4666 
z
" transform="scale(0.015625)"/>
      <path id="DejaVuSans-2d" d="M 313 2009 
L 1997 2009 
L 1997 1497 
L 313 1497 
L 313 2009 
z
" transform="scale(0.015625)"/>
     </defs>
     <use xlink:href="#DejaVuSans-4e"/>
     <use xlink:href="#DejaVuSans-6f" transform="translate(74.804688 0)"/>
     <use xlink:href="#DejaVuSans-6e" transform="translate(135.986328 0)"/>
     <use xlink:href="#DejaVuSans-2d" transform="translate(199.365234 0)"/>
     <use xlink:href="#DejaVuSans-63" transform="translate(235.449219 0)"/>
     <use xlink:href="#DejaVuSans-6f" transform="translate(290.429688 0)"/>
     <use xlink:href="#DejaVuSans-6e" transform="translate(351.611328 0)"/>
     <use xlink:href="#DejaVuSans-76" transform="translate(414.990234 0)"/>
     <use xlink:href="#DejaVuSans-65" transform="translate(474.169922 0)"/>
     <use xlink:href="#DejaVuSans-78" transform="translate(533.943359 0)"/>
     <use xlink:href="#DejaVuSans-20" transform="translate(593.123047 0)"/>
     <use xlink:href="#DejaVuSans-46" transform="translate(624.910156 0)"/>
     <use xlink:href="#DejaVuSans-75" transform="translate(676.929688 0)"/>
     <use xlink:href="#DejaVuSans-6e" transform="translate(740.308594 0)"/>
     <use xlink:href="#DejaVuSans-63" transform="translate(803.6875 0)"/>
     <use xlink:href="#DejaVuSans-74" transform="translate(858.667969 0)"/>
     <use xlink:href="#DejaVuSans-69" transform="translate(897.876953 0)"/>
     <use xlink:href="#DejaVuSans-6f" transform="translate(925.660156 0)"/>
     <use xlink:href="#DejaVuSans-6e" transform="translate(986.841797 0)"/>
    </g>
   </g>
   <g class="legend">
    <g class="patch">
     <path d="M 583.619844 69.39715 
L 671.36 69.39715 
Q 673.16 69.39715 673.16 67.59715 
L 673.16 42.076525 
Q 673.16 40.276525 671.36 40.276525 
L 583.619844 40.276525 
Q 581.819844 40.276525 581.819844 42.076525 
L 581.819844 67.59715 
Q 581.819844 69.39715 583.619844 69.39715 
z
" style="fill: #ffffff; opacity: 0.9; stroke: #cccccc; stroke-linejoin: miter"/>
    </g>
    <g id="line2d_10">
     <g>
      <use xlink:href="#m5ef1746584" x="594.419844" y="47.565119" style="fill: #00ff02; stroke: #00ff02"/>
     </g>
    </g>
    <g id="text_3" class="text">
     <!-- Local Minima -->
     <g transform="translate(610.619844 50.715119) scale(0.09 -0.09)">
      <defs>
       <path id="DejaVuSans-4c" d="M 628 4666 
L 1259 4666 
L 1259 531 
L 3531 531 
L 3531 0 
L 628 0 
L 628 4666 
z
" transform="scale(0.015625)"/>
       <path id="DejaVuSans-61" d="M 2194 1759 
Q 1497 1759 1228 1600 
Q 959 1441 959 1056 
Q 959 750 1161 570 
Q 1363 391 1709 391 
Q 2188 391 2477 730 
Q 2766 1069 2766 1631 
L 2766 1759 
L 2194 1759 
z
M 3341 1997 
L 3341 0 
L 2766 0 
L 2766 531 
Q 2569 213 2275 61 
Q 1981 -91 1556 -91 
Q 1019 -91 701 211 
Q 384 513 384 1019 
Q 384 1609 779 1909 
Q 1175 2209 1959 2209 
L 2766 2209 
L 2766 2266 
Q 2766 2663 2505 2880 
Q 2244 3097 1772 3097 
Q 1472 3097 1187 3025 
Q 903 2953 641 2809 
L 641 3341 
Q 956 3463 1253 3523 
Q 1550 3584 1831 3584 
Q 2591 3584 2966 3190 
Q 3341 2797 3341 1997 
z
" transform="scale(0.015625)"/>
       <path id="DejaVuSans-6c" d="M 603 4863 
L 1178 4863 
L 1178 0 
L 603 0 
L 603 4863 
z
" transform="scale(0.015625)"/>
       <path id="DejaVuSans-4d" d="M 628 4666 
L 1569 4666 
L 2759 1491 
L 3956 4666 
L 4897 4666 
L 4897 0 
L 4281 0 
L 4281 4097 
L 3078 897 
L 2444 897 
L 1241 4097 
L 1241 0 
L 628 0 
L 628 4666 
z
" transform="scale(0.015625)"/>
       <path id="DejaVuSans-6d" d="M 3328 2828 
Q 3544 3216 3844 3400 
Q 4144 3584 4550 3584 
Q 5097 3584 5394 3201 
Q 5691 2819 5691 2113 
L 5691 0 
L 5113 0 
L 5113 2094 
Q 5113 2597 4934 2840 
Q 4756 3084 4391 3084 
Q 3944 3084 3684 2787 
Q 3425 2491 3425 1978 
L 3425 0 
L 2847 0 
L 2847 2094 
Q 2847 2600 2669 2842 
Q 2491 3084 2119 3084 
Q 1678 3084 1418 2786 
Q 1159 2488 1159 1978 
L 1159 0 
L 581 0 
L 581 3500 
L 1159 3500 
L 1159 2956 
Q 1356 3278 1631 3431 
Q 1906 3584 2284 3584 
Q 2666 3584 2933 3390 
Q 3200 3197 3328 2828 
z
" transform="scale(0.015625)"/>
      </defs>
      <use xlink:href="#DejaVuSans-4c"/>
      <use xlink:href="#DejaVuSans-6f" transform="translate(53.962891 0)"/>
      <use xlink:href="#DejaVuSans-63" transform="translate(115.144531 0)"/>
      <use xlink:href="#DejaVuSans-61" transform="translate(170.125 0)"/>
      <use xlink:href="#DejaVuSans-6c" transform="translate(231.404297 0)"/>
      <use xlink:href="#DejaVuSans-20" transform="translate(259.1875 0)"/>
      <use xlink:href="#DejaVuSans-4d" transform="translate(290.974609 0)"/>
      <use xlink:href="#DejaVuSans-69" transform="translate(377.253906 0)"/>
      <use xlink:href="#DejaVuSans-6e" transform="translate(405.037109 0)"/>
      <use xlink:href="#DejaVuSans-69" transform="translate(468.416016 0)"/>
      <use xlink:href="#DejaVuSans-6d" transform="translate(496.199219 0)"/>
      <use xlink:href="#DejaVuSans-61" transform="translate(593.611328 0)"/>
     </g>
    </g>
    <g id="line2d_11">
     <g>
      <use xlink:href="#mc689742618" x="594.419844" y="60.775431" style="fill: #0000ff; stroke: #0000ff; stroke-linejoin: miter"/>
     </g>
    </g>
    <g id="text_4" class="text">
     <!-- Saddle Point -->
     <g transform="translate(610.619844 63.925431) scale(0.09 -0.09)">
      <defs>
       <path id="DejaVuSans-53" d="M 3425 4513 
L 3425 3897 
Q 3066 4069 2747 4153 
Q 2428 4238 2131 4238 
Q 1616 4238 1336 4038 
Q 1056 3838 1056 3469 
Q 1056 3159 1242 3001 
Q 1428 2844 1947 2747 
L 2328 2669 
Q 3034 2534 3370 2195 
Q 3706 1856 3706 1288 
Q 3706 609 3251 259 
Q 2797 -91 1919 -91 
Q 1588 -91 1214 -16 
Q 841 59 441 206 
L 441 856 
Q 825 641 1194 531 
Q 1563 422 1919 422 
Q 2459 422 2753 634 
Q 3047 847 3047 1241 
Q 3047 1584 2836 1778 
Q 2625 1972 2144 2069 
L 1759 2144 
Q 1053 2284 737 2584 
Q 422 2884 422 3419 
Q 422 4038 858 4394 
Q 1294 4750 2059 4750 
Q 2388 4750 2728 4690 
Q 3069 4631 3425 4513 
z
" transform="scale(0.015625)"/>
       <path id="DejaVuSans-64" d="M 2906 2969 
L 2906 4863 
L 3481 4863 
L 3481 0 
L 2906 0 
L 2906 525 
Q 2725 213 2448 61 
Q 2172 -91 1784 -91 
Q 1150 -91 751 415 
Q 353 922 353 1747 
Q 353 2572 751 3078 
Q 1150 3584 1784 3584 
Q 2172 3584 2448 3432 
Q 2725 3281 2906 2969 
z
M 947 1747 
Q 947 1113 1208 752 
Q 1469 391 1925 391 
Q 2381 391 2643 752 
Q 2906 1113 2906 1747 
Q 2906 2381 2643 2742 
Q 2381 3103 1925 3103 
Q 1469 3103 1208 2742 
Q 947 2381 947 1747 
z
" transform="scale(0.015625)"/>
       <path id="DejaVuSans-50" d="M 1259 4147 
L 1259 2394 
L 2053 2394 
Q 2494 2394 2734 2622 
Q 2975 2850 2975 3272 
Q 2975 3691 2734 3919 
Q 2494 4147 2053 4147 
L 1259 4147 
z
M 628 4666 
L 2053 4666 
Q 2838 4666 3239 4311 
Q 3641 3956 3641 3272 
Q 3641 2581 3239 2228 
Q 2838 1875 2053 1875 
L 1259 1875 
L 1259 0 
L 628 0 
L 628 4666 
z
" transform="scale(0.015625)"/>
      </defs>
      <use xlink:href="#DejaVuSans-53"/>
      <use xlink:href="#DejaVuSans-61" transform="translate(63.476562 0)"/>
      <use xlink:href="#DejaVuSans-64" transform="translate(124.755859 0)"/>
      <use xlink:href="#DejaVuSans-64" transform="translate(188.232422 0)"/>
      <use xlink:href="#DejaVuSans-6c" transform="translate(251.708984 0)"/>
      <use xlink:href="#DejaVuSans-65" transform="translate(279.492188 0)"/>
      <use xlink:href="#DejaVuSans-20" transform="translate(341.015625 0)"/>
      <use xlink:href="#DejaVuSans-50" transform="translate(372.802734 0)"/>
      <use xlink:href="#DejaVuSans-6f" transform="translate(429.480469 0)"/>
      <use xlink:href="#DejaVuSans-69" transform="translate(490.662109 0)"/>
      <use xlink:href="#DejaVuSans-6e" transform="translate(518.445312 0)"/>
      <use xlink:href="#DejaVuSans-74" transform="translate(581.824219 0)"/>
     </g>
    </g>
   </g>
  </g>
 </g>
 <defs>
  <clipPath id="p8763c69a24">
   <rect x="7.2" y="31.318125" width="327" height="222.92"/>
  </clipPath>
  <clipPath id="p528e1700c2">
   <rect x="357.2" y="31.318125" width="327" height="222.92"/>
  </clipPath>
 </defs>
</svg>
