<?xml version="1.0" encoding="utf-8" standalone="no"?>
<!DOCTYPE svg PUBLIC "-//W3C//DTD SVG 1.1//EN"
  "http://www.w3.org/Graphics/SVG/1.1/DTD/svg11.dtd">
<svg xmlns:xlink="http://www.w3.org/1999/xlink" width="349.5pt" height="225.084437pt" viewBox="0 0 349.5 225.084437" xmlns="http://www.w3.org/2000/svg" version="1.1">
<style>:root { --axis-color:#000; --grid-stroke:rgba(0,0,0,0.2); --plot3d-stroke:rgba(0,0,0,0.3); --plot3d-grid:rgba(0,0,0,0.2); }
@media (prefers-color-scheme:dark) { :root { --axis-color:#fff; --grid-stroke:rgba(255,255,255,0.2); --plot3d-stroke:rgba(255,255,255,0.3); --plot3d-grid:rgba(255,255,255,0.2); } }
.black{fill:#000000;stroke:#000000;}:root{--black:#000000;}.c1{fill:#FF0001;stroke:#FF0001;}:root{--c1:#FF0001;}.c2{fill:#00FF02;stroke:#00FF02;}:root{--c2:#00FF02;}.c3{fill:#0000FF;stroke:#0000FF;}:root{--c3:#0000FF;}.c4{fill:#FF00FF;stroke:#FF00FF;}:root{--c4:#FF00FF;}.c5{fill:#00FFFF;stroke:#00FFFF;}:root{--c5:#00FFFF;}.c6{fill:#FFFF00;stroke:#FFFF00;}:root{--c6:#FFFF00;}.c7{fill:#FF8000;stroke:#FF8000;}:root{--c7:#FF8000;}.c8{fill:#8000FF;stroke:#8000FF;}:root{--c8:#8000FF;}.gray{fill:#7f7f7f;stroke:#7f7f7f;}:root{--gray:#7f7f7f;}.grey{fill:#7f7f7f;stroke:#7f7f7f;}:root{--grey:#7f7f7f;}.octonary{fill:#bcbd22;stroke:#bcbd22;}:root{--octonary:#bcbd22;}.primary{fill:#d62728;stroke:#d62728;}:root{--primary:#d62728;}.quaternary{fill:#9467bd;stroke:#9467bd;}:root{--quaternary:#9467bd;}.quinary{fill:#8c564b;stroke:#8c564b;}:root{--quinary:#8c564b;}.secondary{fill:#2ca02c;stroke:#2ca02c;}:root{--secondary:#2ca02c;}.senary{fill:#e377c2;stroke:#e377c2;}:root{--senary:#e377c2;}.septenary{fill:#7f7f7f;stroke:#7f7f7f;}:root{--septenary:#7f7f7f;}.tertiary{fill:#1f77b4;stroke:#1f77b4;}:root{--tertiary:#1f77b4;}.white{fill:#ffffff;stroke:#ffffff;}:root{--white:#ffffff;}
@media (prefers-color-scheme:dark) { .black{fill:#FFFFFF;stroke:#FFFFFF;}:root{--black:#FFFFFF;}.c1{fill:#FF0001;stroke:#FF0001;}:root{--c1:#FF0001;}.c2{fill:#00FF02;stroke:#00FF02;}:root{--c2:#00FF02;}.c3{fill:#0000FF;stroke:#0000FF;}:root{--c3:#0000FF;}.c4{fill:#FF00FF;stroke:#FF00FF;}:root{--c4:#FF00FF;}.c5{fill:#00FFFF;stroke:#00FFFF;}:root{--c5:#00FFFF;}.c6{fill:#FFFF00;stroke:#FFFF00;}:root{--c6:#FFFF00;}.c7{fill:#FF8000;stroke:#FF8000;}:root{--c7:#FF8000;}.c8{fill:#8000FF;stroke:#8000FF;}:root{--c8:#8000FF;}.gray{fill:#CCCCCC;stroke:#CCCCCC;}:root{--gray:#CCCCCC;}.grey{fill:#CCCCCC;stroke:#CCCCCC;}:root{--grey:#CCCCCC;}.octonary{fill:#E6DB74;stroke:#E6DB74;}:root{--octonary:#E6DB74;}.primary{fill:#FF4A98;stroke:#FF4A98;}:root{--primary:#FF4A98;}.quaternary{fill:#B4A0FF;stroke:#B4A0FF;}:root{--quaternary:#B4A0FF;}.quinary{fill:#FFB86B;stroke:#FFB86B;}:root{--quinary:#FFB86B;}.secondary{fill:#0AFAFA;stroke:#0AFAFA;}:root{--secondary:#0AFAFA;}.senary{fill:#FF79C6;stroke:#FF79C6;}:root{--senary:#FF79C6;}.septenary{fill:#CCCCCC;stroke:#CCCCCC;}:root{--septenary:#CCCCCC;}.tertiary{fill:#7F83FF;stroke:#7F83FF;}:root{--tertiary:#7F83FF;}.white{fill:#000000;stroke:#000000;}:root{--white:#000000;} }
text,.text { fill:var(--axis-color)!important; stroke:none!important; }
.axis line,.axis path,.tick line,.tick path,path.domain,line.grid { stroke:var(--axis-color)!important; }
.legend text { fill:var(--axis-color)!important; }
.patch path[style*="stroke: currentColor"] { stroke:var(--axis-color)!important; }
g.legend>g:first-child>path:first-child { fill:rgba(255,255,255,0.8)!important; stroke:rgba(0,0,0,0.1)!important; }
@media (prefers-color-scheme:dark) { g.legend>g:first-child>path:first-child { fill:rgba(26,26,26,0.8)!important; stroke:rgba(255,255,255,0.1)!important; } }
.plot3d path,.plot3d polygon { stroke:var(--plot3d-stroke)!important; }
.plot3d-grid line { stroke:var(--plot3d-grid)!important; }
.plot3d-surface path[style*="fill:"] { fill-opacity:0.9!important; }
@media (prefers-color-scheme:dark) { .plot3d-surface path[style*="fill:"] { fill-opacity:0.95!important; filter:saturate(1.2)!important; } }</style>

 <metadata>
  <rdf:RDF xmlns:dc="http://purl.org/dc/elements/1.1/" xmlns:cc="http://creativecommons.org/ns#" xmlns:rdf="http://www.w3.org/1999/02/22-rdf-syntax-ns#">
   <cc:Work>
    <dc:type rdf:resource="http://purl.org/dc/dcmitype/StillImage"/>
    <dc:date>2026-05-06T23:46:23.410787</dc:date>
    <dc:format>image/svg+xml</dc:format>
    <dc:creator>
     <cc:Agent>
      <dc:title>Matplotlib v3.10.1, https://matplotlib.org/</dc:title>
     </cc:Agent>
    </dc:creator>
   </cc:Work>
  </rdf:RDF>
 </metadata>
 <defs>
  <style type="text/css">*{stroke-linejoin: round; stroke-linecap: butt}</style>
 </defs>
 <g id="figure_1">
  <g class="patch">
   <path d="M 0 225.084437 
L 349.5 225.084437 
L 349.5 0 
L 0 0 
L 0 225.084437 
z
" style="fill: none"/>
  </g>
  <g id="axes_1">
   <g class="patch">
    <path d="M 39 192.096 
L 345.9 192.096 
L 345.9 3.6 
L 39 3.6 
L 39 192.096 
z
" style="fill: none"/>
   </g>
   <g class="axis">
    <g class="tick xtick">
     <g id="line2d_1">
      <path d="M 52.95 192.096 
L 52.95 3.6 
" clip-path="url(#p0f9600ebf4)" style="fill: none; stroke: #b0b0b0; stroke-opacity: 0.15; stroke-width: 0.5; stroke-linecap: square"/>
     </g>
     <g id="line2d_2">
      <defs>
       <path id="md177ff262b" d="M 0 0 
L 0 3.5 
" style="stroke:var(--black); stroke-width: 0.8"/>
      </defs>
      <g>
       <use xlink:href="#md177ff262b" x="52.95" y="192.096" style="stroke:var(--black); stroke-width: 0.8"/>
      </g>
     </g>
     <g id="text_1" class="text">
      <!-- $\mathdefault{−2}$ -->
      <g transform="translate(46.29 205.934594) scale(0.09 -0.09)">
       <defs>
        <path id="DejaVuSerif-2212" d="M 678 2259 
L 4684 2259 
L 4684 1753 
L 678 1753 
L 678 2259 
z
" transform="scale(0.015625)"/>
        <path id="DejaVuSerif-32" d="M 819 3553 
L 469 3553 
L 469 4384 
Q 803 4563 1142 4656 
Q 1481 4750 1806 4750 
Q 2534 4750 2956 4397 
Q 3378 4044 3378 3438 
Q 3378 2753 2422 1800 
Q 2347 1728 2309 1691 
L 1131 513 
L 3078 513 
L 3078 1088 
L 3444 1088 
L 3444 0 
L 434 0 
L 434 341 
L 1850 1753 
Q 2319 2222 2519 2614 
Q 2719 3006 2719 3438 
Q 2719 3909 2473 4175 
Q 2228 4441 1797 4441 
Q 1350 4441 1106 4219 
Q 863 3997 819 3553 
z
" transform="scale(0.015625)"/>
       </defs>
       <use xlink:href="#DejaVuSerif-2212" transform="translate(0 0.78125)"/>
       <use xlink:href="#DejaVuSerif-32" transform="translate(83.789062 0.78125)"/>
      </g>
     </g>
    </g>
    <g class="tick xtick">
     <g id="line2d_3">
      <path d="M 99.45 192.096 
L 99.45 3.6 
" clip-path="url(#p0f9600ebf4)" style="fill: none; stroke: #b0b0b0; stroke-opacity: 0.15; stroke-width: 0.5; stroke-linecap: square"/>
     </g>
     <g id="line2d_4">
      <g>
       <use xlink:href="#md177ff262b" x="99.45" y="192.096" style="stroke:var(--black); stroke-width: 0.8"/>
      </g>
     </g>
     <g id="text_2" class="text">
      <!-- $\mathdefault{−1}$ -->
      <g transform="translate(92.79 205.934594) scale(0.09 -0.09)">
       <defs>
        <path id="DejaVuSerif-31" d="M 909 0 
L 909 331 
L 1722 331 
L 1722 4213 
L 781 3603 
L 781 4013 
L 1919 4750 
L 2350 4750 
L 2350 331 
L 3163 331 
L 3163 0 
L 909 0 
z
" transform="scale(0.015625)"/>
       </defs>
       <use xlink:href="#DejaVuSerif-2212" transform="translate(0 0.78125)"/>
       <use xlink:href="#DejaVuSerif-31" transform="translate(83.789062 0.78125)"/>
      </g>
     </g>
    </g>
    <g class="tick xtick">
     <g id="line2d_5">
      <path d="M 145.95 192.096 
L 145.95 3.6 
" clip-path="url(#p0f9600ebf4)" style="fill: none; stroke: #b0b0b0; stroke-opacity: 0.15; stroke-width: 0.5; stroke-linecap: square"/>
     </g>
     <g id="line2d_6">
      <g>
       <use xlink:href="#md177ff262b" x="145.95" y="192.096" style="stroke:var(--black); stroke-width: 0.8"/>
      </g>
     </g>
     <g id="text_3" class="text">
      <!-- $\mathdefault{0}$ -->
      <g transform="translate(143.07 205.934594) scale(0.09 -0.09)">
       <defs>
        <path id="DejaVuSerif-30" d="M 2034 219 
Q 2513 219 2750 744 
Q 2988 1269 2988 2328 
Q 2988 3391 2750 3916 
Q 2513 4441 2034 4441 
Q 1556 4441 1318 3916 
Q 1081 3391 1081 2328 
Q 1081 1269 1318 744 
Q 1556 219 2034 219 
z
M 2034 -91 
Q 1275 -91 848 546 
Q 422 1184 422 2328 
Q 422 3475 848 4112 
Q 1275 4750 2034 4750 
Q 2797 4750 3222 4112 
Q 3647 3475 3647 2328 
Q 3647 1184 3222 546 
Q 2797 -91 2034 -91 
z
" transform="scale(0.015625)"/>
       </defs>
       <use xlink:href="#DejaVuSerif-30" transform="translate(0 0.78125)"/>
      </g>
     </g>
    </g>
    <g class="tick xtick">
     <g id="line2d_7">
      <path d="M 192.45 192.096 
L 192.45 3.6 
" clip-path="url(#p0f9600ebf4)" style="fill: none; stroke: #b0b0b0; stroke-opacity: 0.15; stroke-width: 0.5; stroke-linecap: square"/>
     </g>
     <g id="line2d_8">
      <g>
       <use xlink:href="#md177ff262b" x="192.45" y="192.096" style="stroke:var(--black); stroke-width: 0.8"/>
      </g>
     </g>
     <g id="text_4" class="text">
      <!-- $\mathdefault{1}$ -->
      <g transform="translate(189.57 205.934594) scale(0.09 -0.09)">
       <use xlink:href="#DejaVuSerif-31" transform="translate(0 0.78125)"/>
      </g>
     </g>
    </g>
    <g class="tick xtick">
     <g id="line2d_9">
      <path d="M 238.95 192.096 
L 238.95 3.6 
" clip-path="url(#p0f9600ebf4)" style="fill: none; stroke: #b0b0b0; stroke-opacity: 0.15; stroke-width: 0.5; stroke-linecap: square"/>
     </g>
     <g id="line2d_10">
      <g>
       <use xlink:href="#md177ff262b" x="238.95" y="192.096" style="stroke:var(--black); stroke-width: 0.8"/>
      </g>
     </g>
     <g id="text_5" class="text">
      <!-- $\mathdefault{2}$ -->
      <g transform="translate(236.07 205.934594) scale(0.09 -0.09)">
       <use xlink:href="#DejaVuSerif-32" transform="translate(0 0.78125)"/>
      </g>
     </g>
    </g>
    <g class="tick xtick">
     <g id="line2d_11">
      <path d="M 285.45 192.096 
L 285.45 3.6 
" clip-path="url(#p0f9600ebf4)" style="fill: none; stroke: #b0b0b0; stroke-opacity: 0.15; stroke-width: 0.5; stroke-linecap: square"/>
     </g>
     <g id="line2d_12">
      <g>
       <use xlink:href="#md177ff262b" x="285.45" y="192.096" style="stroke:var(--black); stroke-width: 0.8"/>
      </g>
     </g>
     <g id="text_6" class="text">
      <!-- $\mathdefault{3}$ -->
      <g transform="translate(282.57 205.934594) scale(0.09 -0.09)">
       <defs>
        <path id="DejaVuSerif-33" d="M 622 4469 
Q 988 4606 1323 4678 
Q 1659 4750 1953 4750 
Q 2638 4750 3022 4454 
Q 3406 4159 3406 3634 
Q 3406 3213 3140 2930 
Q 2875 2647 2388 2547 
Q 2963 2466 3280 2130 
Q 3597 1794 3597 1259 
Q 3597 606 3158 257 
Q 2719 -91 1894 -91 
Q 1528 -91 1179 -12 
Q 831 66 488 225 
L 488 1131 
L 838 1131 
Q 869 681 1141 450 
Q 1413 219 1906 219 
Q 2384 219 2661 495 
Q 2938 772 2938 1253 
Q 2938 1803 2653 2086 
Q 2369 2369 1819 2369 
L 1522 2369 
L 1522 2688 
L 1678 2688 
Q 2225 2688 2498 2914 
Q 2772 3141 2772 3597 
Q 2772 4006 2547 4223 
Q 2322 4441 1900 4441 
Q 1478 4441 1245 4241 
Q 1013 4041 972 3647 
L 622 3647 
L 622 4469 
z
" transform="scale(0.015625)"/>
       </defs>
       <use xlink:href="#DejaVuSerif-33" transform="translate(0 0.78125)"/>
      </g>
     </g>
    </g>
    <g class="tick xtick">
     <g id="line2d_13">
      <path d="M 331.95 192.096 
L 331.95 3.6 
" clip-path="url(#p0f9600ebf4)" style="fill: none; stroke: #b0b0b0; stroke-opacity: 0.15; stroke-width: 0.5; stroke-linecap: square"/>
     </g>
     <g id="line2d_14">
      <g>
       <use xlink:href="#md177ff262b" x="331.95" y="192.096" style="stroke:var(--black); stroke-width: 0.8"/>
      </g>
     </g>
     <g id="text_7" class="text">
      <!-- $\mathdefault{4}$ -->
      <g transform="translate(329.07 205.934594) scale(0.09 -0.09)">
       <defs>
        <path id="DejaVuSerif-34" d="M 2234 1581 
L 2234 4063 
L 641 1581 
L 2234 1581 
z
M 3609 0 
L 1484 0 
L 1484 331 
L 2234 331 
L 2234 1247 
L 197 1247 
L 197 1588 
L 2241 4750 
L 2859 4750 
L 2859 1581 
L 3750 1581 
L 3750 1247 
L 2859 1247 
L 2859 331 
L 3609 331 
L 3609 0 
z
" transform="scale(0.015625)"/>
       </defs>
       <use xlink:href="#DejaVuSerif-34" transform="translate(0 0.78125)"/>
      </g>
     </g>
    </g>
    <g id="text_8" class="text">
     <!-- $x$ -->
     <g transform="translate(189.55 219.40475) scale(0.1 -0.1)">
      <defs>
       <path id="Cmmi10-78" d="M 500 184 
Q 613 97 819 97 
Q 1019 97 1172 289 
Q 1325 481 1381 709 
L 1672 1844 
Q 1741 2153 1741 2266 
Q 1741 2425 1652 2544 
Q 1563 2663 1403 2663 
Q 1200 2663 1022 2536 
Q 844 2409 722 2214 
Q 600 2019 550 1819 
Q 538 1778 500 1778 
L 422 1778 
Q 372 1778 372 1838 
L 372 1856 
Q 434 2094 584 2320 
Q 734 2547 951 2687 
Q 1169 2828 1416 2828 
Q 1650 2828 1839 2703 
Q 2028 2578 2106 2363 
Q 2216 2559 2386 2693 
Q 2556 2828 2759 2828 
Q 2897 2828 3040 2779 
Q 3184 2731 3275 2631 
Q 3366 2531 3366 2381 
Q 3366 2219 3261 2101 
Q 3156 1984 2994 1984 
Q 2891 1984 2822 2050 
Q 2753 2116 2753 2216 
Q 2753 2350 2845 2451 
Q 2938 2553 3066 2572 
Q 2950 2663 2747 2663 
Q 2541 2663 2389 2472 
Q 2238 2281 2175 2047 
L 1894 916 
Q 1825 659 1825 494 
Q 1825 331 1917 214 
Q 2009 97 2163 97 
Q 2463 97 2698 361 
Q 2934 625 3009 941 
Q 3022 978 3059 978 
L 3138 978 
Q 3163 978 3178 961 
Q 3194 944 3194 922 
Q 3194 916 3188 903 
Q 3097 522 2806 225 
Q 2516 -72 2150 -72 
Q 1916 -72 1727 54 
Q 1538 181 1459 397 
Q 1359 209 1182 68 
Q 1006 -72 806 -72 
Q 669 -72 523 -23 
Q 378 25 287 125 
Q 197 225 197 378 
Q 197 528 301 651 
Q 406 775 563 775 
Q 669 775 741 711 
Q 813 647 813 544 
Q 813 409 723 309 
Q 634 209 500 184 
z
" transform="scale(0.015625)"/>
      </defs>
      <use xlink:href="#Cmmi10-78" transform="translate(0 0.8125)"/>
     </g>
    </g>
   </g>
   <g class="axis">
    <g class="tick ytick">
     <g id="line2d_15">
      <path d="M 39 167.296832 
L 345.9 167.296832 
" clip-path="url(#p0f9600ebf4)" style="fill: none; stroke: #b0b0b0; stroke-opacity: 0.15; stroke-width: 0.5; stroke-linecap: square"/>
     </g>
     <g id="line2d_16">
      <defs>
       <path id="mdd5161ec4b" d="M 0 0 
L -3.5 0 
" style="stroke:var(--black); stroke-width: 0.8"/>
      </defs>
      <g>
       <use xlink:href="#mdd5161ec4b" x="39" y="167.296832" style="stroke:var(--black); stroke-width: 0.8"/>
      </g>
     </g>
     <g id="text_9" class="text">
      <!-- $\mathdefault{0.5}$ -->
      <g transform="translate(17.6 170.716129) scale(0.09 -0.09)">
       <defs>
        <path id="DejaVuSerif-2e" d="M 603 325 
Q 603 500 722 622 
Q 841 744 1019 744 
Q 1191 744 1312 622 
Q 1434 500 1434 325 
Q 1434 153 1312 31 
Q 1191 -91 1019 -91 
Q 841 -91 722 29 
Q 603 150 603 325 
z
" transform="scale(0.015625)"/>
        <path id="DejaVuSerif-35" d="M 3219 4666 
L 3219 4153 
L 1081 4153 
L 1081 2816 
Q 1244 2928 1461 2984 
Q 1678 3041 1947 3041 
Q 2703 3041 3140 2622 
Q 3578 2203 3578 1478 
Q 3578 738 3136 323 
Q 2694 -91 1894 -91 
Q 1572 -91 1234 -12 
Q 897 66 544 225 
L 544 1131 
L 897 1131 
Q 925 688 1179 453 
Q 1434 219 1894 219 
Q 2388 219 2653 544 
Q 2919 869 2919 1478 
Q 2919 2084 2655 2407 
Q 2391 2731 1894 2731 
Q 1613 2731 1398 2631 
Q 1184 2531 1019 2322 
L 750 2322 
L 750 4666 
L 3219 4666 
z
" transform="scale(0.015625)"/>
       </defs>
       <use xlink:href="#DejaVuSerif-30" transform="translate(0 0.78125)"/>
       <use xlink:href="#DejaVuSerif-2e" transform="translate(63.623047 0.78125)"/>
       <use xlink:href="#DejaVuSerif-35" transform="translate(95.410156 0.78125)"/>
      </g>
     </g>
    </g>
    <g class="tick ytick">
     <g id="line2d_17">
      <path d="M 39 142.494282 
L 345.9 142.494282 
" clip-path="url(#p0f9600ebf4)" style="fill: none; stroke: #b0b0b0; stroke-opacity: 0.15; stroke-width: 0.5; stroke-linecap: square"/>
     </g>
     <g id="line2d_18">
      <g>
       <use xlink:href="#mdd5161ec4b" x="39" y="142.494282" style="stroke:var(--black); stroke-width: 0.8"/>
      </g>
     </g>
     <g id="text_10" class="text">
      <!-- $\mathdefault{1.0}$ -->
      <g transform="translate(17.6 145.913578) scale(0.09 -0.09)">
       <use xlink:href="#DejaVuSerif-31" transform="translate(0 0.78125)"/>
       <use xlink:href="#DejaVuSerif-2e" transform="translate(63.623047 0.78125)"/>
       <use xlink:href="#DejaVuSerif-30" transform="translate(95.410156 0.78125)"/>
      </g>
     </g>
    </g>
    <g class="tick ytick">
     <g id="line2d_19">
      <path d="M 39 117.691731 
L 345.9 117.691731 
" clip-path="url(#p0f9600ebf4)" style="fill: none; stroke: #b0b0b0; stroke-opacity: 0.15; stroke-width: 0.5; stroke-linecap: square"/>
     </g>
     <g id="line2d_20">
      <g>
       <use xlink:href="#mdd5161ec4b" x="39" y="117.691731" style="stroke:var(--black); stroke-width: 0.8"/>
      </g>
     </g>
     <g id="text_11" class="text">
      <!-- $\mathdefault{1.5}$ -->
      <g transform="translate(17.6 121.111028) scale(0.09 -0.09)">
       <use xlink:href="#DejaVuSerif-31" transform="translate(0 0.78125)"/>
       <use xlink:href="#DejaVuSerif-2e" transform="translate(63.623047 0.78125)"/>
       <use xlink:href="#DejaVuSerif-35" transform="translate(95.410156 0.78125)"/>
      </g>
     </g>
    </g>
    <g class="tick ytick">
     <g id="line2d_21">
      <path d="M 39 92.889181 
L 345.9 92.889181 
" clip-path="url(#p0f9600ebf4)" style="fill: none; stroke: #b0b0b0; stroke-opacity: 0.15; stroke-width: 0.5; stroke-linecap: square"/>
     </g>
     <g id="line2d_22">
      <g>
       <use xlink:href="#mdd5161ec4b" x="39" y="92.889181" style="stroke:var(--black); stroke-width: 0.8"/>
      </g>
     </g>
     <g id="text_12" class="text">
      <!-- $\mathdefault{2.0}$ -->
      <g transform="translate(17.6 96.308478) scale(0.09 -0.09)">
       <use xlink:href="#DejaVuSerif-32" transform="translate(0 0.78125)"/>
       <use xlink:href="#DejaVuSerif-2e" transform="translate(63.623047 0.78125)"/>
       <use xlink:href="#DejaVuSerif-30" transform="translate(95.410156 0.78125)"/>
      </g>
     </g>
    </g>
    <g class="tick ytick">
     <g id="line2d_23">
      <path d="M 39 68.086631 
L 345.9 68.086631 
" clip-path="url(#p0f9600ebf4)" style="fill: none; stroke: #b0b0b0; stroke-opacity: 0.15; stroke-width: 0.5; stroke-linecap: square"/>
     </g>
     <g id="line2d_24">
      <g>
       <use xlink:href="#mdd5161ec4b" x="39" y="68.086631" style="stroke:var(--black); stroke-width: 0.8"/>
      </g>
     </g>
     <g id="text_13" class="text">
      <!-- $\mathdefault{2.5}$ -->
      <g transform="translate(17.6 71.505928) scale(0.09 -0.09)">
       <use xlink:href="#DejaVuSerif-32" transform="translate(0 0.78125)"/>
       <use xlink:href="#DejaVuSerif-2e" transform="translate(63.623047 0.78125)"/>
       <use xlink:href="#DejaVuSerif-35" transform="translate(95.410156 0.78125)"/>
      </g>
     </g>
    </g>
    <g class="tick ytick">
     <g id="line2d_25">
      <path d="M 39 43.28408 
L 345.9 43.28408 
" clip-path="url(#p0f9600ebf4)" style="fill: none; stroke: #b0b0b0; stroke-opacity: 0.15; stroke-width: 0.5; stroke-linecap: square"/>
     </g>
     <g id="line2d_26">
      <g>
       <use xlink:href="#mdd5161ec4b" x="39" y="43.28408" style="stroke:var(--black); stroke-width: 0.8"/>
      </g>
     </g>
     <g id="text_14" class="text">
      <!-- $\mathdefault{3.0}$ -->
      <g transform="translate(17.6 46.703377) scale(0.09 -0.09)">
       <use xlink:href="#DejaVuSerif-33" transform="translate(0 0.78125)"/>
       <use xlink:href="#DejaVuSerif-2e" transform="translate(63.623047 0.78125)"/>
       <use xlink:href="#DejaVuSerif-30" transform="translate(95.410156 0.78125)"/>
      </g>
     </g>
    </g>
    <g class="tick ytick">
     <g id="line2d_27">
      <path d="M 39 18.48153 
L 345.9 18.48153 
" clip-path="url(#p0f9600ebf4)" style="fill: none; stroke: #b0b0b0; stroke-opacity: 0.15; stroke-width: 0.5; stroke-linecap: square"/>
     </g>
     <g id="line2d_28">
      <g>
       <use xlink:href="#mdd5161ec4b" x="39" y="18.48153" style="stroke:var(--black); stroke-width: 0.8"/>
      </g>
     </g>
     <g id="text_15" class="text">
      <!-- $\mathdefault{3.5}$ -->
      <g transform="translate(17.6 21.900827) scale(0.09 -0.09)">
       <use xlink:href="#DejaVuSerif-33" transform="translate(0 0.78125)"/>
       <use xlink:href="#DejaVuSerif-2e" transform="translate(63.623047 0.78125)"/>
       <use xlink:href="#DejaVuSerif-35" transform="translate(95.410156 0.78125)"/>
      </g>
     </g>
    </g>
    <g id="text_16" class="text">
     <!-- $f(x)$ -->
     <g transform="translate(11.1 107.048) rotate(-90) scale(0.1 -0.1)">
      <defs>
       <path id="Cmmi10-66" d="M 622 -1056 
Q 741 -1147 909 -1147 
Q 1138 -1147 1281 -641 
Q 1341 -397 1606 966 
L 1900 2534 
L 1350 2534 
Q 1288 2534 1288 2619 
Q 1313 2759 1369 2759 
L 1941 2759 
L 2016 3175 
Q 2053 3369 2084 3508 
Q 2116 3647 2152 3765 
Q 2188 3884 2259 4031 
Q 2369 4241 2555 4377 
Q 2741 4513 2956 4513 
Q 3097 4513 3230 4461 
Q 3363 4409 3447 4306 
Q 3531 4203 3531 4063 
Q 3531 3900 3423 3779 
Q 3316 3659 3163 3659 
Q 3059 3659 2986 3723 
Q 2913 3788 2913 3891 
Q 2913 4031 3008 4136 
Q 3103 4241 3244 4256 
Q 3125 4347 2950 4347 
Q 2853 4347 2767 4256 
Q 2681 4166 2656 4063 
Q 2616 3900 2478 3181 
L 2400 2759 
L 3059 2759 
Q 3122 2759 3122 2675 
Q 3119 2659 3109 2620 
Q 3100 2581 3083 2557 
Q 3066 2534 3041 2534 
L 2356 2534 
L 2059 972 
Q 2003 631 1929 279 
Q 1856 -72 1723 -442 
Q 1591 -813 1384 -1063 
Q 1178 -1313 897 -1313 
Q 681 -1313 511 -1189 
Q 341 -1066 341 -863 
Q 341 -700 445 -579 
Q 550 -459 709 -459 
Q 816 -459 887 -523 
Q 959 -588 959 -691 
Q 959 -828 857 -942 
Q 756 -1056 622 -1056 
z
" transform="scale(0.015625)"/>
       <path id="Cmr10-28" d="M 1984 -1588 
Q 1628 -1306 1370 -942 
Q 1113 -578 948 -165 
Q 784 247 703 697 
Q 622 1147 622 1600 
Q 622 2059 703 2509 
Q 784 2959 951 3375 
Q 1119 3791 1378 4153 
Q 1638 4516 1984 4788 
Q 1984 4800 2016 4800 
L 2075 4800 
Q 2094 4800 2109 4783 
Q 2125 4766 2125 4744 
Q 2125 4716 2113 4703 
Q 1800 4397 1592 4047 
Q 1384 3697 1257 3301 
Q 1131 2906 1075 2482 
Q 1019 2059 1019 1600 
Q 1019 -434 2106 -1491 
Q 2125 -1509 2125 -1544 
Q 2125 -1559 2108 -1579 
Q 2091 -1600 2075 -1600 
L 2016 -1600 
Q 1984 -1600 1984 -1588 
z
" transform="scale(0.015625)"/>
       <path id="Cmr10-29" d="M 416 -1600 
Q 359 -1600 359 -1544 
Q 359 -1516 372 -1503 
Q 1466 -434 1466 1600 
Q 1466 3634 384 4691 
Q 359 4706 359 4744 
Q 359 4766 376 4783 
Q 394 4800 416 4800 
L 475 4800 
Q 494 4800 506 4788 
Q 966 4425 1272 3906 
Q 1578 3388 1720 2800 
Q 1863 2213 1863 1600 
Q 1863 1147 1786 708 
Q 1709 269 1542 -157 
Q 1375 -584 1119 -945 
Q 863 -1306 506 -1588 
Q 494 -1600 475 -1600 
L 416 -1600 
z
" transform="scale(0.015625)"/>
      </defs>
      <use xlink:href="#Cmmi10-66"/>
      <use xlink:href="#Cmr10-28" transform="translate(48.876953 0)"/>
      <use xlink:href="#Cmmi10-78" transform="translate(87.695312 0)"/>
      <use xlink:href="#Cmr10-29" transform="translate(144.775391 0)"/>
     </g>
    </g>
   </g>
   <g id="LineCollection_1">
    <path d="M 145.95 226.084437 
L 145.95 152.415302 
" clip-path="url(#p0f9600ebf4)" style="fill: none; stroke-dasharray: 2,3.3; stroke-dashoffset: 0; stroke:var(--c8); stroke-width: 2"/>
   </g>
   <g id="LineCollection_2">
    <path d="M 262.2 226.084437 
L 262.2 133.813389 
" clip-path="url(#p0f9600ebf4)" style="fill: none; stroke-dasharray: 2,3.3; stroke-dashoffset: 0; stroke:var(--c8); stroke-width: 2"/>
   </g>
   <g id="line2d_29">
    <path d="M 145.95 152.415302 
L 147.124242 152.227404 
L 148.298485 152.039505 
L 149.472727 151.851607 
L 150.64697 151.663709 
L 151.821212 151.475811 
L 152.995455 151.287913 
L 154.169697 151.100015 
L 155.343939 150.912117 
L 156.518182 150.724219 
L 157.692424 150.536321 
L 158.866667 150.348422 
L 160.040909 150.160524 
L 161.215152 149.972626 
L 162.389394 149.784728 
L 163.563636 149.59683 
L 164.737879 149.408932 
L 165.912121 149.221034 
L 167.086364 149.033136 
L 168.260606 148.845238 
L 169.434848 148.657339 
L 170.609091 148.469441 
L 171.783333 148.281543 
L 172.957576 148.093645 
L 174.131818 147.905747 
L 175.306061 147.717849 
L 176.480303 147.529951 
L 177.654545 147.342053 
L 178.828788 147.154155 
L 180.00303 146.966257 
L 181.177273 146.778358 
L 182.351515 146.59046 
L 183.525758 146.402562 
L 184.7 146.214664 
L 185.874242 146.026766 
L 187.048485 145.838868 
L 188.222727 145.65097 
L 189.39697 145.463072 
L 190.571212 145.275174 
L 191.745455 145.087275 
L 192.919697 144.899377 
L 194.093939 144.711479 
L 195.268182 144.523581 
L 196.442424 144.335683 
L 197.616667 144.147785 
L 198.790909 143.959887 
L 199.965152 143.771989 
L 201.139394 143.584091 
L 202.313636 143.396192 
L 203.487879 143.208294 
L 204.662121 143.020396 
L 205.836364 142.832498 
L 207.010606 142.6446 
L 208.184848 142.456702 
L 209.359091 142.268804 
L 210.533333 142.080906 
L 211.707576 141.893008 
L 212.881818 141.705109 
L 214.056061 141.517211 
L 215.230303 141.329313 
L 216.404545 141.141415 
L 217.578788 140.953517 
L 218.75303 140.765619 
L 219.927273 140.577721 
L 221.101515 140.389823 
L 222.275758 140.201925 
L 223.45 140.014027 
L 224.624242 139.826128 
L 225.798485 139.63823 
L 226.972727 139.450332 
L 228.14697 139.262434 
L 229.321212 139.074536 
L 230.495455 138.886638 
L 231.669697 138.69874 
L 232.843939 138.510842 
L 234.018182 138.322944 
L 235.192424 138.135045 
L 236.366667 137.947147 
L 237.540909 137.759249 
L 238.715152 137.571351 
L 239.889394 137.383453 
L 241.063636 137.195555 
L 242.237879 137.007657 
L 243.412121 136.819759 
L 244.586364 136.631861 
L 245.760606 136.443962 
L 246.934848 136.256064 
L 248.109091 136.068166 
L 249.283333 135.880268 
L 250.457576 135.69237 
L 251.631818 135.504472 
L 252.806061 135.316574 
L 253.980303 135.128676 
L 255.154545 134.940778 
L 256.328788 134.752879 
L 257.50303 134.564981 
L 258.677273 134.377083 
L 259.851515 134.189185 
L 261.025758 134.001287 
L 262.2 133.813389 
" clip-path="url(#p0f9600ebf4)" style="fill: none; stroke-dasharray: 7.4,3.2; stroke-dashoffset: 0; stroke:var(--c8); stroke-opacity: 0.7; stroke-width: 2"/>
   </g>
   <g class="patch">
    <path d="M 39 192.096 
L 39 3.6 
" style="fill: none; stroke:var(--black); stroke-width: 0.8; stroke-linejoin: miter; stroke-linecap: square"/>
   </g>
   <g class="patch">
    <path d="M 39 192.096 
L 345.9 192.096 
" style="fill: none; stroke:var(--black); stroke-width: 0.8; stroke-linejoin: miter; stroke-linecap: square"/>
   </g>
   <g id="line2d_30">
    <path d="M 52.95 33.36306 
L 58.55804 43.915152 
L 64.16608 54.034337 
L 69.774121 63.720615 
L 75.382161 72.973988 
L 80.990201 81.794454 
L 86.598241 90.182013 
L 92.206281 98.136667 
L 97.814322 105.658414 
L 103.422362 112.747255 
L 109.030402 119.403189 
L 114.638442 125.626217 
L 118.844472 130.009394 
L 123.050503 134.14906 
L 127.256533 138.045217 
L 131.462563 141.697864 
L 135.668593 145.107001 
L 139.874623 148.272629 
L 144.080653 151.194746 
L 148.286683 153.873354 
L 152.492714 156.308452 
L 156.698744 158.50004 
L 160.904774 160.448119 
L 165.110804 162.152687 
L 169.316834 163.613746 
L 173.522864 164.831295 
L 177.728894 165.805334 
L 181.934925 166.535864 
L 186.140955 167.022883 
L 190.346985 167.266393 
L 194.553015 167.266393 
L 198.759045 167.022883 
L 202.965075 166.535864 
L 207.171106 165.805334 
L 211.377136 164.831295 
L 215.583166 163.613746 
L 219.789196 162.152687 
L 223.995226 160.448119 
L 228.201256 158.50004 
L 232.407286 156.308452 
L 236.613317 153.873354 
L 240.819347 151.194746 
L 245.025377 148.272629 
L 249.231407 145.107001 
L 253.437437 141.697864 
L 257.643467 138.045217 
L 261.849497 134.14906 
L 266.055528 130.009394 
L 270.261558 125.626217 
L 275.869598 119.403189 
L 281.477638 112.747255 
L 287.085678 105.658414 
L 292.693719 98.136667 
L 298.301759 90.182013 
L 303.909799 81.794454 
L 309.517839 72.973988 
L 315.125879 63.720615 
L 320.73392 54.034337 
L 326.34196 43.915152 
L 331.95 33.36306 
L 331.95 33.36306 
" clip-path="url(#p0f9600ebf4)" style="fill: none; stroke:var(--c8); stroke-width: 2.5; stroke-linecap: square"/>
   </g>
   <g id="text_17" class="text">
    <!-- $f(x_1)$ -->
    <g transform="translate(133.575 142.224537) scale(0.11 -0.11)">
     <defs>
      <path id="Cmr10-31" d="M 594 0 
L 594 225 
Q 1394 225 1394 428 
L 1394 3788 
Q 1063 3628 556 3628 
L 556 3853 
Q 1341 3853 1741 4263 
L 1831 4263 
Q 1853 4263 1873 4245 
Q 1894 4228 1894 4206 
L 1894 428 
Q 1894 225 2694 225 
L 2694 0 
L 594 0 
z
" transform="scale(0.015625)"/>
     </defs>
     <use xlink:href="#Cmmi10-66"/>
     <use xlink:href="#Cmr10-28" transform="translate(48.876953 0)"/>
     <use xlink:href="#Cmmi10-78" transform="translate(87.695312 0)"/>
     <use xlink:href="#Cmr10-31" transform="translate(144.775391 -17.00625) scale(0.7)"/>
     <use xlink:href="#Cmr10-29" transform="translate(186.152734 0)"/>
    </g>
   </g>
   <g id="text_18" class="text">
    <!-- $f(x_2)$ -->
    <g transform="translate(249.825 123.622624) scale(0.11 -0.11)">
     <defs>
      <path id="Cmr10-32" d="M 319 0 
L 319 172 
Q 319 188 331 206 
L 1325 1306 
Q 1550 1550 1690 1715 
Q 1831 1881 1968 2097 
Q 2106 2313 2186 2536 
Q 2266 2759 2266 3009 
Q 2266 3272 2169 3511 
Q 2072 3750 1880 3894 
Q 1688 4038 1416 4038 
Q 1138 4038 916 3870 
Q 694 3703 603 3438 
Q 628 3444 672 3444 
Q 816 3444 917 3347 
Q 1019 3250 1019 3097 
Q 1019 2950 917 2848 
Q 816 2747 672 2747 
Q 522 2747 420 2851 
Q 319 2956 319 3097 
Q 319 3338 409 3548 
Q 500 3759 670 3923 
Q 841 4088 1055 4175 
Q 1269 4263 1509 4263 
Q 1875 4263 2190 4108 
Q 2506 3953 2690 3670 
Q 2875 3388 2875 3009 
Q 2875 2731 2753 2481 
Q 2631 2231 2440 2026 
Q 2250 1822 1953 1562 
Q 1656 1303 1563 1216 
L 838 519 
L 1453 519 
Q 1906 519 2211 526 
Q 2516 534 2534 550 
Q 2609 631 2688 1141 
L 2875 1141 
L 2694 0 
L 319 0 
z
" transform="scale(0.015625)"/>
     </defs>
     <use xlink:href="#Cmmi10-66"/>
     <use xlink:href="#Cmr10-28" transform="translate(48.876953 0)"/>
     <use xlink:href="#Cmmi10-78" transform="translate(87.695312 0)"/>
     <use xlink:href="#Cmr10-32" transform="translate(144.775391 -17.00625) scale(0.7)"/>
     <use xlink:href="#Cmr10-29" transform="translate(186.152734 0)"/>
    </g>
   </g>
   <g id="text_19" class="text">
    <!-- $x_1$ -->
    <g transform="translate(135.06 215.339193) scale(0.11 -0.11)">
     <use xlink:href="#Cmmi10-78" transform="translate(0 0.8125)"/>
     <use xlink:href="#Cmr10-31" transform="translate(57.080078 -16.19375) scale(0.7)"/>
    </g>
   </g>
   <g id="text_20" class="text">
    <!-- $x_2$ -->
    <g transform="translate(262.2 215.339193) scale(0.11 -0.11)">
     <use xlink:href="#Cmmi10-78" transform="translate(0 0.8125)"/>
     <use xlink:href="#Cmr10-32" transform="translate(57.080078 -16.19375) scale(0.7)"/>
    </g>
   </g>
   <g id="PathCollection_1">
    <defs>
     <path id="m5d8e069197" d="M 0 4.472136 
C 1.186024 4.472136 2.323632 4.000923 3.162278 3.162278 
C 4.000923 2.323632 4.472136 1.186024 4.472136 0 
C 4.472136 -1.186024 4.000923 -2.323632 3.162278 -3.162278 
C 2.323632 -4.000923 1.186024 -4.472136 0 -4.472136 
C -1.186024 -4.472136 -2.323632 -4.000923 -3.162278 -3.162278 
C -4.000923 -2.323632 -4.472136 -1.186024 -4.472136 0 
C -4.472136 1.186024 -4.000923 2.323632 -3.162278 3.162278 
C -2.323632 4.000923 -1.186024 4.472136 0 4.472136 
z
" style="stroke:var(--white); stroke-width: 1.5"/>
    </defs>
    <g clip-path="url(#p0f9600ebf4)">
     <use xlink:href="#m5d8e069197" x="145.95" y="152.415302" style="fill:var(--c8); stroke:var(--white); stroke-width: 1.5"/>
    </g>
   </g>
   <g id="PathCollection_2">
    <g clip-path="url(#p0f9600ebf4)">
     <use xlink:href="#m5d8e069197" x="262.2" y="133.813389" style="fill:var(--c8); stroke:var(--white); stroke-width: 1.5"/>
    </g>
   </g>
   <g class="legend">
    <g class="patch">
     <path d="M 228 37.977187 
L 339.6 37.977187 
Q 341.4 37.977187 341.4 36.177187 
L 341.4 9.9 
Q 341.4 8.1 339.6 8.1 
L 228 8.1 
Q 226.2 8.1 226.2 9.9 
L 226.2 36.177187 
Q 226.2 37.977187 228 37.977187 
L 228 37.977187 
z
" style="fill: none; opacity: 0.9; stroke: #cccccc; stroke-linejoin: miter"/>
    </g>
    <g id="line2d_31">
     <path d="M 229.8 15.388594 
L 238.8 15.388594 
L 247.8 15.388594 
" style="fill: none; stroke:var(--c8); stroke-width: 2.5; stroke-linecap: square"/>
    </g>
    <g id="text_21" class="text">
     <!-- $f(x)$ -->
     <g transform="translate(255 18.538594) scale(0.09 -0.09)">
      <use xlink:href="#Cmmi10-66"/>
      <use xlink:href="#Cmr10-28" transform="translate(48.876953 0)"/>
      <use xlink:href="#Cmmi10-78" transform="translate(87.695312 0)"/>
      <use xlink:href="#Cmr10-29" transform="translate(144.775391 0)"/>
     </g>
    </g>
    <g id="line2d_32">
     <path d="M 229.8 28.977187 
L 238.8 28.977187 
L 247.8 28.977187 
" style="fill: none; stroke-dasharray: 7.4,3.2; stroke-dashoffset: 0; stroke:var(--c8); stroke-opacity: 0.7; stroke-width: 2"/>
    </g>
    <g id="text_22" class="text">
     <!-- $\lambda f(x_1) + (1-\lambda)f(x_2)$ -->
     <g transform="translate(255 32.127187) scale(0.09 -0.09)">
      <defs>
       <path id="Cmmi10-b8" d="M 325 109 
Q 325 203 409 288 
L 2209 2053 
L 1575 3834 
Q 1500 4038 1417 4156 
Q 1334 4275 1178 4275 
Q 1106 4275 1106 4359 
Q 1113 4397 1138 4419 
Q 1163 4441 1203 4441 
Q 1875 4441 2016 4044 
L 3316 416 
Q 3400 144 3488 50 
Q 3519 3 3519 -13 
Q 3519 -72 3469 -72 
L 3122 -72 
Q 2963 -25 2869 206 
L 2284 1844 
L 738 25 
Q 622 -84 531 -84 
Q 450 -84 387 -28 
Q 325 28 325 109 
z
" transform="scale(0.015625)"/>
       <path id="Cmr10-2b" d="M 481 1472 
Q 428 1472 393 1512 
Q 359 1553 359 1600 
Q 359 1647 393 1687 
Q 428 1728 481 1728 
L 2363 1728 
L 2363 3616 
Q 2363 3666 2400 3698 
Q 2438 3731 2491 3731 
Q 2538 3731 2578 3698 
Q 2619 3666 2619 3616 
L 2619 1728 
L 4500 1728 
Q 4547 1728 4581 1687 
Q 4616 1647 4616 1600 
Q 4616 1553 4581 1512 
Q 4547 1472 4500 1472 
L 2619 1472 
L 2619 -416 
Q 2619 -466 2578 -498 
Q 2538 -531 2491 -531 
Q 2438 -531 2400 -498 
Q 2363 -466 2363 -416 
L 2363 1472 
L 481 1472 
z
" transform="scale(0.015625)"/>
       <path id="Cmsy10-a1" d="M 653 1472 
Q 600 1472 565 1512 
Q 531 1553 531 1600 
Q 531 1647 565 1687 
Q 600 1728 653 1728 
L 4325 1728 
Q 4375 1728 4408 1687 
Q 4441 1647 4441 1600 
Q 4441 1553 4408 1512 
Q 4375 1472 4325 1472 
L 653 1472 
z
" transform="scale(0.015625)"/>
      </defs>
      <use xlink:href="#Cmmi10-b8"/>
      <use xlink:href="#Cmmi10-66" transform="translate(58.300781 0)"/>
      <use xlink:href="#Cmr10-28" transform="translate(107.177734 0)"/>
      <use xlink:href="#Cmmi10-78" transform="translate(145.996094 0)"/>
      <use xlink:href="#Cmr10-31" transform="translate(203.076172 -17.00625) scale(0.7)"/>
      <use xlink:href="#Cmr10-29" transform="translate(244.453516 0)"/>
      <use xlink:href="#Cmr10-2b" transform="translate(300.830469 0)"/>
      <use xlink:href="#Cmr10-28" transform="translate(396.074609 0)"/>
      <use xlink:href="#Cmr10-31" transform="translate(434.892969 0)"/>
      <use xlink:href="#Cmsy10-a1" transform="translate(502.451563 0)"/>
      <use xlink:href="#Cmmi10-b8" transform="translate(597.695703 0)"/>
      <use xlink:href="#Cmr10-29" transform="translate(655.996484 0)"/>
      <use xlink:href="#Cmmi10-66" transform="translate(694.814844 0)"/>
      <use xlink:href="#Cmr10-28" transform="translate(743.691797 0)"/>
      <use xlink:href="#Cmmi10-78" transform="translate(782.510156 0)"/>
      <use xlink:href="#Cmr10-32" transform="translate(839.590234 -17.00625) scale(0.7)"/>
      <use xlink:href="#Cmr10-29" transform="translate(880.967578 0)"/>
     </g>
    </g>
   </g>
  </g>
 </g>
 <defs>
  <clipPath id="p0f9600ebf4">
   <rect x="39" y="3.6" width="306.9" height="188.496"/>
  </clipPath>
 </defs>
</svg>
