<?xml version="1.0" encoding="UTF-8"?>
<svg xmlns="http://www.w3.org/2000/svg" xmlns:xlink="http://www.w3.org/1999/xlink" width="279.379" height="252.31" viewBox="0 0 279.379 252.31">
<style>/* === RDF autogenerated palette === */
:root {
    --axis-color: #000;
    --grid-stroke: rgba(0,0,0,0.2);
    --plot3d-stroke: rgba(0,0,0,0.3);
    --plot3d-grid: rgba(0,0,0,0.2);
}
@media (prefers-color-scheme: dark) {
    :root {
        --axis-color: #fff;
        --grid-stroke: rgba(255,255,255,0.2);
        --plot3d-stroke: rgba(255,255,255,0.3);
        --plot3d-grid: rgba(255,255,255,0.2);
    }
}

/* Light‑mode palette */
.black { fill:#000000; stroke:#000000; }:root { --black: #000000; }.c1 { fill:#FF0001; stroke:#FF0001; }:root { --c1: #FF0001; }.c2 { fill:#00FF02; stroke:#00FF02; }:root { --c2: #00FF02; }.c3 { fill:#0000FF; stroke:#0000FF; }:root { --c3: #0000FF; }.c4 { fill:#FF00FF; stroke:#FF00FF; }:root { --c4: #FF00FF; }.c5 { fill:#00FFFF; stroke:#00FFFF; }:root { --c5: #00FFFF; }.c6 { fill:#FFFF00; stroke:#FFFF00; }:root { --c6: #FFFF00; }.c7 { fill:#FF8000; stroke:#FF8000; }:root { --c7: #FF8000; }.c8 { fill:#8000FF; stroke:#8000FF; }:root { --c8: #8000FF; }.gray { fill:#7f7f7f; stroke:#7f7f7f; }:root { --gray: #7f7f7f; }.grey { fill:#7f7f7f; stroke:#7f7f7f; }:root { --grey: #7f7f7f; }.octonary { fill:#bcbd22; stroke:#bcbd22; }:root { --octonary: #bcbd22; }.primary { fill:#d62728; stroke:#d62728; }:root { --primary: #d62728; }.quaternary { fill:#9467bd; stroke:#9467bd; }:root { --quaternary: #9467bd; }.quinary { fill:#8c564b; stroke:#8c564b; }:root { --quinary: #8c564b; }.secondary { fill:#2ca02c; stroke:#2ca02c; }:root { --secondary: #2ca02c; }.senary { fill:#e377c2; stroke:#e377c2; }:root { --senary: #e377c2; }.septenary { fill:#7f7f7f; stroke:#7f7f7f; }:root { --septenary: #7f7f7f; }.tertiary { fill:#1f77b4; stroke:#1f77b4; }:root { --tertiary: #1f77b4; }.white { fill:#ffffff; stroke:#ffffff; }:root { --white: #ffffff; }

/* Dark overrides */
@media (prefers-color-scheme: dark) {
    .black { fill:#FFFFFF; stroke:#FFFFFF; }:root { --black: #FFFFFF; }.c1 { fill:#FF0001; stroke:#FF0001; }:root { --c1: #FF0001; }.c2 { fill:#00FF02; stroke:#00FF02; }:root { --c2: #00FF02; }.c3 { fill:#0000FF; stroke:#0000FF; }:root { --c3: #0000FF; }.c4 { fill:#FF00FF; stroke:#FF00FF; }:root { --c4: #FF00FF; }.c5 { fill:#00FFFF; stroke:#00FFFF; }:root { --c5: #00FFFF; }.c6 { fill:#FFFF00; stroke:#FFFF00; }:root { --c6: #FFFF00; }.c7 { fill:#FF8000; stroke:#FF8000; }:root { --c7: #FF8000; }.c8 { fill:#8000FF; stroke:#8000FF; }:root { --c8: #8000FF; }.gray { fill:#CCCCCC; stroke:#CCCCCC; }:root { --gray: #CCCCCC; }.grey { fill:#CCCCCC; stroke:#CCCCCC; }:root { --grey: #CCCCCC; }.octonary { fill:#E6DB74; stroke:#E6DB74; }:root { --octonary: #E6DB74; }.primary { fill:#FF4A98; stroke:#FF4A98; }:root { --primary: #FF4A98; }.quaternary { fill:#B4A0FF; stroke:#B4A0FF; }:root { --quaternary: #B4A0FF; }.quinary { fill:#FFB86B; stroke:#FFB86B; }:root { --quinary: #FFB86B; }.secondary { fill:#0AFAFA; stroke:#0AFAFA; }:root { --secondary: #0AFAFA; }.senary { fill:#FF79C6; stroke:#FF79C6; }:root { --senary: #FF79C6; }.septenary { fill:#CCCCCC; stroke:#CCCCCC; }:root { --septenary: #CCCCCC; }.tertiary { fill:#7F83FF; stroke:#7F83FF; }:root { --tertiary: #7F83FF; }.white { fill:#000000; stroke:#000000; }:root { --white: #000000; }
}/* Axis, ticks, legend */
text, .text { fill: var(--axis-color) !important; stroke: none !important; }
.axis line, .axis path,
.tick line, .tick path,
path.domain,
line.grid { stroke: var(--axis-color) !important; }
.legend text { fill: var(--axis-color) !important; }

/* Patch paths that relied on currentColor */
.patch path[style*="stroke: currentColor"] { stroke: var(--axis-color) !important; }

/* Legend background (first child of legend group) */
g.legend > g:first-child > path:first-child {
    fill: rgba(255,255,255,0.8) !important;
    stroke: rgba(0,0,0,0.1) !important;
}
@media (prefers-color-scheme: dark) {
    g.legend > g:first-child > path:first-child {
        fill: rgba(26,26,26,0.8) !important;
        stroke: rgba(255,255,255,0.1) !important;
    }
}

/* 3‑D specific rules */
.plot3d path, .plot3d polygon {
    stroke: var(--plot3d-stroke) !important;
}
.plot3d-grid line { stroke: var(--plot3d-grid) !important; }
.plot3d-surface path[style*="fill:"] {
    fill-opacity: 0.9 !important;
}
@media (prefers-color-scheme: dark) {
    .plot3d-surface path[style*="fill:"] {
        fill-opacity: 0.95 !important;
        filter: saturate(1.2) !important;
    }
}</style>

<defs>
<g class="glyph">
<g id="d_separation_glyph-0-0">
<path d="M 12.953125 -3.546875 C 12.953125 -3.765625 12.734375 -3.765625 12.640625 -3.765625 C 12.34375 -3.765625 12.3125 -3.734375 12.171875 -3.171875 C 11.671875 -1.109375 11.203125 -0.25 10.5 -0.25 C 9.96875 -0.25 9.84375 -0.765625 9.84375 -1.234375 C 9.84375 -1.5625 9.96875 -2.25 10.03125 -2.578125 L 13.5625 -16.625 C 13.578125 -16.78125 13.625 -16.875 13.625 -16.953125 C 13.625 -17.171875 13.453125 -17.203125 13.0625 -17.171875 L 10.578125 -16.953125 C 10.234375 -16.921875 10.015625 -16.90625 10.015625 -16.453125 C 10.015625 -16.203125 10.203125 -16.203125 10.5625 -16.203125 C 11.796875 -16.203125 11.796875 -15.984375 11.796875 -15.734375 C 11.796875 -15.609375 11.75 -15.40625 11.71875 -15.3125 L 10.265625 -9.421875 C 9.90625 -10.203125 9.296875 -10.921875 8.234375 -10.921875 C 5.53125 -10.921875 2.671875 -7.140625 2.671875 -3.515625 C 2.671875 -1.3125 3.84375 0.25 5.53125 0.25 C 6.546875 0.25 7.5625 -0.390625 8.5 -1.515625 C 8.765625 0 9.890625 0.25 10.453125 0.25 C 11.421875 0.25 11.921875 -0.46875 12.234375 -1.1875 C 12.65625 -2.0625 12.953125 -3.46875 12.953125 -3.546875 Z M 8.671875 -3.046875 C 8.5 -2.375 7.015625 -0.25 5.578125 -0.25 C 4.265625 -0.25 4.21875 -2.1875 4.21875 -2.484375 C 4.21875 -3.71875 5 -6.640625 5.40625 -7.625 C 6.046875 -9.171875 7.15625 -10.4375 8.234375 -10.4375 C 9.734375 -10.4375 9.890625 -8.125 9.890625 -8.046875 L 9.8125 -7.703125 Z M 8.671875 -3.046875 "/>
</g>
<g id="d_separation_glyph-1-0">
<path d="M 7.734375 -4.359375 L 7.734375 -6.640625 L 0.296875 -6.640625 L 0.296875 -4.359375 Z M 7.734375 -4.359375 "/>
</g>
<g id="d_separation_glyph-1-1">
<path d="M 10.03125 -3.4375 C 10.03125 -4.640625 9.390625 -5.453125 8.890625 -5.890625 C 7.875 -6.734375 7.03125 -6.890625 5.703125 -7.140625 C 4.109375 -7.40625 2.625 -7.6875 2.625 -8.875 C 2.625 -10.484375 4.828125 -10.484375 5.359375 -10.484375 C 8.109375 -10.484375 8.25 -8.75 8.296875 -8.125 C 8.328125 -7.8125 8.53125 -7.8125 8.828125 -7.8125 C 9.34375 -7.8125 9.34375 -7.875 9.34375 -8.453125 L 9.34375 -10.578125 C 9.34375 -11.046875 9.34375 -11.21875 8.96875 -11.21875 C 8.828125 -11.21875 8.765625 -11.21875 8.40625 -11 C 8.296875 -10.921875 8.03125 -10.75 7.90625 -10.6875 C 7.21875 -11.078125 6.296875 -11.21875 5.40625 -11.21875 C 4.65625 -11.21875 0.9375 -11.21875 0.9375 -8 C 0.9375 -5.40625 4.015625 -4.859375 4.78125 -4.734375 C 5.453125 -4.609375 6.265625 -4.453125 6.375 -4.453125 C 7.359375 -4.234375 8.34375 -3.625 8.34375 -2.578125 C 8.34375 -0.671875 6.09375 -0.671875 5.578125 -0.671875 C 4.3125 -0.671875 2.75 -1.0625 2.0625 -3.46875 C 1.90625 -3.96875 1.890625 -3.984375 1.46875 -3.984375 C 0.9375 -3.984375 0.9375 -3.921875 0.9375 -3.34375 L 0.9375 -0.5 C 0.9375 -0.03125 0.9375 0.15625 1.3125 0.15625 C 1.484375 0.15625 1.53125 0.15625 2.03125 -0.25 L 2.671875 -0.71875 C 3.796875 0.15625 5.125 0.15625 5.578125 0.15625 C 6.9375 0.15625 10.03125 -0.15625 10.03125 -3.4375 Z M 10.03125 -3.4375 "/>
</g>
<g id="d_separation_glyph-1-2">
<path d="M 11.921875 -2.90625 C 11.921875 -3.265625 11.546875 -3.265625 11.40625 -3.265625 C 11 -3.265625 10.984375 -3.203125 10.828125 -2.875 C 10.1875 -1.265625 8.546875 -0.75 7.359375 -0.75 C 3.765625 -0.75 3.734375 -4.09375 3.734375 -5.484375 L 11.203125 -5.484375 C 11.765625 -5.484375 11.921875 -5.484375 11.921875 -6.09375 C 11.921875 -6.84375 11.75 -8.703125 10.609375 -9.859375 C 9.5625 -10.90625 8.171875 -11.21875 6.734375 -11.21875 C 2.875 -11.21875 0.765625 -8.703125 0.765625 -5.578125 C 0.765625 -2.109375 3.328125 0.15625 7.0625 0.15625 C 10.796875 0.15625 11.921875 -2.484375 11.921875 -2.90625 Z M 9.640625 -6.1875 L 3.734375 -6.1875 C 3.796875 -7.21875 3.8125 -8.171875 4.34375 -9.0625 C 4.8125 -9.859375 5.671875 -10.40625 6.734375 -10.40625 C 9.390625 -10.40625 9.609375 -7.4375 9.640625 -6.1875 Z M 9.640625 -6.1875 "/>
</g>
<g id="d_separation_glyph-1-3">
<path d="M 14.515625 -5.53125 C 14.515625 -8.953125 12.21875 -11.15625 8.875 -11.15625 C 7.40625 -11.15625 6.140625 -10.65625 5.15625 -9.859375 L 5.15625 -11.15625 L 0.875 -10.953125 L 0.875 -9.890625 C 2.40625 -9.890625 2.578125 -9.890625 2.578125 -8.921875 L 2.578125 3.734375 L 0.875 3.734375 L 0.875 4.8125 C 1.4375 4.765625 3.21875 4.765625 3.921875 4.765625 C 4.609375 4.765625 6.421875 4.765625 6.984375 4.8125 L 6.984375 3.734375 L 5.28125 3.734375 L 5.28125 -1.015625 C 5.890625 -0.46875 6.984375 0.15625 8.46875 0.15625 C 11.875 0.15625 14.515625 -1.90625 14.515625 -5.53125 Z M 11.546875 -5.53125 C 11.546875 -1.9375 9.765625 -0.671875 8.171875 -0.671875 C 7.109375 -0.671875 6.046875 -1.21875 5.28125 -2.375 L 5.28125 -8.671875 C 6.1875 -9.859375 7.515625 -10.265625 8.46875 -10.265625 C 10.09375 -10.265625 11.546875 -8.796875 11.546875 -5.53125 Z M 11.546875 -5.53125 "/>
</g>
<g id="d_separation_glyph-1-4">
<path d="M 13.40625 -0.546875 C 13.40625 -1.0625 13.1875 -1.0625 12.84375 -1.0625 C 11.28125 -1.09375 11.28125 -1.484375 11.28125 -2.0625 L 11.28125 -7.40625 C 11.28125 -9.6875 9.46875 -11.21875 5.96875 -11.21875 C 4.578125 -11.21875 1.65625 -11.109375 1.65625 -9.015625 C 1.65625 -7.984375 2.453125 -7.53125 3.125 -7.53125 C 3.859375 -7.53125 4.578125 -8.046875 4.578125 -9 C 4.578125 -9.46875 4.40625 -9.90625 3.984375 -10.1875 C 4.8125 -10.40625 5.40625 -10.40625 5.875 -10.40625 C 7.5625 -10.40625 8.578125 -9.46875 8.578125 -7.4375 L 8.578125 -6.4375 C 4.65625 -6.4375 0.71875 -5.359375 0.71875 -2.609375 C 0.71875 -0.34375 3.59375 0.15625 5.296875 0.15625 C 7.21875 0.15625 8.421875 -0.890625 8.921875 -1.984375 C 8.921875 -1.0625 8.921875 0 11.421875 0 L 12.6875 0 C 13.203125 0 13.40625 0 13.40625 -0.546875 Z M 8.578125 -3.4375 C 8.578125 -1.109375 6.5 -0.671875 5.703125 -0.671875 C 4.484375 -0.671875 3.46875 -1.484375 3.46875 -2.625 C 3.46875 -4.875 6.140625 -5.65625 8.578125 -5.78125 Z M 8.578125 -3.4375 "/>
</g>
<g id="d_separation_glyph-1-5">
<path d="M 10.578125 -9.1875 C 10.578125 -10.453125 9.296875 -11.15625 8.109375 -11.15625 C 6.140625 -11.15625 5.296875 -9.4375 4.953125 -8.40625 L 4.9375 -8.40625 L 4.9375 -11.15625 L 0.875 -10.953125 L 0.875 -9.890625 C 2.40625 -9.890625 2.578125 -9.890625 2.578125 -8.921875 L 2.578125 -1.0625 L 0.875 -1.0625 L 0.875 0 C 1.4375 -0.046875 3.296875 -0.046875 3.984375 -0.046875 C 4.703125 -0.046875 6.71875 -0.046875 7.3125 0 L 7.3125 -1.0625 L 5.15625 -1.0625 L 5.15625 -5.578125 C 5.15625 -6.390625 5.328125 -10.328125 8.234375 -10.328125 C 7.875 -10.0625 7.703125 -9.640625 7.703125 -9.1875 C 7.703125 -8.171875 8.53125 -7.75 9.140625 -7.75 C 9.765625 -7.75 10.578125 -8.171875 10.578125 -9.1875 Z M 10.578125 -9.1875 "/>
</g>
<g id="d_separation_glyph-1-6">
<path d="M 9.265625 -3.078125 L 9.265625 -4.390625 L 8.234375 -4.390625 L 8.234375 -3.09375 C 8.234375 -1.46875 7.484375 -0.75 6.71875 -0.75 C 5.234375 -0.75 5.234375 -2.40625 5.234375 -2.96875 L 5.234375 -9.9375 L 8.796875 -9.9375 L 8.796875 -11 L 5.234375 -11 L 5.234375 -15.734375 L 4.1875 -15.734375 C 4.15625 -13.28125 2.96875 -10.828125 0.515625 -10.75 L 0.515625 -9.9375 L 2.53125 -9.9375 L 2.53125 -3.046875 C 2.53125 -0.421875 4.5625 0.15625 6.34375 0.15625 C 8.171875 0.15625 9.265625 -1.234375 9.265625 -3.078125 Z M 9.265625 -3.078125 "/>
</g>
<g id="d_separation_glyph-1-7">
<path d="M 6.90625 0 L 6.90625 -1.0625 L 5.375 -1.0625 L 5.375 -11.15625 L 1.171875 -10.953125 L 1.171875 -9.890625 C 2.625 -9.890625 2.796875 -9.890625 2.796875 -8.921875 L 2.796875 -1.0625 L 1.09375 -1.0625 L 1.09375 0 C 1.65625 -0.046875 3.375 -0.046875 4.046875 -0.046875 C 4.734375 -0.046875 6.3125 -0.046875 6.90625 0 Z M 5.671875 -15.0625 C 5.671875 -16.078125 4.828125 -16.84375 3.890625 -16.84375 C 2.875 -16.84375 2.078125 -16.03125 2.078125 -15.0625 C 2.078125 -14.046875 2.921875 -13.28125 3.859375 -13.28125 C 4.875 -13.28125 5.671875 -14.09375 5.671875 -15.0625 Z M 5.671875 -15.0625 "/>
</g>
<g id="d_separation_glyph-1-8">
<path d="M 13.140625 -5.421875 C 13.140625 -8.765625 10.859375 -11.21875 6.96875 -11.21875 C 2.921875 -11.21875 0.765625 -8.65625 0.765625 -5.421875 C 0.765625 -2.1875 3.046875 0.15625 6.9375 0.15625 C 10.984375 0.15625 13.140625 -2.296875 13.140625 -5.421875 Z M 10.15625 -5.671875 C 10.15625 -3.625 10.15625 -0.75 6.96875 -0.75 C 3.734375 -0.75 3.734375 -3.640625 3.734375 -5.671875 C 3.734375 -6.84375 3.734375 -8.078125 4.21875 -8.96875 C 4.765625 -9.96875 5.875 -10.40625 6.9375 -10.40625 C 8.34375 -10.40625 9.25 -9.734375 9.671875 -9.046875 C 10.15625 -8.15625 10.15625 -6.859375 10.15625 -5.671875 Z M 10.15625 -5.671875 "/>
</g>
<g id="d_separation_glyph-1-9">
<path d="M 14.875 0 L 14.875 -1.0625 L 13.15625 -1.0625 L 13.15625 -7.578125 C 13.15625 -9.9375 12.140625 -11.15625 9.421875 -11.15625 C 7.625 -11.15625 6.09375 -10.28125 5.25 -8.421875 L 5.234375 -8.421875 L 5.234375 -11.15625 L 1.046875 -10.953125 L 1.046875 -9.890625 C 2.578125 -9.890625 2.75 -9.890625 2.75 -8.921875 L 2.75 -1.0625 L 1.046875 -1.0625 L 1.046875 0 C 1.609375 -0.046875 3.390625 -0.046875 4.09375 -0.046875 C 4.78125 -0.046875 6.59375 -0.046875 7.15625 0 L 7.15625 -1.0625 L 5.453125 -1.0625 L 5.453125 -6.34375 C 5.453125 -9.015625 7.4375 -10.328125 9.015625 -10.328125 C 9.9375 -10.328125 10.453125 -9.734375 10.453125 -7.859375 L 10.453125 -1.0625 L 8.75 -1.0625 L 8.75 0 C 9.3125 -0.046875 11.109375 -0.046875 11.796875 -0.046875 C 12.484375 -0.046875 14.296875 -0.046875 14.875 0 Z M 14.875 0 "/>
</g>
<g id="d_separation_glyph-2-0">
<path d="M 7.203125 -1.875 C 7.203125 -1.984375 7.09375 -2.0625 7.03125 -2.0625 C 6.96875 -2.0625 6.953125 -2.046875 6.796875 -1.890625 C 5.703125 -0.4375 4.0625 -0.171875 3.40625 -0.171875 C 2.21875 -0.171875 1.84375 -1.203125 1.84375 -2.0625 C 1.84375 -2.671875 2.140625 -4.34375 2.75 -5.515625 C 3.203125 -6.3125 4.125 -7.25 5.21875 -7.25 C 5.4375 -7.25 6.390625 -7.21875 6.734375 -6.46875 C 6.40625 -6.46875 6.25 -6.46875 6.015625 -6.265625 C 5.90625 -6.1875 5.71875 -5.921875 5.71875 -5.640625 C 5.71875 -5.296875 5.96875 -5.09375 6.296875 -5.09375 C 6.71875 -5.09375 7.1875 -5.4375 7.1875 -6.125 C 7.1875 -6.953125 6.390625 -7.59375 5.203125 -7.59375 C 2.9375 -7.59375 0.6875 -5.125 0.6875 -2.6875 C 0.6875 -1.1875 1.625 0.171875 3.375 0.171875 C 5.71875 0.171875 7.203125 -1.65625 7.203125 -1.875 Z M 7.203125 -1.875 "/>
</g>
<g id="d_separation_glyph-2-1">
<path d="M 7.203125 -1.875 C 7.203125 -1.984375 7.09375 -2.0625 7.03125 -2.0625 C 6.96875 -2.0625 6.953125 -2.046875 6.796875 -1.890625 C 5.703125 -0.4375 4.0625 -0.171875 3.40625 -0.171875 C 2.421875 -0.171875 1.90625 -0.953125 1.90625 -2.21875 C 1.90625 -2.46875 1.90625 -2.890625 2.171875 -4 L 3.078125 -4 C 3.546875 -4 4.71875 -4.03125 5.546875 -4.34375 C 6.859375 -4.84375 6.96875 -5.84375 6.96875 -6.140625 C 6.96875 -6.90625 6.3125 -7.59375 5.1875 -7.59375 C 3.375 -7.59375 0.78125 -5.953125 0.78125 -2.890625 C 0.78125 -1.078125 1.8125 0.171875 3.375 0.171875 C 5.71875 0.171875 7.203125 -1.65625 7.203125 -1.875 Z M 6.453125 -6.140625 C 6.453125 -4.34375 3.703125 -4.34375 2.984375 -4.34375 L 2.25 -4.34375 C 3 -6.984375 4.625 -7.25 5.1875 -7.25 C 5.9375 -7.25 6.453125 -6.796875 6.453125 -6.140625 Z M 6.453125 -6.140625 "/>
</g>
<g id="d_separation_glyph-2-2">
<path d="M 5.1875 -2.046875 C 5.09375 -1.75 5.09375 -1.71875 4.859375 -1.390625 C 4.484375 -0.90625 3.71875 -0.171875 2.90625 -0.171875 C 2.203125 -0.171875 1.8125 -0.8125 1.8125 -1.828125 C 1.8125 -2.765625 2.34375 -4.703125 2.671875 -5.421875 C 3.25 -6.625 4.0625 -7.25 4.734375 -7.25 C 5.875 -7.25 6.09375 -5.84375 6.09375 -5.703125 C 6.09375 -5.703125 6.046875 -5.453125 6.03125 -5.421875 Z M 8.34375 -2.46875 C 8.34375 -2.546875 8.28125 -2.625 8.171875 -2.625 C 8.03125 -2.625 8 -2.53125 7.9375 -2.265625 C 7.671875 -1.25 7.359375 -0.171875 6.640625 -0.171875 C 6.140625 -0.171875 6.109375 -0.625 6.109375 -0.96875 C 6.109375 -1.359375 6.171875 -1.546875 6.3125 -2.21875 L 6.65625 -3.53125 C 7.296875 -6.109375 7.453125 -6.734375 7.453125 -6.828125 C 7.453125 -7.078125 7.265625 -7.265625 7.015625 -7.265625 C 6.453125 -7.265625 6.3125 -6.65625 6.28125 -6.453125 C 6.09375 -6.90625 5.625 -7.59375 4.734375 -7.59375 C 2.796875 -7.59375 0.6875 -5.078125 0.6875 -2.53125 C 0.6875 -0.828125 1.6875 0.171875 2.859375 0.171875 C 3.8125 0.171875 4.609375 -0.5625 5.09375 -1.140625 C 5.265625 -0.125 6.078125 0.171875 6.59375 0.171875 C 7.109375 0.171875 7.53125 -0.140625 7.828125 -0.75 C 8.109375 -1.34375 8.34375 -2.390625 8.34375 -2.46875 Z M 8.34375 -2.46875 "/>
</g>
<g id="d_separation_glyph-2-3">
<path d="M 9.40625 -11 C 9.40625 -11.71875 8.671875 -12.125 7.921875 -12.125 C 7.1875 -12.125 6.453125 -11.578125 6.109375 -10.90625 C 5.796875 -10.296875 5.625 -9.671875 5.234375 -7.421875 L 4.078125 -7.421875 C 3.75 -7.421875 3.578125 -7.421875 3.578125 -7.109375 C 3.578125 -6.921875 3.6875 -6.921875 4.03125 -6.921875 L 5.125 -6.921875 L 3.71875 0.40625 C 3.421875 1.90625 3.171875 3.171875 2.3125 3.171875 C 2.25 3.171875 1.75 3.171875 1.453125 2.84375 C 2.328125 2.765625 2.328125 2 2.328125 2 C 2.328125 1.65625 2.0625 1.453125 1.734375 1.453125 C 1.390625 1.453125 0.875 1.734375 0.875 2.390625 C 0.875 3.140625 1.640625 3.515625 2.3125 3.515625 C 4.0625 3.515625 4.78125 0.359375 4.96875 -0.5 L 6.21875 -6.921875 L 7.671875 -6.921875 C 8.03125 -6.921875 8.15625 -6.921875 8.15625 -7.25 C 8.15625 -7.421875 8.03125 -7.421875 7.71875 -7.421875 L 6.3125 -7.421875 L 7.03125 -10.96875 C 7.125 -11.375 7.484375 -11.78125 7.9375 -11.78125 C 8.296875 -11.78125 8.65625 -11.625 8.828125 -11.46875 C 8.15625 -11.40625 7.953125 -10.90625 7.953125 -10.609375 C 7.953125 -10.265625 8.21875 -10.0625 8.546875 -10.0625 C 8.890625 -10.0625 9.40625 -10.34375 9.40625 -11 Z M 9.40625 -11 "/>
</g>
<g id="d_separation_glyph-2-4">
<path d="M 6.9375 -4.890625 C 6.9375 -6.46875 6.046875 -7.59375 4.75 -7.59375 C 3.859375 -7.59375 3.046875 -6.859375 2.71875 -6.515625 L 3.984375 -11.515625 C 4 -11.59375 4.03125 -11.6875 4.03125 -11.78125 C 4.03125 -11.953125 3.828125 -11.953125 3.828125 -11.953125 L 2.875 -11.859375 C 2.578125 -11.84375 2.328125 -11.8125 2.015625 -11.796875 C 1.59375 -11.765625 1.484375 -11.75 1.484375 -11.4375 C 1.484375 -11.265625 1.65625 -11.265625 1.828125 -11.265625 C 2.703125 -11.265625 2.703125 -11.109375 2.703125 -10.9375 C 2.703125 -10.8125 2.5625 -10.3125 2.5 -10 L 2.078125 -8.34375 L 0.859375 -3.4375 C 0.78125 -3.015625 0.78125 -2.71875 0.78125 -2.5 C 0.78125 -0.734375 1.75 0.171875 2.875 0.171875 C 4.875 0.171875 6.9375 -2.390625 6.9375 -4.890625 Z M 4.90625 -1.921875 C 4.484375 -1 3.6875 -0.171875 2.890625 -0.171875 C 2.34375 -0.171875 1.734375 -0.578125 1.734375 -1.921875 C 1.734375 -2.5 1.796875 -2.828125 2.09375 -4.03125 L 2.5 -5.578125 C 2.53125 -5.71875 3.546875 -7.25 4.71875 -7.25 C 5.46875 -7.25 5.8125 -6.484375 5.8125 -5.59375 C 5.8125 -4.765625 5.34375 -2.828125 4.90625 -1.921875 Z M 4.90625 -1.921875 "/>
</g>
</g>
</defs>
<g fill="var(--black)" fill-opacity="1">
<use xlink:href="#d_separation_glyph-0-0" x="57.958" y="32.594"/>
</g>
<g fill="var(--black)" fill-opacity="1">
<use xlink:href="#d_separation_glyph-1-0" x="72.292" y="32.594"/>
<use xlink:href="#d_separation_glyph-1-1" x="81.587162" y="32.594"/>
<use xlink:href="#d_separation_glyph-1-2" x="92.585199" y="32.594"/>
<use xlink:href="#d_separation_glyph-1-3" x="105.308417" y="32.594"/>
<use xlink:href="#d_separation_glyph-1-4" x="120.800355" y="32.594"/>
<use xlink:href="#d_separation_glyph-1-5" x="134.35642" y="32.594"/>
<use xlink:href="#d_separation_glyph-1-4" x="145.746092" y="32.594"/>
<use xlink:href="#d_separation_glyph-1-6" x="159.302157" y="32.594"/>
<use xlink:href="#d_separation_glyph-1-7" x="170.146513" y="32.594"/>
<use xlink:href="#d_separation_glyph-1-8" x="177.892482" y="32.594"/>
<use xlink:href="#d_separation_glyph-1-9" x="191.835226" y="32.594"/>
</g>
<path fill-rule="nonzero" fill="rgb(50%, 50%, 100%)" fill-opacity="1" stroke-width="0.79701" stroke-linecap="butt" stroke-linejoin="miter" stroke="rgb(100%, 0%, 0%)" stroke-opacity="1" stroke-miterlimit="10" d="M -7.087156 -192.354219 C -7.087156 -180.612031 -16.606687 -171.0925 -28.344969 -171.0925 C -40.087156 -171.0925 -49.606687 -180.612031 -49.606687 -192.354219 C -49.606687 -204.096406 -40.087156 -213.615938 -28.344969 -213.615938 C -16.606687 -213.615938 -7.087156 -204.096406 -7.087156 -192.354219 Z M -7.087156 -192.354219 " transform="matrix(1, 0, 0, -1, 132.677, 26.345)"/>
<g fill="var(--black)" fill-opacity="1">
<use xlink:href="#d_separation_glyph-2-0" x="100.704" y="222.403"/>
</g>
<path fill="none" stroke-width="0.79701" stroke-linecap="butt" stroke-linejoin="miter" stroke="rgb(100%, 0%, 0%)" stroke-opacity="1" stroke-miterlimit="10" d="M -7.087156 -120.690156 C -7.087156 -108.947969 -16.606687 -99.428438 -28.344969 -99.428438 C -40.087156 -99.428438 -49.606687 -108.947969 -49.606687 -120.690156 C -49.606687 -132.432344 -40.087156 -141.951875 -28.344969 -141.951875 C -16.606687 -141.951875 -7.087156 -132.432344 -7.087156 -120.690156 Z M -7.087156 -120.690156 " transform="matrix(1, 0, 0, -1, 132.677, 26.345)"/>
<g fill="var(--black)" fill-opacity="1">
<use xlink:href="#d_separation_glyph-2-1" x="100.425" y="150.74"/>
</g>
<path fill="none" stroke-width="0.79701" stroke-linecap="butt" stroke-linejoin="miter" stroke="rgb(100%, 0%, 0%)" stroke-opacity="1" stroke-miterlimit="10" d="M -77.805906 -49.971406 C -77.805906 -38.229219 -87.321531 -28.709688 -99.063719 -28.709688 C -110.805906 -28.709688 -120.325437 -38.229219 -120.325437 -49.971406 C -120.325437 -61.713594 -110.805906 -71.233125 -99.063719 -71.233125 C -87.321531 -71.233125 -77.805906 -61.713594 -77.805906 -49.971406 Z M -77.805906 -49.971406 " transform="matrix(1, 0, 0, -1, 132.677, 26.345)"/>
<g fill="var(--black)" fill-opacity="1">
<use xlink:href="#d_separation_glyph-2-2" x="29.189" y="80.022"/>
</g>
<path fill="none" stroke-width="0.79701" stroke-linecap="butt" stroke-linejoin="miter" stroke="rgb(100%, 0%, 0%)" stroke-opacity="1" stroke-miterlimit="10" d="M 63.631594 -49.971406 C 63.631594 -38.229219 54.112063 -28.709688 42.369875 -28.709688 C 30.631594 -28.709688 21.112063 -38.229219 21.112063 -49.971406 C 21.112063 -61.713594 30.631594 -71.233125 42.369875 -71.233125 C 54.112063 -71.233125 63.631594 -61.713594 63.631594 -49.971406 Z M 63.631594 -49.971406 " transform="matrix(1, 0, 0, -1, 132.677, 26.345)"/>
<g fill="var(--black)" fill-opacity="1">
<use xlink:href="#d_separation_glyph-2-3" x="169.975" y="80.62"/>
</g>
<path fill="none" stroke-width="0.79701" stroke-linecap="butt" stroke-linejoin="miter" stroke="rgb(100%, 0%, 0%)" stroke-opacity="1" stroke-miterlimit="10" d="M 134.350344 -120.690156 C 134.350344 -108.947969 124.830813 -99.428438 113.088625 -99.428438 C 101.346438 -99.428438 91.830813 -108.947969 91.830813 -120.690156 C 91.830813 -132.432344 101.346438 -141.951875 113.088625 -141.951875 C 124.830813 -141.951875 134.350344 -132.432344 134.350344 -120.690156 Z M 134.350344 -120.690156 " transform="matrix(1, 0, 0, -1, 132.677, 26.345)"/>
<g fill="var(--black)" fill-opacity="1">
<use xlink:href="#d_separation_glyph-2-4" x="242.182" y="153.011"/>
</g>
<path fill="none" stroke-width="2.83466" stroke-linecap="butt" stroke-linejoin="miter" stroke="rgb(100%, 0%, 0%)" stroke-opacity="1" stroke-miterlimit="10" d="M -28.344969 -142.350313 L -28.344969 -165.049531 " transform="matrix(1, 0, 0, -1, 132.677, 26.345)"/>
<path fill-rule="nonzero" fill="rgb(100%, 0%, 0%)" fill-opacity="1" d="M 104.332031 197.039062 L 108.847656 188.003906 L 104.332031 191.394531 L 99.8125 188.003906 "/>
<path fill="none" stroke-width="2.83466" stroke-linecap="butt" stroke-linejoin="miter" stroke="rgb(100%, 0%, 0%)" stroke-opacity="1" stroke-miterlimit="10" d="M -83.751219 -65.287813 L -47.653562 -101.381563 " transform="matrix(1, 0, 0, -1, 132.677, 26.345)"/>
<path fill-rule="nonzero" fill="rgb(100%, 0%, 0%)" fill-opacity="1" d="M 89.015625 131.71875 L 85.820312 122.136719 L 85.023438 127.726562 L 79.433594 128.527344 "/>
<path fill="none" stroke-width="2.83466" stroke-linecap="butt" stroke-linejoin="miter" stroke="rgb(100%, 0%, 0%)" stroke-opacity="1" stroke-miterlimit="10" d="M 27.057375 -65.287813 L -9.040281 -101.381563 " transform="matrix(1, 0, 0, -1, 132.677, 26.345)"/>
<path fill-rule="nonzero" fill="rgb(100%, 0%, 0%)" fill-opacity="1" d="M 119.644531 131.71875 L 129.226562 128.527344 L 123.636719 127.726562 L 122.839844 122.136719 "/>
<path fill="none" stroke-width="2.83466" stroke-linecap="butt" stroke-linejoin="miter" stroke="rgb(100%, 0%, 0%)" stroke-opacity="1" stroke-miterlimit="10" d="M 57.686281 -65.287813 L 93.783938 -101.381563 " transform="matrix(1, 0, 0, -1, 132.677, 26.345)"/>
<path fill-rule="nonzero" fill="rgb(100%, 0%, 0%)" fill-opacity="1" d="M 230.453125 131.71875 L 227.257812 122.136719 L 226.460938 127.726562 L 220.871094 128.527344 "/>
</svg>
