<svg xmlns="http://www.w3.org/2000/svg" xmlns:xlink="http://www.w3.org/1999/xlink" width="279.379" height="252.31" style="--axis-color:#000;--grid-stroke:rgba(0,0,0,0.2);--plot3d-stroke:rgba(0,0,0,0.3);--plot3d-grid:rgba(0,0,0,0.2);--black:#000000;--c1:#FF0001;--c2:#00FF02;--c3:#0000FF;--c4:#FF00FF;--c5:#00FFFF;--c6:#FFFF00;--c7:#FF8000;--c8:#8000FF;--gray:#7f7f7f;--grey:#7f7f7f;--octonary:#bcbd22;--primary:#d62728;--quaternary:#9467bd;--quinary:#8c564b;--secondary:#2ca02c;--senary:#e377c2;--septenary:#7f7f7f;--tertiary:#1f77b4;--white:#ffffff" viewBox="0 0 279.379 252.31"><style><![CDATA[@media (prefers-color-scheme:dark){:root{--axis-color:#fff;--grid-stroke:rgba(255,255,255,0.2);--plot3d-stroke:rgba(255,255,255,0.3);--plot3d-grid:rgba(255,255,255,0.2);--black:#FFFFFF;--c1:#FF0001;--c2:#00FF02;--c3:#0000FF;--c4:#FF00FF;--c5:#00FFFF;--c6:#FFFF00;--c7:#FF8000;--c8:#8000FF;--gray:#CCCCCC;--grey:#CCCCCC;--octonary:#E6DB74;--primary:#FF4A98;--quaternary:#B4A0FF;--quinary:#FFB86B;--secondary:#0AFAFA;--senary:#FF79C6;--septenary:#CCCCCC;--tertiary:#7F83FF;--white:#000000}}]]></style><defs><path id="d_separation_glyph-0-0" d="M12.953-3.547c0-.219-.219-.219-.312-.219-.297 0-.328.032-.47.594-.5 2.063-.968 2.922-1.671 2.922-.531 0-.656-.516-.656-.984 0-.328.125-1.016.187-1.344l3.531-14.047c.016-.156.063-.25.063-.328 0-.219-.172-.25-.562-.219l-2.485.219c-.344.031-.562.047-.562.5 0 .25.187.25.547.25 1.234 0 1.234.219 1.234.469 0 .125-.047.328-.078.422l-1.453 5.89c-.36-.781-.97-1.5-2.032-1.5-2.703 0-5.562 3.781-5.562 7.406C2.672-1.312 3.844.25 5.532.25c1.015 0 2.03-.64 2.968-1.766C8.766 0 9.89.25 10.453.25c.969 0 1.469-.719 1.781-1.437.422-.875.72-2.282.72-2.36m-4.281.5C8.5-2.375 7.016-.25 5.578-.25c-1.312 0-1.36-1.937-1.36-2.234 0-1.235.782-4.157 1.188-5.141.64-1.547 1.75-2.812 2.828-2.812 1.5 0 1.657 2.312 1.657 2.39l-.079.344Zm0 0"/><path id="d_separation_glyph-1-0" d="M7.734-4.36v-2.28H.297v2.28Zm0 0"/><path id="d_separation_glyph-1-1" d="M10.031-3.437c0-1.204-.64-2.016-1.14-2.454-1.016-.843-1.86-1-3.188-1.25-1.594-.265-3.078-.546-3.078-1.734 0-1.61 2.203-1.61 2.734-1.61 2.75 0 2.891 1.735 2.938 2.36.031.313.234.313.531.313.516 0 .516-.063.516-.641v-2.125c0-.469 0-.64-.375-.64-.14 0-.203 0-.563.218-.11.078-.375.25-.5.313-.687-.391-1.61-.532-2.5-.532-.75 0-4.468 0-4.468 3.219 0 2.594 3.078 3.14 3.843 3.266.672.125 1.485.28 1.594.28.984.22 1.969.829 1.969 1.876 0 1.906-2.25 1.906-2.766 1.906-1.266 0-2.828-.39-3.516-2.797-.156-.5-.171-.515-.593-.515-.532 0-.532.062-.532.64V-.5c0 .469 0 .656.375.656.172 0 .22 0 .72-.406l.64-.469c1.125.875 2.453.875 2.906.875 1.36 0 4.453-.312 4.453-3.593m0 0"/><path id="d_separation_glyph-1-2" d="M11.922-2.906c0-.36-.375-.36-.516-.36-.406 0-.422.063-.578.391C10.188-1.265 8.547-.75 7.36-.75c-3.593 0-3.625-3.344-3.625-4.734h7.47c.562 0 .718 0 .718-.61 0-.75-.172-2.61-1.313-3.765-1.046-1.047-2.437-1.36-3.875-1.36-3.859 0-5.968 2.516-5.968 5.64 0 3.47 2.562 5.735 6.297 5.735s4.859-2.64 4.859-3.062M9.64-6.187H3.734c.063-1.032.079-1.985.61-2.875.468-.797 1.328-1.344 2.39-1.344 2.657 0 2.875 2.969 2.907 4.219m0 0"/><path id="d_separation_glyph-1-3" d="M14.516-5.531c0-3.422-2.297-5.625-5.641-5.625-1.469 0-2.734.5-3.719 1.297v-1.297l-4.281.203v1.062c1.531 0 1.703 0 1.703.97V3.733H.875v1.079c.563-.047 2.344-.047 3.047-.047.687 0 2.5 0 3.062.046V3.734H5.281v-4.75C5.891-.469 6.984.156 8.47.156c3.406 0 6.047-2.062 6.047-5.687m-2.97 0c0 3.593-1.78 4.86-3.374 4.86-1.063 0-2.125-.548-2.89-1.704v-6.297a4.07 4.07 0 0 1 3.187-1.594c1.625 0 3.078 1.47 3.078 4.735m0 0"/><path id="d_separation_glyph-1-4" d="M13.406-.547c0-.515-.219-.515-.562-.515-1.563-.032-1.563-.422-1.563-1v-5.344c0-2.282-1.812-3.813-5.312-3.813-1.39 0-4.313.11-4.313 2.203 0 1.032.797 1.485 1.469 1.485.734 0 1.453-.516 1.453-1.469 0-.469-.172-.906-.594-1.187.829-.22 1.422-.22 1.891-.22 1.688 0 2.703.938 2.703 2.97v1C4.656-6.437.718-5.36.718-2.61.719-.344 3.595.156 5.298.156c1.922 0 3.125-1.047 3.625-2.14 0 .922 0 1.984 2.5 1.984h1.265c.516 0 .72 0 .72-.547m-4.828-2.89C8.578-1.11 6.5-.672 5.703-.672c-1.219 0-2.234-.812-2.234-1.953 0-2.25 2.672-3.031 5.11-3.156Zm0 0"/><path id="d_separation_glyph-1-5" d="M10.578-9.187c0-1.266-1.281-1.97-2.469-1.97-1.968 0-2.812 1.72-3.156 2.75h-.016v-2.75l-4.062.204v1.062c1.531 0 1.703 0 1.703.97v7.858H.875V0c.563-.047 2.422-.047 3.11-.047.718 0 2.734 0 3.328.047v-1.062H5.156v-4.516c0-.813.172-4.75 3.078-4.75-.359.265-.53.687-.53 1.14 0 1.016.827 1.438 1.437 1.438.625 0 1.437-.422 1.437-1.437m0 0"/><path id="d_separation_glyph-1-6" d="M9.266-3.078v-1.313H8.234v1.297c0 1.625-.75 2.344-1.515 2.344-1.485 0-1.485-1.656-1.485-2.219v-6.969h3.563V-11H5.234v-4.734H4.188c-.032 2.453-1.22 4.906-3.672 4.984v.813H2.53v6.89C2.531-.422 4.562.156 6.344.156c1.828 0 2.922-1.39 2.922-3.234m0 0"/><path id="d_separation_glyph-1-7" d="M6.906 0v-1.062H5.375v-10.094l-4.203.203v1.062c1.453 0 1.625 0 1.625.97v7.858H1.094V0c.562-.047 2.281-.047 2.953-.047.687 0 2.266 0 2.86.047M5.672-15.062c0-1.016-.844-1.782-1.781-1.782-1.016 0-1.813.813-1.813 1.782 0 1.015.844 1.78 1.781 1.78 1.016 0 1.813-.812 1.813-1.78m0 0"/><path id="d_separation_glyph-1-8" d="M13.14-5.422c0-3.344-2.28-5.797-6.171-5.797-4.047 0-6.203 2.563-6.203 5.797S3.046.156 6.938.156c4.046 0 6.203-2.453 6.203-5.578m-2.984-.25c0 2.047 0 4.922-3.187 4.922-3.235 0-3.235-2.89-3.235-4.922 0-1.172 0-2.406.485-3.297.547-1 1.656-1.437 2.718-1.437 1.407 0 2.313.672 2.735 1.36.484.89.484 2.187.484 3.374m0 0"/><path id="d_separation_glyph-1-9" d="M14.875 0v-1.062h-1.719v-6.516c0-2.36-1.015-3.578-3.734-3.578-1.797 0-3.328.875-4.172 2.734h-.016v-2.734l-4.187.203v1.062c1.531 0 1.703 0 1.703.97v7.858H1.047V0c.562-.047 2.344-.047 3.047-.047.687 0 2.5 0 3.062.047v-1.062H5.453v-5.282c0-2.672 1.984-3.984 3.563-3.984.922 0 1.437.594 1.437 2.469v6.797H8.75V0c.563-.047 2.36-.047 3.047-.047s2.5 0 3.078.047m0 0"/><path id="d_separation_glyph-2-0" d="M7.203-1.875c0-.11-.11-.187-.172-.187s-.078.015-.234.171C5.703-.437 4.063-.17 3.407-.17c-1.188 0-1.563-1.032-1.563-1.891 0-.61.297-2.282.906-3.454.453-.796 1.375-1.734 2.469-1.734.218 0 1.172.031 1.515.781-.328 0-.484 0-.718.203a.88.88 0 0 0-.297.625c0 .344.25.547.578.547.422 0 .89-.343.89-1.031 0-.828-.796-1.469-1.984-1.469-2.266 0-4.515 2.469-4.515 4.907 0 1.5.937 2.859 2.687 2.859 2.344 0 3.828-1.828 3.828-2.047m0 0"/><path id="d_separation_glyph-2-1" d="M7.203-1.875c0-.11-.11-.187-.172-.187s-.078.015-.234.171C5.703-.437 4.063-.17 3.407-.17c-.985 0-1.5-.782-1.5-2.048 0-.25 0-.672.265-1.781h.906c.469 0 1.64-.031 2.469-.344 1.312-.5 1.422-1.5 1.422-1.797 0-.765-.657-1.453-1.782-1.453-1.812 0-4.406 1.64-4.406 4.703C.781-1.078 1.812.172 3.375.172c2.344 0 3.828-1.828 3.828-2.047m-.75-4.266c0 1.797-2.75 1.797-3.469 1.797H2.25C3-6.984 4.625-7.25 5.188-7.25c.75 0 1.265.453 1.265 1.11m0 0"/><path id="d_separation_glyph-2-2" d="M5.188-2.047c-.094.297-.094.328-.329.656-.375.485-1.14 1.22-1.953 1.22-.703 0-1.094-.641-1.094-1.657 0-.938.532-2.875.86-3.594.578-1.203 1.39-1.828 2.062-1.828 1.141 0 1.36 1.406 1.36 1.547 0 0-.047.25-.063.281Zm3.156-.422c0-.078-.063-.156-.172-.156-.14 0-.172.094-.235.36C7.673-1.25 7.36-.173 6.642-.173c-.5 0-.532-.453-.532-.797 0-.39.063-.578.204-1.25l.343-1.312c.64-2.578.797-3.203.797-3.297a.427.427 0 0 0-.437-.438c-.563 0-.703.61-.735.813-.187-.453-.656-1.14-1.547-1.14-1.937 0-4.046 2.515-4.046 5.062 0 1.703 1 2.703 2.171 2.703.954 0 1.75-.734 2.235-1.313.172 1.016.984 1.313 1.5 1.313.515 0 .937-.313 1.234-.922.281-.594.516-1.64.516-1.719m0 0"/><path id="d_separation_glyph-2-3" d="M9.406-11c0-.719-.734-1.125-1.484-1.125-.734 0-1.469.547-1.813 1.219-.312.61-.484 1.234-.875 3.484H4.078c-.328 0-.5 0-.5.313 0 .187.11.187.453.187h1.094L3.719.406c-.297 1.5-.547 2.766-1.406 2.766-.063 0-.563 0-.86-.328.875-.078.875-.844.875-.844 0-.344-.265-.547-.594-.547-.343 0-.859.281-.859.938 0 .75.766 1.125 1.438 1.125C4.063 3.516 4.78.359 4.969-.5l1.25-6.422h1.453c.36 0 .484 0 .484-.328 0-.172-.125-.172-.437-.172H6.312l.72-3.547c.093-.406.452-.812.906-.812.359 0 .718.156.89.312-.672.063-.875.563-.875.86 0 .343.266.547.594.547.344 0 .86-.282.86-.938m0 0"/><path id="d_separation_glyph-2-4" d="M6.938-4.89c0-1.579-.891-2.704-2.188-2.704-.89 0-1.703.735-2.031 1.078l1.265-5c.016-.078.047-.171.047-.265 0-.172-.203-.172-.203-.172l-.953.094c-.297.015-.547.046-.86.062-.421.031-.53.047-.53.36 0 .171.171.171.343.171.875 0 .875.157.875.329 0 .124-.14.624-.203.937l-.422 1.656L.86-3.438c-.078.422-.078.72-.078.938C.781-.734 1.75.172 2.875.172c2 0 4.063-2.563 4.063-5.063M4.906-1.923C4.484-1 3.688-.172 2.891-.172c-.547 0-1.157-.406-1.157-1.75 0-.578.063-.906.36-2.11L2.5-5.577c.031-.14 1.047-1.672 2.219-1.672.75 0 1.093.766 1.093 1.656 0 .828-.468 2.766-.906 3.672m0 0"/></defs><use xlink:href="#d_separation_glyph-0-0" x="57.958" y="32.594" fill="var(--black)"/><g fill="var(--black)"><use xlink:href="#d_separation_glyph-1-0" x="72.292" y="32.594"/><use xlink:href="#d_separation_glyph-1-1" x="81.587" y="32.594"/><use xlink:href="#d_separation_glyph-1-2" x="92.585" y="32.594"/><use xlink:href="#d_separation_glyph-1-3" x="105.308" y="32.594"/><use xlink:href="#d_separation_glyph-1-4" x="120.8" y="32.594"/><use xlink:href="#d_separation_glyph-1-5" x="134.356" y="32.594"/><use xlink:href="#d_separation_glyph-1-4" x="145.746" y="32.594"/><use xlink:href="#d_separation_glyph-1-6" x="159.302" y="32.594"/><use xlink:href="#d_separation_glyph-1-7" x="170.147" y="32.594"/><use xlink:href="#d_separation_glyph-1-8" x="177.892" y="32.594"/><use xlink:href="#d_separation_glyph-1-9" x="191.835" y="32.594"/></g><path fill="#7f7fff" stroke="red" stroke-miterlimit="10" stroke-width=".797" d="M125.59 218.7c0-11.743-9.52-21.262-21.258-21.262-11.742 0-21.262 9.519-21.262 21.261s9.52 21.262 21.262 21.262c11.738 0 21.258-9.52 21.258-21.262Zm0 0"/><use xlink:href="#d_separation_glyph-2-0" x="100.704" y="222.403" fill="var(--black)"/><path fill="none" stroke="red" stroke-miterlimit="10" stroke-width=".797" d="M125.59 147.035c0-11.742-9.52-21.262-21.258-21.262-11.742 0-21.262 9.52-21.262 21.262s9.52 21.262 21.262 21.262c11.738 0 21.258-9.52 21.258-21.262Zm0 0"/><use xlink:href="#d_separation_glyph-2-1" x="100.425" y="150.74" fill="var(--black)"/><path fill="none" stroke="red" stroke-miterlimit="10" stroke-width=".797" d="M54.871 76.316c0-11.742-9.516-21.261-21.258-21.261s-21.261 9.52-21.261 21.261c0 11.743 9.52 21.262 21.261 21.262 11.742 0 21.258-9.52 21.258-21.262Zm0 0"/><use xlink:href="#d_separation_glyph-2-2" x="29.189" y="80.022" fill="var(--black)"/><path fill="none" stroke="red" stroke-miterlimit="10" stroke-width=".797" d="M196.309 76.316c0-11.742-9.52-21.261-21.262-21.261-11.738 0-21.258 9.52-21.258 21.261 0 11.743 9.52 21.262 21.258 21.262 11.742 0 21.262-9.52 21.262-21.262Zm0 0"/><use xlink:href="#d_separation_glyph-2-3" x="169.975" y="80.62" fill="var(--black)"/><path fill="none" stroke="red" stroke-miterlimit="10" stroke-width=".797" d="M267.027 147.035c0-11.742-9.52-21.262-21.261-21.262-11.743 0-21.258 9.52-21.258 21.262s9.515 21.262 21.258 21.262 21.261-9.52 21.261-21.262Zm0 0"/><use xlink:href="#d_separation_glyph-2-4" x="242.182" y="153.011" fill="var(--black)"/><path fill="none" stroke="red" stroke-miterlimit="10" stroke-width="2.835" d="M104.332 168.695v22.7"/><path fill="red" d="m104.332 197.04 4.516-9.036-4.516 3.39-4.52-3.39"/><path fill="none" stroke="red" stroke-miterlimit="10" stroke-width="2.835" d="m48.926 91.633 36.097 36.094"/><path fill="red" d="m89.016 131.719-3.196-9.582-.797 5.59-5.59.8"/><path fill="none" stroke="red" stroke-miterlimit="10" stroke-width="2.835" d="m159.734 91.633-36.097 36.094"/><path fill="red" d="m119.645 131.719 9.582-3.192-5.59-.8-.797-5.59"/><path fill="none" stroke="red" stroke-miterlimit="10" stroke-width="2.835" d="m190.363 91.633 36.098 36.094"/><path fill="red" d="m230.453 131.719-3.195-9.582-.797 5.59-5.59.8"/></svg>