<?xml version="1.0" encoding="utf-8" standalone="no"?>
<!DOCTYPE svg PUBLIC "-//W3C//DTD SVG 1.1//EN"
  "http://www.w3.org/Graphics/SVG/1.1/DTD/svg11.dtd">
<svg xmlns:xlink="http://www.w3.org/1999/xlink" width="578.83875pt" height="268.890375pt" viewBox="0 0 578.83875 268.890375" xmlns="http://www.w3.org/2000/svg" version="1.1">
<style>:root { --axis-color:#000; --grid-stroke:rgba(0,0,0,0.2); --plot3d-stroke:rgba(0,0,0,0.3); --plot3d-grid:rgba(0,0,0,0.2); }
@media (prefers-color-scheme:dark) { :root { --axis-color:#fff; --grid-stroke:rgba(255,255,255,0.2); --plot3d-stroke:rgba(255,255,255,0.3); --plot3d-grid:rgba(255,255,255,0.2); } }
.black{fill:#000000;stroke:#000000;}:root{--black:#000000;}.c1{fill:#FF0001;stroke:#FF0001;}:root{--c1:#FF0001;}.c2{fill:#00FF02;stroke:#00FF02;}:root{--c2:#00FF02;}.c3{fill:#0000FF;stroke:#0000FF;}:root{--c3:#0000FF;}.c4{fill:#FF00FF;stroke:#FF00FF;}:root{--c4:#FF00FF;}.c5{fill:#00FFFF;stroke:#00FFFF;}:root{--c5:#00FFFF;}.c6{fill:#FFFF00;stroke:#FFFF00;}:root{--c6:#FFFF00;}.c7{fill:#FF8000;stroke:#FF8000;}:root{--c7:#FF8000;}.c8{fill:#8000FF;stroke:#8000FF;}:root{--c8:#8000FF;}.gray{fill:#7f7f7f;stroke:#7f7f7f;}:root{--gray:#7f7f7f;}.grey{fill:#7f7f7f;stroke:#7f7f7f;}:root{--grey:#7f7f7f;}.octonary{fill:#bcbd22;stroke:#bcbd22;}:root{--octonary:#bcbd22;}.primary{fill:#d62728;stroke:#d62728;}:root{--primary:#d62728;}.quaternary{fill:#9467bd;stroke:#9467bd;}:root{--quaternary:#9467bd;}.quinary{fill:#8c564b;stroke:#8c564b;}:root{--quinary:#8c564b;}.secondary{fill:#2ca02c;stroke:#2ca02c;}:root{--secondary:#2ca02c;}.senary{fill:#e377c2;stroke:#e377c2;}:root{--senary:#e377c2;}.septenary{fill:#7f7f7f;stroke:#7f7f7f;}:root{--septenary:#7f7f7f;}.tertiary{fill:#1f77b4;stroke:#1f77b4;}:root{--tertiary:#1f77b4;}.white{fill:#ffffff;stroke:#ffffff;}:root{--white:#ffffff;}
@media (prefers-color-scheme:dark) { .black{fill:#FFFFFF;stroke:#FFFFFF;}:root{--black:#FFFFFF;}.c1{fill:#FF0001;stroke:#FF0001;}:root{--c1:#FF0001;}.c2{fill:#00FF02;stroke:#00FF02;}:root{--c2:#00FF02;}.c3{fill:#0000FF;stroke:#0000FF;}:root{--c3:#0000FF;}.c4{fill:#FF00FF;stroke:#FF00FF;}:root{--c4:#FF00FF;}.c5{fill:#00FFFF;stroke:#00FFFF;}:root{--c5:#00FFFF;}.c6{fill:#FFFF00;stroke:#FFFF00;}:root{--c6:#FFFF00;}.c7{fill:#FF8000;stroke:#FF8000;}:root{--c7:#FF8000;}.c8{fill:#8000FF;stroke:#8000FF;}:root{--c8:#8000FF;}.gray{fill:#CCCCCC;stroke:#CCCCCC;}:root{--gray:#CCCCCC;}.grey{fill:#CCCCCC;stroke:#CCCCCC;}:root{--grey:#CCCCCC;}.octonary{fill:#E6DB74;stroke:#E6DB74;}:root{--octonary:#E6DB74;}.primary{fill:#FF4A98;stroke:#FF4A98;}:root{--primary:#FF4A98;}.quaternary{fill:#B4A0FF;stroke:#B4A0FF;}:root{--quaternary:#B4A0FF;}.quinary{fill:#FFB86B;stroke:#FFB86B;}:root{--quinary:#FFB86B;}.secondary{fill:#0AFAFA;stroke:#0AFAFA;}:root{--secondary:#0AFAFA;}.senary{fill:#FF79C6;stroke:#FF79C6;}:root{--senary:#FF79C6;}.septenary{fill:#CCCCCC;stroke:#CCCCCC;}:root{--septenary:#CCCCCC;}.tertiary{fill:#7F83FF;stroke:#7F83FF;}:root{--tertiary:#7F83FF;}.white{fill:#000000;stroke:#000000;}:root{--white:#000000;} }
text,.text { fill:var(--axis-color)!important; stroke:none!important; }
.axis line,.axis path,.tick line,.tick path,path.domain,line.grid { stroke:var(--axis-color)!important; }
.legend text { fill:var(--axis-color)!important; }
.patch path[style*="stroke: currentColor"] { stroke:var(--axis-color)!important; }
g.legend>g:first-child>path:first-child { fill:rgba(255,255,255,0.8)!important; stroke:rgba(0,0,0,0.1)!important; }
@media (prefers-color-scheme:dark) { g.legend>g:first-child>path:first-child { fill:rgba(26,26,26,0.8)!important; stroke:rgba(255,255,255,0.1)!important; } }
.plot3d path,.plot3d polygon { stroke:var(--plot3d-stroke)!important; }
.plot3d-grid line { stroke:var(--plot3d-grid)!important; }
.plot3d-surface path[style*="fill:"] { fill-opacity:0.9!important; }
@media (prefers-color-scheme:dark) { .plot3d-surface path[style*="fill:"] { fill-opacity:0.95!important; filter:saturate(1.2)!important; } }</style>

 <metadata>
  <rdf:RDF xmlns:dc="http://purl.org/dc/elements/1.1/" xmlns:cc="http://creativecommons.org/ns#" xmlns:rdf="http://www.w3.org/1999/02/22-rdf-syntax-ns#">
   <cc:Work>
    <dc:type rdf:resource="http://purl.org/dc/dcmitype/StillImage"/>
    <dc:date>2026-02-12T22:59:31.232077</dc:date>
    <dc:format>image/svg+xml</dc:format>
    <dc:creator>
     <cc:Agent>
      <dc:title>Matplotlib v3.10.1, https://matplotlib.org/</dc:title>
     </cc:Agent>
    </dc:creator>
   </cc:Work>
  </rdf:RDF>
 </metadata>
 <defs>
  <style type="text/css">*{stroke-linejoin: round; stroke-linecap: butt}</style>
 </defs>
 <g id="figure_1">
  <g class="patch">
   <path d="M 0 268.890375 
L 578.83875 268.890375 
L 578.83875 0 
L 0 0 
L 0 268.890375 
z
" style="fill: none"/>
  </g>
  <g id="axes_1">
   <g class="patch">
    <path d="M 39.55875 234.934125 
L 272.463098 234.934125 
L 272.463098 18.718125 
L 39.55875 18.718125 
L 39.55875 234.934125 
z
" style="fill: none"/>
   </g>
   <g class="axis">
    <g class="tick xtick">
     <g id="line2d_1">
      <path d="M 50.145311 234.934125 
L 50.145311 18.718125 
" clip-path="url(#p6a65a77d0f)" style="fill: none; stroke: #b0b0b0; stroke-opacity: 0.25; stroke-width: 0.5; stroke-linecap: square"/>
     </g>
     <g id="line2d_2">
      <defs>
       <path id="m1493e82a40" d="M 0 0 
L 0 3.5 
" style="stroke:var(--black); stroke-width: 0.8"/>
      </defs>
      <g>
       <use xlink:href="#m1493e82a40" x="50.145311" y="234.934125" style="stroke:var(--black); stroke-width: 0.8"/>
      </g>
     </g>
     <g id="text_1" class="text">
      <!-- 0 -->
      <g transform="translate(47.282186 248.772719) scale(0.09 -0.09)">
       <defs>
        <path id="DejaVuSerif-30" d="M 2034 219 
Q 2513 219 2750 744 
Q 2988 1269 2988 2328 
Q 2988 3391 2750 3916 
Q 2513 4441 2034 4441 
Q 1556 4441 1318 3916 
Q 1081 3391 1081 2328 
Q 1081 1269 1318 744 
Q 1556 219 2034 219 
z
M 2034 -91 
Q 1275 -91 848 546 
Q 422 1184 422 2328 
Q 422 3475 848 4112 
Q 1275 4750 2034 4750 
Q 2797 4750 3222 4112 
Q 3647 3475 3647 2328 
Q 3647 1184 3222 546 
Q 2797 -91 2034 -91 
z
" transform="scale(0.015625)"/>
       </defs>
       <use xlink:href="#DejaVuSerif-30"/>
      </g>
     </g>
    </g>
    <g class="tick xtick">
     <g id="line2d_3">
      <path d="M 92.491556 234.934125 
L 92.491556 18.718125 
" clip-path="url(#p6a65a77d0f)" style="fill: none; stroke: #b0b0b0; stroke-opacity: 0.25; stroke-width: 0.5; stroke-linecap: square"/>
     </g>
     <g id="line2d_4">
      <g>
       <use xlink:href="#m1493e82a40" x="92.491556" y="234.934125" style="stroke:var(--black); stroke-width: 0.8"/>
      </g>
     </g>
     <g id="text_2" class="text">
      <!-- 1 -->
      <g transform="translate(89.628431 248.772719) scale(0.09 -0.09)">
       <defs>
        <path id="DejaVuSerif-31" d="M 909 0 
L 909 331 
L 1722 331 
L 1722 4213 
L 781 3603 
L 781 4013 
L 1919 4750 
L 2350 4750 
L 2350 331 
L 3163 331 
L 3163 0 
L 909 0 
z
" transform="scale(0.015625)"/>
       </defs>
       <use xlink:href="#DejaVuSerif-31"/>
      </g>
     </g>
    </g>
    <g class="tick xtick">
     <g id="line2d_5">
      <path d="M 134.837801 234.934125 
L 134.837801 18.718125 
" clip-path="url(#p6a65a77d0f)" style="fill: none; stroke: #b0b0b0; stroke-opacity: 0.25; stroke-width: 0.5; stroke-linecap: square"/>
     </g>
     <g id="line2d_6">
      <g>
       <use xlink:href="#m1493e82a40" x="134.837801" y="234.934125" style="stroke:var(--black); stroke-width: 0.8"/>
      </g>
     </g>
     <g id="text_3" class="text">
      <!-- 2 -->
      <g transform="translate(131.974676 248.772719) scale(0.09 -0.09)">
       <defs>
        <path id="DejaVuSerif-32" d="M 819 3553 
L 469 3553 
L 469 4384 
Q 803 4563 1142 4656 
Q 1481 4750 1806 4750 
Q 2534 4750 2956 4397 
Q 3378 4044 3378 3438 
Q 3378 2753 2422 1800 
Q 2347 1728 2309 1691 
L 1131 513 
L 3078 513 
L 3078 1088 
L 3444 1088 
L 3444 0 
L 434 0 
L 434 341 
L 1850 1753 
Q 2319 2222 2519 2614 
Q 2719 3006 2719 3438 
Q 2719 3909 2473 4175 
Q 2228 4441 1797 4441 
Q 1350 4441 1106 4219 
Q 863 3997 819 3553 
z
" transform="scale(0.015625)"/>
       </defs>
       <use xlink:href="#DejaVuSerif-32"/>
      </g>
     </g>
    </g>
    <g class="tick xtick">
     <g id="line2d_7">
      <path d="M 177.184046 234.934125 
L 177.184046 18.718125 
" clip-path="url(#p6a65a77d0f)" style="fill: none; stroke: #b0b0b0; stroke-opacity: 0.25; stroke-width: 0.5; stroke-linecap: square"/>
     </g>
     <g id="line2d_8">
      <g>
       <use xlink:href="#m1493e82a40" x="177.184046" y="234.934125" style="stroke:var(--black); stroke-width: 0.8"/>
      </g>
     </g>
     <g id="text_4" class="text">
      <!-- 3 -->
      <g transform="translate(174.320921 248.772719) scale(0.09 -0.09)">
       <defs>
        <path id="DejaVuSerif-33" d="M 622 4469 
Q 988 4606 1323 4678 
Q 1659 4750 1953 4750 
Q 2638 4750 3022 4454 
Q 3406 4159 3406 3634 
Q 3406 3213 3140 2930 
Q 2875 2647 2388 2547 
Q 2963 2466 3280 2130 
Q 3597 1794 3597 1259 
Q 3597 606 3158 257 
Q 2719 -91 1894 -91 
Q 1528 -91 1179 -12 
Q 831 66 488 225 
L 488 1131 
L 838 1131 
Q 869 681 1141 450 
Q 1413 219 1906 219 
Q 2384 219 2661 495 
Q 2938 772 2938 1253 
Q 2938 1803 2653 2086 
Q 2369 2369 1819 2369 
L 1522 2369 
L 1522 2688 
L 1678 2688 
Q 2225 2688 2498 2914 
Q 2772 3141 2772 3597 
Q 2772 4006 2547 4223 
Q 2322 4441 1900 4441 
Q 1478 4441 1245 4241 
Q 1013 4041 972 3647 
L 622 3647 
L 622 4469 
z
" transform="scale(0.015625)"/>
       </defs>
       <use xlink:href="#DejaVuSerif-33"/>
      </g>
     </g>
    </g>
    <g class="tick xtick">
     <g id="line2d_9">
      <path d="M 219.530292 234.934125 
L 219.530292 18.718125 
" clip-path="url(#p6a65a77d0f)" style="fill: none; stroke: #b0b0b0; stroke-opacity: 0.25; stroke-width: 0.5; stroke-linecap: square"/>
     </g>
     <g id="line2d_10">
      <g>
       <use xlink:href="#m1493e82a40" x="219.530292" y="234.934125" style="stroke:var(--black); stroke-width: 0.8"/>
      </g>
     </g>
     <g id="text_5" class="text">
      <!-- 4 -->
      <g transform="translate(216.667167 248.772719) scale(0.09 -0.09)">
       <defs>
        <path id="DejaVuSerif-34" d="M 2234 1581 
L 2234 4063 
L 641 1581 
L 2234 1581 
z
M 3609 0 
L 1484 0 
L 1484 331 
L 2234 331 
L 2234 1247 
L 197 1247 
L 197 1588 
L 2241 4750 
L 2859 4750 
L 2859 1581 
L 3750 1581 
L 3750 1247 
L 2859 1247 
L 2859 331 
L 3609 331 
L 3609 0 
z
" transform="scale(0.015625)"/>
       </defs>
       <use xlink:href="#DejaVuSerif-34"/>
      </g>
     </g>
    </g>
    <g class="tick xtick">
     <g id="line2d_11">
      <path d="M 261.876537 234.934125 
L 261.876537 18.718125 
" clip-path="url(#p6a65a77d0f)" style="fill: none; stroke: #b0b0b0; stroke-opacity: 0.25; stroke-width: 0.5; stroke-linecap: square"/>
     </g>
     <g id="line2d_12">
      <g>
       <use xlink:href="#m1493e82a40" x="261.876537" y="234.934125" style="stroke:var(--black); stroke-width: 0.8"/>
      </g>
     </g>
     <g id="text_6" class="text">
      <!-- 5 -->
      <g transform="translate(259.013412 248.772719) scale(0.09 -0.09)">
       <defs>
        <path id="DejaVuSerif-35" d="M 3219 4666 
L 3219 4153 
L 1081 4153 
L 1081 2816 
Q 1244 2928 1461 2984 
Q 1678 3041 1947 3041 
Q 2703 3041 3140 2622 
Q 3578 2203 3578 1478 
Q 3578 738 3136 323 
Q 2694 -91 1894 -91 
Q 1572 -91 1234 -12 
Q 897 66 544 225 
L 544 1131 
L 897 1131 
Q 925 688 1179 453 
Q 1434 219 1894 219 
Q 2388 219 2653 544 
Q 2919 869 2919 1478 
Q 2919 2084 2655 2407 
Q 2391 2731 1894 2731 
Q 1613 2731 1398 2631 
Q 1184 2531 1019 2322 
L 750 2322 
L 750 4666 
L 3219 4666 
z
" transform="scale(0.015625)"/>
       </defs>
       <use xlink:href="#DejaVuSerif-35"/>
      </g>
     </g>
    </g>
    <g id="text_7" class="text">
     <!-- t -->
     <g transform="translate(153.800611 263.002719) scale(0.11 -0.11)">
      <defs>
       <path id="DejaVuSerif-74" d="M 691 2988 
L 184 2988 
L 184 3322 
L 691 3322 
L 691 4353 
L 1269 4353 
L 1269 3322 
L 2350 3322 
L 2350 2988 
L 1269 2988 
L 1269 878 
Q 1269 456 1350 337 
Q 1431 219 1650 219 
Q 1875 219 1978 351 
Q 2081 484 2088 781 
L 2522 781 
Q 2497 328 2275 118 
Q 2053 -91 1600 -91 
Q 1103 -91 897 129 
Q 691 350 691 878 
L 691 2988 
z
" transform="scale(0.015625)"/>
      </defs>
      <use xlink:href="#DejaVuSerif-74"/>
     </g>
    </g>
   </g>
   <g class="axis">
    <g class="tick ytick">
     <g id="line2d_13">
      <path d="M 39.55875 225.23172 
L 272.463098 225.23172 
" clip-path="url(#p6a65a77d0f)" style="fill: none; stroke: #b0b0b0; stroke-opacity: 0.25; stroke-width: 0.5; stroke-linecap: square"/>
     </g>
     <g id="line2d_14">
      <defs>
       <path id="m6d4537b5af" d="M 0 0 
L -3.5 0 
" style="stroke:var(--black); stroke-width: 0.8"/>
      </defs>
      <g>
       <use xlink:href="#m6d4537b5af" x="39.55875" y="225.23172" style="stroke:var(--black); stroke-width: 0.8"/>
      </g>
     </g>
     <g id="text_8" class="text">
      <!-- 0.0 -->
      <g transform="translate(18.245938 228.651017) scale(0.09 -0.09)">
       <defs>
        <path id="DejaVuSerif-2e" d="M 603 325 
Q 603 500 722 622 
Q 841 744 1019 744 
Q 1191 744 1312 622 
Q 1434 500 1434 325 
Q 1434 153 1312 31 
Q 1191 -91 1019 -91 
Q 841 -91 722 29 
Q 603 150 603 325 
z
" transform="scale(0.015625)"/>
       </defs>
       <use xlink:href="#DejaVuSerif-30"/>
       <use xlink:href="#DejaVuSerif-2e" transform="translate(63.623047 0)"/>
       <use xlink:href="#DejaVuSerif-30" transform="translate(95.410156 0)"/>
      </g>
     </g>
    </g>
    <g class="tick ytick">
     <g id="line2d_15">
      <path d="M 39.55875 200.646021 
L 272.463098 200.646021 
" clip-path="url(#p6a65a77d0f)" style="fill: none; stroke: #b0b0b0; stroke-opacity: 0.25; stroke-width: 0.5; stroke-linecap: square"/>
     </g>
     <g id="line2d_16">
      <g>
       <use xlink:href="#m6d4537b5af" x="39.55875" y="200.646021" style="stroke:var(--black); stroke-width: 0.8"/>
      </g>
     </g>
     <g id="text_9" class="text">
      <!-- 0.2 -->
      <g transform="translate(18.245938 204.065318) scale(0.09 -0.09)">
       <use xlink:href="#DejaVuSerif-30"/>
       <use xlink:href="#DejaVuSerif-2e" transform="translate(63.623047 0)"/>
       <use xlink:href="#DejaVuSerif-32" transform="translate(95.410156 0)"/>
      </g>
     </g>
    </g>
    <g class="tick ytick">
     <g id="line2d_17">
      <path d="M 39.55875 176.060321 
L 272.463098 176.060321 
" clip-path="url(#p6a65a77d0f)" style="fill: none; stroke: #b0b0b0; stroke-opacity: 0.25; stroke-width: 0.5; stroke-linecap: square"/>
     </g>
     <g id="line2d_18">
      <g>
       <use xlink:href="#m6d4537b5af" x="39.55875" y="176.060321" style="stroke:var(--black); stroke-width: 0.8"/>
      </g>
     </g>
     <g id="text_10" class="text">
      <!-- 0.4 -->
      <g transform="translate(18.245938 179.479618) scale(0.09 -0.09)">
       <use xlink:href="#DejaVuSerif-30"/>
       <use xlink:href="#DejaVuSerif-2e" transform="translate(63.623047 0)"/>
       <use xlink:href="#DejaVuSerif-34" transform="translate(95.410156 0)"/>
      </g>
     </g>
    </g>
    <g class="tick ytick">
     <g id="line2d_19">
      <path d="M 39.55875 151.474622 
L 272.463098 151.474622 
" clip-path="url(#p6a65a77d0f)" style="fill: none; stroke: #b0b0b0; stroke-opacity: 0.25; stroke-width: 0.5; stroke-linecap: square"/>
     </g>
     <g id="line2d_20">
      <g>
       <use xlink:href="#m6d4537b5af" x="39.55875" y="151.474622" style="stroke:var(--black); stroke-width: 0.8"/>
      </g>
     </g>
     <g id="text_11" class="text">
      <!-- 0.6 -->
      <g transform="translate(18.245938 154.893919) scale(0.09 -0.09)">
       <defs>
        <path id="DejaVuSerif-36" d="M 2094 219 
Q 2534 219 2771 542 
Q 3009 866 3009 1472 
Q 3009 2078 2771 2401 
Q 2534 2725 2094 2725 
Q 1647 2725 1412 2412 
Q 1178 2100 1178 1509 
Q 1178 888 1415 553 
Q 1653 219 2094 219 
z
M 1075 2569 
Q 1288 2803 1556 2918 
Q 1825 3034 2163 3034 
Q 2859 3034 3264 2615 
Q 3669 2197 3669 1472 
Q 3669 763 3233 336 
Q 2797 -91 2069 -91 
Q 1278 -91 853 498 
Q 428 1088 428 2181 
Q 428 3406 931 4078 
Q 1434 4750 2350 4750 
Q 2597 4750 2869 4703 
Q 3141 4656 3425 4563 
L 3425 3794 
L 3072 3794 
Q 3034 4109 2831 4275 
Q 2628 4441 2284 4441 
Q 1678 4441 1381 3981 
Q 1084 3522 1075 2569 
z
" transform="scale(0.015625)"/>
       </defs>
       <use xlink:href="#DejaVuSerif-30"/>
       <use xlink:href="#DejaVuSerif-2e" transform="translate(63.623047 0)"/>
       <use xlink:href="#DejaVuSerif-36" transform="translate(95.410156 0)"/>
      </g>
     </g>
    </g>
    <g class="tick ytick">
     <g id="line2d_21">
      <path d="M 39.55875 126.888923 
L 272.463098 126.888923 
" clip-path="url(#p6a65a77d0f)" style="fill: none; stroke: #b0b0b0; stroke-opacity: 0.25; stroke-width: 0.5; stroke-linecap: square"/>
     </g>
     <g id="line2d_22">
      <g>
       <use xlink:href="#m6d4537b5af" x="39.55875" y="126.888923" style="stroke:var(--black); stroke-width: 0.8"/>
      </g>
     </g>
     <g id="text_12" class="text">
      <!-- 0.8 -->
      <g transform="translate(18.245938 130.308219) scale(0.09 -0.09)">
       <defs>
        <path id="DejaVuSerif-38" d="M 2981 1275 
Q 2981 1775 2732 2051 
Q 2484 2328 2034 2328 
Q 1584 2328 1336 2051 
Q 1088 1775 1088 1275 
Q 1088 772 1336 495 
Q 1584 219 2034 219 
Q 2484 219 2732 495 
Q 2981 772 2981 1275 
z
M 2853 3541 
Q 2853 3966 2637 4203 
Q 2422 4441 2034 4441 
Q 1650 4441 1433 4203 
Q 1216 3966 1216 3541 
Q 1216 3113 1433 2875 
Q 1650 2638 2034 2638 
Q 2422 2638 2637 2875 
Q 2853 3113 2853 3541 
z
M 2516 2484 
Q 3047 2413 3344 2092 
Q 3641 1772 3641 1275 
Q 3641 619 3225 264 
Q 2809 -91 2034 -91 
Q 1263 -91 845 264 
Q 428 619 428 1275 
Q 428 1772 725 2092 
Q 1022 2413 1556 2484 
Q 1084 2569 832 2842 
Q 581 3116 581 3541 
Q 581 4103 968 4426 
Q 1356 4750 2034 4750 
Q 2713 4750 3100 4426 
Q 3488 4103 3488 3541 
Q 3488 3116 3236 2842 
Q 2984 2569 2516 2484 
z
" transform="scale(0.015625)"/>
       </defs>
       <use xlink:href="#DejaVuSerif-30"/>
       <use xlink:href="#DejaVuSerif-2e" transform="translate(63.623047 0)"/>
       <use xlink:href="#DejaVuSerif-38" transform="translate(95.410156 0)"/>
      </g>
     </g>
    </g>
    <g class="tick ytick">
     <g id="line2d_23">
      <path d="M 39.55875 102.303223 
L 272.463098 102.303223 
" clip-path="url(#p6a65a77d0f)" style="fill: none; stroke: #b0b0b0; stroke-opacity: 0.25; stroke-width: 0.5; stroke-linecap: square"/>
     </g>
     <g id="line2d_24">
      <g>
       <use xlink:href="#m6d4537b5af" x="39.55875" y="102.303223" style="stroke:var(--black); stroke-width: 0.8"/>
      </g>
     </g>
     <g id="text_13" class="text">
      <!-- 1.0 -->
      <g transform="translate(18.245938 105.72252) scale(0.09 -0.09)">
       <use xlink:href="#DejaVuSerif-31"/>
       <use xlink:href="#DejaVuSerif-2e" transform="translate(63.623047 0)"/>
       <use xlink:href="#DejaVuSerif-30" transform="translate(95.410156 0)"/>
      </g>
     </g>
    </g>
    <g class="tick ytick">
     <g id="line2d_25">
      <path d="M 39.55875 77.717524 
L 272.463098 77.717524 
" clip-path="url(#p6a65a77d0f)" style="fill: none; stroke: #b0b0b0; stroke-opacity: 0.25; stroke-width: 0.5; stroke-linecap: square"/>
     </g>
     <g id="line2d_26">
      <g>
       <use xlink:href="#m6d4537b5af" x="39.55875" y="77.717524" style="stroke:var(--black); stroke-width: 0.8"/>
      </g>
     </g>
     <g id="text_14" class="text">
      <!-- 1.2 -->
      <g transform="translate(18.245938 81.136821) scale(0.09 -0.09)">
       <use xlink:href="#DejaVuSerif-31"/>
       <use xlink:href="#DejaVuSerif-2e" transform="translate(63.623047 0)"/>
       <use xlink:href="#DejaVuSerif-32" transform="translate(95.410156 0)"/>
      </g>
     </g>
    </g>
    <g class="tick ytick">
     <g id="line2d_27">
      <path d="M 39.55875 53.131824 
L 272.463098 53.131824 
" clip-path="url(#p6a65a77d0f)" style="fill: none; stroke: #b0b0b0; stroke-opacity: 0.25; stroke-width: 0.5; stroke-linecap: square"/>
     </g>
     <g id="line2d_28">
      <g>
       <use xlink:href="#m6d4537b5af" x="39.55875" y="53.131824" style="stroke:var(--black); stroke-width: 0.8"/>
      </g>
     </g>
     <g id="text_15" class="text">
      <!-- 1.4 -->
      <g transform="translate(18.245938 56.551121) scale(0.09 -0.09)">
       <use xlink:href="#DejaVuSerif-31"/>
       <use xlink:href="#DejaVuSerif-2e" transform="translate(63.623047 0)"/>
       <use xlink:href="#DejaVuSerif-34" transform="translate(95.410156 0)"/>
      </g>
     </g>
    </g>
    <g class="tick ytick">
     <g id="line2d_29">
      <path d="M 39.55875 28.546125 
L 272.463098 28.546125 
" clip-path="url(#p6a65a77d0f)" style="fill: none; stroke: #b0b0b0; stroke-opacity: 0.25; stroke-width: 0.5; stroke-linecap: square"/>
     </g>
     <g id="line2d_30">
      <g>
       <use xlink:href="#m6d4537b5af" x="39.55875" y="28.546125" style="stroke:var(--black); stroke-width: 0.8"/>
      </g>
     </g>
     <g id="text_16" class="text">
      <!-- 1.6 -->
      <g transform="translate(18.245938 31.965422) scale(0.09 -0.09)">
       <use xlink:href="#DejaVuSerif-31"/>
       <use xlink:href="#DejaVuSerif-2e" transform="translate(63.623047 0)"/>
       <use xlink:href="#DejaVuSerif-36" transform="translate(95.410156 0)"/>
      </g>
     </g>
    </g>
    <g id="text_17" class="text">
     <!-- x(t) -->
     <g transform="translate(11.958281 136.429641) rotate(-90) scale(0.11 -0.11)">
      <defs>
       <path id="DejaVuSerif-78" d="M 1863 2028 
L 2559 2988 
L 2113 2988 
L 2113 3322 
L 3391 3322 
L 3391 2988 
L 2950 2988 
L 2059 1759 
L 3097 331 
L 3531 331 
L 3531 0 
L 1997 0 
L 1997 331 
L 2419 331 
L 1697 1325 
L 972 331 
L 1403 331 
L 1403 0 
L 141 0 
L 141 331 
L 581 331 
L 1497 1594 
L 488 2988 
L 78 2988 
L 78 3322 
L 1563 3322 
L 1563 2988 
L 1166 2988 
L 1863 2028 
z
" transform="scale(0.015625)"/>
       <path id="DejaVuSerif-28" d="M 2041 -997 
Q 1281 -656 893 83 
Q 506 822 506 1931 
Q 506 3044 893 3783 
Q 1281 4522 2041 4863 
L 2041 4556 
Q 1559 4225 1350 3623 
Q 1141 3022 1141 1931 
Q 1141 844 1350 242 
Q 1559 -359 2041 -691 
L 2041 -997 
z
" transform="scale(0.015625)"/>
       <path id="DejaVuSerif-29" d="M 453 -997 
L 453 -691 
Q 934 -359 1145 242 
Q 1356 844 1356 1931 
Q 1356 3022 1145 3623 
Q 934 4225 453 4556 
L 453 4863 
Q 1216 4522 1603 3783 
Q 1991 3044 1991 1931 
Q 1991 822 1603 83 
Q 1216 -656 453 -997 
z
" transform="scale(0.015625)"/>
      </defs>
      <use xlink:href="#DejaVuSerif-78"/>
      <use xlink:href="#DejaVuSerif-28" transform="translate(56.396484 0)"/>
      <use xlink:href="#DejaVuSerif-74" transform="translate(95.410156 0)"/>
      <use xlink:href="#DejaVuSerif-29" transform="translate(135.595703 0)"/>
     </g>
    </g>
   </g>
   <g id="line2d_31">
    <path d="M 50.145311 194.499596 
L 54.401215 197.716048 
L 58.657119 200.595863 
L 62.913023 203.174275 
L 67.168927 205.482827 
L 71.424831 207.549764 
L 75.680735 209.400374 
L 81.000615 211.443688 
L 86.320495 213.223277 
L 91.640376 214.773178 
L 98.024232 216.371338 
L 104.408088 217.725284 
L 111.85592 219.045691 
L 119.303752 220.133833 
L 127.81556 221.145091 
L 137.391344 222.045049 
L 148.031104 222.814556 
L 160.798816 223.496843 
L 175.69448 224.053504 
L 193.782072 224.495221 
L 217.189544 224.830758 
L 250.1728 225.061502 
L 261.876537 225.106125 
L 261.876537 225.106125 
" clip-path="url(#p6a65a77d0f)" style="fill: none; stroke: #ff0001; stroke-width: 2; stroke-linecap: square"/>
   </g>
   <g id="line2d_32">
    <path d="M 50.145311 139.181772 
L 53.337239 146.028786 
L 56.529167 152.330982 
L 59.721095 158.13171 
L 62.913023 163.470873 
L 66.104951 168.385197 
L 69.296879 172.908488 
L 72.488807 177.07186 
L 75.680735 180.903951 
L 78.872663 184.431121 
L 82.064591 187.677634 
L 85.256519 190.665821 
L 88.448447 193.416238 
L 92.704352 196.746075 
L 96.960256 199.727409 
L 101.21616 202.396713 
L 105.472064 204.786646 
L 109.727968 206.926446 
L 113.983872 208.842293 
L 119.303752 210.957637 
L 124.623632 212.799959 
L 129.943512 214.404497 
L 135.263392 215.801941 
L 141.647248 217.242897 
L 148.031104 218.463661 
L 155.478936 219.654185 
L 163.990744 220.760589 
L 172.502552 221.647518 
L 183.142312 222.51302 
L 194.846048 223.225738 
L 208.677736 223.831209 
L 225.701352 224.331732 
L 246.980872 224.713905 
L 261.876537 224.880054 
L 261.876537 224.880054 
" clip-path="url(#p6a65a77d0f)" style="fill: none; stroke: #00ff02; stroke-width: 2; stroke-linecap: square"/>
   </g>
   <g id="line2d_33">
    <path d="M 50.145311 90.010373 
L 53.337239 100.769967 
L 56.529167 110.673417 
L 59.721095 119.788847 
L 62.913023 128.17896 
L 66.104951 135.90147 
L 69.296879 143.009498 
L 72.488807 149.551939 
L 75.680735 155.573796 
L 78.872663 161.116493 
L 82.064591 166.218156 
L 85.256519 170.913879 
L 88.448447 175.235962 
L 91.640376 179.214136 
L 94.832304 182.875765 
L 98.024232 186.246038 
L 101.21616 189.348138 
L 104.408088 192.203403 
L 108.663992 195.660176 
L 112.919896 198.755161 
L 117.1758 201.526222 
L 121.431704 204.007261 
L 125.687608 206.228632 
L 129.943512 208.217513 
L 134.199416 209.998235 
L 139.519296 211.964385 
L 144.839176 213.676769 
L 150.159056 215.168139 
L 156.542912 216.705945 
L 162.926768 218.00876 
L 170.3746 219.279303 
L 177.822432 220.326352 
L 186.33424 221.29942 
L 195.910024 222.165392 
L 206.549784 222.905839 
L 219.317496 223.56236 
L 234.21316 224.097998 
L 252.300753 224.523035 
L 261.876537 224.679101 
L 261.876537 224.679101 
" clip-path="url(#p6a65a77d0f)" style="fill: none; stroke: #0000ff; stroke-width: 2; stroke-linecap: square"/>
   </g>
   <g id="line2d_34">
    <path d="M 50.145311 28.546125 
L 53.337239 44.196442 
L 56.529167 58.60146 
L 59.721095 71.860268 
L 62.913023 84.064069 
L 66.104951 95.296811 
L 69.296879 105.635761 
L 72.488807 115.152039 
L 75.680735 123.911104 
L 78.872663 131.973208 
L 82.064591 139.393809 
L 85.256519 146.223951 
L 88.448447 152.510617 
L 91.640376 158.297052 
L 94.832304 163.623059 
L 98.024232 168.525274 
L 101.21616 173.037419 
L 104.408088 177.190531 
L 107.600016 181.013179 
L 110.791944 184.531659 
L 113.983872 187.770172 
L 117.1758 190.750996 
L 120.367728 193.494635 
L 124.623632 196.816267 
L 128.879536 199.790254 
L 133.13544 202.452981 
L 137.391344 204.837025 
L 141.647248 206.971552 
L 145.903152 208.882678 
L 151.223032 210.99281 
L 156.542912 212.830593 
L 161.862792 214.431177 
L 167.182672 215.825177 
L 173.566528 217.262582 
L 179.950384 218.480338 
L 187.398216 219.667928 
L 195.910024 220.771606 
L 204.421832 221.65635 
L 215.061592 222.519719 
L 226.765328 223.230681 
L 240.597016 223.83466 
L 257.620633 224.33395 
L 261.876537 224.427911 
L 261.876537 224.427911 
" clip-path="url(#p6a65a77d0f)" style="fill: none; stroke: #ff00ff; stroke-width: 2; stroke-linecap: square"/>
   </g>
   <g class="patch">
    <path d="M 39.55875 234.934125 
L 39.55875 18.718125 
" style="fill: none; stroke:var(--black); stroke-width: 0.8; stroke-linejoin: miter; stroke-linecap: square"/>
   </g>
   <g class="patch">
    <path d="M 39.55875 234.934125 
L 272.463098 234.934125 
" style="fill: none; stroke:var(--black); stroke-width: 0.8; stroke-linejoin: miter; stroke-linecap: square"/>
   </g>
   <g id="text_18" class="text">
    <!-- Stable linear ODE: dx/dt = -1.1x -->
    <g transform="translate(57.758111 12.718125) scale(0.12 -0.12)">
     <defs>
      <path id="DejaVuSerif-53" d="M 594 225 
L 594 1288 
L 953 1284 
Q 969 753 1261 498 
Q 1553 244 2150 244 
Q 2706 244 2998 464 
Q 3291 684 3291 1106 
Q 3291 1444 3114 1625 
Q 2938 1806 2369 1978 
L 1753 2163 
Q 1084 2366 811 2669 
Q 538 2972 538 3500 
Q 538 4094 959 4422 
Q 1381 4750 2144 4750 
Q 2469 4750 2856 4679 
Q 3244 4609 3681 4475 
L 3681 3481 
L 3328 3481 
Q 3275 3975 2998 4195 
Q 2722 4416 2156 4416 
Q 1663 4416 1405 4214 
Q 1147 4013 1147 3628 
Q 1147 3294 1340 3103 
Q 1534 2913 2163 2725 
L 2741 2553 
Q 3375 2363 3645 2067 
Q 3916 1772 3916 1275 
Q 3916 597 3481 253 
Q 3047 -91 2188 -91 
Q 1803 -91 1404 -12 
Q 1006 66 594 225 
z
" transform="scale(0.015625)"/>
      <path id="DejaVuSerif-61" d="M 2547 1044 
L 2547 1747 
L 1806 1747 
Q 1378 1747 1168 1562 
Q 959 1378 959 997 
Q 959 650 1171 447 
Q 1384 244 1747 244 
Q 2106 244 2326 466 
Q 2547 688 2547 1044 
z
M 3122 2075 
L 3122 331 
L 3634 331 
L 3634 0 
L 2547 0 
L 2547 359 
Q 2356 128 2106 18 
Q 1856 -91 1522 -91 
Q 969 -91 644 203 
Q 319 497 319 997 
Q 319 1513 691 1797 
Q 1063 2081 1741 2081 
L 2547 2081 
L 2547 2309 
Q 2547 2688 2317 2895 
Q 2088 3103 1672 3103 
Q 1328 3103 1125 2947 
Q 922 2791 872 2484 
L 575 2484 
L 575 3156 
Q 875 3284 1158 3348 
Q 1441 3413 1709 3413 
Q 2400 3413 2761 3070 
Q 3122 2728 3122 2075 
z
" transform="scale(0.015625)"/>
      <path id="DejaVuSerif-62" d="M 738 331 
L 738 4531 
L 184 4531 
L 184 4863 
L 1313 4863 
L 1313 2803 
Q 1481 3116 1742 3264 
Q 2003 3413 2388 3413 
Q 3000 3413 3387 2928 
Q 3775 2444 3775 1663 
Q 3775 881 3387 395 
Q 3000 -91 2388 -91 
Q 2003 -91 1742 57 
Q 1481 206 1313 519 
L 1313 0 
L 184 0 
L 184 331 
L 738 331 
z
M 1313 1497 
Q 1313 897 1542 583 
Q 1772 269 2209 269 
Q 2650 269 2876 622 
Q 3103 975 3103 1663 
Q 3103 2353 2876 2703 
Q 2650 3053 2209 3053 
Q 1772 3053 1542 2737 
Q 1313 2422 1313 1825 
L 1313 1497 
z
" transform="scale(0.015625)"/>
      <path id="DejaVuSerif-6c" d="M 1313 331 
L 1856 331 
L 1856 0 
L 184 0 
L 184 331 
L 738 331 
L 738 4531 
L 184 4531 
L 184 4863 
L 1313 4863 
L 1313 331 
z
" transform="scale(0.015625)"/>
      <path id="DejaVuSerif-65" d="M 3469 1600 
L 991 1600 
L 991 1575 
Q 991 903 1244 561 
Q 1497 219 1991 219 
Q 2369 219 2611 417 
Q 2853 616 2950 1006 
L 3413 1006 
Q 3275 459 2904 184 
Q 2534 -91 1931 -91 
Q 1203 -91 761 389 
Q 319 869 319 1663 
Q 319 2450 753 2931 
Q 1188 3413 1894 3413 
Q 2647 3413 3050 2948 
Q 3453 2484 3469 1600 
z
M 2791 1931 
Q 2772 2513 2545 2808 
Q 2319 3103 1894 3103 
Q 1497 3103 1269 2806 
Q 1041 2509 991 1931 
L 2791 1931 
z
" transform="scale(0.015625)"/>
      <path id="DejaVuSerif-20" transform="scale(0.015625)"/>
      <path id="DejaVuSerif-69" d="M 622 4353 
Q 622 4497 726 4603 
Q 831 4709 978 4709 
Q 1122 4709 1226 4603 
Q 1331 4497 1331 4353 
Q 1331 4206 1228 4103 
Q 1125 4000 978 4000 
Q 831 4000 726 4103 
Q 622 4206 622 4353 
z
M 1356 331 
L 1900 331 
L 1900 0 
L 231 0 
L 231 331 
L 781 331 
L 781 2988 
L 231 2988 
L 231 3322 
L 1356 3322 
L 1356 331 
z
" transform="scale(0.015625)"/>
      <path id="DejaVuSerif-6e" d="M 263 0 
L 263 331 
L 781 331 
L 781 2988 
L 231 2988 
L 231 3322 
L 1356 3322 
L 1356 2731 
Q 1516 3069 1770 3241 
Q 2025 3413 2363 3413 
Q 2913 3413 3172 3097 
Q 3431 2781 3431 2113 
L 3431 331 
L 3944 331 
L 3944 0 
L 2356 0 
L 2356 331 
L 2853 331 
L 2853 1931 
Q 2853 2541 2703 2767 
Q 2553 2994 2175 2994 
Q 1775 2994 1565 2701 
Q 1356 2409 1356 1850 
L 1356 331 
L 1856 331 
L 1856 0 
L 263 0 
z
" transform="scale(0.015625)"/>
      <path id="DejaVuSerif-72" d="M 3059 3328 
L 3059 2497 
L 2728 2497 
Q 2713 2744 2591 2866 
Q 2469 2988 2234 2988 
Q 1809 2988 1582 2694 
Q 1356 2400 1356 1850 
L 1356 331 
L 2022 331 
L 2022 0 
L 263 0 
L 263 331 
L 781 331 
L 781 2994 
L 231 2994 
L 231 3322 
L 1356 3322 
L 1356 2731 
Q 1525 3078 1790 3245 
Q 2056 3413 2438 3413 
Q 2578 3413 2733 3391 
Q 2888 3369 3059 3328 
z
" transform="scale(0.015625)"/>
      <path id="DejaVuSerif-4f" d="M 2625 244 
Q 3391 244 3781 770 
Q 4172 1297 4172 2328 
Q 4172 3363 3781 3889 
Q 3391 4416 2625 4416 
Q 1856 4416 1465 3889 
Q 1075 3363 1075 2328 
Q 1075 1297 1465 770 
Q 1856 244 2625 244 
z
M 2625 -91 
Q 2150 -91 1751 65 
Q 1353 222 1050 525 
Q 700 875 529 1319 
Q 359 1763 359 2328 
Q 359 2894 529 3339 
Q 700 3784 1050 4134 
Q 1356 4441 1750 4595 
Q 2144 4750 2625 4750 
Q 3641 4750 4266 4084 
Q 4891 3419 4891 2328 
Q 4891 1769 4719 1320 
Q 4547 872 4197 525 
Q 3891 219 3497 64 
Q 3103 -91 2625 -91 
z
" transform="scale(0.015625)"/>
      <path id="DejaVuSerif-44" d="M 1581 331 
L 2163 331 
Q 3072 331 3558 850 
Q 4044 1369 4044 2338 
Q 4044 3306 3559 3818 
Q 3075 4331 2163 4331 
L 1581 4331 
L 1581 331 
z
M 353 0 
L 353 331 
L 947 331 
L 947 4331 
L 353 4331 
L 353 4666 
L 2209 4666 
Q 3416 4666 4089 4050 
Q 4763 3434 4763 2338 
Q 4763 1238 4088 619 
Q 3413 0 2209 0 
L 353 0 
z
" transform="scale(0.015625)"/>
      <path id="DejaVuSerif-45" d="M 353 0 
L 353 331 
L 947 331 
L 947 4331 
L 353 4331 
L 353 4666 
L 4109 4666 
L 4109 3628 
L 3725 3628 
L 3725 4281 
L 1581 4281 
L 1581 2719 
L 3109 2719 
L 3109 3303 
L 3494 3303 
L 3494 1753 
L 3109 1753 
L 3109 2338 
L 1581 2338 
L 1581 384 
L 3775 384 
L 3775 1038 
L 4159 1038 
L 4159 0 
L 353 0 
z
" transform="scale(0.015625)"/>
      <path id="DejaVuSerif-3a" d="M 666 325 
Q 666 500 786 622 
Q 906 744 1081 744 
Q 1256 744 1376 622 
Q 1497 500 1497 325 
Q 1497 150 1378 29 
Q 1259 -91 1081 -91 
Q 903 -91 784 29 
Q 666 150 666 325 
z
M 666 2363 
Q 666 2538 786 2658 
Q 906 2778 1081 2778 
Q 1259 2778 1378 2659 
Q 1497 2541 1497 2363 
Q 1497 2184 1378 2065 
Q 1259 1947 1081 1947 
Q 906 1947 786 2067 
Q 666 2188 666 2363 
z
" transform="scale(0.015625)"/>
      <path id="DejaVuSerif-64" d="M 3359 331 
L 3909 331 
L 3909 0 
L 2784 0 
L 2784 519 
Q 2616 206 2355 57 
Q 2094 -91 1709 -91 
Q 1097 -91 708 395 
Q 319 881 319 1663 
Q 319 2444 706 2928 
Q 1094 3413 1709 3413 
Q 2094 3413 2355 3264 
Q 2616 3116 2784 2803 
L 2784 4531 
L 2241 4531 
L 2241 4863 
L 3359 4863 
L 3359 331 
z
M 2784 1497 
L 2784 1825 
Q 2784 2422 2554 2737 
Q 2325 3053 1888 3053 
Q 1444 3053 1217 2703 
Q 991 2353 991 1663 
Q 991 975 1217 622 
Q 1444 269 1888 269 
Q 2325 269 2554 583 
Q 2784 897 2784 1497 
z
" transform="scale(0.015625)"/>
      <path id="DejaVuSerif-2f" d="M 1656 4666 
L 2156 4666 
L 500 -594 
L 0 -594 
L 1656 4666 
z
" transform="scale(0.015625)"/>
      <path id="DejaVuSerif-3d" d="M 678 2894 
L 4684 2894 
L 4684 2394 
L 678 2394 
L 678 2894 
z
M 678 1619 
L 4684 1619 
L 4684 1119 
L 678 1119 
L 678 1619 
z
" transform="scale(0.015625)"/>
      <path id="DejaVuSerif-2d" d="M 281 1959 
L 1881 1959 
L 1881 1472 
L 281 1472 
L 281 1959 
z
" transform="scale(0.015625)"/>
     </defs>
     <use xlink:href="#DejaVuSerif-53"/>
     <use xlink:href="#DejaVuSerif-74" transform="translate(68.505859 0)"/>
     <use xlink:href="#DejaVuSerif-61" transform="translate(108.691406 0)"/>
     <use xlink:href="#DejaVuSerif-62" transform="translate(168.310547 0)"/>
     <use xlink:href="#DejaVuSerif-6c" transform="translate(232.324219 0)"/>
     <use xlink:href="#DejaVuSerif-65" transform="translate(264.306641 0)"/>
     <use xlink:href="#DejaVuSerif-20" transform="translate(323.486328 0)"/>
     <use xlink:href="#DejaVuSerif-6c" transform="translate(355.273438 0)"/>
     <use xlink:href="#DejaVuSerif-69" transform="translate(387.255859 0)"/>
     <use xlink:href="#DejaVuSerif-6e" transform="translate(419.238281 0)"/>
     <use xlink:href="#DejaVuSerif-65" transform="translate(483.642578 0)"/>
     <use xlink:href="#DejaVuSerif-61" transform="translate(542.822266 0)"/>
     <use xlink:href="#DejaVuSerif-72" transform="translate(602.441406 0)"/>
     <use xlink:href="#DejaVuSerif-20" transform="translate(650.244141 0)"/>
     <use xlink:href="#DejaVuSerif-4f" transform="translate(682.03125 0)"/>
     <use xlink:href="#DejaVuSerif-44" transform="translate(764.013672 0)"/>
     <use xlink:href="#DejaVuSerif-45" transform="translate(844.189453 0)"/>
     <use xlink:href="#DejaVuSerif-3a" transform="translate(917.1875 0)"/>
     <use xlink:href="#DejaVuSerif-20" transform="translate(950.878906 0)"/>
     <use xlink:href="#DejaVuSerif-64" transform="translate(982.666016 0)"/>
     <use xlink:href="#DejaVuSerif-78" transform="translate(1046.679688 0)"/>
     <use xlink:href="#DejaVuSerif-2f" transform="translate(1103.076172 0)"/>
     <use xlink:href="#DejaVuSerif-64" transform="translate(1136.767578 0)"/>
     <use xlink:href="#DejaVuSerif-74" transform="translate(1200.78125 0)"/>
     <use xlink:href="#DejaVuSerif-20" transform="translate(1240.966797 0)"/>
     <use xlink:href="#DejaVuSerif-3d" transform="translate(1272.753906 0)"/>
     <use xlink:href="#DejaVuSerif-20" transform="translate(1356.542969 0)"/>
     <use xlink:href="#DejaVuSerif-2d" transform="translate(1388.330078 0)"/>
     <use xlink:href="#DejaVuSerif-31" transform="translate(1422.119141 0)"/>
     <use xlink:href="#DejaVuSerif-2e" transform="translate(1485.742188 0)"/>
     <use xlink:href="#DejaVuSerif-31" transform="translate(1517.529297 0)"/>
     <use xlink:href="#DejaVuSerif-78" transform="translate(1581.152344 0)"/>
    </g>
   </g>
   <g class="legend">
    <g id="line2d_35">
     <path d="M 208.745598 29.196875 
L 216.745598 29.196875 
L 224.745598 29.196875 
" style="fill: none; stroke: #ff0001; stroke-width: 2; stroke-linecap: square"/>
    </g>
    <g id="text_19" class="text">
     <!-- x0=0.25 -->
     <g transform="translate(231.145598 31.996875) scale(0.08 -0.08)">
      <use xlink:href="#DejaVuSerif-78"/>
      <use xlink:href="#DejaVuSerif-30" transform="translate(56.396484 0)"/>
      <use xlink:href="#DejaVuSerif-3d" transform="translate(120.019531 0)"/>
      <use xlink:href="#DejaVuSerif-30" transform="translate(203.808594 0)"/>
      <use xlink:href="#DejaVuSerif-2e" transform="translate(267.431641 0)"/>
      <use xlink:href="#DejaVuSerif-32" transform="translate(299.21875 0)"/>
      <use xlink:href="#DejaVuSerif-35" transform="translate(362.841797 0)"/>
     </g>
    </g>
    <g id="line2d_36">
     <path d="M 208.745598 40.939375 
L 216.745598 40.939375 
L 224.745598 40.939375 
" style="fill: none; stroke: #00ff02; stroke-width: 2; stroke-linecap: square"/>
    </g>
    <g id="text_20" class="text">
     <!-- x0=0.70 -->
     <g transform="translate(231.145598 43.739375) scale(0.08 -0.08)">
      <defs>
       <path id="DejaVuSerif-37" d="M 3609 4347 
L 1784 0 
L 1319 0 
L 3059 4153 
L 903 4153 
L 903 3578 
L 538 3578 
L 538 4666 
L 3609 4666 
L 3609 4347 
z
" transform="scale(0.015625)"/>
      </defs>
      <use xlink:href="#DejaVuSerif-78"/>
      <use xlink:href="#DejaVuSerif-30" transform="translate(56.396484 0)"/>
      <use xlink:href="#DejaVuSerif-3d" transform="translate(120.019531 0)"/>
      <use xlink:href="#DejaVuSerif-30" transform="translate(203.808594 0)"/>
      <use xlink:href="#DejaVuSerif-2e" transform="translate(267.431641 0)"/>
      <use xlink:href="#DejaVuSerif-37" transform="translate(299.21875 0)"/>
      <use xlink:href="#DejaVuSerif-30" transform="translate(362.841797 0)"/>
     </g>
    </g>
    <g id="line2d_37">
     <path d="M 208.745598 52.681875 
L 216.745598 52.681875 
L 224.745598 52.681875 
" style="fill: none; stroke: #0000ff; stroke-width: 2; stroke-linecap: square"/>
    </g>
    <g id="text_21" class="text">
     <!-- x0=1.10 -->
     <g transform="translate(231.145598 55.481875) scale(0.08 -0.08)">
      <use xlink:href="#DejaVuSerif-78"/>
      <use xlink:href="#DejaVuSerif-30" transform="translate(56.396484 0)"/>
      <use xlink:href="#DejaVuSerif-3d" transform="translate(120.019531 0)"/>
      <use xlink:href="#DejaVuSerif-31" transform="translate(203.808594 0)"/>
      <use xlink:href="#DejaVuSerif-2e" transform="translate(267.431641 0)"/>
      <use xlink:href="#DejaVuSerif-31" transform="translate(299.21875 0)"/>
      <use xlink:href="#DejaVuSerif-30" transform="translate(362.841797 0)"/>
     </g>
    </g>
    <g id="line2d_38">
     <path d="M 208.745598 64.424375 
L 216.745598 64.424375 
L 224.745598 64.424375 
" style="fill: none; stroke: #ff00ff; stroke-width: 2; stroke-linecap: square"/>
    </g>
    <g id="text_22" class="text">
     <!-- x0=1.60 -->
     <g transform="translate(231.145598 67.224375) scale(0.08 -0.08)">
      <use xlink:href="#DejaVuSerif-78"/>
      <use xlink:href="#DejaVuSerif-30" transform="translate(56.396484 0)"/>
      <use xlink:href="#DejaVuSerif-3d" transform="translate(120.019531 0)"/>
      <use xlink:href="#DejaVuSerif-31" transform="translate(203.808594 0)"/>
      <use xlink:href="#DejaVuSerif-2e" transform="translate(267.431641 0)"/>
      <use xlink:href="#DejaVuSerif-36" transform="translate(299.21875 0)"/>
      <use xlink:href="#DejaVuSerif-30" transform="translate(362.841797 0)"/>
     </g>
    </g>
   </g>
  </g>
  <g id="axes_2">
   <g class="patch">
    <path d="M 342.334402 234.934125 
L 575.23875 234.934125 
L 575.23875 18.718125 
L 342.334402 18.718125 
L 342.334402 234.934125 
z
" style="fill: none"/>
   </g>
   <g class="axis">
    <g class="tick xtick">
     <g id="line2d_39">
      <path d="M 352.920963 234.934125 
L 352.920963 18.718125 
" clip-path="url(#p6d3392a154)" style="fill: none; stroke: #b0b0b0; stroke-opacity: 0.25; stroke-width: 0.5; stroke-linecap: square"/>
     </g>
     <g id="line2d_40">
      <g>
       <use xlink:href="#m1493e82a40" x="352.920963" y="234.934125" style="stroke:var(--black); stroke-width: 0.8"/>
      </g>
     </g>
     <g id="text_23" class="text">
      <!-- 0 -->
      <g transform="translate(350.057838 248.772719) scale(0.09 -0.09)">
       <use xlink:href="#DejaVuSerif-30"/>
      </g>
     </g>
    </g>
    <g class="tick xtick">
     <g id="line2d_41">
      <path d="M 395.267208 234.934125 
L 395.267208 18.718125 
" clip-path="url(#p6d3392a154)" style="fill: none; stroke: #b0b0b0; stroke-opacity: 0.25; stroke-width: 0.5; stroke-linecap: square"/>
     </g>
     <g id="line2d_42">
      <g>
       <use xlink:href="#m1493e82a40" x="395.267208" y="234.934125" style="stroke:var(--black); stroke-width: 0.8"/>
      </g>
     </g>
     <g id="text_24" class="text">
      <!-- 1 -->
      <g transform="translate(392.404083 248.772719) scale(0.09 -0.09)">
       <use xlink:href="#DejaVuSerif-31"/>
      </g>
     </g>
    </g>
    <g class="tick xtick">
     <g id="line2d_43">
      <path d="M 437.613454 234.934125 
L 437.613454 18.718125 
" clip-path="url(#p6d3392a154)" style="fill: none; stroke: #b0b0b0; stroke-opacity: 0.25; stroke-width: 0.5; stroke-linecap: square"/>
     </g>
     <g id="line2d_44">
      <g>
       <use xlink:href="#m1493e82a40" x="437.613454" y="234.934125" style="stroke:var(--black); stroke-width: 0.8"/>
      </g>
     </g>
     <g id="text_25" class="text">
      <!-- 2 -->
      <g transform="translate(434.750329 248.772719) scale(0.09 -0.09)">
       <use xlink:href="#DejaVuSerif-32"/>
      </g>
     </g>
    </g>
    <g class="tick xtick">
     <g id="line2d_45">
      <path d="M 479.959699 234.934125 
L 479.959699 18.718125 
" clip-path="url(#p6d3392a154)" style="fill: none; stroke: #b0b0b0; stroke-opacity: 0.25; stroke-width: 0.5; stroke-linecap: square"/>
     </g>
     <g id="line2d_46">
      <g>
       <use xlink:href="#m1493e82a40" x="479.959699" y="234.934125" style="stroke:var(--black); stroke-width: 0.8"/>
      </g>
     </g>
     <g id="text_26" class="text">
      <!-- 3 -->
      <g transform="translate(477.096574 248.772719) scale(0.09 -0.09)">
       <use xlink:href="#DejaVuSerif-33"/>
      </g>
     </g>
    </g>
    <g class="tick xtick">
     <g id="line2d_47">
      <path d="M 522.305944 234.934125 
L 522.305944 18.718125 
" clip-path="url(#p6d3392a154)" style="fill: none; stroke: #b0b0b0; stroke-opacity: 0.25; stroke-width: 0.5; stroke-linecap: square"/>
     </g>
     <g id="line2d_48">
      <g>
       <use xlink:href="#m1493e82a40" x="522.305944" y="234.934125" style="stroke:var(--black); stroke-width: 0.8"/>
      </g>
     </g>
     <g id="text_27" class="text">
      <!-- 4 -->
      <g transform="translate(519.442819 248.772719) scale(0.09 -0.09)">
       <use xlink:href="#DejaVuSerif-34"/>
      </g>
     </g>
    </g>
    <g class="tick xtick">
     <g id="line2d_49">
      <path d="M 564.652189 234.934125 
L 564.652189 18.718125 
" clip-path="url(#p6d3392a154)" style="fill: none; stroke: #b0b0b0; stroke-opacity: 0.25; stroke-width: 0.5; stroke-linecap: square"/>
     </g>
     <g id="line2d_50">
      <g>
       <use xlink:href="#m1493e82a40" x="564.652189" y="234.934125" style="stroke:var(--black); stroke-width: 0.8"/>
      </g>
     </g>
     <g id="text_28" class="text">
      <!-- 5 -->
      <g transform="translate(561.789064 248.772719) scale(0.09 -0.09)">
       <use xlink:href="#DejaVuSerif-35"/>
      </g>
     </g>
    </g>
    <g id="text_29" class="text">
     <!-- t -->
     <g transform="translate(456.576264 263.002719) scale(0.11 -0.11)">
      <use xlink:href="#DejaVuSerif-74"/>
     </g>
    </g>
   </g>
   <g class="axis">
    <g class="tick ytick">
     <g id="line2d_51">
      <path d="M 342.334402 231.447609 
L 575.23875 231.447609 
" clip-path="url(#p6d3392a154)" style="fill: none; stroke: #b0b0b0; stroke-opacity: 0.25; stroke-width: 0.5; stroke-linecap: square"/>
     </g>
     <g id="line2d_52">
      <g>
       <use xlink:href="#m6d4537b5af" x="342.334402" y="231.447609" style="stroke:var(--black); stroke-width: 0.8"/>
      </g>
     </g>
     <g id="text_30" class="text">
      <!-- 0.2 -->
      <g transform="translate(321.02159 234.866906) scale(0.09 -0.09)">
       <use xlink:href="#DejaVuSerif-30"/>
       <use xlink:href="#DejaVuSerif-2e" transform="translate(63.623047 0)"/>
       <use xlink:href="#DejaVuSerif-32" transform="translate(95.410156 0)"/>
      </g>
     </g>
    </g>
    <g class="tick ytick">
     <g id="line2d_53">
      <path d="M 342.334402 206.081672 
L 575.23875 206.081672 
" clip-path="url(#p6d3392a154)" style="fill: none; stroke: #b0b0b0; stroke-opacity: 0.25; stroke-width: 0.5; stroke-linecap: square"/>
     </g>
     <g id="line2d_54">
      <g>
       <use xlink:href="#m6d4537b5af" x="342.334402" y="206.081672" style="stroke:var(--black); stroke-width: 0.8"/>
      </g>
     </g>
     <g id="text_31" class="text">
      <!-- 0.4 -->
      <g transform="translate(321.02159 209.500968) scale(0.09 -0.09)">
       <use xlink:href="#DejaVuSerif-30"/>
       <use xlink:href="#DejaVuSerif-2e" transform="translate(63.623047 0)"/>
       <use xlink:href="#DejaVuSerif-34" transform="translate(95.410156 0)"/>
      </g>
     </g>
    </g>
    <g class="tick ytick">
     <g id="line2d_55">
      <path d="M 342.334402 180.715734 
L 575.23875 180.715734 
" clip-path="url(#p6d3392a154)" style="fill: none; stroke: #b0b0b0; stroke-opacity: 0.25; stroke-width: 0.5; stroke-linecap: square"/>
     </g>
     <g id="line2d_56">
      <g>
       <use xlink:href="#m6d4537b5af" x="342.334402" y="180.715734" style="stroke:var(--black); stroke-width: 0.8"/>
      </g>
     </g>
     <g id="text_32" class="text">
      <!-- 0.6 -->
      <g transform="translate(321.02159 184.13503) scale(0.09 -0.09)">
       <use xlink:href="#DejaVuSerif-30"/>
       <use xlink:href="#DejaVuSerif-2e" transform="translate(63.623047 0)"/>
       <use xlink:href="#DejaVuSerif-36" transform="translate(95.410156 0)"/>
      </g>
     </g>
    </g>
    <g class="tick ytick">
     <g id="line2d_57">
      <path d="M 342.334402 155.349796 
L 575.23875 155.349796 
" clip-path="url(#p6d3392a154)" style="fill: none; stroke: #b0b0b0; stroke-opacity: 0.25; stroke-width: 0.5; stroke-linecap: square"/>
     </g>
     <g id="line2d_58">
      <g>
       <use xlink:href="#m6d4537b5af" x="342.334402" y="155.349796" style="stroke:var(--black); stroke-width: 0.8"/>
      </g>
     </g>
     <g id="text_33" class="text">
      <!-- 0.8 -->
      <g transform="translate(321.02159 158.769093) scale(0.09 -0.09)">
       <use xlink:href="#DejaVuSerif-30"/>
       <use xlink:href="#DejaVuSerif-2e" transform="translate(63.623047 0)"/>
       <use xlink:href="#DejaVuSerif-38" transform="translate(95.410156 0)"/>
      </g>
     </g>
    </g>
    <g class="tick ytick">
     <g id="line2d_59">
      <path d="M 342.334402 129.983858 
L 575.23875 129.983858 
" clip-path="url(#p6d3392a154)" style="fill: none; stroke: #b0b0b0; stroke-opacity: 0.25; stroke-width: 0.5; stroke-linecap: square"/>
     </g>
     <g id="line2d_60">
      <g>
       <use xlink:href="#m6d4537b5af" x="342.334402" y="129.983858" style="stroke:var(--black); stroke-width: 0.8"/>
      </g>
     </g>
     <g id="text_34" class="text">
      <!-- 1.0 -->
      <g transform="translate(321.02159 133.403155) scale(0.09 -0.09)">
       <use xlink:href="#DejaVuSerif-31"/>
       <use xlink:href="#DejaVuSerif-2e" transform="translate(63.623047 0)"/>
       <use xlink:href="#DejaVuSerif-30" transform="translate(95.410156 0)"/>
      </g>
     </g>
    </g>
    <g class="tick ytick">
     <g id="line2d_61">
      <path d="M 342.334402 104.61792 
L 575.23875 104.61792 
" clip-path="url(#p6d3392a154)" style="fill: none; stroke: #b0b0b0; stroke-opacity: 0.25; stroke-width: 0.5; stroke-linecap: square"/>
     </g>
     <g id="line2d_62">
      <g>
       <use xlink:href="#m6d4537b5af" x="342.334402" y="104.61792" style="stroke:var(--black); stroke-width: 0.8"/>
      </g>
     </g>
     <g id="text_35" class="text">
      <!-- 1.2 -->
      <g transform="translate(321.02159 108.037217) scale(0.09 -0.09)">
       <use xlink:href="#DejaVuSerif-31"/>
       <use xlink:href="#DejaVuSerif-2e" transform="translate(63.623047 0)"/>
       <use xlink:href="#DejaVuSerif-32" transform="translate(95.410156 0)"/>
      </g>
     </g>
    </g>
    <g class="tick ytick">
     <g id="line2d_63">
      <path d="M 342.334402 79.251982 
L 575.23875 79.251982 
" clip-path="url(#p6d3392a154)" style="fill: none; stroke: #b0b0b0; stroke-opacity: 0.25; stroke-width: 0.5; stroke-linecap: square"/>
     </g>
     <g id="line2d_64">
      <g>
       <use xlink:href="#m6d4537b5af" x="342.334402" y="79.251982" style="stroke:var(--black); stroke-width: 0.8"/>
      </g>
     </g>
     <g id="text_36" class="text">
      <!-- 1.4 -->
      <g transform="translate(321.02159 82.671279) scale(0.09 -0.09)">
       <use xlink:href="#DejaVuSerif-31"/>
       <use xlink:href="#DejaVuSerif-2e" transform="translate(63.623047 0)"/>
       <use xlink:href="#DejaVuSerif-34" transform="translate(95.410156 0)"/>
      </g>
     </g>
    </g>
    <g class="tick ytick">
     <g id="line2d_65">
      <path d="M 342.334402 53.886044 
L 575.23875 53.886044 
" clip-path="url(#p6d3392a154)" style="fill: none; stroke: #b0b0b0; stroke-opacity: 0.25; stroke-width: 0.5; stroke-linecap: square"/>
     </g>
     <g id="line2d_66">
      <g>
       <use xlink:href="#m6d4537b5af" x="342.334402" y="53.886044" style="stroke:var(--black); stroke-width: 0.8"/>
      </g>
     </g>
     <g id="text_37" class="text">
      <!-- 1.6 -->
      <g transform="translate(321.02159 57.305341) scale(0.09 -0.09)">
       <use xlink:href="#DejaVuSerif-31"/>
       <use xlink:href="#DejaVuSerif-2e" transform="translate(63.623047 0)"/>
       <use xlink:href="#DejaVuSerif-36" transform="translate(95.410156 0)"/>
      </g>
     </g>
    </g>
    <g class="tick ytick">
     <g id="line2d_67">
      <path d="M 342.334402 28.520106 
L 575.23875 28.520106 
" clip-path="url(#p6d3392a154)" style="fill: none; stroke: #b0b0b0; stroke-opacity: 0.25; stroke-width: 0.5; stroke-linecap: square"/>
     </g>
     <g id="line2d_68">
      <g>
       <use xlink:href="#m6d4537b5af" x="342.334402" y="28.520106" style="stroke:var(--black); stroke-width: 0.8"/>
      </g>
     </g>
     <g id="text_38" class="text">
      <!-- 1.8 -->
      <g transform="translate(321.02159 31.939403) scale(0.09 -0.09)">
       <use xlink:href="#DejaVuSerif-31"/>
       <use xlink:href="#DejaVuSerif-2e" transform="translate(63.623047 0)"/>
       <use xlink:href="#DejaVuSerif-38" transform="translate(95.410156 0)"/>
      </g>
     </g>
    </g>
    <g id="text_39" class="text">
     <!-- x(t) -->
     <g transform="translate(314.733933 136.429641) rotate(-90) scale(0.11 -0.11)">
      <use xlink:href="#DejaVuSerif-78"/>
      <use xlink:href="#DejaVuSerif-28" transform="translate(56.396484 0)"/>
      <use xlink:href="#DejaVuSerif-74" transform="translate(95.410156 0)"/>
      <use xlink:href="#DejaVuSerif-29" transform="translate(135.595703 0)"/>
     </g>
    </g>
   </g>
   <g id="line2d_69">
    <path d="M 352.920963 225.106125 
L 357.176867 221.065786 
L 361.432771 216.615879 
L 365.688676 211.741709 
L 369.94458 206.434817 
L 374.200484 200.694462 
L 378.456388 194.529008 
L 382.712292 187.957086 
L 386.968196 181.008376 
L 392.288076 171.856142 
L 398.671932 160.329905 
L 407.18374 144.411962 
L 418.887476 122.540967 
L 425.271332 111.124561 
L 430.591212 102.095692 
L 434.847116 95.261905 
L 439.10302 88.815487 
L 443.358924 82.782576 
L 447.614828 77.178461 
L 451.870732 72.008496 
L 456.126636 67.269349 
L 460.38254 62.950433 
L 464.638444 59.035397 
L 468.894348 55.503572 
L 473.150252 52.331306 
L 477.406156 49.493127 
L 481.66206 46.962734 
L 485.917964 44.713787 
L 490.173868 42.720525 
L 494.429772 40.958223 
L 498.685676 39.403509 
L 504.005556 37.718951 
L 509.325436 36.28582 
L 514.645316 35.069289 
L 521.029172 33.852277 
L 527.413029 32.856994 
L 534.860861 31.924547 
L 543.372669 31.098942 
L 552.948453 30.404913 
L 564.652189 29.803545 
L 564.652189 29.803545 
" clip-path="url(#p6d3392a154)" style="fill: none; stroke: #ff0001; stroke-width: 2; stroke-linecap: square"/>
   </g>
   <g id="line2d_70">
    <path d="M 352.920963 168.032765 
L 359.304819 156.351371 
L 382.712292 112.950225 
L 388.032172 103.824952 
L 392.288076 96.901537 
L 396.54398 90.357369 
L 400.799884 84.221335 
L 405.055788 78.511311 
L 409.311692 73.234982 
L 413.567596 68.391015 
L 417.8235 63.970462 
L 422.079404 59.958249 
L 426.335308 56.334635 
L 430.591212 53.076584 
L 434.847116 50.158973 
L 439.10302 47.555622 
L 443.358924 45.240136 
L 447.614828 43.186566 
L 451.870732 41.369899 
L 456.126636 39.766408 
L 461.446516 38.028137 
L 466.766396 36.548601 
L 472.086276 35.292169 
L 478.470132 34.034769 
L 484.853988 33.006109 
L 492.30182 32.042106 
L 500.813628 31.18833 
L 510.389412 30.470452 
L 521.029172 29.895561 
L 533.796885 29.423814 
L 550.820501 29.03574 
L 564.652189 28.846773 
L 564.652189 28.846773 
" clip-path="url(#p6d3392a154)" style="fill: none; stroke: #00ff02; stroke-width: 2; stroke-linecap: square"/>
   </g>
   <g id="line2d_71">
    <path d="M 352.920963 117.300889 
L 358.240843 107.965061 
L 363.560724 99.114198 
L 367.816628 92.442922 
L 372.072532 86.171616 
L 376.328436 80.321672 
L 380.58434 74.903974 
L 384.840244 69.919978 
L 389.096148 65.363054 
L 393.352052 61.219955 
L 397.607956 57.472303 
L 401.86386 54.097993 
L 406.119764 51.072459 
L 410.375668 48.369764 
L 414.631572 45.963501 
L 418.887476 43.827515 
L 423.14338 41.936442 
L 427.399284 40.266108 
L 432.719164 38.454137 
L 438.039044 36.910854 
L 443.358924 35.599552 
L 449.74278 34.286565 
L 456.126636 33.211926 
L 463.574468 32.204423 
L 472.086276 31.311788 
L 481.66206 30.560995 
L 492.30182 29.959585 
L 505.069532 29.46597 
L 521.029172 29.079113 
L 542.308693 28.797068 
L 564.652189 28.652505 
L 564.652189 28.652505 
" clip-path="url(#p6d3392a154)" style="fill: none; stroke: #0000ff; stroke-width: 2; stroke-linecap: square"/>
   </g>
   <g id="line2d_72">
    <path d="M 352.920963 53.886044 
L 357.176867 50.882815 
L 361.432771 48.200673 
L 365.688676 45.813207 
L 369.94458 43.6943 
L 374.200484 41.818658 
L 378.456388 40.162193 
L 383.776268 38.365523 
L 389.096148 36.835482 
L 394.416028 35.535584 
L 400.799884 34.234154 
L 407.18374 33.169078 
L 414.631572 32.170626 
L 423.14338 31.286079 
L 432.719164 30.542137 
L 443.358924 29.946249 
L 456.126636 29.457189 
L 472.086276 29.073914 
L 493.365796 28.794489 
L 525.285076 28.615693 
L 564.652189 28.546125 
L 564.652189 28.546125 
" clip-path="url(#p6d3392a154)" style="fill: none; stroke: #ff00ff; stroke-width: 2; stroke-linecap: square"/>
   </g>
   <g class="patch">
    <path d="M 342.334402 234.934125 
L 342.334402 18.718125 
" style="fill: none; stroke:var(--black); stroke-width: 0.8; stroke-linejoin: miter; stroke-linecap: square"/>
   </g>
   <g class="patch">
    <path d="M 342.334402 234.934125 
L 575.23875 234.934125 
" style="fill: none; stroke:var(--black); stroke-width: 0.8; stroke-linejoin: miter; stroke-linecap: square"/>
   </g>
   <g id="text_40" class="text">
    <!-- Logistic ODE: dx/dt = rx(1 - x/K) -->
    <g transform="translate(359.898139 12.718125) scale(0.12 -0.12)">
     <defs>
      <path id="DejaVuSerif-4c" d="M 353 0 
L 353 331 
L 947 331 
L 947 4331 
L 353 4331 
L 353 4666 
L 2175 4666 
L 2175 4331 
L 1581 4331 
L 1581 384 
L 3713 384 
L 3713 1166 
L 4097 1166 
L 4097 0 
L 353 0 
z
" transform="scale(0.015625)"/>
      <path id="DejaVuSerif-6f" d="M 1925 219 
Q 2388 219 2623 584 
Q 2859 950 2859 1663 
Q 2859 2375 2623 2739 
Q 2388 3103 1925 3103 
Q 1463 3103 1227 2739 
Q 991 2375 991 1663 
Q 991 950 1228 584 
Q 1466 219 1925 219 
z
M 1925 -91 
Q 1200 -91 759 389 
Q 319 869 319 1663 
Q 319 2456 758 2934 
Q 1197 3413 1925 3413 
Q 2653 3413 3092 2934 
Q 3531 2456 3531 1663 
Q 3531 869 3092 389 
Q 2653 -91 1925 -91 
z
" transform="scale(0.015625)"/>
      <path id="DejaVuSerif-67" d="M 3359 2988 
L 3359 72 
Q 3359 -644 2965 -1033 
Q 2572 -1422 1844 -1422 
Q 1516 -1422 1216 -1362 
Q 916 -1303 641 -1184 
L 641 -488 
L 941 -488 
Q 997 -813 1206 -963 
Q 1416 -1113 1806 -1113 
Q 2313 -1113 2548 -827 
Q 2784 -541 2784 72 
L 2784 519 
Q 2616 206 2355 57 
Q 2094 -91 1709 -91 
Q 1097 -91 708 395 
Q 319 881 319 1663 
Q 319 2444 706 2928 
Q 1094 3413 1709 3413 
Q 2094 3413 2355 3264 
Q 2616 3116 2784 2803 
L 2784 3322 
L 3909 3322 
L 3909 2988 
L 3359 2988 
z
M 2784 1825 
Q 2784 2422 2554 2737 
Q 2325 3053 1888 3053 
Q 1444 3053 1217 2703 
Q 991 2353 991 1663 
Q 991 975 1217 622 
Q 1444 269 1888 269 
Q 2325 269 2554 583 
Q 2784 897 2784 1497 
L 2784 1825 
z
" transform="scale(0.015625)"/>
      <path id="DejaVuSerif-73" d="M 359 184 
L 359 959 
L 691 959 
Q 703 588 923 403 
Q 1144 219 1575 219 
Q 1963 219 2166 364 
Q 2369 509 2369 788 
Q 2369 1006 2220 1140 
Q 2072 1275 1594 1428 
L 1178 1569 
Q 750 1706 558 1912 
Q 366 2119 366 2438 
Q 366 2894 700 3153 
Q 1034 3413 1625 3413 
Q 1888 3413 2178 3344 
Q 2469 3275 2778 3144 
L 2778 2419 
L 2447 2419 
Q 2434 2741 2221 2922 
Q 2009 3103 1644 3103 
Q 1281 3103 1095 2975 
Q 909 2847 909 2591 
Q 909 2381 1050 2254 
Q 1191 2128 1613 1997 
L 2069 1856 
Q 2541 1709 2748 1489 
Q 2956 1269 2956 922 
Q 2956 450 2595 179 
Q 2234 -91 1600 -91 
Q 1278 -91 972 -22 
Q 666 47 359 184 
z
" transform="scale(0.015625)"/>
      <path id="DejaVuSerif-63" d="M 3291 997 
Q 3169 466 2822 187 
Q 2475 -91 1925 -91 
Q 1200 -91 759 389 
Q 319 869 319 1663 
Q 319 2459 759 2936 
Q 1200 3413 1925 3413 
Q 2241 3413 2553 3339 
Q 2866 3266 3181 3116 
L 3181 2266 
L 2847 2266 
Q 2781 2703 2561 2903 
Q 2341 3103 1931 3103 
Q 1466 3103 1228 2742 
Q 991 2381 991 1663 
Q 991 944 1227 581 
Q 1463 219 1931 219 
Q 2303 219 2525 412 
Q 2747 606 2828 997 
L 3291 997 
z
" transform="scale(0.015625)"/>
      <path id="DejaVuSerif-4b" d="M 353 0 
L 353 331 
L 947 331 
L 947 4331 
L 353 4331 
L 353 4666 
L 2175 4666 
L 2175 4331 
L 1581 4331 
L 1581 2566 
L 3591 4331 
L 3084 4331 
L 3084 4666 
L 4634 4666 
L 4634 4331 
L 4109 4331 
L 2106 2572 
L 4347 331 
L 4878 331 
L 4878 0 
L 3794 0 
L 1581 2216 
L 1581 331 
L 2175 331 
L 2175 0 
L 353 0 
z
" transform="scale(0.015625)"/>
     </defs>
     <use xlink:href="#DejaVuSerif-4c"/>
     <use xlink:href="#DejaVuSerif-6f" transform="translate(66.40625 0)"/>
     <use xlink:href="#DejaVuSerif-67" transform="translate(126.611328 0)"/>
     <use xlink:href="#DejaVuSerif-69" transform="translate(190.625 0)"/>
     <use xlink:href="#DejaVuSerif-73" transform="translate(222.607422 0)"/>
     <use xlink:href="#DejaVuSerif-74" transform="translate(273.925781 0)"/>
     <use xlink:href="#DejaVuSerif-69" transform="translate(314.111328 0)"/>
     <use xlink:href="#DejaVuSerif-63" transform="translate(346.09375 0)"/>
     <use xlink:href="#DejaVuSerif-20" transform="translate(402.099609 0)"/>
     <use xlink:href="#DejaVuSerif-4f" transform="translate(433.886719 0)"/>
     <use xlink:href="#DejaVuSerif-44" transform="translate(515.869141 0)"/>
     <use xlink:href="#DejaVuSerif-45" transform="translate(596.044922 0)"/>
     <use xlink:href="#DejaVuSerif-3a" transform="translate(669.042969 0)"/>
     <use xlink:href="#DejaVuSerif-20" transform="translate(702.734375 0)"/>
     <use xlink:href="#DejaVuSerif-64" transform="translate(734.521484 0)"/>
     <use xlink:href="#DejaVuSerif-78" transform="translate(798.535156 0)"/>
     <use xlink:href="#DejaVuSerif-2f" transform="translate(854.931641 0)"/>
     <use xlink:href="#DejaVuSerif-64" transform="translate(888.623047 0)"/>
     <use xlink:href="#DejaVuSerif-74" transform="translate(952.636719 0)"/>
     <use xlink:href="#DejaVuSerif-20" transform="translate(992.822266 0)"/>
     <use xlink:href="#DejaVuSerif-3d" transform="translate(1024.609375 0)"/>
     <use xlink:href="#DejaVuSerif-20" transform="translate(1108.398438 0)"/>
     <use xlink:href="#DejaVuSerif-72" transform="translate(1140.185547 0)"/>
     <use xlink:href="#DejaVuSerif-78" transform="translate(1187.988281 0)"/>
     <use xlink:href="#DejaVuSerif-28" transform="translate(1244.384766 0)"/>
     <use xlink:href="#DejaVuSerif-31" transform="translate(1283.398438 0)"/>
     <use xlink:href="#DejaVuSerif-20" transform="translate(1347.021484 0)"/>
     <use xlink:href="#DejaVuSerif-2d" transform="translate(1378.808594 0)"/>
     <use xlink:href="#DejaVuSerif-20" transform="translate(1412.597656 0)"/>
     <use xlink:href="#DejaVuSerif-78" transform="translate(1444.384766 0)"/>
     <use xlink:href="#DejaVuSerif-2f" transform="translate(1500.78125 0)"/>
     <use xlink:href="#DejaVuSerif-4b" transform="translate(1534.472656 0)"/>
     <use xlink:href="#DejaVuSerif-29" transform="translate(1609.179688 0)"/>
    </g>
   </g>
   <g class="legend">
    <g id="line2d_73">
     <path d="M 511.52125 188.042875 
L 519.52125 188.042875 
L 527.52125 188.042875 
" style="fill: none; stroke: #ff0001; stroke-width: 2; stroke-linecap: square"/>
    </g>
    <g id="text_41" class="text">
     <!-- x0=0.25 -->
     <g transform="translate(533.92125 190.842875) scale(0.08 -0.08)">
      <use xlink:href="#DejaVuSerif-78"/>
      <use xlink:href="#DejaVuSerif-30" transform="translate(56.396484 0)"/>
      <use xlink:href="#DejaVuSerif-3d" transform="translate(120.019531 0)"/>
      <use xlink:href="#DejaVuSerif-30" transform="translate(203.808594 0)"/>
      <use xlink:href="#DejaVuSerif-2e" transform="translate(267.431641 0)"/>
      <use xlink:href="#DejaVuSerif-32" transform="translate(299.21875 0)"/>
      <use xlink:href="#DejaVuSerif-35" transform="translate(362.841797 0)"/>
     </g>
    </g>
    <g id="line2d_74">
     <path d="M 511.52125 199.785375 
L 519.52125 199.785375 
L 527.52125 199.785375 
" style="fill: none; stroke: #00ff02; stroke-width: 2; stroke-linecap: square"/>
    </g>
    <g id="text_42" class="text">
     <!-- x0=0.70 -->
     <g transform="translate(533.92125 202.585375) scale(0.08 -0.08)">
      <use xlink:href="#DejaVuSerif-78"/>
      <use xlink:href="#DejaVuSerif-30" transform="translate(56.396484 0)"/>
      <use xlink:href="#DejaVuSerif-3d" transform="translate(120.019531 0)"/>
      <use xlink:href="#DejaVuSerif-30" transform="translate(203.808594 0)"/>
      <use xlink:href="#DejaVuSerif-2e" transform="translate(267.431641 0)"/>
      <use xlink:href="#DejaVuSerif-37" transform="translate(299.21875 0)"/>
      <use xlink:href="#DejaVuSerif-30" transform="translate(362.841797 0)"/>
     </g>
    </g>
    <g id="line2d_75">
     <path d="M 511.52125 211.527875 
L 519.52125 211.527875 
L 527.52125 211.527875 
" style="fill: none; stroke: #0000ff; stroke-width: 2; stroke-linecap: square"/>
    </g>
    <g id="text_43" class="text">
     <!-- x0=1.10 -->
     <g transform="translate(533.92125 214.327875) scale(0.08 -0.08)">
      <use xlink:href="#DejaVuSerif-78"/>
      <use xlink:href="#DejaVuSerif-30" transform="translate(56.396484 0)"/>
      <use xlink:href="#DejaVuSerif-3d" transform="translate(120.019531 0)"/>
      <use xlink:href="#DejaVuSerif-31" transform="translate(203.808594 0)"/>
      <use xlink:href="#DejaVuSerif-2e" transform="translate(267.431641 0)"/>
      <use xlink:href="#DejaVuSerif-31" transform="translate(299.21875 0)"/>
      <use xlink:href="#DejaVuSerif-30" transform="translate(362.841797 0)"/>
     </g>
    </g>
    <g id="line2d_76">
     <path d="M 511.52125 223.270375 
L 519.52125 223.270375 
L 527.52125 223.270375 
" style="fill: none; stroke: #ff00ff; stroke-width: 2; stroke-linecap: square"/>
    </g>
    <g id="text_44" class="text">
     <!-- x0=1.60 -->
     <g transform="translate(533.92125 226.070375) scale(0.08 -0.08)">
      <use xlink:href="#DejaVuSerif-78"/>
      <use xlink:href="#DejaVuSerif-30" transform="translate(56.396484 0)"/>
      <use xlink:href="#DejaVuSerif-3d" transform="translate(120.019531 0)"/>
      <use xlink:href="#DejaVuSerif-31" transform="translate(203.808594 0)"/>
      <use xlink:href="#DejaVuSerif-2e" transform="translate(267.431641 0)"/>
      <use xlink:href="#DejaVuSerif-36" transform="translate(299.21875 0)"/>
      <use xlink:href="#DejaVuSerif-30" transform="translate(362.841797 0)"/>
     </g>
    </g>
   </g>
  </g>
 </g>
 <defs>
  <clipPath id="p6a65a77d0f">
   <rect x="39.55875" y="18.718125" width="232.904348" height="216.216"/>
  </clipPath>
  <clipPath id="p6d3392a154">
   <rect x="342.334402" y="18.718125" width="232.904348" height="216.216"/>
  </clipPath>
 </defs>
</svg>
