<svg xmlns="http://www.w3.org/2000/svg" xmlns:xlink="http://www.w3.org/1999/xlink" width="552.07" height="260.731" viewBox="0 0 414.053 195.548"><style><![CDATA[.text{fill:#000!important;stroke:none!important}.axis path,.tick path,[stroke=black],[stroke=currentColor]{stroke:#000!important}@media (prefers-color-scheme:dark){.text{fill:#fff!important;stroke:none!important}.axis path,.tick path,[stroke=black],[stroke=currentColor]{stroke:#fff!important}g.legend>g:first-child>path:first-child{fill:rgba(26,26,26,.8)!important;stroke:rgba(255,255,255,.1)!important}}*{stroke-linejoin:round;stroke-linecap:butt}]]></style><g id="figure_1"><path d="M0 195.548h414.053V0H0z" class="patch" style="fill:none"/><g id="axes_1"><path d="M49.733 158.96h357.12V31.32H49.733z" class="patch" style="fill:none"/><g class="axis"><g class="tick xtick"><path id="line2d_1" d="M79.493 158.96V31.32" clip-path="url(#pca42724b4c)" style="fill:none;stroke:#b0b0b0;stroke-opacity:.1;stroke-width:.8;stroke-linecap:square"/><g id="line2d_2"><defs><path id="m1e83205afa" d="M0 0v3.5" style="stroke:currentColor;stroke-width:.8"/></defs><use xlink:href="#m1e83205afa" x="79.493" y="158.96" style="stroke:currentColor;stroke-width:.8"/></g><g id="text_1" class="text" transform="matrix(.09 0 0 -.09 72.336 172.798)"><defs><path id="DejaVuSans-30" d="M2034 4250q-487 0-733-480-245-479-245-1442 0-959 245-1439 246-480 733-480 491 0 736 480 246 480 246 1439 0 963-246 1442-245 480-736 480zm0 500q785 0 1199-621 414-620 414-1801 0-1178-414-1799Q2819-91 2034-91q-784 0-1198 620-414 621-414 1799 0 1181 414 1801 414 621 1198 621z" transform="scale(.01563)"/><path id="DejaVuSans-2e" d="M684 794h660V0H684z" transform="scale(.01563)"/></defs><use xlink:href="#DejaVuSans-30"/><use xlink:href="#DejaVuSans-2e" transform="translate(63.623)"/><use xlink:href="#DejaVuSans-30" transform="translate(95.41)"/></g></g><g class="tick xtick"><path id="line2d_3" d="M153.893 158.96V31.32" clip-path="url(#pca42724b4c)" style="fill:none;stroke:#b0b0b0;stroke-opacity:.1;stroke-width:.8;stroke-linecap:square"/><use xlink:href="#m1e83205afa" id="line2d_4" x="153.893" y="158.96" style="stroke:currentColor;stroke-width:.8"/><g id="text_2" class="text" transform="matrix(.09 0 0 -.09 146.736 172.798)"><defs><path id="DejaVuSans-35" d="M691 4666h2478v-532H1269V2991q137 47 274 70 138 23 276 23 781 0 1237-428 457-428 457-1159 0-753-469-1171Q2575-91 1722-91q-294 0-599 50Q819 9 494 109v635q281-153 581-228t634-75q541 0 856 284 316 284 316 772 0 487-316 771-315 285-856 285-253 0-505-56-251-56-513-175z" transform="scale(.01563)"/></defs><use xlink:href="#DejaVuSans-30"/><use xlink:href="#DejaVuSans-2e" transform="translate(63.623)"/><use xlink:href="#DejaVuSans-35" transform="translate(95.41)"/></g></g><g class="tick xtick"><path id="line2d_5" d="M228.293 158.96V31.32" clip-path="url(#pca42724b4c)" style="fill:none;stroke:#b0b0b0;stroke-opacity:.1;stroke-width:.8;stroke-linecap:square"/><use xlink:href="#m1e83205afa" id="line2d_6" x="228.293" y="158.96" style="stroke:currentColor;stroke-width:.8"/><g id="text_3" class="text" transform="matrix(.09 0 0 -.09 221.136 172.798)"><defs><path id="DejaVuSans-31" d="M794 531h1031v3560L703 3866v575l1116 225h631V531h1031V0H794z" transform="scale(.01563)"/></defs><use xlink:href="#DejaVuSans-31"/><use xlink:href="#DejaVuSans-2e" transform="translate(63.623)"/><use xlink:href="#DejaVuSans-30" transform="translate(95.41)"/></g></g><g class="tick xtick"><path id="line2d_7" d="M302.693 158.96V31.32" clip-path="url(#pca42724b4c)" style="fill:none;stroke:#b0b0b0;stroke-opacity:.1;stroke-width:.8;stroke-linecap:square"/><use xlink:href="#m1e83205afa" id="line2d_8" x="302.693" y="158.96" style="stroke:currentColor;stroke-width:.8"/><g id="text_4" class="text" transform="matrix(.09 0 0 -.09 295.536 172.798)"><use xlink:href="#DejaVuSans-31"/><use xlink:href="#DejaVuSans-2e" transform="translate(63.623)"/><use xlink:href="#DejaVuSans-35" transform="translate(95.41)"/></g></g><g class="tick xtick"><path id="line2d_9" d="M377.093 158.96V31.32" clip-path="url(#pca42724b4c)" style="fill:none;stroke:#b0b0b0;stroke-opacity:.1;stroke-width:.8;stroke-linecap:square"/><use xlink:href="#m1e83205afa" id="line2d_10" x="377.093" y="158.96" style="stroke:currentColor;stroke-width:.8"/><g id="text_5" class="text" transform="matrix(.09 0 0 -.09 369.936 172.798)"><defs><path id="DejaVuSans-32" d="M1228 531h2203V0H469v531q359 372 979 998 621 627 780 809 303 340 423 576 121 236 121 464 0 372-261 606-261 235-680 235-297 0-627-103-329-103-704-313v638q381 153 712 231 332 78 607 78 725 0 1156-363 431-362 431-968 0-288-108-546-107-257-392-607-78-91-497-524-418-433-1181-1211z" transform="scale(.01563)"/></defs><use xlink:href="#DejaVuSans-32"/><use xlink:href="#DejaVuSans-2e" transform="translate(63.623)"/><use xlink:href="#DejaVuSans-30" transform="translate(95.41)"/></g></g><g id="text_6" class="text" transform="matrix(.1 0 0 -.1 226.293 186.268)"><defs><path id="DejaVuSans-Oblique-74" d="m2706 3500-87-447H1472l-372-1900q-19-106-28-178t-9-112q0-200 120-291t386-91h581L2053 0h-550Q991 0 739 200 488 400 488 806q0 72 9 158t28 189l372 1900H409l91 447h478l194 994h575l-191-994z" transform="scale(.01563)"/></defs><use xlink:href="#DejaVuSans-Oblique-74" transform="translate(0 .781)"/></g></g><g class="axis"><g class="tick ytick"><path id="line2d_11" d="M49.733 148.508h357.12" clip-path="url(#pca42724b4c)" style="fill:none;stroke:#b0b0b0;stroke-opacity:.1;stroke-width:.8;stroke-linecap:square"/><g id="line2d_12"><defs><path id="m09c307f7cd" d="M0 0h-3.5" style="stroke:currentColor;stroke-width:.8"/></defs><use xlink:href="#m09c307f7cd" x="49.733" y="148.508" style="stroke:currentColor;stroke-width:.8"/></g><g id="text_7" class="text" transform="matrix(.09 0 0 -.09 20.878 151.927)"><defs><path id="DejaVuSans-2212" d="M678 2272h4006v-531H678z" transform="scale(.01563)"/></defs><use xlink:href="#DejaVuSans-2212"/><use xlink:href="#DejaVuSans-30" transform="translate(83.79)"/><use xlink:href="#DejaVuSans-2e" transform="translate(147.412)"/><use xlink:href="#DejaVuSans-32" transform="translate(179.2)"/></g></g><g class="tick ytick"><path id="line2d_13" d="M49.733 118.748h357.12" clip-path="url(#pca42724b4c)" style="fill:none;stroke:#b0b0b0;stroke-opacity:.1;stroke-width:.8;stroke-linecap:square"/><use xlink:href="#m09c307f7cd" id="line2d_14" x="49.733" y="118.748" style="stroke:currentColor;stroke-width:.8"/><g id="text_8" class="text" transform="matrix(.09 0 0 -.09 28.42 122.167)"><use xlink:href="#DejaVuSans-30"/><use xlink:href="#DejaVuSans-2e" transform="translate(63.623)"/><use xlink:href="#DejaVuSans-30" transform="translate(95.41)"/></g></g><g class="tick ytick"><path id="line2d_15" d="M49.733 88.988h357.12" clip-path="url(#pca42724b4c)" style="fill:none;stroke:#b0b0b0;stroke-opacity:.1;stroke-width:.8;stroke-linecap:square"/><use xlink:href="#m09c307f7cd" id="line2d_16" x="49.733" y="88.988" style="stroke:currentColor;stroke-width:.8"/><g id="text_9" class="text" transform="matrix(.09 0 0 -.09 28.42 92.407)"><use xlink:href="#DejaVuSans-30"/><use xlink:href="#DejaVuSans-2e" transform="translate(63.623)"/><use xlink:href="#DejaVuSans-32" transform="translate(95.41)"/></g></g><g class="tick ytick"><path id="line2d_17" d="M49.733 59.228h357.12" clip-path="url(#pca42724b4c)" style="fill:none;stroke:#b0b0b0;stroke-opacity:.1;stroke-width:.8;stroke-linecap:square"/><use xlink:href="#m09c307f7cd" id="line2d_18" x="49.733" y="59.228" style="stroke:currentColor;stroke-width:.8"/><g id="text_10" class="text" transform="matrix(.09 0 0 -.09 28.42 62.647)"><defs><path id="DejaVuSans-34" d="M2419 4116 825 1625h1594zm-166 550h794V1625h666v-525h-666V0h-628v1100H313v609z" transform="scale(.01563)"/></defs><use xlink:href="#DejaVuSans-30"/><use xlink:href="#DejaVuSans-2e" transform="translate(63.623)"/><use xlink:href="#DejaVuSans-34" transform="translate(95.41)"/></g></g><g id="text_11" class="text" transform="matrix(0 -.1 -.1 0 14.798 115.39)"><defs><path id="DejaVuSans-Oblique-78" d="M3841 3500 2234 1784 3219 0h-660l-740 1388L531 0h-697l1722 1844-915 1656h659l672-1266 1172 1266z" transform="scale(.01563)"/><path id="DejaVuSans-28" d="M1984 4856q-418-718-622-1422-203-703-203-1425 0-721 205-1429t620-1424h-500Q1016-109 783 600T550 2009q0 697 231 1403 232 707 703 1444z" transform="scale(.01563)"/><path id="DejaVuSans-29" d="M513 4856h500q468-737 701-1444 233-706 233-1403 0-700-233-1409T1013-844H513q415 716 620 1424t205 1429q0 722-205 1425-205 704-620 1422z" transform="scale(.01563)"/><path id="DejaVuSans-2c" d="M750 794h659V256L897-744H494L750 256z" transform="scale(.01563)"/><path id="DejaVuSans-Oblique-76" d="M459 3500h610l512-2975 1675 2975h610L1875 0h-775z" transform="scale(.01563)"/></defs><use xlink:href="#DejaVuSans-Oblique-78" transform="translate(0 .125)"/><use xlink:href="#DejaVuSans-28" transform="translate(59.18 .125)"/><use xlink:href="#DejaVuSans-Oblique-74" transform="translate(98.193 .125)"/><use xlink:href="#DejaVuSans-29" transform="translate(137.402 .125)"/><use xlink:href="#DejaVuSans-2c" transform="translate(176.416 .125)"/><use xlink:href="#DejaVuSans-Oblique-76" transform="translate(227.686 .125)"/><use xlink:href="#DejaVuSans-28" transform="translate(286.865 .125)"/><use xlink:href="#DejaVuSans-Oblique-74" transform="translate(325.879 .125)"/><use xlink:href="#DejaVuSans-29" transform="translate(365.088 .125)"/></g></g><path id="line2d_19" d="m49.733 118.748 3.607-1.932 3.607.246 3.607 13.455 3.608-35.14 3.607 20.571 3.607-1.757 3.608.596 3.607 13.203 3.607 16.482 3.607 14.488 3.608-14.736 3.607-19.4 3.607.3 3.607-13.938 3.608-9.192 3.607 11.809 3.607-6.476 3.608 9.482 3.607-10.696 3.607-22.644 3.607 4.83 3.608-5.013 3.607-9.441 3.607.896 3.607 3.932 3.608-1.508 3.607 1.731 3.607-10.089 3.608-29.13 3.607-3.499 3.607-4.858 3.607 16.495 3.608 20.627 3.607 12.142 3.607 17.031 3.607-18.751 3.608 1.39 3.607 16.02 3.607 1.71 3.608-15.611 3.607 20.442 3.607 3.239 3.607 5.372 3.608-2.964 3.607-16.152 3.607 2.618 3.607 20.873 3.608 5.428 3.607 7.383 3.607-7.44 3.608-24.321 3.607 7.939 3.607-19.337 3.607 1.467 3.608-10.448 3.607 13.385 3.607 12.129 3.607-3.976 3.608-10.195 3.607-16.544 3.607 24.13 3.608 6.89 3.607 13.497 3.607 6.044 3.607-2.031 3.608 10.211 3.607 6.404 3.607-12.989 3.607-4.081 3.608 4.526 3.607-5.042 3.607-9.69 3.608-19.624 3.607-3.505 3.607 10.358 3.607 12.395 3.608-3.475 3.607 6.237 3.607 12.076 3.607 4.161 3.608 8.013 3.607-4.557 3.607 12 3.608-15.085 3.607-.957 3.607 22.06 3.607-16.736 3.608 9.742 3.607 11.71 3.607-9.997 3.607-6.33 3.608-22.77 3.607-15.594 3.607 3.188 3.608-11.541 3.607-16.833 3.607-15.226 3.607 3.568 3.608 36.044" clip-path="url(#pca42724b4c)" style="fill:none;stroke:#8000ff;stroke-width:2;stroke-linecap:square"/><path id="line2d_20" d="M49.733 118.748h3.607l3.607-.02 3.607-.016 3.608.117 3.607-.233 3.607-.028 3.608-.046 3.607-.04 3.607.093 3.607.257 3.608.402 3.607.255 3.607.06 3.607.065 3.608-.076 3.607-.167 3.607-.05 3.608-.114 3.607-.02 3.607-.126 3.607-.353 3.608-.304 3.607-.355 3.607-.449 3.607-.44 3.608-.4 3.607-.416 3.607-.399 3.608-.5 3.607-.79 3.607-.826 3.607-.874 3.608-.71 3.607-.502 3.607-.382 3.607-.211 3.608-.4 3.607-.384 3.607-.225 3.608-.208 3.607-.363 3.607-.16 3.607-.127 3.608-.073 3.607-.103 3.607-.264 3.607-.238 3.608-.03 3.607.025 3.607.099 3.608.024 3.607-.219 3.607-.14 3.607-.333 3.608-.318 3.607-.423 3.607-.288 3.607-.168 3.608-.207 3.607-.31 3.607-.475 3.608-.233 3.607-.165 3.607-.03 3.607.032 3.608.01 3.607.113 3.607.176 3.607.047 3.608.006 3.607.051 3.607.001 3.608-.096 3.607-.292 3.607-.327 3.607-.224 3.608-.1 3.607-.135 3.607-.072 3.607.049 3.608.09 3.607.17 3.607.125 3.608.244 3.607.094 3.607.085 3.607.305 3.608.137 3.607.235 3.607.352 3.607.252 3.608.189 3.607-.039 3.607-.195 3.608-.163 3.607-.278 3.607-.447 3.607-.599 3.608-.563" clip-path="url(#pca42724b4c)" style="fill:none;stroke-dasharray:7.4,3.2;stroke-dashoffset:0;stroke:#ff8000;stroke-width:2"/><path d="M49.733 158.96V31.32M49.733 158.96h357.12" class="patch" style="fill:none;stroke:currentColor;stroke-width:.8;stroke-linejoin:miter;stroke-linecap:square"/><g id="text_12" class="text" transform="matrix(.12 0 0 -.12 96.293 16.32)"><defs><path id="DejaVuSans-43" d="M4122 4306v-665q-319 297-680 443-361 147-767 147-800 0-1225-489t-425-1414q0-922 425-1411t1225-489q406 0 767 147t680 444V359q-331-225-702-338-370-112-782-112-1060 0-1670 648-609 649-609 1771 0 1125 609 1773 610 649 1670 649 418 0 788-111 371-111 696-333z" transform="scale(.01563)"/><path id="DejaVuSans-6f" d="M1959 3097q-462 0-731-361t-269-989 267-989q268-361 733-361 460 0 728 362 269 363 269 988 0 622-269 986-268 364-728 364zm0 487q750 0 1178-488 429-487 429-1349 0-859-429-1349Q2709-91 1959-91q-753 0-1180 489-426 490-426 1349 0 862 426 1349 427 488 1180 488z" transform="scale(.01563)"/><path id="DejaVuSans-6e" d="M3513 2113V0h-575v2094q0 497-194 743-194 247-581 247-466 0-735-297-269-296-269-809V0H581v3500h578v-544q207 316 486 472 280 156 646 156 603 0 912-373 310-373 310-1098z" transform="scale(.01563)"/><path id="DejaVuSans-73" d="M2834 3397v-544q-243 125-506 187-262 63-544 63-428 0-642-131t-214-394q0-200 153-314t616-217l197-44q612-131 870-370t258-667q0-488-386-773Q2250-91 1575-91q-281 0-586 55T347 128v594q319-166 628-249 309-82 613-82 406 0 624 139 219 139 219 392 0 234-158 359-157 125-692 241l-200 47q-534 112-772 345-237 233-237 639 0 494 350 762 350 269 994 269 318 0 599-47 282-46 519-140z" transform="scale(.01563)"/><path id="DejaVuSans-74" d="M1172 4494v-994h1184v-447H1172V1153q0-428 117-550t477-122h590V0h-590q-666 0-919 248-253 249-253 905v1900H172v447h422v994z" transform="scale(.01563)"/><path id="DejaVuSans-61" d="M2194 1759q-697 0-966-159t-269-544q0-306 202-486 202-179 548-179 479 0 768 339t289 901v128zm1147 238V0h-575v531q-197-318-491-470T1556-91q-537 0-855 302-317 302-317 808 0 590 395 890 396 300 1180 300h807v57q0 397-261 614t-733 217q-300 0-585-72-284-72-546-216v532q315 122 612 182 297 61 578 61 760 0 1135-394 375-393 375-1193z" transform="scale(.01563)"/><path id="DejaVuSans-56" d="M1831 0 50 4666h659L2188 738l1481 3928h656L2547 0z" transform="scale(.01563)"/><path id="DejaVuSans-65" d="M3597 1894v-281H953q38-594 358-905t892-311q331 0 642 81t618 244V178Q3153 47 2828-22t-659-69q-838 0-1327 487-489 488-489 1320 0 859 464 1363 464 505 1252 505 706 0 1117-455 411-454 411-1235zm-575 169q-6 471-264 752-258 282-683 282-481 0-770-272t-333-766z" transform="scale(.01563)"/><path id="DejaVuSans-6c" d="M603 4863h575V0H603z" transform="scale(.01563)"/><path id="DejaVuSans-63" d="M3122 3366v-538q-244 135-489 202t-495 67q-560 0-870-355-309-354-309-995t309-996q310-354 870-354 250 0 495 67t489 202V134Q2881 22 2623-34q-257-57-548-57-791 0-1257 497-465 497-465 1341 0 856 470 1346 471 491 1290 491 265 0 518-55 253-54 491-163z" transform="scale(.01563)"/><path id="DejaVuSans-69" d="M603 3500h575V0H603zm0 1363h575v-729H603z" transform="scale(.01563)"/><path id="DejaVuSans-79" d="M2059-325q-243-625-475-815-231-191-618-191H506v481h338q237 0 368 113 132 112 291 531l103 262L191 3500h609L1894 763l1094 2737h609z" transform="scale(.01563)"/><path id="DejaVuSans-4d" d="M628 4666h941l1190-3175 1197 3175h941V0h-616v4097L3078 897h-634L1241 4097V0H628z" transform="scale(.01563)"/><path id="DejaVuSans-64" d="M2906 2969v1894h575V0h-575v525q-181-312-458-464-276-152-664-152-634 0-1033 506-398 507-398 1332t398 1331q399 506 1033 506 388 0 664-152 277-151 458-463zM947 1747q0-634 261-995t717-361 718 361q263 361 263 995t-263 995q-262 361-718 361t-717-361-261-995z" transform="scale(.01563)"/><path id="DejaVuSans-77" d="M269 3500h575l719-2731 715 2731h678l719-2731 716 2731h575L4050 0h-678l-753 2869L1863 0h-679z" transform="scale(.01563)"/><path id="DejaVuSans-68" d="M3513 2113V0h-575v2094q0 497-194 743-194 247-581 247-466 0-735-297-269-296-269-809V0H581v4863h578V2956q207 316 486 472 280 156 646 156 603 0 912-373 310-373 310-1098z" transform="scale(.01563)"/><path id="DejaVuSans-3d" d="M678 2906h4006v-525H678zm0-1275h4006v-531H678z" transform="scale(.01563)"/></defs><use xlink:href="#DejaVuSans-43" transform="translate(0 .016)"/><use xlink:href="#DejaVuSans-6f" transform="translate(69.824 .016)"/><use xlink:href="#DejaVuSans-6e" transform="translate(131.006 .016)"/><use xlink:href="#DejaVuSans-73" transform="translate(194.385 .016)"/><use xlink:href="#DejaVuSans-74" transform="translate(246.484 .016)"/><use xlink:href="#DejaVuSans-61" transform="translate(285.693 .016)"/><use xlink:href="#DejaVuSans-6e" transform="translate(346.973 .016)"/><use xlink:href="#DejaVuSans-74" transform="translate(410.352 .016)"/><use xlink:href="#DejaVuSans-56" transform="translate(481.348 .016)"/><use xlink:href="#DejaVuSans-65" transform="translate(549.756 .016)"/><use xlink:href="#DejaVuSans-6c" transform="translate(611.28 .016)"/><use xlink:href="#DejaVuSans-6f" transform="translate(639.063 .016)"/><use xlink:href="#DejaVuSans-63" transform="translate(700.244 .016)"/><use xlink:href="#DejaVuSans-69" transform="translate(755.225 .016)"/><use xlink:href="#DejaVuSans-74" transform="translate(783.008 .016)"/><use xlink:href="#DejaVuSans-79" transform="translate(822.217 .016)"/><use xlink:href="#DejaVuSans-4d" transform="translate(913.184 .016)"/><use xlink:href="#DejaVuSans-6f" transform="translate(999.463 .016)"/><use xlink:href="#DejaVuSans-64" transform="translate(1060.645 .016)"/><use xlink:href="#DejaVuSans-65" transform="translate(1124.121 .016)"/><use xlink:href="#DejaVuSans-6c" transform="translate(1185.645 .016)"/><use xlink:href="#DejaVuSans-77" transform="translate(1245.215 .016)"/><use xlink:href="#DejaVuSans-69" transform="translate(1327.002 .016)"/><use xlink:href="#DejaVuSans-74" transform="translate(1354.785 .016)"/><use xlink:href="#DejaVuSans-68" transform="translate(1393.994 .016)"/><use xlink:href="#DejaVuSans-Oblique-78" transform="translate(1489.16 .016)"/><use xlink:href="#DejaVuSans-28" transform="translate(1548.34 .016)"/><use xlink:href="#DejaVuSans-30" transform="translate(1587.354 .016)"/><use xlink:href="#DejaVuSans-29" transform="translate(1650.977 .016)"/><use xlink:href="#DejaVuSans-3d" transform="translate(1709.473 .016)"/><use xlink:href="#DejaVuSans-Oblique-76" transform="translate(1812.744 .016)"/><use xlink:href="#DejaVuSans-28" transform="translate(1871.924 .016)"/><use xlink:href="#DejaVuSans-30" transform="translate(1910.938 .016)"/><use xlink:href="#DejaVuSans-29" transform="translate(1974.56 .016)"/><use xlink:href="#DejaVuSans-3d" transform="translate(2033.057 .016)"/><use xlink:href="#DejaVuSans-30" transform="translate(2136.328 .016)"/></g><g class="legend"><path d="M348.68 67.493h44.73q1.8 0 1.8-1.8v-25.52q0-1.8-1.8-1.8h-44.73q-1.8 0-1.8 1.8v25.52q0 1.8 1.8 1.8z" class="patch" style="fill:rgba(255,255,255,.8)!important;opacity:.9;stroke:rgba(0,0,0,.1)!important;stroke-linejoin:miter"/><path id="line2d_21" d="M350.48 45.661h18" style="fill:none;stroke:#8000ff;stroke-width:2;stroke-linecap:square"/><g id="text_13" class="text" transform="matrix(.09 0 0 -.09 375.68 48.811)"><use xlink:href="#DejaVuSans-Oblique-76" transform="translate(0 .125)"/><use xlink:href="#DejaVuSans-28" transform="translate(59.18 .125)"/><use xlink:href="#DejaVuSans-Oblique-74" transform="translate(98.193 .125)"/><use xlink:href="#DejaVuSans-29" transform="translate(137.402 .125)"/></g><path id="line2d_22" d="M350.48 58.872h18" style="fill:none;stroke-dasharray:7.4,3.2;stroke-dashoffset:0;stroke:#ff8000;stroke-width:2"/><g id="text_14" class="text" transform="matrix(.09 0 0 -.09 375.68 62.022)"><use xlink:href="#DejaVuSans-Oblique-78" transform="translate(0 .125)"/><use xlink:href="#DejaVuSans-28" transform="translate(59.18 .125)"/><use xlink:href="#DejaVuSans-Oblique-74" transform="translate(98.193 .125)"/><use xlink:href="#DejaVuSans-29" transform="translate(137.402 .125)"/></g></g></g></g><defs><clipPath id="pca42724b4c"><path d="M49.733 31.32h357.12v127.64H49.733z"/></clipPath></defs></svg>