<?xml version="1.0" encoding="utf-8" standalone="no"?>
<!DOCTYPE svg PUBLIC "-//W3C//DTD SVG 1.1//EN"
  "http://www.w3.org/Graphics/SVG/1.1/DTD/svg11.dtd">
<svg xmlns:xlink="http://www.w3.org/1999/xlink" width="414.052656pt" height="195.548176pt" viewBox="0 0 414.052656 195.548176" xmlns="http://www.w3.org/2000/svg" version="1.1">
        <style>
            /* Light mode (default) */
            .c1 { fill: #d62728 !important; stroke: #d62728 !important; }
.c2 { fill: #2ca02c !important; stroke: #2ca02c !important; }
.c3 { fill: #1f77b4 !important; stroke: #1f77b4 !important; }
.c4 { fill: #9467bd !important; stroke: #9467bd !important; }
.c5 { fill: #8c564b !important; stroke: #8c564b !important; }
.c6 { fill: #e377c2 !important; stroke: #e377c2 !important; }
.c7 { fill: #7f7f7f !important; stroke: #7f7f7f !important; }
.c8 { fill: #bcbd22 !important; stroke: #bcbd22 !important; }

            /* Text and graphic elements */
            text, .text {
                fill: #000000 !important;
                stroke: none !important;
            }

            .axis line, .axis path, .tick line, .tick path, path.domain, line.grid {
                stroke: #000000 !important;
            }

            .legend text {
                fill: #000000 !important;
            }

            g.legend > g:first-child > path:first-child {
                fill: rgba(255, 255, 255, 0.8) !important;
                stroke: rgba(0, 0, 0, 0.1) !important;
            }

            [stroke="currentColor"], [stroke="black"] {
                stroke: #000000 !important;
            }

            /* Dark mode via media query */
            @media (prefers-color-scheme: dark) {
                /* Dark theme colors */
                .c1 { fill: #FF4A98 !important; stroke: #FF4A98 !important; }
                .c2 { fill: #0AFAFA !important; stroke: #0AFAFA !important; }
                .c3 { fill: #7F83FF !important; stroke: #7F83FF !important; }
                .c4 { fill: #B4A0FF !important; stroke: #B4A0FF !important; }
                .c5 { fill: #FFB86B !important; stroke: #FFB86B !important; }
                .c6 { fill: #FF79C6 !important; stroke: #FF79C6 !important; }
                .c7 { fill: #CCCCCC !important; stroke: #CCCCCC !important; }
                .c8 { fill: #E6DB74 !important; stroke: #E6DB74 !important; }

                /* Dark theme text and graphics */
                text, .text {
                    fill: #FFFFFF !important;
                    stroke: none !important;
                }

                .axis line, .axis path, .tick line, .tick path, path.domain, line.grid {
                    stroke: #FFFFFF !important;
                }

                .grid line {
                    stroke: rgba(255, 255, 255, 0.2) !important;
                }

                .legend text {
                    fill: #FFFFFF !important;
                }

                g.legend > g:first-child > path:first-child {
                    fill: rgba(26, 26, 26, 0.8) !important;
                    stroke: rgba(255, 255, 255, 0.1) !important;
                }

                [stroke="currentColor"], [stroke="black"] {
                    stroke: #FFFFFF !important;
                }
            }
        </style>
        
 <metadata>
  <rdf:RDF xmlns:dc="http://purl.org/dc/elements/1.1/" xmlns:cc="http://creativecommons.org/ns#" xmlns:rdf="http://www.w3.org/1999/02/22-rdf-syntax-ns#">
   <cc:Work>
    <dc:type rdf:resource="http://purl.org/dc/dcmitype/StillImage"/>
    <dc:date>2025-04-02T14:42:14.760218</dc:date>
    <dc:format>image/svg+xml</dc:format>
    <dc:creator>
     <cc:Agent>
      <dc:title>Matplotlib v3.10.1, https://matplotlib.org/</dc:title>
     </cc:Agent>
    </dc:creator>
   </cc:Work>
  </rdf:RDF>
 </metadata>
 <defs>
  <style type="text/css">*{stroke-linejoin: round; stroke-linecap: butt}</style>
 </defs>
 <g id="figure_1">
  <g class="patch">
   <path d="M 0 195.548176 
L 414.052656 195.548176 
L 414.052656 0 
L 0 0 
L 0 195.548176 
z
" style="fill: none"/>
  </g>
  <g id="axes_1">
   <g class="patch">
    <path d="M 49.732656 158.959738 
L 406.852656 158.959738 
L 406.852656 31.32 
L 49.732656 31.32 
L 49.732656 158.959738 
z
" style="fill: none"/>
   </g>
   <g class="axis">
    <g class="tick xtick">
     <g id="line2d_1">
      <path d="M 79.492656 158.959738 
L 79.492656 31.32 
" clip-path="url(#pca42724b4c)" style="fill: none; stroke: #b0b0b0; stroke-opacity: 0.1; stroke-width: 0.8; stroke-linecap: square"/>
     </g>
     <g id="line2d_2">
      <defs>
       <path id="m1e83205afa" d="M 0 0 
L 0 3.5 
" style="stroke: currentColor; stroke-width: 0.8"/>
      </defs>
      <g>
       <use xlink:href="#m1e83205afa" x="79.492656" y="158.959738" style="stroke: currentColor; stroke-width: 0.8"/>
      </g>
     </g>
     <g id="text_1" class="text">
      <!-- 0.0 -->
      <g transform="translate(72.33625 172.798332) scale(0.09 -0.09)">
       <defs>
        <path id="DejaVuSans-30" d="M 2034 4250 
Q 1547 4250 1301 3770 
Q 1056 3291 1056 2328 
Q 1056 1369 1301 889 
Q 1547 409 2034 409 
Q 2525 409 2770 889 
Q 3016 1369 3016 2328 
Q 3016 3291 2770 3770 
Q 2525 4250 2034 4250 
z
M 2034 4750 
Q 2819 4750 3233 4129 
Q 3647 3509 3647 2328 
Q 3647 1150 3233 529 
Q 2819 -91 2034 -91 
Q 1250 -91 836 529 
Q 422 1150 422 2328 
Q 422 3509 836 4129 
Q 1250 4750 2034 4750 
z
" transform="scale(0.015625)"/>
        <path id="DejaVuSans-2e" d="M 684 794 
L 1344 794 
L 1344 0 
L 684 0 
L 684 794 
z
" transform="scale(0.015625)"/>
       </defs>
       <use xlink:href="#DejaVuSans-30"/>
       <use xlink:href="#DejaVuSans-2e" transform="translate(63.623047 0)"/>
       <use xlink:href="#DejaVuSans-30" transform="translate(95.410156 0)"/>
      </g>
     </g>
    </g>
    <g class="tick xtick">
     <g id="line2d_3">
      <path d="M 153.892656 158.959738 
L 153.892656 31.32 
" clip-path="url(#pca42724b4c)" style="fill: none; stroke: #b0b0b0; stroke-opacity: 0.1; stroke-width: 0.8; stroke-linecap: square"/>
     </g>
     <g id="line2d_4">
      <g>
       <use xlink:href="#m1e83205afa" x="153.892656" y="158.959738" style="stroke: currentColor; stroke-width: 0.8"/>
      </g>
     </g>
     <g id="text_2" class="text">
      <!-- 0.5 -->
      <g transform="translate(146.73625 172.798332) scale(0.09 -0.09)">
       <defs>
        <path id="DejaVuSans-35" d="M 691 4666 
L 3169 4666 
L 3169 4134 
L 1269 4134 
L 1269 2991 
Q 1406 3038 1543 3061 
Q 1681 3084 1819 3084 
Q 2600 3084 3056 2656 
Q 3513 2228 3513 1497 
Q 3513 744 3044 326 
Q 2575 -91 1722 -91 
Q 1428 -91 1123 -41 
Q 819 9 494 109 
L 494 744 
Q 775 591 1075 516 
Q 1375 441 1709 441 
Q 2250 441 2565 725 
Q 2881 1009 2881 1497 
Q 2881 1984 2565 2268 
Q 2250 2553 1709 2553 
Q 1456 2553 1204 2497 
Q 953 2441 691 2322 
L 691 4666 
z
" transform="scale(0.015625)"/>
       </defs>
       <use xlink:href="#DejaVuSans-30"/>
       <use xlink:href="#DejaVuSans-2e" transform="translate(63.623047 0)"/>
       <use xlink:href="#DejaVuSans-35" transform="translate(95.410156 0)"/>
      </g>
     </g>
    </g>
    <g class="tick xtick">
     <g id="line2d_5">
      <path d="M 228.292656 158.959738 
L 228.292656 31.32 
" clip-path="url(#pca42724b4c)" style="fill: none; stroke: #b0b0b0; stroke-opacity: 0.1; stroke-width: 0.8; stroke-linecap: square"/>
     </g>
     <g id="line2d_6">
      <g>
       <use xlink:href="#m1e83205afa" x="228.292656" y="158.959738" style="stroke: currentColor; stroke-width: 0.8"/>
      </g>
     </g>
     <g id="text_3" class="text">
      <!-- 1.0 -->
      <g transform="translate(221.13625 172.798332) scale(0.09 -0.09)">
       <defs>
        <path id="DejaVuSans-31" d="M 794 531 
L 1825 531 
L 1825 4091 
L 703 3866 
L 703 4441 
L 1819 4666 
L 2450 4666 
L 2450 531 
L 3481 531 
L 3481 0 
L 794 0 
L 794 531 
z
" transform="scale(0.015625)"/>
       </defs>
       <use xlink:href="#DejaVuSans-31"/>
       <use xlink:href="#DejaVuSans-2e" transform="translate(63.623047 0)"/>
       <use xlink:href="#DejaVuSans-30" transform="translate(95.410156 0)"/>
      </g>
     </g>
    </g>
    <g class="tick xtick">
     <g id="line2d_7">
      <path d="M 302.692656 158.959738 
L 302.692656 31.32 
" clip-path="url(#pca42724b4c)" style="fill: none; stroke: #b0b0b0; stroke-opacity: 0.1; stroke-width: 0.8; stroke-linecap: square"/>
     </g>
     <g id="line2d_8">
      <g>
       <use xlink:href="#m1e83205afa" x="302.692656" y="158.959738" style="stroke: currentColor; stroke-width: 0.8"/>
      </g>
     </g>
     <g id="text_4" class="text">
      <!-- 1.5 -->
      <g transform="translate(295.53625 172.798332) scale(0.09 -0.09)">
       <use xlink:href="#DejaVuSans-31"/>
       <use xlink:href="#DejaVuSans-2e" transform="translate(63.623047 0)"/>
       <use xlink:href="#DejaVuSans-35" transform="translate(95.410156 0)"/>
      </g>
     </g>
    </g>
    <g class="tick xtick">
     <g id="line2d_9">
      <path d="M 377.092656 158.959738 
L 377.092656 31.32 
" clip-path="url(#pca42724b4c)" style="fill: none; stroke: #b0b0b0; stroke-opacity: 0.1; stroke-width: 0.8; stroke-linecap: square"/>
     </g>
     <g id="line2d_10">
      <g>
       <use xlink:href="#m1e83205afa" x="377.092656" y="158.959738" style="stroke: currentColor; stroke-width: 0.8"/>
      </g>
     </g>
     <g id="text_5" class="text">
      <!-- 2.0 -->
      <g transform="translate(369.93625 172.798332) scale(0.09 -0.09)">
       <defs>
        <path id="DejaVuSans-32" d="M 1228 531 
L 3431 531 
L 3431 0 
L 469 0 
L 469 531 
Q 828 903 1448 1529 
Q 2069 2156 2228 2338 
Q 2531 2678 2651 2914 
Q 2772 3150 2772 3378 
Q 2772 3750 2511 3984 
Q 2250 4219 1831 4219 
Q 1534 4219 1204 4116 
Q 875 4013 500 3803 
L 500 4441 
Q 881 4594 1212 4672 
Q 1544 4750 1819 4750 
Q 2544 4750 2975 4387 
Q 3406 4025 3406 3419 
Q 3406 3131 3298 2873 
Q 3191 2616 2906 2266 
Q 2828 2175 2409 1742 
Q 1991 1309 1228 531 
z
" transform="scale(0.015625)"/>
       </defs>
       <use xlink:href="#DejaVuSans-32"/>
       <use xlink:href="#DejaVuSans-2e" transform="translate(63.623047 0)"/>
       <use xlink:href="#DejaVuSans-30" transform="translate(95.410156 0)"/>
      </g>
     </g>
    </g>
    <g id="text_6" class="text">
     <!-- $t$ -->
     <g transform="translate(226.292656 186.268488) scale(0.1 -0.1)">
      <defs>
       <path id="DejaVuSans-Oblique-74" d="M 2706 3500 
L 2619 3053 
L 1472 3053 
L 1100 1153 
Q 1081 1047 1072 975 
Q 1063 903 1063 863 
Q 1063 663 1183 572 
Q 1303 481 1569 481 
L 2150 481 
L 2053 0 
L 1503 0 
Q 991 0 739 200 
Q 488 400 488 806 
Q 488 878 497 964 
Q 506 1050 525 1153 
L 897 3053 
L 409 3053 
L 500 3500 
L 978 3500 
L 1172 4494 
L 1747 4494 
L 1556 3500 
L 2706 3500 
z
" transform="scale(0.015625)"/>
      </defs>
      <use xlink:href="#DejaVuSans-Oblique-74" transform="translate(0 0.78125)"/>
     </g>
    </g>
   </g>
   <g class="axis">
    <g class="tick ytick">
     <g id="line2d_11">
      <path d="M 49.732656 148.507976 
L 406.852656 148.507976 
" clip-path="url(#pca42724b4c)" style="fill: none; stroke: #b0b0b0; stroke-opacity: 0.1; stroke-width: 0.8; stroke-linecap: square"/>
     </g>
     <g id="line2d_12">
      <defs>
       <path id="m09c307f7cd" d="M 0 0 
L -3.5 0 
" style="stroke: currentColor; stroke-width: 0.8"/>
      </defs>
      <g>
       <use xlink:href="#m09c307f7cd" x="49.732656" y="148.507976" style="stroke: currentColor; stroke-width: 0.8"/>
      </g>
     </g>
     <g id="text_7" class="text">
      <!-- −0.2 -->
      <g transform="translate(20.878125 151.927273) scale(0.09 -0.09)">
       <defs>
        <path id="DejaVuSans-2212" d="M 678 2272 
L 4684 2272 
L 4684 1741 
L 678 1741 
L 678 2272 
z
" transform="scale(0.015625)"/>
       </defs>
       <use xlink:href="#DejaVuSans-2212"/>
       <use xlink:href="#DejaVuSans-30" transform="translate(83.789062 0)"/>
       <use xlink:href="#DejaVuSans-2e" transform="translate(147.412109 0)"/>
       <use xlink:href="#DejaVuSans-32" transform="translate(179.199219 0)"/>
      </g>
     </g>
    </g>
    <g class="tick ytick">
     <g id="line2d_13">
      <path d="M 49.732656 118.747976 
L 406.852656 118.747976 
" clip-path="url(#pca42724b4c)" style="fill: none; stroke: #b0b0b0; stroke-opacity: 0.1; stroke-width: 0.8; stroke-linecap: square"/>
     </g>
     <g id="line2d_14">
      <g>
       <use xlink:href="#m09c307f7cd" x="49.732656" y="118.747976" style="stroke: currentColor; stroke-width: 0.8"/>
      </g>
     </g>
     <g id="text_8" class="text">
      <!-- 0.0 -->
      <g transform="translate(28.419844 122.167273) scale(0.09 -0.09)">
       <use xlink:href="#DejaVuSans-30"/>
       <use xlink:href="#DejaVuSans-2e" transform="translate(63.623047 0)"/>
       <use xlink:href="#DejaVuSans-30" transform="translate(95.410156 0)"/>
      </g>
     </g>
    </g>
    <g class="tick ytick">
     <g id="line2d_15">
      <path d="M 49.732656 88.987976 
L 406.852656 88.987976 
" clip-path="url(#pca42724b4c)" style="fill: none; stroke: #b0b0b0; stroke-opacity: 0.1; stroke-width: 0.8; stroke-linecap: square"/>
     </g>
     <g id="line2d_16">
      <g>
       <use xlink:href="#m09c307f7cd" x="49.732656" y="88.987976" style="stroke: currentColor; stroke-width: 0.8"/>
      </g>
     </g>
     <g id="text_9" class="text">
      <!-- 0.2 -->
      <g transform="translate(28.419844 92.407273) scale(0.09 -0.09)">
       <use xlink:href="#DejaVuSans-30"/>
       <use xlink:href="#DejaVuSans-2e" transform="translate(63.623047 0)"/>
       <use xlink:href="#DejaVuSans-32" transform="translate(95.410156 0)"/>
      </g>
     </g>
    </g>
    <g class="tick ytick">
     <g id="line2d_17">
      <path d="M 49.732656 59.227976 
L 406.852656 59.227976 
" clip-path="url(#pca42724b4c)" style="fill: none; stroke: #b0b0b0; stroke-opacity: 0.1; stroke-width: 0.8; stroke-linecap: square"/>
     </g>
     <g id="line2d_18">
      <g>
       <use xlink:href="#m09c307f7cd" x="49.732656" y="59.227976" style="stroke: currentColor; stroke-width: 0.8"/>
      </g>
     </g>
     <g id="text_10" class="text">
      <!-- 0.4 -->
      <g transform="translate(28.419844 62.647273) scale(0.09 -0.09)">
       <defs>
        <path id="DejaVuSans-34" d="M 2419 4116 
L 825 1625 
L 2419 1625 
L 2419 4116 
z
M 2253 4666 
L 3047 4666 
L 3047 1625 
L 3713 1625 
L 3713 1100 
L 3047 1100 
L 3047 0 
L 2419 0 
L 2419 1100 
L 313 1100 
L 313 1709 
L 2253 4666 
z
" transform="scale(0.015625)"/>
       </defs>
       <use xlink:href="#DejaVuSans-30"/>
       <use xlink:href="#DejaVuSans-2e" transform="translate(63.623047 0)"/>
       <use xlink:href="#DejaVuSans-34" transform="translate(95.410156 0)"/>
      </g>
     </g>
    </g>
    <g id="text_11" class="text">
     <!-- $x(t), v(t)$ -->
     <g transform="translate(14.798438 115.389869) rotate(-90) scale(0.1 -0.1)">
      <defs>
       <path id="DejaVuSans-Oblique-78" d="M 3841 3500 
L 2234 1784 
L 3219 0 
L 2559 0 
L 1819 1388 
L 531 0 
L -166 0 
L 1556 1844 
L 641 3500 
L 1300 3500 
L 1972 2234 
L 3144 3500 
L 3841 3500 
z
" transform="scale(0.015625)"/>
       <path id="DejaVuSans-28" d="M 1984 4856 
Q 1566 4138 1362 3434 
Q 1159 2731 1159 2009 
Q 1159 1288 1364 580 
Q 1569 -128 1984 -844 
L 1484 -844 
Q 1016 -109 783 600 
Q 550 1309 550 2009 
Q 550 2706 781 3412 
Q 1013 4119 1484 4856 
L 1984 4856 
z
" transform="scale(0.015625)"/>
       <path id="DejaVuSans-29" d="M 513 4856 
L 1013 4856 
Q 1481 4119 1714 3412 
Q 1947 2706 1947 2009 
Q 1947 1309 1714 600 
Q 1481 -109 1013 -844 
L 513 -844 
Q 928 -128 1133 580 
Q 1338 1288 1338 2009 
Q 1338 2731 1133 3434 
Q 928 4138 513 4856 
z
" transform="scale(0.015625)"/>
       <path id="DejaVuSans-2c" d="M 750 794 
L 1409 794 
L 1409 256 
L 897 -744 
L 494 -744 
L 750 256 
L 750 794 
z
" transform="scale(0.015625)"/>
       <path id="DejaVuSans-Oblique-76" d="M 459 3500 
L 1069 3500 
L 1581 525 
L 3256 3500 
L 3866 3500 
L 1875 0 
L 1100 0 
L 459 3500 
z
" transform="scale(0.015625)"/>
      </defs>
      <use xlink:href="#DejaVuSans-Oblique-78" transform="translate(0 0.125)"/>
      <use xlink:href="#DejaVuSans-28" transform="translate(59.179688 0.125)"/>
      <use xlink:href="#DejaVuSans-Oblique-74" transform="translate(98.193359 0.125)"/>
      <use xlink:href="#DejaVuSans-29" transform="translate(137.402344 0.125)"/>
      <use xlink:href="#DejaVuSans-2c" transform="translate(176.416016 0.125)"/>
      <use xlink:href="#DejaVuSans-Oblique-76" transform="translate(227.685547 0.125)"/>
      <use xlink:href="#DejaVuSans-28" transform="translate(286.865234 0.125)"/>
      <use xlink:href="#DejaVuSans-Oblique-74" transform="translate(325.878906 0.125)"/>
      <use xlink:href="#DejaVuSans-29" transform="translate(365.087891 0.125)"/>
     </g>
    </g>
   </g>
   <g id="line2d_19">
    <path d="M 49.732656 118.747976 
L 53.339929 116.816185 
L 56.947202 117.061883 
L 60.554474 130.517348 
L 64.161747 95.377623 
L 67.76902 115.948077 
L 71.376293 114.190694 
L 74.983565 114.787388 
L 78.590838 127.989838 
L 82.198111 144.471693 
L 85.805384 158.959738 
L 89.412656 144.224489 
L 93.019929 124.824937 
L 96.627202 125.124765 
L 100.234474 111.185795 
L 103.841747 101.993719 
L 107.44902 113.802906 
L 111.056293 107.326771 
L 114.663565 116.809447 
L 118.270838 106.112924 
L 121.878111 83.468652 
L 125.485384 88.299017 
L 129.092656 83.285768 
L 132.699929 73.844758 
L 136.307202 74.740894 
L 139.914474 78.673375 
L 143.521747 77.165408 
L 147.12902 78.89633 
L 150.736293 68.807173 
L 154.343565 39.677919 
L 157.950838 36.178272 
L 161.558111 31.32 
L 165.165384 47.814854 
L 168.772656 68.442334 
L 172.379929 80.584115 
L 175.987202 97.61502 
L 179.594474 78.863778 
L 183.201747 80.254582 
L 186.80902 96.273685 
L 190.416293 97.984635 
L 194.023565 82.37257 
L 197.630838 102.814921 
L 201.238111 106.054011 
L 204.845384 111.42553 
L 208.452656 108.462438 
L 212.059929 92.3096 
L 215.667202 94.927563 
L 219.274474 115.801001 
L 222.881747 121.229366 
L 226.48902 128.612329 
L 230.096293 121.171532 
L 233.703565 96.851039 
L 237.310838 104.789638 
L 240.918111 85.452529 
L 244.525384 86.920369 
L 248.132656 76.472496 
L 251.739929 89.856613 
L 255.347202 101.985698 
L 258.954474 98.009999 
L 262.561747 87.814544 
L 266.16902 71.270689 
L 269.776293 95.401101 
L 273.383565 102.290334 
L 276.990838 115.788245 
L 280.598111 121.832299 
L 284.205384 119.800772 
L 287.812656 130.012007 
L 291.419929 136.415973 
L 295.027202 123.427007 
L 298.634474 119.345868 
L 302.241747 123.871766 
L 305.84902 118.82982 
L 309.456293 109.139707 
L 313.063565 89.515918 
L 316.670838 86.01139 
L 320.278111 96.368818 
L 323.885384 108.764276 
L 327.492656 105.289281 
L 331.099929 111.52624 
L 334.707202 123.601827 
L 338.314474 127.763339 
L 341.921747 135.776344 
L 345.52902 131.218669 
L 349.136293 143.219781 
L 352.743565 128.133861 
L 356.350838 127.176881 
L 359.958111 149.237595 
L 363.565384 132.50095 
L 367.172656 142.242928 
L 370.779929 153.953324 
L 374.387202 143.955538 
L 377.994474 137.626596 
L 381.601747 114.856195 
L 385.20902 99.261607 
L 388.816293 102.450308 
L 392.423565 90.908772 
L 396.030838 74.076247 
L 399.638111 58.849862 
L 403.245384 62.417728 
L 406.852656 98.462349 
" clip-path="url(#pca42724b4c)" style="fill: none; stroke: #8000ff; stroke-width: 2; stroke-linecap: square"/>
   </g>
   <g id="line2d_20">
    <path d="M 49.732656 118.747976 
L 53.339929 118.747976 
L 56.947202 118.728658 
L 60.554474 118.711797 
L 64.161747 118.829491 
L 67.76902 118.595787 
L 71.376293 118.567788 
L 74.983565 118.522215 
L 78.590838 118.48261 
L 82.198111 118.575028 
L 85.805384 118.832265 
L 89.412656 119.234383 
L 93.019929 119.489148 
L 96.627202 119.549918 
L 100.234474 119.613686 
L 103.841747 119.538064 
L 107.44902 119.370521 
L 111.056293 119.32107 
L 114.663565 119.206858 
L 118.270838 119.187473 
L 121.878111 119.061123 
L 125.485384 118.708329 
L 129.092656 118.40384 
L 132.699929 118.049218 
L 136.307202 117.600186 
L 139.914474 117.160115 
L 143.521747 116.759369 
L 147.12902 116.343543 
L 150.736293 115.945027 
L 154.343565 115.445619 
L 157.950838 114.654918 
L 161.558111 113.829221 
L 165.165384 112.954941 
L 168.772656 112.24561 
L 172.379929 111.742554 
L 175.987202 111.360915 
L 179.594474 111.149585 
L 183.201747 110.750743 
L 186.80902 110.365809 
L 190.416293 110.141067 
L 194.023565 109.933433 
L 197.630838 109.569679 
L 201.238111 109.410349 
L 204.845384 109.283409 
L 208.452656 109.210184 
L 212.059929 109.107329 
L 215.667202 108.842945 
L 219.274474 108.604741 
L 222.881747 108.575271 
L 226.48902 108.600085 
L 230.096293 108.698729 
L 233.703565 108.722964 
L 237.310838 108.503995 
L 240.918111 108.364412 
L 244.525384 108.031457 
L 248.132656 107.713181 
L 251.739929 107.290426 
L 255.347202 107.001513 
L 258.954474 106.83389 
L 262.561747 106.62651 
L 266.16902 106.317176 
L 269.776293 105.842403 
L 273.383565 105.608934 
L 276.990838 105.444358 
L 280.598111 105.414761 
L 284.205384 105.445604 
L 287.812656 105.456132 
L 291.419929 105.568772 
L 295.027202 105.745452 
L 298.634474 105.792242 
L 302.241747 105.798221 
L 305.84902 105.849459 
L 309.456293 105.850278 
L 313.063565 105.754195 
L 316.670838 105.461874 
L 320.278111 105.134508 
L 323.885384 104.910717 
L 327.492656 104.81088 
L 331.099929 104.676293 
L 334.707202 104.604076 
L 338.314474 104.652614 
L 341.921747 104.742768 
L 345.52902 104.913051 
L 349.136293 105.037758 
L 352.743565 105.282476 
L 356.350838 105.376335 
L 359.958111 105.460624 
L 363.565384 105.76552 
L 367.172656 105.90305 
L 370.779929 106.138 
L 374.387202 106.490053 
L 377.994474 106.742129 
L 381.601747 106.930915 
L 385.20902 106.891997 
L 388.816293 106.697134 
L 392.423565 106.534157 
L 396.030838 106.255765 
L 399.638111 105.809048 
L 403.245384 105.210066 
L 406.852656 104.646764 
" clip-path="url(#pca42724b4c)" style="fill: none; stroke-dasharray: 7.4,3.2; stroke-dashoffset: 0; stroke: #ff8000; stroke-width: 2"/>
   </g>
   <g class="patch">
    <path d="M 49.732656 158.959738 
L 49.732656 31.32 
" style="fill: none; stroke: currentColor; stroke-width: 0.8; stroke-linejoin: miter; stroke-linecap: square"/>
   </g>
   <g class="patch">
    <path d="M 49.732656 158.959738 
L 406.852656 158.959738 
" style="fill: none; stroke: currentColor; stroke-width: 0.8; stroke-linejoin: miter; stroke-linecap: square"/>
   </g>
   <g id="text_12" class="text">
    <!-- Constant Velocity Model with $x(0) = v(0) = 0$ -->
    <g transform="translate(96.292656 16.32) scale(0.12 -0.12)">
     <defs>
      <path id="DejaVuSans-43" d="M 4122 4306 
L 4122 3641 
Q 3803 3938 3442 4084 
Q 3081 4231 2675 4231 
Q 1875 4231 1450 3742 
Q 1025 3253 1025 2328 
Q 1025 1406 1450 917 
Q 1875 428 2675 428 
Q 3081 428 3442 575 
Q 3803 722 4122 1019 
L 4122 359 
Q 3791 134 3420 21 
Q 3050 -91 2638 -91 
Q 1578 -91 968 557 
Q 359 1206 359 2328 
Q 359 3453 968 4101 
Q 1578 4750 2638 4750 
Q 3056 4750 3426 4639 
Q 3797 4528 4122 4306 
z
" transform="scale(0.015625)"/>
      <path id="DejaVuSans-6f" d="M 1959 3097 
Q 1497 3097 1228 2736 
Q 959 2375 959 1747 
Q 959 1119 1226 758 
Q 1494 397 1959 397 
Q 2419 397 2687 759 
Q 2956 1122 2956 1747 
Q 2956 2369 2687 2733 
Q 2419 3097 1959 3097 
z
M 1959 3584 
Q 2709 3584 3137 3096 
Q 3566 2609 3566 1747 
Q 3566 888 3137 398 
Q 2709 -91 1959 -91 
Q 1206 -91 779 398 
Q 353 888 353 1747 
Q 353 2609 779 3096 
Q 1206 3584 1959 3584 
z
" transform="scale(0.015625)"/>
      <path id="DejaVuSans-6e" d="M 3513 2113 
L 3513 0 
L 2938 0 
L 2938 2094 
Q 2938 2591 2744 2837 
Q 2550 3084 2163 3084 
Q 1697 3084 1428 2787 
Q 1159 2491 1159 1978 
L 1159 0 
L 581 0 
L 581 3500 
L 1159 3500 
L 1159 2956 
Q 1366 3272 1645 3428 
Q 1925 3584 2291 3584 
Q 2894 3584 3203 3211 
Q 3513 2838 3513 2113 
z
" transform="scale(0.015625)"/>
      <path id="DejaVuSans-73" d="M 2834 3397 
L 2834 2853 
Q 2591 2978 2328 3040 
Q 2066 3103 1784 3103 
Q 1356 3103 1142 2972 
Q 928 2841 928 2578 
Q 928 2378 1081 2264 
Q 1234 2150 1697 2047 
L 1894 2003 
Q 2506 1872 2764 1633 
Q 3022 1394 3022 966 
Q 3022 478 2636 193 
Q 2250 -91 1575 -91 
Q 1294 -91 989 -36 
Q 684 19 347 128 
L 347 722 
Q 666 556 975 473 
Q 1284 391 1588 391 
Q 1994 391 2212 530 
Q 2431 669 2431 922 
Q 2431 1156 2273 1281 
Q 2116 1406 1581 1522 
L 1381 1569 
Q 847 1681 609 1914 
Q 372 2147 372 2553 
Q 372 3047 722 3315 
Q 1072 3584 1716 3584 
Q 2034 3584 2315 3537 
Q 2597 3491 2834 3397 
z
" transform="scale(0.015625)"/>
      <path id="DejaVuSans-74" d="M 1172 4494 
L 1172 3500 
L 2356 3500 
L 2356 3053 
L 1172 3053 
L 1172 1153 
Q 1172 725 1289 603 
Q 1406 481 1766 481 
L 2356 481 
L 2356 0 
L 1766 0 
Q 1100 0 847 248 
Q 594 497 594 1153 
L 594 3053 
L 172 3053 
L 172 3500 
L 594 3500 
L 594 4494 
L 1172 4494 
z
" transform="scale(0.015625)"/>
      <path id="DejaVuSans-61" d="M 2194 1759 
Q 1497 1759 1228 1600 
Q 959 1441 959 1056 
Q 959 750 1161 570 
Q 1363 391 1709 391 
Q 2188 391 2477 730 
Q 2766 1069 2766 1631 
L 2766 1759 
L 2194 1759 
z
M 3341 1997 
L 3341 0 
L 2766 0 
L 2766 531 
Q 2569 213 2275 61 
Q 1981 -91 1556 -91 
Q 1019 -91 701 211 
Q 384 513 384 1019 
Q 384 1609 779 1909 
Q 1175 2209 1959 2209 
L 2766 2209 
L 2766 2266 
Q 2766 2663 2505 2880 
Q 2244 3097 1772 3097 
Q 1472 3097 1187 3025 
Q 903 2953 641 2809 
L 641 3341 
Q 956 3463 1253 3523 
Q 1550 3584 1831 3584 
Q 2591 3584 2966 3190 
Q 3341 2797 3341 1997 
z
" transform="scale(0.015625)"/>
      <path id="DejaVuSans-20" transform="scale(0.015625)"/>
      <path id="DejaVuSans-56" d="M 1831 0 
L 50 4666 
L 709 4666 
L 2188 738 
L 3669 4666 
L 4325 4666 
L 2547 0 
L 1831 0 
z
" transform="scale(0.015625)"/>
      <path id="DejaVuSans-65" d="M 3597 1894 
L 3597 1613 
L 953 1613 
Q 991 1019 1311 708 
Q 1631 397 2203 397 
Q 2534 397 2845 478 
Q 3156 559 3463 722 
L 3463 178 
Q 3153 47 2828 -22 
Q 2503 -91 2169 -91 
Q 1331 -91 842 396 
Q 353 884 353 1716 
Q 353 2575 817 3079 
Q 1281 3584 2069 3584 
Q 2775 3584 3186 3129 
Q 3597 2675 3597 1894 
z
M 3022 2063 
Q 3016 2534 2758 2815 
Q 2500 3097 2075 3097 
Q 1594 3097 1305 2825 
Q 1016 2553 972 2059 
L 3022 2063 
z
" transform="scale(0.015625)"/>
      <path id="DejaVuSans-6c" d="M 603 4863 
L 1178 4863 
L 1178 0 
L 603 0 
L 603 4863 
z
" transform="scale(0.015625)"/>
      <path id="DejaVuSans-63" d="M 3122 3366 
L 3122 2828 
Q 2878 2963 2633 3030 
Q 2388 3097 2138 3097 
Q 1578 3097 1268 2742 
Q 959 2388 959 1747 
Q 959 1106 1268 751 
Q 1578 397 2138 397 
Q 2388 397 2633 464 
Q 2878 531 3122 666 
L 3122 134 
Q 2881 22 2623 -34 
Q 2366 -91 2075 -91 
Q 1284 -91 818 406 
Q 353 903 353 1747 
Q 353 2603 823 3093 
Q 1294 3584 2113 3584 
Q 2378 3584 2631 3529 
Q 2884 3475 3122 3366 
z
" transform="scale(0.015625)"/>
      <path id="DejaVuSans-69" d="M 603 3500 
L 1178 3500 
L 1178 0 
L 603 0 
L 603 3500 
z
M 603 4863 
L 1178 4863 
L 1178 4134 
L 603 4134 
L 603 4863 
z
" transform="scale(0.015625)"/>
      <path id="DejaVuSans-79" d="M 2059 -325 
Q 1816 -950 1584 -1140 
Q 1353 -1331 966 -1331 
L 506 -1331 
L 506 -850 
L 844 -850 
Q 1081 -850 1212 -737 
Q 1344 -625 1503 -206 
L 1606 56 
L 191 3500 
L 800 3500 
L 1894 763 
L 2988 3500 
L 3597 3500 
L 2059 -325 
z
" transform="scale(0.015625)"/>
      <path id="DejaVuSans-4d" d="M 628 4666 
L 1569 4666 
L 2759 1491 
L 3956 4666 
L 4897 4666 
L 4897 0 
L 4281 0 
L 4281 4097 
L 3078 897 
L 2444 897 
L 1241 4097 
L 1241 0 
L 628 0 
L 628 4666 
z
" transform="scale(0.015625)"/>
      <path id="DejaVuSans-64" d="M 2906 2969 
L 2906 4863 
L 3481 4863 
L 3481 0 
L 2906 0 
L 2906 525 
Q 2725 213 2448 61 
Q 2172 -91 1784 -91 
Q 1150 -91 751 415 
Q 353 922 353 1747 
Q 353 2572 751 3078 
Q 1150 3584 1784 3584 
Q 2172 3584 2448 3432 
Q 2725 3281 2906 2969 
z
M 947 1747 
Q 947 1113 1208 752 
Q 1469 391 1925 391 
Q 2381 391 2643 752 
Q 2906 1113 2906 1747 
Q 2906 2381 2643 2742 
Q 2381 3103 1925 3103 
Q 1469 3103 1208 2742 
Q 947 2381 947 1747 
z
" transform="scale(0.015625)"/>
      <path id="DejaVuSans-77" d="M 269 3500 
L 844 3500 
L 1563 769 
L 2278 3500 
L 2956 3500 
L 3675 769 
L 4391 3500 
L 4966 3500 
L 4050 0 
L 3372 0 
L 2619 2869 
L 1863 0 
L 1184 0 
L 269 3500 
z
" transform="scale(0.015625)"/>
      <path id="DejaVuSans-68" d="M 3513 2113 
L 3513 0 
L 2938 0 
L 2938 2094 
Q 2938 2591 2744 2837 
Q 2550 3084 2163 3084 
Q 1697 3084 1428 2787 
Q 1159 2491 1159 1978 
L 1159 0 
L 581 0 
L 581 4863 
L 1159 4863 
L 1159 2956 
Q 1366 3272 1645 3428 
Q 1925 3584 2291 3584 
Q 2894 3584 3203 3211 
Q 3513 2838 3513 2113 
z
" transform="scale(0.015625)"/>
      <path id="DejaVuSans-3d" d="M 678 2906 
L 4684 2906 
L 4684 2381 
L 678 2381 
L 678 2906 
z
M 678 1631 
L 4684 1631 
L 4684 1100 
L 678 1100 
L 678 1631 
z
" transform="scale(0.015625)"/>
     </defs>
     <use xlink:href="#DejaVuSans-43" transform="translate(0 0.015625)"/>
     <use xlink:href="#DejaVuSans-6f" transform="translate(69.824219 0.015625)"/>
     <use xlink:href="#DejaVuSans-6e" transform="translate(131.005859 0.015625)"/>
     <use xlink:href="#DejaVuSans-73" transform="translate(194.384766 0.015625)"/>
     <use xlink:href="#DejaVuSans-74" transform="translate(246.484375 0.015625)"/>
     <use xlink:href="#DejaVuSans-61" transform="translate(285.693359 0.015625)"/>
     <use xlink:href="#DejaVuSans-6e" transform="translate(346.972656 0.015625)"/>
     <use xlink:href="#DejaVuSans-74" transform="translate(410.351562 0.015625)"/>
     <use xlink:href="#DejaVuSans-20" transform="translate(449.560547 0.015625)"/>
     <use xlink:href="#DejaVuSans-56" transform="translate(481.347656 0.015625)"/>
     <use xlink:href="#DejaVuSans-65" transform="translate(549.755859 0.015625)"/>
     <use xlink:href="#DejaVuSans-6c" transform="translate(611.279297 0.015625)"/>
     <use xlink:href="#DejaVuSans-6f" transform="translate(639.0625 0.015625)"/>
     <use xlink:href="#DejaVuSans-63" transform="translate(700.244141 0.015625)"/>
     <use xlink:href="#DejaVuSans-69" transform="translate(755.224609 0.015625)"/>
     <use xlink:href="#DejaVuSans-74" transform="translate(783.007812 0.015625)"/>
     <use xlink:href="#DejaVuSans-79" transform="translate(822.216797 0.015625)"/>
     <use xlink:href="#DejaVuSans-20" transform="translate(881.396484 0.015625)"/>
     <use xlink:href="#DejaVuSans-4d" transform="translate(913.183594 0.015625)"/>
     <use xlink:href="#DejaVuSans-6f" transform="translate(999.462891 0.015625)"/>
     <use xlink:href="#DejaVuSans-64" transform="translate(1060.644531 0.015625)"/>
     <use xlink:href="#DejaVuSans-65" transform="translate(1124.121094 0.015625)"/>
     <use xlink:href="#DejaVuSans-6c" transform="translate(1185.644531 0.015625)"/>
     <use xlink:href="#DejaVuSans-20" transform="translate(1213.427734 0.015625)"/>
     <use xlink:href="#DejaVuSans-77" transform="translate(1245.214844 0.015625)"/>
     <use xlink:href="#DejaVuSans-69" transform="translate(1327.001953 0.015625)"/>
     <use xlink:href="#DejaVuSans-74" transform="translate(1354.785156 0.015625)"/>
     <use xlink:href="#DejaVuSans-68" transform="translate(1393.994141 0.015625)"/>
     <use xlink:href="#DejaVuSans-20" transform="translate(1457.373047 0.015625)"/>
     <use xlink:href="#DejaVuSans-Oblique-78" transform="translate(1489.160156 0.015625)"/>
     <use xlink:href="#DejaVuSans-28" transform="translate(1548.339844 0.015625)"/>
     <use xlink:href="#DejaVuSans-30" transform="translate(1587.353516 0.015625)"/>
     <use xlink:href="#DejaVuSans-29" transform="translate(1650.976562 0.015625)"/>
     <use xlink:href="#DejaVuSans-3d" transform="translate(1709.472656 0.015625)"/>
     <use xlink:href="#DejaVuSans-Oblique-76" transform="translate(1812.744141 0.015625)"/>
     <use xlink:href="#DejaVuSans-28" transform="translate(1871.923828 0.015625)"/>
     <use xlink:href="#DejaVuSans-30" transform="translate(1910.9375 0.015625)"/>
     <use xlink:href="#DejaVuSans-29" transform="translate(1974.560547 0.015625)"/>
     <use xlink:href="#DejaVuSans-3d" transform="translate(2033.056641 0.015625)"/>
     <use xlink:href="#DejaVuSans-30" transform="translate(2136.328125 0.015625)"/>
    </g>
   </g>
   <g class="legend">
    <g class="patch">
     <path d="M 348.680256 67.49342 
L 393.410256 67.49342 
Q 395.210256 67.49342 395.210256 65.69342 
L 395.210256 40.172795 
Q 395.210256 38.372795 393.410256 38.372795 
L 348.680256 38.372795 
Q 346.880256 38.372795 346.880256 40.172795 
L 346.880256 65.69342 
Q 346.880256 67.49342 348.680256 67.49342 
z
" style="fill: #ffffff; opacity: 0.9; stroke: #cccccc; stroke-linejoin: miter"/>
    </g>
    <g id="line2d_21">
     <path d="M 350.480256 45.661389 
L 359.480256 45.661389 
L 368.480256 45.661389 
" style="fill: none; stroke: #8000ff; stroke-width: 2; stroke-linecap: square"/>
    </g>
    <g id="text_13" class="text">
     <!-- $v(t)$ -->
     <g transform="translate(375.680256 48.811389) scale(0.09 -0.09)">
      <use xlink:href="#DejaVuSans-Oblique-76" transform="translate(0 0.125)"/>
      <use xlink:href="#DejaVuSans-28" transform="translate(59.179688 0.125)"/>
      <use xlink:href="#DejaVuSans-Oblique-74" transform="translate(98.193359 0.125)"/>
      <use xlink:href="#DejaVuSans-29" transform="translate(137.402344 0.125)"/>
     </g>
    </g>
    <g id="line2d_22">
     <path d="M 350.480256 58.871701 
L 359.480256 58.871701 
L 368.480256 58.871701 
" style="fill: none; stroke-dasharray: 7.4,3.2; stroke-dashoffset: 0; stroke: #ff8000; stroke-width: 2"/>
    </g>
    <g id="text_14" class="text">
     <!-- $x(t)$ -->
     <g transform="translate(375.680256 62.021701) scale(0.09 -0.09)">
      <use xlink:href="#DejaVuSans-Oblique-78" transform="translate(0 0.125)"/>
      <use xlink:href="#DejaVuSans-28" transform="translate(59.179688 0.125)"/>
      <use xlink:href="#DejaVuSans-Oblique-74" transform="translate(98.193359 0.125)"/>
      <use xlink:href="#DejaVuSans-29" transform="translate(137.402344 0.125)"/>
     </g>
    </g>
   </g>
  </g>
 </g>
 <defs>
  <clipPath id="pca42724b4c">
   <rect x="49.732656" y="31.32" width="357.12" height="127.639738"/>
  </clipPath>
 </defs>
</svg>
