<svg xmlns="http://www.w3.org/2000/svg" xmlns:xlink="http://www.w3.org/1999/xlink" width="810.295" height="840.091" style="--axis-color:#000;--grid-stroke:rgba(0,0,0,0.2);--plot3d-stroke:rgba(0,0,0,0.3);--plot3d-grid:rgba(0,0,0,0.2)" viewBox="0 0 607.721 630.068"><style><![CDATA[@media (prefers-color-scheme:dark){:root{--axis-color:#fff;--grid-stroke:rgba(255,255,255,0.2);--plot3d-stroke:rgba(255,255,255,0.3);--plot3d-grid:rgba(255,255,255,0.2)}}.text{fill:var(--axis-color)!important;stroke:none!important}.axis path,.patch path[style*="stroke: currentColor"],.tick path{stroke:var(--axis-color)!important}g.legend>g:first-child>path:first-child{fill:rgba(255,255,255,.8)!important;stroke:rgba(0,0,0,.1)!important}@media (prefers-color-scheme:dark){g.legend>g:first-child>path:first-child{fill:rgba(26,26,26,.8)!important;stroke:rgba(255,255,255,.1)!important}}*{stroke-linejoin:round;stroke-linecap:butt}]]></style><g id="figure_1"><path d="M0 630.068h607.721V0H0z" class="patch" style="fill:none"/><g id="axes_1"><path d="M53.389 593.48h232.904V31.318H53.39z" class="patch" style="fill:none"/><g class="axis"><g class="tick xtick"><path id="line2d_1" d="M99.783 593.48V31.318" clip-path="url(#pda6d1ce171)" style="fill:none;stroke:#b0b0b0;stroke-opacity:.15;stroke-width:.8;stroke-linecap:square"/><g id="line2d_2"><defs><path id="m5ccb5a3945" d="M0 0v3.5" style="stroke:currentColor;stroke-width:.8"/></defs><use xlink:href="#m5ccb5a3945" x="99.783" y="593.48" style="stroke:currentColor;stroke-width:.8"/></g><g id="text_1" class="text" transform="matrix(.09 0 0 -.09 91.194 607.318)"><defs><path id="DejaVuSans-32" d="M1228 531h2203V0H469v531q359 372 979 998 621 627 780 809 303 340 423 576 121 236 121 464 0 372-261 606-261 235-680 235-297 0-627-103-329-103-704-313v638q381 153 712 231 332 78 607 78 725 0 1156-363 431-362 431-968 0-288-108-546-107-257-392-607-78-91-497-524-418-433-1181-1211z" transform="scale(.01563)"/><path id="DejaVuSans-30" d="M2034 4250q-487 0-733-480-245-479-245-1442 0-959 245-1439 246-480 733-480 491 0 736 480 246 480 246 1439 0 963-246 1442-245 480-736 480zm0 500q785 0 1199-621 414-620 414-1801 0-1178-414-1799Q2819-91 2034-91q-784 0-1198 620-414 621-414 1799 0 1181 414 1801 414 621 1198 621z" transform="scale(.01563)"/></defs><use xlink:href="#DejaVuSans-32"/><use xlink:href="#DejaVuSans-30" transform="translate(63.623)"/><use xlink:href="#DejaVuSans-30" transform="translate(127.246)"/></g></g><g class="tick xtick"><path id="line2d_3" d="M146.41 593.48V31.318" clip-path="url(#pda6d1ce171)" style="fill:none;stroke:#b0b0b0;stroke-opacity:.15;stroke-width:.8;stroke-linecap:square"/><use xlink:href="#m5ccb5a3945" id="line2d_4" x="146.411" y="593.48" style="stroke:currentColor;stroke-width:.8"/><g id="text_2" class="text" transform="matrix(.09 0 0 -.09 137.821 607.318)"><defs><path id="DejaVuSans-34" d="M2419 4116 825 1625h1594zm-166 550h794V1625h666v-525h-666V0h-628v1100H313v609z" transform="scale(.01563)"/></defs><use xlink:href="#DejaVuSans-34"/><use xlink:href="#DejaVuSans-30" transform="translate(63.623)"/><use xlink:href="#DejaVuSans-30" transform="translate(127.246)"/></g></g><g class="tick xtick"><path id="line2d_5" d="M193.038 593.48V31.318" clip-path="url(#pda6d1ce171)" style="fill:none;stroke:#b0b0b0;stroke-opacity:.15;stroke-width:.8;stroke-linecap:square"/><use xlink:href="#m5ccb5a3945" id="line2d_6" x="193.038" y="593.48" style="stroke:currentColor;stroke-width:.8"/><g id="text_3" class="text" transform="matrix(.09 0 0 -.09 184.449 607.318)"><defs><path id="DejaVuSans-36" d="M2113 2584q-425 0-674-291-248-290-248-796 0-503 248-796 249-292 674-292t673 292q248 293 248 796 0 506-248 796-248 291-673 291zm1253 1979v-575q-238 112-480 171-242 60-480 60-625 0-955-422-329-422-376-1275 184 272 462 417 279 145 613 145 703 0 1111-427 408-426 408-1160 0-719-425-1154Q2819-91 2113-91q-810 0-1238 620-428 621-428 1799 0 1106 525 1764t1409 658q238 0 480-47t505-140z" transform="scale(.01563)"/></defs><use xlink:href="#DejaVuSans-36"/><use xlink:href="#DejaVuSans-30" transform="translate(63.623)"/><use xlink:href="#DejaVuSans-30" transform="translate(127.246)"/></g></g><g class="tick xtick"><path id="line2d_7" d="M239.666 593.48V31.318" clip-path="url(#pda6d1ce171)" style="fill:none;stroke:#b0b0b0;stroke-opacity:.15;stroke-width:.8;stroke-linecap:square"/><use xlink:href="#m5ccb5a3945" id="line2d_8" x="239.666" y="593.48" style="stroke:currentColor;stroke-width:.8"/><g id="text_4" class="text" transform="matrix(.09 0 0 -.09 231.076 607.318)"><defs><path id="DejaVuSans-38" d="M2034 2216q-450 0-708-241-257-241-257-662 0-422 257-663 258-241 708-241t709 242q260 243 260 662 0 421-258 662-257 241-711 241zm-631 268q-406 100-633 378-226 279-226 679 0 559 398 884 399 325 1092 325 697 0 1094-325t397-884q0-400-227-679-226-278-629-378 456-106 710-416 255-309 255-755 0-679-414-1042Q2806-91 2034-91q-771 0-1186 362-414 363-414 1042 0 446 256 755 257 310 713 416zm-231 997q0-362 226-565 227-203 636-203 407 0 636 203 230 203 230 565 0 363-230 566-229 203-636 203-409 0-636-203-226-203-226-566z" transform="scale(.01563)"/></defs><use xlink:href="#DejaVuSans-38"/><use xlink:href="#DejaVuSans-30" transform="translate(63.623)"/><use xlink:href="#DejaVuSans-30" transform="translate(127.246)"/></g></g><g class="tick xtick"><path id="line2d_9" d="M286.293 593.48V31.318" clip-path="url(#pda6d1ce171)" style="fill:none;stroke:#b0b0b0;stroke-opacity:.15;stroke-width:.8;stroke-linecap:square"/><use xlink:href="#m5ccb5a3945" id="line2d_10" x="286.293" y="593.48" style="stroke:currentColor;stroke-width:.8"/><g id="text_5" class="text" transform="matrix(.09 0 0 -.09 274.84 607.318)"><defs><path id="DejaVuSans-31" d="M794 531h1031v3560L703 3866v575l1116 225h631V531h1031V0H794z" transform="scale(.01563)"/></defs><use xlink:href="#DejaVuSans-31"/><use xlink:href="#DejaVuSans-30" transform="translate(63.623)"/><use xlink:href="#DejaVuSans-30" transform="translate(127.246)"/><use xlink:href="#DejaVuSans-30" transform="translate(190.87)"/></g></g><g id="text_6" class="text" transform="matrix(.1 0 0 -.1 155.851 620.788)"><defs><path id="DejaVuSans-53" d="M3425 4513v-616q-359 172-678 256-319 85-616 85-515 0-795-200t-280-569q0-310 186-468 186-157 705-254l381-78q706-135 1042-474t336-907q0-679-455-1029Q2797-91 1919-91q-331 0-705 75-373 75-773 222v650q384-215 753-325 369-109 725-109 540 0 834 212 294 213 294 607 0 343-211 537t-692 291l-385 75q-706 140-1022 440-315 300-315 835 0 619 436 975t1201 356q329 0 669-60 341-59 697-177z" transform="scale(.01563)"/><path id="DejaVuSans-74" d="M1172 4494v-994h1184v-447H1172V1153q0-428 117-550t477-122h590V0h-590q-666 0-919 248-253 249-253 905v1900H172v447h422v994z" transform="scale(.01563)"/><path id="DejaVuSans-65" d="M3597 1894v-281H953q38-594 358-905t892-311q331 0 642 81t618 244V178Q3153 47 2828-22t-659-69q-838 0-1327 487-489 488-489 1320 0 859 464 1363 464 505 1252 505 706 0 1117-455 411-454 411-1235zm-575 169q-6 471-264 752-258 282-683 282-481 0-770-272t-333-766z" transform="scale(.01563)"/><path id="DejaVuSans-70" d="M1159 525v-1856H581v4831h578v-531q182 312 458 463 277 152 661 152 638 0 1036-506 399-506 399-1331T3314 415Q2916-91 2278-91q-384 0-661 152-276 152-458 464zm1957 1222q0 634-261 995t-717 361q-457 0-718-361t-261-995 261-995 718-361q456 0 717 361t261 995z" transform="scale(.01563)"/><path id="DejaVuSans-73" d="M2834 3397v-544q-243 125-506 187-262 63-544 63-428 0-642-131t-214-394q0-200 153-314t616-217l197-44q612-131 870-370t258-667q0-488-386-773Q2250-91 1575-91q-281 0-586 55T347 128v594q319-166 628-249 309-82 613-82 406 0 624 139 219 139 219 392 0 234-158 359-157 125-692 241l-200 47q-534 112-772 345-237 233-237 639 0 494 350 762 350 269 994 269 318 0 599-47 282-46 519-140z" transform="scale(.01563)"/></defs><use xlink:href="#DejaVuSans-53"/><use xlink:href="#DejaVuSans-74" transform="translate(63.477)"/><use xlink:href="#DejaVuSans-65" transform="translate(102.686)"/><use xlink:href="#DejaVuSans-70" transform="translate(164.209)"/><use xlink:href="#DejaVuSans-73" transform="translate(227.686)"/></g></g><g class="axis"><g class="tick ytick"><path id="line2d_11" d="M53.389 593.48h232.904" clip-path="url(#pda6d1ce171)" style="fill:none;stroke:#b0b0b0;stroke-opacity:.15;stroke-width:.8;stroke-linecap:square"/><g id="line2d_12"><defs><path id="ma3b6333a42" d="M0 0h-3.5" style="stroke:currentColor;stroke-width:.8"/></defs><use xlink:href="#ma3b6333a42" x="53.389" y="593.48" style="stroke:currentColor;stroke-width:.8"/></g><g id="text_7" class="text" transform="matrix(.09 0 0 -.09 32.076 596.899)"><defs><path id="DejaVuSans-2e" d="M684 794h660V0H684z" transform="scale(.01563)"/></defs><use xlink:href="#DejaVuSans-30"/><use xlink:href="#DejaVuSans-2e" transform="translate(63.623)"/><use xlink:href="#DejaVuSans-30" transform="translate(95.41)"/></g></g><g class="tick ytick"><path id="line2d_13" d="M53.389 518.525h232.904" clip-path="url(#pda6d1ce171)" style="fill:none;stroke:#b0b0b0;stroke-opacity:.15;stroke-width:.8;stroke-linecap:square"/><use xlink:href="#ma3b6333a42" id="line2d_14" x="53.389" y="518.525" style="stroke:currentColor;stroke-width:.8"/><g id="text_8" class="text" transform="matrix(.09 0 0 -.09 32.076 521.944)"><use xlink:href="#DejaVuSans-30"/><use xlink:href="#DejaVuSans-2e" transform="translate(63.623)"/><use xlink:href="#DejaVuSans-32" transform="translate(95.41)"/></g></g><g class="tick ytick"><path id="line2d_15" d="M53.389 443.57h232.904" clip-path="url(#pda6d1ce171)" style="fill:none;stroke:#b0b0b0;stroke-opacity:.15;stroke-width:.8;stroke-linecap:square"/><use xlink:href="#ma3b6333a42" id="line2d_16" x="53.389" y="443.57" style="stroke:currentColor;stroke-width:.8"/><g id="text_9" class="text" transform="matrix(.09 0 0 -.09 32.076 446.99)"><use xlink:href="#DejaVuSans-30"/><use xlink:href="#DejaVuSans-2e" transform="translate(63.623)"/><use xlink:href="#DejaVuSans-34" transform="translate(95.41)"/></g></g><g class="tick ytick"><path id="line2d_17" d="M53.389 368.615h232.904" clip-path="url(#pda6d1ce171)" style="fill:none;stroke:#b0b0b0;stroke-opacity:.15;stroke-width:.8;stroke-linecap:square"/><use xlink:href="#ma3b6333a42" id="line2d_18" x="53.389" y="368.615" style="stroke:currentColor;stroke-width:.8"/><g id="text_10" class="text" transform="matrix(.09 0 0 -.09 32.076 372.034)"><use xlink:href="#DejaVuSans-30"/><use xlink:href="#DejaVuSans-2e" transform="translate(63.623)"/><use xlink:href="#DejaVuSans-36" transform="translate(95.41)"/></g></g><g class="tick ytick"><path id="line2d_19" d="M53.389 293.66h232.904" clip-path="url(#pda6d1ce171)" style="fill:none;stroke:#b0b0b0;stroke-opacity:.15;stroke-width:.8;stroke-linecap:square"/><use xlink:href="#ma3b6333a42" id="line2d_20" x="53.389" y="293.66" style="stroke:currentColor;stroke-width:.8"/><g id="text_11" class="text" transform="matrix(.09 0 0 -.09 32.076 297.08)"><use xlink:href="#DejaVuSans-30"/><use xlink:href="#DejaVuSans-2e" transform="translate(63.623)"/><use xlink:href="#DejaVuSans-38" transform="translate(95.41)"/></g></g><g class="tick ytick"><path id="line2d_21" d="M53.389 218.705h232.904" clip-path="url(#pda6d1ce171)" style="fill:none;stroke:#b0b0b0;stroke-opacity:.15;stroke-width:.8;stroke-linecap:square"/><use xlink:href="#ma3b6333a42" id="line2d_22" x="53.389" y="218.705" style="stroke:currentColor;stroke-width:.8"/><g id="text_12" class="text" transform="matrix(.09 0 0 -.09 32.076 222.125)"><use xlink:href="#DejaVuSans-31"/><use xlink:href="#DejaVuSans-2e" transform="translate(63.623)"/><use xlink:href="#DejaVuSans-30" transform="translate(95.41)"/></g></g><g class="tick ytick"><path id="line2d_23" d="M53.389 143.75h232.904" clip-path="url(#pda6d1ce171)" style="fill:none;stroke:#b0b0b0;stroke-opacity:.15;stroke-width:.8;stroke-linecap:square"/><use xlink:href="#ma3b6333a42" id="line2d_24" x="53.389" y="143.75" style="stroke:currentColor;stroke-width:.8"/><g id="text_13" class="text" transform="matrix(.09 0 0 -.09 32.076 147.17)"><use xlink:href="#DejaVuSans-31"/><use xlink:href="#DejaVuSans-2e" transform="translate(63.623)"/><use xlink:href="#DejaVuSans-32" transform="translate(95.41)"/></g></g><g class="tick ytick"><path id="line2d_25" d="M53.389 68.796h232.904" clip-path="url(#pda6d1ce171)" style="fill:none;stroke:#b0b0b0;stroke-opacity:.15;stroke-width:.8;stroke-linecap:square"/><use xlink:href="#ma3b6333a42" id="line2d_26" x="53.389" y="68.796" style="stroke:currentColor;stroke-width:.8"/><g id="text_14" class="text" transform="matrix(.09 0 0 -.09 32.076 72.215)"><use xlink:href="#DejaVuSans-31"/><use xlink:href="#DejaVuSans-2e" transform="translate(63.623)"/><use xlink:href="#DejaVuSans-34" transform="translate(95.41)"/></g></g><g id="text_15" class="text"><g transform="matrix(0 -.1 -.1 0 14.798 332.932)"><defs><path id="DejaVuSans-41" d="m2188 4044-857-2322h1716zm-357 622h716L4325 0h-656l-425 1197H1141L716 0H50z" transform="scale(.01563)"/><path id="DejaVuSans-76" d="M191 3500h609L1894 563l1094 2937h609L2284 0h-781z" transform="scale(.01563)"/><path id="DejaVuSans-72" d="M2631 2963q-97 56-211 82-114 27-251 27-488 0-749-317t-261-911V0H581v3500h578v-544q182 319 472 473 291 155 707 155 59 0 131-8 72-7 159-23z" transform="scale(.01563)"/><path id="DejaVuSans-61" d="M2194 1759q-697 0-966-159t-269-544q0-306 202-486 202-179 548-179 479 0 768 339t289 901v128zm1147 238V0h-575v531q-197-318-491-470T1556-91q-537 0-855 302-317 302-317 808 0 590 395 890 396 300 1180 300h807v57q0 397-261 614t-733 217q-300 0-585-72-284-72-546-216v532q315 122 612 182 297 61 578 61 760 0 1135-394 375-393 375-1193z" transform="scale(.01563)"/><path id="DejaVuSans-67" d="M2906 1791q0 625-258 968-257 344-723 344-462 0-720-344-258-343-258-968 0-622 258-966t720-344q466 0 723 344 258 344 258 966zm575-1357q0-893-397-1329-396-436-1215-436-303 0-572 45t-522 139v559q253-137 500-202 247-66 503-66 566 0 847 295t281 892v285q-178-310-456-463T1784 0Q1141 0 747 490 353 981 353 1791q0 812 394 1302 394 491 1037 491 388 0 666-153t456-462v531h575z" transform="scale(.01563)"/></defs><use xlink:href="#DejaVuSans-41"/><use xlink:href="#DejaVuSans-76" transform="translate(62.533)"/><use xlink:href="#DejaVuSans-65" transform="translate(121.713)"/><use xlink:href="#DejaVuSans-72" transform="translate(183.236)"/><use xlink:href="#DejaVuSans-61" transform="translate(224.35)"/><use xlink:href="#DejaVuSans-67" transform="translate(285.629)"/><use xlink:href="#DejaVuSans-65" transform="translate(349.105)"/></g><g transform="matrix(0 -.1 -.1 0 25.996 329.714)"><defs><path id="DejaVuSans-77" d="M269 3500h575l719-2731 715 2731h678l719-2731 716 2731h575L4050 0h-678l-753 2869L1863 0h-679z" transform="scale(.01563)"/><path id="DejaVuSans-64" d="M2906 2969v1894h575V0h-575v525q-181-312-458-464-276-152-664-152-634 0-1033 506-398 507-398 1332t398 1331q399 506 1033 506 388 0 664-152 277-151 458-463zM947 1747q0-634 261-995t717-361 718 361q263 361 263 995t-263 995q-262 361-718 361t-717-361-261-995z" transform="scale(.01563)"/></defs><use xlink:href="#DejaVuSans-72"/><use xlink:href="#DejaVuSans-65" transform="translate(38.863)"/><use xlink:href="#DejaVuSans-77" transform="translate(100.387)"/><use xlink:href="#DejaVuSans-61" transform="translate(182.174)"/><use xlink:href="#DejaVuSans-72" transform="translate(243.453)"/><use xlink:href="#DejaVuSans-64" transform="translate(282.816)"/></g></g></g><path id="line2d_27" d="m53.389 415.405.233-26.767.233-57.71.233-9.704.466-35.27.234-5.354.466-41.834.233 3.03.233-10.551.466 23.163.234-29.8.233-1.646.233-23.23.233 14.373.233-1.441.233-15.026.233 9.038.467-2.094.466-12.719.233-4.836.233 7.405.233-9.306.233 9.062.467-3.888.233-4.03.466-22.476.233 6.6.233 2.301.467-19.396.233 14.271.233.207.466 5.527.233-9.558.234-4.952.233 6.493.466-14.1.233 4.102.233 10.455.233-18.796.233 2.905.234 7.957.233-7.927.233-1.426.233-8.465.233 8 .233-23.541.233 19.62.234 3.958.233-24.267.233 7.37.233-4.122.233-.375.233.416.233-2.141.234-10.538.233 28.934.233-26.859.233-2.042.233 6.307.233-5.736.233-1.884.234 6.887.233-11.187.233 7.614.466 6.784.233-18.322.233 19.276.233-2.597.234-15.271.233 1.815.233 6.402.233-17.43.7 12.22.233-8.152.233-20.096.233 17.978.233-8.164.233 8.443.466 3.864.234-.903.233-1.815.233 4.893.233-19.892.233 11.16.233-7.798.233 21.734.233-17.994.234-6.923.233 7.665.233-7.604.233 3.877.233 1.697.233-20.584.233 12.636.234 5.651.233 1.284.233 3.746.233-.102.233-5.614.233-2.93.233 5.698.234-.315.233-7.148.233 4.739.466-11.786.233-.07.233-2.676.234 18.53.233-15.364.233-5.98.233.355.233 12.505.233-5.624.466 5.3.234 6.65.233-11.786.233.64.233 1.052.233 13.486.233-10.52.233-16.355.234 7.555.233-4.289.233 3.883.233 5.892.233-19.522.233 4.322.233 21.788.234-13.467.233 12.594.233-18.522.233 16.365.233-6.011.233-10.509.233-.578.234 8.439.466-7.02.466 5.497.233-11.077.233-1.824.233-13.548.234 33.429.233-2.126.233-27.16.233 19.767.233-6.74.233 4.336.233-13.813.234 16.923.233-5.244.233.155.233-11.378.233 22.412.233-16.426.233-2.682.234 15.992.233-11.327.466 3.738.233-15.395.233 13.125.233-6.372.233 7.56.234-2.855.233-11.83.233 14.288.233-11.254.233 2.305.233 6.158.233-21.747.234 32.624.233-18.874.233.58.233 2.558.233 16.82.233-20.885.233 18.12.234-2.292.466-14.903.233 18.794.233-15.415.233 17.883.233-20.98.234-5.21.233 18.804.233 5.92.233-2.886.233-10.509.233 13.652.7-24.912.233 15.798.233-19.365.466 12.021.233 18.474.233-21.672.234 9.143.233-13.746.233 16.538.233-13.453.233-2.39.233 13.046.233.576.234-12.89.233 10.96.466-21.521.233 17.787.233-.968.233 3.758.234-6.36.233-2.307.233 27.958.233-20.748.233-1.156.233-19.114.233 3.233.233 23.228.234-22.916.233 11.41.233.925.233 8.389.233-11.358.233 16.32.233-16.011.234 16.913.233-21.767.233 4.819.233 1.819.233 3.613.233 9.083.233-3.86.234-8.884.233-2.665.233-4.412.233 4.63.233-7.135.233 4.462.233 1.874.467 20.413.466-26.2.233 9.334.233-4.236.466 6.346.234-4.317.233-11.363.233 22.776.233 5.063.466-35.3.233 33.303.467-13.118.233 5.028.233 10.095.466-20.673.233-.208.234 9.273.233-9.77.233 2.79.466 18.376.233-30.515.233 33.113.233 1.478.234-3.818.233-26.942.233-1.87.466 31.073.466-30.905.234 10.719.233-17.131.233 23.984.233-7.037.233 20.17.466-41.296.467 35.561.233-9.769.233.617.233 8.283.233-14.111.233 12.732.234-11.604.233.73.233 3.092.233-1.009.233-8.41.233 17.235.233-29.67.233 25.515.234-10.196.233 14.337.233-17.073.466 14.335.233-10.348.467-11.06.233-6.738.233 18.646.233 4.096.233.51.233 11.138.233-20.47.234-4.45.233 11.332.233 1.28.233-8.716.233 6.235.233-4.29.233-1.423.233 10.95.234.88.233 2.519.233-2.902.233-5.847.233-2.799.233-9.452.233 12.219.234 5.392.233-11.446.233 4.485.233-16.509.233 21.127.233-.674.233-1.789.234-3.587.466 18.472.233-17.553.233 15.484.233-14.278.233 12.624.234-24.923.233 29.042.233-4.26.233-16.167.233 14.3.233-26.766.466 32.448.234-23.16.699 10.1.233 9.176.233-16.07.233 9.612.467-5.648.233.344.233 11.9.233-17.053.233 4.783.233 19.21.234-11.348.233-17.278.233.401.233-2.33.233 7.017.233 24.524.233-26.286.234-1.004.233 4.479.233-7.422.233 13.76.233 3.9.233-16.196.233-5.06.233 12.191.234 2.545.233-5.194.233 14.201.233-8.475.233 9.493.466-14.852.234 16.334.233-18.18.233 4.33.233-.779.233 6.964.233-2.32.233.117.234.283.233 10.418.233-17.912.233 16.67.233-9.059.233-2.1.466 8.444.234-2.876.233-6.548.233 8.92.233 3.618.233-.457.233-21.52.233 4.484.234-19.38.233 4.162.233 37.925.466-20.756.233 2.592.233 9.153.234-11.816.233 6.322.233-14.364.233 14.084.233 5.097.233-15.347.233-4.265.234 21.19.233-5.166.233-15.572.233-4.95.233 21.974.233.706.233-20.336.233 14.801.234-6.891.233 9.052.466-15.916.233 32.833.466-28.071.234 2.393.233 14.627.233-11.454.466 29.42.233-8.733.233-23.61.467 16.55.233-9.387.233-2.083.233 2.845.233-1.54.233-4.242.234 20.165.233-12.105.233 3.984.233-10.261.233 18.627.233-17.381.233 1.833.233-3.234.234 11.054.233-9.378.233-1.53.233 30.148.233-25.16.233 6.084.233-.698.234-18.458.233 19.218.466-17.308.233 2.758.233.85.233 6.336.467-10.6.233 32.018.233-11.884.233-19.082.233 7.563.233-.499.233 12.976.234-18.156.233 13.6.233-7.455.233 4.878.233 7.574.233-27.78.467 20.042.233-13.856.233 3.424.466-13.447.233 8.838.233-7.979.234 21.463.233-1.252.233 8.353.233-1.615.233-15.768.233 2.504.233-1.386.234 4.516.233-5.23.233-1.447.233 16.428.233-16.955.233-.972.233 14.09.233-14.909.234 17.615.233-6.998.233 9.961.233-10.86.233 7.29.233-6.711.233-21.148.234 20.284.233-6.011.233 14.626.233-3.251.233-6.298.233 12.816.233-13.474.234-1.957.233 16.823.233-22.188.233 10.402.233 1.735.233-.82.233-10.077.234 1.036.233 20.655.233-23.03.466 23.83.233-29.332.233 29.733.233-20.775.467 12.635.233-5.368.233-12.193.466 25.06.233-9.434.234 5.852.233-23.373.233 30.11.233-17.6.233-8.07.233 5.502.233 18.987.467-28.422.466 23.591.466-24.33.233 16.798.233-10.052.234-2.781.233-.53.233 20.826.233-23.44.233 13.157.233-1.783.233-7.55.234 8.683.233 22.97.233.25.233-18.527.466 6.746.233-.243.467-24.218.233 6.551.233-.881.233.85.233 3.45.233-6.825.234 22.837.233-18.34.233 8.11.233 2.293.466 10.495.233-4.518.233 7.67.467-32.735.233 11.347.233 3.527.233-18.887.233 26.168.467-7.71.233-5.67.233 20.785.233-30.715.233 12.33.233 1.308.233-19.998.234 29.213.233-9.65.233 4.064.233-20.588.233 32.013.233-9.856.233.706.234-13.91.233-4.54.233 17.88.233-2.586.233 13.136.233-22.022.233.739.233 5.765.234-11.617.233 10.258.466-10.868.233-3.775.233 22.603.233 9.345.234-8.828.466-6.679.233 13.43.233-1.447.233-37.917.233 21.995.467 11.194.233-25.27.233 22.407.233 10.318.233-32.029.233 13.23.233-7.375.467 16.779.233-1.31.233 6.518.233-10.62.233 6.266.467-4.747.233-12.43.233 18.248.233-8.866.233-3.373.233 11.806.233-7.233.234.708.233-16.31.466 6.748.233 9.592.233.347.233 6.672.467-11.118.233 5.69.233-6.382.233-2.438.233 15.018.233-23.242.467 38.875.233-20.672.233.27.466-2.831.233 4.053.467-25.204.233 23.737.233-3.741.233 3.255.233 5.425.233-6.164.233-17.844.234 28.56.233-16.02.466 19.692.233-19.324.466-12.655.234 11.41.233 3.957.233-2.727.233 8.966.233-17.92.466 24.873.233-10.306.467-7.132.233 30.19.233-27.563.233 6.662.233-3.35.233-6.536.234.894L222.88 66l.233.462.233-25.13.233-3.64.233 2.375.233 13.11.234-2.147.233-3.596.233 3.774.233 25.66.233-28.419.233 1.228.233 9.113.233-12.954.234 13.218.233 3.103.233-6.24.233-13.56.233 12.12.233-1.924.233-21.714.234 17.111.233-8.587.233 9.235.233 14.863.233-34.055.466 30.293.234 5.397.466-25.976.233 15.363.466-9.612.233-5.862.234 12.432.233-.122.233-14.958.233 13.214.233.612.233 12.42.233-15.845.233-5.824.467 19.697.233 1.837.233-24.025.466 10.592.233 20.616.234-6.05.233-12.732.233 5.905.233-14.665.466 14.039.233-5.588.467-2.789.233 1.03.233 15.726.233-10.465.233-3.419.233-6.689.234 15.76.233-18.074.233 17.905.233-4.033.233-18.257.233 12.993.233 3.697.233-5.317.234 7.443.233-15.465.233 10.82.233 5.451.233-8.042.233 1.17.233 7.513.234-13.187.233 5.455.233-2.562.233 1.377.233-3.1.466-.962.234-.516.233 4.716.233-8.882.233 14.961.233-8.916.233 10.918.466-7.598.467 9.231.466-35.489.233 20.756.233-5.693.233 18.502.234-11.206.233 3.495.233 20.421.233-.754.233-14.302.233 4.323.467-13.774.233 21.774.233-21.793.233 6.818.233-11.194.233 8.778.233-.181.234-8.842.233 24.013.7-6.916.232-13.182.233 1.83.233 18.169.234-14.295.233 8.918.233-1.91.233-10.206.466-5.338.233 15.25.234-15.567.233 14.886.233 1.337.233.283.233 15.538.233-22.893.233 8.159.234-10.398.233 14.184.233-24.92.233 17.784.233-13.16.466 9.333.233-8.083.234-.752.233 1.735.233 12.747.233-16.02.233 16.337.233 4.714.233-3.51.234-.545.233-30.985.233 12.699.233 24.115.233-8.122.233.378.233-3.088.234 10.36.233-19.408.233 6.26.233 2.669.233-.387.233-1.01.233 14.277.234-23.67.233-1.087.233 4.211.233-5.08.233 10.973.233-4.549.233 3.871.233-.304.234.279.233 3.372.233-8.284.233-2.059.233 4.86.233 17.617.233-14.458.234 9.326.233-3.312.233-11.8.233 7.814.233 14.258.233-21.475.233 22.565.234-27.972.466 19.095.233.057.233-6.36.233-.584.233 1.127.234 8.092.233-10.988.466 5.976.233 7.299.233-22.805.233-.664.467 7.654.233-14.326.233 17.986.233-2.774.233 17.023.233.371.233-27.012.234 13.816.233 6.739.233-9 .233 9.253.233 3.911.233-18.133.467-5.193.233 2.659.233 15.186.233-7.838.233 5.13.233-6.664.233 10.663.233 2.024.234-20.74.233 9.41.233 17.622.233-11.394.233 3.668.466-19.258.234 3.72.233 1.536.233-5.13.233-1.026.233 6.705.233 1.989.233 4.973.234-2.877.233 1.807.233.26.233 12.282.233-8.531.233 3.476.233-18.187.467 16.881.233-10.046.233 4.315.466-20.43.233.102.233 7.081.234-4.833.233 5.904.233-2.416.7 29.588.232-37.652.234 26.167.233-15.018.233 9.95.233-10.506.233 19.493.7-15.688.233 16.28.233-1.38.233-11.215.233 1.014h0" clip-path="url(#pda6d1ce171)" style="fill:none;stroke:#8000ff;stroke-width:2;stroke-linecap:square"/><path id="line2d_28" d="m53.389 415.405.233-35.033.233-57.114.466-31.758.233-21.238.234 2.654.233-28.822.233-2.682.233-4.45.233-9.93.233 6.023.233-.913.234-16.855.233 13.541.233 1.169.466-26.415.233 14.972.233-12.183.233 5.558.234 9.481.466-9.277.233 14.072.233-27.311.233 13.039.233 5.24.234-18.727.233-1.409.466 20.38.7-35.822.233 13.804.233 4.834.233-3.097.233-5.953.233 1.377.233 11.368.233-8.203.234 7.412.466-13.88.233 16.511.233 2.049.233-12.806.233-3.474.233.053.234 2.827.233-2.338.233 2.422.233 10.09.466-32.067.233 24.813.234-.696.233.127.233-14.446.233 1.448.233-.241.233 12.638.233-9.085.234 10.838.233-6.017.233 5.632.233-9.431.233-2.088.233-9.515.467 22.988.233-20.709.233 5.325.466-10.536.233 11.404.233-4.503.233 3.36.234-1.711.233 24.26.233-23.895.233-8.842.233-.452.466-1.834.234 16.797.699-10.828.233 5.343.466-14.258.234 16.435.233-10.655.233 4.941.233-5.183.233 12.076.233-23.243.233 16.1.233 8.054.234-5.393.233 2.957.233-18.408.233 13.44.466-17.42.233 16.672.234.843.233-5.675.233 5.227.466-8.237.233-9.68.233 10.165.234-6.211.233-10.483.233 31.655.233-23.737.233 18.724.233-4.176.467-9.832.233-3.31.233 2.913.233 15.217.233-21.969.233 18.093.233 4.6.233-6.955.234-18.414.466 25.7.233-7.308.233 2.965.233.396.233-10.606.234 3.842.233 5.973.233-6.198.233 1.305.466-17.841.233 11.925.234 3.815.233-7.834.233 15.496.233-12.252.466-3.694.233.423.234 4.833.233 8.373.233-9.421.233-.7.233-7.17.233-3.416.233 20.349.233-14.2.234 11.064.233-13.795.233 3.277.233-5.314.233 3.754.233-8.59.233 10.27.234-9.476.233 9.42.233-.823.233 1.044.233-1.882.233 1.944.233 8.38.234-17.444.233 10.816.233-13.565.233 14.13.233-12.058.233-.564.466 7.21.234-7.617.233 13.298.233-.48.233 8.858.233-9.955.233-19.48.233 12.044.234 4.756.233-.237.233-11.697.233 13.557.233-23.498.233 20.044.233-2.958.234-22.443.233 24.391.233-10.97.233-5.235.233 17.128.233 1.678.233-19.952.234-7.829.233 29.89.233-7.81.233-14.551.233 18.835.233-20.852.233 12.024.233 2.184.234-.402.233-10.37.233 2.583.233 11.764.233-11.254.233 22.472.233-21.75.234 14.033.233 1.838.233-22.75.233 4.386.466 15.217.233-31.45.234 39.286.233-17.69.233-.177.233 17.32.233-31.345.466 24.426.234-12.954.233 17.906.233-10.098.233-3.3.233-12.628.233 10.232.233.638.233-3.704.234 4.68.233 17.286.233-20.91.233 5.295.233-6.865.233 10.05.467-4.875.233-9.29.233 8.566.233 1.974.466-14.66.233 19.217.234-25.853.233 8.31.233-1.488.233 26.262.233-27.598.233 14.77.466-24.085.234 12.506.233 2.15.466 15.312.233-13.079.233-5.882.233 6.773.234-8.441.233-18.79.233 17.162.233-10.524.233 28.466.466-20.241.234 15.381.233-16.524.233-.282.233 14.043.233-12.83.233 11.554.233-21.263.467 14.27.233-7.803.233 10.903.233 3.08.233-15.395.233 11.247.233-12.007.234-.055.233 1.302.233 7.486.233-16.358.233 31.535.233-7.861.233-24.287.234 14.775.233-.717.233 6.028.233 18.404.233-35.15.233 14.285.233-8.906.234 11.49.233-.773.233.403.233-13.718.466 8.56.233-.945.234 2.218.233-7.428.233 1.392.233-5.784.233 24.82.233-19.29.233 7.897.233-12.805.467 14.904.233-13.588.233 3.893.233 10.541.233-20.196.467 13.499.233-2.84.233-14.425.233-1.293.233 11.202.233-2.727.233 13.84.234-23.593.233 15.953.466-4.34.466 10.067.233.243.233-7.301.234 2.473.233-10.788.233 22.835.233-35.899.233 2.835.466 33.726.234-16.756.233 14.36.233-16.514.466 6.409.233-12.948.233 14.714.234-18.685.233 11.446.233-2.09.233-14.054.233 14.66.233-9.491.233 8.646.234 16.434.233-26.596.233 27.876.233-19.476.233 12.961.233-13.82.233 14.434.233-5.043.234 3.563.233-5.586.233 1.65.233-9.293.233 15.557.233-20.671.233 23.255.234-22.105.233 14.709.466-15.69.466 19.947.233-17.14.234.934.233 15.247.233-9.602.233-3.26.233 30.42.466-53.758.234 25.168.233 3.794.233 11.12.233-24.655.233-6.423.233 9 .233 15.95.467-20.107.233 15.314.233-7.917.233 10.361.233-8.11.466 7.644.234-13.634.233 10.325.233-3.42.233-7.601.233 8.305.233-12.543.233 3.658.234-4.345.233 22.32.233-15.279.233 9.135.233-16.762.233 18.84.466-20.945.234 15.351.233-12.074.233 13.157.233-5.25.233 14.323.233-20.576.233.283.234 30.608.466-41.44.233 17.109.233 3.302.233-14.919.233 11.071.234-10.651.233.128.233 11.44.233-11.745.233 7.646.233-20.633.233 17.805.234.186.233-3.488.233-10.624.233 7.147.233-2.83.233-4.6.233 13.834.233 6.72.234-10.269.233 9.989.233-26.648.233 35.59.233-20.617.233-2.922.233 3.917.234 1.45.233 9.495.233-3.654.466-23.901.233 26.337.233 3.972.234-15.505.233 4.413.233-1.124.233 5.076.233 2.468.466-6.916.234 22.355.466-24.813.233-.218.233-13.441.466 32.565.233-15.111.234-4.066.233 15.275.233-13.72.233-2.41.233 2.304.233-.163.233-3.736.234.223.233 5.334.233-17.478.233 9.212.233-1.89.233 6.604.233 1.592.234-15.707.233 31.21.233-12.082.233-1.485.233-16.025.233 12.772.466 5.1.234-10.205.233 4.27.233-4.828.233-1.052.233 14.842.466-13.872.234 11.248.233-10.82.233.084.233 4.037.233-12.255.233 15.334.233-15.649.234 7.814.466 8.947.233 4.517.233-21.693.233 18.374.233-1.343.234-8.21.233 1.016.466 2.403.233-10.766.233 13.651.233-18.163.233 2.54.234 8.24.233 1.39.233-3.72.233 7 .233 13.702.233-20.442.233-10.24.234 8.522.233 15.008.233-27.203.233 23.671.233-.68.233-8.439.233 2.049.234-.825.233-7.304.233 12.754.233-.842.233-8.116.233 1.942.233 13.1.234-21.876.233 7.091.233-6.114.233-1.638.233 16.533.466-18.183.233 12.042.234-6.838.233 8.126.233-21.77.233 4.495.233 16.035.233-2.287.233-.945.234 9.559.233-2.737.233-17.134.233-.242.233-.588.233 1.88.233 4.591.234 16.552.233-22.253.233 11.76.466-14.589.233 3.067.233 14.748.233-12.231.234-2.977.233 22.978.233-6.272.233-25.238.233 38.988.233-17.374.233-7.132.234 18.316.466-31.467.233 7.771.233-4.516.233 12.224.233 3.195.234 9.845.233-1.878.233-20.083.233-.074.233 1.79.233-1.003.233 2.779.234-4.378.233 24.098.233-8.671.233-17.944.233 11.948.233-19.995.233 8.255.233 3.374.234 10.689.233-3.326.233-20.301.233 20.2.233 3.145.233-14.27.233 16.369.234-2.705.233-.394.466-18.627.233 9.27.233-3.155.233 5.983.234 1.277.233-3.008.233 3.382.233-.124.233-12.54.233-5.93.233 26.472.234.527.233-11.286.233-1.677.233-.316.233-6.812.233-.782.233-2.948.233 15.212.234 4.206.233-15.793.233 2.166.233 11.34.233-11.84.233 3.1.233 7.036.234-13.89.233-3.4.466 27.744.233-9.723.466-3.076.234 9.822.233-13.33.233 9.812.233 15.28.233-6.45.233-13.422.233 12.27.467-34.501.466 18.041.466 5.432.233-1.841.233-9.976.234 4.912.233-.577.233 7.968.233-3.17.233 1.204.233-15.439.233 13.42.234-6.91.233 2.527.233 7.663.233-8.64.466 12.463.467-18.883.233.82.233 10.13.233 3.825.233-20.33.233.701.233 21.005.233-8.646.234 3.271.233 1.138.233-8.018.233 21.956.233-43.334.233 25.374.233-10.126.234 5.135.233-8.91.233 12.694.233-2.979.233-4.775.233-13.904.233 27.403.234 4.866.233-25.503.233 15.32.233-4.912.466-4.016.233 9.406.234-1.178.233-13.312.233-4.404.233 8.147.233 12.269.233-3.463.233-.815.233-11.89.234 26.213.233-11.766.233 8.36.233-1.305.466-4.792.233 12.986.467-29.372.233 18.075.233-14.098.233-.235.233 19.784.233-17.053.234.455.233-3.683.466 10.374.233-11.11.233.885.233 8.363.233 13.155.234-16.451.233 10.203.233-10.652.233 7.844.233 2.243.233-14.888.233 3.904.234-10.932.466 21.649.233-1.622.233-14.023.233 1.943.233-1.578.467 16.798.233-17.367.233 1.993.233-9.782.233 17.233.233-20.257.467 22.507.233-3.089.233-18.238.233 8.59.233 15.79.233-5.013.233-.14.234 10.451.233-29.513.233 21.789.233-9.418.233 3.344.233-9.655.233 8.236.234-6.541.233 1.87.233 4.68.233-2.208.233 23.09.233-19.871.233-7.293.234 4.42.233-4.687.233 10.867.466-9.941.233 22.971.233-27.71.234 8.805.233 1.32.233-10.793.233-.19.233 30.422.233-23.366.233.35.233 5.822.234 10.978.233-16.432.233-6.91.233-1.24.233 19.74.233-12.458.233 7.592.234-14.608.466 18.6.233-8.123.233-1.379.233-6.193.233 18.05.7-18.09.233-2.796.233 4.99.233-6.435.233 3.279.233 15.099.467-14.968.233 2.091.233 4.952.466-14.899.233 12.683.234-10.264.233 7.035.233-6.303.233 22.565.233-28.023.233 20.039.467-22.445.233 19.55.233-1.265.233 1.455.233-2.102.233 6.401.233-17.22.234 11.208.233 4.053.233-6.904.466 9.614.233-11.946.233 17.235.467-18.29.233 1.285.233-6.695.233 16.855.233-11.09.233-5.754.233 19.08.234-.522.699-24.983.233 10.414.233 17.088.233-15.852.234 9.956.233 3.537.233-15.756.233-4.04.233 3.133.233 5.348.233 15.586.233-35.802.234 36.056.233-20.586.233 13.224.233-10.051.233 6.395.233 10.147.233-20.219.234 16.653.233-16.134.233 17.897.233-6.197.233-14.001.233-.497.233 13.646.234-15.644.233 6.108.233 13.654.233-7.95.233 3.79.233-7.876.7-4.758.233 14.775.233-13.364.233-2.41.233 4.12.233-1.46.233-13.446.234 3.204.233 17.9.233-.44.466 11.554.233-37.364.233 29.075.467-9.926.233-.102.233 10.558.233-24.86.233 9.328.233 3.177.234 6.541.233-4.764.233 4.454.233-19.492.233 11.901.466 1.404.234-3.417.233 17.505.233-19.927.233-1.203.233 13.301.233-19.89.7 35.344.233-11.4.233-1.79.233.076.233-16.83.233-5.039.467 14.95.233-4.969.233.987.233-1.813.233 3.317.233-12.22.233 1.198.234 14.048.233 1.565.7-3.397.232 3.6.233-9.726.233-14.967.7 44.644.233-17.37.233-6.811.233 3.299.233-7.206.234 2.836.233.09.233 4.625.233-9.75.233 10.462.233-.052.233-5.963.234 8.662.233-3.117.233 9.615.233 1.842.233-28.509.233 1.563.233 17.747.234-12.13.233-2.39.233 6.71.233-11.442.233 25.558.233 1.693.233-16.4.233 5.93.234-14.4.233 1.344.233 7.715.233-8.776.233.784.233-.46.233 14.703.467-14.792.233 8.517.233-11.713.233 12.205.233-9.45.233 7.735.234.335.233 3.916.233-4.198.233-13.954.233 11.63h0" clip-path="url(#pda6d1ce171)" style="fill:none;stroke:#ff8000;stroke-width:2;stroke-linecap:square"/><path id="line2d_29" d="m53.389 415.405.7-109.804.465-35.698.234-1.76.233-24.828.233-3.439.233-9.287.466-5.523.233 4.487.234-11.967.233 11.217.233.514.233-20.87.233-10.254.233 17.693.233-9.527.233-2.514.234 15.89.233-14.858.233 6.783.233 15.145.233-28.068.233 19.982.233.136.467-15.491.233 6.437.233 2.75.233-6.417.233-12.347.233-2.404.234 7.692.233-3.145.233 2.505.233-.05.233 14.046.233-9.672.467 2.302.233-3.946.233 1.953.233 6.965.466-7.762.233 10.194.233-17.42.234 19.24 1.165-26.988.233 24.952.234-22.284.233 10.273.233-11.068.233 1.837.233 9.36.233-9.814.233 9.903.234-3.122.233 1.734.233 12.877.233-23.146.233-3.009.466 18.263.234-5.16.233 9.316.233-14.273.233-2.844.233-.019.233 11.444.233 2.097.467-11.557.233 9.525.233-2.278.233-14.34.233 2.69.233 19.134.233-21.195.234 8.798.466-9.575.233 16.82.233 3.75.233-5.843.233 5.91.234-9.571.233-1.092.233 11.195.233-20.983.233 25.35.466-10.547.233 14.88.234-26.564.233 12.017.233-8.976.233.01.233 12.972.233-2.255.233-9.38.234-3.96.233 16.631.233-4.199.233 9.358.233-14.763.233 3.21.233-8.262.234.124.233 2.868.233 12.517.233-16.684.233 22.78.466-19.867.234 11.203.233-5.66.233-8.93.466 9.045.466 6.6.233-18.262.467 7.491.233 29.195.233-20.259.233-8.67.233-.342.233 2.57.234-8.547.466 21.309.233-6.117.233-10.262.233-4.326.233 20.92.467-19.389.233 10.35.233-4.24.233 3.958.233-13.837.233 15.889.234-6.63.233 4.07.466-3.497.233 1.408.233 10.234.233 1.54.233-27.161.234 17.713.233-.754.233-11.065.233 4.077.233 13.484.233-15.924.233 9.148.234-4.832.233 13.173.233-12.775.233-5.7.233 12.902.233-3.1.233-14.32.467 17.453.233-5.578.233 20.6.233-17.933.233-.5.233-13.923.233 21.065.234-10.296.233 12.898.233-10.549.233 3.598.233-7.75.233 1.904.233 9.795.234-2.484.233-17.18.233 6.961.233 17.896.466-13.756.233 18.17.467-18.083.233-4.743.233 9.963.233-10.32.233 7.406.233-12.19.234 15.83.233-15.426.233 7.059.233.304.233 2.787.233-15.878.233 12.84.233-3.737.234 20.455.233-11.362.233 1.685.233-9.864.233-.776.233 15.953.233 3.477.234-6.311.233-.204.233-6.896.233 2.363.233-9.922.233 20.242.233-11.61.234 3.988.233-1.004.233-.078.233-5.717.233-.21.233 4.94.233 13.528.467-25.677.233 15.566.233-3.737.233 1.14.233-13.046.233 13.392.233-8.074.234 29.136.233-29.018.233 17.825.233-1.712.233 5.862.233-15.277.233-6.32.234-3.04.233 1.992.7 18.84.232-2.41.233-9.19.234 1.911.233 5.586.233-11.173.233 1.665.233-.255.233-2.778.233 4.918.233 10.964.234-12.958.233-4.366.233 17.152.233-19.2.233 19.974.233-16.46.233 1.207.234-8.81.233 10.057.233 18.033.233-29.485.233 20.192.7-11.66.233-10.972.233 1.525.233.089.233 4.922.233 13.623.233-7.06.234 6.193.233-5.203.233-1.777.233 3.451.233 18.281.233-28.612.233 12.734.233-8.445.234 8.902.233-1.364.233-.246.233-2.944.233-9.183.233 6.25.233 10.315.234-9.889.233 13.836.233-10.107.233-.617.233-1.469.233 7.539.233 1.522.234-2.197.233-27.464.233 21.04.233-.995.233-2.514.233 12.148.233.24.234-2.854.233-11.406.233-5.45.233 13.068.233 1.22.233-7.877.233 4.748.467-8.279.233 9.475.233-10.245.233-3.976.466 25.253.233-19.866.234 13.159.233-16.383.233 23.781.233-16.666.233 2.254.233-3.152.233 14.47.234-20.64.466 10.495.233-4.533.233 18.231.233-17.262.233-5.747.233 2.874.234 12.709.233-8.63.233 7.694.233-7.863.233-1.97.233-4.587.233 16.594.234-13.325.233 2.263.466 14.477.233-7.816.233-2.16.233-7.614.234 4.69.466-2.456.233 9.845.233-2.119.233-10.308.233 10.958.234-6.512.233 8.716.233-3.324.233.309.233 11.244.233-10.592.233.357.233-7.3.234 13.287.466-18.733.466 24.819.233-3.296.233-8.243.234 7.19.233-5.29.233-10.66.233 4.751.233 17.438.233-23.735.233 14.74.234-19.62.233-1.156.233 1.059.233 9.297.233 20.919.466-24.865.234-1.508.233 4.161.233 8.496.233-13.73.233-6.68.233 12.093.233-.303.233-18.287.234 18.983.233-6.577.233 21.992.233-8.312.233-12.812.233 14.955.233 1.18.234-10.247.233-1.542.233 12.536.233-9.263.233 4.686.233-6.012.233 1.994.234-11.007.233 19.226.233-12.89.233 1.502.233 24.4.233-23.227.233.079.233-1.515.234 8.385.233-12.17.233 13.381.233-3.491.233-.177.233-6.681.467 17.137.233 4.235.466-13.974.233 11.71.233-14.653.233 5.18.234 15.679.233-27.079.466 9.801.466-13.262.233 24.036.234-20.727.233-8.72.233 22.246.233 7.034.233-17.027.233 9.446.233-13.181.233 1.607.234 9.046.233-2.134.233-12.18.233 14.589.233-7.841.233 4.498.233-1.877.234 3.177.233.552.233 3.674.233-.407.233-13.506.7 13.93.233-12.054.233 12.807.466-9.712.233-11.164.7 16.95.233-7.334.233-1.395.233 5.593.233-7.667.233 21.402.233-7.516.234 5.664.233-.546.233-13.608.233 2.598.233-12.232.233 18.275.233-.244.234-22.693.466 10.408.233 14.464.233 2.151.233-14.541.233 1.25.234-4.855.233 17.164.233-12.164.233 17.31.233-14.065.233 7.015.466-10.743.467-14.15.233 21.36.233-26.74.466 28.763.233-8.725.234 8.46.233-.725.233-1.472.233-9.088.233-4.36.233 12.337.233 1.009.234 5.136.233-9.67.233 7.074.233 2.176.233-13.935.233 1.294.467 9.693.233-19.403.233 14.387.233-6.748.233-.083.233.944.233-5.95.233 14.05.234 2.929.233-3.583.233 16.594.233-23.1.466-19.733.233 20.465.234 6.054.233-11.565.233 23.962.233-25.404.233 13.295.233-4.947.233 5.247.234-6.309.233-3.193.233 14.561.233-6.624.233 1.492.233-8.313.233 13.112.234-4.016.233 7.008.233-14.049.233 11.178.466-21.797.233 9.914.233-2.908.234-5.027.233 12.048.233-5.346.233-.662.233 1.573.233 11.625.233 3.963.234-12.677.233 9.032.233-3.618.466 6.887.233-10.81.233 1.056.234 8.347.233-3.863.233-12.804.233 12.439.233 3.86.466-15.308.233 6.26.234-10.697.233 18.109.233-9.546.233 4.833.233 7.544.7-9.885.233 12.132.233-21.77.233 12.268.233-2.9.233 4.396.233 12.633.234-17.498.233-8.284.466 16.542.233 9.562.233-14.19.233-4.438.467 19.954.233-21.258.233 8.011.233-19.959.233 10.905.233-1.768.233 17.607.234-15.154.233.367.233-7.206.233 8.324.233-6.236.233 17.987.233-17.184.234.96.233-6.169.233 18.447.233-17.535.233 15.842.233-14.136.233 19.097.234-26.68.233 15.928.233 6.43.233-10.038.233 21.154.233-17.277.233-2.883.234 10.132.233-15.443.233 8.91.466 4.176.233 21.786.233-29.723.233 1.932.234-9.768.233 1.77.233 26.117.233-25.04.233 10.249.233 1.101.233 3.616.234-7.487.233 2.257.233-2.07.233 18.07.233-25.347.233 16.704.233.39.467-23.415.233 3.921.233-2.68.233 14.916.233-3.192.233 11.473.233 1.433.234-14.613.233 25.673.466-32.463.233 12.338.233-4.838.233-7.586.234 4.57.233 12.888.233-14.368.233-5.315.233 16.507.233-13.905.233 11.649.234-3.333.233 4.864.233-10.326.233 1.654.466 22.444.233-17.266.467 4.399.233-1.627.466-9.98.233 8.158.233 2.182.233-3.976.234 6.942.233 1.283.233-18.52.233 8.319.233 3.45.233-3.235.233 12.085.234-2.311.233-8.987.233 3.551.233-3.998.233 10.82.233-13.997.233-4.941.234 1.093.233 17.372.233-15.243.233 12.76.233-2.598.233 9.87.233-24.492.234 1.97.233 14.332.233-21.12.233 23.486.233-3.046.233-17.217.233-8.561.233 20.895.234.683.233-1.15.466 5.858.233 5.336.233-17.303.233 11.644.234-10.049.233 12.65.233-10.181.233-3.124.466 17.122.233-4.264.234-1.732.233-12.404.233 12.24.233-1.307.233-5.775.233-.799.233-7.095.233 17.877.234-2.803.233-7.549.233.793.233 8.592.233-11.81.233 10.505.233-12.126.234-5.41.233 11.06.233 5.404.233-4.15.233-14.038.233 18.255.233-3.61.234-7.805.233-3.165.233 13.649.233-11.558.233 3.685.233-1.852.233 1.822.234 7.995.233 2.154.233-9.104.233 4.555.233 8.32.233-14.043.233 9.845.233-7.068.234 14.04.233 1.29.466-15.72.233-8.507.233 17.488.233-9.184.234 4.986.233 9.454.233-2.6.233-13.067.233 7.006.233-2.38.233 6.558.234-15.213.233 15.788.233-4.755.233 2.875.233-3.328.233 8.564.467-10.484.233 8.58.466-27.457.233 16.27.233-2.9.233 18.628.233-9.19.234-4.156.233-10.954.233 16.246.233-4.42.233 3.688.233-4.083.233-1.834.234 1.987.233-6.527.233 9.776.233 16.925.233-16.524.233 5.594.233 13.983.234-17.086.233-5.28.233.545.233 1.653.233-14.644.233 16.15.233-1.557.233 5.444.234-5.744.233.147.233 1.502.466-5.994.233-1.62.233-3.043.234 6.38.233-19.104.233 13.178.233 4.607.233-2.351.233 2.054.233.238.234 7.576.233-13.26.233 8.926.466-6.705.233 5.117.233-22.857.234 8.49.233 15.748.233.661.466 6.91.233-16.878.466 16.613.234-27.164.233 7.813.233 16.593.233-4.924.233 3.017.466-4.843.234.107.233 8.503.233-5.525.233-10.272.466 15.78.233-11.334.234-1.428.233 16.445.466-16.788.233 7.355.233-3.191.233-6.239.233 14.52.234-10.346.233 3.644.233-14.759.466 17.773.233-5.241.233-16.592.234 12.903.233-1.072.233 9.18.233-5.479.233-2.076.233 3.524.233 13.344.234-24.39.233 15.379.466-28.65.233 18.389.233 8.953.233-1.486.467-15.844.233 16.22.233-2.032.233 5.651.233-14.156.233 5.535.233-8.007.234 10.486.233-2.402.233-.478.466 9.353.233-5.393.233 3.752.234-12.17.233 1.233.233 14.182.233-11.252.233 16.877.233-11.654.233 7.65.234-12.559.466 2.678.233-19.301.233 29.661.233-12.37.233-3.548.234-1.45.233 15.92.233-4.597.466-22.097.233 19.537.233 8.378.7-11.601.233-19.643.233 25.348.233 6.065.466-10.948.234-.063.233-2.956.233 18.525.466-17.935.233 11.363.233-.87.467-18.253.233 22.518.233 3.784.233-17.209.466 6.868.233-11.36.234-2.444.233 15.407.233-6.773.233-.048.466-20.268.467 27.537.466-13.148.233 12.635.233-7.804.233 12.775.233-6.463.467 14.094.466-23.488.233 3.05.233 5.386.233-14.212.234 23.159.233-11.476.233-2.727.466 14.865.233-14.282.233 7.07.233-.937.234-2.665.233 3.171.466-6.924.233 6.715.233-17.393.233 24.315.467-21.15.233 3.282.233 14.647.233-12.776.233 12.069.233-16.706.234 8.724.466 6.117.233-6.473.233.865h0" clip-path="url(#pda6d1ce171)" style="fill:none;stroke:#ff0;stroke-width:2;stroke-linecap:square"/><path d="M53.389 593.48V31.318M53.389 593.48h232.904" class="patch" style="fill:none;stroke:currentColor;stroke-width:.8;stroke-linejoin:miter;stroke-linecap:square"/><g id="text_16" class="text" transform="matrix(.12 0 0 -.12 120.95 16.318)"><defs><path id="DejaVuSans-52" d="M2841 2188q203-69 395-294t386-619L4263 0h-679l-596 1197q-232 469-449 622t-592 153h-688V0H628v4666h1425q800 0 1194-335 394-334 394-1009 0-441-205-732-205-290-595-402M1259 4147V2491h794q456 0 689 211t233 620-233 617-689 208z" transform="scale(.01563)"/></defs><use xlink:href="#DejaVuSans-41"/><use xlink:href="#DejaVuSans-76" transform="translate(62.533)"/><use xlink:href="#DejaVuSans-65" transform="translate(121.713)"/><use xlink:href="#DejaVuSans-72" transform="translate(183.236)"/><use xlink:href="#DejaVuSans-61" transform="translate(224.35)"/><use xlink:href="#DejaVuSans-67" transform="translate(285.629)"/><use xlink:href="#DejaVuSans-65" transform="translate(349.105)"/><use xlink:href="#DejaVuSans-52" transform="translate(442.416)"/><use xlink:href="#DejaVuSans-65" transform="translate(507.398)"/><use xlink:href="#DejaVuSans-77" transform="translate(568.922)"/><use xlink:href="#DejaVuSans-61" transform="translate(650.709)"/><use xlink:href="#DejaVuSans-72" transform="translate(711.988)"/><use xlink:href="#DejaVuSans-64" transform="translate(751.352)"/></g><g class="legend"><path d="M188.103 588.98h91.89q1.8 0 1.8-1.8v-38.75q0-1.8-1.8-1.8h-91.89q-1.8 0-1.8 1.8v38.75q0 1.8 1.8 1.8z" class="patch" style="fill:#fff;opacity:.9;stroke:#ccc;stroke-linejoin:miter"/><path id="line2d_30" d="M189.903 553.918h18" style="fill:none;stroke:#8000ff;stroke-width:2;stroke-linecap:square"/><g id="text_17" class="text" transform="matrix(.09 0 0 -.09 215.103 557.068)"><defs><path id="DejaVuSans-Oblique-3b5" d="M1263 1888q-338 75-485 278-109 143-109 337 0 531 506 841 400 244 1013 244 237 0 496-38 260-37 550-112l-100-522q-287 90-528 131-247 41-468 41-372 0-616-144-294-172-294-422 0-166 153-281 182-138 544-138h484l-90-475h-463q-431 0-684-159-344-216-344-553 0-213 185-353 231-175 703-175 290 0 568 56 279 59 522 175L2700 84Q2403-3 2131-47t-522-44Q866-91 516 194 250 413 250 781q0 497 350 803 259 229 663 304" transform="scale(.01563)"/><path id="DejaVuSans-3d" d="M678 2906h4006v-525H678zm0-1275h4006v-531H678z" transform="scale(.01563)"/></defs><use xlink:href="#DejaVuSans-Oblique-3b5" transform="translate(0 .781)"/><use xlink:href="#DejaVuSans-3d" transform="translate(73.535 .781)"/><use xlink:href="#DejaVuSans-30" transform="translate(176.807 .781)"/><use xlink:href="#DejaVuSans-2e" transform="translate(240.43 .781)"/><use xlink:href="#DejaVuSans-31" transform="translate(272.217 .781)"/></g><path id="line2d_31" d="M189.903 567.128h18" style="fill:none;stroke:#ff8000;stroke-width:2;stroke-linecap:square"/><g id="text_18" class="text" transform="matrix(.09 0 0 -.09 215.103 570.278)"><use xlink:href="#DejaVuSans-Oblique-3b5" transform="translate(0 .781)"/><use xlink:href="#DejaVuSans-3d" transform="translate(73.535 .781)"/><use xlink:href="#DejaVuSans-30" transform="translate(176.807 .781)"/><use xlink:href="#DejaVuSans-2e" transform="translate(240.43 .781)"/><use xlink:href="#DejaVuSans-30" transform="translate(272.217 .781)"/><use xlink:href="#DejaVuSans-31" transform="translate(335.84 .781)"/></g><path id="line2d_32" d="M189.903 580.34h18" style="fill:none;stroke:#ff0;stroke-width:2;stroke-linecap:square"/><g id="text_19" class="text" transform="matrix(.09 0 0 -.09 215.103 583.49)"><defs><path id="DejaVuSans-28" d="M1984 4856q-418-718-622-1422-203-703-203-1425 0-721 205-1429t620-1424h-500Q1016-109 783 600T550 2009q0 697 231 1403 232 707 703 1444z" transform="scale(.01563)"/><path id="DejaVuSans-79" d="M2059-325q-243-625-475-815-231-191-618-191H506v481h338q237 0 368 113 132 112 291 531l103 262L191 3500h609L1894 763l1094 2737h609z" transform="scale(.01563)"/><path id="DejaVuSans-29" d="M513 4856h500q468-737 701-1444 233-706 233-1403 0-700-233-1409T1013-844H513q415 716 620 1424t205 1429q0 722-205 1425-205 704-620 1422" transform="scale(.01563)"/></defs><use xlink:href="#DejaVuSans-Oblique-3b5" transform="translate(0 .016)"/><use xlink:href="#DejaVuSans-3d" transform="translate(73.535 .016)"/><use xlink:href="#DejaVuSans-30" transform="translate(176.807 .016)"/><use xlink:href="#DejaVuSans-28" transform="translate(272.217 .016)"/><use xlink:href="#DejaVuSans-67" transform="translate(311.23 .016)"/><use xlink:href="#DejaVuSans-72" transform="translate(374.707 .016)"/><use xlink:href="#DejaVuSans-65" transform="translate(415.82 .016)"/><use xlink:href="#DejaVuSans-65" transform="translate(477.344 .016)"/><use xlink:href="#DejaVuSans-64" transform="translate(538.867 .016)"/><use xlink:href="#DejaVuSans-79" transform="translate(602.344 .016)"/><use xlink:href="#DejaVuSans-29" transform="translate(661.523 .016)"/></g></g></g><g id="axes_2"><path d="M356.164 593.48H589.07V31.318H356.164z" class="patch" style="fill:none"/><g class="axis"><g class="tick xtick"><path id="line2d_33" d="M402.559 593.48V31.318" clip-path="url(#pae03475178)" style="fill:none;stroke:#b0b0b0;stroke-opacity:.15;stroke-width:.8;stroke-linecap:square"/><use xlink:href="#m5ccb5a3945" id="line2d_34" x="402.559" y="593.48" style="stroke:currentColor;stroke-width:.8"/><g id="text_20" class="text" transform="matrix(.09 0 0 -.09 393.97 607.318)"><use xlink:href="#DejaVuSans-32"/><use xlink:href="#DejaVuSans-30" transform="translate(63.623)"/><use xlink:href="#DejaVuSans-30" transform="translate(127.246)"/></g></g><g class="tick xtick"><path id="line2d_35" d="M449.186 593.48V31.318" clip-path="url(#pae03475178)" style="fill:none;stroke:#b0b0b0;stroke-opacity:.15;stroke-width:.8;stroke-linecap:square"/><use xlink:href="#m5ccb5a3945" id="line2d_36" x="449.186" y="593.48" style="stroke:currentColor;stroke-width:.8"/><g id="text_21" class="text" transform="matrix(.09 0 0 -.09 440.597 607.318)"><use xlink:href="#DejaVuSans-34"/><use xlink:href="#DejaVuSans-30" transform="translate(63.623)"/><use xlink:href="#DejaVuSans-30" transform="translate(127.246)"/></g></g><g class="tick xtick"><path id="line2d_37" d="M495.814 593.48V31.318" clip-path="url(#pae03475178)" style="fill:none;stroke:#b0b0b0;stroke-opacity:.15;stroke-width:.8;stroke-linecap:square"/><use xlink:href="#m5ccb5a3945" id="line2d_38" x="495.814" y="593.48" style="stroke:currentColor;stroke-width:.8"/><g id="text_22" class="text" transform="matrix(.09 0 0 -.09 487.224 607.318)"><use xlink:href="#DejaVuSans-36"/><use xlink:href="#DejaVuSans-30" transform="translate(63.623)"/><use xlink:href="#DejaVuSans-30" transform="translate(127.246)"/></g></g><g class="tick xtick"><path id="line2d_39" d="M542.441 593.48V31.318" clip-path="url(#pae03475178)" style="fill:none;stroke:#b0b0b0;stroke-opacity:.15;stroke-width:.8;stroke-linecap:square"/><use xlink:href="#m5ccb5a3945" id="line2d_40" x="542.441" y="593.48" style="stroke:currentColor;stroke-width:.8"/><g id="text_23" class="text" transform="matrix(.09 0 0 -.09 533.852 607.318)"><use xlink:href="#DejaVuSans-38"/><use xlink:href="#DejaVuSans-30" transform="translate(63.623)"/><use xlink:href="#DejaVuSans-30" transform="translate(127.246)"/></g></g><g class="tick xtick"><path id="line2d_41" d="M589.069 593.48V31.318" clip-path="url(#pae03475178)" style="fill:none;stroke:#b0b0b0;stroke-opacity:.15;stroke-width:.8;stroke-linecap:square"/><use xlink:href="#m5ccb5a3945" id="line2d_42" x="589.069" y="593.48" style="stroke:currentColor;stroke-width:.8"/><g id="text_24" class="text" transform="matrix(.09 0 0 -.09 577.616 607.318)"><use xlink:href="#DejaVuSans-31"/><use xlink:href="#DejaVuSans-30" transform="translate(63.623)"/><use xlink:href="#DejaVuSans-30" transform="translate(127.246)"/><use xlink:href="#DejaVuSans-30" transform="translate(190.87)"/></g></g><g id="text_25" class="text" transform="matrix(.1 0 0 -.1 458.627 620.788)"><use xlink:href="#DejaVuSans-53"/><use xlink:href="#DejaVuSans-74" transform="translate(63.477)"/><use xlink:href="#DejaVuSans-65" transform="translate(102.686)"/><use xlink:href="#DejaVuSans-70" transform="translate(164.209)"/><use xlink:href="#DejaVuSans-73" transform="translate(227.686)"/></g></g><g class="axis"><g class="tick ytick"><path id="line2d_43" d="M356.164 593.48H589.07" clip-path="url(#pae03475178)" style="fill:none;stroke:#b0b0b0;stroke-opacity:.15;stroke-width:.8;stroke-linecap:square"/><use xlink:href="#ma3b6333a42" id="line2d_44" x="356.164" y="593.48" style="stroke:currentColor;stroke-width:.8"/><g id="text_26" class="text" transform="matrix(.09 0 0 -.09 334.887 596.899)"><defs><path id="DejaVuSans-25" d="M4653 2053q-272 0-427-231-154-231-154-644 0-406 154-639 155-233 427-233 266 0 420 233 155 233 155 639 0 410-155 642-154 233-420 233zm0 397q494 0 784-344 291-343 291-928 0-584-292-927-292-342-783-342-500 0-791 342-290 343-290 927 0 588 292 930t789 342zM1428 4353q-269 0-424-233-154-232-154-639 0-412 153-644 153-231 425-231t426 231q155 232 155 644 0 403-156 637-156 235-425 235zm2822 397h500L1831-91h-500zm-2822 0q494 0 787-342 294-342 294-927 0-590-292-931t-789-341-786 342q-289 343-289 930 0 582 290 925 291 344 785 344z" transform="scale(.01563)"/></defs><use xlink:href="#DejaVuSans-30"/><use xlink:href="#DejaVuSans-25" transform="translate(63.623)"/></g></g><g class="tick ytick"><path id="line2d_45" d="M356.164 481.047H589.07" clip-path="url(#pae03475178)" style="fill:none;stroke:#b0b0b0;stroke-opacity:.15;stroke-width:.8;stroke-linecap:square"/><use xlink:href="#ma3b6333a42" id="line2d_46" x="356.164" y="481.047" style="stroke:currentColor;stroke-width:.8"/><g id="text_27" class="text" transform="matrix(.09 0 0 -.09 329.16 484.467)"><use xlink:href="#DejaVuSans-32"/><use xlink:href="#DejaVuSans-30" transform="translate(63.623)"/><use xlink:href="#DejaVuSans-25" transform="translate(127.246)"/></g></g><g class="tick ytick"><path id="line2d_47" d="M356.164 368.615H589.07" clip-path="url(#pae03475178)" style="fill:none;stroke:#b0b0b0;stroke-opacity:.15;stroke-width:.8;stroke-linecap:square"/><use xlink:href="#ma3b6333a42" id="line2d_48" x="356.164" y="368.615" style="stroke:currentColor;stroke-width:.8"/><g id="text_28" class="text" transform="matrix(.09 0 0 -.09 329.16 372.034)"><use xlink:href="#DejaVuSans-34"/><use xlink:href="#DejaVuSans-30" transform="translate(63.623)"/><use xlink:href="#DejaVuSans-25" transform="translate(127.246)"/></g></g><g class="tick ytick"><path id="line2d_49" d="M356.164 256.183H589.07" clip-path="url(#pae03475178)" style="fill:none;stroke:#b0b0b0;stroke-opacity:.15;stroke-width:.8;stroke-linecap:square"/><use xlink:href="#ma3b6333a42" id="line2d_50" x="356.164" y="256.183" style="stroke:currentColor;stroke-width:.8"/><g id="text_29" class="text" transform="matrix(.09 0 0 -.09 329.16 259.602)"><use xlink:href="#DejaVuSans-36"/><use xlink:href="#DejaVuSans-30" transform="translate(63.623)"/><use xlink:href="#DejaVuSans-25" transform="translate(127.246)"/></g></g><g class="tick ytick"><path id="line2d_51" d="M356.164 143.75H589.07" clip-path="url(#pae03475178)" style="fill:none;stroke:#b0b0b0;stroke-opacity:.15;stroke-width:.8;stroke-linecap:square"/><use xlink:href="#ma3b6333a42" id="line2d_52" x="356.164" y="143.75" style="stroke:currentColor;stroke-width:.8"/><g id="text_30" class="text" transform="matrix(.09 0 0 -.09 329.16 147.17)"><use xlink:href="#DejaVuSans-38"/><use xlink:href="#DejaVuSans-30" transform="translate(63.623)"/><use xlink:href="#DejaVuSans-25" transform="translate(127.246)"/></g></g><g class="tick ytick"><path id="line2d_53" d="M356.164 31.318H589.07" clip-path="url(#pae03475178)" style="fill:none;stroke:#b0b0b0;stroke-opacity:.15;stroke-width:.8;stroke-linecap:square"/><use xlink:href="#ma3b6333a42" id="line2d_54" x="356.164" y="31.318" style="stroke:currentColor;stroke-width:.8"/><g id="text_31" class="text" transform="matrix(.09 0 0 -.09 323.434 34.737)"><use xlink:href="#DejaVuSans-31"/><use xlink:href="#DejaVuSans-30" transform="translate(63.623)"/><use xlink:href="#DejaVuSans-30" transform="translate(127.246)"/><use xlink:href="#DejaVuSans-25" transform="translate(190.87)"/></g></g><g id="text_32" class="text"><use xlink:href="#DejaVuSans-25" transform="matrix(0 -.1 -.1 0 294.959 317.15)"/><g transform="matrix(0 -.1 -.1 0 306.157 332.182)"><defs><path id="DejaVuSans-4f" d="M2522 4238q-688 0-1093-513-404-512-404-1397 0-881 404-1394 405-512 1093-512 687 0 1089 512 402 513 402 1394 0 885-402 1397-402 513-1089 513zm0 512q981 0 1568-658 588-658 588-1764 0-1103-588-1761Q3503-91 2522-91q-984 0-1574 656-589 657-589 1763t589 1764q590 658 1574 658z" transform="scale(.01563)"/><path id="DejaVuSans-69" d="M603 3500h575V0H603zm0 1363h575v-729H603z" transform="scale(.01563)"/><path id="DejaVuSans-6d" d="M3328 2828q216 388 516 572t706 184q547 0 844-383 297-382 297-1088V0h-578v2094q0 503-179 746-178 244-543 244-447 0-707-297-259-296-259-809V0h-578v2094q0 506-178 748t-550 242q-441 0-701-298-259-298-259-808V0H581v3500h578v-544q197 322 472 475t653 153q382 0 649-194 267-193 395-562z" transform="scale(.01563)"/><path id="DejaVuSans-6c" d="M603 4863h575V0H603z" transform="scale(.01563)"/></defs><use xlink:href="#DejaVuSans-4f"/><use xlink:href="#DejaVuSans-70" transform="translate(78.71)"/><use xlink:href="#DejaVuSans-74" transform="translate(142.188)"/><use xlink:href="#DejaVuSans-69" transform="translate(181.396)"/><use xlink:href="#DejaVuSans-6d" transform="translate(209.18)"/><use xlink:href="#DejaVuSans-61" transform="translate(306.592)"/><use xlink:href="#DejaVuSans-6c" transform="translate(367.871)"/></g><g transform="matrix(0 -.1 -.1 0 317.355 327.79)"><defs><path id="DejaVuSans-63" d="M3122 3366v-538q-244 135-489 202t-495 67q-560 0-870-355-309-354-309-995t309-996q310-354 870-354 250 0 495 67t489 202V134Q2881 22 2623-34q-257-57-548-57-791 0-1257 497-465 497-465 1341 0 856 470 1346 471 491 1290 491 265 0 518-55 253-54 491-163z" transform="scale(.01563)"/><path id="DejaVuSans-6f" d="M1959 3097q-462 0-731-361t-269-989 267-989q268-361 733-361 460 0 728 362 269 363 269 988 0 622-269 986-268 364-728 364zm0 487q750 0 1178-488 429-487 429-1349 0-859-429-1349Q2709-91 1959-91q-753 0-1180 489-426 490-426 1349 0 862 426 1349 427 488 1180 488z" transform="scale(.01563)"/><path id="DejaVuSans-6e" d="M3513 2113V0h-575v2094q0 497-194 743-194 247-581 247-466 0-735-297-269-296-269-809V0H581v3500h578v-544q207 316 486 472 280 156 646 156 603 0 912-373 310-373 310-1098z" transform="scale(.01563)"/></defs><use xlink:href="#DejaVuSans-61"/><use xlink:href="#DejaVuSans-63" transform="translate(61.28)"/><use xlink:href="#DejaVuSans-74" transform="translate(116.26)"/><use xlink:href="#DejaVuSans-69" transform="translate(155.469)"/><use xlink:href="#DejaVuSans-6f" transform="translate(183.252)"/><use xlink:href="#DejaVuSans-6e" transform="translate(244.434)"/></g></g></g><path id="line2d_55" d="m356.164 540.355.467-30.356.466-16.022.233-2.249.7-14.054.233.844.466-7.308.233-1.968.233-5.34.233 1.686.233-3.935.467-3.654.233-4.779.233-1.405.233-7.87.233 1.686.233-.562.234 2.53.233-3.092.466-3.092.233-4.497.466 1.967.234-3.935.233 1.687.233-6.465.233-.843.233 1.686.233-.562.233-2.81.233-.563.467-7.87.233 4.778.233-5.06.233.844.233 1.967.233-6.465.234-.562.233-1.967.233-5.34.233 2.248.233-1.406.233 3.936.233-2.53.234-10.119.233-1.687.233 3.936.233-1.687.233 5.06.233-7.59.233-.562.234-1.686.233-2.53.233 3.935.466-5.34h.233l.233-2.249.233-4.216.234 1.124.233-2.249.233 1.968.466-7.87.233 3.092.233.562.234-.843.233-1.968.233-3.654.233 4.497.233-1.686.233-2.53.233.562.234 1.125.466-5.341.233-1.968.233 2.811.466-7.87h.234l.233-2.249.233 2.53.233-3.373.233-.281.233-1.124.233-5.903.233 7.308.234-2.81.233-1.406.233 2.248.233-1.405.233-.281.233-1.968.467 1.968.233-1.124.466-3.092.233 2.248.233-3.935.233 4.498.234-6.746.233 2.248.233.281.233-1.405.233 5.06.7-10.682.233 3.654.233-3.935.233.844.233 1.405.233 3.654.233-5.622.233-2.53.234 2.53.233.844.233-7.308.233 2.81.233 1.125.233-1.687h.233l.234-1.124.233 2.53.233 5.34.233-3.092.233-6.465.233 3.373.233-3.373.234.281.466-3.935.233 8.433.233-.562.233-5.341.233 1.687.233 3.091.467-2.53.233-5.62.233 2.248.233-.562.233 4.778.233-7.308.7 1.686.233 1.406.233-3.092.233-1.125.233 2.53.234-4.216h.233l.466-4.216.233-.562.233 3.092.233 1.405.233-5.903.234 3.654.233 1.687.233-7.308.233 3.935.233-5.903.233 8.433.233-3.936.234-6.464.233 5.059.233-.562.466 3.092.233-5.06.233-1.967.234 3.935.233-1.124.233 1.124.233.28.233-6.464.233 7.308.233-8.994.234 6.183.233-4.778.233 5.903.233-1.687.233-.843.233-2.81.233-1.406.233.28.234-1.686.233-.843.233 8.995.466-3.092.233.562.233 1.405.234-4.778.233-.562.233 2.248.233-2.81h.233l.233 1.686.233-2.81.234 1.686.233-1.125.233-4.216.233 5.903.233-7.027.466 7.027.234-7.308.233 6.184.233-5.903.233 1.968.233 4.216.233-4.498.233.844.233-2.53.234.281.233 2.249.233-4.498.233-.843.233 5.06.233-1.687.467 4.216.466-10.119.233.844.466 6.183.233-2.53.234-.843.233 1.968.233-4.216.233 4.497.233-3.373.233 1.406.233 2.53.233-3.374.234-.843.233-3.935.466 12.367.233-9.837.233.843.233-.843.234 2.248.233-3.935.233 3.092.233-1.686.233-.563.233.844.233-.281.234-3.936.466 1.968.233 2.249.233-4.498.233-1.686.233 1.405.234 5.622.233-4.778.233 4.497.233.28.233.563.233-2.81.233-5.06.233 4.497.234-3.092.233 1.687.466-2.811.233 2.249.233-3.936.233 7.59.234-3.092.233 6.746.233-14.617.233 11.525.233.562.233-5.622.233 2.811.234-2.249.233 2.53.233-.28.233-8.714.233 3.373.233 5.902.233-4.778.234 5.622.233-.844.233-1.686.233 1.124.233-6.184.233 3.092.233.843.233-.562.467 3.373.233-6.465.233-1.405.466 3.935.233 3.092.234-1.405.233-4.217.233 7.309.233-7.87.233 2.529.233-.281.467-3.935.233 1.124.233.562.233-1.967.233 4.497.233-3.935.233 1.686.233-2.248.234-1.125.233 4.217.233 6.464.233-8.713.233 1.967.233-5.34.233 6.746.234-1.124.233 1.405.233-3.092.466 3.092.233-4.778.233 2.53.234-1.406.233 2.81.233-6.464.233 5.903.233-.282.233 2.53.233-1.124.234 2.81.466-6.183.233 1.405.233-3.092.466 4.779.233-1.968.234 2.249.233-3.654.233 1.124.233-.28.233-2.25.233 4.217.233-4.217.234.282.233 3.091.233.844.233-8.152.233 7.308.466-6.746.234 7.309.233-1.406.233-3.092.233.844.233 1.967.233-3.935.233 4.497.234-8.151.233 2.81.233.563.466 1.967.233 2.25.233-2.812.233 3.092.234-7.027.233-.28.466 4.496.233 1.125.233-1.968.233 1.124.234 1.968.233-3.092.233 1.406.233-6.465.233 10.119.233-2.25.233.844.234-2.81.233 3.091.233-4.216.233 6.746.233-2.81.233-1.406h.233l.233-3.092.234-.562.233 3.092.233-3.092.233 4.497.233 2.249.233.28.233-1.405.234-2.248.233-3.654.233.562.233 3.373.233-5.903.233 5.34.233-5.902.234 7.87.233-5.34.233-2.249.233.281.233 2.53.233-3.092.233 1.405.234-.28.233 2.81.233-2.53.233 3.935.233-2.53.233 1.125.233-4.216.233 3.935.234-.281h.233l.233 1.967.233-5.059.233-.281.233 1.686.233.563.234 3.091.233 1.406.466-4.779.233.844.233-3.654.233 1.405.234 5.622.233-4.779.233 6.184.233-7.308.233.562.233 2.249.233-2.811.234-1.405.233 7.589.233-2.249.233-3.935.233-1.687.466 8.995.233-10.119.234 5.622.233-5.903.233 4.216.233.281.233.844.233 3.092.233 1.124.234-3.654.233 3.373.233-5.622.233-.28.233-1.687.233-3.936.233 4.217.234-1.968.233 3.092.233-1.968.233-.562.233 2.249.233-4.216.7 3.373.233 2.53.233-2.811.233 5.34.233-10.4.233 4.778.233-1.405.234 3.935.233-5.34.233 4.497.233-5.06.233 6.746.233-3.654.233 8.433.234-2.249.466-8.713.233 5.34.233-5.621.233 3.091.233-4.497.234 1.125.233 4.497.466-3.935.233-4.217.233 10.12.233-4.498.233 1.968.234.28.233-.843.233.563.233 1.124.233-4.216.233 3.373.233-3.373.234 1.405.233.281.233-1.967.233-3.092.466 3.935.467 6.465.233-1.687.233-4.497.233 7.027.233-10.681.233 5.06h.467l.233-4.498.233 5.622.233-2.53.233-.562.233-1.968.233 2.249.467-4.778.233 6.183.233 2.811.233-9.276.233 5.06.233 1.405.7-7.87.233 7.87.233 2.53.233-6.184.233 1.968.233-.562.234 4.216.233-10.119.466 7.87.233 2.811.233-5.34.233 3.372.467-6.183h.233l.233 5.06.233-3.655.233 3.373.233-.843.233.562.234-.843.466-6.465.233 1.967.233 3.373.233-2.81.233 2.81.234 1.125.233-.562.233 2.53.233-1.406h.233l.233-5.06.467 5.622.233-1.405.233 3.092.233-3.373.233 1.124.466-1.124.233-2.811.234 1.686.233-3.935.233 1.687.233-.844.233 3.654.233-4.216.233 4.779.234-3.373.233.843.233 3.935.233-1.686.466-7.59.233 7.59.234-2.53.466-7.027.233 3.935.233 7.308.233-3.373.233-1.124.234 7.027.233-6.746.233-2.249.233 5.34.233-6.464.233 3.092.233-.844.233 4.779.234-.843.233 1.405.233-2.53.233 2.811.233-2.53.233-.562.233 2.53.467-1.968.233-3.654.233 3.092.233-3.654.233 6.465.233-8.432.234.843.233 2.81h.233l.233 1.125.233 2.81.233-5.059.233 3.935.233-.843.234 1.406.233-.844.233-2.248.233 1.124.466-3.373.233 2.53.234 4.497.233-3.373.233.281.466-4.778.233 1.686.233 2.53.234-4.216.233 3.935.233-2.81.233 3.653.466-6.184.233 7.87.234-6.745h.233l.233 1.686.233-3.935.233 3.935.233-1.686.233 7.589.233-2.53.234 1.125.233 3.372.233-3.091.233-8.152.233 7.87.233-7.308.233 3.654h.234l.466 3.655.233-8.995.233 11.243.466-1.967.234-4.217.233 4.217.233-3.092.233 3.373.233 1.686.233-5.903.233 3.092.234.563.233-1.968.233 4.497.233-5.902.233-2.53.233 3.935.233-.562.233 3.092.234-2.811.233 3.092.233-5.06.233-.28.233-4.498.466 8.432.467-5.621.233 2.248.233 1.125.233 8.432.233-6.184.233-3.092.234 3.373.233-1.405.233.562.233-.562.466 1.405.233-1.124.233-.281.234-4.216.233 5.34.233-4.497.233.281.233 3.654.233-5.902.233-1.125.234 2.811.233-2.81.233 3.653.233.281.233 1.406.233 4.497.467-6.465.233 1.406.233-5.341.233 4.216.233-5.621.233 10.68.233-10.68.234 4.216.466-4.779.932 6.184.233-5.34.234 8.432.233-4.497.233-.281.233 1.405.233-.28.233.28.233-3.935.234 6.746.466-4.216.233 5.06.466-8.714.233 6.465.234-7.309.466 8.152.233-3.092.233.281.233 3.373.233-4.778.234 1.405.233-1.968h.233l.233.563.233-2.811.233 4.497.233-1.686.7 2.81.233 2.53.233-.562.466-5.06.233 3.092.234-1.405.233-2.53.466 2.811.233-.843.233-1.406.233 4.779.234-7.87.233-2.25.233 6.747.233-3.092.233 3.935.233-3.092.233-.843h.233l.234 3.092.233 1.124.466-3.654.233-4.497.233 9.557.233-3.373.234.562.233-2.249.233 1.687.233-.563.466 3.373.233-7.027.234 5.622.466-3.654.466 5.903.233-1.968.233 1.405.234-5.902.233.843.233-1.686.233 6.464.233-7.589.233 4.779.233.28.233-.561.234-2.25.233 1.968.233 3.654.466-10.4.466 11.806.234 1.405.233-8.713.233.28.466 3.936.233-6.465.467 6.465.466-5.903.233-.562.233 2.81.233-3.372.233-1.687.234 7.309.233-2.811.233 1.124.233-2.81h.233l.233-3.374.233 5.34.233-4.778.234 3.936.233-1.687.233-.843.233 7.027.233-4.778.233-1.968.233 5.06.234 2.53.233-4.78.466 4.78.233-1.968.466-6.465.467 8.994.233-6.746.233 2.249.233-1.124.233-1.687.466 3.092.234-3.092.233 2.811.233-1.968.233 5.341.233-8.432.233-1.406.233 4.497.234 1.687.233-1.968.233-3.935.233 6.465.233-3.092.233 5.622.233-2.53.234 1.687.466-6.184.233 5.34.466-.562.467-2.248.233-1.687.233 8.714.233-5.622.233 1.124.233-4.497.233 5.622.467-4.779.233 1.968.233 6.746.233-6.184.233 3.373.233-6.746.233.281.234-.843.233 6.465.233-5.903.233-1.405.233 1.124.233 3.935.233-6.184.234 2.811.233-1.124.233 2.53h.233l.233-4.498.233 9.838.233-5.622.234.563.233-1.406.233 6.184.466-7.87.233 6.465.233-10.4.233 4.778.234-4.216.233 2.81.233 5.06.7-5.622.232 2.811.234-2.249.233 2.811.466-2.248.233-3.373.233 8.994.467-6.746.233 1.125.233-.844.233-8.432.233 10.962.7-5.34.233 10.4.233-7.87.233 5.902.233-2.53.233 5.06.233-8.714.233-4.216.234 14.335.466-12.086.233 5.34.466-4.778.233 7.027.234-.562.233-3.935.466 1.967.233-2.249.233-.562.233-3.092.234 1.687.233 4.778.233-1.124.233-2.249.233 7.027.233-8.151.233 1.686.233.282.234-3.092.233 3.092h0" clip-path="url(#pae03475178)" style="fill:none;stroke:#8000ff;stroke-width:2;stroke-linecap:square"/><path id="line2d_56" d="m356.164 540.355.467-31.2.466-11.805.466-7.308.7-8.432.466-1.968.466-3.654.233.843.233-2.248.467-.563.233.281.233-.28.233-1.687.233-.843h.233l.234-1.406.233-.28.233-1.968.233.562.233 1.124.233-1.124.233-.281.234-2.53.233.843.233-.28.466-2.53.466-1.125.233 1.124.234-1.124.233-.281.233.843.233.281h.233l.466-1.686.234 1.405.233-.28h.233l.233-.563h.233l.233-1.124.233.28.467-1.405.233-.843.7-.843.466-.843.233.562.233-1.968.233.562h.233l.233-.28.933-2.53.233-1.125.466.562h.233l.233-.28.234-.563.233.562.233-.843.233-.281.233.562.233-.843.233 1.124.467-1.967.233.843h.233l.233-1.687.233 1.406.233-.562.234 1.124.233-1.124h.233l.466-2.249h.233l.233.281.233-.562.234 1.405.233-1.686.233.281.233-.562.233-1.406.233-.28.7.843.233-1.125.233 1.406h.233l.233-.844.233-1.686.234-.281.233.843.466-1.405.466 1.124.233-.562.233-1.406.234 1.687.233-1.406.233.563.233-.281.233.562.233-1.687.467.562.233.563h.233l.233-.844.233-1.686.233.843.233-.843.234 2.248.233-1.967.233.281.233.843.233-1.405.233.562.233-.281.467-3.092.233.843h.233l.233-.562.233-1.405.233.843.467-2.53.233.843.466.563.233-1.968.233.281.233-1.686.234 1.124.233.281.233-1.686.233.28.233.844.233-1.687.233-.28.234.843.233.28.233-.561.233.28.233-1.124.233.281.466-1.405.234 2.53.466-3.092.233-1.687.233.281.233-.562h.233l.234.562.233-1.686.466-.562.233 1.124.233-.281h.233l.234-.562.233 1.967.233-1.967h.233l.233-.562.233-1.125.467-.562.233 1.687.233-1.406.233.281.466-1.967.233.562.233-.281.234-.562.233.843.233-.843h.233l.233-.844.233 1.687.233.562.234-.562.233.562.233-.281h.233l.233-1.686.233 1.124.467-.562h.233l.233.562.233-.843.233-.281.233 1.124.233-1.406.234-.562.233.281.233-.28.233.843.233-1.687.233-.562.233.562.233-.562.234.281h.466l.233.281.233-1.124.233 1.405.233-1.686.234-.281.233-1.125.233 1.125.466-.563.233 1.125.233-.562.234-1.406.233 1.124.233-2.53h.466l.233-1.405.233 1.406.233-.281.234.28.233-.843.233-2.53.233 2.25.233-1.125h.233l.233-.281.467.562h.233l.233-2.53.233 1.406.233-1.406.233.282.234 2.248.233-1.686.466 2.248.466-.843.233 1.405.234-2.53.233.282.233.562.466-2.81.233-.563.233-1.124.233.843h.234l.233-.843.233.562.233-.843.233.562.233-.562h.233l.234-.563h.233l.233-1.405.233.281.233.562.233-1.124.233-.562.234.843.233.281.233-.28h.233l.233-.563.233 1.405.233-.28.234-.844.233 1.686.233-1.686.233-.281.233-1.687.233-.843.233.281.233 1.125.234-.844.466 1.406.233-.281h.233l.233.28.233.844.234-.562.233 1.405.466-2.248.233-.281.233-2.53.233 1.967h.234l.233-.843.233.562.233 1.406.233-2.53.233 1.405.233-.843.233-1.967.234.843h.233l.233 1.686.233.844.233-1.968.233.281.233-.843.234.562.233 1.124.233-3.092.233 1.968.466-2.81.233.28h.234l.233 2.249.233-1.124.233-2.53h.233l.233.843.233-.281.234-1.124.233.843h.233l.233.281.233-.562.233.562h.233l.233-1.405h.234l.233-.844.233.281.233 1.968.466-2.81h.233l.234 1.405.466-1.687.233 1.968.233-1.687h.233l.467-.562h.233l.233.281.233-.843.233 1.124.466-1.686.234 1.686.233-.28.466-2.25.233 1.125.233-.562.233.28.467-.561.233 1.967.466-1.686.233.562.233-1.406.233 1.968.234-1.124.466.562.233-.843.233.562.233-.562.233.28.234-1.686.466 1.406.233.28.233-.843h.233l.466-.562.234-1.405h.233l.233-.281.466 1.405.233-1.686.7.843.233.562h.233l.233-3.373.233 1.124.467-1.405.233 1.968.233-2.53.466 1.405.233-.28.233-.844.234.281.233.843.233-.28.233 1.405.233-1.406.233.843.233-1.124.233.281.234-.28h.233l.233-.563.233 2.53.7-4.217.233.844.233-.563.233.844.233-1.125.466 1.125.467-1.406.233.562.233-1.405.233.843.233-.843.233.562.233-.843.467 2.81.233-.561.233.28.233-1.967.233.281.233-1.686.467 2.81.233-1.967.466-1.405.233 1.967.233-.562.233-1.686.234-.844.466 1.687.233-1.125.233.282.466-1.687.234.843.233-.843.233 1.124.466-.843h.233l.233-.843.233-.281.234 1.124.233-1.686.233-.281.233.843.233-1.406.233.563.233-.844h.234l.233.281h.233l.233-1.124.233 1.405.233.563.467-3.092.233 1.405.233-2.248.233 3.091.233-2.81.233 1.686.233-1.124.234.28.233.844.233-1.967.233-.563.233 1.406h.233l.233-1.687.233 1.406.234.562.233-1.124.233.843.233-.281.233 1.124.233-.281.233 1.405.467-1.405.233.562.233-1.124.233-.562.233 1.967.233-.562h.234l.233-1.968.233.844.233-1.125.233.281.233-3.373.233 1.968h.234l.699-1.405.233 1.967.233-.843h.233l.233-1.968h.234l.233.844.233-.844.233.844h.233l.233-.281.233-1.125.234 1.125.233.28.7-2.53.232 1.687.233-.28.234-1.687.233 1.124.233-.28h.7l.699-2.25.233 1.125.233.28.233-.842.233.562.233-1.125.233.281h.234l.233-1.405.466 1.968.233-2.811.466 1.967.234-1.967.233.28.233 1.687.233-.562.233.281.233-1.124.233 1.124.234.562.233-1.124.233.281.233.562.233-.843h.233l.233.281.233 1.406.234-2.249h.233l.466-.562h.466l.233.843.234.281.233.562.233-2.53.233.563.233-.843.233 1.124.233 1.686.234-2.81.233 1.686.233-.843.233 2.53.233-1.968.233.843.233-2.248h.234l.233.562.233 2.248.233-.562.233-1.405.233 1.405.233-1.124.467.562.233-3.092.233-.843.233 2.53.233-1.968.233-.281.233.562.234-.843.233 1.967.233.282.233-1.687.466 2.249.233-1.968.234.562.233-1.967.233 1.124.7-2.53.232 2.53h.233l.234-1.968.233.844.233-.281.233.843.466-1.968.233.562.234 1.406.233-1.124.233-.282h.233l.466-.843.233-.28.234-.563.233 3.373.233-3.935.233.28.233-.561h.233l.233.843h.234l.233.562.233-1.124.233.28h.233l.233.282.233-.843.233 1.405.234-1.405.233.28h.233l.233-.28.233-.844.233.282.233.843.234.28.233.563.233 1.124.233-4.216.233 1.968.233-.844.233.282.234.843.466-1.968.466.562.233-1.124.233.281.234 1.124.233-1.405.233.281.233.843.7-1.967.232 1.686.234-.562.233-1.686h.233l.233 1.405.233-2.81.233.843.467.562h.233l.233-1.687.233 1.406.233-.844.466 3.092.234-2.53.233-.843.233.844.233 1.405.466-1.124.233.843.233-1.124.234.843.233-1.687.233 3.373.233-2.53.466 1.125.233-1.124.234-1.968.233 1.968h.233l.233-2.53.233.562h.233l.233 1.405.234-1.686.233 1.686.466-1.405h.233l.233.281h.467l.233.843.233-1.686.466.843.233-.281.233.281.233-1.124.234 1.124.233-2.249.233 1.687.466.843.233-2.53.233.844.234.28.699-1.967.233 2.249.233-.843.233-.282.234.282.233-1.125.466 1.968h.233l.233-2.249.233-.28.234-1.406.233 2.248.466-1.124.233-1.686.466 1.967.233-1.405.234 1.686.233-1.686.233.843.233 1.686.233-1.686h.233l.233-.843.234.843.932-2.249.466 1.968.234-.281.233-1.125.233.282.233 1.124.233-2.53.233 1.124.233-1.124.233.281.234.843.233-1.124.233.281.233-1.405.233 1.686h.233l.233-1.686.234-.281.233 1.967.233.281.233-.28.233-1.125.233 1.405.233.563.234-1.406.233 1.687.233-2.25.466 1.125.233-.28.467-1.406h.233l.233.28.233-1.686h.233l.233 1.687.233.843.233-1.967.234-.563.233.281.233-.562.233 1.406.233-.281.233-.844.233 1.406.234-1.968.233 2.811.233-.843.233-1.687.233-.28h.233l.233.28.234-1.124.233-.562.233.28.233-.561.233.562.233 1.124.467-2.53.233.563.233 1.405.233-.281.233.281.233-1.968.233.282.233-.282.234 2.53.233-2.53h.233l.233-.562.233-1.405.233.562.233 1.124.234-.562.233-1.124.233 1.405.233-.562.233.281.233 1.406.467-1.406.233.562.233-.28h.233l.233 1.405.466-2.811.233 1.686.234-1.686.233.562.233 2.249.233-3.373.233 2.248.233-1.967.233.28.234.844.233-1.124.233-.281.233.28.233-.842.233 1.124.233-1.124.234.562.233-.562.466.843.233-.843.233.28h.233l.234 1.687.233-.843.233-1.405.466.562.233-.844.233-1.405.233.281.234 2.53.233-.562h.233l.233.28.233-1.686.233 2.811.233-1.967.234-.844.233 1.687.233-1.406.466-1.124.233 1.124.233-2.248.234-.281.233 1.405.233-.843.233.843.233-.843.233 1.686.233-2.53.467 1.125.233-.562.466 1.405.233-1.405.466-.562.234.28.233-.843.233 1.968.233-2.53.233 1.687.466-.844.234.844.466-.562.233.28.233-1.686.466.562.7 2.53.233-3.092.233 1.968.233-1.125.233.281.233.844.234-1.687.233 1.687.233-.844.233.844h.233l.466.562.467-.562.233.28.233-.561.233 1.124.233-.562.233-2.249.234 2.53.233-.281.233-2.53.233 1.405.233-.28h.466l.234-.282.233.562.233-1.967.233.281.233-.281.233 1.405.233.562h.233l.234-1.686.233 1.124h0" clip-path="url(#pae03475178)" style="fill:none;stroke:#ff8000;stroke-width:2;stroke-linecap:square"/><path id="line2d_57" d="m356.164 540.355.467-30.918.466-13.211.7-10.4.466-5.622.7-2.53.232-1.405.233-.281.233-.843.7-.844.7-1.405h.232l.467-.562.233-.843h.233l.466-.563h.233l.234-.28h.233l.466-.563h.466l.233-.28h1.632l.233-.282h.234l.466-.562h1.399l.233-.281h1.166l.233-.281h218.916" clip-path="url(#pae03475178)" style="fill:none;stroke:#ff0;stroke-width:2;stroke-linecap:square"/><path d="M356.164 593.48V31.318M356.164 593.48H589.07" class="patch" style="fill:none;stroke:currentColor;stroke-width:.8;stroke-linejoin:miter;stroke-linecap:square"/><g id="text_33" class="text" transform="matrix(.12 0 0 -.12 398.62 16.318)"><use xlink:href="#DejaVuSans-4f"/><use xlink:href="#DejaVuSans-70" transform="translate(78.71)"/><use xlink:href="#DejaVuSans-74" transform="translate(142.188)"/><use xlink:href="#DejaVuSans-69" transform="translate(181.396)"/><use xlink:href="#DejaVuSans-6d" transform="translate(209.18)"/><use xlink:href="#DejaVuSans-61" transform="translate(306.592)"/><use xlink:href="#DejaVuSans-6c" transform="translate(367.871)"/><use xlink:href="#DejaVuSans-41" transform="translate(427.441)"/><use xlink:href="#DejaVuSans-63" transform="translate(494.1)"/><use xlink:href="#DejaVuSans-74" transform="translate(549.08)"/><use xlink:href="#DejaVuSans-69" transform="translate(588.29)"/><use xlink:href="#DejaVuSans-6f" transform="translate(616.072)"/><use xlink:href="#DejaVuSans-6e" transform="translate(677.254)"/><use xlink:href="#DejaVuSans-53" transform="translate(772.42)"/><use xlink:href="#DejaVuSans-65" transform="translate(835.896)"/><use xlink:href="#DejaVuSans-6c" transform="translate(897.42)"/><use xlink:href="#DejaVuSans-65" transform="translate(925.203)"/><use xlink:href="#DejaVuSans-63" transform="translate(986.727)"/><use xlink:href="#DejaVuSans-74" transform="translate(1041.707)"/><use xlink:href="#DejaVuSans-69" transform="translate(1080.916)"/><use xlink:href="#DejaVuSans-6f" transform="translate(1108.7)"/><use xlink:href="#DejaVuSans-6e" transform="translate(1169.88)"/></g><g class="legend"><path d="M490.879 588.98h91.89q1.8 0 1.8-1.8v-38.75q0-1.8-1.8-1.8h-91.89q-1.8 0-1.8 1.8v38.75q0 1.8 1.8 1.8z" class="patch" style="fill:#fff;opacity:.9;stroke:#ccc;stroke-linejoin:miter"/><path id="line2d_58" d="M492.679 553.918h18" style="fill:none;stroke:#8000ff;stroke-width:2;stroke-linecap:square"/><g id="text_34" class="text" transform="matrix(.09 0 0 -.09 517.879 557.068)"><use xlink:href="#DejaVuSans-Oblique-3b5" transform="translate(0 .781)"/><use xlink:href="#DejaVuSans-3d" transform="translate(73.535 .781)"/><use xlink:href="#DejaVuSans-30" transform="translate(176.807 .781)"/><use xlink:href="#DejaVuSans-2e" transform="translate(240.43 .781)"/><use xlink:href="#DejaVuSans-31" transform="translate(272.217 .781)"/></g><path id="line2d_59" d="M492.679 567.128h18" style="fill:none;stroke:#ff8000;stroke-width:2;stroke-linecap:square"/><g id="text_35" class="text" transform="matrix(.09 0 0 -.09 517.879 570.278)"><use xlink:href="#DejaVuSans-Oblique-3b5" transform="translate(0 .781)"/><use xlink:href="#DejaVuSans-3d" transform="translate(73.535 .781)"/><use xlink:href="#DejaVuSans-30" transform="translate(176.807 .781)"/><use xlink:href="#DejaVuSans-2e" transform="translate(240.43 .781)"/><use xlink:href="#DejaVuSans-30" transform="translate(272.217 .781)"/><use xlink:href="#DejaVuSans-31" transform="translate(335.84 .781)"/></g><path id="line2d_60" d="M492.679 580.34h18" style="fill:none;stroke:#ff0;stroke-width:2;stroke-linecap:square"/><g id="text_36" class="text" transform="matrix(.09 0 0 -.09 517.879 583.49)"><use xlink:href="#DejaVuSans-Oblique-3b5" transform="translate(0 .016)"/><use xlink:href="#DejaVuSans-3d" transform="translate(73.535 .016)"/><use xlink:href="#DejaVuSans-30" transform="translate(176.807 .016)"/><use xlink:href="#DejaVuSans-28" transform="translate(272.217 .016)"/><use xlink:href="#DejaVuSans-67" transform="translate(311.23 .016)"/><use xlink:href="#DejaVuSans-72" transform="translate(374.707 .016)"/><use xlink:href="#DejaVuSans-65" transform="translate(415.82 .016)"/><use xlink:href="#DejaVuSans-65" transform="translate(477.344 .016)"/><use xlink:href="#DejaVuSans-64" transform="translate(538.867 .016)"/><use xlink:href="#DejaVuSans-79" transform="translate(602.344 .016)"/><use xlink:href="#DejaVuSans-29" transform="translate(661.523 .016)"/></g></g></g></g><defs><clipPath id="pda6d1ce171"><path d="M53.389 31.318h232.904V593.48H53.389z"/></clipPath><clipPath id="pae03475178"><path d="M356.164 31.318h232.904V593.48H356.164z"/></clipPath></defs></svg>