<svg xmlns="http://www.w3.org/2000/svg" xmlns:xlink="http://www.w3.org/1999/xlink" width="562.13" height="401.88" style="--axis-color:#000;--grid-stroke:rgba(0,0,0,0.2);--plot3d-stroke:rgba(0,0,0,0.3);--plot3d-grid:rgba(0,0,0,0.2);--black:#000000;--c1:#FF0001;--c2:#00FF02;--c3:#0000FF;--c4:#FF00FF;--c5:#00FFFF;--c6:#FFFF00;--c7:#FF8000;--c8:#8000FF;--gray:#7f7f7f;--grey:#7f7f7f;--octonary:#bcbd22;--primary:#d62728;--quaternary:#9467bd;--quinary:#8c564b;--secondary:#2ca02c;--senary:#e377c2;--septenary:#7f7f7f;--tertiary:#1f77b4;--white:#ffffff" viewBox="0 0 421.598 301.41"><style><![CDATA[@media (prefers-color-scheme:dark){:root{--axis-color:#fff;--grid-stroke:rgba(255,255,255,0.2);--plot3d-stroke:rgba(255,255,255,0.3);--plot3d-grid:rgba(255,255,255,0.2);--black:#FFFFFF;--c1:#FF0001;--c2:#00FF02;--c3:#0000FF;--c4:#FF00FF;--c5:#00FFFF;--c6:#FFFF00;--c7:#FF8000;--c8:#8000FF;--gray:#CCCCCC;--grey:#CCCCCC;--octonary:#E6DB74;--primary:#FF4A98;--quaternary:#B4A0FF;--quinary:#FFB86B;--secondary:#0AFAFA;--senary:#FF79C6;--septenary:#CCCCCC;--tertiary:#7F83FF;--white:#000000}}.text{fill:var(--axis-color)!important;stroke:none!important}.axis path,.patch path[style*="stroke: currentColor"],.tick path{stroke:var(--axis-color)!important}*{stroke-linejoin:round;stroke-linecap:butt}]]></style><g id="figure_1"><path d="M0 301.41h421.598V0H0z" class="patch" style="fill:none"/><g id="axes_1"><path d="M54.097 261.918h357.12V23.838H54.097z" class="patch" style="fill:none"/><g class="axis"><g class="tick xtick"><path id="line2d_1" d="M54.097 261.918V23.838" clip-path="url(#p2fa286b321)" style="fill:none;stroke:#b0b0b0;stroke-opacity:.15;stroke-width:.8;stroke-linecap:square"/><g id="line2d_2"><defs><path id="md7122a02d7" d="M0 0v3.5" style="stroke:var(--black);stroke-width:.8"/></defs><use xlink:href="#md7122a02d7" x="54.097" y="261.918" style="stroke:var(--black);stroke-width:.8"/></g><g id="text_1" class="text" transform="matrix(.1 0 0 -.1 46.725 276.516)"><defs><path id="DejaVuSans-2212" d="M678 2272h4006v-531H678z" transform="scale(.01563)"/><path id="DejaVuSans-33" d="M2597 2516q453-97 707-404 255-306 255-756 0-690-475-1069Q2609-91 1734-91q-293 0-604 58T488 141v609q262-153 574-231 313-78 654-78 593 0 904 234t311 681q0 413-289 645-289 233-804 233h-544v519h569q465 0 712 186t247 536q0 359-255 551-254 193-729 193-260 0-557-57-297-56-653-174v562q360 100 674 150t592 50q719 0 1137-327 419-326 419-882 0-388-222-655t-631-370z" transform="scale(.01563)"/></defs><use xlink:href="#DejaVuSans-2212"/><use xlink:href="#DejaVuSans-33" transform="translate(83.79)"/></g></g><g class="tick xtick"><path id="line2d_3" d="M113.617 261.918V23.838" clip-path="url(#p2fa286b321)" style="fill:none;stroke:#b0b0b0;stroke-opacity:.15;stroke-width:.8;stroke-linecap:square"/><use xlink:href="#md7122a02d7" id="line2d_4" x="113.617" y="261.918" style="stroke:var(--black);stroke-width:.8"/><g id="text_2" class="text" transform="matrix(.1 0 0 -.1 106.245 276.516)"><defs><path id="DejaVuSans-32" d="M1228 531h2203V0H469v531q359 372 979 998 621 627 780 809 303 340 423 576 121 236 121 464 0 372-261 606-261 235-680 235-297 0-627-103-329-103-704-313v638q381 153 712 231 332 78 607 78 725 0 1156-363 431-362 431-968 0-288-108-546-107-257-392-607-78-91-497-524-418-433-1181-1211z" transform="scale(.01563)"/></defs><use xlink:href="#DejaVuSans-2212"/><use xlink:href="#DejaVuSans-32" transform="translate(83.79)"/></g></g><g class="tick xtick"><path id="line2d_5" d="M173.137 261.918V23.838" clip-path="url(#p2fa286b321)" style="fill:none;stroke:#b0b0b0;stroke-opacity:.15;stroke-width:.8;stroke-linecap:square"/><use xlink:href="#md7122a02d7" id="line2d_6" x="173.137" y="261.918" style="stroke:var(--black);stroke-width:.8"/><g id="text_3" class="text" transform="matrix(.1 0 0 -.1 165.765 276.516)"><defs><path id="DejaVuSans-31" d="M794 531h1031v3560L703 3866v575l1116 225h631V531h1031V0H794z" transform="scale(.01563)"/></defs><use xlink:href="#DejaVuSans-2212"/><use xlink:href="#DejaVuSans-31" transform="translate(83.79)"/></g></g><g class="tick xtick"><path id="line2d_7" d="M232.657 261.918V23.838" clip-path="url(#p2fa286b321)" style="fill:none;stroke:#b0b0b0;stroke-opacity:.15;stroke-width:.8;stroke-linecap:square"/><use xlink:href="#md7122a02d7" id="line2d_8" x="232.657" y="261.918" style="stroke:var(--black);stroke-width:.8"/><g id="text_4" class="text" transform="matrix(.1 0 0 -.1 229.475 276.516)"><defs><path id="DejaVuSans-30" d="M2034 4250q-487 0-733-480-245-479-245-1442 0-959 245-1439 246-480 733-480 491 0 736 480 246 480 246 1439 0 963-246 1442-245 480-736 480zm0 500q785 0 1199-621 414-620 414-1801 0-1178-414-1799Q2819-91 2034-91q-784 0-1198 620-414 621-414 1799 0 1181 414 1801 414 621 1198 621z" transform="scale(.01563)"/></defs><use xlink:href="#DejaVuSans-30"/></g></g><g class="tick xtick"><path id="line2d_9" d="M292.177 261.918V23.838" clip-path="url(#p2fa286b321)" style="fill:none;stroke:#b0b0b0;stroke-opacity:.15;stroke-width:.8;stroke-linecap:square"/><use xlink:href="#md7122a02d7" id="line2d_10" x="292.177" y="261.918" style="stroke:var(--black);stroke-width:.8"/><use xlink:href="#DejaVuSans-31" id="text_5" class="text" transform="matrix(.1 0 0 -.1 288.995 276.516)"/></g><g class="tick xtick"><path id="line2d_11" d="M351.697 261.918V23.838" clip-path="url(#p2fa286b321)" style="fill:none;stroke:#b0b0b0;stroke-opacity:.15;stroke-width:.8;stroke-linecap:square"/><use xlink:href="#md7122a02d7" id="line2d_12" x="351.697" y="261.918" style="stroke:var(--black);stroke-width:.8"/><use xlink:href="#DejaVuSans-32" id="text_6" class="text" transform="matrix(.1 0 0 -.1 348.515 276.516)"/></g><g class="tick xtick"><path id="line2d_13" d="M411.217 261.918V23.838" clip-path="url(#p2fa286b321)" style="fill:none;stroke:#b0b0b0;stroke-opacity:.15;stroke-width:.8;stroke-linecap:square"/><use xlink:href="#md7122a02d7" id="line2d_14" x="411.217" y="261.918" style="stroke:var(--black);stroke-width:.8"/><use xlink:href="#DejaVuSans-33" id="text_7" class="text" transform="matrix(.1 0 0 -.1 408.035 276.516)"/></g><g id="text_8" class="text" transform="matrix(.12 0 0 -.12 226.237 291.714)"><defs><path id="DejaVuSans-Oblique-78" d="M3841 3500 2234 1784 3219 0h-660l-740 1388L531 0h-697l1722 1844-915 1656h659l672-1266 1172 1266z" transform="scale(.01563)"/></defs><use xlink:href="#DejaVuSans-Oblique-78" transform="translate(0 .313)"/><use xlink:href="#DejaVuSans-31" transform="matrix(.7 0 0 .7 59.18 -16.094)"/></g></g><g class="axis"><g class="tick ytick"><path id="line2d_15" d="M54.097 261.918h357.12" clip-path="url(#p2fa286b321)" style="fill:none;stroke:#b0b0b0;stroke-opacity:.15;stroke-width:.8;stroke-linecap:square"/><g id="line2d_16"><defs><path id="m297d15a5ef" d="M0 0h-3.5" style="stroke:var(--black);stroke-width:.8"/></defs><use xlink:href="#m297d15a5ef" x="54.097" y="261.918" style="stroke:var(--black);stroke-width:.8"/></g><g id="text_9" class="text" transform="matrix(.1 0 0 -.1 22.814 265.717)"><defs><path id="DejaVuSans-2e" d="M684 794h660V0H684z" transform="scale(.01563)"/></defs><use xlink:href="#DejaVuSans-2212"/><use xlink:href="#DejaVuSans-32" transform="translate(83.79)"/><use xlink:href="#DejaVuSans-2e" transform="translate(147.412)"/><use xlink:href="#DejaVuSans-30" transform="translate(179.2)"/></g></g><g class="tick ytick"><path id="line2d_17" d="M54.097 232.158h357.12" clip-path="url(#p2fa286b321)" style="fill:none;stroke:#b0b0b0;stroke-opacity:.15;stroke-width:.8;stroke-linecap:square"/><use xlink:href="#m297d15a5ef" id="line2d_18" x="54.097" y="232.158" style="stroke:var(--black);stroke-width:.8"/><g id="text_10" class="text" transform="matrix(.1 0 0 -.1 22.814 235.957)"><defs><path id="DejaVuSans-35" d="M691 4666h2478v-532H1269V2991q137 47 274 70 138 23 276 23 781 0 1237-428 457-428 457-1159 0-753-469-1171Q2575-91 1722-91q-294 0-599 50Q819 9 494 109v635q281-153 581-228t634-75q541 0 856 284 316 284 316 772 0 487-316 771-315 285-856 285-253 0-505-56-251-56-513-175z" transform="scale(.01563)"/></defs><use xlink:href="#DejaVuSans-2212"/><use xlink:href="#DejaVuSans-31" transform="translate(83.79)"/><use xlink:href="#DejaVuSans-2e" transform="translate(147.412)"/><use xlink:href="#DejaVuSans-35" transform="translate(179.2)"/></g></g><g class="tick ytick"><path id="line2d_19" d="M54.097 202.398h357.12" clip-path="url(#p2fa286b321)" style="fill:none;stroke:#b0b0b0;stroke-opacity:.15;stroke-width:.8;stroke-linecap:square"/><use xlink:href="#m297d15a5ef" id="line2d_20" x="54.097" y="202.398" style="stroke:var(--black);stroke-width:.8"/><g id="text_11" class="text" transform="matrix(.1 0 0 -.1 22.814 206.197)"><use xlink:href="#DejaVuSans-2212"/><use xlink:href="#DejaVuSans-31" transform="translate(83.79)"/><use xlink:href="#DejaVuSans-2e" transform="translate(147.412)"/><use xlink:href="#DejaVuSans-30" transform="translate(179.2)"/></g></g><g class="tick ytick"><path id="line2d_21" d="M54.097 172.638h357.12" clip-path="url(#p2fa286b321)" style="fill:none;stroke:#b0b0b0;stroke-opacity:.15;stroke-width:.8;stroke-linecap:square"/><use xlink:href="#m297d15a5ef" id="line2d_22" x="54.097" y="172.638" style="stroke:var(--black);stroke-width:.8"/><g id="text_12" class="text" transform="matrix(.1 0 0 -.1 22.814 176.437)"><use xlink:href="#DejaVuSans-2212"/><use xlink:href="#DejaVuSans-30" transform="translate(83.79)"/><use xlink:href="#DejaVuSans-2e" transform="translate(147.412)"/><use xlink:href="#DejaVuSans-35" transform="translate(179.2)"/></g></g><g class="tick ytick"><path id="line2d_23" d="M54.097 142.878h357.12" clip-path="url(#p2fa286b321)" style="fill:none;stroke:#b0b0b0;stroke-opacity:.15;stroke-width:.8;stroke-linecap:square"/><use xlink:href="#m297d15a5ef" id="line2d_24" x="54.097" y="142.878" style="stroke:var(--black);stroke-width:.8"/><g id="text_13" class="text" transform="matrix(.1 0 0 -.1 31.193 146.677)"><use xlink:href="#DejaVuSans-30"/><use xlink:href="#DejaVuSans-2e" transform="translate(63.623)"/><use xlink:href="#DejaVuSans-30" transform="translate(95.41)"/></g></g><g class="tick ytick"><path id="line2d_25" d="M54.097 113.118h357.12" clip-path="url(#p2fa286b321)" style="fill:none;stroke:#b0b0b0;stroke-opacity:.15;stroke-width:.8;stroke-linecap:square"/><use xlink:href="#m297d15a5ef" id="line2d_26" x="54.097" y="113.118" style="stroke:var(--black);stroke-width:.8"/><g id="text_14" class="text" transform="matrix(.1 0 0 -.1 31.193 116.917)"><use xlink:href="#DejaVuSans-30"/><use xlink:href="#DejaVuSans-2e" transform="translate(63.623)"/><use xlink:href="#DejaVuSans-35" transform="translate(95.41)"/></g></g><g class="tick ytick"><path id="line2d_27" d="M54.097 83.358h357.12" clip-path="url(#p2fa286b321)" style="fill:none;stroke:#b0b0b0;stroke-opacity:.15;stroke-width:.8;stroke-linecap:square"/><use xlink:href="#m297d15a5ef" id="line2d_28" x="54.097" y="83.358" style="stroke:var(--black);stroke-width:.8"/><g id="text_15" class="text" transform="matrix(.1 0 0 -.1 31.193 87.157)"><use xlink:href="#DejaVuSans-31"/><use xlink:href="#DejaVuSans-2e" transform="translate(63.623)"/><use xlink:href="#DejaVuSans-30" transform="translate(95.41)"/></g></g><g class="tick ytick"><path id="line2d_29" d="M54.097 53.598h357.12" clip-path="url(#p2fa286b321)" style="fill:none;stroke:#b0b0b0;stroke-opacity:.15;stroke-width:.8;stroke-linecap:square"/><use xlink:href="#m297d15a5ef" id="line2d_30" x="54.097" y="53.598" style="stroke:var(--black);stroke-width:.8"/><g id="text_16" class="text" transform="matrix(.1 0 0 -.1 31.193 57.397)"><use xlink:href="#DejaVuSans-31"/><use xlink:href="#DejaVuSans-2e" transform="translate(63.623)"/><use xlink:href="#DejaVuSans-35" transform="translate(95.41)"/></g></g><g class="tick ytick"><path id="line2d_31" d="M54.097 23.838h357.12" clip-path="url(#p2fa286b321)" style="fill:none;stroke:#b0b0b0;stroke-opacity:.15;stroke-width:.8;stroke-linecap:square"/><use xlink:href="#m297d15a5ef" id="line2d_32" x="54.097" y="23.838" style="stroke:var(--black);stroke-width:.8"/><g id="text_17" class="text" transform="matrix(.1 0 0 -.1 31.193 27.637)"><use xlink:href="#DejaVuSans-32"/><use xlink:href="#DejaVuSans-2e" transform="translate(63.623)"/><use xlink:href="#DejaVuSans-30" transform="translate(95.41)"/></g></g><g id="text_18" class="text" transform="matrix(0 -.12 -.12 0 16.318 149.298)"><use xlink:href="#DejaVuSans-Oblique-78" transform="translate(0 .313)"/><use xlink:href="#DejaVuSans-32" transform="matrix(.7 0 0 .7 59.18 -16.094)"/></g></g><path id="line2d_33" d="M54.097 142.878h357.12" clip-path="url(#p2fa286b321)" style="fill:none;stroke:var(--black);stroke-opacity:.8;stroke-linecap:square"/><path id="line2d_34" d="M232.657 261.918V23.838" clip-path="url(#p2fa286b321)" style="fill:none;stroke:var(--black);stroke-opacity:.8;stroke-linecap:square"/><path d="M54.097 261.918V23.838M54.097 261.918h357.12" class="patch" style="fill:none;stroke:var(--black);stroke-width:.8;stroke-linejoin:miter;stroke-linecap:square"/><path id="QuadContourSet_2" d="m288.596 202.29-3.58-.325-3.58-.545-3.58-.771-3.58-1.008-3.58-1.255-3.58-1.521-3.58-1.812-3.58-2.132-2.925-2.01-3.049-2.386-2.683-2.387-2.387-2.387-2.382-2.678-2.123-2.692-2.08-2.983-1.823-2.984-1.595-2.983-1.387-2.984-1.407-3.58-1.151-3.58-.908-3.58-.675-3.58-.453-3.58-.233-3.58-.018-3.58.197-3.581.416-3.58.71-3.915.796-3.246 1.11-3.58 1.364-3.58 1.345-2.983 1.889-3.58 1.823-2.984 2.08-2.983 2.369-2.984 2.439-2.706 2.723-2.664 2.768-2.387 3.155-2.387 2.99-1.978 2.749-1.602 3.546-1.79 3.55-1.507 3.58-1.256 3.58-1.007 3.58-.771 3.58-.545 3.58-.325 3.58-.108 3.58.108 3.58.325 3.581.545 3.58.77 3.58 1.008 3.58 1.256 3.58 1.521 3.58 1.811 3.58 2.133 2.926 2.01 3.048 2.386 2.684 2.387 2.386 2.386 2.382 2.678 2.124 2.693 2.079 2.983 1.823 2.984 1.595 2.983 1.387 2.983 1.407 3.58 1.151 3.58.908 3.58.675 3.581.453 3.58.233 3.58.018 3.58-.197 3.58-.416 3.58-.709 3.916-.797 3.245-1.109 3.58-1.365 3.58-1.345 2.984-1.889 3.58-1.823 2.984-2.08 2.983-2.368 2.983-2.44 2.706-2.722 2.665-2.769 2.386-3.155 2.387-2.99 1.978-2.749 1.602-3.546 1.79-3.55 1.508-3.58 1.255-3.58 1.008-3.58.771-3.58.545-3.58.325-3.58.107-3.58-.107" clip-path="url(#p2fa286b321)" style="fill:none;stroke:#8000ff;stroke-width:2.5"/><path id="QuadContourSet_3" d="m169.556 202.29-.61-.041-.285-.02-.895-.074-.895-.088-.895-.102-.895-.115-.895-.13-.432-.068-.463-.074-.895-.158-.895-.171-.895-.185-.039-.009-.856-.192-.895-.214-.745-.19-.15-.04-.895-.244-.895-.259-.18-.054-.715-.22-.895-.29-.255-.087-.64-.22-.895-.32-.149-.057-.746-.282-.794-.314-.101-.04-.895-.373-.427-.184-.468-.205-.865-.392-.03-.013-.896-.426-.32-.157-.575-.286-.605-.311-.29-.15-.83-.447-.065-.035-.895-.501-.104-.06-.79-.462-.224-.135-.672-.409-.3-.188-.595-.377-.337-.22-.558-.368-.337-.228-.558-.383-.304-.214-.59-.421-.24-.176-.656-.485-.146-.111-.749-.576-.027-.02-.747-.598-.121-.097-.603-.5-.292-.244-.41-.352-.485-.422-.196-.175-.661-.596-.038-.035-.601-.562-.294-.278-.329-.319-.566-.556-.04-.04-.586-.597-.27-.278-.302-.319-.558-.596-.034-.038-.505-.56-.39-.439-.137-.157-.512-.597-.246-.29-.254-.306-.486-.597-.155-.193-.318-.404-.462-.596-.115-.152-.333-.445-.44-.597-.122-.17-.303-.426-.416-.597-.177-.258-.227-.339-.395-.596-.273-.421-.112-.176-.373-.597-.366-.597-.044-.072-.31-.524-.345-.597-.24-.421-.098-.176-.326-.596-.32-.597-.15-.288-.16-.309-.3-.596-.295-.597-.14-.293-.145-.304-.276-.596-.27-.597-.205-.466-.057-.13-.252-.598-.246-.596-.239-.597-.1-.258-.13-.339-.223-.596-.217-.597-.21-.597-.116-.34-.086-.256-.194-.597-.188-.597-.182-.596-.175-.597-.07-.245-.098-.352-.16-.597-.154-.596-.148-.597-.142-.597-.136-.596-.057-.262-.071-.335-.122-.597-.115-.596-.11-.597-.103-.597-.097-.596-.091-.597-.085-.597-.08-.597-.02-.178-.051-.418-.066-.597-.06-.597-.054-.596-.048-.597-.041-.597-.036-.596-.03-.597-.024-.597-.018-.596-.012-.597-.006-.597v-.597l.006-.596.012-.597.018-.597.024-.596.03-.597.036-.597.041-.596.048-.597.054-.597.06-.596.066-.597.05-.418.022-.179.079-.597.085-.596.091-.597.097-.597.103-.596.11-.597.115-.597.122-.596.071-.335.057-.262.136-.597.142-.596.148-.597.154-.597.16-.597.098-.351.07-.245.175-.597.182-.597.188-.596.194-.597.086-.257.116-.34.21-.596.217-.597.222-.597.13-.338.101-.258.24-.597.245-.597.252-.597.057-.13.206-.466.27-.597.275-.597.144-.304.141-.292.294-.597.301-.597.16-.308.15-.288.32-.597.326-.597.098-.175.24-.421.346-.597.31-.524.043-.073.366-.597.373-.596.112-.176.273-.42.395-.598.227-.338.177-.258.416-.597.303-.426.123-.17.439-.597.333-.446.115-.151.462-.597.318-.403.155-.193.486-.597.254-.306.246-.29.512-.597.137-.158.39-.44.505-.558.034-.038.558-.597.303-.319.269-.277.586-.597.04-.04.566-.557.329-.318.294-.278.6-.563.039-.034.661-.597.196-.174.485-.422.41-.352.292-.245.603-.5.12-.097.748-.596.027-.021.749-.576.146-.111.656-.486.24-.175.59-.422.304-.214.558-.382.337-.229.558-.368.337-.22.595-.377.3-.188.672-.408.223-.135.791-.462.104-.06.895-.502.065-.035.83-.446.29-.15.605-.312.575-.285.32-.158.896-.425.03-.014.865-.392.468-.204.427-.185.895-.372.1-.04.795-.314.746-.283.149-.056.895-.321.64-.22.255-.086.895-.29.716-.22.179-.055.895-.259.895-.244.15-.039.745-.19.895-.215.856-.192.039-.008.895-.185.895-.171.895-.158.463-.074.432-.07.895-.128.895-.115.895-.102.895-.088.895-.075.285-.019.61-.041.895-.047.895-.034.896-.02.895-.007.895.007.895.02.895.034.895.047.61.041.285.02.895.074.895.088.895.102.895.115.895.129.432.069.463.074.895.158.895.17.895.186.039.008.856.192.895.215.745.19.15.039.895.244.895.26.18.054.715.22.895.29.255.086.64.22.895.321.15.056.745.283.795.314.1.04.896.372.426.185.469.204.864.392.03.014.896.425.32.158.575.285.605.312.29.15.83.446.065.035.895.502.104.06.79.462.225.135.67.408.301.188.595.378.337.22.558.367.337.229.558.382.304.214.591.422.24.175.655.486.146.11.75.577.026.02.747.597.121.098.603.499.292.245.41.352.485.422.196.174.662.597.037.034.602.563.293.278.329.318.566.557.04.04.587.597.268.277.303.32.558.596.034.038.505.559.39.44.138.157.512.596.245.291.254.306.486.597.156.193.317.403.462.597.116.151.333.446.438.596.124.171.302.426.416.597.177.258.227.338.395.597.273.421.112.176.373.596.366.597.044.073.31.524.345.597.24.42.098.176.326.597.32.597.15.288.16.308.3.597.295.597.14.292.145.304.276.597.27.597.205.465.057.131.252.597.246.597.239.597.1.258.13.338.224.597.216.597.21.596.116.34.086.257.194.597.188.596.182.597.175.597.07.245.098.351.16.597.155.597.148.597.141.596.136.597.057.262.072.335.121.596.115.597.11.597.103.596.097.597.091.597.085.596.08.597.021.179.05.418.066.597.06.596.054.597.048.597.042.596.035.597.03.597.024.596.018.597.012.597.006.596v.597l-.006.597-.012.597-.018.596-.024.597-.03.597-.035.596-.042.597-.048.597-.054.596-.06.597-.066.597-.05.418-.022.178-.079.597-.085.597-.09.597-.098.596-.103.597-.11.597-.115.596-.121.597-.072.335-.057.262-.136.596-.141.597-.148.597-.155.596-.16.597-.098.352-.07.245-.175.597-.182.596-.188.597-.194.597-.086.257-.116.34-.21.596-.216.597-.223.596-.13.339-.101.258-.24.597-.245.596-.252.597-.057.131-.205.466-.27.597-.276.596-.144.304-.141.293-.294.597-.301.596-.16.309-.15.288-.32.597-.326.596-.098.176-.24.421-.345.597-.31.524-.044.072-.366.597-.373.597-.112.176-.273.42-.395.597-.227.339-.177.258-.416.597-.302.426-.124.17-.438.597-.333.445-.116.152-.462.596-.317.404-.156.193-.486.597-.254.305-.245.291-.512.597-.138.157-.39.44-.505.559-.034.038-.558.596-.303.32-.268.277-.587.597-.04.04-.566.556-.329.319-.293.278-.602.562-.037.035-.662.596-.196.175-.485.422-.41.352-.292.245-.603.499-.12.097-.748.597-.027.021-.749.576-.146.111-.655.485-.24.176-.591.421-.304.214-.558.383-.337.228-.558.369-.337.22-.595.376-.3.188-.671.409-.224.135-.79.462-.105.06-.895.501-.065.035-.83.446-.29.151-.605.311-.575.286-.32.157-.895.426-.03.013-.865.392-.47.205-.425.184-.895.372-.101.04-.795.315-.746.282-.149.056-.895.322-.64.22-.255.086-.895.29-.716.22-.179.054-.895.26-.895.244-.15.039-.745.19-.895.214-.856.192-.039.009-.895.185-.895.171-.895.158-.463.074-.432.069-.895.129-.895.115-.895.102-.895.088-.895.074-.285.02-.61.04-.895.048-.895.033-.895.02-.895.007-.895-.006-.896-.02-.895-.034z" clip-path="url(#p2fa286b321)" style="fill:none;stroke:#8000ff;stroke-width:2.5"/><g class="patch"><path d="m207.29 203.756 24.167-58M228.072 148.68l3.385-2.923.308 4.461" style="fill:none;opacity:.7;stroke:gray;stroke-linecap:round"/></g><g id="text_19" class="text"><path d="M178.647 222.502h48.5q3 0 3-3v-10.4q0-3-3-3h-48.5q-3 0-3 3v10.4q0 3 3 3z" class="patch" style="fill:var(--white);opacity:.8;stroke:var(--black);stroke-linejoin:miter"/><g transform="matrix(.1 0 0 -.1 178.647 217.422)"><defs><path id="DejaVuSans-304" d="M-2518 4769h1868v-463h-1868z" transform="scale(.01563)"/><path id="DejaVuSans-3d" d="M678 2906h4006v-525H678zm0-1275h4006v-531H678z" transform="scale(.01563)"/><path id="DejaVuSans-5b" d="M550 4863h1325v-447h-750V-397h750v-447H550z" transform="scale(.01563)"/><path id="DejaVuSans-2c" d="M750 794h659V256L897-744H494L750 256z" transform="scale(.01563)"/><path id="DejaVuSans-5d" d="M1947 4863V-844H622v447h747v4813H622v447z" transform="scale(.01563)"/><path id="DejaVuSans-Oblique-54" d="M378 4666h3947l-100-532H2559L1759 0h-634l800 4134H275z" transform="scale(.01563)"/></defs><use xlink:href="#DejaVuSans-304" transform="translate(62.139 .59)"/><use xlink:href="#DejaVuSans-Oblique-78" transform="translate(0 .684)"/><use xlink:href="#DejaVuSans-3d" transform="translate(78.662 .684)"/><use xlink:href="#DejaVuSans-5b" transform="translate(181.934 .684)"/><use xlink:href="#DejaVuSans-30" transform="translate(220.947 .684)"/><use xlink:href="#DejaVuSans-2c" transform="translate(284.57 .684)"/><use xlink:href="#DejaVuSans-30" transform="translate(335.84 .684)"/><use xlink:href="#DejaVuSans-5d" transform="translate(399.463 .684)"/><use xlink:href="#DejaVuSans-Oblique-54" transform="matrix(.7 0 0 .7 439.434 38.966)"/></g></g><g class="patch"><path d="m378.04 63.848-25.357 76.071M355.845 136.757l-3.162 3.162-.633-4.427" style="fill:none;opacity:.7;stroke:gray;stroke-linecap:round"/></g><g id="text_20" class="text"><path d="M359.707 61.448h43.5q3 0 3-3v-9.7q0-3-3-3h-43.5q-3 0-3 3v9.7q0 3 3 3z" class="patch" style="fill:var(--white);opacity:.8;stroke:var(--black);stroke-linejoin:miter"/><g transform="matrix(.1 0 0 -.1 359.707 56.348)"><defs><path id="DejaVuSans-Oblique-67" d="M3816 3500 3219 434q-172-890-658-1327-486-438-1308-438-303 0-563 45-259 45-484 139l107 559q212-137 449-202 238-66 507-66 547 0 898 299 352 298 464 857l50 263q-240-275-559-419T1434 0Q903 0 598 351q-304 352-304 968 0 484 184 948 185 464 519 824 222 237 517 365t617 128q353 0 615-164 263-164 392-464l100 544zm-866-1284q0 425-200 656t-569 231q-228 0-434-91-206-90-353-253-238-268-371-632-132-364-132-752 0-431 201-663 202-231 580-231 547 0 912 495 366 496 366 1240" transform="scale(.01563)"/><path id="DejaVuSans-28" d="M1984 4856q-418-718-622-1422-203-703-203-1425 0-721 205-1429t620-1424h-500Q1016-109 783 600T550 2009q0 697 231 1403 232 707 703 1444z" transform="scale(.01563)"/><path id="DejaVuSans-29" d="M513 4856h500q468-737 701-1444 233-706 233-1403 0-700-233-1409T1013-844H513q415 716 620 1424t205 1429q0 722-205 1425-205 704-620 1422" transform="scale(.01563)"/><path id="DejaVuSans-2264" d="m4684 3175-3000-866 3000-856V897L678 2047v531l4006 1147zM678 531h4006V0H678z" transform="scale(.01563)"/></defs><use xlink:href="#DejaVuSans-Oblique-67" transform="translate(0 .125)"/><use xlink:href="#DejaVuSans-31" transform="matrix(.7 0 0 .7 63.477 -16.281)"/><use xlink:href="#DejaVuSans-28" transform="translate(110.747 .125)"/><use xlink:href="#DejaVuSans-Oblique-78" transform="translate(149.76 .125)"/><use xlink:href="#DejaVuSans-29" transform="translate(208.94 .125)"/><use xlink:href="#DejaVuSans-2264" transform="translate(267.437 .125)"/><use xlink:href="#DejaVuSans-30" transform="translate(370.708 .125)"/></g></g><g class="patch"><path d="m87.273 63.848 25.357 76.071M113.263 135.492l-.633 4.427-3.162-3.162" style="fill:none;opacity:.7;stroke:gray;stroke-linecap:round"/></g><g id="text_21" class="text"><path d="M62.107 61.448h43.5q3 0 3-3v-9.7q0-3-3-3h-43.5q-3 0-3 3v9.7q0 3 3 3z" class="patch" style="fill:var(--white);opacity:.8;stroke:var(--black);stroke-linejoin:miter"/><g transform="matrix(.1 0 0 -.1 62.107 56.348)"><use xlink:href="#DejaVuSans-Oblique-67" transform="translate(0 .125)"/><use xlink:href="#DejaVuSans-32" transform="matrix(.7 0 0 .7 63.477 -16.281)"/><use xlink:href="#DejaVuSans-28" transform="translate(110.747 .125)"/><use xlink:href="#DejaVuSans-Oblique-78" transform="translate(149.76 .125)"/><use xlink:href="#DejaVuSans-29" transform="translate(208.94 .125)"/><use xlink:href="#DejaVuSans-2264" transform="translate(267.437 .125)"/><use xlink:href="#DejaVuSans-30" transform="translate(370.708 .125)"/></g></g><g id="text_22" class="text" transform="matrix(.14 0 0 -.14 171.274 17.838)"><defs><path id="DejaVuSans-46" d="M628 4666h2681v-532H1259V2759h1850v-531H1259V0H628z" transform="scale(.01563)"/><path id="DejaVuSans-65" d="M3597 1894v-281H953q38-594 358-905t892-311q331 0 642 81t618 244V178Q3153 47 2828-22t-659-69q-838 0-1327 487-489 488-489 1320 0 859 464 1363 464 505 1252 505 706 0 1117-455 411-454 411-1235m-575 169q-6 471-264 752-258 282-683 282-481 0-770-272t-333-766z" transform="scale(.01563)"/><path id="DejaVuSans-61" d="M2194 1759q-697 0-966-159t-269-544q0-306 202-486 202-179 548-179 479 0 768 339t289 901v128zm1147 238V0h-575v531q-197-318-491-470T1556-91q-537 0-855 302-317 302-317 808 0 590 395 890 396 300 1180 300h807v57q0 397-261 614t-733 217q-300 0-585-72-284-72-546-216v532q315 122 612 182 297 61 578 61 760 0 1135-394 375-393 375-1193" transform="scale(.01563)"/><path id="DejaVuSans-73" d="M2834 3397v-544q-243 125-506 187-262 63-544 63-428 0-642-131t-214-394q0-200 153-314t616-217l197-44q612-131 870-370t258-667q0-488-386-773Q2250-91 1575-91q-281 0-586 55T347 128v594q319-166 628-249 309-82 613-82 406 0 624 139 219 139 219 392 0 234-158 359-157 125-692 241l-200 47q-534 112-772 345-237 233-237 639 0 494 350 762 350 269 994 269 318 0 599-47 282-46 519-140" transform="scale(.01563)"/><path id="DejaVuSans-69" d="M603 3500h575V0H603zm0 1363h575v-729H603z" transform="scale(.01563)"/><path id="DejaVuSans-62" d="M3116 1747q0 634-261 995t-717 361q-457 0-718-361t-261-995 261-995 718-361q456 0 717 361t261 995M1159 2969q182 312 458 463 277 152 661 152 638 0 1036-506 399-506 399-1331T3314 415Q2916-91 2278-91q-384 0-661 152-276 152-458 464V0H581v4863h578z" transform="scale(.01563)"/><path id="DejaVuSans-6c" d="M603 4863h575V0H603z" transform="scale(.01563)"/><path id="DejaVuSans-52" d="M2841 2188q203-69 395-294t386-619L4263 0h-679l-596 1197q-232 469-449 622t-592 153h-688V0H628v4666h1425q800 0 1194-335 394-334 394-1009 0-441-205-732-205-290-595-402M1259 4147V2491h794q456 0 689 211t233 620-233 617-689 208z" transform="scale(.01563)"/><path id="DejaVuSans-67" d="M2906 1791q0 625-258 968-257 344-723 344-462 0-720-344-258-343-258-968 0-622 258-966t720-344q466 0 723 344 258 344 258 966m575-1357q0-893-397-1329-396-436-1215-436-303 0-572 45t-522 139v559q253-137 500-202 247-66 503-66 566 0 847 295t281 892v285q-178-310-456-463T1784 0Q1141 0 747 490 353 981 353 1791q0 812 394 1302 394 491 1037 491 388 0 666-153t456-462v531h575z" transform="scale(.01563)"/><path id="DejaVuSans-6f" d="M1959 3097q-462 0-731-361t-269-989 267-989q268-361 733-361 460 0 728 362 269 363 269 988 0 622-269 986-268 364-728 364m0 487q750 0 1178-488 429-487 429-1349 0-859-429-1349Q2709-91 1959-91q-753 0-1180 489-426 490-426 1349 0 862 426 1349 427 488 1180 488" transform="scale(.01563)"/><path id="DejaVuSans-6e" d="M3513 2113V0h-575v2094q0 497-194 743-194 247-581 247-466 0-735-297-269-296-269-809V0H581v3500h578v-544q207 316 486 472 280 156 646 156 603 0 912-373 310-373 310-1098" transform="scale(.01563)"/><path id="DejaVuSans-53" d="M3425 4513v-616q-359 172-678 256-319 85-616 85-515 0-795-200t-280-569q0-310 186-468 186-157 705-254l381-78q706-135 1042-474t336-907q0-679-455-1029Q2797-91 1919-91q-331 0-705 75-373 75-773 222v650q384-215 753-325 369-109 725-109 540 0 834 212 294 213 294 607 0 343-211 537t-692 291l-385 75q-706 140-1022 440-315 300-315 835 0 619 436 975t1201 356q329 0 669-60 341-59 697-177" transform="scale(.01563)"/></defs><use xlink:href="#DejaVuSans-46"/><use xlink:href="#DejaVuSans-65" transform="translate(52.02)"/><use xlink:href="#DejaVuSans-61" transform="translate(113.543)"/><use xlink:href="#DejaVuSans-73" transform="translate(174.822)"/><use xlink:href="#DejaVuSans-69" transform="translate(226.922)"/><use xlink:href="#DejaVuSans-62" transform="translate(254.705)"/><use xlink:href="#DejaVuSans-6c" transform="translate(318.182)"/><use xlink:href="#DejaVuSans-65" transform="translate(345.965)"/><use xlink:href="#DejaVuSans-52" transform="translate(439.275)"/><use xlink:href="#DejaVuSans-65" transform="translate(504.258)"/><use xlink:href="#DejaVuSans-67" transform="translate(565.781)"/><use xlink:href="#DejaVuSans-69" transform="translate(629.258)"/><use xlink:href="#DejaVuSans-6f" transform="translate(657.041)"/><use xlink:href="#DejaVuSans-6e" transform="translate(718.223)"/><use xlink:href="#DejaVuSans-53" transform="translate(813.389)"/></g><g id="PathCollection_1"><defs><path id="mf978a904db" d="M0 5A5 5 0 1 0 0-5 5 5 0 0 0 0 5z" style="stroke:var(--white);stroke-width:2"/></defs><g clip-path="url(#p2fa286b321)"><use xlink:href="#mf978a904db" x="232.657" y="142.878" style="fill:#ff0001;stroke:var(--white);stroke-width:2"/></g></g></g></g><defs><clipPath id="p2fa286b321"><path d="M54.097 23.838h357.12v238.08H54.097z"/></clipPath></defs></svg>