<svg xmlns="http://www.w3.org/2000/svg" xmlns:xlink="http://www.w3.org/1999/xlink" width="565.419" height="422.137" style="--axis-color:#000;--grid-stroke:rgba(0,0,0,0.2);--plot3d-stroke:rgba(0,0,0,0.3);--plot3d-grid:rgba(0,0,0,0.2);--black:#000000;--c1:#FF0001;--c2:#00FF02;--c3:#0000FF;--c4:#FF00FF;--c5:#00FFFF;--c6:#FFFF00;--c7:#FF8000;--c8:#8000FF;--gray:#7f7f7f;--grey:#7f7f7f;--octonary:#bcbd22;--primary:#d62728;--quaternary:#9467bd;--quinary:#8c564b;--secondary:#2ca02c;--senary:#e377c2;--septenary:#7f7f7f;--tertiary:#1f77b4;--white:#ffffff" viewBox="0 0 424.064 316.603"><style><![CDATA[@media (prefers-color-scheme:dark){:root{--axis-color:#fff;--grid-stroke:rgba(255,255,255,0.2);--plot3d-stroke:rgba(255,255,255,0.3);--plot3d-grid:rgba(255,255,255,0.2);--black:#FFFFFF;--c1:#FF0001;--c2:#00FF02;--c3:#0000FF;--c4:#FF00FF;--c5:#00FFFF;--c6:#FFFF00;--c7:#FF8000;--c8:#8000FF;--gray:#CCCCCC;--grey:#CCCCCC;--octonary:#E6DB74;--primary:#FF4A98;--quaternary:#B4A0FF;--quinary:#FFB86B;--secondary:#0AFAFA;--senary:#FF79C6;--septenary:#CCCCCC;--tertiary:#7F83FF;--white:#000000}}.text{fill:var(--axis-color)!important;stroke:none!important}.axis path,.patch path[style*="stroke: currentColor"],.tick path{stroke:var(--axis-color)!important}*{stroke-linejoin:round;stroke-linecap:butt}]]></style><g id="figure_1"><path d="M0 316.603h424.064V0H0z" class="patch" style="fill:none"/><g id="axes_1"><path d="M54.097 277.111h354.816V11H54.097z" class="patch" style="fill:none"/><path id="QuadContourSet_1" d="M143.023 188.74h176.964l.444-.333v-6.002l-.445-.334-.444-.333v-6.67l-.445-.333-.445-.334v-4.668l-.444-.334-.445-.333v-2.668l-.445-.334-.444-.333v-2.668l-.445-.333-.444-.334v-2.001l-.445-.333-.445-.334v-2l-.444-.334-.445-.333v-1.334l-.445-.334-.444-.333v-1.334l-.445-.334-.444-.333v-1.334l-.445-.333-.445-.334v-1.334l-.444-.333-.445-.334v-1.334l-.445-.333-.444-.334v-.666l-.445-.334-.445-.333v-1.334l-.444-.334-.445-.333v-.667l-.444-.334-.445-.333v-.667l-.445-.334-.444-.333v-.667l-.445-.333-.445-.334v-.667l-.444-.333-.445-.334v-.667l-.444-.333-.445-.334v-.667l-.445-.333-.444-.334v-.667l-.445-.333-.445-.334v-.666l-.444-.334-.445-.333-.445-.334-.444-.333v-.667l-.445-.334-.444-.333-.445-.334-.445-.333v-.667l-.444-.334-.445-.333-.445-.334-.444-.333v-.667l-.445-.333-.444-.334-.445-.333-.445-.334v-.667l-.444-.333-.445-.334-.445-.333-.444-.334-.445-.333-.445-.334-.444-.333-.445-.334v-.667l-.444-.333-.445-.334-.445-.333-.444-.333-.445-.334-.445-.333-.444-.334-.445-.333-.444-.334-.445-.333-.445-.334-.444-.333-.445-.334-.445-.333-.444-.334-.445-.333-.445-.334-.444-.333-.445-.334-.444-.333-.445-.334-.445-.333-.444-.333-.445-.334-.445-.333-.444-.334-.445-.333-.444-.334-.445-.333h-.89l-.444-.334-.445-.333-.444-.334-.445-.333-.445-.334-.444-.333h-.89l-.444-.334-.445-.333-.444-.334-.445-.333-.445-.334-.444-.333h-.89l-.444-.333-.445-.334h-.889l-.445-.333-.444-.334-.445-.333-.445-.334h-.889l-.444-.333-.445-.334h-.89l-.444-.333-.445-.334h-.889l-.444-.333-.445-.334h-.89l-.444-.333-.445-.334h-.889l-.445-.333-.444-.334h-1.779l-.444-.333-.445-.334h-1.778l-.445-.333-.445-.333h-1.779l-.444-.334-.445-.333h-2.667l-.445-.334-.445-.333h-3.557l-.444-.334-.445-.333h-20.453l-.445.333-.444.334h-3.558l-.444.333-.445.334h-2.667l-.445.333-.445.334h-1.779l-.444.333-.444.333h-1.779l-.445.334-.444.333h-1.779l-.444.334-.445.333h-.89l-.444.334-.444.333h-.89l-.444.334-.445.333h-.89l-.444.334-.445.333h-.889l-.444.334-.445.333h-.89l-.444.334-.445.333-.444.334-.445.333h-.89l-.444.334-.444.333h-.89l-.444.333-.445.334-.445.333-.444.334-.445.333-.444.334h-.89l-.444.333-.445.334-.445.333-.444.334-.445.333-.444.334h-.89l-.444.333-.445.334-.445.333-.444.334-.445.333-.445.334-.444.333-.445.333-.444.334-.445.333-.445.334-.444.333-.445.334-.445.333-.444.334-.445.333-.444.334-.445.333-.445.334-.444.333-.445.334-.445.333-.444.334-.445.333-.445.334-.444.333-.445.333-.444.334-.445.333v.667l-.445.334-.444.333-.445.334-.445.333-.444.334-.445.333-.444.334-.445.333v.667l-.445.334-.444.333-.445.334-.445.333v.667l-.444.333-.445.334-.445.333-.444.334v.667l-.445.333-.444.334-.445.333-.445.334v.667l-.444.333-.445.334-.445.333-.444.334v.666l-.445.334-.444.333v.667l-.445.334-.445.333v.667l-.444.334-.445.333v.667l-.445.334-.444.333v.667l-.445.334-.445.333v.667l-.444.333-.445.334v.667l-.444.333-.445.334v.667l-.445.333-.444.334v1.334l-.445.333-.445.334v.666l-.444.334-.445.333v1.334l-.444.334-.445.333v1.334l-.445.334-.444.333v1.334l-.445.333-.445.334v1.334l-.444.333-.445.334v1.334l-.445.333-.444.334v2l-.445.334-.444.333v2.001l-.445.334-.445.333v2.668l-.444.333-.445.334v2.668l-.445.333-.444.334v4.668l-.445.334-.444.333v6.67l-.445.333-.445.334v6.002z" clip-path="url(#pce0ebdcc08)" style="fill:#8000ff;fill-opacity:.5"/><g class="axis"><g class="tick xtick"><path id="line2d_1" d="M54.097 277.111V11" clip-path="url(#pce0ebdcc08)" style="fill:none;stroke:#b0b0b0;stroke-opacity:.15;stroke-width:.8;stroke-linecap:square"/><g id="line2d_2"><defs><path id="m9cddbf3cce" d="M0 0v3.5" style="stroke:var(--black);stroke-width:.8"/></defs><use xlink:href="#m9cddbf3cce" x="54.097" y="277.111" style="stroke:var(--black);stroke-width:.8"/></g><g id="text_1" class="text" transform="matrix(.1 0 0 -.1 41.955 291.71)"><defs><path id="DejaVuSans-2212" d="M678 2272h4006v-531H678z" transform="scale(.01563)"/><path id="DejaVuSans-32" d="M1228 531h2203V0H469v531q359 372 979 998 621 627 780 809 303 340 423 576 121 236 121 464 0 372-261 606-261 235-680 235-297 0-627-103-329-103-704-313v638q381 153 712 231 332 78 607 78 725 0 1156-363 431-362 431-968 0-288-108-546-107-257-392-607-78-91-497-524-418-433-1181-1211z" transform="scale(.01563)"/><path id="DejaVuSans-2e" d="M684 794h660V0H684z" transform="scale(.01563)"/><path id="DejaVuSans-30" d="M2034 4250q-487 0-733-480-245-479-245-1442 0-959 245-1439 246-480 733-480 491 0 736 480 246 480 246 1439 0 963-246 1442-245 480-736 480zm0 500q785 0 1199-621 414-620 414-1801 0-1178-414-1799Q2819-91 2034-91q-784 0-1198 620-414 621-414 1799 0 1181 414 1801 414 621 1198 621z" transform="scale(.01563)"/></defs><use xlink:href="#DejaVuSans-2212"/><use xlink:href="#DejaVuSans-32" transform="translate(83.79)"/><use xlink:href="#DejaVuSans-2e" transform="translate(147.412)"/><use xlink:href="#DejaVuSans-30" transform="translate(179.2)"/></g></g><g class="tick xtick"><path id="line2d_3" d="M98.449 277.111V11" clip-path="url(#pce0ebdcc08)" style="fill:none;stroke:#b0b0b0;stroke-opacity:.15;stroke-width:.8;stroke-linecap:square"/><use xlink:href="#m9cddbf3cce" id="line2d_4" x="98.449" y="277.111" style="stroke:var(--black);stroke-width:.8"/><g id="text_2" class="text" transform="matrix(.1 0 0 -.1 86.307 291.71)"><defs><path id="DejaVuSans-31" d="M794 531h1031v3560L703 3866v575l1116 225h631V531h1031V0H794z" transform="scale(.01563)"/><path id="DejaVuSans-35" d="M691 4666h2478v-532H1269V2991q137 47 274 70 138 23 276 23 781 0 1237-428 457-428 457-1159 0-753-469-1171Q2575-91 1722-91q-294 0-599 50Q819 9 494 109v635q281-153 581-228t634-75q541 0 856 284 316 284 316 772 0 487-316 771-315 285-856 285-253 0-505-56-251-56-513-175z" transform="scale(.01563)"/></defs><use xlink:href="#DejaVuSans-2212"/><use xlink:href="#DejaVuSans-31" transform="translate(83.79)"/><use xlink:href="#DejaVuSans-2e" transform="translate(147.412)"/><use xlink:href="#DejaVuSans-35" transform="translate(179.2)"/></g></g><g class="tick xtick"><path id="line2d_5" d="M142.8 277.111V11" clip-path="url(#pce0ebdcc08)" style="fill:none;stroke:#b0b0b0;stroke-opacity:.15;stroke-width:.8;stroke-linecap:square"/><use xlink:href="#m9cddbf3cce" id="line2d_6" x="142.801" y="277.111" style="stroke:var(--black);stroke-width:.8"/><g id="text_3" class="text" transform="matrix(.1 0 0 -.1 130.66 291.71)"><use xlink:href="#DejaVuSans-2212"/><use xlink:href="#DejaVuSans-31" transform="translate(83.79)"/><use xlink:href="#DejaVuSans-2e" transform="translate(147.412)"/><use xlink:href="#DejaVuSans-30" transform="translate(179.2)"/></g></g><g class="tick xtick"><path id="line2d_7" d="M187.153 277.111V11" clip-path="url(#pce0ebdcc08)" style="fill:none;stroke:#b0b0b0;stroke-opacity:.15;stroke-width:.8;stroke-linecap:square"/><use xlink:href="#m9cddbf3cce" id="line2d_8" x="187.153" y="277.111" style="stroke:var(--black);stroke-width:.8"/><g id="text_4" class="text" transform="matrix(.1 0 0 -.1 175.011 291.71)"><use xlink:href="#DejaVuSans-2212"/><use xlink:href="#DejaVuSans-30" transform="translate(83.79)"/><use xlink:href="#DejaVuSans-2e" transform="translate(147.412)"/><use xlink:href="#DejaVuSans-35" transform="translate(179.2)"/></g></g><g class="tick xtick"><path id="line2d_9" d="M231.505 277.111V11" clip-path="url(#pce0ebdcc08)" style="fill:none;stroke:#b0b0b0;stroke-opacity:.15;stroke-width:.8;stroke-linecap:square"/><use xlink:href="#m9cddbf3cce" id="line2d_10" x="231.505" y="277.111" style="stroke:var(--black);stroke-width:.8"/><g id="text_5" class="text" transform="matrix(.1 0 0 -.1 223.553 291.71)"><use xlink:href="#DejaVuSans-30"/><use xlink:href="#DejaVuSans-2e" transform="translate(63.623)"/><use xlink:href="#DejaVuSans-30" transform="translate(95.41)"/></g></g><g class="tick xtick"><path id="line2d_11" d="M275.857 277.111V11" clip-path="url(#pce0ebdcc08)" style="fill:none;stroke:#b0b0b0;stroke-opacity:.15;stroke-width:.8;stroke-linecap:square"/><use xlink:href="#m9cddbf3cce" id="line2d_12" x="275.857" y="277.111" style="stroke:var(--black);stroke-width:.8"/><g id="text_6" class="text" transform="matrix(.1 0 0 -.1 267.905 291.71)"><use xlink:href="#DejaVuSans-30"/><use xlink:href="#DejaVuSans-2e" transform="translate(63.623)"/><use xlink:href="#DejaVuSans-35" transform="translate(95.41)"/></g></g><g class="tick xtick"><path id="line2d_13" d="M320.209 277.111V11" clip-path="url(#pce0ebdcc08)" style="fill:none;stroke:#b0b0b0;stroke-opacity:.15;stroke-width:.8;stroke-linecap:square"/><use xlink:href="#m9cddbf3cce" id="line2d_14" x="320.209" y="277.111" style="stroke:var(--black);stroke-width:.8"/><g id="text_7" class="text" transform="matrix(.1 0 0 -.1 312.257 291.71)"><use xlink:href="#DejaVuSans-31"/><use xlink:href="#DejaVuSans-2e" transform="translate(63.623)"/><use xlink:href="#DejaVuSans-30" transform="translate(95.41)"/></g></g><g class="tick xtick"><path id="line2d_15" d="M364.56 277.111V11" clip-path="url(#pce0ebdcc08)" style="fill:none;stroke:#b0b0b0;stroke-opacity:.15;stroke-width:.8;stroke-linecap:square"/><use xlink:href="#m9cddbf3cce" id="line2d_16" x="364.561" y="277.111" style="stroke:var(--black);stroke-width:.8"/><g id="text_8" class="text" transform="matrix(.1 0 0 -.1 356.609 291.71)"><use xlink:href="#DejaVuSans-31"/><use xlink:href="#DejaVuSans-2e" transform="translate(63.623)"/><use xlink:href="#DejaVuSans-35" transform="translate(95.41)"/></g></g><g class="tick xtick"><path id="line2d_17" d="M408.913 277.111V11" clip-path="url(#pce0ebdcc08)" style="fill:none;stroke:#b0b0b0;stroke-opacity:.15;stroke-width:.8;stroke-linecap:square"/><use xlink:href="#m9cddbf3cce" id="line2d_18" x="408.913" y="277.111" style="stroke:var(--black);stroke-width:.8"/><g id="text_9" class="text" transform="matrix(.1 0 0 -.1 400.961 291.71)"><use xlink:href="#DejaVuSans-32"/><use xlink:href="#DejaVuSans-2e" transform="translate(63.623)"/><use xlink:href="#DejaVuSans-30" transform="translate(95.41)"/></g></g><g id="text_10" class="text" transform="matrix(.12 0 0 -.12 225.085 306.907)"><defs><path id="DejaVuSans-Oblique-78" d="M3841 3500 2234 1784 3219 0h-660l-740 1388L531 0h-697l1722 1844-915 1656h659l672-1266 1172 1266z" transform="scale(.01563)"/></defs><use xlink:href="#DejaVuSans-Oblique-78" transform="translate(0 .313)"/><use xlink:href="#DejaVuSans-31" transform="matrix(.7 0 0 .7 59.18 -16.094)"/></g></g><g class="axis"><g class="tick ytick"><path id="line2d_19" d="M54.097 277.111h354.816" clip-path="url(#pce0ebdcc08)" style="fill:none;stroke:#b0b0b0;stroke-opacity:.15;stroke-width:.8;stroke-linecap:square"/><g id="line2d_20"><defs><path id="m58bf41f1c5" d="M0 0h-3.5" style="stroke:var(--black);stroke-width:.8"/></defs><use xlink:href="#m58bf41f1c5" x="54.097" y="277.111" style="stroke:var(--black);stroke-width:.8"/></g><g id="text_11" class="text" transform="matrix(.1 0 0 -.1 22.814 280.91)"><use xlink:href="#DejaVuSans-2212"/><use xlink:href="#DejaVuSans-31" transform="translate(83.79)"/><use xlink:href="#DejaVuSans-2e" transform="translate(147.412)"/><use xlink:href="#DejaVuSans-30" transform="translate(179.2)"/></g></g><g class="tick ytick"><path id="line2d_21" d="M54.097 232.76h354.816" clip-path="url(#pce0ebdcc08)" style="fill:none;stroke:#b0b0b0;stroke-opacity:.15;stroke-width:.8;stroke-linecap:square"/><use xlink:href="#m58bf41f1c5" id="line2d_22" x="54.097" y="232.759" style="stroke:var(--black);stroke-width:.8"/><g id="text_12" class="text" transform="matrix(.1 0 0 -.1 22.814 236.558)"><use xlink:href="#DejaVuSans-2212"/><use xlink:href="#DejaVuSans-30" transform="translate(83.79)"/><use xlink:href="#DejaVuSans-2e" transform="translate(147.412)"/><use xlink:href="#DejaVuSans-35" transform="translate(179.2)"/></g></g><g class="tick ytick"><path id="line2d_23" d="M54.097 188.407h354.816" clip-path="url(#pce0ebdcc08)" style="fill:none;stroke:#b0b0b0;stroke-opacity:.15;stroke-width:.8;stroke-linecap:square"/><use xlink:href="#m58bf41f1c5" id="line2d_24" x="54.097" y="188.407" style="stroke:var(--black);stroke-width:.8"/><g id="text_13" class="text" transform="matrix(.1 0 0 -.1 31.193 192.206)"><use xlink:href="#DejaVuSans-30"/><use xlink:href="#DejaVuSans-2e" transform="translate(63.623)"/><use xlink:href="#DejaVuSans-30" transform="translate(95.41)"/></g></g><g class="tick ytick"><path id="line2d_25" d="M54.097 144.055h354.816" clip-path="url(#pce0ebdcc08)" style="fill:none;stroke:#b0b0b0;stroke-opacity:.15;stroke-width:.8;stroke-linecap:square"/><use xlink:href="#m58bf41f1c5" id="line2d_26" x="54.097" y="144.055" style="stroke:var(--black);stroke-width:.8"/><g id="text_14" class="text" transform="matrix(.1 0 0 -.1 31.193 147.854)"><use xlink:href="#DejaVuSans-30"/><use xlink:href="#DejaVuSans-2e" transform="translate(63.623)"/><use xlink:href="#DejaVuSans-35" transform="translate(95.41)"/></g></g><g class="tick ytick"><path id="line2d_27" d="M54.097 99.703h354.816" clip-path="url(#pce0ebdcc08)" style="fill:none;stroke:#b0b0b0;stroke-opacity:.15;stroke-width:.8;stroke-linecap:square"/><use xlink:href="#m58bf41f1c5" id="line2d_28" x="54.097" y="99.703" style="stroke:var(--black);stroke-width:.8"/><g id="text_15" class="text" transform="matrix(.1 0 0 -.1 31.193 103.502)"><use xlink:href="#DejaVuSans-31"/><use xlink:href="#DejaVuSans-2e" transform="translate(63.623)"/><use xlink:href="#DejaVuSans-30" transform="translate(95.41)"/></g></g><g class="tick ytick"><path id="line2d_29" d="M54.097 55.351h354.816" clip-path="url(#pce0ebdcc08)" style="fill:none;stroke:#b0b0b0;stroke-opacity:.15;stroke-width:.8;stroke-linecap:square"/><use xlink:href="#m58bf41f1c5" id="line2d_30" x="54.097" y="55.351" style="stroke:var(--black);stroke-width:.8"/><g id="text_16" class="text" transform="matrix(.1 0 0 -.1 31.193 59.15)"><use xlink:href="#DejaVuSans-31"/><use xlink:href="#DejaVuSans-2e" transform="translate(63.623)"/><use xlink:href="#DejaVuSans-35" transform="translate(95.41)"/></g></g><g class="tick ytick"><path id="line2d_31" d="M54.097 11h354.816" clip-path="url(#pce0ebdcc08)" style="fill:none;stroke:#b0b0b0;stroke-opacity:.15;stroke-width:.8;stroke-linecap:square"/><use xlink:href="#m58bf41f1c5" id="line2d_32" x="54.097" y="10.999" style="stroke:var(--black);stroke-width:.8"/><g id="text_17" class="text" transform="matrix(.1 0 0 -.1 31.193 14.798)"><use xlink:href="#DejaVuSans-32"/><use xlink:href="#DejaVuSans-2e" transform="translate(63.623)"/><use xlink:href="#DejaVuSans-30" transform="translate(95.41)"/></g></g><g id="text_18" class="text" transform="matrix(0 -.12 -.12 0 16.318 150.475)"><use xlink:href="#DejaVuSans-Oblique-78" transform="translate(0 .313)"/><use xlink:href="#DejaVuSans-32" transform="matrix(.7 0 0 .7 59.18 -16.094)"/></g></g><path id="line2d_33" d="M54.097 188.407h354.816" clip-path="url(#pce0ebdcc08)" style="fill:none;stroke:var(--black);stroke-opacity:.8;stroke-linecap:square"/><path id="line2d_34" d="M231.505 277.111V11" clip-path="url(#pce0ebdcc08)" style="fill:none;stroke:var(--black);stroke-opacity:.8;stroke-linecap:square"/><path d="M54.097 277.111V11M54.097 277.111h354.816" class="patch" style="fill:none;stroke:var(--black);stroke-width:.8;stroke-linejoin:miter;stroke-linecap:square"/><path id="QuadContourSet_2" d="m221.278 276.52-4.446-.631-4.447-.863-4.446-1.103-4.446-1.351-4.447-1.613-4.446-1.89-4.446-2.186-3.557-1.98-3.955-2.465-3.82-2.667-3.435-2.668-3.116-2.668-3.52-3.335-3.162-3.334-3.002-3.514-2.93-3.823-2.406-3.496-2.372-3.84-2.198-4.002-1.94-4.002-1.7-4.001-1.572-4.285-1.356-4.386-1.025-4.001-.83-4.002-.729-4.669-.477-4.668-.228-4.669.017-4.669.264-4.668.513-4.669.765-4.668.862-4.002 1.058-4.002 1.262-4.002 1.683-4.52 1.494-3.483 1.94-4.002 2.197-4.001 2.478-4.002 2.788-4.002 2.587-3.334 2.857-3.335 3.223-3.395 3.557-3.362 3.557-3.017 3.557-2.715 3.557-2.446 3.906-2.406 4.097-2.239 3.641-1.762 4.362-1.852 4.447-1.612 4.446-1.352 4.446-1.103 4.447-.862 4.446-.631 4.446-.403 4.447-.179 4.446.045 4.446.268 4.447.494 4.446.723 4.446.957 4.447 1.202 4.446 1.454 4.446 1.721 4.447 2.006 3.557 1.823 3.557 2.034 4.061 2.603 3.716 2.668 3.35 2.668 3.1 2.719 3.558 3.458 2.927 3.16 2.8 3.335 2.537 3.334 2.407 3.497 2.372 3.84 2.198 4.001 1.94 4.002 1.7 4.002 1.572 4.284 1.356 4.386 1.026 4.002.83 4.001.728 4.67.477 4.668.228 4.668-.017 4.669-.264 4.669-.513 4.668-.765 4.669-.862 4.002-1.058 4.001-1.262 4.002-1.683 4.52-1.494 3.483-1.939 4.002-2.198 4.002-2.478 4.001-2.788 4.002-2.587 3.335-2.857 3.335-3.222 3.394-3.557 3.363-3.557 3.017-3.558 2.715-3.557 2.445-3.906 2.406-4.097 2.239-3.641 1.763-4.362 1.851-4.447 1.613-4.446 1.351-4.446 1.103-4.447.863-4.446.63-4.446.403-4.447.18-4.446-.046-4.446-.268-2.668-.269" clip-path="url(#pce0ebdcc08)" style="fill:none;stroke:#8000ff;stroke-width:2.5"/><path id="line2d_35" d="M54.097 188.407h354.816" clip-path="url(#pce0ebdcc08)" style="fill:none;stroke:#8000ff;stroke-width:2.5;stroke-linecap:square"/><g id="text_19" class="text"><path d="M225.355 151.894h12.3q3 0 3-3v-9.678q0-3-3-3h-12.3q-3 0-3 3v9.678q0 3 3 3z" class="patch" style="fill:var(--white);opacity:.8;stroke:var(--black);stroke-linejoin:miter"/><g transform="matrix(.1 0 0 -.1 225.355 146.815)"><use xlink:href="#DejaVuSans-Oblique-78" transform="translate(0 .094)"/><use xlink:href="#DejaVuSans-31" transform="translate(59.18 .094)"/></g></g><g id="text_20" class="text"><path d="M136.65 151.894h12.3q3 0 3-3v-9.678q0-3-3-3h-12.3q-3 0-3 3v9.678q0 3 3 3z" class="patch" style="fill:var(--white);opacity:.8;stroke:var(--black);stroke-linejoin:miter"/><g transform="matrix(.1 0 0 -.1 136.65 146.815)"><use xlink:href="#DejaVuSans-Oblique-78" transform="translate(0 .781)"/><use xlink:href="#DejaVuSans-32" transform="translate(59.18 .781)"/></g></g><g id="text_21" class="text"><path d="M314.059 151.894h12.3q3 0 3-3v-9.678q0-3-3-3h-12.3q-3 0-3 3v9.678q0 3 3 3z" class="patch" style="fill:var(--white);opacity:.8;stroke:var(--black);stroke-linejoin:miter"/><g transform="matrix(.1 0 0 -.1 314.059 146.815)"><defs><path id="DejaVuSans-33" d="M2597 2516q453-97 707-404 255-306 255-756 0-690-475-1069Q2609-91 1734-91q-293 0-604 58T488 141v609q262-153 574-231 313-78 654-78 593 0 904 234t311 681q0 413-289 645-289 233-804 233h-544v519h569q465 0 712 186t247 536q0 359-255 551-254 193-729 193-260 0-557-57-297-56-653-174v562q360 100 674 150t592 50q719 0 1137-327 419-326 419-882 0-388-222-655t-631-370" transform="scale(.01563)"/></defs><use xlink:href="#DejaVuSans-Oblique-78" transform="translate(0 .781)"/><use xlink:href="#DejaVuSans-33" transform="translate(59.18 .781)"/></g></g><g id="text_22" class="text" style="fill:#ff0001" transform="matrix(.1 0 0 -.1 275.857 232.76)"><defs><path id="DejaVuSans-2207" d="m2138 659 1306 3388H831zM1791 0-19 4603h4319L2491 0z" transform="scale(.01563)"/><path id="DejaVuSans-Oblique-66" d="m3059 4863-90-479h-550q-313 0-455-123t-211-452l-62-309h947l-85-447h-947L1013 0H434l597 3053H481l82 447h550l46 244q119 619 417 869 299 250 940 250z" transform="scale(.01563)"/></defs><use xlink:href="#DejaVuSans-2212" transform="translate(0 .016)"/><use xlink:href="#DejaVuSans-2207" transform="translate(83.79 .016)"/><use xlink:href="#DejaVuSans-Oblique-66" transform="translate(150.684 .016)"/></g><g id="text_23" class="text" style="fill:#00ff02" transform="matrix(.1 0 0 -.1 240.375 232.76)"><defs><path id="DejaVuSans-Oblique-67" d="M3816 3500 3219 434q-172-890-658-1327-486-438-1308-438-303 0-563 45-259 45-484 139l107 559q212-137 449-202 238-66 507-66 547 0 898 299 352 298 464 857l50 263q-240-275-559-419T1434 0Q903 0 598 351q-304 352-304 968 0 484 184 948 185 464 519 824 222 237 517 365t617 128q353 0 615-164 263-164 392-464l100 544zm-866-1284q0 425-200 656t-569 231q-228 0-434-91-206-90-353-253-238-268-371-632-132-364-132-752 0-431 201-663 202-231 580-231 547 0 912 495 366 496 366 1240" transform="scale(.01563)"/></defs><use xlink:href="#DejaVuSans-2207" transform="translate(0 .078)"/><use xlink:href="#DejaVuSans-Oblique-67" transform="translate(66.895 .078)"/><use xlink:href="#DejaVuSans-32" transform="matrix(.7 0 0 .7 130.371 -16.328)"/></g><g id="text_24" class="text" style="fill:#00f" transform="matrix(.1 0 0 -.1 240.375 179.537)"><use xlink:href="#DejaVuSans-2207" transform="translate(0 .078)"/><use xlink:href="#DejaVuSans-Oblique-67" transform="translate(66.895 .078)"/><use xlink:href="#DejaVuSans-31" transform="matrix(.7 0 0 .7 130.371 -16.328)"/></g><g id="text_25" class="text" style="fill:#ff0001" transform="matrix(.1 0 0 -.1 187.153 232.76)"><use xlink:href="#DejaVuSans-2212" transform="translate(0 .016)"/><use xlink:href="#DejaVuSans-2207" transform="translate(83.79 .016)"/><use xlink:href="#DejaVuSans-Oblique-66" transform="translate(150.684 .016)"/></g><g id="text_26" class="text" style="fill:#00ff02" transform="matrix(.1 0 0 -.1 151.671 232.76)"><use xlink:href="#DejaVuSans-2207" transform="translate(0 .078)"/><use xlink:href="#DejaVuSans-Oblique-67" transform="translate(66.895 .078)"/><use xlink:href="#DejaVuSans-32" transform="matrix(.7 0 0 .7 130.371 -16.328)"/></g><g id="text_27" class="text" style="fill:#00f" transform="matrix(.1 0 0 -.1 116.19 179.537)"><use xlink:href="#DejaVuSans-2207" transform="translate(0 .078)"/><use xlink:href="#DejaVuSans-Oblique-67" transform="translate(66.895 .078)"/><use xlink:href="#DejaVuSans-31" transform="matrix(.7 0 0 .7 130.371 -16.328)"/></g><g id="text_28" class="text" style="fill:#ff0001" transform="matrix(.1 0 0 -.1 364.56 232.76)"><use xlink:href="#DejaVuSans-2212" transform="translate(0 .016)"/><use xlink:href="#DejaVuSans-2207" transform="translate(83.79 .016)"/><use xlink:href="#DejaVuSans-Oblique-66" transform="translate(150.684 .016)"/></g><g id="text_29" class="text" style="fill:#00ff02" transform="matrix(.1 0 0 -.1 311.338 232.76)"><use xlink:href="#DejaVuSans-2207" transform="translate(0 .078)"/><use xlink:href="#DejaVuSans-Oblique-67" transform="translate(66.895 .078)"/><use xlink:href="#DejaVuSans-32" transform="matrix(.7 0 0 .7 130.371 -16.328)"/></g><g id="text_30" class="text" style="fill:#00f" transform="matrix(.1 0 0 -.1 346.82 179.537)"><use xlink:href="#DejaVuSans-2207" transform="translate(0 .078)"/><use xlink:href="#DejaVuSans-Oblique-67" transform="translate(66.895 .078)"/><use xlink:href="#DejaVuSans-31" transform="matrix(.7 0 0 .7 130.371 -16.328)"/></g><g id="PathCollection_1"><defs><path id="mb024d5dccf" d="M0 5A5 5 0 1 0 0-5 5 5 0 0 0 0 5z" style="stroke:var(--white);stroke-width:2"/></defs><g clip-path="url(#pce0ebdcc08)"><use xlink:href="#mb024d5dccf" x="231.505" y="188.407" style="fill:#ff0001;stroke:var(--white);stroke-width:2"/></g></g><g id="PathCollection_2" clip-path="url(#pce0ebdcc08)"><use xlink:href="#mb024d5dccf" x="142.801" y="188.407" style="fill:#ff0001;stroke:var(--white);stroke-width:2"/></g><g id="PathCollection_3" clip-path="url(#pce0ebdcc08)"><use xlink:href="#mb024d5dccf" x="320.209" y="188.407" style="fill:#ff0001;stroke:var(--white);stroke-width:2"/></g><path id="Quiver_1" d="m232.445 187.466 21.1 21.1.942-2.822 6.586 12.231-12.231-6.586 2.822-.94-21.1-21.1z" clip-path="url(#pce0ebdcc08)" style="fill:#ff0001"/><path id="Quiver_2" d="M232.835 188.407V206l2.661-1.33-3.991 13.305-3.992-13.305 2.661 1.33v-17.593z" clip-path="url(#pce0ebdcc08)" style="fill:#00ff02"/><path id="Quiver_3" d="m232.835 188.407-.665-1.152h-1.33l-.666 1.152.665 1.153h1.33zl-.665-1.152" clip-path="url(#pce0ebdcc08)" style="fill:#00f"/><path id="Quiver_4" d="m143.741 187.466 21.1 21.1.942-2.822 6.586 12.231-12.231-6.586 2.822-.94-21.1-21.1z" clip-path="url(#pce0ebdcc08)" style="fill:#ff0001"/><path id="Quiver_5" d="M144.131 188.407V206l2.661-1.33-3.991 13.305-3.992-13.305 2.661 1.33v-17.593z" clip-path="url(#pce0ebdcc08)" style="fill:#00ff02"/><path id="Quiver_6" d="M142.8 189.738H95.64l1.33 2.66-13.305-3.99 13.305-3.992-1.33 2.66h47.16z" clip-path="url(#pce0ebdcc08)" style="fill:#00f"/><path id="Quiver_7" d="m321.15 187.466 21.1 21.1.94-2.822 6.587 12.231-12.231-6.586 2.822-.94-21.1-21.1z" clip-path="url(#pce0ebdcc08)" style="fill:#ff0001"/><path id="Quiver_8" d="M321.54 188.407V206l2.66-1.33-3.991 13.305-3.992-13.305 2.661 1.33v-17.593z" clip-path="url(#pce0ebdcc08)" style="fill:#00ff02"/><path id="Quiver_9" d="M320.209 187.077h47.16l-1.33-2.661 13.306 3.991-13.306 3.992 1.33-2.661h-47.16z" clip-path="url(#pce0ebdcc08)" style="fill:#00f"/></g></g><defs><clipPath id="pce0ebdcc08"><path d="M54.097 10.999h354.816v266.112H54.097z"/></clipPath></defs></svg>