<?xml version="1.0" encoding="utf-8" standalone="no"?>
<!DOCTYPE svg PUBLIC "-//W3C//DTD SVG 1.1//EN"
  "http://www.w3.org/Graphics/SVG/1.1/DTD/svg11.dtd">
<svg xmlns:xlink="http://www.w3.org/1999/xlink" width="424.064125pt" height="316.603094pt" viewBox="0 0 424.064125 316.603094" xmlns="http://www.w3.org/2000/svg" version="1.1">
<style>/* === RDF autogenerated palette === */
:root {
    --axis-color: #000;
    --grid-stroke: rgba(0,0,0,0.2);
    --plot3d-stroke: rgba(0,0,0,0.3);
    --plot3d-grid: rgba(0,0,0,0.2);
}
@media (prefers-color-scheme: dark) {
    :root {
        --axis-color: #fff;
        --grid-stroke: rgba(255,255,255,0.2);
        --plot3d-stroke: rgba(255,255,255,0.3);
        --plot3d-grid: rgba(255,255,255,0.2);
    }
}

/* Light‑mode palette */
.black { fill:#000000; stroke:#000000; }:root { --black: #000000; }.c1 { fill:#FF0001; stroke:#FF0001; }:root { --c1: #FF0001; }.c2 { fill:#00FF02; stroke:#00FF02; }:root { --c2: #00FF02; }.c3 { fill:#0000FF; stroke:#0000FF; }:root { --c3: #0000FF; }.c4 { fill:#FF00FF; stroke:#FF00FF; }:root { --c4: #FF00FF; }.c5 { fill:#00FFFF; stroke:#00FFFF; }:root { --c5: #00FFFF; }.c6 { fill:#FFFF00; stroke:#FFFF00; }:root { --c6: #FFFF00; }.c7 { fill:#FF8000; stroke:#FF8000; }:root { --c7: #FF8000; }.c8 { fill:#8000FF; stroke:#8000FF; }:root { --c8: #8000FF; }.gray { fill:#7f7f7f; stroke:#7f7f7f; }:root { --gray: #7f7f7f; }.grey { fill:#7f7f7f; stroke:#7f7f7f; }:root { --grey: #7f7f7f; }.octonary { fill:#bcbd22; stroke:#bcbd22; }:root { --octonary: #bcbd22; }.primary { fill:#d62728; stroke:#d62728; }:root { --primary: #d62728; }.quaternary { fill:#9467bd; stroke:#9467bd; }:root { --quaternary: #9467bd; }.quinary { fill:#8c564b; stroke:#8c564b; }:root { --quinary: #8c564b; }.secondary { fill:#2ca02c; stroke:#2ca02c; }:root { --secondary: #2ca02c; }.senary { fill:#e377c2; stroke:#e377c2; }:root { --senary: #e377c2; }.septenary { fill:#7f7f7f; stroke:#7f7f7f; }:root { --septenary: #7f7f7f; }.tertiary { fill:#1f77b4; stroke:#1f77b4; }:root { --tertiary: #1f77b4; }.white { fill:#ffffff; stroke:#ffffff; }:root { --white: #ffffff; }

/* Dark overrides */
@media (prefers-color-scheme: dark) {
    .black { fill:#FFFFFF; stroke:#FFFFFF; }:root { --black: #FFFFFF; }.c1 { fill:#FF0001; stroke:#FF0001; }:root { --c1: #FF0001; }.c2 { fill:#00FF02; stroke:#00FF02; }:root { --c2: #00FF02; }.c3 { fill:#0000FF; stroke:#0000FF; }:root { --c3: #0000FF; }.c4 { fill:#FF00FF; stroke:#FF00FF; }:root { --c4: #FF00FF; }.c5 { fill:#00FFFF; stroke:#00FFFF; }:root { --c5: #00FFFF; }.c6 { fill:#FFFF00; stroke:#FFFF00; }:root { --c6: #FFFF00; }.c7 { fill:#FF8000; stroke:#FF8000; }:root { --c7: #FF8000; }.c8 { fill:#8000FF; stroke:#8000FF; }:root { --c8: #8000FF; }.gray { fill:#CCCCCC; stroke:#CCCCCC; }:root { --gray: #CCCCCC; }.grey { fill:#CCCCCC; stroke:#CCCCCC; }:root { --grey: #CCCCCC; }.octonary { fill:#E6DB74; stroke:#E6DB74; }:root { --octonary: #E6DB74; }.primary { fill:#FF4A98; stroke:#FF4A98; }:root { --primary: #FF4A98; }.quaternary { fill:#B4A0FF; stroke:#B4A0FF; }:root { --quaternary: #B4A0FF; }.quinary { fill:#FFB86B; stroke:#FFB86B; }:root { --quinary: #FFB86B; }.secondary { fill:#0AFAFA; stroke:#0AFAFA; }:root { --secondary: #0AFAFA; }.senary { fill:#FF79C6; stroke:#FF79C6; }:root { --senary: #FF79C6; }.septenary { fill:#CCCCCC; stroke:#CCCCCC; }:root { --septenary: #CCCCCC; }.tertiary { fill:#7F83FF; stroke:#7F83FF; }:root { --tertiary: #7F83FF; }.white { fill:#000000; stroke:#000000; }:root { --white: #000000; }
}/* Axis, ticks, legend */
text, .text { fill: var(--axis-color) !important; stroke: none !important; }
.axis line, .axis path,
.tick line, .tick path,
path.domain,
line.grid { stroke: var(--axis-color) !important; }
.legend text { fill: var(--axis-color) !important; }

/* Patch paths that relied on currentColor */
.patch path[style*="stroke: currentColor"] { stroke: var(--axis-color) !important; }

/* Legend background (first child of legend group) */
g.legend > g:first-child > path:first-child {
    fill: rgba(255,255,255,0.8) !important;
    stroke: rgba(0,0,0,0.1) !important;
}
@media (prefers-color-scheme: dark) {
    g.legend > g:first-child > path:first-child {
        fill: rgba(26,26,26,0.8) !important;
        stroke: rgba(255,255,255,0.1) !important;
    }
}

/* 3‑D specific rules */
.plot3d path, .plot3d polygon {
    stroke: var(--plot3d-stroke) !important;
}
.plot3d-grid line { stroke: var(--plot3d-grid) !important; }
.plot3d-surface path[style*="fill:"] {
    fill-opacity: 0.9 !important;
}
@media (prefers-color-scheme: dark) {
    .plot3d-surface path[style*="fill:"] {
        fill-opacity: 0.95 !important;
        filter: saturate(1.2) !important;
    }
}</style>

 <metadata>
  <rdf:RDF xmlns:dc="http://purl.org/dc/elements/1.1/" xmlns:cc="http://creativecommons.org/ns#" xmlns:rdf="http://www.w3.org/1999/02/22-rdf-syntax-ns#">
   <cc:Work>
    <dc:type rdf:resource="http://purl.org/dc/dcmitype/StillImage"/>
    <dc:date>2025-09-15T20:39:34.543594</dc:date>
    <dc:format>image/svg+xml</dc:format>
    <dc:creator>
     <cc:Agent>
      <dc:title>Matplotlib v3.10.1, https://matplotlib.org/</dc:title>
     </cc:Agent>
    </dc:creator>
   </cc:Work>
  </rdf:RDF>
 </metadata>
 <defs>
  <style type="text/css">*{stroke-linejoin: round; stroke-linecap: butt}</style>
 </defs>
 <g id="figure_1">
  <g class="patch">
   <path d="M 0 316.603094 
L 424.064125 316.603094 
L 424.064125 0 
L 0 0 
L 0 316.603094 
z
" style="fill: none"/>
  </g>
  <g id="axes_1">
   <g class="patch">
    <path d="M 54.096563 277.111219 
L 408.912562 277.111219 
L 408.912562 10.999219 
L 54.096563 10.999219 
L 54.096563 277.111219 
z
" style="fill: none"/>
   </g>
   <g id="QuadContourSet_1">
    <path d="M 249.734457 188.073745 
L 250.62372 188.073745 
L 251.512984 188.073745 
L 252.402247 188.073745 
L 253.29151 188.073745 
L 254.180773 188.073745 
L 255.070036 188.073745 
L 255.959299 188.073745 
L 256.848562 188.073745 
L 257.737826 188.073745 
L 258.627089 188.073745 
L 259.516352 188.073745 
L 260.405615 188.073745 
L 261.294878 188.073745 
L 262.184141 188.073745 
L 263.073405 188.073745 
L 263.962668 188.073745 
L 264.851931 188.073745 
L 265.296562 187.740271 
L 265.741194 187.406798 
L 266.630457 187.406798 
L 267.51972 187.406798 
L 268.408984 187.406798 
L 269.298247 187.406798 
L 269.742878 187.073324 
L 270.18751 186.73985 
L 271.076773 186.73985 
L 271.966036 186.73985 
L 272.855299 186.73985 
L 273.299931 186.406377 
L 273.744562 186.072903 
L 274.633826 186.072903 
L 275.078457 185.739429 
L 275.523089 185.405956 
L 276.412352 185.405956 
L 277.301615 185.405956 
L 277.746247 185.072482 
L 278.190878 184.739008 
L 279.080141 184.739008 
L 279.524773 184.405535 
L 279.969405 184.072061 
L 280.414036 183.738587 
L 280.858668 183.405113 
L 281.747931 183.405113 
L 282.192562 183.07164 
L 282.637194 182.738166 
L 283.081826 182.404692 
L 283.526457 182.071219 
L 283.971089 181.737745 
L 284.41572 181.404271 
L 285.304984 181.404271 
L 285.749615 181.070798 
L 286.194247 180.737324 
L 286.638878 180.40385 
L 287.08351 180.070377 
L 287.528141 179.736903 
L 287.972773 179.403429 
L 288.417405 179.069956 
L 288.417405 178.403008 
L 288.862036 178.069535 
L 289.306668 177.736061 
L 289.751299 177.402587 
L 290.195931 177.069113 
L 290.640562 176.73564 
L 291.085194 176.402166 
L 291.529826 176.068692 
L 291.974457 175.735219 
L 291.974457 175.068271 
L 292.419089 174.734798 
L 292.86372 174.401324 
L 293.308352 174.06785 
L 293.752984 173.734377 
L 293.752984 173.067429 
L 294.197615 172.733956 
L 294.642247 172.400482 
L 294.642247 171.733535 
L 295.086878 171.400061 
L 295.53151 171.066587 
L 295.976141 170.733113 
L 296.420773 170.39964 
L 296.420773 169.732692 
L 296.865405 169.399219 
L 297.310036 169.065745 
L 297.310036 168.398798 
L 297.754668 168.065324 
L 298.199299 167.73185 
L 298.199299 167.064903 
L 298.199299 166.397956 
L 298.643931 166.064482 
L 299.088562 165.731008 
L 299.088562 165.064061 
L 299.533194 164.730587 
L 299.977826 164.397113 
L 299.977826 163.730166 
L 300.422457 163.396692 
L 300.867089 163.063219 
L 300.867089 162.396271 
L 300.867089 161.729324 
L 301.31172 161.39585 
L 301.756352 161.062377 
L 301.756352 160.395429 
L 302.200984 160.061956 
L 302.645615 159.728482 
L 302.645615 159.061535 
L 302.645615 158.394587 
L 303.090247 158.061113 
L 303.534878 157.72764 
L 303.534878 157.060692 
L 303.534878 156.393745 
L 303.97951 156.060271 
L 304.424141 155.726798 
L 304.424141 155.05985 
L 304.424141 154.392903 
L 304.868773 154.059429 
L 305.313405 153.725956 
L 305.313405 153.059008 
L 305.313405 152.392061 
L 305.758036 152.058587 
L 306.202668 151.725113 
L 306.202668 151.058166 
L 306.202668 150.391219 
L 306.202668 149.724271 
L 306.647299 149.390798 
L 307.091931 149.057324 
L 307.091931 148.390377 
L 307.091931 147.723429 
L 307.536562 147.389956 
L 307.981194 147.056482 
L 307.981194 146.389535 
L 307.981194 145.722587 
L 307.981194 145.05564 
L 308.425826 144.722166 
L 308.870457 144.388692 
L 308.870457 143.721745 
L 308.870457 143.054798 
L 308.870457 142.38785 
L 309.315089 142.054377 
L 309.75972 141.720903 
L 309.75972 141.053956 
L 309.75972 140.387008 
L 309.75972 139.720061 
L 310.204352 139.386587 
L 310.648984 139.053113 
L 310.648984 138.386166 
L 310.648984 137.719219 
L 310.648984 137.052271 
L 311.093615 136.718798 
L 311.538247 136.385324 
L 311.538247 135.718377 
L 311.538247 135.051429 
L 311.538247 134.384482 
L 311.982878 134.051008 
L 312.42751 133.717535 
L 312.42751 133.050587 
L 312.42751 132.38364 
L 312.42751 131.716692 
L 312.42751 131.049745 
L 312.872141 130.716271 
L 313.316773 130.382798 
L 313.316773 129.71585 
L 313.316773 129.048903 
L 313.316773 128.381956 
L 313.316773 127.715008 
L 313.761405 127.381535 
L 314.206036 127.048061 
L 314.206036 126.381113 
L 314.206036 125.714166 
L 314.206036 125.047219 
L 314.206036 124.380271 
L 314.650668 124.046798 
L 315.095299 123.713324 
L 315.095299 123.046377 
L 315.095299 122.379429 
L 315.095299 121.712482 
L 315.095299 121.045535 
L 315.539931 120.712061 
L 315.984562 120.378587 
L 315.984562 119.71164 
L 315.984562 119.044692 
L 315.984562 118.377745 
L 315.984562 117.710798 
L 316.429194 117.377324 
L 316.873826 117.04385 
L 316.873826 116.376903 
L 316.873826 115.709956 
L 316.873826 115.043008 
L 316.873826 114.376061 
L 316.873826 113.709113 
L 317.318457 113.37564 
L 317.763089 113.042166 
L 317.763089 112.375219 
L 317.763089 111.708271 
L 317.763089 111.041324 
L 317.763089 110.374377 
L 317.763089 109.707429 
L 318.20772 109.373956 
L 318.652352 109.040482 
L 318.652352 108.373535 
L 318.652352 107.706587 
L 318.652352 107.03964 
L 318.652352 106.372692 
L 318.652352 105.705745 
L 318.20772 105.372271 
L 317.763089 105.705745 
L 317.763089 106.372692 
L 317.763089 107.03964 
L 317.763089 107.706587 
L 317.318457 108.040061 
L 316.873826 108.373535 
L 316.873826 109.040482 
L 316.873826 109.707429 
L 316.873826 110.374377 
L 316.429194 110.70785 
L 315.984562 111.041324 
L 315.984562 111.708271 
L 315.984562 112.375219 
L 315.539931 112.708692 
L 315.095299 113.042166 
L 315.095299 113.709113 
L 315.095299 114.376061 
L 315.095299 115.043008 
L 314.650668 115.376482 
L 314.206036 115.709956 
L 314.206036 116.376903 
L 314.206036 117.04385 
L 313.761405 117.377324 
L 313.316773 117.710798 
L 313.316773 118.377745 
L 313.316773 119.044692 
L 313.316773 119.71164 
L 312.872141 120.045113 
L 312.42751 120.378587 
L 312.42751 121.045535 
L 312.42751 121.712482 
L 311.982878 122.045956 
L 311.538247 122.379429 
L 311.538247 123.046377 
L 311.538247 123.713324 
L 311.093615 124.046798 
L 310.648984 124.380271 
L 310.648984 125.047219 
L 310.648984 125.714166 
L 310.648984 126.381113 
L 310.204352 126.714587 
L 309.75972 127.048061 
L 309.75972 127.715008 
L 309.75972 128.381956 
L 309.315089 128.715429 
L 308.870457 129.048903 
L 308.870457 129.71585 
L 308.870457 130.382798 
L 308.425826 130.716271 
L 307.981194 131.049745 
L 307.981194 131.716692 
L 307.981194 132.38364 
L 307.536562 132.717113 
L 307.091931 133.050587 
L 307.091931 133.717535 
L 307.091931 134.384482 
L 306.647299 134.717956 
L 306.202668 135.051429 
L 306.202668 135.718377 
L 305.758036 136.05185 
L 305.313405 136.385324 
L 305.313405 137.052271 
L 305.313405 137.719219 
L 304.868773 138.052692 
L 304.424141 138.386166 
L 304.424141 139.053113 
L 304.424141 139.720061 
L 303.97951 140.053535 
L 303.534878 140.387008 
L 303.534878 141.053956 
L 303.534878 141.720903 
L 303.090247 142.054377 
L 302.645615 142.38785 
L 302.645615 143.054798 
L 302.200984 143.388271 
L 301.756352 143.721745 
L 301.756352 144.388692 
L 301.756352 145.05564 
L 301.31172 145.389113 
L 300.867089 145.722587 
L 300.867089 146.389535 
L 300.422457 146.723008 
L 299.977826 147.056482 
L 299.977826 147.723429 
L 299.977826 148.390377 
L 299.533194 148.72385 
L 299.088562 149.057324 
L 299.088562 149.724271 
L 298.643931 150.057745 
L 298.199299 150.391219 
L 298.199299 151.058166 
L 297.754668 151.39164 
L 297.310036 151.725113 
L 297.310036 152.392061 
L 296.865405 152.725535 
L 296.420773 153.059008 
L 296.420773 153.725956 
L 295.976141 154.059429 
L 295.53151 154.392903 
L 295.53151 155.05985 
L 295.53151 155.726798 
L 295.086878 156.060271 
L 294.642247 156.393745 
L 294.642247 157.060692 
L 294.197615 157.394166 
L 293.752984 157.72764 
L 293.752984 158.394587 
L 293.308352 158.728061 
L 292.86372 159.061535 
L 292.419089 159.395008 
L 291.974457 159.728482 
L 291.974457 160.395429 
L 291.529826 160.728903 
L 291.085194 161.062377 
L 291.085194 161.729324 
L 290.640562 162.062798 
L 290.195931 162.396271 
L 290.195931 163.063219 
L 289.751299 163.396692 
L 289.306668 163.730166 
L 289.306668 164.397113 
L 288.862036 164.730587 
L 288.417405 165.064061 
L 287.972773 165.397535 
L 287.528141 165.731008 
L 287.528141 166.397956 
L 287.08351 166.731429 
L 286.638878 167.064903 
L 286.194247 167.398377 
L 285.749615 167.73185 
L 285.749615 168.398798 
L 285.304984 168.732271 
L 284.860352 169.065745 
L 284.41572 169.399219 
L 283.971089 169.732692 
L 283.971089 170.39964 
L 283.526457 170.733113 
L 283.081826 171.066587 
L 282.637194 171.400061 
L 282.192562 171.733535 
L 281.747931 172.067008 
L 281.303299 172.400482 
L 281.303299 173.067429 
L 280.858668 173.400903 
L 280.414036 173.734377 
L 279.969405 174.06785 
L 279.524773 174.401324 
L 279.080141 174.734798 
L 278.63551 175.068271 
L 278.190878 175.401745 
L 277.746247 175.735219 
L 277.301615 176.068692 
L 276.856984 176.402166 
L 276.412352 176.73564 
L 275.96772 177.069113 
L 275.523089 177.402587 
L 275.078457 177.736061 
L 274.633826 178.069535 
L 274.189194 178.403008 
L 273.744562 178.736482 
L 273.299931 179.069956 
L 272.855299 179.403429 
L 272.410668 179.736903 
L 271.966036 180.070377 
L 271.521405 180.40385 
L 271.076773 180.737324 
L 270.18751 180.737324 
L 269.742878 181.070798 
L 269.298247 181.404271 
L 268.853615 181.737745 
L 268.408984 182.071219 
L 267.964352 182.404692 
L 267.51972 182.738166 
L 266.630457 182.738166 
L 266.185826 183.07164 
L 265.741194 183.405113 
L 264.851931 183.405113 
L 264.407299 183.738587 
L 263.962668 184.072061 
L 263.518036 184.405535 
L 263.073405 184.739008 
L 262.184141 184.739008 
L 261.294878 184.739008 
L 260.850247 185.072482 
L 260.405615 185.405956 
L 259.516352 185.405956 
L 259.07172 185.739429 
L 258.627089 186.072903 
L 257.737826 186.072903 
L 256.848562 186.072903 
L 256.403931 186.406377 
L 255.959299 186.73985 
L 255.070036 186.73985 
L 254.180773 186.73985 
L 253.736141 187.073324 
L 253.29151 187.406798 
L 252.402247 187.406798 
L 251.512984 187.406798 
L 250.62372 187.406798 
L 249.734457 187.406798 
L 249.289826 187.740271 
z
M 319.096984 105.372271 
L 319.541615 105.038798 
L 319.541615 104.37185 
L 319.541615 103.704903 
L 319.541615 103.037956 
L 319.096984 102.704482 
L 318.652352 103.037956 
L 318.652352 103.704903 
L 318.652352 104.37185 
L 318.652352 105.038798 
z
M 319.986247 100.70364 
L 320.430878 100.370166 
L 319.986247 100.036692 
L 319.541615 100.370166 
z
" clip-path="url(#pe52e59064b)" style="fill: #8000ff; fill-opacity: 0.5"/>
   </g>
   <g class="axis">
    <g class="tick xtick">
     <g id="line2d_1">
      <path d="M 54.096563 277.111219 
L 54.096563 10.999219 
" clip-path="url(#pe52e59064b)" style="fill: none; stroke: #b0b0b0; stroke-opacity: 0.15; stroke-width: 0.8; stroke-linecap: square"/>
     </g>
     <g id="line2d_2">
      <defs>
       <path id="mbf6ba7057f" d="M 0 0 
L 0 3.5 
" style="stroke: var(--black); stroke-width: 0.8"/>
      </defs>
      <g>
       <use xlink:href="#mbf6ba7057f" x="54.096563" y="277.111219" style="stroke: var(--black); stroke-width: 0.8"/>
      </g>
     </g>
     <g id="text_1" class="text">
      <!-- −2.0 -->
      <g transform="translate(41.955156 291.709656) scale(0.1 -0.1)">
       <defs>
        <path id="DejaVuSans-2212" d="M 678 2272 
L 4684 2272 
L 4684 1741 
L 678 1741 
L 678 2272 
z
" transform="scale(0.015625)"/>
        <path id="DejaVuSans-32" d="M 1228 531 
L 3431 531 
L 3431 0 
L 469 0 
L 469 531 
Q 828 903 1448 1529 
Q 2069 2156 2228 2338 
Q 2531 2678 2651 2914 
Q 2772 3150 2772 3378 
Q 2772 3750 2511 3984 
Q 2250 4219 1831 4219 
Q 1534 4219 1204 4116 
Q 875 4013 500 3803 
L 500 4441 
Q 881 4594 1212 4672 
Q 1544 4750 1819 4750 
Q 2544 4750 2975 4387 
Q 3406 4025 3406 3419 
Q 3406 3131 3298 2873 
Q 3191 2616 2906 2266 
Q 2828 2175 2409 1742 
Q 1991 1309 1228 531 
z
" transform="scale(0.015625)"/>
        <path id="DejaVuSans-2e" d="M 684 794 
L 1344 794 
L 1344 0 
L 684 0 
L 684 794 
z
" transform="scale(0.015625)"/>
        <path id="DejaVuSans-30" d="M 2034 4250 
Q 1547 4250 1301 3770 
Q 1056 3291 1056 2328 
Q 1056 1369 1301 889 
Q 1547 409 2034 409 
Q 2525 409 2770 889 
Q 3016 1369 3016 2328 
Q 3016 3291 2770 3770 
Q 2525 4250 2034 4250 
z
M 2034 4750 
Q 2819 4750 3233 4129 
Q 3647 3509 3647 2328 
Q 3647 1150 3233 529 
Q 2819 -91 2034 -91 
Q 1250 -91 836 529 
Q 422 1150 422 2328 
Q 422 3509 836 4129 
Q 1250 4750 2034 4750 
z
" transform="scale(0.015625)"/>
       </defs>
       <use xlink:href="#DejaVuSans-2212"/>
       <use xlink:href="#DejaVuSans-32" transform="translate(83.789062 0)"/>
       <use xlink:href="#DejaVuSans-2e" transform="translate(147.412109 0)"/>
       <use xlink:href="#DejaVuSans-30" transform="translate(179.199219 0)"/>
      </g>
     </g>
    </g>
    <g class="tick xtick">
     <g id="line2d_3">
      <path d="M 98.448563 277.111219 
L 98.448563 10.999219 
" clip-path="url(#pe52e59064b)" style="fill: none; stroke: #b0b0b0; stroke-opacity: 0.15; stroke-width: 0.8; stroke-linecap: square"/>
     </g>
     <g id="line2d_4">
      <g>
       <use xlink:href="#mbf6ba7057f" x="98.448563" y="277.111219" style="stroke: var(--black); stroke-width: 0.8"/>
      </g>
     </g>
     <g id="text_2" class="text">
      <!-- −1.5 -->
      <g transform="translate(86.307156 291.709656) scale(0.1 -0.1)">
       <defs>
        <path id="DejaVuSans-31" d="M 794 531 
L 1825 531 
L 1825 4091 
L 703 3866 
L 703 4441 
L 1819 4666 
L 2450 4666 
L 2450 531 
L 3481 531 
L 3481 0 
L 794 0 
L 794 531 
z
" transform="scale(0.015625)"/>
        <path id="DejaVuSans-35" d="M 691 4666 
L 3169 4666 
L 3169 4134 
L 1269 4134 
L 1269 2991 
Q 1406 3038 1543 3061 
Q 1681 3084 1819 3084 
Q 2600 3084 3056 2656 
Q 3513 2228 3513 1497 
Q 3513 744 3044 326 
Q 2575 -91 1722 -91 
Q 1428 -91 1123 -41 
Q 819 9 494 109 
L 494 744 
Q 775 591 1075 516 
Q 1375 441 1709 441 
Q 2250 441 2565 725 
Q 2881 1009 2881 1497 
Q 2881 1984 2565 2268 
Q 2250 2553 1709 2553 
Q 1456 2553 1204 2497 
Q 953 2441 691 2322 
L 691 4666 
z
" transform="scale(0.015625)"/>
       </defs>
       <use xlink:href="#DejaVuSans-2212"/>
       <use xlink:href="#DejaVuSans-31" transform="translate(83.789062 0)"/>
       <use xlink:href="#DejaVuSans-2e" transform="translate(147.412109 0)"/>
       <use xlink:href="#DejaVuSans-35" transform="translate(179.199219 0)"/>
      </g>
     </g>
    </g>
    <g class="tick xtick">
     <g id="line2d_5">
      <path d="M 142.800563 277.111219 
L 142.800563 10.999219 
" clip-path="url(#pe52e59064b)" style="fill: none; stroke: #b0b0b0; stroke-opacity: 0.15; stroke-width: 0.8; stroke-linecap: square"/>
     </g>
     <g id="line2d_6">
      <g>
       <use xlink:href="#mbf6ba7057f" x="142.800563" y="277.111219" style="stroke: var(--black); stroke-width: 0.8"/>
      </g>
     </g>
     <g id="text_3" class="text">
      <!-- −1.0 -->
      <g transform="translate(130.659156 291.709656) scale(0.1 -0.1)">
       <use xlink:href="#DejaVuSans-2212"/>
       <use xlink:href="#DejaVuSans-31" transform="translate(83.789062 0)"/>
       <use xlink:href="#DejaVuSans-2e" transform="translate(147.412109 0)"/>
       <use xlink:href="#DejaVuSans-30" transform="translate(179.199219 0)"/>
      </g>
     </g>
    </g>
    <g class="tick xtick">
     <g id="line2d_7">
      <path d="M 187.152562 277.111219 
L 187.152562 10.999219 
" clip-path="url(#pe52e59064b)" style="fill: none; stroke: #b0b0b0; stroke-opacity: 0.15; stroke-width: 0.8; stroke-linecap: square"/>
     </g>
     <g id="line2d_8">
      <g>
       <use xlink:href="#mbf6ba7057f" x="187.152562" y="277.111219" style="stroke: var(--black); stroke-width: 0.8"/>
      </g>
     </g>
     <g id="text_4" class="text">
      <!-- −0.5 -->
      <g transform="translate(175.011156 291.709656) scale(0.1 -0.1)">
       <use xlink:href="#DejaVuSans-2212"/>
       <use xlink:href="#DejaVuSans-30" transform="translate(83.789062 0)"/>
       <use xlink:href="#DejaVuSans-2e" transform="translate(147.412109 0)"/>
       <use xlink:href="#DejaVuSans-35" transform="translate(179.199219 0)"/>
      </g>
     </g>
    </g>
    <g class="tick xtick">
     <g id="line2d_9">
      <path d="M 231.504562 277.111219 
L 231.504562 10.999219 
" clip-path="url(#pe52e59064b)" style="fill: none; stroke: #b0b0b0; stroke-opacity: 0.15; stroke-width: 0.8; stroke-linecap: square"/>
     </g>
     <g id="line2d_10">
      <g>
       <use xlink:href="#mbf6ba7057f" x="231.504562" y="277.111219" style="stroke: var(--black); stroke-width: 0.8"/>
      </g>
     </g>
     <g id="text_5" class="text">
      <!-- 0.0 -->
      <g transform="translate(223.553 291.709656) scale(0.1 -0.1)">
       <use xlink:href="#DejaVuSans-30"/>
       <use xlink:href="#DejaVuSans-2e" transform="translate(63.623047 0)"/>
       <use xlink:href="#DejaVuSans-30" transform="translate(95.410156 0)"/>
      </g>
     </g>
    </g>
    <g class="tick xtick">
     <g id="line2d_11">
      <path d="M 275.856562 277.111219 
L 275.856562 10.999219 
" clip-path="url(#pe52e59064b)" style="fill: none; stroke: #b0b0b0; stroke-opacity: 0.15; stroke-width: 0.8; stroke-linecap: square"/>
     </g>
     <g id="line2d_12">
      <g>
       <use xlink:href="#mbf6ba7057f" x="275.856562" y="277.111219" style="stroke: var(--black); stroke-width: 0.8"/>
      </g>
     </g>
     <g id="text_6" class="text">
      <!-- 0.5 -->
      <g transform="translate(267.905 291.709656) scale(0.1 -0.1)">
       <use xlink:href="#DejaVuSans-30"/>
       <use xlink:href="#DejaVuSans-2e" transform="translate(63.623047 0)"/>
       <use xlink:href="#DejaVuSans-35" transform="translate(95.410156 0)"/>
      </g>
     </g>
    </g>
    <g class="tick xtick">
     <g id="line2d_13">
      <path d="M 320.208562 277.111219 
L 320.208562 10.999219 
" clip-path="url(#pe52e59064b)" style="fill: none; stroke: #b0b0b0; stroke-opacity: 0.15; stroke-width: 0.8; stroke-linecap: square"/>
     </g>
     <g id="line2d_14">
      <g>
       <use xlink:href="#mbf6ba7057f" x="320.208562" y="277.111219" style="stroke: var(--black); stroke-width: 0.8"/>
      </g>
     </g>
     <g id="text_7" class="text">
      <!-- 1.0 -->
      <g transform="translate(312.257 291.709656) scale(0.1 -0.1)">
       <use xlink:href="#DejaVuSans-31"/>
       <use xlink:href="#DejaVuSans-2e" transform="translate(63.623047 0)"/>
       <use xlink:href="#DejaVuSans-30" transform="translate(95.410156 0)"/>
      </g>
     </g>
    </g>
    <g class="tick xtick">
     <g id="line2d_15">
      <path d="M 364.560562 277.111219 
L 364.560562 10.999219 
" clip-path="url(#pe52e59064b)" style="fill: none; stroke: #b0b0b0; stroke-opacity: 0.15; stroke-width: 0.8; stroke-linecap: square"/>
     </g>
     <g id="line2d_16">
      <g>
       <use xlink:href="#mbf6ba7057f" x="364.560562" y="277.111219" style="stroke: var(--black); stroke-width: 0.8"/>
      </g>
     </g>
     <g id="text_8" class="text">
      <!-- 1.5 -->
      <g transform="translate(356.609 291.709656) scale(0.1 -0.1)">
       <use xlink:href="#DejaVuSans-31"/>
       <use xlink:href="#DejaVuSans-2e" transform="translate(63.623047 0)"/>
       <use xlink:href="#DejaVuSans-35" transform="translate(95.410156 0)"/>
      </g>
     </g>
    </g>
    <g class="tick xtick">
     <g id="line2d_17">
      <path d="M 408.912562 277.111219 
L 408.912562 10.999219 
" clip-path="url(#pe52e59064b)" style="fill: none; stroke: #b0b0b0; stroke-opacity: 0.15; stroke-width: 0.8; stroke-linecap: square"/>
     </g>
     <g id="line2d_18">
      <g>
       <use xlink:href="#mbf6ba7057f" x="408.912562" y="277.111219" style="stroke: var(--black); stroke-width: 0.8"/>
      </g>
     </g>
     <g id="text_9" class="text">
      <!-- 2.0 -->
      <g transform="translate(400.961 291.709656) scale(0.1 -0.1)">
       <use xlink:href="#DejaVuSans-32"/>
       <use xlink:href="#DejaVuSans-2e" transform="translate(63.623047 0)"/>
       <use xlink:href="#DejaVuSans-30" transform="translate(95.410156 0)"/>
      </g>
     </g>
    </g>
    <g id="text_10" class="text">
     <!-- $x_1$ -->
     <g transform="translate(225.084563 306.907469) scale(0.12 -0.12)">
      <defs>
       <path id="DejaVuSans-Oblique-78" d="M 3841 3500 
L 2234 1784 
L 3219 0 
L 2559 0 
L 1819 1388 
L 531 0 
L -166 0 
L 1556 1844 
L 641 3500 
L 1300 3500 
L 1972 2234 
L 3144 3500 
L 3841 3500 
z
" transform="scale(0.015625)"/>
      </defs>
      <use xlink:href="#DejaVuSans-Oblique-78" transform="translate(0 0.3125)"/>
      <use xlink:href="#DejaVuSans-31" transform="translate(59.179688 -16.09375) scale(0.7)"/>
     </g>
    </g>
   </g>
   <g class="axis">
    <g class="tick ytick">
     <g id="line2d_19">
      <path d="M 54.096563 277.111219 
L 408.912562 277.111219 
" clip-path="url(#pe52e59064b)" style="fill: none; stroke: #b0b0b0; stroke-opacity: 0.15; stroke-width: 0.8; stroke-linecap: square"/>
     </g>
     <g id="line2d_20">
      <defs>
       <path id="mc9105607fc" d="M 0 0 
L -3.5 0 
" style="stroke: var(--black); stroke-width: 0.8"/>
      </defs>
      <g>
       <use xlink:href="#mc9105607fc" x="54.096563" y="277.111219" style="stroke: var(--black); stroke-width: 0.8"/>
      </g>
     </g>
     <g id="text_11" class="text">
      <!-- −1.0 -->
      <g transform="translate(22.81375 280.910437) scale(0.1 -0.1)">
       <use xlink:href="#DejaVuSans-2212"/>
       <use xlink:href="#DejaVuSans-31" transform="translate(83.789062 0)"/>
       <use xlink:href="#DejaVuSans-2e" transform="translate(147.412109 0)"/>
       <use xlink:href="#DejaVuSans-30" transform="translate(179.199219 0)"/>
      </g>
     </g>
    </g>
    <g class="tick ytick">
     <g id="line2d_21">
      <path d="M 54.096563 232.759219 
L 408.912562 232.759219 
" clip-path="url(#pe52e59064b)" style="fill: none; stroke: #b0b0b0; stroke-opacity: 0.15; stroke-width: 0.8; stroke-linecap: square"/>
     </g>
     <g id="line2d_22">
      <g>
       <use xlink:href="#mc9105607fc" x="54.096563" y="232.759219" style="stroke: var(--black); stroke-width: 0.8"/>
      </g>
     </g>
     <g id="text_12" class="text">
      <!-- −0.5 -->
      <g transform="translate(22.81375 236.558437) scale(0.1 -0.1)">
       <use xlink:href="#DejaVuSans-2212"/>
       <use xlink:href="#DejaVuSans-30" transform="translate(83.789062 0)"/>
       <use xlink:href="#DejaVuSans-2e" transform="translate(147.412109 0)"/>
       <use xlink:href="#DejaVuSans-35" transform="translate(179.199219 0)"/>
      </g>
     </g>
    </g>
    <g class="tick ytick">
     <g id="line2d_23">
      <path d="M 54.096563 188.407219 
L 408.912562 188.407219 
" clip-path="url(#pe52e59064b)" style="fill: none; stroke: #b0b0b0; stroke-opacity: 0.15; stroke-width: 0.8; stroke-linecap: square"/>
     </g>
     <g id="line2d_24">
      <g>
       <use xlink:href="#mc9105607fc" x="54.096563" y="188.407219" style="stroke: var(--black); stroke-width: 0.8"/>
      </g>
     </g>
     <g id="text_13" class="text">
      <!-- 0.0 -->
      <g transform="translate(31.193438 192.206437) scale(0.1 -0.1)">
       <use xlink:href="#DejaVuSans-30"/>
       <use xlink:href="#DejaVuSans-2e" transform="translate(63.623047 0)"/>
       <use xlink:href="#DejaVuSans-30" transform="translate(95.410156 0)"/>
      </g>
     </g>
    </g>
    <g class="tick ytick">
     <g id="line2d_25">
      <path d="M 54.096563 144.055219 
L 408.912562 144.055219 
" clip-path="url(#pe52e59064b)" style="fill: none; stroke: #b0b0b0; stroke-opacity: 0.15; stroke-width: 0.8; stroke-linecap: square"/>
     </g>
     <g id="line2d_26">
      <g>
       <use xlink:href="#mc9105607fc" x="54.096563" y="144.055219" style="stroke: var(--black); stroke-width: 0.8"/>
      </g>
     </g>
     <g id="text_14" class="text">
      <!-- 0.5 -->
      <g transform="translate(31.193438 147.854437) scale(0.1 -0.1)">
       <use xlink:href="#DejaVuSans-30"/>
       <use xlink:href="#DejaVuSans-2e" transform="translate(63.623047 0)"/>
       <use xlink:href="#DejaVuSans-35" transform="translate(95.410156 0)"/>
      </g>
     </g>
    </g>
    <g class="tick ytick">
     <g id="line2d_27">
      <path d="M 54.096563 99.703219 
L 408.912562 99.703219 
" clip-path="url(#pe52e59064b)" style="fill: none; stroke: #b0b0b0; stroke-opacity: 0.15; stroke-width: 0.8; stroke-linecap: square"/>
     </g>
     <g id="line2d_28">
      <g>
       <use xlink:href="#mc9105607fc" x="54.096563" y="99.703219" style="stroke: var(--black); stroke-width: 0.8"/>
      </g>
     </g>
     <g id="text_15" class="text">
      <!-- 1.0 -->
      <g transform="translate(31.193438 103.502437) scale(0.1 -0.1)">
       <use xlink:href="#DejaVuSans-31"/>
       <use xlink:href="#DejaVuSans-2e" transform="translate(63.623047 0)"/>
       <use xlink:href="#DejaVuSans-30" transform="translate(95.410156 0)"/>
      </g>
     </g>
    </g>
    <g class="tick ytick">
     <g id="line2d_29">
      <path d="M 54.096563 55.351219 
L 408.912562 55.351219 
" clip-path="url(#pe52e59064b)" style="fill: none; stroke: #b0b0b0; stroke-opacity: 0.15; stroke-width: 0.8; stroke-linecap: square"/>
     </g>
     <g id="line2d_30">
      <g>
       <use xlink:href="#mc9105607fc" x="54.096563" y="55.351219" style="stroke: var(--black); stroke-width: 0.8"/>
      </g>
     </g>
     <g id="text_16" class="text">
      <!-- 1.5 -->
      <g transform="translate(31.193438 59.150437) scale(0.1 -0.1)">
       <use xlink:href="#DejaVuSans-31"/>
       <use xlink:href="#DejaVuSans-2e" transform="translate(63.623047 0)"/>
       <use xlink:href="#DejaVuSans-35" transform="translate(95.410156 0)"/>
      </g>
     </g>
    </g>
    <g class="tick ytick">
     <g id="line2d_31">
      <path d="M 54.096563 10.999219 
L 408.912562 10.999219 
" clip-path="url(#pe52e59064b)" style="fill: none; stroke: #b0b0b0; stroke-opacity: 0.15; stroke-width: 0.8; stroke-linecap: square"/>
     </g>
     <g id="line2d_32">
      <g>
       <use xlink:href="#mc9105607fc" x="54.096563" y="10.999219" style="stroke: var(--black); stroke-width: 0.8"/>
      </g>
     </g>
     <g id="text_17" class="text">
      <!-- 2.0 -->
      <g transform="translate(31.193438 14.798437) scale(0.1 -0.1)">
       <use xlink:href="#DejaVuSans-32"/>
       <use xlink:href="#DejaVuSans-2e" transform="translate(63.623047 0)"/>
       <use xlink:href="#DejaVuSans-30" transform="translate(95.410156 0)"/>
      </g>
     </g>
    </g>
    <g id="text_18" class="text">
     <!-- $x_2$ -->
     <g transform="translate(16.318125 150.475219) rotate(-90) scale(0.12 -0.12)">
      <use xlink:href="#DejaVuSans-Oblique-78" transform="translate(0 0.3125)"/>
      <use xlink:href="#DejaVuSans-32" transform="translate(59.179688 -16.09375) scale(0.7)"/>
     </g>
    </g>
   </g>
   <g id="line2d_33">
    <path d="M 54.096563 188.407219 
L 408.912562 188.407219 
" clip-path="url(#pe52e59064b)" style="fill: none; stroke: var(--black); stroke-opacity: 0.8; stroke-linecap: square"/>
   </g>
   <g id="line2d_34">
    <path d="M 231.504562 277.111219 
L 231.504562 10.999219 
" clip-path="url(#pe52e59064b)" style="fill: none; stroke: var(--black); stroke-opacity: 0.8; stroke-linecap: square"/>
   </g>
   <g class="patch">
    <path d="M 54.096563 277.111219 
L 54.096563 10.999219 
" style="fill: none; stroke: var(--black); stroke-width: 0.8; stroke-linejoin: miter; stroke-linecap: square"/>
   </g>
   <g class="patch">
    <path d="M 54.096563 277.111219 
L 408.912562 277.111219 
" style="fill: none; stroke: var(--black); stroke-width: 0.8; stroke-linejoin: miter; stroke-linecap: square"/>
   </g>
   <g id="QuadContourSet_2">
    <path d="M 142.802228 277.111219 
L 145.791227 268.440903 
L 149.26254 259.10364 
L 152.804773 250.356219 
L 156.361826 242.33029 
L 159.549285 235.760482 
L 162.35982 230.424903 
L 165.022119 225.756271 
L 167.487602 221.754587 
L 170.158397 217.752903 
L 172.575447 214.418166 
L 175.209711 211.083429 
L 178.118402 207.748692 
L 180.695413 205.080903 
L 183.564759 202.413113 
L 185.965634 200.412271 
L 188.651373 198.411429 
L 191.723118 196.410587 
L 194.070491 195.076692 
L 196.754679 193.742798 
L 199.93572 192.405649 
L 203.492773 191.200638 
L 207.049826 190.26589 
L 210.606878 189.567085 
L 214.163931 189.069906 
L 218.610247 188.679682 
L 223.945826 188.462105 
L 231.949194 188.407208 
L 240.841826 188.303759 
L 246.177405 188.005746 
L 250.62372 187.519 
L 254.180773 186.925298 
L 257.737826 186.112811 
L 261.294878 185.047222 
L 264.851931 183.694209 
L 267.648933 182.404692 
L 270.18751 181.050701 
L 273.382776 179.069956 
L 275.523089 177.567448 
L 278.670774 175.068271 
L 280.923386 173.067429 
L 283.63606 170.39964 
L 286.671805 167.064903 
L 289.407728 163.730166 
L 291.906762 160.395429 
L 294.656241 156.393745 
L 297.18543 152.392061 
L 299.909064 147.723429 
L 302.777879 142.38785 
L 305.432456 137.052271 
L 308.207977 131.049745 
L 310.795161 125.047219 
L 313.746585 117.710798 
L 316.429194 110.565108 
L 319.986247 100.368496 
L 323.631041 89.032061 
L 327.200695 77.027008 
L 330.700833 64.355008 
L 334.465825 49.682166 
L 337.975214 35.009324 
L 341.5567 19.002587 
L 343.263572 10.999219 
L 343.263572 10.999219 
" clip-path="url(#pe52e59064b)" style="fill: none; stroke: #00ffff; stroke-width: 2.5"/>
   </g>
   <g id="QuadContourSet_3">
    <path d="M 333.397533 10.999219 
L 331.404938 27.672903 
L 328.784329 47.681324 
L 326.157065 65.688903 
L 323.431637 82.362587 
L 320.865506 96.368482 
L 318.20772 109.266177 
L 315.539931 120.71516 
L 312.872141 130.799039 
L 310.204352 139.6437 
L 307.648971 147.056482 
L 305.84655 151.725113 
L 304.147269 155.726798 
L 302.275656 159.728482 
L 300.54637 163.063219 
L 299.024451 165.731008 
L 297.354898 168.398798 
L 295.496585 171.066587 
L 293.397494 173.734377 
L 291.609196 175.735219 
L 289.751299 177.578298 
L 287.08351 179.841205 
L 284.36865 181.737745 
L 281.747931 183.235666 
L 279.080141 184.47038 
L 276.412352 185.457127 
L 273.050461 186.406377 
L 270.18751 187.008195 
L 266.630457 187.543516 
L 262.184141 187.968209 
L 256.848562 188.238329 
L 248.845194 188.381894 
L 228.392141 188.407223 
L 208.828352 188.504064 
L 202.60351 188.732902 
L 198.149086 189.074166 
L 193.710878 189.65266 
L 189.958664 190.408061 
L 187.486036 191.076564 
L 184.818247 191.989628 
L 182.150457 193.137028 
L 179.482668 194.561226 
L 176.814878 196.309532 
L 174.147089 198.434363 
L 172.050362 200.412271 
L 170.188897 202.413113 
L 168.528233 204.413956 
L 166.556825 207.081745 
L 164.798651 209.749535 
L 162.831833 213.084271 
L 161.068639 216.419008 
L 159.466939 219.753745 
L 157.436478 224.422377 
L 155.607739 229.091008 
L 153.94206 233.75964 
L 152.197467 239.095219 
L 150.401936 245.097745 
L 148.576945 251.767219 
L 146.73887 259.10364 
L 144.900091 267.107008 
L 143.022878 276.005198 
L 142.803889 277.111219 
L 142.803889 277.111219 
" clip-path="url(#pe52e59064b)" style="fill: none; stroke: #ffff00; stroke-width: 2.5"/>
   </g>
   <g id="line2d_35">
    <path d="M 54.096563 188.407219 
L 408.912562 188.407219 
" clip-path="url(#pe52e59064b)" style="fill: none; stroke: #ff8000; stroke-width: 2.5; stroke-linecap: square"/>
   </g>
   <g class="patch">
    <path d="M 197.262586 222.649195 
Q 213.676121 206.23566 229.299087 190.612694 
" style="fill: none; opacity: 0.7; stroke: #808080; stroke-linecap: round"/>
    <path d="M 225.056447 192.026908 
L 229.299087 190.612694 
L 227.884874 194.855335 
" style="fill: none; opacity: 0.7; stroke: #808080; stroke-linecap: round"/>
   </g>
   <g id="text_19" class="text">
    <g class="patch">
     <path d="M 162.902562 240.959219 
L 211.402562 240.959219 
Q 214.402562 240.959219 214.402562 237.959219 
L 214.402562 227.559219 
Q 214.402562 224.559219 211.402562 224.559219 
L 162.902562 224.559219 
Q 159.902562 224.559219 159.902562 227.559219 
L 159.902562 237.959219 
Q 159.902562 240.959219 162.902562 240.959219 
z
" style="fill: var(--white); opacity: 0.8; stroke: var(--black); stroke-linejoin: miter"/>
    </g>
    <!-- $ \bar{x} = [0, 0]^T $ -->
    <g transform="translate(162.902562 235.879531) scale(0.1 -0.1)">
     <defs>
      <path id="DejaVuSans-304" d="M -2518 4769 
L -650 4769 
L -650 4306 
L -2518 4306 
L -2518 4769 
z
" transform="scale(0.015625)"/>
      <path id="DejaVuSans-3d" d="M 678 2906 
L 4684 2906 
L 4684 2381 
L 678 2381 
L 678 2906 
z
M 678 1631 
L 4684 1631 
L 4684 1100 
L 678 1100 
L 678 1631 
z
" transform="scale(0.015625)"/>
      <path id="DejaVuSans-5b" d="M 550 4863 
L 1875 4863 
L 1875 4416 
L 1125 4416 
L 1125 -397 
L 1875 -397 
L 1875 -844 
L 550 -844 
L 550 4863 
z
" transform="scale(0.015625)"/>
      <path id="DejaVuSans-2c" d="M 750 794 
L 1409 794 
L 1409 256 
L 897 -744 
L 494 -744 
L 750 256 
L 750 794 
z
" transform="scale(0.015625)"/>
      <path id="DejaVuSans-5d" d="M 1947 4863 
L 1947 -844 
L 622 -844 
L 622 -397 
L 1369 -397 
L 1369 4416 
L 622 4416 
L 622 4863 
L 1947 4863 
z
" transform="scale(0.015625)"/>
      <path id="DejaVuSans-Oblique-54" d="M 378 4666 
L 4325 4666 
L 4225 4134 
L 2559 4134 
L 1759 0 
L 1125 0 
L 1925 4134 
L 275 4134 
L 378 4666 
z
" transform="scale(0.015625)"/>
     </defs>
     <use xlink:href="#DejaVuSans-304" transform="translate(62.138672 0.590625)"/>
     <use xlink:href="#DejaVuSans-Oblique-78" transform="translate(0 0.684375)"/>
     <use xlink:href="#DejaVuSans-3d" transform="translate(78.662109 0.684375)"/>
     <use xlink:href="#DejaVuSans-5b" transform="translate(181.933594 0.684375)"/>
     <use xlink:href="#DejaVuSans-30" transform="translate(220.947266 0.684375)"/>
     <use xlink:href="#DejaVuSans-2c" transform="translate(284.570312 0.684375)"/>
     <use xlink:href="#DejaVuSans-30" transform="translate(335.839844 0.684375)"/>
     <use xlink:href="#DejaVuSans-5d" transform="translate(399.462891 0.684375)"/>
     <use xlink:href="#DejaVuSans-Oblique-54" transform="translate(439.433594 38.965625) scale(0.7)"/>
    </g>
   </g>
   <g class="patch">
    <path d="M 354.796498 65.115284 
Q 338.208686 81.703095 322.411444 97.500337 
" style="fill: none; opacity: 0.7; stroke: #808080; stroke-linecap: round"/>
    <path d="M 326.654085 96.086123 
L 322.411444 97.500337 
L 323.825658 93.257696 
" style="fill: none; opacity: 0.7; stroke: #808080; stroke-linecap: round"/>
   </g>
   <g id="text_20" class="text">
    <g class="patch">
     <path d="M 342.810562 63.201219 
L 386.310562 63.201219 
Q 389.310562 63.201219 389.310562 60.201219 
L 389.310562 50.501219 
Q 389.310562 47.501219 386.310562 47.501219 
L 342.810562 47.501219 
Q 339.810562 47.501219 339.810562 50.501219 
L 339.810562 60.201219 
Q 339.810562 63.201219 342.810562 63.201219 
z
" style="fill: var(--white); opacity: 0.8; stroke: var(--black); stroke-linejoin: miter"/>
    </g>
    <!-- $g_1(x) \leq 0$ -->
    <g style="fill: #00ffff" transform="translate(342.810562 58.101219) scale(0.1 -0.1)">
     <defs>
      <path id="DejaVuSans-Oblique-67" d="M 3816 3500 
L 3219 434 
Q 3047 -456 2561 -893 
Q 2075 -1331 1253 -1331 
Q 950 -1331 690 -1286 
Q 431 -1241 206 -1147 
L 313 -588 
Q 525 -725 762 -790 
Q 1000 -856 1269 -856 
Q 1816 -856 2167 -557 
Q 2519 -259 2631 300 
L 2681 563 
Q 2441 288 2122 144 
Q 1803 0 1434 0 
Q 903 0 598 351 
Q 294 703 294 1319 
Q 294 1803 478 2267 
Q 663 2731 997 3091 
Q 1219 3328 1514 3456 
Q 1809 3584 2131 3584 
Q 2484 3584 2746 3420 
Q 3009 3256 3138 2956 
L 3238 3500 
L 3816 3500 
z
M 2950 2216 
Q 2950 2641 2750 2872 
Q 2550 3103 2181 3103 
Q 1953 3103 1747 3012 
Q 1541 2922 1394 2759 
Q 1156 2491 1023 2127 
Q 891 1763 891 1375 
Q 891 944 1092 712 
Q 1294 481 1672 481 
Q 2219 481 2584 976 
Q 2950 1472 2950 2216 
z
" transform="scale(0.015625)"/>
      <path id="DejaVuSans-28" d="M 1984 4856 
Q 1566 4138 1362 3434 
Q 1159 2731 1159 2009 
Q 1159 1288 1364 580 
Q 1569 -128 1984 -844 
L 1484 -844 
Q 1016 -109 783 600 
Q 550 1309 550 2009 
Q 550 2706 781 3412 
Q 1013 4119 1484 4856 
L 1984 4856 
z
" transform="scale(0.015625)"/>
      <path id="DejaVuSans-29" d="M 513 4856 
L 1013 4856 
Q 1481 4119 1714 3412 
Q 1947 2706 1947 2009 
Q 1947 1309 1714 600 
Q 1481 -109 1013 -844 
L 513 -844 
Q 928 -128 1133 580 
Q 1338 1288 1338 2009 
Q 1338 2731 1133 3434 
Q 928 4138 513 4856 
z
" transform="scale(0.015625)"/>
      <path id="DejaVuSans-2264" d="M 4684 3175 
L 1684 2309 
L 4684 1453 
L 4684 897 
L 678 2047 
L 678 2578 
L 4684 3725 
L 4684 3175 
z
M 678 531 
L 4684 531 
L 4684 0 
L 678 0 
L 678 531 
z
" transform="scale(0.015625)"/>
     </defs>
     <use xlink:href="#DejaVuSans-Oblique-67" transform="translate(0 0.125)"/>
     <use xlink:href="#DejaVuSans-31" transform="translate(63.476562 -16.28125) scale(0.7)"/>
     <use xlink:href="#DejaVuSans-28" transform="translate(110.74707 0.125)"/>
     <use xlink:href="#DejaVuSans-Oblique-78" transform="translate(149.760742 0.125)"/>
     <use xlink:href="#DejaVuSans-29" transform="translate(208.94043 0.125)"/>
     <use xlink:href="#DejaVuSans-2264" transform="translate(267.436523 0.125)"/>
     <use xlink:href="#DejaVuSans-30" transform="translate(370.708008 0.125)"/>
    </g>
   </g>
   <g class="patch">
    <path d="M 337.95645 151.344017 
Q 319.847865 156.305273 302.817578 160.971105 
" style="fill: none; opacity: 0.7; stroke: #808080; stroke-linecap: round"/>
    <path d="M 307.203881 161.843081 
L 302.817578 160.971105 
L 306.14694 157.985248 
" style="fill: none; opacity: 0.7; stroke: #808080; stroke-linecap: round"/>
   </g>
   <g id="text_21" class="text">
    <g class="patch">
     <path d="M 342.810562 151.905219 
L 386.310562 151.905219 
Q 389.310562 151.905219 389.310562 148.905219 
L 389.310562 139.205219 
Q 389.310562 136.205219 386.310562 136.205219 
L 342.810562 136.205219 
Q 339.810562 136.205219 339.810562 139.205219 
L 339.810562 148.905219 
Q 339.810562 151.905219 342.810562 151.905219 
z
" style="fill: var(--white); opacity: 0.8; stroke: var(--black); stroke-linejoin: miter"/>
    </g>
    <!-- $g_2(x) \leq 0$ -->
    <g style="fill: #ffff00" transform="translate(342.810562 146.805219) scale(0.1 -0.1)">
     <use xlink:href="#DejaVuSans-Oblique-67" transform="translate(0 0.125)"/>
     <use xlink:href="#DejaVuSans-32" transform="translate(63.476562 -16.28125) scale(0.7)"/>
     <use xlink:href="#DejaVuSans-28" transform="translate(110.74707 0.125)"/>
     <use xlink:href="#DejaVuSans-Oblique-78" transform="translate(149.760742 0.125)"/>
     <use xlink:href="#DejaVuSans-29" transform="translate(208.94043 0.125)"/>
     <use xlink:href="#DejaVuSans-2264" transform="translate(267.436523 0.125)"/>
     <use xlink:href="#DejaVuSans-30" transform="translate(370.708008 0.125)"/>
    </g>
   </g>
   <g class="patch">
    <path d="M 266.092498 222.995154 
Q 249.504686 206.407343 233.707444 190.610101 
" style="fill: none; opacity: 0.7; stroke: #808080; stroke-linecap: round"/>
    <path d="M 235.121658 194.852741 
L 233.707444 190.610101 
L 237.950085 192.024314 
" style="fill: none; opacity: 0.7; stroke: #808080; stroke-linecap: round"/>
   </g>
   <g id="text_22" class="text">
    <g class="patch">
     <path d="M 254.106562 240.609219 
L 297.606562 240.609219 
Q 300.606562 240.609219 300.606562 237.609219 
L 300.606562 227.909219 
Q 300.606562 224.909219 297.606562 224.909219 
L 254.106562 224.909219 
Q 251.106562 224.909219 251.106562 227.909219 
L 251.106562 237.609219 
Q 251.106562 240.609219 254.106562 240.609219 
z
" style="fill: var(--white); opacity: 0.8; stroke: var(--black); stroke-linejoin: miter"/>
    </g>
    <!-- $g_3(x) \leq 0$ -->
    <g style="fill: #ff8000" transform="translate(254.106562 235.509219) scale(0.1 -0.1)">
     <defs>
      <path id="DejaVuSans-33" d="M 2597 2516 
Q 3050 2419 3304 2112 
Q 3559 1806 3559 1356 
Q 3559 666 3084 287 
Q 2609 -91 1734 -91 
Q 1441 -91 1130 -33 
Q 819 25 488 141 
L 488 750 
Q 750 597 1062 519 
Q 1375 441 1716 441 
Q 2309 441 2620 675 
Q 2931 909 2931 1356 
Q 2931 1769 2642 2001 
Q 2353 2234 1838 2234 
L 1294 2234 
L 1294 2753 
L 1863 2753 
Q 2328 2753 2575 2939 
Q 2822 3125 2822 3475 
Q 2822 3834 2567 4026 
Q 2313 4219 1838 4219 
Q 1578 4219 1281 4162 
Q 984 4106 628 3988 
L 628 4550 
Q 988 4650 1302 4700 
Q 1616 4750 1894 4750 
Q 2613 4750 3031 4423 
Q 3450 4097 3450 3541 
Q 3450 3153 3228 2886 
Q 3006 2619 2597 2516 
z
" transform="scale(0.015625)"/>
     </defs>
     <use xlink:href="#DejaVuSans-Oblique-67" transform="translate(0 0.125)"/>
     <use xlink:href="#DejaVuSans-33" transform="translate(63.476562 -16.28125) scale(0.7)"/>
     <use xlink:href="#DejaVuSans-28" transform="translate(110.74707 0.125)"/>
     <use xlink:href="#DejaVuSans-Oblique-78" transform="translate(149.760742 0.125)"/>
     <use xlink:href="#DejaVuSans-29" transform="translate(208.94043 0.125)"/>
     <use xlink:href="#DejaVuSans-2264" transform="translate(267.436523 0.125)"/>
     <use xlink:href="#DejaVuSans-30" transform="translate(370.708008 0.125)"/>
    </g>
   </g>
   <g id="PathCollection_1">
    <defs>
     <path id="m5a99ea6c02" d="M 0 5 
C 1.326016 5 2.597899 4.473168 3.535534 3.535534 
C 4.473168 2.597899 5 1.326016 5 0 
C 5 -1.326016 4.473168 -2.597899 3.535534 -3.535534 
C 2.597899 -4.473168 1.326016 -5 0 -5 
C -1.326016 -5 -2.597899 -4.473168 -3.535534 -3.535534 
C -4.473168 -2.597899 -5 -1.326016 -5 0 
C -5 1.326016 -4.473168 2.597899 -3.535534 3.535534 
C -2.597899 4.473168 -1.326016 5 0 5 
z
" style="stroke: var(--white); stroke-width: 2"/>
    </defs>
    <g clip-path="url(#pe52e59064b)">
     <use xlink:href="#m5a99ea6c02" x="231.504562" y="188.407219" style="fill: #ff0001; stroke: var(--white); stroke-width: 2"/>
    </g>
   </g>
  </g>
 </g>
 <defs>
  <clipPath id="pe52e59064b">
   <rect x="54.096563" y="10.999219" width="354.816" height="266.112"/>
  </clipPath>
 </defs>
</svg>
