<?xml version="1.0" encoding="utf-8" standalone="no"?>
<!DOCTYPE svg PUBLIC "-//W3C//DTD SVG 1.1//EN"
  "http://www.w3.org/Graphics/SVG/1.1/DTD/svg11.dtd">
<svg xmlns:xlink="http://www.w3.org/1999/xlink" width="240.17975pt" height="230.439359pt" viewBox="0 0 240.17975 230.439359" xmlns="http://www.w3.org/2000/svg" version="1.1">
<style>:root { --axis-color:#000; --grid-stroke:rgba(0,0,0,0.2); --plot3d-stroke:rgba(0,0,0,0.3); --plot3d-grid:rgba(0,0,0,0.2); }
@media (prefers-color-scheme:dark) { :root { --axis-color:#fff; --grid-stroke:rgba(255,255,255,0.2); --plot3d-stroke:rgba(255,255,255,0.3); --plot3d-grid:rgba(255,255,255,0.2); } }
.black{fill:#000000;stroke:#000000;}:root{--black:#000000;}.c1{fill:#FF0001;stroke:#FF0001;}:root{--c1:#FF0001;}.c2{fill:#00FF02;stroke:#00FF02;}:root{--c2:#00FF02;}.c3{fill:#0000FF;stroke:#0000FF;}:root{--c3:#0000FF;}.c4{fill:#FF00FF;stroke:#FF00FF;}:root{--c4:#FF00FF;}.c5{fill:#00FFFF;stroke:#00FFFF;}:root{--c5:#00FFFF;}.c6{fill:#FFFF00;stroke:#FFFF00;}:root{--c6:#FFFF00;}.c7{fill:#FF8000;stroke:#FF8000;}:root{--c7:#FF8000;}.c8{fill:#8000FF;stroke:#8000FF;}:root{--c8:#8000FF;}.gray{fill:#7f7f7f;stroke:#7f7f7f;}:root{--gray:#7f7f7f;}.grey{fill:#7f7f7f;stroke:#7f7f7f;}:root{--grey:#7f7f7f;}.octonary{fill:#bcbd22;stroke:#bcbd22;}:root{--octonary:#bcbd22;}.primary{fill:#d62728;stroke:#d62728;}:root{--primary:#d62728;}.quaternary{fill:#9467bd;stroke:#9467bd;}:root{--quaternary:#9467bd;}.quinary{fill:#8c564b;stroke:#8c564b;}:root{--quinary:#8c564b;}.secondary{fill:#2ca02c;stroke:#2ca02c;}:root{--secondary:#2ca02c;}.senary{fill:#e377c2;stroke:#e377c2;}:root{--senary:#e377c2;}.septenary{fill:#7f7f7f;stroke:#7f7f7f;}:root{--septenary:#7f7f7f;}.tertiary{fill:#1f77b4;stroke:#1f77b4;}:root{--tertiary:#1f77b4;}.white{fill:#ffffff;stroke:#ffffff;}:root{--white:#ffffff;}
@media (prefers-color-scheme:dark) { .black{fill:#FFFFFF;stroke:#FFFFFF;}:root{--black:#FFFFFF;}.c1{fill:#FF0001;stroke:#FF0001;}:root{--c1:#FF0001;}.c2{fill:#00FF02;stroke:#00FF02;}:root{--c2:#00FF02;}.c3{fill:#0000FF;stroke:#0000FF;}:root{--c3:#0000FF;}.c4{fill:#FF00FF;stroke:#FF00FF;}:root{--c4:#FF00FF;}.c5{fill:#00FFFF;stroke:#00FFFF;}:root{--c5:#00FFFF;}.c6{fill:#FFFF00;stroke:#FFFF00;}:root{--c6:#FFFF00;}.c7{fill:#FF8000;stroke:#FF8000;}:root{--c7:#FF8000;}.c8{fill:#8000FF;stroke:#8000FF;}:root{--c8:#8000FF;}.gray{fill:#CCCCCC;stroke:#CCCCCC;}:root{--gray:#CCCCCC;}.grey{fill:#CCCCCC;stroke:#CCCCCC;}:root{--grey:#CCCCCC;}.octonary{fill:#E6DB74;stroke:#E6DB74;}:root{--octonary:#E6DB74;}.primary{fill:#FF4A98;stroke:#FF4A98;}:root{--primary:#FF4A98;}.quaternary{fill:#B4A0FF;stroke:#B4A0FF;}:root{--quaternary:#B4A0FF;}.quinary{fill:#FFB86B;stroke:#FFB86B;}:root{--quinary:#FFB86B;}.secondary{fill:#0AFAFA;stroke:#0AFAFA;}:root{--secondary:#0AFAFA;}.senary{fill:#FF79C6;stroke:#FF79C6;}:root{--senary:#FF79C6;}.septenary{fill:#CCCCCC;stroke:#CCCCCC;}:root{--septenary:#CCCCCC;}.tertiary{fill:#7F83FF;stroke:#7F83FF;}:root{--tertiary:#7F83FF;}.white{fill:#000000;stroke:#000000;}:root{--white:#000000;} }
text,.text { fill:var(--axis-color)!important; stroke:none!important; }
.axis line,.axis path,.tick line,.tick path,path.domain,line.grid { stroke:var(--axis-color)!important; }
.legend text { fill:var(--axis-color)!important; }
.patch path[style*="stroke: currentColor"] { stroke:var(--axis-color)!important; }
g.legend>g:first-child>path:first-child { fill:rgba(255,255,255,0.8)!important; stroke:rgba(0,0,0,0.1)!important; }
@media (prefers-color-scheme:dark) { g.legend>g:first-child>path:first-child { fill:rgba(26,26,26,0.8)!important; stroke:rgba(255,255,255,0.1)!important; } }
.plot3d path,.plot3d polygon { stroke:var(--plot3d-stroke)!important; }
.plot3d-grid line { stroke:var(--plot3d-grid)!important; }
.plot3d-surface path[style*="fill:"] { fill-opacity:0.9!important; }
@media (prefers-color-scheme:dark) { .plot3d-surface path[style*="fill:"] { fill-opacity:0.95!important; filter:saturate(1.2)!important; } }</style>

 <metadata>
  <rdf:RDF xmlns:dc="http://purl.org/dc/elements/1.1/" xmlns:cc="http://creativecommons.org/ns#" xmlns:rdf="http://www.w3.org/1999/02/22-rdf-syntax-ns#">
   <cc:Work>
    <dc:type rdf:resource="http://purl.org/dc/dcmitype/StillImage"/>
    <dc:date>2026-05-06T23:46:24.286370</dc:date>
    <dc:format>image/svg+xml</dc:format>
    <dc:creator>
     <cc:Agent>
      <dc:title>Matplotlib v3.10.1, https://matplotlib.org/</dc:title>
     </cc:Agent>
    </dc:creator>
   </cc:Work>
  </rdf:RDF>
 </metadata>
 <defs>
  <style type="text/css">*{stroke-linejoin: round; stroke-linecap: butt}</style>
 </defs>
 <g id="figure_1">
  <g class="patch">
   <path d="M 0 230.439359 
L 240.17975 230.439359 
L 240.17975 0 
L 0 0 
L 0 230.439359 
z
" style="fill: none"/>
  </g>
  <g id="axes_1">
   <g class="patch">
    <path d="M 48.08375 195.515297 
L 236.57975 195.515297 
L 236.57975 7.019297 
L 48.08375 7.019297 
L 48.08375 195.515297 
z
" style="fill: none"/>
   </g>
   <g class="axis">
    <g class="tick xtick">
     <g id="line2d_1">
      <path d="M 71.64575 195.515297 
L 71.64575 7.019297 
" clip-path="url(#pac01bc6cd5)" style="fill: none; stroke: #b0b0b0; stroke-opacity: 0.15; stroke-width: 0.5; stroke-linecap: square"/>
     </g>
     <g id="line2d_2">
      <defs>
       <path id="mec380e0f58" d="M 0 0 
L 0 3.5 
" style="stroke:var(--black); stroke-width: 0.8"/>
      </defs>
      <g>
       <use xlink:href="#mec380e0f58" x="71.64575" y="195.515297" style="stroke:var(--black); stroke-width: 0.8"/>
      </g>
     </g>
     <g id="text_1" class="text">
      <!-- $\mathdefault{0}$ -->
      <g transform="translate(68.76575 209.353891) scale(0.09 -0.09)">
       <defs>
        <path id="DejaVuSerif-30" d="M 2034 219 
Q 2513 219 2750 744 
Q 2988 1269 2988 2328 
Q 2988 3391 2750 3916 
Q 2513 4441 2034 4441 
Q 1556 4441 1318 3916 
Q 1081 3391 1081 2328 
Q 1081 1269 1318 744 
Q 1556 219 2034 219 
z
M 2034 -91 
Q 1275 -91 848 546 
Q 422 1184 422 2328 
Q 422 3475 848 4112 
Q 1275 4750 2034 4750 
Q 2797 4750 3222 4112 
Q 3647 3475 3647 2328 
Q 3647 1184 3222 546 
Q 2797 -91 2034 -91 
z
" transform="scale(0.015625)"/>
       </defs>
       <use xlink:href="#DejaVuSerif-30" transform="translate(0 0.78125)"/>
      </g>
     </g>
    </g>
    <g class="tick xtick">
     <g id="line2d_3">
      <path d="M 118.76975 195.515297 
L 118.76975 7.019297 
" clip-path="url(#pac01bc6cd5)" style="fill: none; stroke: #b0b0b0; stroke-opacity: 0.15; stroke-width: 0.5; stroke-linecap: square"/>
     </g>
     <g id="line2d_4">
      <g>
       <use xlink:href="#mec380e0f58" x="118.76975" y="195.515297" style="stroke:var(--black); stroke-width: 0.8"/>
      </g>
     </g>
     <g id="text_2" class="text">
      <!-- $\mathdefault{1}$ -->
      <g transform="translate(115.88975 209.353891) scale(0.09 -0.09)">
       <defs>
        <path id="DejaVuSerif-31" d="M 909 0 
L 909 331 
L 1722 331 
L 1722 4213 
L 781 3603 
L 781 4013 
L 1919 4750 
L 2350 4750 
L 2350 331 
L 3163 331 
L 3163 0 
L 909 0 
z
" transform="scale(0.015625)"/>
       </defs>
       <use xlink:href="#DejaVuSerif-31" transform="translate(0 0.78125)"/>
      </g>
     </g>
    </g>
    <g class="tick xtick">
     <g id="line2d_5">
      <path d="M 165.89375 195.515297 
L 165.89375 7.019297 
" clip-path="url(#pac01bc6cd5)" style="fill: none; stroke: #b0b0b0; stroke-opacity: 0.15; stroke-width: 0.5; stroke-linecap: square"/>
     </g>
     <g id="line2d_6">
      <g>
       <use xlink:href="#mec380e0f58" x="165.89375" y="195.515297" style="stroke:var(--black); stroke-width: 0.8"/>
      </g>
     </g>
     <g id="text_3" class="text">
      <!-- $\mathdefault{2}$ -->
      <g transform="translate(163.01375 209.353891) scale(0.09 -0.09)">
       <defs>
        <path id="DejaVuSerif-32" d="M 819 3553 
L 469 3553 
L 469 4384 
Q 803 4563 1142 4656 
Q 1481 4750 1806 4750 
Q 2534 4750 2956 4397 
Q 3378 4044 3378 3438 
Q 3378 2753 2422 1800 
Q 2347 1728 2309 1691 
L 1131 513 
L 3078 513 
L 3078 1088 
L 3444 1088 
L 3444 0 
L 434 0 
L 434 341 
L 1850 1753 
Q 2319 2222 2519 2614 
Q 2719 3006 2719 3438 
Q 2719 3909 2473 4175 
Q 2228 4441 1797 4441 
Q 1350 4441 1106 4219 
Q 863 3997 819 3553 
z
" transform="scale(0.015625)"/>
       </defs>
       <use xlink:href="#DejaVuSerif-32" transform="translate(0 0.78125)"/>
      </g>
     </g>
    </g>
    <g class="tick xtick">
     <g id="line2d_7">
      <path d="M 213.01775 195.515297 
L 213.01775 7.019297 
" clip-path="url(#pac01bc6cd5)" style="fill: none; stroke: #b0b0b0; stroke-opacity: 0.15; stroke-width: 0.5; stroke-linecap: square"/>
     </g>
     <g id="line2d_8">
      <g>
       <use xlink:href="#mec380e0f58" x="213.01775" y="195.515297" style="stroke:var(--black); stroke-width: 0.8"/>
      </g>
     </g>
     <g id="text_4" class="text">
      <!-- $\mathdefault{3}$ -->
      <g transform="translate(210.13775 209.353891) scale(0.09 -0.09)">
       <defs>
        <path id="DejaVuSerif-33" d="M 622 4469 
Q 988 4606 1323 4678 
Q 1659 4750 1953 4750 
Q 2638 4750 3022 4454 
Q 3406 4159 3406 3634 
Q 3406 3213 3140 2930 
Q 2875 2647 2388 2547 
Q 2963 2466 3280 2130 
Q 3597 1794 3597 1259 
Q 3597 606 3158 257 
Q 2719 -91 1894 -91 
Q 1528 -91 1179 -12 
Q 831 66 488 225 
L 488 1131 
L 838 1131 
Q 869 681 1141 450 
Q 1413 219 1906 219 
Q 2384 219 2661 495 
Q 2938 772 2938 1253 
Q 2938 1803 2653 2086 
Q 2369 2369 1819 2369 
L 1522 2369 
L 1522 2688 
L 1678 2688 
Q 2225 2688 2498 2914 
Q 2772 3141 2772 3597 
Q 2772 4006 2547 4223 
Q 2322 4441 1900 4441 
Q 1478 4441 1245 4241 
Q 1013 4041 972 3647 
L 622 3647 
L 622 4469 
z
" transform="scale(0.015625)"/>
       </defs>
       <use xlink:href="#DejaVuSerif-33" transform="translate(0 0.78125)"/>
      </g>
     </g>
    </g>
    <g id="text_5" class="text">
     <!-- $x_1$ -->
     <g transform="translate(136.39175 224.343734) scale(0.12 -0.12)">
      <defs>
       <path id="Cmmi10-78" d="M 500 184 
Q 613 97 819 97 
Q 1019 97 1172 289 
Q 1325 481 1381 709 
L 1672 1844 
Q 1741 2153 1741 2266 
Q 1741 2425 1652 2544 
Q 1563 2663 1403 2663 
Q 1200 2663 1022 2536 
Q 844 2409 722 2214 
Q 600 2019 550 1819 
Q 538 1778 500 1778 
L 422 1778 
Q 372 1778 372 1838 
L 372 1856 
Q 434 2094 584 2320 
Q 734 2547 951 2687 
Q 1169 2828 1416 2828 
Q 1650 2828 1839 2703 
Q 2028 2578 2106 2363 
Q 2216 2559 2386 2693 
Q 2556 2828 2759 2828 
Q 2897 2828 3040 2779 
Q 3184 2731 3275 2631 
Q 3366 2531 3366 2381 
Q 3366 2219 3261 2101 
Q 3156 1984 2994 1984 
Q 2891 1984 2822 2050 
Q 2753 2116 2753 2216 
Q 2753 2350 2845 2451 
Q 2938 2553 3066 2572 
Q 2950 2663 2747 2663 
Q 2541 2663 2389 2472 
Q 2238 2281 2175 2047 
L 1894 916 
Q 1825 659 1825 494 
Q 1825 331 1917 214 
Q 2009 97 2163 97 
Q 2463 97 2698 361 
Q 2934 625 3009 941 
Q 3022 978 3059 978 
L 3138 978 
Q 3163 978 3178 961 
Q 3194 944 3194 922 
Q 3194 916 3188 903 
Q 3097 522 2806 225 
Q 2516 -72 2150 -72 
Q 1916 -72 1727 54 
Q 1538 181 1459 397 
Q 1359 209 1182 68 
Q 1006 -72 806 -72 
Q 669 -72 523 -23 
Q 378 25 287 125 
Q 197 225 197 378 
Q 197 528 301 651 
Q 406 775 563 775 
Q 669 775 741 711 
Q 813 647 813 544 
Q 813 409 723 309 
Q 634 209 500 184 
z
" transform="scale(0.015625)"/>
       <path id="Cmr10-31" d="M 594 0 
L 594 225 
Q 1394 225 1394 428 
L 1394 3788 
Q 1063 3628 556 3628 
L 556 3853 
Q 1341 3853 1741 4263 
L 1831 4263 
Q 1853 4263 1873 4245 
Q 1894 4228 1894 4206 
L 1894 428 
Q 1894 225 2694 225 
L 2694 0 
L 594 0 
z
" transform="scale(0.015625)"/>
      </defs>
      <use xlink:href="#Cmmi10-78" transform="translate(0 0.8125)"/>
      <use xlink:href="#Cmr10-31" transform="translate(57.080078 -16.19375) scale(0.7)"/>
     </g>
    </g>
   </g>
   <g class="axis">
    <g class="tick ytick">
     <g id="line2d_9">
      <path d="M 48.08375 195.515297 
L 236.57975 195.515297 
" clip-path="url(#pac01bc6cd5)" style="fill: none; stroke: #b0b0b0; stroke-opacity: 0.15; stroke-width: 0.5; stroke-linecap: square"/>
     </g>
     <g id="line2d_10">
      <defs>
       <path id="m1a51335f51" d="M 0 0 
L -3.5 0 
" style="stroke:var(--black); stroke-width: 0.8"/>
      </defs>
      <g>
       <use xlink:href="#m1a51335f51" x="48.08375" y="195.515297" style="stroke:var(--black); stroke-width: 0.8"/>
      </g>
     </g>
     <g id="text_6" class="text">
      <!-- $\mathdefault{−0.5}$ -->
      <g transform="translate(19.21375 198.934594) scale(0.09 -0.09)">
       <defs>
        <path id="DejaVuSerif-2212" d="M 678 2259 
L 4684 2259 
L 4684 1753 
L 678 1753 
L 678 2259 
z
" transform="scale(0.015625)"/>
        <path id="DejaVuSerif-2e" d="M 603 325 
Q 603 500 722 622 
Q 841 744 1019 744 
Q 1191 744 1312 622 
Q 1434 500 1434 325 
Q 1434 153 1312 31 
Q 1191 -91 1019 -91 
Q 841 -91 722 29 
Q 603 150 603 325 
z
" transform="scale(0.015625)"/>
        <path id="DejaVuSerif-35" d="M 3219 4666 
L 3219 4153 
L 1081 4153 
L 1081 2816 
Q 1244 2928 1461 2984 
Q 1678 3041 1947 3041 
Q 2703 3041 3140 2622 
Q 3578 2203 3578 1478 
Q 3578 738 3136 323 
Q 2694 -91 1894 -91 
Q 1572 -91 1234 -12 
Q 897 66 544 225 
L 544 1131 
L 897 1131 
Q 925 688 1179 453 
Q 1434 219 1894 219 
Q 2388 219 2653 544 
Q 2919 869 2919 1478 
Q 2919 2084 2655 2407 
Q 2391 2731 1894 2731 
Q 1613 2731 1398 2631 
Q 1184 2531 1019 2322 
L 750 2322 
L 750 4666 
L 3219 4666 
z
" transform="scale(0.015625)"/>
       </defs>
       <use xlink:href="#DejaVuSerif-2212" transform="translate(0 0.78125)"/>
       <use xlink:href="#DejaVuSerif-30" transform="translate(83.789062 0.78125)"/>
       <use xlink:href="#DejaVuSerif-2e" transform="translate(147.412109 0.78125)"/>
       <use xlink:href="#DejaVuSerif-35" transform="translate(179.199219 0.78125)"/>
      </g>
     </g>
    </g>
    <g class="tick ytick">
     <g id="line2d_11">
      <path d="M 48.08375 171.953297 
L 236.57975 171.953297 
" clip-path="url(#pac01bc6cd5)" style="fill: none; stroke: #b0b0b0; stroke-opacity: 0.15; stroke-width: 0.5; stroke-linecap: square"/>
     </g>
     <g id="line2d_12">
      <g>
       <use xlink:href="#m1a51335f51" x="48.08375" y="171.953297" style="stroke:var(--black); stroke-width: 0.8"/>
      </g>
     </g>
     <g id="text_7" class="text">
      <!-- $\mathdefault{0.0}$ -->
      <g transform="translate(26.68375 175.372594) scale(0.09 -0.09)">
       <use xlink:href="#DejaVuSerif-30" transform="translate(0 0.78125)"/>
       <use xlink:href="#DejaVuSerif-2e" transform="translate(63.623047 0.78125)"/>
       <use xlink:href="#DejaVuSerif-30" transform="translate(95.410156 0.78125)"/>
      </g>
     </g>
    </g>
    <g class="tick ytick">
     <g id="line2d_13">
      <path d="M 48.08375 148.391297 
L 236.57975 148.391297 
" clip-path="url(#pac01bc6cd5)" style="fill: none; stroke: #b0b0b0; stroke-opacity: 0.15; stroke-width: 0.5; stroke-linecap: square"/>
     </g>
     <g id="line2d_14">
      <g>
       <use xlink:href="#m1a51335f51" x="48.08375" y="148.391297" style="stroke:var(--black); stroke-width: 0.8"/>
      </g>
     </g>
     <g id="text_8" class="text">
      <!-- $\mathdefault{0.5}$ -->
      <g transform="translate(26.68375 151.810594) scale(0.09 -0.09)">
       <use xlink:href="#DejaVuSerif-30" transform="translate(0 0.78125)"/>
       <use xlink:href="#DejaVuSerif-2e" transform="translate(63.623047 0.78125)"/>
       <use xlink:href="#DejaVuSerif-35" transform="translate(95.410156 0.78125)"/>
      </g>
     </g>
    </g>
    <g class="tick ytick">
     <g id="line2d_15">
      <path d="M 48.08375 124.829297 
L 236.57975 124.829297 
" clip-path="url(#pac01bc6cd5)" style="fill: none; stroke: #b0b0b0; stroke-opacity: 0.15; stroke-width: 0.5; stroke-linecap: square"/>
     </g>
     <g id="line2d_16">
      <g>
       <use xlink:href="#m1a51335f51" x="48.08375" y="124.829297" style="stroke:var(--black); stroke-width: 0.8"/>
      </g>
     </g>
     <g id="text_9" class="text">
      <!-- $\mathdefault{1.0}$ -->
      <g transform="translate(26.68375 128.248594) scale(0.09 -0.09)">
       <use xlink:href="#DejaVuSerif-31" transform="translate(0 0.78125)"/>
       <use xlink:href="#DejaVuSerif-2e" transform="translate(63.623047 0.78125)"/>
       <use xlink:href="#DejaVuSerif-30" transform="translate(95.410156 0.78125)"/>
      </g>
     </g>
    </g>
    <g class="tick ytick">
     <g id="line2d_17">
      <path d="M 48.08375 101.267297 
L 236.57975 101.267297 
" clip-path="url(#pac01bc6cd5)" style="fill: none; stroke: #b0b0b0; stroke-opacity: 0.15; stroke-width: 0.5; stroke-linecap: square"/>
     </g>
     <g id="line2d_18">
      <g>
       <use xlink:href="#m1a51335f51" x="48.08375" y="101.267297" style="stroke:var(--black); stroke-width: 0.8"/>
      </g>
     </g>
     <g id="text_10" class="text">
      <!-- $\mathdefault{1.5}$ -->
      <g transform="translate(26.68375 104.686594) scale(0.09 -0.09)">
       <use xlink:href="#DejaVuSerif-31" transform="translate(0 0.78125)"/>
       <use xlink:href="#DejaVuSerif-2e" transform="translate(63.623047 0.78125)"/>
       <use xlink:href="#DejaVuSerif-35" transform="translate(95.410156 0.78125)"/>
      </g>
     </g>
    </g>
    <g class="tick ytick">
     <g id="line2d_19">
      <path d="M 48.08375 77.705297 
L 236.57975 77.705297 
" clip-path="url(#pac01bc6cd5)" style="fill: none; stroke: #b0b0b0; stroke-opacity: 0.15; stroke-width: 0.5; stroke-linecap: square"/>
     </g>
     <g id="line2d_20">
      <g>
       <use xlink:href="#m1a51335f51" x="48.08375" y="77.705297" style="stroke:var(--black); stroke-width: 0.8"/>
      </g>
     </g>
     <g id="text_11" class="text">
      <!-- $\mathdefault{2.0}$ -->
      <g transform="translate(26.68375 81.124594) scale(0.09 -0.09)">
       <use xlink:href="#DejaVuSerif-32" transform="translate(0 0.78125)"/>
       <use xlink:href="#DejaVuSerif-2e" transform="translate(63.623047 0.78125)"/>
       <use xlink:href="#DejaVuSerif-30" transform="translate(95.410156 0.78125)"/>
      </g>
     </g>
    </g>
    <g class="tick ytick">
     <g id="line2d_21">
      <path d="M 48.08375 54.143297 
L 236.57975 54.143297 
" clip-path="url(#pac01bc6cd5)" style="fill: none; stroke: #b0b0b0; stroke-opacity: 0.15; stroke-width: 0.5; stroke-linecap: square"/>
     </g>
     <g id="line2d_22">
      <g>
       <use xlink:href="#m1a51335f51" x="48.08375" y="54.143297" style="stroke:var(--black); stroke-width: 0.8"/>
      </g>
     </g>
     <g id="text_12" class="text">
      <!-- $\mathdefault{2.5}$ -->
      <g transform="translate(26.68375 57.562594) scale(0.09 -0.09)">
       <use xlink:href="#DejaVuSerif-32" transform="translate(0 0.78125)"/>
       <use xlink:href="#DejaVuSerif-2e" transform="translate(63.623047 0.78125)"/>
       <use xlink:href="#DejaVuSerif-35" transform="translate(95.410156 0.78125)"/>
      </g>
     </g>
    </g>
    <g class="tick ytick">
     <g id="line2d_23">
      <path d="M 48.08375 30.581297 
L 236.57975 30.581297 
" clip-path="url(#pac01bc6cd5)" style="fill: none; stroke: #b0b0b0; stroke-opacity: 0.15; stroke-width: 0.5; stroke-linecap: square"/>
     </g>
     <g id="line2d_24">
      <g>
       <use xlink:href="#m1a51335f51" x="48.08375" y="30.581297" style="stroke:var(--black); stroke-width: 0.8"/>
      </g>
     </g>
     <g id="text_13" class="text">
      <!-- $\mathdefault{3.0}$ -->
      <g transform="translate(26.68375 34.000594) scale(0.09 -0.09)">
       <use xlink:href="#DejaVuSerif-33" transform="translate(0 0.78125)"/>
       <use xlink:href="#DejaVuSerif-2e" transform="translate(63.623047 0.78125)"/>
       <use xlink:href="#DejaVuSerif-30" transform="translate(95.410156 0.78125)"/>
      </g>
     </g>
    </g>
    <g class="tick ytick">
     <g id="line2d_25">
      <path d="M 48.08375 7.019297 
L 236.57975 7.019297 
" clip-path="url(#pac01bc6cd5)" style="fill: none; stroke: #b0b0b0; stroke-opacity: 0.15; stroke-width: 0.5; stroke-linecap: square"/>
     </g>
     <g id="line2d_26">
      <g>
       <use xlink:href="#m1a51335f51" x="48.08375" y="7.019297" style="stroke:var(--black); stroke-width: 0.8"/>
      </g>
     </g>
     <g id="text_14" class="text">
      <!-- $\mathdefault{3.5}$ -->
      <g transform="translate(26.68375 10.438594) scale(0.09 -0.09)">
       <use xlink:href="#DejaVuSerif-33" transform="translate(0 0.78125)"/>
       <use xlink:href="#DejaVuSerif-2e" transform="translate(63.623047 0.78125)"/>
       <use xlink:href="#DejaVuSerif-35" transform="translate(95.410156 0.78125)"/>
      </g>
     </g>
    </g>
    <g id="text_15" class="text">
     <!-- $x_2$ -->
     <g transform="translate(12.718125 107.207297) rotate(-90) scale(0.12 -0.12)">
      <defs>
       <path id="Cmr10-32" d="M 319 0 
L 319 172 
Q 319 188 331 206 
L 1325 1306 
Q 1550 1550 1690 1715 
Q 1831 1881 1968 2097 
Q 2106 2313 2186 2536 
Q 2266 2759 2266 3009 
Q 2266 3272 2169 3511 
Q 2072 3750 1880 3894 
Q 1688 4038 1416 4038 
Q 1138 4038 916 3870 
Q 694 3703 603 3438 
Q 628 3444 672 3444 
Q 816 3444 917 3347 
Q 1019 3250 1019 3097 
Q 1019 2950 917 2848 
Q 816 2747 672 2747 
Q 522 2747 420 2851 
Q 319 2956 319 3097 
Q 319 3338 409 3548 
Q 500 3759 670 3923 
Q 841 4088 1055 4175 
Q 1269 4263 1509 4263 
Q 1875 4263 2190 4108 
Q 2506 3953 2690 3670 
Q 2875 3388 2875 3009 
Q 2875 2731 2753 2481 
Q 2631 2231 2440 2026 
Q 2250 1822 1953 1562 
Q 1656 1303 1563 1216 
L 838 519 
L 1453 519 
Q 1906 519 2211 526 
Q 2516 534 2534 550 
Q 2609 631 2688 1141 
L 2875 1141 
L 2694 0 
L 319 0 
z
" transform="scale(0.015625)"/>
      </defs>
      <use xlink:href="#Cmmi10-78" transform="translate(0 0.8125)"/>
      <use xlink:href="#Cmr10-32" transform="translate(57.080078 -16.19375) scale(0.7)"/>
     </g>
    </g>
   </g>
   <g id="FillBetweenPolyCollection_1">
    <defs>
     <path id="m806de3bcf0" d="M 71.704803 -105.728168 
L 71.704803 -58.486062 
L 72.177224 -58.486062 
L 72.649645 -58.486062 
L 73.122066 -58.486062 
L 73.594487 -58.486062 
L 74.066908 -58.486062 
L 74.539329 -58.486062 
L 75.01175 -58.486062 
L 75.484171 -58.486062 
L 75.956592 -58.486062 
L 76.429013 -58.486062 
L 76.901434 -58.486062 
L 77.373855 -58.486062 
L 77.846276 -58.486062 
L 78.318697 -58.486062 
L 78.791118 -58.486062 
L 79.263539 -58.486062 
L 79.735961 -58.486062 
L 80.208382 -58.486062 
L 80.680803 -58.486062 
L 81.153224 -58.486062 
L 81.625645 -58.486062 
L 82.098066 -58.486062 
L 82.570487 -58.486062 
L 83.042908 -58.486062 
L 83.515329 -58.486062 
L 83.98775 -58.486062 
L 84.460171 -58.486062 
L 84.932592 -58.486062 
L 85.405013 -58.486062 
L 85.877434 -58.486062 
L 86.349855 -58.486062 
L 86.822276 -58.486062 
L 87.294697 -58.486062 
L 87.767118 -58.486062 
L 88.239539 -58.486062 
L 88.711961 -58.486062 
L 89.184382 -58.486062 
L 89.656803 -58.486062 
L 90.129224 -58.486062 
L 90.601645 -58.486062 
L 91.074066 -58.486062 
L 91.546487 -58.486062 
L 92.018908 -58.486062 
L 92.491329 -58.486062 
L 92.96375 -58.486062 
L 93.436171 -58.486062 
L 93.908592 -58.486062 
L 94.381013 -58.486062 
L 94.853434 -58.486062 
L 95.325855 -58.486062 
L 95.798276 -58.486062 
L 96.270697 -58.486062 
L 96.743118 -58.486062 
L 97.215539 -58.486062 
L 97.687961 -58.486062 
L 98.160382 -58.486062 
L 98.632803 -58.486062 
L 99.105224 -58.486062 
L 99.577645 -58.486062 
L 100.050066 -58.486062 
L 100.522487 -58.486062 
L 100.994908 -58.486062 
L 101.467329 -58.486062 
L 101.93975 -58.486062 
L 102.412171 -58.486062 
L 102.884592 -58.486062 
L 103.357013 -58.486062 
L 103.829434 -58.486062 
L 104.301855 -58.486062 
L 104.774276 -58.486062 
L 105.246697 -58.486062 
L 105.719118 -58.486062 
L 106.191539 -58.486062 
L 106.663961 -58.486062 
L 107.136382 -58.486062 
L 107.608803 -58.486062 
L 108.081224 -58.486062 
L 108.553645 -58.486062 
L 109.026066 -58.486062 
L 109.498487 -58.486062 
L 109.970908 -58.486062 
L 110.443329 -58.486062 
L 110.91575 -58.486062 
L 111.388171 -58.486062 
L 111.860592 -58.486062 
L 112.333013 -58.486062 
L 112.805434 -58.486062 
L 113.277855 -58.486062 
L 113.750276 -58.486062 
L 114.222697 -58.486062 
L 114.695118 -58.486062 
L 115.167539 -58.486062 
L 115.639961 -58.486062 
L 116.112382 -58.486062 
L 116.584803 -58.486062 
L 117.057224 -58.486062 
L 117.529645 -58.486062 
L 118.002066 -58.486062 
L 118.474487 -58.486062 
L 118.946908 -58.66322 
L 119.419329 -59.135641 
L 119.89175 -59.608062 
L 120.364171 -60.080484 
L 120.836592 -60.552905 
L 121.309013 -61.025326 
L 121.781434 -61.497747 
L 122.253855 -61.970168 
L 122.726276 -62.442589 
L 123.198697 -62.91501 
L 123.671118 -63.387431 
L 124.143539 -63.859852 
L 124.615961 -64.332273 
L 125.088382 -64.804694 
L 125.560803 -65.277115 
L 126.033224 -65.749536 
L 126.505645 -66.221957 
L 126.978066 -66.694378 
L 127.450487 -67.166799 
L 127.922908 -67.63922 
L 128.395329 -68.111641 
L 128.86775 -68.584062 
L 129.340171 -69.056484 
L 129.812592 -69.528905 
L 130.285013 -70.001326 
L 130.757434 -70.473747 
L 131.229855 -70.946168 
L 131.702276 -71.418589 
L 132.174697 -71.89101 
L 132.647118 -72.363431 
L 133.119539 -72.835852 
L 133.591961 -73.308273 
L 134.064382 -73.780694 
L 134.536803 -74.253115 
L 135.009224 -74.725536 
L 135.481645 -75.197957 
L 135.954066 -75.670378 
L 136.426487 -76.142799 
L 136.898908 -76.61522 
L 137.371329 -77.087641 
L 137.84375 -77.560062 
L 138.316171 -78.032484 
L 138.788592 -78.504905 
L 139.261013 -78.977326 
L 139.733434 -79.449747 
L 140.205855 -79.922168 
L 140.678276 -80.394589 
L 141.150697 -80.86701 
L 141.623118 -81.339431 
L 142.095539 -81.811852 
L 142.567961 -82.284273 
L 143.040382 -82.756694 
L 143.512803 -83.229115 
L 143.985224 -83.701536 
L 144.457645 -84.173957 
L 144.930066 -84.646378 
L 145.402487 -85.118799 
L 145.874908 -85.59122 
L 146.347329 -86.063641 
L 146.81975 -86.536062 
L 147.292171 -87.008484 
L 147.764592 -87.480905 
L 148.237013 -87.953326 
L 148.709434 -88.425747 
L 149.181855 -88.898168 
L 149.654276 -89.370589 
L 150.126697 -89.84301 
L 150.599118 -90.315431 
L 151.071539 -90.787852 
L 151.543961 -91.260273 
L 152.016382 -91.732694 
L 152.488803 -92.205115 
L 152.961224 -92.677536 
L 153.433645 -93.149957 
L 153.906066 -93.622378 
L 154.378487 -94.094799 
L 154.850908 -94.56722 
L 155.323329 -95.039641 
L 155.79575 -95.512062 
L 156.268171 -95.984484 
L 156.740592 -96.456905 
L 157.213013 -96.929326 
L 157.685434 -97.401747 
L 158.157855 -97.874168 
L 158.630276 -98.346589 
L 159.102697 -98.81901 
L 159.575118 -99.291431 
L 160.047539 -99.763852 
L 160.519961 -100.236273 
L 160.992382 -100.708694 
L 161.464803 -101.181115 
L 161.937224 -101.653536 
L 162.409645 -102.125957 
L 162.882066 -102.598378 
L 163.354487 -103.070799 
L 163.826908 -103.54322 
L 164.299329 -104.015641 
L 164.77175 -104.488062 
L 165.244171 -104.960484 
L 165.716592 -105.432905 
L 166.189013 -105.905326 
L 166.661434 -106.377747 
L 167.133855 -106.850168 
L 167.606276 -107.322589 
L 168.078697 -107.79501 
L 168.551118 -108.267431 
L 169.023539 -108.739852 
L 169.495961 -109.212273 
L 169.968382 -109.684694 
L 170.440803 -110.157115 
L 170.913224 -110.629536 
L 171.385645 -111.101957 
L 171.858066 -111.574378 
L 172.330487 -112.046799 
L 172.802908 -112.51922 
L 173.275329 -112.991641 
L 173.74775 -113.464062 
L 174.220171 -113.936484 
L 174.692592 -114.408905 
L 175.165013 -114.881326 
L 175.637434 -115.353747 
L 176.109855 -115.826168 
L 176.582276 -116.298589 
L 177.054697 -116.77101 
L 177.527118 -117.243431 
L 177.999539 -117.715852 
L 178.471961 -118.188273 
L 178.944382 -118.660694 
L 179.416803 -119.133115 
L 179.889224 -119.605536 
L 180.361645 -120.077957 
L 180.834066 -120.550378 
L 181.306487 -121.022799 
L 181.778908 -121.49522 
L 182.251329 -121.967641 
L 182.72375 -122.440062 
L 183.196171 -122.912484 
L 183.668592 -123.384905 
L 184.141013 -123.857326 
L 184.613434 -124.329747 
L 185.085855 -124.802168 
L 185.558276 -125.274589 
L 186.030697 -125.74701 
L 186.503118 -126.219431 
L 186.975539 -126.691852 
L 187.447961 -127.164273 
L 187.920382 -127.636694 
L 188.392803 -128.109115 
L 188.865224 -128.581536 
L 189.337645 -129.053957 
L 189.810066 -129.526378 
L 190.282487 -129.998799 
L 190.754908 -130.47122 
L 191.227329 -130.943641 
L 191.69975 -131.416062 
L 192.172171 -131.888484 
L 192.644592 -132.360905 
L 193.117013 -132.833326 
L 193.589434 -133.305747 
L 194.061855 -133.778168 
L 194.534276 -134.250589 
L 195.006697 -134.72301 
L 195.479118 -135.195431 
L 195.951539 -135.667852 
L 196.423961 -136.140273 
L 196.896382 -136.612694 
L 197.368803 -137.085115 
L 197.841224 -137.557536 
L 198.313645 -138.029957 
L 198.786066 -138.502378 
L 199.258487 -138.974799 
L 199.730908 -139.44722 
L 200.203329 -139.919641 
L 200.67575 -140.392062 
L 201.148171 -140.864484 
L 201.620592 -141.336905 
L 202.093013 -141.809326 
L 202.565434 -142.281747 
L 203.037855 -142.754168 
L 203.510276 -143.226589 
L 203.982697 -143.69901 
L 204.455118 -144.171431 
L 204.927539 -144.643852 
L 205.399961 -145.116273 
L 205.872382 -145.588694 
L 206.344803 -146.061115 
L 206.817224 -146.533536 
L 207.289645 -147.005957 
L 207.762066 -147.478378 
L 208.234487 -147.950799 
L 208.706908 -148.42322 
L 209.179329 -148.895641 
L 209.65175 -149.368062 
L 210.124171 -149.840484 
L 210.596592 -150.312905 
L 211.069013 -150.785326 
L 211.541434 -151.257747 
L 212.013855 -151.730168 
L 212.486276 -152.202589 
L 212.958697 -152.67501 
L 213.431118 -153.147431 
L 213.903539 -153.619852 
L 214.375961 -154.092273 
L 214.848382 -154.564694 
L 215.320803 -155.037115 
L 215.793224 -155.509536 
L 216.265645 -155.981957 
L 216.738066 -156.454378 
L 217.210487 -156.926799 
L 217.682908 -157.39922 
L 218.155329 -157.871641 
L 218.62775 -158.344062 
L 219.100171 -158.816484 
L 219.572592 -159.288905 
L 220.045013 -159.761326 
L 220.517434 -160.233747 
L 220.989855 -160.706168 
L 221.462276 -161.178589 
L 221.934697 -161.65101 
L 222.407118 -162.123431 
L 222.879539 -162.595852 
L 223.351961 -163.068273 
L 223.824382 -163.540694 
L 224.296803 -164.013115 
L 224.769224 -164.485536 
L 225.241645 -164.957957 
L 225.714066 -165.430378 
L 226.186487 -165.902799 
L 226.658908 -166.37522 
L 227.131329 -166.847641 
L 227.60375 -167.320062 
L 228.076171 -167.792484 
L 228.548592 -168.264905 
L 229.021013 -168.737326 
L 229.493434 -169.209747 
L 229.965855 -169.682168 
L 230.438276 -170.154589 
L 230.910697 -170.62701 
L 231.383118 -171.099431 
L 231.855539 -171.571852 
L 232.327961 -172.044273 
L 232.800382 -172.516694 
L 233.272803 -172.989115 
L 233.745224 -173.461536 
L 234.217645 -173.933957 
L 234.690066 -174.406378 
L 235.162487 -174.878799 
L 235.634908 -175.35122 
L 236.107329 -175.823641 
L 236.57975 -176.296062 
L 236.57975 -223.420062 
L 236.57975 -223.420062 
L 236.107329 -223.420062 
L 235.634908 -223.420062 
L 235.162487 -223.420062 
L 234.690066 -223.420062 
L 234.217645 -223.420062 
L 233.745224 -223.420062 
L 233.272803 -223.420062 
L 232.800382 -223.420062 
L 232.327961 -223.420062 
L 231.855539 -223.420062 
L 231.383118 -223.420062 
L 230.910697 -223.420062 
L 230.438276 -223.420062 
L 229.965855 -223.420062 
L 229.493434 -223.420062 
L 229.021013 -223.420062 
L 228.548592 -223.420062 
L 228.076171 -223.420062 
L 227.60375 -223.420062 
L 227.131329 -223.420062 
L 226.658908 -223.420062 
L 226.186487 -223.420062 
L 225.714066 -223.420062 
L 225.241645 -223.420062 
L 224.769224 -223.420062 
L 224.296803 -223.420062 
L 223.824382 -223.420062 
L 223.351961 -223.420062 
L 222.879539 -223.420062 
L 222.407118 -223.420062 
L 221.934697 -223.420062 
L 221.462276 -223.420062 
L 220.989855 -223.420062 
L 220.517434 -223.420062 
L 220.045013 -223.420062 
L 219.572592 -223.420062 
L 219.100171 -223.420062 
L 218.62775 -223.420062 
L 218.155329 -223.420062 
L 217.682908 -223.420062 
L 217.210487 -223.420062 
L 216.738066 -223.420062 
L 216.265645 -223.420062 
L 215.793224 -223.420062 
L 215.320803 -223.420062 
L 214.848382 -223.420062 
L 214.375961 -223.420062 
L 213.903539 -223.420062 
L 213.431118 -223.420062 
L 212.958697 -223.420062 
L 212.486276 -223.420062 
L 212.013855 -223.420062 
L 211.541434 -223.420062 
L 211.069013 -223.420062 
L 210.596592 -223.420062 
L 210.124171 -223.420062 
L 209.65175 -223.420062 
L 209.179329 -223.420062 
L 208.706908 -223.420062 
L 208.234487 -223.420062 
L 207.762066 -223.420062 
L 207.289645 -223.420062 
L 206.817224 -223.420062 
L 206.344803 -223.420062 
L 205.872382 -223.420062 
L 205.399961 -223.420062 
L 204.927539 -223.420062 
L 204.455118 -223.420062 
L 203.982697 -223.420062 
L 203.510276 -223.420062 
L 203.037855 -223.420062 
L 202.565434 -223.420062 
L 202.093013 -223.420062 
L 201.620592 -223.420062 
L 201.148171 -223.420062 
L 200.67575 -223.420062 
L 200.203329 -223.420062 
L 199.730908 -223.420062 
L 199.258487 -223.420062 
L 198.786066 -223.420062 
L 198.313645 -223.420062 
L 197.841224 -223.420062 
L 197.368803 -223.420062 
L 196.896382 -223.420062 
L 196.423961 -223.420062 
L 195.951539 -223.420062 
L 195.479118 -223.420062 
L 195.006697 -223.420062 
L 194.534276 -223.420062 
L 194.061855 -223.420062 
L 193.589434 -223.420062 
L 193.117013 -223.420062 
L 192.644592 -223.420062 
L 192.172171 -223.420062 
L 191.69975 -223.420062 
L 191.227329 -223.420062 
L 190.754908 -223.420062 
L 190.282487 -223.420062 
L 189.810066 -223.420062 
L 189.337645 -223.420062 
L 188.865224 -223.420062 
L 188.392803 -223.420062 
L 187.920382 -223.420062 
L 187.447961 -223.420062 
L 186.975539 -223.420062 
L 186.503118 -223.420062 
L 186.030697 -223.420062 
L 185.558276 -223.420062 
L 185.085855 -223.420062 
L 184.613434 -223.420062 
L 184.141013 -223.420062 
L 183.668592 -223.420062 
L 183.196171 -223.420062 
L 182.72375 -223.420062 
L 182.251329 -223.420062 
L 181.778908 -223.420062 
L 181.306487 -223.420062 
L 180.834066 -223.420062 
L 180.361645 -223.420062 
L 179.889224 -223.420062 
L 179.416803 -223.420062 
L 178.944382 -223.420062 
L 178.471961 -223.420062 
L 177.999539 -223.420062 
L 177.527118 -223.420062 
L 177.054697 -223.420062 
L 176.582276 -223.420062 
L 176.109855 -223.420062 
L 175.637434 -223.420062 
L 175.165013 -223.420062 
L 174.692592 -223.420062 
L 174.220171 -223.420062 
L 173.74775 -223.420062 
L 173.275329 -223.420062 
L 172.802908 -223.420062 
L 172.330487 -223.420062 
L 171.858066 -223.420062 
L 171.385645 -223.420062 
L 170.913224 -223.420062 
L 170.440803 -223.420062 
L 169.968382 -223.420062 
L 169.495961 -223.420062 
L 169.023539 -223.420062 
L 168.551118 -223.420062 
L 168.078697 -223.420062 
L 167.606276 -223.420062 
L 167.133855 -223.420062 
L 166.661434 -223.420062 
L 166.189013 -223.420062 
L 165.716592 -223.420062 
L 165.244171 -223.420062 
L 164.77175 -223.420062 
L 164.299329 -223.420062 
L 163.826908 -223.420062 
L 163.354487 -223.420062 
L 162.882066 -223.420062 
L 162.409645 -223.420062 
L 161.937224 -223.420062 
L 161.464803 -223.420062 
L 160.992382 -223.420062 
L 160.519961 -223.420062 
L 160.047539 -223.420062 
L 159.575118 -223.420062 
L 159.102697 -223.420062 
L 158.630276 -223.420062 
L 158.157855 -223.420062 
L 157.685434 -223.420062 
L 157.213013 -223.420062 
L 156.740592 -223.420062 
L 156.268171 -223.420062 
L 155.79575 -223.420062 
L 155.323329 -223.420062 
L 154.850908 -223.420062 
L 154.378487 -223.420062 
L 153.906066 -223.420062 
L 153.433645 -223.420062 
L 152.961224 -223.420062 
L 152.488803 -223.420062 
L 152.016382 -223.420062 
L 151.543961 -223.420062 
L 151.071539 -223.420062 
L 150.599118 -223.420062 
L 150.126697 -223.420062 
L 149.654276 -223.420062 
L 149.181855 -223.420062 
L 148.709434 -223.420062 
L 148.237013 -223.420062 
L 147.764592 -223.420062 
L 147.292171 -223.420062 
L 146.81975 -223.420062 
L 146.347329 -223.420062 
L 145.874908 -223.420062 
L 145.402487 -223.420062 
L 144.930066 -223.420062 
L 144.457645 -223.420062 
L 143.985224 -223.420062 
L 143.512803 -223.420062 
L 143.040382 -223.420062 
L 142.567961 -223.420062 
L 142.095539 -223.420062 
L 141.623118 -223.420062 
L 141.150697 -223.420062 
L 140.678276 -223.420062 
L 140.205855 -223.420062 
L 139.733434 -223.420062 
L 139.261013 -223.420062 
L 138.788592 -223.420062 
L 138.316171 -223.420062 
L 137.84375 -223.420062 
L 137.371329 -223.420062 
L 136.898908 -223.420062 
L 136.426487 -223.420062 
L 135.954066 -223.420062 
L 135.481645 -223.420062 
L 135.009224 -223.420062 
L 134.536803 -223.420062 
L 134.064382 -223.420062 
L 133.591961 -223.420062 
L 133.119539 -223.420062 
L 132.647118 -223.420062 
L 132.174697 -223.420062 
L 131.702276 -223.420062 
L 131.229855 -223.420062 
L 130.757434 -223.420062 
L 130.285013 -222.888589 
L 129.812592 -221.943747 
L 129.340171 -220.998905 
L 128.86775 -220.054062 
L 128.395329 -219.10922 
L 127.922908 -218.164378 
L 127.450487 -217.219536 
L 126.978066 -216.274694 
L 126.505645 -215.329852 
L 126.033224 -214.38501 
L 125.560803 -213.440168 
L 125.088382 -212.495326 
L 124.615961 -211.550484 
L 124.143539 -210.605641 
L 123.671118 -209.660799 
L 123.198697 -208.715957 
L 122.726276 -207.771115 
L 122.253855 -206.826273 
L 121.781434 -205.881431 
L 121.309013 -204.936589 
L 120.836592 -203.991747 
L 120.364171 -203.046905 
L 119.89175 -202.102062 
L 119.419329 -201.15722 
L 118.946908 -200.212378 
L 118.474487 -199.267536 
L 118.002066 -198.322694 
L 117.529645 -197.377852 
L 117.057224 -196.43301 
L 116.584803 -195.488168 
L 116.112382 -194.543326 
L 115.639961 -193.598484 
L 115.167539 -192.653641 
L 114.695118 -191.708799 
L 114.222697 -190.763957 
L 113.750276 -189.819115 
L 113.277855 -188.874273 
L 112.805434 -187.929431 
L 112.333013 -186.984589 
L 111.860592 -186.039747 
L 111.388171 -185.094905 
L 110.91575 -184.150062 
L 110.443329 -183.20522 
L 109.970908 -182.260378 
L 109.498487 -181.315536 
L 109.026066 -180.370694 
L 108.553645 -179.425852 
L 108.081224 -178.48101 
L 107.608803 -177.536168 
L 107.136382 -176.591326 
L 106.663961 -175.646484 
L 106.191539 -174.701641 
L 105.719118 -173.756799 
L 105.246697 -172.811957 
L 104.774276 -171.867115 
L 104.301855 -170.922273 
L 103.829434 -169.977431 
L 103.357013 -169.032589 
L 102.884592 -168.087747 
L 102.412171 -167.142905 
L 101.93975 -166.198062 
L 101.467329 -165.25322 
L 100.994908 -164.308378 
L 100.522487 -163.363536 
L 100.050066 -162.418694 
L 99.577645 -161.473852 
L 99.105224 -160.52901 
L 98.632803 -159.584168 
L 98.160382 -158.639326 
L 97.687961 -157.694484 
L 97.215539 -156.749641 
L 96.743118 -155.804799 
L 96.270697 -154.859957 
L 95.798276 -153.915115 
L 95.325855 -152.970273 
L 94.853434 -152.025431 
L 94.381013 -151.080589 
L 93.908592 -150.135747 
L 93.436171 -149.190905 
L 92.96375 -148.246062 
L 92.491329 -147.30122 
L 92.018908 -146.356378 
L 91.546487 -145.411536 
L 91.074066 -144.466694 
L 90.601645 -143.521852 
L 90.129224 -142.57701 
L 89.656803 -141.632168 
L 89.184382 -140.687326 
L 88.711961 -139.742484 
L 88.239539 -138.797641 
L 87.767118 -137.852799 
L 87.294697 -136.907957 
L 86.822276 -135.963115 
L 86.349855 -135.018273 
L 85.877434 -134.073431 
L 85.405013 -133.128589 
L 84.932592 -132.183747 
L 84.460171 -131.238905 
L 83.98775 -130.294062 
L 83.515329 -129.34922 
L 83.042908 -128.404378 
L 82.570487 -127.459536 
L 82.098066 -126.514694 
L 81.625645 -125.569852 
L 81.153224 -124.62501 
L 80.680803 -123.680168 
L 80.208382 -122.735326 
L 79.735961 -121.790484 
L 79.263539 -120.845641 
L 78.791118 -119.900799 
L 78.318697 -118.955957 
L 77.846276 -118.011115 
L 77.373855 -117.066273 
L 76.901434 -116.121431 
L 76.429013 -115.176589 
L 75.956592 -114.231747 
L 75.484171 -113.286905 
L 75.01175 -112.342062 
L 74.539329 -111.39722 
L 74.066908 -110.452378 
L 73.594487 -109.507536 
L 73.122066 -108.562694 
L 72.649645 -107.617852 
L 72.177224 -106.67301 
L 71.704803 -105.728168 
z
" style="stroke:var(--c8); stroke-opacity: 0.5"/>
    </defs>
    <g clip-path="url(#pac01bc6cd5)">
     <use xlink:href="#m806de3bcf0" x="0" y="230.439359" style="fill:var(--c8); fill-opacity: 0.5; stroke:var(--c8); stroke-opacity: 0.5"/>
    </g>
   </g>
   <g id="line2d_27">
    <path d="M 48.08375 7.019297 
L 236.57975 7.019297 
L 236.57975 7.019297 
" clip-path="url(#pac01bc6cd5)" style="fill: none; stroke-dasharray: 3.7,1.6; stroke-dashoffset: 0; stroke:var(--black)"/>
   </g>
   <g id="line2d_28">
    <path d="M 236.57975 195.515297 
L 236.57975 7.019297 
L 236.57975 7.019297 
" clip-path="url(#pac01bc6cd5)" style="fill: none; stroke-dasharray: 3.7,1.6; stroke-dashoffset: 0; stroke:var(--black)"/>
   </g>
   <g id="line2d_29">
    <path d="M 48.08375 171.953297 
L 236.57975 171.953297 
" clip-path="url(#pac01bc6cd5)" style="fill: none; stroke:var(--black); stroke-opacity: 0.5; stroke-width: 0.8; stroke-linecap: square"/>
   </g>
   <g id="line2d_30">
    <path d="M 71.64575 195.515297 
L 71.64575 7.019297 
" clip-path="url(#pac01bc6cd5)" style="fill: none; stroke:var(--black); stroke-opacity: 0.5; stroke-width: 0.8; stroke-linecap: square"/>
   </g>
   <g class="patch">
    <path d="M 48.08375 195.515297 
L 48.08375 7.019297 
" style="fill: none; stroke:var(--black); stroke-width: 0.8; stroke-linejoin: miter; stroke-linecap: square"/>
   </g>
   <g class="patch">
    <path d="M 48.08375 195.515297 
L 236.57975 195.515297 
" style="fill: none; stroke:var(--black); stroke-width: 0.8; stroke-linejoin: miter; stroke-linecap: square"/>
   </g>
   <g id="line2d_31">
    <path d="M 48.08375 171.953297 
L 134.560398 -1 
L 134.560398 -1 
" clip-path="url(#pac01bc6cd5)" style="fill: none; stroke:var(--black); stroke-width: 2; stroke-linecap: square"/>
   </g>
   <g id="line2d_32">
    <path d="M 59.283687 231.439359 
L 236.57975 54.143297 
L 236.57975 54.143297 
" clip-path="url(#pac01bc6cd5)" style="fill: none; stroke:var(--black); stroke-width: 2; stroke-linecap: square"/>
   </g>
   <g id="line2d_33">
    <path d="M 48.08375 171.953297 
L 236.57975 171.953297 
L 236.57975 171.953297 
" clip-path="url(#pac01bc6cd5)" style="fill: none; stroke:var(--black); stroke-width: 2; stroke-linecap: square"/>
   </g>
   <g id="line2d_34">
    <path d="M 71.64575 195.515297 
L 71.64575 7.019297 
L 71.64575 7.019297 
" clip-path="url(#pac01bc6cd5)" style="fill: none; stroke:var(--black); stroke-width: 2; stroke-linecap: square"/>
   </g>
   <g class="legend">
    <g class="patch">
     <path d="M 116.7735 103.230234 
L 229.57975 103.230234 
Q 231.57975 103.230234 231.57975 101.230234 
L 231.57975 14.019297 
Q 231.57975 12.019297 229.57975 12.019297 
L 116.7735 12.019297 
Q 114.7735 12.019297 114.7735 14.019297 
L 114.7735 101.230234 
Q 114.7735 103.230234 116.7735 103.230234 
L 116.7735 103.230234 
z
" style="fill: none; opacity: 0.9; stroke: #cccccc; stroke-linejoin: miter"/>
    </g>
    <g id="line2d_35">
     <path d="M 118.7735 20.117734 
L 128.7735 20.117734 
L 138.7735 20.117734 
" style="fill: none; stroke:var(--black); stroke-width: 2; stroke-linecap: square"/>
    </g>
    <g id="text_16" class="text">
     <!-- $-2x_1 + x_2 \leq 1$ -->
     <g transform="translate(146.7735 23.617734) scale(0.1 -0.1)">
      <defs>
       <path id="Cmsy10-a1" d="M 653 1472 
Q 600 1472 565 1512 
Q 531 1553 531 1600 
Q 531 1647 565 1687 
Q 600 1728 653 1728 
L 4325 1728 
Q 4375 1728 4408 1687 
Q 4441 1647 4441 1600 
Q 4441 1553 4408 1512 
Q 4375 1472 4325 1472 
L 653 1472 
z
" transform="scale(0.015625)"/>
       <path id="Cmr10-2b" d="M 481 1472 
Q 428 1472 393 1512 
Q 359 1553 359 1600 
Q 359 1647 393 1687 
Q 428 1728 481 1728 
L 2363 1728 
L 2363 3616 
Q 2363 3666 2400 3698 
Q 2438 3731 2491 3731 
Q 2538 3731 2578 3698 
Q 2619 3666 2619 3616 
L 2619 1728 
L 4500 1728 
Q 4547 1728 4581 1687 
Q 4616 1647 4616 1600 
Q 4616 1553 4581 1512 
Q 4547 1472 4500 1472 
L 2619 1472 
L 2619 -416 
Q 2619 -466 2578 -498 
Q 2538 -531 2491 -531 
Q 2438 -531 2400 -498 
Q 2363 -466 2363 -416 
L 2363 1472 
L 481 1472 
z
" transform="scale(0.015625)"/>
       <path id="Cmsy10-2219" d="M 653 -878 
Q 600 -878 565 -837 
Q 531 -797 531 -750 
Q 531 -697 565 -659 
Q 600 -622 653 -622 
L 4325 -622 
Q 4375 -622 4408 -659 
Q 4441 -697 4441 -750 
Q 4441 -797 4408 -837 
Q 4375 -878 4325 -878 
L 653 -878 
z
M 594 2113 
Q 531 2131 531 2222 
Q 531 2303 616 2338 
L 4269 4063 
Q 4281 4072 4313 4072 
Q 4366 4072 4403 4034 
Q 4441 3997 4441 3944 
Q 4441 3859 4366 3828 
L 959 2222 
L 4384 603 
Q 4441 572 4441 494 
Q 4441 438 4403 402 
Q 4366 366 4313 366 
Q 4281 366 4269 378 
L 594 2113 
z
" transform="scale(0.015625)"/>
      </defs>
      <use xlink:href="#Cmsy10-a1" transform="translate(0 0.390625)"/>
      <use xlink:href="#Cmr10-32" transform="translate(77.685547 0.390625)"/>
      <use xlink:href="#Cmmi10-78" transform="translate(127.685547 0.390625)"/>
      <use xlink:href="#Cmr10-31" transform="translate(184.765625 -16.615625) scale(0.7)"/>
      <use xlink:href="#Cmr10-2b" transform="translate(243.701562 0.390625)"/>
      <use xlink:href="#Cmmi10-78" transform="translate(338.945703 0.390625)"/>
      <use xlink:href="#Cmr10-32" transform="translate(396.025781 -16.615625) scale(0.7)"/>
      <use xlink:href="#Cmsy10-2219" transform="translate(454.961719 0.390625)"/>
      <use xlink:href="#Cmr10-31" transform="translate(550.205859 0.390625)"/>
     </g>
    </g>
    <g id="line2d_36">
     <path d="M 118.7735 34.795859 
L 128.7735 34.795859 
L 138.7735 34.795859 
" style="fill: none; stroke:var(--black); stroke-width: 2; stroke-linecap: square"/>
    </g>
    <g id="text_17" class="text">
     <!-- $x_1 - x_2 \leq 1$ -->
     <g transform="translate(146.7735 38.295859) scale(0.1 -0.1)">
      <use xlink:href="#Cmmi10-78" transform="translate(0 0.390625)"/>
      <use xlink:href="#Cmr10-31" transform="translate(57.080078 -16.615625) scale(0.7)"/>
      <use xlink:href="#Cmsy10-a1" transform="translate(116.016016 0.390625)"/>
      <use xlink:href="#Cmmi10-78" transform="translate(211.260156 0.390625)"/>
      <use xlink:href="#Cmr10-32" transform="translate(268.340234 -16.615625) scale(0.7)"/>
      <use xlink:href="#Cmsy10-2219" transform="translate(327.276172 0.390625)"/>
      <use xlink:href="#Cmr10-31" transform="translate(422.520312 0.390625)"/>
     </g>
    </g>
    <g id="line2d_37">
     <path d="M 118.7735 49.473984 
L 128.7735 49.473984 
L 138.7735 49.473984 
" style="fill: none; stroke:var(--black); stroke-width: 2; stroke-linecap: square"/>
    </g>
    <g id="text_18" class="text">
     <!-- $x_2 \geq 0$ -->
     <g transform="translate(146.7735 52.973984) scale(0.1 -0.1)">
      <defs>
       <path id="Cmsy10-b8" d="M 653 -878 
Q 600 -878 565 -837 
Q 531 -797 531 -750 
Q 531 -697 565 -659 
Q 600 -622 653 -622 
L 4325 -622 
Q 4375 -622 4408 -659 
Q 4441 -697 4441 -750 
Q 4441 -797 4408 -837 
Q 4375 -878 4325 -878 
L 653 -878 
z
M 531 494 
Q 531 572 616 616 
L 4013 2222 
L 594 3834 
Q 531 3863 531 3944 
Q 531 3991 568 4031 
Q 606 4072 659 4072 
Q 691 4072 709 4063 
L 4384 2328 
Q 4441 2300 4441 2222 
Q 4441 2144 4366 2100 
L 709 378 
Q 691 366 659 366 
Q 606 366 568 403 
Q 531 441 531 494 
z
" transform="scale(0.015625)"/>
       <path id="Cmr10-30" d="M 1600 -141 
Q 816 -141 533 504 
Q 250 1150 250 2041 
Q 250 2597 351 3087 
Q 453 3578 754 3920 
Q 1056 4263 1600 4263 
Q 2022 4263 2290 4056 
Q 2559 3850 2700 3523 
Q 2841 3197 2892 2823 
Q 2944 2450 2944 2041 
Q 2944 1491 2842 1011 
Q 2741 531 2444 195 
Q 2147 -141 1600 -141 
z
M 1600 25 
Q 1956 25 2131 390 
Q 2306 756 2347 1200 
Q 2388 1644 2388 2144 
Q 2388 2625 2347 3031 
Q 2306 3438 2132 3767 
Q 1959 4097 1600 4097 
Q 1238 4097 1063 3765 
Q 888 3434 847 3029 
Q 806 2625 806 2144 
Q 806 1788 823 1472 
Q 841 1156 916 820 
Q 991 484 1158 254 
Q 1325 25 1600 25 
z
" transform="scale(0.015625)"/>
      </defs>
      <use xlink:href="#Cmmi10-78" transform="translate(0 0.390625)"/>
      <use xlink:href="#Cmr10-32" transform="translate(57.080078 -16.615625) scale(0.7)"/>
      <use xlink:href="#Cmsy10-b8" transform="translate(116.016016 0.390625)"/>
      <use xlink:href="#Cmr10-30" transform="translate(211.260156 0.390625)"/>
     </g>
    </g>
    <g id="line2d_38">
     <path d="M 118.7735 64.152109 
L 128.7735 64.152109 
L 138.7735 64.152109 
" style="fill: none; stroke:var(--black); stroke-width: 2; stroke-linecap: square"/>
    </g>
    <g id="text_19" class="text">
     <!-- $x_1 \geq 0$ -->
     <g transform="translate(146.7735 67.652109) scale(0.1 -0.1)">
      <use xlink:href="#Cmmi10-78" transform="translate(0 0.390625)"/>
      <use xlink:href="#Cmr10-31" transform="translate(57.080078 -16.615625) scale(0.7)"/>
      <use xlink:href="#Cmsy10-b8" transform="translate(116.016016 0.390625)"/>
      <use xlink:href="#Cmr10-30" transform="translate(211.260156 0.390625)"/>
     </g>
    </g>
    <g class="patch">
     <path d="M 118.7735 82.330234 
L 138.7735 82.330234 
L 138.7735 75.330234 
L 118.7735 75.330234 
z
" style="fill:var(--c8); fill-opacity: 0.5; stroke:var(--c8); stroke-opacity: 0.5; stroke-linejoin: miter"/>
    </g>
    <g id="text_20" class="text">
     <!-- Feasible Region -->
     <g transform="translate(146.7735 82.330234) scale(0.1 -0.1)">
      <defs>
       <path id="DejaVuSerif-46" d="M 353 0 
L 353 331 
L 947 331 
L 947 4331 
L 353 4331 
L 353 4666 
L 4172 4666 
L 4172 3628 
L 3788 3628 
L 3788 4281 
L 1581 4281 
L 1581 2719 
L 3175 2719 
L 3175 3303 
L 3559 3303 
L 3559 1753 
L 3175 1753 
L 3175 2338 
L 1581 2338 
L 1581 331 
L 2328 331 
L 2328 0 
L 353 0 
z
" transform="scale(0.015625)"/>
       <path id="DejaVuSerif-65" d="M 3469 1600 
L 991 1600 
L 991 1575 
Q 991 903 1244 561 
Q 1497 219 1991 219 
Q 2369 219 2611 417 
Q 2853 616 2950 1006 
L 3413 1006 
Q 3275 459 2904 184 
Q 2534 -91 1931 -91 
Q 1203 -91 761 389 
Q 319 869 319 1663 
Q 319 2450 753 2931 
Q 1188 3413 1894 3413 
Q 2647 3413 3050 2948 
Q 3453 2484 3469 1600 
z
M 2791 1931 
Q 2772 2513 2545 2808 
Q 2319 3103 1894 3103 
Q 1497 3103 1269 2806 
Q 1041 2509 991 1931 
L 2791 1931 
z
" transform="scale(0.015625)"/>
       <path id="DejaVuSerif-61" d="M 2547 1044 
L 2547 1747 
L 1806 1747 
Q 1378 1747 1168 1562 
Q 959 1378 959 997 
Q 959 650 1171 447 
Q 1384 244 1747 244 
Q 2106 244 2326 466 
Q 2547 688 2547 1044 
z
M 3122 2075 
L 3122 331 
L 3634 331 
L 3634 0 
L 2547 0 
L 2547 359 
Q 2356 128 2106 18 
Q 1856 -91 1522 -91 
Q 969 -91 644 203 
Q 319 497 319 997 
Q 319 1513 691 1797 
Q 1063 2081 1741 2081 
L 2547 2081 
L 2547 2309 
Q 2547 2688 2317 2895 
Q 2088 3103 1672 3103 
Q 1328 3103 1125 2947 
Q 922 2791 872 2484 
L 575 2484 
L 575 3156 
Q 875 3284 1158 3348 
Q 1441 3413 1709 3413 
Q 2400 3413 2761 3070 
Q 3122 2728 3122 2075 
z
" transform="scale(0.015625)"/>
       <path id="DejaVuSerif-73" d="M 359 184 
L 359 959 
L 691 959 
Q 703 588 923 403 
Q 1144 219 1575 219 
Q 1963 219 2166 364 
Q 2369 509 2369 788 
Q 2369 1006 2220 1140 
Q 2072 1275 1594 1428 
L 1178 1569 
Q 750 1706 558 1912 
Q 366 2119 366 2438 
Q 366 2894 700 3153 
Q 1034 3413 1625 3413 
Q 1888 3413 2178 3344 
Q 2469 3275 2778 3144 
L 2778 2419 
L 2447 2419 
Q 2434 2741 2221 2922 
Q 2009 3103 1644 3103 
Q 1281 3103 1095 2975 
Q 909 2847 909 2591 
Q 909 2381 1050 2254 
Q 1191 2128 1613 1997 
L 2069 1856 
Q 2541 1709 2748 1489 
Q 2956 1269 2956 922 
Q 2956 450 2595 179 
Q 2234 -91 1600 -91 
Q 1278 -91 972 -22 
Q 666 47 359 184 
z
" transform="scale(0.015625)"/>
       <path id="DejaVuSerif-69" d="M 622 4353 
Q 622 4497 726 4603 
Q 831 4709 978 4709 
Q 1122 4709 1226 4603 
Q 1331 4497 1331 4353 
Q 1331 4206 1228 4103 
Q 1125 4000 978 4000 
Q 831 4000 726 4103 
Q 622 4206 622 4353 
z
M 1356 331 
L 1900 331 
L 1900 0 
L 231 0 
L 231 331 
L 781 331 
L 781 2988 
L 231 2988 
L 231 3322 
L 1356 3322 
L 1356 331 
z
" transform="scale(0.015625)"/>
       <path id="DejaVuSerif-62" d="M 738 331 
L 738 4531 
L 184 4531 
L 184 4863 
L 1313 4863 
L 1313 2803 
Q 1481 3116 1742 3264 
Q 2003 3413 2388 3413 
Q 3000 3413 3387 2928 
Q 3775 2444 3775 1663 
Q 3775 881 3387 395 
Q 3000 -91 2388 -91 
Q 2003 -91 1742 57 
Q 1481 206 1313 519 
L 1313 0 
L 184 0 
L 184 331 
L 738 331 
z
M 1313 1497 
Q 1313 897 1542 583 
Q 1772 269 2209 269 
Q 2650 269 2876 622 
Q 3103 975 3103 1663 
Q 3103 2353 2876 2703 
Q 2650 3053 2209 3053 
Q 1772 3053 1542 2737 
Q 1313 2422 1313 1825 
L 1313 1497 
z
" transform="scale(0.015625)"/>
       <path id="DejaVuSerif-6c" d="M 1313 331 
L 1856 331 
L 1856 0 
L 184 0 
L 184 331 
L 738 331 
L 738 4531 
L 184 4531 
L 184 4863 
L 1313 4863 
L 1313 331 
z
" transform="scale(0.015625)"/>
       <path id="DejaVuSerif-20" transform="scale(0.015625)"/>
       <path id="DejaVuSerif-52" d="M 3066 2316 
Q 3284 2256 3442 2114 
Q 3600 1972 3725 1716 
L 4403 331 
L 4972 331 
L 4972 0 
L 3872 0 
L 3144 1484 
Q 2934 1916 2759 2042 
Q 2584 2169 2278 2169 
L 1581 2169 
L 1581 331 
L 2241 331 
L 2241 0 
L 353 0 
L 353 331 
L 947 331 
L 947 4331 
L 353 4331 
L 353 4666 
L 2719 4666 
Q 3400 4666 3770 4341 
Q 4141 4016 4141 3419 
Q 4141 2938 3870 2661 
Q 3600 2384 3066 2316 
z
M 1581 2503 
L 2503 2503 
Q 2975 2503 3200 2726 
Q 3425 2950 3425 3419 
Q 3425 3888 3200 4109 
Q 2975 4331 2503 4331 
L 1581 4331 
L 1581 2503 
z
" transform="scale(0.015625)"/>
       <path id="DejaVuSerif-67" d="M 3359 2988 
L 3359 72 
Q 3359 -644 2965 -1033 
Q 2572 -1422 1844 -1422 
Q 1516 -1422 1216 -1362 
Q 916 -1303 641 -1184 
L 641 -488 
L 941 -488 
Q 997 -813 1206 -963 
Q 1416 -1113 1806 -1113 
Q 2313 -1113 2548 -827 
Q 2784 -541 2784 72 
L 2784 519 
Q 2616 206 2355 57 
Q 2094 -91 1709 -91 
Q 1097 -91 708 395 
Q 319 881 319 1663 
Q 319 2444 706 2928 
Q 1094 3413 1709 3413 
Q 2094 3413 2355 3264 
Q 2616 3116 2784 2803 
L 2784 3322 
L 3909 3322 
L 3909 2988 
L 3359 2988 
z
M 2784 1825 
Q 2784 2422 2554 2737 
Q 2325 3053 1888 3053 
Q 1444 3053 1217 2703 
Q 991 2353 991 1663 
Q 991 975 1217 622 
Q 1444 269 1888 269 
Q 2325 269 2554 583 
Q 2784 897 2784 1497 
L 2784 1825 
z
" transform="scale(0.015625)"/>
       <path id="DejaVuSerif-6f" d="M 1925 219 
Q 2388 219 2623 584 
Q 2859 950 2859 1663 
Q 2859 2375 2623 2739 
Q 2388 3103 1925 3103 
Q 1463 3103 1227 2739 
Q 991 2375 991 1663 
Q 991 950 1228 584 
Q 1466 219 1925 219 
z
M 1925 -91 
Q 1200 -91 759 389 
Q 319 869 319 1663 
Q 319 2456 758 2934 
Q 1197 3413 1925 3413 
Q 2653 3413 3092 2934 
Q 3531 2456 3531 1663 
Q 3531 869 3092 389 
Q 2653 -91 1925 -91 
z
" transform="scale(0.015625)"/>
       <path id="DejaVuSerif-6e" d="M 263 0 
L 263 331 
L 781 331 
L 781 2988 
L 231 2988 
L 231 3322 
L 1356 3322 
L 1356 2731 
Q 1516 3069 1770 3241 
Q 2025 3413 2363 3413 
Q 2913 3413 3172 3097 
Q 3431 2781 3431 2113 
L 3431 331 
L 3944 331 
L 3944 0 
L 2356 0 
L 2356 331 
L 2853 331 
L 2853 1931 
Q 2853 2541 2703 2767 
Q 2553 2994 2175 2994 
Q 1775 2994 1565 2701 
Q 1356 2409 1356 1850 
L 1356 331 
L 1856 331 
L 1856 0 
L 263 0 
z
" transform="scale(0.015625)"/>
      </defs>
      <use xlink:href="#DejaVuSerif-46"/>
      <use xlink:href="#DejaVuSerif-65" transform="translate(63.884766 0)"/>
      <use xlink:href="#DejaVuSerif-61" transform="translate(123.064453 0)"/>
      <use xlink:href="#DejaVuSerif-73" transform="translate(182.683594 0)"/>
      <use xlink:href="#DejaVuSerif-69" transform="translate(234.001953 0)"/>
      <use xlink:href="#DejaVuSerif-62" transform="translate(265.984375 0)"/>
      <use xlink:href="#DejaVuSerif-6c" transform="translate(329.998047 0)"/>
      <use xlink:href="#DejaVuSerif-65" transform="translate(361.980469 0)"/>
      <use xlink:href="#DejaVuSerif-20" transform="translate(421.160156 0)"/>
      <use xlink:href="#DejaVuSerif-52" transform="translate(452.947266 0)"/>
      <use xlink:href="#DejaVuSerif-65" transform="translate(528.240234 0)"/>
      <use xlink:href="#DejaVuSerif-67" transform="translate(587.419922 0)"/>
      <use xlink:href="#DejaVuSerif-69" transform="translate(651.433594 0)"/>
      <use xlink:href="#DejaVuSerif-6f" transform="translate(683.416016 0)"/>
      <use xlink:href="#DejaVuSerif-6e" transform="translate(743.621094 0)"/>
     </g>
    </g>
    <g id="PathCollection_1">
     <defs>
      <path id="m066952b388" d="M 0 5 
C 1.326016 5 2.597899 4.473168 3.535534 3.535534 
C 4.473168 2.597899 5 1.326016 5 0 
C 5 -1.326016 4.473168 -2.597899 3.535534 -3.535534 
C 2.597899 -4.473168 1.326016 -5 0 -5 
C -1.326016 -5 -2.597899 -4.473168 -3.535534 -3.535534 
C -4.473168 -2.597899 -5 -1.326016 -5 0 
C -5 1.326016 -4.473168 2.597899 -3.535534 3.535534 
C -2.597899 4.473168 -1.326016 5 0 5 
z
" style="stroke:var(--white); stroke-width: 1.5"/>
     </defs>
     <g>
      <use xlink:href="#m066952b388" x="128.7735" y="94.525547" style="fill:var(--c1); stroke:var(--white); stroke-width: 1.5"/>
     </g>
    </g>
    <g id="text_21" class="text">
     <!-- Vertices -->
     <g transform="translate(146.7735 97.150547) scale(0.1 -0.1)">
      <defs>
       <path id="DejaVuSerif-56" d="M 1119 4331 
L 2497 750 
L 3872 4331 
L 3347 4331 
L 3347 4666 
L 4716 4666 
L 4716 4331 
L 4263 4331 
L 2597 0 
L 2059 0 
L 403 4331 
L -63 4331 
L -63 4666 
L 1638 4666 
L 1638 4331 
L 1119 4331 
z
" transform="scale(0.015625)"/>
       <path id="DejaVuSerif-72" d="M 3059 3328 
L 3059 2497 
L 2728 2497 
Q 2713 2744 2591 2866 
Q 2469 2988 2234 2988 
Q 1809 2988 1582 2694 
Q 1356 2400 1356 1850 
L 1356 331 
L 2022 331 
L 2022 0 
L 263 0 
L 263 331 
L 781 331 
L 781 2994 
L 231 2994 
L 231 3322 
L 1356 3322 
L 1356 2731 
Q 1525 3078 1790 3245 
Q 2056 3413 2438 3413 
Q 2578 3413 2733 3391 
Q 2888 3369 3059 3328 
z
" transform="scale(0.015625)"/>
       <path id="DejaVuSerif-74" d="M 691 2988 
L 184 2988 
L 184 3322 
L 691 3322 
L 691 4353 
L 1269 4353 
L 1269 3322 
L 2350 3322 
L 2350 2988 
L 1269 2988 
L 1269 878 
Q 1269 456 1350 337 
Q 1431 219 1650 219 
Q 1875 219 1978 351 
Q 2081 484 2088 781 
L 2522 781 
Q 2497 328 2275 118 
Q 2053 -91 1600 -91 
Q 1103 -91 897 129 
Q 691 350 691 878 
L 691 2988 
z
" transform="scale(0.015625)"/>
       <path id="DejaVuSerif-63" d="M 3291 997 
Q 3169 466 2822 187 
Q 2475 -91 1925 -91 
Q 1200 -91 759 389 
Q 319 869 319 1663 
Q 319 2459 759 2936 
Q 1200 3413 1925 3413 
Q 2241 3413 2553 3339 
Q 2866 3266 3181 3116 
L 3181 2266 
L 2847 2266 
Q 2781 2703 2561 2903 
Q 2341 3103 1931 3103 
Q 1466 3103 1228 2742 
Q 991 2381 991 1663 
Q 991 944 1227 581 
Q 1463 219 1931 219 
Q 2303 219 2525 412 
Q 2747 606 2828 997 
L 3291 997 
z
" transform="scale(0.015625)"/>
      </defs>
      <use xlink:href="#DejaVuSerif-56"/>
      <use xlink:href="#DejaVuSerif-65" transform="translate(63.091797 0)"/>
      <use xlink:href="#DejaVuSerif-72" transform="translate(122.271484 0)"/>
      <use xlink:href="#DejaVuSerif-74" transform="translate(170.074219 0)"/>
      <use xlink:href="#DejaVuSerif-69" transform="translate(210.259766 0)"/>
      <use xlink:href="#DejaVuSerif-63" transform="translate(242.242188 0)"/>
      <use xlink:href="#DejaVuSerif-65" transform="translate(298.248047 0)"/>
      <use xlink:href="#DejaVuSerif-73" transform="translate(357.427734 0)"/>
     </g>
    </g>
   </g>
   <g id="PathCollection_2">
    <g clip-path="url(#pac01bc6cd5)">
     <use xlink:href="#m066952b388" x="71.64575" y="171.953297" style="fill:var(--c1); stroke:var(--white); stroke-width: 1.5"/>
     <use xlink:href="#m066952b388" x="71.64575" y="124.829297" style="fill:var(--c1); stroke:var(--white); stroke-width: 1.5"/>
     <use xlink:href="#m066952b388" x="118.76975" y="171.953297" style="fill:var(--c1); stroke:var(--white); stroke-width: 1.5"/>
    </g>
   </g>
  </g>
 </g>
 <defs>
  <clipPath id="pac01bc6cd5">
   <rect x="48.08375" y="7.019297" width="188.496" height="188.496"/>
  </clipPath>
 </defs>
</svg>
