<?xml version="1.0" encoding="utf-8" standalone="no"?>
<!DOCTYPE svg PUBLIC "-//W3C//DTD SVG 1.1//EN"
  "http://www.w3.org/Graphics/SVG/1.1/DTD/svg11.dtd">
<svg xmlns:xlink="http://www.w3.org/1999/xlink" width="310.21175pt" height="230.439359pt" viewBox="0 0 310.21175 230.439359" xmlns="http://www.w3.org/2000/svg" version="1.1">
<style>:root { --axis-color:#000; --grid-stroke:rgba(0,0,0,0.2); --plot3d-stroke:rgba(0,0,0,0.3); --plot3d-grid:rgba(0,0,0,0.2); }
@media (prefers-color-scheme:dark) { :root { --axis-color:#fff; --grid-stroke:rgba(255,255,255,0.2); --plot3d-stroke:rgba(255,255,255,0.3); --plot3d-grid:rgba(255,255,255,0.2); } }
.black{fill:#000000;stroke:#000000;}:root{--black:#000000;}.c1{fill:#FF0001;stroke:#FF0001;}:root{--c1:#FF0001;}.c2{fill:#00FF02;stroke:#00FF02;}:root{--c2:#00FF02;}.c3{fill:#0000FF;stroke:#0000FF;}:root{--c3:#0000FF;}.c4{fill:#FF00FF;stroke:#FF00FF;}:root{--c4:#FF00FF;}.c5{fill:#00FFFF;stroke:#00FFFF;}:root{--c5:#00FFFF;}.c6{fill:#FFFF00;stroke:#FFFF00;}:root{--c6:#FFFF00;}.c7{fill:#FF8000;stroke:#FF8000;}:root{--c7:#FF8000;}.c8{fill:#8000FF;stroke:#8000FF;}:root{--c8:#8000FF;}.gray{fill:#7f7f7f;stroke:#7f7f7f;}:root{--gray:#7f7f7f;}.grey{fill:#7f7f7f;stroke:#7f7f7f;}:root{--grey:#7f7f7f;}.octonary{fill:#bcbd22;stroke:#bcbd22;}:root{--octonary:#bcbd22;}.primary{fill:#d62728;stroke:#d62728;}:root{--primary:#d62728;}.quaternary{fill:#9467bd;stroke:#9467bd;}:root{--quaternary:#9467bd;}.quinary{fill:#8c564b;stroke:#8c564b;}:root{--quinary:#8c564b;}.secondary{fill:#2ca02c;stroke:#2ca02c;}:root{--secondary:#2ca02c;}.senary{fill:#e377c2;stroke:#e377c2;}:root{--senary:#e377c2;}.septenary{fill:#7f7f7f;stroke:#7f7f7f;}:root{--septenary:#7f7f7f;}.tertiary{fill:#1f77b4;stroke:#1f77b4;}:root{--tertiary:#1f77b4;}.white{fill:#ffffff;stroke:#ffffff;}:root{--white:#ffffff;}
@media (prefers-color-scheme:dark) { .black{fill:#FFFFFF;stroke:#FFFFFF;}:root{--black:#FFFFFF;}.c1{fill:#FF0001;stroke:#FF0001;}:root{--c1:#FF0001;}.c2{fill:#00FF02;stroke:#00FF02;}:root{--c2:#00FF02;}.c3{fill:#0000FF;stroke:#0000FF;}:root{--c3:#0000FF;}.c4{fill:#FF00FF;stroke:#FF00FF;}:root{--c4:#FF00FF;}.c5{fill:#00FFFF;stroke:#00FFFF;}:root{--c5:#00FFFF;}.c6{fill:#FFFF00;stroke:#FFFF00;}:root{--c6:#FFFF00;}.c7{fill:#FF8000;stroke:#FF8000;}:root{--c7:#FF8000;}.c8{fill:#8000FF;stroke:#8000FF;}:root{--c8:#8000FF;}.gray{fill:#CCCCCC;stroke:#CCCCCC;}:root{--gray:#CCCCCC;}.grey{fill:#CCCCCC;stroke:#CCCCCC;}:root{--grey:#CCCCCC;}.octonary{fill:#E6DB74;stroke:#E6DB74;}:root{--octonary:#E6DB74;}.primary{fill:#FF4A98;stroke:#FF4A98;}:root{--primary:#FF4A98;}.quaternary{fill:#B4A0FF;stroke:#B4A0FF;}:root{--quaternary:#B4A0FF;}.quinary{fill:#FFB86B;stroke:#FFB86B;}:root{--quinary:#FFB86B;}.secondary{fill:#0AFAFA;stroke:#0AFAFA;}:root{--secondary:#0AFAFA;}.senary{fill:#FF79C6;stroke:#FF79C6;}:root{--senary:#FF79C6;}.septenary{fill:#CCCCCC;stroke:#CCCCCC;}:root{--septenary:#CCCCCC;}.tertiary{fill:#7F83FF;stroke:#7F83FF;}:root{--tertiary:#7F83FF;}.white{fill:#000000;stroke:#000000;}:root{--white:#000000;} }
text,.text { fill:var(--axis-color)!important; stroke:none!important; }
.axis line,.axis path,.tick line,.tick path,path.domain,line.grid { stroke:var(--axis-color)!important; }
.legend text { fill:var(--axis-color)!important; }
.patch path[style*="stroke: currentColor"] { stroke:var(--axis-color)!important; }
g.legend>g:first-child>path:first-child { fill:rgba(255,255,255,0.8)!important; stroke:rgba(0,0,0,0.1)!important; }
@media (prefers-color-scheme:dark) { g.legend>g:first-child>path:first-child { fill:rgba(26,26,26,0.8)!important; stroke:rgba(255,255,255,0.1)!important; } }
.plot3d path,.plot3d polygon { stroke:var(--plot3d-stroke)!important; }
.plot3d-grid line { stroke:var(--plot3d-grid)!important; }
.plot3d-surface path[style*="fill:"] { fill-opacity:0.9!important; }
@media (prefers-color-scheme:dark) { .plot3d-surface path[style*="fill:"] { fill-opacity:0.95!important; filter:saturate(1.2)!important; } }</style>

 <metadata>
  <rdf:RDF xmlns:dc="http://purl.org/dc/elements/1.1/" xmlns:cc="http://creativecommons.org/ns#" xmlns:rdf="http://www.w3.org/1999/02/22-rdf-syntax-ns#">
   <cc:Work>
    <dc:type rdf:resource="http://purl.org/dc/dcmitype/StillImage"/>
    <dc:date>2026-05-06T23:46:23.894529</dc:date>
    <dc:format>image/svg+xml</dc:format>
    <dc:creator>
     <cc:Agent>
      <dc:title>Matplotlib v3.10.1, https://matplotlib.org/</dc:title>
     </cc:Agent>
    </dc:creator>
   </cc:Work>
  </rdf:RDF>
 </metadata>
 <defs>
  <style type="text/css">*{stroke-linejoin: round; stroke-linecap: butt}</style>
 </defs>
 <g id="figure_1">
  <g class="patch">
   <path d="M 0 230.439359 
L 310.21175 230.439359 
L 310.21175 0 
L 0 0 
L 0 230.439359 
z
" style="fill: none"/>
  </g>
  <g id="axes_1">
   <g class="patch">
    <path d="M 48.08375 195.515297 
L 299.41175 195.515297 
L 299.41175 7.019297 
L 48.08375 7.019297 
L 48.08375 195.515297 
z
" style="fill: none"/>
   </g>
   <g class="axis">
    <g class="tick xtick">
     <g id="line2d_1">
      <path d="M 48.08375 195.515297 
L 48.08375 7.019297 
" clip-path="url(#p3a85ba887c)" style="fill: none; stroke: #b0b0b0; stroke-opacity: 0.15; stroke-width: 0.5; stroke-linecap: square"/>
     </g>
     <g id="line2d_2">
      <defs>
       <path id="mca011cba08" d="M 0 0 
L 0 3.5 
" style="stroke:var(--black); stroke-width: 0.8"/>
      </defs>
      <g>
       <use xlink:href="#mca011cba08" x="48.08375" y="195.515297" style="stroke:var(--black); stroke-width: 0.8"/>
      </g>
     </g>
     <g id="text_1" class="text">
      <!-- $\mathdefault{−2.0}$ -->
      <g transform="translate(37.14875 209.353891) scale(0.09 -0.09)">
       <defs>
        <path id="DejaVuSerif-2212" d="M 678 2259 
L 4684 2259 
L 4684 1753 
L 678 1753 
L 678 2259 
z
" transform="scale(0.015625)"/>
        <path id="DejaVuSerif-32" d="M 819 3553 
L 469 3553 
L 469 4384 
Q 803 4563 1142 4656 
Q 1481 4750 1806 4750 
Q 2534 4750 2956 4397 
Q 3378 4044 3378 3438 
Q 3378 2753 2422 1800 
Q 2347 1728 2309 1691 
L 1131 513 
L 3078 513 
L 3078 1088 
L 3444 1088 
L 3444 0 
L 434 0 
L 434 341 
L 1850 1753 
Q 2319 2222 2519 2614 
Q 2719 3006 2719 3438 
Q 2719 3909 2473 4175 
Q 2228 4441 1797 4441 
Q 1350 4441 1106 4219 
Q 863 3997 819 3553 
z
" transform="scale(0.015625)"/>
        <path id="DejaVuSerif-2e" d="M 603 325 
Q 603 500 722 622 
Q 841 744 1019 744 
Q 1191 744 1312 622 
Q 1434 500 1434 325 
Q 1434 153 1312 31 
Q 1191 -91 1019 -91 
Q 841 -91 722 29 
Q 603 150 603 325 
z
" transform="scale(0.015625)"/>
        <path id="DejaVuSerif-30" d="M 2034 219 
Q 2513 219 2750 744 
Q 2988 1269 2988 2328 
Q 2988 3391 2750 3916 
Q 2513 4441 2034 4441 
Q 1556 4441 1318 3916 
Q 1081 3391 1081 2328 
Q 1081 1269 1318 744 
Q 1556 219 2034 219 
z
M 2034 -91 
Q 1275 -91 848 546 
Q 422 1184 422 2328 
Q 422 3475 848 4112 
Q 1275 4750 2034 4750 
Q 2797 4750 3222 4112 
Q 3647 3475 3647 2328 
Q 3647 1184 3222 546 
Q 2797 -91 2034 -91 
z
" transform="scale(0.015625)"/>
       </defs>
       <use xlink:href="#DejaVuSerif-2212" transform="translate(0 0.78125)"/>
       <use xlink:href="#DejaVuSerif-32" transform="translate(83.789062 0.78125)"/>
       <use xlink:href="#DejaVuSerif-2e" transform="translate(147.412109 0.78125)"/>
       <use xlink:href="#DejaVuSerif-30" transform="translate(179.199219 0.78125)"/>
      </g>
     </g>
    </g>
    <g class="tick xtick">
     <g id="line2d_3">
      <path d="M 79.49975 195.515297 
L 79.49975 7.019297 
" clip-path="url(#p3a85ba887c)" style="fill: none; stroke: #b0b0b0; stroke-opacity: 0.15; stroke-width: 0.5; stroke-linecap: square"/>
     </g>
     <g id="line2d_4">
      <g>
       <use xlink:href="#mca011cba08" x="79.49975" y="195.515297" style="stroke:var(--black); stroke-width: 0.8"/>
      </g>
     </g>
     <g id="text_2" class="text">
      <!-- $\mathdefault{−1.5}$ -->
      <g transform="translate(68.56475 209.353891) scale(0.09 -0.09)">
       <defs>
        <path id="DejaVuSerif-31" d="M 909 0 
L 909 331 
L 1722 331 
L 1722 4213 
L 781 3603 
L 781 4013 
L 1919 4750 
L 2350 4750 
L 2350 331 
L 3163 331 
L 3163 0 
L 909 0 
z
" transform="scale(0.015625)"/>
        <path id="DejaVuSerif-35" d="M 3219 4666 
L 3219 4153 
L 1081 4153 
L 1081 2816 
Q 1244 2928 1461 2984 
Q 1678 3041 1947 3041 
Q 2703 3041 3140 2622 
Q 3578 2203 3578 1478 
Q 3578 738 3136 323 
Q 2694 -91 1894 -91 
Q 1572 -91 1234 -12 
Q 897 66 544 225 
L 544 1131 
L 897 1131 
Q 925 688 1179 453 
Q 1434 219 1894 219 
Q 2388 219 2653 544 
Q 2919 869 2919 1478 
Q 2919 2084 2655 2407 
Q 2391 2731 1894 2731 
Q 1613 2731 1398 2631 
Q 1184 2531 1019 2322 
L 750 2322 
L 750 4666 
L 3219 4666 
z
" transform="scale(0.015625)"/>
       </defs>
       <use xlink:href="#DejaVuSerif-2212" transform="translate(0 0.78125)"/>
       <use xlink:href="#DejaVuSerif-31" transform="translate(83.789062 0.78125)"/>
       <use xlink:href="#DejaVuSerif-2e" transform="translate(147.412109 0.78125)"/>
       <use xlink:href="#DejaVuSerif-35" transform="translate(179.199219 0.78125)"/>
      </g>
     </g>
    </g>
    <g class="tick xtick">
     <g id="line2d_5">
      <path d="M 110.91575 195.515297 
L 110.91575 7.019297 
" clip-path="url(#p3a85ba887c)" style="fill: none; stroke: #b0b0b0; stroke-opacity: 0.15; stroke-width: 0.5; stroke-linecap: square"/>
     </g>
     <g id="line2d_6">
      <g>
       <use xlink:href="#mca011cba08" x="110.91575" y="195.515297" style="stroke:var(--black); stroke-width: 0.8"/>
      </g>
     </g>
     <g id="text_3" class="text">
      <!-- $\mathdefault{−1.0}$ -->
      <g transform="translate(99.98075 209.353891) scale(0.09 -0.09)">
       <use xlink:href="#DejaVuSerif-2212" transform="translate(0 0.78125)"/>
       <use xlink:href="#DejaVuSerif-31" transform="translate(83.789062 0.78125)"/>
       <use xlink:href="#DejaVuSerif-2e" transform="translate(147.412109 0.78125)"/>
       <use xlink:href="#DejaVuSerif-30" transform="translate(179.199219 0.78125)"/>
      </g>
     </g>
    </g>
    <g class="tick xtick">
     <g id="line2d_7">
      <path d="M 142.33175 195.515297 
L 142.33175 7.019297 
" clip-path="url(#p3a85ba887c)" style="fill: none; stroke: #b0b0b0; stroke-opacity: 0.15; stroke-width: 0.5; stroke-linecap: square"/>
     </g>
     <g id="line2d_8">
      <g>
       <use xlink:href="#mca011cba08" x="142.33175" y="195.515297" style="stroke:var(--black); stroke-width: 0.8"/>
      </g>
     </g>
     <g id="text_4" class="text">
      <!-- $\mathdefault{−0.5}$ -->
      <g transform="translate(131.39675 209.353891) scale(0.09 -0.09)">
       <use xlink:href="#DejaVuSerif-2212" transform="translate(0 0.78125)"/>
       <use xlink:href="#DejaVuSerif-30" transform="translate(83.789062 0.78125)"/>
       <use xlink:href="#DejaVuSerif-2e" transform="translate(147.412109 0.78125)"/>
       <use xlink:href="#DejaVuSerif-35" transform="translate(179.199219 0.78125)"/>
      </g>
     </g>
    </g>
    <g class="tick xtick">
     <g id="line2d_9">
      <path d="M 173.74775 195.515297 
L 173.74775 7.019297 
" clip-path="url(#p3a85ba887c)" style="fill: none; stroke: #b0b0b0; stroke-opacity: 0.15; stroke-width: 0.5; stroke-linecap: square"/>
     </g>
     <g id="line2d_10">
      <g>
       <use xlink:href="#mca011cba08" x="173.74775" y="195.515297" style="stroke:var(--black); stroke-width: 0.8"/>
      </g>
     </g>
     <g id="text_5" class="text">
      <!-- $\mathdefault{0.0}$ -->
      <g transform="translate(166.54775 209.353891) scale(0.09 -0.09)">
       <use xlink:href="#DejaVuSerif-30" transform="translate(0 0.78125)"/>
       <use xlink:href="#DejaVuSerif-2e" transform="translate(63.623047 0.78125)"/>
       <use xlink:href="#DejaVuSerif-30" transform="translate(95.410156 0.78125)"/>
      </g>
     </g>
    </g>
    <g class="tick xtick">
     <g id="line2d_11">
      <path d="M 205.16375 195.515297 
L 205.16375 7.019297 
" clip-path="url(#p3a85ba887c)" style="fill: none; stroke: #b0b0b0; stroke-opacity: 0.15; stroke-width: 0.5; stroke-linecap: square"/>
     </g>
     <g id="line2d_12">
      <g>
       <use xlink:href="#mca011cba08" x="205.16375" y="195.515297" style="stroke:var(--black); stroke-width: 0.8"/>
      </g>
     </g>
     <g id="text_6" class="text">
      <!-- $\mathdefault{0.5}$ -->
      <g transform="translate(197.96375 209.353891) scale(0.09 -0.09)">
       <use xlink:href="#DejaVuSerif-30" transform="translate(0 0.78125)"/>
       <use xlink:href="#DejaVuSerif-2e" transform="translate(63.623047 0.78125)"/>
       <use xlink:href="#DejaVuSerif-35" transform="translate(95.410156 0.78125)"/>
      </g>
     </g>
    </g>
    <g class="tick xtick">
     <g id="line2d_13">
      <path d="M 236.57975 195.515297 
L 236.57975 7.019297 
" clip-path="url(#p3a85ba887c)" style="fill: none; stroke: #b0b0b0; stroke-opacity: 0.15; stroke-width: 0.5; stroke-linecap: square"/>
     </g>
     <g id="line2d_14">
      <g>
       <use xlink:href="#mca011cba08" x="236.57975" y="195.515297" style="stroke:var(--black); stroke-width: 0.8"/>
      </g>
     </g>
     <g id="text_7" class="text">
      <!-- $\mathdefault{1.0}$ -->
      <g transform="translate(229.37975 209.353891) scale(0.09 -0.09)">
       <use xlink:href="#DejaVuSerif-31" transform="translate(0 0.78125)"/>
       <use xlink:href="#DejaVuSerif-2e" transform="translate(63.623047 0.78125)"/>
       <use xlink:href="#DejaVuSerif-30" transform="translate(95.410156 0.78125)"/>
      </g>
     </g>
    </g>
    <g class="tick xtick">
     <g id="line2d_15">
      <path d="M 267.99575 195.515297 
L 267.99575 7.019297 
" clip-path="url(#p3a85ba887c)" style="fill: none; stroke: #b0b0b0; stroke-opacity: 0.15; stroke-width: 0.5; stroke-linecap: square"/>
     </g>
     <g id="line2d_16">
      <g>
       <use xlink:href="#mca011cba08" x="267.99575" y="195.515297" style="stroke:var(--black); stroke-width: 0.8"/>
      </g>
     </g>
     <g id="text_8" class="text">
      <!-- $\mathdefault{1.5}$ -->
      <g transform="translate(260.79575 209.353891) scale(0.09 -0.09)">
       <use xlink:href="#DejaVuSerif-31" transform="translate(0 0.78125)"/>
       <use xlink:href="#DejaVuSerif-2e" transform="translate(63.623047 0.78125)"/>
       <use xlink:href="#DejaVuSerif-35" transform="translate(95.410156 0.78125)"/>
      </g>
     </g>
    </g>
    <g class="tick xtick">
     <g id="line2d_17">
      <path d="M 299.41175 195.515297 
L 299.41175 7.019297 
" clip-path="url(#p3a85ba887c)" style="fill: none; stroke: #b0b0b0; stroke-opacity: 0.15; stroke-width: 0.5; stroke-linecap: square"/>
     </g>
     <g id="line2d_18">
      <g>
       <use xlink:href="#mca011cba08" x="299.41175" y="195.515297" style="stroke:var(--black); stroke-width: 0.8"/>
      </g>
     </g>
     <g id="text_9" class="text">
      <!-- $\mathdefault{2.0}$ -->
      <g transform="translate(292.21175 209.353891) scale(0.09 -0.09)">
       <use xlink:href="#DejaVuSerif-32" transform="translate(0 0.78125)"/>
       <use xlink:href="#DejaVuSerif-2e" transform="translate(63.623047 0.78125)"/>
       <use xlink:href="#DejaVuSerif-30" transform="translate(95.410156 0.78125)"/>
      </g>
     </g>
    </g>
    <g id="text_10" class="text">
     <!-- $x_1$ -->
     <g transform="translate(167.80775 224.343734) scale(0.12 -0.12)">
      <defs>
       <path id="Cmmi10-78" d="M 500 184 
Q 613 97 819 97 
Q 1019 97 1172 289 
Q 1325 481 1381 709 
L 1672 1844 
Q 1741 2153 1741 2266 
Q 1741 2425 1652 2544 
Q 1563 2663 1403 2663 
Q 1200 2663 1022 2536 
Q 844 2409 722 2214 
Q 600 2019 550 1819 
Q 538 1778 500 1778 
L 422 1778 
Q 372 1778 372 1838 
L 372 1856 
Q 434 2094 584 2320 
Q 734 2547 951 2687 
Q 1169 2828 1416 2828 
Q 1650 2828 1839 2703 
Q 2028 2578 2106 2363 
Q 2216 2559 2386 2693 
Q 2556 2828 2759 2828 
Q 2897 2828 3040 2779 
Q 3184 2731 3275 2631 
Q 3366 2531 3366 2381 
Q 3366 2219 3261 2101 
Q 3156 1984 2994 1984 
Q 2891 1984 2822 2050 
Q 2753 2116 2753 2216 
Q 2753 2350 2845 2451 
Q 2938 2553 3066 2572 
Q 2950 2663 2747 2663 
Q 2541 2663 2389 2472 
Q 2238 2281 2175 2047 
L 1894 916 
Q 1825 659 1825 494 
Q 1825 331 1917 214 
Q 2009 97 2163 97 
Q 2463 97 2698 361 
Q 2934 625 3009 941 
Q 3022 978 3059 978 
L 3138 978 
Q 3163 978 3178 961 
Q 3194 944 3194 922 
Q 3194 916 3188 903 
Q 3097 522 2806 225 
Q 2516 -72 2150 -72 
Q 1916 -72 1727 54 
Q 1538 181 1459 397 
Q 1359 209 1182 68 
Q 1006 -72 806 -72 
Q 669 -72 523 -23 
Q 378 25 287 125 
Q 197 225 197 378 
Q 197 528 301 651 
Q 406 775 563 775 
Q 669 775 741 711 
Q 813 647 813 544 
Q 813 409 723 309 
Q 634 209 500 184 
z
" transform="scale(0.015625)"/>
       <path id="Cmr10-31" d="M 594 0 
L 594 225 
Q 1394 225 1394 428 
L 1394 3788 
Q 1063 3628 556 3628 
L 556 3853 
Q 1341 3853 1741 4263 
L 1831 4263 
Q 1853 4263 1873 4245 
Q 1894 4228 1894 4206 
L 1894 428 
Q 1894 225 2694 225 
L 2694 0 
L 594 0 
z
" transform="scale(0.015625)"/>
      </defs>
      <use xlink:href="#Cmmi10-78" transform="translate(0 0.8125)"/>
      <use xlink:href="#Cmr10-31" transform="translate(57.080078 -16.19375) scale(0.7)"/>
     </g>
    </g>
   </g>
   <g class="axis">
    <g class="tick ytick">
     <g id="line2d_19">
      <path d="M 48.08375 195.515297 
L 299.41175 195.515297 
" clip-path="url(#p3a85ba887c)" style="fill: none; stroke: #b0b0b0; stroke-opacity: 0.15; stroke-width: 0.5; stroke-linecap: square"/>
     </g>
     <g id="line2d_20">
      <defs>
       <path id="m672f642793" d="M 0 0 
L -3.5 0 
" style="stroke:var(--black); stroke-width: 0.8"/>
      </defs>
      <g>
       <use xlink:href="#m672f642793" x="48.08375" y="195.515297" style="stroke:var(--black); stroke-width: 0.8"/>
      </g>
     </g>
     <g id="text_11" class="text">
      <!-- $\mathdefault{−1.0}$ -->
      <g transform="translate(19.21375 198.934594) scale(0.09 -0.09)">
       <use xlink:href="#DejaVuSerif-2212" transform="translate(0 0.78125)"/>
       <use xlink:href="#DejaVuSerif-31" transform="translate(83.789062 0.78125)"/>
       <use xlink:href="#DejaVuSerif-2e" transform="translate(147.412109 0.78125)"/>
       <use xlink:href="#DejaVuSerif-30" transform="translate(179.199219 0.78125)"/>
      </g>
     </g>
    </g>
    <g class="tick ytick">
     <g id="line2d_21">
      <path d="M 48.08375 164.099297 
L 299.41175 164.099297 
" clip-path="url(#p3a85ba887c)" style="fill: none; stroke: #b0b0b0; stroke-opacity: 0.15; stroke-width: 0.5; stroke-linecap: square"/>
     </g>
     <g id="line2d_22">
      <g>
       <use xlink:href="#m672f642793" x="48.08375" y="164.099297" style="stroke:var(--black); stroke-width: 0.8"/>
      </g>
     </g>
     <g id="text_12" class="text">
      <!-- $\mathdefault{−0.5}$ -->
      <g transform="translate(19.21375 167.518594) scale(0.09 -0.09)">
       <use xlink:href="#DejaVuSerif-2212" transform="translate(0 0.78125)"/>
       <use xlink:href="#DejaVuSerif-30" transform="translate(83.789062 0.78125)"/>
       <use xlink:href="#DejaVuSerif-2e" transform="translate(147.412109 0.78125)"/>
       <use xlink:href="#DejaVuSerif-35" transform="translate(179.199219 0.78125)"/>
      </g>
     </g>
    </g>
    <g class="tick ytick">
     <g id="line2d_23">
      <path d="M 48.08375 132.683297 
L 299.41175 132.683297 
" clip-path="url(#p3a85ba887c)" style="fill: none; stroke: #b0b0b0; stroke-opacity: 0.15; stroke-width: 0.5; stroke-linecap: square"/>
     </g>
     <g id="line2d_24">
      <g>
       <use xlink:href="#m672f642793" x="48.08375" y="132.683297" style="stroke:var(--black); stroke-width: 0.8"/>
      </g>
     </g>
     <g id="text_13" class="text">
      <!-- $\mathdefault{0.0}$ -->
      <g transform="translate(26.68375 136.102594) scale(0.09 -0.09)">
       <use xlink:href="#DejaVuSerif-30" transform="translate(0 0.78125)"/>
       <use xlink:href="#DejaVuSerif-2e" transform="translate(63.623047 0.78125)"/>
       <use xlink:href="#DejaVuSerif-30" transform="translate(95.410156 0.78125)"/>
      </g>
     </g>
    </g>
    <g class="tick ytick">
     <g id="line2d_25">
      <path d="M 48.08375 101.267297 
L 299.41175 101.267297 
" clip-path="url(#p3a85ba887c)" style="fill: none; stroke: #b0b0b0; stroke-opacity: 0.15; stroke-width: 0.5; stroke-linecap: square"/>
     </g>
     <g id="line2d_26">
      <g>
       <use xlink:href="#m672f642793" x="48.08375" y="101.267297" style="stroke:var(--black); stroke-width: 0.8"/>
      </g>
     </g>
     <g id="text_14" class="text">
      <!-- $\mathdefault{0.5}$ -->
      <g transform="translate(26.68375 104.686594) scale(0.09 -0.09)">
       <use xlink:href="#DejaVuSerif-30" transform="translate(0 0.78125)"/>
       <use xlink:href="#DejaVuSerif-2e" transform="translate(63.623047 0.78125)"/>
       <use xlink:href="#DejaVuSerif-35" transform="translate(95.410156 0.78125)"/>
      </g>
     </g>
    </g>
    <g class="tick ytick">
     <g id="line2d_27">
      <path d="M 48.08375 69.851297 
L 299.41175 69.851297 
" clip-path="url(#p3a85ba887c)" style="fill: none; stroke: #b0b0b0; stroke-opacity: 0.15; stroke-width: 0.5; stroke-linecap: square"/>
     </g>
     <g id="line2d_28">
      <g>
       <use xlink:href="#m672f642793" x="48.08375" y="69.851297" style="stroke:var(--black); stroke-width: 0.8"/>
      </g>
     </g>
     <g id="text_15" class="text">
      <!-- $\mathdefault{1.0}$ -->
      <g transform="translate(26.68375 73.270594) scale(0.09 -0.09)">
       <use xlink:href="#DejaVuSerif-31" transform="translate(0 0.78125)"/>
       <use xlink:href="#DejaVuSerif-2e" transform="translate(63.623047 0.78125)"/>
       <use xlink:href="#DejaVuSerif-30" transform="translate(95.410156 0.78125)"/>
      </g>
     </g>
    </g>
    <g class="tick ytick">
     <g id="line2d_29">
      <path d="M 48.08375 38.435297 
L 299.41175 38.435297 
" clip-path="url(#p3a85ba887c)" style="fill: none; stroke: #b0b0b0; stroke-opacity: 0.15; stroke-width: 0.5; stroke-linecap: square"/>
     </g>
     <g id="line2d_30">
      <g>
       <use xlink:href="#m672f642793" x="48.08375" y="38.435297" style="stroke:var(--black); stroke-width: 0.8"/>
      </g>
     </g>
     <g id="text_16" class="text">
      <!-- $\mathdefault{1.5}$ -->
      <g transform="translate(26.68375 41.854594) scale(0.09 -0.09)">
       <use xlink:href="#DejaVuSerif-31" transform="translate(0 0.78125)"/>
       <use xlink:href="#DejaVuSerif-2e" transform="translate(63.623047 0.78125)"/>
       <use xlink:href="#DejaVuSerif-35" transform="translate(95.410156 0.78125)"/>
      </g>
     </g>
    </g>
    <g class="tick ytick">
     <g id="line2d_31">
      <path d="M 48.08375 7.019297 
L 299.41175 7.019297 
" clip-path="url(#p3a85ba887c)" style="fill: none; stroke: #b0b0b0; stroke-opacity: 0.15; stroke-width: 0.5; stroke-linecap: square"/>
     </g>
     <g id="line2d_32">
      <g>
       <use xlink:href="#m672f642793" x="48.08375" y="7.019297" style="stroke:var(--black); stroke-width: 0.8"/>
      </g>
     </g>
     <g id="text_17" class="text">
      <!-- $\mathdefault{2.0}$ -->
      <g transform="translate(26.68375 10.438594) scale(0.09 -0.09)">
       <use xlink:href="#DejaVuSerif-32" transform="translate(0 0.78125)"/>
       <use xlink:href="#DejaVuSerif-2e" transform="translate(63.623047 0.78125)"/>
       <use xlink:href="#DejaVuSerif-30" transform="translate(95.410156 0.78125)"/>
      </g>
     </g>
    </g>
    <g id="text_18" class="text">
     <!-- $x_2$ -->
     <g transform="translate(12.718125 107.207297) rotate(-90) scale(0.12 -0.12)">
      <defs>
       <path id="Cmr10-32" d="M 319 0 
L 319 172 
Q 319 188 331 206 
L 1325 1306 
Q 1550 1550 1690 1715 
Q 1831 1881 1968 2097 
Q 2106 2313 2186 2536 
Q 2266 2759 2266 3009 
Q 2266 3272 2169 3511 
Q 2072 3750 1880 3894 
Q 1688 4038 1416 4038 
Q 1138 4038 916 3870 
Q 694 3703 603 3438 
Q 628 3444 672 3444 
Q 816 3444 917 3347 
Q 1019 3250 1019 3097 
Q 1019 2950 917 2848 
Q 816 2747 672 2747 
Q 522 2747 420 2851 
Q 319 2956 319 3097 
Q 319 3338 409 3548 
Q 500 3759 670 3923 
Q 841 4088 1055 4175 
Q 1269 4263 1509 4263 
Q 1875 4263 2190 4108 
Q 2506 3953 2690 3670 
Q 2875 3388 2875 3009 
Q 2875 2731 2753 2481 
Q 2631 2231 2440 2026 
Q 2250 1822 1953 1562 
Q 1656 1303 1563 1216 
L 838 519 
L 1453 519 
Q 1906 519 2211 526 
Q 2516 534 2534 550 
Q 2609 631 2688 1141 
L 2875 1141 
L 2694 0 
L 319 0 
z
" transform="scale(0.015625)"/>
      </defs>
      <use xlink:href="#Cmmi10-78" transform="translate(0 0.8125)"/>
      <use xlink:href="#Cmr10-32" transform="translate(57.080078 -16.19375) scale(0.7)"/>
     </g>
    </g>
   </g>
   <g id="QuadContourSet_1">
    <path d="M 186.660592 132.447086 
L 187.290487 132.447086 
L 187.920382 132.447086 
L 188.550276 132.447086 
L 189.180171 132.447086 
L 189.810066 132.447086 
L 190.439961 132.447086 
L 191.069855 132.447086 
L 191.69975 132.447086 
L 192.329645 132.447086 
L 192.959539 132.447086 
L 193.589434 132.447086 
L 194.219329 132.447086 
L 194.849224 132.447086 
L 195.479118 132.447086 
L 196.109013 132.447086 
L 196.738908 132.447086 
L 197.368803 132.447086 
L 197.68375 132.210876 
L 197.998697 131.974665 
L 198.628592 131.974665 
L 199.258487 131.974665 
L 199.888382 131.974665 
L 200.518276 131.974665 
L 200.833224 131.738455 
L 201.148171 131.502244 
L 201.778066 131.502244 
L 202.407961 131.502244 
L 203.037855 131.502244 
L 203.352803 131.266034 
L 203.66775 131.029823 
L 204.297645 131.029823 
L 204.612592 130.793613 
L 204.927539 130.557402 
L 205.557434 130.557402 
L 206.187329 130.557402 
L 206.502276 130.321192 
L 206.817224 130.084981 
L 207.447118 130.084981 
L 207.762066 129.848771 
L 208.077013 129.61256 
L 208.391961 129.37635 
L 208.706908 129.140139 
L 209.336803 129.140139 
L 209.65175 128.903928 
L 209.966697 128.667718 
L 210.281645 128.431507 
L 210.596592 128.195297 
L 210.911539 127.959086 
L 211.226487 127.722876 
L 211.856382 127.722876 
L 212.171329 127.486665 
L 212.486276 127.250455 
L 212.801224 127.014244 
L 213.116171 126.778034 
L 213.431118 126.541823 
L 213.746066 126.305613 
L 214.061013 126.069402 
L 214.061013 125.596981 
L 214.375961 125.360771 
L 214.690908 125.12456 
L 215.005855 124.88835 
L 215.320803 124.652139 
L 215.63575 124.415928 
L 215.950697 124.179718 
L 216.265645 123.943507 
L 216.580592 123.707297 
L 216.580592 123.234876 
L 216.895539 122.998665 
L 217.210487 122.762455 
L 217.525434 122.526244 
L 217.840382 122.290034 
L 217.840382 121.817613 
L 218.155329 121.581402 
L 218.470276 121.345192 
L 218.470276 120.872771 
L 218.785224 120.63656 
L 219.100171 120.40035 
L 219.415118 120.164139 
L 219.730066 119.927928 
L 219.730066 119.455507 
L 220.045013 119.219297 
L 220.359961 118.983086 
L 220.359961 118.510665 
L 220.674908 118.274455 
L 220.989855 118.038244 
L 220.989855 117.565823 
L 220.989855 117.093402 
L 221.304803 116.857192 
L 221.61975 116.620981 
L 221.61975 116.14856 
L 221.934697 115.91235 
L 222.249645 115.676139 
L 222.249645 115.203718 
L 222.564592 114.967507 
L 222.879539 114.731297 
L 222.879539 114.258876 
L 222.879539 113.786455 
L 223.194487 113.550244 
L 223.509434 113.314034 
L 223.509434 112.841613 
L 223.824382 112.605402 
L 224.139329 112.369192 
L 224.139329 111.896771 
L 224.139329 111.42435 
L 224.454276 111.188139 
L 224.769224 110.951928 
L 224.769224 110.479507 
L 224.769224 110.007086 
L 225.084171 109.770876 
L 225.399118 109.534665 
L 225.399118 109.062244 
L 225.399118 108.589823 
L 225.714066 108.353613 
L 226.029013 108.117402 
L 226.029013 107.644981 
L 226.029013 107.17256 
L 226.343961 106.93635 
L 226.658908 106.700139 
L 226.658908 106.227718 
L 226.658908 105.755297 
L 226.658908 105.282876 
L 226.973855 105.046665 
L 227.288803 104.810455 
L 227.288803 104.338034 
L 227.288803 103.865613 
L 227.60375 103.629402 
L 227.918697 103.393192 
L 227.918697 102.920771 
L 227.918697 102.44835 
L 227.918697 101.975928 
L 228.233645 101.739718 
L 228.548592 101.503507 
L 228.548592 101.031086 
L 228.548592 100.558665 
L 228.548592 100.086244 
L 228.863539 99.850034 
L 229.178487 99.613823 
L 229.178487 99.141402 
L 229.178487 98.668981 
L 229.178487 98.19656 
L 229.493434 97.96035 
L 229.808382 97.724139 
L 229.808382 97.251718 
L 229.808382 96.779297 
L 229.808382 96.306876 
L 230.123329 96.070665 
L 230.438276 95.834455 
L 230.438276 95.362034 
L 230.438276 94.889613 
L 230.438276 94.417192 
L 230.753224 94.180981 
L 231.068171 93.944771 
L 231.068171 93.47235 
L 231.068171 92.999928 
L 231.068171 92.527507 
L 231.068171 92.055086 
L 231.383118 91.818876 
L 231.698066 91.582665 
L 231.698066 91.110244 
L 231.698066 90.637823 
L 231.698066 90.165402 
L 231.698066 89.692981 
L 232.013013 89.456771 
L 232.327961 89.22056 
L 232.327961 88.748139 
L 232.327961 88.275718 
L 232.327961 87.803297 
L 232.327961 87.330876 
L 232.642908 87.094665 
L 232.957855 86.858455 
L 232.957855 86.386034 
L 232.957855 85.913613 
L 232.957855 85.441192 
L 232.957855 84.968771 
L 233.272803 84.73256 
L 233.58775 84.49635 
L 233.58775 84.023928 
L 233.58775 83.551507 
L 233.58775 83.079086 
L 233.58775 82.606665 
L 233.902697 82.370455 
L 234.217645 82.134244 
L 234.217645 81.661823 
L 234.217645 81.189402 
L 234.217645 80.716981 
L 234.217645 80.24456 
L 234.217645 79.772139 
L 234.532592 79.535928 
L 234.847539 79.299718 
L 234.847539 78.827297 
L 234.847539 78.354876 
L 234.847539 77.882455 
L 234.847539 77.410034 
L 234.847539 76.937613 
L 235.162487 76.701402 
L 235.477434 76.465192 
L 235.477434 75.992771 
L 235.477434 75.52035 
L 235.477434 75.047928 
L 235.477434 74.575507 
L 235.477434 74.103086 
L 235.162487 73.866876 
L 234.847539 74.103086 
L 234.847539 74.575507 
L 234.847539 75.047928 
L 234.847539 75.52035 
L 234.532592 75.75656 
L 234.217645 75.992771 
L 234.217645 76.465192 
L 234.217645 76.937613 
L 234.217645 77.410034 
L 233.902697 77.646244 
L 233.58775 77.882455 
L 233.58775 78.354876 
L 233.58775 78.827297 
L 233.272803 79.063507 
L 232.957855 79.299718 
L 232.957855 79.772139 
L 232.957855 80.24456 
L 232.957855 80.716981 
L 232.642908 80.953192 
L 232.327961 81.189402 
L 232.327961 81.661823 
L 232.327961 82.134244 
L 232.013013 82.370455 
L 231.698066 82.606665 
L 231.698066 83.079086 
L 231.698066 83.551507 
L 231.698066 84.023928 
L 231.383118 84.260139 
L 231.068171 84.49635 
L 231.068171 84.968771 
L 231.068171 85.441192 
L 230.753224 85.677402 
L 230.438276 85.913613 
L 230.438276 86.386034 
L 230.438276 86.858455 
L 230.123329 87.094665 
L 229.808382 87.330876 
L 229.808382 87.803297 
L 229.808382 88.275718 
L 229.808382 88.748139 
L 229.493434 88.98435 
L 229.178487 89.22056 
L 229.178487 89.692981 
L 229.178487 90.165402 
L 228.863539 90.401613 
L 228.548592 90.637823 
L 228.548592 91.110244 
L 228.548592 91.582665 
L 228.233645 91.818876 
L 227.918697 92.055086 
L 227.918697 92.527507 
L 227.918697 92.999928 
L 227.60375 93.236139 
L 227.288803 93.47235 
L 227.288803 93.944771 
L 227.288803 94.417192 
L 226.973855 94.653402 
L 226.658908 94.889613 
L 226.658908 95.362034 
L 226.343961 95.598244 
L 226.029013 95.834455 
L 226.029013 96.306876 
L 226.029013 96.779297 
L 225.714066 97.015507 
L 225.399118 97.251718 
L 225.399118 97.724139 
L 225.399118 98.19656 
L 225.084171 98.432771 
L 224.769224 98.668981 
L 224.769224 99.141402 
L 224.769224 99.613823 
L 224.454276 99.850034 
L 224.139329 100.086244 
L 224.139329 100.558665 
L 223.824382 100.794876 
L 223.509434 101.031086 
L 223.509434 101.503507 
L 223.509434 101.975928 
L 223.194487 102.212139 
L 222.879539 102.44835 
L 222.879539 102.920771 
L 222.564592 103.156981 
L 222.249645 103.393192 
L 222.249645 103.865613 
L 222.249645 104.338034 
L 221.934697 104.574244 
L 221.61975 104.810455 
L 221.61975 105.282876 
L 221.304803 105.519086 
L 220.989855 105.755297 
L 220.989855 106.227718 
L 220.674908 106.463928 
L 220.359961 106.700139 
L 220.359961 107.17256 
L 220.045013 107.408771 
L 219.730066 107.644981 
L 219.730066 108.117402 
L 219.415118 108.353613 
L 219.100171 108.589823 
L 219.100171 109.062244 
L 219.100171 109.534665 
L 218.785224 109.770876 
L 218.470276 110.007086 
L 218.470276 110.479507 
L 218.155329 110.715718 
L 217.840382 110.951928 
L 217.840382 111.42435 
L 217.525434 111.66056 
L 217.210487 111.896771 
L 216.895539 112.132981 
L 216.580592 112.369192 
L 216.580592 112.841613 
L 216.265645 113.077823 
L 215.950697 113.314034 
L 215.950697 113.786455 
L 215.63575 114.022665 
L 215.320803 114.258876 
L 215.320803 114.731297 
L 215.005855 114.967507 
L 214.690908 115.203718 
L 214.690908 115.676139 
L 214.375961 115.91235 
L 214.061013 116.14856 
L 213.746066 116.384771 
L 213.431118 116.620981 
L 213.431118 117.093402 
L 213.116171 117.329613 
L 212.801224 117.565823 
L 212.486276 117.802034 
L 212.171329 118.038244 
L 212.171329 118.510665 
L 211.856382 118.746876 
L 211.541434 118.983086 
L 211.226487 119.219297 
L 210.911539 119.455507 
L 210.911539 119.927928 
L 210.596592 120.164139 
L 210.281645 120.40035 
L 209.966697 120.63656 
L 209.65175 120.872771 
L 209.336803 121.108981 
L 209.021855 121.345192 
L 209.021855 121.817613 
L 208.706908 122.053823 
L 208.391961 122.290034 
L 208.077013 122.526244 
L 207.762066 122.762455 
L 207.447118 122.998665 
L 207.132171 123.234876 
L 206.817224 123.471086 
L 206.502276 123.707297 
L 206.187329 123.943507 
L 205.872382 124.179718 
L 205.557434 124.415928 
L 205.242487 124.652139 
L 204.927539 124.88835 
L 204.612592 125.12456 
L 204.297645 125.360771 
L 203.982697 125.596981 
L 203.66775 125.833192 
L 203.352803 126.069402 
L 203.037855 126.305613 
L 202.722908 126.541823 
L 202.407961 126.778034 
L 202.093013 127.014244 
L 201.778066 127.250455 
L 201.148171 127.250455 
L 200.833224 127.486665 
L 200.518276 127.722876 
L 200.203329 127.959086 
L 199.888382 128.195297 
L 199.573434 128.431507 
L 199.258487 128.667718 
L 198.628592 128.667718 
L 198.313645 128.903928 
L 197.998697 129.140139 
L 197.368803 129.140139 
L 197.053855 129.37635 
L 196.738908 129.61256 
L 196.423961 129.848771 
L 196.109013 130.084981 
L 195.479118 130.084981 
L 194.849224 130.084981 
L 194.534276 130.321192 
L 194.219329 130.557402 
L 193.589434 130.557402 
L 193.274487 130.793613 
L 192.959539 131.029823 
L 192.329645 131.029823 
L 191.69975 131.029823 
L 191.384803 131.266034 
L 191.069855 131.502244 
L 190.439961 131.502244 
L 189.810066 131.502244 
L 189.495118 131.738455 
L 189.180171 131.974665 
L 188.550276 131.974665 
L 187.920382 131.974665 
L 187.290487 131.974665 
L 186.660592 131.974665 
L 186.345645 132.210876 
z
M 235.792382 73.866876 
L 236.107329 73.630665 
L 236.107329 73.158244 
L 236.107329 72.685823 
L 236.107329 72.213402 
L 235.792382 71.977192 
L 235.477434 72.213402 
L 235.477434 72.685823 
L 235.477434 73.158244 
L 235.477434 73.630665 
z
M 236.422276 70.559928 
L 236.737224 70.323718 
L 236.422276 70.087507 
L 236.107329 70.323718 
z
" clip-path="url(#p3a85ba887c)" style="fill:var(--c8); fill-opacity: 0.5"/>
   </g>
   <g id="line2d_33">
    <path d="M 48.08375 132.683297 
L 299.41175 132.683297 
" clip-path="url(#p3a85ba887c)" style="fill: none; stroke:var(--black); stroke-opacity: 0.8; stroke-linecap: square"/>
   </g>
   <g id="line2d_34">
    <path d="M 173.74775 195.515297 
L 173.74775 7.019297 
" clip-path="url(#p3a85ba887c)" style="fill: none; stroke:var(--black); stroke-opacity: 0.8; stroke-linecap: square"/>
   </g>
   <g class="patch">
    <path d="M 48.08375 195.515297 
L 48.08375 7.019297 
" style="fill: none; stroke:var(--black); stroke-width: 0.8; stroke-linejoin: miter; stroke-linecap: square"/>
   </g>
   <g class="patch">
    <path d="M 48.08375 195.515297 
L 299.41175 195.515297 
" style="fill: none; stroke:var(--black); stroke-width: 0.8; stroke-linejoin: miter; stroke-linecap: square"/>
   </g>
   <g id="QuadContourSet_2">
    <path d="M 110.91693 195.515297 
L 113.374167 188.428981 
L 115.863224 181.815086 
L 118.383338 175.673613 
L 120.710521 170.476981 
L 123.262484 165.28035 
L 125.830047 160.556139 
L 128.100156 156.776771 
L 130.624008 152.997402 
L 133.119539 149.670478 
L 135.639118 146.702015 
L 138.243123 144.021402 
L 140.678276 141.843816 
L 143.393407 139.769613 
L 145.717434 138.261858 
L 148.237013 136.888696 
L 150.756592 135.761666 
L 153.276171 134.85646 
L 156.425645 133.999856 
L 159.575118 133.404387 
L 162.724592 133.022575 
L 166.503961 132.779577 
L 171.543118 132.686011 
L 181.621434 132.559653 
L 185.400803 132.28247 
L 188.550276 131.861725 
L 191.69975 131.217827 
L 194.794733 130.321192 
L 196.738908 129.604927 
L 199.350012 128.431507 
L 201.926273 127.014244 
L 204.297645 125.461132 
L 206.817224 123.522778 
L 209.336803 121.265363 
L 211.993568 118.510665 
L 214.391642 115.676139 
L 216.895539 112.335664 
L 219.415118 108.558915 
L 221.936669 104.338034 
L 224.477258 99.613823 
L 227.223129 93.944771 
L 229.714113 88.275718 
L 232.365062 81.661823 
L 234.795879 75.047928 
L 237.509494 67.016771 
L 240.009601 58.985613 
L 242.597754 50.009613 
L 245.126707 40.561192 
L 247.760382 29.986767 
L 250.979017 15.995297 
L 252.910381 7.019297 
L 252.910381 7.019297 
" clip-path="url(#p3a85ba887c)" style="fill: none; stroke:var(--c5); stroke-width: 2.5"/>
   </g>
   <g id="QuadContourSet_3">
    <path d="M 245.921937 7.019297 
L 244.153841 21.66435 
L 242.322925 35.36456 
L 240.422816 48.119928 
L 238.613438 58.985613 
L 236.76447 68.906455 
L 234.881269 77.882455 
L 232.973847 85.913613 
L 231.195444 92.527507 
L 229.319602 98.668981 
L 227.508 103.865613 
L 225.616765 108.589823 
L 223.639862 112.841613 
L 221.854699 116.14856 
L 220.045013 119.035798 
L 217.978137 121.817613 
L 216.265645 123.768012 
L 214.356791 125.596981 
L 212.486276 127.085825 
L 210.408876 128.431507 
L 208.613154 129.37635 
L 206.187329 130.378395 
L 203.66775 131.144843 
L 200.881055 131.738455 
L 197.998697 132.145126 
L 194.219329 132.452605 
L 189.180171 132.627134 
L 179.73175 132.682805 
L 156.425645 132.783361 
L 151.386487 133.042019 
L 147.607118 133.466468 
L 144.457645 134.066485 
L 141.938066 134.772945 
L 139.418487 135.742433 
L 137.086624 136.935086 
L 135.582383 137.879928 
L 133.6962 139.297192 
L 131.634358 141.186876 
L 129.906923 143.07656 
L 128.072469 145.438665 
L 126.190697 148.291436 
L 124.301013 151.648812 
L 122.292499 155.831928 
L 120.521645 160.092721 
L 118.487846 165.752771 
L 116.572859 171.894244 
L 114.641458 178.98056 
L 112.825547 186.539297 
L 110.918106 195.515297 
L 110.918106 195.515297 
" clip-path="url(#p3a85ba887c)" style="fill: none; stroke:var(--c6); stroke-width: 2.5"/>
   </g>
   <g id="line2d_35">
    <path d="M 48.08375 132.683297 
L 299.41175 132.683297 
" clip-path="url(#p3a85ba887c)" style="fill: none; stroke:var(--c7); stroke-width: 2.5; stroke-linecap: square"/>
   </g>
   <g class="patch">
    <path d="M 152.844112 153.586935 
Q 162.587831 143.843216 171.54098 134.890067 
" style="fill: none; opacity: 0.7; stroke: #808080; stroke-linecap: round"/>
    <path d="M 167.298339 136.304281 
L 171.54098 134.890067 
L 170.126766 139.132708 
" style="fill: none; opacity: 0.7; stroke: #808080; stroke-linecap: round"/>
   </g>
   <g id="text_19" class="text">
    <g class="patch">
     <path d="M 121.18175 172.699297 
L 163.48175 172.699297 
Q 166.48175 172.699297 166.48175 169.699297 
L 166.48175 158.499297 
Q 166.48175 155.499297 163.48175 155.499297 
L 121.18175 155.499297 
Q 118.18175 155.499297 118.18175 158.499297 
L 118.18175 169.699297 
Q 118.18175 172.699297 121.18175 172.699297 
z
" style="fill:var(--white); opacity: 0.8; stroke:var(--black); stroke-linejoin: miter"/>
    </g>
    <!-- $ \bar{x} = [0, 0]^T $ -->
    <g transform="translate(121.18175 167.199297) scale(0.1 -0.1)">
     <defs>
      <path id="Cmr10-b9" d="M 441 3553 
L 441 3775 
L 2753 3775 
L 2753 3553 
L 441 3553 
z
" transform="scale(0.015625)"/>
      <path id="Cmr10-3d" d="M 481 850 
Q 428 850 393 890 
Q 359 931 359 978 
Q 359 1031 393 1068 
Q 428 1106 481 1106 
L 4500 1106 
Q 4547 1106 4581 1068 
Q 4616 1031 4616 978 
Q 4616 931 4581 890 
Q 4547 850 4500 850 
L 481 850 
z
M 481 2094 
Q 428 2094 393 2131 
Q 359 2169 359 2222 
Q 359 2269 393 2309 
Q 428 2350 481 2350 
L 4500 2350 
Q 4547 2350 4581 2309 
Q 4616 2269 4616 2222 
Q 4616 2169 4581 2131 
Q 4547 2094 4500 2094 
L 481 2094 
z
" transform="scale(0.015625)"/>
      <path id="Cmr10-5b" d="M 756 -1600 
L 756 4800 
L 1631 4800 
L 1631 4544 
L 1013 4544 
L 1013 -1344 
L 1631 -1344 
L 1631 -1600 
L 756 -1600 
z
" transform="scale(0.015625)"/>
      <path id="Cmr10-30" d="M 1600 -141 
Q 816 -141 533 504 
Q 250 1150 250 2041 
Q 250 2597 351 3087 
Q 453 3578 754 3920 
Q 1056 4263 1600 4263 
Q 2022 4263 2290 4056 
Q 2559 3850 2700 3523 
Q 2841 3197 2892 2823 
Q 2944 2450 2944 2041 
Q 2944 1491 2842 1011 
Q 2741 531 2444 195 
Q 2147 -141 1600 -141 
z
M 1600 25 
Q 1956 25 2131 390 
Q 2306 756 2347 1200 
Q 2388 1644 2388 2144 
Q 2388 2625 2347 3031 
Q 2306 3438 2132 3767 
Q 1959 4097 1600 4097 
Q 1238 4097 1063 3765 
Q 888 3434 847 3029 
Q 806 2625 806 2144 
Q 806 1788 823 1472 
Q 841 1156 916 820 
Q 991 484 1158 254 
Q 1325 25 1600 25 
z
" transform="scale(0.015625)"/>
      <path id="Cmmi10-3b" d="M 634 -1153 
Q 634 -1125 659 -1100 
Q 891 -878 1019 -587 
Q 1147 -297 1147 25 
L 1147 103 
Q 1044 0 891 0 
Q 744 0 641 103 
Q 538 206 538 353 
Q 538 503 641 603 
Q 744 703 891 703 
Q 1119 703 1216 492 
Q 1313 281 1313 25 
Q 1313 -331 1170 -651 
Q 1028 -972 769 -1228 
Q 744 -1241 728 -1241 
Q 697 -1241 665 -1212 
Q 634 -1184 634 -1153 
z
" transform="scale(0.015625)"/>
      <path id="Cmr10-5d" d="M 141 -1600 
L 141 -1344 
L 763 -1344 
L 763 4544 
L 141 4544 
L 141 4800 
L 1019 4800 
L 1019 -1600 
L 141 -1600 
z
" transform="scale(0.015625)"/>
      <path id="Cmmi10-54" d="M 294 84 
Q 297 100 308 140 
Q 319 181 336 203 
Q 353 225 384 225 
Q 934 225 1113 256 
Q 1284 300 1319 441 
L 2194 3956 
Q 2222 4034 2222 4097 
Q 2222 4147 1997 4147 
L 1625 4147 
Q 1197 4147 964 4015 
Q 731 3884 622 3668 
Q 513 3453 341 2963 
Q 319 2906 275 2906 
L 219 2906 
Q 153 2906 153 2988 
L 609 4313 
Q 622 4372 672 4372 
L 4453 4372 
Q 4519 4372 4519 4288 
L 4306 2963 
Q 4306 2944 4284 2925 
Q 4263 2906 4244 2906 
L 4184 2906 
Q 4122 2906 4122 2988 
Q 4191 3441 4191 3628 
Q 4191 3853 4097 3968 
Q 4003 4084 3853 4115 
Q 3703 4147 3463 4147 
L 3084 4147 
Q 2913 4147 2853 4115 
Q 2794 4084 2753 3928 
L 1875 416 
Q 1872 403 1870 390 
Q 1869 378 1863 359 
Q 1863 278 1959 256 
Q 2125 225 2669 225 
Q 2731 225 2731 141 
Q 2709 50 2696 25 
Q 2684 0 2625 0 
L 359 0 
Q 294 0 294 84 
z
" transform="scale(0.015625)"/>
     </defs>
     <use xlink:href="#Cmr10-b9" transform="translate(10.379395 2.089063)"/>
     <use xlink:href="#Cmmi10-78" transform="translate(0 0.917188)"/>
     <use xlink:href="#Cmr10-3d" transform="translate(74.638672 0.917188)"/>
     <use xlink:href="#Cmr10-5b" transform="translate(169.882812 0.917188)"/>
     <use xlink:href="#Cmr10-30" transform="translate(197.568359 0.917188)"/>
     <use xlink:href="#Cmmi10-3b" transform="translate(247.568359 0.917188)"/>
     <use xlink:href="#Cmr10-30" transform="translate(292.8125 0.917188)"/>
     <use xlink:href="#Cmr10-5d" transform="translate(342.8125 0.917188)"/>
     <use xlink:href="#Cmmi10-54" transform="translate(374.962188 39.18125) scale(0.7)"/>
    </g>
   </g>
   <g class="patch">
    <path d="M 258.082902 48.348144 
Q 248.038736 58.392311 238.785139 67.645908 
" style="fill: none; opacity: 0.7; stroke: #808080; stroke-linecap: round"/>
    <path d="M 243.027779 66.231695 
L 238.785139 67.645908 
L 240.199352 63.403268 
" style="fill: none; opacity: 0.7; stroke: #808080; stroke-linecap: round"/>
   </g>
   <g id="text_20" class="text">
    <g class="patch">
     <path d="M 248.64575 46.435297 
L 287.34575 46.435297 
Q 290.34575 46.435297 290.34575 43.435297 
L 290.34575 33.435297 
Q 290.34575 30.435297 287.34575 30.435297 
L 248.64575 30.435297 
Q 245.64575 30.435297 245.64575 33.435297 
L 245.64575 43.435297 
Q 245.64575 46.435297 248.64575 46.435297 
z
" style="fill:var(--white); opacity: 0.8; stroke:var(--black); stroke-linejoin: miter"/>
    </g>
    <!-- $g_1(x) \leq 0$ -->
    <g style="fill:var(--c5)" transform="translate(248.64575 40.935297) scale(0.1 -0.1)">
     <defs>
      <path id="Cmmi10-67" d="M 91 -916 
Q 91 -759 198 -642 
Q 306 -525 459 -525 
Q 563 -525 633 -589 
Q 703 -653 703 -756 
Q 703 -872 637 -964 
Q 572 -1056 469 -1094 
Q 641 -1147 1006 -1147 
Q 1300 -1147 1544 -920 
Q 1788 -694 1863 -397 
L 2047 353 
Q 1700 0 1325 0 
Q 1050 0 854 140 
Q 659 281 556 515 
Q 453 750 453 1013 
Q 453 1306 573 1628 
Q 694 1950 911 2225 
Q 1128 2500 1409 2664 
Q 1691 2828 2003 2828 
Q 2191 2828 2341 2725 
Q 2491 2622 2578 2450 
Q 2641 2700 2853 2700 
Q 2934 2700 2990 2651 
Q 3047 2603 3047 2522 
Q 3047 2503 3045 2493 
Q 3044 2484 3041 2472 
L 2309 -434 
Q 2259 -634 2125 -800 
Q 1991 -966 1809 -1077 
Q 1628 -1188 1412 -1250 
Q 1197 -1313 997 -1313 
Q 631 -1313 361 -1242 
Q 91 -1172 91 -916 
z
M 1338 166 
Q 1747 166 2144 728 
L 2497 2125 
Q 2453 2347 2322 2505 
Q 2191 2663 1991 2663 
Q 1778 2663 1589 2489 
Q 1400 2316 1275 2075 
Q 1156 1844 1045 1411 
Q 934 978 934 728 
Q 934 509 1034 337 
Q 1134 166 1338 166 
z
" transform="scale(0.015625)"/>
      <path id="Cmr10-28" d="M 1984 -1588 
Q 1628 -1306 1370 -942 
Q 1113 -578 948 -165 
Q 784 247 703 697 
Q 622 1147 622 1600 
Q 622 2059 703 2509 
Q 784 2959 951 3375 
Q 1119 3791 1378 4153 
Q 1638 4516 1984 4788 
Q 1984 4800 2016 4800 
L 2075 4800 
Q 2094 4800 2109 4783 
Q 2125 4766 2125 4744 
Q 2125 4716 2113 4703 
Q 1800 4397 1592 4047 
Q 1384 3697 1257 3301 
Q 1131 2906 1075 2482 
Q 1019 2059 1019 1600 
Q 1019 -434 2106 -1491 
Q 2125 -1509 2125 -1544 
Q 2125 -1559 2108 -1579 
Q 2091 -1600 2075 -1600 
L 2016 -1600 
Q 1984 -1600 1984 -1588 
z
" transform="scale(0.015625)"/>
      <path id="Cmr10-29" d="M 416 -1600 
Q 359 -1600 359 -1544 
Q 359 -1516 372 -1503 
Q 1466 -434 1466 1600 
Q 1466 3634 384 4691 
Q 359 4706 359 4744 
Q 359 4766 376 4783 
Q 394 4800 416 4800 
L 475 4800 
Q 494 4800 506 4788 
Q 966 4425 1272 3906 
Q 1578 3388 1720 2800 
Q 1863 2213 1863 1600 
Q 1863 1147 1786 708 
Q 1709 269 1542 -157 
Q 1375 -584 1119 -945 
Q 863 -1306 506 -1588 
Q 494 -1600 475 -1600 
L 416 -1600 
z
" transform="scale(0.015625)"/>
      <path id="Cmsy10-2219" d="M 653 -878 
Q 600 -878 565 -837 
Q 531 -797 531 -750 
Q 531 -697 565 -659 
Q 600 -622 653 -622 
L 4325 -622 
Q 4375 -622 4408 -659 
Q 4441 -697 4441 -750 
Q 4441 -797 4408 -837 
Q 4375 -878 4325 -878 
L 653 -878 
z
M 594 2113 
Q 531 2131 531 2222 
Q 531 2303 616 2338 
L 4269 4063 
Q 4281 4072 4313 4072 
Q 4366 4072 4403 4034 
Q 4441 3997 4441 3944 
Q 4441 3859 4366 3828 
L 959 2222 
L 4384 603 
Q 4441 572 4441 494 
Q 4441 438 4403 402 
Q 4366 366 4313 366 
Q 4281 366 4269 378 
L 594 2113 
z
" transform="scale(0.015625)"/>
     </defs>
     <use xlink:href="#Cmmi10-67"/>
     <use xlink:href="#Cmr10-31" transform="translate(47.705078 -17.00625) scale(0.7)"/>
     <use xlink:href="#Cmr10-28" transform="translate(89.082422 0)"/>
     <use xlink:href="#Cmmi10-78" transform="translate(127.900781 0)"/>
     <use xlink:href="#Cmr10-29" transform="translate(184.980859 0)"/>
     <use xlink:href="#Cmsy10-2219" transform="translate(241.357812 0)"/>
     <use xlink:href="#Cmr10-30" transform="translate(336.601953 0)"/>
    </g>
   </g>
   <g class="patch">
    <path d="M 243.389174 108.008824 
Q 233.72294 110.657108 225.135003 113.009967 
" style="fill: none; opacity: 0.7; stroke: #808080; stroke-linecap: round"/>
    <path d="M 229.521306 113.881943 
L 225.135003 113.009967 
L 228.464366 110.02411 
" style="fill: none; opacity: 0.7; stroke: #808080; stroke-linecap: round"/>
   </g>
   <g id="text_21" class="text">
    <g class="patch">
     <path d="M 248.64575 109.267297 
L 287.34575 109.267297 
Q 290.34575 109.267297 290.34575 106.267297 
L 290.34575 96.267297 
Q 290.34575 93.267297 287.34575 93.267297 
L 248.64575 93.267297 
Q 245.64575 93.267297 245.64575 96.267297 
L 245.64575 106.267297 
Q 245.64575 109.267297 248.64575 109.267297 
z
" style="fill:var(--white); opacity: 0.8; stroke:var(--black); stroke-linejoin: miter"/>
    </g>
    <!-- $g_2(x) \leq 0$ -->
    <g style="fill:var(--c6)" transform="translate(248.64575 103.767297) scale(0.1 -0.1)">
     <use xlink:href="#Cmmi10-67"/>
     <use xlink:href="#Cmr10-32" transform="translate(47.705078 -17.00625) scale(0.7)"/>
     <use xlink:href="#Cmr10-28" transform="translate(89.082422 0)"/>
     <use xlink:href="#Cmmi10-78" transform="translate(127.900781 0)"/>
     <use xlink:href="#Cmr10-29" transform="translate(184.980859 0)"/>
     <use xlink:href="#Cmsy10-2219" transform="translate(241.357812 0)"/>
     <use xlink:href="#Cmr10-30" transform="translate(336.601953 0)"/>
    </g>
   </g>
   <g class="patch">
    <path d="M 195.250902 154.186449 
Q 185.206736 144.142283 175.953139 134.888686 
" style="fill: none; opacity: 0.7; stroke: #808080; stroke-linecap: round"/>
    <path d="M 177.367352 139.131326 
L 175.953139 134.888686 
L 180.195779 136.302899 
" style="fill: none; opacity: 0.7; stroke: #808080; stroke-linecap: round"/>
   </g>
   <g id="text_22" class="text">
    <g class="patch">
     <path d="M 185.81375 172.099297 
L 224.51375 172.099297 
Q 227.51375 172.099297 227.51375 169.099297 
L 227.51375 159.099297 
Q 227.51375 156.099297 224.51375 156.099297 
L 185.81375 156.099297 
Q 182.81375 156.099297 182.81375 159.099297 
L 182.81375 169.099297 
Q 182.81375 172.099297 185.81375 172.099297 
z
" style="fill:var(--white); opacity: 0.8; stroke:var(--black); stroke-linejoin: miter"/>
    </g>
    <!-- $g_3(x) \leq 0$ -->
    <g style="fill:var(--c7)" transform="translate(185.81375 166.599297) scale(0.1 -0.1)">
     <defs>
      <path id="Cmr10-33" d="M 609 494 
Q 759 275 1012 169 
Q 1266 63 1556 63 
Q 1928 63 2084 380 
Q 2241 697 2241 1100 
Q 2241 1281 2208 1462 
Q 2175 1644 2097 1800 
Q 2019 1956 1883 2050 
Q 1747 2144 1550 2144 
L 1125 2144 
Q 1069 2144 1069 2203 
L 1069 2259 
Q 1069 2309 1125 2309 
L 1478 2338 
Q 1703 2338 1851 2506 
Q 2000 2675 2069 2917 
Q 2138 3159 2138 3378 
Q 2138 3684 1994 3881 
Q 1850 4078 1556 4078 
Q 1313 4078 1091 3986 
Q 869 3894 738 3706 
Q 750 3709 759 3711 
Q 769 3713 781 3713 
Q 925 3713 1022 3613 
Q 1119 3513 1119 3372 
Q 1119 3234 1022 3134 
Q 925 3034 781 3034 
Q 641 3034 541 3134 
Q 441 3234 441 3372 
Q 441 3647 606 3850 
Q 772 4053 1033 4158 
Q 1294 4263 1556 4263 
Q 1750 4263 1965 4205 
Q 2181 4147 2356 4039 
Q 2531 3931 2642 3762 
Q 2753 3594 2753 3378 
Q 2753 3109 2633 2881 
Q 2513 2653 2303 2487 
Q 2094 2322 1844 2241 
Q 2122 2188 2372 2031 
Q 2622 1875 2773 1631 
Q 2925 1388 2925 1106 
Q 2925 753 2731 467 
Q 2538 181 2222 20 
Q 1906 -141 1556 -141 
Q 1256 -141 954 -26 
Q 653 88 461 316 
Q 269 544 269 863 
Q 269 1022 375 1128 
Q 481 1234 641 1234 
Q 744 1234 830 1186 
Q 916 1138 964 1050 
Q 1013 963 1013 863 
Q 1013 706 903 600 
Q 794 494 641 494 
L 609 494 
z
" transform="scale(0.015625)"/>
     </defs>
     <use xlink:href="#Cmmi10-67"/>
     <use xlink:href="#Cmr10-33" transform="translate(47.705078 -17.00625) scale(0.7)"/>
     <use xlink:href="#Cmr10-28" transform="translate(89.082422 0)"/>
     <use xlink:href="#Cmmi10-78" transform="translate(127.900781 0)"/>
     <use xlink:href="#Cmr10-29" transform="translate(184.980859 0)"/>
     <use xlink:href="#Cmsy10-2219" transform="translate(241.357812 0)"/>
     <use xlink:href="#Cmr10-30" transform="translate(336.601953 0)"/>
    </g>
   </g>
   <g id="PathCollection_1">
    <defs>
     <path id="m024752d858" d="M 0 5 
C 1.326016 5 2.597899 4.473168 3.535534 3.535534 
C 4.473168 2.597899 5 1.326016 5 0 
C 5 -1.326016 4.473168 -2.597899 3.535534 -3.535534 
C 2.597899 -4.473168 1.326016 -5 0 -5 
C -1.326016 -5 -2.597899 -4.473168 -3.535534 -3.535534 
C -4.473168 -2.597899 -5 -1.326016 -5 0 
C -5 1.326016 -4.473168 2.597899 -3.535534 3.535534 
C -2.597899 4.473168 -1.326016 5 0 5 
z
" style="stroke:var(--white); stroke-width: 2"/>
    </defs>
    <g clip-path="url(#p3a85ba887c)">
     <use xlink:href="#m024752d858" x="173.74775" y="132.683297" style="fill:var(--c1); stroke:var(--white); stroke-width: 2"/>
    </g>
   </g>
  </g>
 </g>
 <defs>
  <clipPath id="p3a85ba887c">
   <rect x="48.08375" y="7.019297" width="251.328" height="188.496"/>
  </clipPath>
 </defs>
</svg>
