<svg xmlns="http://www.w3.org/2000/svg" xmlns:xlink="http://www.w3.org/1999/xlink" width="447.147" height="422.137" style="--axis-color:#000;--grid-stroke:rgba(0,0,0,0.2);--plot3d-stroke:rgba(0,0,0,0.3);--plot3d-grid:rgba(0,0,0,0.2);--black:#000000;--c1:#FF0001;--c2:#00FF02;--c3:#0000FF;--c4:#FF00FF;--c5:#00FFFF;--c6:#FFFF00;--c7:#FF8000;--c8:#8000FF;--gray:#7f7f7f;--grey:#7f7f7f;--octonary:#bcbd22;--primary:#d62728;--quaternary:#9467bd;--quinary:#8c564b;--secondary:#2ca02c;--senary:#e377c2;--septenary:#7f7f7f;--tertiary:#1f77b4;--white:#ffffff" viewBox="0 0 335.36 316.603"><style><![CDATA[@media (prefers-color-scheme:dark){:root{--axis-color:#fff;--grid-stroke:rgba(255,255,255,0.2);--plot3d-stroke:rgba(255,255,255,0.3);--plot3d-grid:rgba(255,255,255,0.2);--black:#FFFFFF;--c1:#FF0001;--c2:#00FF02;--c3:#0000FF;--c4:#FF00FF;--c5:#00FFFF;--c6:#FFFF00;--c7:#FF8000;--c8:#8000FF;--gray:#CCCCCC;--grey:#CCCCCC;--octonary:#E6DB74;--primary:#FF4A98;--quaternary:#B4A0FF;--quinary:#FFB86B;--secondary:#0AFAFA;--senary:#FF79C6;--septenary:#CCCCCC;--tertiary:#7F83FF;--white:#000000}}.text{fill:var(--axis-color)!important;stroke:none!important}.axis path,.patch path[style*="stroke: currentColor"],.tick path{stroke:var(--axis-color)!important}*{stroke-linejoin:round;stroke-linecap:butt}]]></style><g id="figure_1"><path d="M0 316.603h335.36V0H0z" class="patch" style="fill:none"/><g id="axes_1"><path d="M54.097 277.111h266.112V11H54.097z" class="patch" style="fill:none"/><g id="FillBetweenPolyCollection_1"><defs><path id="m3377f7c183" d="M87.444-305.604V-139.2l.667.667.667.667.667.667.667.667.667.667.667.667.667.667.667.667.666.667.667.667.667.667.667.667.667.667.667.667.667.667.667.667.667.667.667.667.667.666.667.667.667.667.667.667.667.667.667.667.667.667.667.667.667.667.666.667.667.667.667.667.667.667.667.667.667.667.667.667.667.667.667.667.667.667.667.666.667.667.667.667.667.667.667.667.667.667.667.667.667.667.667.667.666.667.667.667.667.667.667.667.667.667.667.667.667.667.667.667.667.667.667.667.667.666.667.667.667.667.667.667.667.667.667.667.667.667.667.667.667.667.666.667.667.667.667.667.667.667.667.667.667.667.667.667.667.667.667.667.667.667.667.666.667.667.667.667.667.667.667.667.667.667.667.667.667.667.667.667.666.667.667.667.667.667.667.667.667.667.667.667.667.667.667.667.667.667.667.667.667.666.667.667.667.667.667.667.667.667.667.167.667-.667.667-.667.667-.667.666-.667.667-.667.667-.667.667-.667.667-.667.667-.667.667-.666.667-.667.667-.667.667-.667.667-.667.667-.667.667-.667.667-.667.667-.667.667-.667.667-.667.667-.667.667-.667.666-.667.667-.667.667-.667.667-.667.667-.667.667-.667.667-.666.667-.667.667-.667.667-.667.667-.667.667-.667.667-.667.667-.667.667-.667.667-.667.667-.667.667-.667.667-.667.666-.667.667-.667.667-.667.667-.667.667-.667.667-.667.667-.666.667-.667.667-.667.667-.667.667-.667.667-.667.667-.667.667-.667.667-.667.667-.667.667-.667.667-.667.667-.667.666-.667.667-.667.667-.667.667-.667.667-.667.667-.667.667-.666.667-.667.667-.667.667-.667.667-.667.667-.667.667-.667.667-.667.667-.667.667-.667.667-.667.667-.667.667-.667.666-.667.667-.667.667-.667.667-.667.667-.667.667-.667.667-.666.667-.667.667-.667.667-.667.667-.667.667-.667.667-.667.667-.667.667-.667.667-.667.667-.667.667-.667.667-.667.666-.667.667-.667.667-.667.667-.667.667-.667.667-.667.667-.666.667-.667.667-.667.667-.667.667-.667.667-.667.667-.667.667-.667.667-.667.667-.667.667-.667.667-.667.667-.667.666-.667.667-.667.667-.667.667-.667.667-.667.667-.667.667-.666.667-.667.667-.667.667-.667.667-.667.667-.667.667-.667.667-.667.667-.667.667-.667.667-.667.667-.667.667-.667.666-.667.667-.667.667-.667.667-.667.667-.667.667-.667.667-.666.667-.667.667-.667.667-.667.667-.667.667-.667.667-.667.667-.667.667-.667.667-.667.667-.667.667-.667.667-.667.666-.667.667-.667.667-.667.667-.667.667-.667.667-.667.667-.666.667-.667.667-.667.667-.667.667-.667.667-.667.667-.667.667-.667.667-.667.667-.667.667-.667.667-.667.667-.667.666-.667.667-.667.667-.667.667-.667.667-.667.667-.667.667-.666.667-.667.667-.667.667-.667.667-.667.667-.667.667-.667.667-.667.667-.667.667-.667.667-.667.667-.667.667-.667.666-.667.667-.667.667-.667.667-.667.667-.667.667-.667.667-.666.667-.667.667-.667.667-.667.667-.667.667-.667.667-.667.667-.667.667-.667.667-.667.667-.667.667-.667.667-.667.666-.667.667-.667.667-.667.667-.667.667-.667.667-.667.667-.666.667-.667.667-.667.667-.667.667-.667.667-.667.667-.667.667-.667.667-.667.667-.667.667-.667.667-.667.667-.667.666-.667.667-.667.667-.667.667-.667.667-.667.667-.667.667-.666.667-.667.667-.667.667-.667.667-.667.667-.667.667-.667.667-.667.667-.667.667-.667.667-.667.667-.667v-66.528H87.444z" style="stroke:#8000ff;stroke-opacity:.5"/></defs><g clip-path="url(#p49d6ca65ef)"><use xlink:href="#m3377f7c183" y="316.603" style="fill:#8000ff;fill-opacity:.5;stroke:#8000ff;stroke-opacity:.5"/></g></g><g class="axis"><g class="tick xtick"><path id="line2d_1" d="M54.097 277.111V11" clip-path="url(#p49d6ca65ef)" style="fill:none;stroke:#b0b0b0;stroke-opacity:.3;stroke-width:.8;stroke-linecap:square"/><g id="line2d_2"><defs><path id="mc5242674d1" d="M0 0v3.5" style="stroke:var(--black);stroke-width:.8"/></defs><use xlink:href="#mc5242674d1" x="54.097" y="277.111" style="stroke:var(--black);stroke-width:.8"/></g><g id="text_1" class="text" transform="matrix(.1 0 0 -.1 41.955 291.71)"><defs><path id="DejaVuSans-2212" d="M678 2272h4006v-531H678z" transform="scale(.01563)"/><path id="DejaVuSans-30" d="M2034 4250q-487 0-733-480-245-479-245-1442 0-959 245-1439 246-480 733-480 491 0 736 480 246 480 246 1439 0 963-246 1442-245 480-736 480zm0 500q785 0 1199-621 414-620 414-1801 0-1178-414-1799Q2819-91 2034-91q-784 0-1198 620-414 621-414 1799 0 1181 414 1801 414 621 1198 621z" transform="scale(.01563)"/><path id="DejaVuSans-2e" d="M684 794h660V0H684z" transform="scale(.01563)"/><path id="DejaVuSans-35" d="M691 4666h2478v-532H1269V2991q137 47 274 70 138 23 276 23 781 0 1237-428 457-428 457-1159 0-753-469-1171Q2575-91 1722-91q-294 0-599 50Q819 9 494 109v635q281-153 581-228t634-75q541 0 856 284 316 284 316 772 0 487-316 771-315 285-856 285-253 0-505-56-251-56-513-175z" transform="scale(.01563)"/></defs><use xlink:href="#DejaVuSans-2212"/><use xlink:href="#DejaVuSans-30" transform="translate(83.79)"/><use xlink:href="#DejaVuSans-2e" transform="translate(147.412)"/><use xlink:href="#DejaVuSans-35" transform="translate(179.2)"/></g></g><g class="tick xtick"><path id="line2d_3" d="M87.36 277.111V11" clip-path="url(#p49d6ca65ef)" style="fill:none;stroke:#b0b0b0;stroke-opacity:.3;stroke-width:.8;stroke-linecap:square"/><use xlink:href="#mc5242674d1" id="line2d_4" x="87.361" y="277.111" style="stroke:var(--black);stroke-width:.8"/><g id="text_2" class="text" transform="matrix(.1 0 0 -.1 79.409 291.71)"><use xlink:href="#DejaVuSans-30"/><use xlink:href="#DejaVuSans-2e" transform="translate(63.623)"/><use xlink:href="#DejaVuSans-30" transform="translate(95.41)"/></g></g><g class="tick xtick"><path id="line2d_5" d="M120.625 277.111V11" clip-path="url(#p49d6ca65ef)" style="fill:none;stroke:#b0b0b0;stroke-opacity:.3;stroke-width:.8;stroke-linecap:square"/><use xlink:href="#mc5242674d1" id="line2d_6" x="120.625" y="277.111" style="stroke:var(--black);stroke-width:.8"/><g id="text_3" class="text" transform="matrix(.1 0 0 -.1 112.673 291.71)"><use xlink:href="#DejaVuSans-30"/><use xlink:href="#DejaVuSans-2e" transform="translate(63.623)"/><use xlink:href="#DejaVuSans-35" transform="translate(95.41)"/></g></g><g class="tick xtick"><path id="line2d_7" d="M153.889 277.111V11" clip-path="url(#p49d6ca65ef)" style="fill:none;stroke:#b0b0b0;stroke-opacity:.3;stroke-width:.8;stroke-linecap:square"/><use xlink:href="#mc5242674d1" id="line2d_8" x="153.889" y="277.111" style="stroke:var(--black);stroke-width:.8"/><g id="text_4" class="text" transform="matrix(.1 0 0 -.1 145.937 291.71)"><defs><path id="DejaVuSans-31" d="M794 531h1031v3560L703 3866v575l1116 225h631V531h1031V0H794z" transform="scale(.01563)"/></defs><use xlink:href="#DejaVuSans-31"/><use xlink:href="#DejaVuSans-2e" transform="translate(63.623)"/><use xlink:href="#DejaVuSans-30" transform="translate(95.41)"/></g></g><g class="tick xtick"><path id="line2d_9" d="M187.153 277.111V11" clip-path="url(#p49d6ca65ef)" style="fill:none;stroke:#b0b0b0;stroke-opacity:.3;stroke-width:.8;stroke-linecap:square"/><use xlink:href="#mc5242674d1" id="line2d_10" x="187.153" y="277.111" style="stroke:var(--black);stroke-width:.8"/><g id="text_5" class="text" transform="matrix(.1 0 0 -.1 179.201 291.71)"><use xlink:href="#DejaVuSans-31"/><use xlink:href="#DejaVuSans-2e" transform="translate(63.623)"/><use xlink:href="#DejaVuSans-35" transform="translate(95.41)"/></g></g><g class="tick xtick"><path id="line2d_11" d="M220.417 277.111V11" clip-path="url(#p49d6ca65ef)" style="fill:none;stroke:#b0b0b0;stroke-opacity:.3;stroke-width:.8;stroke-linecap:square"/><use xlink:href="#mc5242674d1" id="line2d_12" x="220.417" y="277.111" style="stroke:var(--black);stroke-width:.8"/><g id="text_6" class="text" transform="matrix(.1 0 0 -.1 212.465 291.71)"><defs><path id="DejaVuSans-32" d="M1228 531h2203V0H469v531q359 372 979 998 621 627 780 809 303 340 423 576 121 236 121 464 0 372-261 606-261 235-680 235-297 0-627-103-329-103-704-313v638q381 153 712 231 332 78 607 78 725 0 1156-363 431-362 431-968 0-288-108-546-107-257-392-607-78-91-497-524-418-433-1181-1211z" transform="scale(.01563)"/></defs><use xlink:href="#DejaVuSans-32"/><use xlink:href="#DejaVuSans-2e" transform="translate(63.623)"/><use xlink:href="#DejaVuSans-30" transform="translate(95.41)"/></g></g><g class="tick xtick"><path id="line2d_13" d="M253.68 277.111V11" clip-path="url(#p49d6ca65ef)" style="fill:none;stroke:#b0b0b0;stroke-opacity:.3;stroke-width:.8;stroke-linecap:square"/><use xlink:href="#mc5242674d1" id="line2d_14" x="253.681" y="277.111" style="stroke:var(--black);stroke-width:.8"/><g id="text_7" class="text" transform="matrix(.1 0 0 -.1 245.729 291.71)"><use xlink:href="#DejaVuSans-32"/><use xlink:href="#DejaVuSans-2e" transform="translate(63.623)"/><use xlink:href="#DejaVuSans-35" transform="translate(95.41)"/></g></g><g class="tick xtick"><path id="line2d_15" d="M286.945 277.111V11" clip-path="url(#p49d6ca65ef)" style="fill:none;stroke:#b0b0b0;stroke-opacity:.3;stroke-width:.8;stroke-linecap:square"/><use xlink:href="#mc5242674d1" id="line2d_16" x="286.945" y="277.111" style="stroke:var(--black);stroke-width:.8"/><g id="text_8" class="text" transform="matrix(.1 0 0 -.1 278.993 291.71)"><defs><path id="DejaVuSans-33" d="M2597 2516q453-97 707-404 255-306 255-756 0-690-475-1069Q2609-91 1734-91q-293 0-604 58T488 141v609q262-153 574-231 313-78 654-78 593 0 904 234t311 681q0 413-289 645-289 233-804 233h-544v519h569q465 0 712 186t247 536q0 359-255 551-254 193-729 193-260 0-557-57-297-56-653-174v562q360 100 674 150t592 50q719 0 1137-327 419-326 419-882 0-388-222-655t-631-370z" transform="scale(.01563)"/></defs><use xlink:href="#DejaVuSans-33"/><use xlink:href="#DejaVuSans-2e" transform="translate(63.623)"/><use xlink:href="#DejaVuSans-30" transform="translate(95.41)"/></g></g><g class="tick xtick"><path id="line2d_17" d="M320.209 277.111V11" clip-path="url(#p49d6ca65ef)" style="fill:none;stroke:#b0b0b0;stroke-opacity:.3;stroke-width:.8;stroke-linecap:square"/><use xlink:href="#mc5242674d1" id="line2d_18" x="320.209" y="277.111" style="stroke:var(--black);stroke-width:.8"/><g id="text_9" class="text" transform="matrix(.1 0 0 -.1 312.257 291.71)"><use xlink:href="#DejaVuSans-33"/><use xlink:href="#DejaVuSans-2e" transform="translate(63.623)"/><use xlink:href="#DejaVuSans-35" transform="translate(95.41)"/></g></g><g id="text_10" class="text" transform="matrix(.12 0 0 -.12 180.733 306.907)"><defs><path id="DejaVuSans-Oblique-78" d="M3841 3500 2234 1784 3219 0h-660l-740 1388L531 0h-697l1722 1844-915 1656h659l672-1266 1172 1266z" transform="scale(.01563)"/></defs><use xlink:href="#DejaVuSans-Oblique-78" transform="translate(0 .313)"/><use xlink:href="#DejaVuSans-31" transform="matrix(.7 0 0 .7 59.18 -16.094)"/></g></g><g class="axis"><g class="tick ytick"><path id="line2d_19" d="M54.097 277.111h266.112" clip-path="url(#p49d6ca65ef)" style="fill:none;stroke:#b0b0b0;stroke-opacity:.3;stroke-width:.8;stroke-linecap:square"/><g id="line2d_20"><defs><path id="m5f8513f841" d="M0 0h-3.5" style="stroke:var(--black);stroke-width:.8"/></defs><use xlink:href="#m5f8513f841" x="54.097" y="277.111" style="stroke:var(--black);stroke-width:.8"/></g><g id="text_11" class="text" transform="matrix(.1 0 0 -.1 22.814 280.91)"><use xlink:href="#DejaVuSans-2212"/><use xlink:href="#DejaVuSans-30" transform="translate(83.79)"/><use xlink:href="#DejaVuSans-2e" transform="translate(147.412)"/><use xlink:href="#DejaVuSans-35" transform="translate(179.2)"/></g></g><g class="tick ytick"><path id="line2d_21" d="M54.097 243.847h266.112" clip-path="url(#p49d6ca65ef)" style="fill:none;stroke:#b0b0b0;stroke-opacity:.3;stroke-width:.8;stroke-linecap:square"/><use xlink:href="#m5f8513f841" id="line2d_22" x="54.097" y="243.847" style="stroke:var(--black);stroke-width:.8"/><g id="text_12" class="text" transform="matrix(.1 0 0 -.1 31.193 247.646)"><use xlink:href="#DejaVuSans-30"/><use xlink:href="#DejaVuSans-2e" transform="translate(63.623)"/><use xlink:href="#DejaVuSans-30" transform="translate(95.41)"/></g></g><g class="tick ytick"><path id="line2d_23" d="M54.097 210.583h266.112" clip-path="url(#p49d6ca65ef)" style="fill:none;stroke:#b0b0b0;stroke-opacity:.3;stroke-width:.8;stroke-linecap:square"/><use xlink:href="#m5f8513f841" id="line2d_24" x="54.097" y="210.583" style="stroke:var(--black);stroke-width:.8"/><g id="text_13" class="text" transform="matrix(.1 0 0 -.1 31.193 214.382)"><use xlink:href="#DejaVuSans-30"/><use xlink:href="#DejaVuSans-2e" transform="translate(63.623)"/><use xlink:href="#DejaVuSans-35" transform="translate(95.41)"/></g></g><g class="tick ytick"><path id="line2d_25" d="M54.097 177.32h266.112" clip-path="url(#p49d6ca65ef)" style="fill:none;stroke:#b0b0b0;stroke-opacity:.3;stroke-width:.8;stroke-linecap:square"/><use xlink:href="#m5f8513f841" id="line2d_26" x="54.097" y="177.319" style="stroke:var(--black);stroke-width:.8"/><g id="text_14" class="text" transform="matrix(.1 0 0 -.1 31.193 181.118)"><use xlink:href="#DejaVuSans-31"/><use xlink:href="#DejaVuSans-2e" transform="translate(63.623)"/><use xlink:href="#DejaVuSans-30" transform="translate(95.41)"/></g></g><g class="tick ytick"><path id="line2d_27" d="M54.097 144.055h266.112" clip-path="url(#p49d6ca65ef)" style="fill:none;stroke:#b0b0b0;stroke-opacity:.3;stroke-width:.8;stroke-linecap:square"/><use xlink:href="#m5f8513f841" id="line2d_28" x="54.097" y="144.055" style="stroke:var(--black);stroke-width:.8"/><g id="text_15" class="text" transform="matrix(.1 0 0 -.1 31.193 147.854)"><use xlink:href="#DejaVuSans-31"/><use xlink:href="#DejaVuSans-2e" transform="translate(63.623)"/><use xlink:href="#DejaVuSans-35" transform="translate(95.41)"/></g></g><g class="tick ytick"><path id="line2d_29" d="M54.097 110.791h266.112" clip-path="url(#p49d6ca65ef)" style="fill:none;stroke:#b0b0b0;stroke-opacity:.3;stroke-width:.8;stroke-linecap:square"/><use xlink:href="#m5f8513f841" id="line2d_30" x="54.097" y="110.791" style="stroke:var(--black);stroke-width:.8"/><g id="text_16" class="text" transform="matrix(.1 0 0 -.1 31.193 114.59)"><use xlink:href="#DejaVuSans-32"/><use xlink:href="#DejaVuSans-2e" transform="translate(63.623)"/><use xlink:href="#DejaVuSans-30" transform="translate(95.41)"/></g></g><g class="tick ytick"><path id="line2d_31" d="M54.097 77.527h266.112" clip-path="url(#p49d6ca65ef)" style="fill:none;stroke:#b0b0b0;stroke-opacity:.3;stroke-width:.8;stroke-linecap:square"/><use xlink:href="#m5f8513f841" id="line2d_32" x="54.097" y="77.527" style="stroke:var(--black);stroke-width:.8"/><g id="text_17" class="text" transform="matrix(.1 0 0 -.1 31.193 81.326)"><use xlink:href="#DejaVuSans-32"/><use xlink:href="#DejaVuSans-2e" transform="translate(63.623)"/><use xlink:href="#DejaVuSans-35" transform="translate(95.41)"/></g></g><g class="tick ytick"><path id="line2d_33" d="M54.097 44.263h266.112" clip-path="url(#p49d6ca65ef)" style="fill:none;stroke:#b0b0b0;stroke-opacity:.3;stroke-width:.8;stroke-linecap:square"/><use xlink:href="#m5f8513f841" id="line2d_34" x="54.097" y="44.263" style="stroke:var(--black);stroke-width:.8"/><g id="text_18" class="text" transform="matrix(.1 0 0 -.1 31.193 48.062)"><use xlink:href="#DejaVuSans-33"/><use xlink:href="#DejaVuSans-2e" transform="translate(63.623)"/><use xlink:href="#DejaVuSans-30" transform="translate(95.41)"/></g></g><g class="tick ytick"><path id="line2d_35" d="M54.097 11h266.112" clip-path="url(#p49d6ca65ef)" style="fill:none;stroke:#b0b0b0;stroke-opacity:.3;stroke-width:.8;stroke-linecap:square"/><use xlink:href="#m5f8513f841" id="line2d_36" x="54.097" y="10.999" style="stroke:var(--black);stroke-width:.8"/><g id="text_19" class="text" transform="matrix(.1 0 0 -.1 31.193 14.798)"><use xlink:href="#DejaVuSans-33"/><use xlink:href="#DejaVuSans-2e" transform="translate(63.623)"/><use xlink:href="#DejaVuSans-35" transform="translate(95.41)"/></g></g><g id="text_20" class="text" transform="matrix(0 -.12 -.12 0 16.318 150.475)"><use xlink:href="#DejaVuSans-Oblique-78" transform="translate(0 .313)"/><use xlink:href="#DejaVuSans-32" transform="matrix(.7 0 0 .7 59.18 -16.094)"/></g></g><path id="line2d_37" d="M54.097 11h266.112" clip-path="url(#p49d6ca65ef)" style="fill:none;stroke-dasharray:3.7,1.6;stroke-dashoffset:0;stroke:var(--black)"/><path id="line2d_38" d="M320.209 277.111V11" clip-path="url(#p49d6ca65ef)" style="fill:none;stroke-dasharray:3.7,1.6;stroke-dashoffset:0;stroke:var(--black)"/><path id="line2d_39" d="M54.097 243.847h266.112" clip-path="url(#p49d6ca65ef)" style="fill:none;stroke:var(--black);stroke-opacity:.5;stroke-width:.8;stroke-linecap:square"/><path id="line2d_40" d="M87.36 277.111V11" clip-path="url(#p49d6ca65ef)" style="fill:none;stroke:var(--black);stroke-opacity:.5;stroke-width:.8;stroke-linecap:square"/><path d="M54.097 277.111V11M54.097 277.111h266.112" class="patch" style="fill:none;stroke:var(--black);stroke-width:.8;stroke-linejoin:miter;stroke-linecap:square"/><path id="LineCollection_1" d="M87.36 144.055h166.32" clip-path="url(#p49d6ca65ef)" style="fill:none;stroke-dasharray:5.55,2.4;stroke-dashoffset:0;stroke:#00ff02;stroke-width:1.5"/><path id="line2d_41" d="M80.133 317.603 320.209 77.527h0" clip-path="url(#p49d6ca65ef)" style="fill:none;stroke:var(--black);stroke-width:2;stroke-linecap:square"/><path id="line2d_42" d="m54.097 144.055 173.547 173.548h0" clip-path="url(#p49d6ca65ef)" style="fill:none;stroke:var(--black);stroke-width:2;stroke-linecap:square"/><path id="line2d_43" d="M54.097 243.847h266.112" clip-path="url(#p49d6ca65ef)" style="fill:none;stroke:var(--black);stroke-width:2;stroke-linecap:square"/><path id="line2d_44" d="M87.36 277.111V11h0" clip-path="url(#p49d6ca65ef)" style="fill:none;stroke:var(--black);stroke-width:2;stroke-linecap:square"/><g id="PathCollection_1"><defs><path id="m3c0e4b34e4" d="M0 5A5 5 0 1 0 0-5 5 5 0 0 0 0 5z" style="stroke:var(--white);stroke-width:1.5"/></defs><g clip-path="url(#p49d6ca65ef)"><use xlink:href="#m3c0e4b34e4" x="153.889" y="144.055" style="fill:#00ff02;stroke:var(--white);stroke-width:1.5"/></g></g><g id="PathCollection_2"><defs><path id="mb7e442c75f" d="M0 5.477A5.477 5.477 0 1 0 0-5.478 5.477 5.477 0 0 0 0 5.477z" style="stroke:var(--white);stroke-width:2"/></defs><g clip-path="url(#p49d6ca65ef)"><use xlink:href="#mb7e442c75f" x="153.889" y="243.847" style="fill:red;stroke:var(--white);stroke-width:2"/></g></g><path id="Quiver_1" d="M154.554 144.055v60.54l1.33-.665-1.995 6.653-1.996-6.653 1.33.666v-60.54z" clip-path="url(#p49d6ca65ef)" style="fill-opacity:.8"/></g></g><defs><clipPath id="p49d6ca65ef"><path d="M54.097 10.999h266.112v266.112H54.097z"/></clipPath></defs></svg>