<svg xmlns="http://www.w3.org/2000/svg" xmlns:xlink="http://www.w3.org/1999/xlink" width="565.419" height="422.137" style="--axis-color:#000;--grid-stroke:rgba(0,0,0,0.2);--plot3d-stroke:rgba(0,0,0,0.3);--plot3d-grid:rgba(0,0,0,0.2);--black:#000000;--c1:#FF0001;--c2:#00FF02;--c3:#0000FF;--c4:#FF00FF;--c5:#00FFFF;--c6:#FFFF00;--c7:#FF8000;--c8:#8000FF;--gray:#7f7f7f;--grey:#7f7f7f;--octonary:#bcbd22;--primary:#d62728;--quaternary:#9467bd;--quinary:#8c564b;--secondary:#2ca02c;--senary:#e377c2;--septenary:#7f7f7f;--tertiary:#1f77b4;--white:#ffffff" viewBox="0 0 424.064 316.603"><style><![CDATA[@media (prefers-color-scheme:dark){:root{--axis-color:#fff;--grid-stroke:rgba(255,255,255,0.2);--plot3d-stroke:rgba(255,255,255,0.3);--plot3d-grid:rgba(255,255,255,0.2);--black:#FFFFFF;--c1:#FF0001;--c2:#00FF02;--c3:#0000FF;--c4:#FF00FF;--c5:#00FFFF;--c6:#FFFF00;--c7:#FF8000;--c8:#8000FF;--gray:#CCCCCC;--grey:#CCCCCC;--octonary:#E6DB74;--primary:#FF4A98;--quaternary:#B4A0FF;--quinary:#FFB86B;--secondary:#0AFAFA;--senary:#FF79C6;--septenary:#CCCCCC;--tertiary:#7F83FF;--white:#000000}}.text{fill:var(--axis-color)!important;stroke:none!important}.axis path,.patch path[style*="stroke: currentColor"],.tick path{stroke:var(--axis-color)!important}*{stroke-linejoin:round;stroke-linecap:butt}]]></style><g id="figure_1"><path d="M0 316.603h424.064V0H0z" class="patch" style="fill:none"/><g id="axes_1"><path d="M54.097 277.111h354.816V11H54.097z" class="patch" style="fill:none"/><path id="QuadContourSet_1" d="M249.734 188.074h15.118l.445-.334.444-.333h3.558l.444-.334.445-.333h2.668l.444-.334.445-.333h.889l.444-.334.445-.333h1.779l.444-.334.445-.333h.89l.444-.333.444-.334.445-.333.445-.334h.889l.445-.333.444-.334.445-.333.444-.334.445-.333.445-.334h.889l.445-.333.444-.334.445-.333.445-.334.444-.333.445-.334.444-.333v-.667l.445-.333.445-.334.444-.333.445-.334.445-.333.444-.334.445-.333.444-.334v-.667l.445-.333.445-.334.444-.333.445-.334v-.667l.445-.333.444-.334v-.666l.445-.334.445-.333.444-.334.445-.333v-.667l.444-.334.445-.333v-.667l.445-.334.444-.333v-1.334l.445-.334.445-.333v-.667l.444-.333.445-.334v-.667l.444-.333.445-.334v-1.334l.445-.333.444-.334v-.667l.445-.333.445-.334v-1.333l.444-.334.445-.333v-1.334l.445-.334.444-.333v-1.334l.445-.334.444-.333v-1.334l.445-.333.445-.334v-2.001l.444-.333.445-.334v-1.334l.445-.333.444-.334v-2l.445-.334.444-.333v-2.001l.445-.334.445-.333v-2.001l.444-.333.445-.334v-2.001l.445-.333.444-.334v-2.001l.445-.333.445-.333v-2.668l.444-.334.445-.333v-2.668l.444-.333.445-.334v-2.668l.445-.333.444-.334v-2.667l.445-.334.445-.333v-2.668l.444-.334.445-.333v-3.335l.444-.333.445-.334v-3.335l.445-.333.444-.334v-3.334l-.444-.334-.445.334v2.001l-.445.333-.444.334v2l-.445.334-.444.333v1.334l-.445.334-.445.333v2.001l-.444.333-.445.334v1.334l-.445.333-.444.334v2.001l-.445.333-.444.334v1.333l-.445.334-.445.333v1.334l-.444.334-.445.333v2.001l-.445.334-.444.333v1.334l-.445.333-.445.334v1.334l-.444.333-.445.334v1.334l-.444.333-.445.334v1.333l-.445.334-.444.333v.667l-.445.334-.445.333v1.334l-.444.334-.445.333v1.334l-.444.334-.445.333v1.334l-.445.333-.444.334v.667l-.445.333-.445.334v1.334l-.444.333-.445.334v.667l-.445.333-.444.333v1.334l-.445.334-.444.333v.667l-.445.334-.445.333v.667l-.444.334-.445.333v.667l-.445.334-.444.333v.667l-.445.333-.444.334v1.334l-.445.333-.445.334v.667l-.444.333-.445.334v.667l-.445.333-.444.334-.445.333-.445.333v.667l-.444.334-.445.333v.667l-.444.334-.445.333v.667l-.445.334-.444.333v.667l-.445.334-.445.333-.444.334-.445.333v.667l-.444.333-.445.334-.445.333-.444.334v.667l-.445.333-.445.334-.444.333-.445.334v.667l-.445.333-.444.334-.445.333-.444.334-.445.333-.445.333v.667l-.444.334-.445.333-.445.334-.444.333-.445.334-.444.333-.445.334-.445.333-.444.334-.445.333-.445.334-.444.333-.445.334-.445.333-.444.334-.445.333-.444.333-.445.334-.445.333-.444.334-.445.333-.445.334-.444.333h-.89l-.444.334-.445.333-.444.334-.445.333-.445.334-.444.333h-.89l-.444.334-.445.333h-.89l-.444.334-.444.333-.445.334-.445.333h-1.779l-.444.333-.444.334h-.89l-.444.333-.445.334h-1.778l-.445.333-.445.334h-1.779l-.444.333-.444.334h-3.558l-.444.333zm69.363-82.702.445-.333v-2.001l-.445-.334-.445.334v2.001zm.89-4.668.444-.334-.445-.333-.444.333z" clip-path="url(#pe52e59064b)" style="fill:#8000ff;fill-opacity:.5"/><g class="axis"><g class="tick xtick"><path id="line2d_1" d="M54.097 277.111V11" clip-path="url(#pe52e59064b)" style="fill:none;stroke:#b0b0b0;stroke-opacity:.15;stroke-width:.8;stroke-linecap:square"/><g id="line2d_2"><defs><path id="mbf6ba7057f" d="M0 0v3.5" style="stroke:var(--black);stroke-width:.8"/></defs><use xlink:href="#mbf6ba7057f" x="54.097" y="277.111" style="stroke:var(--black);stroke-width:.8"/></g><g id="text_1" class="text" transform="matrix(.1 0 0 -.1 41.955 291.71)"><defs><path id="DejaVuSans-2212" d="M678 2272h4006v-531H678z" transform="scale(.01563)"/><path id="DejaVuSans-32" d="M1228 531h2203V0H469v531q359 372 979 998 621 627 780 809 303 340 423 576 121 236 121 464 0 372-261 606-261 235-680 235-297 0-627-103-329-103-704-313v638q381 153 712 231 332 78 607 78 725 0 1156-363 431-362 431-968 0-288-108-546-107-257-392-607-78-91-497-524-418-433-1181-1211z" transform="scale(.01563)"/><path id="DejaVuSans-2e" d="M684 794h660V0H684z" transform="scale(.01563)"/><path id="DejaVuSans-30" d="M2034 4250q-487 0-733-480-245-479-245-1442 0-959 245-1439 246-480 733-480 491 0 736 480 246 480 246 1439 0 963-246 1442-245 480-736 480zm0 500q785 0 1199-621 414-620 414-1801 0-1178-414-1799Q2819-91 2034-91q-784 0-1198 620-414 621-414 1799 0 1181 414 1801 414 621 1198 621z" transform="scale(.01563)"/></defs><use xlink:href="#DejaVuSans-2212"/><use xlink:href="#DejaVuSans-32" transform="translate(83.79)"/><use xlink:href="#DejaVuSans-2e" transform="translate(147.412)"/><use xlink:href="#DejaVuSans-30" transform="translate(179.2)"/></g></g><g class="tick xtick"><path id="line2d_3" d="M98.449 277.111V11" clip-path="url(#pe52e59064b)" style="fill:none;stroke:#b0b0b0;stroke-opacity:.15;stroke-width:.8;stroke-linecap:square"/><use xlink:href="#mbf6ba7057f" id="line2d_4" x="98.449" y="277.111" style="stroke:var(--black);stroke-width:.8"/><g id="text_2" class="text" transform="matrix(.1 0 0 -.1 86.307 291.71)"><defs><path id="DejaVuSans-31" d="M794 531h1031v3560L703 3866v575l1116 225h631V531h1031V0H794z" transform="scale(.01563)"/><path id="DejaVuSans-35" d="M691 4666h2478v-532H1269V2991q137 47 274 70 138 23 276 23 781 0 1237-428 457-428 457-1159 0-753-469-1171Q2575-91 1722-91q-294 0-599 50Q819 9 494 109v635q281-153 581-228t634-75q541 0 856 284 316 284 316 772 0 487-316 771-315 285-856 285-253 0-505-56-251-56-513-175z" transform="scale(.01563)"/></defs><use xlink:href="#DejaVuSans-2212"/><use xlink:href="#DejaVuSans-31" transform="translate(83.79)"/><use xlink:href="#DejaVuSans-2e" transform="translate(147.412)"/><use xlink:href="#DejaVuSans-35" transform="translate(179.2)"/></g></g><g class="tick xtick"><path id="line2d_5" d="M142.8 277.111V11" clip-path="url(#pe52e59064b)" style="fill:none;stroke:#b0b0b0;stroke-opacity:.15;stroke-width:.8;stroke-linecap:square"/><use xlink:href="#mbf6ba7057f" id="line2d_6" x="142.801" y="277.111" style="stroke:var(--black);stroke-width:.8"/><g id="text_3" class="text" transform="matrix(.1 0 0 -.1 130.66 291.71)"><use xlink:href="#DejaVuSans-2212"/><use xlink:href="#DejaVuSans-31" transform="translate(83.79)"/><use xlink:href="#DejaVuSans-2e" transform="translate(147.412)"/><use xlink:href="#DejaVuSans-30" transform="translate(179.2)"/></g></g><g class="tick xtick"><path id="line2d_7" d="M187.153 277.111V11" clip-path="url(#pe52e59064b)" style="fill:none;stroke:#b0b0b0;stroke-opacity:.15;stroke-width:.8;stroke-linecap:square"/><use xlink:href="#mbf6ba7057f" id="line2d_8" x="187.153" y="277.111" style="stroke:var(--black);stroke-width:.8"/><g id="text_4" class="text" transform="matrix(.1 0 0 -.1 175.011 291.71)"><use xlink:href="#DejaVuSans-2212"/><use xlink:href="#DejaVuSans-30" transform="translate(83.79)"/><use xlink:href="#DejaVuSans-2e" transform="translate(147.412)"/><use xlink:href="#DejaVuSans-35" transform="translate(179.2)"/></g></g><g class="tick xtick"><path id="line2d_9" d="M231.505 277.111V11" clip-path="url(#pe52e59064b)" style="fill:none;stroke:#b0b0b0;stroke-opacity:.15;stroke-width:.8;stroke-linecap:square"/><use xlink:href="#mbf6ba7057f" id="line2d_10" x="231.505" y="277.111" style="stroke:var(--black);stroke-width:.8"/><g id="text_5" class="text" transform="matrix(.1 0 0 -.1 223.553 291.71)"><use xlink:href="#DejaVuSans-30"/><use xlink:href="#DejaVuSans-2e" transform="translate(63.623)"/><use xlink:href="#DejaVuSans-30" transform="translate(95.41)"/></g></g><g class="tick xtick"><path id="line2d_11" d="M275.857 277.111V11" clip-path="url(#pe52e59064b)" style="fill:none;stroke:#b0b0b0;stroke-opacity:.15;stroke-width:.8;stroke-linecap:square"/><use xlink:href="#mbf6ba7057f" id="line2d_12" x="275.857" y="277.111" style="stroke:var(--black);stroke-width:.8"/><g id="text_6" class="text" transform="matrix(.1 0 0 -.1 267.905 291.71)"><use xlink:href="#DejaVuSans-30"/><use xlink:href="#DejaVuSans-2e" transform="translate(63.623)"/><use xlink:href="#DejaVuSans-35" transform="translate(95.41)"/></g></g><g class="tick xtick"><path id="line2d_13" d="M320.209 277.111V11" clip-path="url(#pe52e59064b)" style="fill:none;stroke:#b0b0b0;stroke-opacity:.15;stroke-width:.8;stroke-linecap:square"/><use xlink:href="#mbf6ba7057f" id="line2d_14" x="320.209" y="277.111" style="stroke:var(--black);stroke-width:.8"/><g id="text_7" class="text" transform="matrix(.1 0 0 -.1 312.257 291.71)"><use xlink:href="#DejaVuSans-31"/><use xlink:href="#DejaVuSans-2e" transform="translate(63.623)"/><use xlink:href="#DejaVuSans-30" transform="translate(95.41)"/></g></g><g class="tick xtick"><path id="line2d_15" d="M364.56 277.111V11" clip-path="url(#pe52e59064b)" style="fill:none;stroke:#b0b0b0;stroke-opacity:.15;stroke-width:.8;stroke-linecap:square"/><use xlink:href="#mbf6ba7057f" id="line2d_16" x="364.561" y="277.111" style="stroke:var(--black);stroke-width:.8"/><g id="text_8" class="text" transform="matrix(.1 0 0 -.1 356.609 291.71)"><use xlink:href="#DejaVuSans-31"/><use xlink:href="#DejaVuSans-2e" transform="translate(63.623)"/><use xlink:href="#DejaVuSans-35" transform="translate(95.41)"/></g></g><g class="tick xtick"><path id="line2d_17" d="M408.913 277.111V11" clip-path="url(#pe52e59064b)" style="fill:none;stroke:#b0b0b0;stroke-opacity:.15;stroke-width:.8;stroke-linecap:square"/><use xlink:href="#mbf6ba7057f" id="line2d_18" x="408.913" y="277.111" style="stroke:var(--black);stroke-width:.8"/><g id="text_9" class="text" transform="matrix(.1 0 0 -.1 400.961 291.71)"><use xlink:href="#DejaVuSans-32"/><use xlink:href="#DejaVuSans-2e" transform="translate(63.623)"/><use xlink:href="#DejaVuSans-30" transform="translate(95.41)"/></g></g><g id="text_10" class="text" transform="matrix(.12 0 0 -.12 225.085 306.907)"><defs><path id="DejaVuSans-Oblique-78" d="M3841 3500 2234 1784 3219 0h-660l-740 1388L531 0h-697l1722 1844-915 1656h659l672-1266 1172 1266z" transform="scale(.01563)"/></defs><use xlink:href="#DejaVuSans-Oblique-78" transform="translate(0 .313)"/><use xlink:href="#DejaVuSans-31" transform="matrix(.7 0 0 .7 59.18 -16.094)"/></g></g><g class="axis"><g class="tick ytick"><path id="line2d_19" d="M54.097 277.111h354.816" clip-path="url(#pe52e59064b)" style="fill:none;stroke:#b0b0b0;stroke-opacity:.15;stroke-width:.8;stroke-linecap:square"/><g id="line2d_20"><defs><path id="mc9105607fc" d="M0 0h-3.5" style="stroke:var(--black);stroke-width:.8"/></defs><use xlink:href="#mc9105607fc" x="54.097" y="277.111" style="stroke:var(--black);stroke-width:.8"/></g><g id="text_11" class="text" transform="matrix(.1 0 0 -.1 22.814 280.91)"><use xlink:href="#DejaVuSans-2212"/><use xlink:href="#DejaVuSans-31" transform="translate(83.79)"/><use xlink:href="#DejaVuSans-2e" transform="translate(147.412)"/><use xlink:href="#DejaVuSans-30" transform="translate(179.2)"/></g></g><g class="tick ytick"><path id="line2d_21" d="M54.097 232.76h354.816" clip-path="url(#pe52e59064b)" style="fill:none;stroke:#b0b0b0;stroke-opacity:.15;stroke-width:.8;stroke-linecap:square"/><use xlink:href="#mc9105607fc" id="line2d_22" x="54.097" y="232.759" style="stroke:var(--black);stroke-width:.8"/><g id="text_12" class="text" transform="matrix(.1 0 0 -.1 22.814 236.558)"><use xlink:href="#DejaVuSans-2212"/><use xlink:href="#DejaVuSans-30" transform="translate(83.79)"/><use xlink:href="#DejaVuSans-2e" transform="translate(147.412)"/><use xlink:href="#DejaVuSans-35" transform="translate(179.2)"/></g></g><g class="tick ytick"><path id="line2d_23" d="M54.097 188.407h354.816" clip-path="url(#pe52e59064b)" style="fill:none;stroke:#b0b0b0;stroke-opacity:.15;stroke-width:.8;stroke-linecap:square"/><use xlink:href="#mc9105607fc" id="line2d_24" x="54.097" y="188.407" style="stroke:var(--black);stroke-width:.8"/><g id="text_13" class="text" transform="matrix(.1 0 0 -.1 31.193 192.206)"><use xlink:href="#DejaVuSans-30"/><use xlink:href="#DejaVuSans-2e" transform="translate(63.623)"/><use xlink:href="#DejaVuSans-30" transform="translate(95.41)"/></g></g><g class="tick ytick"><path id="line2d_25" d="M54.097 144.055h354.816" clip-path="url(#pe52e59064b)" style="fill:none;stroke:#b0b0b0;stroke-opacity:.15;stroke-width:.8;stroke-linecap:square"/><use xlink:href="#mc9105607fc" id="line2d_26" x="54.097" y="144.055" style="stroke:var(--black);stroke-width:.8"/><g id="text_14" class="text" transform="matrix(.1 0 0 -.1 31.193 147.854)"><use xlink:href="#DejaVuSans-30"/><use xlink:href="#DejaVuSans-2e" transform="translate(63.623)"/><use xlink:href="#DejaVuSans-35" transform="translate(95.41)"/></g></g><g class="tick ytick"><path id="line2d_27" d="M54.097 99.703h354.816" clip-path="url(#pe52e59064b)" style="fill:none;stroke:#b0b0b0;stroke-opacity:.15;stroke-width:.8;stroke-linecap:square"/><use xlink:href="#mc9105607fc" id="line2d_28" x="54.097" y="99.703" style="stroke:var(--black);stroke-width:.8"/><g id="text_15" class="text" transform="matrix(.1 0 0 -.1 31.193 103.502)"><use xlink:href="#DejaVuSans-31"/><use xlink:href="#DejaVuSans-2e" transform="translate(63.623)"/><use xlink:href="#DejaVuSans-30" transform="translate(95.41)"/></g></g><g class="tick ytick"><path id="line2d_29" d="M54.097 55.351h354.816" clip-path="url(#pe52e59064b)" style="fill:none;stroke:#b0b0b0;stroke-opacity:.15;stroke-width:.8;stroke-linecap:square"/><use xlink:href="#mc9105607fc" id="line2d_30" x="54.097" y="55.351" style="stroke:var(--black);stroke-width:.8"/><g id="text_16" class="text" transform="matrix(.1 0 0 -.1 31.193 59.15)"><use xlink:href="#DejaVuSans-31"/><use xlink:href="#DejaVuSans-2e" transform="translate(63.623)"/><use xlink:href="#DejaVuSans-35" transform="translate(95.41)"/></g></g><g class="tick ytick"><path id="line2d_31" d="M54.097 11h354.816" clip-path="url(#pe52e59064b)" style="fill:none;stroke:#b0b0b0;stroke-opacity:.15;stroke-width:.8;stroke-linecap:square"/><use xlink:href="#mc9105607fc" id="line2d_32" x="54.097" y="10.999" style="stroke:var(--black);stroke-width:.8"/><g id="text_17" class="text" transform="matrix(.1 0 0 -.1 31.193 14.798)"><use xlink:href="#DejaVuSans-32"/><use xlink:href="#DejaVuSans-2e" transform="translate(63.623)"/><use xlink:href="#DejaVuSans-30" transform="translate(95.41)"/></g></g><g id="text_18" class="text" transform="matrix(0 -.12 -.12 0 16.318 150.475)"><use xlink:href="#DejaVuSans-Oblique-78" transform="translate(0 .313)"/><use xlink:href="#DejaVuSans-32" transform="matrix(.7 0 0 .7 59.18 -16.094)"/></g></g><path id="line2d_33" d="M54.097 188.407h354.816" clip-path="url(#pe52e59064b)" style="fill:none;stroke:var(--black);stroke-opacity:.8;stroke-linecap:square"/><path id="line2d_34" d="M231.505 277.111V11" clip-path="url(#pe52e59064b)" style="fill:none;stroke:var(--black);stroke-opacity:.8;stroke-linecap:square"/><path d="M54.097 277.111V11M54.097 277.111h354.816" class="patch" style="fill:none;stroke:var(--black);stroke-width:.8;stroke-linejoin:miter;stroke-linecap:square"/><path id="QuadContourSet_2" d="m142.802 277.111 2.99-8.67 3.47-9.337 3.543-8.748 3.557-8.026 3.187-6.57 2.81-5.335 2.663-4.669 2.466-4.001 2.67-4.002 2.417-3.335 2.635-3.335 2.908-3.334 2.577-2.668 2.87-2.668 2.4-2 2.686-2.002 3.072-2 2.347-1.334 2.685-1.334 3.18-1.337 3.558-1.205 3.557-.935 3.557-.699 3.557-.497 4.446-.39 5.336-.218 8.003-.055 8.893-.103 5.335-.298 4.447-.487 3.557-.594 3.557-.812 3.557-1.066 3.557-1.353 2.797-1.29 2.539-1.353 3.195-1.981 2.14-1.503 3.148-2.499 2.252-2 2.713-2.668 3.036-3.335 2.736-3.335 2.499-3.335 2.75-4.001 2.528-4.002 2.724-4.669 2.869-5.335 2.654-5.336 2.776-6.002 2.587-6.003 2.952-7.336 2.682-7.146 3.557-10.197 3.645-11.336 3.57-12.005 3.5-12.672 3.765-14.673 3.51-14.673 3.58-16.006 1.708-8.004" clip-path="url(#pe52e59064b)" style="fill:none;stroke:#0ff;stroke-width:2.5"/><path id="QuadContourSet_3" d="m333.398 11-1.993 16.673-2.62 20.008-2.628 18.008-2.725 16.674-2.566 14.005-2.658 12.898-2.668 11.45-2.668 10.083-2.668 8.845-2.555 7.412-1.802 4.67-1.7 4-1.871 4.002-1.73 3.335-1.522 2.668-1.67 2.668-1.857 2.668-2.1 2.667-1.788 2.001-1.858 1.843-2.667 2.263-2.715 1.897-2.621 1.498-2.668 1.234-2.668.987-3.362.95-2.862.601-3.558.536-4.446.424-5.335.27-8.004.144-20.453.025-19.564.097-6.224.229-4.455.341-4.438.579-3.752.755-2.473.669-2.668.913-2.668 1.147-2.667 1.424-2.668 1.749-2.668 2.124-2.097 1.978-1.861 2.001-1.66 2.001-1.972 2.668-1.758 2.668-1.967 3.334-1.763 3.335-1.602 3.335-2.03 4.668-1.83 4.669-1.665 4.669-1.745 5.335-1.795 6.003-1.825 6.67-1.838 7.336-1.839 8.003-1.877 8.898-.22 1.106" clip-path="url(#pe52e59064b)" style="fill:none;stroke:#ff0;stroke-width:2.5"/><path id="line2d_35" d="M54.097 188.407h354.816" clip-path="url(#pe52e59064b)" style="fill:none;stroke:#ff8000;stroke-width:2.5;stroke-linecap:square"/><g class="patch"><path d="m197.263 222.65 32.036-32.037M225.056 192.027l4.243-1.414-1.414 4.242" style="fill:none;opacity:.7;stroke:gray;stroke-linecap:round"/></g><g id="text_19" class="text"><path d="M162.903 240.96h48.5q3 0 3-3v-10.4q0-3-3-3h-48.5q-3 0-3 3v10.4q0 3 3 3z" class="patch" style="fill:var(--white);opacity:.8;stroke:var(--black);stroke-linejoin:miter"/><g transform="matrix(.1 0 0 -.1 162.903 235.88)"><defs><path id="DejaVuSans-304" d="M-2518 4769h1868v-463h-1868z" transform="scale(.01563)"/><path id="DejaVuSans-3d" d="M678 2906h4006v-525H678zm0-1275h4006v-531H678z" transform="scale(.01563)"/><path id="DejaVuSans-5b" d="M550 4863h1325v-447h-750V-397h750v-447H550z" transform="scale(.01563)"/><path id="DejaVuSans-2c" d="M750 794h659V256L897-744H494L750 256z" transform="scale(.01563)"/><path id="DejaVuSans-5d" d="M1947 4863V-844H622v447h747v4813H622v447z" transform="scale(.01563)"/><path id="DejaVuSans-Oblique-54" d="M378 4666h3947l-100-532H2559L1759 0h-634l800 4134H275z" transform="scale(.01563)"/></defs><use xlink:href="#DejaVuSans-304" transform="translate(62.139 .59)"/><use xlink:href="#DejaVuSans-Oblique-78" transform="translate(0 .684)"/><use xlink:href="#DejaVuSans-3d" transform="translate(78.662 .684)"/><use xlink:href="#DejaVuSans-5b" transform="translate(181.934 .684)"/><use xlink:href="#DejaVuSans-30" transform="translate(220.947 .684)"/><use xlink:href="#DejaVuSans-2c" transform="translate(284.57 .684)"/><use xlink:href="#DejaVuSans-30" transform="translate(335.84 .684)"/><use xlink:href="#DejaVuSans-5d" transform="translate(399.463 .684)"/><use xlink:href="#DejaVuSans-Oblique-54" transform="matrix(.7 0 0 .7 439.434 38.966)"/></g></g><g class="patch"><path d="M354.796 65.115 322.411 97.5M326.654 96.086l-4.243 1.414 1.415-4.242" style="fill:none;opacity:.7;stroke:gray;stroke-linecap:round"/></g><g id="text_20" class="text"><path d="M342.81 63.201h43.5q3 0 3-3v-9.7q0-3-3-3h-43.5q-3 0-3 3v9.7q0 3 3 3z" class="patch" style="fill:var(--white);opacity:.8;stroke:var(--black);stroke-linejoin:miter"/><g style="fill:#0ff" transform="matrix(.1 0 0 -.1 342.81 58.101)"><defs><path id="DejaVuSans-Oblique-67" d="M3816 3500 3219 434q-172-890-658-1327-486-438-1308-438-303 0-563 45-259 45-484 139l107 559q212-137 449-202 238-66 507-66 547 0 898 299 352 298 464 857l50 263q-240-275-559-419T1434 0Q903 0 598 351q-304 352-304 968 0 484 184 948 185 464 519 824 222 237 517 365t617 128q353 0 615-164 263-164 392-464l100 544zm-866-1284q0 425-200 656t-569 231q-228 0-434-91-206-90-353-253-238-268-371-632-132-364-132-752 0-431 201-663 202-231 580-231 547 0 912 495 366 496 366 1240" transform="scale(.01563)"/><path id="DejaVuSans-28" d="M1984 4856q-418-718-622-1422-203-703-203-1425 0-721 205-1429t620-1424h-500Q1016-109 783 600T550 2009q0 697 231 1403 232 707 703 1444z" transform="scale(.01563)"/><path id="DejaVuSans-29" d="M513 4856h500q468-737 701-1444 233-706 233-1403 0-700-233-1409T1013-844H513q415 716 620 1424t205 1429q0 722-205 1425-205 704-620 1422" transform="scale(.01563)"/><path id="DejaVuSans-2264" d="m4684 3175-3000-866 3000-856V897L678 2047v531l4006 1147zM678 531h4006V0H678z" transform="scale(.01563)"/></defs><use xlink:href="#DejaVuSans-Oblique-67" transform="translate(0 .125)"/><use xlink:href="#DejaVuSans-31" transform="matrix(.7 0 0 .7 63.477 -16.281)"/><use xlink:href="#DejaVuSans-28" transform="translate(110.747 .125)"/><use xlink:href="#DejaVuSans-Oblique-78" transform="translate(149.76 .125)"/><use xlink:href="#DejaVuSans-29" transform="translate(208.94 .125)"/><use xlink:href="#DejaVuSans-2264" transform="translate(267.437 .125)"/><use xlink:href="#DejaVuSans-30" transform="translate(370.708 .125)"/></g></g><g class="patch"><path d="m337.956 151.344-35.138 9.627M307.204 161.843l-4.386-.872 3.329-2.986" style="fill:none;opacity:.7;stroke:gray;stroke-linecap:round"/></g><g id="text_21" class="text"><path d="M342.81 151.905h43.5q3 0 3-3v-9.7q0-3-3-3h-43.5q-3 0-3 3v9.7q0 3 3 3z" class="patch" style="fill:var(--white);opacity:.8;stroke:var(--black);stroke-linejoin:miter"/><g style="fill:#ff0" transform="matrix(.1 0 0 -.1 342.81 146.805)"><use xlink:href="#DejaVuSans-Oblique-67" transform="translate(0 .125)"/><use xlink:href="#DejaVuSans-32" transform="matrix(.7 0 0 .7 63.477 -16.281)"/><use xlink:href="#DejaVuSans-28" transform="translate(110.747 .125)"/><use xlink:href="#DejaVuSans-Oblique-78" transform="translate(149.76 .125)"/><use xlink:href="#DejaVuSans-29" transform="translate(208.94 .125)"/><use xlink:href="#DejaVuSans-2264" transform="translate(267.437 .125)"/><use xlink:href="#DejaVuSans-30" transform="translate(370.708 .125)"/></g></g><g class="patch"><path d="m266.092 222.995-32.385-32.385M235.122 194.853l-1.415-4.243 4.243 1.414" style="fill:none;opacity:.7;stroke:gray;stroke-linecap:round"/></g><g id="text_22" class="text"><path d="M254.107 240.61h43.5q3 0 3-3v-9.7q0-3-3-3h-43.5q-3 0-3 3v9.7q0 3 3 3z" class="patch" style="fill:var(--white);opacity:.8;stroke:var(--black);stroke-linejoin:miter"/><g style="fill:#ff8000" transform="matrix(.1 0 0 -.1 254.107 235.51)"><defs><path id="DejaVuSans-33" d="M2597 2516q453-97 707-404 255-306 255-756 0-690-475-1069Q2609-91 1734-91q-293 0-604 58T488 141v609q262-153 574-231 313-78 654-78 593 0 904 234t311 681q0 413-289 645-289 233-804 233h-544v519h569q465 0 712 186t247 536q0 359-255 551-254 193-729 193-260 0-557-57-297-56-653-174v562q360 100 674 150t592 50q719 0 1137-327 419-326 419-882 0-388-222-655t-631-370" transform="scale(.01563)"/></defs><use xlink:href="#DejaVuSans-Oblique-67" transform="translate(0 .125)"/><use xlink:href="#DejaVuSans-33" transform="matrix(.7 0 0 .7 63.477 -16.281)"/><use xlink:href="#DejaVuSans-28" transform="translate(110.747 .125)"/><use xlink:href="#DejaVuSans-Oblique-78" transform="translate(149.76 .125)"/><use xlink:href="#DejaVuSans-29" transform="translate(208.94 .125)"/><use xlink:href="#DejaVuSans-2264" transform="translate(267.437 .125)"/><use xlink:href="#DejaVuSans-30" transform="translate(370.708 .125)"/></g></g><g id="PathCollection_1"><defs><path id="m5a99ea6c02" d="M0 5A5 5 0 1 0 0-5 5 5 0 0 0 0 5z" style="stroke:var(--white);stroke-width:2"/></defs><g clip-path="url(#pe52e59064b)"><use xlink:href="#m5a99ea6c02" x="231.505" y="188.407" style="fill:#ff0001;stroke:var(--white);stroke-width:2"/></g></g></g></g><defs><clipPath id="pe52e59064b"><path d="M54.097 10.999h354.816v266.112H54.097z"/></clipPath></defs></svg>