<svg xmlns="http://www.w3.org/2000/svg" xmlns:xlink="http://www.w3.org/1999/xlink" width="447.147" height="422.137" style="--axis-color:#000;--grid-stroke:rgba(0,0,0,0.2);--plot3d-stroke:rgba(0,0,0,0.3);--plot3d-grid:rgba(0,0,0,0.2);--black:#000000;--c1:#FF0001;--c2:#00FF02;--c3:#0000FF;--c4:#FF00FF;--c5:#00FFFF;--c6:#FFFF00;--c7:#FF8000;--c8:#8000FF;--gray:#7f7f7f;--grey:#7f7f7f;--octonary:#bcbd22;--primary:#d62728;--quaternary:#9467bd;--quinary:#8c564b;--secondary:#2ca02c;--senary:#e377c2;--septenary:#7f7f7f;--tertiary:#1f77b4;--white:#ffffff" viewBox="0 0 335.36 316.603"><style><![CDATA[@media (prefers-color-scheme:dark){:root{--axis-color:#fff;--grid-stroke:rgba(255,255,255,0.2);--plot3d-stroke:rgba(255,255,255,0.3);--plot3d-grid:rgba(255,255,255,0.2);--black:#FFFFFF;--c1:#FF0001;--c2:#00FF02;--c3:#0000FF;--c4:#FF00FF;--c5:#00FFFF;--c6:#FFFF00;--c7:#FF8000;--c8:#8000FF;--gray:#CCCCCC;--grey:#CCCCCC;--octonary:#E6DB74;--primary:#FF4A98;--quaternary:#B4A0FF;--quinary:#FFB86B;--secondary:#0AFAFA;--senary:#FF79C6;--septenary:#CCCCCC;--tertiary:#7F83FF;--white:#000000}}.text{fill:var(--axis-color)!important;stroke:none!important}.axis path,.patch path[style*="stroke: currentColor"],.tick path{stroke:var(--axis-color)!important}@media (prefers-color-scheme:dark){g.legend>g:first-child>path:first-child{fill:rgba(26,26,26,.8)!important;stroke:rgba(255,255,255,.1)!important}}*{stroke-linejoin:round;stroke-linecap:butt}]]></style><g id="figure_1"><path d="M0 316.603h335.36V0H0z" class="patch" style="fill:none"/><g id="axes_1"><path d="M54.097 277.111h266.112V11H54.097z" class="patch" style="fill:none"/><g id="FillBetweenPolyCollection_1"><defs><path id="meb7b2a458a" d="M87.444-139.45v66.694h66.028l.667-.25.667-.667.667-.667.667-.667.666-.667.667-.667.667-.667.667-.667.667-.667.667-.667.667-.666.667-.667.667-.667.667-.667.667-.667.667-.667.667-.667.667-.667.667-.667.667-.667.667-.667.667-.667.667-.667.666-.667.667-.667.667-.667.667-.667.667-.667.667-.667.667-.666.667-.667.667-.667.667-.667.667-.667.667-.667.667-.667.667-.667.667-.667.667-.667.667-.667.667-.667.667-.667.666-.667.667-.667.667-.667.667-.667.667-.667.667-.667.667-.666.667-.667.667-.667.667-.667.667-.667.667-.667.667-.667.667-.667.667-.667.667-.667.667-.667.667-.667.667-.667.666-.667.667-.667.667-.667.667-.667.667-.667.667-.667.667-.666.667-.667.667-.667.667-.667.667-.667.667-.667.667-.667.667-.667.667-.667.667-.667.667-.667.667-.667.667-.667.666-.667.667-.667.667-.667.667-.667.667-.667.667-.667.667-.666.667-.667.667-.667.667-.667.667-.667.667-.667.667-.667.667-.667.667-.667.667-.667.667-.667.667-.667.667-.667.666-.667.667-.667.667-.667.667-.667.667-.667.667-.667.667-.666.667-.667.667-.667.667-.667.667-.667.667-.667.667-.667.667-.667.667-.667.667-.667.667-.667.667-.667.667-.667.666-.667.667-.667.667-.667.667-.667.667-.667.667-.667.667-.666.667-.667.667-.667.667-.667.667-.667.667-.667.667-.667.667-.667.667-.667.667-.667.667-.667.667-.667.667-.667.666-.667.667-.667.667-.667.667-.667.667-.667.667-.667.667-.666.667-.667.667-.667.667-.667.667-.667.667-.667.667-.667.667-.667.667-.667.667-.667.667-.667.667-.667.667-.667.666-.667.667-.667.667-.667.667-.667.667-.667.667-.667.667-.666.667-.667.667-.667.667-.667.667-.667.667-.667.667-.667.667-.667.667-.667.667-.667.667-.667.667-.667.667-.667.666-.667.667-.667.667-.667.667-.667.667-.667.667-.667.667-.666.667-.667.667-.667.667-.667.667-.667.667-.667.667-.667.667-.667.667-.667.667-.667.667-.667.667-.667.667-.667.666-.667.667-.667.667-.667.667-.667.667-.667.667-.667.667-.666.667-.667.667-.667.667-.667.667-.667.667-.667.667-.667.667-.667.667-.667.667-.667.667-.667.667-.667.667-.667.666-.667.667-.667.667-.667.667-.667.667-.667.667-.667.667-.666.667-.667.667-.667.667-.667.667-.667.667-.667.667-.667.667-.667.667-.667.667-.667.667-.667.667-.667.667-.667.666-.667.667-.667.667-.667.667-.667.667-.667.667-.667.667-.666.667-.667.667-.667.667-.667.667-.667.667-.667.667-.667.667-.667.667-.667.667-.667.667-.667.667-.667v-66.528H170.812l-.667.75-.667 1.334-.666 1.334-.667 1.334-.667 1.334-.667 1.334-.667 1.334-.667 1.334-.667 1.334-.667 1.333-.667 1.334-.667 1.334-.667 1.334-.667 1.334-.667 1.334-.667 1.334-.667 1.334-.667 1.334-.667 1.334-.667 1.333-.667 1.334-.666 1.334-.667 1.334-.667 1.334-.667 1.334-.667 1.334-.667 1.334-.667 1.334-.667 1.333-.667 1.334-.667 1.334-.667 1.334-.667 1.334-.667 1.334-.667 1.334-.667 1.334-.667 1.334-.667 1.334-.667 1.333-.667 1.334-.666 1.334-.667 1.334-.667 1.334-.667 1.334-.667 1.334-.667 1.334-.667 1.334-.667 1.333-.667 1.334-.667 1.334-.667 1.334-.667 1.334-.667 1.334-.667 1.334-.667 1.334-.667 1.334-.667 1.334-.667 1.333-.667 1.334-.666 1.334-.667 1.334-.667 1.334-.667 1.334-.667 1.334-.667 1.334-.667 1.334-.667 1.333-.667 1.334-.667 1.334-.667 1.334-.667 1.334-.667 1.334-.667 1.334-.667 1.334-.667 1.334-.667 1.334-.667 1.333-.667 1.334-.666 1.334-.667 1.334-.667 1.334-.667 1.334-.667 1.334-.667 1.334-.667 1.334-.667 1.333-.667 1.334-.667 1.334-.667 1.334-.667 1.334-.667 1.334-.667 1.334-.667 1.334-.667 1.334-.667 1.334-.667 1.333-.667 1.334-.666 1.334-.667 1.334-.667 1.334-.667 1.334-.667 1.334-.667 1.334-.667 1.334-.667 1.333-.667 1.334-.667 1.334-.667 1.334-.667 1.334-.667 1.334-.667 1.334-.667 1.334-.667 1.334-.667 1.334-.667 1.333-.667 1.334-.666 1.334-.667 1.334-.667 1.334-.667 1.334-.667 1.334-.667 1.334-.667 1.334-.667 1.333z" style="stroke:#8000ff;stroke-opacity:.5"/></defs><g clip-path="url(#pabc563fefe)"><use xlink:href="#meb7b2a458a" y="316.603" style="fill:#8000ff;fill-opacity:.5;stroke:#8000ff;stroke-opacity:.5"/></g></g><g class="axis"><g class="tick xtick"><path id="line2d_1" d="M54.097 277.111V11" clip-path="url(#pabc563fefe)" style="fill:none;stroke:#b0b0b0;stroke-opacity:.3;stroke-width:.8;stroke-linecap:square"/><g id="line2d_2"><defs><path id="mcf4c591364" d="M0 0v3.5" style="stroke:var(--black);stroke-width:.8"/></defs><use xlink:href="#mcf4c591364" x="54.097" y="277.111" style="stroke:var(--black);stroke-width:.8"/></g><g id="text_1" class="text" transform="matrix(.1 0 0 -.1 41.955 291.71)"><defs><path id="DejaVuSans-2212" d="M678 2272h4006v-531H678z" transform="scale(.01563)"/><path id="DejaVuSans-30" d="M2034 4250q-487 0-733-480-245-479-245-1442 0-959 245-1439 246-480 733-480 491 0 736 480 246 480 246 1439 0 963-246 1442-245 480-736 480zm0 500q785 0 1199-621 414-620 414-1801 0-1178-414-1799Q2819-91 2034-91q-784 0-1198 620-414 621-414 1799 0 1181 414 1801 414 621 1198 621z" transform="scale(.01563)"/><path id="DejaVuSans-2e" d="M684 794h660V0H684z" transform="scale(.01563)"/><path id="DejaVuSans-35" d="M691 4666h2478v-532H1269V2991q137 47 274 70 138 23 276 23 781 0 1237-428 457-428 457-1159 0-753-469-1171Q2575-91 1722-91q-294 0-599 50Q819 9 494 109v635q281-153 581-228t634-75q541 0 856 284 316 284 316 772 0 487-316 771-315 285-856 285-253 0-505-56-251-56-513-175z" transform="scale(.01563)"/></defs><use xlink:href="#DejaVuSans-2212"/><use xlink:href="#DejaVuSans-30" transform="translate(83.79)"/><use xlink:href="#DejaVuSans-2e" transform="translate(147.412)"/><use xlink:href="#DejaVuSans-35" transform="translate(179.2)"/></g></g><g class="tick xtick"><path id="line2d_3" d="M87.36 277.111V11" clip-path="url(#pabc563fefe)" style="fill:none;stroke:#b0b0b0;stroke-opacity:.3;stroke-width:.8;stroke-linecap:square"/><use xlink:href="#mcf4c591364" id="line2d_4" x="87.361" y="277.111" style="stroke:var(--black);stroke-width:.8"/><g id="text_2" class="text" transform="matrix(.1 0 0 -.1 79.409 291.71)"><use xlink:href="#DejaVuSans-30"/><use xlink:href="#DejaVuSans-2e" transform="translate(63.623)"/><use xlink:href="#DejaVuSans-30" transform="translate(95.41)"/></g></g><g class="tick xtick"><path id="line2d_5" d="M120.625 277.111V11" clip-path="url(#pabc563fefe)" style="fill:none;stroke:#b0b0b0;stroke-opacity:.3;stroke-width:.8;stroke-linecap:square"/><use xlink:href="#mcf4c591364" id="line2d_6" x="120.625" y="277.111" style="stroke:var(--black);stroke-width:.8"/><g id="text_3" class="text" transform="matrix(.1 0 0 -.1 112.673 291.71)"><use xlink:href="#DejaVuSans-30"/><use xlink:href="#DejaVuSans-2e" transform="translate(63.623)"/><use xlink:href="#DejaVuSans-35" transform="translate(95.41)"/></g></g><g class="tick xtick"><path id="line2d_7" d="M153.889 277.111V11" clip-path="url(#pabc563fefe)" style="fill:none;stroke:#b0b0b0;stroke-opacity:.3;stroke-width:.8;stroke-linecap:square"/><use xlink:href="#mcf4c591364" id="line2d_8" x="153.889" y="277.111" style="stroke:var(--black);stroke-width:.8"/><g id="text_4" class="text" transform="matrix(.1 0 0 -.1 145.937 291.71)"><defs><path id="DejaVuSans-31" d="M794 531h1031v3560L703 3866v575l1116 225h631V531h1031V0H794z" transform="scale(.01563)"/></defs><use xlink:href="#DejaVuSans-31"/><use xlink:href="#DejaVuSans-2e" transform="translate(63.623)"/><use xlink:href="#DejaVuSans-30" transform="translate(95.41)"/></g></g><g class="tick xtick"><path id="line2d_9" d="M187.153 277.111V11" clip-path="url(#pabc563fefe)" style="fill:none;stroke:#b0b0b0;stroke-opacity:.3;stroke-width:.8;stroke-linecap:square"/><use xlink:href="#mcf4c591364" id="line2d_10" x="187.153" y="277.111" style="stroke:var(--black);stroke-width:.8"/><g id="text_5" class="text" transform="matrix(.1 0 0 -.1 179.201 291.71)"><use xlink:href="#DejaVuSans-31"/><use xlink:href="#DejaVuSans-2e" transform="translate(63.623)"/><use xlink:href="#DejaVuSans-35" transform="translate(95.41)"/></g></g><g class="tick xtick"><path id="line2d_11" d="M220.417 277.111V11" clip-path="url(#pabc563fefe)" style="fill:none;stroke:#b0b0b0;stroke-opacity:.3;stroke-width:.8;stroke-linecap:square"/><use xlink:href="#mcf4c591364" id="line2d_12" x="220.417" y="277.111" style="stroke:var(--black);stroke-width:.8"/><g id="text_6" class="text" transform="matrix(.1 0 0 -.1 212.465 291.71)"><defs><path id="DejaVuSans-32" d="M1228 531h2203V0H469v531q359 372 979 998 621 627 780 809 303 340 423 576 121 236 121 464 0 372-261 606-261 235-680 235-297 0-627-103-329-103-704-313v638q381 153 712 231 332 78 607 78 725 0 1156-363 431-362 431-968 0-288-108-546-107-257-392-607-78-91-497-524-418-433-1181-1211z" transform="scale(.01563)"/></defs><use xlink:href="#DejaVuSans-32"/><use xlink:href="#DejaVuSans-2e" transform="translate(63.623)"/><use xlink:href="#DejaVuSans-30" transform="translate(95.41)"/></g></g><g class="tick xtick"><path id="line2d_13" d="M253.68 277.111V11" clip-path="url(#pabc563fefe)" style="fill:none;stroke:#b0b0b0;stroke-opacity:.3;stroke-width:.8;stroke-linecap:square"/><use xlink:href="#mcf4c591364" id="line2d_14" x="253.681" y="277.111" style="stroke:var(--black);stroke-width:.8"/><g id="text_7" class="text" transform="matrix(.1 0 0 -.1 245.729 291.71)"><use xlink:href="#DejaVuSans-32"/><use xlink:href="#DejaVuSans-2e" transform="translate(63.623)"/><use xlink:href="#DejaVuSans-35" transform="translate(95.41)"/></g></g><g class="tick xtick"><path id="line2d_15" d="M286.945 277.111V11" clip-path="url(#pabc563fefe)" style="fill:none;stroke:#b0b0b0;stroke-opacity:.3;stroke-width:.8;stroke-linecap:square"/><use xlink:href="#mcf4c591364" id="line2d_16" x="286.945" y="277.111" style="stroke:var(--black);stroke-width:.8"/><g id="text_8" class="text" transform="matrix(.1 0 0 -.1 278.993 291.71)"><defs><path id="DejaVuSans-33" d="M2597 2516q453-97 707-404 255-306 255-756 0-690-475-1069Q2609-91 1734-91q-293 0-604 58T488 141v609q262-153 574-231 313-78 654-78 593 0 904 234t311 681q0 413-289 645-289 233-804 233h-544v519h569q465 0 712 186t247 536q0 359-255 551-254 193-729 193-260 0-557-57-297-56-653-174v562q360 100 674 150t592 50q719 0 1137-327 419-326 419-882 0-388-222-655t-631-370z" transform="scale(.01563)"/></defs><use xlink:href="#DejaVuSans-33"/><use xlink:href="#DejaVuSans-2e" transform="translate(63.623)"/><use xlink:href="#DejaVuSans-30" transform="translate(95.41)"/></g></g><g class="tick xtick"><path id="line2d_17" d="M320.209 277.111V11" clip-path="url(#pabc563fefe)" style="fill:none;stroke:#b0b0b0;stroke-opacity:.3;stroke-width:.8;stroke-linecap:square"/><use xlink:href="#mcf4c591364" id="line2d_18" x="320.209" y="277.111" style="stroke:var(--black);stroke-width:.8"/><g id="text_9" class="text" transform="matrix(.1 0 0 -.1 312.257 291.71)"><use xlink:href="#DejaVuSans-33"/><use xlink:href="#DejaVuSans-2e" transform="translate(63.623)"/><use xlink:href="#DejaVuSans-35" transform="translate(95.41)"/></g></g><g id="text_10" class="text" transform="matrix(.12 0 0 -.12 180.733 306.907)"><defs><path id="DejaVuSans-Oblique-78" d="M3841 3500 2234 1784 3219 0h-660l-740 1388L531 0h-697l1722 1844-915 1656h659l672-1266 1172 1266z" transform="scale(.01563)"/></defs><use xlink:href="#DejaVuSans-Oblique-78" transform="translate(0 .313)"/><use xlink:href="#DejaVuSans-31" transform="matrix(.7 0 0 .7 59.18 -16.094)"/></g></g><g class="axis"><g class="tick ytick"><path id="line2d_19" d="M54.097 277.111h266.112" clip-path="url(#pabc563fefe)" style="fill:none;stroke:#b0b0b0;stroke-opacity:.3;stroke-width:.8;stroke-linecap:square"/><g id="line2d_20"><defs><path id="mf4a848c20b" d="M0 0h-3.5" style="stroke:var(--black);stroke-width:.8"/></defs><use xlink:href="#mf4a848c20b" x="54.097" y="277.111" style="stroke:var(--black);stroke-width:.8"/></g><g id="text_11" class="text" transform="matrix(.1 0 0 -.1 22.814 280.91)"><use xlink:href="#DejaVuSans-2212"/><use xlink:href="#DejaVuSans-30" transform="translate(83.79)"/><use xlink:href="#DejaVuSans-2e" transform="translate(147.412)"/><use xlink:href="#DejaVuSans-35" transform="translate(179.2)"/></g></g><g class="tick ytick"><path id="line2d_21" d="M54.097 243.847h266.112" clip-path="url(#pabc563fefe)" style="fill:none;stroke:#b0b0b0;stroke-opacity:.3;stroke-width:.8;stroke-linecap:square"/><use xlink:href="#mf4a848c20b" id="line2d_22" x="54.097" y="243.847" style="stroke:var(--black);stroke-width:.8"/><g id="text_12" class="text" transform="matrix(.1 0 0 -.1 31.193 247.646)"><use xlink:href="#DejaVuSans-30"/><use xlink:href="#DejaVuSans-2e" transform="translate(63.623)"/><use xlink:href="#DejaVuSans-30" transform="translate(95.41)"/></g></g><g class="tick ytick"><path id="line2d_23" d="M54.097 210.583h266.112" clip-path="url(#pabc563fefe)" style="fill:none;stroke:#b0b0b0;stroke-opacity:.3;stroke-width:.8;stroke-linecap:square"/><use xlink:href="#mf4a848c20b" id="line2d_24" x="54.097" y="210.583" style="stroke:var(--black);stroke-width:.8"/><g id="text_13" class="text" transform="matrix(.1 0 0 -.1 31.193 214.382)"><use xlink:href="#DejaVuSans-30"/><use xlink:href="#DejaVuSans-2e" transform="translate(63.623)"/><use xlink:href="#DejaVuSans-35" transform="translate(95.41)"/></g></g><g class="tick ytick"><path id="line2d_25" d="M54.097 177.32h266.112" clip-path="url(#pabc563fefe)" style="fill:none;stroke:#b0b0b0;stroke-opacity:.3;stroke-width:.8;stroke-linecap:square"/><use xlink:href="#mf4a848c20b" id="line2d_26" x="54.097" y="177.319" style="stroke:var(--black);stroke-width:.8"/><g id="text_14" class="text" transform="matrix(.1 0 0 -.1 31.193 181.118)"><use xlink:href="#DejaVuSans-31"/><use xlink:href="#DejaVuSans-2e" transform="translate(63.623)"/><use xlink:href="#DejaVuSans-30" transform="translate(95.41)"/></g></g><g class="tick ytick"><path id="line2d_27" d="M54.097 144.055h266.112" clip-path="url(#pabc563fefe)" style="fill:none;stroke:#b0b0b0;stroke-opacity:.3;stroke-width:.8;stroke-linecap:square"/><use xlink:href="#mf4a848c20b" id="line2d_28" x="54.097" y="144.055" style="stroke:var(--black);stroke-width:.8"/><g id="text_15" class="text" transform="matrix(.1 0 0 -.1 31.193 147.854)"><use xlink:href="#DejaVuSans-31"/><use xlink:href="#DejaVuSans-2e" transform="translate(63.623)"/><use xlink:href="#DejaVuSans-35" transform="translate(95.41)"/></g></g><g class="tick ytick"><path id="line2d_29" d="M54.097 110.791h266.112" clip-path="url(#pabc563fefe)" style="fill:none;stroke:#b0b0b0;stroke-opacity:.3;stroke-width:.8;stroke-linecap:square"/><use xlink:href="#mf4a848c20b" id="line2d_30" x="54.097" y="110.791" style="stroke:var(--black);stroke-width:.8"/><g id="text_16" class="text" transform="matrix(.1 0 0 -.1 31.193 114.59)"><use xlink:href="#DejaVuSans-32"/><use xlink:href="#DejaVuSans-2e" transform="translate(63.623)"/><use xlink:href="#DejaVuSans-30" transform="translate(95.41)"/></g></g><g class="tick ytick"><path id="line2d_31" d="M54.097 77.527h266.112" clip-path="url(#pabc563fefe)" style="fill:none;stroke:#b0b0b0;stroke-opacity:.3;stroke-width:.8;stroke-linecap:square"/><use xlink:href="#mf4a848c20b" id="line2d_32" x="54.097" y="77.527" style="stroke:var(--black);stroke-width:.8"/><g id="text_17" class="text" transform="matrix(.1 0 0 -.1 31.193 81.326)"><use xlink:href="#DejaVuSans-32"/><use xlink:href="#DejaVuSans-2e" transform="translate(63.623)"/><use xlink:href="#DejaVuSans-35" transform="translate(95.41)"/></g></g><g class="tick ytick"><path id="line2d_33" d="M54.097 44.263h266.112" clip-path="url(#pabc563fefe)" style="fill:none;stroke:#b0b0b0;stroke-opacity:.3;stroke-width:.8;stroke-linecap:square"/><use xlink:href="#mf4a848c20b" id="line2d_34" x="54.097" y="44.263" style="stroke:var(--black);stroke-width:.8"/><g id="text_18" class="text" transform="matrix(.1 0 0 -.1 31.193 48.062)"><use xlink:href="#DejaVuSans-33"/><use xlink:href="#DejaVuSans-2e" transform="translate(63.623)"/><use xlink:href="#DejaVuSans-30" transform="translate(95.41)"/></g></g><g class="tick ytick"><path id="line2d_35" d="M54.097 11h266.112" clip-path="url(#pabc563fefe)" style="fill:none;stroke:#b0b0b0;stroke-opacity:.3;stroke-width:.8;stroke-linecap:square"/><use xlink:href="#mf4a848c20b" id="line2d_36" x="54.097" y="10.999" style="stroke:var(--black);stroke-width:.8"/><g id="text_19" class="text" transform="matrix(.1 0 0 -.1 31.193 14.798)"><use xlink:href="#DejaVuSans-33"/><use xlink:href="#DejaVuSans-2e" transform="translate(63.623)"/><use xlink:href="#DejaVuSans-35" transform="translate(95.41)"/></g></g><g id="text_20" class="text" transform="matrix(0 -.12 -.12 0 16.318 150.475)"><use xlink:href="#DejaVuSans-Oblique-78" transform="translate(0 .313)"/><use xlink:href="#DejaVuSans-32" transform="matrix(.7 0 0 .7 59.18 -16.094)"/></g></g><path id="line2d_37" d="M54.097 11h266.112" clip-path="url(#pabc563fefe)" style="fill:none;stroke-dasharray:3.7,1.6;stroke-dashoffset:0;stroke:var(--black)"/><path id="line2d_38" d="M320.209 277.111V11" clip-path="url(#pabc563fefe)" style="fill:none;stroke-dasharray:3.7,1.6;stroke-dashoffset:0;stroke:var(--black)"/><path id="line2d_39" d="M54.097 243.847h266.112" clip-path="url(#pabc563fefe)" style="fill:none;stroke:var(--black);stroke-opacity:.5;stroke-width:.8;stroke-linecap:square"/><path id="line2d_40" d="M87.36 277.111V11" clip-path="url(#pabc563fefe)" style="fill:none;stroke:var(--black);stroke-opacity:.5;stroke-width:.8;stroke-linecap:square"/><path d="M54.097 277.111V11M54.097 277.111h266.112" class="patch" style="fill:none;stroke:var(--black);stroke-width:.8;stroke-linejoin:miter;stroke-linecap:square"/><path id="line2d_41" d="M54.097 243.847 176.52-1h0" clip-path="url(#pabc563fefe)" style="fill:none;stroke:var(--black);stroke-width:2;stroke-linecap:square"/><path id="line2d_42" d="M80.133 317.603 320.209 77.527h0" clip-path="url(#pabc563fefe)" style="fill:none;stroke:var(--black);stroke-width:2;stroke-linecap:square"/><path id="line2d_43" d="M54.097 243.847h266.112" clip-path="url(#pabc563fefe)" style="fill:none;stroke:var(--black);stroke-width:2;stroke-linecap:square"/><path id="line2d_44" d="M87.36 277.111V11h0" clip-path="url(#pabc563fefe)" style="fill:none;stroke:var(--black);stroke-width:2;stroke-linecap:square"/><g class="legend"><path d="M203.046 107.068H313.21q2 0 2-2V17.999q0-2-2-2H203.046q-2 0-2 2v87.069q0 2 2 2z" class="patch" style="fill:rgba(255,255,255,.8)!important;opacity:.9;stroke:rgba(0,0,0,.1)!important;stroke-linejoin:miter"/><path id="line2d_45" d="M205.046 24.098h20" style="fill:none;stroke:var(--black);stroke-width:2;stroke-linecap:square"/><g id="text_21" class="text" transform="matrix(.1 0 0 -.1 233.046 27.598)"><defs><path id="DejaVuSans-2b" d="M2944 4013V2272h1740v-531H2944V0h-525v1741H678v531h1741v1741z" transform="scale(.01563)"/><path id="DejaVuSans-2264" d="m4684 3175-3000-866 3000-856V897L678 2047v531l4006 1147zM678 531h4006V0H678z" transform="scale(.01563)"/></defs><use xlink:href="#DejaVuSans-2212" transform="translate(0 .781)"/><use xlink:href="#DejaVuSans-32" transform="translate(83.79 .781)"/><use xlink:href="#DejaVuSans-Oblique-78" transform="translate(147.412 .781)"/><use xlink:href="#DejaVuSans-31" transform="matrix(.7 0 0 .7 206.592 -15.625)"/><use xlink:href="#DejaVuSans-2b" transform="translate(273.345 .781)"/><use xlink:href="#DejaVuSans-Oblique-78" transform="translate(376.616 .781)"/><use xlink:href="#DejaVuSans-32" transform="matrix(.7 0 0 .7 435.796 -15.625)"/><use xlink:href="#DejaVuSans-2264" transform="translate(502.549 .781)"/><use xlink:href="#DejaVuSans-31" transform="translate(605.82 .781)"/></g><path id="line2d_46" d="M205.046 38.776h20" style="fill:none;stroke:var(--black);stroke-width:2;stroke-linecap:square"/><g id="text_22" class="text" transform="matrix(.1 0 0 -.1 233.046 42.276)"><use xlink:href="#DejaVuSans-Oblique-78" transform="translate(0 .094)"/><use xlink:href="#DejaVuSans-31" transform="matrix(.7 0 0 .7 59.18 -16.313)"/><use xlink:href="#DejaVuSans-2212" transform="translate(125.933 .094)"/><use xlink:href="#DejaVuSans-Oblique-78" transform="translate(229.204 .094)"/><use xlink:href="#DejaVuSans-32" transform="matrix(.7 0 0 .7 288.384 -16.313)"/><use xlink:href="#DejaVuSans-2264" transform="translate(355.137 .094)"/><use xlink:href="#DejaVuSans-31" transform="translate(458.408 .094)"/></g><path id="line2d_47" d="M205.046 53.454h20" style="fill:none;stroke:var(--black);stroke-width:2;stroke-linecap:square"/><g id="text_23" class="text" transform="matrix(.1 0 0 -.1 233.046 56.954)"><defs><path id="DejaVuSans-2265" d="M678 3175v550l4006-1147v-531L678 897v556l3003 856zM4684 531V0H678v531z" transform="scale(.01563)"/></defs><use xlink:href="#DejaVuSans-Oblique-78" transform="translate(0 .781)"/><use xlink:href="#DejaVuSans-32" transform="matrix(.7 0 0 .7 59.18 -15.625)"/><use xlink:href="#DejaVuSans-2265" transform="translate(125.933 .781)"/><use xlink:href="#DejaVuSans-30" transform="translate(229.204 .781)"/></g><path id="line2d_48" d="M205.046 68.132h20" style="fill:none;stroke:var(--black);stroke-width:2;stroke-linecap:square"/><g id="text_24" class="text" transform="matrix(.1 0 0 -.1 233.046 71.632)"><use xlink:href="#DejaVuSans-Oblique-78" transform="translate(0 .781)"/><use xlink:href="#DejaVuSans-31" transform="matrix(.7 0 0 .7 59.18 -15.625)"/><use xlink:href="#DejaVuSans-2265" transform="translate(125.933 .781)"/><use xlink:href="#DejaVuSans-30" transform="translate(229.204 .781)"/></g><path d="M205.046 86.31h20v-7h-20z" class="patch" style="fill:#8000ff;fill-opacity:.5;stroke:#8000ff;stroke-opacity:.5;stroke-linejoin:miter"/><g id="text_25" class="text" transform="matrix(.1 0 0 -.1 233.046 86.31)"><defs><path id="DejaVuSans-46" d="M628 4666h2681v-532H1259V2759h1850v-531H1259V0H628z" transform="scale(.01563)"/><path id="DejaVuSans-65" d="M3597 1894v-281H953q38-594 358-905t892-311q331 0 642 81t618 244V178Q3153 47 2828-22t-659-69q-838 0-1327 487-489 488-489 1320 0 859 464 1363 464 505 1252 505 706 0 1117-455 411-454 411-1235m-575 169q-6 471-264 752-258 282-683 282-481 0-770-272t-333-766z" transform="scale(.01563)"/><path id="DejaVuSans-61" d="M2194 1759q-697 0-966-159t-269-544q0-306 202-486 202-179 548-179 479 0 768 339t289 901v128zm1147 238V0h-575v531q-197-318-491-470T1556-91q-537 0-855 302-317 302-317 808 0 590 395 890 396 300 1180 300h807v57q0 397-261 614t-733 217q-300 0-585-72-284-72-546-216v532q315 122 612 182 297 61 578 61 760 0 1135-394 375-393 375-1193" transform="scale(.01563)"/><path id="DejaVuSans-73" d="M2834 3397v-544q-243 125-506 187-262 63-544 63-428 0-642-131t-214-394q0-200 153-314t616-217l197-44q612-131 870-370t258-667q0-488-386-773Q2250-91 1575-91q-281 0-586 55T347 128v594q319-166 628-249 309-82 613-82 406 0 624 139 219 139 219 392 0 234-158 359-157 125-692 241l-200 47q-534 112-772 345-237 233-237 639 0 494 350 762 350 269 994 269 318 0 599-47 282-46 519-140" transform="scale(.01563)"/><path id="DejaVuSans-69" d="M603 3500h575V0H603zm0 1363h575v-729H603z" transform="scale(.01563)"/><path id="DejaVuSans-62" d="M3116 1747q0 634-261 995t-717 361q-457 0-718-361t-261-995 261-995 718-361q456 0 717 361t261 995M1159 2969q182 312 458 463 277 152 661 152 638 0 1036-506 399-506 399-1331T3314 415Q2916-91 2278-91q-384 0-661 152-276 152-458 464V0H581v4863h578z" transform="scale(.01563)"/><path id="DejaVuSans-6c" d="M603 4863h575V0H603z" transform="scale(.01563)"/><path id="DejaVuSans-52" d="M2841 2188q203-69 395-294t386-619L4263 0h-679l-596 1197q-232 469-449 622t-592 153h-688V0H628v4666h1425q800 0 1194-335 394-334 394-1009 0-441-205-732-205-290-595-402M1259 4147V2491h794q456 0 689 211t233 620-233 617-689 208z" transform="scale(.01563)"/><path id="DejaVuSans-67" d="M2906 1791q0 625-258 968-257 344-723 344-462 0-720-344-258-343-258-968 0-622 258-966t720-344q466 0 723 344 258 344 258 966m575-1357q0-893-397-1329-396-436-1215-436-303 0-572 45t-522 139v559q253-137 500-202 247-66 503-66 566 0 847 295t281 892v285q-178-310-456-463T1784 0Q1141 0 747 490 353 981 353 1791q0 812 394 1302 394 491 1037 491 388 0 666-153t456-462v531h575z" transform="scale(.01563)"/><path id="DejaVuSans-6f" d="M1959 3097q-462 0-731-361t-269-989 267-989q268-361 733-361 460 0 728 362 269 363 269 988 0 622-269 986-268 364-728 364m0 487q750 0 1178-488 429-487 429-1349 0-859-429-1349Q2709-91 1959-91q-753 0-1180 489-426 490-426 1349 0 862 426 1349 427 488 1180 488" transform="scale(.01563)"/><path id="DejaVuSans-6e" d="M3513 2113V0h-575v2094q0 497-194 743-194 247-581 247-466 0-735-297-269-296-269-809V0H581v3500h578v-544q207 316 486 472 280 156 646 156 603 0 912-373 310-373 310-1098" transform="scale(.01563)"/></defs><use xlink:href="#DejaVuSans-46"/><use xlink:href="#DejaVuSans-65" transform="translate(52.02)"/><use xlink:href="#DejaVuSans-61" transform="translate(113.543)"/><use xlink:href="#DejaVuSans-73" transform="translate(174.822)"/><use xlink:href="#DejaVuSans-69" transform="translate(226.922)"/><use xlink:href="#DejaVuSans-62" transform="translate(254.705)"/><use xlink:href="#DejaVuSans-6c" transform="translate(318.182)"/><use xlink:href="#DejaVuSans-65" transform="translate(345.965)"/><use xlink:href="#DejaVuSans-52" transform="translate(439.275)"/><use xlink:href="#DejaVuSans-65" transform="translate(504.258)"/><use xlink:href="#DejaVuSans-67" transform="translate(565.781)"/><use xlink:href="#DejaVuSans-69" transform="translate(629.258)"/><use xlink:href="#DejaVuSans-6f" transform="translate(657.041)"/><use xlink:href="#DejaVuSans-6e" transform="translate(718.223)"/></g><g id="PathCollection_1"><defs><path id="m6e8259fd55" d="M0 5A5 5 0 1 0 0-5 5 5 0 0 0 0 5z" style="stroke:var(--white);stroke-width:1.5"/></defs><use xlink:href="#m6e8259fd55" x="215.046" y="98.363" style="fill:#ff0001;stroke:var(--white);stroke-width:1.5"/></g><g id="text_26" class="text" transform="matrix(.1 0 0 -.1 233.046 100.988)"><defs><path id="DejaVuSans-56" d="M1831 0 50 4666h659L2188 738l1481 3928h656L2547 0z" transform="scale(.01563)"/><path id="DejaVuSans-72" d="M2631 2963q-97 56-211 82-114 27-251 27-488 0-749-317t-261-911V0H581v3500h578v-544q182 319 472 473 291 155 707 155 59 0 131-8 72-7 159-23z" transform="scale(.01563)"/><path id="DejaVuSans-74" d="M1172 4494v-994h1184v-447H1172V1153q0-428 117-550t477-122h590V0h-590q-666 0-919 248-253 249-253 905v1900H172v447h422v994z" transform="scale(.01563)"/><path id="DejaVuSans-63" d="M3122 3366v-538q-244 135-489 202t-495 67q-560 0-870-355-309-354-309-995t309-996q310-354 870-354 250 0 495 67t489 202V134Q2881 22 2623-34q-257-57-548-57-791 0-1257 497-465 497-465 1341 0 856 470 1346 471 491 1290 491 265 0 518-55 253-54 491-163" transform="scale(.01563)"/></defs><use xlink:href="#DejaVuSans-56"/><use xlink:href="#DejaVuSans-65" transform="translate(60.658)"/><use xlink:href="#DejaVuSans-72" transform="translate(122.182)"/><use xlink:href="#DejaVuSans-74" transform="translate(163.295)"/><use xlink:href="#DejaVuSans-69" transform="translate(202.504)"/><use xlink:href="#DejaVuSans-63" transform="translate(230.287)"/><use xlink:href="#DejaVuSans-65" transform="translate(285.268)"/><use xlink:href="#DejaVuSans-73" transform="translate(346.791)"/></g></g><g id="PathCollection_2" clip-path="url(#pabc563fefe)"><use xlink:href="#m6e8259fd55" x="87.361" y="243.847" style="fill:#ff0001;stroke:var(--white);stroke-width:1.5"/><use xlink:href="#m6e8259fd55" x="87.361" y="177.319" style="fill:#ff0001;stroke:var(--white);stroke-width:1.5"/><use xlink:href="#m6e8259fd55" x="153.889" y="243.847" style="fill:#ff0001;stroke:var(--white);stroke-width:1.5"/></g></g></g><defs><clipPath id="pabc563fefe"><path d="M54.097 10.999h266.112v266.112H54.097z"/></clipPath></defs></svg>