<?xml version="1.0" encoding="utf-8" standalone="no"?>
<!DOCTYPE svg PUBLIC "-//W3C//DTD SVG 1.1//EN"
  "http://www.w3.org/Graphics/SVG/1.1/DTD/svg11.dtd">
<svg xmlns:xlink="http://www.w3.org/1999/xlink" width="335.360125pt" height="316.603094pt" viewBox="0 0 335.360125 316.603094" xmlns="http://www.w3.org/2000/svg" version="1.1">
<style>/* === RDF autogenerated palette === */
:root {
    --axis-color: #000;
    --grid-stroke: rgba(0,0,0,0.2);
    --plot3d-stroke: rgba(0,0,0,0.3);
    --plot3d-grid: rgba(0,0,0,0.2);
}
@media (prefers-color-scheme: dark) {
    :root {
        --axis-color: #fff;
        --grid-stroke: rgba(255,255,255,0.2);
        --plot3d-stroke: rgba(255,255,255,0.3);
        --plot3d-grid: rgba(255,255,255,0.2);
    }
}

/* Light‑mode palette */
.black { fill:#000000; stroke:#000000; }:root { --black: #000000; }.c1 { fill:#FF0001; stroke:#FF0001; }:root { --c1: #FF0001; }.c2 { fill:#00FF02; stroke:#00FF02; }:root { --c2: #00FF02; }.c3 { fill:#0000FF; stroke:#0000FF; }:root { --c3: #0000FF; }.c4 { fill:#FF00FF; stroke:#FF00FF; }:root { --c4: #FF00FF; }.c5 { fill:#00FFFF; stroke:#00FFFF; }:root { --c5: #00FFFF; }.c6 { fill:#FFFF00; stroke:#FFFF00; }:root { --c6: #FFFF00; }.c7 { fill:#FF8000; stroke:#FF8000; }:root { --c7: #FF8000; }.c8 { fill:#8000FF; stroke:#8000FF; }:root { --c8: #8000FF; }.gray { fill:#7f7f7f; stroke:#7f7f7f; }:root { --gray: #7f7f7f; }.grey { fill:#7f7f7f; stroke:#7f7f7f; }:root { --grey: #7f7f7f; }.octonary { fill:#bcbd22; stroke:#bcbd22; }:root { --octonary: #bcbd22; }.primary { fill:#d62728; stroke:#d62728; }:root { --primary: #d62728; }.quaternary { fill:#9467bd; stroke:#9467bd; }:root { --quaternary: #9467bd; }.quinary { fill:#8c564b; stroke:#8c564b; }:root { --quinary: #8c564b; }.secondary { fill:#2ca02c; stroke:#2ca02c; }:root { --secondary: #2ca02c; }.senary { fill:#e377c2; stroke:#e377c2; }:root { --senary: #e377c2; }.septenary { fill:#7f7f7f; stroke:#7f7f7f; }:root { --septenary: #7f7f7f; }.tertiary { fill:#1f77b4; stroke:#1f77b4; }:root { --tertiary: #1f77b4; }.white { fill:#ffffff; stroke:#ffffff; }:root { --white: #ffffff; }

/* Dark overrides */
@media (prefers-color-scheme: dark) {
    .black { fill:#FFFFFF; stroke:#FFFFFF; }:root { --black: #FFFFFF; }.c1 { fill:#FF0001; stroke:#FF0001; }:root { --c1: #FF0001; }.c2 { fill:#00FF02; stroke:#00FF02; }:root { --c2: #00FF02; }.c3 { fill:#0000FF; stroke:#0000FF; }:root { --c3: #0000FF; }.c4 { fill:#FF00FF; stroke:#FF00FF; }:root { --c4: #FF00FF; }.c5 { fill:#00FFFF; stroke:#00FFFF; }:root { --c5: #00FFFF; }.c6 { fill:#FFFF00; stroke:#FFFF00; }:root { --c6: #FFFF00; }.c7 { fill:#FF8000; stroke:#FF8000; }:root { --c7: #FF8000; }.c8 { fill:#8000FF; stroke:#8000FF; }:root { --c8: #8000FF; }.gray { fill:#CCCCCC; stroke:#CCCCCC; }:root { --gray: #CCCCCC; }.grey { fill:#CCCCCC; stroke:#CCCCCC; }:root { --grey: #CCCCCC; }.octonary { fill:#E6DB74; stroke:#E6DB74; }:root { --octonary: #E6DB74; }.primary { fill:#FF4A98; stroke:#FF4A98; }:root { --primary: #FF4A98; }.quaternary { fill:#B4A0FF; stroke:#B4A0FF; }:root { --quaternary: #B4A0FF; }.quinary { fill:#FFB86B; stroke:#FFB86B; }:root { --quinary: #FFB86B; }.secondary { fill:#0AFAFA; stroke:#0AFAFA; }:root { --secondary: #0AFAFA; }.senary { fill:#FF79C6; stroke:#FF79C6; }:root { --senary: #FF79C6; }.septenary { fill:#CCCCCC; stroke:#CCCCCC; }:root { --septenary: #CCCCCC; }.tertiary { fill:#7F83FF; stroke:#7F83FF; }:root { --tertiary: #7F83FF; }.white { fill:#000000; stroke:#000000; }:root { --white: #000000; }
}/* Axis, ticks, legend */
text, .text { fill: var(--axis-color) !important; stroke: none !important; }
.axis line, .axis path,
.tick line, .tick path,
path.domain,
line.grid { stroke: var(--axis-color) !important; }
.legend text { fill: var(--axis-color) !important; }

/* Patch paths that relied on currentColor */
.patch path[style*="stroke: currentColor"] { stroke: var(--axis-color) !important; }

/* Legend background (first child of legend group) */
g.legend > g:first-child > path:first-child {
    fill: rgba(255,255,255,0.8) !important;
    stroke: rgba(0,0,0,0.1) !important;
}
@media (prefers-color-scheme: dark) {
    g.legend > g:first-child > path:first-child {
        fill: rgba(26,26,26,0.8) !important;
        stroke: rgba(255,255,255,0.1) !important;
    }
}

/* 3‑D specific rules */
.plot3d path, .plot3d polygon {
    stroke: var(--plot3d-stroke) !important;
}
.plot3d-grid line { stroke: var(--plot3d-grid) !important; }
.plot3d-surface path[style*="fill:"] {
    fill-opacity: 0.9 !important;
}
@media (prefers-color-scheme: dark) {
    .plot3d-surface path[style*="fill:"] {
        fill-opacity: 0.95 !important;
        filter: saturate(1.2) !important;
    }
}</style>

 <metadata>
  <rdf:RDF xmlns:dc="http://purl.org/dc/elements/1.1/" xmlns:cc="http://creativecommons.org/ns#" xmlns:rdf="http://www.w3.org/1999/02/22-rdf-syntax-ns#">
   <cc:Work>
    <dc:type rdf:resource="http://purl.org/dc/dcmitype/StillImage"/>
    <dc:date>2025-09-24T17:46:49.787836</dc:date>
    <dc:format>image/svg+xml</dc:format>
    <dc:creator>
     <cc:Agent>
      <dc:title>Matplotlib v3.10.1, https://matplotlib.org/</dc:title>
     </cc:Agent>
    </dc:creator>
   </cc:Work>
  </rdf:RDF>
 </metadata>
 <defs>
  <style type="text/css">*{stroke-linejoin: round; stroke-linecap: butt}</style>
 </defs>
 <g id="figure_1">
  <g class="patch">
   <path d="M 0 316.603094 
L 335.360125 316.603094 
L 335.360125 0 
L 0 0 
L 0 316.603094 
z
" style="fill: none"/>
  </g>
  <g id="axes_1">
   <g class="patch">
    <path d="M 54.096562 277.111219 
L 320.208562 277.111219 
L 320.208562 10.999219 
L 54.096562 10.999219 
L 54.096562 277.111219 
z
" style="fill: none"/>
   </g>
   <g id="FillBetweenPolyCollection_1">
    <defs>
     <path id="meb7b2a458a" d="M 87.443931 -139.450612 
L 87.443931 -72.755875 
L 88.110878 -72.755875 
L 88.777826 -72.755875 
L 89.444773 -72.755875 
L 90.11172 -72.755875 
L 90.778668 -72.755875 
L 91.445615 -72.755875 
L 92.112562 -72.755875 
L 92.77951 -72.755875 
L 93.446457 -72.755875 
L 94.113405 -72.755875 
L 94.780352 -72.755875 
L 95.447299 -72.755875 
L 96.114247 -72.755875 
L 96.781194 -72.755875 
L 97.448141 -72.755875 
L 98.115089 -72.755875 
L 98.782036 -72.755875 
L 99.448984 -72.755875 
L 100.115931 -72.755875 
L 100.782878 -72.755875 
L 101.449826 -72.755875 
L 102.116773 -72.755875 
L 102.78372 -72.755875 
L 103.450668 -72.755875 
L 104.117615 -72.755875 
L 104.784562 -72.755875 
L 105.45151 -72.755875 
L 106.118457 -72.755875 
L 106.785405 -72.755875 
L 107.452352 -72.755875 
L 108.119299 -72.755875 
L 108.786247 -72.755875 
L 109.453194 -72.755875 
L 110.120141 -72.755875 
L 110.787089 -72.755875 
L 111.454036 -72.755875 
L 112.120984 -72.755875 
L 112.787931 -72.755875 
L 113.454878 -72.755875 
L 114.121826 -72.755875 
L 114.788773 -72.755875 
L 115.45572 -72.755875 
L 116.122668 -72.755875 
L 116.789615 -72.755875 
L 117.456562 -72.755875 
L 118.12351 -72.755875 
L 118.790457 -72.755875 
L 119.457405 -72.755875 
L 120.124352 -72.755875 
L 120.791299 -72.755875 
L 121.458247 -72.755875 
L 122.125194 -72.755875 
L 122.792141 -72.755875 
L 123.459089 -72.755875 
L 124.126036 -72.755875 
L 124.792984 -72.755875 
L 125.459931 -72.755875 
L 126.126878 -72.755875 
L 126.793826 -72.755875 
L 127.460773 -72.755875 
L 128.12772 -72.755875 
L 128.794668 -72.755875 
L 129.461615 -72.755875 
L 130.128562 -72.755875 
L 130.79551 -72.755875 
L 131.462457 -72.755875 
L 132.129405 -72.755875 
L 132.796352 -72.755875 
L 133.463299 -72.755875 
L 134.130247 -72.755875 
L 134.797194 -72.755875 
L 135.464141 -72.755875 
L 136.131089 -72.755875 
L 136.798036 -72.755875 
L 137.464984 -72.755875 
L 138.131931 -72.755875 
L 138.798878 -72.755875 
L 139.465826 -72.755875 
L 140.132773 -72.755875 
L 140.79972 -72.755875 
L 141.466668 -72.755875 
L 142.133615 -72.755875 
L 142.800562 -72.755875 
L 143.46751 -72.755875 
L 144.134457 -72.755875 
L 144.801405 -72.755875 
L 145.468352 -72.755875 
L 146.135299 -72.755875 
L 146.802247 -72.755875 
L 147.469194 -72.755875 
L 148.136141 -72.755875 
L 148.803089 -72.755875 
L 149.470036 -72.755875 
L 150.136984 -72.755875 
L 150.803931 -72.755875 
L 151.470878 -72.755875 
L 152.137826 -72.755875 
L 152.804773 -72.755875 
L 153.47172 -72.755875 
L 154.138668 -73.00598 
L 154.805615 -73.672928 
L 155.472562 -74.339875 
L 156.13951 -75.006822 
L 156.806457 -75.67377 
L 157.473405 -76.340717 
L 158.140352 -77.007664 
L 158.807299 -77.674612 
L 159.474247 -78.341559 
L 160.141194 -79.008507 
L 160.808141 -79.675454 
L 161.475089 -80.342401 
L 162.142036 -81.009349 
L 162.808984 -81.676296 
L 163.475931 -82.343243 
L 164.142878 -83.010191 
L 164.809826 -83.677138 
L 165.476773 -84.344086 
L 166.14372 -85.011033 
L 166.810668 -85.67798 
L 167.477615 -86.344928 
L 168.144562 -87.011875 
L 168.81151 -87.678822 
L 169.478457 -88.34577 
L 170.145405 -89.012717 
L 170.812352 -89.679664 
L 171.479299 -90.346612 
L 172.146247 -91.013559 
L 172.813194 -91.680507 
L 173.480141 -92.347454 
L 174.147089 -93.014401 
L 174.814036 -93.681349 
L 175.480984 -94.348296 
L 176.147931 -95.015243 
L 176.814878 -95.682191 
L 177.481826 -96.349138 
L 178.148773 -97.016086 
L 178.81572 -97.683033 
L 179.482668 -98.34998 
L 180.149615 -99.016928 
L 180.816562 -99.683875 
L 181.48351 -100.350822 
L 182.150457 -101.01777 
L 182.817405 -101.684717 
L 183.484352 -102.351664 
L 184.151299 -103.018612 
L 184.818247 -103.685559 
L 185.485194 -104.352507 
L 186.152141 -105.019454 
L 186.819089 -105.686401 
L 187.486036 -106.353349 
L 188.152984 -107.020296 
L 188.819931 -107.687243 
L 189.486878 -108.354191 
L 190.153826 -109.021138 
L 190.820773 -109.688086 
L 191.48772 -110.355033 
L 192.154668 -111.02198 
L 192.821615 -111.688928 
L 193.488562 -112.355875 
L 194.15551 -113.022822 
L 194.822457 -113.68977 
L 195.489405 -114.356717 
L 196.156352 -115.023664 
L 196.823299 -115.690612 
L 197.490247 -116.357559 
L 198.157194 -117.024507 
L 198.824141 -117.691454 
L 199.491089 -118.358401 
L 200.158036 -119.025349 
L 200.824984 -119.692296 
L 201.491931 -120.359243 
L 202.158878 -121.026191 
L 202.825826 -121.693138 
L 203.492773 -122.360086 
L 204.15972 -123.027033 
L 204.826668 -123.69398 
L 205.493615 -124.360928 
L 206.160562 -125.027875 
L 206.82751 -125.694822 
L 207.494457 -126.36177 
L 208.161405 -127.028717 
L 208.828352 -127.695664 
L 209.495299 -128.362612 
L 210.162247 -129.029559 
L 210.829194 -129.696507 
L 211.496141 -130.363454 
L 212.163089 -131.030401 
L 212.830036 -131.697349 
L 213.496984 -132.364296 
L 214.163931 -133.031243 
L 214.830878 -133.698191 
L 215.497826 -134.365138 
L 216.164773 -135.032086 
L 216.83172 -135.699033 
L 217.498668 -136.36598 
L 218.165615 -137.032928 
L 218.832562 -137.699875 
L 219.49951 -138.366822 
L 220.166457 -139.03377 
L 220.833405 -139.700717 
L 221.500352 -140.367664 
L 222.167299 -141.034612 
L 222.834247 -141.701559 
L 223.501194 -142.368507 
L 224.168141 -143.035454 
L 224.835089 -143.702401 
L 225.502036 -144.369349 
L 226.168984 -145.036296 
L 226.835931 -145.703243 
L 227.502878 -146.370191 
L 228.169826 -147.037138 
L 228.836773 -147.704086 
L 229.50372 -148.371033 
L 230.170668 -149.03798 
L 230.837615 -149.704928 
L 231.504562 -150.371875 
L 232.17151 -151.038822 
L 232.838457 -151.70577 
L 233.505405 -152.372717 
L 234.172352 -153.039664 
L 234.839299 -153.706612 
L 235.506247 -154.373559 
L 236.173194 -155.040507 
L 236.840141 -155.707454 
L 237.507089 -156.374401 
L 238.174036 -157.041349 
L 238.840984 -157.708296 
L 239.507931 -158.375243 
L 240.174878 -159.042191 
L 240.841826 -159.709138 
L 241.508773 -160.376086 
L 242.17572 -161.043033 
L 242.842668 -161.70998 
L 243.509615 -162.376928 
L 244.176562 -163.043875 
L 244.84351 -163.710822 
L 245.510457 -164.37777 
L 246.177405 -165.044717 
L 246.844352 -165.711664 
L 247.511299 -166.378612 
L 248.178247 -167.045559 
L 248.845194 -167.712507 
L 249.512141 -168.379454 
L 250.179089 -169.046401 
L 250.846036 -169.713349 
L 251.512984 -170.380296 
L 252.179931 -171.047243 
L 252.846878 -171.714191 
L 253.513826 -172.381138 
L 254.180773 -173.048086 
L 254.84772 -173.715033 
L 255.514668 -174.38198 
L 256.181615 -175.048928 
L 256.848562 -175.715875 
L 257.51551 -176.382822 
L 258.182457 -177.04977 
L 258.849405 -177.716717 
L 259.516352 -178.383664 
L 260.183299 -179.050612 
L 260.850247 -179.717559 
L 261.517194 -180.384507 
L 262.184141 -181.051454 
L 262.851089 -181.718401 
L 263.518036 -182.385349 
L 264.184984 -183.052296 
L 264.851931 -183.719243 
L 265.518878 -184.386191 
L 266.185826 -185.053138 
L 266.852773 -185.720086 
L 267.51972 -186.387033 
L 268.186668 -187.05398 
L 268.853615 -187.720928 
L 269.520562 -188.387875 
L 270.18751 -189.054822 
L 270.854457 -189.72177 
L 271.521405 -190.388717 
L 272.188352 -191.055664 
L 272.855299 -191.722612 
L 273.522247 -192.389559 
L 274.189194 -193.056507 
L 274.856141 -193.723454 
L 275.523089 -194.390401 
L 276.190036 -195.057349 
L 276.856984 -195.724296 
L 277.523931 -196.391243 
L 278.190878 -197.058191 
L 278.857826 -197.725138 
L 279.524773 -198.392086 
L 280.19172 -199.059033 
L 280.858668 -199.72598 
L 281.525615 -200.392928 
L 282.192562 -201.059875 
L 282.85951 -201.726822 
L 283.526457 -202.39377 
L 284.193405 -203.060717 
L 284.860352 -203.727664 
L 285.527299 -204.394612 
L 286.194247 -205.061559 
L 286.861194 -205.728507 
L 287.528141 -206.395454 
L 288.195089 -207.062401 
L 288.862036 -207.729349 
L 289.528984 -208.396296 
L 290.195931 -209.063243 
L 290.862878 -209.730191 
L 291.529826 -210.397138 
L 292.196773 -211.064086 
L 292.86372 -211.731033 
L 293.530668 -212.39798 
L 294.197615 -213.064928 
L 294.864562 -213.731875 
L 295.53151 -214.398822 
L 296.198457 -215.06577 
L 296.865405 -215.732717 
L 297.532352 -216.399664 
L 298.199299 -217.066612 
L 298.866247 -217.733559 
L 299.533194 -218.400507 
L 300.200141 -219.067454 
L 300.867089 -219.734401 
L 301.534036 -220.401349 
L 302.200984 -221.068296 
L 302.867931 -221.735243 
L 303.534878 -222.402191 
L 304.201826 -223.069138 
L 304.868773 -223.736086 
L 305.53572 -224.403033 
L 306.202668 -225.06998 
L 306.869615 -225.736928 
L 307.536562 -226.403875 
L 308.20351 -227.070822 
L 308.870457 -227.73777 
L 309.537405 -228.404717 
L 310.204352 -229.071664 
L 310.871299 -229.738612 
L 311.538247 -230.405559 
L 312.205194 -231.072507 
L 312.872141 -231.739454 
L 313.539089 -232.406401 
L 314.206036 -233.073349 
L 314.872984 -233.740296 
L 315.539931 -234.407243 
L 316.206878 -235.074191 
L 316.873826 -235.741138 
L 317.540773 -236.408086 
L 318.20772 -237.075033 
L 318.874668 -237.74198 
L 319.541615 -238.408928 
L 320.208562 -239.075875 
L 320.208562 -305.603875 
L 320.208562 -305.603875 
L 319.541615 -305.603875 
L 318.874668 -305.603875 
L 318.20772 -305.603875 
L 317.540773 -305.603875 
L 316.873826 -305.603875 
L 316.206878 -305.603875 
L 315.539931 -305.603875 
L 314.872984 -305.603875 
L 314.206036 -305.603875 
L 313.539089 -305.603875 
L 312.872141 -305.603875 
L 312.205194 -305.603875 
L 311.538247 -305.603875 
L 310.871299 -305.603875 
L 310.204352 -305.603875 
L 309.537405 -305.603875 
L 308.870457 -305.603875 
L 308.20351 -305.603875 
L 307.536562 -305.603875 
L 306.869615 -305.603875 
L 306.202668 -305.603875 
L 305.53572 -305.603875 
L 304.868773 -305.603875 
L 304.201826 -305.603875 
L 303.534878 -305.603875 
L 302.867931 -305.603875 
L 302.200984 -305.603875 
L 301.534036 -305.603875 
L 300.867089 -305.603875 
L 300.200141 -305.603875 
L 299.533194 -305.603875 
L 298.866247 -305.603875 
L 298.199299 -305.603875 
L 297.532352 -305.603875 
L 296.865405 -305.603875 
L 296.198457 -305.603875 
L 295.53151 -305.603875 
L 294.864562 -305.603875 
L 294.197615 -305.603875 
L 293.530668 -305.603875 
L 292.86372 -305.603875 
L 292.196773 -305.603875 
L 291.529826 -305.603875 
L 290.862878 -305.603875 
L 290.195931 -305.603875 
L 289.528984 -305.603875 
L 288.862036 -305.603875 
L 288.195089 -305.603875 
L 287.528141 -305.603875 
L 286.861194 -305.603875 
L 286.194247 -305.603875 
L 285.527299 -305.603875 
L 284.860352 -305.603875 
L 284.193405 -305.603875 
L 283.526457 -305.603875 
L 282.85951 -305.603875 
L 282.192562 -305.603875 
L 281.525615 -305.603875 
L 280.858668 -305.603875 
L 280.19172 -305.603875 
L 279.524773 -305.603875 
L 278.857826 -305.603875 
L 278.190878 -305.603875 
L 277.523931 -305.603875 
L 276.856984 -305.603875 
L 276.190036 -305.603875 
L 275.523089 -305.603875 
L 274.856141 -305.603875 
L 274.189194 -305.603875 
L 273.522247 -305.603875 
L 272.855299 -305.603875 
L 272.188352 -305.603875 
L 271.521405 -305.603875 
L 270.854457 -305.603875 
L 270.18751 -305.603875 
L 269.520562 -305.603875 
L 268.853615 -305.603875 
L 268.186668 -305.603875 
L 267.51972 -305.603875 
L 266.852773 -305.603875 
L 266.185826 -305.603875 
L 265.518878 -305.603875 
L 264.851931 -305.603875 
L 264.184984 -305.603875 
L 263.518036 -305.603875 
L 262.851089 -305.603875 
L 262.184141 -305.603875 
L 261.517194 -305.603875 
L 260.850247 -305.603875 
L 260.183299 -305.603875 
L 259.516352 -305.603875 
L 258.849405 -305.603875 
L 258.182457 -305.603875 
L 257.51551 -305.603875 
L 256.848562 -305.603875 
L 256.181615 -305.603875 
L 255.514668 -305.603875 
L 254.84772 -305.603875 
L 254.180773 -305.603875 
L 253.513826 -305.603875 
L 252.846878 -305.603875 
L 252.179931 -305.603875 
L 251.512984 -305.603875 
L 250.846036 -305.603875 
L 250.179089 -305.603875 
L 249.512141 -305.603875 
L 248.845194 -305.603875 
L 248.178247 -305.603875 
L 247.511299 -305.603875 
L 246.844352 -305.603875 
L 246.177405 -305.603875 
L 245.510457 -305.603875 
L 244.84351 -305.603875 
L 244.176562 -305.603875 
L 243.509615 -305.603875 
L 242.842668 -305.603875 
L 242.17572 -305.603875 
L 241.508773 -305.603875 
L 240.841826 -305.603875 
L 240.174878 -305.603875 
L 239.507931 -305.603875 
L 238.840984 -305.603875 
L 238.174036 -305.603875 
L 237.507089 -305.603875 
L 236.840141 -305.603875 
L 236.173194 -305.603875 
L 235.506247 -305.603875 
L 234.839299 -305.603875 
L 234.172352 -305.603875 
L 233.505405 -305.603875 
L 232.838457 -305.603875 
L 232.17151 -305.603875 
L 231.504562 -305.603875 
L 230.837615 -305.603875 
L 230.170668 -305.603875 
L 229.50372 -305.603875 
L 228.836773 -305.603875 
L 228.169826 -305.603875 
L 227.502878 -305.603875 
L 226.835931 -305.603875 
L 226.168984 -305.603875 
L 225.502036 -305.603875 
L 224.835089 -305.603875 
L 224.168141 -305.603875 
L 223.501194 -305.603875 
L 222.834247 -305.603875 
L 222.167299 -305.603875 
L 221.500352 -305.603875 
L 220.833405 -305.603875 
L 220.166457 -305.603875 
L 219.49951 -305.603875 
L 218.832562 -305.603875 
L 218.165615 -305.603875 
L 217.498668 -305.603875 
L 216.83172 -305.603875 
L 216.164773 -305.603875 
L 215.497826 -305.603875 
L 214.830878 -305.603875 
L 214.163931 -305.603875 
L 213.496984 -305.603875 
L 212.830036 -305.603875 
L 212.163089 -305.603875 
L 211.496141 -305.603875 
L 210.829194 -305.603875 
L 210.162247 -305.603875 
L 209.495299 -305.603875 
L 208.828352 -305.603875 
L 208.161405 -305.603875 
L 207.494457 -305.603875 
L 206.82751 -305.603875 
L 206.160562 -305.603875 
L 205.493615 -305.603875 
L 204.826668 -305.603875 
L 204.15972 -305.603875 
L 203.492773 -305.603875 
L 202.825826 -305.603875 
L 202.158878 -305.603875 
L 201.491931 -305.603875 
L 200.824984 -305.603875 
L 200.158036 -305.603875 
L 199.491089 -305.603875 
L 198.824141 -305.603875 
L 198.157194 -305.603875 
L 197.490247 -305.603875 
L 196.823299 -305.603875 
L 196.156352 -305.603875 
L 195.489405 -305.603875 
L 194.822457 -305.603875 
L 194.15551 -305.603875 
L 193.488562 -305.603875 
L 192.821615 -305.603875 
L 192.154668 -305.603875 
L 191.48772 -305.603875 
L 190.820773 -305.603875 
L 190.153826 -305.603875 
L 189.486878 -305.603875 
L 188.819931 -305.603875 
L 188.152984 -305.603875 
L 187.486036 -305.603875 
L 186.819089 -305.603875 
L 186.152141 -305.603875 
L 185.485194 -305.603875 
L 184.818247 -305.603875 
L 184.151299 -305.603875 
L 183.484352 -305.603875 
L 182.817405 -305.603875 
L 182.150457 -305.603875 
L 181.48351 -305.603875 
L 180.816562 -305.603875 
L 180.149615 -305.603875 
L 179.482668 -305.603875 
L 178.81572 -305.603875 
L 178.148773 -305.603875 
L 177.481826 -305.603875 
L 176.814878 -305.603875 
L 176.147931 -305.603875 
L 175.480984 -305.603875 
L 174.814036 -305.603875 
L 174.147089 -305.603875 
L 173.480141 -305.603875 
L 172.813194 -305.603875 
L 172.146247 -305.603875 
L 171.479299 -305.603875 
L 170.812352 -305.603875 
L 170.145405 -304.853559 
L 169.478457 -303.519664 
L 168.81151 -302.18577 
L 168.144562 -300.851875 
L 167.477615 -299.51798 
L 166.810668 -298.184086 
L 166.14372 -296.850191 
L 165.476773 -295.516296 
L 164.809826 -294.182401 
L 164.142878 -292.848507 
L 163.475931 -291.514612 
L 162.808984 -290.180717 
L 162.142036 -288.846822 
L 161.475089 -287.512928 
L 160.808141 -286.179033 
L 160.141194 -284.845138 
L 159.474247 -283.511243 
L 158.807299 -282.177349 
L 158.140352 -280.843454 
L 157.473405 -279.509559 
L 156.806457 -278.175664 
L 156.13951 -276.84177 
L 155.472562 -275.507875 
L 154.805615 -274.17398 
L 154.138668 -272.840086 
L 153.47172 -271.506191 
L 152.804773 -270.172296 
L 152.137826 -268.838401 
L 151.470878 -267.504507 
L 150.803931 -266.170612 
L 150.136984 -264.836717 
L 149.470036 -263.502822 
L 148.803089 -262.168928 
L 148.136141 -260.835033 
L 147.469194 -259.501138 
L 146.802247 -258.167243 
L 146.135299 -256.833349 
L 145.468352 -255.499454 
L 144.801405 -254.165559 
L 144.134457 -252.831664 
L 143.46751 -251.49777 
L 142.800562 -250.163875 
L 142.133615 -248.82998 
L 141.466668 -247.496086 
L 140.79972 -246.162191 
L 140.132773 -244.828296 
L 139.465826 -243.494401 
L 138.798878 -242.160507 
L 138.131931 -240.826612 
L 137.464984 -239.492717 
L 136.798036 -238.158822 
L 136.131089 -236.824928 
L 135.464141 -235.491033 
L 134.797194 -234.157138 
L 134.130247 -232.823243 
L 133.463299 -231.489349 
L 132.796352 -230.155454 
L 132.129405 -228.821559 
L 131.462457 -227.487664 
L 130.79551 -226.15377 
L 130.128562 -224.819875 
L 129.461615 -223.48598 
L 128.794668 -222.152086 
L 128.12772 -220.818191 
L 127.460773 -219.484296 
L 126.793826 -218.150401 
L 126.126878 -216.816507 
L 125.459931 -215.482612 
L 124.792984 -214.148717 
L 124.126036 -212.814822 
L 123.459089 -211.480928 
L 122.792141 -210.147033 
L 122.125194 -208.813138 
L 121.458247 -207.479243 
L 120.791299 -206.145349 
L 120.124352 -204.811454 
L 119.457405 -203.477559 
L 118.790457 -202.143664 
L 118.12351 -200.80977 
L 117.456562 -199.475875 
L 116.789615 -198.14198 
L 116.122668 -196.808086 
L 115.45572 -195.474191 
L 114.788773 -194.140296 
L 114.121826 -192.806401 
L 113.454878 -191.472507 
L 112.787931 -190.138612 
L 112.120984 -188.804717 
L 111.454036 -187.470822 
L 110.787089 -186.136928 
L 110.120141 -184.803033 
L 109.453194 -183.469138 
L 108.786247 -182.135243 
L 108.119299 -180.801349 
L 107.452352 -179.467454 
L 106.785405 -178.133559 
L 106.118457 -176.799664 
L 105.45151 -175.46577 
L 104.784562 -174.131875 
L 104.117615 -172.79798 
L 103.450668 -171.464086 
L 102.78372 -170.130191 
L 102.116773 -168.796296 
L 101.449826 -167.462401 
L 100.782878 -166.128507 
L 100.115931 -164.794612 
L 99.448984 -163.460717 
L 98.782036 -162.126822 
L 98.115089 -160.792928 
L 97.448141 -159.459033 
L 96.781194 -158.125138 
L 96.114247 -156.791243 
L 95.447299 -155.457349 
L 94.780352 -154.123454 
L 94.113405 -152.789559 
L 93.446457 -151.455664 
L 92.77951 -150.12177 
L 92.112562 -148.787875 
L 91.445615 -147.45398 
L 90.778668 -146.120086 
L 90.11172 -144.786191 
L 89.444773 -143.452296 
L 88.777826 -142.118401 
L 88.110878 -140.784507 
L 87.443931 -139.450612 
z
" style="stroke: #8000ff; stroke-opacity: 0.5"/>
    </defs>
    <g clip-path="url(#pabc563fefe)">
     <use xlink:href="#meb7b2a458a" x="0" y="316.603094" style="fill: #8000ff; fill-opacity: 0.5; stroke: #8000ff; stroke-opacity: 0.5"/>
    </g>
   </g>
   <g class="axis">
    <g class="tick xtick">
     <g id="line2d_1">
      <path d="M 54.096562 277.111219 
L 54.096562 10.999219 
" clip-path="url(#pabc563fefe)" style="fill: none; stroke: #b0b0b0; stroke-opacity: 0.3; stroke-width: 0.8; stroke-linecap: square"/>
     </g>
     <g id="line2d_2">
      <defs>
       <path id="mcf4c591364" d="M 0 0 
L 0 3.5 
" style="stroke: var(--black); stroke-width: 0.8"/>
      </defs>
      <g>
       <use xlink:href="#mcf4c591364" x="54.096562" y="277.111219" style="stroke: var(--black); stroke-width: 0.8"/>
      </g>
     </g>
     <g id="text_1" class="text">
      <!-- −0.5 -->
      <g transform="translate(41.955156 291.709656) scale(0.1 -0.1)">
       <defs>
        <path id="DejaVuSans-2212" d="M 678 2272 
L 4684 2272 
L 4684 1741 
L 678 1741 
L 678 2272 
z
" transform="scale(0.015625)"/>
        <path id="DejaVuSans-30" d="M 2034 4250 
Q 1547 4250 1301 3770 
Q 1056 3291 1056 2328 
Q 1056 1369 1301 889 
Q 1547 409 2034 409 
Q 2525 409 2770 889 
Q 3016 1369 3016 2328 
Q 3016 3291 2770 3770 
Q 2525 4250 2034 4250 
z
M 2034 4750 
Q 2819 4750 3233 4129 
Q 3647 3509 3647 2328 
Q 3647 1150 3233 529 
Q 2819 -91 2034 -91 
Q 1250 -91 836 529 
Q 422 1150 422 2328 
Q 422 3509 836 4129 
Q 1250 4750 2034 4750 
z
" transform="scale(0.015625)"/>
        <path id="DejaVuSans-2e" d="M 684 794 
L 1344 794 
L 1344 0 
L 684 0 
L 684 794 
z
" transform="scale(0.015625)"/>
        <path id="DejaVuSans-35" d="M 691 4666 
L 3169 4666 
L 3169 4134 
L 1269 4134 
L 1269 2991 
Q 1406 3038 1543 3061 
Q 1681 3084 1819 3084 
Q 2600 3084 3056 2656 
Q 3513 2228 3513 1497 
Q 3513 744 3044 326 
Q 2575 -91 1722 -91 
Q 1428 -91 1123 -41 
Q 819 9 494 109 
L 494 744 
Q 775 591 1075 516 
Q 1375 441 1709 441 
Q 2250 441 2565 725 
Q 2881 1009 2881 1497 
Q 2881 1984 2565 2268 
Q 2250 2553 1709 2553 
Q 1456 2553 1204 2497 
Q 953 2441 691 2322 
L 691 4666 
z
" transform="scale(0.015625)"/>
       </defs>
       <use xlink:href="#DejaVuSans-2212"/>
       <use xlink:href="#DejaVuSans-30" transform="translate(83.789062 0)"/>
       <use xlink:href="#DejaVuSans-2e" transform="translate(147.412109 0)"/>
       <use xlink:href="#DejaVuSans-35" transform="translate(179.199219 0)"/>
      </g>
     </g>
    </g>
    <g class="tick xtick">
     <g id="line2d_3">
      <path d="M 87.360562 277.111219 
L 87.360562 10.999219 
" clip-path="url(#pabc563fefe)" style="fill: none; stroke: #b0b0b0; stroke-opacity: 0.3; stroke-width: 0.8; stroke-linecap: square"/>
     </g>
     <g id="line2d_4">
      <g>
       <use xlink:href="#mcf4c591364" x="87.360562" y="277.111219" style="stroke: var(--black); stroke-width: 0.8"/>
      </g>
     </g>
     <g id="text_2" class="text">
      <!-- 0.0 -->
      <g transform="translate(79.409 291.709656) scale(0.1 -0.1)">
       <use xlink:href="#DejaVuSans-30"/>
       <use xlink:href="#DejaVuSans-2e" transform="translate(63.623047 0)"/>
       <use xlink:href="#DejaVuSans-30" transform="translate(95.410156 0)"/>
      </g>
     </g>
    </g>
    <g class="tick xtick">
     <g id="line2d_5">
      <path d="M 120.624562 277.111219 
L 120.624562 10.999219 
" clip-path="url(#pabc563fefe)" style="fill: none; stroke: #b0b0b0; stroke-opacity: 0.3; stroke-width: 0.8; stroke-linecap: square"/>
     </g>
     <g id="line2d_6">
      <g>
       <use xlink:href="#mcf4c591364" x="120.624562" y="277.111219" style="stroke: var(--black); stroke-width: 0.8"/>
      </g>
     </g>
     <g id="text_3" class="text">
      <!-- 0.5 -->
      <g transform="translate(112.673 291.709656) scale(0.1 -0.1)">
       <use xlink:href="#DejaVuSans-30"/>
       <use xlink:href="#DejaVuSans-2e" transform="translate(63.623047 0)"/>
       <use xlink:href="#DejaVuSans-35" transform="translate(95.410156 0)"/>
      </g>
     </g>
    </g>
    <g class="tick xtick">
     <g id="line2d_7">
      <path d="M 153.888562 277.111219 
L 153.888562 10.999219 
" clip-path="url(#pabc563fefe)" style="fill: none; stroke: #b0b0b0; stroke-opacity: 0.3; stroke-width: 0.8; stroke-linecap: square"/>
     </g>
     <g id="line2d_8">
      <g>
       <use xlink:href="#mcf4c591364" x="153.888562" y="277.111219" style="stroke: var(--black); stroke-width: 0.8"/>
      </g>
     </g>
     <g id="text_4" class="text">
      <!-- 1.0 -->
      <g transform="translate(145.937 291.709656) scale(0.1 -0.1)">
       <defs>
        <path id="DejaVuSans-31" d="M 794 531 
L 1825 531 
L 1825 4091 
L 703 3866 
L 703 4441 
L 1819 4666 
L 2450 4666 
L 2450 531 
L 3481 531 
L 3481 0 
L 794 0 
L 794 531 
z
" transform="scale(0.015625)"/>
       </defs>
       <use xlink:href="#DejaVuSans-31"/>
       <use xlink:href="#DejaVuSans-2e" transform="translate(63.623047 0)"/>
       <use xlink:href="#DejaVuSans-30" transform="translate(95.410156 0)"/>
      </g>
     </g>
    </g>
    <g class="tick xtick">
     <g id="line2d_9">
      <path d="M 187.152562 277.111219 
L 187.152562 10.999219 
" clip-path="url(#pabc563fefe)" style="fill: none; stroke: #b0b0b0; stroke-opacity: 0.3; stroke-width: 0.8; stroke-linecap: square"/>
     </g>
     <g id="line2d_10">
      <g>
       <use xlink:href="#mcf4c591364" x="187.152562" y="277.111219" style="stroke: var(--black); stroke-width: 0.8"/>
      </g>
     </g>
     <g id="text_5" class="text">
      <!-- 1.5 -->
      <g transform="translate(179.201 291.709656) scale(0.1 -0.1)">
       <use xlink:href="#DejaVuSans-31"/>
       <use xlink:href="#DejaVuSans-2e" transform="translate(63.623047 0)"/>
       <use xlink:href="#DejaVuSans-35" transform="translate(95.410156 0)"/>
      </g>
     </g>
    </g>
    <g class="tick xtick">
     <g id="line2d_11">
      <path d="M 220.416562 277.111219 
L 220.416562 10.999219 
" clip-path="url(#pabc563fefe)" style="fill: none; stroke: #b0b0b0; stroke-opacity: 0.3; stroke-width: 0.8; stroke-linecap: square"/>
     </g>
     <g id="line2d_12">
      <g>
       <use xlink:href="#mcf4c591364" x="220.416562" y="277.111219" style="stroke: var(--black); stroke-width: 0.8"/>
      </g>
     </g>
     <g id="text_6" class="text">
      <!-- 2.0 -->
      <g transform="translate(212.465 291.709656) scale(0.1 -0.1)">
       <defs>
        <path id="DejaVuSans-32" d="M 1228 531 
L 3431 531 
L 3431 0 
L 469 0 
L 469 531 
Q 828 903 1448 1529 
Q 2069 2156 2228 2338 
Q 2531 2678 2651 2914 
Q 2772 3150 2772 3378 
Q 2772 3750 2511 3984 
Q 2250 4219 1831 4219 
Q 1534 4219 1204 4116 
Q 875 4013 500 3803 
L 500 4441 
Q 881 4594 1212 4672 
Q 1544 4750 1819 4750 
Q 2544 4750 2975 4387 
Q 3406 4025 3406 3419 
Q 3406 3131 3298 2873 
Q 3191 2616 2906 2266 
Q 2828 2175 2409 1742 
Q 1991 1309 1228 531 
z
" transform="scale(0.015625)"/>
       </defs>
       <use xlink:href="#DejaVuSans-32"/>
       <use xlink:href="#DejaVuSans-2e" transform="translate(63.623047 0)"/>
       <use xlink:href="#DejaVuSans-30" transform="translate(95.410156 0)"/>
      </g>
     </g>
    </g>
    <g class="tick xtick">
     <g id="line2d_13">
      <path d="M 253.680562 277.111219 
L 253.680562 10.999219 
" clip-path="url(#pabc563fefe)" style="fill: none; stroke: #b0b0b0; stroke-opacity: 0.3; stroke-width: 0.8; stroke-linecap: square"/>
     </g>
     <g id="line2d_14">
      <g>
       <use xlink:href="#mcf4c591364" x="253.680562" y="277.111219" style="stroke: var(--black); stroke-width: 0.8"/>
      </g>
     </g>
     <g id="text_7" class="text">
      <!-- 2.5 -->
      <g transform="translate(245.729 291.709656) scale(0.1 -0.1)">
       <use xlink:href="#DejaVuSans-32"/>
       <use xlink:href="#DejaVuSans-2e" transform="translate(63.623047 0)"/>
       <use xlink:href="#DejaVuSans-35" transform="translate(95.410156 0)"/>
      </g>
     </g>
    </g>
    <g class="tick xtick">
     <g id="line2d_15">
      <path d="M 286.944562 277.111219 
L 286.944562 10.999219 
" clip-path="url(#pabc563fefe)" style="fill: none; stroke: #b0b0b0; stroke-opacity: 0.3; stroke-width: 0.8; stroke-linecap: square"/>
     </g>
     <g id="line2d_16">
      <g>
       <use xlink:href="#mcf4c591364" x="286.944562" y="277.111219" style="stroke: var(--black); stroke-width: 0.8"/>
      </g>
     </g>
     <g id="text_8" class="text">
      <!-- 3.0 -->
      <g transform="translate(278.993 291.709656) scale(0.1 -0.1)">
       <defs>
        <path id="DejaVuSans-33" d="M 2597 2516 
Q 3050 2419 3304 2112 
Q 3559 1806 3559 1356 
Q 3559 666 3084 287 
Q 2609 -91 1734 -91 
Q 1441 -91 1130 -33 
Q 819 25 488 141 
L 488 750 
Q 750 597 1062 519 
Q 1375 441 1716 441 
Q 2309 441 2620 675 
Q 2931 909 2931 1356 
Q 2931 1769 2642 2001 
Q 2353 2234 1838 2234 
L 1294 2234 
L 1294 2753 
L 1863 2753 
Q 2328 2753 2575 2939 
Q 2822 3125 2822 3475 
Q 2822 3834 2567 4026 
Q 2313 4219 1838 4219 
Q 1578 4219 1281 4162 
Q 984 4106 628 3988 
L 628 4550 
Q 988 4650 1302 4700 
Q 1616 4750 1894 4750 
Q 2613 4750 3031 4423 
Q 3450 4097 3450 3541 
Q 3450 3153 3228 2886 
Q 3006 2619 2597 2516 
z
" transform="scale(0.015625)"/>
       </defs>
       <use xlink:href="#DejaVuSans-33"/>
       <use xlink:href="#DejaVuSans-2e" transform="translate(63.623047 0)"/>
       <use xlink:href="#DejaVuSans-30" transform="translate(95.410156 0)"/>
      </g>
     </g>
    </g>
    <g class="tick xtick">
     <g id="line2d_17">
      <path d="M 320.208562 277.111219 
L 320.208562 10.999219 
" clip-path="url(#pabc563fefe)" style="fill: none; stroke: #b0b0b0; stroke-opacity: 0.3; stroke-width: 0.8; stroke-linecap: square"/>
     </g>
     <g id="line2d_18">
      <g>
       <use xlink:href="#mcf4c591364" x="320.208562" y="277.111219" style="stroke: var(--black); stroke-width: 0.8"/>
      </g>
     </g>
     <g id="text_9" class="text">
      <!-- 3.5 -->
      <g transform="translate(312.257 291.709656) scale(0.1 -0.1)">
       <use xlink:href="#DejaVuSans-33"/>
       <use xlink:href="#DejaVuSans-2e" transform="translate(63.623047 0)"/>
       <use xlink:href="#DejaVuSans-35" transform="translate(95.410156 0)"/>
      </g>
     </g>
    </g>
    <g id="text_10" class="text">
     <!-- $x_1$ -->
     <g transform="translate(180.732563 306.907469) scale(0.12 -0.12)">
      <defs>
       <path id="DejaVuSans-Oblique-78" d="M 3841 3500 
L 2234 1784 
L 3219 0 
L 2559 0 
L 1819 1388 
L 531 0 
L -166 0 
L 1556 1844 
L 641 3500 
L 1300 3500 
L 1972 2234 
L 3144 3500 
L 3841 3500 
z
" transform="scale(0.015625)"/>
      </defs>
      <use xlink:href="#DejaVuSans-Oblique-78" transform="translate(0 0.3125)"/>
      <use xlink:href="#DejaVuSans-31" transform="translate(59.179688 -16.09375) scale(0.7)"/>
     </g>
    </g>
   </g>
   <g class="axis">
    <g class="tick ytick">
     <g id="line2d_19">
      <path d="M 54.096562 277.111219 
L 320.208562 277.111219 
" clip-path="url(#pabc563fefe)" style="fill: none; stroke: #b0b0b0; stroke-opacity: 0.3; stroke-width: 0.8; stroke-linecap: square"/>
     </g>
     <g id="line2d_20">
      <defs>
       <path id="mf4a848c20b" d="M 0 0 
L -3.5 0 
" style="stroke: var(--black); stroke-width: 0.8"/>
      </defs>
      <g>
       <use xlink:href="#mf4a848c20b" x="54.096562" y="277.111219" style="stroke: var(--black); stroke-width: 0.8"/>
      </g>
     </g>
     <g id="text_11" class="text">
      <!-- −0.5 -->
      <g transform="translate(22.81375 280.910437) scale(0.1 -0.1)">
       <use xlink:href="#DejaVuSans-2212"/>
       <use xlink:href="#DejaVuSans-30" transform="translate(83.789062 0)"/>
       <use xlink:href="#DejaVuSans-2e" transform="translate(147.412109 0)"/>
       <use xlink:href="#DejaVuSans-35" transform="translate(179.199219 0)"/>
      </g>
     </g>
    </g>
    <g class="tick ytick">
     <g id="line2d_21">
      <path d="M 54.096562 243.847219 
L 320.208562 243.847219 
" clip-path="url(#pabc563fefe)" style="fill: none; stroke: #b0b0b0; stroke-opacity: 0.3; stroke-width: 0.8; stroke-linecap: square"/>
     </g>
     <g id="line2d_22">
      <g>
       <use xlink:href="#mf4a848c20b" x="54.096562" y="243.847219" style="stroke: var(--black); stroke-width: 0.8"/>
      </g>
     </g>
     <g id="text_12" class="text">
      <!-- 0.0 -->
      <g transform="translate(31.193437 247.646437) scale(0.1 -0.1)">
       <use xlink:href="#DejaVuSans-30"/>
       <use xlink:href="#DejaVuSans-2e" transform="translate(63.623047 0)"/>
       <use xlink:href="#DejaVuSans-30" transform="translate(95.410156 0)"/>
      </g>
     </g>
    </g>
    <g class="tick ytick">
     <g id="line2d_23">
      <path d="M 54.096562 210.583219 
L 320.208562 210.583219 
" clip-path="url(#pabc563fefe)" style="fill: none; stroke: #b0b0b0; stroke-opacity: 0.3; stroke-width: 0.8; stroke-linecap: square"/>
     </g>
     <g id="line2d_24">
      <g>
       <use xlink:href="#mf4a848c20b" x="54.096562" y="210.583219" style="stroke: var(--black); stroke-width: 0.8"/>
      </g>
     </g>
     <g id="text_13" class="text">
      <!-- 0.5 -->
      <g transform="translate(31.193437 214.382437) scale(0.1 -0.1)">
       <use xlink:href="#DejaVuSans-30"/>
       <use xlink:href="#DejaVuSans-2e" transform="translate(63.623047 0)"/>
       <use xlink:href="#DejaVuSans-35" transform="translate(95.410156 0)"/>
      </g>
     </g>
    </g>
    <g class="tick ytick">
     <g id="line2d_25">
      <path d="M 54.096562 177.319219 
L 320.208562 177.319219 
" clip-path="url(#pabc563fefe)" style="fill: none; stroke: #b0b0b0; stroke-opacity: 0.3; stroke-width: 0.8; stroke-linecap: square"/>
     </g>
     <g id="line2d_26">
      <g>
       <use xlink:href="#mf4a848c20b" x="54.096562" y="177.319219" style="stroke: var(--black); stroke-width: 0.8"/>
      </g>
     </g>
     <g id="text_14" class="text">
      <!-- 1.0 -->
      <g transform="translate(31.193437 181.118437) scale(0.1 -0.1)">
       <use xlink:href="#DejaVuSans-31"/>
       <use xlink:href="#DejaVuSans-2e" transform="translate(63.623047 0)"/>
       <use xlink:href="#DejaVuSans-30" transform="translate(95.410156 0)"/>
      </g>
     </g>
    </g>
    <g class="tick ytick">
     <g id="line2d_27">
      <path d="M 54.096562 144.055219 
L 320.208562 144.055219 
" clip-path="url(#pabc563fefe)" style="fill: none; stroke: #b0b0b0; stroke-opacity: 0.3; stroke-width: 0.8; stroke-linecap: square"/>
     </g>
     <g id="line2d_28">
      <g>
       <use xlink:href="#mf4a848c20b" x="54.096562" y="144.055219" style="stroke: var(--black); stroke-width: 0.8"/>
      </g>
     </g>
     <g id="text_15" class="text">
      <!-- 1.5 -->
      <g transform="translate(31.193437 147.854437) scale(0.1 -0.1)">
       <use xlink:href="#DejaVuSans-31"/>
       <use xlink:href="#DejaVuSans-2e" transform="translate(63.623047 0)"/>
       <use xlink:href="#DejaVuSans-35" transform="translate(95.410156 0)"/>
      </g>
     </g>
    </g>
    <g class="tick ytick">
     <g id="line2d_29">
      <path d="M 54.096562 110.791219 
L 320.208562 110.791219 
" clip-path="url(#pabc563fefe)" style="fill: none; stroke: #b0b0b0; stroke-opacity: 0.3; stroke-width: 0.8; stroke-linecap: square"/>
     </g>
     <g id="line2d_30">
      <g>
       <use xlink:href="#mf4a848c20b" x="54.096562" y="110.791219" style="stroke: var(--black); stroke-width: 0.8"/>
      </g>
     </g>
     <g id="text_16" class="text">
      <!-- 2.0 -->
      <g transform="translate(31.193437 114.590437) scale(0.1 -0.1)">
       <use xlink:href="#DejaVuSans-32"/>
       <use xlink:href="#DejaVuSans-2e" transform="translate(63.623047 0)"/>
       <use xlink:href="#DejaVuSans-30" transform="translate(95.410156 0)"/>
      </g>
     </g>
    </g>
    <g class="tick ytick">
     <g id="line2d_31">
      <path d="M 54.096562 77.527219 
L 320.208562 77.527219 
" clip-path="url(#pabc563fefe)" style="fill: none; stroke: #b0b0b0; stroke-opacity: 0.3; stroke-width: 0.8; stroke-linecap: square"/>
     </g>
     <g id="line2d_32">
      <g>
       <use xlink:href="#mf4a848c20b" x="54.096562" y="77.527219" style="stroke: var(--black); stroke-width: 0.8"/>
      </g>
     </g>
     <g id="text_17" class="text">
      <!-- 2.5 -->
      <g transform="translate(31.193437 81.326437) scale(0.1 -0.1)">
       <use xlink:href="#DejaVuSans-32"/>
       <use xlink:href="#DejaVuSans-2e" transform="translate(63.623047 0)"/>
       <use xlink:href="#DejaVuSans-35" transform="translate(95.410156 0)"/>
      </g>
     </g>
    </g>
    <g class="tick ytick">
     <g id="line2d_33">
      <path d="M 54.096562 44.263219 
L 320.208562 44.263219 
" clip-path="url(#pabc563fefe)" style="fill: none; stroke: #b0b0b0; stroke-opacity: 0.3; stroke-width: 0.8; stroke-linecap: square"/>
     </g>
     <g id="line2d_34">
      <g>
       <use xlink:href="#mf4a848c20b" x="54.096562" y="44.263219" style="stroke: var(--black); stroke-width: 0.8"/>
      </g>
     </g>
     <g id="text_18" class="text">
      <!-- 3.0 -->
      <g transform="translate(31.193437 48.062437) scale(0.1 -0.1)">
       <use xlink:href="#DejaVuSans-33"/>
       <use xlink:href="#DejaVuSans-2e" transform="translate(63.623047 0)"/>
       <use xlink:href="#DejaVuSans-30" transform="translate(95.410156 0)"/>
      </g>
     </g>
    </g>
    <g class="tick ytick">
     <g id="line2d_35">
      <path d="M 54.096562 10.999219 
L 320.208562 10.999219 
" clip-path="url(#pabc563fefe)" style="fill: none; stroke: #b0b0b0; stroke-opacity: 0.3; stroke-width: 0.8; stroke-linecap: square"/>
     </g>
     <g id="line2d_36">
      <g>
       <use xlink:href="#mf4a848c20b" x="54.096562" y="10.999219" style="stroke: var(--black); stroke-width: 0.8"/>
      </g>
     </g>
     <g id="text_19" class="text">
      <!-- 3.5 -->
      <g transform="translate(31.193437 14.798437) scale(0.1 -0.1)">
       <use xlink:href="#DejaVuSans-33"/>
       <use xlink:href="#DejaVuSans-2e" transform="translate(63.623047 0)"/>
       <use xlink:href="#DejaVuSans-35" transform="translate(95.410156 0)"/>
      </g>
     </g>
    </g>
    <g id="text_20" class="text">
     <!-- $x_2$ -->
     <g transform="translate(16.318125 150.475219) rotate(-90) scale(0.12 -0.12)">
      <use xlink:href="#DejaVuSans-Oblique-78" transform="translate(0 0.3125)"/>
      <use xlink:href="#DejaVuSans-32" transform="translate(59.179688 -16.09375) scale(0.7)"/>
     </g>
    </g>
   </g>
   <g id="line2d_37">
    <path d="M 54.096562 10.999219 
L 320.208562 10.999219 
L 320.208562 10.999219 
" clip-path="url(#pabc563fefe)" style="fill: none; stroke-dasharray: 3.7,1.6; stroke-dashoffset: 0; stroke: var(--black)"/>
   </g>
   <g id="line2d_38">
    <path d="M 320.208562 277.111219 
L 320.208562 10.999219 
L 320.208562 10.999219 
" clip-path="url(#pabc563fefe)" style="fill: none; stroke-dasharray: 3.7,1.6; stroke-dashoffset: 0; stroke: var(--black)"/>
   </g>
   <g id="line2d_39">
    <path d="M 54.096562 243.847219 
L 320.208562 243.847219 
" clip-path="url(#pabc563fefe)" style="fill: none; stroke: var(--black); stroke-opacity: 0.5; stroke-width: 0.8; stroke-linecap: square"/>
   </g>
   <g id="line2d_40">
    <path d="M 87.360562 277.111219 
L 87.360562 10.999219 
" clip-path="url(#pabc563fefe)" style="fill: none; stroke: var(--black); stroke-opacity: 0.5; stroke-width: 0.8; stroke-linecap: square"/>
   </g>
   <g class="patch">
    <path d="M 54.096562 277.111219 
L 54.096562 10.999219 
" style="fill: none; stroke: var(--black); stroke-width: 0.8; stroke-linejoin: miter; stroke-linecap: square"/>
   </g>
   <g class="patch">
    <path d="M 54.096562 277.111219 
L 320.208562 277.111219 
" style="fill: none; stroke: var(--black); stroke-width: 0.8; stroke-linejoin: miter; stroke-linecap: square"/>
   </g>
   <g id="line2d_41">
    <path d="M 54.096562 243.847219 
L 176.520172 -1 
L 176.520172 -1 
" clip-path="url(#pabc563fefe)" style="fill: none; stroke: var(--black); stroke-width: 2; stroke-linecap: square"/>
   </g>
   <g id="line2d_42">
    <path d="M 80.132688 317.603094 
L 320.208562 77.527219 
L 320.208562 77.527219 
" clip-path="url(#pabc563fefe)" style="fill: none; stroke: var(--black); stroke-width: 2; stroke-linecap: square"/>
   </g>
   <g id="line2d_43">
    <path d="M 54.096562 243.847219 
L 320.208562 243.847219 
L 320.208562 243.847219 
" clip-path="url(#pabc563fefe)" style="fill: none; stroke: var(--black); stroke-width: 2; stroke-linecap: square"/>
   </g>
   <g id="line2d_44">
    <path d="M 87.360562 277.111219 
L 87.360562 10.999219 
L 87.360562 10.999219 
" clip-path="url(#pabc563fefe)" style="fill: none; stroke: var(--black); stroke-width: 2; stroke-linecap: square"/>
   </g>
   <g class="legend">
    <g class="patch">
     <path d="M 203.046062 107.067969 
L 313.208562 107.067969 
Q 315.208562 107.067969 315.208562 105.067969 
L 315.208562 17.999219 
Q 315.208562 15.999219 313.208562 15.999219 
L 203.046062 15.999219 
Q 201.046062 15.999219 201.046062 17.999219 
L 201.046062 105.067969 
Q 201.046062 107.067969 203.046062 107.067969 
z
" style="fill: var(--white); opacity: 0.9; stroke: #cccccc; stroke-linejoin: miter"/>
    </g>
    <g id="line2d_45">
     <path d="M 205.046062 24.097656 
L 215.046062 24.097656 
L 225.046062 24.097656 
" style="fill: none; stroke: var(--black); stroke-width: 2; stroke-linecap: square"/>
    </g>
    <g id="text_21" class="text">
     <!-- $-2x_1 + x_2 \leq 1$ -->
     <g transform="translate(233.046062 27.597656) scale(0.1 -0.1)">
      <defs>
       <path id="DejaVuSans-2b" d="M 2944 4013 
L 2944 2272 
L 4684 2272 
L 4684 1741 
L 2944 1741 
L 2944 0 
L 2419 0 
L 2419 1741 
L 678 1741 
L 678 2272 
L 2419 2272 
L 2419 4013 
L 2944 4013 
z
" transform="scale(0.015625)"/>
       <path id="DejaVuSans-2264" d="M 4684 3175 
L 1684 2309 
L 4684 1453 
L 4684 897 
L 678 2047 
L 678 2578 
L 4684 3725 
L 4684 3175 
z
M 678 531 
L 4684 531 
L 4684 0 
L 678 0 
L 678 531 
z
" transform="scale(0.015625)"/>
      </defs>
      <use xlink:href="#DejaVuSans-2212" transform="translate(0 0.78125)"/>
      <use xlink:href="#DejaVuSans-32" transform="translate(83.789062 0.78125)"/>
      <use xlink:href="#DejaVuSans-Oblique-78" transform="translate(147.412109 0.78125)"/>
      <use xlink:href="#DejaVuSans-31" transform="translate(206.591797 -15.625) scale(0.7)"/>
      <use xlink:href="#DejaVuSans-2b" transform="translate(273.344727 0.78125)"/>
      <use xlink:href="#DejaVuSans-Oblique-78" transform="translate(376.616211 0.78125)"/>
      <use xlink:href="#DejaVuSans-32" transform="translate(435.795898 -15.625) scale(0.7)"/>
      <use xlink:href="#DejaVuSans-2264" transform="translate(502.548828 0.78125)"/>
      <use xlink:href="#DejaVuSans-31" transform="translate(605.820312 0.78125)"/>
     </g>
    </g>
    <g id="line2d_46">
     <path d="M 205.046062 38.775781 
L 215.046062 38.775781 
L 225.046062 38.775781 
" style="fill: none; stroke: var(--black); stroke-width: 2; stroke-linecap: square"/>
    </g>
    <g id="text_22" class="text">
     <!-- $x_1 - x_2 \leq 1$ -->
     <g transform="translate(233.046062 42.275781) scale(0.1 -0.1)">
      <use xlink:href="#DejaVuSans-Oblique-78" transform="translate(0 0.09375)"/>
      <use xlink:href="#DejaVuSans-31" transform="translate(59.179688 -16.3125) scale(0.7)"/>
      <use xlink:href="#DejaVuSans-2212" transform="translate(125.932617 0.09375)"/>
      <use xlink:href="#DejaVuSans-Oblique-78" transform="translate(229.204102 0.09375)"/>
      <use xlink:href="#DejaVuSans-32" transform="translate(288.383789 -16.3125) scale(0.7)"/>
      <use xlink:href="#DejaVuSans-2264" transform="translate(355.136719 0.09375)"/>
      <use xlink:href="#DejaVuSans-31" transform="translate(458.408203 0.09375)"/>
     </g>
    </g>
    <g id="line2d_47">
     <path d="M 205.046062 53.453906 
L 215.046062 53.453906 
L 225.046062 53.453906 
" style="fill: none; stroke: var(--black); stroke-width: 2; stroke-linecap: square"/>
    </g>
    <g id="text_23" class="text">
     <!-- $x_2 \geq 0$ -->
     <g transform="translate(233.046062 56.953906) scale(0.1 -0.1)">
      <defs>
       <path id="DejaVuSans-2265" d="M 678 3175 
L 678 3725 
L 4684 2578 
L 4684 2047 
L 678 897 
L 678 1453 
L 3681 2309 
L 678 3175 
z
M 4684 531 
L 4684 0 
L 678 0 
L 678 531 
L 4684 531 
z
" transform="scale(0.015625)"/>
      </defs>
      <use xlink:href="#DejaVuSans-Oblique-78" transform="translate(0 0.78125)"/>
      <use xlink:href="#DejaVuSans-32" transform="translate(59.179688 -15.625) scale(0.7)"/>
      <use xlink:href="#DejaVuSans-2265" transform="translate(125.932617 0.78125)"/>
      <use xlink:href="#DejaVuSans-30" transform="translate(229.204102 0.78125)"/>
     </g>
    </g>
    <g id="line2d_48">
     <path d="M 205.046062 68.132031 
L 215.046062 68.132031 
L 225.046062 68.132031 
" style="fill: none; stroke: var(--black); stroke-width: 2; stroke-linecap: square"/>
    </g>
    <g id="text_24" class="text">
     <!-- $x_1 \geq 0$ -->
     <g transform="translate(233.046062 71.632031) scale(0.1 -0.1)">
      <use xlink:href="#DejaVuSans-Oblique-78" transform="translate(0 0.78125)"/>
      <use xlink:href="#DejaVuSans-31" transform="translate(59.179688 -15.625) scale(0.7)"/>
      <use xlink:href="#DejaVuSans-2265" transform="translate(125.932617 0.78125)"/>
      <use xlink:href="#DejaVuSans-30" transform="translate(229.204102 0.78125)"/>
     </g>
    </g>
    <g class="patch">
     <path d="M 205.046062 86.310156 
L 225.046062 86.310156 
L 225.046062 79.310156 
L 205.046062 79.310156 
z
" style="fill: #8000ff; fill-opacity: 0.5; stroke: #8000ff; stroke-opacity: 0.5; stroke-linejoin: miter"/>
    </g>
    <g id="text_25" class="text">
     <!-- Feasible Region -->
     <g transform="translate(233.046062 86.310156) scale(0.1 -0.1)">
      <defs>
       <path id="DejaVuSans-46" d="M 628 4666 
L 3309 4666 
L 3309 4134 
L 1259 4134 
L 1259 2759 
L 3109 2759 
L 3109 2228 
L 1259 2228 
L 1259 0 
L 628 0 
L 628 4666 
z
" transform="scale(0.015625)"/>
       <path id="DejaVuSans-65" d="M 3597 1894 
L 3597 1613 
L 953 1613 
Q 991 1019 1311 708 
Q 1631 397 2203 397 
Q 2534 397 2845 478 
Q 3156 559 3463 722 
L 3463 178 
Q 3153 47 2828 -22 
Q 2503 -91 2169 -91 
Q 1331 -91 842 396 
Q 353 884 353 1716 
Q 353 2575 817 3079 
Q 1281 3584 2069 3584 
Q 2775 3584 3186 3129 
Q 3597 2675 3597 1894 
z
M 3022 2063 
Q 3016 2534 2758 2815 
Q 2500 3097 2075 3097 
Q 1594 3097 1305 2825 
Q 1016 2553 972 2059 
L 3022 2063 
z
" transform="scale(0.015625)"/>
       <path id="DejaVuSans-61" d="M 2194 1759 
Q 1497 1759 1228 1600 
Q 959 1441 959 1056 
Q 959 750 1161 570 
Q 1363 391 1709 391 
Q 2188 391 2477 730 
Q 2766 1069 2766 1631 
L 2766 1759 
L 2194 1759 
z
M 3341 1997 
L 3341 0 
L 2766 0 
L 2766 531 
Q 2569 213 2275 61 
Q 1981 -91 1556 -91 
Q 1019 -91 701 211 
Q 384 513 384 1019 
Q 384 1609 779 1909 
Q 1175 2209 1959 2209 
L 2766 2209 
L 2766 2266 
Q 2766 2663 2505 2880 
Q 2244 3097 1772 3097 
Q 1472 3097 1187 3025 
Q 903 2953 641 2809 
L 641 3341 
Q 956 3463 1253 3523 
Q 1550 3584 1831 3584 
Q 2591 3584 2966 3190 
Q 3341 2797 3341 1997 
z
" transform="scale(0.015625)"/>
       <path id="DejaVuSans-73" d="M 2834 3397 
L 2834 2853 
Q 2591 2978 2328 3040 
Q 2066 3103 1784 3103 
Q 1356 3103 1142 2972 
Q 928 2841 928 2578 
Q 928 2378 1081 2264 
Q 1234 2150 1697 2047 
L 1894 2003 
Q 2506 1872 2764 1633 
Q 3022 1394 3022 966 
Q 3022 478 2636 193 
Q 2250 -91 1575 -91 
Q 1294 -91 989 -36 
Q 684 19 347 128 
L 347 722 
Q 666 556 975 473 
Q 1284 391 1588 391 
Q 1994 391 2212 530 
Q 2431 669 2431 922 
Q 2431 1156 2273 1281 
Q 2116 1406 1581 1522 
L 1381 1569 
Q 847 1681 609 1914 
Q 372 2147 372 2553 
Q 372 3047 722 3315 
Q 1072 3584 1716 3584 
Q 2034 3584 2315 3537 
Q 2597 3491 2834 3397 
z
" transform="scale(0.015625)"/>
       <path id="DejaVuSans-69" d="M 603 3500 
L 1178 3500 
L 1178 0 
L 603 0 
L 603 3500 
z
M 603 4863 
L 1178 4863 
L 1178 4134 
L 603 4134 
L 603 4863 
z
" transform="scale(0.015625)"/>
       <path id="DejaVuSans-62" d="M 3116 1747 
Q 3116 2381 2855 2742 
Q 2594 3103 2138 3103 
Q 1681 3103 1420 2742 
Q 1159 2381 1159 1747 
Q 1159 1113 1420 752 
Q 1681 391 2138 391 
Q 2594 391 2855 752 
Q 3116 1113 3116 1747 
z
M 1159 2969 
Q 1341 3281 1617 3432 
Q 1894 3584 2278 3584 
Q 2916 3584 3314 3078 
Q 3713 2572 3713 1747 
Q 3713 922 3314 415 
Q 2916 -91 2278 -91 
Q 1894 -91 1617 61 
Q 1341 213 1159 525 
L 1159 0 
L 581 0 
L 581 4863 
L 1159 4863 
L 1159 2969 
z
" transform="scale(0.015625)"/>
       <path id="DejaVuSans-6c" d="M 603 4863 
L 1178 4863 
L 1178 0 
L 603 0 
L 603 4863 
z
" transform="scale(0.015625)"/>
       <path id="DejaVuSans-20" transform="scale(0.015625)"/>
       <path id="DejaVuSans-52" d="M 2841 2188 
Q 3044 2119 3236 1894 
Q 3428 1669 3622 1275 
L 4263 0 
L 3584 0 
L 2988 1197 
Q 2756 1666 2539 1819 
Q 2322 1972 1947 1972 
L 1259 1972 
L 1259 0 
L 628 0 
L 628 4666 
L 2053 4666 
Q 2853 4666 3247 4331 
Q 3641 3997 3641 3322 
Q 3641 2881 3436 2590 
Q 3231 2300 2841 2188 
z
M 1259 4147 
L 1259 2491 
L 2053 2491 
Q 2509 2491 2742 2702 
Q 2975 2913 2975 3322 
Q 2975 3731 2742 3939 
Q 2509 4147 2053 4147 
L 1259 4147 
z
" transform="scale(0.015625)"/>
       <path id="DejaVuSans-67" d="M 2906 1791 
Q 2906 2416 2648 2759 
Q 2391 3103 1925 3103 
Q 1463 3103 1205 2759 
Q 947 2416 947 1791 
Q 947 1169 1205 825 
Q 1463 481 1925 481 
Q 2391 481 2648 825 
Q 2906 1169 2906 1791 
z
M 3481 434 
Q 3481 -459 3084 -895 
Q 2688 -1331 1869 -1331 
Q 1566 -1331 1297 -1286 
Q 1028 -1241 775 -1147 
L 775 -588 
Q 1028 -725 1275 -790 
Q 1522 -856 1778 -856 
Q 2344 -856 2625 -561 
Q 2906 -266 2906 331 
L 2906 616 
Q 2728 306 2450 153 
Q 2172 0 1784 0 
Q 1141 0 747 490 
Q 353 981 353 1791 
Q 353 2603 747 3093 
Q 1141 3584 1784 3584 
Q 2172 3584 2450 3431 
Q 2728 3278 2906 2969 
L 2906 3500 
L 3481 3500 
L 3481 434 
z
" transform="scale(0.015625)"/>
       <path id="DejaVuSans-6f" d="M 1959 3097 
Q 1497 3097 1228 2736 
Q 959 2375 959 1747 
Q 959 1119 1226 758 
Q 1494 397 1959 397 
Q 2419 397 2687 759 
Q 2956 1122 2956 1747 
Q 2956 2369 2687 2733 
Q 2419 3097 1959 3097 
z
M 1959 3584 
Q 2709 3584 3137 3096 
Q 3566 2609 3566 1747 
Q 3566 888 3137 398 
Q 2709 -91 1959 -91 
Q 1206 -91 779 398 
Q 353 888 353 1747 
Q 353 2609 779 3096 
Q 1206 3584 1959 3584 
z
" transform="scale(0.015625)"/>
       <path id="DejaVuSans-6e" d="M 3513 2113 
L 3513 0 
L 2938 0 
L 2938 2094 
Q 2938 2591 2744 2837 
Q 2550 3084 2163 3084 
Q 1697 3084 1428 2787 
Q 1159 2491 1159 1978 
L 1159 0 
L 581 0 
L 581 3500 
L 1159 3500 
L 1159 2956 
Q 1366 3272 1645 3428 
Q 1925 3584 2291 3584 
Q 2894 3584 3203 3211 
Q 3513 2838 3513 2113 
z
" transform="scale(0.015625)"/>
      </defs>
      <use xlink:href="#DejaVuSans-46"/>
      <use xlink:href="#DejaVuSans-65" transform="translate(52.019531 0)"/>
      <use xlink:href="#DejaVuSans-61" transform="translate(113.542969 0)"/>
      <use xlink:href="#DejaVuSans-73" transform="translate(174.822266 0)"/>
      <use xlink:href="#DejaVuSans-69" transform="translate(226.921875 0)"/>
      <use xlink:href="#DejaVuSans-62" transform="translate(254.705078 0)"/>
      <use xlink:href="#DejaVuSans-6c" transform="translate(318.181641 0)"/>
      <use xlink:href="#DejaVuSans-65" transform="translate(345.964844 0)"/>
      <use xlink:href="#DejaVuSans-20" transform="translate(407.488281 0)"/>
      <use xlink:href="#DejaVuSans-52" transform="translate(439.275391 0)"/>
      <use xlink:href="#DejaVuSans-65" transform="translate(504.257812 0)"/>
      <use xlink:href="#DejaVuSans-67" transform="translate(565.78125 0)"/>
      <use xlink:href="#DejaVuSans-69" transform="translate(629.257812 0)"/>
      <use xlink:href="#DejaVuSans-6f" transform="translate(657.041016 0)"/>
      <use xlink:href="#DejaVuSans-6e" transform="translate(718.222656 0)"/>
     </g>
    </g>
    <g id="PathCollection_1">
     <defs>
      <path id="m6e8259fd55" d="M 0 5 
C 1.326016 5 2.597899 4.473168 3.535534 3.535534 
C 4.473168 2.597899 5 1.326016 5 0 
C 5 -1.326016 4.473168 -2.597899 3.535534 -3.535534 
C 2.597899 -4.473168 1.326016 -5 0 -5 
C -1.326016 -5 -2.597899 -4.473168 -3.535534 -3.535534 
C -4.473168 -2.597899 -5 -1.326016 -5 0 
C -5 1.326016 -4.473168 2.597899 -3.535534 3.535534 
C -2.597899 4.473168 -1.326016 5 0 5 
z
" style="stroke: var(--white); stroke-width: 1.5"/>
     </defs>
     <g>
      <use xlink:href="#m6e8259fd55" x="215.046062" y="98.363281" style="fill: #ff0001; stroke: var(--white); stroke-width: 1.5"/>
     </g>
    </g>
    <g id="text_26" class="text">
     <!-- Vertices -->
     <g transform="translate(233.046062 100.988281) scale(0.1 -0.1)">
      <defs>
       <path id="DejaVuSans-56" d="M 1831 0 
L 50 4666 
L 709 4666 
L 2188 738 
L 3669 4666 
L 4325 4666 
L 2547 0 
L 1831 0 
z
" transform="scale(0.015625)"/>
       <path id="DejaVuSans-72" d="M 2631 2963 
Q 2534 3019 2420 3045 
Q 2306 3072 2169 3072 
Q 1681 3072 1420 2755 
Q 1159 2438 1159 1844 
L 1159 0 
L 581 0 
L 581 3500 
L 1159 3500 
L 1159 2956 
Q 1341 3275 1631 3429 
Q 1922 3584 2338 3584 
Q 2397 3584 2469 3576 
Q 2541 3569 2628 3553 
L 2631 2963 
z
" transform="scale(0.015625)"/>
       <path id="DejaVuSans-74" d="M 1172 4494 
L 1172 3500 
L 2356 3500 
L 2356 3053 
L 1172 3053 
L 1172 1153 
Q 1172 725 1289 603 
Q 1406 481 1766 481 
L 2356 481 
L 2356 0 
L 1766 0 
Q 1100 0 847 248 
Q 594 497 594 1153 
L 594 3053 
L 172 3053 
L 172 3500 
L 594 3500 
L 594 4494 
L 1172 4494 
z
" transform="scale(0.015625)"/>
       <path id="DejaVuSans-63" d="M 3122 3366 
L 3122 2828 
Q 2878 2963 2633 3030 
Q 2388 3097 2138 3097 
Q 1578 3097 1268 2742 
Q 959 2388 959 1747 
Q 959 1106 1268 751 
Q 1578 397 2138 397 
Q 2388 397 2633 464 
Q 2878 531 3122 666 
L 3122 134 
Q 2881 22 2623 -34 
Q 2366 -91 2075 -91 
Q 1284 -91 818 406 
Q 353 903 353 1747 
Q 353 2603 823 3093 
Q 1294 3584 2113 3584 
Q 2378 3584 2631 3529 
Q 2884 3475 3122 3366 
z
" transform="scale(0.015625)"/>
      </defs>
      <use xlink:href="#DejaVuSans-56"/>
      <use xlink:href="#DejaVuSans-65" transform="translate(60.658203 0)"/>
      <use xlink:href="#DejaVuSans-72" transform="translate(122.181641 0)"/>
      <use xlink:href="#DejaVuSans-74" transform="translate(163.294922 0)"/>
      <use xlink:href="#DejaVuSans-69" transform="translate(202.503906 0)"/>
      <use xlink:href="#DejaVuSans-63" transform="translate(230.287109 0)"/>
      <use xlink:href="#DejaVuSans-65" transform="translate(285.267578 0)"/>
      <use xlink:href="#DejaVuSans-73" transform="translate(346.791016 0)"/>
     </g>
    </g>
   </g>
   <g id="PathCollection_2">
    <g clip-path="url(#pabc563fefe)">
     <use xlink:href="#m6e8259fd55" x="87.360562" y="243.847219" style="fill: #ff0001; stroke: var(--white); stroke-width: 1.5"/>
     <use xlink:href="#m6e8259fd55" x="87.360562" y="177.319219" style="fill: #ff0001; stroke: var(--white); stroke-width: 1.5"/>
     <use xlink:href="#m6e8259fd55" x="153.888562" y="243.847219" style="fill: #ff0001; stroke: var(--white); stroke-width: 1.5"/>
    </g>
   </g>
  </g>
 </g>
 <defs>
  <clipPath id="pabc563fefe">
   <rect x="54.096562" y="10.999219" width="266.112" height="266.112"/>
  </clipPath>
 </defs>
</svg>
