<svg xmlns="http://www.w3.org/2000/svg" xmlns:xlink="http://www.w3.org/1999/xlink" width="495.36" height="217.6" style="--axis-color:#000;--grid-stroke:rgba(0,0,0,0.2);--plot3d-stroke:rgba(0,0,0,0.3);--plot3d-grid:rgba(0,0,0,0.2);--black:#000000;--c1:#FF0001;--c2:#00FF02;--c3:#0000FF;--c4:#FF00FF;--c5:#00FFFF;--c6:#FFFF00;--c7:#FF8000;--c8:#8000FF;--gray:#7f7f7f;--grey:#7f7f7f;--octonary:#bcbd22;--primary:#d62728;--quaternary:#9467bd;--quinary:#8c564b;--secondary:#2ca02c;--senary:#e377c2;--septenary:#7f7f7f;--tertiary:#1f77b4;--white:#ffffff" viewBox="0 0 371.52 163.2"><style><![CDATA[@media (prefers-color-scheme:dark){:root{--axis-color:#fff;--grid-stroke:rgba(255,255,255,0.2);--plot3d-stroke:rgba(255,255,255,0.3);--plot3d-grid:rgba(255,255,255,0.2);--black:#FFFFFF;--c1:#FF0001;--c2:#00FF02;--c3:#0000FF;--c4:#FF00FF;--c5:#00FFFF;--c6:#FFFF00;--c7:#FF8000;--c8:#8000FF;--gray:#CCCCCC;--grey:#CCCCCC;--octonary:#E6DB74;--primary:#FF4A98;--quaternary:#B4A0FF;--quinary:#FFB86B;--secondary:#0AFAFA;--senary:#FF79C6;--septenary:#CCCCCC;--tertiary:#7F83FF;--white:#000000}}.text{fill:var(--axis-color)!important;stroke:none!important}.axis path,.patch path[style*="stroke: currentColor"]{stroke:var(--axis-color)!important}*{stroke-linejoin:round;stroke-linecap:butt}]]></style><g id="figure_1"><path d="M0 163.2h371.52V0H0z" class="patch" style="fill:none"/><g id="axes_1"><path d="M7.2 156H156V7.2H7.2z" class="patch" style="fill:none"/><path d="M32 106.4h99.2L81.6 32z" class="patch" clip-path="url(#p538f31d469)" style="fill:#8000ff;opacity:.3;stroke:#8000ff;stroke-width:2;stroke-linejoin:miter"/><path id="line2d_1" d="m32 106.4 44.64-22.32" clip-path="url(#p538f31d469)" style="fill:none;stroke-dasharray:3.7,1.6;stroke-dashoffset:0;stroke:gray;stroke-opacity:.6"/><path id="line2d_2" d="M131.2 106.4 76.64 84.08" clip-path="url(#p538f31d469)" style="fill:none;stroke-dasharray:3.7,1.6;stroke-dashoffset:0;stroke:gray;stroke-opacity:.6"/><path id="line2d_3" d="m81.6 32-4.96 52.08" clip-path="url(#p538f31d469)" style="fill:none;stroke-dasharray:3.7,1.6;stroke-dashoffset:0;stroke:gray;stroke-opacity:.6"/><g id="text_1" class="text" transform="matrix(.12 0 0 -.12 18.14 113.84)"><defs><path id="DejaVuSans-Oblique-76" d="M459 3500h610l512-2975 1675 2975h610L1875 0h-775z" transform="scale(.01563)"/><path id="DejaVuSans-31" d="M794 531h1031v3560L703 3866v575l1116 225h631V531h1031V0H794z" transform="scale(.01563)"/></defs><use xlink:href="#DejaVuSans-Oblique-76" transform="translate(0 .313)"/><use xlink:href="#DejaVuSans-31" transform="matrix(.7 0 0 .7 59.18 -16.094)"/></g><g id="text_2" class="text" transform="matrix(.12 0 0 -.12 132.22 113.84)"><defs><path id="DejaVuSans-32" d="M1228 531h2203V0H469v531q359 372 979 998 621 627 780 809 303 340 423 576 121 236 121 464 0 372-261 606-261 235-680 235-297 0-627-103-329-103-704-313v638q381 153 712 231 332 78 607 78 725 0 1156-363 431-362 431-968 0-288-108-546-107-257-392-607-78-91-497-524-418-433-1181-1211" transform="scale(.01563)"/></defs><use xlink:href="#DejaVuSans-Oblique-76" transform="translate(0 .313)"/><use xlink:href="#DejaVuSans-32" transform="matrix(.7 0 0 .7 59.18 -16.094)"/></g><g id="text_3" class="text" transform="matrix(.12 0 0 -.12 75.18 24.56)"><defs><path id="DejaVuSans-33" d="M2597 2516q453-97 707-404 255-306 255-756 0-690-475-1069Q2609-91 1734-91q-293 0-604 58T488 141v609q262-153 574-231 313-78 654-78 593 0 904 234t311 681q0 413-289 645-289 233-804 233h-544v519h569q465 0 712 186t247 536q0 359-255 551-254 193-729 193-260 0-557-57-297-56-653-174v562q360 100 674 150t592 50q719 0 1137-327 419-326 419-882 0-388-222-655t-631-370" transform="scale(.01563)"/></defs><use xlink:href="#DejaVuSans-Oblique-76" transform="translate(0 .313)"/><use xlink:href="#DejaVuSans-33" transform="matrix(.7 0 0 .7 59.18 -16.094)"/></g><g id="text_4" class="text" style="fill:red" transform="matrix(.12 0 0 -.12 80.14 84.08)"><defs><path id="DejaVuSans-34" d="M2419 4116 825 1625h1594zm-166 550h794V1625h666v-525h-666V0h-628v1100H313v609z" transform="scale(.01563)"/></defs><use xlink:href="#DejaVuSans-Oblique-76" transform="translate(0 .313)"/><use xlink:href="#DejaVuSans-34" transform="matrix(.7 0 0 .7 59.18 -16.094)"/></g><g id="PathCollection_1"><defs><path id="mbdac4cfa06" d="M0 2.236a2.236 2.236 0 1 0 0-4.472 2.236 2.236 0 0 0 0 4.472z" style="stroke:var(--black)"/></defs><g clip-path="url(#p538f31d469)"><use xlink:href="#mbdac4cfa06" x="32" y="106.4" style="stroke:var(--black)"/></g></g><g id="PathCollection_2" clip-path="url(#p538f31d469)"><use xlink:href="#mbdac4cfa06" x="131.2" y="106.4" style="stroke:var(--black)"/></g><g id="PathCollection_3" clip-path="url(#p538f31d469)"><use xlink:href="#mbdac4cfa06" x="81.6" y="32" style="stroke:var(--black)"/></g><g id="PathCollection_4"><defs><path id="m24ce5a2cc4" d="M-2.236 2.236h4.472v-4.472h-4.472z" style="stroke:red"/></defs><g clip-path="url(#p538f31d469)"><use xlink:href="#m24ce5a2cc4" x="76.64" y="84.08" style="fill:red;stroke:red"/></g></g></g><g id="axes_2"><path d="M215.52 156h148.8V7.2h-148.8z" class="patch" style="fill:none"/><path d="M240.32 106.4h99.2L289.92 32z" class="patch" clip-path="url(#p0582186975)" style="fill:#8000ff;opacity:.3;stroke:#8000ff;stroke-width:2;stroke-linejoin:miter"/><path id="line2d_4" d="M240.32 106.4h99.2" clip-path="url(#p0582186975)" style="fill:none;stroke:#8000ff;stroke-opacity:.8;stroke-width:3;stroke-linecap:square"/><path id="line2d_5" d="M339.52 106.4 289.92 32" clip-path="url(#p0582186975)" style="fill:none;stroke:#8000ff;stroke-opacity:.8;stroke-width:3;stroke-linecap:square"/><path id="line2d_6" d="m289.92 32-49.6 74.4" clip-path="url(#p0582186975)" style="fill:none;stroke:#8000ff;stroke-opacity:.8;stroke-width:3;stroke-linecap:square"/><g id="text_5" class="text" transform="matrix(.12 0 0 -.12 226.46 113.84)"><use xlink:href="#DejaVuSans-Oblique-76" transform="translate(0 .313)"/><use xlink:href="#DejaVuSans-31" transform="matrix(.7 0 0 .7 59.18 -16.094)"/></g><g id="text_6" class="text" transform="matrix(.12 0 0 -.12 340.54 113.84)"><use xlink:href="#DejaVuSans-Oblique-76" transform="translate(0 .313)"/><use xlink:href="#DejaVuSans-32" transform="matrix(.7 0 0 .7 59.18 -16.094)"/></g><g id="text_7" class="text" transform="matrix(.12 0 0 -.12 283.5 24.56)"><use xlink:href="#DejaVuSans-Oblique-76" transform="translate(0 .313)"/><use xlink:href="#DejaVuSans-33" transform="matrix(.7 0 0 .7 59.18 -16.094)"/></g><g id="PathCollection_5" clip-path="url(#p0582186975)"><use xlink:href="#mbdac4cfa06" x="240.32" y="106.4" style="stroke:var(--black)"/></g><g id="PathCollection_6" clip-path="url(#p0582186975)"><use xlink:href="#mbdac4cfa06" x="339.52" y="106.4" style="stroke:var(--black)"/></g><g id="PathCollection_7" clip-path="url(#p0582186975)"><use xlink:href="#mbdac4cfa06" x="289.92" y="32" style="stroke:var(--black)"/></g></g></g><defs><clipPath id="p538f31d469"><path d="M7.2 7.2H156V156H7.2z"/></clipPath><clipPath id="p0582186975"><path d="M215.52 7.2h148.8V156h-148.8z"/></clipPath></defs></svg>