<?xml version="1.0" encoding="utf-8" standalone="no"?>
<!DOCTYPE svg PUBLIC "-//W3C//DTD SVG 1.1//EN"
  "http://www.w3.org/Graphics/SVG/1.1/DTD/svg11.dtd">
<svg xmlns:xlink="http://www.w3.org/1999/xlink" width="314.1pt" height="135.075pt" viewBox="0 0 314.1 135.075" xmlns="http://www.w3.org/2000/svg" version="1.1">
<style>:root { --axis-color:#000; --grid-stroke:rgba(0,0,0,0.2); --plot3d-stroke:rgba(0,0,0,0.3); --plot3d-grid:rgba(0,0,0,0.2); }
@media (prefers-color-scheme:dark) { :root { --axis-color:#fff; --grid-stroke:rgba(255,255,255,0.2); --plot3d-stroke:rgba(255,255,255,0.3); --plot3d-grid:rgba(255,255,255,0.2); } }
.black{fill:#000000;stroke:#000000;}:root{--black:#000000;}.c1{fill:#FF0001;stroke:#FF0001;}:root{--c1:#FF0001;}.c2{fill:#00FF02;stroke:#00FF02;}:root{--c2:#00FF02;}.c3{fill:#0000FF;stroke:#0000FF;}:root{--c3:#0000FF;}.c4{fill:#FF00FF;stroke:#FF00FF;}:root{--c4:#FF00FF;}.c5{fill:#00FFFF;stroke:#00FFFF;}:root{--c5:#00FFFF;}.c6{fill:#FFFF00;stroke:#FFFF00;}:root{--c6:#FFFF00;}.c7{fill:#FF8000;stroke:#FF8000;}:root{--c7:#FF8000;}.c8{fill:#8000FF;stroke:#8000FF;}:root{--c8:#8000FF;}.gray{fill:#7f7f7f;stroke:#7f7f7f;}:root{--gray:#7f7f7f;}.grey{fill:#7f7f7f;stroke:#7f7f7f;}:root{--grey:#7f7f7f;}.octonary{fill:#bcbd22;stroke:#bcbd22;}:root{--octonary:#bcbd22;}.primary{fill:#d62728;stroke:#d62728;}:root{--primary:#d62728;}.quaternary{fill:#9467bd;stroke:#9467bd;}:root{--quaternary:#9467bd;}.quinary{fill:#8c564b;stroke:#8c564b;}:root{--quinary:#8c564b;}.secondary{fill:#2ca02c;stroke:#2ca02c;}:root{--secondary:#2ca02c;}.senary{fill:#e377c2;stroke:#e377c2;}:root{--senary:#e377c2;}.septenary{fill:#7f7f7f;stroke:#7f7f7f;}:root{--septenary:#7f7f7f;}.tertiary{fill:#1f77b4;stroke:#1f77b4;}:root{--tertiary:#1f77b4;}.white{fill:#ffffff;stroke:#ffffff;}:root{--white:#ffffff;}
@media (prefers-color-scheme:dark) { .black{fill:#FFFFFF;stroke:#FFFFFF;}:root{--black:#FFFFFF;}.c1{fill:#FF0001;stroke:#FF0001;}:root{--c1:#FF0001;}.c2{fill:#00FF02;stroke:#00FF02;}:root{--c2:#00FF02;}.c3{fill:#0000FF;stroke:#0000FF;}:root{--c3:#0000FF;}.c4{fill:#FF00FF;stroke:#FF00FF;}:root{--c4:#FF00FF;}.c5{fill:#00FFFF;stroke:#00FFFF;}:root{--c5:#00FFFF;}.c6{fill:#FFFF00;stroke:#FFFF00;}:root{--c6:#FFFF00;}.c7{fill:#FF8000;stroke:#FF8000;}:root{--c7:#FF8000;}.c8{fill:#8000FF;stroke:#8000FF;}:root{--c8:#8000FF;}.gray{fill:#CCCCCC;stroke:#CCCCCC;}:root{--gray:#CCCCCC;}.grey{fill:#CCCCCC;stroke:#CCCCCC;}:root{--grey:#CCCCCC;}.octonary{fill:#E6DB74;stroke:#E6DB74;}:root{--octonary:#E6DB74;}.primary{fill:#FF4A98;stroke:#FF4A98;}:root{--primary:#FF4A98;}.quaternary{fill:#B4A0FF;stroke:#B4A0FF;}:root{--quaternary:#B4A0FF;}.quinary{fill:#FFB86B;stroke:#FFB86B;}:root{--quinary:#FFB86B;}.secondary{fill:#0AFAFA;stroke:#0AFAFA;}:root{--secondary:#0AFAFA;}.senary{fill:#FF79C6;stroke:#FF79C6;}:root{--senary:#FF79C6;}.septenary{fill:#CCCCCC;stroke:#CCCCCC;}:root{--septenary:#CCCCCC;}.tertiary{fill:#7F83FF;stroke:#7F83FF;}:root{--tertiary:#7F83FF;}.white{fill:#000000;stroke:#000000;}:root{--white:#000000;} }
text,.text { fill:var(--axis-color)!important; stroke:none!important; }
.axis line,.axis path,.tick line,.tick path,path.domain,line.grid { stroke:var(--axis-color)!important; }
.legend text { fill:var(--axis-color)!important; }
.patch path[style*="stroke: currentColor"] { stroke:var(--axis-color)!important; }
g.legend>g:first-child>path:first-child { fill:rgba(255,255,255,0.8)!important; stroke:rgba(0,0,0,0.1)!important; }
@media (prefers-color-scheme:dark) { g.legend>g:first-child>path:first-child { fill:rgba(26,26,26,0.8)!important; stroke:rgba(255,255,255,0.1)!important; } }
.plot3d path,.plot3d polygon { stroke:var(--plot3d-stroke)!important; }
.plot3d-grid line { stroke:var(--plot3d-grid)!important; }
.plot3d-surface path[style*="fill:"] { fill-opacity:0.9!important; }
@media (prefers-color-scheme:dark) { .plot3d-surface path[style*="fill:"] { fill-opacity:0.95!important; filter:saturate(1.2)!important; } }</style>

 <metadata>
  <rdf:RDF xmlns:dc="http://purl.org/dc/elements/1.1/" xmlns:cc="http://creativecommons.org/ns#" xmlns:rdf="http://www.w3.org/1999/02/22-rdf-syntax-ns#">
   <cc:Work>
    <dc:type rdf:resource="http://purl.org/dc/dcmitype/StillImage"/>
    <dc:date>2026-05-06T23:46:22.975870</dc:date>
    <dc:format>image/svg+xml</dc:format>
    <dc:creator>
     <cc:Agent>
      <dc:title>Matplotlib v3.10.1, https://matplotlib.org/</dc:title>
     </cc:Agent>
    </dc:creator>
   </cc:Work>
  </rdf:RDF>
 </metadata>
 <defs>
  <style type="text/css">*{stroke-linejoin: round; stroke-linecap: butt}</style>
 </defs>
 <g id="figure_1">
  <g class="patch">
   <path d="M 0 135.075 
L 314.1 135.075 
L 314.1 0 
L 0 0 
L 0 135.075 
z
" style="fill: none"/>
  </g>
  <g id="axes_1">
   <g class="patch">
    <path d="M 3.6 131.475 
L 131.475 131.475 
L 131.475 3.6 
L 3.6 3.6 
L 3.6 131.475 
z
" style="fill: none"/>
   </g>
   <g class="axis"/>
   <g class="axis"/>
   <g class="patch">
    <path d="M 24.9125 88.85 
L 110.1625 88.85 
L 67.5375 24.9125 
z
" clip-path="url(#pd277b13191)" style="fill:var(--c8); opacity: 0.3; stroke:var(--c8); stroke-width: 2; stroke-linejoin: miter"/>
   </g>
   <g id="line2d_1">
    <path d="M 24.9125 88.85 
L 63.275 69.66875 
" clip-path="url(#pd277b13191)" style="fill: none; stroke-dasharray: 3.7,1.6; stroke-dashoffset: 0; stroke: #808080; stroke-opacity: 0.6"/>
   </g>
   <g id="line2d_2">
    <path d="M 110.1625 88.85 
L 63.275 69.66875 
" clip-path="url(#pd277b13191)" style="fill: none; stroke-dasharray: 3.7,1.6; stroke-dashoffset: 0; stroke: #808080; stroke-opacity: 0.6"/>
   </g>
   <g id="line2d_3">
    <path d="M 67.5375 24.9125 
L 63.275 69.66875 
" clip-path="url(#pd277b13191)" style="fill: none; stroke-dasharray: 3.7,1.6; stroke-dashoffset: 0; stroke: #808080; stroke-opacity: 0.6"/>
   </g>
   <g id="text_1" class="text">
    <!-- $v_1$ -->
    <g transform="translate(13.11875 95.24375) scale(0.12 -0.12)">
     <defs>
      <path id="Cmmi10-76" d="M 684 722 
Q 684 866 718 1037 
Q 753 1209 787 1320 
Q 822 1431 944 1753 
Q 1066 2075 1069 2088 
Q 1153 2322 1153 2472 
Q 1153 2663 1013 2663 
Q 759 2663 595 2402 
Q 431 2141 353 1819 
Q 341 1778 300 1778 
L 225 1778 
Q 172 1778 172 1838 
L 172 1856 
Q 275 2238 487 2533 
Q 700 2828 1025 2828 
Q 1253 2828 1411 2678 
Q 1569 2528 1569 2297 
Q 1569 2178 1516 2047 
Q 1391 1722 1319 1526 
Q 1247 1331 1186 1089 
Q 1125 847 1125 641 
Q 1125 400 1236 248 
Q 1347 97 1581 97 
Q 2025 97 2381 781 
Q 2494 1003 2594 1303 
Q 2694 1603 2694 1791 
Q 2694 1984 2631 2092 
Q 2569 2200 2469 2317 
Q 2369 2434 2369 2503 
Q 2369 2628 2472 2731 
Q 2575 2834 2700 2834 
Q 2853 2834 2920 2693 
Q 2988 2553 2988 2375 
Q 2988 2163 2927 1869 
Q 2866 1575 2758 1259 
Q 2650 944 2559 763 
Q 2138 -72 1575 -72 
Q 1172 -72 928 129 
Q 684 331 684 722 
z
" transform="scale(0.015625)"/>
      <path id="Cmr10-31" d="M 594 0 
L 594 225 
Q 1394 225 1394 428 
L 1394 3788 
Q 1063 3628 556 3628 
L 556 3853 
Q 1341 3853 1741 4263 
L 1831 4263 
Q 1853 4263 1873 4245 
Q 1894 4228 1894 4206 
L 1894 428 
Q 1894 225 2694 225 
L 2694 0 
L 594 0 
z
" transform="scale(0.015625)"/>
     </defs>
     <use xlink:href="#Cmmi10-76" transform="translate(0 0.71875)"/>
     <use xlink:href="#Cmr10-31" transform="translate(48.388672 -16.2875) scale(0.7)"/>
    </g>
   </g>
   <g id="text_2" class="text">
    <!-- $v_2$ -->
    <g transform="translate(111.15625 95.24375) scale(0.12 -0.12)">
     <defs>
      <path id="Cmr10-32" d="M 319 0 
L 319 172 
Q 319 188 331 206 
L 1325 1306 
Q 1550 1550 1690 1715 
Q 1831 1881 1968 2097 
Q 2106 2313 2186 2536 
Q 2266 2759 2266 3009 
Q 2266 3272 2169 3511 
Q 2072 3750 1880 3894 
Q 1688 4038 1416 4038 
Q 1138 4038 916 3870 
Q 694 3703 603 3438 
Q 628 3444 672 3444 
Q 816 3444 917 3347 
Q 1019 3250 1019 3097 
Q 1019 2950 917 2848 
Q 816 2747 672 2747 
Q 522 2747 420 2851 
Q 319 2956 319 3097 
Q 319 3338 409 3548 
Q 500 3759 670 3923 
Q 841 4088 1055 4175 
Q 1269 4263 1509 4263 
Q 1875 4263 2190 4108 
Q 2506 3953 2690 3670 
Q 2875 3388 2875 3009 
Q 2875 2731 2753 2481 
Q 2631 2231 2440 2026 
Q 2250 1822 1953 1562 
Q 1656 1303 1563 1216 
L 838 519 
L 1453 519 
Q 1906 519 2211 526 
Q 2516 534 2534 550 
Q 2609 631 2688 1141 
L 2875 1141 
L 2694 0 
L 319 0 
z
" transform="scale(0.015625)"/>
     </defs>
     <use xlink:href="#Cmmi10-76" transform="translate(0 0.71875)"/>
     <use xlink:href="#Cmr10-32" transform="translate(48.388672 -16.2875) scale(0.7)"/>
    </g>
   </g>
   <g id="text_3" class="text">
    <!-- $v_3$ -->
    <g transform="translate(62.1375 18.51875) scale(0.12 -0.12)">
     <defs>
      <path id="Cmr10-33" d="M 609 494 
Q 759 275 1012 169 
Q 1266 63 1556 63 
Q 1928 63 2084 380 
Q 2241 697 2241 1100 
Q 2241 1281 2208 1462 
Q 2175 1644 2097 1800 
Q 2019 1956 1883 2050 
Q 1747 2144 1550 2144 
L 1125 2144 
Q 1069 2144 1069 2203 
L 1069 2259 
Q 1069 2309 1125 2309 
L 1478 2338 
Q 1703 2338 1851 2506 
Q 2000 2675 2069 2917 
Q 2138 3159 2138 3378 
Q 2138 3684 1994 3881 
Q 1850 4078 1556 4078 
Q 1313 4078 1091 3986 
Q 869 3894 738 3706 
Q 750 3709 759 3711 
Q 769 3713 781 3713 
Q 925 3713 1022 3613 
Q 1119 3513 1119 3372 
Q 1119 3234 1022 3134 
Q 925 3034 781 3034 
Q 641 3034 541 3134 
Q 441 3234 441 3372 
Q 441 3647 606 3850 
Q 772 4053 1033 4158 
Q 1294 4263 1556 4263 
Q 1750 4263 1965 4205 
Q 2181 4147 2356 4039 
Q 2531 3931 2642 3762 
Q 2753 3594 2753 3378 
Q 2753 3109 2633 2881 
Q 2513 2653 2303 2487 
Q 2094 2322 1844 2241 
Q 2122 2188 2372 2031 
Q 2622 1875 2773 1631 
Q 2925 1388 2925 1106 
Q 2925 753 2731 467 
Q 2538 181 2222 20 
Q 1906 -141 1556 -141 
Q 1256 -141 954 -26 
Q 653 88 461 316 
Q 269 544 269 863 
Q 269 1022 375 1128 
Q 481 1234 641 1234 
Q 744 1234 830 1186 
Q 916 1138 964 1050 
Q 1013 963 1013 863 
Q 1013 706 903 600 
Q 794 494 641 494 
L 609 494 
z
" transform="scale(0.015625)"/>
     </defs>
     <use xlink:href="#Cmmi10-76" transform="translate(0 0.71875)"/>
     <use xlink:href="#Cmr10-33" transform="translate(48.388672 -16.2875) scale(0.7)"/>
    </g>
   </g>
   <g id="text_4" class="text">
    <!-- $v_4$ -->
    <g style="fill: #ff0000" transform="translate(66.4 69.66875) scale(0.12 -0.12)">
     <defs>
      <path id="Cmr10-34" d="M 178 1056 
L 178 1281 
L 2156 4231 
Q 2178 4263 2222 4263 
L 2316 4263 
Q 2388 4263 2388 4191 
L 2388 1281 
L 3016 1281 
L 3016 1056 
L 2388 1056 
L 2388 428 
Q 2388 297 2575 261 
Q 2763 225 3009 225 
L 3009 0 
L 1247 0 
L 1247 225 
Q 1494 225 1681 261 
Q 1869 297 1869 428 
L 1869 1056 
L 178 1056 
z
M 391 1281 
L 1906 1281 
L 1906 3547 
L 391 1281 
z
" transform="scale(0.015625)"/>
     </defs>
     <use xlink:href="#Cmmi10-76" transform="translate(0 0.71875)"/>
     <use xlink:href="#Cmr10-34" transform="translate(48.388672 -16.2875) scale(0.7)"/>
    </g>
   </g>
   <g id="PathCollection_1">
    <defs>
     <path id="mec8614c300" d="M 0 2.236068 
C 0.593012 2.236068 1.161816 2.000462 1.581139 1.581139 
C 2.000462 1.161816 2.236068 0.593012 2.236068 0 
C 2.236068 -0.593012 2.000462 -1.161816 1.581139 -1.581139 
C 1.161816 -2.000462 0.593012 -2.236068 0 -2.236068 
C -0.593012 -2.236068 -1.161816 -2.000462 -1.581139 -1.581139 
C -2.000462 -1.161816 -2.236068 -0.593012 -2.236068 0 
C -2.236068 0.593012 -2.000462 1.161816 -1.581139 1.581139 
C -1.161816 2.000462 -0.593012 2.236068 0 2.236068 
z
" style="stroke:var(--black)"/>
    </defs>
    <g clip-path="url(#pd277b13191)">
     <use xlink:href="#mec8614c300" x="24.9125" y="88.85" style="stroke:var(--black)"/>
    </g>
   </g>
   <g id="PathCollection_2">
    <g clip-path="url(#pd277b13191)">
     <use xlink:href="#mec8614c300" x="110.1625" y="88.85" style="stroke:var(--black)"/>
    </g>
   </g>
   <g id="PathCollection_3">
    <g clip-path="url(#pd277b13191)">
     <use xlink:href="#mec8614c300" x="67.5375" y="24.9125" style="stroke:var(--black)"/>
    </g>
   </g>
   <g id="PathCollection_4">
    <defs>
     <path id="m849d6c73eb" d="M -2.236068 2.236068 
L 2.236068 2.236068 
L 2.236068 -2.236068 
L -2.236068 -2.236068 
z
" style="stroke: #ff0000"/>
    </defs>
    <g clip-path="url(#pd277b13191)">
     <use xlink:href="#m849d6c73eb" x="63.275" y="69.66875" style="fill: #ff0000; stroke: #ff0000"/>
    </g>
   </g>
  </g>
  <g id="axes_2">
   <g class="patch">
    <path d="M 182.625 131.475 
L 310.5 131.475 
L 310.5 3.6 
L 182.625 3.6 
L 182.625 131.475 
z
" style="fill: none"/>
   </g>
   <g class="axis"/>
   <g class="axis"/>
   <g class="patch">
    <path d="M 203.9375 88.85 
L 289.1875 88.85 
L 246.5625 24.9125 
z
" clip-path="url(#p3ceaa5d8d4)" style="fill:var(--c8); opacity: 0.3; stroke:var(--c8); stroke-width: 2; stroke-linejoin: miter"/>
   </g>
   <g id="line2d_4">
    <path d="M 203.9375 88.85 
L 289.1875 88.85 
" clip-path="url(#p3ceaa5d8d4)" style="fill: none; stroke:var(--c8); stroke-opacity: 0.8; stroke-width: 3; stroke-linecap: square"/>
   </g>
   <g id="line2d_5">
    <path d="M 289.1875 88.85 
L 246.5625 24.9125 
" clip-path="url(#p3ceaa5d8d4)" style="fill: none; stroke:var(--c8); stroke-opacity: 0.8; stroke-width: 3; stroke-linecap: square"/>
   </g>
   <g id="line2d_6">
    <path d="M 246.5625 24.9125 
L 203.9375 88.85 
" clip-path="url(#p3ceaa5d8d4)" style="fill: none; stroke:var(--c8); stroke-opacity: 0.8; stroke-width: 3; stroke-linecap: square"/>
   </g>
   <g id="text_5" class="text">
    <!-- $v_1$ -->
    <g transform="translate(192.14375 95.24375) scale(0.12 -0.12)">
     <use xlink:href="#Cmmi10-76" transform="translate(0 0.71875)"/>
     <use xlink:href="#Cmr10-31" transform="translate(48.388672 -16.2875) scale(0.7)"/>
    </g>
   </g>
   <g id="text_6" class="text">
    <!-- $v_2$ -->
    <g transform="translate(290.18125 95.24375) scale(0.12 -0.12)">
     <use xlink:href="#Cmmi10-76" transform="translate(0 0.71875)"/>
     <use xlink:href="#Cmr10-32" transform="translate(48.388672 -16.2875) scale(0.7)"/>
    </g>
   </g>
   <g id="text_7" class="text">
    <!-- $v_3$ -->
    <g transform="translate(241.1625 18.51875) scale(0.12 -0.12)">
     <use xlink:href="#Cmmi10-76" transform="translate(0 0.71875)"/>
     <use xlink:href="#Cmr10-33" transform="translate(48.388672 -16.2875) scale(0.7)"/>
    </g>
   </g>
   <g id="PathCollection_5">
    <g clip-path="url(#p3ceaa5d8d4)">
     <use xlink:href="#mec8614c300" x="203.9375" y="88.85" style="stroke:var(--black)"/>
    </g>
   </g>
   <g id="PathCollection_6">
    <g clip-path="url(#p3ceaa5d8d4)">
     <use xlink:href="#mec8614c300" x="289.1875" y="88.85" style="stroke:var(--black)"/>
    </g>
   </g>
   <g id="PathCollection_7">
    <g clip-path="url(#p3ceaa5d8d4)">
     <use xlink:href="#mec8614c300" x="246.5625" y="24.9125" style="stroke:var(--black)"/>
    </g>
   </g>
  </g>
 </g>
 <defs>
  <clipPath id="pd277b13191">
   <rect x="3.6" y="3.6" width="127.875" height="127.875"/>
  </clipPath>
  <clipPath id="p3ceaa5d8d4">
   <rect x="182.625" y="3.6" width="127.875" height="127.875"/>
  </clipPath>
 </defs>
</svg>
