<svg xmlns="http://www.w3.org/2000/svg" xmlns:xlink="http://www.w3.org/1999/xlink" width="857.729" height="432.265" style="--axis-color:#000;--grid-stroke:rgba(0,0,0,0.2);--plot3d-stroke:rgba(0,0,0,0.3);--plot3d-grid:rgba(0,0,0,0.2);--black:#000000;--c1:#FF0001;--c2:#00FF02;--c3:#0000FF;--c4:#FF00FF;--c5:#00FFFF;--c6:#FFFF00;--c7:#FF8000;--c8:#8000FF;--gray:#7f7f7f;--grey:#7f7f7f;--octonary:#bcbd22;--primary:#d62728;--quaternary:#9467bd;--quinary:#8c564b;--secondary:#2ca02c;--senary:#e377c2;--septenary:#7f7f7f;--tertiary:#1f77b4;--white:#ffffff" viewBox="0 0 857.729 432.265"><style><![CDATA[@media (prefers-color-scheme:dark){:root{--axis-color:#fff;--grid-stroke:rgba(255,255,255,0.2);--plot3d-stroke:rgba(255,255,255,0.3);--plot3d-grid:rgba(255,255,255,0.2);--black:#FFFFFF;--c1:#FF0001;--c2:#00FF02;--c3:#0000FF;--c4:#FF00FF;--c5:#00FFFF;--c6:#FFFF00;--c7:#FF8000;--c8:#8000FF;--gray:#CCCCCC;--grey:#CCCCCC;--octonary:#E6DB74;--primary:#FF4A98;--quaternary:#B4A0FF;--quinary:#FFB86B;--secondary:#0AFAFA;--senary:#FF79C6;--septenary:#CCCCCC;--tertiary:#7F83FF;--white:#000000}}]]></style><defs><path id="factor_graph_example_glyph-0-0" d="M8.266-2.469c0-.078-.063-.156-.172-.156-.156 0-.172.094-.219.234C7.406-.875 6.406-.17 5.625-.17c-.594 0-.922-.454-.922-1.157 0-.375.063-.656.344-1.781l.594-2.344c.265-1.031.843-1.797 1.64-1.797 0 0 .516 0 .875.219-.547.11-.75.515-.75.843 0 .422.328.563.563.563.515 0 .875-.453.875-.922 0-.719-.813-1.047-1.547-1.047-1.047 0-1.625 1.032-1.781 1.36-.407-1.297-1.47-1.36-1.782-1.36-1.75 0-2.687 2.25-2.687 2.64 0 .063.078.157.187.157.141 0 .172-.11.22-.172C2.03-6.89 3.187-7.25 3.687-7.25c.765 0 .921.719.921 1.14 0 .376-.093.766-.296 1.594l-.594 2.36c-.25 1.031-.75 1.984-1.672 1.984-.078 0-.516 0-.875-.219a.88.88 0 0 0 .75-.843c0-.344-.25-.563-.578-.563-.407 0-.86.375-.86.922 0 .719.813 1.047 1.547 1.047.828 0 1.406-.656 1.781-1.36C4.079-.171 4.938.173 5.579.173c1.75 0 2.688-2.25 2.688-2.64m0 0"/><path id="factor_graph_example_glyph-0-1" d="M9.406-11c0-.719-.734-1.125-1.484-1.125-.734 0-1.469.547-1.813 1.219-.312.61-.484 1.234-.875 3.484H4.078c-.328 0-.5 0-.5.313 0 .187.11.187.453.187h1.094L3.719.406c-.297 1.5-.547 2.766-1.406 2.766-.063 0-.563 0-.86-.328.875-.078.875-.844.875-.844 0-.344-.265-.547-.594-.547-.343 0-.859.281-.859.938 0 .75.766 1.125 1.438 1.125C4.063 3.516 4.78.359 4.969-.5l1.25-6.422h1.453c.36 0 .484 0 .484-.328 0-.172-.125-.172-.437-.172H6.312l.72-3.547c.093-.406.452-.812.906-.812.359 0 .718.156.89.312-.672.063-.875.563-.875.86 0 .343.266.547.594.547.344 0 .86-.282.86-.938m0 0"/><path id="factor_graph_example_glyph-1-0" d="M4.906 0v-.344h-.375c-1.047 0-1.093-.14-1.093-.578v-6.734c0-.282 0-.297-.235-.297-.281.328-.89.766-2.11.766v.343c.266 0 .86 0 1.532-.297v6.22c0 .437-.047.577-1.094.577h-.375V0c.328-.031 1.485-.031 1.875-.031.406 0 1.547 0 1.875.031m0 0"/><path id="factor_graph_example_glyph-1-1" d="M5.266-2.016H5c-.047.204-.14.875-.25 1.063-.094.11-.766.11-1.125.11H1.406c.328-.282 1.063-1.048 1.36-1.329 1.828-1.672 2.5-2.297 2.5-3.484 0-1.375-1.094-2.297-2.485-2.297-1.375 0-2.203 1.187-2.203 2.219 0 .609.531.609.563.609.265 0 .562-.187.562-.562 0-.344-.219-.563-.562-.563-.094 0-.125 0-.157.016.22-.813.875-1.375 1.641-1.375 1.016 0 1.64.859 1.64 1.953 0 1.015-.577 1.906-1.265 2.672L.578-.281V0h4.375Zm0 0"/><path id="factor_graph_example_glyph-1-2" d="M5.36-2.047C5.36-3.14 4.468-4 3.327-4.203 4.36-4.5 5.031-5.375 5.031-6.313s-.984-1.64-2.14-1.64c-1.188 0-2.078.734-2.078 1.61 0 .468.375.577.546.577.25 0 .547-.187.547-.546 0-.375-.297-.547-.562-.547-.063 0-.094 0-.125.015.453-.812 1.578-.812 1.64-.812.391 0 1.172.172 1.172 1.343 0 .235-.031.891-.39 1.407-.36.531-.766.562-1.078.578l-.36.031c-.203.016-.25.031-.25.14s.063.11.266.11h.547c1.03 0 1.484.844 1.484 1.984 0 1.579-.812 1.985-1.406 1.985-.578 0-1.547-.266-1.906-1.063.39.063.734-.156.734-.578a.57.57 0 0 0-.578-.593c-.297 0-.61.171-.61.624C.484-.624 1.547.25 2.875.25c1.422 0 2.484-1.094 2.484-2.297m0 0"/><path id="factor_graph_example_glyph-1-3" d="M5.516-2v-.344H4.313V-7.78c0-.235 0-.282-.172-.282-.094 0-.125 0-.22.141L.329-2.344V-2h3.14v1.094c0 .437-.03.562-.905.562h-.235V0c.281-.031 1.219-.031 1.563-.031.328 0 1.28 0 1.562.031v-.344H5.22c-.875 0-.907-.125-.907-.562V-2ZM3.53-2.344H.625l2.906-4.5Zm0 0"/><path id="factor_graph_example_glyph-1-4" d="M5.266-2.406c0-1.422-.97-2.61-2.22-2.61a2.08 2.08 0 0 0-1.515.641v-2.469a3.9 3.9 0 0 0 1.063.172c1.344 0 2.219-.984 2.219-1.156 0-.047-.032-.11-.11-.11 0 0-.047 0-.156.047A4 4 0 0 1 3-7.562c-.781 0-1.344-.25-1.578-.344-.078-.032-.125-.032-.125-.032-.094 0-.094.079-.094.266v3.547c0 .219 0 .281.14.281.063 0 .079 0 .204-.156.328-.484.89-.766 1.484-.766.64 0 .953.579 1.047.782.203.468.219 1.062.219 1.515s0 1.125-.344 1.672c-.265.422-.719.719-1.25.719A1.84 1.84 0 0 1 .922-1.484a.4.4 0 0 0 .187.03c.204 0 .532-.109.532-.515 0-.343-.235-.531-.532-.531-.218 0-.53.11-.53.578C.578-.906 1.405.25 2.718.25c1.36 0 2.547-1.14 2.547-2.656m0 0"/><path id="factor_graph_example_glyph-2-0" d="M8.438-.234c0-.11-.11-.11-.282-.11-.656 0-.672-.11-.703-.468L6.72-8.266c-.032-.25-.078-.265-.203-.265s-.188.015-.297.203l-4.188 7c-.422.703-.828.953-1.39.984C.5-.328.406-.328.406-.125c0 .078.063.125.14.125l.97-.031c.343 0 .734.031 1.062.031.078 0 .219 0 .219-.234 0-.094-.094-.11-.172-.11-.266-.031-.5-.125-.5-.406 0-.172.078-.297.234-.562l.907-1.516h3.047c.015.11.015.203.015.312.047.313.188 1.563.188 1.782 0 .359-.61.39-.797.39-.14 0-.266 0-.266.219 0 .125.11.125.172.125.203 0 .453-.031.656-.031h.672L8.22 0c.094 0 .219 0 .219-.234M6.28-3.172H3.47l2.406-4.015Zm0 0"/><path id="factor_graph_example_glyph-2-1" d="M7.906-6.562c0 .968-.968 2.203-2.547 2.203H3.641l.734-2.985c.11-.453.156-.468.625-.468h1.547c1.36 0 1.36 1.14 1.36 1.25m.313 3.968c0-.984-.86-1.578-1.828-1.672 1.312-.234 2.484-1.156 2.484-2.25 0-.937-.812-1.64-2.172-1.64H2.875c-.234 0-.344 0-.344.219 0 .125.11.125.297.125.719 0 .719.093.719.218 0 0 0 .094-.047.282L1.89-.891c-.109.422-.14.547-.968.547-.235 0-.344 0-.344.219C.578 0 .641 0 .891 0h4.093C6.813 0 8.22-1.39 8.22-2.594m-1-.125c0 1.156-1.032 2.375-2.516 2.375H3.078c-.156 0-.187 0-.25-.015-.14-.016-.156-.032-.156-.125 0-.094.031-.157.047-.266l.844-3.375h2.25c1.406 0 1.406 1.313 1.406 1.406m0 0"/><path id="factor_graph_example_glyph-2-2" d="M7.578-2.875c0-.094-.094-.094-.125-.094-.11 0-.125.063-.156.11C6.75-.984 5.14-.094 3.937-.094c-1.265 0-2.359-.812-2.359-2.515 0-.375.125-2.453 1.469-4.032.656-.765 1.781-1.421 2.922-1.421 1.312 0 1.89 1.078 1.89 2.296 0 .313-.03.579-.03.625 0 .11.124.11.155.11.125 0 .141-.016.188-.235l.75-3.046c0-.11-.094-.11-.094-.11s-.078 0-.172.125l-.828 1C7.406-8.016 6.75-8.422 5.86-8.422 3.281-8.422.594-5.797.594-2.984.594-.984 2 .25 3.734.25c.97 0 1.797-.406 2.5-.984 1.032-.875 1.344-2.032 1.344-2.141m0 0"/><path id="factor_graph_example_glyph-2-3" d="M9.438-5.156c0-1.735-1.032-3-2.75-3H2.859c-.234 0-.343 0-.343.219 0 .125.109.125.297.125.718 0 .718.093.718.218 0 0 0 .094-.047.282L1.875-.891c-.11.422-.125.547-.969.547-.219 0-.343 0-.343.219C.563 0 .64 0 .875 0h3.781c2.422 0 4.782-2.5 4.782-5.156m-.954-.407c0 .61-.234 2.688-1.39 4-.344.391-1.25 1.22-2.625 1.22h-1.36c-.171 0-.187 0-.265-.016-.125-.016-.14-.032-.14-.125 0-.094.015-.157.046-.266l1.656-6.594c.094-.453.14-.468.61-.468h1.312c1.125 0 2.156.609 2.156 2.25m0 0"/><path id="factor_graph_example_glyph-2-4" d="M8.36-2.937a.123.123 0 0 0-.126-.126.14.14 0 0 0-.109.047c-.016.016-.016.047-.125.282-.703 1.672-1.219 2.39-3.14 2.39H3.124c-.172 0-.203 0-.266-.015-.14-.016-.14-.032-.14-.125 0-.094.015-.157.047-.266l.812-3.297h1.188c.937 0 1 .203 1 .563 0 .109 0 .218-.079.578-.015.047-.03.094-.03.14 0 .079.062.11.124.11.11 0 .125-.078.172-.25l.688-2.766a.123.123 0 0 0-.125-.125c-.11 0-.125.047-.172.219-.235.922-.469 1.172-1.532 1.172h-1.14l.734-2.938c.11-.406.14-.453.625-.453h1.703c1.485 0 1.782.39 1.782 1.313 0 0 0 .343-.047.734-.016.047-.031.14-.031.14 0 .094.062.141.14.141s.125-.047.14-.265l.266-2.094c0-.031.016-.188.016-.188 0-.125-.11-.125-.328-.125H2.844c-.219 0-.344 0-.344.22 0 .124.078.124.281.124.75 0 .75.094.75.219 0 .062-.015.11-.047.234L1.86-.89c-.109.422-.125.547-.968.547-.22 0-.344 0-.344.219C.547 0 .625 0 .859 0h6c.266 0 .282-.016.36-.203l1.093-2.563c0-.046.047-.125.047-.171m0 0"/><clipPath id="factor_graph_example_clip-0"><path d="M632 344h108v88.266H632Zm0 0"/></clipPath><clipPath id="factor_graph_example_clip-1"><path d="M751 344h106.73v88.266H751Zm0 0"/></clipPath></defs><path fill="none" stroke="var(--black)" stroke-miterlimit="10" stroke-width="2.268" d="M55.61 34.348c0-11.743-9.52-21.258-21.262-21.258S13.09 22.605 13.09 34.348s9.515 21.261 21.258 21.261 21.261-9.52 21.261-21.261Zm0 0"/><use xlink:href="#factor_graph_example_glyph-0-0" x="26.384" y="36.764" fill="var(--black)"/><use xlink:href="#factor_graph_example_glyph-1-0" x="35.963" y="39.346" fill="var(--black)"/><path fill="none" stroke="var(--black)" stroke-miterlimit="10" stroke-width="2.268" d="M157.09 34.348c0-11.743-9.516-21.258-21.258-21.258s-21.262 9.515-21.262 21.258 9.52 21.261 21.262 21.261 21.258-9.52 21.258-21.261Zm0 0"/><use xlink:href="#factor_graph_example_glyph-0-0" x="127.864" y="36.764" fill="var(--black)"/><use xlink:href="#factor_graph_example_glyph-1-1" x="137.443" y="39.346" fill="var(--black)"/><path fill="none" stroke="var(--black)" stroke-miterlimit="10" stroke-width="2.268" d="M258.574 34.348c0-11.743-9.52-21.258-21.262-21.258s-21.261 9.515-21.261 21.258 9.52 21.261 21.262 21.261 21.261-9.52 21.261-21.261Zm0 0"/><use xlink:href="#factor_graph_example_glyph-0-0" x="229.344" y="36.764" fill="var(--black)"/><use xlink:href="#factor_graph_example_glyph-1-2" x="238.923" y="39.346" fill="var(--black)"/><path fill="none" stroke="var(--black)" stroke-miterlimit="10" stroke-width="2.268" d="M360.055 34.348c0-11.743-9.52-21.258-21.262-21.258s-21.258 9.515-21.258 21.258 9.516 21.261 21.258 21.261 21.262-9.52 21.262-21.261Zm0 0"/><use xlink:href="#factor_graph_example_glyph-0-0" x="330.825" y="36.764" fill="var(--black)"/><use xlink:href="#factor_graph_example_glyph-1-3" x="340.404" y="39.346" fill="var(--black)"/><path fill="none" stroke="var(--black)" stroke-miterlimit="10" stroke-width="2.268" d="M461.535 34.348c0-11.743-9.52-21.258-21.262-21.258-11.738 0-21.257 9.515-21.257 21.258s9.52 21.261 21.257 21.261c11.743 0 21.262-9.52 21.262-21.261Zm0 0"/><use xlink:href="#factor_graph_example_glyph-0-0" x="432.305" y="36.764" fill="var(--black)"/><use xlink:href="#factor_graph_example_glyph-1-4" x="441.884" y="39.346" fill="var(--black)"/><path fill="var(--black)" stroke="var(--black)" stroke-miterlimit="10" stroke-width="2.268" d="M20.176 142.918h28.347V114.57H20.176Zm0 0"/><use xlink:href="#factor_graph_example_glyph-0-1" x="25.558" y="133.047" fill="var(--black)"/><use xlink:href="#factor_graph_example_glyph-2-0" x="33.867" y="135.629" fill="var(--black)"/><use xlink:href="#factor_graph_example_glyph-0-1" x="25.558" y="159.724" fill="var(--black)"/><use xlink:href="#factor_graph_example_glyph-2-0" x="33.867" y="162.306" fill="var(--black)"/><path fill="var(--black)" stroke="var(--black)" stroke-miterlimit="10" stroke-width="2.268" d="M121.656 142.918h28.348V114.57h-28.348Zm0 0"/><use xlink:href="#factor_graph_example_glyph-0-1" x="126.678" y="133.047" fill="var(--black)"/><use xlink:href="#factor_graph_example_glyph-2-1" x="134.986" y="135.629" fill="var(--black)"/><use xlink:href="#factor_graph_example_glyph-0-1" x="126.678" y="159.724" fill="var(--black)"/><use xlink:href="#factor_graph_example_glyph-2-1" x="134.986" y="162.306" fill="var(--black)"/><path fill="var(--black)" stroke="var(--black)" stroke-miterlimit="10" stroke-width="2.268" d="M223.14 142.918h28.344V114.57h-28.343Zm0 0"/><use xlink:href="#factor_graph_example_glyph-0-1" x="228.289" y="133.047" fill="var(--black)"/><use xlink:href="#factor_graph_example_glyph-2-2" x="236.598" y="135.629" fill="var(--black)"/><use xlink:href="#factor_graph_example_glyph-0-1" x="228.289" y="159.724" fill="var(--black)"/><use xlink:href="#factor_graph_example_glyph-2-2" x="236.598" y="162.306" fill="var(--black)"/><path fill="var(--black)" stroke="var(--black)" stroke-miterlimit="10" stroke-width="2.268" d="M324.621 142.918h28.348V114.57H324.62Zm0 0"/><use xlink:href="#factor_graph_example_glyph-0-1" x="329.364" y="133.047" fill="var(--black)"/><use xlink:href="#factor_graph_example_glyph-2-3" x="337.673" y="135.629" fill="var(--black)"/><use xlink:href="#factor_graph_example_glyph-0-1" x="329.364" y="159.724" fill="var(--black)"/><use xlink:href="#factor_graph_example_glyph-2-3" x="337.673" y="162.306" fill="var(--black)"/><path fill="var(--black)" stroke="var(--black)" stroke-miterlimit="10" stroke-width="2.268" d="M426.102 142.918h28.347V114.57h-28.347Zm0 0"/><use xlink:href="#factor_graph_example_glyph-0-1" x="431.183" y="133.047" fill="var(--black)"/><use xlink:href="#factor_graph_example_glyph-2-4" x="439.492" y="135.629" fill="var(--black)"/><use xlink:href="#factor_graph_example_glyph-0-1" x="431.183" y="159.724" fill="var(--black)"/><use xlink:href="#factor_graph_example_glyph-2-4" x="439.492" y="162.306" fill="var(--black)"/><path fill="none" stroke="var(--black)" stroke-miterlimit="10" stroke-width="2.268" d="M34.348 56.742v56.696M54.652 43.793l167.352 77.848M135.832 56.742v56.696M152.227 49.602l69.777 64.914M237.313 56.742v56.696M253.707 49.602l69.781 64.914M257.617 43.793l167.352 77.848M338.793 56.742v56.696M440.273 56.742v56.696M648.059 34.348c0-11.743-9.52-21.258-21.262-21.258s-21.258 9.515-21.258 21.258 9.516 21.261 21.258 21.261 21.262-9.52 21.262-21.261Zm0 0"/><use xlink:href="#factor_graph_example_glyph-0-0" x="618.825" y="36.764" fill="var(--black)"/><use xlink:href="#factor_graph_example_glyph-1-0" x="628.404" y="39.346" fill="var(--black)"/><path fill="var(--black)" stroke="var(--black)" stroke-miterlimit="10" stroke-width="2.268" d="M553.137 136.36h28.343v-28.348h-28.343Zm0 0"/><use xlink:href="#factor_graph_example_glyph-0-1" x="558.51" y="126.488" fill="var(--black)"/><use xlink:href="#factor_graph_example_glyph-2-0" x="566.819" y="129.07" fill="var(--black)"/><use xlink:href="#factor_graph_example_glyph-0-1" x="558.51" y="153.165" fill="var(--black)"/><use xlink:href="#factor_graph_example_glyph-2-0" x="566.819" y="155.747" fill="var(--black)"/><path fill="var(--black)" stroke="var(--black)" stroke-miterlimit="10" stroke-width="2.268" d="M672.113 136.36h28.348v-28.348h-28.348Zm0 0"/><use xlink:href="#factor_graph_example_glyph-0-1" x="677.258" y="126.488" fill="var(--black)"/><use xlink:href="#factor_graph_example_glyph-2-2" x="685.566" y="129.07" fill="var(--black)"/><use xlink:href="#factor_graph_example_glyph-0-1" x="677.258" y="153.165" fill="var(--black)"/><use xlink:href="#factor_graph_example_glyph-2-2" x="685.566" y="155.747" fill="var(--black)"/><path fill="none" stroke="var(--black)" stroke-miterlimit="10" stroke-width="2.268" d="M648.059 210.02c0-11.743-9.52-21.258-21.262-21.258s-21.258 9.515-21.258 21.258 9.516 21.261 21.258 21.261 21.262-9.52 21.262-21.261Zm0 0"/><use xlink:href="#factor_graph_example_glyph-0-0" x="618.825" y="212.433" fill="var(--black)"/><use xlink:href="#factor_graph_example_glyph-1-1" x="628.404" y="215.016" fill="var(--black)"/><path fill="none" stroke="var(--black)" stroke-miterlimit="10" stroke-width="2.268" d="M767.035 210.02c0-11.743-9.52-21.258-21.258-21.258-11.742 0-21.261 9.515-21.261 21.258s9.52 21.261 21.261 21.261c11.739 0 21.258-9.52 21.258-21.261Zm0 0"/><use xlink:href="#factor_graph_example_glyph-0-0" x="737.801" y="212.433" fill="var(--black)"/><use xlink:href="#factor_graph_example_glyph-1-2" x="747.38" y="215.016" fill="var(--black)"/><path fill="var(--black)" stroke="var(--black)" stroke-miterlimit="10" stroke-width="2.268" d="M612.625 318.59h28.348v-28.348h-28.348Zm0 0"/><use xlink:href="#factor_graph_example_glyph-0-1" x="617.638" y="308.716" fill="var(--black)"/><use xlink:href="#factor_graph_example_glyph-2-1" x="625.947" y="311.298" fill="var(--black)"/><use xlink:href="#factor_graph_example_glyph-0-1" x="617.638" y="335.393" fill="var(--black)"/><use xlink:href="#factor_graph_example_glyph-2-1" x="625.947" y="337.976" fill="var(--black)"/><path fill="var(--black)" stroke="var(--black)" stroke-miterlimit="10" stroke-width="2.268" d="M672.113 317.7h28.348v-28.348h-28.348Zm0 0"/><use xlink:href="#factor_graph_example_glyph-0-1" x="676.852" y="307.826" fill="var(--black)"/><use xlink:href="#factor_graph_example_glyph-2-3" x="685.161" y="310.409" fill="var(--black)"/><use xlink:href="#factor_graph_example_glyph-0-1" x="705.304" y="307.826" fill="var(--black)"/><use xlink:href="#factor_graph_example_glyph-2-3" x="713.613" y="310.409" fill="var(--black)"/><path fill="var(--black)" stroke="var(--black)" stroke-miterlimit="10" stroke-width="2.268" d="M791.09 317.7h28.347v-28.348H791.09Zm0 0"/><use xlink:href="#factor_graph_example_glyph-0-1" x="796.168" y="307.826" fill="var(--black)"/><use xlink:href="#factor_graph_example_glyph-2-4" x="804.477" y="310.409" fill="var(--black)"/><use xlink:href="#factor_graph_example_glyph-0-1" x="824.28" y="307.826" fill="var(--black)"/><use xlink:href="#factor_graph_example_glyph-2-4" x="832.589" y="310.409" fill="var(--black)"/><g clip-path="url(#factor_graph_example_clip-0)"><path fill="none" stroke="var(--black)" stroke-miterlimit="10" stroke-width="2.268" d="M707.547 397.922c0-11.742-9.52-21.262-21.262-21.262s-21.258 9.52-21.258 21.262 9.516 21.258 21.258 21.258 21.262-9.516 21.262-21.258Zm0 0"/></g><use xlink:href="#factor_graph_example_glyph-0-0" x="678.313" y="400.331" fill="var(--black)"/><use xlink:href="#factor_graph_example_glyph-1-3" x="687.892" y="402.913" fill="var(--black)"/><g clip-path="url(#factor_graph_example_clip-1)"><path fill="none" stroke="var(--black)" stroke-miterlimit="10" stroke-width="2.268" d="M826.523 397.922c0-11.742-9.515-21.262-21.257-21.262s-21.262 9.52-21.262 21.262 9.52 21.258 21.262 21.258 21.257-9.516 21.257-21.258Zm0 0"/></g><use xlink:href="#factor_graph_example_glyph-0-0" x="797.289" y="400.331" fill="var(--black)"/><use xlink:href="#factor_graph_example_glyph-1-4" x="806.868" y="402.913" fill="var(--black)"/><path fill="none" stroke="var(--black)" stroke-miterlimit="10" stroke-width="2.268" d="m614.238 52.89-36.566 53.989M639.355 52.89l36.57 53.989M626.797 232.414v56.695M639.355 191.48l36.57-53.988M733.219 191.48l-36.57-53.988M733.754 228.914 696.02 288.22M757.797 228.914l37.734 59.305M686.285 375.527v-56.695M805.266 375.527v-56.695"/></svg>