<?xml version="1.0" encoding="UTF-8"?>
<svg xmlns="http://www.w3.org/2000/svg" xmlns:xlink="http://www.w3.org/1999/xlink" width="857.729" height="432.265" viewBox="0 0 857.729 432.265">
<style>/* === RDF autogenerated palette === */
:root {
    --axis-color: #000;
    --grid-stroke: rgba(0,0,0,0.2);
    --plot3d-stroke: rgba(0,0,0,0.3);
    --plot3d-grid: rgba(0,0,0,0.2);
}
@media (prefers-color-scheme: dark) {
    :root {
        --axis-color: #fff;
        --grid-stroke: rgba(255,255,255,0.2);
        --plot3d-stroke: rgba(255,255,255,0.3);
        --plot3d-grid: rgba(255,255,255,0.2);
    }
}

/* Light‑mode palette */
.black { fill:#000000; stroke:#000000; }:root { --black: #000000; }.c1 { fill:#FF0001; stroke:#FF0001; }:root { --c1: #FF0001; }.c2 { fill:#00FF02; stroke:#00FF02; }:root { --c2: #00FF02; }.c3 { fill:#0000FF; stroke:#0000FF; }:root { --c3: #0000FF; }.c4 { fill:#FF00FF; stroke:#FF00FF; }:root { --c4: #FF00FF; }.c5 { fill:#00FFFF; stroke:#00FFFF; }:root { --c5: #00FFFF; }.c6 { fill:#FFFF00; stroke:#FFFF00; }:root { --c6: #FFFF00; }.c7 { fill:#FF8000; stroke:#FF8000; }:root { --c7: #FF8000; }.c8 { fill:#8000FF; stroke:#8000FF; }:root { --c8: #8000FF; }.gray { fill:#7f7f7f; stroke:#7f7f7f; }:root { --gray: #7f7f7f; }.grey { fill:#7f7f7f; stroke:#7f7f7f; }:root { --grey: #7f7f7f; }.octonary { fill:#bcbd22; stroke:#bcbd22; }:root { --octonary: #bcbd22; }.primary { fill:#d62728; stroke:#d62728; }:root { --primary: #d62728; }.quaternary { fill:#9467bd; stroke:#9467bd; }:root { --quaternary: #9467bd; }.quinary { fill:#8c564b; stroke:#8c564b; }:root { --quinary: #8c564b; }.secondary { fill:#2ca02c; stroke:#2ca02c; }:root { --secondary: #2ca02c; }.senary { fill:#e377c2; stroke:#e377c2; }:root { --senary: #e377c2; }.septenary { fill:#7f7f7f; stroke:#7f7f7f; }:root { --septenary: #7f7f7f; }.tertiary { fill:#1f77b4; stroke:#1f77b4; }:root { --tertiary: #1f77b4; }.white { fill:#ffffff; stroke:#ffffff; }:root { --white: #ffffff; }

/* Dark overrides */
@media (prefers-color-scheme: dark) {
    .black { fill:#FFFFFF; stroke:#FFFFFF; }:root { --black: #FFFFFF; }.c1 { fill:#FF0001; stroke:#FF0001; }:root { --c1: #FF0001; }.c2 { fill:#00FF02; stroke:#00FF02; }:root { --c2: #00FF02; }.c3 { fill:#0000FF; stroke:#0000FF; }:root { --c3: #0000FF; }.c4 { fill:#FF00FF; stroke:#FF00FF; }:root { --c4: #FF00FF; }.c5 { fill:#00FFFF; stroke:#00FFFF; }:root { --c5: #00FFFF; }.c6 { fill:#FFFF00; stroke:#FFFF00; }:root { --c6: #FFFF00; }.c7 { fill:#FF8000; stroke:#FF8000; }:root { --c7: #FF8000; }.c8 { fill:#8000FF; stroke:#8000FF; }:root { --c8: #8000FF; }.gray { fill:#CCCCCC; stroke:#CCCCCC; }:root { --gray: #CCCCCC; }.grey { fill:#CCCCCC; stroke:#CCCCCC; }:root { --grey: #CCCCCC; }.octonary { fill:#E6DB74; stroke:#E6DB74; }:root { --octonary: #E6DB74; }.primary { fill:#FF4A98; stroke:#FF4A98; }:root { --primary: #FF4A98; }.quaternary { fill:#B4A0FF; stroke:#B4A0FF; }:root { --quaternary: #B4A0FF; }.quinary { fill:#FFB86B; stroke:#FFB86B; }:root { --quinary: #FFB86B; }.secondary { fill:#0AFAFA; stroke:#0AFAFA; }:root { --secondary: #0AFAFA; }.senary { fill:#FF79C6; stroke:#FF79C6; }:root { --senary: #FF79C6; }.septenary { fill:#CCCCCC; stroke:#CCCCCC; }:root { --septenary: #CCCCCC; }.tertiary { fill:#7F83FF; stroke:#7F83FF; }:root { --tertiary: #7F83FF; }.white { fill:#000000; stroke:#000000; }:root { --white: #000000; }
}/* Axis, ticks, legend */
text, .text { fill: var(--axis-color) !important; stroke: none !important; }
.axis line, .axis path,
.tick line, .tick path,
path.domain,
line.grid { stroke: var(--axis-color) !important; }
.legend text { fill: var(--axis-color) !important; }

/* Patch paths that relied on currentColor */
.patch path[style*="stroke: currentColor"] { stroke: var(--axis-color) !important; }

/* Legend background (first child of legend group) */
g.legend > g:first-child > path:first-child {
    fill: rgba(255,255,255,0.8) !important;
    stroke: rgba(0,0,0,0.1) !important;
}
@media (prefers-color-scheme: dark) {
    g.legend > g:first-child > path:first-child {
        fill: rgba(26,26,26,0.8) !important;
        stroke: rgba(255,255,255,0.1) !important;
    }
}

/* 3‑D specific rules */
.plot3d path, .plot3d polygon {
    stroke: var(--plot3d-stroke) !important;
}
.plot3d-grid line { stroke: var(--plot3d-grid) !important; }
.plot3d-surface path[style*="fill:"] {
    fill-opacity: 0.9 !important;
}
@media (prefers-color-scheme: dark) {
    .plot3d-surface path[style*="fill:"] {
        fill-opacity: 0.95 !important;
        filter: saturate(1.2) !important;
    }
}</style>

<defs>
<g class="glyph">
<g id="factor_graph_example_glyph-0-0">
<path d="M 8.265625 -2.46875 C 8.265625 -2.546875 8.203125 -2.625 8.09375 -2.625 C 7.9375 -2.625 7.921875 -2.53125 7.875 -2.390625 C 7.40625 -0.875 6.40625 -0.171875 5.625 -0.171875 C 5.03125 -0.171875 4.703125 -0.625 4.703125 -1.328125 C 4.703125 -1.703125 4.765625 -1.984375 5.046875 -3.109375 L 5.640625 -5.453125 C 5.90625 -6.484375 6.484375 -7.25 7.28125 -7.25 C 7.28125 -7.25 7.796875 -7.25 8.15625 -7.03125 C 7.609375 -6.921875 7.40625 -6.515625 7.40625 -6.1875 C 7.40625 -5.765625 7.734375 -5.625 7.96875 -5.625 C 8.484375 -5.625 8.84375 -6.078125 8.84375 -6.546875 C 8.84375 -7.265625 8.03125 -7.59375 7.296875 -7.59375 C 6.25 -7.59375 5.671875 -6.5625 5.515625 -6.234375 C 5.109375 -7.53125 4.046875 -7.59375 3.734375 -7.59375 C 1.984375 -7.59375 1.046875 -5.34375 1.046875 -4.953125 C 1.046875 -4.890625 1.125 -4.796875 1.234375 -4.796875 C 1.375 -4.796875 1.40625 -4.90625 1.453125 -4.96875 C 2.03125 -6.890625 3.1875 -7.25 3.6875 -7.25 C 4.453125 -7.25 4.609375 -6.53125 4.609375 -6.109375 C 4.609375 -5.734375 4.515625 -5.34375 4.3125 -4.515625 L 3.71875 -2.15625 C 3.46875 -1.125 2.96875 -0.171875 2.046875 -0.171875 C 1.96875 -0.171875 1.53125 -0.171875 1.171875 -0.390625 C 1.796875 -0.515625 1.921875 -1.03125 1.921875 -1.234375 C 1.921875 -1.578125 1.671875 -1.796875 1.34375 -1.796875 C 0.9375 -1.796875 0.484375 -1.421875 0.484375 -0.875 C 0.484375 -0.15625 1.296875 0.171875 2.03125 0.171875 C 2.859375 0.171875 3.4375 -0.484375 3.8125 -1.1875 C 4.078125 -0.171875 4.9375 0.171875 5.578125 0.171875 C 7.328125 0.171875 8.265625 -2.078125 8.265625 -2.46875 Z M 8.265625 -2.46875 "/>
</g>
<g id="factor_graph_example_glyph-0-1">
<path d="M 9.40625 -11 C 9.40625 -11.71875 8.671875 -12.125 7.921875 -12.125 C 7.1875 -12.125 6.453125 -11.578125 6.109375 -10.90625 C 5.796875 -10.296875 5.625 -9.671875 5.234375 -7.421875 L 4.078125 -7.421875 C 3.75 -7.421875 3.578125 -7.421875 3.578125 -7.109375 C 3.578125 -6.921875 3.6875 -6.921875 4.03125 -6.921875 L 5.125 -6.921875 L 3.71875 0.40625 C 3.421875 1.90625 3.171875 3.171875 2.3125 3.171875 C 2.25 3.171875 1.75 3.171875 1.453125 2.84375 C 2.328125 2.765625 2.328125 2 2.328125 2 C 2.328125 1.65625 2.0625 1.453125 1.734375 1.453125 C 1.390625 1.453125 0.875 1.734375 0.875 2.390625 C 0.875 3.140625 1.640625 3.515625 2.3125 3.515625 C 4.0625 3.515625 4.78125 0.359375 4.96875 -0.5 L 6.21875 -6.921875 L 7.671875 -6.921875 C 8.03125 -6.921875 8.15625 -6.921875 8.15625 -7.25 C 8.15625 -7.421875 8.03125 -7.421875 7.71875 -7.421875 L 6.3125 -7.421875 L 7.03125 -10.96875 C 7.125 -11.375 7.484375 -11.78125 7.9375 -11.78125 C 8.296875 -11.78125 8.65625 -11.625 8.828125 -11.46875 C 8.15625 -11.40625 7.953125 -10.90625 7.953125 -10.609375 C 7.953125 -10.265625 8.21875 -10.0625 8.546875 -10.0625 C 8.890625 -10.0625 9.40625 -10.34375 9.40625 -11 Z M 9.40625 -11 "/>
</g>
<g id="factor_graph_example_glyph-1-0">
<path d="M 4.90625 0 L 4.90625 -0.34375 L 4.53125 -0.34375 C 3.484375 -0.34375 3.4375 -0.484375 3.4375 -0.921875 L 3.4375 -7.65625 C 3.4375 -7.9375 3.4375 -7.953125 3.203125 -7.953125 C 2.921875 -7.625 2.3125 -7.1875 1.09375 -7.1875 L 1.09375 -6.84375 C 1.359375 -6.84375 1.953125 -6.84375 2.625 -7.140625 L 2.625 -0.921875 C 2.625 -0.484375 2.578125 -0.34375 1.53125 -0.34375 L 1.15625 -0.34375 L 1.15625 0 C 1.484375 -0.03125 2.640625 -0.03125 3.03125 -0.03125 C 3.4375 -0.03125 4.578125 -0.03125 4.90625 0 Z M 4.90625 0 "/>
</g>
<g id="factor_graph_example_glyph-1-1">
<path d="M 5.265625 -2.015625 L 5 -2.015625 C 4.953125 -1.8125 4.859375 -1.140625 4.75 -0.953125 C 4.65625 -0.84375 3.984375 -0.84375 3.625 -0.84375 L 1.40625 -0.84375 C 1.734375 -1.125 2.46875 -1.890625 2.765625 -2.171875 C 4.59375 -3.84375 5.265625 -4.46875 5.265625 -5.65625 C 5.265625 -7.03125 4.171875 -7.953125 2.78125 -7.953125 C 1.40625 -7.953125 0.578125 -6.765625 0.578125 -5.734375 C 0.578125 -5.125 1.109375 -5.125 1.140625 -5.125 C 1.40625 -5.125 1.703125 -5.3125 1.703125 -5.6875 C 1.703125 -6.03125 1.484375 -6.25 1.140625 -6.25 C 1.046875 -6.25 1.015625 -6.25 0.984375 -6.234375 C 1.203125 -7.046875 1.859375 -7.609375 2.625 -7.609375 C 3.640625 -7.609375 4.265625 -6.75 4.265625 -5.65625 C 4.265625 -4.640625 3.6875 -3.75 3 -2.984375 L 0.578125 -0.28125 L 0.578125 0 L 4.953125 0 Z M 5.265625 -2.015625 "/>
</g>
<g id="factor_graph_example_glyph-1-2">
<path d="M 5.359375 -2.046875 C 5.359375 -3.140625 4.46875 -4 3.328125 -4.203125 C 4.359375 -4.5 5.03125 -5.375 5.03125 -6.3125 C 5.03125 -7.25 4.046875 -7.953125 2.890625 -7.953125 C 1.703125 -7.953125 0.8125 -7.21875 0.8125 -6.34375 C 0.8125 -5.875 1.1875 -5.765625 1.359375 -5.765625 C 1.609375 -5.765625 1.90625 -5.953125 1.90625 -6.3125 C 1.90625 -6.6875 1.609375 -6.859375 1.34375 -6.859375 C 1.28125 -6.859375 1.25 -6.859375 1.21875 -6.84375 C 1.671875 -7.65625 2.796875 -7.65625 2.859375 -7.65625 C 3.25 -7.65625 4.03125 -7.484375 4.03125 -6.3125 C 4.03125 -6.078125 4 -5.421875 3.640625 -4.90625 C 3.28125 -4.375 2.875 -4.34375 2.5625 -4.328125 L 2.203125 -4.296875 C 2 -4.28125 1.953125 -4.265625 1.953125 -4.15625 C 1.953125 -4.046875 2.015625 -4.046875 2.21875 -4.046875 L 2.765625 -4.046875 C 3.796875 -4.046875 4.25 -3.203125 4.25 -2.0625 C 4.25 -0.484375 3.4375 -0.078125 2.84375 -0.078125 C 2.265625 -0.078125 1.296875 -0.34375 0.9375 -1.140625 C 1.328125 -1.078125 1.671875 -1.296875 1.671875 -1.71875 C 1.671875 -2.0625 1.421875 -2.3125 1.09375 -2.3125 C 0.796875 -2.3125 0.484375 -2.140625 0.484375 -1.6875 C 0.484375 -0.625 1.546875 0.25 2.875 0.25 C 4.296875 0.25 5.359375 -0.84375 5.359375 -2.046875 Z M 5.359375 -2.046875 "/>
</g>
<g id="factor_graph_example_glyph-1-3">
<path d="M 5.515625 -2 L 5.515625 -2.34375 L 4.3125 -2.34375 L 4.3125 -7.78125 C 4.3125 -8.015625 4.3125 -8.0625 4.140625 -8.0625 C 4.046875 -8.0625 4.015625 -8.0625 3.921875 -7.921875 L 0.328125 -2.34375 L 0.328125 -2 L 3.46875 -2 L 3.46875 -0.90625 C 3.46875 -0.46875 3.4375 -0.34375 2.5625 -0.34375 L 2.328125 -0.34375 L 2.328125 0 C 2.609375 -0.03125 3.546875 -0.03125 3.890625 -0.03125 C 4.21875 -0.03125 5.171875 -0.03125 5.453125 0 L 5.453125 -0.34375 L 5.21875 -0.34375 C 4.34375 -0.34375 4.3125 -0.46875 4.3125 -0.90625 L 4.3125 -2 Z M 3.53125 -2.34375 L 0.625 -2.34375 L 3.53125 -6.84375 Z M 3.53125 -2.34375 "/>
</g>
<g id="factor_graph_example_glyph-1-4">
<path d="M 5.265625 -2.40625 C 5.265625 -3.828125 4.296875 -5.015625 3.046875 -5.015625 C 2.359375 -5.015625 1.84375 -4.703125 1.53125 -4.375 L 1.53125 -6.84375 C 2.046875 -6.6875 2.46875 -6.671875 2.59375 -6.671875 C 3.9375 -6.671875 4.8125 -7.65625 4.8125 -7.828125 C 4.8125 -7.875 4.78125 -7.9375 4.703125 -7.9375 C 4.703125 -7.9375 4.65625 -7.9375 4.546875 -7.890625 C 3.890625 -7.609375 3.3125 -7.5625 3 -7.5625 C 2.21875 -7.5625 1.65625 -7.8125 1.421875 -7.90625 C 1.34375 -7.9375 1.296875 -7.9375 1.296875 -7.9375 C 1.203125 -7.9375 1.203125 -7.859375 1.203125 -7.671875 L 1.203125 -4.125 C 1.203125 -3.90625 1.203125 -3.84375 1.34375 -3.84375 C 1.40625 -3.84375 1.421875 -3.84375 1.546875 -4 C 1.875 -4.484375 2.4375 -4.765625 3.03125 -4.765625 C 3.671875 -4.765625 3.984375 -4.1875 4.078125 -3.984375 C 4.28125 -3.515625 4.296875 -2.921875 4.296875 -2.46875 C 4.296875 -2.015625 4.296875 -1.34375 3.953125 -0.796875 C 3.6875 -0.375 3.234375 -0.078125 2.703125 -0.078125 C 1.90625 -0.078125 1.140625 -0.609375 0.921875 -1.484375 C 0.984375 -1.453125 1.046875 -1.453125 1.109375 -1.453125 C 1.3125 -1.453125 1.640625 -1.5625 1.640625 -1.96875 C 1.640625 -2.3125 1.40625 -2.5 1.109375 -2.5 C 0.890625 -2.5 0.578125 -2.390625 0.578125 -1.921875 C 0.578125 -0.90625 1.40625 0.25 2.71875 0.25 C 4.078125 0.25 5.265625 -0.890625 5.265625 -2.40625 Z M 5.265625 -2.40625 "/>
</g>
<g id="factor_graph_example_glyph-2-0">
<path d="M 8.4375 -0.234375 C 8.4375 -0.34375 8.328125 -0.34375 8.15625 -0.34375 C 7.5 -0.34375 7.484375 -0.453125 7.453125 -0.8125 L 6.71875 -8.265625 C 6.6875 -8.515625 6.640625 -8.53125 6.515625 -8.53125 C 6.390625 -8.53125 6.328125 -8.515625 6.21875 -8.328125 L 2.03125 -1.328125 C 1.609375 -0.625 1.203125 -0.375 0.640625 -0.34375 C 0.5 -0.328125 0.40625 -0.328125 0.40625 -0.125 C 0.40625 -0.046875 0.46875 0 0.546875 0 L 1.515625 -0.03125 C 1.859375 -0.03125 2.25 0 2.578125 0 C 2.65625 0 2.796875 0 2.796875 -0.234375 C 2.796875 -0.328125 2.703125 -0.34375 2.625 -0.34375 C 2.359375 -0.375 2.125 -0.46875 2.125 -0.75 C 2.125 -0.921875 2.203125 -1.046875 2.359375 -1.3125 L 3.265625 -2.828125 L 6.3125 -2.828125 C 6.328125 -2.71875 6.328125 -2.625 6.328125 -2.515625 C 6.375 -2.203125 6.515625 -0.953125 6.515625 -0.734375 C 6.515625 -0.375 5.90625 -0.34375 5.71875 -0.34375 C 5.578125 -0.34375 5.453125 -0.34375 5.453125 -0.125 C 5.453125 0 5.5625 0 5.625 0 C 5.828125 0 6.078125 -0.03125 6.28125 -0.03125 L 6.953125 -0.03125 L 8.21875 0 C 8.3125 0 8.4375 0 8.4375 -0.234375 Z M 6.28125 -3.171875 L 3.46875 -3.171875 L 5.875 -7.1875 Z M 6.28125 -3.171875 "/>
</g>
<g id="factor_graph_example_glyph-2-1">
<path d="M 7.90625 -6.5625 C 7.90625 -5.59375 6.9375 -4.359375 5.359375 -4.359375 L 3.640625 -4.359375 L 4.375 -7.34375 C 4.484375 -7.796875 4.53125 -7.8125 5 -7.8125 L 6.546875 -7.8125 C 7.90625 -7.8125 7.90625 -6.671875 7.90625 -6.5625 Z M 8.21875 -2.59375 C 8.21875 -3.578125 7.359375 -4.171875 6.390625 -4.265625 C 7.703125 -4.5 8.875 -5.421875 8.875 -6.515625 C 8.875 -7.453125 8.0625 -8.15625 6.703125 -8.15625 L 2.875 -8.15625 C 2.640625 -8.15625 2.53125 -8.15625 2.53125 -7.9375 C 2.53125 -7.8125 2.640625 -7.8125 2.828125 -7.8125 C 3.546875 -7.8125 3.546875 -7.71875 3.546875 -7.59375 C 3.546875 -7.59375 3.546875 -7.5 3.5 -7.3125 L 1.890625 -0.890625 C 1.78125 -0.46875 1.75 -0.34375 0.921875 -0.34375 C 0.6875 -0.34375 0.578125 -0.34375 0.578125 -0.125 C 0.578125 0 0.640625 0 0.890625 0 L 4.984375 0 C 6.8125 0 8.21875 -1.390625 8.21875 -2.59375 Z M 7.21875 -2.71875 C 7.21875 -1.5625 6.1875 -0.34375 4.703125 -0.34375 L 3.078125 -0.34375 C 2.921875 -0.34375 2.890625 -0.34375 2.828125 -0.359375 C 2.6875 -0.375 2.671875 -0.390625 2.671875 -0.484375 C 2.671875 -0.578125 2.703125 -0.640625 2.71875 -0.75 L 3.5625 -4.125 L 5.8125 -4.125 C 7.21875 -4.125 7.21875 -2.8125 7.21875 -2.71875 Z M 7.21875 -2.71875 "/>
</g>
<g id="factor_graph_example_glyph-2-2">
<path d="M 7.578125 -2.875 C 7.578125 -2.96875 7.484375 -2.96875 7.453125 -2.96875 C 7.34375 -2.96875 7.328125 -2.90625 7.296875 -2.859375 C 6.75 -0.984375 5.140625 -0.09375 3.9375 -0.09375 C 2.671875 -0.09375 1.578125 -0.90625 1.578125 -2.609375 C 1.578125 -2.984375 1.703125 -5.0625 3.046875 -6.640625 C 3.703125 -7.40625 4.828125 -8.0625 5.96875 -8.0625 C 7.28125 -8.0625 7.859375 -6.984375 7.859375 -5.765625 C 7.859375 -5.453125 7.828125 -5.1875 7.828125 -5.140625 C 7.828125 -5.03125 7.953125 -5.03125 7.984375 -5.03125 C 8.109375 -5.03125 8.125 -5.046875 8.171875 -5.265625 L 8.921875 -8.3125 C 8.921875 -8.421875 8.828125 -8.421875 8.828125 -8.421875 C 8.828125 -8.421875 8.75 -8.421875 8.65625 -8.296875 L 7.828125 -7.296875 C 7.40625 -8.015625 6.75 -8.421875 5.859375 -8.421875 C 3.28125 -8.421875 0.59375 -5.796875 0.59375 -2.984375 C 0.59375 -0.984375 2 0.25 3.734375 0.25 C 4.703125 0.25 5.53125 -0.15625 6.234375 -0.734375 C 7.265625 -1.609375 7.578125 -2.765625 7.578125 -2.875 Z M 7.578125 -2.875 "/>
</g>
<g id="factor_graph_example_glyph-2-3">
<path d="M 9.4375 -5.15625 C 9.4375 -6.890625 8.40625 -8.15625 6.6875 -8.15625 L 2.859375 -8.15625 C 2.625 -8.15625 2.515625 -8.15625 2.515625 -7.9375 C 2.515625 -7.8125 2.625 -7.8125 2.8125 -7.8125 C 3.53125 -7.8125 3.53125 -7.71875 3.53125 -7.59375 C 3.53125 -7.59375 3.53125 -7.5 3.484375 -7.3125 L 1.875 -0.890625 C 1.765625 -0.46875 1.75 -0.34375 0.90625 -0.34375 C 0.6875 -0.34375 0.5625 -0.34375 0.5625 -0.125 C 0.5625 0 0.640625 0 0.875 0 L 4.65625 0 C 7.078125 0 9.4375 -2.5 9.4375 -5.15625 Z M 8.484375 -5.5625 C 8.484375 -4.953125 8.25 -2.875 7.09375 -1.5625 C 6.75 -1.171875 5.84375 -0.34375 4.46875 -0.34375 L 3.109375 -0.34375 C 2.9375 -0.34375 2.921875 -0.34375 2.84375 -0.359375 C 2.71875 -0.375 2.703125 -0.390625 2.703125 -0.484375 C 2.703125 -0.578125 2.71875 -0.640625 2.75 -0.75 L 4.40625 -7.34375 C 4.5 -7.796875 4.546875 -7.8125 5.015625 -7.8125 L 6.328125 -7.8125 C 7.453125 -7.8125 8.484375 -7.203125 8.484375 -5.5625 Z M 8.484375 -5.5625 "/>
</g>
<g id="factor_graph_example_glyph-2-4">
<path d="M 8.359375 -2.9375 C 8.359375 -3 8.3125 -3.0625 8.234375 -3.0625 C 8.1875 -3.0625 8.15625 -3.046875 8.125 -3.015625 C 8.109375 -3 8.109375 -2.96875 8 -2.734375 C 7.296875 -1.0625 6.78125 -0.34375 4.859375 -0.34375 L 3.125 -0.34375 C 2.953125 -0.34375 2.921875 -0.34375 2.859375 -0.359375 C 2.71875 -0.375 2.71875 -0.390625 2.71875 -0.484375 C 2.71875 -0.578125 2.734375 -0.640625 2.765625 -0.75 L 3.578125 -4.046875 L 4.765625 -4.046875 C 5.703125 -4.046875 5.765625 -3.84375 5.765625 -3.484375 C 5.765625 -3.375 5.765625 -3.265625 5.6875 -2.90625 C 5.671875 -2.859375 5.65625 -2.8125 5.65625 -2.765625 C 5.65625 -2.6875 5.71875 -2.65625 5.78125 -2.65625 C 5.890625 -2.65625 5.90625 -2.734375 5.953125 -2.90625 L 6.640625 -5.671875 C 6.640625 -5.734375 6.59375 -5.796875 6.515625 -5.796875 C 6.40625 -5.796875 6.390625 -5.75 6.34375 -5.578125 C 6.109375 -4.65625 5.875 -4.40625 4.8125 -4.40625 L 3.671875 -4.40625 L 4.40625 -7.34375 C 4.515625 -7.75 4.546875 -7.796875 5.03125 -7.796875 L 6.734375 -7.796875 C 8.21875 -7.796875 8.515625 -7.40625 8.515625 -6.484375 C 8.515625 -6.484375 8.515625 -6.140625 8.46875 -5.75 C 8.453125 -5.703125 8.4375 -5.609375 8.4375 -5.609375 C 8.4375 -5.515625 8.5 -5.46875 8.578125 -5.46875 C 8.65625 -5.46875 8.703125 -5.515625 8.71875 -5.734375 L 8.984375 -7.828125 C 8.984375 -7.859375 9 -8.015625 9 -8.015625 C 9 -8.140625 8.890625 -8.140625 8.671875 -8.140625 L 2.84375 -8.140625 C 2.625 -8.140625 2.5 -8.140625 2.5 -7.921875 C 2.5 -7.796875 2.578125 -7.796875 2.78125 -7.796875 C 3.53125 -7.796875 3.53125 -7.703125 3.53125 -7.578125 C 3.53125 -7.515625 3.515625 -7.46875 3.484375 -7.34375 L 1.859375 -0.890625 C 1.75 -0.46875 1.734375 -0.34375 0.890625 -0.34375 C 0.671875 -0.34375 0.546875 -0.34375 0.546875 -0.125 C 0.546875 0 0.625 0 0.859375 0 L 6.859375 0 C 7.125 0 7.140625 -0.015625 7.21875 -0.203125 L 8.3125 -2.765625 C 8.3125 -2.8125 8.359375 -2.890625 8.359375 -2.9375 Z M 8.359375 -2.9375 "/>
</g>
</g>
<clipPath id="factor_graph_example_clip-0">
<path clip-rule="nonzero" d="M 632 344 L 740 344 L 740 432.265625 L 632 432.265625 Z M 632 344 "/>
</clipPath>
<clipPath id="factor_graph_example_clip-1">
<path clip-rule="nonzero" d="M 751 344 L 857.730469 344 L 857.730469 432.265625 L 751 432.265625 Z M 751 344 "/>
</clipPath>
</defs>
<path fill="none" stroke-width="2.26773" stroke-linecap="butt" stroke-linejoin="miter" stroke="var(--black)" stroke-opacity="1" stroke-miterlimit="10" d="M 21.260375 0.00134375 C 21.260375 11.743531 11.740844 21.259156 -0.00134375 21.259156 C -11.743531 21.259156 -21.259156 11.743531 -21.259156 0.00134375 C -21.259156 -11.740844 -11.743531 -21.260375 -0.00134375 -21.260375 C 11.740844 -21.260375 21.260375 -11.740844 21.260375 0.00134375 Z M 21.260375 0.00134375 " transform="matrix(1, 0, 0, -1, 34.349, 34.349)"/>
<g fill="var(--black)" fill-opacity="1">
<use xlink:href="#factor_graph_example_glyph-0-0" x="26.384" y="36.764"/>
</g>
<g fill="var(--black)" fill-opacity="1">
<use xlink:href="#factor_graph_example_glyph-1-0" x="35.963" y="39.346"/>
</g>
<path fill="none" stroke-width="2.26773" stroke-linecap="butt" stroke-linejoin="miter" stroke="var(--black)" stroke-opacity="1" stroke-miterlimit="10" d="M 122.740844 0.00134375 C 122.740844 11.743531 113.225219 21.259156 101.483031 21.259156 C 89.740844 21.259156 80.221313 11.743531 80.221313 0.00134375 C 80.221313 -11.740844 89.740844 -21.260375 101.483031 -21.260375 C 113.225219 -21.260375 122.740844 -11.740844 122.740844 0.00134375 Z M 122.740844 0.00134375 " transform="matrix(1, 0, 0, -1, 34.349, 34.349)"/>
<g fill="var(--black)" fill-opacity="1">
<use xlink:href="#factor_graph_example_glyph-0-0" x="127.864" y="36.764"/>
</g>
<g fill="var(--black)" fill-opacity="1">
<use xlink:href="#factor_graph_example_glyph-1-1" x="137.443" y="39.346"/>
</g>
<path fill="none" stroke-width="2.26773" stroke-linecap="butt" stroke-linejoin="miter" stroke="var(--black)" stroke-opacity="1" stroke-miterlimit="10" d="M 224.225219 0.00134375 C 224.225219 11.743531 214.705688 21.259156 202.9635 21.259156 C 191.221313 21.259156 181.701781 11.743531 181.701781 0.00134375 C 181.701781 -11.740844 191.221313 -21.260375 202.9635 -21.260375 C 214.705688 -21.260375 224.225219 -11.740844 224.225219 0.00134375 Z M 224.225219 0.00134375 " transform="matrix(1, 0, 0, -1, 34.349, 34.349)"/>
<g fill="var(--black)" fill-opacity="1">
<use xlink:href="#factor_graph_example_glyph-0-0" x="229.344" y="36.764"/>
</g>
<g fill="var(--black)" fill-opacity="1">
<use xlink:href="#factor_graph_example_glyph-1-2" x="238.923" y="39.346"/>
</g>
<path fill="none" stroke-width="2.26773" stroke-linecap="butt" stroke-linejoin="miter" stroke="var(--black)" stroke-opacity="1" stroke-miterlimit="10" d="M 325.705688 0.00134375 C 325.705688 11.743531 316.186156 21.259156 304.443969 21.259156 C 292.701781 21.259156 283.186156 11.743531 283.186156 0.00134375 C 283.186156 -11.740844 292.701781 -21.260375 304.443969 -21.260375 C 316.186156 -21.260375 325.705688 -11.740844 325.705688 0.00134375 Z M 325.705688 0.00134375 " transform="matrix(1, 0, 0, -1, 34.349, 34.349)"/>
<g fill="var(--black)" fill-opacity="1">
<use xlink:href="#factor_graph_example_glyph-0-0" x="330.825" y="36.764"/>
</g>
<g fill="var(--black)" fill-opacity="1">
<use xlink:href="#factor_graph_example_glyph-1-3" x="340.404" y="39.346"/>
</g>
<path fill="none" stroke-width="2.26773" stroke-linecap="butt" stroke-linejoin="miter" stroke="var(--black)" stroke-opacity="1" stroke-miterlimit="10" d="M 427.186156 0.00134375 C 427.186156 11.743531 417.666625 21.259156 405.924438 21.259156 C 394.186156 21.259156 384.666625 11.743531 384.666625 0.00134375 C 384.666625 -11.740844 394.186156 -21.260375 405.924438 -21.260375 C 417.666625 -21.260375 427.186156 -11.740844 427.186156 0.00134375 Z M 427.186156 0.00134375 " transform="matrix(1, 0, 0, -1, 34.349, 34.349)"/>
<g fill="var(--black)" fill-opacity="1">
<use xlink:href="#factor_graph_example_glyph-0-0" x="432.305" y="36.764"/>
</g>
<g fill="var(--black)" fill-opacity="1">
<use xlink:href="#factor_graph_example_glyph-1-4" x="441.884" y="39.346"/>
</g>
<path fill-rule="nonzero" fill="var(--black)" fill-opacity="1" stroke-width="2.26773" stroke-linecap="butt" stroke-linejoin="miter" stroke="var(--black)" stroke-opacity="1" stroke-miterlimit="10" d="M -14.173219 -108.568969 L 14.174438 -108.568969 L 14.174438 -80.221312 L -14.173219 -80.221312 Z M -14.173219 -108.568969 " transform="matrix(1, 0, 0, -1, 34.349, 34.349)"/>
<g fill="var(--black)" fill-opacity="1">
<use xlink:href="#factor_graph_example_glyph-0-1" x="25.558" y="133.047"/>
</g>
<g fill="var(--black)" fill-opacity="1">
<use xlink:href="#factor_graph_example_glyph-2-0" x="33.867" y="135.629"/>
</g>
<g fill="var(--black)" fill-opacity="1">
<use xlink:href="#factor_graph_example_glyph-0-1" x="25.558" y="159.724"/>
</g>
<g fill="var(--black)" fill-opacity="1">
<use xlink:href="#factor_graph_example_glyph-2-0" x="33.867" y="162.306"/>
</g>
<path fill-rule="nonzero" fill="var(--black)" fill-opacity="1" stroke-width="2.26773" stroke-linecap="butt" stroke-linejoin="miter" stroke="var(--black)" stroke-opacity="1" stroke-miterlimit="10" d="M 87.30725 -108.568969 L 115.654906 -108.568969 L 115.654906 -80.221312 L 87.30725 -80.221312 Z M 87.30725 -108.568969 " transform="matrix(1, 0, 0, -1, 34.349, 34.349)"/>
<g fill="var(--black)" fill-opacity="1">
<use xlink:href="#factor_graph_example_glyph-0-1" x="126.678" y="133.047"/>
</g>
<g fill="var(--black)" fill-opacity="1">
<use xlink:href="#factor_graph_example_glyph-2-1" x="134.986" y="135.629"/>
</g>
<g fill="var(--black)" fill-opacity="1">
<use xlink:href="#factor_graph_example_glyph-0-1" x="126.678" y="159.724"/>
</g>
<g fill="var(--black)" fill-opacity="1">
<use xlink:href="#factor_graph_example_glyph-2-1" x="134.986" y="162.306"/>
</g>
<path fill-rule="nonzero" fill="var(--black)" fill-opacity="1" stroke-width="2.26773" stroke-linecap="butt" stroke-linejoin="miter" stroke="var(--black)" stroke-opacity="1" stroke-miterlimit="10" d="M 188.791625 -108.568969 L 217.135375 -108.568969 L 217.135375 -80.221312 L 188.791625 -80.221312 Z M 188.791625 -108.568969 " transform="matrix(1, 0, 0, -1, 34.349, 34.349)"/>
<g fill="var(--black)" fill-opacity="1">
<use xlink:href="#factor_graph_example_glyph-0-1" x="228.289" y="133.047"/>
</g>
<g fill="var(--black)" fill-opacity="1">
<use xlink:href="#factor_graph_example_glyph-2-2" x="236.598" y="135.629"/>
</g>
<g fill="var(--black)" fill-opacity="1">
<use xlink:href="#factor_graph_example_glyph-0-1" x="228.289" y="159.724"/>
</g>
<g fill="var(--black)" fill-opacity="1">
<use xlink:href="#factor_graph_example_glyph-2-2" x="236.598" y="162.306"/>
</g>
<path fill-rule="nonzero" fill="var(--black)" fill-opacity="1" stroke-width="2.26773" stroke-linecap="butt" stroke-linejoin="miter" stroke="var(--black)" stroke-opacity="1" stroke-miterlimit="10" d="M 290.272094 -108.568969 L 318.61975 -108.568969 L 318.61975 -80.221312 L 290.272094 -80.221312 Z M 290.272094 -108.568969 " transform="matrix(1, 0, 0, -1, 34.349, 34.349)"/>
<g fill="var(--black)" fill-opacity="1">
<use xlink:href="#factor_graph_example_glyph-0-1" x="329.364" y="133.047"/>
</g>
<g fill="var(--black)" fill-opacity="1">
<use xlink:href="#factor_graph_example_glyph-2-3" x="337.673" y="135.629"/>
</g>
<g fill="var(--black)" fill-opacity="1">
<use xlink:href="#factor_graph_example_glyph-0-1" x="329.364" y="159.724"/>
</g>
<g fill="var(--black)" fill-opacity="1">
<use xlink:href="#factor_graph_example_glyph-2-3" x="337.673" y="162.306"/>
</g>
<path fill-rule="nonzero" fill="var(--black)" fill-opacity="1" stroke-width="2.26773" stroke-linecap="butt" stroke-linejoin="miter" stroke="var(--black)" stroke-opacity="1" stroke-miterlimit="10" d="M 391.752563 -108.568969 L 420.100219 -108.568969 L 420.100219 -80.221312 L 391.752563 -80.221312 Z M 391.752563 -108.568969 " transform="matrix(1, 0, 0, -1, 34.349, 34.349)"/>
<g fill="var(--black)" fill-opacity="1">
<use xlink:href="#factor_graph_example_glyph-0-1" x="431.183" y="133.047"/>
</g>
<g fill="var(--black)" fill-opacity="1">
<use xlink:href="#factor_graph_example_glyph-2-4" x="439.492" y="135.629"/>
</g>
<g fill="var(--black)" fill-opacity="1">
<use xlink:href="#factor_graph_example_glyph-0-1" x="431.183" y="159.724"/>
</g>
<g fill="var(--black)" fill-opacity="1">
<use xlink:href="#factor_graph_example_glyph-2-4" x="439.492" y="162.306"/>
</g>
<path fill="none" stroke-width="2.26773" stroke-linecap="butt" stroke-linejoin="miter" stroke="var(--black)" stroke-opacity="1" stroke-miterlimit="10" d="M -0.00134375 -22.393187 L -0.00134375 -79.0885 " transform="matrix(1, 0, 0, -1, 34.349, 34.349)"/>
<path fill="none" stroke-width="2.26773" stroke-linecap="butt" stroke-linejoin="miter" stroke="var(--black)" stroke-opacity="1" stroke-miterlimit="10" d="M 20.303344 -9.443969 L 187.654906 -87.291625 " transform="matrix(1, 0, 0, -1, 34.349, 34.349)"/>
<path fill="none" stroke-width="2.26773" stroke-linecap="butt" stroke-linejoin="miter" stroke="var(--black)" stroke-opacity="1" stroke-miterlimit="10" d="M 101.483031 -22.393187 L 101.483031 -79.0885 " transform="matrix(1, 0, 0, -1, 34.349, 34.349)"/>
<path fill="none" stroke-width="2.26773" stroke-linecap="butt" stroke-linejoin="miter" stroke="var(--black)" stroke-opacity="1" stroke-miterlimit="10" d="M 117.877563 -15.252562 L 187.654906 -80.166625 " transform="matrix(1, 0, 0, -1, 34.349, 34.349)"/>
<path fill="none" stroke-width="2.26773" stroke-linecap="butt" stroke-linejoin="miter" stroke="var(--black)" stroke-opacity="1" stroke-miterlimit="10" d="M 202.9635 -22.393187 L 202.9635 -79.0885 " transform="matrix(1, 0, 0, -1, 34.349, 34.349)"/>
<path fill="none" stroke-width="2.26773" stroke-linecap="butt" stroke-linejoin="miter" stroke="var(--black)" stroke-opacity="1" stroke-miterlimit="10" d="M 219.358031 -15.252562 L 289.139281 -80.166625 " transform="matrix(1, 0, 0, -1, 34.349, 34.349)"/>
<path fill="none" stroke-width="2.26773" stroke-linecap="butt" stroke-linejoin="miter" stroke="var(--black)" stroke-opacity="1" stroke-miterlimit="10" d="M 223.268188 -9.443969 L 390.61975 -87.291625 " transform="matrix(1, 0, 0, -1, 34.349, 34.349)"/>
<path fill="none" stroke-width="2.26773" stroke-linecap="butt" stroke-linejoin="miter" stroke="var(--black)" stroke-opacity="1" stroke-miterlimit="10" d="M 304.443969 -22.393187 L 304.443969 -79.0885 " transform="matrix(1, 0, 0, -1, 34.349, 34.349)"/>
<path fill="none" stroke-width="2.26773" stroke-linecap="butt" stroke-linejoin="miter" stroke="var(--black)" stroke-opacity="1" stroke-miterlimit="10" d="M 405.924438 -22.393187 L 405.924438 -79.0885 " transform="matrix(1, 0, 0, -1, 34.349, 34.349)"/>
<path fill="none" stroke-width="2.26773" stroke-linecap="butt" stroke-linejoin="miter" stroke="var(--black)" stroke-opacity="1" stroke-miterlimit="10" d="M 613.709594 0.00134375 C 613.709594 11.743531 604.190062 21.259156 592.447875 21.259156 C 580.705687 21.259156 571.190062 11.743531 571.190062 0.00134375 C 571.190062 -11.740844 580.705687 -21.260375 592.447875 -21.260375 C 604.190062 -21.260375 613.709594 -11.740844 613.709594 0.00134375 Z M 613.709594 0.00134375 " transform="matrix(1, 0, 0, -1, 34.349, 34.349)"/>
<g fill="var(--black)" fill-opacity="1">
<use xlink:href="#factor_graph_example_glyph-0-0" x="618.825" y="36.764"/>
</g>
<g fill="var(--black)" fill-opacity="1">
<use xlink:href="#factor_graph_example_glyph-1-0" x="628.404" y="39.346"/>
</g>
<path fill-rule="nonzero" fill="var(--black)" fill-opacity="1" stroke-width="2.26773" stroke-linecap="butt" stroke-linejoin="miter" stroke="var(--black)" stroke-opacity="1" stroke-miterlimit="10" d="M 518.787719 -102.010375 L 547.131469 -102.010375 L 547.131469 -73.662719 L 518.787719 -73.662719 Z M 518.787719 -102.010375 " transform="matrix(1, 0, 0, -1, 34.349, 34.349)"/>
<g fill="var(--black)" fill-opacity="1">
<use xlink:href="#factor_graph_example_glyph-0-1" x="558.51" y="126.488"/>
</g>
<g fill="var(--black)" fill-opacity="1">
<use xlink:href="#factor_graph_example_glyph-2-0" x="566.819" y="129.07"/>
</g>
<g fill="var(--black)" fill-opacity="1">
<use xlink:href="#factor_graph_example_glyph-0-1" x="558.51" y="153.165"/>
</g>
<g fill="var(--black)" fill-opacity="1">
<use xlink:href="#factor_graph_example_glyph-2-0" x="566.819" y="155.747"/>
</g>
<path fill-rule="nonzero" fill="var(--black)" fill-opacity="1" stroke-width="2.26773" stroke-linecap="butt" stroke-linejoin="miter" stroke="var(--black)" stroke-opacity="1" stroke-miterlimit="10" d="M 637.764281 -102.010375 L 666.111937 -102.010375 L 666.111937 -73.662719 L 637.764281 -73.662719 Z M 637.764281 -102.010375 " transform="matrix(1, 0, 0, -1, 34.349, 34.349)"/>
<g fill="var(--black)" fill-opacity="1">
<use xlink:href="#factor_graph_example_glyph-0-1" x="677.258" y="126.488"/>
</g>
<g fill="var(--black)" fill-opacity="1">
<use xlink:href="#factor_graph_example_glyph-2-2" x="685.566" y="129.07"/>
</g>
<g fill="var(--black)" fill-opacity="1">
<use xlink:href="#factor_graph_example_glyph-0-1" x="677.258" y="153.165"/>
</g>
<g fill="var(--black)" fill-opacity="1">
<use xlink:href="#factor_graph_example_glyph-2-2" x="685.566" y="155.747"/>
</g>
<path fill="none" stroke-width="2.26773" stroke-linecap="butt" stroke-linejoin="miter" stroke="var(--black)" stroke-opacity="1" stroke-miterlimit="10" d="M 613.709594 -175.670531 C 613.709594 -163.928344 604.190062 -154.412719 592.447875 -154.412719 C 580.705687 -154.412719 571.190062 -163.928344 571.190062 -175.670531 C 571.190062 -187.412719 580.705687 -196.93225 592.447875 -196.93225 C 604.190062 -196.93225 613.709594 -187.412719 613.709594 -175.670531 Z M 613.709594 -175.670531 " transform="matrix(1, 0, 0, -1, 34.349, 34.349)"/>
<g fill="var(--black)" fill-opacity="1">
<use xlink:href="#factor_graph_example_glyph-0-0" x="618.825" y="212.433"/>
</g>
<g fill="var(--black)" fill-opacity="1">
<use xlink:href="#factor_graph_example_glyph-1-1" x="628.404" y="215.016"/>
</g>
<path fill="none" stroke-width="2.26773" stroke-linecap="butt" stroke-linejoin="miter" stroke="var(--black)" stroke-opacity="1" stroke-miterlimit="10" d="M 732.686156 -175.670531 C 732.686156 -163.928344 723.166625 -154.412719 711.428344 -154.412719 C 699.686156 -154.412719 690.166625 -163.928344 690.166625 -175.670531 C 690.166625 -187.412719 699.686156 -196.93225 711.428344 -196.93225 C 723.166625 -196.93225 732.686156 -187.412719 732.686156 -175.670531 Z M 732.686156 -175.670531 " transform="matrix(1, 0, 0, -1, 34.349, 34.349)"/>
<g fill="var(--black)" fill-opacity="1">
<use xlink:href="#factor_graph_example_glyph-0-0" x="737.801" y="212.433"/>
</g>
<g fill="var(--black)" fill-opacity="1">
<use xlink:href="#factor_graph_example_glyph-1-2" x="747.38" y="215.016"/>
</g>
<path fill-rule="nonzero" fill="var(--black)" fill-opacity="1" stroke-width="2.26773" stroke-linecap="butt" stroke-linejoin="miter" stroke="var(--black)" stroke-opacity="1" stroke-miterlimit="10" d="M 578.276 -284.240844 L 606.623656 -284.240844 L 606.623656 -255.893187 L 578.276 -255.893187 Z M 578.276 -284.240844 " transform="matrix(1, 0, 0, -1, 34.349, 34.349)"/>
<g fill="var(--black)" fill-opacity="1">
<use xlink:href="#factor_graph_example_glyph-0-1" x="617.638" y="308.716"/>
</g>
<g fill="var(--black)" fill-opacity="1">
<use xlink:href="#factor_graph_example_glyph-2-1" x="625.947" y="311.298"/>
</g>
<g fill="var(--black)" fill-opacity="1">
<use xlink:href="#factor_graph_example_glyph-0-1" x="617.638" y="335.393"/>
</g>
<g fill="var(--black)" fill-opacity="1">
<use xlink:href="#factor_graph_example_glyph-2-1" x="625.947" y="337.976"/>
</g>
<path fill-rule="nonzero" fill="var(--black)" fill-opacity="1" stroke-width="2.26773" stroke-linecap="butt" stroke-linejoin="miter" stroke="var(--black)" stroke-opacity="1" stroke-miterlimit="10" d="M 637.764281 -283.350219 L 666.111937 -283.350219 L 666.111937 -255.002562 L 637.764281 -255.002562 Z M 637.764281 -283.350219 " transform="matrix(1, 0, 0, -1, 34.349, 34.349)"/>
<g fill="var(--black)" fill-opacity="1">
<use xlink:href="#factor_graph_example_glyph-0-1" x="676.852" y="307.826"/>
</g>
<g fill="var(--black)" fill-opacity="1">
<use xlink:href="#factor_graph_example_glyph-2-3" x="685.161" y="310.409"/>
</g>
<g fill="var(--black)" fill-opacity="1">
<use xlink:href="#factor_graph_example_glyph-0-1" x="705.304" y="307.826"/>
</g>
<g fill="var(--black)" fill-opacity="1">
<use xlink:href="#factor_graph_example_glyph-2-3" x="713.613" y="310.409"/>
</g>
<path fill-rule="nonzero" fill="var(--black)" fill-opacity="1" stroke-width="2.26773" stroke-linecap="butt" stroke-linejoin="miter" stroke="var(--black)" stroke-opacity="1" stroke-miterlimit="10" d="M 756.740844 -283.350219 L 785.0885 -283.350219 L 785.0885 -255.002562 L 756.740844 -255.002562 Z M 756.740844 -283.350219 " transform="matrix(1, 0, 0, -1, 34.349, 34.349)"/>
<g fill="var(--black)" fill-opacity="1">
<use xlink:href="#factor_graph_example_glyph-0-1" x="796.168" y="307.826"/>
</g>
<g fill="var(--black)" fill-opacity="1">
<use xlink:href="#factor_graph_example_glyph-2-4" x="804.477" y="310.409"/>
</g>
<g fill="var(--black)" fill-opacity="1">
<use xlink:href="#factor_graph_example_glyph-0-1" x="824.28" y="307.826"/>
</g>
<g fill="var(--black)" fill-opacity="1">
<use xlink:href="#factor_graph_example_glyph-2-4" x="832.589" y="310.409"/>
</g>
<g clip-path="url(#factor_graph_example_clip-0)">
<path fill="none" stroke-width="2.26773" stroke-linecap="butt" stroke-linejoin="miter" stroke="var(--black)" stroke-opacity="1" stroke-miterlimit="10" d="M 673.197875 -363.572875 C 673.197875 -351.830687 663.678344 -342.311156 651.936156 -342.311156 C 640.193969 -342.311156 630.678344 -351.830687 630.678344 -363.572875 C 630.678344 -375.315062 640.193969 -384.830687 651.936156 -384.830687 C 663.678344 -384.830687 673.197875 -375.315062 673.197875 -363.572875 Z M 673.197875 -363.572875 " transform="matrix(1, 0, 0, -1, 34.349, 34.349)"/>
</g>
<g fill="var(--black)" fill-opacity="1">
<use xlink:href="#factor_graph_example_glyph-0-0" x="678.313" y="400.331"/>
</g>
<g fill="var(--black)" fill-opacity="1">
<use xlink:href="#factor_graph_example_glyph-1-3" x="687.892" y="402.913"/>
</g>
<g clip-path="url(#factor_graph_example_clip-1)">
<path fill="none" stroke-width="2.26773" stroke-linecap="butt" stroke-linejoin="miter" stroke="var(--black)" stroke-opacity="1" stroke-miterlimit="10" d="M 792.174437 -363.572875 C 792.174437 -351.830687 782.658812 -342.311156 770.916625 -342.311156 C 759.174437 -342.311156 749.654906 -351.830687 749.654906 -363.572875 C 749.654906 -375.315062 759.174437 -384.830687 770.916625 -384.830687 C 782.658812 -384.830687 792.174437 -375.315062 792.174437 -363.572875 Z M 792.174437 -363.572875 " transform="matrix(1, 0, 0, -1, 34.349, 34.349)"/>
</g>
<g fill="var(--black)" fill-opacity="1">
<use xlink:href="#factor_graph_example_glyph-0-0" x="797.289" y="400.331"/>
</g>
<g fill="var(--black)" fill-opacity="1">
<use xlink:href="#factor_graph_example_glyph-1-4" x="806.868" y="402.913"/>
</g>
<path fill="none" stroke-width="2.26773" stroke-linecap="butt" stroke-linejoin="miter" stroke="var(--black)" stroke-opacity="1" stroke-miterlimit="10" d="M 579.889281 -18.541625 L 543.322875 -72.529906 " transform="matrix(1, 0, 0, -1, 34.349, 34.349)"/>
<path fill="none" stroke-width="2.26773" stroke-linecap="butt" stroke-linejoin="miter" stroke="var(--black)" stroke-opacity="1" stroke-miterlimit="10" d="M 605.006469 -18.541625 L 641.576781 -72.529906 " transform="matrix(1, 0, 0, -1, 34.349, 34.349)"/>
<path fill="none" stroke-width="2.26773" stroke-linecap="butt" stroke-linejoin="miter" stroke="var(--black)" stroke-opacity="1" stroke-miterlimit="10" d="M 592.447875 -198.065062 L 592.447875 -254.760375 " transform="matrix(1, 0, 0, -1, 34.349, 34.349)"/>
<path fill="none" stroke-width="2.26773" stroke-linecap="butt" stroke-linejoin="miter" stroke="var(--black)" stroke-opacity="1" stroke-miterlimit="10" d="M 605.006469 -157.131469 L 641.576781 -103.143187 " transform="matrix(1, 0, 0, -1, 34.349, 34.349)"/>
<path fill="none" stroke-width="2.26773" stroke-linecap="butt" stroke-linejoin="miter" stroke="var(--black)" stroke-opacity="1" stroke-miterlimit="10" d="M 698.86975 -157.131469 L 662.299437 -103.143187 " transform="matrix(1, 0, 0, -1, 34.349, 34.349)"/>
<path fill="none" stroke-width="2.26773" stroke-linecap="butt" stroke-linejoin="miter" stroke="var(--black)" stroke-opacity="1" stroke-miterlimit="10" d="M 699.404906 -194.565062 L 661.670531 -253.86975 " transform="matrix(1, 0, 0, -1, 34.349, 34.349)"/>
<path fill="none" stroke-width="2.26773" stroke-linecap="butt" stroke-linejoin="miter" stroke="var(--black)" stroke-opacity="1" stroke-miterlimit="10" d="M 723.447875 -194.565062 L 761.18225 -253.86975 " transform="matrix(1, 0, 0, -1, 34.349, 34.349)"/>
<path fill="none" stroke-width="2.26773" stroke-linecap="butt" stroke-linejoin="miter" stroke="var(--black)" stroke-opacity="1" stroke-miterlimit="10" d="M 651.936156 -341.178344 L 651.936156 -284.483031 " transform="matrix(1, 0, 0, -1, 34.349, 34.349)"/>
<path fill="none" stroke-width="2.26773" stroke-linecap="butt" stroke-linejoin="miter" stroke="var(--black)" stroke-opacity="1" stroke-miterlimit="10" d="M 770.916625 -341.178344 L 770.916625 -284.483031 " transform="matrix(1, 0, 0, -1, 34.349, 34.349)"/>
</svg>
