<svg xmlns="http://www.w3.org/2000/svg" xmlns:xlink="http://www.w3.org/1999/xlink" width="542.015" height="445.358" style="--axis-color:#000;--grid-stroke:rgba(0,0,0,0.2);--plot3d-stroke:rgba(0,0,0,0.3);--plot3d-grid:rgba(0,0,0,0.2);--black:#000000;--c1:#FF0001;--c2:#00FF02;--c3:#0000FF;--c4:#FF00FF;--c5:#00FFFF;--c6:#FFFF00;--c7:#FF8000;--c8:#8000FF;--gray:#7f7f7f;--grey:#7f7f7f;--octonary:#bcbd22;--primary:#d62728;--quaternary:#9467bd;--quinary:#8c564b;--secondary:#2ca02c;--senary:#e377c2;--septenary:#7f7f7f;--tertiary:#1f77b4;--white:#ffffff" viewBox="0 0 406.511 334.019"><style><![CDATA[@media (prefers-color-scheme:dark){:root{--axis-color:#fff;--grid-stroke:rgba(255,255,255,0.2);--plot3d-stroke:rgba(255,255,255,0.3);--plot3d-grid:rgba(255,255,255,0.2);--black:#FFFFFF;--c1:#FF0001;--c2:#00FF02;--c3:#0000FF;--c4:#FF00FF;--c5:#00FFFF;--c6:#FFFF00;--c7:#FF8000;--c8:#8000FF;--gray:#CCCCCC;--grey:#CCCCCC;--octonary:#E6DB74;--primary:#FF4A98;--quaternary:#B4A0FF;--quinary:#FFB86B;--secondary:#0AFAFA;--senary:#FF79C6;--septenary:#CCCCCC;--tertiary:#7F83FF;--white:#000000}}.text{fill:var(--axis-color)!important;stroke:none!important}.axis path,.patch path[style*="stroke: currentColor"],.tick path{stroke:var(--axis-color)!important}@media (prefers-color-scheme:dark){g.legend>g:first-child>path:first-child{fill:rgba(26,26,26,.8)!important;stroke:rgba(255,255,255,.1)!important}}*{stroke-linejoin:round;stroke-linecap:butt}]]></style><g id="figure_1"><path d="M0 334.019h406.51V0H0z" class="patch" style="fill:none"/><g id="axes_1"><path d="M42.19 297.43h357.12V31.318H42.19z" class="patch" style="fill:none"/><g class="axis"><g class="tick xtick"><path id="line2d_1" d="M47.95 297.43V31.318" clip-path="url(#p4d5730e67f)" style="fill:none;stroke:#b0b0b0;stroke-opacity:.1;stroke-width:.8;stroke-linecap:square"/><g id="line2d_2"><defs><path id="m72902911a5" d="M0 0v3.5" style="stroke:var(--black);stroke-width:.8"/></defs><use xlink:href="#m72902911a5" x="47.951" y="297.43" style="stroke:var(--black);stroke-width:.8"/></g><g id="text_1" class="text" transform="matrix(.09 0 0 -.09 41.317 311.269)"><defs><path id="DejaVuSans-2212" d="M678 2272h4006v-531H678z" transform="scale(.01563)"/><path id="DejaVuSans-32" d="M1228 531h2203V0H469v531q359 372 979 998 621 627 780 809 303 340 423 576 121 236 121 464 0 372-261 606-261 235-680 235-297 0-627-103-329-103-704-313v638q381 153 712 231 332 78 607 78 725 0 1156-363 431-362 431-968 0-288-108-546-107-257-392-607-78-91-497-524-418-433-1181-1211z" transform="scale(.01563)"/></defs><use xlink:href="#DejaVuSans-2212"/><use xlink:href="#DejaVuSans-32" transform="translate(83.79)"/></g></g><g class="tick xtick"><path id="line2d_3" d="M105.55 297.43V31.318" clip-path="url(#p4d5730e67f)" style="fill:none;stroke:#b0b0b0;stroke-opacity:.1;stroke-width:.8;stroke-linecap:square"/><use xlink:href="#m72902911a5" id="line2d_4" x="105.551" y="297.43" style="stroke:var(--black);stroke-width:.8"/><g id="text_2" class="text" transform="matrix(.09 0 0 -.09 102.688 311.269)"><defs><path id="DejaVuSans-30" d="M2034 4250q-487 0-733-480-245-479-245-1442 0-959 245-1439 246-480 733-480 491 0 736 480 246 480 246 1439 0 963-246 1442-245 480-736 480zm0 500q785 0 1199-621 414-620 414-1801 0-1178-414-1799Q2819-91 2034-91q-784 0-1198 620-414 621-414 1799 0 1181 414 1801 414 621 1198 621z" transform="scale(.01563)"/></defs><use xlink:href="#DejaVuSans-30"/></g></g><g class="tick xtick"><path id="line2d_5" d="M163.15 297.43V31.318" clip-path="url(#p4d5730e67f)" style="fill:none;stroke:#b0b0b0;stroke-opacity:.1;stroke-width:.8;stroke-linecap:square"/><use xlink:href="#m72902911a5" id="line2d_6" x="163.151" y="297.43" style="stroke:var(--black);stroke-width:.8"/><use xlink:href="#DejaVuSans-32" id="text_3" class="text" transform="matrix(.09 0 0 -.09 160.288 311.269)"/></g><g class="tick xtick"><path id="line2d_7" d="M220.75 297.43V31.318" clip-path="url(#p4d5730e67f)" style="fill:none;stroke:#b0b0b0;stroke-opacity:.1;stroke-width:.8;stroke-linecap:square"/><use xlink:href="#m72902911a5" id="line2d_8" x="220.751" y="297.43" style="stroke:var(--black);stroke-width:.8"/><g id="text_4" class="text" transform="matrix(.09 0 0 -.09 217.888 311.269)"><defs><path id="DejaVuSans-34" d="M2419 4116 825 1625h1594zm-166 550h794V1625h666v-525h-666V0h-628v1100H313v609z" transform="scale(.01563)"/></defs><use xlink:href="#DejaVuSans-34"/></g></g><g class="tick xtick"><path id="line2d_9" d="M278.35 297.43V31.318" clip-path="url(#p4d5730e67f)" style="fill:none;stroke:#b0b0b0;stroke-opacity:.1;stroke-width:.8;stroke-linecap:square"/><use xlink:href="#m72902911a5" id="line2d_10" x="278.351" y="297.43" style="stroke:var(--black);stroke-width:.8"/><g id="text_5" class="text" transform="matrix(.09 0 0 -.09 275.488 311.269)"><defs><path id="DejaVuSans-36" d="M2113 2584q-425 0-674-291-248-290-248-796 0-503 248-796 249-292 674-292t673 292q248 293 248 796 0 506-248 796-248 291-673 291zm1253 1979v-575q-238 112-480 171-242 60-480 60-625 0-955-422-329-422-376-1275 184 272 462 417 279 145 613 145 703 0 1111-427 408-426 408-1160 0-719-425-1154Q2819-91 2113-91q-810 0-1238 620-428 621-428 1799 0 1106 525 1764t1409 658q238 0 480-47t505-140z" transform="scale(.01563)"/></defs><use xlink:href="#DejaVuSans-36"/></g></g><g class="tick xtick"><path id="line2d_11" d="M335.95 297.43V31.318" clip-path="url(#p4d5730e67f)" style="fill:none;stroke:#b0b0b0;stroke-opacity:.1;stroke-width:.8;stroke-linecap:square"/><use xlink:href="#m72902911a5" id="line2d_12" x="335.951" y="297.43" style="stroke:var(--black);stroke-width:.8"/><g id="text_6" class="text" transform="matrix(.09 0 0 -.09 333.088 311.269)"><defs><path id="DejaVuSans-38" d="M2034 2216q-450 0-708-241-257-241-257-662 0-422 257-663 258-241 708-241t709 242q260 243 260 662 0 421-258 662-257 241-711 241zm-631 268q-406 100-633 378-226 279-226 679 0 559 398 884 399 325 1092 325 697 0 1094-325t397-884q0-400-227-679-226-278-629-378 456-106 710-416 255-309 255-755 0-679-414-1042Q2806-91 2034-91q-771 0-1186 362-414 363-414 1042 0 446 256 755 257 310 713 416zm-231 997q0-362 226-565 227-203 636-203 407 0 636 203 230 203 230 565 0 363-230 566-229 203-636 203-409 0-636-203-226-203-226-566z" transform="scale(.01563)"/></defs><use xlink:href="#DejaVuSans-38"/></g></g><g class="tick xtick"><path id="line2d_13" d="M393.55 297.43V31.318" clip-path="url(#p4d5730e67f)" style="fill:none;stroke:#b0b0b0;stroke-opacity:.1;stroke-width:.8;stroke-linecap:square"/><use xlink:href="#m72902911a5" id="line2d_14" x="393.551" y="297.43" style="stroke:var(--black);stroke-width:.8"/><g id="text_7" class="text" transform="matrix(.09 0 0 -.09 387.825 311.269)"><defs><path id="DejaVuSans-31" d="M794 531h1031v3560L703 3866v575l1116 225h631V531h1031V0H794z" transform="scale(.01563)"/></defs><use xlink:href="#DejaVuSans-31"/><use xlink:href="#DejaVuSans-30" transform="translate(63.623)"/></g></g><g id="text_8" class="text" transform="matrix(.1 0 0 -.1 217.75 324.739)"><defs><path id="DejaVuSans-Oblique-78" d="M3841 3500 2234 1784 3219 0h-660l-740 1388L531 0h-697l1722 1844-915 1656h659l672-1266 1172 1266z" transform="scale(.01563)"/></defs><use xlink:href="#DejaVuSans-Oblique-78" transform="translate(0 .313)"/></g></g><g class="axis"><g class="tick ytick"><path id="line2d_15" d="M42.19 285.86h357.12" clip-path="url(#p4d5730e67f)" style="fill:none;stroke:#b0b0b0;stroke-opacity:.1;stroke-width:.8;stroke-linecap:square"/><g id="line2d_16"><defs><path id="mb4669bcce3" d="M0 0h-3.5" style="stroke:var(--black);stroke-width:.8"/></defs><use xlink:href="#mb4669bcce3" x="42.191" y="285.86" style="stroke:var(--black);stroke-width:.8"/></g><g id="text_9" class="text" transform="matrix(.09 0 0 -.09 20.878 289.28)"><defs><path id="DejaVuSans-2e" d="M684 794h660V0H684z" transform="scale(.01563)"/></defs><use xlink:href="#DejaVuSans-30"/><use xlink:href="#DejaVuSans-2e" transform="translate(63.623)"/><use xlink:href="#DejaVuSans-30" transform="translate(95.41)"/></g></g><g class="tick ytick"><path id="line2d_17" d="M42.19 228.01h357.12" clip-path="url(#p4d5730e67f)" style="fill:none;stroke:#b0b0b0;stroke-opacity:.1;stroke-width:.8;stroke-linecap:square"/><use xlink:href="#mb4669bcce3" id="line2d_18" x="42.191" y="228.01" style="stroke:var(--black);stroke-width:.8"/><g id="text_10" class="text" transform="matrix(.09 0 0 -.09 20.878 231.429)"><defs><path id="DejaVuSans-35" d="M691 4666h2478v-532H1269V2991q137 47 274 70 138 23 276 23 781 0 1237-428 457-428 457-1159 0-753-469-1171Q2575-91 1722-91q-294 0-599 50Q819 9 494 109v635q281-153 581-228t634-75q541 0 856 284 316 284 316 772 0 487-316 771-315 285-856 285-253 0-505-56-251-56-513-175z" transform="scale(.01563)"/></defs><use xlink:href="#DejaVuSans-30"/><use xlink:href="#DejaVuSans-2e" transform="translate(63.623)"/><use xlink:href="#DejaVuSans-35" transform="translate(95.41)"/></g></g><g class="tick ytick"><path id="line2d_19" d="M42.19 170.16h357.12" clip-path="url(#p4d5730e67f)" style="fill:none;stroke:#b0b0b0;stroke-opacity:.1;stroke-width:.8;stroke-linecap:square"/><use xlink:href="#mb4669bcce3" id="line2d_20" x="42.191" y="170.159" style="stroke:var(--black);stroke-width:.8"/><g id="text_11" class="text" transform="matrix(.09 0 0 -.09 20.878 173.578)"><use xlink:href="#DejaVuSans-31"/><use xlink:href="#DejaVuSans-2e" transform="translate(63.623)"/><use xlink:href="#DejaVuSans-30" transform="translate(95.41)"/></g></g><g class="tick ytick"><path id="line2d_21" d="M42.19 112.309h357.12" clip-path="url(#p4d5730e67f)" style="fill:none;stroke:#b0b0b0;stroke-opacity:.1;stroke-width:.8;stroke-linecap:square"/><use xlink:href="#mb4669bcce3" id="line2d_22" x="42.191" y="112.309" style="stroke:var(--black);stroke-width:.8"/><g id="text_12" class="text" transform="matrix(.09 0 0 -.09 20.878 115.728)"><use xlink:href="#DejaVuSans-31"/><use xlink:href="#DejaVuSans-2e" transform="translate(63.623)"/><use xlink:href="#DejaVuSans-35" transform="translate(95.41)"/></g></g><g class="tick ytick"><path id="line2d_23" d="M42.19 54.458h357.12" clip-path="url(#p4d5730e67f)" style="fill:none;stroke:#b0b0b0;stroke-opacity:.1;stroke-width:.8;stroke-linecap:square"/><use xlink:href="#mb4669bcce3" id="line2d_24" x="42.191" y="54.458" style="stroke:var(--black);stroke-width:.8"/><g id="text_13" class="text" transform="matrix(.09 0 0 -.09 20.878 57.878)"><use xlink:href="#DejaVuSans-32"/><use xlink:href="#DejaVuSans-2e" transform="translate(63.623)"/><use xlink:href="#DejaVuSans-30" transform="translate(95.41)"/></g></g><g id="text_14" class="text" transform="matrix(0 -.1 -.1 0 14.798 211.4)"><defs><path id="DejaVuSans-50" d="M1259 4147V2394h794q441 0 681 228 241 228 241 650 0 419-241 647-240 228-681 228zm-631 519h1425q785 0 1186-355 402-355 402-1039 0-691-402-1044-401-353-1186-353h-794V0H628z" transform="scale(.01563)"/><path id="DejaVuSans-72" d="M2631 2963q-97 56-211 82-114 27-251 27-488 0-749-317t-261-911V0H581v3500h578v-544q182 319 472 473 291 155 707 155 59 0 131-8 72-7 159-23z" transform="scale(.01563)"/><path id="DejaVuSans-6f" d="M1959 3097q-462 0-731-361t-269-989 267-989q268-361 733-361 460 0 728 362 269 363 269 988 0 622-269 986-268 364-728 364zm0 487q750 0 1178-488 429-487 429-1349 0-859-429-1349Q2709-91 1959-91q-753 0-1180 489-426 490-426 1349 0 862 426 1349 427 488 1180 488z" transform="scale(.01563)"/><path id="DejaVuSans-62" d="M3116 1747q0 634-261 995t-717 361q-457 0-718-361t-261-995 261-995 718-361q456 0 717 361t261 995zM1159 2969q182 312 458 463 277 152 661 152 638 0 1036-506 399-506 399-1331T3314 415Q2916-91 2278-91q-384 0-661 152-276 152-458 464V0H581v4863h578z" transform="scale(.01563)"/><path id="DejaVuSans-61" d="M2194 1759q-697 0-966-159t-269-544q0-306 202-486 202-179 548-179 479 0 768 339t289 901v128zm1147 238V0h-575v531q-197-318-491-470T1556-91q-537 0-855 302-317 302-317 808 0 590 395 890 396 300 1180 300h807v57q0 397-261 614t-733 217q-300 0-585-72-284-72-546-216v532q315 122 612 182 297 61 578 61 760 0 1135-394 375-393 375-1193z" transform="scale(.01563)"/><path id="DejaVuSans-69" d="M603 3500h575V0H603zm0 1363h575v-729H603z" transform="scale(.01563)"/><path id="DejaVuSans-6c" d="M603 4863h575V0H603z" transform="scale(.01563)"/><path id="DejaVuSans-74" d="M1172 4494v-994h1184v-447H1172V1153q0-428 117-550t477-122h590V0h-590q-666 0-919 248-253 249-253 905v1900H172v447h422v994z" transform="scale(.01563)"/><path id="DejaVuSans-79" d="M2059-325q-243-625-475-815-231-191-618-191H506v481h338q237 0 368 113 132 112 291 531l103 262L191 3500h609L1894 763l1094 2737h609z" transform="scale(.01563)"/><path id="DejaVuSans-44" d="M1259 4147V519h763q966 0 1414 437 448 438 448 1382 0 937-448 1373t-1414 436zm-631 519h1297q1356 0 1990-564 635-564 635-1764 0-1207-638-1773Q3275 0 1925 0H628z" transform="scale(.01563)"/><path id="DejaVuSans-65" d="M3597 1894v-281H953q38-594 358-905t892-311q331 0 642 81t618 244V178Q3153 47 2828-22t-659-69q-838 0-1327 487-489 488-489 1320 0 859 464 1363 464 505 1252 505 706 0 1117-455 411-454 411-1235zm-575 169q-6 471-264 752-258 282-683 282-481 0-770-272t-333-766z" transform="scale(.01563)"/><path id="DejaVuSans-6e" d="M3513 2113V0h-575v2094q0 497-194 743-194 247-581 247-466 0-735-297-269-296-269-809V0H581v3500h578v-544q207 316 486 472 280 156 646 156 603 0 912-373 310-373 310-1098z" transform="scale(.01563)"/><path id="DejaVuSans-73" d="M2834 3397v-544q-243 125-506 187-262 63-544 63-428 0-642-131t-214-394q0-200 153-314t616-217l197-44q612-131 870-370t258-667q0-488-386-773Q2250-91 1575-91q-281 0-586 55T347 128v594q319-166 628-249 309-82 613-82 406 0 624 139 219 139 219 392 0 234-158 359-157 125-692 241l-200 47q-534 112-772 345-237 233-237 639 0 494 350 762 350 269 994 269 318 0 599-47 282-46 519-140z" transform="scale(.01563)"/></defs><use xlink:href="#DejaVuSans-50"/><use xlink:href="#DejaVuSans-72" transform="translate(58.553)"/><use xlink:href="#DejaVuSans-6f" transform="translate(97.416)"/><use xlink:href="#DejaVuSans-62" transform="translate(158.598)"/><use xlink:href="#DejaVuSans-61" transform="translate(222.074)"/><use xlink:href="#DejaVuSans-62" transform="translate(283.354)"/><use xlink:href="#DejaVuSans-69" transform="translate(346.83)"/><use xlink:href="#DejaVuSans-6c" transform="translate(374.613)"/><use xlink:href="#DejaVuSans-69" transform="translate(402.396)"/><use xlink:href="#DejaVuSans-74" transform="translate(430.18)"/><use xlink:href="#DejaVuSans-79" transform="translate(469.389)"/><use xlink:href="#DejaVuSans-44" transform="translate(560.355)"/><use xlink:href="#DejaVuSans-65" transform="translate(637.357)"/><use xlink:href="#DejaVuSans-6e" transform="translate(698.88)"/><use xlink:href="#DejaVuSans-73" transform="translate(762.26)"/><use xlink:href="#DejaVuSans-69" transform="translate(814.36)"/><use xlink:href="#DejaVuSans-74" transform="translate(842.143)"/><use xlink:href="#DejaVuSans-79" transform="translate(881.352)"/></g></g><path id="line2d_25" d="m47.95 285.86 53.277-.099 2.767-.222 1.73-.315 1.384-.431 1.383-.678 1.038-.738 1.038-.998 1.038-1.329 1.038-1.741 1.038-2.245 1.038-2.844 1.037-3.543 1.038-4.337 1.038-5.218 1.038-6.163 1.384-9.746 1.383-11.467 1.73-16.464 2.768-29.316 2.421-24.978 1.384-12.19 1.038-7.509 1.038-5.77.692-2.761.692-1.828.346-.553.345-.307.346-.062.346.185.346.43.692 1.589.692 2.531.692 3.427 1.038 6.674 1.038 8.269 1.383 12.939 2.422 25.515 2.768 28.87 1.73 15.803 1.383 10.833 1.384 9.089 1.384 7.371 1.038 4.479 1.037 3.669 1.038 2.954 1.038 2.337 1.038 1.819 1.038 1.392L159 283.23l1.037.776 1.384.717 1.384.457 1.73.335 2.421.22 4.152.106 15.567.018h206.876" clip-path="url(#p4d5730e67f)" style="fill:none;stroke:#ff0001;stroke-width:2.5;stroke-linecap:square"/><path id="line2d_26" d="M148.75 297.43V31.318" clip-path="url(#p4d5730e67f)" style="fill:none;stroke-dasharray:5.55,2.4;stroke-dashoffset:0;stroke:#ff0001;stroke-opacity:.7;stroke-width:1.5"/><path id="line2d_27" d="m47.95 285.86 90.985-.105 4.843-.238 3.113-.347 2.422-.462 2.076-.595 2.075-.848 1.73-.957 1.73-1.24 1.384-1.233 1.383-1.482 1.384-1.76 1.384-2.069 1.384-2.402 1.73-3.505 1.73-4.09 1.729-4.681 2.076-6.37 2.075-7.1 2.768-10.312 5.881-22.323 2.076-6.863 1.73-4.874 1.383-3.206 1.038-1.943 1.038-1.515 1.038-1.065.692-.45.692-.24.691-.026.692.186.692.398.692.607 1.038 1.292 1.038 1.733 1.038 2.147 1.383 3.45 1.384 4.04 1.73 5.723 2.422 8.884 7.264 27.395 2.076 6.812 2.076 6.034 1.73 4.386 1.73 3.795 1.729 3.223 1.73 2.687 1.73 2.202 1.73 1.772 1.729 1.402 1.73 1.092 1.73.835 2.075.733 2.422.578 2.767.406 3.46.27 5.189.16 11.07.057 135.265.002h0" clip-path="url(#p4d5730e67f)" style="fill:none;stroke:#00ff02;stroke-width:2.5;stroke-linecap:square"/><path id="line2d_28" d="M206.35 297.43V31.318" clip-path="url(#p4d5730e67f)" style="fill:none;stroke-dasharray:5.55,2.4;stroke-dashoffset:0;stroke:#00ff02;stroke-opacity:.7;stroke-width:1.5"/><path id="line2d_29" d="m47.95 285.86 134.228-.106 7.957-.235 5.535-.373 4.151-.485 3.46-.602 3.113-.746 2.768-.867 2.767-1.096 2.422-1.176 2.422-1.404 2.421-1.654 2.422-1.922 2.421-2.201 2.422-2.485 2.768-3.18 2.767-3.518 3.114-4.304 4.151-6.136 7.61-11.344 2.768-3.738 2.422-2.93 2.076-2.19 2.075-1.84 1.73-1.235 1.73-.943 1.384-.533 1.383-.33 1.384-.124 1.384.085 1.384.291 1.384.496 1.383.694 1.73 1.135 1.73 1.415 2.075 2.035 2.076 2.359 2.422 3.09 3.113 4.374 4.844 7.266 5.535 8.227 3.46 4.75 3.113 3.878 2.767 3.08 2.422 2.393 2.421 2.11 2.422 1.835 2.422 1.571 2.421 1.329 2.768 1.25 2.767.998 3.114.869 3.46.708 3.805.54 4.497.405 5.881.287 8.649.166 17.643.058 26.638.003h0" clip-path="url(#p4d5730e67f)" style="fill:none;stroke:#00f;stroke-width:2.5;stroke-linecap:square"/><path id="line2d_30" d="M278.35 297.43V31.318" clip-path="url(#p4d5730e67f)" style="fill:none;stroke-dasharray:5.55,2.4;stroke-dashoffset:0;stroke:#00f;stroke-opacity:.7;stroke-width:1.5"/><path id="line2d_31" d="m47.95 285.86 244.93-.106 3.806-.24 2.422-.348 2.075-.52 1.73-.675 1.384-.758 1.384-1.008 1.383-1.32 1.384-1.701 1.384-2.154 1.384-2.68 1.384-3.28 1.383-3.942 1.384-4.652 1.384-5.39 1.73-7.767 1.73-8.83 2.075-11.731 6.573-38.373 1.384-6.59 1.384-5.48 1.037-3.248 1.038-2.424.692-1.129.692-.724.692-.312.692.104.692.519.692.927.692 1.327 1.037 2.706 1.038 3.508 1.038 4.227 1.384 6.589 1.73 9.405 3.113 18.6L351 236.698l2.075 10.936 1.73 7.99 1.73 6.853 1.384 4.652 1.383 3.942 1.384 3.28 1.384 2.68 1.384 2.154 1.383 1.7 1.384 1.32 1.384 1.01 1.384.757 1.73.675 2.075.52 2.422.348 3.46.227 5.88.103 8.995.016h0" clip-path="url(#p4d5730e67f)" style="fill:none;stroke:#f0f;stroke-width:2.5;stroke-linecap:square"/><path id="line2d_32" d="M350.35 297.43V31.318" clip-path="url(#p4d5730e67f)" style="fill:none;stroke-dasharray:5.55,2.4;stroke-dashoffset:0;stroke:#f0f;stroke-opacity:.7;stroke-width:1.5"/><path d="M42.19 297.43V31.318M42.19 297.43h357.12" class="patch" style="fill:none;stroke:var(--black);stroke-width:.8;stroke-linejoin:miter;stroke-linecap:square"/><g id="text_15" class="text" style="fill:#ff0001" transform="matrix(.11 0 0 -.11 128.246 305.766)"><defs><path id="DejaVuSans-Oblique-3bc" d="m-84-1331 940 4831h578l-425-2178q-12-66-22-147-9-81-9-162 0-291 183-448 183-156 523-156 463 0 747 262 285 263 385 788l397 2041h575L3266 809q-13-59-18-103-4-43-4-78 0-97 39-142t123-45q32 0 86 15 55 16 155 57l-88-463q-137-69-262-105t-244-36q-206 0-323 131-117 132-117 363-175-250-418-372-242-122-570-122-291 0-508 134-217 135-286 354L494-1331z" transform="scale(.01563)"/></defs><use xlink:href="#DejaVuSans-Oblique-3bc" transform="translate(0 .313)"/><use xlink:href="#DejaVuSans-31" transform="matrix(.7 0 0 .7 63.623 -16.094)"/></g><g id="text_16" class="text" style="fill:#00ff02" transform="matrix(.11 0 0 -.11 185.846 305.766)"><use xlink:href="#DejaVuSans-Oblique-3bc" transform="translate(0 .313)"/><use xlink:href="#DejaVuSans-32" transform="matrix(.7 0 0 .7 63.623 -16.094)"/></g><g id="text_17" class="text" style="fill:#00f" transform="matrix(.11 0 0 -.11 257.846 305.766)"><defs><path id="DejaVuSans-33" d="M2597 2516q453-97 707-404 255-306 255-756 0-690-475-1069Q2609-91 1734-91q-293 0-604 58T488 141v609q262-153 574-231 313-78 654-78 593 0 904 234t311 681q0 413-289 645-289 233-804 233h-544v519h569q465 0 712 186t247 536q0 359-255 551-254 193-729 193-260 0-557-57-297-56-653-174v562q360 100 674 150t592 50q719 0 1137-327 419-326 419-882 0-388-222-655t-631-370" transform="scale(.01563)"/></defs><use xlink:href="#DejaVuSans-Oblique-3bc" transform="translate(0 .313)"/><use xlink:href="#DejaVuSans-33" transform="matrix(.7 0 0 .7 63.623 -16.094)"/></g><g id="text_18" class="text" style="fill:#f0f" transform="matrix(.11 0 0 -.11 329.846 305.766)"><use xlink:href="#DejaVuSans-Oblique-3bc" transform="translate(0 .313)"/><use xlink:href="#DejaVuSans-34" transform="matrix(.7 0 0 .7 63.623 -16.094)"/></g><g id="text_19" class="text" transform="matrix(.12 0 0 -.12 138.192 16.318)"><defs><path id="DejaVuSans-43" d="M4122 4306v-665q-319 297-680 443-361 147-767 147-800 0-1225-489t-425-1414q0-922 425-1411t1225-489q406 0 767 147t680 444V359q-331-225-702-338-370-112-782-112-1060 0-1670 648-609 649-609 1771 0 1125 609 1773 610 649 1670 649 418 0 788-111 371-111 696-333" transform="scale(.01563)"/><path id="DejaVuSans-63" d="M3122 3366v-538q-244 135-489 202t-495 67q-560 0-870-355-309-354-309-995t309-996q310-354 870-354 250 0 495 67t489 202V134Q2881 22 2623-34q-257-57-548-57-791 0-1257 497-465 497-465 1341 0 856 470 1346 471 491 1290 491 265 0 518-55 253-54 491-163" transform="scale(.01563)"/><path id="DejaVuSans-66" d="M2375 4863v-479h-550q-309 0-430-125-120-125-120-450v-309h947v-447h-947V0H697v3053H147v447h550v244q0 584 272 851 272 268 862 268z" transform="scale(.01563)"/><path id="DejaVuSans-46" d="M628 4666h2681v-532H1259V2759h1850v-531H1259V0H628z" transform="scale(.01563)"/><path id="DejaVuSans-75" d="M544 1381v2119h575V1403q0-497 193-746 194-248 582-248 465 0 735 297 271 297 271 810v1984h575V0h-575v538q-209-319-486-474-276-155-642-155-603 0-916 375-312 375-312 1097m1447 2203" transform="scale(.01563)"/><path id="DejaVuSans-41" d="m2188 4044-857-2322h1716zm-357 622h716L4325 0h-656l-425 1197H1141L716 0H50z" transform="scale(.01563)"/><path id="DejaVuSans-6d" d="M3328 2828q216 388 516 572t706 184q547 0 844-383 297-382 297-1088V0h-578v2094q0 503-179 746-178 244-543 244-447 0-707-297-259-296-259-809V0h-578v2094q0 506-178 748t-550 242q-441 0-701-298-259-298-259-808V0H581v3500h578v-544q197 322 472 475t653 153q382 0 649-194 267-193 395-562" transform="scale(.01563)"/></defs><use xlink:href="#DejaVuSans-43"/><use xlink:href="#DejaVuSans-6f" transform="translate(69.824)"/><use xlink:href="#DejaVuSans-6e" transform="translate(131.006)"/><use xlink:href="#DejaVuSans-63" transform="translate(194.385)"/><use xlink:href="#DejaVuSans-65" transform="translate(249.365)"/><use xlink:href="#DejaVuSans-6e" transform="translate(310.889)"/><use xlink:href="#DejaVuSans-74" transform="translate(374.268)"/><use xlink:href="#DejaVuSans-72" transform="translate(413.477)"/><use xlink:href="#DejaVuSans-61" transform="translate(454.59)"/><use xlink:href="#DejaVuSans-74" transform="translate(515.87)"/><use xlink:href="#DejaVuSans-69" transform="translate(555.078)"/><use xlink:href="#DejaVuSans-6f" transform="translate(582.861)"/><use xlink:href="#DejaVuSans-6e" transform="translate(644.043)"/><use xlink:href="#DejaVuSans-6f" transform="translate(739.209)"/><use xlink:href="#DejaVuSans-66" transform="translate(800.39)"/><use xlink:href="#DejaVuSans-46" transform="translate(867.383)"/><use xlink:href="#DejaVuSans-6f" transform="translate(921.277)"/><use xlink:href="#DejaVuSans-75" transform="translate(982.459)"/><use xlink:href="#DejaVuSans-72" transform="translate(1045.838)"/><use xlink:href="#DejaVuSans-41" transform="translate(1118.738)"/><use xlink:href="#DejaVuSans-72" transform="translate(1187.146)"/><use xlink:href="#DejaVuSans-6d" transform="translate(1226.51)"/><use xlink:href="#DejaVuSans-73" transform="translate(1323.922)"/></g><g class="legend"><path d="M347.079 96.755h38.79q1.8 0 1.8-1.8V42.94q0-1.8-1.8-1.8h-38.79q-1.8 0-1.8 1.8v52.015q0 1.8 1.8 1.8z" class="patch" style="fill:rgba(255,255,255,.8)!important;opacity:.9;stroke:rgba(0,0,0,.1)!important;stroke-linejoin:miter"/><path id="line2d_33" d="M348.879 48.429h18" style="fill:none;stroke:#ff0001;stroke-width:2.5;stroke-linecap:square"/><g id="text_20" class="text" transform="matrix(.09 0 0 -.09 374.079 51.579)"><use xlink:href="#DejaVuSans-Oblique-3bc" transform="translate(0 .313)"/><use xlink:href="#DejaVuSans-31" transform="matrix(.7 0 0 .7 63.623 -16.094)"/></g><path id="line2d_34" d="M348.879 61.658h18" style="fill:none;stroke:#00ff02;stroke-width:2.5;stroke-linecap:square"/><g id="text_21" class="text" transform="matrix(.09 0 0 -.09 374.079 64.808)"><use xlink:href="#DejaVuSans-Oblique-3bc" transform="translate(0 .313)"/><use xlink:href="#DejaVuSans-32" transform="matrix(.7 0 0 .7 63.623 -16.094)"/></g><path id="line2d_35" d="M348.879 74.886h18" style="fill:none;stroke:#00f;stroke-width:2.5;stroke-linecap:square"/><g id="text_22" class="text" transform="matrix(.09 0 0 -.09 374.079 78.036)"><use xlink:href="#DejaVuSans-Oblique-3bc" transform="translate(0 .313)"/><use xlink:href="#DejaVuSans-33" transform="matrix(.7 0 0 .7 63.623 -16.094)"/></g><path id="line2d_36" d="M348.879 88.115h18" style="fill:none;stroke:#f0f;stroke-width:2.5;stroke-linecap:square"/><g id="text_23" class="text" transform="matrix(.09 0 0 -.09 374.079 91.265)"><use xlink:href="#DejaVuSans-Oblique-3bc" transform="translate(0 .313)"/><use xlink:href="#DejaVuSans-34" transform="matrix(.7 0 0 .7 63.623 -16.094)"/></g></g></g></g><defs><clipPath id="p4d5730e67f"><path d="M42.191 31.318h357.12V297.43H42.191z"/></clipPath></defs></svg>