<svg xmlns="http://www.w3.org/2000/svg" xmlns:xlink="http://www.w3.org/1999/xlink" width="198.524" height="155.142" style="--axis-color:#000;--grid-stroke:rgba(0,0,0,0.2);--plot3d-stroke:rgba(0,0,0,0.3);--plot3d-grid:rgba(0,0,0,0.2);--black:#000000;--c1:#FF0001;--c2:#00FF02;--c3:#0000FF;--c4:#FF00FF;--c5:#00FFFF;--c6:#FFFF00;--c7:#FF8000;--c8:#8000FF;--gray:#7f7f7f;--grey:#7f7f7f;--octonary:#bcbd22;--primary:#d62728;--quaternary:#9467bd;--quinary:#8c564b;--secondary:#2ca02c;--senary:#e377c2;--septenary:#7f7f7f;--tertiary:#1f77b4;--white:#ffffff" viewBox="0 0 198.524 155.142"><style><![CDATA[@media (prefers-color-scheme:dark){:root{--axis-color:#fff;--grid-stroke:rgba(255,255,255,0.2);--plot3d-stroke:rgba(255,255,255,0.3);--plot3d-grid:rgba(255,255,255,0.2);--black:#FFFFFF;--c1:#FF0001;--c2:#00FF02;--c3:#0000FF;--c4:#FF00FF;--c5:#00FFFF;--c6:#FFFF00;--c7:#FF8000;--c8:#8000FF;--gray:#CCCCCC;--grey:#CCCCCC;--octonary:#E6DB74;--primary:#FF4A98;--quaternary:#B4A0FF;--quinary:#FFB86B;--secondary:#0AFAFA;--senary:#FF79C6;--septenary:#CCCCCC;--tertiary:#7F83FF;--white:#000000}}]]></style><defs><path id="global_balance_glyph-0-0" d="M8.313 0v-.734h-2.36v-10.063c0-.5-.031-.5-.578-.5-1.281 1.11-3.187 1.11-3.562 1.11h-.329v.734h.329c.593 0 1.515-.11 2.203-.328v9.047H1.625V0l3.328-.031Zm0 0"/><path id="global_balance_glyph-0-1" d="M8.703-3.703H7.97c-.047.36-.172 1.375-.422 1.547-.14.125-1.484.125-1.75.125H3.14l2.468-2.047c1.922-1.438 3.094-2.313 3.094-3.969 0-2.031-1.844-3.25-4.125-3.25-1.937 0-3.61 1.11-3.61 2.735 0 .921.735 1.171 1.126 1.171.547 0 1.156-.359 1.156-1.156 0-.719-.531-1.078-1.062-1.14.687-.797 1.593-.876 1.968-.876 1.578 0 2.328 1.297 2.328 2.532 0 1.344-.906 2.594-1.609 3.328L1.141-.797c-.172.156-.172.188-.172.5V0h7.234Zm0 0"/><path id="global_balance_glyph-0-2" d="M8.844-3.078c0-.844-.422-2.484-3.094-2.953 1.516-.453 2.563-1.532 2.563-2.89 0-1.282-1.235-2.376-3.626-2.376-1.937 0-3.343 1.016-3.343 2.406 0 .86.672 1.141 1.125 1.141.5 0 1.094-.328 1.094-1.125 0-.39-.172-.969-.985-1.094.735-.703 1.906-.703 2-.703 1.531 0 1.531 1.188 1.531 1.703S6.047-7.656 5.5-6.953c-.453.578-.906.61-1.562.656-.204.016-.547.031-.61.063-.11.046-.11.172-.11.25 0 .28.11.28.454.28H4.5c1.922 0 1.922 1.798 1.922 2.626 0 .765 0 2.594-1.86 2.594-.359 0-1.5-.047-2.328-.641.75-.156 1-.687 1-1.203 0-.703-.5-1.203-1.203-1.203-.719 0-1.219.5-1.219 1.219C.813-.72 2.532.203 4.656.203c2.828 0 4.188-1.562 4.188-3.281m0 0"/><path id="global_balance_glyph-1-0" d="M3.922 0v-.562H2.766v-5.5h-.188c-.594.578-1.453.578-1.765.578v.562c.25 0 .703 0 1.203-.203v4.563H.859V0Zm0 0"/><path id="global_balance_glyph-1-1" d="M4.14 0v-.672H2.454c-.11 0-.203.016-.312.016h-1L2.625-2c.938-.766 1.516-1.25 1.516-2.125 0-1.031-.735-1.937-1.97-1.937-.937 0-1.515.546-1.78 1.437l.406.516c.234-1.047.703-1.344 1.25-1.344.812 0 1.312.61 1.312 1.344 0 .812-.578 1.343-1.25 1.937L.453-.609V0Zm0 0"/><clipPath id="global_balance_clip-0"><path d="M96 0h102.523v103H96Zm0 0"/></clipPath><clipPath id="global_balance_clip-1"><path d="M38 53h122v102.14H38Zm0 0"/></clipPath></defs><path fill="none" stroke="var(--black)" stroke-miterlimit="10" stroke-width="2.268" d="M69.781 41.707c0-15.656-12.691-28.348-28.347-28.348-15.653 0-28.344 12.692-28.344 28.348S25.78 70.055 41.434 70.055c15.656 0 28.347-12.692 28.347-28.348Zm0 0"/><use xlink:href="#global_balance_glyph-0-0" x="36.594" y="47.241" fill="var(--black)"/><g clip-path="url(#global_balance_clip-0)"><path fill="none" stroke="var(--black)" stroke-miterlimit="10" stroke-width="2.268" d="M185.438 41.707c0-15.656-12.692-28.348-28.348-28.348s-28.348 12.692-28.348 28.348 12.692 28.348 28.348 28.348 28.347-12.692 28.347-28.348Zm0 0"/></g><use xlink:href="#global_balance_glyph-0-1" x="152.247" y="47.241" fill="var(--black)"/><g clip-path="url(#global_balance_clip-1)"><path fill="none" stroke="var(--black)" stroke-miterlimit="10" stroke-width="2.268" d="M127.61 113.707c0-15.656-12.692-28.348-28.348-28.348-15.657 0-28.348 12.692-28.348 28.348s12.691 28.348 28.348 28.348 28.347-12.692 28.347-28.348Zm0 0"/></g><use xlink:href="#global_balance_glyph-0-2" x="94.42" y="119.241" fill="var(--black)"/><path fill="none" stroke="var(--black)" stroke-miterlimit="10" stroke-width="2.268" d="M69.137 31.625c22.078-8.035 38.172-8.035 55.742-1.64"/><path fill="var(--black)" d="m129.387 31.625-5.899-6.23 1.39 4.59-4.015 2.62"/><use xlink:href="#global_balance_glyph-1-0" x="96.958" y="21.143" fill="var(--black)"/><path fill="none" stroke="var(--black)" stroke-miterlimit="10" stroke-width="2.268" d="M129.387 51.79c-22.078 8.034-38.172 8.034-55.742 1.64"/><path fill="var(--black)" d="m69.137 51.79 5.898 6.23-1.39-4.59 4.015-2.621"/><use xlink:href="#global_balance_glyph-1-1" x="96.958" y="68.137" fill="var(--black)"/><path fill="none" stroke="var(--black)" stroke-miterlimit="10" stroke-width="2.268" d="M147.605 69.617c-4.644 13.668-10.792 21.324-19.035 26.32"/><path fill="var(--black)" d="m124.469 98.422 8.55-.695-4.449-1.79.473-4.773"/><use xlink:href="#global_balance_glyph-1-0" x="143.377" y="89.272" fill="var(--black)"/><path fill="none" stroke="var(--black)" stroke-miterlimit="10" stroke-width="2.268" d="M108.746 85.797c4.645-13.668 10.793-21.32 19.035-26.32"/><path fill="var(--black)" d="m131.883 56.992-8.551.696 4.45 1.789-.473 4.773"/><use xlink:href="#global_balance_glyph-1-1" x="108.366" y="72.008" fill="var(--black)"/><path fill="none" stroke="var(--black)" stroke-miterlimit="10" stroke-width="2.268" d="M74.055 98.422c-12.34-7.48-18.489-15.137-21.59-24.262"/><path fill="var(--black)" d="m50.922 69.617-1.164 8.504 2.707-3.96 4.558 1.487"/><use xlink:href="#global_balance_glyph-1-1" x="50.539" y="89.272" fill="var(--black)"/><path fill="none" stroke="var(--black)" stroke-miterlimit="10" stroke-width="2.268" d="M66.64 56.992c12.344 7.485 18.493 15.137 21.594 24.262"/><path fill="var(--black)" d="m89.777 85.797 1.164-8.5-2.707 3.957-4.558-1.488"/><use xlink:href="#global_balance_glyph-1-0" x="85.551" y="72.008" fill="var(--black)"/></svg>