<?xml version="1.0" encoding="UTF-8"?>
<svg xmlns="http://www.w3.org/2000/svg" xmlns:xlink="http://www.w3.org/1999/xlink" width="198.524" height="155.142" viewBox="0 0 198.524 155.142">
<style>/* === RDF autogenerated palette === */
:root {
    --axis-color: #000;
    --grid-stroke: rgba(0,0,0,0.2);
    --plot3d-stroke: rgba(0,0,0,0.3);
    --plot3d-grid: rgba(0,0,0,0.2);
}
@media (prefers-color-scheme: dark) {
    :root {
        --axis-color: #fff;
        --grid-stroke: rgba(255,255,255,0.2);
        --plot3d-stroke: rgba(255,255,255,0.3);
        --plot3d-grid: rgba(255,255,255,0.2);
    }
}

/* Light‑mode palette */
.black { fill:#000000; stroke:#000000; }:root { --black: #000000; }.c1 { fill:#FF0001; stroke:#FF0001; }:root { --c1: #FF0001; }.c2 { fill:#00FF02; stroke:#00FF02; }:root { --c2: #00FF02; }.c3 { fill:#0000FF; stroke:#0000FF; }:root { --c3: #0000FF; }.c4 { fill:#FF00FF; stroke:#FF00FF; }:root { --c4: #FF00FF; }.c5 { fill:#00FFFF; stroke:#00FFFF; }:root { --c5: #00FFFF; }.c6 { fill:#FFFF00; stroke:#FFFF00; }:root { --c6: #FFFF00; }.c7 { fill:#FF8000; stroke:#FF8000; }:root { --c7: #FF8000; }.c8 { fill:#8000FF; stroke:#8000FF; }:root { --c8: #8000FF; }.gray { fill:#7f7f7f; stroke:#7f7f7f; }:root { --gray: #7f7f7f; }.grey { fill:#7f7f7f; stroke:#7f7f7f; }:root { --grey: #7f7f7f; }.octonary { fill:#bcbd22; stroke:#bcbd22; }:root { --octonary: #bcbd22; }.primary { fill:#d62728; stroke:#d62728; }:root { --primary: #d62728; }.quaternary { fill:#9467bd; stroke:#9467bd; }:root { --quaternary: #9467bd; }.quinary { fill:#8c564b; stroke:#8c564b; }:root { --quinary: #8c564b; }.secondary { fill:#2ca02c; stroke:#2ca02c; }:root { --secondary: #2ca02c; }.senary { fill:#e377c2; stroke:#e377c2; }:root { --senary: #e377c2; }.septenary { fill:#7f7f7f; stroke:#7f7f7f; }:root { --septenary: #7f7f7f; }.tertiary { fill:#1f77b4; stroke:#1f77b4; }:root { --tertiary: #1f77b4; }.white { fill:#ffffff; stroke:#ffffff; }:root { --white: #ffffff; }

/* Dark overrides */
@media (prefers-color-scheme: dark) {
    .black { fill:#FFFFFF; stroke:#FFFFFF; }:root { --black: #FFFFFF; }.c1 { fill:#FF0001; stroke:#FF0001; }:root { --c1: #FF0001; }.c2 { fill:#00FF02; stroke:#00FF02; }:root { --c2: #00FF02; }.c3 { fill:#0000FF; stroke:#0000FF; }:root { --c3: #0000FF; }.c4 { fill:#FF00FF; stroke:#FF00FF; }:root { --c4: #FF00FF; }.c5 { fill:#00FFFF; stroke:#00FFFF; }:root { --c5: #00FFFF; }.c6 { fill:#FFFF00; stroke:#FFFF00; }:root { --c6: #FFFF00; }.c7 { fill:#FF8000; stroke:#FF8000; }:root { --c7: #FF8000; }.c8 { fill:#8000FF; stroke:#8000FF; }:root { --c8: #8000FF; }.gray { fill:#CCCCCC; stroke:#CCCCCC; }:root { --gray: #CCCCCC; }.grey { fill:#CCCCCC; stroke:#CCCCCC; }:root { --grey: #CCCCCC; }.octonary { fill:#E6DB74; stroke:#E6DB74; }:root { --octonary: #E6DB74; }.primary { fill:#FF4A98; stroke:#FF4A98; }:root { --primary: #FF4A98; }.quaternary { fill:#B4A0FF; stroke:#B4A0FF; }:root { --quaternary: #B4A0FF; }.quinary { fill:#FFB86B; stroke:#FFB86B; }:root { --quinary: #FFB86B; }.secondary { fill:#0AFAFA; stroke:#0AFAFA; }:root { --secondary: #0AFAFA; }.senary { fill:#FF79C6; stroke:#FF79C6; }:root { --senary: #FF79C6; }.septenary { fill:#CCCCCC; stroke:#CCCCCC; }:root { --septenary: #CCCCCC; }.tertiary { fill:#7F83FF; stroke:#7F83FF; }:root { --tertiary: #7F83FF; }.white { fill:#000000; stroke:#000000; }:root { --white: #000000; }
}/* Axis, ticks, legend */
text, .text { fill: var(--axis-color) !important; stroke: none !important; }
.axis line, .axis path,
.tick line, .tick path,
path.domain,
line.grid { stroke: var(--axis-color) !important; }
.legend text { fill: var(--axis-color) !important; }

/* Patch paths that relied on currentColor */
.patch path[style*="stroke: currentColor"] { stroke: var(--axis-color) !important; }

/* Legend background (first child of legend group) */
g.legend > g:first-child > path:first-child {
    fill: rgba(255,255,255,0.8) !important;
    stroke: rgba(0,0,0,0.1) !important;
}
@media (prefers-color-scheme: dark) {
    g.legend > g:first-child > path:first-child {
        fill: rgba(26,26,26,0.8) !important;
        stroke: rgba(255,255,255,0.1) !important;
    }
}

/* 3‑D specific rules */
.plot3d path, .plot3d polygon {
    stroke: var(--plot3d-stroke) !important;
}
.plot3d-grid line { stroke: var(--plot3d-grid) !important; }
.plot3d-surface path[style*="fill:"] {
    fill-opacity: 0.9 !important;
}
@media (prefers-color-scheme: dark) {
    .plot3d-surface path[style*="fill:"] {
        fill-opacity: 0.95 !important;
        filter: saturate(1.2) !important;
    }
}</style>

<defs>
<g class="glyph">
<g id="global_balance_glyph-0-0">
<path d="M 8.3125 0 L 8.3125 -0.734375 L 5.953125 -0.734375 L 5.953125 -10.796875 C 5.953125 -11.296875 5.921875 -11.296875 5.375 -11.296875 C 4.09375 -10.1875 2.1875 -10.1875 1.8125 -10.1875 L 1.484375 -10.1875 L 1.484375 -9.453125 L 1.8125 -9.453125 C 2.40625 -9.453125 3.328125 -9.5625 4.015625 -9.78125 L 4.015625 -0.734375 L 1.625 -0.734375 L 1.625 0 L 4.953125 -0.03125 Z M 8.3125 0 "/>
</g>
<g id="global_balance_glyph-0-1">
<path d="M 8.703125 -3.703125 L 7.96875 -3.703125 C 7.921875 -3.34375 7.796875 -2.328125 7.546875 -2.15625 C 7.40625 -2.03125 6.0625 -2.03125 5.796875 -2.03125 L 3.140625 -2.03125 L 5.609375 -4.078125 C 7.53125 -5.515625 8.703125 -6.390625 8.703125 -8.046875 C 8.703125 -10.078125 6.859375 -11.296875 4.578125 -11.296875 C 2.640625 -11.296875 0.96875 -10.1875 0.96875 -8.5625 C 0.96875 -7.640625 1.703125 -7.390625 2.09375 -7.390625 C 2.640625 -7.390625 3.25 -7.75 3.25 -8.546875 C 3.25 -9.265625 2.71875 -9.625 2.1875 -9.6875 C 2.875 -10.484375 3.78125 -10.5625 4.15625 -10.5625 C 5.734375 -10.5625 6.484375 -9.265625 6.484375 -8.03125 C 6.484375 -6.6875 5.578125 -5.4375 4.875 -4.703125 L 1.140625 -0.796875 C 0.96875 -0.640625 0.96875 -0.609375 0.96875 -0.296875 L 0.96875 0 L 8.203125 0 Z M 8.703125 -3.703125 "/>
</g>
<g id="global_balance_glyph-0-2">
<path d="M 8.84375 -3.078125 C 8.84375 -3.921875 8.421875 -5.5625 5.75 -6.03125 C 7.265625 -6.484375 8.3125 -7.5625 8.3125 -8.921875 C 8.3125 -10.203125 7.078125 -11.296875 4.6875 -11.296875 C 2.75 -11.296875 1.34375 -10.28125 1.34375 -8.890625 C 1.34375 -8.03125 2.015625 -7.75 2.46875 -7.75 C 2.96875 -7.75 3.5625 -8.078125 3.5625 -8.875 C 3.5625 -9.265625 3.390625 -9.84375 2.578125 -9.96875 C 3.3125 -10.671875 4.484375 -10.671875 4.578125 -10.671875 C 6.109375 -10.671875 6.109375 -9.484375 6.109375 -8.96875 C 6.109375 -8.453125 6.046875 -7.65625 5.5 -6.953125 C 5.046875 -6.375 4.59375 -6.34375 3.9375 -6.296875 C 3.734375 -6.28125 3.390625 -6.265625 3.328125 -6.234375 C 3.21875 -6.1875 3.21875 -6.0625 3.21875 -5.984375 C 3.21875 -5.703125 3.328125 -5.703125 3.671875 -5.703125 L 4.5 -5.703125 C 6.421875 -5.703125 6.421875 -3.90625 6.421875 -3.078125 C 6.421875 -2.3125 6.421875 -0.484375 4.5625 -0.484375 C 4.203125 -0.484375 3.0625 -0.53125 2.234375 -1.125 C 2.984375 -1.28125 3.234375 -1.8125 3.234375 -2.328125 C 3.234375 -3.03125 2.734375 -3.53125 2.03125 -3.53125 C 1.3125 -3.53125 0.8125 -3.03125 0.8125 -2.3125 C 0.8125 -0.71875 2.53125 0.203125 4.65625 0.203125 C 7.484375 0.203125 8.84375 -1.359375 8.84375 -3.078125 Z M 8.84375 -3.078125 "/>
</g>
<g id="global_balance_glyph-1-0">
<path d="M 3.921875 0 L 3.921875 -0.5625 L 2.765625 -0.5625 L 2.765625 -6.0625 L 2.578125 -6.0625 C 1.984375 -5.484375 1.125 -5.484375 0.8125 -5.484375 L 0.8125 -4.921875 C 1.0625 -4.921875 1.515625 -4.921875 2.015625 -5.125 L 2.015625 -0.5625 L 0.859375 -0.5625 L 0.859375 0 Z M 3.921875 0 "/>
</g>
<g id="global_balance_glyph-1-1">
<path d="M 4.140625 0 L 4.140625 -0.671875 L 2.453125 -0.671875 C 2.34375 -0.671875 2.25 -0.65625 2.140625 -0.65625 L 1.140625 -0.65625 L 2.625 -2 C 3.5625 -2.765625 4.140625 -3.25 4.140625 -4.125 C 4.140625 -5.15625 3.40625 -6.0625 2.171875 -6.0625 C 1.234375 -6.0625 0.65625 -5.515625 0.390625 -4.625 L 0.796875 -4.109375 C 1.03125 -5.15625 1.5 -5.453125 2.046875 -5.453125 C 2.859375 -5.453125 3.359375 -4.84375 3.359375 -4.109375 C 3.359375 -3.296875 2.78125 -2.765625 2.109375 -2.171875 L 0.453125 -0.609375 L 0.453125 0 Z M 4.140625 0 "/>
</g>
</g>
<clipPath id="global_balance_clip-0">
<path clip-rule="nonzero" d="M 96 0 L 198.523438 0 L 198.523438 103 L 96 103 Z M 96 0 "/>
</clipPath>
<clipPath id="global_balance_clip-1">
<path clip-rule="nonzero" d="M 38 53 L 160 53 L 160 155.140625 L 38 155.140625 Z M 38 53 "/>
</clipPath>
</defs>
<path fill="none" stroke-width="2.26773" stroke-linecap="butt" stroke-linejoin="miter" stroke="var(--black)" stroke-opacity="1" stroke-miterlimit="10" d="M 28.34625 -0.00003125 C 28.34625 15.656219 15.654844 28.347625 -0.00140625 28.347625 C -15.65375 28.347625 -28.345156 15.656219 -28.345156 -0.00003125 C -28.345156 -15.656281 -15.65375 -28.347688 -0.00140625 -28.347688 C 15.654844 -28.347688 28.34625 -15.656281 28.34625 -0.00003125 Z M 28.34625 -0.00003125 " transform="matrix(1, 0, 0, -1, 41.435, 41.707)"/>
<g fill="var(--black)" fill-opacity="1">
<use xlink:href="#global_balance_glyph-0-0" x="36.594" y="47.241"/>
</g>
<g clip-path="url(#global_balance_clip-0)">
<path fill="none" stroke-width="2.26773" stroke-linecap="butt" stroke-linejoin="miter" stroke="var(--black)" stroke-opacity="1" stroke-miterlimit="10" d="M 144.0025 -0.00003125 C 144.0025 15.656219 131.311094 28.347625 115.654844 28.347625 C 99.998594 28.347625 87.307187 15.656219 87.307187 -0.00003125 C 87.307187 -15.656281 99.998594 -28.347688 115.654844 -28.347688 C 131.311094 -28.347688 144.0025 -15.656281 144.0025 -0.00003125 Z M 144.0025 -0.00003125 " transform="matrix(1, 0, 0, -1, 41.435, 41.707)"/>
</g>
<g fill="var(--black)" fill-opacity="1">
<use xlink:href="#global_balance_glyph-0-1" x="152.247" y="47.241"/>
</g>
<g clip-path="url(#global_balance_clip-1)">
<path fill="none" stroke-width="2.26773" stroke-linecap="butt" stroke-linejoin="miter" stroke="var(--black)" stroke-opacity="1" stroke-miterlimit="10" d="M 86.174375 -72.000031 C 86.174375 -56.343781 73.482969 -43.652375 57.826719 -43.652375 C 42.170469 -43.652375 29.479062 -56.343781 29.479062 -72.000031 C 29.479062 -87.656281 42.170469 -100.347688 57.826719 -100.347688 C 73.482969 -100.347688 86.174375 -87.656281 86.174375 -72.000031 Z M 86.174375 -72.000031 " transform="matrix(1, 0, 0, -1, 41.435, 41.707)"/>
</g>
<g fill="var(--black)" fill-opacity="1">
<use xlink:href="#global_balance_glyph-0-2" x="94.42" y="119.241"/>
</g>
<path fill="none" stroke-width="2.26773" stroke-linecap="butt" stroke-linejoin="miter" stroke="var(--black)" stroke-opacity="1" stroke-miterlimit="10" d="M 27.701719 10.082 C 49.779844 18.117156 65.873594 18.117156 83.443906 11.722625 " transform="matrix(1, 0, 0, -1, 41.435, 41.707)"/>
<path fill-rule="nonzero" fill="var(--black)" fill-opacity="1" d="M 129.386719 31.625 L 123.488281 25.394531 L 124.878906 29.984375 L 120.863281 32.605469 "/>
<g fill="var(--black)" fill-opacity="1">
<use xlink:href="#global_balance_glyph-1-0" x="96.958" y="21.143"/>
</g>
<path fill="none" stroke-width="2.26773" stroke-linecap="butt" stroke-linejoin="miter" stroke="var(--black)" stroke-opacity="1" stroke-miterlimit="10" d="M 87.951719 -10.082063 C 65.873594 -18.117219 49.779844 -18.117219 32.209531 -11.722688 " transform="matrix(1, 0, 0, -1, 41.435, 41.707)"/>
<path fill-rule="nonzero" fill="var(--black)" fill-opacity="1" d="M 69.136719 51.789062 L 75.035156 58.019531 L 73.644531 53.429688 L 77.660156 50.808594 "/>
<g fill="var(--black)" fill-opacity="1">
<use xlink:href="#global_balance_glyph-1-1" x="96.958" y="68.137"/>
</g>
<path fill="none" stroke-width="2.26773" stroke-linecap="butt" stroke-linejoin="miter" stroke="var(--black)" stroke-opacity="1" stroke-miterlimit="10" d="M 106.170469 -27.910188 C 101.525937 -41.578156 95.3775 -49.234406 87.135312 -54.2305 " transform="matrix(1, 0, 0, -1, 41.435, 41.707)"/>
<path fill-rule="nonzero" fill="var(--black)" fill-opacity="1" d="M 124.46875 98.421875 L 133.019531 97.726562 L 128.570312 95.9375 L 129.042969 91.164062 "/>
<g fill="var(--black)" fill-opacity="1">
<use xlink:href="#global_balance_glyph-1-0" x="143.377" y="89.272"/>
</g>
<path fill="none" stroke-width="2.26773" stroke-linecap="butt" stroke-linejoin="miter" stroke="var(--black)" stroke-opacity="1" stroke-miterlimit="10" d="M 67.311094 -44.089875 C 71.955625 -30.421906 78.104062 -22.769563 86.34625 -17.769563 " transform="matrix(1, 0, 0, -1, 41.435, 41.707)"/>
<path fill-rule="nonzero" fill="var(--black)" fill-opacity="1" d="M 131.882812 56.992188 L 123.332031 57.6875 L 127.78125 59.476562 L 127.308594 64.25 "/>
<g fill="var(--black)" fill-opacity="1">
<use xlink:href="#global_balance_glyph-1-1" x="108.366" y="72.008"/>
</g>
<path fill="none" stroke-width="2.26773" stroke-linecap="butt" stroke-linejoin="miter" stroke="var(--black)" stroke-opacity="1" stroke-miterlimit="10" d="M 32.619687 -56.714875 C 20.279844 -49.234406 14.131406 -41.578156 11.029844 -32.453156 " transform="matrix(1, 0, 0, -1, 41.435, 41.707)"/>
<path fill-rule="nonzero" fill="var(--black)" fill-opacity="1" d="M 50.921875 69.617188 L 49.757812 78.121094 L 52.464844 74.160156 L 57.023438 75.648438 "/>
<g fill="var(--black)" fill-opacity="1">
<use xlink:href="#global_balance_glyph-1-1" x="50.539" y="89.272"/>
</g>
<path fill="none" stroke-width="2.26773" stroke-linecap="butt" stroke-linejoin="miter" stroke="var(--black)" stroke-opacity="1" stroke-miterlimit="10" d="M 25.205625 -15.285188 C 37.549375 -22.769563 43.697812 -30.421906 46.799375 -39.546906 " transform="matrix(1, 0, 0, -1, 41.435, 41.707)"/>
<path fill-rule="nonzero" fill="var(--black)" fill-opacity="1" d="M 89.777344 85.796875 L 90.941406 77.296875 L 88.234375 81.253906 L 83.675781 79.765625 "/>
<g fill="var(--black)" fill-opacity="1">
<use xlink:href="#global_balance_glyph-1-0" x="85.551" y="72.008"/>
</g>
</svg>
