<svg xmlns="http://www.w3.org/2000/svg" xmlns:xlink="http://www.w3.org/1999/xlink" width="544.135" height="446.649" viewBox="0 0 408.101 334.986"><style><![CDATA[.text{fill:#000!important;stroke:none!important}.axis path,.tick path,[stroke=black],[stroke=currentColor]{stroke:#000!important}@media (prefers-color-scheme:dark){.text{fill:#fff!important;stroke:none!important}.axis path,.tick path,[stroke=black],[stroke=currentColor]{stroke:#fff!important}g.legend>g:first-child>path:first-child{fill:rgba(26,26,26,.8)!important;stroke:rgba(255,255,255,.1)!important}}*{stroke-linejoin:round;stroke-linecap:butt}]]></style><g id="figure_1"><path d="M0 334.986h408.101V0H0z" class="patch" style="fill:none"/><g id="axes_1"><path d="M43.781 297.43h357.12V31.318H43.781z" class="patch" style="fill:none"/><path d="M69.66 297.43h9.316v-23.167H69.66z" class="patch" clip-path="url(#pa9fa2b4225)" style="fill:#ff0001;opacity:.3"/><path d="M78.976 297.43h9.316V193.178h-9.316z" class="patch" clip-path="url(#pa9fa2b4225)" style="fill:#ff0001;opacity:.3"/><path d="M88.292 297.43h9.316V-3.742h-9.316z" class="patch" clip-path="url(#pa9fa2b4225)" style="fill:#ff0001;opacity:.3"/><path d="M97.608 297.43h9.316V170.011h-9.316z" class="patch" clip-path="url(#pa9fa2b4225)" style="fill:#ff0001;opacity:.3"/><path d="M106.924 297.43h9.316v-23.167h-9.316z" class="patch" clip-path="url(#pa9fa2b4225)" style="fill:#ff0001;opacity:.3"/><path d="M173.173 297.43h21.737v-14.893h-21.737z" class="patch" clip-path="url(#pa9fa2b4225)" style="fill:#00ff02;opacity:.3"/><path d="M194.91 297.43h21.738v-24.822H194.91z" class="patch" clip-path="url(#pa9fa2b4225)" style="fill:#00ff02;opacity:.3"/><path d="M216.648 297.43h21.738v-74.466h-21.738z" class="patch" clip-path="url(#pa9fa2b4225)" style="fill:#00ff02;opacity:.3"/><path d="M238.386 297.43h21.738V218h-21.738z" class="patch" clip-path="url(#pa9fa2b4225)" style="fill:#00ff02;opacity:.3"/><path d="M260.124 297.43h21.737v-54.608h-21.737z" class="patch" clip-path="url(#pa9fa2b4225)" style="fill:#00ff02;opacity:.3"/><path d="M250.807 297.43h24.843v-26.063h-24.843z" class="patch" clip-path="url(#pa9fa2b4225)" style="fill:#00f;opacity:.3"/><path d="M275.65 297.43h24.844V227.93H275.65z" class="patch" clip-path="url(#pa9fa2b4225)" style="fill:#00f;opacity:.3"/><path d="M300.494 297.43h24.843v-73.845h-24.843z" class="patch" clip-path="url(#pa9fa2b4225)" style="fill:#00f;opacity:.3"/><path d="M325.337 297.43h24.843v-30.407h-24.843z" class="patch" clip-path="url(#pa9fa2b4225)" style="fill:#00f;opacity:.3"/><path d="M350.18 297.43h24.843v-17.375H350.18z" class="patch" clip-path="url(#pa9fa2b4225)" style="fill:#00f;opacity:.3"/><g class="axis"><g class="tick xtick"><path id="line2d_1" d="M69.66 297.43V31.318" clip-path="url(#pa9fa2b4225)" style="fill:none;stroke:#b0b0b0;stroke-opacity:.15;stroke-width:.8;stroke-linecap:square"/><g id="line2d_2"><defs><path id="m2e55ab9165" d="M0 0v3.5" style="stroke:currentColor;stroke-width:.8"/></defs><use xlink:href="#m2e55ab9165" x="69.66" y="297.43" style="stroke:currentColor;stroke-width:.8"/></g><g id="text_1" class="text" transform="matrix(.1 0 0 -.1 66.478 312.029)"><defs><path id="DejaVuSans-31" d="M794 531h1031v3560L703 3866v575l1116 225h631V531h1031V0H794z" transform="scale(.01563)"/></defs><use xlink:href="#DejaVuSans-31"/></g></g><g class="tick xtick"><path id="line2d_3" d="M121.416 297.43V31.318" clip-path="url(#pa9fa2b4225)" style="fill:none;stroke:#b0b0b0;stroke-opacity:.15;stroke-width:.8;stroke-linecap:square"/><use xlink:href="#m2e55ab9165" id="line2d_4" x="121.416" y="297.43" style="stroke:currentColor;stroke-width:.8"/><g id="text_2" class="text" transform="matrix(.1 0 0 -.1 118.235 312.029)"><defs><path id="DejaVuSans-32" d="M1228 531h2203V0H469v531q359 372 979 998 621 627 780 809 303 340 423 576 121 236 121 464 0 372-261 606-261 235-680 235-297 0-627-103-329-103-704-313v638q381 153 712 231 332 78 607 78 725 0 1156-363 431-362 431-968 0-288-108-546-107-257-392-607-78-91-497-524-418-433-1181-1211z" transform="scale(.01563)"/></defs><use xlink:href="#DejaVuSans-32"/></g></g><g class="tick xtick"><path id="line2d_5" d="M173.173 297.43V31.318" clip-path="url(#pa9fa2b4225)" style="fill:none;stroke:#b0b0b0;stroke-opacity:.15;stroke-width:.8;stroke-linecap:square"/><use xlink:href="#m2e55ab9165" id="line2d_6" x="173.173" y="297.43" style="stroke:currentColor;stroke-width:.8"/><g id="text_3" class="text" transform="matrix(.1 0 0 -.1 169.991 312.029)"><defs><path id="DejaVuSans-33" d="M2597 2516q453-97 707-404 255-306 255-756 0-690-475-1069Q2609-91 1734-91q-293 0-604 58T488 141v609q262-153 574-231 313-78 654-78 593 0 904 234t311 681q0 413-289 645-289 233-804 233h-544v519h569q465 0 712 186t247 536q0 359-255 551-254 193-729 193-260 0-557-57-297-56-653-174v562q360 100 674 150t592 50q719 0 1137-327 419-326 419-882 0-388-222-655t-631-370z" transform="scale(.01563)"/></defs><use xlink:href="#DejaVuSans-33"/></g></g><g class="tick xtick"><path id="line2d_7" d="M224.93 297.43V31.318" clip-path="url(#pa9fa2b4225)" style="fill:none;stroke:#b0b0b0;stroke-opacity:.15;stroke-width:.8;stroke-linecap:square"/><use xlink:href="#m2e55ab9165" id="line2d_8" x="224.929" y="297.43" style="stroke:currentColor;stroke-width:.8"/><g id="text_4" class="text" transform="matrix(.1 0 0 -.1 221.748 312.029)"><defs><path id="DejaVuSans-34" d="M2419 4116 825 1625h1594zm-166 550h794V1625h666v-525h-666V0h-628v1100H313v609z" transform="scale(.01563)"/></defs><use xlink:href="#DejaVuSans-34"/></g></g><g class="tick xtick"><path id="line2d_9" d="M276.686 297.43V31.318" clip-path="url(#pa9fa2b4225)" style="fill:none;stroke:#b0b0b0;stroke-opacity:.15;stroke-width:.8;stroke-linecap:square"/><use xlink:href="#m2e55ab9165" id="line2d_10" x="276.686" y="297.43" style="stroke:currentColor;stroke-width:.8"/><g id="text_5" class="text" transform="matrix(.1 0 0 -.1 273.504 312.029)"><defs><path id="DejaVuSans-35" d="M691 4666h2478v-532H1269V2991q137 47 274 70 138 23 276 23 781 0 1237-428 457-428 457-1159 0-753-469-1171Q2575-91 1722-91q-294 0-599 50Q819 9 494 109v635q281-153 581-228t634-75q541 0 856 284 316 284 316 772 0 487-316 771-315 285-856 285-253 0-505-56-251-56-513-175z" transform="scale(.01563)"/></defs><use xlink:href="#DejaVuSans-35"/></g></g><g class="tick xtick"><path id="line2d_11" d="M328.442 297.43V31.318" clip-path="url(#pa9fa2b4225)" style="fill:none;stroke:#b0b0b0;stroke-opacity:.15;stroke-width:.8;stroke-linecap:square"/><use xlink:href="#m2e55ab9165" id="line2d_12" x="328.442" y="297.43" style="stroke:currentColor;stroke-width:.8"/><g id="text_6" class="text" transform="matrix(.1 0 0 -.1 325.26 312.029)"><defs><path id="DejaVuSans-36" d="M2113 2584q-425 0-674-291-248-290-248-796 0-503 248-796 249-292 674-292t673 292q248 293 248 796 0 506-248 796-248 291-673 291zm1253 1979v-575q-238 112-480 171-242 60-480 60-625 0-955-422-329-422-376-1275 184 272 462 417 279 145 613 145 703 0 1111-427 408-426 408-1160 0-719-425-1154Q2819-91 2113-91q-810 0-1238 620-428 621-428 1799 0 1106 525 1764t1409 658q238 0 480-47t505-140z" transform="scale(.01563)"/></defs><use xlink:href="#DejaVuSans-36"/></g></g><g class="tick xtick"><path id="line2d_13" d="M380.199 297.43V31.318" clip-path="url(#pa9fa2b4225)" style="fill:none;stroke:#b0b0b0;stroke-opacity:.15;stroke-width:.8;stroke-linecap:square"/><use xlink:href="#m2e55ab9165" id="line2d_14" x="380.199" y="297.43" style="stroke:currentColor;stroke-width:.8"/><g id="text_7" class="text" transform="matrix(.1 0 0 -.1 377.017 312.029)"><defs><path id="DejaVuSans-37" d="M525 4666h3000v-269L1831 0h-659l1594 4134H525z" transform="scale(.01563)"/></defs><use xlink:href="#DejaVuSans-37"/></g></g><g id="text_8" class="text" transform="matrix(.1 0 0 -.1 178.072 325.707)"><defs><path id="DejaVuSans-50" d="M1259 4147V2394h794q441 0 681 228 241 228 241 650 0 419-241 647-240 228-681 228zm-631 519h1425q785 0 1186-355 402-355 402-1039 0-691-402-1044-401-353-1186-353h-794V0H628z" transform="scale(.01563)"/><path id="DejaVuSans-65" d="M3597 1894v-281H953q38-594 358-905t892-311q331 0 642 81t618 244V178Q3153 47 2828-22t-659-69q-838 0-1327 487-489 488-489 1320 0 859 464 1363 464 505 1252 505 706 0 1117-455 411-454 411-1235zm-575 169q-6 471-264 752-258 282-683 282-481 0-770-272t-333-766z" transform="scale(.01563)"/><path id="DejaVuSans-74" d="M1172 4494v-994h1184v-447H1172V1153q0-428 117-550t477-122h590V0h-590q-666 0-919 248-253 249-253 905v1900H172v447h422v994z" transform="scale(.01563)"/><path id="DejaVuSans-61" d="M2194 1759q-697 0-966-159t-269-544q0-306 202-486 202-179 548-179 479 0 768 339t289 901v128zm1147 238V0h-575v531q-197-318-491-470T1556-91q-537 0-855 302-317 302-317 808 0 590 395 890 396 300 1180 300h807v57q0 397-261 614t-733 217q-300 0-585-72-284-72-546-216v532q315 122 612 182 297 61 578 61 760 0 1135-394 375-393 375-1193z" transform="scale(.01563)"/><path id="DejaVuSans-6c" d="M603 4863h575V0H603z" transform="scale(.01563)"/><path id="DejaVuSans-4c" d="M628 4666h631V531h2272V0H628z" transform="scale(.01563)"/><path id="DejaVuSans-6e" d="M3513 2113V0h-575v2094q0 497-194 743-194 247-581 247-466 0-735-297-269-296-269-809V0H581v3500h578v-544q207 316 486 472 280 156 646 156 603 0 912-373 310-373 310-1098z" transform="scale(.01563)"/><path id="DejaVuSans-67" d="M2906 1791q0 625-258 968-257 344-723 344-462 0-720-344-258-343-258-968 0-622 258-966t720-344q466 0 723 344 258 344 258 966zm575-1357q0-893-397-1329-396-436-1215-436-303 0-572 45t-522 139v559q253-137 500-202 247-66 503-66 566 0 847 295t281 892v285q-178-310-456-463T1784 0Q1141 0 747 490 353 981 353 1791q0 812 394 1302 394 491 1037 491 388 0 666-153t456-462v531h575z" transform="scale(.01563)"/><path id="DejaVuSans-68" d="M3513 2113V0h-575v2094q0 497-194 743-194 247-581 247-466 0-735-297-269-296-269-809V0H581v4863h578V2956q207 316 486 472 280 156 646 156 603 0 912-373 310-373 310-1098z" transform="scale(.01563)"/><path id="DejaVuSans-28" d="M1984 4856q-418-718-622-1422-203-703-203-1425 0-721 205-1429t620-1424h-500Q1016-109 783 600T550 2009q0 697 231 1403 232 707 703 1444z" transform="scale(.01563)"/><path id="DejaVuSans-63" d="M3122 3366v-538q-244 135-489 202t-495 67q-560 0-870-355-309-354-309-995t309-996q310-354 870-354 250 0 495 67t489 202V134Q2881 22 2623-34q-257-57-548-57-791 0-1257 497-465 497-465 1341 0 856 470 1346 471 491 1290 491 265 0 518-55 253-54 491-163z" transform="scale(.01563)"/><path id="DejaVuSans-6d" d="M3328 2828q216 388 516 572t706 184q547 0 844-383 297-382 297-1088V0h-578v2094q0 503-179 746-178 244-543 244-447 0-707-297-259-296-259-809V0h-578v2094q0 506-178 748t-550 242q-441 0-701-298-259-298-259-808V0H581v3500h578v-544q197 322 472 475t653 153q382 0 649-194 267-193 395-562z" transform="scale(.01563)"/><path id="DejaVuSans-29" d="M513 4856h500q468-737 701-1444 233-706 233-1403 0-700-233-1409T1013-844H513q415 716 620 1424t205 1429q0 722-205 1425-205 704-620 1422z" transform="scale(.01563)"/></defs><use xlink:href="#DejaVuSans-50"/><use xlink:href="#DejaVuSans-65" transform="translate(56.678)"/><use xlink:href="#DejaVuSans-74" transform="translate(118.201)"/><use xlink:href="#DejaVuSans-61" transform="translate(157.41)"/><use xlink:href="#DejaVuSans-6c" transform="translate(218.69)"/><use xlink:href="#DejaVuSans-4c" transform="translate(278.26)"/><use xlink:href="#DejaVuSans-65" transform="translate(332.223)"/><use xlink:href="#DejaVuSans-6e" transform="translate(393.746)"/><use xlink:href="#DejaVuSans-67" transform="translate(457.125)"/><use xlink:href="#DejaVuSans-74" transform="translate(520.602)"/><use xlink:href="#DejaVuSans-68" transform="translate(559.81)"/><use xlink:href="#DejaVuSans-28" transform="translate(654.977)"/><use xlink:href="#DejaVuSans-63" transform="translate(693.99)"/><use xlink:href="#DejaVuSans-6d" transform="translate(748.97)"/><use xlink:href="#DejaVuSans-29" transform="translate(846.383)"/></g></g><g class="axis"><g class="tick ytick"><path id="line2d_15" d="M43.781 297.43h357.12" clip-path="url(#pa9fa2b4225)" style="fill:none;stroke:#b0b0b0;stroke-opacity:.15;stroke-width:.8;stroke-linecap:square"/><g id="line2d_16"><defs><path id="m0dbae5e5a6" d="M0 0h-3.5" style="stroke:currentColor;stroke-width:.8"/></defs><use xlink:href="#m0dbae5e5a6" x="43.781" y="297.43" style="stroke:currentColor;stroke-width:.8"/></g><g id="text_9" class="text" transform="matrix(.1 0 0 -.1 20.878 301.23)"><defs><path id="DejaVuSans-30" d="M2034 4250q-487 0-733-480-245-479-245-1442 0-959 245-1439 246-480 733-480 491 0 736 480 246 480 246 1439 0 963-246 1442-245 480-736 480zm0 500q785 0 1199-621 414-620 414-1801 0-1178-414-1799Q2819-91 2034-91q-784 0-1198 620-414 621-414 1799 0 1181 414 1801 414 621 1198 621z" transform="scale(.01563)"/><path id="DejaVuSans-2e" d="M684 794h660V0H684z" transform="scale(.01563)"/></defs><use xlink:href="#DejaVuSans-30"/><use xlink:href="#DejaVuSans-2e" transform="translate(63.623)"/><use xlink:href="#DejaVuSans-30" transform="translate(95.41)"/></g></g><g class="tick ytick"><path id="line2d_17" d="M43.781 245.304h357.12" clip-path="url(#pa9fa2b4225)" style="fill:none;stroke:#b0b0b0;stroke-opacity:.15;stroke-width:.8;stroke-linecap:square"/><use xlink:href="#m0dbae5e5a6" id="line2d_18" x="43.781" y="245.304" style="stroke:currentColor;stroke-width:.8"/><g id="text_10" class="text" transform="matrix(.1 0 0 -.1 20.878 249.103)"><use xlink:href="#DejaVuSans-30"/><use xlink:href="#DejaVuSans-2e" transform="translate(63.623)"/><use xlink:href="#DejaVuSans-35" transform="translate(95.41)"/></g></g><g class="tick ytick"><path id="line2d_19" d="M43.781 193.178h357.12" clip-path="url(#pa9fa2b4225)" style="fill:none;stroke:#b0b0b0;stroke-opacity:.15;stroke-width:.8;stroke-linecap:square"/><use xlink:href="#m0dbae5e5a6" id="line2d_20" x="43.781" y="193.178" style="stroke:currentColor;stroke-width:.8"/><g id="text_11" class="text" transform="matrix(.1 0 0 -.1 20.878 196.977)"><use xlink:href="#DejaVuSans-31"/><use xlink:href="#DejaVuSans-2e" transform="translate(63.623)"/><use xlink:href="#DejaVuSans-30" transform="translate(95.41)"/></g></g><g class="tick ytick"><path id="line2d_21" d="M43.781 141.052h357.12" clip-path="url(#pa9fa2b4225)" style="fill:none;stroke:#b0b0b0;stroke-opacity:.15;stroke-width:.8;stroke-linecap:square"/><use xlink:href="#m0dbae5e5a6" id="line2d_22" x="43.781" y="141.052" style="stroke:currentColor;stroke-width:.8"/><g id="text_12" class="text" transform="matrix(.1 0 0 -.1 20.878 144.851)"><use xlink:href="#DejaVuSans-31"/><use xlink:href="#DejaVuSans-2e" transform="translate(63.623)"/><use xlink:href="#DejaVuSans-35" transform="translate(95.41)"/></g></g><g class="tick ytick"><path id="line2d_23" d="M43.781 88.926h357.12" clip-path="url(#pa9fa2b4225)" style="fill:none;stroke:#b0b0b0;stroke-opacity:.15;stroke-width:.8;stroke-linecap:square"/><use xlink:href="#m0dbae5e5a6" id="line2d_24" x="43.781" y="88.926" style="stroke:currentColor;stroke-width:.8"/><g id="text_13" class="text" transform="matrix(.1 0 0 -.1 20.878 92.725)"><use xlink:href="#DejaVuSans-32"/><use xlink:href="#DejaVuSans-2e" transform="translate(63.623)"/><use xlink:href="#DejaVuSans-30" transform="translate(95.41)"/></g></g><g class="tick ytick"><path id="line2d_25" d="M43.781 36.8h357.12" clip-path="url(#pa9fa2b4225)" style="fill:none;stroke:#b0b0b0;stroke-opacity:.15;stroke-width:.8;stroke-linecap:square"/><use xlink:href="#m0dbae5e5a6" id="line2d_26" x="43.781" y="36.8" style="stroke:currentColor;stroke-width:.8"/><g id="text_14" class="text" transform="matrix(.1 0 0 -.1 20.878 40.6)"><use xlink:href="#DejaVuSans-32"/><use xlink:href="#DejaVuSans-2e" transform="translate(63.623)"/><use xlink:href="#DejaVuSans-35" transform="translate(95.41)"/></g></g><g id="text_15" class="text" transform="matrix(0 -.1 -.1 0 14.798 183.383)"><defs><path id="DejaVuSans-44" d="M1259 4147V519h763q966 0 1414 437 448 438 448 1382 0 937-448 1373t-1414 436zm-631 519h1297q1356 0 1990-564 635-564 635-1764 0-1207-638-1773Q3275 0 1925 0H628z" transform="scale(.01563)"/><path id="DejaVuSans-73" d="M2834 3397v-544q-243 125-506 187-262 63-544 63-428 0-642-131t-214-394q0-200 153-314t616-217l197-44q612-131 870-370t258-667q0-488-386-773Q2250-91 1575-91q-281 0-586 55T347 128v594q319-166 628-249 309-82 613-82 406 0 624 139 219 139 219 392 0 234-158 359-157 125-692 241l-200 47q-534 112-772 345-237 233-237 639 0 494 350 762 350 269 994 269 318 0 599-47 282-46 519-140z" transform="scale(.01563)"/><path id="DejaVuSans-69" d="M603 3500h575V0H603zm0 1363h575v-729H603z" transform="scale(.01563)"/><path id="DejaVuSans-79" d="M2059-325q-243-625-475-815-231-191-618-191H506v481h338q237 0 368 113 132 112 291 531l103 262L191 3500h609L1894 763l1094 2737h609z" transform="scale(.01563)"/></defs><use xlink:href="#DejaVuSans-44"/><use xlink:href="#DejaVuSans-65" transform="translate(77.002)"/><use xlink:href="#DejaVuSans-6e" transform="translate(138.525)"/><use xlink:href="#DejaVuSans-73" transform="translate(201.904)"/><use xlink:href="#DejaVuSans-69" transform="translate(254.004)"/><use xlink:href="#DejaVuSans-74" transform="translate(281.787)"/><use xlink:href="#DejaVuSans-79" transform="translate(320.996)"/></g></g><path id="line2d_27" d="m43.781 297.43 14.357-.087 3.589-.313 1.795-.407 1.794-.756 1.795-1.343 1.794-2.282 1.795-3.704 1.794-5.74 1.795-8.486 1.795-11.95 1.794-16.01L79.673 226l1.794-24.48 3.59-57.139 1.794-28.843 1.795-25.663 1.794-19.843 1.795-11.809 1.794-2.392 1.795 7.31 1.794 16.146 1.795 23.129 1.795 27.626 3.589 58.232 1.794 26.227 1.795 22.436 1.794 18.125 1.795 13.878 1.795 10.095 1.794 6.992 1.795 4.616 1.794 2.908 1.795 1.75 1.794 1.008 1.795.554 1.795.292 3.589.218 8.973.057H400.9" clip-path="url(#pa9fa2b4225)" style="fill:none;stroke-dasharray:7.4,3.2;stroke-dashoffset:0;stroke:#ff0001;stroke-opacity:.8;stroke-width:2"/><path id="line2d_28" d="m43.781 297.43 105.88-.1 7.178-.189 5.384-.311 3.59-.351 3.588-.524 3.59-.76 3.589-1.08 3.589-1.49 1.794-.934 1.795-1.076 1.795-1.234 1.794-1.404 1.795-1.587 1.794-1.782 1.795-1.988 1.794-2.201 1.795-2.42 1.795-2.641 1.794-2.862 3.59-6.357 3.588-7.116 3.59-7.698 10.767-23.693 3.59-6.863 1.794-3.014 1.794-2.674 1.795-2.291 1.794-1.874 1.795-1.425 1.795-.953 1.794-.466 1.795.03 1.794.524 1.795 1.01 1.794 1.48 1.795 1.925 1.795 2.339 1.794 2.716 1.795 3.051 1.794 3.34 3.59 7.351 5.383 11.943 5.384 11.909 3.589 7.398 3.59 6.709 3.588 5.886 1.795 2.615 1.794 2.394 1.795 2.175 1.795 1.963 1.794 1.759 1.795 1.565 1.794 1.383 1.795 1.214 1.794 1.058 1.795.917 3.59 1.464 3.588 1.058 3.59.744 3.589.512 5.383.467 7.179.292 10.767.136 30.508.031H400.9" clip-path="url(#pa9fa2b4225)" style="fill:none;stroke-dasharray:7.4,3.2;stroke-dashoffset:0;stroke:#00ff02;stroke-opacity:.8;stroke-width:2"/><path id="line2d_29" d="m43.781 297.43 157.923-.093 8.973-.19 7.178-.358 5.384-.493 3.589-.492 3.589-.667 3.589-.89 3.59-1.165 3.588-1.496 3.59-1.884 3.589-2.33 3.589-2.822 3.589-3.35 3.589-3.895 3.59-4.431 3.588-4.928 3.59-5.35 5.383-8.57 7.178-11.601 3.59-5.438 3.589-4.913 1.794-2.195 1.795-1.989 1.794-1.759 1.795-1.51 1.795-1.243 1.794-.961 1.795-.668 1.794-.368 1.795-.062 1.794.244 1.795.547 1.795.844 1.794 1.13 1.795 1.404 1.794 1.66 1.795 1.899 1.794 2.114 3.59 4.782 3.589 5.348 5.383 8.62 7.179 11.558 3.589 5.424 3.59 5.02 3.588 4.536 3.59 4.006 3.589 3.46 3.589 2.927 3.589 2.425 3.589 1.97 3.59 1.57 3.588 1.228 3.59.94 3.589.71 3.589.523 5.383.528 7.179.385 1.794.06" clip-path="url(#pa9fa2b4225)" style="fill:none;stroke-dasharray:7.4,3.2;stroke-dashoffset:0;stroke:#00f;stroke-opacity:.8;stroke-width:2"/><path d="M43.781 297.43V31.318M43.781 297.43h357.12" class="patch" style="fill:none;stroke:currentColor;stroke-width:.8;stroke-linejoin:miter;stroke-linecap:square"/><g id="text_16" class="text" transform="matrix(.12 0 0 -.12 80.97 16.318)"><defs><path id="DejaVuSans-49" d="M628 4666h631V0H628z" transform="scale(.01563)"/><path id="DejaVuSans-72" d="M2631 2963q-97 56-211 82-114 27-251 27-488 0-749-317t-261-911V0H581v3500h578v-544q182 319 472 473 291 155 707 155 59 0 131-8 72-7 159-23z" transform="scale(.01563)"/><path id="DejaVuSans-62" d="M3116 1747q0 634-261 995t-717 361q-457 0-718-361t-261-995 261-995 718-361q456 0 717 361t261 995zM1159 2969q182 312 458 463 277 152 661 152 638 0 1036-506 399-506 399-1331T3314 415Q2916-91 2278-91q-384 0-661 152-276 152-458 464V0H581v4863h578z" transform="scale(.01563)"/><path id="DejaVuSans-75" d="M544 1381v2119h575V1403q0-497 193-746 194-248 582-248 465 0 735 297 271 297 271 810v1984h575V0h-575v538q-209-319-486-474-276-155-642-155-603 0-916 375-312 375-312 1097zm1447 2203z" transform="scale(.01563)"/><path id="DejaVuSans-6f" d="M1959 3097q-462 0-731-361t-269-989 267-989q268-361 733-361 460 0 728 362 269 363 269 988 0 622-269 986-268 364-728 364zm0 487q750 0 1178-488 429-487 429-1349 0-859-429-1349Q2709-91 1959-91q-753 0-1180 489-426 490-426 1349 0 862 426 1349 427 488 1180 488z" transform="scale(.01563)"/><path id="DejaVuSans-77" d="M269 3500h575l719-2731 715 2731h678l719-2731 716 2731h575L4050 0h-678l-753 2869L1863 0h-679z" transform="scale(.01563)"/><path id="DejaVuSans-47" d="M3809 666v1253H2778v519h1656V434q-365-259-806-392-440-133-940-133-1094 0-1712 639-617 640-617 1780 0 1144 617 1783 618 639 1712 639 456 0 867-113 411-112 758-331v-672q-350 297-744 447t-828 150q-857 0-1287-478-429-478-429-1425 0-944 429-1422 430-478 1287-478 334 0 596 58 263 58 472 180z" transform="scale(.01563)"/><path id="DejaVuSans-46" d="M628 4666h2681v-532H1259V2759h1850v-531H1259V0H628z" transform="scale(.01563)"/></defs><use xlink:href="#DejaVuSans-49"/><use xlink:href="#DejaVuSans-72" transform="translate(29.492)"/><use xlink:href="#DejaVuSans-69" transform="translate(70.605)"/><use xlink:href="#DejaVuSans-73" transform="translate(98.389)"/><use xlink:href="#DejaVuSans-50" transform="translate(182.275)"/><use xlink:href="#DejaVuSans-65" transform="translate(238.953)"/><use xlink:href="#DejaVuSans-74" transform="translate(300.477)"/><use xlink:href="#DejaVuSans-61" transform="translate(339.686)"/><use xlink:href="#DejaVuSans-6c" transform="translate(400.965)"/><use xlink:href="#DejaVuSans-4c" transform="translate(460.535)"/><use xlink:href="#DejaVuSans-65" transform="translate(514.498)"/><use xlink:href="#DejaVuSans-6e" transform="translate(576.021)"/><use xlink:href="#DejaVuSans-67" transform="translate(639.4)"/><use xlink:href="#DejaVuSans-74" transform="translate(702.877)"/><use xlink:href="#DejaVuSans-68" transform="translate(742.086)"/><use xlink:href="#DejaVuSans-44" transform="translate(837.252)"/><use xlink:href="#DejaVuSans-69" transform="translate(914.254)"/><use xlink:href="#DejaVuSans-73" transform="translate(942.037)"/><use xlink:href="#DejaVuSans-74" transform="translate(994.137)"/><use xlink:href="#DejaVuSans-72" transform="translate(1033.346)"/><use xlink:href="#DejaVuSans-69" transform="translate(1074.459)"/><use xlink:href="#DejaVuSans-62" transform="translate(1102.242)"/><use xlink:href="#DejaVuSans-75" transform="translate(1165.719)"/><use xlink:href="#DejaVuSans-74" transform="translate(1229.098)"/><use xlink:href="#DejaVuSans-69" transform="translate(1268.307)"/><use xlink:href="#DejaVuSans-6f" transform="translate(1296.09)"/><use xlink:href="#DejaVuSans-6e" transform="translate(1357.271)"/><use xlink:href="#DejaVuSans-77" transform="translate(1452.438)"/><use xlink:href="#DejaVuSans-69" transform="translate(1534.225)"/><use xlink:href="#DejaVuSans-74" transform="translate(1562.008)"/><use xlink:href="#DejaVuSans-68" transform="translate(1601.217)"/><use xlink:href="#DejaVuSans-47" transform="translate(1696.383)"/><use xlink:href="#DejaVuSans-61" transform="translate(1773.873)"/><use xlink:href="#DejaVuSans-75" transform="translate(1835.152)"/><use xlink:href="#DejaVuSans-73" transform="translate(1898.531)"/><use xlink:href="#DejaVuSans-73" transform="translate(1950.63)"/><use xlink:href="#DejaVuSans-69" transform="translate(2002.73)"/><use xlink:href="#DejaVuSans-61" transform="translate(2030.514)"/><use xlink:href="#DejaVuSans-6e" transform="translate(2091.793)"/><use xlink:href="#DejaVuSans-46" transform="translate(2186.959)"/><use xlink:href="#DejaVuSans-69" transform="translate(2237.229)"/><use xlink:href="#DejaVuSans-74" transform="translate(2265.012)"/><use xlink:href="#DejaVuSans-73" transform="translate(2304.22)"/></g><g class="legend"><path d="M146.876 78.15h247.725q1.8 0 1.8-1.8V37.617q0-1.8-1.8-1.8H146.876q-1.8 0-1.8 1.8V76.35q0 1.8 1.8 1.8z" class="patch" style="fill:rgba(255,255,255,.8)!important;opacity:.9;stroke:rgba(0,0,0,.1)!important;stroke-linejoin:miter"/><path d="M148.676 46.257h18v-6.3h-18z" class="patch" style="fill:#ff0001;opacity:.3"/><g id="text_17" class="text" transform="matrix(.09 0 0 -.09 173.876 46.257)"><defs><path id="DejaVuSans-64" d="M2906 2969v1894h575V0h-575v525q-181-312-458-464-276-152-664-152-634 0-1033 506-398 507-398 1332t398 1331q399 506 1033 506 388 0 664-152 277-151 458-463zM947 1747q0-634 261-995t717-361 718 361q263 361 263 995t-263 995q-262 361-718 361t-717-361-261-995z" transform="scale(.01563)"/></defs><use xlink:href="#DejaVuSans-73"/><use xlink:href="#DejaVuSans-65" transform="translate(52.1)"/><use xlink:href="#DejaVuSans-74" transform="translate(113.623)"/><use xlink:href="#DejaVuSans-6f" transform="translate(152.832)"/><use xlink:href="#DejaVuSans-73" transform="translate(214.014)"/><use xlink:href="#DejaVuSans-61" transform="translate(266.113)"/><use xlink:href="#DejaVuSans-28" transform="translate(359.18)"/><use xlink:href="#DejaVuSans-64" transform="translate(398.193)"/><use xlink:href="#DejaVuSans-61" transform="translate(461.67)"/><use xlink:href="#DejaVuSans-74" transform="translate(522.95)"/><use xlink:href="#DejaVuSans-61" transform="translate(562.158)"/><use xlink:href="#DejaVuSans-29" transform="translate(623.438)"/></g><path id="line2d_30" d="M148.676 56.317h18" style="fill:none;stroke-dasharray:7.4,3.2;stroke-dashoffset:0;stroke:#ff0001;stroke-opacity:.8;stroke-width:2"/><g id="text_18" class="text" transform="matrix(.09 0 0 -.09 173.876 59.467)"><use xlink:href="#DejaVuSans-73"/><use xlink:href="#DejaVuSans-65" transform="translate(52.1)"/><use xlink:href="#DejaVuSans-74" transform="translate(113.623)"/><use xlink:href="#DejaVuSans-6f" transform="translate(152.832)"/><use xlink:href="#DejaVuSans-73" transform="translate(214.014)"/><use xlink:href="#DejaVuSans-61" transform="translate(266.113)"/><use xlink:href="#DejaVuSans-28" transform="translate(359.18)"/><use xlink:href="#DejaVuSans-47" transform="translate(398.193)"/><use xlink:href="#DejaVuSans-61" transform="translate(475.684)"/><use xlink:href="#DejaVuSans-75" transform="translate(536.963)"/><use xlink:href="#DejaVuSans-73" transform="translate(600.342)"/><use xlink:href="#DejaVuSans-73" transform="translate(652.441)"/><use xlink:href="#DejaVuSans-69" transform="translate(704.541)"/><use xlink:href="#DejaVuSans-61" transform="translate(732.324)"/><use xlink:href="#DejaVuSans-6e" transform="translate(793.604)"/><use xlink:href="#DejaVuSans-29" transform="translate(856.982)"/></g><path d="M148.676 72.677h18v-6.3h-18z" class="patch" style="fill:#00ff02;opacity:.3"/><g id="text_19" class="text" transform="matrix(.09 0 0 -.09 173.876 72.677)"><defs><path id="DejaVuSans-76" d="M191 3500h609L1894 563l1094 2937h609L2284 0h-781z" transform="scale(.01563)"/></defs><use xlink:href="#DejaVuSans-76"/><use xlink:href="#DejaVuSans-65" transform="translate(59.18)"/><use xlink:href="#DejaVuSans-72" transform="translate(120.703)"/><use xlink:href="#DejaVuSans-73" transform="translate(161.816)"/><use xlink:href="#DejaVuSans-69" transform="translate(213.916)"/><use xlink:href="#DejaVuSans-63" transform="translate(241.7)"/><use xlink:href="#DejaVuSans-6f" transform="translate(296.68)"/><use xlink:href="#DejaVuSans-6c" transform="translate(357.861)"/><use xlink:href="#DejaVuSans-6f" transform="translate(385.645)"/><use xlink:href="#DejaVuSans-72" transform="translate(446.826)"/><use xlink:href="#DejaVuSans-28" transform="translate(519.727)"/><use xlink:href="#DejaVuSans-64" transform="translate(558.74)"/><use xlink:href="#DejaVuSans-61" transform="translate(622.217)"/><use xlink:href="#DejaVuSans-74" transform="translate(683.496)"/><use xlink:href="#DejaVuSans-61" transform="translate(722.705)"/><use xlink:href="#DejaVuSans-29" transform="translate(783.984)"/></g><path id="line2d_31" d="M272.513 43.107h18" style="fill:none;stroke-dasharray:7.4,3.2;stroke-dashoffset:0;stroke:#00ff02;stroke-opacity:.8;stroke-width:2"/><g id="text_20" class="text" transform="matrix(.09 0 0 -.09 297.713 46.257)"><use xlink:href="#DejaVuSans-76"/><use xlink:href="#DejaVuSans-65" transform="translate(59.18)"/><use xlink:href="#DejaVuSans-72" transform="translate(120.703)"/><use xlink:href="#DejaVuSans-73" transform="translate(161.816)"/><use xlink:href="#DejaVuSans-69" transform="translate(213.916)"/><use xlink:href="#DejaVuSans-63" transform="translate(241.7)"/><use xlink:href="#DejaVuSans-6f" transform="translate(296.68)"/><use xlink:href="#DejaVuSans-6c" transform="translate(357.861)"/><use xlink:href="#DejaVuSans-6f" transform="translate(385.645)"/><use xlink:href="#DejaVuSans-72" transform="translate(446.826)"/><use xlink:href="#DejaVuSans-28" transform="translate(519.727)"/><use xlink:href="#DejaVuSans-47" transform="translate(558.74)"/><use xlink:href="#DejaVuSans-61" transform="translate(636.23)"/><use xlink:href="#DejaVuSans-75" transform="translate(697.51)"/><use xlink:href="#DejaVuSans-73" transform="translate(760.889)"/><use xlink:href="#DejaVuSans-73" transform="translate(812.988)"/><use xlink:href="#DejaVuSans-69" transform="translate(865.088)"/><use xlink:href="#DejaVuSans-61" transform="translate(892.871)"/><use xlink:href="#DejaVuSans-6e" transform="translate(954.15)"/><use xlink:href="#DejaVuSans-29" transform="translate(1017.53)"/></g><path d="M272.513 59.467h18v-6.3h-18z" class="patch" style="fill:#00f;opacity:.3"/><g id="text_21" class="text" transform="matrix(.09 0 0 -.09 297.713 59.467)"><use xlink:href="#DejaVuSans-76"/><use xlink:href="#DejaVuSans-69" transform="translate(59.18)"/><use xlink:href="#DejaVuSans-72" transform="translate(86.963)"/><use xlink:href="#DejaVuSans-67" transform="translate(126.326)"/><use xlink:href="#DejaVuSans-69" transform="translate(189.803)"/><use xlink:href="#DejaVuSans-6e" transform="translate(217.586)"/><use xlink:href="#DejaVuSans-69" transform="translate(280.965)"/><use xlink:href="#DejaVuSans-63" transform="translate(308.748)"/><use xlink:href="#DejaVuSans-61" transform="translate(363.729)"/><use xlink:href="#DejaVuSans-28" transform="translate(456.795)"/><use xlink:href="#DejaVuSans-64" transform="translate(495.809)"/><use xlink:href="#DejaVuSans-61" transform="translate(559.285)"/><use xlink:href="#DejaVuSans-74" transform="translate(620.564)"/><use xlink:href="#DejaVuSans-61" transform="translate(659.773)"/><use xlink:href="#DejaVuSans-29" transform="translate(721.053)"/></g><path id="line2d_32" d="M272.513 69.527h18" style="fill:none;stroke-dasharray:7.4,3.2;stroke-dashoffset:0;stroke:#00f;stroke-opacity:.8;stroke-width:2"/><g id="text_22" class="text" transform="matrix(.09 0 0 -.09 297.713 72.677)"><use xlink:href="#DejaVuSans-76"/><use xlink:href="#DejaVuSans-69" transform="translate(59.18)"/><use xlink:href="#DejaVuSans-72" transform="translate(86.963)"/><use xlink:href="#DejaVuSans-67" transform="translate(126.326)"/><use xlink:href="#DejaVuSans-69" transform="translate(189.803)"/><use xlink:href="#DejaVuSans-6e" transform="translate(217.586)"/><use xlink:href="#DejaVuSans-69" transform="translate(280.965)"/><use xlink:href="#DejaVuSans-63" transform="translate(308.748)"/><use xlink:href="#DejaVuSans-61" transform="translate(363.729)"/><use xlink:href="#DejaVuSans-28" transform="translate(456.795)"/><use xlink:href="#DejaVuSans-47" transform="translate(495.809)"/><use xlink:href="#DejaVuSans-61" transform="translate(573.299)"/><use xlink:href="#DejaVuSans-75" transform="translate(634.578)"/><use xlink:href="#DejaVuSans-73" transform="translate(697.957)"/><use xlink:href="#DejaVuSans-73" transform="translate(750.057)"/><use xlink:href="#DejaVuSans-69" transform="translate(802.156)"/><use xlink:href="#DejaVuSans-61" transform="translate(829.94)"/><use xlink:href="#DejaVuSans-6e" transform="translate(891.219)"/><use xlink:href="#DejaVuSans-29" transform="translate(954.598)"/></g></g></g></g><defs><clipPath id="pa9fa2b4225"><path d="M43.781 31.318h357.12V297.43H43.781z"/></clipPath></defs></svg>