<svg xmlns="http://www.w3.org/2000/svg" xmlns:xlink="http://www.w3.org/1999/xlink" width="539.898" height="446.649" viewBox="0 0 404.923 334.986"><style><![CDATA[.text{fill:#000!important;stroke:none!important}.axis path,.tick path,[stroke=black],[stroke=currentColor]{stroke:#000!important}@media (prefers-color-scheme:dark){.text{fill:#fff!important;stroke:none!important}.axis path,.tick path,[stroke=black],[stroke=currentColor]{stroke:#fff!important}g.legend>g:first-child>path:first-child{fill:rgba(26,26,26,.8)!important;stroke:rgba(255,255,255,.1)!important}}*{stroke-linejoin:round;stroke-linecap:butt}]]></style><g id="figure_1"><path d="M0 334.986h404.923V0H0z" class="patch" style="fill:none"/><g id="axes_1"><path d="M40.603 297.43h357.12V31.318H40.603z" class="patch" style="fill:none"/><path d="M88.863 297.43h8.686v-9.677h-8.686z" class="patch" clip-path="url(#p376b04b303)" style="fill:#ff0001;opacity:.7"/><path d="M97.55 297.43h8.686v-43.545h-8.687z" class="patch" clip-path="url(#p376b04b303)" style="fill:#ff0001;opacity:.7"/><path d="M106.236 297.43h8.687V171.632h-8.687z" class="patch" clip-path="url(#p376b04b303)" style="fill:#ff0001;opacity:.7"/><path d="M114.923 297.43h8.686v-53.222h-8.686z" class="patch" clip-path="url(#p376b04b303)" style="fill:#ff0001;opacity:.7"/><path d="M123.61 297.43h8.686v-9.677h-8.687z" class="patch" clip-path="url(#p376b04b303)" style="fill:#ff0001;opacity:.7"/><path d="M185.382 297.43h20.268v-14.515h-20.268z" class="patch" clip-path="url(#p376b04b303)" style="fill:#00ff02;opacity:.7"/><path d="M205.65 297.43h20.27v-24.192h-20.27z" class="patch" clip-path="url(#p376b04b303)" style="fill:#00ff02;opacity:.7"/><path d="M225.92 297.43h20.268v-72.576H225.92z" class="patch" clip-path="url(#p376b04b303)" style="fill:#00ff02;opacity:.7"/><path d="M246.188 297.43h20.27v-77.414h-20.27z" class="patch" clip-path="url(#p376b04b303)" style="fill:#00ff02;opacity:.7"/><path d="M266.457 297.43h20.27v-53.222h-20.27z" class="patch" clip-path="url(#p376b04b303)" style="fill:#00ff02;opacity:.7"/><path d="M257.77 297.43h23.165V268.4h-23.164z" class="patch" clip-path="url(#p376b04b303)" style="fill:#00f;opacity:.7"/><path d="M280.935 297.43H304.1v-77.414h-23.165z" class="patch" clip-path="url(#p376b04b303)" style="fill:#00f;opacity:.7"/><path d="M304.1 297.43h23.164v-82.253H304.1z" class="patch" clip-path="url(#p376b04b303)" style="fill:#00f;opacity:.7"/><path d="M327.264 297.43h23.165v-33.869h-23.165z" class="patch" clip-path="url(#p376b04b303)" style="fill:#00f;opacity:.7"/><path d="M350.429 297.43h23.164v-19.353H350.43z" class="patch" clip-path="url(#p376b04b303)" style="fill:#00f;opacity:.7"/><g class="axis"><g class="tick xtick"><path id="line2d_1" d="M40.603 297.43V31.318" clip-path="url(#p376b04b303)" style="fill:none;stroke:#b0b0b0;stroke-opacity:.15;stroke-width:.8;stroke-linecap:square"/><g id="line2d_2"><defs><path id="m8e500f5949" d="M0 0v3.5" style="stroke:currentColor;stroke-width:.8"/></defs><use xlink:href="#m8e500f5949" x="40.603" y="297.43" style="stroke:currentColor;stroke-width:.8"/></g><g id="text_1" class="text" transform="matrix(.1 0 0 -.1 37.422 312.029)"><defs><path id="DejaVuSans-30" d="M2034 4250q-487 0-733-480-245-479-245-1442 0-959 245-1439 246-480 733-480 491 0 736 480 246 480 246 1439 0 963-246 1442-245 480-736 480zm0 500q785 0 1199-621 414-620 414-1801 0-1178-414-1799Q2819-91 2034-91q-784 0-1198 620-414 621-414 1799 0 1181 414 1801 414 621 1198 621z" transform="scale(.01563)"/></defs><use xlink:href="#DejaVuSans-30"/></g></g><g class="tick xtick"><path id="line2d_3" d="M88.863 297.43V31.318" clip-path="url(#p376b04b303)" style="fill:none;stroke:#b0b0b0;stroke-opacity:.15;stroke-width:.8;stroke-linecap:square"/><use xlink:href="#m8e500f5949" id="line2d_4" x="88.863" y="297.43" style="stroke:currentColor;stroke-width:.8"/><g id="text_2" class="text" transform="matrix(.1 0 0 -.1 85.681 312.029)"><defs><path id="DejaVuSans-31" d="M794 531h1031v3560L703 3866v575l1116 225h631V531h1031V0H794z" transform="scale(.01563)"/></defs><use xlink:href="#DejaVuSans-31"/></g></g><g class="tick xtick"><path id="line2d_5" d="M137.122 297.43V31.318" clip-path="url(#p376b04b303)" style="fill:none;stroke:#b0b0b0;stroke-opacity:.15;stroke-width:.8;stroke-linecap:square"/><use xlink:href="#m8e500f5949" id="line2d_6" x="137.122" y="297.43" style="stroke:currentColor;stroke-width:.8"/><g id="text_3" class="text" transform="matrix(.1 0 0 -.1 133.94 312.029)"><defs><path id="DejaVuSans-32" d="M1228 531h2203V0H469v531q359 372 979 998 621 627 780 809 303 340 423 576 121 236 121 464 0 372-261 606-261 235-680 235-297 0-627-103-329-103-704-313v638q381 153 712 231 332 78 607 78 725 0 1156-363 431-362 431-968 0-288-108-546-107-257-392-607-78-91-497-524-418-433-1181-1211z" transform="scale(.01563)"/></defs><use xlink:href="#DejaVuSans-32"/></g></g><g class="tick xtick"><path id="line2d_7" d="M185.382 297.43V31.318" clip-path="url(#p376b04b303)" style="fill:none;stroke:#b0b0b0;stroke-opacity:.15;stroke-width:.8;stroke-linecap:square"/><use xlink:href="#m8e500f5949" id="line2d_8" x="185.382" y="297.43" style="stroke:currentColor;stroke-width:.8"/><g id="text_4" class="text" transform="matrix(.1 0 0 -.1 182.2 312.029)"><defs><path id="DejaVuSans-33" d="M2597 2516q453-97 707-404 255-306 255-756 0-690-475-1069Q2609-91 1734-91q-293 0-604 58T488 141v609q262-153 574-231 313-78 654-78 593 0 904 234t311 681q0 413-289 645-289 233-804 233h-544v519h569q465 0 712 186t247 536q0 359-255 551-254 193-729 193-260 0-557-57-297-56-653-174v562q360 100 674 150t592 50q719 0 1137-327 419-326 419-882 0-388-222-655t-631-370z" transform="scale(.01563)"/></defs><use xlink:href="#DejaVuSans-33"/></g></g><g class="tick xtick"><path id="line2d_9" d="M233.641 297.43V31.318" clip-path="url(#p376b04b303)" style="fill:none;stroke:#b0b0b0;stroke-opacity:.15;stroke-width:.8;stroke-linecap:square"/><use xlink:href="#m8e500f5949" id="line2d_10" x="233.641" y="297.43" style="stroke:currentColor;stroke-width:.8"/><g id="text_5" class="text" transform="matrix(.1 0 0 -.1 230.46 312.029)"><defs><path id="DejaVuSans-34" d="M2419 4116 825 1625h1594zm-166 550h794V1625h666v-525h-666V0h-628v1100H313v609z" transform="scale(.01563)"/></defs><use xlink:href="#DejaVuSans-34"/></g></g><g class="tick xtick"><path id="line2d_11" d="M281.9 297.43V31.318" clip-path="url(#p376b04b303)" style="fill:none;stroke:#b0b0b0;stroke-opacity:.15;stroke-width:.8;stroke-linecap:square"/><use xlink:href="#m8e500f5949" id="line2d_12" x="281.9" y="297.43" style="stroke:currentColor;stroke-width:.8"/><g id="text_6" class="text" transform="matrix(.1 0 0 -.1 278.72 312.029)"><defs><path id="DejaVuSans-35" d="M691 4666h2478v-532H1269V2991q137 47 274 70 138 23 276 23 781 0 1237-428 457-428 457-1159 0-753-469-1171Q2575-91 1722-91q-294 0-599 50Q819 9 494 109v635q281-153 581-228t634-75q541 0 856 284 316 284 316 772 0 487-316 771-315 285-856 285-253 0-505-56-251-56-513-175z" transform="scale(.01563)"/></defs><use xlink:href="#DejaVuSans-35"/></g></g><g class="tick xtick"><path id="line2d_13" d="M330.16 297.43V31.318" clip-path="url(#p376b04b303)" style="fill:none;stroke:#b0b0b0;stroke-opacity:.15;stroke-width:.8;stroke-linecap:square"/><use xlink:href="#m8e500f5949" id="line2d_14" x="330.16" y="297.43" style="stroke:currentColor;stroke-width:.8"/><g id="text_7" class="text" transform="matrix(.1 0 0 -.1 326.979 312.029)"><defs><path id="DejaVuSans-36" d="M2113 2584q-425 0-674-291-248-290-248-796 0-503 248-796 249-292 674-292t673 292q248 293 248 796 0 506-248 796-248 291-673 291zm1253 1979v-575q-238 112-480 171-242 60-480 60-625 0-955-422-329-422-376-1275 184 272 462 417 279 145 613 145 703 0 1111-427 408-426 408-1160 0-719-425-1154Q2819-91 2113-91q-810 0-1238 620-428 621-428 1799 0 1106 525 1764t1409 658q238 0 480-47t505-140z" transform="scale(.01563)"/></defs><use xlink:href="#DejaVuSans-36"/></g></g><g class="tick xtick"><path id="line2d_15" d="M378.42 297.43V31.318" clip-path="url(#p376b04b303)" style="fill:none;stroke:#b0b0b0;stroke-opacity:.15;stroke-width:.8;stroke-linecap:square"/><use xlink:href="#m8e500f5949" id="line2d_16" x="378.419" y="297.43" style="stroke:currentColor;stroke-width:.8"/><g id="text_8" class="text" transform="matrix(.1 0 0 -.1 375.238 312.029)"><defs><path id="DejaVuSans-37" d="M525 4666h3000v-269L1831 0h-659l1594 4134H525z" transform="scale(.01563)"/></defs><use xlink:href="#DejaVuSans-37"/></g></g><g id="text_9" class="text" transform="matrix(.1 0 0 -.1 174.894 325.707)"><defs><path id="DejaVuSans-50" d="M1259 4147V2394h794q441 0 681 228 241 228 241 650 0 419-241 647-240 228-681 228zm-631 519h1425q785 0 1186-355 402-355 402-1039 0-691-402-1044-401-353-1186-353h-794V0H628z" transform="scale(.01563)"/><path id="DejaVuSans-65" d="M3597 1894v-281H953q38-594 358-905t892-311q331 0 642 81t618 244V178Q3153 47 2828-22t-659-69q-838 0-1327 487-489 488-489 1320 0 859 464 1363 464 505 1252 505 706 0 1117-455 411-454 411-1235zm-575 169q-6 471-264 752-258 282-683 282-481 0-770-272t-333-766z" transform="scale(.01563)"/><path id="DejaVuSans-74" d="M1172 4494v-994h1184v-447H1172V1153q0-428 117-550t477-122h590V0h-590q-666 0-919 248-253 249-253 905v1900H172v447h422v994z" transform="scale(.01563)"/><path id="DejaVuSans-61" d="M2194 1759q-697 0-966-159t-269-544q0-306 202-486 202-179 548-179 479 0 768 339t289 901v128zm1147 238V0h-575v531q-197-318-491-470T1556-91q-537 0-855 302-317 302-317 808 0 590 395 890 396 300 1180 300h807v57q0 397-261 614t-733 217q-300 0-585-72-284-72-546-216v532q315 122 612 182 297 61 578 61 760 0 1135-394 375-393 375-1193z" transform="scale(.01563)"/><path id="DejaVuSans-6c" d="M603 4863h575V0H603z" transform="scale(.01563)"/><path id="DejaVuSans-4c" d="M628 4666h631V531h2272V0H628z" transform="scale(.01563)"/><path id="DejaVuSans-6e" d="M3513 2113V0h-575v2094q0 497-194 743-194 247-581 247-466 0-735-297-269-296-269-809V0H581v3500h578v-544q207 316 486 472 280 156 646 156 603 0 912-373 310-373 310-1098z" transform="scale(.01563)"/><path id="DejaVuSans-67" d="M2906 1791q0 625-258 968-257 344-723 344-462 0-720-344-258-343-258-968 0-622 258-966t720-344q466 0 723 344 258 344 258 966zm575-1357q0-893-397-1329-396-436-1215-436-303 0-572 45t-522 139v559q253-137 500-202 247-66 503-66 566 0 847 295t281 892v285q-178-310-456-463T1784 0Q1141 0 747 490 353 981 353 1791q0 812 394 1302 394 491 1037 491 388 0 666-153t456-462v531h575z" transform="scale(.01563)"/><path id="DejaVuSans-68" d="M3513 2113V0h-575v2094q0 497-194 743-194 247-581 247-466 0-735-297-269-296-269-809V0H581v4863h578V2956q207 316 486 472 280 156 646 156 603 0 912-373 310-373 310-1098z" transform="scale(.01563)"/><path id="DejaVuSans-28" d="M1984 4856q-418-718-622-1422-203-703-203-1425 0-721 205-1429t620-1424h-500Q1016-109 783 600T550 2009q0 697 231 1403 232 707 703 1444z" transform="scale(.01563)"/><path id="DejaVuSans-63" d="M3122 3366v-538q-244 135-489 202t-495 67q-560 0-870-355-309-354-309-995t309-996q310-354 870-354 250 0 495 67t489 202V134Q2881 22 2623-34q-257-57-548-57-791 0-1257 497-465 497-465 1341 0 856 470 1346 471 491 1290 491 265 0 518-55 253-54 491-163z" transform="scale(.01563)"/><path id="DejaVuSans-6d" d="M3328 2828q216 388 516 572t706 184q547 0 844-383 297-382 297-1088V0h-578v2094q0 503-179 746-178 244-543 244-447 0-707-297-259-296-259-809V0h-578v2094q0 506-178 748t-550 242q-441 0-701-298-259-298-259-808V0H581v3500h578v-544q197 322 472 475t653 153q382 0 649-194 267-193 395-562z" transform="scale(.01563)"/><path id="DejaVuSans-29" d="M513 4856h500q468-737 701-1444 233-706 233-1403 0-700-233-1409T1013-844H513q415 716 620 1424t205 1429q0 722-205 1425-205 704-620 1422z" transform="scale(.01563)"/></defs><use xlink:href="#DejaVuSans-50"/><use xlink:href="#DejaVuSans-65" transform="translate(56.678)"/><use xlink:href="#DejaVuSans-74" transform="translate(118.201)"/><use xlink:href="#DejaVuSans-61" transform="translate(157.41)"/><use xlink:href="#DejaVuSans-6c" transform="translate(218.69)"/><use xlink:href="#DejaVuSans-4c" transform="translate(278.26)"/><use xlink:href="#DejaVuSans-65" transform="translate(332.223)"/><use xlink:href="#DejaVuSans-6e" transform="translate(393.746)"/><use xlink:href="#DejaVuSans-67" transform="translate(457.125)"/><use xlink:href="#DejaVuSans-74" transform="translate(520.602)"/><use xlink:href="#DejaVuSans-68" transform="translate(559.81)"/><use xlink:href="#DejaVuSans-28" transform="translate(654.977)"/><use xlink:href="#DejaVuSans-63" transform="translate(693.99)"/><use xlink:href="#DejaVuSans-6d" transform="translate(748.97)"/><use xlink:href="#DejaVuSans-29" transform="translate(846.383)"/></g></g><g class="axis"><g class="tick ytick"><path id="line2d_17" d="M40.603 297.43h357.12" clip-path="url(#p376b04b303)" style="fill:none;stroke:#b0b0b0;stroke-opacity:.15;stroke-width:.8;stroke-linecap:square"/><g id="line2d_18"><defs><path id="m8b96808471" d="M0 0h-3.5" style="stroke:currentColor;stroke-width:.8"/></defs><use xlink:href="#m8b96808471" x="40.603" y="297.43" style="stroke:currentColor;stroke-width:.8"/></g><use xlink:href="#DejaVuSans-30" id="text_10" class="text" transform="matrix(.1 0 0 -.1 27.24 301.23)"/></g><g class="tick ytick"><path id="line2d_19" d="M40.603 249.046h357.12" clip-path="url(#p376b04b303)" style="fill:none;stroke:#b0b0b0;stroke-opacity:.15;stroke-width:.8;stroke-linecap:square"/><use xlink:href="#m8b96808471" id="line2d_20" x="40.603" y="249.046" style="stroke:currentColor;stroke-width:.8"/><g id="text_11" class="text" transform="matrix(.1 0 0 -.1 20.878 252.845)"><use xlink:href="#DejaVuSans-31"/><use xlink:href="#DejaVuSans-30" transform="translate(63.623)"/></g></g><g class="tick ytick"><path id="line2d_21" d="M40.603 200.662h357.12" clip-path="url(#p376b04b303)" style="fill:none;stroke:#b0b0b0;stroke-opacity:.15;stroke-width:.8;stroke-linecap:square"/><use xlink:href="#m8b96808471" id="line2d_22" x="40.603" y="200.662" style="stroke:currentColor;stroke-width:.8"/><g id="text_12" class="text" transform="matrix(.1 0 0 -.1 20.878 204.461)"><use xlink:href="#DejaVuSans-32"/><use xlink:href="#DejaVuSans-30" transform="translate(63.623)"/></g></g><g class="tick ytick"><path id="line2d_23" d="M40.603 152.278h357.12" clip-path="url(#p376b04b303)" style="fill:none;stroke:#b0b0b0;stroke-opacity:.15;stroke-width:.8;stroke-linecap:square"/><use xlink:href="#m8b96808471" id="line2d_24" x="40.603" y="152.278" style="stroke:currentColor;stroke-width:.8"/><g id="text_13" class="text" transform="matrix(.1 0 0 -.1 20.878 156.077)"><use xlink:href="#DejaVuSans-33"/><use xlink:href="#DejaVuSans-30" transform="translate(63.623)"/></g></g><g class="tick ytick"><path id="line2d_25" d="M40.603 103.894h357.12" clip-path="url(#p376b04b303)" style="fill:none;stroke:#b0b0b0;stroke-opacity:.15;stroke-width:.8;stroke-linecap:square"/><use xlink:href="#m8b96808471" id="line2d_26" x="40.603" y="103.894" style="stroke:currentColor;stroke-width:.8"/><g id="text_14" class="text" transform="matrix(.1 0 0 -.1 20.878 107.693)"><use xlink:href="#DejaVuSans-34"/><use xlink:href="#DejaVuSans-30" transform="translate(63.623)"/></g></g><g class="tick ytick"><path id="line2d_27" d="M40.603 55.51h357.12" clip-path="url(#p376b04b303)" style="fill:none;stroke:#b0b0b0;stroke-opacity:.15;stroke-width:.8;stroke-linecap:square"/><use xlink:href="#m8b96808471" id="line2d_28" x="40.603" y="55.51" style="stroke:currentColor;stroke-width:.8"/><g id="text_15" class="text" transform="matrix(.1 0 0 -.1 20.878 59.31)"><use xlink:href="#DejaVuSans-35"/><use xlink:href="#DejaVuSans-30" transform="translate(63.623)"/></g></g><g id="text_16" class="text" transform="matrix(0 -.1 -.1 0 14.798 190.204)"><defs><path id="DejaVuSans-46" d="M628 4666h2681v-532H1259V2759h1850v-531H1259V0H628z" transform="scale(.01563)"/><path id="DejaVuSans-72" d="M2631 2963q-97 56-211 82-114 27-251 27-488 0-749-317t-261-911V0H581v3500h578v-544q182 319 472 473 291 155 707 155 59 0 131-8 72-7 159-23z" transform="scale(.01563)"/><path id="DejaVuSans-71" d="M947 1747q0-634 261-995t717-361 718 361q263 361 263 995t-263 995q-262 361-718 361t-717-361-261-995zM2906 525q-181-312-458-464-276-152-664-152-634 0-1033 506-398 507-398 1332t398 1331q399 506 1033 506 388 0 664-152 277-151 458-463v531h575v-4831h-575z" transform="scale(.01563)"/><path id="DejaVuSans-75" d="M544 1381v2119h575V1403q0-497 193-746 194-248 582-248 465 0 735 297 271 297 271 810v1984h575V0h-575v538q-209-319-486-474-276-155-642-155-603 0-916 375-312 375-312 1097zm1447 2203z" transform="scale(.01563)"/><path id="DejaVuSans-79" d="M2059-325q-243-625-475-815-231-191-618-191H506v481h338q237 0 368 113 132 112 291 531l103 262L191 3500h609L1894 763l1094 2737h609z" transform="scale(.01563)"/></defs><use xlink:href="#DejaVuSans-46"/><use xlink:href="#DejaVuSans-72" transform="translate(50.27)"/><use xlink:href="#DejaVuSans-65" transform="translate(89.133)"/><use xlink:href="#DejaVuSans-71" transform="translate(150.656)"/><use xlink:href="#DejaVuSans-75" transform="translate(214.133)"/><use xlink:href="#DejaVuSans-65" transform="translate(277.512)"/><use xlink:href="#DejaVuSans-6e" transform="translate(339.035)"/><use xlink:href="#DejaVuSans-63" transform="translate(402.414)"/><use xlink:href="#DejaVuSans-79" transform="translate(457.395)"/></g></g><path d="M40.603 297.43V31.318M40.603 297.43h357.12" class="patch" style="fill:none;stroke:currentColor;stroke-width:.8;stroke-linejoin:miter;stroke-linecap:square"/><g id="text_17" class="text" transform="matrix(.12 0 0 -.12 141.05 16.318)"><defs><path id="DejaVuSans-48" d="M628 4666h631V2753h2294v1913h631V0h-631v2222H1259V0H628z" transform="scale(.01563)"/><path id="DejaVuSans-69" d="M603 3500h575V0H603zm0 1363h575v-729H603z" transform="scale(.01563)"/><path id="DejaVuSans-73" d="M2834 3397v-544q-243 125-506 187-262 63-544 63-428 0-642-131t-214-394q0-200 153-314t616-217l197-44q612-131 870-370t258-667q0-488-386-773Q2250-91 1575-91q-281 0-586 55T347 128v594q319-166 628-249 309-82 613-82 406 0 624 139 219 139 219 392 0 234-158 359-157 125-692 241l-200 47q-534 112-772 345-237 233-237 639 0 494 350 762 350 269 994 269 318 0 599-47 282-46 519-140z" transform="scale(.01563)"/><path id="DejaVuSans-6f" d="M1959 3097q-462 0-731-361t-269-989 267-989q268-361 733-361 460 0 728 362 269 363 269 988 0 622-269 986-268 364-728 364zm0 487q750 0 1178-488 429-487 429-1349 0-859-429-1349Q2709-91 1959-91q-753 0-1180 489-426 490-426 1349 0 862 426 1349 427 488 1180 488z" transform="scale(.01563)"/><path id="DejaVuSans-66" d="M2375 4863v-479h-550q-309 0-430-125-120-125-120-450v-309h947v-447h-947V0H697v3053H147v447h550v244q0 584 272 851 272 268 862 268z" transform="scale(.01563)"/></defs><use xlink:href="#DejaVuSans-48"/><use xlink:href="#DejaVuSans-69" transform="translate(75.195)"/><use xlink:href="#DejaVuSans-73" transform="translate(102.979)"/><use xlink:href="#DejaVuSans-74" transform="translate(155.078)"/><use xlink:href="#DejaVuSans-6f" transform="translate(194.287)"/><use xlink:href="#DejaVuSans-67" transform="translate(255.469)"/><use xlink:href="#DejaVuSans-72" transform="translate(318.945)"/><use xlink:href="#DejaVuSans-61" transform="translate(360.059)"/><use xlink:href="#DejaVuSans-6d" transform="translate(421.338)"/><use xlink:href="#DejaVuSans-6f" transform="translate(550.537)"/><use xlink:href="#DejaVuSans-66" transform="translate(611.719)"/><use xlink:href="#DejaVuSans-50" transform="translate(678.71)"/><use xlink:href="#DejaVuSans-65" transform="translate(735.389)"/><use xlink:href="#DejaVuSans-74" transform="translate(796.912)"/><use xlink:href="#DejaVuSans-61" transform="translate(836.121)"/><use xlink:href="#DejaVuSans-6c" transform="translate(897.4)"/><use xlink:href="#DejaVuSans-4c" transform="translate(956.97)"/><use xlink:href="#DejaVuSans-65" transform="translate(1010.934)"/><use xlink:href="#DejaVuSans-6e" transform="translate(1072.457)"/><use xlink:href="#DejaVuSans-67" transform="translate(1135.836)"/><use xlink:href="#DejaVuSans-74" transform="translate(1199.313)"/><use xlink:href="#DejaVuSans-68" transform="translate(1238.521)"/></g><g class="legend"><path d="M318.707 78.15h72.716q1.8 0 1.8-1.8V37.617q0-1.8-1.8-1.8h-72.716q-1.8 0-1.8 1.8V76.35q0 1.8 1.8 1.8z" class="patch" style="fill:rgba(255,255,255,.8)!important;opacity:.9;stroke:rgba(0,0,0,.1)!important;stroke-linejoin:miter"/><path d="M320.507 46.257h18v-6.3h-18z" class="patch" style="fill:#ff0001;opacity:.7"/><g id="text_18" class="text" transform="matrix(.09 0 0 -.09 345.707 46.257)"><use xlink:href="#DejaVuSans-73"/><use xlink:href="#DejaVuSans-65" transform="translate(52.1)"/><use xlink:href="#DejaVuSans-74" transform="translate(113.623)"/><use xlink:href="#DejaVuSans-6f" transform="translate(152.832)"/><use xlink:href="#DejaVuSans-73" transform="translate(214.014)"/><use xlink:href="#DejaVuSans-61" transform="translate(266.113)"/></g><path d="M320.507 59.467h18v-6.3h-18z" class="patch" style="fill:#00ff02;opacity:.7"/><g id="text_19" class="text" transform="matrix(.09 0 0 -.09 345.707 59.467)"><defs><path id="DejaVuSans-76" d="M191 3500h609L1894 563l1094 2937h609L2284 0h-781z" transform="scale(.01563)"/></defs><use xlink:href="#DejaVuSans-76"/><use xlink:href="#DejaVuSans-65" transform="translate(59.18)"/><use xlink:href="#DejaVuSans-72" transform="translate(120.703)"/><use xlink:href="#DejaVuSans-73" transform="translate(161.816)"/><use xlink:href="#DejaVuSans-69" transform="translate(213.916)"/><use xlink:href="#DejaVuSans-63" transform="translate(241.7)"/><use xlink:href="#DejaVuSans-6f" transform="translate(296.68)"/><use xlink:href="#DejaVuSans-6c" transform="translate(357.861)"/><use xlink:href="#DejaVuSans-6f" transform="translate(385.645)"/><use xlink:href="#DejaVuSans-72" transform="translate(446.826)"/></g><path d="M320.507 72.677h18v-6.3h-18z" class="patch" style="fill:#00f;opacity:.7"/><g id="text_20" class="text" transform="matrix(.09 0 0 -.09 345.707 72.677)"><use xlink:href="#DejaVuSans-76"/><use xlink:href="#DejaVuSans-69" transform="translate(59.18)"/><use xlink:href="#DejaVuSans-72" transform="translate(86.963)"/><use xlink:href="#DejaVuSans-67" transform="translate(126.326)"/><use xlink:href="#DejaVuSans-69" transform="translate(189.803)"/><use xlink:href="#DejaVuSans-6e" transform="translate(217.586)"/><use xlink:href="#DejaVuSans-69" transform="translate(280.965)"/><use xlink:href="#DejaVuSans-63" transform="translate(308.748)"/><use xlink:href="#DejaVuSans-61" transform="translate(363.729)"/></g></g></g></g><defs><clipPath id="p376b04b303"><path d="M40.603 31.318h357.12V297.43H40.603z"/></clipPath></defs></svg>