<svg xmlns="http://www.w3.org/2000/svg" xmlns:xlink="http://www.w3.org/1999/xlink" width="754.748" height="368.916" viewBox="0 0 566.061 276.687"><style><![CDATA[.text{fill:#000!important;stroke:none!important}.axis path,.tick path,[stroke=black],[stroke=currentColor]{stroke:#000!important}g.legend>g:first-child>path:first-child{fill:rgba(255,255,255,.8)!important;stroke:rgba(0,0,0,.1)!important}@media (prefers-color-scheme:dark){.text{fill:#fff!important;stroke:none!important}.axis path,.tick path,[stroke=black],[stroke=currentColor]{stroke:#fff!important}g.legend>g:first-child>path:first-child{fill:rgba(26,26,26,.8)!important;stroke:rgba(255,255,255,.1)!important}}*{stroke-linejoin:round;stroke-linecap:butt}]]></style><g id="figure_1"><path d="M0 276.687h566.061V0H0z" class="patch" style="fill:none"/><g id="axes_1"><path d="M43.781 239.13h229.08V31.37H43.781z" class="patch" style="fill:none"/><g class="axis"><g class="tick xtick"><path id="line2d_1" d="M60.381 239.13V31.37" clip-path="url(#p2d8289df03)" style="fill:none;stroke:#b0b0b0;stroke-opacity:.15;stroke-width:.8;stroke-linecap:square"/><g id="line2d_2"><defs><path id="ma05da7be2d" d="M0 0v3.5" style="stroke:currentColor;stroke-width:.8"/></defs><use xlink:href="#ma05da7be2d" x="60.381" y="239.131" style="stroke:currentColor;stroke-width:.8"/></g><g id="text_1" class="text" transform="matrix(.1 0 0 -.1 57.2 253.73)"><defs><path id="DejaVuSans-31" d="M794 531h1031v3560L703 3866v575l1116 225h631V531h1031V0H794z" transform="scale(.01563)"/></defs><use xlink:href="#DejaVuSans-31"/></g></g><g class="tick xtick"><path id="line2d_3" d="M93.581 239.13V31.37" clip-path="url(#p2d8289df03)" style="fill:none;stroke:#b0b0b0;stroke-opacity:.15;stroke-width:.8;stroke-linecap:square"/><use xlink:href="#ma05da7be2d" id="line2d_4" x="93.581" y="239.131" style="stroke:currentColor;stroke-width:.8"/><g id="text_2" class="text" transform="matrix(.1 0 0 -.1 90.4 253.73)"><defs><path id="DejaVuSans-32" d="M1228 531h2203V0H469v531q359 372 979 998 621 627 780 809 303 340 423 576 121 236 121 464 0 372-261 606-261 235-680 235-297 0-627-103-329-103-704-313v638q381 153 712 231 332 78 607 78 725 0 1156-363 431-362 431-968 0-288-108-546-107-257-392-607-78-91-497-524-418-433-1181-1211z" transform="scale(.01563)"/></defs><use xlink:href="#DejaVuSans-32"/></g></g><g class="tick xtick"><path id="line2d_5" d="M126.781 239.13V31.37" clip-path="url(#p2d8289df03)" style="fill:none;stroke:#b0b0b0;stroke-opacity:.15;stroke-width:.8;stroke-linecap:square"/><use xlink:href="#ma05da7be2d" id="line2d_6" x="126.781" y="239.131" style="stroke:currentColor;stroke-width:.8"/><g id="text_3" class="text" transform="matrix(.1 0 0 -.1 123.6 253.73)"><defs><path id="DejaVuSans-33" d="M2597 2516q453-97 707-404 255-306 255-756 0-690-475-1069Q2609-91 1734-91q-293 0-604 58T488 141v609q262-153 574-231 313-78 654-78 593 0 904 234t311 681q0 413-289 645-289 233-804 233h-544v519h569q465 0 712 186t247 536q0 359-255 551-254 193-729 193-260 0-557-57-297-56-653-174v562q360 100 674 150t592 50q719 0 1137-327 419-326 419-882 0-388-222-655t-631-370z" transform="scale(.01563)"/></defs><use xlink:href="#DejaVuSans-33"/></g></g><g class="tick xtick"><path id="line2d_7" d="M159.981 239.13V31.37" clip-path="url(#p2d8289df03)" style="fill:none;stroke:#b0b0b0;stroke-opacity:.15;stroke-width:.8;stroke-linecap:square"/><use xlink:href="#ma05da7be2d" id="line2d_8" x="159.981" y="239.131" style="stroke:currentColor;stroke-width:.8"/><g id="text_4" class="text" transform="matrix(.1 0 0 -.1 156.8 253.73)"><defs><path id="DejaVuSans-34" d="M2419 4116 825 1625h1594zm-166 550h794V1625h666v-525h-666V0h-628v1100H313v609z" transform="scale(.01563)"/></defs><use xlink:href="#DejaVuSans-34"/></g></g><g class="tick xtick"><path id="line2d_9" d="M193.181 239.13V31.37" clip-path="url(#p2d8289df03)" style="fill:none;stroke:#b0b0b0;stroke-opacity:.15;stroke-width:.8;stroke-linecap:square"/><use xlink:href="#ma05da7be2d" id="line2d_10" x="193.181" y="239.131" style="stroke:currentColor;stroke-width:.8"/><g id="text_5" class="text" transform="matrix(.1 0 0 -.1 190 253.73)"><defs><path id="DejaVuSans-35" d="M691 4666h2478v-532H1269V2991q137 47 274 70 138 23 276 23 781 0 1237-428 457-428 457-1159 0-753-469-1171Q2575-91 1722-91q-294 0-599 50Q819 9 494 109v635q281-153 581-228t634-75q541 0 856 284 316 284 316 772 0 487-316 771-315 285-856 285-253 0-505-56-251-56-513-175z" transform="scale(.01563)"/></defs><use xlink:href="#DejaVuSans-35"/></g></g><g class="tick xtick"><path id="line2d_11" d="M226.381 239.13V31.37" clip-path="url(#p2d8289df03)" style="fill:none;stroke:#b0b0b0;stroke-opacity:.15;stroke-width:.8;stroke-linecap:square"/><use xlink:href="#ma05da7be2d" id="line2d_12" x="226.381" y="239.131" style="stroke:currentColor;stroke-width:.8"/><g id="text_6" class="text" transform="matrix(.1 0 0 -.1 223.2 253.73)"><defs><path id="DejaVuSans-36" d="M2113 2584q-425 0-674-291-248-290-248-796 0-503 248-796 249-292 674-292t673 292q248 293 248 796 0 506-248 796-248 291-673 291zm1253 1979v-575q-238 112-480 171-242 60-480 60-625 0-955-422-329-422-376-1275 184 272 462 417 279 145 613 145 703 0 1111-427 408-426 408-1160 0-719-425-1154Q2819-91 2113-91q-810 0-1238 620-428 621-428 1799 0 1106 525 1764t1409 658q238 0 480-47t505-140z" transform="scale(.01563)"/></defs><use xlink:href="#DejaVuSans-36"/></g></g><g class="tick xtick"><path id="line2d_13" d="M259.581 239.13V31.37" clip-path="url(#p2d8289df03)" style="fill:none;stroke:#b0b0b0;stroke-opacity:.15;stroke-width:.8;stroke-linecap:square"/><use xlink:href="#ma05da7be2d" id="line2d_14" x="259.581" y="239.131" style="stroke:currentColor;stroke-width:.8"/><g id="text_7" class="text" transform="matrix(.1 0 0 -.1 256.4 253.73)"><defs><path id="DejaVuSans-37" d="M525 4666h3000v-269L1831 0h-659l1594 4134H525z" transform="scale(.01563)"/></defs><use xlink:href="#DejaVuSans-37"/></g></g><g id="text_8" class="text" transform="matrix(.1 0 0 -.1 114.052 267.407)"><defs><path id="DejaVuSans-50" d="M1259 4147V2394h794q441 0 681 228 241 228 241 650 0 419-241 647-240 228-681 228zm-631 519h1425q785 0 1186-355 402-355 402-1039 0-691-402-1044-401-353-1186-353h-794V0H628z" transform="scale(.01563)"/><path id="DejaVuSans-65" d="M3597 1894v-281H953q38-594 358-905t892-311q331 0 642 81t618 244V178Q3153 47 2828-22t-659-69q-838 0-1327 487-489 488-489 1320 0 859 464 1363 464 505 1252 505 706 0 1117-455 411-454 411-1235zm-575 169q-6 471-264 752-258 282-683 282-481 0-770-272t-333-766z" transform="scale(.01563)"/><path id="DejaVuSans-74" d="M1172 4494v-994h1184v-447H1172V1153q0-428 117-550t477-122h590V0h-590q-666 0-919 248-253 249-253 905v1900H172v447h422v994z" transform="scale(.01563)"/><path id="DejaVuSans-61" d="M2194 1759q-697 0-966-159t-269-544q0-306 202-486 202-179 548-179 479 0 768 339t289 901v128zm1147 238V0h-575v531q-197-318-491-470T1556-91q-537 0-855 302-317 302-317 808 0 590 395 890 396 300 1180 300h807v57q0 397-261 614t-733 217q-300 0-585-72-284-72-546-216v532q315 122 612 182 297 61 578 61 760 0 1135-394 375-393 375-1193z" transform="scale(.01563)"/><path id="DejaVuSans-6c" d="M603 4863h575V0H603z" transform="scale(.01563)"/><path id="DejaVuSans-4c" d="M628 4666h631V531h2272V0H628z" transform="scale(.01563)"/><path id="DejaVuSans-6e" d="M3513 2113V0h-575v2094q0 497-194 743-194 247-581 247-466 0-735-297-269-296-269-809V0H581v3500h578v-544q207 316 486 472 280 156 646 156 603 0 912-373 310-373 310-1098z" transform="scale(.01563)"/><path id="DejaVuSans-67" d="M2906 1791q0 625-258 968-257 344-723 344-462 0-720-344-258-343-258-968 0-622 258-966t720-344q466 0 723 344 258 344 258 966zm575-1357q0-893-397-1329-396-436-1215-436-303 0-572 45t-522 139v559q253-137 500-202 247-66 503-66 566 0 847 295t281 892v285q-178-310-456-463T1784 0Q1141 0 747 490 353 981 353 1791q0 812 394 1302 394 491 1037 491 388 0 666-153t456-462v531h575z" transform="scale(.01563)"/><path id="DejaVuSans-68" d="M3513 2113V0h-575v2094q0 497-194 743-194 247-581 247-466 0-735-297-269-296-269-809V0H581v4863h578V2956q207 316 486 472 280 156 646 156 603 0 912-373 310-373 310-1098z" transform="scale(.01563)"/><path id="DejaVuSans-28" d="M1984 4856q-418-718-622-1422-203-703-203-1425 0-721 205-1429t620-1424h-500Q1016-109 783 600T550 2009q0 697 231 1403 232 707 703 1444z" transform="scale(.01563)"/><path id="DejaVuSans-63" d="M3122 3366v-538q-244 135-489 202t-495 67q-560 0-870-355-309-354-309-995t309-996q310-354 870-354 250 0 495 67t489 202V134Q2881 22 2623-34q-257-57-548-57-791 0-1257 497-465 497-465 1341 0 856 470 1346 471 491 1290 491 265 0 518-55 253-54 491-163z" transform="scale(.01563)"/><path id="DejaVuSans-6d" d="M3328 2828q216 388 516 572t706 184q547 0 844-383 297-382 297-1088V0h-578v2094q0 503-179 746-178 244-543 244-447 0-707-297-259-296-259-809V0h-578v2094q0 506-178 748t-550 242q-441 0-701-298-259-298-259-808V0H581v3500h578v-544q197 322 472 475t653 153q382 0 649-194 267-193 395-562z" transform="scale(.01563)"/><path id="DejaVuSans-29" d="M513 4856h500q468-737 701-1444 233-706 233-1403 0-700-233-1409T1013-844H513q415 716 620 1424t205 1429q0 722-205 1425-205 704-620 1422z" transform="scale(.01563)"/></defs><use xlink:href="#DejaVuSans-50"/><use xlink:href="#DejaVuSans-65" transform="translate(56.678)"/><use xlink:href="#DejaVuSans-74" transform="translate(118.201)"/><use xlink:href="#DejaVuSans-61" transform="translate(157.41)"/><use xlink:href="#DejaVuSans-6c" transform="translate(218.69)"/><use xlink:href="#DejaVuSans-4c" transform="translate(278.26)"/><use xlink:href="#DejaVuSans-65" transform="translate(332.223)"/><use xlink:href="#DejaVuSans-6e" transform="translate(393.746)"/><use xlink:href="#DejaVuSans-67" transform="translate(457.125)"/><use xlink:href="#DejaVuSans-74" transform="translate(520.602)"/><use xlink:href="#DejaVuSans-68" transform="translate(559.81)"/><use xlink:href="#DejaVuSans-28" transform="translate(654.977)"/><use xlink:href="#DejaVuSans-63" transform="translate(693.99)"/><use xlink:href="#DejaVuSans-6d" transform="translate(748.97)"/><use xlink:href="#DejaVuSans-29" transform="translate(846.383)"/></g></g><g class="axis"><g class="tick ytick"><path id="line2d_15" d="M43.781 239.13h229.08" clip-path="url(#p2d8289df03)" style="fill:none;stroke:#b0b0b0;stroke-opacity:.15;stroke-width:.8;stroke-linecap:square"/><g id="line2d_16"><defs><path id="md1f856c881" d="M0 0h-3.5" style="stroke:currentColor;stroke-width:.8"/></defs><use xlink:href="#md1f856c881" x="43.781" y="239.131" style="stroke:currentColor;stroke-width:.8"/></g><g id="text_9" class="text" transform="matrix(.1 0 0 -.1 20.878 242.93)"><defs><path id="DejaVuSans-30" d="M2034 4250q-487 0-733-480-245-479-245-1442 0-959 245-1439 246-480 733-480 491 0 736 480 246 480 246 1439 0 963-246 1442-245 480-736 480zm0 500q785 0 1199-621 414-620 414-1801 0-1178-414-1799Q2819-91 2034-91q-784 0-1198 620-414 621-414 1799 0 1181 414 1801 414 621 1198 621z" transform="scale(.01563)"/><path id="DejaVuSans-2e" d="M684 794h660V0H684z" transform="scale(.01563)"/></defs><use xlink:href="#DejaVuSans-30"/><use xlink:href="#DejaVuSans-2e" transform="translate(63.623)"/><use xlink:href="#DejaVuSans-30" transform="translate(95.41)"/></g></g><g class="tick ytick"><path id="line2d_17" d="M43.781 200.597h229.08" clip-path="url(#p2d8289df03)" style="fill:none;stroke:#b0b0b0;stroke-opacity:.15;stroke-width:.8;stroke-linecap:square"/><use xlink:href="#md1f856c881" id="line2d_18" x="43.781" y="200.597" style="stroke:currentColor;stroke-width:.8"/><g id="text_10" class="text" transform="matrix(.1 0 0 -.1 20.878 204.396)"><use xlink:href="#DejaVuSans-30"/><use xlink:href="#DejaVuSans-2e" transform="translate(63.623)"/><use xlink:href="#DejaVuSans-35" transform="translate(95.41)"/></g></g><g class="tick ytick"><path id="line2d_19" d="M43.781 162.064h229.08" clip-path="url(#p2d8289df03)" style="fill:none;stroke:#b0b0b0;stroke-opacity:.15;stroke-width:.8;stroke-linecap:square"/><use xlink:href="#md1f856c881" id="line2d_20" x="43.781" y="162.064" style="stroke:currentColor;stroke-width:.8"/><g id="text_11" class="text" transform="matrix(.1 0 0 -.1 20.878 165.863)"><use xlink:href="#DejaVuSans-31"/><use xlink:href="#DejaVuSans-2e" transform="translate(63.623)"/><use xlink:href="#DejaVuSans-30" transform="translate(95.41)"/></g></g><g class="tick ytick"><path id="line2d_21" d="M43.781 123.53h229.08" clip-path="url(#p2d8289df03)" style="fill:none;stroke:#b0b0b0;stroke-opacity:.15;stroke-width:.8;stroke-linecap:square"/><use xlink:href="#md1f856c881" id="line2d_22" x="43.781" y="123.53" style="stroke:currentColor;stroke-width:.8"/><g id="text_12" class="text" transform="matrix(.1 0 0 -.1 20.878 127.33)"><use xlink:href="#DejaVuSans-31"/><use xlink:href="#DejaVuSans-2e" transform="translate(63.623)"/><use xlink:href="#DejaVuSans-35" transform="translate(95.41)"/></g></g><g class="tick ytick"><path id="line2d_23" d="M43.781 84.997h229.08" clip-path="url(#p2d8289df03)" style="fill:none;stroke:#b0b0b0;stroke-opacity:.15;stroke-width:.8;stroke-linecap:square"/><use xlink:href="#md1f856c881" id="line2d_24" x="43.781" y="84.997" style="stroke:currentColor;stroke-width:.8"/><g id="text_13" class="text" transform="matrix(.1 0 0 -.1 20.878 88.796)"><use xlink:href="#DejaVuSans-32"/><use xlink:href="#DejaVuSans-2e" transform="translate(63.623)"/><use xlink:href="#DejaVuSans-30" transform="translate(95.41)"/></g></g><g class="tick ytick"><path id="line2d_25" d="M43.781 46.463h229.08" clip-path="url(#p2d8289df03)" style="fill:none;stroke:#b0b0b0;stroke-opacity:.15;stroke-width:.8;stroke-linecap:square"/><use xlink:href="#md1f856c881" id="line2d_26" x="43.781" y="46.463" style="stroke:currentColor;stroke-width:.8"/><g id="text_14" class="text" transform="matrix(.1 0 0 -.1 20.878 50.262)"><use xlink:href="#DejaVuSans-32"/><use xlink:href="#DejaVuSans-2e" transform="translate(63.623)"/><use xlink:href="#DejaVuSans-35" transform="translate(95.41)"/></g></g><g id="text_15" class="text" transform="matrix(0 -.1 -.1 0 14.798 154.26)"><defs><path id="DejaVuSans-44" d="M1259 4147V519h763q966 0 1414 437 448 438 448 1382 0 937-448 1373t-1414 436zm-631 519h1297q1356 0 1990-564 635-564 635-1764 0-1207-638-1773Q3275 0 1925 0H628z" transform="scale(.01563)"/><path id="DejaVuSans-73" d="M2834 3397v-544q-243 125-506 187-262 63-544 63-428 0-642-131t-214-394q0-200 153-314t616-217l197-44q612-131 870-370t258-667q0-488-386-773Q2250-91 1575-91q-281 0-586 55T347 128v594q319-166 628-249 309-82 613-82 406 0 624 139 219 139 219 392 0 234-158 359-157 125-692 241l-200 47q-534 112-772 345-237 233-237 639 0 494 350 762 350 269 994 269 318 0 599-47 282-46 519-140z" transform="scale(.01563)"/><path id="DejaVuSans-69" d="M603 3500h575V0H603zm0 1363h575v-729H603z" transform="scale(.01563)"/><path id="DejaVuSans-79" d="M2059-325q-243-625-475-815-231-191-618-191H506v481h338q237 0 368 113 132 112 291 531l103 262L191 3500h609L1894 763l1094 2737h609z" transform="scale(.01563)"/></defs><use xlink:href="#DejaVuSans-44"/><use xlink:href="#DejaVuSans-65" transform="translate(77.002)"/><use xlink:href="#DejaVuSans-6e" transform="translate(138.525)"/><use xlink:href="#DejaVuSans-73" transform="translate(201.904)"/><use xlink:href="#DejaVuSans-69" transform="translate(254.004)"/><use xlink:href="#DejaVuSans-74" transform="translate(281.787)"/><use xlink:href="#DejaVuSans-79" transform="translate(320.996)"/></g></g><g id="FillBetweenPolyCollection_1"><defs><path id="m2683684813" d="M43.781-37.556h3.453l1.152-.001 1.151-.003 1.151-.014 1.151-.051 1.151-.156 1.152-.4 1.15-.846 1.152-1.496 1.151-2.198 1.151-2.7 1.151-2.84 1.152-2.746 1.15-2.834 1.152-3.622 1.151-5.497 1.151-8.61 1.151-12.762 1.152-17.355 1.15-21.455 1.152-24.052 1.151-24.3 1.151-21.65 1.151-16.07 1.151-8.221 1.152.689 1.15 9.242 1.152 16.05 1.151 20.138 1.151 21.452 1.151 20.857 1.152 19.4 1.15 17.488 1.152 14.815 1.151 11.062 1.151 6.751 1.151 3.222 1.151 1.638 1.152 1.985 1.15 3.113 1.152 3.753 1.151 3.414 1.151 2.428 1.151 1.385 1.152.645 1.15.247 1.152.078 1.151.021 1.151.005h170.371H43.782z" style="stroke:#ff0001;stroke-opacity:.2"/></defs><g clip-path="url(#p2d8289df03)"><use xlink:href="#m2683684813" y="276.687" style="fill:#ff0001;fill-opacity:.2;stroke:#ff0001;stroke-opacity:.2"/></g></g><g id="FillBetweenPolyCollection_2"><defs><path id="m3af6273bc0" d="M43.781-37.556h51.802l1.151-.001 1.152-.001 1.15-.001 1.152-.003 1.151-.004 1.151-.006 1.151-.01 1.152-.014 1.15-.022 1.152-.032 1.151-.044 1.151-.062 1.151-.083 1.151-.11 1.152-.14 1.15-.175 1.152-.216 1.151-.259 1.151-.304 1.151-.35 1.152-.396 1.15-.441 1.152-.485 1.151-.527 1.151-.566 1.151-.606 1.151-.644 1.152-.683 1.15-.72 1.152-.758 1.151-.792 1.151-.823 1.151-.85 1.152-.87 1.15-.883 1.152-.894 1.151-.9 1.151-.912 1.151-.93 1.151-.96 1.152-1.011 1.15-1.088 1.152-1.19 1.151-1.324 1.151-1.481 1.151-1.657 1.152-1.842 1.15-2.023 1.152-2.184 1.151-2.314 1.151-2.4 1.151-2.43 1.152-2.408 1.15-2.33 1.152-2.206 1.151-2.05 1.151-1.876 1.151-1.7 1.151-1.535 1.152-1.393 1.15-1.277 1.152-1.186 1.151-1.112 1.151-1.04 1.151-.956 1.152-.843 1.15-.685 1.152-.474 1.151-.204 1.151.123 1.151.498 1.151.908 1.152 1.332 1.15 1.756 1.152 2.156 1.151 2.517 1.151 2.825 1.151 3.07 1.152 3.247 1.15 3.356 1.152 3.397 1.151 3.38 1.151 3.309 1.151 3.193 1.152 3.042 1.15 2.863 1.152 2.664 1.151 2.451 1.151 2.23 1.151 2.006 1.151 1.783 1.152 1.565 1.15 1.356 1.152 1.158 1.151.974 1.151.806 1.151.656 1.152.525 1.15.412 1.152.317 1.151.24 1.151.177 1.151.129 1.151.09 1.152.064 1.15.043 1.152.03 1.151.018 1.151.012 1.151.007 1.152.005 1.15.002 1.152.002h1.151l1.151.001h44.895H43.782z" style="stroke:#00ff02;stroke-opacity:.2"/></defs><g clip-path="url(#p2d8289df03)"><use xlink:href="#m3af6273bc0" y="276.687" style="fill:#00ff02;fill-opacity:.2;stroke:#00ff02;stroke-opacity:.2"/></g></g><g id="FillBetweenPolyCollection_3"><defs><path id="m57b0c8407b" d="M43.781-37.556h96.697l1.151-.001h1.152l1.15-.002 1.152-.002 1.151-.002 1.151-.004 1.151-.006 1.152-.008 1.15-.011 1.152-.017 1.151-.023 1.151-.032 1.151-.042 1.152-.056 1.15-.074 1.152-.094 1.151-.12 1.151-.15 1.151-.188 1.151-.23 1.152-.28 1.15-.338 1.152-.405 1.151-.482 1.151-.57 1.151-.672 1.152-.787 1.15-.916 1.152-1.06 1.151-1.219 1.151-1.39 1.151-1.57 1.151-1.759 1.152-1.945 1.15-2.126 1.152-2.29 1.151-2.434 1.151-2.544 1.151-2.614 1.152-2.638 1.15-2.611 1.152-2.533 1.151-2.402 1.151-2.226 1.151-2.012 1.152-1.77 1.15-1.512 1.152-1.252 1.151-1.002 1.151-.773 1.151-.575 1.151-.412 1.152-.287 1.15-.196 1.152-.135 1.151-.095 1.151-.068 1.151-.04 1.152-.003 1.15.05 1.152.127 1.151.228 1.151.356 1.151.506 1.151.674 1.152.85 1.15 1.03 1.152 1.207 1.151 1.369 1.151 1.515 1.151 1.64 1.152 1.739 1.15 1.811 1.152 1.857 1.151 1.876 1.151 1.87 1.151 1.838 1.151 1.786 1.152 1.712 1.15 1.621 1.152 1.515 1.151 1.398 1.151 1.272 1.151 1.142 1.152 1.015 1.15.89 1.152.778 1.151.677 1.151.594 1.151.53 1.152.486 1.15.463 1.152.459 1.151.471 1.151.498 1.151.533 1.151.574 1.152.615 1.15.653 1.152.684 1.151.705 1.151.716 1.151.713 1.152.697 1.15.671 1.152.635 1.151.588 1.151.538 1.151.482 1.151.426 1.152.37 1.15.315 1.152.265 1.151.219 1.151.178v.578H43.782z" style="stroke:#00f;stroke-opacity:.2"/></defs><g clip-path="url(#p2d8289df03)"><use xlink:href="#m57b0c8407b" y="276.687" style="fill:#00f;fill-opacity:.2;stroke:#00f;stroke-opacity:.2"/></g></g><path d="M43.781 239.13V31.37M43.781 239.13h229.08" class="patch" style="fill:none;stroke:currentColor;stroke-width:.8;stroke-linejoin:miter;stroke-linecap:square"/><path id="line2d_27" d="m43.781 239.13 8.058-.068 1.151-.156 1.152-.4 1.15-.846 1.152-1.497 1.151-2.197 3.454-8.286 1.15-2.835 1.152-3.62 1.151-5.499 1.151-8.608 1.151-12.763L67.956 175l1.15-21.454 3.454-70.003 1.151-16.07 1.151-8.22 1.152.689 1.15 9.242 1.152 16.05 2.302 41.59 2.303 40.256 1.15 17.489 1.152 14.815 1.151 11.062 1.151 6.75 1.151 3.223 1.151 1.638 1.152 1.985 1.15 3.113 2.303 7.167 1.151 2.428 1.151 1.385 1.152.645 1.15.247 2.303.099 28.779.006H272.86" clip-path="url(#p2d8289df03)" style="fill:none;stroke:#ff0001;stroke-width:2;stroke-linecap:square"/><path id="line2d_28" d="m43.781 239.13 63.314-.093 3.453-.19 3.454-.424 2.302-.475 2.302-.654 2.303-.838 2.302-1.01 3.453-1.818 3.454-2.16 3.453-2.465 5.756-4.46 3.454-2.9 2.302-2.279 2.302-2.804 2.303-3.5 2.302-4.207 3.453-7.144 2.303-4.737 2.302-4.256 2.302-3.576 2.303-2.928 2.302-2.463 2.302-2.152 2.303-1.799 1.15-.685 1.152-.474 1.151-.204 1.151.123 1.151.498 1.151.907 1.152 1.333 1.15 1.756 1.152 2.156 1.151 2.517 2.302 5.895 3.454 10 3.453 9.882 2.303 5.905 2.302 5.115 2.302 4.236 1.151 1.783 1.152 1.565 1.15 1.356 1.152 1.158 1.151.974 1.151.806 1.151.656 2.303.937 2.302.557 2.302.305 3.454.198 6.907.074 48.348.004h0" clip-path="url(#p2d8289df03)" style="fill:none;stroke:#00ff02;stroke-width:2;stroke-linecap:square"/><path id="line2d_29" d="m43.781 239.13 110.511-.107 4.605-.266 3.453-.458 2.303-.51 2.302-.743 2.302-1.052 2.303-1.459 1.15-.916 1.152-1.06 1.151-1.219 1.151-1.39 2.302-3.329 2.303-4.07 2.302-4.725 8.058-17.568 1.151-2.012 1.152-1.77 1.15-1.512 1.152-1.252 1.151-1.002 1.151-.773 1.151-.575 1.151-.412 2.303-.483 3.453-.298 2.303-.043 2.302.177 1.151.228 1.151.356 1.151.506 1.151.673 1.152.85 1.15 1.032 1.152 1.205 2.302 2.885 2.303 3.379 9.209 14.37 2.302 2.913 2.302 2.415 2.303 1.905 2.302 1.455 2.302 1.124 8.058 3.484 3.454 1.952 6.907 4.136 2.302 1.127 2.302.908 2.303.685 2.302.484 1.151.178h0" clip-path="url(#p2d8289df03)" style="fill:none;stroke:#00f;stroke-width:2;stroke-linecap:square"/><g id="text_16" class="text" transform="matrix(.12 0 0 -.12 79.935 16.37)"><defs><path id="DejaVuSans-70" d="M1159 525v-1856H581v4831h578v-531q182 312 458 463 277 152 661 152 638 0 1036-506 399-506 399-1331T3314 415Q2916-91 2278-91q-384 0-661 152-276 152-458 464zm1957 1222q0 634-261 995t-717 361q-457 0-718-361t-261-995 261-995 718-361q456 0 717 361t261 995z" transform="scale(.01563)"/><path id="DejaVuSans-78" d="M3513 3500 2247 1797 3578 0h-678L1881 1375 863 0H184l1360 1831L300 3500h678l928-1247 928 1247z" transform="scale(.01563)"/><path id="DejaVuSans-7c" d="M1344 4891v-6400H813v6400z" transform="scale(.01563)"/><path id="DejaVuSans-2d" d="M313 2009h1684v-512H313z" transform="scale(.01563)"/><path id="DejaVuSans-43" d="M4122 4306v-665q-319 297-680 443-361 147-767 147-800 0-1225-489t-425-1414q0-922 425-1411t1225-489q406 0 767 147t680 444V359q-331-225-702-338-370-112-782-112-1060 0-1670 648-609 649-609 1771 0 1125 609 1773 610 649 1670 649 418 0 788-111 371-111 696-333z" transform="scale(.01563)"/><path id="DejaVuSans-6f" d="M1959 3097q-462 0-731-361t-269-989 267-989q268-361 733-361 460 0 728 362 269 363 269 988 0 622-269 986-268 364-728 364zm0 487q750 0 1178-488 429-487 429-1349 0-859-429-1349Q2709-91 1959-91q-753 0-1180 489-426 490-426 1349 0 862 426 1349 427 488 1180 488z" transform="scale(.01563)"/><path id="DejaVuSans-64" d="M2906 2969v1894h575V0h-575v525q-181-312-458-464-276-152-664-152-634 0-1033 506-398 507-398 1332t398 1331q399 506 1033 506 388 0 664-152 277-151 458-463zM947 1747q0-634 261-995t717-361 718 361q263 361 263 995t-263 995q-262 361-718 361t-717-361-261-995z" transform="scale(.01563)"/></defs><use xlink:href="#DejaVuSans-70"/><use xlink:href="#DejaVuSans-28" transform="translate(63.477)"/><use xlink:href="#DejaVuSans-78" transform="translate(102.49)"/><use xlink:href="#DejaVuSans-7c" transform="translate(161.67)"/><use xlink:href="#DejaVuSans-79" transform="translate(195.361)"/><use xlink:href="#DejaVuSans-29" transform="translate(254.541)"/><use xlink:href="#DejaVuSans-2d" transform="translate(325.342)"/><use xlink:href="#DejaVuSans-43" transform="translate(393.213)"/><use xlink:href="#DejaVuSans-6c" transform="translate(463.037)"/><use xlink:href="#DejaVuSans-61" transform="translate(490.82)"/><use xlink:href="#DejaVuSans-73" transform="translate(552.1)"/><use xlink:href="#DejaVuSans-73" transform="translate(604.2)"/><use xlink:href="#DejaVuSans-43" transform="translate(688.086)"/><use xlink:href="#DejaVuSans-6f" transform="translate(757.91)"/><use xlink:href="#DejaVuSans-6e" transform="translate(819.092)"/><use xlink:href="#DejaVuSans-64" transform="translate(882.47)"/><use xlink:href="#DejaVuSans-69" transform="translate(945.947)"/><use xlink:href="#DejaVuSans-74" transform="translate(973.73)"/><use xlink:href="#DejaVuSans-69" transform="translate(1012.94)"/><use xlink:href="#DejaVuSans-6f" transform="translate(1040.723)"/><use xlink:href="#DejaVuSans-6e" transform="translate(1101.904)"/><use xlink:href="#DejaVuSans-61" transform="translate(1165.283)"/><use xlink:href="#DejaVuSans-6c" transform="translate(1226.563)"/><use xlink:href="#DejaVuSans-73" transform="translate(1254.346)"/></g><g class="legend"><path d="M193.845 78.202h72.716q1.8 0 1.8-1.8V37.67q0-1.8-1.8-1.8h-72.716q-1.8 0-1.8 1.8V76.4q0 1.8 1.8 1.8z" class="patch" style="fill:#fff;opacity:.9;stroke:#ccc;stroke-linejoin:miter"/><path id="line2d_30" d="M195.645 43.16h18" style="fill:none;stroke:#ff0001;stroke-width:2;stroke-linecap:square"/><g id="text_17" class="text" transform="matrix(.09 0 0 -.09 220.845 46.31)"><use xlink:href="#DejaVuSans-73"/><use xlink:href="#DejaVuSans-65" transform="translate(52.1)"/><use xlink:href="#DejaVuSans-74" transform="translate(113.623)"/><use xlink:href="#DejaVuSans-6f" transform="translate(152.832)"/><use xlink:href="#DejaVuSans-73" transform="translate(214.014)"/><use xlink:href="#DejaVuSans-61" transform="translate(266.113)"/></g><path id="line2d_31" d="M195.645 56.37h18" style="fill:none;stroke:#00ff02;stroke-width:2;stroke-linecap:square"/><g id="text_18" class="text" transform="matrix(.09 0 0 -.09 220.845 59.52)"><defs><path id="DejaVuSans-76" d="M191 3500h609L1894 563l1094 2937h609L2284 0h-781z" transform="scale(.01563)"/><path id="DejaVuSans-72" d="M2631 2963q-97 56-211 82-114 27-251 27-488 0-749-317t-261-911V0H581v3500h578v-544q182 319 472 473 291 155 707 155 59 0 131-8 72-7 159-23z" transform="scale(.01563)"/></defs><use xlink:href="#DejaVuSans-76"/><use xlink:href="#DejaVuSans-65" transform="translate(59.18)"/><use xlink:href="#DejaVuSans-72" transform="translate(120.703)"/><use xlink:href="#DejaVuSans-73" transform="translate(161.816)"/><use xlink:href="#DejaVuSans-69" transform="translate(213.916)"/><use xlink:href="#DejaVuSans-63" transform="translate(241.7)"/><use xlink:href="#DejaVuSans-6f" transform="translate(296.68)"/><use xlink:href="#DejaVuSans-6c" transform="translate(357.861)"/><use xlink:href="#DejaVuSans-6f" transform="translate(385.645)"/><use xlink:href="#DejaVuSans-72" transform="translate(446.826)"/></g><path id="line2d_32" d="M195.645 69.58h18" style="fill:none;stroke:#00f;stroke-width:2;stroke-linecap:square"/><g id="text_19" class="text" transform="matrix(.09 0 0 -.09 220.845 72.73)"><use xlink:href="#DejaVuSans-76"/><use xlink:href="#DejaVuSans-69" transform="translate(59.18)"/><use xlink:href="#DejaVuSans-72" transform="translate(86.963)"/><use xlink:href="#DejaVuSans-67" transform="translate(126.326)"/><use xlink:href="#DejaVuSans-69" transform="translate(189.803)"/><use xlink:href="#DejaVuSans-6e" transform="translate(217.586)"/><use xlink:href="#DejaVuSans-69" transform="translate(280.965)"/><use xlink:href="#DejaVuSans-63" transform="translate(308.748)"/><use xlink:href="#DejaVuSans-61" transform="translate(363.729)"/></g></g></g><g id="axes_2"><path d="M329.781 239.13h229.08V31.37h-229.08z" class="patch" style="fill:none"/><g class="axis"><g class="tick xtick"><path id="line2d_33" d="M346.381 239.13V31.37" clip-path="url(#p4b150c4c54)" style="fill:none;stroke:#b0b0b0;stroke-opacity:.15;stroke-width:.8;stroke-linecap:square"/><use xlink:href="#ma05da7be2d" id="line2d_34" x="346.381" y="239.131" style="stroke:currentColor;stroke-width:.8"/><use xlink:href="#DejaVuSans-31" id="text_20" class="text" transform="matrix(.1 0 0 -.1 343.2 253.73)"/></g><g class="tick xtick"><path id="line2d_35" d="M379.581 239.13V31.37" clip-path="url(#p4b150c4c54)" style="fill:none;stroke:#b0b0b0;stroke-opacity:.15;stroke-width:.8;stroke-linecap:square"/><use xlink:href="#ma05da7be2d" id="line2d_36" x="379.581" y="239.131" style="stroke:currentColor;stroke-width:.8"/><use xlink:href="#DejaVuSans-32" id="text_21" class="text" transform="matrix(.1 0 0 -.1 376.4 253.73)"/></g><g class="tick xtick"><path id="line2d_37" d="M412.781 239.13V31.37" clip-path="url(#p4b150c4c54)" style="fill:none;stroke:#b0b0b0;stroke-opacity:.15;stroke-width:.8;stroke-linecap:square"/><use xlink:href="#ma05da7be2d" id="line2d_38" x="412.781" y="239.131" style="stroke:currentColor;stroke-width:.8"/><use xlink:href="#DejaVuSans-33" id="text_22" class="text" transform="matrix(.1 0 0 -.1 409.6 253.73)"/></g><g class="tick xtick"><path id="line2d_39" d="M445.981 239.13V31.37" clip-path="url(#p4b150c4c54)" style="fill:none;stroke:#b0b0b0;stroke-opacity:.15;stroke-width:.8;stroke-linecap:square"/><use xlink:href="#ma05da7be2d" id="line2d_40" x="445.981" y="239.131" style="stroke:currentColor;stroke-width:.8"/><use xlink:href="#DejaVuSans-34" id="text_23" class="text" transform="matrix(.1 0 0 -.1 442.8 253.73)"/></g><g class="tick xtick"><path id="line2d_41" d="M479.181 239.13V31.37" clip-path="url(#p4b150c4c54)" style="fill:none;stroke:#b0b0b0;stroke-opacity:.15;stroke-width:.8;stroke-linecap:square"/><use xlink:href="#ma05da7be2d" id="line2d_42" x="479.181" y="239.131" style="stroke:currentColor;stroke-width:.8"/><use xlink:href="#DejaVuSans-35" id="text_24" class="text" transform="matrix(.1 0 0 -.1 476 253.73)"/></g><g class="tick xtick"><path id="line2d_43" d="M512.381 239.13V31.37" clip-path="url(#p4b150c4c54)" style="fill:none;stroke:#b0b0b0;stroke-opacity:.15;stroke-width:.8;stroke-linecap:square"/><use xlink:href="#ma05da7be2d" id="line2d_44" x="512.381" y="239.131" style="stroke:currentColor;stroke-width:.8"/><use xlink:href="#DejaVuSans-36" id="text_25" class="text" transform="matrix(.1 0 0 -.1 509.2 253.73)"/></g><g class="tick xtick"><path id="line2d_45" d="M545.581 239.13V31.37" clip-path="url(#p4b150c4c54)" style="fill:none;stroke:#b0b0b0;stroke-opacity:.15;stroke-width:.8;stroke-linecap:square"/><use xlink:href="#ma05da7be2d" id="line2d_46" x="545.581" y="239.131" style="stroke:currentColor;stroke-width:.8"/><use xlink:href="#DejaVuSans-37" id="text_26" class="text" transform="matrix(.1 0 0 -.1 542.4 253.73)"/></g><g id="text_27" class="text" transform="matrix(.1 0 0 -.1 400.052 267.407)"><use xlink:href="#DejaVuSans-50"/><use xlink:href="#DejaVuSans-65" transform="translate(56.678)"/><use xlink:href="#DejaVuSans-74" transform="translate(118.201)"/><use xlink:href="#DejaVuSans-61" transform="translate(157.41)"/><use xlink:href="#DejaVuSans-6c" transform="translate(218.69)"/><use xlink:href="#DejaVuSans-4c" transform="translate(278.26)"/><use xlink:href="#DejaVuSans-65" transform="translate(332.223)"/><use xlink:href="#DejaVuSans-6e" transform="translate(393.746)"/><use xlink:href="#DejaVuSans-67" transform="translate(457.125)"/><use xlink:href="#DejaVuSans-74" transform="translate(520.602)"/><use xlink:href="#DejaVuSans-68" transform="translate(559.81)"/><use xlink:href="#DejaVuSans-28" transform="translate(654.977)"/><use xlink:href="#DejaVuSans-63" transform="translate(693.99)"/><use xlink:href="#DejaVuSans-6d" transform="translate(748.97)"/><use xlink:href="#DejaVuSans-29" transform="translate(846.383)"/></g></g><g class="axis"><g class="tick ytick"><path id="line2d_47" d="M329.781 239.13h229.08" clip-path="url(#p4b150c4c54)" style="fill:none;stroke:#b0b0b0;stroke-opacity:.15;stroke-width:.8;stroke-linecap:square"/><use xlink:href="#md1f856c881" id="line2d_48" x="329.781" y="239.131" style="stroke:currentColor;stroke-width:.8"/><g id="text_28" class="text" transform="matrix(.1 0 0 -.1 306.878 242.93)"><use xlink:href="#DejaVuSans-30"/><use xlink:href="#DejaVuSans-2e" transform="translate(63.623)"/><use xlink:href="#DejaVuSans-30" transform="translate(95.41)"/></g></g><g class="tick ytick"><path id="line2d_49" d="M329.781 203.155h229.08" clip-path="url(#p4b150c4c54)" style="fill:none;stroke:#b0b0b0;stroke-opacity:.15;stroke-width:.8;stroke-linecap:square"/><use xlink:href="#md1f856c881" id="line2d_50" x="329.781" y="203.155" style="stroke:currentColor;stroke-width:.8"/><g id="text_29" class="text" transform="matrix(.1 0 0 -.1 306.878 206.954)"><use xlink:href="#DejaVuSans-30"/><use xlink:href="#DejaVuSans-2e" transform="translate(63.623)"/><use xlink:href="#DejaVuSans-32" transform="translate(95.41)"/></g></g><g class="tick ytick"><path id="line2d_51" d="M329.781 167.18h229.08" clip-path="url(#p4b150c4c54)" style="fill:none;stroke:#b0b0b0;stroke-opacity:.15;stroke-width:.8;stroke-linecap:square"/><use xlink:href="#md1f856c881" id="line2d_52" x="329.781" y="167.179" style="stroke:currentColor;stroke-width:.8"/><g id="text_30" class="text" transform="matrix(.1 0 0 -.1 306.878 170.978)"><use xlink:href="#DejaVuSans-30"/><use xlink:href="#DejaVuSans-2e" transform="translate(63.623)"/><use xlink:href="#DejaVuSans-34" transform="translate(95.41)"/></g></g><g class="tick ytick"><path id="line2d_53" d="M329.781 131.203h229.08" clip-path="url(#p4b150c4c54)" style="fill:none;stroke:#b0b0b0;stroke-opacity:.15;stroke-width:.8;stroke-linecap:square"/><use xlink:href="#md1f856c881" id="line2d_54" x="329.781" y="131.203" style="stroke:currentColor;stroke-width:.8"/><g id="text_31" class="text" transform="matrix(.1 0 0 -.1 306.878 135.003)"><use xlink:href="#DejaVuSans-30"/><use xlink:href="#DejaVuSans-2e" transform="translate(63.623)"/><use xlink:href="#DejaVuSans-36" transform="translate(95.41)"/></g></g><g class="tick ytick"><path id="line2d_55" d="M329.781 95.228h229.08" clip-path="url(#p4b150c4c54)" style="fill:none;stroke:#b0b0b0;stroke-opacity:.15;stroke-width:.8;stroke-linecap:square"/><use xlink:href="#md1f856c881" id="line2d_56" x="329.781" y="95.228" style="stroke:currentColor;stroke-width:.8"/><g id="text_32" class="text" transform="matrix(.1 0 0 -.1 306.878 99.027)"><defs><path id="DejaVuSans-38" d="M2034 2216q-450 0-708-241-257-241-257-662 0-422 257-663 258-241 708-241t709 242q260 243 260 662 0 421-258 662-257 241-711 241zm-631 268q-406 100-633 378-226 279-226 679 0 559 398 884 399 325 1092 325 697 0 1094-325t397-884q0-400-227-679-226-278-629-378 456-106 710-416 255-309 255-755 0-679-414-1042Q2806-91 2034-91q-771 0-1186 362-414 363-414 1042 0 446 256 755 257 310 713 416zm-231 997q0-362 226-565 227-203 636-203 407 0 636 203 230 203 230 565 0 363-230 566-229 203-636 203-409 0-636-203-226-203-226-566z" transform="scale(.01563)"/></defs><use xlink:href="#DejaVuSans-30"/><use xlink:href="#DejaVuSans-2e" transform="translate(63.623)"/><use xlink:href="#DejaVuSans-38" transform="translate(95.41)"/></g></g><g class="tick ytick"><path id="line2d_57" d="M329.781 59.252h229.08" clip-path="url(#p4b150c4c54)" style="fill:none;stroke:#b0b0b0;stroke-opacity:.15;stroke-width:.8;stroke-linecap:square"/><use xlink:href="#md1f856c881" id="line2d_58" x="329.781" y="59.252" style="stroke:currentColor;stroke-width:.8"/><g id="text_33" class="text" transform="matrix(.1 0 0 -.1 306.878 63.051)"><use xlink:href="#DejaVuSans-31"/><use xlink:href="#DejaVuSans-2e" transform="translate(63.623)"/><use xlink:href="#DejaVuSans-30" transform="translate(95.41)"/></g></g><g id="text_34" class="text" transform="matrix(0 -.1 -.1 0 300.798 161.68)"><defs><path id="DejaVuSans-62" d="M3116 1747q0 634-261 995t-717 361q-457 0-718-361t-261-995 261-995 718-361q456 0 717 361t261 995zM1159 2969q182 312 458 463 277 152 661 152 638 0 1036-506 399-506 399-1331T3314 415Q2916-91 2278-91q-384 0-661 152-276 152-458 464V0H581v4863h578z" transform="scale(.01563)"/></defs><use xlink:href="#DejaVuSans-50"/><use xlink:href="#DejaVuSans-72" transform="translate(58.553)"/><use xlink:href="#DejaVuSans-6f" transform="translate(97.416)"/><use xlink:href="#DejaVuSans-62" transform="translate(158.598)"/><use xlink:href="#DejaVuSans-61" transform="translate(222.074)"/><use xlink:href="#DejaVuSans-62" transform="translate(283.354)"/><use xlink:href="#DejaVuSans-69" transform="translate(346.83)"/><use xlink:href="#DejaVuSans-6c" transform="translate(374.613)"/><use xlink:href="#DejaVuSans-69" transform="translate(402.396)"/><use xlink:href="#DejaVuSans-74" transform="translate(430.18)"/><use xlink:href="#DejaVuSans-79" transform="translate(469.389)"/></g></g><g id="FillBetweenPolyCollection_4"><defs><path id="m55e09d8f4d" d="M329.781-37.556v-179.879h47.198l1.15.001 1.152.002 1.151.008 1.151.03 1.151.14 1.152.742 1.15 4.428 1.152 25.998 1.151 81.491 1.151 56.17 1.151 9.794 1.152.988 1.15.08 1.152.006H558.86 329.782z" style="stroke:#ff0001;stroke-opacity:.2"/></defs><g clip-path="url(#p4b150c4c54)"><use xlink:href="#m55e09d8f4d" y="276.687" style="fill:#ff0001;fill-opacity:.2;stroke:#ff0001;stroke-opacity:.2"/></g></g><g id="FillBetweenPolyCollection_5"><defs><path id="ma2fc5785cb" d="M329.781-37.556h47.198l1.15-.001 1.152-.002 1.151-.008 1.151-.03 1.151-.14 1.152-.742 1.15-4.428 1.152-25.999 1.151-81.49 1.151-56.17 1.151-9.795 1.152-.987 1.15-.081 1.152-.006h28.778l1.152.002h1.151l1.151.002 1.151.003 1.151.004 1.152.006 1.15.01 1.152.012 1.151.02 1.151.026 1.151.036 1.152.048 1.15.063 1.152.081 1.151.105 1.151.132 1.151.167 1.152.208 1.15.259 1.152.319 1.151.39 1.151.477 1.151.574 1.151.688 1.152.816 1.15.959 1.152 1.117 1.151 1.292 1.151 1.484 1.151 1.697 1.152 1.933 1.15 2.199 1.152 2.498 1.151 2.835 1.151 3.212 1.151 3.632 1.151 4.088 1.152 4.574 1.15 5.08 1.152 5.585 1.151 6.073 1.151 6.522 1.151 6.909 1.152 7.214 1.15 7.424 1.152 7.532 1.151 7.538 1.151 7.448 1.151 7.275 1.152 7.036 1.15 6.744 1.152 6.415 1.151 6.057 1.151 5.681 1.151 5.287 1.151 4.874 1.152 4.447 1.15 4.003 1.152 3.546 1.151 3.086 1.151 2.632 1.151 2.196 1.152 1.792 1.15 1.428 1.152 1.113 1.151.848 1.151.633 1.151.462 1.151.33 1.152.233 1.15.16 1.152.11 1.151.072 1.151.047 1.151.03 1.152.02 1.15.011 1.152.008 1.151.004 1.151.002 1.151.002h1.151l1.152.001h41.441-229.079z" style="stroke:#00ff02;stroke-opacity:.2"/></defs><g clip-path="url(#p4b150c4c54)"><use xlink:href="#ma2fc5785cb" y="276.687" style="fill:#00ff02;fill-opacity:.2;stroke:#00ff02;stroke-opacity:.2"/></g></g><g id="FillBetweenPolyCollection_6"><defs><path id="m79dc79adb2" d="M329.781-37.556h90.942l1.15-.001h1.152l1.151-.002 1.151-.002 1.151-.002 1.151-.004 1.152-.006 1.15-.01 1.152-.013 1.151-.019 1.151-.026 1.151-.036 1.152-.048 1.15-.063 1.152-.082 1.151-.104 1.151-.133 1.151-.166 1.152-.209 1.15-.258 1.152-.32 1.151-.39 1.151-.476 1.151-.574 1.151-.688 1.152-.816 1.15-.959 1.152-1.117 1.151-1.293 1.151-1.484 1.151-1.696 1.152-1.934 1.15-2.198 1.152-2.498 1.151-2.835 1.151-3.213 1.151-3.631 1.151-4.088 1.152-4.575 1.15-5.079 1.152-5.585 1.151-6.074 1.151-6.522 1.151-6.908 1.152-7.214 1.15-7.424 1.152-7.532 1.151-7.538 1.151-7.448 1.151-7.276 1.152-7.035 1.15-6.744 1.152-6.415 1.151-6.058 1.151-5.68 1.151-5.287 1.151-4.875 1.152-4.446 1.15-4.003 1.152-3.547 1.151-3.086 1.151-2.631 1.151-2.196 1.152-1.792 1.15-1.428 1.152-1.113 1.151-.849 1.151-.632 1.151-.462 1.151-.331 1.152-.233 1.15-.16 1.152-.109 1.151-.072 1.151-.047 1.151-.03 1.152-.02 1.15-.012 1.152-.007 1.151-.004 1.151-.003 1.151-.001 1.151-.001h3.454l1.151-.001h37.988v179.879H329.782z" style="stroke:#00f;stroke-opacity:.2"/></defs><g clip-path="url(#p4b150c4c54)"><use xlink:href="#m79dc79adb2" y="276.687" style="fill:#00f;fill-opacity:.2;stroke:#00f;stroke-opacity:.2"/></g></g><path d="M329.781 239.13V31.37M329.781 239.13h229.08" class="patch" style="fill:none;stroke:currentColor;stroke-width:.8;stroke-linejoin:miter;stroke-linecap:square"/><path id="line2d_59" d="m329.781 59.252 51.802.04 1.151.14 1.152.743 1.15 4.427 1.152 26 1.151 81.49 1.151 56.17 1.151 9.794 1.152.988 2.302.086H558.86" clip-path="url(#p4b150c4c54)" style="fill:none;stroke:#ff0001;stroke-width:2;stroke-linecap:square"/><path id="line2d_60" d="m329.781 239.13 51.802-.04 1.151-.14 1.152-.742 1.15-4.428 1.152-25.999 1.151-81.49 1.151-56.17 1.151-9.795 1.152-.987 2.302-.087 40.29.085 4.605.228 3.453.404 2.303.467 2.302.71 2.302 1.05 2.303 1.503 1.15.96 1.152 1.117 1.151 1.292 1.151 1.484 1.151 1.697 1.152 1.933 1.15 2.199 1.152 2.498 1.151 2.835 1.151 3.212 1.151 3.632 1.151 4.088 1.152 4.574 1.15 5.08 2.303 11.658 2.302 13.43 3.454 22.17 3.453 22.262 2.303 13.78 2.302 12.472 2.302 10.967 2.303 9.322 1.15 4.003 1.152 3.546 1.151 3.086 1.151 2.632 1.151 2.196 1.152 1.792 1.15 1.428 1.152 1.113 1.151.848 1.151.633 1.151.462 2.303.563 2.302.27 3.453.15 9.21.047h41.441" clip-path="url(#p4b150c4c54)" style="fill:none;stroke:#00ff02;stroke-width:2;stroke-linecap:square"/><path id="line2d_61" d="m329.781 239.13 103.604-.084 4.605-.229 3.453-.404 2.303-.466 2.302-.71 2.302-1.05 2.303-1.504 1.15-.959 1.152-1.118 1.151-1.292 1.151-1.484 1.151-1.697 1.152-1.933 1.15-2.198 1.152-2.498 1.151-2.835 1.151-3.213 1.151-3.631 1.151-4.088 1.152-4.575 1.15-5.079 2.303-11.659 2.302-13.43 3.454-22.17 3.453-22.262 2.303-13.78 2.302-12.472 2.302-10.967 2.303-9.322 1.15-4.002 1.152-3.547 1.151-3.086 1.151-2.631 1.151-2.197 1.152-1.791 1.15-1.428 1.152-1.114 1.151-.848 1.151-.632 1.151-.462 2.303-.564 2.302-.269 3.453-.15 9.21-.048h41.441" clip-path="url(#p4b150c4c54)" style="fill:none;stroke:#00f;stroke-width:2;stroke-linecap:square"/><g id="text_35" class="text" transform="matrix(.12 0 0 -.12 355.66 16.37)"><use xlink:href="#DejaVuSans-70"/><use xlink:href="#DejaVuSans-28" transform="translate(63.477)"/><use xlink:href="#DejaVuSans-79" transform="translate(102.49)"/><use xlink:href="#DejaVuSans-7c" transform="translate(161.67)"/><use xlink:href="#DejaVuSans-78" transform="translate(195.361)"/><use xlink:href="#DejaVuSans-29" transform="translate(254.541)"/><use xlink:href="#DejaVuSans-2d" transform="translate(325.342)"/><use xlink:href="#DejaVuSans-50" transform="translate(393.213)"/><use xlink:href="#DejaVuSans-6f" transform="translate(449.89)"/><use xlink:href="#DejaVuSans-73" transform="translate(511.072)"/><use xlink:href="#DejaVuSans-74" transform="translate(563.172)"/><use xlink:href="#DejaVuSans-65" transform="translate(602.38)"/><use xlink:href="#DejaVuSans-72" transform="translate(663.904)"/><use xlink:href="#DejaVuSans-69" transform="translate(705.018)"/><use xlink:href="#DejaVuSans-6f" transform="translate(732.8)"/><use xlink:href="#DejaVuSans-72" transform="translate(793.982)"/><use xlink:href="#DejaVuSans-50" transform="translate(866.883)"/><use xlink:href="#DejaVuSans-72" transform="translate(925.436)"/><use xlink:href="#DejaVuSans-6f" transform="translate(964.299)"/><use xlink:href="#DejaVuSans-62" transform="translate(1025.48)"/><use xlink:href="#DejaVuSans-61" transform="translate(1088.957)"/><use xlink:href="#DejaVuSans-62" transform="translate(1150.236)"/><use xlink:href="#DejaVuSans-69" transform="translate(1213.713)"/><use xlink:href="#DejaVuSans-6c" transform="translate(1241.496)"/><use xlink:href="#DejaVuSans-69" transform="translate(1269.28)"/><use xlink:href="#DejaVuSans-74" transform="translate(1297.063)"/><use xlink:href="#DejaVuSans-69" transform="translate(1336.271)"/><use xlink:href="#DejaVuSans-65" transform="translate(1364.055)"/><use xlink:href="#DejaVuSans-73" transform="translate(1425.578)"/></g><g class="legend"><path d="M479.845 78.202h72.716q1.8 0 1.8-1.8V37.67q0-1.8-1.8-1.8h-72.716q-1.8 0-1.8 1.8V76.4q0 1.8 1.8 1.8z" class="patch" style="fill:#fff;opacity:.9;stroke:#ccc;stroke-linejoin:miter"/><path id="line2d_62" d="M481.645 43.16h18" style="fill:none;stroke:#ff0001;stroke-width:2;stroke-linecap:square"/><g id="text_36" class="text" transform="matrix(.09 0 0 -.09 506.845 46.31)"><use xlink:href="#DejaVuSans-73"/><use xlink:href="#DejaVuSans-65" transform="translate(52.1)"/><use xlink:href="#DejaVuSans-74" transform="translate(113.623)"/><use xlink:href="#DejaVuSans-6f" transform="translate(152.832)"/><use xlink:href="#DejaVuSans-73" transform="translate(214.014)"/><use xlink:href="#DejaVuSans-61" transform="translate(266.113)"/></g><path id="line2d_63" d="M481.645 56.37h18" style="fill:none;stroke:#00ff02;stroke-width:2;stroke-linecap:square"/><g id="text_37" class="text" transform="matrix(.09 0 0 -.09 506.845 59.52)"><use xlink:href="#DejaVuSans-76"/><use xlink:href="#DejaVuSans-65" transform="translate(59.18)"/><use xlink:href="#DejaVuSans-72" transform="translate(120.703)"/><use xlink:href="#DejaVuSans-73" transform="translate(161.816)"/><use xlink:href="#DejaVuSans-69" transform="translate(213.916)"/><use xlink:href="#DejaVuSans-63" transform="translate(241.7)"/><use xlink:href="#DejaVuSans-6f" transform="translate(296.68)"/><use xlink:href="#DejaVuSans-6c" transform="translate(357.861)"/><use xlink:href="#DejaVuSans-6f" transform="translate(385.645)"/><use xlink:href="#DejaVuSans-72" transform="translate(446.826)"/></g><path id="line2d_64" d="M481.645 69.58h18" style="fill:none;stroke:#00f;stroke-width:2;stroke-linecap:square"/><g id="text_38" class="text" transform="matrix(.09 0 0 -.09 506.845 72.73)"><use xlink:href="#DejaVuSans-76"/><use xlink:href="#DejaVuSans-69" transform="translate(59.18)"/><use xlink:href="#DejaVuSans-72" transform="translate(86.963)"/><use xlink:href="#DejaVuSans-67" transform="translate(126.326)"/><use xlink:href="#DejaVuSans-69" transform="translate(189.803)"/><use xlink:href="#DejaVuSans-6e" transform="translate(217.586)"/><use xlink:href="#DejaVuSans-69" transform="translate(280.965)"/><use xlink:href="#DejaVuSans-63" transform="translate(308.748)"/><use xlink:href="#DejaVuSans-61" transform="translate(363.729)"/></g></g></g></g><defs><clipPath id="p2d8289df03"><path d="M43.781 31.371h229.08v207.76H43.781z"/></clipPath><clipPath id="p4b150c4c54"><path d="M329.781 31.371h229.08v207.76h-229.08z"/></clipPath></defs></svg>