<svg xmlns="http://www.w3.org/2000/svg" xmlns:xlink="http://www.w3.org/1999/xlink" width="549.65" height="463.275" viewBox="0 0 412.237 347.456"><style><![CDATA[.text{fill:#000!important;stroke:none!important}.axis path,.tick path,[stroke=black],[stroke=currentColor]{stroke:#000!important}@media (prefers-color-scheme:dark){.text{fill:#fff!important;stroke:none!important}.axis path,.tick path,[stroke=black],[stroke=currentColor]{stroke:#fff!important}g.legend>g:first-child>path:first-child{fill:rgba(26,26,26,.8)!important;stroke:rgba(255,255,255,.1)!important}}*{stroke-linejoin:round;stroke-linecap:butt}]]></style><g id="figure_1"><path d="M0 347.456h412.237V0H0z" class="patch" style="fill:none"/><g id="axes_1"><path d="M47.917 310.868h357.12V44.755H47.917z" class="patch" style="fill:none"/><g class="axis"><g class="tick xtick"><path id="line2d_1" d="M77.677 310.868V44.755" clip-path="url(#p00ce208059)" style="fill:none;stroke:#b0b0b0;stroke-opacity:.15;stroke-width:.8;stroke-linecap:square"/><g id="line2d_2"><defs><path id="mb148b10c3b" d="M0 0v3.5" style="stroke:currentColor;stroke-width:.8"/></defs><use xlink:href="#mb148b10c3b" x="77.677" y="310.868" style="stroke:currentColor;stroke-width:.8"/></g><g id="text_1" class="text" transform="matrix(.09 0 0 -.09 74.814 324.706)"><defs><path id="DejaVuSans-31" d="M794 531h1031v3560L703 3866v575l1116 225h631V531h1031V0H794z" transform="scale(.01563)"/></defs><use xlink:href="#DejaVuSans-31"/></g></g><g class="tick xtick"><path id="line2d_3" d="M150.263 310.868V44.755" clip-path="url(#p00ce208059)" style="fill:none;stroke:#b0b0b0;stroke-opacity:.15;stroke-width:.8;stroke-linecap:square"/><use xlink:href="#mb148b10c3b" id="line2d_4" x="150.263" y="310.868" style="stroke:currentColor;stroke-width:.8"/><g id="text_2" class="text" transform="matrix(.09 0 0 -.09 147.4 324.706)"><defs><path id="DejaVuSans-32" d="M1228 531h2203V0H469v531q359 372 979 998 621 627 780 809 303 340 423 576 121 236 121 464 0 372-261 606-261 235-680 235-297 0-627-103-329-103-704-313v638q381 153 712 231 332 78 607 78 725 0 1156-363 431-362 431-968 0-288-108-546-107-257-392-607-78-91-497-524-418-433-1181-1211z" transform="scale(.01563)"/></defs><use xlink:href="#DejaVuSans-32"/></g></g><g class="tick xtick"><path id="line2d_5" d="M222.848 310.868V44.755" clip-path="url(#p00ce208059)" style="fill:none;stroke:#b0b0b0;stroke-opacity:.15;stroke-width:.8;stroke-linecap:square"/><use xlink:href="#mb148b10c3b" id="line2d_6" x="222.848" y="310.868" style="stroke:currentColor;stroke-width:.8"/><g id="text_3" class="text" transform="matrix(.09 0 0 -.09 219.985 324.706)"><defs><path id="DejaVuSans-33" d="M2597 2516q453-97 707-404 255-306 255-756 0-690-475-1069Q2609-91 1734-91q-293 0-604 58T488 141v609q262-153 574-231 313-78 654-78 593 0 904 234t311 681q0 413-289 645-289 233-804 233h-544v519h569q465 0 712 186t247 536q0 359-255 551-254 193-729 193-260 0-557-57-297-56-653-174v562q360 100 674 150t592 50q719 0 1137-327 419-326 419-882 0-388-222-655t-631-370z" transform="scale(.01563)"/></defs><use xlink:href="#DejaVuSans-33"/></g></g><g class="tick xtick"><path id="line2d_7" d="M295.433 310.868V44.755" clip-path="url(#p00ce208059)" style="fill:none;stroke:#b0b0b0;stroke-opacity:.15;stroke-width:.8;stroke-linecap:square"/><use xlink:href="#mb148b10c3b" id="line2d_8" x="295.433" y="310.868" style="stroke:currentColor;stroke-width:.8"/><g id="text_4" class="text" transform="matrix(.09 0 0 -.09 292.57 324.706)"><defs><path id="DejaVuSans-34" d="M2419 4116 825 1625h1594zm-166 550h794V1625h666v-525h-666V0h-628v1100H313v609z" transform="scale(.01563)"/></defs><use xlink:href="#DejaVuSans-34"/></g></g><g class="tick xtick"><path id="line2d_9" d="M368.019 310.868V44.755" clip-path="url(#p00ce208059)" style="fill:none;stroke:#b0b0b0;stroke-opacity:.15;stroke-width:.8;stroke-linecap:square"/><use xlink:href="#mb148b10c3b" id="line2d_10" x="368.019" y="310.868" style="stroke:currentColor;stroke-width:.8"/><g id="text_5" class="text" transform="matrix(.09 0 0 -.09 365.156 324.706)"><defs><path id="DejaVuSans-35" d="M691 4666h2478v-532H1269V2991q137 47 274 70 138 23 276 23 781 0 1237-428 457-428 457-1159 0-753-469-1171Q2575-91 1722-91q-294 0-599 50Q819 9 494 109v635q281-153 581-228t634-75q541 0 856 284 316 284 316 772 0 487-316 771-315 285-856 285-253 0-505-56-251-56-513-175z" transform="scale(.01563)"/></defs><use xlink:href="#DejaVuSans-35"/></g></g><g id="text_6" class="text" transform="matrix(.1 0 0 -.1 182.208 338.176)"><defs><path id="DejaVuSans-50" d="M1259 4147V2394h794q441 0 681 228 241 228 241 650 0 419-241 647-240 228-681 228zm-631 519h1425q785 0 1186-355 402-355 402-1039 0-691-402-1044-401-353-1186-353h-794V0H628z" transform="scale(.01563)"/><path id="DejaVuSans-65" d="M3597 1894v-281H953q38-594 358-905t892-311q331 0 642 81t618 244V178Q3153 47 2828-22t-659-69q-838 0-1327 487-489 488-489 1320 0 859 464 1363 464 505 1252 505 706 0 1117-455 411-454 411-1235zm-575 169q-6 471-264 752-258 282-683 282-481 0-770-272t-333-766z" transform="scale(.01563)"/><path id="DejaVuSans-74" d="M1172 4494v-994h1184v-447H1172V1153q0-428 117-550t477-122h590V0h-590q-666 0-919 248-253 249-253 905v1900H172v447h422v994z" transform="scale(.01563)"/><path id="DejaVuSans-61" d="M2194 1759q-697 0-966-159t-269-544q0-306 202-486 202-179 548-179 479 0 768 339t289 901v128zm1147 238V0h-575v531q-197-318-491-470T1556-91q-537 0-855 302-317 302-317 808 0 590 395 890 396 300 1180 300h807v57q0 397-261 614t-733 217q-300 0-585-72-284-72-546-216v532q315 122 612 182 297 61 578 61 760 0 1135-394 375-393 375-1193z" transform="scale(.01563)"/><path id="DejaVuSans-6c" d="M603 4863h575V0H603z" transform="scale(.01563)"/><path id="DejaVuSans-4c" d="M628 4666h631V531h2272V0H628z" transform="scale(.01563)"/><path id="DejaVuSans-6e" d="M3513 2113V0h-575v2094q0 497-194 743-194 247-581 247-466 0-735-297-269-296-269-809V0H581v3500h578v-544q207 316 486 472 280 156 646 156 603 0 912-373 310-373 310-1098z" transform="scale(.01563)"/><path id="DejaVuSans-67" d="M2906 1791q0 625-258 968-257 344-723 344-462 0-720-344-258-343-258-968 0-622 258-966t720-344q466 0 723 344 258 344 258 966zm575-1357q0-893-397-1329-396-436-1215-436-303 0-572 45t-522 139v559q253-137 500-202 247-66 503-66 566 0 847 295t281 892v285q-178-310-456-463T1784 0Q1141 0 747 490 353 981 353 1791q0 812 394 1302 394 491 1037 491 388 0 666-153t456-462v531h575z" transform="scale(.01563)"/><path id="DejaVuSans-68" d="M3513 2113V0h-575v2094q0 497-194 743-194 247-581 247-466 0-735-297-269-296-269-809V0H581v4863h578V2956q207 316 486 472 280 156 646 156 603 0 912-373 310-373 310-1098z" transform="scale(.01563)"/><path id="DejaVuSans-28" d="M1984 4856q-418-718-622-1422-203-703-203-1425 0-721 205-1429t620-1424h-500Q1016-109 783 600T550 2009q0 697 231 1403 232 707 703 1444z" transform="scale(.01563)"/><path id="DejaVuSans-63" d="M3122 3366v-538q-244 135-489 202t-495 67q-560 0-870-355-309-354-309-995t309-996q310-354 870-354 250 0 495 67t489 202V134Q2881 22 2623-34q-257-57-548-57-791 0-1257 497-465 497-465 1341 0 856 470 1346 471 491 1290 491 265 0 518-55 253-54 491-163z" transform="scale(.01563)"/><path id="DejaVuSans-6d" d="M3328 2828q216 388 516 572t706 184q547 0 844-383 297-382 297-1088V0h-578v2094q0 503-179 746-178 244-543 244-447 0-707-297-259-296-259-809V0h-578v2094q0 506-178 748t-550 242q-441 0-701-298-259-298-259-808V0H581v3500h578v-544q197 322 472 475t653 153q382 0 649-194 267-193 395-562z" transform="scale(.01563)"/><path id="DejaVuSans-29" d="M513 4856h500q468-737 701-1444 233-706 233-1403 0-700-233-1409T1013-844H513q415 716 620 1424t205 1429q0 722-205 1425-205 704-620 1422z" transform="scale(.01563)"/></defs><use xlink:href="#DejaVuSans-50"/><use xlink:href="#DejaVuSans-65" transform="translate(56.678)"/><use xlink:href="#DejaVuSans-74" transform="translate(118.201)"/><use xlink:href="#DejaVuSans-61" transform="translate(157.41)"/><use xlink:href="#DejaVuSans-6c" transform="translate(218.69)"/><use xlink:href="#DejaVuSans-4c" transform="translate(278.26)"/><use xlink:href="#DejaVuSans-65" transform="translate(332.223)"/><use xlink:href="#DejaVuSans-6e" transform="translate(393.746)"/><use xlink:href="#DejaVuSans-67" transform="translate(457.125)"/><use xlink:href="#DejaVuSans-74" transform="translate(520.602)"/><use xlink:href="#DejaVuSans-68" transform="translate(559.81)"/><use xlink:href="#DejaVuSans-28" transform="translate(654.977)"/><use xlink:href="#DejaVuSans-63" transform="translate(693.99)"/><use xlink:href="#DejaVuSans-6d" transform="translate(748.97)"/><use xlink:href="#DejaVuSans-29" transform="translate(846.383)"/></g></g><g class="axis"><g class="tick ytick"><path id="line2d_11" d="M47.917 301.736h357.12" clip-path="url(#p00ce208059)" style="fill:none;stroke:#b0b0b0;stroke-opacity:.15;stroke-width:.8;stroke-linecap:square"/><g id="line2d_12"><defs><path id="m118fcdb38b" d="M0 0h-3.5" style="stroke:currentColor;stroke-width:.8"/></defs><use xlink:href="#m118fcdb38b" x="47.917" y="301.736" style="stroke:currentColor;stroke-width:.8"/></g><g id="text_7" class="text" transform="matrix(.09 0 0 -.09 20.878 305.156)"><defs><path id="DejaVuSans-30" d="M2034 4250q-487 0-733-480-245-479-245-1442 0-959 245-1439 246-480 733-480 491 0 736 480 246 480 246 1439 0 963-246 1442-245 480-736 480zm0 500q785 0 1199-621 414-620 414-1801 0-1178-414-1799Q2819-91 2034-91q-784 0-1198 620-414 621-414 1799 0 1181 414 1801 414 621 1198 621z" transform="scale(.01563)"/><path id="DejaVuSans-2e" d="M684 794h660V0H684z" transform="scale(.01563)"/></defs><use xlink:href="#DejaVuSans-30"/><use xlink:href="#DejaVuSans-2e" transform="translate(63.623)"/><use xlink:href="#DejaVuSans-30" transform="translate(95.41)"/><use xlink:href="#DejaVuSans-30" transform="translate(159.033)"/></g></g><g class="tick ytick"><path id="line2d_13" d="M47.917 269.124h357.12" clip-path="url(#p00ce208059)" style="fill:none;stroke:#b0b0b0;stroke-opacity:.15;stroke-width:.8;stroke-linecap:square"/><use xlink:href="#m118fcdb38b" id="line2d_14" x="47.917" y="269.124" style="stroke:currentColor;stroke-width:.8"/><g id="text_8" class="text" transform="matrix(.09 0 0 -.09 20.878 272.544)"><use xlink:href="#DejaVuSans-30"/><use xlink:href="#DejaVuSans-2e" transform="translate(63.623)"/><use xlink:href="#DejaVuSans-32" transform="translate(95.41)"/><use xlink:href="#DejaVuSans-35" transform="translate(159.033)"/></g></g><g class="tick ytick"><path id="line2d_15" d="M47.917 236.513h357.12" clip-path="url(#p00ce208059)" style="fill:none;stroke:#b0b0b0;stroke-opacity:.15;stroke-width:.8;stroke-linecap:square"/><use xlink:href="#m118fcdb38b" id="line2d_16" x="47.917" y="236.513" style="stroke:currentColor;stroke-width:.8"/><g id="text_9" class="text" transform="matrix(.09 0 0 -.09 20.878 239.932)"><use xlink:href="#DejaVuSans-30"/><use xlink:href="#DejaVuSans-2e" transform="translate(63.623)"/><use xlink:href="#DejaVuSans-35" transform="translate(95.41)"/><use xlink:href="#DejaVuSans-30" transform="translate(159.033)"/></g></g><g class="tick ytick"><path id="line2d_17" d="M47.917 203.9h357.12" clip-path="url(#p00ce208059)" style="fill:none;stroke:#b0b0b0;stroke-opacity:.15;stroke-width:.8;stroke-linecap:square"/><use xlink:href="#m118fcdb38b" id="line2d_18" x="47.917" y="203.901" style="stroke:currentColor;stroke-width:.8"/><g id="text_10" class="text" transform="matrix(.09 0 0 -.09 20.878 207.32)"><defs><path id="DejaVuSans-37" d="M525 4666h3000v-269L1831 0h-659l1594 4134H525z" transform="scale(.01563)"/></defs><use xlink:href="#DejaVuSans-30"/><use xlink:href="#DejaVuSans-2e" transform="translate(63.623)"/><use xlink:href="#DejaVuSans-37" transform="translate(95.41)"/><use xlink:href="#DejaVuSans-35" transform="translate(159.033)"/></g></g><g class="tick ytick"><path id="line2d_19" d="M47.917 171.29h357.12" clip-path="url(#p00ce208059)" style="fill:none;stroke:#b0b0b0;stroke-opacity:.15;stroke-width:.8;stroke-linecap:square"/><use xlink:href="#m118fcdb38b" id="line2d_20" x="47.917" y="171.289" style="stroke:currentColor;stroke-width:.8"/><g id="text_11" class="text" transform="matrix(.09 0 0 -.09 20.878 174.708)"><use xlink:href="#DejaVuSans-31"/><use xlink:href="#DejaVuSans-2e" transform="translate(63.623)"/><use xlink:href="#DejaVuSans-30" transform="translate(95.41)"/><use xlink:href="#DejaVuSans-30" transform="translate(159.033)"/></g></g><g class="tick ytick"><path id="line2d_21" d="M47.917 138.677h357.12" clip-path="url(#p00ce208059)" style="fill:none;stroke:#b0b0b0;stroke-opacity:.15;stroke-width:.8;stroke-linecap:square"/><use xlink:href="#m118fcdb38b" id="line2d_22" x="47.917" y="138.677" style="stroke:currentColor;stroke-width:.8"/><g id="text_12" class="text" transform="matrix(.09 0 0 -.09 20.878 142.097)"><use xlink:href="#DejaVuSans-31"/><use xlink:href="#DejaVuSans-2e" transform="translate(63.623)"/><use xlink:href="#DejaVuSans-32" transform="translate(95.41)"/><use xlink:href="#DejaVuSans-35" transform="translate(159.033)"/></g></g><g class="tick ytick"><path id="line2d_23" d="M47.917 106.066h357.12" clip-path="url(#p00ce208059)" style="fill:none;stroke:#b0b0b0;stroke-opacity:.15;stroke-width:.8;stroke-linecap:square"/><use xlink:href="#m118fcdb38b" id="line2d_24" x="47.917" y="106.066" style="stroke:currentColor;stroke-width:.8"/><g id="text_13" class="text" transform="matrix(.09 0 0 -.09 20.878 109.485)"><use xlink:href="#DejaVuSans-31"/><use xlink:href="#DejaVuSans-2e" transform="translate(63.623)"/><use xlink:href="#DejaVuSans-35" transform="translate(95.41)"/><use xlink:href="#DejaVuSans-30" transform="translate(159.033)"/></g></g><g class="tick ytick"><path id="line2d_25" d="M47.917 73.454h357.12" clip-path="url(#p00ce208059)" style="fill:none;stroke:#b0b0b0;stroke-opacity:.15;stroke-width:.8;stroke-linecap:square"/><use xlink:href="#m118fcdb38b" id="line2d_26" x="47.917" y="73.454" style="stroke:currentColor;stroke-width:.8"/><g id="text_14" class="text" transform="matrix(.09 0 0 -.09 20.878 76.873)"><use xlink:href="#DejaVuSans-31"/><use xlink:href="#DejaVuSans-2e" transform="translate(63.623)"/><use xlink:href="#DejaVuSans-37" transform="translate(95.41)"/><use xlink:href="#DejaVuSans-35" transform="translate(159.033)"/></g></g><g id="text_15" class="text" transform="matrix(0 -.1 -.1 0 14.798 219.358)"><defs><path id="DejaVuSans-57" d="M213 4666h637l981-3944 978 3944h710l981-3944 978 3944h641L4947 0h-794l-984 4050L2175 0h-794z" transform="scale(.01563)"/><path id="DejaVuSans-69" d="M603 3500h575V0H603zm0 1363h575v-729H603z" transform="scale(.01563)"/><path id="DejaVuSans-64" d="M2906 2969v1894h575V0h-575v525q-181-312-458-464-276-152-664-152-634 0-1033 506-398 507-398 1332t398 1331q399 506 1033 506 388 0 664-152 277-151 458-463zM947 1747q0-634 261-995t717-361 718 361q263 361 263 995t-263 995q-262 361-718 361t-717-361-261-995z" transform="scale(.01563)"/></defs><use xlink:href="#DejaVuSans-50"/><use xlink:href="#DejaVuSans-65" transform="translate(56.678)"/><use xlink:href="#DejaVuSans-74" transform="translate(118.201)"/><use xlink:href="#DejaVuSans-61" transform="translate(157.41)"/><use xlink:href="#DejaVuSans-6c" transform="translate(218.69)"/><use xlink:href="#DejaVuSans-57" transform="translate(278.26)"/><use xlink:href="#DejaVuSans-69" transform="translate(374.887)"/><use xlink:href="#DejaVuSans-64" transform="translate(402.67)"/><use xlink:href="#DejaVuSans-74" transform="translate(466.146)"/><use xlink:href="#DejaVuSans-68" transform="translate(505.355)"/><use xlink:href="#DejaVuSans-28" transform="translate(600.521)"/><use xlink:href="#DejaVuSans-63" transform="translate(639.535)"/><use xlink:href="#DejaVuSans-6d" transform="translate(694.516)"/><use xlink:href="#DejaVuSans-29" transform="translate(791.928)"/></g></g><path d="M47.917 310.868V44.755M47.917 310.868h357.12" class="patch" style="fill:none;stroke:currentColor;stroke-width:.8;stroke-linejoin:miter;stroke-linecap:square"/><g id="PathCollection_1"><defs><path id="m3b85aab426" d="M0 4.183a4.183 4.183 0 1 0 0-8.367 4.183 4.183 0 0 0 0 8.367z" style="stroke:#fff;stroke-opacity:.7;stroke-width:.5"/></defs><g clip-path="url(#p00ce208059)"><use xlink:href="#m3b85aab426" x="106.711" y="275.647" style="fill:#ff0001;fill-opacity:.7;stroke:#fff;stroke-opacity:.7;stroke-width:.5"/><use xlink:href="#m3b85aab426" x="106.711" y="275.647" style="fill:#ff0001;fill-opacity:.7;stroke:#fff;stroke-opacity:.7;stroke-width:.5"/><use xlink:href="#m3b85aab426" x="99.453" y="275.647" style="fill:#ff0001;fill-opacity:.7;stroke:#fff;stroke-opacity:.7;stroke-width:.5"/><use xlink:href="#m3b85aab426" x="113.97" y="275.647" style="fill:#ff0001;fill-opacity:.7;stroke:#fff;stroke-opacity:.7;stroke-width:.5"/><use xlink:href="#m3b85aab426" x="106.711" y="275.647" style="fill:#ff0001;fill-opacity:.7;stroke:#fff;stroke-opacity:.7;stroke-width:.5"/><use xlink:href="#m3b85aab426" x="128.487" y="249.557" style="fill:#ff0001;fill-opacity:.7;stroke:#fff;stroke-opacity:.7;stroke-width:.5"/><use xlink:href="#m3b85aab426" x="106.711" y="262.602" style="fill:#ff0001;fill-opacity:.7;stroke:#fff;stroke-opacity:.7;stroke-width:.5"/><use xlink:href="#m3b85aab426" x="113.97" y="275.647" style="fill:#ff0001;fill-opacity:.7;stroke:#fff;stroke-opacity:.7;stroke-width:.5"/><use xlink:href="#m3b85aab426" x="106.711" y="275.647" style="fill:#ff0001;fill-opacity:.7;stroke:#fff;stroke-opacity:.7;stroke-width:.5"/><use xlink:href="#m3b85aab426" x="113.97" y="288.692" style="fill:#ff0001;fill-opacity:.7;stroke:#fff;stroke-opacity:.7;stroke-width:.5"/><use xlink:href="#m3b85aab426" x="113.97" y="275.647" style="fill:#ff0001;fill-opacity:.7;stroke:#fff;stroke-opacity:.7;stroke-width:.5"/><use xlink:href="#m3b85aab426" x="121.228" y="275.647" style="fill:#ff0001;fill-opacity:.7;stroke:#fff;stroke-opacity:.7;stroke-width:.5"/><use xlink:href="#m3b85aab426" x="106.711" y="288.692" style="fill:#ff0001;fill-opacity:.7;stroke:#fff;stroke-opacity:.7;stroke-width:.5"/><use xlink:href="#m3b85aab426" x="84.936" y="288.692" style="fill:#ff0001;fill-opacity:.7;stroke:#fff;stroke-opacity:.7;stroke-width:.5"/><use xlink:href="#m3b85aab426" x="92.194" y="275.647" style="fill:#ff0001;fill-opacity:.7;stroke:#fff;stroke-opacity:.7;stroke-width:.5"/><use xlink:href="#m3b85aab426" x="113.97" y="249.557" style="fill:#ff0001;fill-opacity:.7;stroke:#fff;stroke-opacity:.7;stroke-width:.5"/><use xlink:href="#m3b85aab426" x="99.453" y="249.557" style="fill:#ff0001;fill-opacity:.7;stroke:#fff;stroke-opacity:.7;stroke-width:.5"/><use xlink:href="#m3b85aab426" x="106.711" y="262.602" style="fill:#ff0001;fill-opacity:.7;stroke:#fff;stroke-opacity:.7;stroke-width:.5"/><use xlink:href="#m3b85aab426" x="128.487" y="262.602" style="fill:#ff0001;fill-opacity:.7;stroke:#fff;stroke-opacity:.7;stroke-width:.5"/><use xlink:href="#m3b85aab426" x="113.97" y="262.602" style="fill:#ff0001;fill-opacity:.7;stroke:#fff;stroke-opacity:.7;stroke-width:.5"/><use xlink:href="#m3b85aab426" x="128.487" y="275.647" style="fill:#ff0001;fill-opacity:.7;stroke:#fff;stroke-opacity:.7;stroke-width:.5"/><use xlink:href="#m3b85aab426" x="113.97" y="249.557" style="fill:#ff0001;fill-opacity:.7;stroke:#fff;stroke-opacity:.7;stroke-width:.5"/><use xlink:href="#m3b85aab426" x="77.677" y="275.647" style="fill:#ff0001;fill-opacity:.7;stroke:#fff;stroke-opacity:.7;stroke-width:.5"/><use xlink:href="#m3b85aab426" x="128.487" y="236.513" style="fill:#ff0001;fill-opacity:.7;stroke:#fff;stroke-opacity:.7;stroke-width:.5"/><use xlink:href="#m3b85aab426" x="143.004" y="275.647" style="fill:#ff0001;fill-opacity:.7;stroke:#fff;stroke-opacity:.7;stroke-width:.5"/><use xlink:href="#m3b85aab426" x="121.228" y="275.647" style="fill:#ff0001;fill-opacity:.7;stroke:#fff;stroke-opacity:.7;stroke-width:.5"/><use xlink:href="#m3b85aab426" x="121.228" y="249.557" style="fill:#ff0001;fill-opacity:.7;stroke:#fff;stroke-opacity:.7;stroke-width:.5"/><use xlink:href="#m3b85aab426" x="113.97" y="275.647" style="fill:#ff0001;fill-opacity:.7;stroke:#fff;stroke-opacity:.7;stroke-width:.5"/><use xlink:href="#m3b85aab426" x="106.711" y="275.647" style="fill:#ff0001;fill-opacity:.7;stroke:#fff;stroke-opacity:.7;stroke-width:.5"/><use xlink:href="#m3b85aab426" x="121.228" y="275.647" style="fill:#ff0001;fill-opacity:.7;stroke:#fff;stroke-opacity:.7;stroke-width:.5"/><use xlink:href="#m3b85aab426" x="121.228" y="275.647" style="fill:#ff0001;fill-opacity:.7;stroke:#fff;stroke-opacity:.7;stroke-width:.5"/><use xlink:href="#m3b85aab426" x="113.97" y="249.557" style="fill:#ff0001;fill-opacity:.7;stroke:#fff;stroke-opacity:.7;stroke-width:.5"/><use xlink:href="#m3b85aab426" x="113.97" y="288.692" style="fill:#ff0001;fill-opacity:.7;stroke:#fff;stroke-opacity:.7;stroke-width:.5"/><use xlink:href="#m3b85aab426" x="106.711" y="275.647" style="fill:#ff0001;fill-opacity:.7;stroke:#fff;stroke-opacity:.7;stroke-width:.5"/><use xlink:href="#m3b85aab426" x="113.97" y="275.647" style="fill:#ff0001;fill-opacity:.7;stroke:#fff;stroke-opacity:.7;stroke-width:.5"/><use xlink:href="#m3b85aab426" x="92.194" y="275.647" style="fill:#ff0001;fill-opacity:.7;stroke:#fff;stroke-opacity:.7;stroke-width:.5"/><use xlink:href="#m3b85aab426" x="99.453" y="275.647" style="fill:#ff0001;fill-opacity:.7;stroke:#fff;stroke-opacity:.7;stroke-width:.5"/><use xlink:href="#m3b85aab426" x="106.711" y="288.692" style="fill:#ff0001;fill-opacity:.7;stroke:#fff;stroke-opacity:.7;stroke-width:.5"/><use xlink:href="#m3b85aab426" x="99.453" y="275.647" style="fill:#ff0001;fill-opacity:.7;stroke:#fff;stroke-opacity:.7;stroke-width:.5"/><use xlink:href="#m3b85aab426" x="113.97" y="275.647" style="fill:#ff0001;fill-opacity:.7;stroke:#fff;stroke-opacity:.7;stroke-width:.5"/><use xlink:href="#m3b85aab426" x="99.453" y="262.602" style="fill:#ff0001;fill-opacity:.7;stroke:#fff;stroke-opacity:.7;stroke-width:.5"/><use xlink:href="#m3b85aab426" x="99.453" y="262.602" style="fill:#ff0001;fill-opacity:.7;stroke:#fff;stroke-opacity:.7;stroke-width:.5"/><use xlink:href="#m3b85aab426" x="99.453" y="275.647" style="fill:#ff0001;fill-opacity:.7;stroke:#fff;stroke-opacity:.7;stroke-width:.5"/><use xlink:href="#m3b85aab426" x="121.228" y="223.468" style="fill:#ff0001;fill-opacity:.7;stroke:#fff;stroke-opacity:.7;stroke-width:.5"/><use xlink:href="#m3b85aab426" x="143.004" y="249.557" style="fill:#ff0001;fill-opacity:.7;stroke:#fff;stroke-opacity:.7;stroke-width:.5"/><use xlink:href="#m3b85aab426" x="106.711" y="262.602" style="fill:#ff0001;fill-opacity:.7;stroke:#fff;stroke-opacity:.7;stroke-width:.5"/><use xlink:href="#m3b85aab426" x="121.228" y="275.647" style="fill:#ff0001;fill-opacity:.7;stroke:#fff;stroke-opacity:.7;stroke-width:.5"/><use xlink:href="#m3b85aab426" x="106.711" y="275.647" style="fill:#ff0001;fill-opacity:.7;stroke:#fff;stroke-opacity:.7;stroke-width:.5"/><use xlink:href="#m3b85aab426" x="113.97" y="275.647" style="fill:#ff0001;fill-opacity:.7;stroke:#fff;stroke-opacity:.7;stroke-width:.5"/><use xlink:href="#m3b85aab426" x="106.711" y="275.647" style="fill:#ff0001;fill-opacity:.7;stroke:#fff;stroke-opacity:.7;stroke-width:.5"/></g></g><g id="PathCollection_2"><defs><path id="m6efe9be972" d="M0 4.183a4.183 4.183 0 1 0 0-8.367 4.183 4.183 0 0 0 0 8.367z" style="stroke:#fff;stroke-opacity:.7;stroke-width:.5"/></defs><g clip-path="url(#p00ce208059)"><use xlink:href="#m6efe9be972" x="346.243" y="119.11" style="fill:#00ff02;fill-opacity:.7;stroke:#fff;stroke-opacity:.7;stroke-width:.5"/><use xlink:href="#m6efe9be972" x="331.726" y="106.066" style="fill:#00ff02;fill-opacity:.7;stroke:#fff;stroke-opacity:.7;stroke-width:.5"/><use xlink:href="#m6efe9be972" x="360.76" y="106.066" style="fill:#00ff02;fill-opacity:.7;stroke:#fff;stroke-opacity:.7;stroke-width:.5"/><use xlink:href="#m6efe9be972" x="295.433" y="132.155" style="fill:#00ff02;fill-opacity:.7;stroke:#fff;stroke-opacity:.7;stroke-width:.5"/><use xlink:href="#m6efe9be972" x="338.985" y="106.066" style="fill:#00ff02;fill-opacity:.7;stroke:#fff;stroke-opacity:.7;stroke-width:.5"/><use xlink:href="#m6efe9be972" x="331.726" y="132.155" style="fill:#00ff02;fill-opacity:.7;stroke:#fff;stroke-opacity:.7;stroke-width:.5"/><use xlink:href="#m6efe9be972" x="346.243" y="93.021" style="fill:#00ff02;fill-opacity:.7;stroke:#fff;stroke-opacity:.7;stroke-width:.5"/><use xlink:href="#m6efe9be972" x="244.624" y="171.289" style="fill:#00ff02;fill-opacity:.7;stroke:#fff;stroke-opacity:.7;stroke-width:.5"/><use xlink:href="#m6efe9be972" x="338.985" y="132.155" style="fill:#00ff02;fill-opacity:.7;stroke:#fff;stroke-opacity:.7;stroke-width:.5"/><use xlink:href="#m6efe9be972" x="288.175" y="119.11" style="fill:#00ff02;fill-opacity:.7;stroke:#fff;stroke-opacity:.7;stroke-width:.5"/><use xlink:href="#m6efe9be972" x="259.141" y="171.289" style="fill:#00ff02;fill-opacity:.7;stroke:#fff;stroke-opacity:.7;stroke-width:.5"/><use xlink:href="#m6efe9be972" x="309.95" y="106.066" style="fill:#00ff02;fill-opacity:.7;stroke:#fff;stroke-opacity:.7;stroke-width:.5"/><use xlink:href="#m6efe9be972" x="295.433" y="171.289" style="fill:#00ff02;fill-opacity:.7;stroke:#fff;stroke-opacity:.7;stroke-width:.5"/><use xlink:href="#m6efe9be972" x="346.243" y="119.11" style="fill:#00ff02;fill-opacity:.7;stroke:#fff;stroke-opacity:.7;stroke-width:.5"/><use xlink:href="#m6efe9be972" x="266.399" y="132.155" style="fill:#00ff02;fill-opacity:.7;stroke:#fff;stroke-opacity:.7;stroke-width:.5"/><use xlink:href="#m6efe9be972" x="324.467" y="119.11" style="fill:#00ff02;fill-opacity:.7;stroke:#fff;stroke-opacity:.7;stroke-width:.5"/><use xlink:href="#m6efe9be972" x="331.726" y="106.066" style="fill:#00ff02;fill-opacity:.7;stroke:#fff;stroke-opacity:.7;stroke-width:.5"/><use xlink:href="#m6efe9be972" x="302.692" y="171.289" style="fill:#00ff02;fill-opacity:.7;stroke:#fff;stroke-opacity:.7;stroke-width:.5"/><use xlink:href="#m6efe9be972" x="331.726" y="106.066" style="fill:#00ff02;fill-opacity:.7;stroke:#fff;stroke-opacity:.7;stroke-width:.5"/><use xlink:href="#m6efe9be972" x="288.175" y="158.244" style="fill:#00ff02;fill-opacity:.7;stroke:#fff;stroke-opacity:.7;stroke-width:.5"/><use xlink:href="#m6efe9be972" x="353.502" y="66.931" style="fill:#00ff02;fill-opacity:.7;stroke:#fff;stroke-opacity:.7;stroke-width:.5"/><use xlink:href="#m6efe9be972" x="295.433" y="132.155" style="fill:#00ff02;fill-opacity:.7;stroke:#fff;stroke-opacity:.7;stroke-width:.5"/><use xlink:href="#m6efe9be972" x="360.76" y="106.066" style="fill:#00ff02;fill-opacity:.7;stroke:#fff;stroke-opacity:.7;stroke-width:.5"/><use xlink:href="#m6efe9be972" x="346.243" y="145.2" style="fill:#00ff02;fill-opacity:.7;stroke:#fff;stroke-opacity:.7;stroke-width:.5"/><use xlink:href="#m6efe9be972" x="317.209" y="132.155" style="fill:#00ff02;fill-opacity:.7;stroke:#fff;stroke-opacity:.7;stroke-width:.5"/><use xlink:href="#m6efe9be972" x="324.467" y="119.11" style="fill:#00ff02;fill-opacity:.7;stroke:#fff;stroke-opacity:.7;stroke-width:.5"/><use xlink:href="#m6efe9be972" x="353.502" y="119.11" style="fill:#00ff02;fill-opacity:.7;stroke:#fff;stroke-opacity:.7;stroke-width:.5"/><use xlink:href="#m6efe9be972" x="368.019" y="79.976" style="fill:#00ff02;fill-opacity:.7;stroke:#fff;stroke-opacity:.7;stroke-width:.5"/><use xlink:href="#m6efe9be972" x="331.726" y="106.066" style="fill:#00ff02;fill-opacity:.7;stroke:#fff;stroke-opacity:.7;stroke-width:.5"/><use xlink:href="#m6efe9be972" x="259.141" y="171.289" style="fill:#00ff02;fill-opacity:.7;stroke:#fff;stroke-opacity:.7;stroke-width:.5"/><use xlink:href="#m6efe9be972" x="280.916" y="158.244" style="fill:#00ff02;fill-opacity:.7;stroke:#fff;stroke-opacity:.7;stroke-width:.5"/><use xlink:href="#m6efe9be972" x="273.658" y="171.289" style="fill:#00ff02;fill-opacity:.7;stroke:#fff;stroke-opacity:.7;stroke-width:.5"/><use xlink:href="#m6efe9be972" x="288.175" y="145.2" style="fill:#00ff02;fill-opacity:.7;stroke:#fff;stroke-opacity:.7;stroke-width:.5"/><use xlink:href="#m6efe9be972" x="375.277" y="93.021" style="fill:#00ff02;fill-opacity:.7;stroke:#fff;stroke-opacity:.7;stroke-width:.5"/><use xlink:href="#m6efe9be972" x="331.726" y="106.066" style="fill:#00ff02;fill-opacity:.7;stroke:#fff;stroke-opacity:.7;stroke-width:.5"/><use xlink:href="#m6efe9be972" x="331.726" y="93.021" style="fill:#00ff02;fill-opacity:.7;stroke:#fff;stroke-opacity:.7;stroke-width:.5"/><use xlink:href="#m6efe9be972" x="346.243" y="106.066" style="fill:#00ff02;fill-opacity:.7;stroke:#fff;stroke-opacity:.7;stroke-width:.5"/><use xlink:href="#m6efe9be972" x="324.467" y="132.155" style="fill:#00ff02;fill-opacity:.7;stroke:#fff;stroke-opacity:.7;stroke-width:.5"/><use xlink:href="#m6efe9be972" x="302.692" y="132.155" style="fill:#00ff02;fill-opacity:.7;stroke:#fff;stroke-opacity:.7;stroke-width:.5"/><use xlink:href="#m6efe9be972" x="295.433" y="132.155" style="fill:#00ff02;fill-opacity:.7;stroke:#fff;stroke-opacity:.7;stroke-width:.5"/><use xlink:href="#m6efe9be972" x="324.467" y="145.2" style="fill:#00ff02;fill-opacity:.7;stroke:#fff;stroke-opacity:.7;stroke-width:.5"/><use xlink:href="#m6efe9be972" x="338.985" y="119.11" style="fill:#00ff02;fill-opacity:.7;stroke:#fff;stroke-opacity:.7;stroke-width:.5"/><use xlink:href="#m6efe9be972" x="295.433" y="145.2" style="fill:#00ff02;fill-opacity:.7;stroke:#fff;stroke-opacity:.7;stroke-width:.5"/><use xlink:href="#m6efe9be972" x="244.624" y="171.289" style="fill:#00ff02;fill-opacity:.7;stroke:#fff;stroke-opacity:.7;stroke-width:.5"/><use xlink:href="#m6efe9be972" x="309.95" y="132.155" style="fill:#00ff02;fill-opacity:.7;stroke:#fff;stroke-opacity:.7;stroke-width:.5"/><use xlink:href="#m6efe9be972" x="309.95" y="145.2" style="fill:#00ff02;fill-opacity:.7;stroke:#fff;stroke-opacity:.7;stroke-width:.5"/><use xlink:href="#m6efe9be972" x="309.95" y="132.155" style="fill:#00ff02;fill-opacity:.7;stroke:#fff;stroke-opacity:.7;stroke-width:.5"/><use xlink:href="#m6efe9be972" x="317.209" y="132.155" style="fill:#00ff02;fill-opacity:.7;stroke:#fff;stroke-opacity:.7;stroke-width:.5"/><use xlink:href="#m6efe9be972" x="222.848" y="158.244" style="fill:#00ff02;fill-opacity:.7;stroke:#fff;stroke-opacity:.7;stroke-width:.5"/><use xlink:href="#m6efe9be972" x="302.692" y="132.155" style="fill:#00ff02;fill-opacity:.7;stroke:#fff;stroke-opacity:.7;stroke-width:.5"/></g></g><g id="text_16" class="text"><g transform="matrix(.12 0 0 -.12 130.164 16.318)"><defs><path id="DejaVuSans-72" d="M2631 2963q-97 56-211 82-114 27-251 27-488 0-749-317t-261-911V0H581v3500h578v-544q182 319 472 473 291 155 707 155 59 0 131-8 72-7 159-23z" transform="scale(.01563)"/><path id="DejaVuSans-53" d="M3425 4513v-616q-359 172-678 256-319 85-616 85-515 0-795-200t-280-569q0-310 186-468 186-157 705-254l381-78q706-135 1042-474t336-907q0-679-455-1029Q2797-91 1919-91q-331 0-705 75-373 75-773 222v650q384-215 753-325 369-109 725-109 540 0 834 212 294 213 294 607 0 343-211 537t-692 291l-385 75q-706 140-1022 440-315 300-315 835 0 619 436 975t1201 356q329 0 669-60 341-59 697-177z" transform="scale(.01563)"/><path id="DejaVuSans-70" d="M1159 525v-1856H581v4831h578v-531q182 312 458 463 277 152 661 152 638 0 1036-506 399-506 399-1331T3314 415Q2916-91 2278-91q-384 0-661 152-276 152-458 464zm1957 1222q0 634-261 995t-717 361q-457 0-718-361t-261-995 261-995 718-361q456 0 717 361t261 995z" transform="scale(.01563)"/><path id="DejaVuSans-6f" d="M1959 3097q-462 0-731-361t-269-989 267-989q268-361 733-361 460 0 728 362 269 363 269 988 0 622-269 986-268 364-728 364zm0 487q750 0 1178-488 429-487 429-1349 0-859-429-1349Q2709-91 1959-91q-753 0-1180 489-426 490-426 1349 0 862 426 1349 427 488 1180 488z" transform="scale(.01563)"/><path id="DejaVuSans-66" d="M2375 4863v-479h-550q-309 0-430-125-120-125-120-450v-309h947v-447h-947V0H697v3053H147v447h550v244q0 584 272 851 272 268 862 268z" transform="scale(.01563)"/><path id="DejaVuSans-49" d="M628 4666h631V0H628z" transform="scale(.01563)"/><path id="DejaVuSans-73" d="M2834 3397v-544q-243 125-506 187-262 63-544 63-428 0-642-131t-214-394q0-200 153-314t616-217l197-44q612-131 870-370t258-667q0-488-386-773Q2250-91 1575-91q-281 0-586 55T347 128v594q319-166 628-249 309-82 613-82 406 0 624 139 219 139 219 392 0 234-158 359-157 125-692 241l-200 47q-534 112-772 345-237 233-237 639 0 494 350 762 350 269 994 269 318 0 599-47 282-46 519-140z" transform="scale(.01563)"/><path id="DejaVuSans-43" d="M4122 4306v-665q-319 297-680 443-361 147-767 147-800 0-1225-489t-425-1414q0-922 425-1411t1225-489q406 0 767 147t680 444V359q-331-225-702-338-370-112-782-112-1060 0-1670 648-609 649-609 1771 0 1125 609 1773 610 649 1670 649 418 0 788-111 371-111 696-333z" transform="scale(.01563)"/></defs><use xlink:href="#DejaVuSans-4c"/><use xlink:href="#DejaVuSans-69" transform="translate(55.713)"/><use xlink:href="#DejaVuSans-6e" transform="translate(83.496)"/><use xlink:href="#DejaVuSans-65" transform="translate(146.875)"/><use xlink:href="#DejaVuSans-61" transform="translate(208.398)"/><use xlink:href="#DejaVuSans-72" transform="translate(269.678)"/><use xlink:href="#DejaVuSans-53" transform="translate(342.578)"/><use xlink:href="#DejaVuSans-65" transform="translate(406.055)"/><use xlink:href="#DejaVuSans-70" transform="translate(467.578)"/><use xlink:href="#DejaVuSans-61" transform="translate(531.055)"/><use xlink:href="#DejaVuSans-72" transform="translate(592.334)"/><use xlink:href="#DejaVuSans-61" transform="translate(633.447)"/><use xlink:href="#DejaVuSans-74" transform="translate(694.727)"/><use xlink:href="#DejaVuSans-69" transform="translate(733.936)"/><use xlink:href="#DejaVuSans-6f" transform="translate(761.719)"/><use xlink:href="#DejaVuSans-6e" transform="translate(822.9)"/><use xlink:href="#DejaVuSans-6f" transform="translate(918.066)"/><use xlink:href="#DejaVuSans-66" transform="translate(979.248)"/><use xlink:href="#DejaVuSans-49" transform="translate(1046.24)"/><use xlink:href="#DejaVuSans-72" transform="translate(1075.732)"/><use xlink:href="#DejaVuSans-69" transform="translate(1116.846)"/><use xlink:href="#DejaVuSans-73" transform="translate(1144.629)"/><use xlink:href="#DejaVuSans-43" transform="translate(1228.516)"/><use xlink:href="#DejaVuSans-6c" transform="translate(1298.34)"/><use xlink:href="#DejaVuSans-61" transform="translate(1326.123)"/><use xlink:href="#DejaVuSans-73" transform="translate(1387.402)"/><use xlink:href="#DejaVuSans-73" transform="translate(1439.502)"/><use xlink:href="#DejaVuSans-65" transform="translate(1491.602)"/><use xlink:href="#DejaVuSans-73" transform="translate(1553.125)"/></g><g transform="matrix(.12 0 0 -.12 147.355 29.756)"><defs><path id="DejaVuSans-75" d="M544 1381v2119h575V1403q0-497 193-746 194-248 582-248 465 0 735 297 271 297 271 810v1984h575V0h-575v538q-209-319-486-474-276-155-642-155-603 0-916 375-312 375-312 1097zm1447 2203z" transform="scale(.01563)"/><path id="DejaVuSans-4d" d="M628 4666h941l1190-3175 1197 3175h941V0h-616v4097L3078 897h-634L1241 4097V0H628z" transform="scale(.01563)"/></defs><use xlink:href="#DejaVuSans-75"/><use xlink:href="#DejaVuSans-73" transform="translate(63.379)"/><use xlink:href="#DejaVuSans-69" transform="translate(115.479)"/><use xlink:href="#DejaVuSans-6e" transform="translate(143.262)"/><use xlink:href="#DejaVuSans-67" transform="translate(206.64)"/><use xlink:href="#DejaVuSans-50" transform="translate(301.904)"/><use xlink:href="#DejaVuSans-65" transform="translate(358.582)"/><use xlink:href="#DejaVuSans-74" transform="translate(420.105)"/><use xlink:href="#DejaVuSans-61" transform="translate(459.314)"/><use xlink:href="#DejaVuSans-6c" transform="translate(520.594)"/><use xlink:href="#DejaVuSans-4d" transform="translate(580.164)"/><use xlink:href="#DejaVuSans-65" transform="translate(666.443)"/><use xlink:href="#DejaVuSans-61" transform="translate(727.967)"/><use xlink:href="#DejaVuSans-73" transform="translate(789.246)"/><use xlink:href="#DejaVuSans-75" transform="translate(841.346)"/><use xlink:href="#DejaVuSans-72" transform="translate(904.725)"/><use xlink:href="#DejaVuSans-65" transform="translate(943.588)"/><use xlink:href="#DejaVuSans-6d" transform="translate(1005.111)"/><use xlink:href="#DejaVuSans-65" transform="translate(1102.523)"/><use xlink:href="#DejaVuSans-6e" transform="translate(1164.047)"/><use xlink:href="#DejaVuSans-74" transform="translate(1227.426)"/><use xlink:href="#DejaVuSans-73" transform="translate(1266.635)"/></g></g><g class="legend"><path d="M61.36 96.909h113.32q1.8 0 1.8-1.8V56.378q0-1.8-1.8-1.8H61.36q-1.8 0-1.8 1.8v38.73q0 1.8 1.8 1.8z" class="patch" style="fill:rgba(255,255,255,.8)!important;opacity:.9;stroke:rgba(0,0,0,.1)!important;stroke-linejoin:miter"/><use xlink:href="#m3b85aab426" id="PathCollection_3" x="72.16" y="62.654" style="fill:#ff0001;fill-opacity:.7;stroke:#fff;stroke-opacity:.7;stroke-width:.5"/><g id="text_17" class="text" transform="matrix(.09 0 0 -.09 88.36 65.016)"><use xlink:href="#DejaVuSans-73"/><use xlink:href="#DejaVuSans-65" transform="translate(52.1)"/><use xlink:href="#DejaVuSans-74" transform="translate(113.623)"/><use xlink:href="#DejaVuSans-6f" transform="translate(152.832)"/><use xlink:href="#DejaVuSans-73" transform="translate(214.014)"/><use xlink:href="#DejaVuSans-61" transform="translate(266.113)"/></g><use xlink:href="#m6efe9be972" id="PathCollection_4" x="72.16" y="75.864" style="fill:#00ff02;fill-opacity:.7;stroke:#fff;stroke-opacity:.7;stroke-width:.5"/><g id="text_18" class="text" transform="matrix(.09 0 0 -.09 88.36 78.227)"><defs><path id="DejaVuSans-76" d="M191 3500h609L1894 563l1094 2937h609L2284 0h-781z" transform="scale(.01563)"/></defs><use xlink:href="#DejaVuSans-76"/><use xlink:href="#DejaVuSans-65" transform="translate(59.18)"/><use xlink:href="#DejaVuSans-72" transform="translate(120.703)"/><use xlink:href="#DejaVuSans-73" transform="translate(161.816)"/><use xlink:href="#DejaVuSans-69" transform="translate(213.916)"/><use xlink:href="#DejaVuSans-63" transform="translate(241.7)"/><use xlink:href="#DejaVuSans-6f" transform="translate(296.68)"/><use xlink:href="#DejaVuSans-6c" transform="translate(357.861)"/><use xlink:href="#DejaVuSans-6f" transform="translate(385.645)"/><use xlink:href="#DejaVuSans-72" transform="translate(446.826)"/></g><path id="line2d_28" d="M63.16 88.287h18" style="fill:none;stroke-dasharray:7.4,3.2;stroke-dashoffset:0;stroke:currentColor;stroke-width:2"/><g id="text_19" class="text" transform="matrix(.09 0 0 -.09 88.36 91.437)"><defs><path id="DejaVuSans-44" d="M1259 4147V519h763q966 0 1414 437 448 438 448 1382 0 937-448 1373t-1414 436zm-631 519h1297q1356 0 1990-564 635-564 635-1764 0-1207-638-1773Q3275 0 1925 0H628z" transform="scale(.01563)"/><path id="DejaVuSans-42" d="M1259 2228V519h1013q509 0 754 211 246 211 246 645 0 438-246 645-245 208-754 208zm0 1919V2741h935q462 0 688 173 227 174 227 530 0 353-227 528-226 175-688 175zm-631 519h1613q722 0 1112-300 391-300 391-853 0-429-200-682t-588-315q466-100 724-418 258-317 258-792 0-625-425-966Q3088 0 2303 0H628z" transform="scale(.01563)"/><path id="DejaVuSans-79" d="M2059-325q-243-625-475-815-231-191-618-191H506v481h338q237 0 368 113 132 112 291 531l103 262L191 3500h609L1894 763l1094 2737h609z" transform="scale(.01563)"/></defs><use xlink:href="#DejaVuSans-44"/><use xlink:href="#DejaVuSans-65" transform="translate(77.002)"/><use xlink:href="#DejaVuSans-63" transform="translate(138.525)"/><use xlink:href="#DejaVuSans-69" transform="translate(193.506)"/><use xlink:href="#DejaVuSans-73" transform="translate(221.29)"/><use xlink:href="#DejaVuSans-69" transform="translate(273.389)"/><use xlink:href="#DejaVuSans-6f" transform="translate(301.172)"/><use xlink:href="#DejaVuSans-6e" transform="translate(362.354)"/><use xlink:href="#DejaVuSans-42" transform="translate(457.52)"/><use xlink:href="#DejaVuSans-6f" transform="translate(526.123)"/><use xlink:href="#DejaVuSans-75" transform="translate(587.305)"/><use xlink:href="#DejaVuSans-6e" transform="translate(650.684)"/><use xlink:href="#DejaVuSans-64" transform="translate(714.063)"/><use xlink:href="#DejaVuSans-61" transform="translate(777.54)"/><use xlink:href="#DejaVuSans-72" transform="translate(838.818)"/><use xlink:href="#DejaVuSans-79" transform="translate(879.932)"/></g></g></g></g><defs><clipPath id="p00ce208059"><path d="M47.917 44.755h357.12v266.112H47.917z"/></clipPath></defs></svg>