<svg xmlns="http://www.w3.org/2000/svg" xmlns:xlink="http://www.w3.org/1999/xlink" width="419.277" height="445.358" viewBox="0 0 314.458 334.019"><style><![CDATA[.text{fill:#000!important;stroke:none!important}.axis path,.tick path,[stroke=black],[stroke=currentColor]{stroke:#000!important}@media (prefers-color-scheme:dark){.text{fill:#fff!important;stroke:none!important}.axis path,.tick path,[stroke=black],[stroke=currentColor]{stroke:#fff!important}g.legend>g:first-child>path:first-child{fill:rgba(26,26,26,.8)!important;stroke:rgba(255,255,255,.1)!important}}*{stroke-linejoin:round;stroke-linecap:butt}]]></style><g id="figure_1"><path d="M0 334.019h314.458V0H0z" class="patch" style="fill:none"/><g id="axes_1"><path d="M41.146 297.43h266.112V31.318H41.146z" class="patch" style="fill:none"/><g id="FillBetweenPolyCollection_1"><defs><path id="m1fd3a8ca4f" d="M41.146-302.7v40.94l266.112 133.056V-302.7z" style="stroke:#00ff02;stroke-opacity:.15"/></defs><g clip-path="url(#pabb1d9a7b6)"><use xlink:href="#m1fd3a8ca4f" y="334.019" style="fill:#00ff02;fill-opacity:.15;stroke:#00ff02;stroke-opacity:.15"/></g></g><g id="FillBetweenPolyCollection_2"><defs><path id="md7f74f266e" d="M41.146-261.76v225.172h266.112v-92.116z" style="stroke:#ff0001;stroke-opacity:.15"/></defs><g clip-path="url(#pabb1d9a7b6)"><use xlink:href="#md7f74f266e" y="334.019" style="fill:#ff0001;fill-opacity:.15;stroke:#ff0001;stroke-opacity:.15"/></g></g><g class="axis"><g class="tick xtick"><path id="line2d_1" d="M71.851 297.43V31.318" clip-path="url(#pabb1d9a7b6)" style="fill:none;stroke:#b0b0b0;stroke-opacity:.1;stroke-width:.8;stroke-linecap:square"/><g id="line2d_2"><defs><path id="m033fd54a2c" d="M0 0v3.5" style="stroke:currentColor;stroke-width:.8"/></defs><use xlink:href="#m033fd54a2c" x="71.851" y="297.43" style="stroke:currentColor;stroke-width:.8"/></g><g id="text_1" class="text" transform="matrix(.09 0 0 -.09 65.217 311.269)"><defs><path id="DejaVuSans-2212" d="M678 2272h4006v-531H678z" transform="scale(.01563)"/><path id="DejaVuSans-34" d="M2419 4116 825 1625h1594zm-166 550h794V1625h666v-525h-666V0h-628v1100H313v609z" transform="scale(.01563)"/></defs><use xlink:href="#DejaVuSans-2212"/><use xlink:href="#DejaVuSans-34" transform="translate(83.79)"/></g></g><g class="tick xtick"><path id="line2d_3" d="M123.027 297.43V31.318" clip-path="url(#pabb1d9a7b6)" style="fill:none;stroke:#b0b0b0;stroke-opacity:.1;stroke-width:.8;stroke-linecap:square"/><use xlink:href="#m033fd54a2c" id="line2d_4" x="123.027" y="297.43" style="stroke:currentColor;stroke-width:.8"/><g id="text_2" class="text" transform="matrix(.09 0 0 -.09 116.393 311.269)"><defs><path id="DejaVuSans-32" d="M1228 531h2203V0H469v531q359 372 979 998 621 627 780 809 303 340 423 576 121 236 121 464 0 372-261 606-261 235-680 235-297 0-627-103-329-103-704-313v638q381 153 712 231 332 78 607 78 725 0 1156-363 431-362 431-968 0-288-108-546-107-257-392-607-78-91-497-524-418-433-1181-1211z" transform="scale(.01563)"/></defs><use xlink:href="#DejaVuSans-2212"/><use xlink:href="#DejaVuSans-32" transform="translate(83.79)"/></g></g><g class="tick xtick"><path id="line2d_5" d="M174.202 297.43V31.318" clip-path="url(#pabb1d9a7b6)" style="fill:none;stroke:#b0b0b0;stroke-opacity:.1;stroke-width:.8;stroke-linecap:square"/><use xlink:href="#m033fd54a2c" id="line2d_6" x="174.202" y="297.43" style="stroke:currentColor;stroke-width:.8"/><g id="text_3" class="text" transform="matrix(.09 0 0 -.09 171.339 311.269)"><defs><path id="DejaVuSans-30" d="M2034 4250q-487 0-733-480-245-479-245-1442 0-959 245-1439 246-480 733-480 491 0 736 480 246 480 246 1439 0 963-246 1442-245 480-736 480zm0 500q785 0 1199-621 414-620 414-1801 0-1178-414-1799Q2819-91 2034-91q-784 0-1198 620-414 621-414 1799 0 1181 414 1801 414 621 1198 621z" transform="scale(.01563)"/></defs><use xlink:href="#DejaVuSans-30"/></g></g><g class="tick xtick"><path id="line2d_7" d="M225.377 297.43V31.318" clip-path="url(#pabb1d9a7b6)" style="fill:none;stroke:#b0b0b0;stroke-opacity:.1;stroke-width:.8;stroke-linecap:square"/><use xlink:href="#m033fd54a2c" id="line2d_8" x="225.377" y="297.43" style="stroke:currentColor;stroke-width:.8"/><use xlink:href="#DejaVuSans-32" id="text_4" class="text" transform="matrix(.09 0 0 -.09 222.514 311.269)"/></g><g class="tick xtick"><path id="line2d_9" d="M276.553 297.43V31.318" clip-path="url(#pabb1d9a7b6)" style="fill:none;stroke:#b0b0b0;stroke-opacity:.1;stroke-width:.8;stroke-linecap:square"/><use xlink:href="#m033fd54a2c" id="line2d_10" x="276.553" y="297.43" style="stroke:currentColor;stroke-width:.8"/><use xlink:href="#DejaVuSans-34" id="text_5" class="text" transform="matrix(.09 0 0 -.09 273.69 311.269)"/></g><g id="text_6" class="text" transform="matrix(.1 0 0 -.1 168.852 324.739)"><defs><path id="DejaVuSans-Oblique-78" d="M3841 3500 2234 1784 3219 0h-660l-740 1388L531 0h-697l1722 1844-915 1656h659l672-1266 1172 1266z" transform="scale(.01563)"/><path id="DejaVuSans-31" d="M794 531h1031v3560L703 3866v575l1116 225h631V531h1031V0H794z" transform="scale(.01563)"/></defs><use xlink:href="#DejaVuSans-Oblique-78" transform="translate(0 .313)"/><use xlink:href="#DejaVuSans-31" transform="matrix(.7 0 0 .7 59.18 -16.094)"/></g></g><g class="axis"><g class="tick ytick"><path id="line2d_11" d="M41.146 266.725h266.112" clip-path="url(#pabb1d9a7b6)" style="fill:none;stroke:#b0b0b0;stroke-opacity:.1;stroke-width:.8;stroke-linecap:square"/><g id="line2d_12"><defs><path id="mfc12c05613" d="M0 0h-3.5" style="stroke:currentColor;stroke-width:.8"/></defs><use xlink:href="#mfc12c05613" x="41.146" y="266.725" style="stroke:currentColor;stroke-width:.8"/></g><g id="text_7" class="text" transform="matrix(.09 0 0 -.09 20.878 270.144)"><use xlink:href="#DejaVuSans-2212"/><use xlink:href="#DejaVuSans-34" transform="translate(83.79)"/></g></g><g class="tick ytick"><path id="line2d_13" d="M41.146 215.55h266.112" clip-path="url(#pabb1d9a7b6)" style="fill:none;stroke:#b0b0b0;stroke-opacity:.1;stroke-width:.8;stroke-linecap:square"/><use xlink:href="#mfc12c05613" id="line2d_14" x="41.146" y="215.55" style="stroke:currentColor;stroke-width:.8"/><g id="text_8" class="text" transform="matrix(.09 0 0 -.09 20.878 218.969)"><use xlink:href="#DejaVuSans-2212"/><use xlink:href="#DejaVuSans-32" transform="translate(83.79)"/></g></g><g class="tick ytick"><path id="line2d_15" d="M41.146 164.374h266.112" clip-path="url(#pabb1d9a7b6)" style="fill:none;stroke:#b0b0b0;stroke-opacity:.1;stroke-width:.8;stroke-linecap:square"/><use xlink:href="#mfc12c05613" id="line2d_16" x="41.146" y="164.374" style="stroke:currentColor;stroke-width:.8"/><use xlink:href="#DejaVuSans-30" id="text_9" class="text" transform="matrix(.09 0 0 -.09 28.42 167.793)"/></g><g class="tick ytick"><path id="line2d_17" d="M41.146 113.199h266.112" clip-path="url(#pabb1d9a7b6)" style="fill:none;stroke:#b0b0b0;stroke-opacity:.1;stroke-width:.8;stroke-linecap:square"/><use xlink:href="#mfc12c05613" id="line2d_18" x="41.146" y="113.199" style="stroke:currentColor;stroke-width:.8"/><use xlink:href="#DejaVuSans-32" id="text_10" class="text" transform="matrix(.09 0 0 -.09 28.42 116.618)"/></g><g class="tick ytick"><path id="line2d_19" d="M41.146 62.023h266.112" clip-path="url(#pabb1d9a7b6)" style="fill:none;stroke:#b0b0b0;stroke-opacity:.1;stroke-width:.8;stroke-linecap:square"/><use xlink:href="#mfc12c05613" id="line2d_20" x="41.146" y="62.023" style="stroke:currentColor;stroke-width:.8"/><use xlink:href="#DejaVuSans-34" id="text_11" class="text" transform="matrix(.09 0 0 -.09 28.42 65.443)"/></g><g id="text_12" class="text" transform="matrix(0 -.1 -.1 0 14.798 169.724)"><use xlink:href="#DejaVuSans-Oblique-78" transform="translate(0 .313)"/><use xlink:href="#DejaVuSans-32" transform="matrix(.7 0 0 .7 59.18 -16.094)"/></g></g><path d="M41.146 297.43V31.318M41.146 297.43h266.112" class="patch" style="fill:none;stroke:currentColor;stroke-width:.8;stroke-linejoin:miter;stroke-linecap:square"/><path id="line2d_21" d="m41.146 72.258 266.112 133.056" clip-path="url(#pabb1d9a7b6)" style="fill:none;stroke:currentColor;stroke-width:2;stroke-linecap:square"/><g id="text_13" class="text" transform="matrix(.12 0 0 -.12 96.138 16.318)"><defs><path id="DejaVuSans-4c" d="M628 4666h631V531h2272V0H628z" transform="scale(.01563)"/><path id="DejaVuSans-69" d="M603 3500h575V0H603zm0 1363h575v-729H603z" transform="scale(.01563)"/><path id="DejaVuSans-6e" d="M3513 2113V0h-575v2094q0 497-194 743-194 247-581 247-466 0-735-297-269-296-269-809V0H581v3500h578v-544q207 316 486 472 280 156 646 156 603 0 912-373 310-373 310-1098z" transform="scale(.01563)"/><path id="DejaVuSans-65" d="M3597 1894v-281H953q38-594 358-905t892-311q331 0 642 81t618 244V178Q3153 47 2828-22t-659-69q-838 0-1327 487-489 488-489 1320 0 859 464 1363 464 505 1252 505 706 0 1117-455 411-454 411-1235zm-575 169q-6 471-264 752-258 282-683 282-481 0-770-272t-333-766z" transform="scale(.01563)"/><path id="DejaVuSans-61" d="M2194 1759q-697 0-966-159t-269-544q0-306 202-486 202-179 548-179 479 0 768 339t289 901v128zm1147 238V0h-575v531q-197-318-491-470T1556-91q-537 0-855 302-317 302-317 808 0 590 395 890 396 300 1180 300h807v57q0 397-261 614t-733 217q-300 0-585-72-284-72-546-216v532q315 122 612 182 297 61 578 61 760 0 1135-394 375-393 375-1193z" transform="scale(.01563)"/><path id="DejaVuSans-72" d="M2631 2963q-97 56-211 82-114 27-251 27-488 0-749-317t-261-911V0H581v3500h578v-544q182 319 472 473 291 155 707 155 59 0 131-8 72-7 159-23z" transform="scale(.01563)"/><path id="DejaVuSans-48" d="M628 4666h631V2753h2294v1913h631V0h-631v2222H1259V0H628z" transform="scale(.01563)"/><path id="DejaVuSans-6c" d="M603 4863h575V0H603z" transform="scale(.01563)"/><path id="DejaVuSans-66" d="M2375 4863v-479h-550q-309 0-430-125-120-125-120-450v-309h947v-447h-947V0H697v3053H147v447h550v244q0 584 272 851 272 268 862 268z" transform="scale(.01563)"/><path id="DejaVuSans-73" d="M2834 3397v-544q-243 125-506 187-262 63-544 63-428 0-642-131t-214-394q0-200 153-314t616-217l197-44q612-131 870-370t258-667q0-488-386-773Q2250-91 1575-91q-281 0-586 55T347 128v594q319-166 628-249 309-82 613-82 406 0 624 139 219 139 219 392 0 234-158 359-157 125-692 241l-200 47q-534 112-772 345-237 233-237 639 0 494 350 762 350 269 994 269 318 0 599-47 282-46 519-140z" transform="scale(.01563)"/><path id="DejaVuSans-70" d="M1159 525v-1856H581v4831h578v-531q182 312 458 463 277 152 661 152 638 0 1036-506 399-506 399-1331T3314 415Q2916-91 2278-91q-384 0-661 152-276 152-458 464zm1957 1222q0 634-261 995t-717 361q-457 0-718-361t-261-995 261-995 718-361q456 0 717 361t261 995z" transform="scale(.01563)"/><path id="DejaVuSans-63" d="M3122 3366v-538q-244 135-489 202t-495 67q-560 0-870-355-309-354-309-995t309-996q310-354 870-354 250 0 495 67t489 202V134Q2881 22 2623-34q-257-57-548-57-791 0-1257 497-465 497-465 1341 0 856 470 1346 471 491 1290 491 265 0 518-55 253-54 491-163z" transform="scale(.01563)"/><path id="DejaVuSans-45" d="M628 4666h2950v-532H1259V2753h2222v-531H1259V531h2375V0H628z" transform="scale(.01563)"/><path id="DejaVuSans-78" d="M3513 3500 2247 1797 3578 0h-678L1881 1375 863 0H184l1360 1831L300 3500h678l928-1247 928 1247z" transform="scale(.01563)"/><path id="DejaVuSans-6d" d="M3328 2828q216 388 516 572t706 184q547 0 844-383 297-382 297-1088V0h-578v2094q0 503-179 746-178 244-543 244-447 0-707-297-259-296-259-809V0h-578v2094q0 506-178 748t-550 242q-441 0-701-298-259-298-259-808V0H581v3500h578v-544q197 322 472 475t653 153q382 0 649-194 267-193 395-562z" transform="scale(.01563)"/></defs><use xlink:href="#DejaVuSans-4c"/><use xlink:href="#DejaVuSans-69" transform="translate(55.713)"/><use xlink:href="#DejaVuSans-6e" transform="translate(83.496)"/><use xlink:href="#DejaVuSans-65" transform="translate(146.875)"/><use xlink:href="#DejaVuSans-61" transform="translate(208.398)"/><use xlink:href="#DejaVuSans-72" transform="translate(269.678)"/><use xlink:href="#DejaVuSans-48" transform="translate(342.578)"/><use xlink:href="#DejaVuSans-61" transform="translate(417.773)"/><use xlink:href="#DejaVuSans-6c" transform="translate(479.053)"/><use xlink:href="#DejaVuSans-66" transform="translate(506.836)"/><use xlink:href="#DejaVuSans-73" transform="translate(542.041)"/><use xlink:href="#DejaVuSans-70" transform="translate(594.14)"/><use xlink:href="#DejaVuSans-61" transform="translate(657.617)"/><use xlink:href="#DejaVuSans-63" transform="translate(718.896)"/><use xlink:href="#DejaVuSans-65" transform="translate(773.877)"/><use xlink:href="#DejaVuSans-45" transform="translate(867.188)"/><use xlink:href="#DejaVuSans-78" transform="translate(930.371)"/><use xlink:href="#DejaVuSans-61" transform="translate(989.55)"/><use xlink:href="#DejaVuSans-6d" transform="translate(1050.83)"/><use xlink:href="#DejaVuSans-70" transform="translate(1148.242)"/><use xlink:href="#DejaVuSans-6c" transform="translate(1211.719)"/><use xlink:href="#DejaVuSans-65" transform="translate(1239.502)"/></g><g class="legend"><path d="M179.226 83.471h116.41q1.8 0 1.8-1.8v-38.73q0-1.8-1.8-1.8h-116.41q-1.8 0-1.8 1.8v38.73q0 1.8 1.8 1.8z" class="patch" style="fill:rgba(255,255,255,.8)!important;opacity:.9;stroke:rgba(0,0,0,.1)!important;stroke-linejoin:miter"/><path d="M181.026 51.579h18v-6.3h-18z" class="patch" style="fill:#00ff02;fill-opacity:.15;stroke:#00ff02;stroke-opacity:.15;stroke-linejoin:miter"/><g id="text_14" class="text" transform="matrix(.09 0 0 -.09 206.226 51.579)"><defs><path id="DejaVuSans-50" d="M1259 4147V2394h794q441 0 681 228 241 228 241 650 0 419-241 647-240 228-681 228zm-631 519h1425q785 0 1186-355 402-355 402-1039 0-691-402-1044-401-353-1186-353h-794V0H628z" transform="scale(.01563)"/><path id="DejaVuSans-6f" d="M1959 3097q-462 0-731-361t-269-989 267-989q268-361 733-361 460 0 728 362 269 363 269 988 0 622-269 986-268 364-728 364zm0 487q750 0 1178-488 429-487 429-1349 0-859-429-1349Q2709-91 1959-91q-753 0-1180 489-426 490-426 1349 0 862 426 1349 427 488 1180 488z" transform="scale(.01563)"/><path id="DejaVuSans-74" d="M1172 4494v-994h1184v-447H1172V1153q0-428 117-550t477-122h590V0h-590q-666 0-919 248-253 249-253 905v1900H172v447h422v994z" transform="scale(.01563)"/><path id="DejaVuSans-76" d="M191 3500h609L1894 563l1094 2937h609L2284 0h-781z" transform="scale(.01563)"/></defs><use xlink:href="#DejaVuSans-50"/><use xlink:href="#DejaVuSans-6f" transform="translate(56.678)"/><use xlink:href="#DejaVuSans-73" transform="translate(117.86)"/><use xlink:href="#DejaVuSans-69" transform="translate(169.959)"/><use xlink:href="#DejaVuSans-74" transform="translate(197.742)"/><use xlink:href="#DejaVuSans-69" transform="translate(236.951)"/><use xlink:href="#DejaVuSans-76" transform="translate(264.734)"/><use xlink:href="#DejaVuSans-65" transform="translate(323.914)"/><use xlink:href="#DejaVuSans-48" transform="translate(417.225)"/><use xlink:href="#DejaVuSans-61" transform="translate(492.42)"/><use xlink:href="#DejaVuSans-6c" transform="translate(553.7)"/><use xlink:href="#DejaVuSans-66" transform="translate(581.482)"/><use xlink:href="#DejaVuSans-73" transform="translate(616.688)"/><use xlink:href="#DejaVuSans-70" transform="translate(668.787)"/><use xlink:href="#DejaVuSans-61" transform="translate(732.264)"/><use xlink:href="#DejaVuSans-63" transform="translate(793.543)"/><use xlink:href="#DejaVuSans-65" transform="translate(848.523)"/></g><path d="M181.026 64.79h18v-6.3h-18z" class="patch" style="fill:#ff0001;fill-opacity:.15;stroke:#ff0001;stroke-opacity:.15;stroke-linejoin:miter"/><g id="text_15" class="text" transform="matrix(.09 0 0 -.09 206.226 64.79)"><defs><path id="DejaVuSans-4e" d="M628 4666h850L3547 763v3903h612V0h-850L1241 3903V0H628z" transform="scale(.01563)"/><path id="DejaVuSans-67" d="M2906 1791q0 625-258 968-257 344-723 344-462 0-720-344-258-343-258-968 0-622 258-966t720-344q466 0 723 344 258 344 258 966zm575-1357q0-893-397-1329-396-436-1215-436-303 0-572 45t-522 139v559q253-137 500-202 247-66 503-66 566 0 847 295t281 892v285q-178-310-456-463T1784 0Q1141 0 747 490 353 981 353 1791q0 812 394 1302 394 491 1037 491 388 0 666-153t456-462v531h575z" transform="scale(.01563)"/></defs><use xlink:href="#DejaVuSans-4e"/><use xlink:href="#DejaVuSans-65" transform="translate(74.805)"/><use xlink:href="#DejaVuSans-67" transform="translate(136.328)"/><use xlink:href="#DejaVuSans-61" transform="translate(199.805)"/><use xlink:href="#DejaVuSans-74" transform="translate(261.084)"/><use xlink:href="#DejaVuSans-69" transform="translate(300.293)"/><use xlink:href="#DejaVuSans-76" transform="translate(328.076)"/><use xlink:href="#DejaVuSans-65" transform="translate(387.256)"/><use xlink:href="#DejaVuSans-48" transform="translate(480.566)"/><use xlink:href="#DejaVuSans-61" transform="translate(555.762)"/><use xlink:href="#DejaVuSans-6c" transform="translate(617.041)"/><use xlink:href="#DejaVuSans-66" transform="translate(644.824)"/><use xlink:href="#DejaVuSans-73" transform="translate(680.03)"/><use xlink:href="#DejaVuSans-70" transform="translate(732.129)"/><use xlink:href="#DejaVuSans-61" transform="translate(795.605)"/><use xlink:href="#DejaVuSans-63" transform="translate(856.885)"/><use xlink:href="#DejaVuSans-65" transform="translate(911.865)"/></g><path id="line2d_22" d="M181.026 74.85h18" style="fill:none;stroke:currentColor;stroke-width:2;stroke-linecap:square"/><g id="text_16" class="text" transform="matrix(.09 0 0 -.09 206.226 78)"><defs><path id="DejaVuSans-44" d="M1259 4147V519h763q966 0 1414 437 448 438 448 1382 0 937-448 1373t-1414 436zm-631 519h1297q1356 0 1990-564 635-564 635-1764 0-1207-638-1773Q3275 0 1925 0H628z" transform="scale(.01563)"/><path id="DejaVuSans-42" d="M1259 2228V519h1013q509 0 754 211 246 211 246 645 0 438-246 645-245 208-754 208zm0 1919V2741h935q462 0 688 173 227 174 227 530 0 353-227 528-226 175-688 175zm-631 519h1613q722 0 1112-300 391-300 391-853 0-429-200-682t-588-315q466-100 724-418 258-317 258-792 0-625-425-966Q3088 0 2303 0H628z" transform="scale(.01563)"/><path id="DejaVuSans-75" d="M544 1381v2119h575V1403q0-497 193-746 194-248 582-248 465 0 735 297 271 297 271 810v1984h575V0h-575v538q-209-319-486-474-276-155-642-155-603 0-916 375-312 375-312 1097zm1447 2203z" transform="scale(.01563)"/><path id="DejaVuSans-64" d="M2906 2969v1894h575V0h-575v525q-181-312-458-464-276-152-664-152-634 0-1033 506-398 507-398 1332t398 1331q399 506 1033 506 388 0 664-152 277-151 458-463zM947 1747q0-634 261-995t717-361 718 361q263 361 263 995t-263 995q-262 361-718 361t-717-361-261-995z" transform="scale(.01563)"/><path id="DejaVuSans-79" d="M2059-325q-243-625-475-815-231-191-618-191H506v481h338q237 0 368 113 132 112 291 531l103 262L191 3500h609L1894 763l1094 2737h609z" transform="scale(.01563)"/></defs><use xlink:href="#DejaVuSans-44"/><use xlink:href="#DejaVuSans-65" transform="translate(77.002)"/><use xlink:href="#DejaVuSans-63" transform="translate(138.525)"/><use xlink:href="#DejaVuSans-69" transform="translate(193.506)"/><use xlink:href="#DejaVuSans-73" transform="translate(221.29)"/><use xlink:href="#DejaVuSans-69" transform="translate(273.389)"/><use xlink:href="#DejaVuSans-6f" transform="translate(301.172)"/><use xlink:href="#DejaVuSans-6e" transform="translate(362.354)"/><use xlink:href="#DejaVuSans-42" transform="translate(457.52)"/><use xlink:href="#DejaVuSans-6f" transform="translate(526.123)"/><use xlink:href="#DejaVuSans-75" transform="translate(587.305)"/><use xlink:href="#DejaVuSans-6e" transform="translate(650.684)"/><use xlink:href="#DejaVuSans-64" transform="translate(714.063)"/><use xlink:href="#DejaVuSans-61" transform="translate(777.54)"/><use xlink:href="#DejaVuSans-72" transform="translate(838.818)"/><use xlink:href="#DejaVuSans-79" transform="translate(879.932)"/></g></g></g></g><defs><clipPath id="pabb1d9a7b6"><path d="M41.146 31.318h266.112V297.43H41.146z"/></clipPath></defs></svg>