<?xml version="1.0" encoding="utf-8" standalone="no"?>
<!DOCTYPE svg PUBLIC "-//W3C//DTD SVG 1.1//EN"
  "http://www.w3.org/Graphics/SVG/1.1/DTD/svg11.dtd">
<svg xmlns:xlink="http://www.w3.org/1999/xlink" width="354.38pt" height="243.657875pt" viewBox="0 0 354.38 243.657875" xmlns="http://www.w3.org/2000/svg" version="1.1">
<style>:root { --axis-color:#000; --grid-stroke:rgba(0,0,0,0.2); --plot3d-stroke:rgba(0,0,0,0.3); --plot3d-grid:rgba(0,0,0,0.2); }
@media (prefers-color-scheme:dark) { :root { --axis-color:#fff; --grid-stroke:rgba(255,255,255,0.2); --plot3d-stroke:rgba(255,255,255,0.3); --plot3d-grid:rgba(255,255,255,0.2); } }
.black{fill:#000000;stroke:#000000;}:root{--black:#000000;}.c1{fill:#FF0001;stroke:#FF0001;}:root{--c1:#FF0001;}.c2{fill:#00FF02;stroke:#00FF02;}:root{--c2:#00FF02;}.c3{fill:#0000FF;stroke:#0000FF;}:root{--c3:#0000FF;}.c4{fill:#FF00FF;stroke:#FF00FF;}:root{--c4:#FF00FF;}.c5{fill:#00FFFF;stroke:#00FFFF;}:root{--c5:#00FFFF;}.c6{fill:#FFFF00;stroke:#FFFF00;}:root{--c6:#FFFF00;}.c7{fill:#FF8000;stroke:#FF8000;}:root{--c7:#FF8000;}.c8{fill:#8000FF;stroke:#8000FF;}:root{--c8:#8000FF;}.gray{fill:#7f7f7f;stroke:#7f7f7f;}:root{--gray:#7f7f7f;}.grey{fill:#7f7f7f;stroke:#7f7f7f;}:root{--grey:#7f7f7f;}.octonary{fill:#bcbd22;stroke:#bcbd22;}:root{--octonary:#bcbd22;}.primary{fill:#d62728;stroke:#d62728;}:root{--primary:#d62728;}.quaternary{fill:#9467bd;stroke:#9467bd;}:root{--quaternary:#9467bd;}.quinary{fill:#8c564b;stroke:#8c564b;}:root{--quinary:#8c564b;}.secondary{fill:#2ca02c;stroke:#2ca02c;}:root{--secondary:#2ca02c;}.senary{fill:#e377c2;stroke:#e377c2;}:root{--senary:#e377c2;}.septenary{fill:#7f7f7f;stroke:#7f7f7f;}:root{--septenary:#7f7f7f;}.tertiary{fill:#1f77b4;stroke:#1f77b4;}:root{--tertiary:#1f77b4;}.white{fill:#ffffff;stroke:#ffffff;}:root{--white:#ffffff;}
@media (prefers-color-scheme:dark) { .black{fill:#FFFFFF;stroke:#FFFFFF;}:root{--black:#FFFFFF;}.c1{fill:#FF0001;stroke:#FF0001;}:root{--c1:#FF0001;}.c2{fill:#00FF02;stroke:#00FF02;}:root{--c2:#00FF02;}.c3{fill:#0000FF;stroke:#0000FF;}:root{--c3:#0000FF;}.c4{fill:#FF00FF;stroke:#FF00FF;}:root{--c4:#FF00FF;}.c5{fill:#00FFFF;stroke:#00FFFF;}:root{--c5:#00FFFF;}.c6{fill:#FFFF00;stroke:#FFFF00;}:root{--c6:#FFFF00;}.c7{fill:#FF8000;stroke:#FF8000;}:root{--c7:#FF8000;}.c8{fill:#8000FF;stroke:#8000FF;}:root{--c8:#8000FF;}.gray{fill:#CCCCCC;stroke:#CCCCCC;}:root{--gray:#CCCCCC;}.grey{fill:#CCCCCC;stroke:#CCCCCC;}:root{--grey:#CCCCCC;}.octonary{fill:#E6DB74;stroke:#E6DB74;}:root{--octonary:#E6DB74;}.primary{fill:#FF4A98;stroke:#FF4A98;}:root{--primary:#FF4A98;}.quaternary{fill:#B4A0FF;stroke:#B4A0FF;}:root{--quaternary:#B4A0FF;}.quinary{fill:#FFB86B;stroke:#FFB86B;}:root{--quinary:#FFB86B;}.secondary{fill:#0AFAFA;stroke:#0AFAFA;}:root{--secondary:#0AFAFA;}.senary{fill:#FF79C6;stroke:#FF79C6;}:root{--senary:#FF79C6;}.septenary{fill:#CCCCCC;stroke:#CCCCCC;}:root{--septenary:#CCCCCC;}.tertiary{fill:#7F83FF;stroke:#7F83FF;}:root{--tertiary:#7F83FF;}.white{fill:#000000;stroke:#000000;}:root{--white:#000000;} }
text,.text { fill:var(--axis-color)!important; stroke:none!important; }
.axis line,.axis path,.tick line,.tick path,path.domain,line.grid { stroke:var(--axis-color)!important; }
.legend text { fill:var(--axis-color)!important; }
.patch path[style*="stroke: currentColor"] { stroke:var(--axis-color)!important; }
g.legend>g:first-child>path:first-child { fill:rgba(255,255,255,0.8)!important; stroke:rgba(0,0,0,0.1)!important; }
@media (prefers-color-scheme:dark) { g.legend>g:first-child>path:first-child { fill:rgba(26,26,26,0.8)!important; stroke:rgba(255,255,255,0.1)!important; } }
.plot3d path,.plot3d polygon { stroke:var(--plot3d-stroke)!important; }
.plot3d-grid line { stroke:var(--plot3d-grid)!important; }
.plot3d-surface path[style*="fill:"] { fill-opacity:0.9!important; }
@media (prefers-color-scheme:dark) { .plot3d-surface path[style*="fill:"] { fill-opacity:0.95!important; filter:saturate(1.2)!important; } }</style>

 <metadata>
  <rdf:RDF xmlns:dc="http://purl.org/dc/elements/1.1/" xmlns:cc="http://creativecommons.org/ns#" xmlns:rdf="http://www.w3.org/1999/02/22-rdf-syntax-ns#">
   <cc:Work>
    <dc:type rdf:resource="http://purl.org/dc/dcmitype/StillImage"/>
    <dc:date>2026-05-06T23:46:20.013889</dc:date>
    <dc:format>image/svg+xml</dc:format>
    <dc:creator>
     <cc:Agent>
      <dc:title>Matplotlib v3.10.1, https://matplotlib.org/</dc:title>
     </cc:Agent>
    </dc:creator>
   </cc:Work>
  </rdf:RDF>
 </metadata>
 <defs>
  <style type="text/css">*{stroke-linejoin: round; stroke-linecap: butt}</style>
 </defs>
 <g id="figure_1">
  <g class="patch">
   <path d="M 0 243.657875 
L 354.38 243.657875 
L 354.38 0 
L 0 0 
L 0 243.657875 
z
" style="fill: none"/>
  </g>
  <g id="axes_1">
   <g class="patch">
    <path d="M 41 208.733812 
L 347.9 208.733812 
L 347.9 20.237812 
L 41 20.237812 
L 41 208.733812 
z
" style="fill: none"/>
   </g>
   <g class="axis">
    <g class="tick xtick">
     <g id="line2d_1">
      <path d="M 41 208.733812 
L 41 20.237812 
" clip-path="url(#pa2922b258b)" style="fill: none; stroke: #b0b0b0; stroke-opacity: 0.15; stroke-width: 0.5; stroke-linecap: square"/>
     </g>
     <g id="line2d_2">
      <defs>
       <path id="m24aac758e8" d="M 0 0 
L 0 3.5 
" style="stroke:var(--black); stroke-width: 0.8"/>
      </defs>
      <g>
       <use xlink:href="#m24aac758e8" x="41" y="208.733812" style="stroke:var(--black); stroke-width: 0.8"/>
      </g>
     </g>
     <g id="text_1" class="text">
      <!-- $\mathdefault{−8}$ -->
      <g transform="translate(34.34 222.572406) scale(0.09 -0.09)">
       <defs>
        <path id="DejaVuSerif-2212" d="M 678 2259 
L 4684 2259 
L 4684 1753 
L 678 1753 
L 678 2259 
z
" transform="scale(0.015625)"/>
        <path id="DejaVuSerif-38" d="M 2981 1275 
Q 2981 1775 2732 2051 
Q 2484 2328 2034 2328 
Q 1584 2328 1336 2051 
Q 1088 1775 1088 1275 
Q 1088 772 1336 495 
Q 1584 219 2034 219 
Q 2484 219 2732 495 
Q 2981 772 2981 1275 
z
M 2853 3541 
Q 2853 3966 2637 4203 
Q 2422 4441 2034 4441 
Q 1650 4441 1433 4203 
Q 1216 3966 1216 3541 
Q 1216 3113 1433 2875 
Q 1650 2638 2034 2638 
Q 2422 2638 2637 2875 
Q 2853 3113 2853 3541 
z
M 2516 2484 
Q 3047 2413 3344 2092 
Q 3641 1772 3641 1275 
Q 3641 619 3225 264 
Q 2809 -91 2034 -91 
Q 1263 -91 845 264 
Q 428 619 428 1275 
Q 428 1772 725 2092 
Q 1022 2413 1556 2484 
Q 1084 2569 832 2842 
Q 581 3116 581 3541 
Q 581 4103 968 4426 
Q 1356 4750 2034 4750 
Q 2713 4750 3100 4426 
Q 3488 4103 3488 3541 
Q 3488 3116 3236 2842 
Q 2984 2569 2516 2484 
z
" transform="scale(0.015625)"/>
       </defs>
       <use xlink:href="#DejaVuSerif-2212" transform="translate(0 0.78125)"/>
       <use xlink:href="#DejaVuSerif-38" transform="translate(83.789062 0.78125)"/>
      </g>
     </g>
    </g>
    <g class="tick xtick">
     <g id="line2d_3">
      <path d="M 79.3625 208.733812 
L 79.3625 20.237812 
" clip-path="url(#pa2922b258b)" style="fill: none; stroke: #b0b0b0; stroke-opacity: 0.15; stroke-width: 0.5; stroke-linecap: square"/>
     </g>
     <g id="line2d_4">
      <g>
       <use xlink:href="#m24aac758e8" x="79.3625" y="208.733812" style="stroke:var(--black); stroke-width: 0.8"/>
      </g>
     </g>
     <g id="text_2" class="text">
      <!-- $\mathdefault{−6}$ -->
      <g transform="translate(72.7025 222.572406) scale(0.09 -0.09)">
       <defs>
        <path id="DejaVuSerif-36" d="M 2094 219 
Q 2534 219 2771 542 
Q 3009 866 3009 1472 
Q 3009 2078 2771 2401 
Q 2534 2725 2094 2725 
Q 1647 2725 1412 2412 
Q 1178 2100 1178 1509 
Q 1178 888 1415 553 
Q 1653 219 2094 219 
z
M 1075 2569 
Q 1288 2803 1556 2918 
Q 1825 3034 2163 3034 
Q 2859 3034 3264 2615 
Q 3669 2197 3669 1472 
Q 3669 763 3233 336 
Q 2797 -91 2069 -91 
Q 1278 -91 853 498 
Q 428 1088 428 2181 
Q 428 3406 931 4078 
Q 1434 4750 2350 4750 
Q 2597 4750 2869 4703 
Q 3141 4656 3425 4563 
L 3425 3794 
L 3072 3794 
Q 3034 4109 2831 4275 
Q 2628 4441 2284 4441 
Q 1678 4441 1381 3981 
Q 1084 3522 1075 2569 
z
" transform="scale(0.015625)"/>
       </defs>
       <use xlink:href="#DejaVuSerif-2212" transform="translate(0 0.78125)"/>
       <use xlink:href="#DejaVuSerif-36" transform="translate(83.789062 0.78125)"/>
      </g>
     </g>
    </g>
    <g class="tick xtick">
     <g id="line2d_5">
      <path d="M 117.725 208.733812 
L 117.725 20.237812 
" clip-path="url(#pa2922b258b)" style="fill: none; stroke: #b0b0b0; stroke-opacity: 0.15; stroke-width: 0.5; stroke-linecap: square"/>
     </g>
     <g id="line2d_6">
      <g>
       <use xlink:href="#m24aac758e8" x="117.725" y="208.733812" style="stroke:var(--black); stroke-width: 0.8"/>
      </g>
     </g>
     <g id="text_3" class="text">
      <!-- $\mathdefault{−4}$ -->
      <g transform="translate(111.065 222.572406) scale(0.09 -0.09)">
       <defs>
        <path id="DejaVuSerif-34" d="M 2234 1581 
L 2234 4063 
L 641 1581 
L 2234 1581 
z
M 3609 0 
L 1484 0 
L 1484 331 
L 2234 331 
L 2234 1247 
L 197 1247 
L 197 1588 
L 2241 4750 
L 2859 4750 
L 2859 1581 
L 3750 1581 
L 3750 1247 
L 2859 1247 
L 2859 331 
L 3609 331 
L 3609 0 
z
" transform="scale(0.015625)"/>
       </defs>
       <use xlink:href="#DejaVuSerif-2212" transform="translate(0 0.78125)"/>
       <use xlink:href="#DejaVuSerif-34" transform="translate(83.789062 0.78125)"/>
      </g>
     </g>
    </g>
    <g class="tick xtick">
     <g id="line2d_7">
      <path d="M 156.0875 208.733812 
L 156.0875 20.237812 
" clip-path="url(#pa2922b258b)" style="fill: none; stroke: #b0b0b0; stroke-opacity: 0.15; stroke-width: 0.5; stroke-linecap: square"/>
     </g>
     <g id="line2d_8">
      <g>
       <use xlink:href="#m24aac758e8" x="156.0875" y="208.733812" style="stroke:var(--black); stroke-width: 0.8"/>
      </g>
     </g>
     <g id="text_4" class="text">
      <!-- $\mathdefault{−2}$ -->
      <g transform="translate(149.4275 222.572406) scale(0.09 -0.09)">
       <defs>
        <path id="DejaVuSerif-32" d="M 819 3553 
L 469 3553 
L 469 4384 
Q 803 4563 1142 4656 
Q 1481 4750 1806 4750 
Q 2534 4750 2956 4397 
Q 3378 4044 3378 3438 
Q 3378 2753 2422 1800 
Q 2347 1728 2309 1691 
L 1131 513 
L 3078 513 
L 3078 1088 
L 3444 1088 
L 3444 0 
L 434 0 
L 434 341 
L 1850 1753 
Q 2319 2222 2519 2614 
Q 2719 3006 2719 3438 
Q 2719 3909 2473 4175 
Q 2228 4441 1797 4441 
Q 1350 4441 1106 4219 
Q 863 3997 819 3553 
z
" transform="scale(0.015625)"/>
       </defs>
       <use xlink:href="#DejaVuSerif-2212" transform="translate(0 0.78125)"/>
       <use xlink:href="#DejaVuSerif-32" transform="translate(83.789062 0.78125)"/>
      </g>
     </g>
    </g>
    <g class="tick xtick">
     <g id="line2d_9">
      <path d="M 194.45 208.733812 
L 194.45 20.237812 
" clip-path="url(#pa2922b258b)" style="fill: none; stroke: #b0b0b0; stroke-opacity: 0.15; stroke-width: 0.5; stroke-linecap: square"/>
     </g>
     <g id="line2d_10">
      <g>
       <use xlink:href="#m24aac758e8" x="194.45" y="208.733812" style="stroke:var(--black); stroke-width: 0.8"/>
      </g>
     </g>
     <g id="text_5" class="text">
      <!-- $\mathdefault{0}$ -->
      <g transform="translate(191.57 222.572406) scale(0.09 -0.09)">
       <defs>
        <path id="DejaVuSerif-30" d="M 2034 219 
Q 2513 219 2750 744 
Q 2988 1269 2988 2328 
Q 2988 3391 2750 3916 
Q 2513 4441 2034 4441 
Q 1556 4441 1318 3916 
Q 1081 3391 1081 2328 
Q 1081 1269 1318 744 
Q 1556 219 2034 219 
z
M 2034 -91 
Q 1275 -91 848 546 
Q 422 1184 422 2328 
Q 422 3475 848 4112 
Q 1275 4750 2034 4750 
Q 2797 4750 3222 4112 
Q 3647 3475 3647 2328 
Q 3647 1184 3222 546 
Q 2797 -91 2034 -91 
z
" transform="scale(0.015625)"/>
       </defs>
       <use xlink:href="#DejaVuSerif-30" transform="translate(0 0.78125)"/>
      </g>
     </g>
    </g>
    <g class="tick xtick">
     <g id="line2d_11">
      <path d="M 232.8125 208.733812 
L 232.8125 20.237812 
" clip-path="url(#pa2922b258b)" style="fill: none; stroke: #b0b0b0; stroke-opacity: 0.15; stroke-width: 0.5; stroke-linecap: square"/>
     </g>
     <g id="line2d_12">
      <g>
       <use xlink:href="#m24aac758e8" x="232.8125" y="208.733812" style="stroke:var(--black); stroke-width: 0.8"/>
      </g>
     </g>
     <g id="text_6" class="text">
      <!-- $\mathdefault{2}$ -->
      <g transform="translate(229.9325 222.572406) scale(0.09 -0.09)">
       <use xlink:href="#DejaVuSerif-32" transform="translate(0 0.78125)"/>
      </g>
     </g>
    </g>
    <g class="tick xtick">
     <g id="line2d_13">
      <path d="M 271.175 208.733812 
L 271.175 20.237812 
" clip-path="url(#pa2922b258b)" style="fill: none; stroke: #b0b0b0; stroke-opacity: 0.15; stroke-width: 0.5; stroke-linecap: square"/>
     </g>
     <g id="line2d_14">
      <g>
       <use xlink:href="#m24aac758e8" x="271.175" y="208.733812" style="stroke:var(--black); stroke-width: 0.8"/>
      </g>
     </g>
     <g id="text_7" class="text">
      <!-- $\mathdefault{4}$ -->
      <g transform="translate(268.295 222.572406) scale(0.09 -0.09)">
       <use xlink:href="#DejaVuSerif-34" transform="translate(0 0.78125)"/>
      </g>
     </g>
    </g>
    <g class="tick xtick">
     <g id="line2d_15">
      <path d="M 309.5375 208.733812 
L 309.5375 20.237812 
" clip-path="url(#pa2922b258b)" style="fill: none; stroke: #b0b0b0; stroke-opacity: 0.15; stroke-width: 0.5; stroke-linecap: square"/>
     </g>
     <g id="line2d_16">
      <g>
       <use xlink:href="#m24aac758e8" x="309.5375" y="208.733812" style="stroke:var(--black); stroke-width: 0.8"/>
      </g>
     </g>
     <g id="text_8" class="text">
      <!-- $\mathdefault{6}$ -->
      <g transform="translate(306.6575 222.572406) scale(0.09 -0.09)">
       <use xlink:href="#DejaVuSerif-36" transform="translate(0 0.78125)"/>
      </g>
     </g>
    </g>
    <g class="tick xtick">
     <g id="line2d_17">
      <path d="M 347.9 208.733812 
L 347.9 20.237812 
" clip-path="url(#pa2922b258b)" style="fill: none; stroke: #b0b0b0; stroke-opacity: 0.15; stroke-width: 0.5; stroke-linecap: square"/>
     </g>
     <g id="line2d_18">
      <g>
       <use xlink:href="#m24aac758e8" x="347.9" y="208.733812" style="stroke:var(--black); stroke-width: 0.8"/>
      </g>
     </g>
     <g id="text_9" class="text">
      <!-- $\mathdefault{8}$ -->
      <g transform="translate(345.02 222.572406) scale(0.09 -0.09)">
       <use xlink:href="#DejaVuSerif-38" transform="translate(0 0.78125)"/>
      </g>
     </g>
    </g>
    <g id="text_10" class="text">
     <!-- x -->
     <g transform="translate(191.066563 237.56225) scale(0.12 -0.12)">
      <defs>
       <path id="DejaVuSerif-78" d="M 1863 2028 
L 2559 2988 
L 2113 2988 
L 2113 3322 
L 3391 3322 
L 3391 2988 
L 2950 2988 
L 2059 1759 
L 3097 331 
L 3531 331 
L 3531 0 
L 1997 0 
L 1997 331 
L 2419 331 
L 1697 1325 
L 972 331 
L 1403 331 
L 1403 0 
L 141 0 
L 141 331 
L 581 331 
L 1497 1594 
L 488 2988 
L 78 2988 
L 78 3322 
L 1563 3322 
L 1563 2988 
L 1166 2988 
L 1863 2028 
z
" transform="scale(0.015625)"/>
      </defs>
      <use xlink:href="#DejaVuSerif-78"/>
     </g>
    </g>
   </g>
   <g class="axis">
    <g class="tick ytick">
     <g id="line2d_19">
      <path d="M 41 208.733812 
L 347.9 208.733812 
" clip-path="url(#pa2922b258b)" style="fill: none; stroke: #b0b0b0; stroke-opacity: 0.15; stroke-width: 0.5; stroke-linecap: square"/>
     </g>
     <g id="line2d_20">
      <defs>
       <path id="m86f7fec82f" d="M 0 0 
L -3.5 0 
" style="stroke:var(--black); stroke-width: 0.8"/>
      </defs>
      <g>
       <use xlink:href="#m86f7fec82f" x="41" y="208.733812" style="stroke:var(--black); stroke-width: 0.8"/>
      </g>
     </g>
     <g id="text_11" class="text">
      <!-- $\mathdefault{0.0}$ -->
      <g transform="translate(19.6 212.153109) scale(0.09 -0.09)">
       <defs>
        <path id="DejaVuSerif-2e" d="M 603 325 
Q 603 500 722 622 
Q 841 744 1019 744 
Q 1191 744 1312 622 
Q 1434 500 1434 325 
Q 1434 153 1312 31 
Q 1191 -91 1019 -91 
Q 841 -91 722 29 
Q 603 150 603 325 
z
" transform="scale(0.015625)"/>
       </defs>
       <use xlink:href="#DejaVuSerif-30" transform="translate(0 0.78125)"/>
       <use xlink:href="#DejaVuSerif-2e" transform="translate(63.623047 0.78125)"/>
       <use xlink:href="#DejaVuSerif-30" transform="translate(95.410156 0.78125)"/>
      </g>
     </g>
    </g>
    <g class="tick ytick">
     <g id="line2d_21">
      <path d="M 41 171.034612 
L 347.9 171.034612 
" clip-path="url(#pa2922b258b)" style="fill: none; stroke: #b0b0b0; stroke-opacity: 0.15; stroke-width: 0.5; stroke-linecap: square"/>
     </g>
     <g id="line2d_22">
      <g>
       <use xlink:href="#m86f7fec82f" x="41" y="171.034612" style="stroke:var(--black); stroke-width: 0.8"/>
      </g>
     </g>
     <g id="text_12" class="text">
      <!-- $\mathdefault{0.2}$ -->
      <g transform="translate(19.87 174.453909) scale(0.09 -0.09)">
       <use xlink:href="#DejaVuSerif-30" transform="translate(0 0.78125)"/>
       <use xlink:href="#DejaVuSerif-2e" transform="translate(63.623047 0.78125)"/>
       <use xlink:href="#DejaVuSerif-32" transform="translate(92.785156 0.78125)"/>
      </g>
     </g>
    </g>
    <g class="tick ytick">
     <g id="line2d_23">
      <path d="M 41 133.335412 
L 347.9 133.335412 
" clip-path="url(#pa2922b258b)" style="fill: none; stroke: #b0b0b0; stroke-opacity: 0.15; stroke-width: 0.5; stroke-linecap: square"/>
     </g>
     <g id="line2d_24">
      <g>
       <use xlink:href="#m86f7fec82f" x="41" y="133.335412" style="stroke:var(--black); stroke-width: 0.8"/>
      </g>
     </g>
     <g id="text_13" class="text">
      <!-- $\mathdefault{0.4}$ -->
      <g transform="translate(19.6 136.754709) scale(0.09 -0.09)">
       <use xlink:href="#DejaVuSerif-30" transform="translate(0 0.78125)"/>
       <use xlink:href="#DejaVuSerif-2e" transform="translate(63.623047 0.78125)"/>
       <use xlink:href="#DejaVuSerif-34" transform="translate(95.410156 0.78125)"/>
      </g>
     </g>
    </g>
    <g class="tick ytick">
     <g id="line2d_25">
      <path d="M 41 95.636212 
L 347.9 95.636212 
" clip-path="url(#pa2922b258b)" style="fill: none; stroke: #b0b0b0; stroke-opacity: 0.15; stroke-width: 0.5; stroke-linecap: square"/>
     </g>
     <g id="line2d_26">
      <g>
       <use xlink:href="#m86f7fec82f" x="41" y="95.636212" style="stroke:var(--black); stroke-width: 0.8"/>
      </g>
     </g>
     <g id="text_14" class="text">
      <!-- $\mathdefault{0.6}$ -->
      <g transform="translate(19.6 99.055509) scale(0.09 -0.09)">
       <use xlink:href="#DejaVuSerif-30" transform="translate(0 0.78125)"/>
       <use xlink:href="#DejaVuSerif-2e" transform="translate(63.623047 0.78125)"/>
       <use xlink:href="#DejaVuSerif-36" transform="translate(95.410156 0.78125)"/>
      </g>
     </g>
    </g>
    <g class="tick ytick">
     <g id="line2d_27">
      <path d="M 41 57.937012 
L 347.9 57.937012 
" clip-path="url(#pa2922b258b)" style="fill: none; stroke: #b0b0b0; stroke-opacity: 0.15; stroke-width: 0.5; stroke-linecap: square"/>
     </g>
     <g id="line2d_28">
      <g>
       <use xlink:href="#m86f7fec82f" x="41" y="57.937012" style="stroke:var(--black); stroke-width: 0.8"/>
      </g>
     </g>
     <g id="text_15" class="text">
      <!-- $\mathdefault{0.8}$ -->
      <g transform="translate(19.96 61.356309) scale(0.09 -0.09)">
       <use xlink:href="#DejaVuSerif-30" transform="translate(0 0.78125)"/>
       <use xlink:href="#DejaVuSerif-2e" transform="translate(63.623047 0.78125)"/>
       <use xlink:href="#DejaVuSerif-38" transform="translate(91.785156 0.78125)"/>
      </g>
     </g>
    </g>
    <g class="tick ytick">
     <g id="line2d_29">
      <path d="M 41 20.237812 
L 347.9 20.237812 
" clip-path="url(#pa2922b258b)" style="fill: none; stroke: #b0b0b0; stroke-opacity: 0.15; stroke-width: 0.5; stroke-linecap: square"/>
     </g>
     <g id="line2d_30">
      <g>
       <use xlink:href="#m86f7fec82f" x="41" y="20.237812" style="stroke:var(--black); stroke-width: 0.8"/>
      </g>
     </g>
     <g id="text_16" class="text">
      <!-- $\mathdefault{1.0}$ -->
      <g transform="translate(19.6 23.657109) scale(0.09 -0.09)">
       <defs>
        <path id="DejaVuSerif-31" d="M 909 0 
L 909 331 
L 1722 331 
L 1722 4213 
L 781 3603 
L 781 4013 
L 1919 4750 
L 2350 4750 
L 2350 331 
L 3163 331 
L 3163 0 
L 909 0 
z
" transform="scale(0.015625)"/>
       </defs>
       <use xlink:href="#DejaVuSerif-31" transform="translate(0 0.78125)"/>
       <use xlink:href="#DejaVuSerif-2e" transform="translate(63.623047 0.78125)"/>
       <use xlink:href="#DejaVuSerif-30" transform="translate(95.410156 0.78125)"/>
      </g>
     </g>
    </g>
    <g id="text_17" class="text">
     <!-- $\sigma(x)$ -->
     <g transform="translate(12.6 126.005812) rotate(-90) scale(0.12 -0.12)">
      <defs>
       <path id="Cmmi10-be" d="M 1197 -72 
Q 913 -72 692 64 
Q 472 200 351 431 
Q 231 663 231 941 
Q 231 1238 365 1566 
Q 500 1894 733 2166 
Q 966 2438 1259 2598 
Q 1553 2759 1863 2759 
L 3475 2759 
Q 3541 2759 3587 2715 
Q 3634 2672 3634 2597 
Q 3634 2503 3567 2433 
Q 3500 2363 3406 2363 
L 2625 2363 
Q 2809 2088 2809 1697 
Q 2809 1375 2684 1062 
Q 2559 750 2337 492 
Q 2116 234 1820 81 
Q 1525 -72 1197 -72 
z
M 1203 97 
Q 1553 97 1823 370 
Q 2094 644 2237 1039 
Q 2381 1434 2381 1772 
Q 2381 2047 2229 2205 
Q 2078 2363 1806 2363 
Q 1434 2363 1173 2113 
Q 913 1863 783 1484 
Q 653 1106 653 756 
Q 653 481 798 289 
Q 944 97 1203 97 
z
" transform="scale(0.015625)"/>
       <path id="Cmr10-28" d="M 1984 -1588 
Q 1628 -1306 1370 -942 
Q 1113 -578 948 -165 
Q 784 247 703 697 
Q 622 1147 622 1600 
Q 622 2059 703 2509 
Q 784 2959 951 3375 
Q 1119 3791 1378 4153 
Q 1638 4516 1984 4788 
Q 1984 4800 2016 4800 
L 2075 4800 
Q 2094 4800 2109 4783 
Q 2125 4766 2125 4744 
Q 2125 4716 2113 4703 
Q 1800 4397 1592 4047 
Q 1384 3697 1257 3301 
Q 1131 2906 1075 2482 
Q 1019 2059 1019 1600 
Q 1019 -434 2106 -1491 
Q 2125 -1509 2125 -1544 
Q 2125 -1559 2108 -1579 
Q 2091 -1600 2075 -1600 
L 2016 -1600 
Q 1984 -1600 1984 -1588 
z
" transform="scale(0.015625)"/>
       <path id="Cmmi10-78" d="M 500 184 
Q 613 97 819 97 
Q 1019 97 1172 289 
Q 1325 481 1381 709 
L 1672 1844 
Q 1741 2153 1741 2266 
Q 1741 2425 1652 2544 
Q 1563 2663 1403 2663 
Q 1200 2663 1022 2536 
Q 844 2409 722 2214 
Q 600 2019 550 1819 
Q 538 1778 500 1778 
L 422 1778 
Q 372 1778 372 1838 
L 372 1856 
Q 434 2094 584 2320 
Q 734 2547 951 2687 
Q 1169 2828 1416 2828 
Q 1650 2828 1839 2703 
Q 2028 2578 2106 2363 
Q 2216 2559 2386 2693 
Q 2556 2828 2759 2828 
Q 2897 2828 3040 2779 
Q 3184 2731 3275 2631 
Q 3366 2531 3366 2381 
Q 3366 2219 3261 2101 
Q 3156 1984 2994 1984 
Q 2891 1984 2822 2050 
Q 2753 2116 2753 2216 
Q 2753 2350 2845 2451 
Q 2938 2553 3066 2572 
Q 2950 2663 2747 2663 
Q 2541 2663 2389 2472 
Q 2238 2281 2175 2047 
L 1894 916 
Q 1825 659 1825 494 
Q 1825 331 1917 214 
Q 2009 97 2163 97 
Q 2463 97 2698 361 
Q 2934 625 3009 941 
Q 3022 978 3059 978 
L 3138 978 
Q 3163 978 3178 961 
Q 3194 944 3194 922 
Q 3194 916 3188 903 
Q 3097 522 2806 225 
Q 2516 -72 2150 -72 
Q 1916 -72 1727 54 
Q 1538 181 1459 397 
Q 1359 209 1182 68 
Q 1006 -72 806 -72 
Q 669 -72 523 -23 
Q 378 25 287 125 
Q 197 225 197 378 
Q 197 528 301 651 
Q 406 775 563 775 
Q 669 775 741 711 
Q 813 647 813 544 
Q 813 409 723 309 
Q 634 209 500 184 
z
" transform="scale(0.015625)"/>
       <path id="Cmr10-29" d="M 416 -1600 
Q 359 -1600 359 -1544 
Q 359 -1516 372 -1503 
Q 1466 -434 1466 1600 
Q 1466 3634 384 4691 
Q 359 4706 359 4744 
Q 359 4766 376 4783 
Q 394 4800 416 4800 
L 475 4800 
Q 494 4800 506 4788 
Q 966 4425 1272 3906 
Q 1578 3388 1720 2800 
Q 1863 2213 1863 1600 
Q 1863 1147 1786 708 
Q 1709 269 1542 -157 
Q 1375 -584 1119 -945 
Q 863 -1306 506 -1588 
Q 494 -1600 475 -1600 
L 416 -1600 
z
" transform="scale(0.015625)"/>
      </defs>
      <use xlink:href="#Cmmi10-be"/>
      <use xlink:href="#Cmr10-28" transform="translate(57.080078 0)"/>
      <use xlink:href="#Cmmi10-78" transform="translate(95.898438 0)"/>
      <use xlink:href="#Cmr10-29" transform="translate(152.978516 0)"/>
     </g>
    </g>
   </g>
   <g id="line2d_31">
    <path d="M 41 208.6706 
L 67.921053 208.476838 
L 83.304511 208.161717 
L 94.072932 207.733141 
L 102.533835 207.182913 
L 109.456391 206.516784 
L 115.609774 205.691765 
L 120.993985 204.726918 
L 125.609023 203.666288 
L 129.454887 202.577963 
L 133.300752 201.265421 
L 137.146617 199.686906 
L 140.223308 198.200864 
L 143.3 196.487384 
L 146.376692 194.517425 
L 149.453383 192.260198 
L 152.530075 189.683752 
L 155.606767 186.755836 
L 158.683459 183.445072 
L 161.76015 179.722465 
L 164.836842 175.563249 
L 167.913534 170.949016 
L 170.990226 165.870046 
L 174.066917 160.327645 
L 177.143609 154.336283 
L 180.989474 146.261832 
L 184.835338 137.624408 
L 189.450376 126.699688 
L 205.603008 87.832135 
L 209.448872 79.406465 
L 213.294737 71.58501 
L 216.371429 65.815424 
L 219.44812 60.503798 
L 222.524812 55.657777 
L 225.601504 51.272866 
L 228.678195 47.334705 
L 231.754887 43.821427 
L 234.831579 40.7059 
L 237.908271 37.957727 
L 240.984962 35.544926 
L 244.061654 33.435271 
L 247.138346 31.597302 
L 250.215038 30.001046 
L 253.291729 28.618485 
L 257.137594 27.151736 
L 260.983459 25.933574 
L 265.598496 24.744685 
L 270.213534 23.799121 
L 275.597744 22.939999 
L 281.751128 22.206173 
L 288.673684 21.614207 
L 297.134586 21.125596 
L 307.903008 20.745238 
L 322.517293 20.475007 
L 344.823308 20.312018 
L 347.9 20.301025 
L 347.9 20.301025 
" clip-path="url(#pa2922b258b)" style="fill: none; stroke:var(--c3); stroke-width: 2; stroke-linecap: square"/>
   </g>
   <g class="patch">
    <path d="M 41 208.733812 
L 41 20.237812 
" style="fill: none; stroke:var(--black); stroke-width: 0.8; stroke-linejoin: miter; stroke-linecap: square"/>
   </g>
   <g class="patch">
    <path d="M 41 208.733812 
L 347.9 208.733812 
" style="fill: none; stroke:var(--black); stroke-width: 0.8; stroke-linejoin: miter; stroke-linecap: square"/>
   </g>
   <g id="text_18" class="text">
    <!-- Logistic Sigmoid Function -->
    <g transform="translate(101.197969 14.237812) scale(0.14 -0.14)">
     <defs>
      <path id="DejaVuSerif-4c" d="M 353 0 
L 353 331 
L 947 331 
L 947 4331 
L 353 4331 
L 353 4666 
L 2175 4666 
L 2175 4331 
L 1581 4331 
L 1581 384 
L 3713 384 
L 3713 1166 
L 4097 1166 
L 4097 0 
L 353 0 
z
" transform="scale(0.015625)"/>
      <path id="DejaVuSerif-6f" d="M 1925 219 
Q 2388 219 2623 584 
Q 2859 950 2859 1663 
Q 2859 2375 2623 2739 
Q 2388 3103 1925 3103 
Q 1463 3103 1227 2739 
Q 991 2375 991 1663 
Q 991 950 1228 584 
Q 1466 219 1925 219 
z
M 1925 -91 
Q 1200 -91 759 389 
Q 319 869 319 1663 
Q 319 2456 758 2934 
Q 1197 3413 1925 3413 
Q 2653 3413 3092 2934 
Q 3531 2456 3531 1663 
Q 3531 869 3092 389 
Q 2653 -91 1925 -91 
z
" transform="scale(0.015625)"/>
      <path id="DejaVuSerif-67" d="M 3359 2988 
L 3359 72 
Q 3359 -644 2965 -1033 
Q 2572 -1422 1844 -1422 
Q 1516 -1422 1216 -1362 
Q 916 -1303 641 -1184 
L 641 -488 
L 941 -488 
Q 997 -813 1206 -963 
Q 1416 -1113 1806 -1113 
Q 2313 -1113 2548 -827 
Q 2784 -541 2784 72 
L 2784 519 
Q 2616 206 2355 57 
Q 2094 -91 1709 -91 
Q 1097 -91 708 395 
Q 319 881 319 1663 
Q 319 2444 706 2928 
Q 1094 3413 1709 3413 
Q 2094 3413 2355 3264 
Q 2616 3116 2784 2803 
L 2784 3322 
L 3909 3322 
L 3909 2988 
L 3359 2988 
z
M 2784 1825 
Q 2784 2422 2554 2737 
Q 2325 3053 1888 3053 
Q 1444 3053 1217 2703 
Q 991 2353 991 1663 
Q 991 975 1217 622 
Q 1444 269 1888 269 
Q 2325 269 2554 583 
Q 2784 897 2784 1497 
L 2784 1825 
z
" transform="scale(0.015625)"/>
      <path id="DejaVuSerif-69" d="M 622 4353 
Q 622 4497 726 4603 
Q 831 4709 978 4709 
Q 1122 4709 1226 4603 
Q 1331 4497 1331 4353 
Q 1331 4206 1228 4103 
Q 1125 4000 978 4000 
Q 831 4000 726 4103 
Q 622 4206 622 4353 
z
M 1356 331 
L 1900 331 
L 1900 0 
L 231 0 
L 231 331 
L 781 331 
L 781 2988 
L 231 2988 
L 231 3322 
L 1356 3322 
L 1356 331 
z
" transform="scale(0.015625)"/>
      <path id="DejaVuSerif-73" d="M 359 184 
L 359 959 
L 691 959 
Q 703 588 923 403 
Q 1144 219 1575 219 
Q 1963 219 2166 364 
Q 2369 509 2369 788 
Q 2369 1006 2220 1140 
Q 2072 1275 1594 1428 
L 1178 1569 
Q 750 1706 558 1912 
Q 366 2119 366 2438 
Q 366 2894 700 3153 
Q 1034 3413 1625 3413 
Q 1888 3413 2178 3344 
Q 2469 3275 2778 3144 
L 2778 2419 
L 2447 2419 
Q 2434 2741 2221 2922 
Q 2009 3103 1644 3103 
Q 1281 3103 1095 2975 
Q 909 2847 909 2591 
Q 909 2381 1050 2254 
Q 1191 2128 1613 1997 
L 2069 1856 
Q 2541 1709 2748 1489 
Q 2956 1269 2956 922 
Q 2956 450 2595 179 
Q 2234 -91 1600 -91 
Q 1278 -91 972 -22 
Q 666 47 359 184 
z
" transform="scale(0.015625)"/>
      <path id="DejaVuSerif-74" d="M 691 2988 
L 184 2988 
L 184 3322 
L 691 3322 
L 691 4353 
L 1269 4353 
L 1269 3322 
L 2350 3322 
L 2350 2988 
L 1269 2988 
L 1269 878 
Q 1269 456 1350 337 
Q 1431 219 1650 219 
Q 1875 219 1978 351 
Q 2081 484 2088 781 
L 2522 781 
Q 2497 328 2275 118 
Q 2053 -91 1600 -91 
Q 1103 -91 897 129 
Q 691 350 691 878 
L 691 2988 
z
" transform="scale(0.015625)"/>
      <path id="DejaVuSerif-63" d="M 3291 997 
Q 3169 466 2822 187 
Q 2475 -91 1925 -91 
Q 1200 -91 759 389 
Q 319 869 319 1663 
Q 319 2459 759 2936 
Q 1200 3413 1925 3413 
Q 2241 3413 2553 3339 
Q 2866 3266 3181 3116 
L 3181 2266 
L 2847 2266 
Q 2781 2703 2561 2903 
Q 2341 3103 1931 3103 
Q 1466 3103 1228 2742 
Q 991 2381 991 1663 
Q 991 944 1227 581 
Q 1463 219 1931 219 
Q 2303 219 2525 412 
Q 2747 606 2828 997 
L 3291 997 
z
" transform="scale(0.015625)"/>
      <path id="DejaVuSerif-20" transform="scale(0.015625)"/>
      <path id="DejaVuSerif-53" d="M 594 225 
L 594 1288 
L 953 1284 
Q 969 753 1261 498 
Q 1553 244 2150 244 
Q 2706 244 2998 464 
Q 3291 684 3291 1106 
Q 3291 1444 3114 1625 
Q 2938 1806 2369 1978 
L 1753 2163 
Q 1084 2366 811 2669 
Q 538 2972 538 3500 
Q 538 4094 959 4422 
Q 1381 4750 2144 4750 
Q 2469 4750 2856 4679 
Q 3244 4609 3681 4475 
L 3681 3481 
L 3328 3481 
Q 3275 3975 2998 4195 
Q 2722 4416 2156 4416 
Q 1663 4416 1405 4214 
Q 1147 4013 1147 3628 
Q 1147 3294 1340 3103 
Q 1534 2913 2163 2725 
L 2741 2553 
Q 3375 2363 3645 2067 
Q 3916 1772 3916 1275 
Q 3916 597 3481 253 
Q 3047 -91 2188 -91 
Q 1803 -91 1404 -12 
Q 1006 66 594 225 
z
" transform="scale(0.015625)"/>
      <path id="DejaVuSerif-6d" d="M 3316 2675 
Q 3481 3041 3739 3227 
Q 3997 3413 4341 3413 
Q 4863 3413 5119 3089 
Q 5375 2766 5375 2113 
L 5375 331 
L 5894 331 
L 5894 0 
L 4300 0 
L 4300 331 
L 4800 331 
L 4800 2047 
Q 4800 2556 4650 2772 
Q 4500 2988 4153 2988 
Q 3769 2988 3567 2697 
Q 3366 2406 3366 1850 
L 3366 331 
L 3866 331 
L 3866 0 
L 2291 0 
L 2291 331 
L 2791 331 
L 2791 2069 
Q 2791 2566 2641 2777 
Q 2491 2988 2144 2988 
Q 1759 2988 1557 2697 
Q 1356 2406 1356 1850 
L 1356 331 
L 1856 331 
L 1856 0 
L 263 0 
L 263 331 
L 781 331 
L 781 2994 
L 231 2994 
L 231 3322 
L 1356 3322 
L 1356 2731 
Q 1516 3063 1762 3238 
Q 2009 3413 2322 3413 
Q 2709 3413 2968 3220 
Q 3228 3028 3316 2675 
z
" transform="scale(0.015625)"/>
      <path id="DejaVuSerif-64" d="M 3359 331 
L 3909 331 
L 3909 0 
L 2784 0 
L 2784 519 
Q 2616 206 2355 57 
Q 2094 -91 1709 -91 
Q 1097 -91 708 395 
Q 319 881 319 1663 
Q 319 2444 706 2928 
Q 1094 3413 1709 3413 
Q 2094 3413 2355 3264 
Q 2616 3116 2784 2803 
L 2784 4531 
L 2241 4531 
L 2241 4863 
L 3359 4863 
L 3359 331 
z
M 2784 1497 
L 2784 1825 
Q 2784 2422 2554 2737 
Q 2325 3053 1888 3053 
Q 1444 3053 1217 2703 
Q 991 2353 991 1663 
Q 991 975 1217 622 
Q 1444 269 1888 269 
Q 2325 269 2554 583 
Q 2784 897 2784 1497 
z
" transform="scale(0.015625)"/>
      <path id="DejaVuSerif-46" d="M 353 0 
L 353 331 
L 947 331 
L 947 4331 
L 353 4331 
L 353 4666 
L 4172 4666 
L 4172 3628 
L 3788 3628 
L 3788 4281 
L 1581 4281 
L 1581 2719 
L 3175 2719 
L 3175 3303 
L 3559 3303 
L 3559 1753 
L 3175 1753 
L 3175 2338 
L 1581 2338 
L 1581 331 
L 2328 331 
L 2328 0 
L 353 0 
z
" transform="scale(0.015625)"/>
      <path id="DejaVuSerif-75" d="M 2266 3322 
L 3341 3322 
L 3341 331 
L 3884 331 
L 3884 0 
L 2766 0 
L 2766 588 
Q 2606 256 2353 82 
Q 2100 -91 1766 -91 
Q 1213 -91 952 223 
Q 691 538 691 1209 
L 691 2988 
L 172 2988 
L 172 3322 
L 1269 3322 
L 1269 1388 
Q 1269 781 1417 556 
Q 1566 331 1947 331 
Q 2347 331 2556 625 
Q 2766 919 2766 1478 
L 2766 2988 
L 2266 2988 
L 2266 3322 
z
" transform="scale(0.015625)"/>
      <path id="DejaVuSerif-6e" d="M 263 0 
L 263 331 
L 781 331 
L 781 2988 
L 231 2988 
L 231 3322 
L 1356 3322 
L 1356 2731 
Q 1516 3069 1770 3241 
Q 2025 3413 2363 3413 
Q 2913 3413 3172 3097 
Q 3431 2781 3431 2113 
L 3431 331 
L 3944 331 
L 3944 0 
L 2356 0 
L 2356 331 
L 2853 331 
L 2853 1931 
Q 2853 2541 2703 2767 
Q 2553 2994 2175 2994 
Q 1775 2994 1565 2701 
Q 1356 2409 1356 1850 
L 1356 331 
L 1856 331 
L 1856 0 
L 263 0 
z
" transform="scale(0.015625)"/>
     </defs>
     <use xlink:href="#DejaVuSerif-4c"/>
     <use xlink:href="#DejaVuSerif-6f" transform="translate(66.40625 0)"/>
     <use xlink:href="#DejaVuSerif-67" transform="translate(126.611328 0)"/>
     <use xlink:href="#DejaVuSerif-69" transform="translate(190.625 0)"/>
     <use xlink:href="#DejaVuSerif-73" transform="translate(222.607422 0)"/>
     <use xlink:href="#DejaVuSerif-74" transform="translate(273.925781 0)"/>
     <use xlink:href="#DejaVuSerif-69" transform="translate(314.111328 0)"/>
     <use xlink:href="#DejaVuSerif-63" transform="translate(346.09375 0)"/>
     <use xlink:href="#DejaVuSerif-20" transform="translate(402.099609 0)"/>
     <use xlink:href="#DejaVuSerif-53" transform="translate(433.886719 0)"/>
     <use xlink:href="#DejaVuSerif-69" transform="translate(502.392578 0)"/>
     <use xlink:href="#DejaVuSerif-67" transform="translate(534.375 0)"/>
     <use xlink:href="#DejaVuSerif-6d" transform="translate(598.388672 0)"/>
     <use xlink:href="#DejaVuSerif-6f" transform="translate(693.212891 0)"/>
     <use xlink:href="#DejaVuSerif-69" transform="translate(753.417969 0)"/>
     <use xlink:href="#DejaVuSerif-64" transform="translate(785.400391 0)"/>
     <use xlink:href="#DejaVuSerif-20" transform="translate(849.414062 0)"/>
     <use xlink:href="#DejaVuSerif-46" transform="translate(881.201172 0)"/>
     <use xlink:href="#DejaVuSerif-75" transform="translate(950.585938 0)"/>
     <use xlink:href="#DejaVuSerif-6e" transform="translate(1014.990234 0)"/>
     <use xlink:href="#DejaVuSerif-63" transform="translate(1079.394531 0)"/>
     <use xlink:href="#DejaVuSerif-74" transform="translate(1135.400391 0)"/>
     <use xlink:href="#DejaVuSerif-69" transform="translate(1175.585938 0)"/>
     <use xlink:href="#DejaVuSerif-6f" transform="translate(1207.568359 0)"/>
     <use xlink:href="#DejaVuSerif-6e" transform="translate(1267.773438 0)"/>
    </g>
   </g>
   <g class="legend">
    <g class="patch">
     <path d="M 48 43.058125 
L 164.940625 43.058125 
Q 166.940625 43.058125 166.940625 41.058125 
L 166.940625 27.237812 
Q 166.940625 25.237812 164.940625 25.237812 
L 48 25.237812 
Q 46 25.237812 46 27.237812 
L 46 41.058125 
Q 46 43.058125 48 43.058125 
L 48 43.058125 
z
" style="fill: none; opacity: 0.85; stroke: #cccccc; stroke-linejoin: miter"/>
    </g>
    <g id="line2d_32">
     <path d="M 50 33.33625 
L 60 33.33625 
L 70 33.33625 
" style="fill: none; stroke:var(--c3); stroke-width: 2; stroke-linecap: square"/>
    </g>
    <g id="text_19" class="text">
     <!-- Logistic Sigmoid -->
     <g transform="translate(78 36.83625) scale(0.1 -0.1)">
      <use xlink:href="#DejaVuSerif-4c"/>
      <use xlink:href="#DejaVuSerif-6f" transform="translate(66.40625 0)"/>
      <use xlink:href="#DejaVuSerif-67" transform="translate(126.611328 0)"/>
      <use xlink:href="#DejaVuSerif-69" transform="translate(190.625 0)"/>
      <use xlink:href="#DejaVuSerif-73" transform="translate(222.607422 0)"/>
      <use xlink:href="#DejaVuSerif-74" transform="translate(273.925781 0)"/>
      <use xlink:href="#DejaVuSerif-69" transform="translate(314.111328 0)"/>
      <use xlink:href="#DejaVuSerif-63" transform="translate(346.09375 0)"/>
      <use xlink:href="#DejaVuSerif-20" transform="translate(402.099609 0)"/>
      <use xlink:href="#DejaVuSerif-53" transform="translate(433.886719 0)"/>
      <use xlink:href="#DejaVuSerif-69" transform="translate(502.392578 0)"/>
      <use xlink:href="#DejaVuSerif-67" transform="translate(534.375 0)"/>
      <use xlink:href="#DejaVuSerif-6d" transform="translate(598.388672 0)"/>
      <use xlink:href="#DejaVuSerif-6f" transform="translate(693.212891 0)"/>
      <use xlink:href="#DejaVuSerif-69" transform="translate(753.417969 0)"/>
      <use xlink:href="#DejaVuSerif-64" transform="translate(785.400391 0)"/>
     </g>
    </g>
   </g>
  </g>
 </g>
 <defs>
  <clipPath id="pa2922b258b">
   <rect x="41" y="20.237812" width="306.9" height="188.496"/>
  </clipPath>
 </defs>
</svg>
