<svg xmlns="http://www.w3.org/2000/svg" xmlns:xlink="http://www.w3.org/1999/xlink" width="548.413" height="437.965" style="--axis-color:#000;--grid-stroke:rgba(0,0,0,0.2);--plot3d-stroke:rgba(0,0,0,0.3);--plot3d-grid:rgba(0,0,0,0.2);--black:#000000;--c1:#FF0001;--c2:#00FF02;--c3:#0000FF;--c4:#FF00FF;--c5:#00FFFF;--c6:#FFFF00;--c7:#FF8000;--c8:#8000FF;--gray:#7f7f7f;--grey:#7f7f7f;--octonary:#bcbd22;--primary:#d62728;--quaternary:#9467bd;--quinary:#8c564b;--secondary:#2ca02c;--senary:#e377c2;--septenary:#7f7f7f;--tertiary:#1f77b4;--white:#ffffff" viewBox="0 0 411.31 328.474"><style><![CDATA[@media (prefers-color-scheme:dark){:root{--axis-color:#fff;--grid-stroke:rgba(255,255,255,0.2);--plot3d-stroke:rgba(255,255,255,0.3);--plot3d-grid:rgba(255,255,255,0.2);--black:#FFFFFF;--c1:#FF0001;--c2:#00FF02;--c3:#0000FF;--c4:#FF00FF;--c5:#00FFFF;--c6:#FFFF00;--c7:#FF8000;--c8:#8000FF;--gray:#CCCCCC;--grey:#CCCCCC;--octonary:#E6DB74;--primary:#FF4A98;--quaternary:#B4A0FF;--quinary:#FFB86B;--secondary:#0AFAFA;--senary:#FF79C6;--septenary:#CCCCCC;--tertiary:#7F83FF;--white:#000000}}.text{fill:var(--axis-color)!important;stroke:none!important}.axis path,.patch path[style*="stroke: currentColor"],.tick path{stroke:var(--axis-color)!important}@media (prefers-color-scheme:dark){g.legend>g:first-child>path:first-child{fill:rgba(26,26,26,.8)!important;stroke:rgba(255,255,255,.1)!important}}*{stroke-linejoin:round;stroke-linecap:butt}]]></style><g id="figure_1"><path d="M0 328.474h411.31V0H0z" class="patch" style="fill:none"/><g id="axes_1"><path d="M44.127 289.95h357.12V23.838H44.127z" class="patch" style="fill:none"/><g class="axis"><g class="tick xtick"><path id="line2d_1" d="M44.127 289.95V23.838" clip-path="url(#pdfedc3433a)" style="fill:none;stroke:#b0b0b0;stroke-opacity:.15;stroke-width:.8;stroke-linecap:square"/><g id="line2d_2"><defs><path id="md9aa4fefea" d="M0 0v3.5" style="stroke:var(--black);stroke-width:.8"/></defs><use xlink:href="#md9aa4fefea" x="44.127" y="289.95" style="stroke:var(--black);stroke-width:.8"/></g><g id="text_1" class="text" transform="matrix(.09 0 0 -.09 37.493 303.788)"><defs><path id="DejaVuSans-2212" d="M678 2272h4006v-531H678z" transform="scale(.01563)"/><path id="DejaVuSans-38" d="M2034 2216q-450 0-708-241-257-241-257-662 0-422 257-663 258-241 708-241t709 242q260 243 260 662 0 421-258 662-257 241-711 241zm-631 268q-406 100-633 378-226 279-226 679 0 559 398 884 399 325 1092 325 697 0 1094-325t397-884q0-400-227-679-226-278-629-378 456-106 710-416 255-309 255-755 0-679-414-1042Q2806-91 2034-91q-771 0-1186 362-414 363-414 1042 0 446 256 755 257 310 713 416zm-231 997q0-362 226-565 227-203 636-203 407 0 636 203 230 203 230 565 0 363-230 566-229 203-636 203-409 0-636-203-226-203-226-566z" transform="scale(.01563)"/></defs><use xlink:href="#DejaVuSans-2212"/><use xlink:href="#DejaVuSans-38" transform="translate(83.79)"/></g></g><g class="tick xtick"><path id="line2d_3" d="M88.767 289.95V23.838" clip-path="url(#pdfedc3433a)" style="fill:none;stroke:#b0b0b0;stroke-opacity:.15;stroke-width:.8;stroke-linecap:square"/><use xlink:href="#md9aa4fefea" id="line2d_4" x="88.767" y="289.95" style="stroke:var(--black);stroke-width:.8"/><g id="text_2" class="text" transform="matrix(.09 0 0 -.09 82.133 303.788)"><defs><path id="DejaVuSans-36" d="M2113 2584q-425 0-674-291-248-290-248-796 0-503 248-796 249-292 674-292t673 292q248 293 248 796 0 506-248 796-248 291-673 291zm1253 1979v-575q-238 112-480 171-242 60-480 60-625 0-955-422-329-422-376-1275 184 272 462 417 279 145 613 145 703 0 1111-427 408-426 408-1160 0-719-425-1154Q2819-91 2113-91q-810 0-1238 620-428 621-428 1799 0 1106 525 1764t1409 658q238 0 480-47t505-140z" transform="scale(.01563)"/></defs><use xlink:href="#DejaVuSans-2212"/><use xlink:href="#DejaVuSans-36" transform="translate(83.79)"/></g></g><g class="tick xtick"><path id="line2d_5" d="M133.407 289.95V23.838" clip-path="url(#pdfedc3433a)" style="fill:none;stroke:#b0b0b0;stroke-opacity:.15;stroke-width:.8;stroke-linecap:square"/><use xlink:href="#md9aa4fefea" id="line2d_6" x="133.407" y="289.95" style="stroke:var(--black);stroke-width:.8"/><g id="text_3" class="text" transform="matrix(.09 0 0 -.09 126.773 303.788)"><defs><path id="DejaVuSans-34" d="M2419 4116 825 1625h1594zm-166 550h794V1625h666v-525h-666V0h-628v1100H313v609z" transform="scale(.01563)"/></defs><use xlink:href="#DejaVuSans-2212"/><use xlink:href="#DejaVuSans-34" transform="translate(83.79)"/></g></g><g class="tick xtick"><path id="line2d_7" d="M178.047 289.95V23.838" clip-path="url(#pdfedc3433a)" style="fill:none;stroke:#b0b0b0;stroke-opacity:.15;stroke-width:.8;stroke-linecap:square"/><use xlink:href="#md9aa4fefea" id="line2d_8" x="178.047" y="289.95" style="stroke:var(--black);stroke-width:.8"/><g id="text_4" class="text" transform="matrix(.09 0 0 -.09 171.413 303.788)"><defs><path id="DejaVuSans-32" d="M1228 531h2203V0H469v531q359 372 979 998 621 627 780 809 303 340 423 576 121 236 121 464 0 372-261 606-261 235-680 235-297 0-627-103-329-103-704-313v638q381 153 712 231 332 78 607 78 725 0 1156-363 431-362 431-968 0-288-108-546-107-257-392-607-78-91-497-524-418-433-1181-1211z" transform="scale(.01563)"/></defs><use xlink:href="#DejaVuSans-2212"/><use xlink:href="#DejaVuSans-32" transform="translate(83.79)"/></g></g><g class="tick xtick"><path id="line2d_9" d="M222.687 289.95V23.838" clip-path="url(#pdfedc3433a)" style="fill:none;stroke:#b0b0b0;stroke-opacity:.15;stroke-width:.8;stroke-linecap:square"/><use xlink:href="#md9aa4fefea" id="line2d_10" x="222.687" y="289.95" style="stroke:var(--black);stroke-width:.8"/><g id="text_5" class="text" transform="matrix(.09 0 0 -.09 219.823 303.788)"><defs><path id="DejaVuSans-30" d="M2034 4250q-487 0-733-480-245-479-245-1442 0-959 245-1439 246-480 733-480 491 0 736 480 246 480 246 1439 0 963-246 1442-245 480-736 480zm0 500q785 0 1199-621 414-620 414-1801 0-1178-414-1799Q2819-91 2034-91q-784 0-1198 620-414 621-414 1799 0 1181 414 1801 414 621 1198 621z" transform="scale(.01563)"/></defs><use xlink:href="#DejaVuSans-30"/></g></g><g class="tick xtick"><path id="line2d_11" d="M267.327 289.95V23.838" clip-path="url(#pdfedc3433a)" style="fill:none;stroke:#b0b0b0;stroke-opacity:.15;stroke-width:.8;stroke-linecap:square"/><use xlink:href="#md9aa4fefea" id="line2d_12" x="267.327" y="289.95" style="stroke:var(--black);stroke-width:.8"/><use xlink:href="#DejaVuSans-32" id="text_6" class="text" transform="matrix(.09 0 0 -.09 264.463 303.788)"/></g><g class="tick xtick"><path id="line2d_13" d="M311.967 289.95V23.838" clip-path="url(#pdfedc3433a)" style="fill:none;stroke:#b0b0b0;stroke-opacity:.15;stroke-width:.8;stroke-linecap:square"/><use xlink:href="#md9aa4fefea" id="line2d_14" x="311.967" y="289.95" style="stroke:var(--black);stroke-width:.8"/><use xlink:href="#DejaVuSans-34" id="text_7" class="text" transform="matrix(.09 0 0 -.09 309.103 303.788)"/></g><g class="tick xtick"><path id="line2d_15" d="M356.607 289.95V23.838" clip-path="url(#pdfedc3433a)" style="fill:none;stroke:#b0b0b0;stroke-opacity:.15;stroke-width:.8;stroke-linecap:square"/><use xlink:href="#md9aa4fefea" id="line2d_16" x="356.607" y="289.95" style="stroke:var(--black);stroke-width:.8"/><use xlink:href="#DejaVuSans-36" id="text_8" class="text" transform="matrix(.09 0 0 -.09 353.743 303.788)"/></g><g class="tick xtick"><path id="line2d_17" d="M401.247 289.95V23.838" clip-path="url(#pdfedc3433a)" style="fill:none;stroke:#b0b0b0;stroke-opacity:.15;stroke-width:.8;stroke-linecap:square"/><use xlink:href="#md9aa4fefea" id="line2d_18" x="401.247" y="289.95" style="stroke:var(--black);stroke-width:.8"/><use xlink:href="#DejaVuSans-38" id="text_9" class="text" transform="matrix(.09 0 0 -.09 398.383 303.788)"/></g><g id="text_10" class="text" transform="matrix(.12 0 0 -.12 219.135 318.778)"><defs><path id="DejaVuSans-78" d="M3513 3500 2247 1797 3578 0h-678L1881 1375 863 0H184l1360 1831L300 3500h678l928-1247 928 1247z" transform="scale(.01563)"/></defs><use xlink:href="#DejaVuSans-78"/></g></g><g class="axis"><g class="tick ytick"><path id="line2d_19" d="M44.127 289.95h357.12" clip-path="url(#pdfedc3433a)" style="fill:none;stroke:#b0b0b0;stroke-opacity:.15;stroke-width:.8;stroke-linecap:square"/><g id="line2d_20"><defs><path id="me2d152e963" d="M0 0h-3.5" style="stroke:var(--black);stroke-width:.8"/></defs><use xlink:href="#me2d152e963" x="44.127" y="289.95" style="stroke:var(--black);stroke-width:.8"/></g><g id="text_11" class="text" transform="matrix(.09 0 0 -.09 22.814 293.37)"><defs><path id="DejaVuSans-2e" d="M684 794h660V0H684z" transform="scale(.01563)"/></defs><use xlink:href="#DejaVuSans-30"/><use xlink:href="#DejaVuSans-2e" transform="translate(63.623)"/><use xlink:href="#DejaVuSans-30" transform="translate(95.41)"/></g></g><g class="tick ytick"><path id="line2d_21" d="M44.127 236.727h357.12" clip-path="url(#pdfedc3433a)" style="fill:none;stroke:#b0b0b0;stroke-opacity:.15;stroke-width:.8;stroke-linecap:square"/><use xlink:href="#me2d152e963" id="line2d_22" x="44.127" y="236.727" style="stroke:var(--black);stroke-width:.8"/><g id="text_12" class="text" transform="matrix(.09 0 0 -.09 22.814 240.147)"><use xlink:href="#DejaVuSans-30"/><use xlink:href="#DejaVuSans-2e" transform="translate(63.623)"/><use xlink:href="#DejaVuSans-32" transform="translate(95.41)"/></g></g><g class="tick ytick"><path id="line2d_23" d="M44.127 183.505h357.12" clip-path="url(#pdfedc3433a)" style="fill:none;stroke:#b0b0b0;stroke-opacity:.15;stroke-width:.8;stroke-linecap:square"/><use xlink:href="#me2d152e963" id="line2d_24" x="44.127" y="183.505" style="stroke:var(--black);stroke-width:.8"/><g id="text_13" class="text" transform="matrix(.09 0 0 -.09 22.814 186.924)"><use xlink:href="#DejaVuSans-30"/><use xlink:href="#DejaVuSans-2e" transform="translate(63.623)"/><use xlink:href="#DejaVuSans-34" transform="translate(95.41)"/></g></g><g class="tick ytick"><path id="line2d_25" d="M44.127 130.283h357.12" clip-path="url(#pdfedc3433a)" style="fill:none;stroke:#b0b0b0;stroke-opacity:.15;stroke-width:.8;stroke-linecap:square"/><use xlink:href="#me2d152e963" id="line2d_26" x="44.127" y="130.283" style="stroke:var(--black);stroke-width:.8"/><g id="text_14" class="text" transform="matrix(.09 0 0 -.09 22.814 133.702)"><use xlink:href="#DejaVuSans-30"/><use xlink:href="#DejaVuSans-2e" transform="translate(63.623)"/><use xlink:href="#DejaVuSans-36" transform="translate(95.41)"/></g></g><g class="tick ytick"><path id="line2d_27" d="M44.127 77.06h357.12" clip-path="url(#pdfedc3433a)" style="fill:none;stroke:#b0b0b0;stroke-opacity:.15;stroke-width:.8;stroke-linecap:square"/><use xlink:href="#me2d152e963" id="line2d_28" x="44.127" y="77.06" style="stroke:var(--black);stroke-width:.8"/><g id="text_15" class="text" transform="matrix(.09 0 0 -.09 22.814 80.48)"><use xlink:href="#DejaVuSans-30"/><use xlink:href="#DejaVuSans-2e" transform="translate(63.623)"/><use xlink:href="#DejaVuSans-38" transform="translate(95.41)"/></g></g><g class="tick ytick"><path id="line2d_29" d="M44.127 23.838h357.12" clip-path="url(#pdfedc3433a)" style="fill:none;stroke:#b0b0b0;stroke-opacity:.15;stroke-width:.8;stroke-linecap:square"/><use xlink:href="#me2d152e963" id="line2d_30" x="44.127" y="23.838" style="stroke:var(--black);stroke-width:.8"/><g id="text_16" class="text" transform="matrix(.09 0 0 -.09 22.814 27.257)"><defs><path id="DejaVuSans-31" d="M794 531h1031v3560L703 3866v575l1116 225h631V531h1031V0H794z" transform="scale(.01563)"/></defs><use xlink:href="#DejaVuSans-31"/><use xlink:href="#DejaVuSans-2e" transform="translate(63.623)"/><use xlink:href="#DejaVuSans-30" transform="translate(95.41)"/></g></g><g id="text_17" class="text" transform="matrix(0 -.12 -.12 0 16.318 168.954)"><defs><path id="DejaVuSans-Oblique-3c3" d="M2219 3044q-475 0-797-344-341-359-453-953-125-628 75-991 197-359 662-359 460 0 797 362 341 363 463 988 109 572-85 953-181 344-662 344zm90 459 1910-3-113-575h-643q243-487 112-1178-169-859-691-1347Q2359-91 1609-91 856-91 525 400 194 888 363 1747q165 862 687 1350 434 406 1259 406z" transform="scale(.01563)"/><path id="DejaVuSans-28" d="M1984 4856q-418-718-622-1422-203-703-203-1425 0-721 205-1429t620-1424h-500Q1016-109 783 600T550 2009q0 697 231 1403 232 707 703 1444z" transform="scale(.01563)"/><path id="DejaVuSans-Oblique-78" d="M3841 3500 2234 1784 3219 0h-660l-740 1388L531 0h-697l1722 1844-915 1656h659l672-1266 1172 1266z" transform="scale(.01563)"/><path id="DejaVuSans-29" d="M513 4856h500q468-737 701-1444 233-706 233-1403 0-700-233-1409T1013-844H513q415 716 620 1424t205 1429q0 722-205 1425-205 704-620 1422z" transform="scale(.01563)"/></defs><use xlink:href="#DejaVuSans-Oblique-3c3" transform="translate(0 .125)"/><use xlink:href="#DejaVuSans-28" transform="translate(63.379 .125)"/><use xlink:href="#DejaVuSans-Oblique-78" transform="translate(102.393 .125)"/><use xlink:href="#DejaVuSans-29" transform="translate(161.572 .125)"/></g></g><path id="line2d_31" d="m44.127 289.86 27.746-.22 16.11-.326 11.636-.433 9.845-.588 8.056-.714 6.265-.76 5.37-.838 5.37-1.059 4.476-1.09 4.475-1.32 3.58-1.253 3.58-1.454 3.58-1.687 3.58-1.952 3.58-2.253 3.58-2.595 2.686-2.195 2.685-2.43 2.685-2.683 2.685-2.956 2.685-3.248 2.685-3.558 2.685-3.885 2.686-4.227 2.685-4.583 2.685-4.946 2.685-5.316 3.58-7.663 3.58-8.303 3.58-8.907 3.58-9.455 4.476-12.464 5.37-15.633 14.32-42.12 4.476-12.332 3.58-9.325 3.58-8.761 3.58-8.145 3.58-7.5 2.685-5.192 2.686-4.824 2.685-4.463 2.685-4.112 2.685-3.774 2.685-3.452 2.685-3.149 2.685-2.863 2.685-2.596 2.685-2.35 2.686-2.121 3.58-2.506 3.58-2.175 3.58-1.882 3.58-1.625 3.58-1.401 4.475-1.48 4.476-1.223 4.475-1.01 5.37-.98 6.265-.888 7.16-.757 8.056-.61 9.845-.502 12.53-.39 17.007-.277 22.376-.154h0" clip-path="url(#pdfedc3433a)" style="fill:none;stroke:#00f;stroke-width:2;stroke-linecap:square"/><path d="M44.127 289.95V23.838M44.127 289.95h357.12" class="patch" style="fill:none;stroke:var(--black);stroke-width:.8;stroke-linejoin:miter;stroke-linecap:square"/><g id="text_18" class="text" transform="matrix(.14 0 0 -.14 133.51 17.838)"><defs><path id="DejaVuSans-4c" d="M628 4666h631V531h2272V0H628z" transform="scale(.01563)"/><path id="DejaVuSans-6f" d="M1959 3097q-462 0-731-361t-269-989 267-989q268-361 733-361 460 0 728 362 269 363 269 988 0 622-269 986-268 364-728 364m0 487q750 0 1178-488 429-487 429-1349 0-859-429-1349Q2709-91 1959-91q-753 0-1180 489-426 490-426 1349 0 862 426 1349 427 488 1180 488" transform="scale(.01563)"/><path id="DejaVuSans-67" d="M2906 1791q0 625-258 968-257 344-723 344-462 0-720-344-258-343-258-968 0-622 258-966t720-344q466 0 723 344 258 344 258 966m575-1357q0-893-397-1329-396-436-1215-436-303 0-572 45t-522 139v559q253-137 500-202 247-66 503-66 566 0 847 295t281 892v285q-178-310-456-463T1784 0Q1141 0 747 490 353 981 353 1791q0 812 394 1302 394 491 1037 491 388 0 666-153t456-462v531h575z" transform="scale(.01563)"/><path id="DejaVuSans-69" d="M603 3500h575V0H603zm0 1363h575v-729H603z" transform="scale(.01563)"/><path id="DejaVuSans-73" d="M2834 3397v-544q-243 125-506 187-262 63-544 63-428 0-642-131t-214-394q0-200 153-314t616-217l197-44q612-131 870-370t258-667q0-488-386-773Q2250-91 1575-91q-281 0-586 55T347 128v594q319-166 628-249 309-82 613-82 406 0 624 139 219 139 219 392 0 234-158 359-157 125-692 241l-200 47q-534 112-772 345-237 233-237 639 0 494 350 762 350 269 994 269 318 0 599-47 282-46 519-140" transform="scale(.01563)"/><path id="DejaVuSans-74" d="M1172 4494v-994h1184v-447H1172V1153q0-428 117-550t477-122h590V0h-590q-666 0-919 248-253 249-253 905v1900H172v447h422v994z" transform="scale(.01563)"/><path id="DejaVuSans-63" d="M3122 3366v-538q-244 135-489 202t-495 67q-560 0-870-355-309-354-309-995t309-996q310-354 870-354 250 0 495 67t489 202V134Q2881 22 2623-34q-257-57-548-57-791 0-1257 497-465 497-465 1341 0 856 470 1346 471 491 1290 491 265 0 518-55 253-54 491-163" transform="scale(.01563)"/><path id="DejaVuSans-53" d="M3425 4513v-616q-359 172-678 256-319 85-616 85-515 0-795-200t-280-569q0-310 186-468 186-157 705-254l381-78q706-135 1042-474t336-907q0-679-455-1029Q2797-91 1919-91q-331 0-705 75-373 75-773 222v650q384-215 753-325 369-109 725-109 540 0 834 212 294 213 294 607 0 343-211 537t-692 291l-385 75q-706 140-1022 440-315 300-315 835 0 619 436 975t1201 356q329 0 669-60 341-59 697-177" transform="scale(.01563)"/><path id="DejaVuSans-6d" d="M3328 2828q216 388 516 572t706 184q547 0 844-383 297-382 297-1088V0h-578v2094q0 503-179 746-178 244-543 244-447 0-707-297-259-296-259-809V0h-578v2094q0 506-178 748t-550 242q-441 0-701-298-259-298-259-808V0H581v3500h578v-544q197 322 472 475t653 153q382 0 649-194 267-193 395-562" transform="scale(.01563)"/><path id="DejaVuSans-64" d="M2906 2969v1894h575V0h-575v525q-181-312-458-464-276-152-664-152-634 0-1033 506-398 507-398 1332t398 1331q399 506 1033 506 388 0 664-152 277-151 458-463M947 1747q0-634 261-995t717-361 718 361q263 361 263 995t-263 995q-262 361-718 361t-717-361-261-995" transform="scale(.01563)"/><path id="DejaVuSans-46" d="M628 4666h2681v-532H1259V2759h1850v-531H1259V0H628z" transform="scale(.01563)"/><path id="DejaVuSans-75" d="M544 1381v2119h575V1403q0-497 193-746 194-248 582-248 465 0 735 297 271 297 271 810v1984h575V0h-575v538q-209-319-486-474-276-155-642-155-603 0-916 375-312 375-312 1097m1447 2203" transform="scale(.01563)"/><path id="DejaVuSans-6e" d="M3513 2113V0h-575v2094q0 497-194 743-194 247-581 247-466 0-735-297-269-296-269-809V0H581v3500h578v-544q207 316 486 472 280 156 646 156 603 0 912-373 310-373 310-1098" transform="scale(.01563)"/></defs><use xlink:href="#DejaVuSans-4c"/><use xlink:href="#DejaVuSans-6f" transform="translate(53.963)"/><use xlink:href="#DejaVuSans-67" transform="translate(115.145)"/><use xlink:href="#DejaVuSans-69" transform="translate(178.621)"/><use xlink:href="#DejaVuSans-73" transform="translate(206.404)"/><use xlink:href="#DejaVuSans-74" transform="translate(258.504)"/><use xlink:href="#DejaVuSans-69" transform="translate(297.713)"/><use xlink:href="#DejaVuSans-63" transform="translate(325.496)"/><use xlink:href="#DejaVuSans-53" transform="translate(412.264)"/><use xlink:href="#DejaVuSans-69" transform="translate(475.74)"/><use xlink:href="#DejaVuSans-67" transform="translate(503.523)"/><use xlink:href="#DejaVuSans-6d" transform="translate(567)"/><use xlink:href="#DejaVuSans-6f" transform="translate(664.412)"/><use xlink:href="#DejaVuSans-69" transform="translate(725.594)"/><use xlink:href="#DejaVuSans-64" transform="translate(753.377)"/><use xlink:href="#DejaVuSans-46" transform="translate(848.64)"/><use xlink:href="#DejaVuSans-75" transform="translate(900.66)"/><use xlink:href="#DejaVuSans-6e" transform="translate(964.04)"/><use xlink:href="#DejaVuSans-63" transform="translate(1027.418)"/><use xlink:href="#DejaVuSans-74" transform="translate(1082.398)"/><use xlink:href="#DejaVuSans-69" transform="translate(1121.607)"/><use xlink:href="#DejaVuSans-6f" transform="translate(1149.39)"/><use xlink:href="#DejaVuSans-6e" transform="translate(1210.572)"/></g><g class="legend"><path d="M51.127 46.516h113.687q2 0 2-2V30.838q0-2-2-2H51.127q-2 0-2 2v13.678q0 2 2 2z" class="patch" style="fill:rgba(255,255,255,.8)!important;opacity:.8;stroke:rgba(0,0,0,.1)!important;stroke-linejoin:miter"/><path id="line2d_32" d="M53.127 36.936h20" style="fill:none;stroke:#00f;stroke-width:2;stroke-linecap:square"/><g id="text_19" class="text" transform="matrix(.1 0 0 -.1 81.127 40.436)"><use xlink:href="#DejaVuSans-4c"/><use xlink:href="#DejaVuSans-6f" transform="translate(53.963)"/><use xlink:href="#DejaVuSans-67" transform="translate(115.145)"/><use xlink:href="#DejaVuSans-69" transform="translate(178.621)"/><use xlink:href="#DejaVuSans-73" transform="translate(206.404)"/><use xlink:href="#DejaVuSans-74" transform="translate(258.504)"/><use xlink:href="#DejaVuSans-69" transform="translate(297.713)"/><use xlink:href="#DejaVuSans-63" transform="translate(325.496)"/><use xlink:href="#DejaVuSans-53" transform="translate(412.264)"/><use xlink:href="#DejaVuSans-69" transform="translate(475.74)"/><use xlink:href="#DejaVuSans-67" transform="translate(503.523)"/><use xlink:href="#DejaVuSans-6d" transform="translate(567)"/><use xlink:href="#DejaVuSans-6f" transform="translate(664.412)"/><use xlink:href="#DejaVuSans-69" transform="translate(725.594)"/><use xlink:href="#DejaVuSans-64" transform="translate(753.377)"/></g></g></g></g><defs><clipPath id="pdfedc3433a"><path d="M44.127 23.838h357.12V289.95H44.127z"/></clipPath></defs></svg>