<svg xmlns="http://www.w3.org/2000/svg" xmlns:xlink="http://www.w3.org/1999/xlink" width="552.744" height="420.34" style="--axis-color:#000;--grid-stroke:rgba(0,0,0,0.2);--plot3d-stroke:rgba(0,0,0,0.3);--plot3d-grid:rgba(0,0,0,0.2);--black:#000000;--c1:#FF0001;--c2:#00FF02;--c3:#0000FF;--c4:#FF00FF;--c5:#00FFFF;--c6:#FFFF00;--c7:#FF8000;--c8:#8000FF;--gray:#7f7f7f;--grey:#7f7f7f;--octonary:#bcbd22;--primary:#d62728;--quaternary:#9467bd;--quinary:#8c564b;--secondary:#2ca02c;--senary:#e377c2;--septenary:#7f7f7f;--tertiary:#1f77b4;--white:#ffffff" viewBox="0 0 414.558 315.255"><style><![CDATA[@media (prefers-color-scheme:dark){:root{--axis-color:#fff;--grid-stroke:rgba(255,255,255,0.2);--plot3d-stroke:rgba(255,255,255,0.3);--plot3d-grid:rgba(255,255,255,0.2);--black:#FFFFFF;--c1:#FF0001;--c2:#00FF02;--c3:#0000FF;--c4:#FF00FF;--c5:#00FFFF;--c6:#FFFF00;--c7:#FF8000;--c8:#8000FF;--gray:#CCCCCC;--grey:#CCCCCC;--octonary:#E6DB74;--primary:#FF4A98;--quaternary:#B4A0FF;--quinary:#FFB86B;--secondary:#0AFAFA;--senary:#FF79C6;--septenary:#CCCCCC;--tertiary:#7F83FF;--white:#000000}}.text{fill:var(--axis-color)!important;stroke:none!important}.axis path,.patch path[style*="stroke: currentColor"],.tick path{stroke:var(--axis-color)!important}@media (prefers-color-scheme:dark){g.legend>g:first-child>path:first-child{fill:rgba(26,26,26,.8)!important;stroke:rgba(255,255,255,.1)!important}}*{stroke-linejoin:round;stroke-linecap:butt}]]></style><g id="figure_1"><path d="M0 315.255h414.558V0H0z" class="patch" style="fill:none"/><g id="axes_1"><path d="M43.082 276.731h357.12V10.62H43.082z" class="patch" style="fill:none"/><g class="axis"><g class="tick xtick"><path id="line2d_1" d="M43.082 276.731V10.62" clip-path="url(#p55c81deacd)" style="fill:none;stroke:#b0b0b0;stroke-opacity:.15;stroke-width:.8;stroke-linecap:square"/><g id="line2d_2"><defs><path id="mba634be494" d="M0 0v3.5" style="stroke:var(--black);stroke-width:.8"/></defs><use xlink:href="#mba634be494" x="43.082" y="276.731" style="stroke:var(--black);stroke-width:.8"/></g><g id="text_1" class="text" transform="matrix(.09 0 0 -.09 35.925 290.57)"><defs><path id="DejaVuSans-30" d="M2034 4250q-487 0-733-480-245-479-245-1442 0-959 245-1439 246-480 733-480 491 0 736 480 246 480 246 1439 0 963-246 1442-245 480-736 480zm0 500q785 0 1199-621 414-620 414-1801 0-1178-414-1799Q2819-91 2034-91q-784 0-1198 620-414 621-414 1799 0 1181 414 1801 414 621 1198 621z" transform="scale(.01563)"/><path id="DejaVuSans-2e" d="M684 794h660V0H684z" transform="scale(.01563)"/></defs><use xlink:href="#DejaVuSans-30"/><use xlink:href="#DejaVuSans-2e" transform="translate(63.623)"/><use xlink:href="#DejaVuSans-30" transform="translate(95.41)"/></g></g><g class="tick xtick"><path id="line2d_3" d="M114.506 276.731V10.62" clip-path="url(#p55c81deacd)" style="fill:none;stroke:#b0b0b0;stroke-opacity:.15;stroke-width:.8;stroke-linecap:square"/><use xlink:href="#mba634be494" id="line2d_4" x="114.506" y="276.731" style="stroke:var(--black);stroke-width:.8"/><g id="text_2" class="text" transform="matrix(.09 0 0 -.09 107.35 290.57)"><defs><path id="DejaVuSans-32" d="M1228 531h2203V0H469v531q359 372 979 998 621 627 780 809 303 340 423 576 121 236 121 464 0 372-261 606-261 235-680 235-297 0-627-103-329-103-704-313v638q381 153 712 231 332 78 607 78 725 0 1156-363 431-362 431-968 0-288-108-546-107-257-392-607-78-91-497-524-418-433-1181-1211z" transform="scale(.01563)"/></defs><use xlink:href="#DejaVuSans-30"/><use xlink:href="#DejaVuSans-2e" transform="translate(63.623)"/><use xlink:href="#DejaVuSans-32" transform="translate(95.41)"/></g></g><g class="tick xtick"><path id="line2d_5" d="M185.93 276.731V10.62" clip-path="url(#p55c81deacd)" style="fill:none;stroke:#b0b0b0;stroke-opacity:.15;stroke-width:.8;stroke-linecap:square"/><use xlink:href="#mba634be494" id="line2d_6" x="185.93" y="276.731" style="stroke:var(--black);stroke-width:.8"/><g id="text_3" class="text" transform="matrix(.09 0 0 -.09 178.773 290.57)"><defs><path id="DejaVuSans-34" d="M2419 4116 825 1625h1594zm-166 550h794V1625h666v-525h-666V0h-628v1100H313v609z" transform="scale(.01563)"/></defs><use xlink:href="#DejaVuSans-30"/><use xlink:href="#DejaVuSans-2e" transform="translate(63.623)"/><use xlink:href="#DejaVuSans-34" transform="translate(95.41)"/></g></g><g class="tick xtick"><path id="line2d_7" d="M257.354 276.731V10.62" clip-path="url(#p55c81deacd)" style="fill:none;stroke:#b0b0b0;stroke-opacity:.15;stroke-width:.8;stroke-linecap:square"/><use xlink:href="#mba634be494" id="line2d_8" x="257.354" y="276.731" style="stroke:var(--black);stroke-width:.8"/><g id="text_4" class="text" transform="matrix(.09 0 0 -.09 250.197 290.57)"><defs><path id="DejaVuSans-36" d="M2113 2584q-425 0-674-291-248-290-248-796 0-503 248-796 249-292 674-292t673 292q248 293 248 796 0 506-248 796-248 291-673 291zm1253 1979v-575q-238 112-480 171-242 60-480 60-625 0-955-422-329-422-376-1275 184 272 462 417 279 145 613 145 703 0 1111-427 408-426 408-1160 0-719-425-1154Q2819-91 2113-91q-810 0-1238 620-428 621-428 1799 0 1106 525 1764t1409 658q238 0 480-47t505-140z" transform="scale(.01563)"/></defs><use xlink:href="#DejaVuSans-30"/><use xlink:href="#DejaVuSans-2e" transform="translate(63.623)"/><use xlink:href="#DejaVuSans-36" transform="translate(95.41)"/></g></g><g class="tick xtick"><path id="line2d_9" d="M328.778 276.731V10.62" clip-path="url(#p55c81deacd)" style="fill:none;stroke:#b0b0b0;stroke-opacity:.15;stroke-width:.8;stroke-linecap:square"/><use xlink:href="#mba634be494" id="line2d_10" x="328.778" y="276.731" style="stroke:var(--black);stroke-width:.8"/><g id="text_5" class="text" transform="matrix(.09 0 0 -.09 321.621 290.57)"><defs><path id="DejaVuSans-38" d="M2034 2216q-450 0-708-241-257-241-257-662 0-422 257-663 258-241 708-241t709 242q260 243 260 662 0 421-258 662-257 241-711 241zm-631 268q-406 100-633 378-226 279-226 679 0 559 398 884 399 325 1092 325 697 0 1094-325t397-884q0-400-227-679-226-278-629-378 456-106 710-416 255-309 255-755 0-679-414-1042Q2806-91 2034-91q-771 0-1186 362-414 363-414 1042 0 446 256 755 257 310 713 416zm-231 997q0-362 226-565 227-203 636-203 407 0 636 203 230 203 230 565 0 363-230 566-229 203-636 203-409 0-636-203-226-203-226-566z" transform="scale(.01563)"/></defs><use xlink:href="#DejaVuSans-30"/><use xlink:href="#DejaVuSans-2e" transform="translate(63.623)"/><use xlink:href="#DejaVuSans-38" transform="translate(95.41)"/></g></g><g class="tick xtick"><path id="line2d_11" d="M400.202 276.731V10.62" clip-path="url(#p55c81deacd)" style="fill:none;stroke:#b0b0b0;stroke-opacity:.15;stroke-width:.8;stroke-linecap:square"/><use xlink:href="#mba634be494" id="line2d_12" x="400.202" y="276.731" style="stroke:var(--black);stroke-width:.8"/><g id="text_6" class="text" transform="matrix(.09 0 0 -.09 393.045 290.57)"><defs><path id="DejaVuSans-31" d="M794 531h1031v3560L703 3866v575l1116 225h631V531h1031V0H794z" transform="scale(.01563)"/></defs><use xlink:href="#DejaVuSans-31"/><use xlink:href="#DejaVuSans-2e" transform="translate(63.623)"/><use xlink:href="#DejaVuSans-30" transform="translate(95.41)"/></g></g><g id="text_7" class="text" transform="matrix(.12 0 0 -.12 218.09 305.56)"><defs><path id="DejaVuSans-78" d="M3513 3500 2247 1797 3578 0h-678L1881 1375 863 0H184l1360 1831L300 3500h678l928-1247 928 1247z" transform="scale(.01563)"/></defs><use xlink:href="#DejaVuSans-78"/></g></g><g class="axis"><g class="tick ytick"><path id="line2d_13" d="M43.082 276.731h357.12" clip-path="url(#p55c81deacd)" style="fill:none;stroke:#b0b0b0;stroke-opacity:.15;stroke-width:.8;stroke-linecap:square"/><g id="line2d_14"><defs><path id="m472fa2686b" d="M0 0h-3.5" style="stroke:var(--black);stroke-width:.8"/></defs><use xlink:href="#m472fa2686b" x="43.082" y="276.731" style="stroke:var(--black);stroke-width:.8"/></g><g id="text_8" class="text" transform="matrix(.09 0 0 -.09 22.814 280.15)"><defs><path id="DejaVuSans-2212" d="M678 2272h4006v-531H678z" transform="scale(.01563)"/><path id="DejaVuSans-33" d="M2597 2516q453-97 707-404 255-306 255-756 0-690-475-1069Q2609-91 1734-91q-293 0-604 58T488 141v609q262-153 574-231 313-78 654-78 593 0 904 234t311 681q0 413-289 645-289 233-804 233h-544v519h569q465 0 712 186t247 536q0 359-255 551-254 193-729 193-260 0-557-57-297-56-653-174v562q360 100 674 150t592 50q719 0 1137-327 419-326 419-882 0-388-222-655t-631-370z" transform="scale(.01563)"/></defs><use xlink:href="#DejaVuSans-2212"/><use xlink:href="#DejaVuSans-33" transform="translate(83.79)"/></g></g><g class="tick ytick"><path id="line2d_15" d="M43.082 232.38h357.12" clip-path="url(#p55c81deacd)" style="fill:none;stroke:#b0b0b0;stroke-opacity:.15;stroke-width:.8;stroke-linecap:square"/><use xlink:href="#m472fa2686b" id="line2d_16" x="43.082" y="232.379" style="stroke:var(--black);stroke-width:.8"/><g id="text_9" class="text" transform="matrix(.09 0 0 -.09 22.814 235.799)"><use xlink:href="#DejaVuSans-2212"/><use xlink:href="#DejaVuSans-32" transform="translate(83.79)"/></g></g><g class="tick ytick"><path id="line2d_17" d="M43.082 188.027h357.12" clip-path="url(#p55c81deacd)" style="fill:none;stroke:#b0b0b0;stroke-opacity:.15;stroke-width:.8;stroke-linecap:square"/><use xlink:href="#m472fa2686b" id="line2d_18" x="43.082" y="188.027" style="stroke:var(--black);stroke-width:.8"/><g id="text_10" class="text" transform="matrix(.09 0 0 -.09 22.814 191.447)"><use xlink:href="#DejaVuSans-2212"/><use xlink:href="#DejaVuSans-31" transform="translate(83.79)"/></g></g><g class="tick ytick"><path id="line2d_19" d="M43.082 143.675h357.12" clip-path="url(#p55c81deacd)" style="fill:none;stroke:#b0b0b0;stroke-opacity:.15;stroke-width:.8;stroke-linecap:square"/><use xlink:href="#m472fa2686b" id="line2d_20" x="43.082" y="143.675" style="stroke:var(--black);stroke-width:.8"/><use xlink:href="#DejaVuSans-30" id="text_11" class="text" transform="matrix(.09 0 0 -.09 30.355 147.095)"/></g><g class="tick ytick"><path id="line2d_21" d="M43.082 99.323h357.12" clip-path="url(#p55c81deacd)" style="fill:none;stroke:#b0b0b0;stroke-opacity:.15;stroke-width:.8;stroke-linecap:square"/><use xlink:href="#m472fa2686b" id="line2d_22" x="43.082" y="99.323" style="stroke:var(--black);stroke-width:.8"/><use xlink:href="#DejaVuSans-31" id="text_12" class="text" transform="matrix(.09 0 0 -.09 30.355 102.743)"/></g><g class="tick ytick"><path id="line2d_23" d="M43.082 54.971h357.12" clip-path="url(#p55c81deacd)" style="fill:none;stroke:#b0b0b0;stroke-opacity:.15;stroke-width:.8;stroke-linecap:square"/><use xlink:href="#m472fa2686b" id="line2d_24" x="43.082" y="54.971" style="stroke:var(--black);stroke-width:.8"/><use xlink:href="#DejaVuSans-32" id="text_13" class="text" transform="matrix(.09 0 0 -.09 30.355 58.39)"/></g><g class="tick ytick"><path id="line2d_25" d="M43.082 10.62h357.12" clip-path="url(#p55c81deacd)" style="fill:none;stroke:#b0b0b0;stroke-opacity:.15;stroke-width:.8;stroke-linecap:square"/><use xlink:href="#m472fa2686b" id="line2d_26" x="43.082" y="10.619" style="stroke:var(--black);stroke-width:.8"/><use xlink:href="#DejaVuSans-33" id="text_14" class="text" transform="matrix(.09 0 0 -.09 30.355 14.039)"/></g><g id="text_15" class="text" transform="matrix(0 -.12 -.12 0 16.318 147.227)"><defs><path id="DejaVuSans-79" d="M2059-325q-243-625-475-815-231-191-618-191H506v481h338q237 0 368 113 132 112 291 531l103 262L191 3500h609L1894 763l1094 2737h609z" transform="scale(.01563)"/></defs><use xlink:href="#DejaVuSans-79"/></g></g><path id="line2d_27" d="m43.082 143.675 15.215-11.732 8.056-5.924 7.16-4.972 6.265-4.059 5.37-3.223 5.37-2.956 4.476-2.24 4.475-2.024 4.475-1.793 4.475-1.552 4.476-1.3 4.475-1.043 4.475-.777 4.475-.506 4.475-.234 4.476.041 4.475.316 4.475.588 4.475.857 4.475 1.12 4.476 1.378 4.475 1.625 4.475 1.864 4.475 2.09 4.475 2.303 5.37 3.025 5.37 3.285 6.266 4.122 6.265 4.386 8.056 5.94 10.74 8.255 19.69 15.209 8.056 5.907 6.265 4.351 6.266 4.08 5.37 3.245 5.37 2.98 5.37 2.688 4.476 2 4.475 1.77 4.475 1.527 4.475 1.275 4.475 1.016 4.476.75 4.475.48 4.475.206 4.475-.069 4.475-.343 4.475-.615 4.476-.884 4.475-1.147 4.475-1.402 4.475-1.65 4.475-1.886 4.476-2.112 5.37-2.812 5.37-3.094 5.37-3.345 6.266-4.183 7.16-5.087 8.055-6.016 11.636-9 .895-.699" clip-path="url(#p55c81deacd)" style="fill:none;stroke-dasharray:7.4,3.2;stroke-dashoffset:0;stroke:var(--black);stroke-width:2"/><path id="line2d_28" d="m43.082 113.562 357.12 59.697h0" clip-path="url(#p55c81deacd)" style="fill:none;stroke:green;stroke-width:2;stroke-linecap:square"/><path id="line2d_29" d="m43.082 144.77 4.475-5.567 4.475-5.145 4.475-4.732 3.58-3.496 3.58-3.245 3.58-3 3.58-2.76 3.581-2.524 3.58-2.297 3.58-2.073 3.58-1.855 3.58-1.643 3.58-1.437 3.58-1.236 3.581-1.04 3.58-.85 4.475-.806 4.476-.528 4.475-.263 4.475-.007 4.475.236 4.475.47 4.476.691 4.475.904 4.475 1.103 5.37 1.573 5.37 1.828 5.37 2.062 5.37 2.278 6.266 2.907 6.265 3.145 7.16 3.848 8.056 4.6 8.95 5.37 11.636 7.254 29.536 18.553 8.95 5.31 8.056 4.527 7.16 3.77 6.265 3.064 6.266 2.815 5.37 2.192 5.37 1.968 5.37 1.725 5.37 1.464 4.476 1.006 4.475.8 4.475.584 4.475.356 4.475.117 4.476-.132 4.475-.392 4.475-.663 3.58-.734 3.58-.92 3.58-1.11 3.58-1.31 3.58-1.511 3.581-1.72 3.58-1.935 3.58-2.154 3.58-2.379 3.58-2.61 3.58-2.847 3.58-3.089 3.581-3.336 3.58-3.59 3.58-3.848 3.58-4.113 4.476-5.522 1.79-2.33h0" clip-path="url(#p55c81deacd)" style="fill:none;stroke:red;stroke-width:2;stroke-linecap:square"/><path id="line2d_30" d="m43.082 139.296 1.79-15.103 1.79-11.939.895-4.914.895-4.277.895-3.684.895-3.136.895-2.63.895-2.162.895-1.733.895-1.338.895-.979.895-.65.895-.352.895-.083.895.16.895.378.895.57.895.741 1.79 1.911 1.79 2.358 2.686 4.083 8.95 14.395 2.685 3.684 1.79 2.163 1.79 1.902 1.79 1.626 1.79 1.343 1.79 1.057 1.79.772 1.79.494 1.79.227 1.79-.03 1.791-.268 1.79-.492 1.79-.696 1.79-.88 2.685-1.62 2.685-1.917 3.58-2.89 5.37-4.722 6.266-5.49 3.58-2.878 3.58-2.56 2.685-1.666 2.686-1.416 2.685-1.148 2.685-.866 2.685-.577 2.685-.286 2.685.004 2.685.287 2.685.558 2.685.816 2.686 1.058 2.685 1.28 2.685 1.483 3.58 2.254 3.58 2.522 4.475 3.449 5.37 4.44 9.846 8.508 8.95 7.637 7.16 5.81 6.266 4.816 7.16 5.222 8.95 6.23 25.062 17.26 14.32 9.937 5.37 3.471 4.476 2.661 3.58 1.924 3.58 1.697 3.58 1.433 2.685.878 2.685.694 2.685.498 2.686.292 2.685.077 2.685-.14 2.685-.36 2.685-.574 2.685-.783 2.685-.977 3.58-1.578 3.58-1.84 4.476-2.557 9.845-5.78 3.58-1.804 2.685-1.13 2.686-.883 2.685-.586 1.79-.205 1.79-.044 1.79.128 1.79.304 1.79.484 1.79.666 1.79.842 2.685 1.577 2.685 1.904 3.58 2.902 5.37 4.456 1.79 1.275 1.79 1.036 1.791.699.895.187.895.058.895-.088.895-.251.895-.435.895-.639.895-.864.895-1.113.895-1.386.895-1.685.895-2.012.895-2.368.895-2.754.895-3.172.896-3.625.895-4.114 1.79-9.846 1.79-12.278h0" clip-path="url(#p55c81deacd)" style="fill:none;stroke:#00f;stroke-width:2;stroke-linecap:square"/><path d="M43.082 276.731V10.62M43.082 276.731h357.12" class="patch" style="fill:none;stroke:var(--black);stroke-width:.8;stroke-linejoin:miter;stroke-linecap:square"/><g id="PathCollection_1"><defs><path id="m9fb772d495" d="M0 3a3 3 0 1 0 0-6 3 3 0 0 0 0 6z" style="stroke:var(--black)"/></defs><g clip-path="url(#p55c81deacd)"><use xlink:href="#m9fb772d495" x="43.082" y="139.296" style="stroke:var(--black)"/><use xlink:href="#m9fb772d495" x="82.762" y="118.952" style="stroke:var(--black)"/><use xlink:href="#m9fb772d495" x="122.442" y="105.427" style="stroke:var(--black)"/><use xlink:href="#m9fb772d495" x="162.122" y="97.781" style="stroke:var(--black)"/><use xlink:href="#m9fb772d495" x="201.802" y="129.064" style="stroke:var(--black)"/><use xlink:href="#m9fb772d495" x="241.482" y="157.883" style="stroke:var(--black)"/><use xlink:href="#m9fb772d495" x="281.162" y="184.469" style="stroke:var(--black)"/><use xlink:href="#m9fb772d495" x="320.842" y="186.418" style="stroke:var(--black)"/><use xlink:href="#m9fb772d495" x="360.522" y="173.191" style="stroke:var(--black)"/><use xlink:href="#m9fb772d495" x="400.202" y="141.621" style="stroke:var(--black)"/></g></g><g class="legend"><path d="M264.803 92.01h128.399q2 0 2-2V17.62q0-2-2-2H264.803q-2 0-2 2v72.39q0 2 2 2z" class="patch" style="fill:rgba(255,255,255,.8)!important;opacity:.8;stroke:rgba(0,0,0,.1)!important;stroke-linejoin:miter"/><path id="line2d_31" d="M266.803 23.718h20" style="fill:none;stroke-dasharray:7.4,3.2;stroke-dashoffset:0;stroke:var(--black);stroke-width:2"/><g id="text_16" class="text" transform="matrix(.1 0 0 -.1 294.803 27.218)"><defs><path id="DejaVuSans-54" d="M-19 4666h3947v-532H2272V0h-634v4134H-19z" transform="scale(.01563)"/><path id="DejaVuSans-72" d="M2631 2963q-97 56-211 82-114 27-251 27-488 0-749-317t-261-911V0H581v3500h578v-544q182 319 472 473 291 155 707 155 59 0 131-8 72-7 159-23z" transform="scale(.01563)"/><path id="DejaVuSans-75" d="M544 1381v2119h575V1403q0-497 193-746 194-248 582-248 465 0 735 297 271 297 271 810v1984h575V0h-575v538q-209-319-486-474-276-155-642-155-603 0-916 375-312 375-312 1097m1447 2203" transform="scale(.01563)"/><path id="DejaVuSans-65" d="M3597 1894v-281H953q38-594 358-905t892-311q331 0 642 81t618 244V178Q3153 47 2828-22t-659-69q-838 0-1327 487-489 488-489 1320 0 859 464 1363 464 505 1252 505 706 0 1117-455 411-454 411-1235m-575 169q-6 471-264 752-258 282-683 282-481 0-770-272t-333-766z" transform="scale(.01563)"/><path id="DejaVuSans-66" d="M2375 4863v-479h-550q-309 0-430-125-120-125-120-450v-309h947v-447h-947V0H697v3053H147v447h550v244q0 584 272 851 272 268 862 268z" transform="scale(.01563)"/><path id="DejaVuSans-6e" d="M3513 2113V0h-575v2094q0 497-194 743-194 247-581 247-466 0-735-297-269-296-269-809V0H581v3500h578v-544q207 316 486 472 280 156 646 156 603 0 912-373 310-373 310-1098" transform="scale(.01563)"/><path id="DejaVuSans-63" d="M3122 3366v-538q-244 135-489 202t-495 67q-560 0-870-355-309-354-309-995t309-996q310-354 870-354 250 0 495 67t489 202V134Q2881 22 2623-34q-257-57-548-57-791 0-1257 497-465 497-465 1341 0 856 470 1346 471 491 1290 491 265 0 518-55 253-54 491-163" transform="scale(.01563)"/><path id="DejaVuSans-74" d="M1172 4494v-994h1184v-447H1172V1153q0-428 117-550t477-122h590V0h-590q-666 0-919 248-253 249-253 905v1900H172v447h422v994z" transform="scale(.01563)"/><path id="DejaVuSans-69" d="M603 3500h575V0H603zm0 1363h575v-729H603z" transform="scale(.01563)"/><path id="DejaVuSans-6f" d="M1959 3097q-462 0-731-361t-269-989 267-989q268-361 733-361 460 0 728 362 269 363 269 988 0 622-269 986-268 364-728 364m0 487q750 0 1178-488 429-487 429-1349 0-859-429-1349Q2709-91 1959-91q-753 0-1180 489-426 490-426 1349 0 862 426 1349 427 488 1180 488" transform="scale(.01563)"/></defs><use xlink:href="#DejaVuSans-54"/><use xlink:href="#DejaVuSans-72" transform="translate(46.334)"/><use xlink:href="#DejaVuSans-75" transform="translate(87.447)"/><use xlink:href="#DejaVuSans-65" transform="translate(150.826)"/><use xlink:href="#DejaVuSans-66" transform="translate(244.137)"/><use xlink:href="#DejaVuSans-75" transform="translate(279.342)"/><use xlink:href="#DejaVuSans-6e" transform="translate(342.72)"/><use xlink:href="#DejaVuSans-63" transform="translate(406.1)"/><use xlink:href="#DejaVuSans-74" transform="translate(461.08)"/><use xlink:href="#DejaVuSans-69" transform="translate(500.29)"/><use xlink:href="#DejaVuSans-6f" transform="translate(528.072)"/><use xlink:href="#DejaVuSans-6e" transform="translate(589.254)"/></g><path id="line2d_32" d="M266.803 38.396h20" style="fill:none;stroke:green;stroke-width:2;stroke-linecap:square"/><g id="text_17" class="text" transform="matrix(.1 0 0 -.1 294.803 41.896)"><defs><path id="DejaVuSans-4d" d="M628 4666h941l1190-3175 1197 3175h941V0h-616v4097L3078 897h-634L1241 4097V0H628z" transform="scale(.01563)"/><path id="DejaVuSans-4c" d="M628 4666h631V531h2272V0H628z" transform="scale(.01563)"/><path id="DejaVuSans-50" d="M1259 4147V2394h794q441 0 681 228 241 228 241 650 0 419-241 647-240 228-681 228zm-631 519h1425q785 0 1186-355 402-355 402-1039 0-691-402-1044-401-353-1186-353h-794V0H628z" transform="scale(.01563)"/><path id="DejaVuSans-64" d="M2906 2969v1894h575V0h-575v525q-181-312-458-464-276-152-664-152-634 0-1033 506-398 507-398 1332t398 1331q399 506 1033 506 388 0 664-152 277-151 458-463M947 1747q0-634 261-995t717-361 718 361q263 361 263 995t-263 995q-262 361-718 361t-717-361-261-995" transform="scale(.01563)"/><path id="DejaVuSans-28" d="M1984 4856q-418-718-622-1422-203-703-203-1425 0-721 205-1429t620-1424h-500Q1016-109 783 600T550 2009q0 697 231 1403 232 707 703 1444z" transform="scale(.01563)"/><path id="DejaVuSans-3d" d="M678 2906h4006v-525H678zm0-1275h4006v-531H678z" transform="scale(.01563)"/><path id="DejaVuSans-29" d="M513 4856h500q468-737 701-1444 233-706 233-1403 0-700-233-1409T1013-844H513q415 716 620 1424t205 1429q0 722-205 1425-205 704-620 1422" transform="scale(.01563)"/></defs><use xlink:href="#DejaVuSans-4d"/><use xlink:href="#DejaVuSans-4c" transform="translate(86.28)"/><use xlink:href="#DejaVuSans-50" transform="translate(173.78)"/><use xlink:href="#DejaVuSans-72" transform="translate(232.332)"/><use xlink:href="#DejaVuSans-65" transform="translate(271.195)"/><use xlink:href="#DejaVuSans-64" transform="translate(332.719)"/><use xlink:href="#DejaVuSans-69" transform="translate(396.195)"/><use xlink:href="#DejaVuSans-63" transform="translate(423.979)"/><use xlink:href="#DejaVuSans-74" transform="translate(478.959)"/><use xlink:href="#DejaVuSans-6f" transform="translate(518.168)"/><use xlink:href="#DejaVuSans-72" transform="translate(579.35)"/><use xlink:href="#DejaVuSans-28" transform="translate(652.25)"/><use xlink:href="#DejaVuSans-4d" transform="translate(691.264)"/><use xlink:href="#DejaVuSans-3d" transform="translate(777.543)"/><use xlink:href="#DejaVuSans-31" transform="translate(861.332)"/><use xlink:href="#DejaVuSans-29" transform="translate(924.955)"/></g><path id="line2d_33" d="M266.803 53.074h20" style="fill:none;stroke:red;stroke-width:2;stroke-linecap:square"/><g id="text_18" class="text" transform="matrix(.1 0 0 -.1 294.803 56.574)"><use xlink:href="#DejaVuSans-4d"/><use xlink:href="#DejaVuSans-4c" transform="translate(86.28)"/><use xlink:href="#DejaVuSans-50" transform="translate(173.78)"/><use xlink:href="#DejaVuSans-72" transform="translate(232.332)"/><use xlink:href="#DejaVuSans-65" transform="translate(271.195)"/><use xlink:href="#DejaVuSans-64" transform="translate(332.719)"/><use xlink:href="#DejaVuSans-69" transform="translate(396.195)"/><use xlink:href="#DejaVuSans-63" transform="translate(423.979)"/><use xlink:href="#DejaVuSans-74" transform="translate(478.959)"/><use xlink:href="#DejaVuSans-6f" transform="translate(518.168)"/><use xlink:href="#DejaVuSans-72" transform="translate(579.35)"/><use xlink:href="#DejaVuSans-28" transform="translate(652.25)"/><use xlink:href="#DejaVuSans-4d" transform="translate(691.264)"/><use xlink:href="#DejaVuSans-3d" transform="translate(777.543)"/><use xlink:href="#DejaVuSans-33" transform="translate(861.332)"/><use xlink:href="#DejaVuSans-29" transform="translate(924.955)"/></g><path id="line2d_34" d="M266.803 67.752h20" style="fill:none;stroke:#00f;stroke-width:2;stroke-linecap:square"/><g id="text_19" class="text" transform="matrix(.1 0 0 -.1 294.803 71.252)"><defs><path id="DejaVuSans-39" d="M703 97v575q238-113 481-172 244-59 479-59 625 0 954 420 330 420 377 1277-181-269-460-413-278-144-615-144-700 0-1108 423-408 424-408 1159 0 718 425 1152 425 435 1131 435 810 0 1236-621 427-620 427-1801 0-1103-524-1761Q2575-91 1691-91q-238 0-482 47Q966 3 703 97m1256 1978q425 0 673 290 249 291 249 798 0 503-249 795-248 292-673 292t-673-292-248-795q0-507 248-798 248-290 673-290" transform="scale(.01563)"/></defs><use xlink:href="#DejaVuSans-4d"/><use xlink:href="#DejaVuSans-4c" transform="translate(86.28)"/><use xlink:href="#DejaVuSans-50" transform="translate(173.78)"/><use xlink:href="#DejaVuSans-72" transform="translate(232.332)"/><use xlink:href="#DejaVuSans-65" transform="translate(271.195)"/><use xlink:href="#DejaVuSans-64" transform="translate(332.719)"/><use xlink:href="#DejaVuSans-69" transform="translate(396.195)"/><use xlink:href="#DejaVuSans-63" transform="translate(423.979)"/><use xlink:href="#DejaVuSans-74" transform="translate(478.959)"/><use xlink:href="#DejaVuSans-6f" transform="translate(518.168)"/><use xlink:href="#DejaVuSans-72" transform="translate(579.35)"/><use xlink:href="#DejaVuSans-28" transform="translate(652.25)"/><use xlink:href="#DejaVuSans-4d" transform="translate(691.264)"/><use xlink:href="#DejaVuSans-3d" transform="translate(777.543)"/><use xlink:href="#DejaVuSans-39" transform="translate(861.332)"/><use xlink:href="#DejaVuSans-29" transform="translate(924.955)"/></g><use xlink:href="#m9fb772d495" id="PathCollection_2" x="276.803" y="83.305" style="stroke:var(--black)"/><g id="text_20" class="text" transform="matrix(.1 0 0 -.1 294.803 85.93)"><defs><path id="DejaVuSans-44" d="M1259 4147V519h763q966 0 1414 437 448 438 448 1382 0 937-448 1373t-1414 436zm-631 519h1297q1356 0 1990-564 635-564 635-1764 0-1207-638-1773Q3275 0 1925 0H628z" transform="scale(.01563)"/><path id="DejaVuSans-61" d="M2194 1759q-697 0-966-159t-269-544q0-306 202-486 202-179 548-179 479 0 768 339t289 901v128zm1147 238V0h-575v531q-197-318-491-470T1556-91q-537 0-855 302-317 302-317 808 0 590 395 890 396 300 1180 300h807v57q0 397-261 614t-733 217q-300 0-585-72-284-72-546-216v532q315 122 612 182 297 61 578 61 760 0 1135-394 375-393 375-1193" transform="scale(.01563)"/><path id="DejaVuSans-70" d="M1159 525v-1856H581v4831h578v-531q182 312 458 463 277 152 661 152 638 0 1036-506 399-506 399-1331T3314 415Q2916-91 2278-91q-384 0-661 152-276 152-458 464m1957 1222q0 634-261 995t-717 361q-457 0-718-361t-261-995 261-995 718-361q456 0 717 361t261 995" transform="scale(.01563)"/><path id="DejaVuSans-73" d="M2834 3397v-544q-243 125-506 187-262 63-544 63-428 0-642-131t-214-394q0-200 153-314t616-217l197-44q612-131 870-370t258-667q0-488-386-773Q2250-91 1575-91q-281 0-586 55T347 128v594q319-166 628-249 309-82 613-82 406 0 624 139 219 139 219 392 0 234-158 359-157 125-692 241l-200 47q-534 112-772 345-237 233-237 639 0 494 350 762 350 269 994 269 318 0 599-47 282-46 519-140" transform="scale(.01563)"/></defs><use xlink:href="#DejaVuSans-44"/><use xlink:href="#DejaVuSans-61" transform="translate(77.002)"/><use xlink:href="#DejaVuSans-74" transform="translate(138.281)"/><use xlink:href="#DejaVuSans-61" transform="translate(177.49)"/><use xlink:href="#DejaVuSans-70" transform="translate(270.557)"/><use xlink:href="#DejaVuSans-6f" transform="translate(334.033)"/><use xlink:href="#DejaVuSans-69" transform="translate(395.215)"/><use xlink:href="#DejaVuSans-6e" transform="translate(422.998)"/><use xlink:href="#DejaVuSans-74" transform="translate(486.377)"/><use xlink:href="#DejaVuSans-73" transform="translate(525.586)"/></g></g></g></g><defs><clipPath id="p55c81deacd"><path d="M43.082 10.619h357.12v266.112H43.082z"/></clipPath></defs></svg>