<?xml version="1.0" encoding="utf-8" standalone="no"?>
<!DOCTYPE svg PUBLIC "-//W3C//DTD SVG 1.1//EN"
  "http://www.w3.org/Graphics/SVG/1.1/DTD/svg11.dtd">
<svg xmlns:xlink="http://www.w3.org/1999/xlink" width="414.558125pt" height="315.255359pt" viewBox="0 0 414.558125 315.255359" xmlns="http://www.w3.org/2000/svg" version="1.1">
<style>/* === RDF autogenerated palette === */
:root {
    --axis-color: #000;
    --grid-stroke: rgba(0,0,0,0.2);
    --plot3d-stroke: rgba(0,0,0,0.3);
    --plot3d-grid: rgba(0,0,0,0.2);
}
@media (prefers-color-scheme: dark) {
    :root {
        --axis-color: #fff;
        --grid-stroke: rgba(255,255,255,0.2);
        --plot3d-stroke: rgba(255,255,255,0.3);
        --plot3d-grid: rgba(255,255,255,0.2);
    }
}

/* Light‑mode palette */
.black { fill:#000000; stroke:#000000; }:root { --black: #000000; }.c1 { fill:#FF0001; stroke:#FF0001; }:root { --c1: #FF0001; }.c2 { fill:#00FF02; stroke:#00FF02; }:root { --c2: #00FF02; }.c3 { fill:#0000FF; stroke:#0000FF; }:root { --c3: #0000FF; }.c4 { fill:#FF00FF; stroke:#FF00FF; }:root { --c4: #FF00FF; }.c5 { fill:#00FFFF; stroke:#00FFFF; }:root { --c5: #00FFFF; }.c6 { fill:#FFFF00; stroke:#FFFF00; }:root { --c6: #FFFF00; }.c7 { fill:#FF8000; stroke:#FF8000; }:root { --c7: #FF8000; }.c8 { fill:#8000FF; stroke:#8000FF; }:root { --c8: #8000FF; }.gray { fill:#7f7f7f; stroke:#7f7f7f; }:root { --gray: #7f7f7f; }.grey { fill:#7f7f7f; stroke:#7f7f7f; }:root { --grey: #7f7f7f; }.octonary { fill:#bcbd22; stroke:#bcbd22; }:root { --octonary: #bcbd22; }.primary { fill:#d62728; stroke:#d62728; }:root { --primary: #d62728; }.quaternary { fill:#9467bd; stroke:#9467bd; }:root { --quaternary: #9467bd; }.quinary { fill:#8c564b; stroke:#8c564b; }:root { --quinary: #8c564b; }.secondary { fill:#2ca02c; stroke:#2ca02c; }:root { --secondary: #2ca02c; }.senary { fill:#e377c2; stroke:#e377c2; }:root { --senary: #e377c2; }.septenary { fill:#7f7f7f; stroke:#7f7f7f; }:root { --septenary: #7f7f7f; }.tertiary { fill:#1f77b4; stroke:#1f77b4; }:root { --tertiary: #1f77b4; }.white { fill:#ffffff; stroke:#ffffff; }:root { --white: #ffffff; }

/* Dark overrides */
@media (prefers-color-scheme: dark) {
    .black { fill:#FFFFFF; stroke:#FFFFFF; }:root { --black: #FFFFFF; }.c1 { fill:#FF0001; stroke:#FF0001; }:root { --c1: #FF0001; }.c2 { fill:#00FF02; stroke:#00FF02; }:root { --c2: #00FF02; }.c3 { fill:#0000FF; stroke:#0000FF; }:root { --c3: #0000FF; }.c4 { fill:#FF00FF; stroke:#FF00FF; }:root { --c4: #FF00FF; }.c5 { fill:#00FFFF; stroke:#00FFFF; }:root { --c5: #00FFFF; }.c6 { fill:#FFFF00; stroke:#FFFF00; }:root { --c6: #FFFF00; }.c7 { fill:#FF8000; stroke:#FF8000; }:root { --c7: #FF8000; }.c8 { fill:#8000FF; stroke:#8000FF; }:root { --c8: #8000FF; }.gray { fill:#CCCCCC; stroke:#CCCCCC; }:root { --gray: #CCCCCC; }.grey { fill:#CCCCCC; stroke:#CCCCCC; }:root { --grey: #CCCCCC; }.octonary { fill:#E6DB74; stroke:#E6DB74; }:root { --octonary: #E6DB74; }.primary { fill:#FF4A98; stroke:#FF4A98; }:root { --primary: #FF4A98; }.quaternary { fill:#B4A0FF; stroke:#B4A0FF; }:root { --quaternary: #B4A0FF; }.quinary { fill:#FFB86B; stroke:#FFB86B; }:root { --quinary: #FFB86B; }.secondary { fill:#0AFAFA; stroke:#0AFAFA; }:root { --secondary: #0AFAFA; }.senary { fill:#FF79C6; stroke:#FF79C6; }:root { --senary: #FF79C6; }.septenary { fill:#CCCCCC; stroke:#CCCCCC; }:root { --septenary: #CCCCCC; }.tertiary { fill:#7F83FF; stroke:#7F83FF; }:root { --tertiary: #7F83FF; }.white { fill:#000000; stroke:#000000; }:root { --white: #000000; }
}/* Axis, ticks, legend */
text, .text { fill: var(--axis-color) !important; stroke: none !important; }
.axis line, .axis path,
.tick line, .tick path,
path.domain,
line.grid { stroke: var(--axis-color) !important; }
.legend text { fill: var(--axis-color) !important; }

/* Patch paths that relied on currentColor */
.patch path[style*="stroke: currentColor"] { stroke: var(--axis-color) !important; }

/* Legend background (first child of legend group) */
g.legend > g:first-child > path:first-child {
    fill: rgba(255,255,255,0.8) !important;
    stroke: rgba(0,0,0,0.1) !important;
}
@media (prefers-color-scheme: dark) {
    g.legend > g:first-child > path:first-child {
        fill: rgba(26,26,26,0.8) !important;
        stroke: rgba(255,255,255,0.1) !important;
    }
}

/* 3‑D specific rules */
.plot3d path, .plot3d polygon {
    stroke: var(--plot3d-stroke) !important;
}
.plot3d-grid line { stroke: var(--plot3d-grid) !important; }
.plot3d-surface path[style*="fill:"] {
    fill-opacity: 0.9 !important;
}
@media (prefers-color-scheme: dark) {
    .plot3d-surface path[style*="fill:"] {
        fill-opacity: 0.95 !important;
        filter: saturate(1.2) !important;
    }
}</style>

 <metadata>
  <rdf:RDF xmlns:dc="http://purl.org/dc/elements/1.1/" xmlns:cc="http://creativecommons.org/ns#" xmlns:rdf="http://www.w3.org/1999/02/22-rdf-syntax-ns#">
   <cc:Work>
    <dc:type rdf:resource="http://purl.org/dc/dcmitype/StillImage"/>
    <dc:date>2025-11-07T16:16:58.527098</dc:date>
    <dc:format>image/svg+xml</dc:format>
    <dc:creator>
     <cc:Agent>
      <dc:title>Matplotlib v3.10.1, https://matplotlib.org/</dc:title>
     </cc:Agent>
    </dc:creator>
   </cc:Work>
  </rdf:RDF>
 </metadata>
 <defs>
  <style type="text/css">*{stroke-linejoin: round; stroke-linecap: butt}</style>
 </defs>
 <g id="figure_1">
  <g class="patch">
   <path d="M -0 315.255359 
L 414.558125 315.255359 
L 414.558125 0 
L -0 0 
L -0 315.255359 
z
" style="fill: none"/>
  </g>
  <g id="axes_1">
   <g class="patch">
    <path d="M 43.081719 276.731297 
L 400.201719 276.731297 
L 400.201719 10.619297 
L 43.081719 10.619297 
L 43.081719 276.731297 
z
" style="fill: none"/>
   </g>
   <g class="axis">
    <g class="tick xtick">
     <g id="line2d_1">
      <path d="M 43.081719 276.731297 
L 43.081719 10.619297 
" clip-path="url(#p55c81deacd)" style="fill: none; stroke: #b0b0b0; stroke-opacity: 0.15; stroke-width: 0.8; stroke-linecap: square"/>
     </g>
     <g id="line2d_2">
      <defs>
       <path id="mba634be494" d="M 0 0 
L 0 3.5 
" style="stroke: var(--black); stroke-width: 0.8"/>
      </defs>
      <g>
       <use xlink:href="#mba634be494" x="43.081719" y="276.731297" style="stroke: var(--black); stroke-width: 0.8"/>
      </g>
     </g>
     <g id="text_1" class="text">
      <!-- 0.0 -->
      <g transform="translate(35.925313 290.569891) scale(0.09 -0.09)">
       <defs>
        <path id="DejaVuSans-30" d="M 2034 4250 
Q 1547 4250 1301 3770 
Q 1056 3291 1056 2328 
Q 1056 1369 1301 889 
Q 1547 409 2034 409 
Q 2525 409 2770 889 
Q 3016 1369 3016 2328 
Q 3016 3291 2770 3770 
Q 2525 4250 2034 4250 
z
M 2034 4750 
Q 2819 4750 3233 4129 
Q 3647 3509 3647 2328 
Q 3647 1150 3233 529 
Q 2819 -91 2034 -91 
Q 1250 -91 836 529 
Q 422 1150 422 2328 
Q 422 3509 836 4129 
Q 1250 4750 2034 4750 
z
" transform="scale(0.015625)"/>
        <path id="DejaVuSans-2e" d="M 684 794 
L 1344 794 
L 1344 0 
L 684 0 
L 684 794 
z
" transform="scale(0.015625)"/>
       </defs>
       <use xlink:href="#DejaVuSans-30"/>
       <use xlink:href="#DejaVuSans-2e" transform="translate(63.623047 0)"/>
       <use xlink:href="#DejaVuSans-30" transform="translate(95.410156 0)"/>
      </g>
     </g>
    </g>
    <g class="tick xtick">
     <g id="line2d_3">
      <path d="M 114.505719 276.731297 
L 114.505719 10.619297 
" clip-path="url(#p55c81deacd)" style="fill: none; stroke: #b0b0b0; stroke-opacity: 0.15; stroke-width: 0.8; stroke-linecap: square"/>
     </g>
     <g id="line2d_4">
      <g>
       <use xlink:href="#mba634be494" x="114.505719" y="276.731297" style="stroke: var(--black); stroke-width: 0.8"/>
      </g>
     </g>
     <g id="text_2" class="text">
      <!-- 0.2 -->
      <g transform="translate(107.349313 290.569891) scale(0.09 -0.09)">
       <defs>
        <path id="DejaVuSans-32" d="M 1228 531 
L 3431 531 
L 3431 0 
L 469 0 
L 469 531 
Q 828 903 1448 1529 
Q 2069 2156 2228 2338 
Q 2531 2678 2651 2914 
Q 2772 3150 2772 3378 
Q 2772 3750 2511 3984 
Q 2250 4219 1831 4219 
Q 1534 4219 1204 4116 
Q 875 4013 500 3803 
L 500 4441 
Q 881 4594 1212 4672 
Q 1544 4750 1819 4750 
Q 2544 4750 2975 4387 
Q 3406 4025 3406 3419 
Q 3406 3131 3298 2873 
Q 3191 2616 2906 2266 
Q 2828 2175 2409 1742 
Q 1991 1309 1228 531 
z
" transform="scale(0.015625)"/>
       </defs>
       <use xlink:href="#DejaVuSans-30"/>
       <use xlink:href="#DejaVuSans-2e" transform="translate(63.623047 0)"/>
       <use xlink:href="#DejaVuSans-32" transform="translate(95.410156 0)"/>
      </g>
     </g>
    </g>
    <g class="tick xtick">
     <g id="line2d_5">
      <path d="M 185.929719 276.731297 
L 185.929719 10.619297 
" clip-path="url(#p55c81deacd)" style="fill: none; stroke: #b0b0b0; stroke-opacity: 0.15; stroke-width: 0.8; stroke-linecap: square"/>
     </g>
     <g id="line2d_6">
      <g>
       <use xlink:href="#mba634be494" x="185.929719" y="276.731297" style="stroke: var(--black); stroke-width: 0.8"/>
      </g>
     </g>
     <g id="text_3" class="text">
      <!-- 0.4 -->
      <g transform="translate(178.773313 290.569891) scale(0.09 -0.09)">
       <defs>
        <path id="DejaVuSans-34" d="M 2419 4116 
L 825 1625 
L 2419 1625 
L 2419 4116 
z
M 2253 4666 
L 3047 4666 
L 3047 1625 
L 3713 1625 
L 3713 1100 
L 3047 1100 
L 3047 0 
L 2419 0 
L 2419 1100 
L 313 1100 
L 313 1709 
L 2253 4666 
z
" transform="scale(0.015625)"/>
       </defs>
       <use xlink:href="#DejaVuSans-30"/>
       <use xlink:href="#DejaVuSans-2e" transform="translate(63.623047 0)"/>
       <use xlink:href="#DejaVuSans-34" transform="translate(95.410156 0)"/>
      </g>
     </g>
    </g>
    <g class="tick xtick">
     <g id="line2d_7">
      <path d="M 257.353719 276.731297 
L 257.353719 10.619297 
" clip-path="url(#p55c81deacd)" style="fill: none; stroke: #b0b0b0; stroke-opacity: 0.15; stroke-width: 0.8; stroke-linecap: square"/>
     </g>
     <g id="line2d_8">
      <g>
       <use xlink:href="#mba634be494" x="257.353719" y="276.731297" style="stroke: var(--black); stroke-width: 0.8"/>
      </g>
     </g>
     <g id="text_4" class="text">
      <!-- 0.6 -->
      <g transform="translate(250.197313 290.569891) scale(0.09 -0.09)">
       <defs>
        <path id="DejaVuSans-36" d="M 2113 2584 
Q 1688 2584 1439 2293 
Q 1191 2003 1191 1497 
Q 1191 994 1439 701 
Q 1688 409 2113 409 
Q 2538 409 2786 701 
Q 3034 994 3034 1497 
Q 3034 2003 2786 2293 
Q 2538 2584 2113 2584 
z
M 3366 4563 
L 3366 3988 
Q 3128 4100 2886 4159 
Q 2644 4219 2406 4219 
Q 1781 4219 1451 3797 
Q 1122 3375 1075 2522 
Q 1259 2794 1537 2939 
Q 1816 3084 2150 3084 
Q 2853 3084 3261 2657 
Q 3669 2231 3669 1497 
Q 3669 778 3244 343 
Q 2819 -91 2113 -91 
Q 1303 -91 875 529 
Q 447 1150 447 2328 
Q 447 3434 972 4092 
Q 1497 4750 2381 4750 
Q 2619 4750 2861 4703 
Q 3103 4656 3366 4563 
z
" transform="scale(0.015625)"/>
       </defs>
       <use xlink:href="#DejaVuSans-30"/>
       <use xlink:href="#DejaVuSans-2e" transform="translate(63.623047 0)"/>
       <use xlink:href="#DejaVuSans-36" transform="translate(95.410156 0)"/>
      </g>
     </g>
    </g>
    <g class="tick xtick">
     <g id="line2d_9">
      <path d="M 328.777719 276.731297 
L 328.777719 10.619297 
" clip-path="url(#p55c81deacd)" style="fill: none; stroke: #b0b0b0; stroke-opacity: 0.15; stroke-width: 0.8; stroke-linecap: square"/>
     </g>
     <g id="line2d_10">
      <g>
       <use xlink:href="#mba634be494" x="328.777719" y="276.731297" style="stroke: var(--black); stroke-width: 0.8"/>
      </g>
     </g>
     <g id="text_5" class="text">
      <!-- 0.8 -->
      <g transform="translate(321.621313 290.569891) scale(0.09 -0.09)">
       <defs>
        <path id="DejaVuSans-38" d="M 2034 2216 
Q 1584 2216 1326 1975 
Q 1069 1734 1069 1313 
Q 1069 891 1326 650 
Q 1584 409 2034 409 
Q 2484 409 2743 651 
Q 3003 894 3003 1313 
Q 3003 1734 2745 1975 
Q 2488 2216 2034 2216 
z
M 1403 2484 
Q 997 2584 770 2862 
Q 544 3141 544 3541 
Q 544 4100 942 4425 
Q 1341 4750 2034 4750 
Q 2731 4750 3128 4425 
Q 3525 4100 3525 3541 
Q 3525 3141 3298 2862 
Q 3072 2584 2669 2484 
Q 3125 2378 3379 2068 
Q 3634 1759 3634 1313 
Q 3634 634 3220 271 
Q 2806 -91 2034 -91 
Q 1263 -91 848 271 
Q 434 634 434 1313 
Q 434 1759 690 2068 
Q 947 2378 1403 2484 
z
M 1172 3481 
Q 1172 3119 1398 2916 
Q 1625 2713 2034 2713 
Q 2441 2713 2670 2916 
Q 2900 3119 2900 3481 
Q 2900 3844 2670 4047 
Q 2441 4250 2034 4250 
Q 1625 4250 1398 4047 
Q 1172 3844 1172 3481 
z
" transform="scale(0.015625)"/>
       </defs>
       <use xlink:href="#DejaVuSans-30"/>
       <use xlink:href="#DejaVuSans-2e" transform="translate(63.623047 0)"/>
       <use xlink:href="#DejaVuSans-38" transform="translate(95.410156 0)"/>
      </g>
     </g>
    </g>
    <g class="tick xtick">
     <g id="line2d_11">
      <path d="M 400.201719 276.731297 
L 400.201719 10.619297 
" clip-path="url(#p55c81deacd)" style="fill: none; stroke: #b0b0b0; stroke-opacity: 0.15; stroke-width: 0.8; stroke-linecap: square"/>
     </g>
     <g id="line2d_12">
      <g>
       <use xlink:href="#mba634be494" x="400.201719" y="276.731297" style="stroke: var(--black); stroke-width: 0.8"/>
      </g>
     </g>
     <g id="text_6" class="text">
      <!-- 1.0 -->
      <g transform="translate(393.045313 290.569891) scale(0.09 -0.09)">
       <defs>
        <path id="DejaVuSans-31" d="M 794 531 
L 1825 531 
L 1825 4091 
L 703 3866 
L 703 4441 
L 1819 4666 
L 2450 4666 
L 2450 531 
L 3481 531 
L 3481 0 
L 794 0 
L 794 531 
z
" transform="scale(0.015625)"/>
       </defs>
       <use xlink:href="#DejaVuSans-31"/>
       <use xlink:href="#DejaVuSans-2e" transform="translate(63.623047 0)"/>
       <use xlink:href="#DejaVuSans-30" transform="translate(95.410156 0)"/>
      </g>
     </g>
    </g>
    <g id="text_7" class="text">
     <!-- x -->
     <g transform="translate(218.090469 305.559734) scale(0.12 -0.12)">
      <defs>
       <path id="DejaVuSans-78" d="M 3513 3500 
L 2247 1797 
L 3578 0 
L 2900 0 
L 1881 1375 
L 863 0 
L 184 0 
L 1544 1831 
L 300 3500 
L 978 3500 
L 1906 2253 
L 2834 3500 
L 3513 3500 
z
" transform="scale(0.015625)"/>
      </defs>
      <use xlink:href="#DejaVuSans-78"/>
     </g>
    </g>
   </g>
   <g class="axis">
    <g class="tick ytick">
     <g id="line2d_13">
      <path d="M 43.081719 276.731297 
L 400.201719 276.731297 
" clip-path="url(#p55c81deacd)" style="fill: none; stroke: #b0b0b0; stroke-opacity: 0.15; stroke-width: 0.8; stroke-linecap: square"/>
     </g>
     <g id="line2d_14">
      <defs>
       <path id="m472fa2686b" d="M 0 0 
L -3.5 0 
" style="stroke: var(--black); stroke-width: 0.8"/>
      </defs>
      <g>
       <use xlink:href="#m472fa2686b" x="43.081719" y="276.731297" style="stroke: var(--black); stroke-width: 0.8"/>
      </g>
     </g>
     <g id="text_8" class="text">
      <!-- −3 -->
      <g transform="translate(22.81375 280.150594) scale(0.09 -0.09)">
       <defs>
        <path id="DejaVuSans-2212" d="M 678 2272 
L 4684 2272 
L 4684 1741 
L 678 1741 
L 678 2272 
z
" transform="scale(0.015625)"/>
        <path id="DejaVuSans-33" d="M 2597 2516 
Q 3050 2419 3304 2112 
Q 3559 1806 3559 1356 
Q 3559 666 3084 287 
Q 2609 -91 1734 -91 
Q 1441 -91 1130 -33 
Q 819 25 488 141 
L 488 750 
Q 750 597 1062 519 
Q 1375 441 1716 441 
Q 2309 441 2620 675 
Q 2931 909 2931 1356 
Q 2931 1769 2642 2001 
Q 2353 2234 1838 2234 
L 1294 2234 
L 1294 2753 
L 1863 2753 
Q 2328 2753 2575 2939 
Q 2822 3125 2822 3475 
Q 2822 3834 2567 4026 
Q 2313 4219 1838 4219 
Q 1578 4219 1281 4162 
Q 984 4106 628 3988 
L 628 4550 
Q 988 4650 1302 4700 
Q 1616 4750 1894 4750 
Q 2613 4750 3031 4423 
Q 3450 4097 3450 3541 
Q 3450 3153 3228 2886 
Q 3006 2619 2597 2516 
z
" transform="scale(0.015625)"/>
       </defs>
       <use xlink:href="#DejaVuSans-2212"/>
       <use xlink:href="#DejaVuSans-33" transform="translate(83.789062 0)"/>
      </g>
     </g>
    </g>
    <g class="tick ytick">
     <g id="line2d_15">
      <path d="M 43.081719 232.379297 
L 400.201719 232.379297 
" clip-path="url(#p55c81deacd)" style="fill: none; stroke: #b0b0b0; stroke-opacity: 0.15; stroke-width: 0.8; stroke-linecap: square"/>
     </g>
     <g id="line2d_16">
      <g>
       <use xlink:href="#m472fa2686b" x="43.081719" y="232.379297" style="stroke: var(--black); stroke-width: 0.8"/>
      </g>
     </g>
     <g id="text_9" class="text">
      <!-- −2 -->
      <g transform="translate(22.81375 235.798594) scale(0.09 -0.09)">
       <use xlink:href="#DejaVuSans-2212"/>
       <use xlink:href="#DejaVuSans-32" transform="translate(83.789062 0)"/>
      </g>
     </g>
    </g>
    <g class="tick ytick">
     <g id="line2d_17">
      <path d="M 43.081719 188.027297 
L 400.201719 188.027297 
" clip-path="url(#p55c81deacd)" style="fill: none; stroke: #b0b0b0; stroke-opacity: 0.15; stroke-width: 0.8; stroke-linecap: square"/>
     </g>
     <g id="line2d_18">
      <g>
       <use xlink:href="#m472fa2686b" x="43.081719" y="188.027297" style="stroke: var(--black); stroke-width: 0.8"/>
      </g>
     </g>
     <g id="text_10" class="text">
      <!-- −1 -->
      <g transform="translate(22.81375 191.446594) scale(0.09 -0.09)">
       <use xlink:href="#DejaVuSans-2212"/>
       <use xlink:href="#DejaVuSans-31" transform="translate(83.789062 0)"/>
      </g>
     </g>
    </g>
    <g class="tick ytick">
     <g id="line2d_19">
      <path d="M 43.081719 143.675297 
L 400.201719 143.675297 
" clip-path="url(#p55c81deacd)" style="fill: none; stroke: #b0b0b0; stroke-opacity: 0.15; stroke-width: 0.8; stroke-linecap: square"/>
     </g>
     <g id="line2d_20">
      <g>
       <use xlink:href="#m472fa2686b" x="43.081719" y="143.675297" style="stroke: var(--black); stroke-width: 0.8"/>
      </g>
     </g>
     <g id="text_11" class="text">
      <!-- 0 -->
      <g transform="translate(30.355469 147.094594) scale(0.09 -0.09)">
       <use xlink:href="#DejaVuSans-30"/>
      </g>
     </g>
    </g>
    <g class="tick ytick">
     <g id="line2d_21">
      <path d="M 43.081719 99.323297 
L 400.201719 99.323297 
" clip-path="url(#p55c81deacd)" style="fill: none; stroke: #b0b0b0; stroke-opacity: 0.15; stroke-width: 0.8; stroke-linecap: square"/>
     </g>
     <g id="line2d_22">
      <g>
       <use xlink:href="#m472fa2686b" x="43.081719" y="99.323297" style="stroke: var(--black); stroke-width: 0.8"/>
      </g>
     </g>
     <g id="text_12" class="text">
      <!-- 1 -->
      <g transform="translate(30.355469 102.742594) scale(0.09 -0.09)">
       <use xlink:href="#DejaVuSans-31"/>
      </g>
     </g>
    </g>
    <g class="tick ytick">
     <g id="line2d_23">
      <path d="M 43.081719 54.971297 
L 400.201719 54.971297 
" clip-path="url(#p55c81deacd)" style="fill: none; stroke: #b0b0b0; stroke-opacity: 0.15; stroke-width: 0.8; stroke-linecap: square"/>
     </g>
     <g id="line2d_24">
      <g>
       <use xlink:href="#m472fa2686b" x="43.081719" y="54.971297" style="stroke: var(--black); stroke-width: 0.8"/>
      </g>
     </g>
     <g id="text_13" class="text">
      <!-- 2 -->
      <g transform="translate(30.355469 58.390594) scale(0.09 -0.09)">
       <use xlink:href="#DejaVuSans-32"/>
      </g>
     </g>
    </g>
    <g class="tick ytick">
     <g id="line2d_25">
      <path d="M 43.081719 10.619297 
L 400.201719 10.619297 
" clip-path="url(#p55c81deacd)" style="fill: none; stroke: #b0b0b0; stroke-opacity: 0.15; stroke-width: 0.8; stroke-linecap: square"/>
     </g>
     <g id="line2d_26">
      <g>
       <use xlink:href="#m472fa2686b" x="43.081719" y="10.619297" style="stroke: var(--black); stroke-width: 0.8"/>
      </g>
     </g>
     <g id="text_14" class="text">
      <!-- 3 -->
      <g transform="translate(30.355469 14.038594) scale(0.09 -0.09)">
       <use xlink:href="#DejaVuSans-33"/>
      </g>
     </g>
    </g>
    <g id="text_15" class="text">
     <!-- y -->
     <g transform="translate(16.318125 147.226547) rotate(-90) scale(0.12 -0.12)">
      <defs>
       <path id="DejaVuSans-79" d="M 2059 -325 
Q 1816 -950 1584 -1140 
Q 1353 -1331 966 -1331 
L 506 -1331 
L 506 -850 
L 844 -850 
Q 1081 -850 1212 -737 
Q 1344 -625 1503 -206 
L 1606 56 
L 191 3500 
L 800 3500 
L 1894 763 
L 2988 3500 
L 3597 3500 
L 2059 -325 
z
" transform="scale(0.015625)"/>
      </defs>
      <use xlink:href="#DejaVuSans-79"/>
     </g>
    </g>
   </g>
   <g id="line2d_27">
    <path d="M 43.081719 143.675297 
L 58.297358 131.943371 
L 66.352696 126.019339 
L 73.512997 121.047213 
L 79.77826 116.988245 
L 85.148486 113.765199 
L 90.518711 110.808968 
L 94.993899 108.568363 
L 99.469087 106.545289 
L 103.944275 104.752283 
L 108.419463 103.200453 
L 112.894651 101.899416 
L 117.369839 100.857233 
L 121.845027 100.080362 
L 126.320215 99.573617 
L 130.795403 99.340137 
L 135.270591 99.381369 
L 139.745779 99.697058 
L 144.220967 100.285247 
L 148.696155 101.142293 
L 153.171343 102.262884 
L 157.646531 103.640077 
L 162.121719 105.265338 
L 166.596907 107.128598 
L 171.072095 109.21831 
L 175.547283 111.521527 
L 180.917508 114.547031 
L 186.287734 117.832376 
L 192.552997 121.954474 
L 198.81826 126.340232 
L 206.873598 132.280505 
L 217.61405 140.535011 
L 237.304877 155.74363 
L 245.360215 161.651054 
L 251.625478 166.002338 
L 257.890741 170.082603 
L 263.260967 173.326617 
L 268.631192 176.306124 
L 274.001418 178.994545 
L 278.476606 180.995153 
L 282.951794 182.764518 
L 287.426982 184.291675 
L 291.90217 185.567164 
L 296.377358 186.583079 
L 300.852546 187.333127 
L 305.327734 187.812659 
L 309.802922 188.018705 
L 314.27811 187.949987 
L 318.753298 187.606932 
L 323.228486 186.991666 
L 327.703674 186.108 
L 332.178862 184.961409 
L 336.65405 183.559 
L 341.129238 181.90946 
L 345.604426 180.023012 
L 350.079613 177.911344 
L 355.449839 175.098569 
L 360.820065 172.005479 
L 366.19029 168.659668 
L 372.455553 164.476741 
L 379.615854 159.390174 
L 387.671192 153.374241 
L 399.306681 144.373694 
L 400.201719 143.675297 
L 400.201719 143.675297 
" clip-path="url(#p55c81deacd)" style="fill: none; stroke-dasharray: 7.4,3.2; stroke-dashoffset: 0; stroke: var(--black); stroke-width: 2"/>
   </g>
   <g id="line2d_28">
    <path d="M 43.081719 113.561722 
L 400.201719 173.258564 
L 400.201719 173.258564 
" clip-path="url(#p55c81deacd)" style="fill: none; stroke: #008000; stroke-width: 2; stroke-linecap: square"/>
   </g>
   <g id="line2d_29">
    <path d="M 43.081719 144.77021 
L 47.556907 139.202747 
L 52.032095 134.058365 
L 56.507283 129.326148 
L 60.087433 125.829796 
L 63.667583 122.584652 
L 67.247734 119.585127 
L 70.827884 116.825632 
L 74.408035 114.300576 
L 77.988185 112.00437 
L 81.568335 109.931425 
L 85.148486 108.07615 
L 88.728636 106.432956 
L 92.308786 104.996254 
L 95.888937 103.760454 
L 99.469087 102.719966 
L 103.049238 101.8692 
L 107.524426 101.064026 
L 111.999613 100.535642 
L 116.474801 100.273131 
L 120.949989 100.265576 
L 125.425177 100.502061 
L 129.900365 100.971667 
L 134.375553 101.663477 
L 138.850741 102.566575 
L 143.325929 103.670042 
L 148.696155 105.24332 
L 154.06638 107.070545 
L 159.436606 109.132852 
L 164.806832 111.411376 
L 171.072095 114.317761 
L 177.337358 117.462806 
L 184.497659 121.310953 
L 192.552997 125.910276 
L 201.503373 131.281448 
L 213.138862 138.535136 
L 242.675102 157.087626 
L 251.625478 162.39853 
L 259.680816 166.925207 
L 266.841117 170.694144 
L 273.10638 173.758581 
L 279.371644 176.57381 
L 284.741869 178.765806 
L 290.112095 180.733836 
L 295.48232 182.459035 
L 300.852546 183.922539 
L 305.327734 184.928609 
L 309.802922 185.728927 
L 314.27811 186.312578 
L 318.753298 186.668642 
L 323.228486 186.786205 
L 327.703674 186.654347 
L 332.178862 186.262151 
L 336.65405 185.598702 
L 340.2342 184.865303 
L 343.81435 183.945724 
L 347.394501 182.834376 
L 350.974651 181.525669 
L 354.554801 180.014014 
L 358.134952 178.293821 
L 361.715102 176.3595 
L 365.295253 174.205462 
L 368.875403 171.826117 
L 372.455553 169.215876 
L 376.035704 166.369149 
L 379.615854 163.280346 
L 383.196004 159.943877 
L 386.776155 156.354154 
L 390.356305 152.505586 
L 393.936456 148.392583 
L 398.411644 142.870954 
L 400.201719 140.541722 
L 400.201719 140.541722 
" clip-path="url(#p55c81deacd)" style="fill: none; stroke: #ff0000; stroke-width: 2; stroke-linecap: square"/>
   </g>
   <g id="line2d_30">
    <path d="M 43.081719 139.296005 
L 44.871794 124.193303 
L 46.661869 112.254318 
L 47.556907 107.339775 
L 48.451944 103.06331 
L 49.346982 99.378917 
L 50.24202 96.242821 
L 51.137057 93.613398 
L 52.032095 91.451105 
L 52.927132 89.718404 
L 53.82217 88.379688 
L 54.717207 87.401217 
L 55.612245 86.751043 
L 56.507283 86.39895 
L 57.40232 86.316384 
L 58.297358 86.476396 
L 59.192395 86.853576 
L 60.087433 87.423996 
L 60.982471 88.165151 
L 62.772546 90.076429 
L 64.562621 92.433741 
L 67.247734 96.517053 
L 76.19811 110.912172 
L 78.883223 114.59627 
L 80.673298 116.759118 
L 82.463373 118.661013 
L 84.253448 120.287462 
L 86.043523 121.630267 
L 87.833598 122.686755 
L 89.623674 123.45906 
L 91.413749 123.95346 
L 93.203824 124.179767 
L 94.993899 124.150761 
L 96.783974 123.88168 
L 98.57405 123.38974 
L 100.364125 122.693706 
L 102.1542 121.813505 
L 104.839313 120.193372 
L 107.524426 118.277313 
L 111.104576 115.386643 
L 116.474801 110.665302 
L 122.740065 105.175674 
L 126.320215 102.297431 
L 129.900365 99.736126 
L 132.585478 98.071328 
L 135.270591 96.655277 
L 137.955704 95.507389 
L 140.640816 94.641046 
L 143.325929 94.063943 
L 146.011042 93.77849 
L 148.696155 93.78227 
L 151.381268 94.068532 
L 154.06638 94.626715 
L 156.751493 95.442976 
L 159.436606 96.500734 
L 162.121719 97.781206 
L 164.806832 99.263929 
L 168.386982 101.518005 
L 171.967132 104.040115 
L 176.44232 107.488583 
L 181.812546 111.928485 
L 191.657959 120.437495 
L 200.608335 128.073994 
L 207.768636 133.884259 
L 214.033899 138.699968 
L 221.1942 143.921593 
L 230.144576 150.151196 
L 255.205629 167.412927 
L 269.52623 177.349154 
L 274.896456 180.82018 
L 279.371644 183.481397 
L 282.951794 185.404846 
L 286.531944 187.10245 
L 290.112095 188.534994 
L 292.797207 189.413145 
L 295.48232 190.107292 
L 298.167433 190.605113 
L 300.852546 190.896523 
L 303.537659 190.974127 
L 306.222771 190.833672 
L 308.907884 190.474482 
L 311.592997 189.899861 
L 314.27811 189.117452 
L 316.963223 188.139547 
L 320.543373 186.561985 
L 324.123523 184.722691 
L 328.598711 182.164751 
L 338.444125 176.38542 
L 342.024275 174.580523 
L 344.709388 173.45011 
L 347.394501 172.567817 
L 350.079613 171.981625 
L 351.869689 171.776723 
L 353.659764 171.733395 
L 355.449839 171.860514 
L 357.239914 172.164565 
L 359.029989 172.649176 
L 360.820065 173.314592 
L 362.61014 174.15712 
L 365.295253 175.733542 
L 367.980365 177.63808 
L 371.560516 180.539732 
L 376.930741 184.995936 
L 378.720816 186.270655 
L 380.510892 187.307153 
L 382.300967 188.005617 
L 383.196004 188.192777 
L 384.091042 188.251039 
L 384.98608 188.163421 
L 385.881117 187.911814 
L 386.776155 187.476932 
L 387.671192 186.83826 
L 388.56623 185.974004 
L 389.461268 184.86104 
L 390.356305 183.474857 
L 391.251343 181.789502 
L 392.14638 179.777523 
L 393.041418 177.40991 
L 393.936456 174.656035 
L 394.831493 171.483589 
L 395.726531 167.858517 
L 396.621568 163.744954 
L 398.411644 153.899438 
L 400.201719 141.621311 
L 400.201719 141.621311 
" clip-path="url(#p55c81deacd)" style="fill: none; stroke: #0000ff; stroke-width: 2; stroke-linecap: square"/>
   </g>
   <g class="patch">
    <path d="M 43.081719 276.731297 
L 43.081719 10.619297 
" style="fill: none; stroke: var(--black); stroke-width: 0.8; stroke-linejoin: miter; stroke-linecap: square"/>
   </g>
   <g class="patch">
    <path d="M 43.081719 276.731297 
L 400.201719 276.731297 
" style="fill: none; stroke: var(--black); stroke-width: 0.8; stroke-linejoin: miter; stroke-linecap: square"/>
   </g>
   <g id="PathCollection_1">
    <defs>
     <path id="m9fb772d495" d="M 0 3 
C 0.795609 3 1.55874 2.683901 2.12132 2.12132 
C 2.683901 1.55874 3 0.795609 3 0 
C 3 -0.795609 2.683901 -1.55874 2.12132 -2.12132 
C 1.55874 -2.683901 0.795609 -3 0 -3 
C -0.795609 -3 -1.55874 -2.683901 -2.12132 -2.12132 
C -2.683901 -1.55874 -3 -0.795609 -3 0 
C -3 0.795609 -2.683901 1.55874 -2.12132 2.12132 
C -1.55874 2.683901 -0.795609 3 0 3 
z
" style="stroke: var(--black)"/>
    </defs>
    <g clip-path="url(#p55c81deacd)">
     <use xlink:href="#m9fb772d495" x="43.081719" y="139.296005" style="stroke: var(--black)"/>
     <use xlink:href="#m9fb772d495" x="82.761719" y="118.951511" style="stroke: var(--black)"/>
     <use xlink:href="#m9fb772d495" x="122.441719" y="105.426866" style="stroke: var(--black)"/>
     <use xlink:href="#m9fb772d495" x="162.121719" y="97.781206" style="stroke: var(--black)"/>
     <use xlink:href="#m9fb772d495" x="201.801719" y="129.064071" style="stroke: var(--black)"/>
     <use xlink:href="#m9fb772d495" x="241.481719" y="157.882525" style="stroke: var(--black)"/>
     <use xlink:href="#m9fb772d495" x="281.161719" y="184.468856" style="stroke: var(--black)"/>
     <use xlink:href="#m9fb772d495" x="320.841719" y="186.417837" style="stroke: var(--black)"/>
     <use xlink:href="#m9fb772d495" x="360.521719" y="173.191237" style="stroke: var(--black)"/>
     <use xlink:href="#m9fb772d495" x="400.201719" y="141.621311" style="stroke: var(--black)"/>
    </g>
   </g>
   <g class="legend">
    <g class="patch">
     <path d="M 264.803281 92.009922 
L 393.201719 92.009922 
Q 395.201719 92.009922 395.201719 90.009922 
L 395.201719 17.619297 
Q 395.201719 15.619297 393.201719 15.619297 
L 264.803281 15.619297 
Q 262.803281 15.619297 262.803281 17.619297 
L 262.803281 90.009922 
Q 262.803281 92.009922 264.803281 92.009922 
z
" style="fill: var(--white); opacity: 0.8; stroke: #cccccc; stroke-linejoin: miter"/>
    </g>
    <g id="line2d_31">
     <path d="M 266.803281 23.717734 
L 276.803281 23.717734 
L 286.803281 23.717734 
" style="fill: none; stroke-dasharray: 7.4,3.2; stroke-dashoffset: 0; stroke: var(--black); stroke-width: 2"/>
    </g>
    <g id="text_16" class="text">
     <!-- True function -->
     <g transform="translate(294.803281 27.217734) scale(0.1 -0.1)">
      <defs>
       <path id="DejaVuSans-54" d="M -19 4666 
L 3928 4666 
L 3928 4134 
L 2272 4134 
L 2272 0 
L 1638 0 
L 1638 4134 
L -19 4134 
L -19 4666 
z
" transform="scale(0.015625)"/>
       <path id="DejaVuSans-72" d="M 2631 2963 
Q 2534 3019 2420 3045 
Q 2306 3072 2169 3072 
Q 1681 3072 1420 2755 
Q 1159 2438 1159 1844 
L 1159 0 
L 581 0 
L 581 3500 
L 1159 3500 
L 1159 2956 
Q 1341 3275 1631 3429 
Q 1922 3584 2338 3584 
Q 2397 3584 2469 3576 
Q 2541 3569 2628 3553 
L 2631 2963 
z
" transform="scale(0.015625)"/>
       <path id="DejaVuSans-75" d="M 544 1381 
L 544 3500 
L 1119 3500 
L 1119 1403 
Q 1119 906 1312 657 
Q 1506 409 1894 409 
Q 2359 409 2629 706 
Q 2900 1003 2900 1516 
L 2900 3500 
L 3475 3500 
L 3475 0 
L 2900 0 
L 2900 538 
Q 2691 219 2414 64 
Q 2138 -91 1772 -91 
Q 1169 -91 856 284 
Q 544 659 544 1381 
z
M 1991 3584 
L 1991 3584 
z
" transform="scale(0.015625)"/>
       <path id="DejaVuSans-65" d="M 3597 1894 
L 3597 1613 
L 953 1613 
Q 991 1019 1311 708 
Q 1631 397 2203 397 
Q 2534 397 2845 478 
Q 3156 559 3463 722 
L 3463 178 
Q 3153 47 2828 -22 
Q 2503 -91 2169 -91 
Q 1331 -91 842 396 
Q 353 884 353 1716 
Q 353 2575 817 3079 
Q 1281 3584 2069 3584 
Q 2775 3584 3186 3129 
Q 3597 2675 3597 1894 
z
M 3022 2063 
Q 3016 2534 2758 2815 
Q 2500 3097 2075 3097 
Q 1594 3097 1305 2825 
Q 1016 2553 972 2059 
L 3022 2063 
z
" transform="scale(0.015625)"/>
       <path id="DejaVuSans-20" transform="scale(0.015625)"/>
       <path id="DejaVuSans-66" d="M 2375 4863 
L 2375 4384 
L 1825 4384 
Q 1516 4384 1395 4259 
Q 1275 4134 1275 3809 
L 1275 3500 
L 2222 3500 
L 2222 3053 
L 1275 3053 
L 1275 0 
L 697 0 
L 697 3053 
L 147 3053 
L 147 3500 
L 697 3500 
L 697 3744 
Q 697 4328 969 4595 
Q 1241 4863 1831 4863 
L 2375 4863 
z
" transform="scale(0.015625)"/>
       <path id="DejaVuSans-6e" d="M 3513 2113 
L 3513 0 
L 2938 0 
L 2938 2094 
Q 2938 2591 2744 2837 
Q 2550 3084 2163 3084 
Q 1697 3084 1428 2787 
Q 1159 2491 1159 1978 
L 1159 0 
L 581 0 
L 581 3500 
L 1159 3500 
L 1159 2956 
Q 1366 3272 1645 3428 
Q 1925 3584 2291 3584 
Q 2894 3584 3203 3211 
Q 3513 2838 3513 2113 
z
" transform="scale(0.015625)"/>
       <path id="DejaVuSans-63" d="M 3122 3366 
L 3122 2828 
Q 2878 2963 2633 3030 
Q 2388 3097 2138 3097 
Q 1578 3097 1268 2742 
Q 959 2388 959 1747 
Q 959 1106 1268 751 
Q 1578 397 2138 397 
Q 2388 397 2633 464 
Q 2878 531 3122 666 
L 3122 134 
Q 2881 22 2623 -34 
Q 2366 -91 2075 -91 
Q 1284 -91 818 406 
Q 353 903 353 1747 
Q 353 2603 823 3093 
Q 1294 3584 2113 3584 
Q 2378 3584 2631 3529 
Q 2884 3475 3122 3366 
z
" transform="scale(0.015625)"/>
       <path id="DejaVuSans-74" d="M 1172 4494 
L 1172 3500 
L 2356 3500 
L 2356 3053 
L 1172 3053 
L 1172 1153 
Q 1172 725 1289 603 
Q 1406 481 1766 481 
L 2356 481 
L 2356 0 
L 1766 0 
Q 1100 0 847 248 
Q 594 497 594 1153 
L 594 3053 
L 172 3053 
L 172 3500 
L 594 3500 
L 594 4494 
L 1172 4494 
z
" transform="scale(0.015625)"/>
       <path id="DejaVuSans-69" d="M 603 3500 
L 1178 3500 
L 1178 0 
L 603 0 
L 603 3500 
z
M 603 4863 
L 1178 4863 
L 1178 4134 
L 603 4134 
L 603 4863 
z
" transform="scale(0.015625)"/>
       <path id="DejaVuSans-6f" d="M 1959 3097 
Q 1497 3097 1228 2736 
Q 959 2375 959 1747 
Q 959 1119 1226 758 
Q 1494 397 1959 397 
Q 2419 397 2687 759 
Q 2956 1122 2956 1747 
Q 2956 2369 2687 2733 
Q 2419 3097 1959 3097 
z
M 1959 3584 
Q 2709 3584 3137 3096 
Q 3566 2609 3566 1747 
Q 3566 888 3137 398 
Q 2709 -91 1959 -91 
Q 1206 -91 779 398 
Q 353 888 353 1747 
Q 353 2609 779 3096 
Q 1206 3584 1959 3584 
z
" transform="scale(0.015625)"/>
      </defs>
      <use xlink:href="#DejaVuSans-54"/>
      <use xlink:href="#DejaVuSans-72" transform="translate(46.333984 0)"/>
      <use xlink:href="#DejaVuSans-75" transform="translate(87.447266 0)"/>
      <use xlink:href="#DejaVuSans-65" transform="translate(150.826172 0)"/>
      <use xlink:href="#DejaVuSans-20" transform="translate(212.349609 0)"/>
      <use xlink:href="#DejaVuSans-66" transform="translate(244.136719 0)"/>
      <use xlink:href="#DejaVuSans-75" transform="translate(279.341797 0)"/>
      <use xlink:href="#DejaVuSans-6e" transform="translate(342.720703 0)"/>
      <use xlink:href="#DejaVuSans-63" transform="translate(406.099609 0)"/>
      <use xlink:href="#DejaVuSans-74" transform="translate(461.080078 0)"/>
      <use xlink:href="#DejaVuSans-69" transform="translate(500.289062 0)"/>
      <use xlink:href="#DejaVuSans-6f" transform="translate(528.072266 0)"/>
      <use xlink:href="#DejaVuSans-6e" transform="translate(589.253906 0)"/>
     </g>
    </g>
    <g id="line2d_32">
     <path d="M 266.803281 38.395859 
L 276.803281 38.395859 
L 286.803281 38.395859 
" style="fill: none; stroke: #008000; stroke-width: 2; stroke-linecap: square"/>
    </g>
    <g id="text_17" class="text">
     <!-- ML Predictor (M=1) -->
     <g transform="translate(294.803281 41.895859) scale(0.1 -0.1)">
      <defs>
       <path id="DejaVuSans-4d" d="M 628 4666 
L 1569 4666 
L 2759 1491 
L 3956 4666 
L 4897 4666 
L 4897 0 
L 4281 0 
L 4281 4097 
L 3078 897 
L 2444 897 
L 1241 4097 
L 1241 0 
L 628 0 
L 628 4666 
z
" transform="scale(0.015625)"/>
       <path id="DejaVuSans-4c" d="M 628 4666 
L 1259 4666 
L 1259 531 
L 3531 531 
L 3531 0 
L 628 0 
L 628 4666 
z
" transform="scale(0.015625)"/>
       <path id="DejaVuSans-50" d="M 1259 4147 
L 1259 2394 
L 2053 2394 
Q 2494 2394 2734 2622 
Q 2975 2850 2975 3272 
Q 2975 3691 2734 3919 
Q 2494 4147 2053 4147 
L 1259 4147 
z
M 628 4666 
L 2053 4666 
Q 2838 4666 3239 4311 
Q 3641 3956 3641 3272 
Q 3641 2581 3239 2228 
Q 2838 1875 2053 1875 
L 1259 1875 
L 1259 0 
L 628 0 
L 628 4666 
z
" transform="scale(0.015625)"/>
       <path id="DejaVuSans-64" d="M 2906 2969 
L 2906 4863 
L 3481 4863 
L 3481 0 
L 2906 0 
L 2906 525 
Q 2725 213 2448 61 
Q 2172 -91 1784 -91 
Q 1150 -91 751 415 
Q 353 922 353 1747 
Q 353 2572 751 3078 
Q 1150 3584 1784 3584 
Q 2172 3584 2448 3432 
Q 2725 3281 2906 2969 
z
M 947 1747 
Q 947 1113 1208 752 
Q 1469 391 1925 391 
Q 2381 391 2643 752 
Q 2906 1113 2906 1747 
Q 2906 2381 2643 2742 
Q 2381 3103 1925 3103 
Q 1469 3103 1208 2742 
Q 947 2381 947 1747 
z
" transform="scale(0.015625)"/>
       <path id="DejaVuSans-28" d="M 1984 4856 
Q 1566 4138 1362 3434 
Q 1159 2731 1159 2009 
Q 1159 1288 1364 580 
Q 1569 -128 1984 -844 
L 1484 -844 
Q 1016 -109 783 600 
Q 550 1309 550 2009 
Q 550 2706 781 3412 
Q 1013 4119 1484 4856 
L 1984 4856 
z
" transform="scale(0.015625)"/>
       <path id="DejaVuSans-3d" d="M 678 2906 
L 4684 2906 
L 4684 2381 
L 678 2381 
L 678 2906 
z
M 678 1631 
L 4684 1631 
L 4684 1100 
L 678 1100 
L 678 1631 
z
" transform="scale(0.015625)"/>
       <path id="DejaVuSans-29" d="M 513 4856 
L 1013 4856 
Q 1481 4119 1714 3412 
Q 1947 2706 1947 2009 
Q 1947 1309 1714 600 
Q 1481 -109 1013 -844 
L 513 -844 
Q 928 -128 1133 580 
Q 1338 1288 1338 2009 
Q 1338 2731 1133 3434 
Q 928 4138 513 4856 
z
" transform="scale(0.015625)"/>
      </defs>
      <use xlink:href="#DejaVuSans-4d"/>
      <use xlink:href="#DejaVuSans-4c" transform="translate(86.279297 0)"/>
      <use xlink:href="#DejaVuSans-20" transform="translate(141.992188 0)"/>
      <use xlink:href="#DejaVuSans-50" transform="translate(173.779297 0)"/>
      <use xlink:href="#DejaVuSans-72" transform="translate(232.332031 0)"/>
      <use xlink:href="#DejaVuSans-65" transform="translate(271.195312 0)"/>
      <use xlink:href="#DejaVuSans-64" transform="translate(332.71875 0)"/>
      <use xlink:href="#DejaVuSans-69" transform="translate(396.195312 0)"/>
      <use xlink:href="#DejaVuSans-63" transform="translate(423.978516 0)"/>
      <use xlink:href="#DejaVuSans-74" transform="translate(478.958984 0)"/>
      <use xlink:href="#DejaVuSans-6f" transform="translate(518.167969 0)"/>
      <use xlink:href="#DejaVuSans-72" transform="translate(579.349609 0)"/>
      <use xlink:href="#DejaVuSans-20" transform="translate(620.462891 0)"/>
      <use xlink:href="#DejaVuSans-28" transform="translate(652.25 0)"/>
      <use xlink:href="#DejaVuSans-4d" transform="translate(691.263672 0)"/>
      <use xlink:href="#DejaVuSans-3d" transform="translate(777.542969 0)"/>
      <use xlink:href="#DejaVuSans-31" transform="translate(861.332031 0)"/>
      <use xlink:href="#DejaVuSans-29" transform="translate(924.955078 0)"/>
     </g>
    </g>
    <g id="line2d_33">
     <path d="M 266.803281 53.073984 
L 276.803281 53.073984 
L 286.803281 53.073984 
" style="fill: none; stroke: #ff0000; stroke-width: 2; stroke-linecap: square"/>
    </g>
    <g id="text_18" class="text">
     <!-- ML Predictor (M=3) -->
     <g transform="translate(294.803281 56.573984) scale(0.1 -0.1)">
      <use xlink:href="#DejaVuSans-4d"/>
      <use xlink:href="#DejaVuSans-4c" transform="translate(86.279297 0)"/>
      <use xlink:href="#DejaVuSans-20" transform="translate(141.992188 0)"/>
      <use xlink:href="#DejaVuSans-50" transform="translate(173.779297 0)"/>
      <use xlink:href="#DejaVuSans-72" transform="translate(232.332031 0)"/>
      <use xlink:href="#DejaVuSans-65" transform="translate(271.195312 0)"/>
      <use xlink:href="#DejaVuSans-64" transform="translate(332.71875 0)"/>
      <use xlink:href="#DejaVuSans-69" transform="translate(396.195312 0)"/>
      <use xlink:href="#DejaVuSans-63" transform="translate(423.978516 0)"/>
      <use xlink:href="#DejaVuSans-74" transform="translate(478.958984 0)"/>
      <use xlink:href="#DejaVuSans-6f" transform="translate(518.167969 0)"/>
      <use xlink:href="#DejaVuSans-72" transform="translate(579.349609 0)"/>
      <use xlink:href="#DejaVuSans-20" transform="translate(620.462891 0)"/>
      <use xlink:href="#DejaVuSans-28" transform="translate(652.25 0)"/>
      <use xlink:href="#DejaVuSans-4d" transform="translate(691.263672 0)"/>
      <use xlink:href="#DejaVuSans-3d" transform="translate(777.542969 0)"/>
      <use xlink:href="#DejaVuSans-33" transform="translate(861.332031 0)"/>
      <use xlink:href="#DejaVuSans-29" transform="translate(924.955078 0)"/>
     </g>
    </g>
    <g id="line2d_34">
     <path d="M 266.803281 67.752109 
L 276.803281 67.752109 
L 286.803281 67.752109 
" style="fill: none; stroke: #0000ff; stroke-width: 2; stroke-linecap: square"/>
    </g>
    <g id="text_19" class="text">
     <!-- ML Predictor (M=9) -->
     <g transform="translate(294.803281 71.252109) scale(0.1 -0.1)">
      <defs>
       <path id="DejaVuSans-39" d="M 703 97 
L 703 672 
Q 941 559 1184 500 
Q 1428 441 1663 441 
Q 2288 441 2617 861 
Q 2947 1281 2994 2138 
Q 2813 1869 2534 1725 
Q 2256 1581 1919 1581 
Q 1219 1581 811 2004 
Q 403 2428 403 3163 
Q 403 3881 828 4315 
Q 1253 4750 1959 4750 
Q 2769 4750 3195 4129 
Q 3622 3509 3622 2328 
Q 3622 1225 3098 567 
Q 2575 -91 1691 -91 
Q 1453 -91 1209 -44 
Q 966 3 703 97 
z
M 1959 2075 
Q 2384 2075 2632 2365 
Q 2881 2656 2881 3163 
Q 2881 3666 2632 3958 
Q 2384 4250 1959 4250 
Q 1534 4250 1286 3958 
Q 1038 3666 1038 3163 
Q 1038 2656 1286 2365 
Q 1534 2075 1959 2075 
z
" transform="scale(0.015625)"/>
      </defs>
      <use xlink:href="#DejaVuSans-4d"/>
      <use xlink:href="#DejaVuSans-4c" transform="translate(86.279297 0)"/>
      <use xlink:href="#DejaVuSans-20" transform="translate(141.992188 0)"/>
      <use xlink:href="#DejaVuSans-50" transform="translate(173.779297 0)"/>
      <use xlink:href="#DejaVuSans-72" transform="translate(232.332031 0)"/>
      <use xlink:href="#DejaVuSans-65" transform="translate(271.195312 0)"/>
      <use xlink:href="#DejaVuSans-64" transform="translate(332.71875 0)"/>
      <use xlink:href="#DejaVuSans-69" transform="translate(396.195312 0)"/>
      <use xlink:href="#DejaVuSans-63" transform="translate(423.978516 0)"/>
      <use xlink:href="#DejaVuSans-74" transform="translate(478.958984 0)"/>
      <use xlink:href="#DejaVuSans-6f" transform="translate(518.167969 0)"/>
      <use xlink:href="#DejaVuSans-72" transform="translate(579.349609 0)"/>
      <use xlink:href="#DejaVuSans-20" transform="translate(620.462891 0)"/>
      <use xlink:href="#DejaVuSans-28" transform="translate(652.25 0)"/>
      <use xlink:href="#DejaVuSans-4d" transform="translate(691.263672 0)"/>
      <use xlink:href="#DejaVuSans-3d" transform="translate(777.542969 0)"/>
      <use xlink:href="#DejaVuSans-39" transform="translate(861.332031 0)"/>
      <use xlink:href="#DejaVuSans-29" transform="translate(924.955078 0)"/>
     </g>
    </g>
    <g id="PathCollection_2">
     <g>
      <use xlink:href="#m9fb772d495" x="276.803281" y="83.305234" style="stroke: var(--black)"/>
     </g>
    </g>
    <g id="text_20" class="text">
     <!-- Data points -->
     <g transform="translate(294.803281 85.930234) scale(0.1 -0.1)">
      <defs>
       <path id="DejaVuSans-44" d="M 1259 4147 
L 1259 519 
L 2022 519 
Q 2988 519 3436 956 
Q 3884 1394 3884 2338 
Q 3884 3275 3436 3711 
Q 2988 4147 2022 4147 
L 1259 4147 
z
M 628 4666 
L 1925 4666 
Q 3281 4666 3915 4102 
Q 4550 3538 4550 2338 
Q 4550 1131 3912 565 
Q 3275 0 1925 0 
L 628 0 
L 628 4666 
z
" transform="scale(0.015625)"/>
       <path id="DejaVuSans-61" d="M 2194 1759 
Q 1497 1759 1228 1600 
Q 959 1441 959 1056 
Q 959 750 1161 570 
Q 1363 391 1709 391 
Q 2188 391 2477 730 
Q 2766 1069 2766 1631 
L 2766 1759 
L 2194 1759 
z
M 3341 1997 
L 3341 0 
L 2766 0 
L 2766 531 
Q 2569 213 2275 61 
Q 1981 -91 1556 -91 
Q 1019 -91 701 211 
Q 384 513 384 1019 
Q 384 1609 779 1909 
Q 1175 2209 1959 2209 
L 2766 2209 
L 2766 2266 
Q 2766 2663 2505 2880 
Q 2244 3097 1772 3097 
Q 1472 3097 1187 3025 
Q 903 2953 641 2809 
L 641 3341 
Q 956 3463 1253 3523 
Q 1550 3584 1831 3584 
Q 2591 3584 2966 3190 
Q 3341 2797 3341 1997 
z
" transform="scale(0.015625)"/>
       <path id="DejaVuSans-70" d="M 1159 525 
L 1159 -1331 
L 581 -1331 
L 581 3500 
L 1159 3500 
L 1159 2969 
Q 1341 3281 1617 3432 
Q 1894 3584 2278 3584 
Q 2916 3584 3314 3078 
Q 3713 2572 3713 1747 
Q 3713 922 3314 415 
Q 2916 -91 2278 -91 
Q 1894 -91 1617 61 
Q 1341 213 1159 525 
z
M 3116 1747 
Q 3116 2381 2855 2742 
Q 2594 3103 2138 3103 
Q 1681 3103 1420 2742 
Q 1159 2381 1159 1747 
Q 1159 1113 1420 752 
Q 1681 391 2138 391 
Q 2594 391 2855 752 
Q 3116 1113 3116 1747 
z
" transform="scale(0.015625)"/>
       <path id="DejaVuSans-73" d="M 2834 3397 
L 2834 2853 
Q 2591 2978 2328 3040 
Q 2066 3103 1784 3103 
Q 1356 3103 1142 2972 
Q 928 2841 928 2578 
Q 928 2378 1081 2264 
Q 1234 2150 1697 2047 
L 1894 2003 
Q 2506 1872 2764 1633 
Q 3022 1394 3022 966 
Q 3022 478 2636 193 
Q 2250 -91 1575 -91 
Q 1294 -91 989 -36 
Q 684 19 347 128 
L 347 722 
Q 666 556 975 473 
Q 1284 391 1588 391 
Q 1994 391 2212 530 
Q 2431 669 2431 922 
Q 2431 1156 2273 1281 
Q 2116 1406 1581 1522 
L 1381 1569 
Q 847 1681 609 1914 
Q 372 2147 372 2553 
Q 372 3047 722 3315 
Q 1072 3584 1716 3584 
Q 2034 3584 2315 3537 
Q 2597 3491 2834 3397 
z
" transform="scale(0.015625)"/>
      </defs>
      <use xlink:href="#DejaVuSans-44"/>
      <use xlink:href="#DejaVuSans-61" transform="translate(77.001953 0)"/>
      <use xlink:href="#DejaVuSans-74" transform="translate(138.28125 0)"/>
      <use xlink:href="#DejaVuSans-61" transform="translate(177.490234 0)"/>
      <use xlink:href="#DejaVuSans-20" transform="translate(238.769531 0)"/>
      <use xlink:href="#DejaVuSans-70" transform="translate(270.556641 0)"/>
      <use xlink:href="#DejaVuSans-6f" transform="translate(334.033203 0)"/>
      <use xlink:href="#DejaVuSans-69" transform="translate(395.214844 0)"/>
      <use xlink:href="#DejaVuSans-6e" transform="translate(422.998047 0)"/>
      <use xlink:href="#DejaVuSans-74" transform="translate(486.376953 0)"/>
      <use xlink:href="#DejaVuSans-73" transform="translate(525.585938 0)"/>
     </g>
    </g>
   </g>
  </g>
 </g>
 <defs>
  <clipPath id="p55c81deacd">
   <rect x="43.081719" y="10.619297" width="357.12" height="266.112"/>
  </clipPath>
 </defs>
</svg>
