<?xml version="1.0" encoding="utf-8" standalone="no"?>
<!DOCTYPE svg PUBLIC "-//W3C//DTD SVG 1.1//EN"
  "http://www.w3.org/Graphics/SVG/1.1/DTD/svg11.dtd">
<svg xmlns:xlink="http://www.w3.org/1999/xlink" width="392.832812pt" height="311.836062pt" viewBox="0 0 392.832812 311.836062" xmlns="http://www.w3.org/2000/svg" version="1.1">
<style>/* === RDF autogenerated palette === */
:root {
    --axis-color: #000;
    --grid-stroke: rgba(0,0,0,0.2);
    --plot3d-stroke: rgba(0,0,0,0.3);
    --plot3d-grid: rgba(0,0,0,0.2);
}
@media (prefers-color-scheme: dark) {
    :root {
        --axis-color: #fff;
        --grid-stroke: rgba(255,255,255,0.2);
        --plot3d-stroke: rgba(255,255,255,0.3);
        --plot3d-grid: rgba(255,255,255,0.2);
    }
}

/* Light‑mode palette */
.black { fill:#000000; stroke:#000000; }:root { --black: #000000; }.c1 { fill:#FF0001; stroke:#FF0001; }:root { --c1: #FF0001; }.c2 { fill:#00FF02; stroke:#00FF02; }:root { --c2: #00FF02; }.c3 { fill:#0000FF; stroke:#0000FF; }:root { --c3: #0000FF; }.c4 { fill:#FF00FF; stroke:#FF00FF; }:root { --c4: #FF00FF; }.c5 { fill:#00FFFF; stroke:#00FFFF; }:root { --c5: #00FFFF; }.c6 { fill:#FFFF00; stroke:#FFFF00; }:root { --c6: #FFFF00; }.c7 { fill:#FF8000; stroke:#FF8000; }:root { --c7: #FF8000; }.c8 { fill:#8000FF; stroke:#8000FF; }:root { --c8: #8000FF; }.gray { fill:#7f7f7f; stroke:#7f7f7f; }:root { --gray: #7f7f7f; }.grey { fill:#7f7f7f; stroke:#7f7f7f; }:root { --grey: #7f7f7f; }.octonary { fill:#bcbd22; stroke:#bcbd22; }:root { --octonary: #bcbd22; }.primary { fill:#d62728; stroke:#d62728; }:root { --primary: #d62728; }.quaternary { fill:#9467bd; stroke:#9467bd; }:root { --quaternary: #9467bd; }.quinary { fill:#8c564b; stroke:#8c564b; }:root { --quinary: #8c564b; }.secondary { fill:#2ca02c; stroke:#2ca02c; }:root { --secondary: #2ca02c; }.senary { fill:#e377c2; stroke:#e377c2; }:root { --senary: #e377c2; }.septenary { fill:#7f7f7f; stroke:#7f7f7f; }:root { --septenary: #7f7f7f; }.tertiary { fill:#1f77b4; stroke:#1f77b4; }:root { --tertiary: #1f77b4; }.white { fill:#ffffff; stroke:#ffffff; }:root { --white: #ffffff; }

/* Dark overrides */
@media (prefers-color-scheme: dark) {
    .black { fill:#FFFFFF; stroke:#FFFFFF; }:root { --black: #FFFFFF; }.c1 { fill:#FF0001; stroke:#FF0001; }:root { --c1: #FF0001; }.c2 { fill:#00FF02; stroke:#00FF02; }:root { --c2: #00FF02; }.c3 { fill:#0000FF; stroke:#0000FF; }:root { --c3: #0000FF; }.c4 { fill:#FF00FF; stroke:#FF00FF; }:root { --c4: #FF00FF; }.c5 { fill:#00FFFF; stroke:#00FFFF; }:root { --c5: #00FFFF; }.c6 { fill:#FFFF00; stroke:#FFFF00; }:root { --c6: #FFFF00; }.c7 { fill:#FF8000; stroke:#FF8000; }:root { --c7: #FF8000; }.c8 { fill:#8000FF; stroke:#8000FF; }:root { --c8: #8000FF; }.gray { fill:#CCCCCC; stroke:#CCCCCC; }:root { --gray: #CCCCCC; }.grey { fill:#CCCCCC; stroke:#CCCCCC; }:root { --grey: #CCCCCC; }.octonary { fill:#E6DB74; stroke:#E6DB74; }:root { --octonary: #E6DB74; }.primary { fill:#FF4A98; stroke:#FF4A98; }:root { --primary: #FF4A98; }.quaternary { fill:#B4A0FF; stroke:#B4A0FF; }:root { --quaternary: #B4A0FF; }.quinary { fill:#FFB86B; stroke:#FFB86B; }:root { --quinary: #FFB86B; }.secondary { fill:#0AFAFA; stroke:#0AFAFA; }:root { --secondary: #0AFAFA; }.senary { fill:#FF79C6; stroke:#FF79C6; }:root { --senary: #FF79C6; }.septenary { fill:#CCCCCC; stroke:#CCCCCC; }:root { --septenary: #CCCCCC; }.tertiary { fill:#7F83FF; stroke:#7F83FF; }:root { --tertiary: #7F83FF; }.white { fill:#000000; stroke:#000000; }:root { --white: #000000; }
}/* Axis, ticks, legend */
text, .text { fill: var(--axis-color) !important; stroke: none !important; }
.axis line, .axis path,
.tick line, .tick path,
path.domain,
line.grid { stroke: var(--axis-color) !important; }
.legend text { fill: var(--axis-color) !important; }

/* Patch paths that relied on currentColor */
.patch path[style*="stroke: currentColor"] { stroke: var(--axis-color) !important; }

/* Legend background (first child of legend group) */
g.legend > g:first-child > path:first-child {
    fill: rgba(255,255,255,0.8) !important;
    stroke: rgba(0,0,0,0.1) !important;
}
@media (prefers-color-scheme: dark) {
    g.legend > g:first-child > path:first-child {
        fill: rgba(26,26,26,0.8) !important;
        stroke: rgba(255,255,255,0.1) !important;
    }
}

/* 3‑D specific rules */
.plot3d path, .plot3d polygon {
    stroke: var(--plot3d-stroke) !important;
}
.plot3d-grid line { stroke: var(--plot3d-grid) !important; }
.plot3d-surface path[style*="fill:"] {
    fill-opacity: 0.9 !important;
}
@media (prefers-color-scheme: dark) {
    .plot3d-surface path[style*="fill:"] {
        fill-opacity: 0.95 !important;
        filter: saturate(1.2) !important;
    }
}</style>

 <metadata>
  <rdf:RDF xmlns:dc="http://purl.org/dc/elements/1.1/" xmlns:cc="http://creativecommons.org/ns#" xmlns:rdf="http://www.w3.org/1999/02/22-rdf-syntax-ns#">
   <cc:Work>
    <dc:type rdf:resource="http://purl.org/dc/dcmitype/StillImage"/>
    <dc:date>2025-11-25T21:31:35.887137</dc:date>
    <dc:format>image/svg+xml</dc:format>
    <dc:creator>
     <cc:Agent>
      <dc:title>Matplotlib v3.10.1, https://matplotlib.org/</dc:title>
     </cc:Agent>
    </dc:creator>
   </cc:Work>
  </rdf:RDF>
 </metadata>
 <defs>
  <style type="text/css">*{stroke-linejoin: round; stroke-linecap: butt}</style>
 </defs>
 <g id="figure_1">
  <g class="patch">
   <path d="M 0 311.836062 
L 392.832812 311.836062 
L 392.832812 0 
L 0 0 
L 0 311.836062 
z
" style="fill: none"/>
  </g>
  <g id="axes_1">
   <g class="patch">
    <path d="M 28.512812 273.312 
L 385.632812 273.312 
L 385.632812 7.2 
L 28.512812 7.2 
L 28.512812 273.312 
z
" style="fill: none"/>
   </g>
   <g class="axis">
    <g class="tick xtick">
     <g id="line2d_1">
      <path d="M 64.224812 273.312 
L 64.224812 7.2 
" clip-path="url(#p5a4b798e0e)" style="fill: none; stroke: #b0b0b0; stroke-opacity: 0.15; stroke-width: 0.8; stroke-linecap: square"/>
     </g>
     <g id="line2d_2">
      <defs>
       <path id="mb6a4a7e7c6" d="M 0 0 
L 0 3.5 
" style="stroke: var(--black); stroke-width: 0.8"/>
      </defs>
      <g>
       <use xlink:href="#mb6a4a7e7c6" x="64.224812" y="273.312" style="stroke: var(--black); stroke-width: 0.8"/>
      </g>
     </g>
     <g id="text_1" class="text">
      <!-- −4 -->
      <g transform="translate(57.590828 287.150594) scale(0.09 -0.09)">
       <defs>
        <path id="DejaVuSans-2212" d="M 678 2272 
L 4684 2272 
L 4684 1741 
L 678 1741 
L 678 2272 
z
" transform="scale(0.015625)"/>
        <path id="DejaVuSans-34" d="M 2419 4116 
L 825 1625 
L 2419 1625 
L 2419 4116 
z
M 2253 4666 
L 3047 4666 
L 3047 1625 
L 3713 1625 
L 3713 1100 
L 3047 1100 
L 3047 0 
L 2419 0 
L 2419 1100 
L 313 1100 
L 313 1709 
L 2253 4666 
z
" transform="scale(0.015625)"/>
       </defs>
       <use xlink:href="#DejaVuSans-2212"/>
       <use xlink:href="#DejaVuSans-34" transform="translate(83.789062 0)"/>
      </g>
     </g>
    </g>
    <g class="tick xtick">
     <g id="line2d_3">
      <path d="M 135.648812 273.312 
L 135.648812 7.2 
" clip-path="url(#p5a4b798e0e)" style="fill: none; stroke: #b0b0b0; stroke-opacity: 0.15; stroke-width: 0.8; stroke-linecap: square"/>
     </g>
     <g id="line2d_4">
      <g>
       <use xlink:href="#mb6a4a7e7c6" x="135.648812" y="273.312" style="stroke: var(--black); stroke-width: 0.8"/>
      </g>
     </g>
     <g id="text_2" class="text">
      <!-- −2 -->
      <g transform="translate(129.014828 287.150594) scale(0.09 -0.09)">
       <defs>
        <path id="DejaVuSans-32" d="M 1228 531 
L 3431 531 
L 3431 0 
L 469 0 
L 469 531 
Q 828 903 1448 1529 
Q 2069 2156 2228 2338 
Q 2531 2678 2651 2914 
Q 2772 3150 2772 3378 
Q 2772 3750 2511 3984 
Q 2250 4219 1831 4219 
Q 1534 4219 1204 4116 
Q 875 4013 500 3803 
L 500 4441 
Q 881 4594 1212 4672 
Q 1544 4750 1819 4750 
Q 2544 4750 2975 4387 
Q 3406 4025 3406 3419 
Q 3406 3131 3298 2873 
Q 3191 2616 2906 2266 
Q 2828 2175 2409 1742 
Q 1991 1309 1228 531 
z
" transform="scale(0.015625)"/>
       </defs>
       <use xlink:href="#DejaVuSans-2212"/>
       <use xlink:href="#DejaVuSans-32" transform="translate(83.789062 0)"/>
      </g>
     </g>
    </g>
    <g class="tick xtick">
     <g id="line2d_5">
      <path d="M 207.072812 273.312 
L 207.072812 7.2 
" clip-path="url(#p5a4b798e0e)" style="fill: none; stroke: #b0b0b0; stroke-opacity: 0.15; stroke-width: 0.8; stroke-linecap: square"/>
     </g>
     <g id="line2d_6">
      <g>
       <use xlink:href="#mb6a4a7e7c6" x="207.072812" y="273.312" style="stroke: var(--black); stroke-width: 0.8"/>
      </g>
     </g>
     <g id="text_3" class="text">
      <!-- 0 -->
      <g transform="translate(204.209688 287.150594) scale(0.09 -0.09)">
       <defs>
        <path id="DejaVuSans-30" d="M 2034 4250 
Q 1547 4250 1301 3770 
Q 1056 3291 1056 2328 
Q 1056 1369 1301 889 
Q 1547 409 2034 409 
Q 2525 409 2770 889 
Q 3016 1369 3016 2328 
Q 3016 3291 2770 3770 
Q 2525 4250 2034 4250 
z
M 2034 4750 
Q 2819 4750 3233 4129 
Q 3647 3509 3647 2328 
Q 3647 1150 3233 529 
Q 2819 -91 2034 -91 
Q 1250 -91 836 529 
Q 422 1150 422 2328 
Q 422 3509 836 4129 
Q 1250 4750 2034 4750 
z
" transform="scale(0.015625)"/>
       </defs>
       <use xlink:href="#DejaVuSans-30"/>
      </g>
     </g>
    </g>
    <g class="tick xtick">
     <g id="line2d_7">
      <path d="M 278.496813 273.312 
L 278.496813 7.2 
" clip-path="url(#p5a4b798e0e)" style="fill: none; stroke: #b0b0b0; stroke-opacity: 0.15; stroke-width: 0.8; stroke-linecap: square"/>
     </g>
     <g id="line2d_8">
      <g>
       <use xlink:href="#mb6a4a7e7c6" x="278.496813" y="273.312" style="stroke: var(--black); stroke-width: 0.8"/>
      </g>
     </g>
     <g id="text_4" class="text">
      <!-- 2 -->
      <g transform="translate(275.633688 287.150594) scale(0.09 -0.09)">
       <use xlink:href="#DejaVuSans-32"/>
      </g>
     </g>
    </g>
    <g class="tick xtick">
     <g id="line2d_9">
      <path d="M 349.920813 273.312 
L 349.920813 7.2 
" clip-path="url(#p5a4b798e0e)" style="fill: none; stroke: #b0b0b0; stroke-opacity: 0.15; stroke-width: 0.8; stroke-linecap: square"/>
     </g>
     <g id="line2d_10">
      <g>
       <use xlink:href="#mb6a4a7e7c6" x="349.920813" y="273.312" style="stroke: var(--black); stroke-width: 0.8"/>
      </g>
     </g>
     <g id="text_5" class="text">
      <!-- 4 -->
      <g transform="translate(347.057687 287.150594) scale(0.09 -0.09)">
       <use xlink:href="#DejaVuSans-34"/>
      </g>
     </g>
    </g>
    <g id="text_6" class="text">
     <!-- z -->
     <g transform="translate(203.92375 302.140437) scale(0.12 -0.12)">
      <defs>
       <path id="DejaVuSans-7a" d="M 353 3500 
L 3084 3500 
L 3084 2975 
L 922 459 
L 3084 459 
L 3084 0 
L 275 0 
L 275 525 
L 2438 3041 
L 353 3041 
L 353 3500 
z
" transform="scale(0.015625)"/>
      </defs>
      <use xlink:href="#DejaVuSans-7a"/>
     </g>
    </g>
   </g>
   <g class="axis">
    <g class="tick ytick">
     <g id="line2d_11">
      <path d="M 28.512812 255.129842 
L 385.632812 255.129842 
" clip-path="url(#p5a4b798e0e)" style="fill: none; stroke: #b0b0b0; stroke-opacity: 0.15; stroke-width: 0.8; stroke-linecap: square"/>
     </g>
     <g id="line2d_12">
      <defs>
       <path id="mdfd404e23c" d="M 0 0 
L -3.5 0 
" style="stroke: var(--black); stroke-width: 0.8"/>
      </defs>
      <g>
       <use xlink:href="#mdfd404e23c" x="28.512812" y="255.129842" style="stroke: var(--black); stroke-width: 0.8"/>
      </g>
     </g>
     <g id="text_7" class="text">
      <!-- 0.0 -->
      <g transform="translate(7.2 258.549139) scale(0.09 -0.09)">
       <defs>
        <path id="DejaVuSans-2e" d="M 684 794 
L 1344 794 
L 1344 0 
L 684 0 
L 684 794 
z
" transform="scale(0.015625)"/>
       </defs>
       <use xlink:href="#DejaVuSans-30"/>
       <use xlink:href="#DejaVuSans-2e" transform="translate(63.623047 0)"/>
       <use xlink:href="#DejaVuSans-30" transform="translate(95.410156 0)"/>
      </g>
     </g>
    </g>
    <g class="tick ytick">
     <g id="line2d_13">
      <path d="M 28.512812 218.765525 
L 385.632812 218.765525 
" clip-path="url(#p5a4b798e0e)" style="fill: none; stroke: #b0b0b0; stroke-opacity: 0.15; stroke-width: 0.8; stroke-linecap: square"/>
     </g>
     <g id="line2d_14">
      <g>
       <use xlink:href="#mdfd404e23c" x="28.512812" y="218.765525" style="stroke: var(--black); stroke-width: 0.8"/>
      </g>
     </g>
     <g id="text_8" class="text">
      <!-- 0.1 -->
      <g transform="translate(7.2 222.184822) scale(0.09 -0.09)">
       <defs>
        <path id="DejaVuSans-31" d="M 794 531 
L 1825 531 
L 1825 4091 
L 703 3866 
L 703 4441 
L 1819 4666 
L 2450 4666 
L 2450 531 
L 3481 531 
L 3481 0 
L 794 0 
L 794 531 
z
" transform="scale(0.015625)"/>
       </defs>
       <use xlink:href="#DejaVuSans-30"/>
       <use xlink:href="#DejaVuSans-2e" transform="translate(63.623047 0)"/>
       <use xlink:href="#DejaVuSans-31" transform="translate(95.410156 0)"/>
      </g>
     </g>
    </g>
    <g class="tick ytick">
     <g id="line2d_15">
      <path d="M 28.512812 182.401208 
L 385.632812 182.401208 
" clip-path="url(#p5a4b798e0e)" style="fill: none; stroke: #b0b0b0; stroke-opacity: 0.15; stroke-width: 0.8; stroke-linecap: square"/>
     </g>
     <g id="line2d_16">
      <g>
       <use xlink:href="#mdfd404e23c" x="28.512812" y="182.401208" style="stroke: var(--black); stroke-width: 0.8"/>
      </g>
     </g>
     <g id="text_9" class="text">
      <!-- 0.2 -->
      <g transform="translate(7.2 185.820505) scale(0.09 -0.09)">
       <use xlink:href="#DejaVuSans-30"/>
       <use xlink:href="#DejaVuSans-2e" transform="translate(63.623047 0)"/>
       <use xlink:href="#DejaVuSans-32" transform="translate(95.410156 0)"/>
      </g>
     </g>
    </g>
    <g class="tick ytick">
     <g id="line2d_17">
      <path d="M 28.512812 146.036892 
L 385.632812 146.036892 
" clip-path="url(#p5a4b798e0e)" style="fill: none; stroke: #b0b0b0; stroke-opacity: 0.15; stroke-width: 0.8; stroke-linecap: square"/>
     </g>
     <g id="line2d_18">
      <g>
       <use xlink:href="#mdfd404e23c" x="28.512812" y="146.036892" style="stroke: var(--black); stroke-width: 0.8"/>
      </g>
     </g>
     <g id="text_10" class="text">
      <!-- 0.3 -->
      <g transform="translate(7.2 149.456189) scale(0.09 -0.09)">
       <defs>
        <path id="DejaVuSans-33" d="M 2597 2516 
Q 3050 2419 3304 2112 
Q 3559 1806 3559 1356 
Q 3559 666 3084 287 
Q 2609 -91 1734 -91 
Q 1441 -91 1130 -33 
Q 819 25 488 141 
L 488 750 
Q 750 597 1062 519 
Q 1375 441 1716 441 
Q 2309 441 2620 675 
Q 2931 909 2931 1356 
Q 2931 1769 2642 2001 
Q 2353 2234 1838 2234 
L 1294 2234 
L 1294 2753 
L 1863 2753 
Q 2328 2753 2575 2939 
Q 2822 3125 2822 3475 
Q 2822 3834 2567 4026 
Q 2313 4219 1838 4219 
Q 1578 4219 1281 4162 
Q 984 4106 628 3988 
L 628 4550 
Q 988 4650 1302 4700 
Q 1616 4750 1894 4750 
Q 2613 4750 3031 4423 
Q 3450 4097 3450 3541 
Q 3450 3153 3228 2886 
Q 3006 2619 2597 2516 
z
" transform="scale(0.015625)"/>
       </defs>
       <use xlink:href="#DejaVuSans-30"/>
       <use xlink:href="#DejaVuSans-2e" transform="translate(63.623047 0)"/>
       <use xlink:href="#DejaVuSans-33" transform="translate(95.410156 0)"/>
      </g>
     </g>
    </g>
    <g class="tick ytick">
     <g id="line2d_19">
      <path d="M 28.512812 109.672575 
L 385.632812 109.672575 
" clip-path="url(#p5a4b798e0e)" style="fill: none; stroke: #b0b0b0; stroke-opacity: 0.15; stroke-width: 0.8; stroke-linecap: square"/>
     </g>
     <g id="line2d_20">
      <g>
       <use xlink:href="#mdfd404e23c" x="28.512812" y="109.672575" style="stroke: var(--black); stroke-width: 0.8"/>
      </g>
     </g>
     <g id="text_11" class="text">
      <!-- 0.4 -->
      <g transform="translate(7.2 113.091872) scale(0.09 -0.09)">
       <use xlink:href="#DejaVuSans-30"/>
       <use xlink:href="#DejaVuSans-2e" transform="translate(63.623047 0)"/>
       <use xlink:href="#DejaVuSans-34" transform="translate(95.410156 0)"/>
      </g>
     </g>
    </g>
    <g class="tick ytick">
     <g id="line2d_21">
      <path d="M 28.512812 73.308258 
L 385.632812 73.308258 
" clip-path="url(#p5a4b798e0e)" style="fill: none; stroke: #b0b0b0; stroke-opacity: 0.15; stroke-width: 0.8; stroke-linecap: square"/>
     </g>
     <g id="line2d_22">
      <g>
       <use xlink:href="#mdfd404e23c" x="28.512812" y="73.308258" style="stroke: var(--black); stroke-width: 0.8"/>
      </g>
     </g>
     <g id="text_12" class="text">
      <!-- 0.5 -->
      <g transform="translate(7.2 76.727555) scale(0.09 -0.09)">
       <defs>
        <path id="DejaVuSans-35" d="M 691 4666 
L 3169 4666 
L 3169 4134 
L 1269 4134 
L 1269 2991 
Q 1406 3038 1543 3061 
Q 1681 3084 1819 3084 
Q 2600 3084 3056 2656 
Q 3513 2228 3513 1497 
Q 3513 744 3044 326 
Q 2575 -91 1722 -91 
Q 1428 -91 1123 -41 
Q 819 9 494 109 
L 494 744 
Q 775 591 1075 516 
Q 1375 441 1709 441 
Q 2250 441 2565 725 
Q 2881 1009 2881 1497 
Q 2881 1984 2565 2268 
Q 2250 2553 1709 2553 
Q 1456 2553 1204 2497 
Q 953 2441 691 2322 
L 691 4666 
z
" transform="scale(0.015625)"/>
       </defs>
       <use xlink:href="#DejaVuSans-30"/>
       <use xlink:href="#DejaVuSans-2e" transform="translate(63.623047 0)"/>
       <use xlink:href="#DejaVuSans-35" transform="translate(95.410156 0)"/>
      </g>
     </g>
    </g>
    <g class="tick ytick">
     <g id="line2d_23">
      <path d="M 28.512812 36.943942 
L 385.632812 36.943942 
" clip-path="url(#p5a4b798e0e)" style="fill: none; stroke: #b0b0b0; stroke-opacity: 0.15; stroke-width: 0.8; stroke-linecap: square"/>
     </g>
     <g id="line2d_24">
      <g>
       <use xlink:href="#mdfd404e23c" x="28.512812" y="36.943942" style="stroke: var(--black); stroke-width: 0.8"/>
      </g>
     </g>
     <g id="text_13" class="text">
      <!-- 0.6 -->
      <g transform="translate(7.2 40.363239) scale(0.09 -0.09)">
       <defs>
        <path id="DejaVuSans-36" d="M 2113 2584 
Q 1688 2584 1439 2293 
Q 1191 2003 1191 1497 
Q 1191 994 1439 701 
Q 1688 409 2113 409 
Q 2538 409 2786 701 
Q 3034 994 3034 1497 
Q 3034 2003 2786 2293 
Q 2538 2584 2113 2584 
z
M 3366 4563 
L 3366 3988 
Q 3128 4100 2886 4159 
Q 2644 4219 2406 4219 
Q 1781 4219 1451 3797 
Q 1122 3375 1075 2522 
Q 1259 2794 1537 2939 
Q 1816 3084 2150 3084 
Q 2853 3084 3261 2657 
Q 3669 2231 3669 1497 
Q 3669 778 3244 343 
Q 2819 -91 2113 -91 
Q 1303 -91 875 529 
Q 447 1150 447 2328 
Q 447 3434 972 4092 
Q 1497 4750 2381 4750 
Q 2619 4750 2861 4703 
Q 3103 4656 3366 4563 
z
" transform="scale(0.015625)"/>
       </defs>
       <use xlink:href="#DejaVuSans-30"/>
       <use xlink:href="#DejaVuSans-2e" transform="translate(63.623047 0)"/>
       <use xlink:href="#DejaVuSans-36" transform="translate(95.410156 0)"/>
      </g>
     </g>
    </g>
   </g>
   <g id="line2d_25">
    <path d="M 28.512812 255.129795 
L 65.610384 255.023582 
L 72.761724 254.783336 
L 77.231311 254.44049 
L 80.80698 253.967912 
L 83.935691 253.332429 
L 86.617443 252.556982 
L 88.852237 251.697851 
L 91.08703 250.596438 
L 93.321824 249.199894 
L 95.109659 247.83038 
L 96.897493 246.200702 
L 98.685328 244.275404 
L 100.473163 242.017388 
L 102.260998 239.388583 
L 104.048833 236.35078 
L 105.836667 232.866661 
L 107.624502 228.900977 
L 109.412337 224.421901 
L 111.200172 219.402486 
L 112.988006 213.822236 
L 115.2228 206.040176 
L 117.457593 197.36034 
L 119.692387 187.808036 
L 122.374139 175.276595 
L 125.50285 159.399759 
L 129.525478 137.622919 
L 136.229859 101.02357 
L 138.911611 87.55253 
L 141.146404 77.35435 
L 142.934239 70.058214 
L 144.722074 63.664104 
L 146.06295 59.528291 
L 147.403826 56.004491 
L 148.744702 53.128369 
L 150.085578 50.929216 
L 150.979496 49.85057 
L 151.873413 49.087763 
L 152.767331 48.644165 
L 153.661248 48.52164 
L 154.555165 48.720528 
L 155.449083 49.239635 
L 156.343 50.076248 
L 157.236918 51.226148 
L 158.130835 52.683646 
L 159.471711 55.430678 
L 160.812587 58.823665 
L 162.153463 62.826344 
L 163.941298 69.03805 
L 165.729133 76.144207 
L 167.963926 86.090161 
L 170.645679 99.228148 
L 174.221348 117.988119 
L 180.925729 153.372166 
L 184.05444 168.529295 
L 186.736192 180.306806 
L 188.970985 189.101575 
L 191.205779 196.879867 
L 192.993614 202.33632 
L 194.781448 207.098201 
L 196.569283 211.164441 
L 197.910159 213.762233 
L 199.251035 215.979597 
L 200.591911 217.825089 
L 201.932787 219.309077 
L 203.273664 220.443428 
L 204.61454 221.241226 
L 205.955416 221.716505 
L 207.296292 221.884023 
L 208.637168 221.759051 
L 209.978044 221.357208 
L 211.31892 220.694313 
L 212.659796 219.786278 
L 214.000672 218.649014 
L 215.788507 216.803475 
L 217.576342 214.615892 
L 219.811135 211.456614 
L 222.045929 207.891811 
L 224.727681 203.178016 
L 227.856392 197.230292 
L 233.219896 186.441995 
L 239.030359 174.878069 
L 242.15907 169.114664 
L 244.840823 164.609756 
L 247.075616 161.242318 
L 249.310409 158.285054 
L 251.098244 156.247546 
L 252.886079 154.525618 
L 254.673914 153.13781 
L 256.01479 152.325418 
L 257.355666 151.714511 
L 258.696542 151.308871 
L 260.037418 151.11103 
L 261.378294 151.122251 
L 262.71917 151.342525 
L 264.060047 151.770567 
L 265.400923 152.403833 
L 266.741799 153.238554 
L 268.529634 154.656145 
L 270.317468 156.408038 
L 272.105303 158.476013 
L 274.340097 161.472871 
L 276.57489 164.883063 
L 279.256642 169.446838 
L 282.385353 175.297342 
L 285.961023 182.47811 
L 293.559321 198.426285 
L 298.475866 208.464178 
L 302.051536 215.31226 
L 305.180247 220.879453 
L 308.308958 225.989534 
L 310.99071 229.978736 
L 313.672462 233.596005 
L 316.354214 236.84096 
L 319.035966 239.721558 
L 321.717719 242.252601 
L 324.399471 244.454231 
L 327.081223 246.350458 
L 329.762975 247.967802 
L 332.444727 249.334076 
L 335.12648 250.477343 
L 338.25519 251.565857 
L 341.383901 252.429471 
L 344.959571 253.189564 
L 348.982199 253.814844 
L 353.898745 254.3323 
L 359.709208 254.703325 
L 367.307506 254.952136 
L 379.375391 255.09111 
L 385.632812 255.113356 
L 385.632812 255.113356 
" clip-path="url(#p5a4b798e0e)" style="fill: none; stroke: #8000ff; stroke-width: 2; stroke-linecap: square"/>
   </g>
   <g id="line2d_26">
    <path d="M 28.512812 248.589279 
L 36.558069 247.325325 
L 44.156367 245.913843 
L 51.307706 244.360025 
L 58.012087 242.674528 
L 64.269508 240.873786 
L 70.079971 238.980013 
L 75.890435 236.847834 
L 81.253939 234.645317 
L 86.617443 232.195074 
L 91.533989 229.711393 
L 96.450535 226.980969 
L 101.36708 223.984253 
L 105.836667 221.012063 
L 110.306254 217.788095 
L 114.775841 214.297227 
L 119.245428 210.524628 
L 123.715015 206.456028 
L 128.184602 202.078028 
L 132.654189 197.378447 
L 137.123776 192.346709 
L 141.593363 186.974248 
L 146.06295 181.254941 
L 150.532537 175.185543 
L 155.002124 168.766117 
L 159.91867 161.305083 
L 164.835216 153.435883 
L 170.19872 144.40609 
L 175.562224 134.942383 
L 181.372687 124.248086 
L 188.077068 111.420327 
L 196.122324 95.498117 
L 208.190209 71.032763 
L 221.59897 43.983582 
L 229.197268 29.151304 
L 235.901649 16.556282 
L 241.712112 6.103038 
L 245.823591 -1 
L 245.823591 -1 
" clip-path="url(#p5a4b798e0e)" style="fill: none; stroke: #ff8000; stroke-width: 2; stroke-linecap: square"/>
   </g>
   <g id="line2d_27">
    <path d="M 28.512812 254.931812 
L 42.368532 254.626763 
L 52.201624 254.198396 
L 60.24688 253.630868 
L 66.951261 252.944232 
L 72.761724 252.142235 
L 78.125228 251.189538 
L 83.041774 250.101602 
L 87.511361 248.905337 
L 91.980948 247.484583 
L 96.450535 245.812798 
L 100.473163 244.072079 
L 104.495791 242.089131 
L 108.51842 239.847845 
L 112.541048 237.334605 
L 116.563676 234.539085 
L 120.586304 231.455076 
L 124.608933 228.081297 
L 128.631561 224.422164 
L 133.101148 220.035165 
L 137.570735 215.334329 
L 142.487281 209.844506 
L 148.297744 203.012874 
L 156.789959 192.637882 
L 166.62305 180.694714 
L 171.986555 174.542213 
L 176.456142 169.767004 
L 180.031811 166.246538 
L 183.607481 163.043626 
L 186.736192 160.536295 
L 189.864903 158.332887 
L 192.546655 156.704546 
L 195.228407 155.330598 
L 197.910159 154.222386 
L 200.591911 153.389135 
L 202.826705 152.909905 
L 205.061498 152.629313 
L 207.296292 152.549003 
L 209.531085 152.669445 
L 211.765879 152.989933 
L 214.000672 153.50859 
L 216.235466 154.222386 
L 218.917218 155.330598 
L 221.59897 156.704546 
L 224.280722 158.332887 
L 226.962475 160.202318 
L 230.091185 162.667824 
L 233.219896 165.414259 
L 236.795566 168.85965 
L 240.818194 173.070946 
L 245.287781 178.084887 
L 251.098244 184.974107 
L 272.999221 211.371651 
L 277.915766 216.775601 
L 282.385353 221.385566 
L 286.85494 225.673052 
L 290.877568 229.23794 
L 294.900197 232.515323 
L 298.922825 235.502766 
L 302.945453 238.203283 
L 306.968082 240.624545 
L 310.99071 242.778066 
L 315.013338 244.67838 
L 319.035966 246.342257 
L 323.505553 247.935963 
L 327.97514 249.28658 
L 332.891686 250.523161 
L 337.808232 251.532306 
L 343.171736 252.412363 
L 349.429158 253.198629 
L 356.133538 253.813101 
L 364.178795 254.31738 
L 374.011886 254.694792 
L 385.632812 254.931812 
L 385.632812 254.931812 
" clip-path="url(#p5a4b798e0e)" style="fill: none; stroke: #00ff02; stroke-width: 2; stroke-linecap: square"/>
   </g>
   <g class="patch">
    <path d="M 28.512812 273.312 
L 28.512812 7.2 
" style="fill: none; stroke: var(--black); stroke-width: 0.8; stroke-linejoin: miter; stroke-linecap: square"/>
   </g>
   <g class="patch">
    <path d="M 28.512812 273.312 
L 385.632812 273.312 
" style="fill: none; stroke: var(--black); stroke-width: 0.8; stroke-linejoin: miter; stroke-linecap: square"/>
   </g>
   <g class="legend">
    <g class="patch">
     <path d="M 327.232813 59.234375 
L 378.632812 59.234375 
Q 380.632812 59.234375 380.632812 57.234375 
L 380.632812 14.2 
Q 380.632812 12.2 378.632812 12.2 
L 327.232813 12.2 
Q 325.232813 12.2 325.232813 14.2 
L 325.232813 57.234375 
Q 325.232813 59.234375 327.232813 59.234375 
z
" style="fill: var(--white); opacity: 0.8; stroke: #cccccc; stroke-linejoin: miter"/>
    </g>
    <g id="line2d_28">
     <path d="M 329.232813 20.298437 
L 339.232813 20.298437 
L 349.232813 20.298437 
" style="fill: none; stroke: #8000ff; stroke-width: 2; stroke-linecap: square"/>
    </g>
    <g id="text_14" class="text">
     <!-- p(z) -->
     <g transform="translate(357.232813 23.798437) scale(0.1 -0.1)">
      <defs>
       <path id="DejaVuSans-70" d="M 1159 525 
L 1159 -1331 
L 581 -1331 
L 581 3500 
L 1159 3500 
L 1159 2969 
Q 1341 3281 1617 3432 
Q 1894 3584 2278 3584 
Q 2916 3584 3314 3078 
Q 3713 2572 3713 1747 
Q 3713 922 3314 415 
Q 2916 -91 2278 -91 
Q 1894 -91 1617 61 
Q 1341 213 1159 525 
z
M 3116 1747 
Q 3116 2381 2855 2742 
Q 2594 3103 2138 3103 
Q 1681 3103 1420 2742 
Q 1159 2381 1159 1747 
Q 1159 1113 1420 752 
Q 1681 391 2138 391 
Q 2594 391 2855 752 
Q 3116 1113 3116 1747 
z
" transform="scale(0.015625)"/>
       <path id="DejaVuSans-28" d="M 1984 4856 
Q 1566 4138 1362 3434 
Q 1159 2731 1159 2009 
Q 1159 1288 1364 580 
Q 1569 -128 1984 -844 
L 1484 -844 
Q 1016 -109 783 600 
Q 550 1309 550 2009 
Q 550 2706 781 3412 
Q 1013 4119 1484 4856 
L 1984 4856 
z
" transform="scale(0.015625)"/>
       <path id="DejaVuSans-29" d="M 513 4856 
L 1013 4856 
Q 1481 4119 1714 3412 
Q 1947 2706 1947 2009 
Q 1947 1309 1714 600 
Q 1481 -109 1013 -844 
L 513 -844 
Q 928 -128 1133 580 
Q 1338 1288 1338 2009 
Q 1338 2731 1133 3434 
Q 928 4138 513 4856 
z
" transform="scale(0.015625)"/>
      </defs>
      <use xlink:href="#DejaVuSans-70"/>
      <use xlink:href="#DejaVuSans-28" transform="translate(63.476562 0)"/>
      <use xlink:href="#DejaVuSans-7a" transform="translate(102.490234 0)"/>
      <use xlink:href="#DejaVuSans-29" transform="translate(154.980469 0)"/>
     </g>
    </g>
    <g id="line2d_29">
     <path d="M 329.232813 34.976562 
L 339.232813 34.976562 
L 349.232813 34.976562 
" style="fill: none; stroke: #ff8000; stroke-width: 2; stroke-linecap: square"/>
    </g>
    <g id="text_15" class="text">
     <!-- f(z) -->
     <g transform="translate(357.232813 38.476562) scale(0.1 -0.1)">
      <defs>
       <path id="DejaVuSans-66" d="M 2375 4863 
L 2375 4384 
L 1825 4384 
Q 1516 4384 1395 4259 
Q 1275 4134 1275 3809 
L 1275 3500 
L 2222 3500 
L 2222 3053 
L 1275 3053 
L 1275 0 
L 697 0 
L 697 3053 
L 147 3053 
L 147 3500 
L 697 3500 
L 697 3744 
Q 697 4328 969 4595 
Q 1241 4863 1831 4863 
L 2375 4863 
z
" transform="scale(0.015625)"/>
      </defs>
      <use xlink:href="#DejaVuSans-66"/>
      <use xlink:href="#DejaVuSans-28" transform="translate(35.205078 0)"/>
      <use xlink:href="#DejaVuSans-7a" transform="translate(74.21875 0)"/>
      <use xlink:href="#DejaVuSans-29" transform="translate(126.708984 0)"/>
     </g>
    </g>
    <g id="line2d_30">
     <path d="M 329.232813 49.654687 
L 339.232813 49.654687 
L 349.232813 49.654687 
" style="fill: none; stroke: #00ff02; stroke-width: 2; stroke-linecap: square"/>
    </g>
    <g id="text_16" class="text">
     <!-- q(z) -->
     <g transform="translate(357.232813 53.154687) scale(0.1 -0.1)">
      <defs>
       <path id="DejaVuSans-71" d="M 947 1747 
Q 947 1113 1208 752 
Q 1469 391 1925 391 
Q 2381 391 2643 752 
Q 2906 1113 2906 1747 
Q 2906 2381 2643 2742 
Q 2381 3103 1925 3103 
Q 1469 3103 1208 2742 
Q 947 2381 947 1747 
z
M 2906 525 
Q 2725 213 2448 61 
Q 2172 -91 1784 -91 
Q 1150 -91 751 415 
Q 353 922 353 1747 
Q 353 2572 751 3078 
Q 1150 3584 1784 3584 
Q 2172 3584 2448 3432 
Q 2725 3281 2906 2969 
L 2906 3500 
L 3481 3500 
L 3481 -1331 
L 2906 -1331 
L 2906 525 
z
" transform="scale(0.015625)"/>
      </defs>
      <use xlink:href="#DejaVuSans-71"/>
      <use xlink:href="#DejaVuSans-28" transform="translate(63.476562 0)"/>
      <use xlink:href="#DejaVuSans-7a" transform="translate(102.490234 0)"/>
      <use xlink:href="#DejaVuSans-29" transform="translate(154.980469 0)"/>
     </g>
    </g>
   </g>
  </g>
 </g>
 <defs>
  <clipPath id="p5a4b798e0e">
   <rect x="28.512812" y="7.2" width="357.12" height="266.112"/>
  </clipPath>
 </defs>
</svg>
