<?xml version="1.0" encoding="UTF-8"?>
<svg xmlns="http://www.w3.org/2000/svg" xmlns:xlink="http://www.w3.org/1999/xlink" width="454.209" height="381.737" viewBox="0 0 454.209 381.737">
<style>/* === RDF autogenerated palette === */
:root {
    --axis-color: #000;
    --grid-stroke: rgba(0,0,0,0.2);
    --plot3d-stroke: rgba(0,0,0,0.3);
    --plot3d-grid: rgba(0,0,0,0.2);
}
@media (prefers-color-scheme: dark) {
    :root {
        --axis-color: #fff;
        --grid-stroke: rgba(255,255,255,0.2);
        --plot3d-stroke: rgba(255,255,255,0.3);
        --plot3d-grid: rgba(255,255,255,0.2);
    }
}

/* Light‑mode palette */
.black { fill:#000000; stroke:#000000; }:root { --black: #000000; }.c1 { fill:#FF0001; stroke:#FF0001; }:root { --c1: #FF0001; }.c2 { fill:#00FF02; stroke:#00FF02; }:root { --c2: #00FF02; }.c3 { fill:#0000FF; stroke:#0000FF; }:root { --c3: #0000FF; }.c4 { fill:#FF00FF; stroke:#FF00FF; }:root { --c4: #FF00FF; }.c5 { fill:#00FFFF; stroke:#00FFFF; }:root { --c5: #00FFFF; }.c6 { fill:#FFFF00; stroke:#FFFF00; }:root { --c6: #FFFF00; }.c7 { fill:#FF8000; stroke:#FF8000; }:root { --c7: #FF8000; }.c8 { fill:#8000FF; stroke:#8000FF; }:root { --c8: #8000FF; }.gray { fill:#7f7f7f; stroke:#7f7f7f; }:root { --gray: #7f7f7f; }.grey { fill:#7f7f7f; stroke:#7f7f7f; }:root { --grey: #7f7f7f; }.octonary { fill:#bcbd22; stroke:#bcbd22; }:root { --octonary: #bcbd22; }.primary { fill:#d62728; stroke:#d62728; }:root { --primary: #d62728; }.quaternary { fill:#9467bd; stroke:#9467bd; }:root { --quaternary: #9467bd; }.quinary { fill:#8c564b; stroke:#8c564b; }:root { --quinary: #8c564b; }.secondary { fill:#2ca02c; stroke:#2ca02c; }:root { --secondary: #2ca02c; }.senary { fill:#e377c2; stroke:#e377c2; }:root { --senary: #e377c2; }.septenary { fill:#7f7f7f; stroke:#7f7f7f; }:root { --septenary: #7f7f7f; }.tertiary { fill:#1f77b4; stroke:#1f77b4; }:root { --tertiary: #1f77b4; }.white { fill:#ffffff; stroke:#ffffff; }:root { --white: #ffffff; }

/* Dark overrides */
@media (prefers-color-scheme: dark) {
    .black { fill:#FFFFFF; stroke:#FFFFFF; }:root { --black: #FFFFFF; }.c1 { fill:#FF0001; stroke:#FF0001; }:root { --c1: #FF0001; }.c2 { fill:#00FF02; stroke:#00FF02; }:root { --c2: #00FF02; }.c3 { fill:#0000FF; stroke:#0000FF; }:root { --c3: #0000FF; }.c4 { fill:#FF00FF; stroke:#FF00FF; }:root { --c4: #FF00FF; }.c5 { fill:#00FFFF; stroke:#00FFFF; }:root { --c5: #00FFFF; }.c6 { fill:#FFFF00; stroke:#FFFF00; }:root { --c6: #FFFF00; }.c7 { fill:#FF8000; stroke:#FF8000; }:root { --c7: #FF8000; }.c8 { fill:#8000FF; stroke:#8000FF; }:root { --c8: #8000FF; }.gray { fill:#CCCCCC; stroke:#CCCCCC; }:root { --gray: #CCCCCC; }.grey { fill:#CCCCCC; stroke:#CCCCCC; }:root { --grey: #CCCCCC; }.octonary { fill:#E6DB74; stroke:#E6DB74; }:root { --octonary: #E6DB74; }.primary { fill:#FF4A98; stroke:#FF4A98; }:root { --primary: #FF4A98; }.quaternary { fill:#B4A0FF; stroke:#B4A0FF; }:root { --quaternary: #B4A0FF; }.quinary { fill:#FFB86B; stroke:#FFB86B; }:root { --quinary: #FFB86B; }.secondary { fill:#0AFAFA; stroke:#0AFAFA; }:root { --secondary: #0AFAFA; }.senary { fill:#FF79C6; stroke:#FF79C6; }:root { --senary: #FF79C6; }.septenary { fill:#CCCCCC; stroke:#CCCCCC; }:root { --septenary: #CCCCCC; }.tertiary { fill:#7F83FF; stroke:#7F83FF; }:root { --tertiary: #7F83FF; }.white { fill:#000000; stroke:#000000; }:root { --white: #000000; }
}/* Axis, ticks, legend */
text, .text { fill: var(--axis-color) !important; stroke: none !important; }
.axis line, .axis path,
.tick line, .tick path,
path.domain,
line.grid { stroke: var(--axis-color) !important; }
.legend text { fill: var(--axis-color) !important; }

/* Patch paths that relied on currentColor */
.patch path[style*="stroke: currentColor"] { stroke: var(--axis-color) !important; }

/* Legend background (first child of legend group) */
g.legend > g:first-child > path:first-child {
    fill: rgba(255,255,255,0.8) !important;
    stroke: rgba(0,0,0,0.1) !important;
}
@media (prefers-color-scheme: dark) {
    g.legend > g:first-child > path:first-child {
        fill: rgba(26,26,26,0.8) !important;
        stroke: rgba(255,255,255,0.1) !important;
    }
}

/* 3‑D specific rules */
.plot3d path, .plot3d polygon {
    stroke: var(--plot3d-stroke) !important;
}
.plot3d-grid line { stroke: var(--plot3d-grid) !important; }
.plot3d-surface path[style*="fill:"] {
    fill-opacity: 0.9 !important;
}
@media (prefers-color-scheme: dark) {
    .plot3d-surface path[style*="fill:"] {
        fill-opacity: 0.95 !important;
        filter: saturate(1.2) !important;
    }
}</style>

<defs>
<g class="glyph">
<g id="mrf_conditional_independence_glyph-0-0">
<path d="M 12.15625 -0.328125 C 12.15625 -0.5 12 -0.5 11.75 -0.5 C 10.796875 -0.5 10.78125 -0.65625 10.734375 -1.171875 L 9.671875 -11.921875 C 9.640625 -12.265625 9.578125 -12.296875 9.390625 -12.296875 C 9.21875 -12.296875 9.109375 -12.265625 8.953125 -12 L 2.921875 -1.90625 C 2.328125 -0.890625 1.734375 -0.546875 0.90625 -0.5 C 0.71875 -0.484375 0.578125 -0.484375 0.578125 -0.171875 C 0.578125 -0.0625 0.671875 0 0.796875 0 L 2.1875 -0.03125 C 2.6875 -0.03125 3.234375 0 3.71875 0 C 3.828125 0 4.03125 0 4.03125 -0.328125 C 4.03125 -0.484375 3.890625 -0.5 3.78125 -0.5 C 3.390625 -0.53125 3.0625 -0.671875 3.0625 -1.078125 C 3.0625 -1.328125 3.171875 -1.515625 3.390625 -1.890625 L 4.703125 -4.0625 L 9.09375 -4.0625 C 9.109375 -3.90625 9.109375 -3.765625 9.125 -3.609375 C 9.171875 -3.171875 9.390625 -1.375 9.390625 -1.046875 C 9.390625 -0.53125 8.5 -0.5 8.234375 -0.5 C 8.046875 -0.5 7.859375 -0.5 7.859375 -0.1875 C 7.859375 0 8 0 8.109375 0 C 8.40625 0 8.75 -0.03125 9.046875 -0.03125 L 10.015625 -0.03125 L 11.84375 0 C 11.96875 0 12.15625 0 12.15625 -0.328125 Z M 9.046875 -4.5625 L 5 -4.5625 L 8.453125 -10.34375 Z M 9.046875 -4.5625 "/>
</g>
<g id="mrf_conditional_independence_glyph-0-1">
<path d="M 10.921875 -4.125 C 10.921875 -4.28125 10.78125 -4.28125 10.734375 -4.28125 C 10.578125 -4.28125 10.5625 -4.1875 10.515625 -4.109375 C 9.734375 -1.421875 7.40625 -0.140625 5.6875 -0.140625 C 3.859375 -0.140625 2.265625 -1.3125 2.265625 -3.75 C 2.265625 -4.3125 2.4375 -7.296875 4.390625 -9.5625 C 5.34375 -10.65625 6.953125 -11.625 8.59375 -11.625 C 10.484375 -11.625 11.328125 -10.0625 11.328125 -8.296875 C 11.328125 -7.859375 11.28125 -7.46875 11.28125 -7.40625 C 11.28125 -7.25 11.453125 -7.25 11.5 -7.25 C 11.6875 -7.25 11.703125 -7.265625 11.78125 -7.578125 L 12.859375 -11.96875 C 12.859375 -12.125 12.703125 -12.125 12.703125 -12.125 C 12.703125 -12.125 12.609375 -12.125 12.46875 -11.953125 L 11.28125 -10.5 C 10.671875 -11.53125 9.734375 -12.125 8.4375 -12.125 C 4.71875 -12.125 0.859375 -8.34375 0.859375 -4.3125 C 0.859375 -1.421875 2.875 0.359375 5.390625 0.359375 C 6.765625 0.359375 7.96875 -0.21875 8.96875 -1.0625 C 10.46875 -2.328125 10.921875 -4 10.921875 -4.125 Z M 10.921875 -4.125 "/>
</g>
<g id="mrf_conditional_independence_glyph-0-2">
<path d="M 11.375 -9.453125 C 11.375 -8.0625 9.984375 -6.28125 7.71875 -6.28125 L 5.234375 -6.28125 L 6.296875 -10.59375 C 6.453125 -11.234375 6.53125 -11.265625 7.203125 -11.265625 L 9.4375 -11.265625 C 11.375 -11.265625 11.375 -9.609375 11.375 -9.453125 Z M 11.84375 -3.734375 C 11.84375 -5.140625 10.609375 -6.015625 9.21875 -6.140625 C 11.09375 -6.484375 12.796875 -7.796875 12.796875 -9.390625 C 12.796875 -10.734375 11.609375 -11.765625 9.65625 -11.765625 L 4.125 -11.765625 C 3.8125 -11.765625 3.65625 -11.765625 3.65625 -11.4375 C 3.65625 -11.265625 3.8125 -11.265625 4.0625 -11.265625 C 5.109375 -11.265625 5.109375 -11.125 5.109375 -10.9375 C 5.109375 -10.9375 5.109375 -10.796875 5.046875 -10.53125 L 2.71875 -1.28125 C 2.5625 -0.671875 2.53125 -0.5 1.328125 -0.5 C 1 -0.5 0.828125 -0.5 0.828125 -0.1875 C 0.828125 0 0.9375 0 1.28125 0 L 7.1875 0 C 9.8125 0 11.84375 -2 11.84375 -3.734375 Z M 10.40625 -3.90625 C 10.40625 -2.25 8.90625 -0.5 6.765625 -0.5 L 4.4375 -0.5 C 4.203125 -0.5 4.171875 -0.5 4.0625 -0.515625 C 3.875 -0.53125 3.859375 -0.5625 3.859375 -0.703125 C 3.859375 -0.828125 3.890625 -0.9375 3.921875 -1.078125 L 5.125 -5.9375 L 8.375 -5.9375 C 10.40625 -5.9375 10.40625 -4.046875 10.40625 -3.90625 Z M 10.40625 -3.90625 "/>
</g>
</g>
<clipPath id="mrf_conditional_independence_clip-0">
<path clip-rule="nonzero" d="M 352 5 L 454.210938 5 L 454.210938 127 L 352 127 Z M 352 5 "/>
</clipPath>
<clipPath id="mrf_conditional_independence_clip-1">
<path clip-rule="nonzero" d="M 0 81 L 167 81 L 167 381.738281 L 0 381.738281 Z M 0 81 "/>
</clipPath>
</defs>
<path fill-rule="nonzero" fill="rgb(50%, 50%, 100%)" fill-opacity="1" stroke-width="2.26773" stroke-linecap="butt" stroke-linejoin="miter" stroke="rgb(100%, 0%, 0%)" stroke-opacity="1" stroke-miterlimit="10" d="M 28.3455 0.0005 C 28.3455 15.65675 15.654094 28.348156 0.00175 28.348156 C -15.6545 28.348156 -28.345906 15.65675 -28.345906 0.0005 C -28.345906 -15.65575 -15.6545 -28.347156 0.00175 -28.347156 C 15.654094 -28.347156 28.3455 -15.65575 28.3455 0.0005 Z M 28.3455 0.0005 " transform="matrix(1, 0, 0, -1, 181.467, 65.813)"/>
<path fill-rule="nonzero" fill="rgb(50%, 50%, 100%)" fill-opacity="1" stroke-width="2.26773" stroke-linecap="butt" stroke-linejoin="miter" stroke="rgb(100%, 0%, 0%)" stroke-opacity="1" stroke-miterlimit="10" d="M 28.3455 -115.65575 C 28.3455 -99.9995 15.654094 -87.308094 0.00175 -87.308094 C -15.6545 -87.308094 -28.345906 -99.9995 -28.345906 -115.65575 C -28.345906 -131.312 -15.6545 -144.003406 0.00175 -144.003406 C 15.654094 -144.003406 28.3455 -131.312 28.3455 -115.65575 Z M 28.3455 -115.65575 " transform="matrix(1, 0, 0, -1, 181.467, 65.813)"/>
<path fill="none" stroke-width="2.26773" stroke-linecap="butt" stroke-linejoin="miter" stroke="rgb(100%, 0%, 0%)" stroke-opacity="1" stroke-miterlimit="10" d="M -87.306844 0.0005 C -87.306844 15.65675 -99.99825 28.348156 -115.6545 28.348156 C -131.31075 28.348156 -144.002156 15.65675 -144.002156 0.0005 C -144.002156 -15.65575 -131.31075 -28.347156 -115.6545 -28.347156 C -99.99825 -28.347156 -87.306844 -15.65575 -87.306844 0.0005 Z M -87.306844 0.0005 " transform="matrix(1, 0, 0, -1, 181.467, 65.813)"/>
<path fill="none" stroke-width="2.26773" stroke-linecap="butt" stroke-linejoin="miter" stroke="rgb(100%, 0%, 0%)" stroke-opacity="1" stroke-miterlimit="10" d="M -87.306844 -115.65575 C -87.306844 -99.9995 -99.99825 -87.308094 -115.6545 -87.308094 C -131.31075 -87.308094 -144.002156 -99.9995 -144.002156 -115.65575 C -144.002156 -131.312 -131.31075 -144.003406 -115.6545 -144.003406 C -99.99825 -144.003406 -87.306844 -131.312 -87.306844 -115.65575 Z M -87.306844 -115.65575 " transform="matrix(1, 0, 0, -1, 181.467, 65.813)"/>
<path fill="none" stroke-width="2.26773" stroke-linecap="butt" stroke-linejoin="miter" stroke="rgb(100%, 0%, 0%)" stroke-opacity="1" stroke-miterlimit="10" d="M -87.306844 -231.308094 C -87.306844 -215.65575 -99.99825 -202.964344 -115.6545 -202.964344 C -131.31075 -202.964344 -144.002156 -215.65575 -144.002156 -231.308094 C -144.002156 -246.964344 -131.31075 -259.65575 -115.6545 -259.65575 C -99.99825 -259.65575 -87.306844 -246.964344 -87.306844 -231.308094 Z M -87.306844 -231.308094 " transform="matrix(1, 0, 0, -1, 181.467, 65.813)"/>
<path fill="none" stroke-width="2.26773" stroke-linecap="butt" stroke-linejoin="miter" stroke="rgb(100%, 0%, 0%)" stroke-opacity="1" stroke-miterlimit="10" d="M 144.00175 0.0005 C 144.00175 15.65675 131.310344 28.348156 115.654094 28.348156 C 99.997844 28.348156 87.306437 15.65675 87.306437 0.0005 C 87.306437 -15.65575 99.997844 -28.347156 115.654094 -28.347156 C 131.310344 -28.347156 144.00175 -15.65575 144.00175 0.0005 Z M 144.00175 0.0005 " transform="matrix(1, 0, 0, -1, 181.467, 65.813)"/>
<path fill="none" stroke-width="2.26773" stroke-linecap="butt" stroke-linejoin="miter" stroke="rgb(100%, 0%, 0%)" stroke-opacity="1" stroke-miterlimit="10" d="M 144.00175 -115.65575 C 144.00175 -99.9995 131.310344 -87.308094 115.654094 -87.308094 C 99.997844 -87.308094 87.306437 -99.9995 87.306437 -115.65575 C 87.306437 -131.312 99.997844 -144.003406 115.654094 -144.003406 C 131.310344 -144.003406 144.00175 -131.312 144.00175 -115.65575 Z M 144.00175 -115.65575 " transform="matrix(1, 0, 0, -1, 181.467, 65.813)"/>
<g clip-path="url(#mrf_conditional_independence_clip-0)">
<path fill="none" stroke-width="2.26773" stroke-linecap="butt" stroke-linejoin="miter" stroke="rgb(100%, 0%, 0%)" stroke-opacity="1" stroke-miterlimit="10" d="M 259.658 0.0005 C 259.658 15.65675 246.966594 28.348156 231.310344 28.348156 C 215.654094 28.348156 202.962687 15.65675 202.962687 0.0005 C 202.962687 -15.65575 215.654094 -28.347156 231.310344 -28.347156 C 246.966594 -28.347156 259.658 -15.65575 259.658 0.0005 Z M 259.658 0.0005 " transform="matrix(1, 0, 0, -1, 181.467, 65.813)"/>
</g>
<path fill="none" stroke-width="2.26773" stroke-linecap="butt" stroke-linejoin="miter" stroke="rgb(100%, 0%, 0%)" stroke-opacity="1" stroke-miterlimit="10" d="M 0.00175 -29.479969 L 0.00175 -86.175281 " transform="matrix(1, 0, 0, -1, 181.467, 65.813)"/>
<path fill="none" stroke-width="2.26773" stroke-linecap="butt" stroke-linejoin="miter" stroke="rgb(100%, 0%, 0%)" stroke-opacity="1" stroke-miterlimit="10" d="M -86.174031 0.0005 L -29.478719 0.0005 " transform="matrix(1, 0, 0, -1, 181.467, 65.813)"/>
<path fill="none" stroke-width="2.26773" stroke-linecap="butt" stroke-linejoin="miter" stroke="rgb(100%, 0%, 0%)" stroke-opacity="1" stroke-miterlimit="10" d="M -115.6545 -29.479969 L -115.6545 -86.175281 " transform="matrix(1, 0, 0, -1, 181.467, 65.813)"/>
<path fill="none" stroke-width="2.26773" stroke-linecap="butt" stroke-linejoin="miter" stroke="rgb(100%, 0%, 0%)" stroke-opacity="1" stroke-miterlimit="10" d="M -94.81075 -94.808094 L -20.845906 -20.847156 " transform="matrix(1, 0, 0, -1, 181.467, 65.813)"/>
<path fill="none" stroke-width="2.26773" stroke-linecap="butt" stroke-linejoin="miter" stroke="rgb(100%, 0%, 0%)" stroke-opacity="1" stroke-miterlimit="10" d="M -86.174031 -115.65575 L -29.478719 -115.65575 " transform="matrix(1, 0, 0, -1, 181.467, 65.813)"/>
<path fill="none" stroke-width="2.26773" stroke-linecap="butt" stroke-linejoin="miter" stroke="rgb(100%, 0%, 0%)" stroke-opacity="1" stroke-miterlimit="10" d="M -115.6545 -145.136219 L -115.6545 -201.827625 " transform="matrix(1, 0, 0, -1, 181.467, 65.813)"/>
<path fill="none" stroke-width="2.26773" stroke-linecap="butt" stroke-linejoin="miter" stroke="rgb(100%, 0%, 0%)" stroke-opacity="1" stroke-miterlimit="10" d="M 86.173625 0.0005 L 29.482219 0.0005 " transform="matrix(1, 0, 0, -1, 181.467, 65.813)"/>
<path fill="none" stroke-width="2.26773" stroke-linecap="butt" stroke-linejoin="miter" stroke="rgb(100%, 0%, 0%)" stroke-opacity="1" stroke-miterlimit="10" d="M 115.654094 -29.479969 L 115.654094 -86.175281 " transform="matrix(1, 0, 0, -1, 181.467, 65.813)"/>
<path fill="none" stroke-width="2.26773" stroke-linecap="butt" stroke-linejoin="miter" stroke="rgb(100%, 0%, 0%)" stroke-opacity="1" stroke-miterlimit="10" d="M 86.173625 -115.65575 L 29.482219 -115.65575 " transform="matrix(1, 0, 0, -1, 181.467, 65.813)"/>
<path fill="none" stroke-width="2.26773" stroke-linecap="butt" stroke-linejoin="miter" stroke="rgb(100%, 0%, 0%)" stroke-opacity="1" stroke-miterlimit="10" d="M 210.462687 -20.847156 L 136.50175 -94.808094 " transform="matrix(1, 0, 0, -1, 181.467, 65.813)"/>
<path fill="none" stroke-width="2.26773" stroke-linecap="butt" stroke-linejoin="miter" stroke="rgb(100%, 0%, 0%)" stroke-opacity="1" stroke-miterlimit="10" d="M 201.829875 0.0005 L 145.134562 0.0005 " transform="matrix(1, 0, 0, -1, 181.467, 65.813)"/>
<g clip-path="url(#mrf_conditional_independence_clip-1)">
<path fill="none" stroke-width="3.4016" stroke-linecap="butt" stroke-linejoin="miter" stroke="rgb(0%, 59.999084%, 0%)" stroke-opacity="1" stroke-dasharray="2.98883 2.98883" stroke-miterlimit="10" d="M -91.842 -63.495594 L -139.467 -63.495594 C -155.12325 -63.495594 -167.814656 -76.187 -167.814656 -91.84325 L -167.814656 -255.120594 C -167.814656 -270.776844 -155.12325 -283.46825 -139.467 -283.46825 L -91.842 -283.46825 C -76.189656 -283.46825 -63.49825 -270.776844 -63.49825 -255.120594 L -63.49825 -91.84325 C -63.49825 -76.187 -76.189656 -63.495594 -91.842 -63.495594 Z M -91.842 -63.495594 " transform="matrix(1, 0, 0, -1, 181.467, 65.813)"/>
</g>
<g fill="var(--black)" fill-opacity="1">
<use xlink:href="#mrf_conditional_independence_glyph-0-0" x="59.495" y="366.461"/>
</g>
<path fill="none" stroke-width="3.4016" stroke-linecap="butt" stroke-linejoin="miter" stroke="rgb(0%, 59.999084%, 0%)" stroke-opacity="1" stroke-dasharray="2.98883 2.98883" stroke-miterlimit="10" d="M 23.810344 52.15675 L -23.81075 52.15675 C -39.467 52.15675 -52.158406 39.465344 -52.158406 23.813 L -52.158406 -139.46825 C -52.158406 -155.120594 -39.467 -167.812 -23.81075 -167.812 L 23.810344 -167.812 C 39.466594 -167.812 52.158 -155.120594 52.158 -139.46825 L 52.158 23.813 C 52.158 39.465344 39.466594 52.15675 23.810344 52.15675 Z M 23.810344 52.15675 " transform="matrix(1, 0, 0, -1, 181.467, 65.813)"/>
<g fill="var(--black)" fill-opacity="1">
<use xlink:href="#mrf_conditional_independence_glyph-0-1" x="174.819" y="250.808"/>
</g>
<path fill="none" stroke-width="3.4016" stroke-linecap="butt" stroke-linejoin="miter" stroke="rgb(0%, 59.999084%, 0%)" stroke-opacity="1" stroke-dasharray="2.98883 2.98883" stroke-miterlimit="10" d="M 139.466594 52.15675 L 91.8455 52.15675 C 76.18925 52.15675 63.497844 39.465344 63.497844 23.813 L 63.497844 -139.46825 C 63.497844 -155.120594 76.18925 -167.812 91.8455 -167.812 L 139.466594 -167.812 C 155.122844 -167.812 167.81425 -155.120594 167.81425 -139.46825 L 167.81425 23.813 C 167.81425 39.465344 155.122844 52.15675 139.466594 52.15675 Z M 139.466594 52.15675 " transform="matrix(1, 0, 0, -1, 181.467, 65.813)"/>
<g fill="var(--black)" fill-opacity="1">
<use xlink:href="#mrf_conditional_independence_glyph-0-2" x="290.283" y="250.808"/>
</g>
</svg>
