<svg xmlns="http://www.w3.org/2000/svg" xmlns:xlink="http://www.w3.org/1999/xlink" width="563.791" height="434.649" style="--axis-color:#000;--grid-stroke:rgba(0,0,0,0.2);--plot3d-stroke:rgba(0,0,0,0.3);--plot3d-grid:rgba(0,0,0,0.2)" viewBox="0 0 422.843 325.986"><style><![CDATA[@keyframes drawLine{0%{stroke-dashoffset:var(--len)}to{stroke-dashoffset:0}}@keyframes fadeIn{0%{opacity:0}to{opacity:1}}@keyframes pulse{0%,to{opacity:.7}50%{opacity:1}}.anim-draw{--len:1000;stroke-dasharray:var(--len);stroke-dashoffset:var(--len);animation:drawLine 4s ease-in-out infinite;animation-delay:0s}.anim-fade{opacity:0;animation:fadeIn 4s ease-in-out infinite;animation-delay:0s}.anim-pulse{animation:pulse 4s ease-in-out infinite;animation-delay:0s}@media (prefers-color-scheme:dark){:root{--axis-color:#fff;--grid-stroke:rgba(255,255,255,0.2);--plot3d-stroke:rgba(255,255,255,0.3);--plot3d-grid:rgba(255,255,255,0.2)}}.c1{fill:#ff0001;stroke:#ff0001}.c2{fill:#00ff02;stroke:#00ff02}.c3{fill:#00f;stroke:#00f}.c4{fill:#f0f;stroke:#f0f}.c5{fill:#0ff;stroke:#0ff}.c6{fill:#ff0;stroke:#ff0}.c7{fill:#ff8000;stroke:#ff8000}.c8{fill:#8000ff;stroke:#8000ff}.octonary{fill:#bcbd22;stroke:#bcbd22}.primary{fill:#d62728;stroke:#d62728}.quaternary{fill:#9467bd;stroke:#9467bd}.quinary{fill:#8c564b;stroke:#8c564b}.secondary{fill:#2ca02c;stroke:#2ca02c}.senary{fill:#e377c2;stroke:#e377c2}.septenary{fill:#7f7f7f;stroke:#7f7f7f}.tertiary{fill:#1f77b4;stroke:#1f77b4}@media (prefers-color-scheme:dark){.c1{fill:#ff0001;stroke:#ff0001}.c2{fill:#00ff02;stroke:#00ff02}.c3{fill:#00f;stroke:#00f}.c4{fill:#f0f;stroke:#f0f}.c5{fill:#0ff;stroke:#0ff}.c6{fill:#ff0;stroke:#ff0}.c7{fill:#ff8000;stroke:#ff8000}.c8{fill:#8000ff;stroke:#8000ff}.octonary{fill:#e6db74;stroke:#e6db74}.primary{fill:#ff4a98;stroke:#ff4a98}.quaternary{fill:#b4a0ff;stroke:#b4a0ff}.quinary{fill:#ffb86b;stroke:#ffb86b}.secondary{fill:#0afafa;stroke:#0afafa}.senary{fill:#ff79c6;stroke:#ff79c6}.septenary{fill:#ccc;stroke:#ccc}.tertiary{fill:#7f83ff;stroke:#7f83ff}}.text,text{stroke:none!important}.axis line,.axis path,.patch path[style*="stroke: currentColor"],.tick line,.tick path,line.grid,path.domain{stroke:var(--axis-color)!important}.legend text,.text,text{fill:var(--axis-color)!important}@media (prefers-color-scheme:dark){g.legend>g:first-child>path:first-child{fill:rgba(26,26,26,.8)!important;stroke:rgba(255,255,255,.1)!important}}.plot3d path,.plot3d polygon{stroke:var(--plot3d-stroke)!important}.plot3d-grid line{stroke:var(--plot3d-grid)!important}.plot3d-surface path[style*="fill:"]{fill-opacity:.9!important}@media (prefers-color-scheme:dark){.plot3d-surface path[style*="fill:"]{fill-opacity:.95!important;filter:saturate(1.2)!important}}*{stroke-linejoin:round;stroke-linecap:butt}]]></style><g id="figure_1"><g class="patch"><path d="M0 325.986h422.843V0H0z" class="anim-draw" style="fill:none"/></g><g id="axes_1"><g class="patch"><path d="M58.523 288.43h357.12V22.318H58.523z" class="anim-draw" style="fill:none"/></g><g class="axis"><g class="tick xtick"><path id="line2d_1" d="M74.756 288.43V22.318" class="anim-draw" clip-path="url(#pb62ab90acd)" style="fill:none;stroke:#b0b0b0;stroke-opacity:.15;stroke-width:.8;stroke-linecap:square"/><g id="line2d_2"><defs><path id="m6081e0731c" d="M0 0v3.5" class="anim-draw" style="stroke:currentColor;stroke-width:.8"/></defs><use xlink:href="#m6081e0731c" x="74.756" y="288.43" style="stroke:currentColor;stroke-width:.8"/></g><g id="text_1" class="text" transform="matrix(.1 0 0 -.1 71.575 303.029)"><defs><path id="DejaVuSans-30" d="M2034 4250q-487 0-733-480-245-479-245-1442 0-959 245-1439 246-480 733-480 491 0 736 480 246 480 246 1439 0 963-246 1442-245 480-736 480zm0 500q785 0 1199-621 414-620 414-1801 0-1178-414-1799Q2819-91 2034-91q-784 0-1198 620-414 621-414 1799 0 1181 414 1801 414 621 1198 621z" class="anim-draw" transform="scale(.01563)"/></defs><use xlink:href="#DejaVuSans-30"/></g></g><g class="tick xtick"><path id="line2d_3" d="M139.687 288.43V22.318" class="anim-draw" clip-path="url(#pb62ab90acd)" style="fill:none;stroke:#b0b0b0;stroke-opacity:.15;stroke-width:.8;stroke-linecap:square"/><use xlink:href="#m6081e0731c" id="line2d_4" x="139.687" y="288.43" style="stroke:currentColor;stroke-width:.8"/><g id="text_2" class="text" transform="matrix(.1 0 0 -.1 136.506 303.029)"><defs><path id="DejaVuSans-32" d="M1228 531h2203V0H469v531q359 372 979 998 621 627 780 809 303 340 423 576 121 236 121 464 0 372-261 606-261 235-680 235-297 0-627-103-329-103-704-313v638q381 153 712 231 332 78 607 78 725 0 1156-363 431-362 431-968 0-288-108-546-107-257-392-607-78-91-497-524-418-433-1181-1211z" class="anim-draw" transform="scale(.01563)"/></defs><use xlink:href="#DejaVuSans-32"/></g></g><g class="tick xtick"><path id="line2d_5" d="M204.618 288.43V22.318" class="anim-draw" clip-path="url(#pb62ab90acd)" style="fill:none;stroke:#b0b0b0;stroke-opacity:.15;stroke-width:.8;stroke-linecap:square"/><use xlink:href="#m6081e0731c" id="line2d_6" x="204.618" y="288.43" style="stroke:currentColor;stroke-width:.8"/><g id="text_3" class="text" transform="matrix(.1 0 0 -.1 201.437 303.029)"><defs><path id="DejaVuSans-34" d="M2419 4116 825 1625h1594zm-166 550h794V1625h666v-525h-666V0h-628v1100H313v609z" class="anim-draw" transform="scale(.01563)"/></defs><use xlink:href="#DejaVuSans-34"/></g></g><g class="tick xtick"><path id="line2d_7" d="M269.549 288.43V22.318" class="anim-draw" clip-path="url(#pb62ab90acd)" style="fill:none;stroke:#b0b0b0;stroke-opacity:.15;stroke-width:.8;stroke-linecap:square"/><use xlink:href="#m6081e0731c" id="line2d_8" x="269.549" y="288.43" style="stroke:currentColor;stroke-width:.8"/><g id="text_4" class="text" transform="matrix(.1 0 0 -.1 266.368 303.029)"><defs><path id="DejaVuSans-36" d="M2113 2584q-425 0-674-291-248-290-248-796 0-503 248-796 249-292 674-292t673 292q248 293 248 796 0 506-248 796-248 291-673 291zm1253 1979v-575q-238 112-480 171-242 60-480 60-625 0-955-422-329-422-376-1275 184 272 462 417 279 145 613 145 703 0 1111-427 408-426 408-1160 0-719-425-1154Q2819-91 2113-91q-810 0-1238 620-428 621-428 1799 0 1106 525 1764t1409 658q238 0 480-47t505-140z" class="anim-draw" transform="scale(.01563)"/></defs><use xlink:href="#DejaVuSans-36"/></g></g><g class="tick xtick"><path id="line2d_9" d="M334.48 288.43V22.318" class="anim-draw" clip-path="url(#pb62ab90acd)" style="fill:none;stroke:#b0b0b0;stroke-opacity:.15;stroke-width:.8;stroke-linecap:square"/><use xlink:href="#m6081e0731c" id="line2d_10" x="334.48" y="288.43" style="stroke:currentColor;stroke-width:.8"/><g id="text_5" class="text" transform="matrix(.1 0 0 -.1 331.299 303.029)"><defs><path id="DejaVuSans-38" d="M2034 2216q-450 0-708-241-257-241-257-662 0-422 257-663 258-241 708-241t709 242q260 243 260 662 0 421-258 662-257 241-711 241zm-631 268q-406 100-633 378-226 279-226 679 0 559 398 884 399 325 1092 325 697 0 1094-325t397-884q0-400-227-679-226-278-629-378 456-106 710-416 255-309 255-755 0-679-414-1042Q2806-91 2034-91q-771 0-1186 362-414 363-414 1042 0 446 256 755 257 310 713 416zm-231 997q0-362 226-565 227-203 636-203 407 0 636 203 230 203 230 565 0 363-230 566-229 203-636 203-409 0-636-203-226-203-226-566z" class="anim-draw" transform="scale(.01563)"/></defs><use xlink:href="#DejaVuSans-38"/></g></g><g class="tick xtick"><path id="line2d_11" d="M399.41 288.43V22.318" class="anim-draw" clip-path="url(#pb62ab90acd)" style="fill:none;stroke:#b0b0b0;stroke-opacity:.15;stroke-width:.8;stroke-linecap:square"/><use xlink:href="#m6081e0731c" id="line2d_12" x="399.411" y="288.43" style="stroke:currentColor;stroke-width:.8"/><g id="text_6" class="text" transform="matrix(.1 0 0 -.1 393.048 303.029)"><defs><path id="DejaVuSans-31" d="M794 531h1031v3560L703 3866v575l1116 225h631V531h1031V0H794z" class="anim-draw" transform="scale(.01563)"/></defs><use xlink:href="#DejaVuSans-31"/><use xlink:href="#DejaVuSans-30" transform="translate(63.623)"/></g></g><g id="text_7" class="text" transform="matrix(.1 0 0 -.1 234.124 316.707)"><defs><path id="DejaVuSans-78" d="M3513 3500 2247 1797 3578 0h-678L1881 1375 863 0H184l1360 1831L300 3500h678l928-1247 928 1247z" class="anim-draw" transform="scale(.01563)"/></defs><use xlink:href="#DejaVuSans-78"/></g></g><g class="axis"><g class="tick ytick"><path id="line2d_13" d="M58.523 276.34h357.12" class="anim-draw" clip-path="url(#pb62ab90acd)" style="fill:none;stroke:#b0b0b0;stroke-opacity:.15;stroke-width:.8;stroke-linecap:square"/><g id="line2d_14"><defs><path id="m3f6df5aff9" d="M0 0h-3.5" class="anim-draw" style="stroke:currentColor;stroke-width:.8"/></defs><use xlink:href="#m3f6df5aff9" x="58.523" y="276.341" style="stroke:currentColor;stroke-width:.8"/></g><g id="text_8" class="text" transform="matrix(.1 0 0 -.1 20.878 280.14)"><defs><path id="DejaVuSans-2212" d="M678 2272h4006v-531H678z" class="anim-draw" transform="scale(.01563)"/><path id="DejaVuSans-2e" d="M684 794h660V0H684z" class="anim-draw" transform="scale(.01563)"/></defs><use xlink:href="#DejaVuSans-2212"/><use xlink:href="#DejaVuSans-31" transform="translate(83.79)"/><use xlink:href="#DejaVuSans-2e" transform="translate(147.412)"/><use xlink:href="#DejaVuSans-30" transform="translate(179.2)"/><use xlink:href="#DejaVuSans-30" transform="translate(242.822)"/></g></g><g class="tick ytick"><path id="line2d_15" d="M58.523 246.1h357.12" class="anim-draw" clip-path="url(#pb62ab90acd)" style="fill:none;stroke:#b0b0b0;stroke-opacity:.15;stroke-width:.8;stroke-linecap:square"/><use xlink:href="#m3f6df5aff9" id="line2d_16" x="58.523" y="246.1" style="stroke:currentColor;stroke-width:.8"/><g id="text_9" class="text" transform="matrix(.1 0 0 -.1 20.878 249.899)"><defs><path id="DejaVuSans-37" d="M525 4666h3000v-269L1831 0h-659l1594 4134H525z" class="anim-draw" transform="scale(.01563)"/><path id="DejaVuSans-35" d="M691 4666h2478v-532H1269V2991q137 47 274 70 138 23 276 23 781 0 1237-428 457-428 457-1159 0-753-469-1171Q2575-91 1722-91q-294 0-599 50Q819 9 494 109v635q281-153 581-228t634-75q541 0 856 284 316 284 316 772 0 487-316 771-315 285-856 285-253 0-505-56-251-56-513-175z" class="anim-draw" transform="scale(.01563)"/></defs><use xlink:href="#DejaVuSans-2212"/><use xlink:href="#DejaVuSans-30" transform="translate(83.79)"/><use xlink:href="#DejaVuSans-2e" transform="translate(147.412)"/><use xlink:href="#DejaVuSans-37" transform="translate(179.2)"/><use xlink:href="#DejaVuSans-35" transform="translate(242.822)"/></g></g><g class="tick ytick"><path id="line2d_17" d="M58.523 215.859h357.12" class="anim-draw" clip-path="url(#pb62ab90acd)" style="fill:none;stroke:#b0b0b0;stroke-opacity:.15;stroke-width:.8;stroke-linecap:square"/><use xlink:href="#m3f6df5aff9" id="line2d_18" x="58.523" y="215.859" style="stroke:currentColor;stroke-width:.8"/><g id="text_10" class="text" transform="matrix(.1 0 0 -.1 20.878 219.658)"><use xlink:href="#DejaVuSans-2212"/><use xlink:href="#DejaVuSans-30" transform="translate(83.79)"/><use xlink:href="#DejaVuSans-2e" transform="translate(147.412)"/><use xlink:href="#DejaVuSans-35" transform="translate(179.2)"/><use xlink:href="#DejaVuSans-30" transform="translate(242.822)"/></g></g><g class="tick ytick"><path id="line2d_19" d="M58.523 185.618h357.12" class="anim-draw" clip-path="url(#pb62ab90acd)" style="fill:none;stroke:#b0b0b0;stroke-opacity:.15;stroke-width:.8;stroke-linecap:square"/><use xlink:href="#m3f6df5aff9" id="line2d_20" x="58.523" y="185.618" style="stroke:currentColor;stroke-width:.8"/><g id="text_11" class="text" transform="matrix(.1 0 0 -.1 20.878 189.417)"><use xlink:href="#DejaVuSans-2212"/><use xlink:href="#DejaVuSans-30" transform="translate(83.79)"/><use xlink:href="#DejaVuSans-2e" transform="translate(147.412)"/><use xlink:href="#DejaVuSans-32" transform="translate(179.2)"/><use xlink:href="#DejaVuSans-35" transform="translate(242.822)"/></g></g><g class="tick ytick"><path id="line2d_21" d="M58.523 155.377h357.12" class="anim-draw" clip-path="url(#pb62ab90acd)" style="fill:none;stroke:#b0b0b0;stroke-opacity:.15;stroke-width:.8;stroke-linecap:square"/><use xlink:href="#m3f6df5aff9" id="line2d_22" x="58.523" y="155.377" style="stroke:currentColor;stroke-width:.8"/><g id="text_12" class="text" transform="matrix(.1 0 0 -.1 29.258 159.177)"><use xlink:href="#DejaVuSans-30"/><use xlink:href="#DejaVuSans-2e" transform="translate(63.623)"/><use xlink:href="#DejaVuSans-30" transform="translate(95.41)"/><use xlink:href="#DejaVuSans-30" transform="translate(159.033)"/></g></g><g class="tick ytick"><path id="line2d_23" d="M58.523 125.137h357.12" class="anim-draw" clip-path="url(#pb62ab90acd)" style="fill:none;stroke:#b0b0b0;stroke-opacity:.15;stroke-width:.8;stroke-linecap:square"/><use xlink:href="#m3f6df5aff9" id="line2d_24" x="58.523" y="125.137" style="stroke:currentColor;stroke-width:.8"/><g id="text_13" class="text" transform="matrix(.1 0 0 -.1 29.258 128.936)"><use xlink:href="#DejaVuSans-30"/><use xlink:href="#DejaVuSans-2e" transform="translate(63.623)"/><use xlink:href="#DejaVuSans-32" transform="translate(95.41)"/><use xlink:href="#DejaVuSans-35" transform="translate(159.033)"/></g></g><g class="tick ytick"><path id="line2d_25" d="M58.523 94.896h357.12" class="anim-draw" clip-path="url(#pb62ab90acd)" style="fill:none;stroke:#b0b0b0;stroke-opacity:.15;stroke-width:.8;stroke-linecap:square"/><use xlink:href="#m3f6df5aff9" id="line2d_26" x="58.523" y="94.896" style="stroke:currentColor;stroke-width:.8"/><g id="text_14" class="text" transform="matrix(.1 0 0 -.1 29.258 98.695)"><use xlink:href="#DejaVuSans-30"/><use xlink:href="#DejaVuSans-2e" transform="translate(63.623)"/><use xlink:href="#DejaVuSans-35" transform="translate(95.41)"/><use xlink:href="#DejaVuSans-30" transform="translate(159.033)"/></g></g><g class="tick ytick"><path id="line2d_27" d="M58.523 64.655h357.12" class="anim-draw" clip-path="url(#pb62ab90acd)" style="fill:none;stroke:#b0b0b0;stroke-opacity:.15;stroke-width:.8;stroke-linecap:square"/><use xlink:href="#m3f6df5aff9" id="line2d_28" x="58.523" y="64.655" style="stroke:currentColor;stroke-width:.8"/><g id="text_15" class="text" transform="matrix(.1 0 0 -.1 29.258 68.454)"><use xlink:href="#DejaVuSans-30"/><use xlink:href="#DejaVuSans-2e" transform="translate(63.623)"/><use xlink:href="#DejaVuSans-37" transform="translate(95.41)"/><use xlink:href="#DejaVuSans-35" transform="translate(159.033)"/></g></g><g class="tick ytick"><path id="line2d_29" d="M58.523 34.414h357.12" class="anim-draw" clip-path="url(#pb62ab90acd)" style="fill:none;stroke:#b0b0b0;stroke-opacity:.15;stroke-width:.8;stroke-linecap:square"/><use xlink:href="#m3f6df5aff9" id="line2d_30" x="58.523" y="34.414" style="stroke:currentColor;stroke-width:.8"/><g id="text_16" class="text" transform="matrix(.1 0 0 -.1 29.258 38.213)"><use xlink:href="#DejaVuSans-31"/><use xlink:href="#DejaVuSans-2e" transform="translate(63.623)"/><use xlink:href="#DejaVuSans-30" transform="translate(95.41)"/><use xlink:href="#DejaVuSans-30" transform="translate(159.033)"/></g></g><g id="text_17" class="text" transform="matrix(0 -.1 -.1 0 14.798 158.333)"><defs><path id="DejaVuSans-79" d="M2059-325q-243-625-475-815-231-191-618-191H506v481h338q237 0 368 113 132 112 291 531l103 262L191 3500h609L1894 763l1094 2737h609z" class="anim-draw" transform="scale(.01563)"/></defs><use xlink:href="#DejaVuSans-79"/></g></g><path id="line2d_31" d="m74.756 155.377 3.28-12.197 3.279-12.074 3.28-11.826 3.279-11.458 3.279-10.973 3.28-10.376 3.279-9.675 3.279-8.873 3.28-7.981 3.279-7.009 3.279-5.964 3.28-4.86 3.279-3.704 3.279-2.512 3.28-1.294 3.279-.062 3.279 1.169 3.28 2.389 3.279 3.584 3.279 4.744 3.28 5.855 3.279 6.905 3.279 7.886 3.28 8.786 3.279 9.597 3.279 10.31 3.28 10.917 3.279 11.414 3.279 11.794 3.28 12.054 3.279 12.19 3.279 12.204 3.28 12.092 3.279 11.857 3.279 11.5 3.28 11.028 3.279 10.442 3.279 9.75 3.28 8.96 3.279 8.076 3.28 7.11 3.278 6.074 3.28 4.974 3.28 3.824 3.278 2.635 3.28 1.419 3.28.188 3.278-1.044 3.28-2.266 3.28-3.464 3.278-4.628 3.28-5.744 3.28-6.801 3.278-7.79 3.28-8.699 3.28-9.519 3.278-10.242 3.28-10.86 3.28-11.369 3.278-11.76 3.28-12.033 3.28-12.183 3.279-12.208 3.279-12.109 3.28-11.886 3.279-11.542 3.279-11.081 3.28-10.507 3.279-9.825 3.279-9.044 3.28-8.17 3.279-7.213 3.279-6.182 3.28-5.088 3.279-3.943 3.279-2.757 3.28-1.544 3.279-.314 3.279.92 3.28 2.142 3.279 3.343 3.279 4.512 3.28 5.633 3.279 6.697 3.279 7.692 3.28 8.61 3.279 9.44 3.279 10.173 3.28 10.802 3.279 11.323 3.279 11.726 3.28 12.01 3.279 12.174 3.279 12.21 3.28 12.125 3.279 11.914 3.279 11.583 3.28 11.134 3.279 10.57" class="anim-draw" clip-path="url(#pb62ab90acd)" style="fill:none;stroke:#ff0001;stroke-width:2;stroke-linecap:square"/><path id="line2d_32" d="m74.756 34.414 3.28.617 3.279 1.843 3.28 3.052 3.279 4.228 3.279 5.362 3.28 6.442 3.279 7.455 3.279 8.392 3.28 9.245 3.279 10.002 3.279 10.658 3.28 11.205 3.279 11.638 3.279 11.952 3.28 12.145 3.279 12.213 3.279 12.157 3.28 11.978 3.279 11.675 3.279 11.254 3.28 10.72 3.279 10.073 3.279 9.326 3.28 8.483 3.279 7.554 3.279 6.548 3.28 5.475 3.279 4.346 3.279 3.173 3.28 1.967 3.279.742 3.279-.491 3.28-1.72 3.279-2.929 3.279-4.11 3.28-5.25 3.279-6.334 3.279-7.355 3.28-8.301 3.279-9.162 3.28-9.93 3.278-10.596 3.28-11.154 3.28-11.6 3.278-11.925 3.28-12.131 3.28-12.212 3.278-12.168 3.28-12.002 3.28-11.711 3.278-11.303 3.28-10.778 3.28-10.145 3.278-9.406 3.28-8.573 3.28-7.653 3.278-6.653 3.28-5.587 3.28-4.463 3.278-3.294 3.28-2.091 3.28-.867 3.279.365 3.279 1.595 3.28 2.808 3.279 3.992 3.279 5.136 3.28 6.226 3.279 7.255 3.279 8.208 3.28 9.079 3.279 9.856 3.279 10.533 3.28 11.103 3.279 11.559 3.279 11.898 3.28 12.115 3.279 12.21 3.279 12.178 3.28 12.024 3.279 11.747 3.279 11.35 3.28 10.836 3.279 10.214 3.279 9.486 3.28 8.662 3.279 7.75 3.279 6.758 3.28 5.698 3.279 4.58 3.279 3.415 3.28 2.215 3.279.992 3.279-.24 3.28-1.47 3.279-2.686 3.279-3.873 3.28-5.021 3.279-6.119" class="anim-draw" clip-path="url(#pb62ab90acd)" style="fill:none;stroke:#00ff02;stroke-width:2;stroke-linecap:square"/><path id="line2d_33" d="m74.756 155.377 3.28-12.135 3.279-11.642 3.28-10.675 3.279-9.274 3.279-7.495 3.28-5.411 3.279-3.109 3.279-.678 3.28 1.779 3.279 4.164 3.279 6.38 3.28 8.336 3.279 9.954 3.279 11.165 3.28 11.924 3.279 12.197 3.279 11.975 3.28 11.264 3.279 10.096 3.279 8.517 3.28 6.593 3.279 4.399 3.279 2.027 3.28-.428 3.279-2.865 3.279-5.186 3.28-7.296 3.279-9.109 3.279-10.55 3.28-11.566 3.279-12.107 3.279-12.159 3.28-11.714 3.279-10.794 3.279-9.434 3.28-7.692 3.279-5.635 3.279-3.35 3.28-.929 3.279 1.531 3.28 3.928 3.278 6.164 3.28 8.152 3.28 9.806 3.278 11.062 3.28 11.869 3.28 12.192 3.278 12.02 3.28 11.357 3.28 10.235 3.278 8.695 3.28 6.802 3.28 4.632 3.278 2.274 3.28-.177 3.28-2.621 3.278-4.958 3.28-7.093 3.28-8.94 3.278-10.423 3.28-11.483 3.28-12.074 3.279-12.176 3.279-11.782 3.28-10.909 3.279-9.591 3.279-7.884 3.28-5.857 3.279-3.59 3.279-1.179 3.28 1.282 3.279 3.69 3.279 5.946 3.28 7.963 3.279 9.656 3.279 10.954 3.28 11.808 3.279 12.182 3.279 12.06 3.28 11.446 3.279 10.37 3.279 8.869 3.28 7.008 3.279 4.863 3.279 2.52 3.28.073 3.279-2.375 3.279-4.728 3.28-6.887 3.279-8.768 3.279-10.29 3.28-11.396 3.279-12.037 3.279-12.188 3.28-11.844 3.279-11.019 3.279-9.744 3.28-8.074 3.279-6.075" class="anim-draw" clip-path="url(#pb62ab90acd)" style="fill:none;stroke:#00f;stroke-width:2;stroke-linecap:square"/><g class="patch"><path d="M58.523 288.43V22.318" class="anim-draw" style="fill:none;stroke:currentColor;stroke-width:.8;stroke-linejoin:miter;stroke-linecap:square"/></g><g class="patch"><path d="M415.643 288.43V22.318" class="anim-draw" style="fill:none;stroke:currentColor;stroke-width:.8;stroke-linejoin:miter;stroke-linecap:square"/></g><g class="patch"><path d="M58.523 288.43h357.12" class="anim-draw" style="fill:none;stroke:currentColor;stroke-width:.8;stroke-linejoin:miter;stroke-linecap:square"/></g><g class="patch"><path d="M58.523 22.318h357.12" class="anim-draw" style="fill:none;stroke:currentColor;stroke-width:.8;stroke-linejoin:miter;stroke-linecap:square"/></g><g id="text_18" class="text" transform="matrix(.12 0 0 -.12 182.7 16.318)"><defs><path id="DejaVuSans-4d" d="M628 4666h941l1190-3175 1197 3175h941V0h-616v4097L3078 897h-634L1241 4097V0H628z" class="anim-draw" transform="scale(.01563)"/><path id="DejaVuSans-75" d="M544 1381v2119h575V1403q0-497 193-746 194-248 582-248 465 0 735 297 271 297 271 810v1984h575V0h-575v538q-209-319-486-474-276-155-642-155-603 0-916 375-312 375-312 1097m1447 2203" class="anim-draw" transform="scale(.01563)"/><path id="DejaVuSans-6c" d="M603 4863h575V0H603z" class="anim-draw" transform="scale(.01563)"/><path id="DejaVuSans-74" d="M1172 4494v-994h1184v-447H1172V1153q0-428 117-550t477-122h590V0h-590q-666 0-919 248-253 249-253 905v1900H172v447h422v994z" class="anim-draw" transform="scale(.01563)"/><path id="DejaVuSans-69" d="M603 3500h575V0H603zm0 1363h575v-729H603z" class="anim-draw" transform="scale(.01563)"/><path id="DejaVuSans-70" d="M1159 525v-1856H581v4831h578v-531q182 312 458 463 277 152 661 152 638 0 1036-506 399-506 399-1331T3314 415Q2916-91 2278-91q-384 0-661 152-276 152-458 464m1957 1222q0 634-261 995t-717 361q-457 0-718-361t-261-995 261-995 718-361q456 0 717 361t261 995" class="anim-draw" transform="scale(.01563)"/><path id="DejaVuSans-65" d="M3597 1894v-281H953q38-594 358-905t892-311q331 0 642 81t618 244V178Q3153 47 2828-22t-659-69q-838 0-1327 487-489 488-489 1320 0 859 464 1363 464 505 1252 505 706 0 1117-455 411-454 411-1235m-575 169q-6 471-264 752-258 282-683 282-481 0-770-272t-333-766z" class="anim-draw" transform="scale(.01563)"/><path id="DejaVuSans-46" d="M628 4666h2681v-532H1259V2759h1850v-531H1259V0H628z" class="anim-draw" transform="scale(.01563)"/><path id="DejaVuSans-6e" d="M3513 2113V0h-575v2094q0 497-194 743-194 247-581 247-466 0-735-297-269-296-269-809V0H581v3500h578v-544q207 316 486 472 280 156 646 156 603 0 912-373 310-373 310-1098" class="anim-draw" transform="scale(.01563)"/><path id="DejaVuSans-63" d="M3122 3366v-538q-244 135-489 202t-495 67q-560 0-870-355-309-354-309-995t309-996q310-354 870-354 250 0 495 67t489 202V134Q2881 22 2623-34q-257-57-548-57-791 0-1257 497-465 497-465 1341 0 856 470 1346 471 491 1290 491 265 0 518-55 253-54 491-163" class="anim-draw" transform="scale(.01563)"/><path id="DejaVuSans-6f" d="M1959 3097q-462 0-731-361t-269-989 267-989q268-361 733-361 460 0 728 362 269 363 269 988 0 622-269 986-268 364-728 364m0 487q750 0 1178-488 429-487 429-1349 0-859-429-1349Q2709-91 1959-91q-753 0-1180 489-426 490-426 1349 0 862 426 1349 427 488 1180 488" class="anim-draw" transform="scale(.01563)"/><path id="DejaVuSans-73" d="M2834 3397v-544q-243 125-506 187-262 63-544 63-428 0-642-131t-214-394q0-200 153-314t616-217l197-44q612-131 870-370t258-667q0-488-386-773Q2250-91 1575-91q-281 0-586 55T347 128v594q319-166 628-249 309-82 613-82 406 0 624 139 219 139 219 392 0 234-158 359-157 125-692 241l-200 47q-534 112-772 345-237 233-237 639 0 494 350 762 350 269 994 269 318 0 599-47 282-46 519-140" class="anim-draw" transform="scale(.01563)"/></defs><use xlink:href="#DejaVuSans-4d"/><use xlink:href="#DejaVuSans-75" transform="translate(86.28)"/><use xlink:href="#DejaVuSans-6c" transform="translate(149.658)"/><use xlink:href="#DejaVuSans-74" transform="translate(177.441)"/><use xlink:href="#DejaVuSans-69" transform="translate(216.65)"/><use xlink:href="#DejaVuSans-70" transform="translate(244.434)"/><use xlink:href="#DejaVuSans-6c" transform="translate(307.91)"/><use xlink:href="#DejaVuSans-65" transform="translate(335.693)"/><use xlink:href="#DejaVuSans-46" transform="translate(429.004)"/><use xlink:href="#DejaVuSans-75" transform="translate(481.023)"/><use xlink:href="#DejaVuSans-6e" transform="translate(544.402)"/><use xlink:href="#DejaVuSans-63" transform="translate(607.781)"/><use xlink:href="#DejaVuSans-74" transform="translate(662.762)"/><use xlink:href="#DejaVuSans-69" transform="translate(701.97)"/><use xlink:href="#DejaVuSans-6f" transform="translate(729.754)"/><use xlink:href="#DejaVuSans-6e" transform="translate(790.936)"/><use xlink:href="#DejaVuSans-73" transform="translate(854.314)"/></g><g class="legend"><g class="patch"><path d="M65.523 283.43h90.596q2 0 2-2v-43.034q0-2-2-2H65.523q-2 0-2 2v43.034q0 2 2 2z" class="anim-draw" style="fill:rgba(255,255,255,.8)!important;opacity:.8;stroke:rgba(0,0,0,.1)!important;stroke-linejoin:miter"/></g><path id="line2d_34" d="M67.523 244.494h20" class="anim-draw" style="fill:none;stroke:#ff0001;stroke-width:2;stroke-linecap:square"/><g id="text_19" class="text" transform="matrix(.1 0 0 -.1 95.523 247.994)"><defs><path id="DejaVuSans-28" d="M1984 4856q-418-718-622-1422-203-703-203-1425 0-721 205-1429t620-1424h-500Q1016-109 783 600T550 2009q0 697 231 1403 232 707 703 1444z" class="anim-draw" transform="scale(.01563)"/><path id="DejaVuSans-29" d="M513 4856h500q468-737 701-1444 233-706 233-1403 0-700-233-1409T1013-844H513q415 716 620 1424t205 1429q0 722-205 1425-205 704-620 1422" class="anim-draw" transform="scale(.01563)"/></defs><use xlink:href="#DejaVuSans-73"/><use xlink:href="#DejaVuSans-69" transform="translate(52.1)"/><use xlink:href="#DejaVuSans-6e" transform="translate(79.883)"/><use xlink:href="#DejaVuSans-28" transform="translate(143.262)"/><use xlink:href="#DejaVuSans-78" transform="translate(182.275)"/><use xlink:href="#DejaVuSans-29" transform="translate(241.455)"/></g><path id="line2d_35" d="M67.523 259.172h20" class="anim-draw" style="fill:none;stroke:#00ff02;stroke-width:2;stroke-linecap:square"/><g id="text_20" class="text" transform="matrix(.1 0 0 -.1 95.523 262.672)"><use xlink:href="#DejaVuSans-63"/><use xlink:href="#DejaVuSans-6f" transform="translate(54.98)"/><use xlink:href="#DejaVuSans-73" transform="translate(116.162)"/><use xlink:href="#DejaVuSans-28" transform="translate(168.262)"/><use xlink:href="#DejaVuSans-78" transform="translate(207.275)"/><use xlink:href="#DejaVuSans-29" transform="translate(266.455)"/></g><path id="line2d_36" d="M67.523 273.85h20" class="anim-draw" style="fill:none;stroke:#00f;stroke-width:2;stroke-linecap:square"/><g id="text_21" class="text" transform="matrix(.1 0 0 -.1 95.523 277.35)"><use xlink:href="#DejaVuSans-73"/><use xlink:href="#DejaVuSans-69" transform="translate(52.1)"/><use xlink:href="#DejaVuSans-6e" transform="translate(79.883)"/><use xlink:href="#DejaVuSans-28" transform="translate(143.262)"/><use xlink:href="#DejaVuSans-78" transform="translate(182.275)"/><use xlink:href="#DejaVuSans-29" transform="translate(241.455)"/><use xlink:href="#DejaVuSans-63" transform="translate(280.469)"/><use xlink:href="#DejaVuSans-6f" transform="translate(335.45)"/><use xlink:href="#DejaVuSans-73" transform="translate(396.63)"/><use xlink:href="#DejaVuSans-28" transform="translate(448.73)"/><use xlink:href="#DejaVuSans-78" transform="translate(487.744)"/><use xlink:href="#DejaVuSans-29" transform="translate(546.924)"/></g></g></g></g><defs><clipPath id="pb62ab90acd"><path d="M58.523 22.318h357.12V288.43H58.523z"/></clipPath></defs><script>document.addEventListener(&apos;DOMContentLoaded&apos;,()=&gt;{
        document.querySelectorAll(&apos;.anim-draw&apos;).forEach(p=&gt;{
            if(p.getTotalLength){
                const L=p.getTotalLength();
                p.style.setProperty(&apos;--len&apos;,L);
                p.setAttribute(&apos;stroke-dasharray&apos;,L);
                p.setAttribute(&apos;stroke-dashoffset&apos;,L);
            }
        });
    });</script></svg>