<svg xmlns="http://www.w3.org/2000/svg" xmlns:xlink="http://www.w3.org/1999/xlink" width="430.471" height="212.087" class="math" viewBox="0 0 430.471 212.087"><style>.glyph{fill:#000!important}path{stroke:#000!important}@media (prefers-color-scheme:dark){.glyph{fill:#fff!important}path{stroke:#fff!important}}</style><defs><path id="neuron_glyph-0-0" d="M4.563-1.281c0-.047-.032-.11-.11-.11-.11 0-.11.032-.156.172-.203.64-.719 1.094-1.188 1.094-.25 0-.5-.156-.5-.594 0-.203.125-.687.204-1.031l.296-1.187c.11-.329.375-.797.844-.797.156 0 .328.015.453.109a.504.504 0 0 0-.422.484c0 .172.125.329.344.329.25 0 .5-.22.5-.532 0-.422-.453-.625-.875-.625-.531 0-.844.485-.953.672a1.04 1.04 0 0 0-1-.672c-.953 0-1.484 1.156-1.484 1.39 0 .079.062.11.125.11.078 0 .109-.047.125-.11.28-.89.875-1.155 1.218-1.155.266 0 .485.172.485.593 0 .313-.375 1.75-.5 2.188-.063.265-.344.828-.828.828-.188 0-.375-.062-.453-.11.234-.046.421-.265.421-.484 0-.234-.171-.328-.343-.328-.266 0-.5.219-.5.531 0 .438.484.61.859.61.531 0 .828-.422.969-.672.219.594.75.672.984.672.969 0 1.485-1.156 1.485-1.375Zm0 0"/><path id="neuron_glyph-0-1" d="M1.766-.484A.487.487 0 0 0 1.28-.97a.477.477 0 0 0-.484.485C.797-.22 1 0 1.28 0a.487.487 0 0 0 .485-.484Zm0 0"/><path id="neuron_glyph-0-2" d="M3.828-2.516c0-.906-.578-1.453-1.25-1.453-.453 0-.844.313-1.047.516l.61-2.469c.03-.125.03-.14.03-.172 0-.078-.046-.125-.124-.125-.125 0-.922.063-1.094.078-.094.016-.187.032-.187.172 0 .125.093.125.234.125.422 0 .422.063.422.14 0 .048 0 .079-.063.313L.891-3.5.547-2.11a2.8 2.8 0 0 0-.125.766C.422-.562.859.094 1.625.094c1.047 0 2.203-1.266 2.203-2.61Zm-.672-.375c0 .391-.25 1.516-.531 1.985-.328.578-.719.781-1 .781C1.172-.125 1-.578 1-1.031c0-.313.063-.563.266-1.375l.14-.531c.25-.36.703-.797 1.157-.797.421 0 .593.422.593.843Zm0 0"/><path id="neuron_glyph-0-3" d="M5.031-5.687c0-.407-.39-.641-.812-.641-.407 0-.813.297-1 .656-.203.39-.266.734-.453 1.813h-.641c-.172 0-.281 0-.281.156 0 .11.11.11.265.11h.61L1.953.436c-.11.5-.25 1.172-.672 1.172-.14 0-.328-.046-.406-.125.219-.03.438-.218.438-.484 0-.234-.172-.328-.329-.328a.51.51 0 0 0-.5.531c0 .422.407.64.797.64.907 0 1.328-1.5 1.469-2.265l.61-3.172h.796c.188 0 .282 0 .282-.156 0-.11-.094-.11-.266-.11h-.766c.094-.546.219-1.28.344-1.765.078-.344.297-.469.469-.469.062 0 .265.016.422.125-.188.032-.438.188-.438.485 0 .234.172.328.328.328.25 0 .5-.203.5-.532Zm0 0"/><path id="neuron_glyph-0-4" d="M4.5-3.453c.016-.047.031-.094.031-.156 0-.11-.078-.25-.281-.25a.37.37 0 0 0-.344.234l-.156.61-.453 1.78c-.063.266-.063.282-.094.36 0 .047-.375.75-1.031.75-.547 0-.547-.562-.547-.734 0-.407.11-.844.5-1.844.078-.219.125-.344.125-.5a.74.74 0 0 0-.766-.766c-.859 0-1.218 1.281-1.218 1.39 0 .079.062.11.125.11.093 0 .109-.062.14-.172.188-.671.547-1.093.922-1.093.219 0 .219.172.219.297 0 .14-.047.312-.125.515-.422 1.125-.531 1.5-.531 1.922 0 1 .812 1.094 1.14 1.094.438 0 .75-.235.906-.39-.109.452-.203.859-.562 1.312-.266.359-.625.593-1.016.593-.25 0-.546-.078-.671-.328a.5.5 0 0 0 .53-.484c0-.203-.14-.328-.343-.328S.5.64.5 1.047c0 .469.422.797.984.797.907 0 1.891-.782 2.141-1.828Zm0 0"/><path id="neuron_glyph-0-5" d="M6.36-3.312c0-.626-.329-.657-.407-.657-.234 0-.469.235-.469.438 0 .14.079.219.141.265.25.22.328.516.328.75 0 .266-.219 1.094-.484 1.61-.203.39-.516.781-1 .781-.672 0-.672-.625-.672-.797 0-.234.047-.422.125-.734l.36-1.406c.046-.188.124-.5.124-.547 0-.11-.078-.25-.281-.25a.37.37 0 0 0-.344.234l-.5 2.016c-.062.218-.094.359-.094.578.032.218-.109.422-.234.593-.203.25-.39.313-.578.313-.328 0-.75-.14-.75-.812 0-.47.234-1.094.516-1.829.046-.125.109-.28.109-.437a.74.74 0 0 0-.766-.766c-.859 0-1.218 1.281-1.218 1.39 0 .079.062.11.125.11.093 0 .109-.062.14-.172.188-.656.547-1.093.922-1.093.172 0 .219.109.219.297 0 .14-.047.312-.125.515-.438 1.156-.531 1.485-.531 1.86 0 1.03.875 1.156 1.328 1.156.344 0 .672-.14.937-.61.266.532.828.61 1.172.61.625 0 1.016-.469 1.313-1.047.25-.531.593-1.813.593-2.36Zm0 0"/><path id="neuron_glyph-0-6" d="M4.031-1.297c0-.078-.062-.11-.125-.11-.094 0-.11.063-.125.11-.25.656-.89.766-1.125.766-.156 0-.344-.047-.61-.14-.187-.048-.39-.126-.577-.126-.094 0-.188.031-.219.031.188-.218.672-.671 1.063-1 .671-.562.874-.75.984-.875.734-.718.984-1.171.984-1.218 0 0 0-.11-.125-.11-.078 0-.093.031-.14.11-.11.172-.36.562-.657.562-.187 0-.296-.11-.5-.328-.218-.234-.39-.344-.625-.344-.687 0-1.109.828-1.109 1.047 0 .031.016.11.11.11.093 0 .124-.063.124-.079.172-.437.704-.437.782-.437.203 0 .422.062.609.14.36.11.516.11.656.11-.281.312-.781.75-1.36 1.234-.437.375-.718.657-.921.844-.328.36-.734.906-.734 1 0 .063.046.094.125.094.078 0 .093-.031.14-.078.344-.547.688-.578.782-.578.218 0 .343.125.546.359s.407.297.579.297c.921 0 1.468-1.14 1.468-1.39Zm0 0"/><path id="neuron_glyph-1-0" d="M3.016 0v-.234h-.25c-.625 0-.625-.078-.625-.282v-3.28c0-.188-.016-.188-.203-.188-.391.39-1 .39-1.22.39v.235c.157 0 .563 0 .923-.172v3.015c0 .204 0 .282-.625.282h-.25V0c.328-.031.797-.031 1.125-.031s.797 0 1.125.031Zm0 0"/><path id="neuron_glyph-2-0" d="M4.234-.86s0-.093-.109-.093c-.078 0-.094.031-.125.156-.094.313-.344.656-.656.656-.11 0-.156-.093-.156-.218 0-.11.046-.22.093-.344.094-.235.36-.906.36-1.235 0-.5-.375-.703-.828-.703-.297 0-.672.094-1.063.563-.031-.453-.453-.563-.672-.563-.234 0-.39.141-.484.329-.156.25-.235.562-.235.593 0 .063.063.078.11.078.094 0 .11-.03.14-.125.11-.484.266-.671.454-.671.218 0 .218.234.218.296 0 .094-.062.344-.11.5l-.124.547-.125.453c-.047.172-.11.47-.11.5 0 .141.094.204.204.204s.218-.079.265-.172l.094-.36L1.5-1l.11-.406c.046-.203.25-.516.484-.735a.98.98 0 0 1 .687-.296c.39 0 .39.296.39.421 0 .344-.25.985-.358 1.25a.8.8 0 0 0-.079.313c0 .297.266.516.594.516.61 0 .906-.797.906-.922Zm0 0"/><path id="neuron_glyph-2-1" d="M2.781-3.734c0-.172-.14-.235-.25-.235-.187 0-.328.188-.328.328a.23.23 0 0 0 .235.235c.156 0 .343-.14.343-.328Zm-.25 1.875c.016-.063.031-.125.031-.203 0-.344-.296-.579-.687-.579-.672 0-1.094.813-1.094.922 0 .032.031.078.11.078.078 0 .093-.015.125-.093.187-.391.515-.703.843-.703.188 0 .22.14.22.296 0 .079 0 .157-.017.172L1.5.266c-.11.453-.469.75-.812.75C.672 1.016.5 1.016.5 1L.516.969C.609.89.656.797.656.719.656.516.5.484.406.484a.333.333 0 0 0-.328.344c0 .328.375.39.61.39C1.094 1.219 1.813 1 2 .282Zm0 0"/><path id="neuron_glyph-3-0" d="M6.14-2.125h-.25C5.704-.656 5.157-.391 3.657-.391H1.094l2.312-2.53c.078-.095.078-.11.078-.142 0 0 0-.062-.062-.14l-1.875-2.64h2.125c1.406 0 2.031.218 2.219 1.734h.25l-.25-2.016H.75c-.187 0-.234 0-.234.203l2.297 3.25L.608-.266c-.078.094-.093.11-.093.157C.516 0 .609 0 .75 0h5.14Zm0 0"/><path id="neuron_glyph-3-1" d="M3.063 2.14c0-.046-.032-.078-.079-.14C1.828.938 1.47-.672 1.47-2.25c0-1.375.265-3.062 1.531-4.266.047-.046.063-.062.063-.109a.107.107 0 0 0-.11-.11c-.11 0-.922.657-1.406 1.626-.422.859-.64 1.797-.64 2.859 0 .64.077 1.672.577 2.719.532 1.11 1.36 1.765 1.47 1.765.062 0 .108-.03.108-.093Zm0 0"/><path id="neuron_glyph-3-2" d="M2.672-2.25c0-.734-.11-1.719-.578-2.719C1.563-6.079.734-6.734.625-6.734c-.094 0-.11.078-.11.109 0 .047.016.063.079.125.531.469 1.515 1.688 1.515 4.25C2.11-.969 1.875.813.58 2.031c-.016.016-.063.063-.063.11 0 .015.015.093.109.093.11 0 .922-.64 1.406-1.625.422-.859.64-1.78.64-2.859Zm0 0"/><path id="neuron_glyph-4-0" d="M7.156.531c.328-.531.063-.734 0-.765-.203-.125-.531-.047-.64.125-.079.125-.032.218-.016.297.11.312.016.609-.11.812-.14.234-.765.813-1.25 1.11-.406.218-.874.39-1.28.14-.563-.36-.235-.89-.141-1.031.125-.203.25-.328.484-.563L5.25-.359c.14-.125.375-.344.406-.375.047-.094.047-.266-.125-.375a.35.35 0 0 0-.406.015L3.641.36C3.469.5 3.359.61 3.25.797c-.094.203-.312.312-.5.39-.312.11-.516.047-.672-.046-.281-.172-.562-.5-.203-1.078.234-.407.766-.813 1.39-1.282.11-.078.25-.187.329-.312.234-.39.14-.828-.235-1.063-.734-.453-1.718.453-1.78.547-.048.063 0 .125.046.156.078.047.125 0 .219-.078.5-.453 1.047-.64 1.36-.437.14.094.124.203.03.36-.078.124-.218.25-.39.374-.969.75-1.235.984-1.422 1.297-.547.875.14 1.453.531 1.688.281.187.64.234 1.11-.016-.063.594.39.953.671 1.125.532.328 1.125.14 1.672-.203C5.891 1.906 6.86 1 7.156.53Zm0 0"/><path id="neuron_glyph-5-0" d="m2.563 1.594.124-.203-.218-.141c-.531-.328-.485-.39-.39-.562L3.811-2.11c.094-.157.094-.157-.078-.266-.53.125-1.046-.187-1.234-.312l-.125.203c.14.078.484.297.875.343L1.656.422c-.093.172-.14.234-.672-.094L.781.203.656.406c.297.14.688.39.969.563s.672.422.938.625Zm0 0"/><path id="neuron_glyph-6-0" d="M3.656-6.156c-.328-.532-.625-.39-.687-.36-.203.125-.281.454-.172.625.078.125.187.157.265.141.329.063.547.266.672.469.141.234.391 1.062.438 1.64.031.438-.031.922-.438 1.172-.562.36-.89-.172-.984-.312-.125-.203-.187-.39-.297-.688l-.422-1.39c-.078-.188-.156-.5-.187-.532-.047-.093-.203-.171-.375-.062a.35.35 0 0 0-.157.39l.641 1.954c.047.234.094.375.203.562.156.172.125.406.125.61-.031.328-.172.484-.328.578-.281.172-.719.28-1.078-.297C.641-2.063.515-2.72.359-3.47a1.1 1.1 0 0 0-.14-.437c-.235-.39-.672-.485-1.047-.25-.734.453-.375 1.734-.313 1.828a.127.127 0 0 0 .172.031c.078-.047.063-.125.031-.234-.187-.64-.109-1.203.204-1.406.14-.094.25-.016.343.14.079.125.125.281.172.5C0-2.078.11-1.75.297-1.437c.547.875 1.36.515 1.75.28.281-.187.484-.484.484-1.015.5.313 1.016.078 1.297-.094.531-.328.625-.921.578-1.578-.078-.594-.453-1.844-.75-2.312Zm0 0"/><path id="neuron_glyph-7-0" d="M3.14-2.969s-.046-.078-.14-.015c-.062.046-.062.078-.016.203.094.312.047.734-.218.89-.094.063-.188.016-.25-.093-.063-.094-.063-.203-.094-.344-.047-.25-.172-.969-.344-1.235C1.813-4 1.391-3.968 1-3.733c-.25.156-.531.437-.61 1.047-.25-.376-.671-.25-.859-.126-.203.126-.265.329-.25.532 0 .297.11.61.125.625.031.062.094.047.14.015.079-.046.063-.078.032-.187-.156-.453-.11-.703.047-.813.188-.109.313.094.344.157.047.078.11.312.172.484l.172.516.125.453c.062.172.156.468.171.484.079.125.188.11.282.063a.36.36 0 0 0 .14-.282l-.11-.359-.171-.516-.11-.406c-.078-.203-.078-.578.016-.875.031-.156.156-.453.422-.625.344-.203.5.063.563.156.187.297.297.985.343 1.25a.7.7 0 0 0 .11.313c.156.25.484.297.765.125.516-.328.344-1.156.282-1.266Zm0 0"/><path id="neuron_glyph-8-0" d="M1.75 0v-6.219H.875V0Zm0 0"/><path id="neuron_glyph-8-1" d="M4.11 0v-2.656c0-.672-.188-1.422-1.298-1.422-.718 0-1.156.406-1.374.672v-.625H.734V0H1.5v-2.187c0-.594.234-1.313.938-1.313.906 0 .906.64.906.906V0Zm0 0"/><path id="neuron_glyph-8-2" d="M4.516-2c0-1.078-.578-2.078-1.47-2.078-.25 0-.921.047-1.562.531v-.437H.766v5.718h.75v-2.14c.343.312.797.5 1.265.5.938 0 1.735-.89 1.735-2.094Zm-.766.016c0 .859-.64 1.5-1.344 1.5-.297 0-.625-.11-.89-.563v-1.937c.125-.157.453-.485.984-.485.688 0 1.25.64 1.25 1.485Zm0 0"/><path id="neuron_glyph-8-3" d="M4.11 0v-3.984h-.766v2.593c0 .72-.578.954-1.125.954-.656 0-.719-.204-.719-.579v-2.968H.734v3c0 .765.313 1.078.97 1.078.53 0 1.234-.14 1.671-.531V0Zm0 0"/><path id="neuron_glyph-8-4" d="m3.125-.234-.156-.563a1.5 1.5 0 0 1-.844.281c-.36 0-.469-.312-.469-.78v-2.126H2.97v-.562H1.656v-1.141H.984v1.14H.172v.563h.781v2.297c0 .531.11 1.219.781 1.219.407 0 .875-.078 1.391-.328Zm0 0"/><path id="neuron_glyph-8-5" d="M3.375-1.156c0-.313-.125-.625-.437-.89-.313-.267-.594-.329-1.157-.423C1.453-2.53 1-2.625 1-3.047c0-.515.64-.515.781-.515.672 0 1.063.203 1.328.343l.125-.625c-.578-.25-1-.297-1.375-.297-.203 0-1.546 0-1.546 1.188 0 .437.265.703.359.797.36.297.594.344 1.219.469.28.046.812.14.812.609 0 .578-.75.578-.86.578A2.63 2.63 0 0 1 .392-.953l-.125.656c.547.281 1.109.39 1.578.39.593 0 1.531-.187 1.531-1.25Zm0 0"/><path id="neuron_glyph-8-6" d="M4.688-1.719c0-1-.844-1.672-1.532-1.828l-.922-.219c-.468-.109-.937-.468-.937-.984s.5-1.031 1.328-1.031c.672 0 1.125.187 1.594.578l.156-.781c-.469-.22-.906-.438-1.734-.438-1.297 0-2.125.89-2.125 1.781 0 .235.046.594.359 1 .422.532 1.016.672 1.39.766l.766.188c.422.124.875.515.875 1.078 0 .593-.515 1.14-1.328 1.14-.734 0-1.437-.281-2.015-.734l-.141.781c.89.547 1.719.625 2.156.625 1.25 0 2.11-.922 2.11-1.922Zm0 0"/><path id="neuron_glyph-8-7" d="M6.703 0v-2.656c0-.672-.172-1.422-1.281-1.422-.766 0-1.203.453-1.422.734-.062-.187-.25-.734-1.187-.734-.72 0-1.157.406-1.376.672v-.625H.735V0H1.5v-2.187c0-.594.234-1.313.938-1.313.906 0 .906.64.906.906V0h.765v-2.187c0-.594.235-1.313.922-1.313.922 0 .922.64.922.906V0Zm0 0"/><path id="neuron_glyph-8-8" d="M3.86 0v-2.594c0-.89-.672-1.547-1.579-1.547-.594 0-1.031.157-1.469.407l.063.625c.453-.328.89-.453 1.406-.453.5 0 .813.39.813.984v.375C1.53-2.172.5-1.766.5-1.047.5-.625.781.093 1.578.093c.172 0 .969-.015 1.547-.437V0Zm-.766-1.25c0 .188 0 .406-.328.594-.22.14-.532.172-.703.172-.47 0-.86-.22-.86-.578 0-.625 1.781-.657 1.89-.657Zm0 0"/><path id="neuron_glyph-8-9" d="M1.484 0v-3.984H.75V0Zm.079-5.047v-.86H.688v.86Zm0 0"/><path id="neuron_glyph-8-10" d="M4.422-1.969c0-1.172-.922-2.172-2.078-2.172-1.14 0-2.063.97-2.063 2.172A2.06 2.06 0 0 0 2.344.094c1.125 0 2.078-.906 2.078-2.063Zm-.766-.093c0 1.046-.64 1.546-1.312 1.546-.703 0-1.313-.53-1.313-1.546 0-1.047.688-1.485 1.313-1.485.656 0 1.312.453 1.312 1.485Zm0 0"/><path id="neuron_glyph-8-11" d="M6 0 3.563-6.219h-.844L.266 0h.718l.704-1.781H4.39L5.094 0ZM4.172-2.312H1.906l1.125-3.25Zm0 0"/><path id="neuron_glyph-8-12" d="m3.906-.328-.062-.64a2.55 2.55 0 0 1-1.469.452C1.594-.516 1.094-1.14 1.094-2c0-.687.343-1.531 1.312-1.531.578 0 .875.11 1.328.422l.125-.625c-.515-.297-.796-.407-1.453-.407C1.11-4.14.328-3.062.328-1.984c0 1.109.844 2.078 2.047 2.078.625 0 1.11-.188 1.531-.422Zm0 0"/><path id="neuron_glyph-8-13" d="M4.203-3.984H3.47c-.39.984-.39 1-.719 1.828-.187.469-.516 1.328-.562 1.656h-.016c-.031-.14-.047-.312-.547-1.61l-.75-1.874h-.75L1.735 0h.859Zm0 0"/><path id="neuron_glyph-8-14" d="M3.25-5.594v-.625c-.11-.031-.39-.11-.75-.11-.875 0-1.562.657-1.562 1.563v.782H.25v.562h.688V0h.734v-3.422h1.016v-.562H1.64v-1.032c0-.656.593-.718.859-.718.078 0 .375 0 .75.14Zm0 0"/><path id="neuron_glyph-8-15" d="M6.406-3.078c0-1.906-1.36-3.344-2.937-3.344C1.89-6.422.516-4.984.516-3.078.516-1.218 1.89.203 3.469.203s2.937-1.422 2.937-3.281Zm-.875-.14c0 1.687-.984 2.78-2.062 2.78-1.094 0-2.063-1.093-2.063-2.78 0-1.641 1.016-2.594 2.063-2.594 1.031 0 2.062.953 2.062 2.593Zm0 0"/><clipPath id="neuron_clip-0"><path d="M43 157h58v55.086H43Zm0 0"/></clipPath></defs><path fill="none" stroke="currentColor" stroke-miterlimit="10" stroke-width=".996" d="M14.172 0c0 7.828-6.344 14.172-14.172 14.172S-14.172 7.828-14.172 0-7.828-14.172 0-14.172 14.172-7.828 14.172 0Zm0 0" transform="matrix(1 0 0 -1 71.969 70.082)"/><use xlink:href="#neuron_glyph-0-0" x="67.281" y="71.514" fill="currentColor" class="glyph"/><use xlink:href="#neuron_glyph-1-0" x="72.505" y="72.511" fill="currentColor" class="glyph"/><path fill="none" stroke="currentColor" stroke-miterlimit="10" stroke-width=".996" d="M14.172-57.691c0 7.828-6.344 14.175-14.172 14.175s-14.172-6.347-14.172-14.175S-7.828-71.863 0-71.863s14.172 6.343 14.172 14.172Zm0 0" transform="matrix(1 0 0 -1 71.969 70.082)"/><use xlink:href="#neuron_glyph-0-1" x="66.593" y="128.256" fill="currentColor" class="glyph"/><use xlink:href="#neuron_glyph-0-1" x="70.686" y="128.256" fill="currentColor" class="glyph"/><use xlink:href="#neuron_glyph-0-1" x="74.788" y="128.256" fill="currentColor" class="glyph"/><g clip-path="url(#neuron_clip-0)"><path fill="none" stroke="currentColor" stroke-miterlimit="10" stroke-width=".996" d="M14.172-115.379c0 7.828-6.344 14.172-14.172 14.172s-14.172-6.344-14.172-14.172S-7.828-129.555 0-129.555s14.172 6.348 14.172 14.176Zm0 0" transform="matrix(1 0 0 -1 71.969 70.082)"/></g><use xlink:href="#neuron_glyph-0-0" x="66.807" y="186.893" fill="currentColor" class="glyph"/><use xlink:href="#neuron_glyph-2-0" x="72.031" y="187.889" fill="currentColor" class="glyph"/><path fill="none" stroke="currentColor" stroke-miterlimit="10" stroke-width=".996" d="M114.383-57.691c0 11.742-9.516 21.261-21.258 21.261S71.863-45.95 71.863-57.69c0-11.739 9.52-21.258 21.262-21.258s21.258 9.52 21.258 21.258Zm0 0" transform="matrix(1 0 0 -1 71.969 70.082)"/><use xlink:href="#neuron_glyph-3-0" x="161.763" y="130.86" fill="currentColor" class="glyph"/><path fill="none" stroke="currentColor" stroke-miterlimit="10" stroke-width=".996" d="M107.297 7.086c0 7.828-6.344 14.176-14.172 14.176S78.949 14.914 78.949 7.086 85.297-7.086 93.125-7.086s14.172 6.344 14.172 14.172Zm0 0" transform="matrix(1 0 0 -1 71.969 70.082)"/><use xlink:href="#neuron_glyph-0-2" x="163.116" y="66.109" fill="currentColor" class="glyph"/><path fill="none" stroke="currentColor" stroke-miterlimit="10" stroke-width=".996" d="M172.074-71.863h42.52v28.347h-42.52Zm0 0" transform="matrix(1 0 0 -1 71.969 70.082)"/><use xlink:href="#neuron_glyph-0-3" x="262.575" y="130.013" fill="currentColor" class="glyph"/><path fill="none" stroke="currentColor" stroke-miterlimit="10" stroke-width=".996" d="M300.629-57.691c0 7.828-6.344 14.175-14.172 14.175s-14.172-6.347-14.172-14.175 6.344-14.172 14.172-14.172 14.172 6.343 14.172 14.172Zm0 0" transform="matrix(1 0 0 -1 71.969 70.082)"/><use xlink:href="#neuron_glyph-0-4" x="355.992" y="128.83" fill="currentColor" class="glyph"/><path fill="none" stroke="currentColor" stroke-miterlimit="10" stroke-width=".996" d="m12.472-7.727 57.625-35.699" transform="matrix(1 0 0 -1 71.969 70.082)"/><path fill="currentColor" stroke="currentColor" stroke-miterlimit="10" stroke-width=".996" d="M7.085 0 1.607 2.07 3.422.002l-1.815-2.07Zm0 0" class="glyph" transform="rotate(211.778 85.601 36.082)scale(-.99995 .99995)"/><use xlink:href="#neuron_glyph-4-0" x="113.482" y="90.136" fill="currentColor" class="glyph"/><use xlink:href="#neuron_glyph-5-0" x="118.571" y="94.46" fill="currentColor" class="glyph"/><path fill="none" stroke="currentColor" stroke-miterlimit="10" stroke-width=".996" d="M14.672-57.691h51.363" transform="matrix(1 0 0 -1 71.969 70.082)"/><path fill="currentColor" stroke="currentColor" stroke-miterlimit="10" stroke-width=".996" d="m7.084-.002-5.477 2.07 1.817-2.07-1.817-2.07Zm0 0" class="glyph" transform="matrix(1 0 0 -1 134.83 127.772)"/><use xlink:href="#neuron_glyph-0-5" x="109.733" y="121.794" fill="currentColor" class="glyph"/><use xlink:href="#neuron_glyph-2-1" x="116.337" y="122.79" fill="currentColor" class="glyph"/><path fill="none" stroke="currentColor" stroke-miterlimit="10" stroke-width=".996" d="m12.472-107.652 57.625 35.699" transform="matrix(1 0 0 -1 71.969 70.082)"/><path fill="currentColor" stroke="currentColor" stroke-miterlimit="10" stroke-width=".996" d="M7.085 0 1.608 2.07 3.422 0 1.607-2.07Zm0 0" class="glyph" transform="rotate(148.222 49.23 91.69)scale(-.99995 .99995)"/><use xlink:href="#neuron_glyph-6-0" x="108.008" y="157.47" fill="currentColor" class="glyph"/><use xlink:href="#neuron_glyph-7-0" x="114.147" y="154.84" fill="currentColor" class="glyph"/><path fill="none" stroke="currentColor" stroke-miterlimit="10" stroke-width=".996" d="M93.125-7.586v-23.016" transform="matrix(1 0 0 -1 71.969 70.082)"/><path fill="currentColor" stroke="currentColor" stroke-miterlimit="10" stroke-width=".996" d="m7.084.001-5.476 2.07L3.424.002l-1.816-2.07Zm0 0" class="glyph" transform="matrix(0 1 1 0 165.092 97.51)"/><path fill="none" stroke="currentColor" stroke-miterlimit="10" stroke-width=".996" d="M114.883-57.691h51.363" transform="matrix(1 0 0 -1 71.969 70.082)"/><path fill="currentColor" stroke="currentColor" stroke-miterlimit="10" stroke-width=".996" d="m7.085-.002-5.477 2.07 1.817-2.07-1.817-2.07Zm0 0" class="glyph" transform="matrix(1 0 0 -1 235.04 127.772)"/><path fill="none" stroke="currentColor" stroke-miterlimit="10" stroke-width=".996" d="M215.094-57.691h51.363" transform="matrix(1 0 0 -1 71.969 70.082)"/><path fill="currentColor" stroke="currentColor" stroke-miterlimit="10" stroke-width=".996" d="m7.086-.002-5.477 2.07 1.813-2.07-1.813-2.07Zm0 0" class="glyph" transform="matrix(1 0 0 -1 335.25 127.772)"/><path fill="none" stroke="currentColor" stroke-miterlimit="10" stroke-width=".996" d="M114.883-57.691h51.363" transform="matrix(1 0 0 -1 71.969 70.082)"/><path fill="currentColor" stroke="currentColor" stroke-miterlimit="10" stroke-width=".996" d="m7.085-.002-5.477 2.07 1.817-2.07-1.817-2.07Zm0 0" class="glyph" transform="matrix(1 0 0 -1 235.04 127.772)"/><use xlink:href="#neuron_glyph-3-1" x="209.275" y="121.711" fill="currentColor" class="glyph"/><use xlink:href="#neuron_glyph-0-6" x="212.859" y="121.711" fill="currentColor" class="glyph"/><use xlink:href="#neuron_glyph-3-2" x="217.532" y="121.711" fill="currentColor" class="glyph"/><g fill="currentColor" class="glyph"><use xlink:href="#neuron_glyph-8-0" x="59.875" y="21.502"/><use xlink:href="#neuron_glyph-8-1" x="62.5" y="21.502"/><use xlink:href="#neuron_glyph-8-2" x="67.354" y="21.502"/><use xlink:href="#neuron_glyph-8-3" x="72.209" y="21.502"/><use xlink:href="#neuron_glyph-8-4" x="77.063" y="21.502"/><use xlink:href="#neuron_glyph-8-5" x="80.457" y="21.502"/></g><g fill="currentColor" class="glyph"><use xlink:href="#neuron_glyph-8-6" x="142.286" y="22.374"/><use xlink:href="#neuron_glyph-8-3" x="147.508" y="22.374"/><use xlink:href="#neuron_glyph-8-7" x="152.363" y="22.374"/><use xlink:href="#neuron_glyph-8-7" x="159.828" y="22.374"/><use xlink:href="#neuron_glyph-8-8" x="167.294" y="22.374"/><use xlink:href="#neuron_glyph-8-4" x="171.81" y="22.374"/><use xlink:href="#neuron_glyph-8-9" x="175.204" y="22.374"/><use xlink:href="#neuron_glyph-8-10" x="177.449" y="22.374"/><use xlink:href="#neuron_glyph-8-1" x="182.149" y="22.374"/></g><use xlink:href="#neuron_glyph-8-11" x="225.385" y="22.374" fill="currentColor" class="glyph"/><g fill="currentColor" class="glyph"><use xlink:href="#neuron_glyph-8-12" x="231.409" y="22.374"/><use xlink:href="#neuron_glyph-8-4" x="235.587" y="22.374"/><use xlink:href="#neuron_glyph-8-9" x="238.981" y="22.374"/><use xlink:href="#neuron_glyph-8-13" x="241.225" y="22.374"/><use xlink:href="#neuron_glyph-8-8" x="245.559" y="22.374"/><use xlink:href="#neuron_glyph-8-4" x="250.075" y="22.374"/><use xlink:href="#neuron_glyph-8-9" x="253.469" y="22.374"/><use xlink:href="#neuron_glyph-8-10" x="255.713" y="22.374"/><use xlink:href="#neuron_glyph-8-1" x="260.413" y="22.374"/></g><g fill="currentColor" class="glyph"><use xlink:href="#neuron_glyph-8-14" x="268.341" y="22.374"/><use xlink:href="#neuron_glyph-8-3" x="271.212" y="22.374"/><use xlink:href="#neuron_glyph-8-1" x="276.067" y="22.374"/><use xlink:href="#neuron_glyph-8-12" x="280.922" y="22.374"/><use xlink:href="#neuron_glyph-8-4" x="285.099" y="22.374"/><use xlink:href="#neuron_glyph-8-9" x="288.493" y="22.374"/><use xlink:href="#neuron_glyph-8-10" x="290.738" y="22.374"/><use xlink:href="#neuron_glyph-8-1" x="295.438" y="22.374"/></g><g fill="currentColor" class="glyph"><use xlink:href="#neuron_glyph-8-15" x="344.354" y="21.502"/><use xlink:href="#neuron_glyph-8-3" x="351.297" y="21.502"/><use xlink:href="#neuron_glyph-8-4" x="356.152" y="21.502"/><use xlink:href="#neuron_glyph-8-2" x="359.546" y="21.502"/><use xlink:href="#neuron_glyph-8-3" x="364.401" y="21.502"/><use xlink:href="#neuron_glyph-8-4" x="369.255" y="21.502"/></g></svg>