<?xml version="1.0" encoding="UTF-8"?>
<svg class="math" xmlns="http://www.w3.org/2000/svg" xmlns:xlink="http://www.w3.org/1999/xlink" width="401.574" height="269.776" viewBox="0 0 401.574 269.776">
        <style>
            /* Light mode (default) */
            .c1 { fill: #d62728 !important; stroke: #d62728 !important; }
            .c2 { fill: #2ca02c !important; stroke: #2ca02c !important; }
            .c3 { fill: #1f77b4 !important; stroke: #1f77b4 !important; }
            .c4 { fill: #9467bd !important; stroke: #9467bd !important; }
            .c5 { fill: #8c564b !important; stroke: #8c564b !important; }
            .c6 { fill: #e377c2 !important; stroke: #e377c2 !important; }
            .c7 { fill: #7f7f7f !important; stroke: #7f7f7f !important; }
            .c8 { fill: #bcbd22 !important; stroke: #bcbd22 !important; }

            /* Text and graphic elements */
            text, .text {
                fill: #000000 !important;
                stroke: none !important;
            }

            .axis line, .axis path, .tick line, .tick path, path.domain, line.grid {
                stroke: #000000 !important;
            }

            .glyph {
                fill: #000000 !important;
            }

            path {
                stroke: #000000 !important;
            }

            /* Dark mode via media query */
            @media (prefers-color-scheme: dark) {
                /* Dark theme colors */
                .c1 { fill: #FF4A98 !important; stroke: #FF4A98 !important; }
                .c2 { fill: #0AFAFA !important; stroke: #0AFAFA !important; }
                .c3 { fill: #7F83FF !important; stroke: #7F83FF !important; }
                .c4 { fill: #B4A0FF !important; stroke: #B4A0FF !important; }
                .c5 { fill: #FFB86B !important; stroke: #FFB86B !important; }
                .c6 { fill: #FF79C6 !important; stroke: #FF79C6 !important; }
                .c7 { fill: #CCCCCC !important; stroke: #CCCCCC !important; }
                .c8 { fill: #E6DB74 !important; stroke: #E6DB74 !important; }

                /* Dark theme text and graphics */
                text, .text {
                    fill: #FFFFFF !important;
                    stroke: none !important;
                }

                .axis line, .axis path, .tick line, .tick path, path.domain, line.grid {
                    stroke: #FFFFFF !important;
                }

                .glyph {
                    fill: #FFFFFF !important;
                }

                path {
                    stroke: #FFFFFF !important;
                }
            }
        </style>
        
<defs>
<g class="glyph">
<g id="nn_glyph-0-0">
<path d="M 4.5625 -1.28125 C 4.5625 -1.328125 4.53125 -1.390625 4.453125 -1.390625 C 4.34375 -1.390625 4.34375 -1.359375 4.296875 -1.21875 C 4.09375 -0.578125 3.578125 -0.125 3.109375 -0.125 C 2.859375 -0.125 2.609375 -0.28125 2.609375 -0.71875 C 2.609375 -0.921875 2.734375 -1.40625 2.8125 -1.75 L 3.109375 -2.9375 C 3.21875 -3.265625 3.484375 -3.734375 3.953125 -3.734375 C 4.109375 -3.734375 4.28125 -3.71875 4.40625 -3.625 C 4.078125 -3.5625 3.984375 -3.28125 3.984375 -3.140625 C 3.984375 -2.96875 4.109375 -2.8125 4.328125 -2.8125 C 4.578125 -2.8125 4.828125 -3.03125 4.828125 -3.34375 C 4.828125 -3.765625 4.375 -3.96875 3.953125 -3.96875 C 3.421875 -3.96875 3.109375 -3.484375 3 -3.296875 C 2.828125 -3.734375 2.4375 -3.96875 2 -3.96875 C 1.046875 -3.96875 0.515625 -2.8125 0.515625 -2.578125 C 0.515625 -2.5 0.578125 -2.46875 0.640625 -2.46875 C 0.71875 -2.46875 0.75 -2.515625 0.765625 -2.578125 C 1.046875 -3.46875 1.640625 -3.734375 1.984375 -3.734375 C 2.25 -3.734375 2.46875 -3.5625 2.46875 -3.140625 C 2.46875 -2.828125 2.09375 -1.390625 1.96875 -0.953125 C 1.90625 -0.6875 1.625 -0.125 1.140625 -0.125 C 0.953125 -0.125 0.765625 -0.1875 0.6875 -0.234375 C 0.921875 -0.28125 1.109375 -0.5 1.109375 -0.71875 C 1.109375 -0.953125 0.9375 -1.046875 0.765625 -1.046875 C 0.5 -1.046875 0.265625 -0.828125 0.265625 -0.515625 C 0.265625 -0.078125 0.75 0.09375 1.125 0.09375 C 1.65625 0.09375 1.953125 -0.328125 2.09375 -0.578125 C 2.3125 0.015625 2.84375 0.09375 3.078125 0.09375 C 4.046875 0.09375 4.5625 -1.0625 4.5625 -1.28125 Z M 4.5625 -1.28125 "/>
</g>
<g id="nn_glyph-0-1">
<path d="M 1.765625 -0.484375 C 1.765625 -0.75 1.546875 -0.96875 1.28125 -0.96875 C 1 -0.96875 0.796875 -0.75 0.796875 -0.484375 C 0.796875 -0.21875 1 0 1.28125 0 C 1.546875 0 1.765625 -0.21875 1.765625 -0.484375 Z M 1.765625 -0.484375 "/>
</g>
<g id="nn_glyph-0-2">
<path d="M 4.609375 -1.28125 C 4.609375 -1.328125 4.578125 -1.390625 4.5 -1.390625 C 4.390625 -1.390625 4.375 -1.34375 4.34375 -1.171875 C 4.140625 -0.390625 3.953125 -0.125 3.671875 -0.125 C 3.4375 -0.125 3.390625 -0.34375 3.390625 -0.53125 C 3.390625 -0.703125 3.4375 -0.890625 3.515625 -1.203125 L 3.734375 -2.125 L 4 -3.15625 C 4.03125 -3.28125 4.09375 -3.5 4.09375 -3.53125 C 4.09375 -3.671875 3.96875 -3.78125 3.8125 -3.78125 C 3.6875 -3.78125 3.46875 -3.71875 3.421875 -3.40625 C 3.25 -3.734375 2.984375 -3.96875 2.578125 -3.96875 C 1.53125 -3.96875 0.375 -2.71875 0.375 -1.359375 C 0.375 -0.375 1 0.09375 1.609375 0.09375 C 2.1875 0.09375 2.65625 -0.390625 2.8125 -0.5625 C 2.90625 -0.0625 3.359375 0.09375 3.640625 0.09375 C 3.90625 0.09375 4.125 -0.015625 4.328125 -0.390625 C 4.484375 -0.6875 4.609375 -1.25 4.609375 -1.28125 Z M 3.28125 -2.828125 L 2.84375 -1.09375 C 2.796875 -0.921875 2.796875 -0.921875 2.65625 -0.75 C 2.328125 -0.359375 1.96875 -0.125 1.625 -0.125 C 1.1875 -0.125 1.046875 -0.578125 1.046875 -0.96875 C 1.046875 -1.40625 1.296875 -2.4375 1.515625 -2.875 C 1.796875 -3.40625 2.21875 -3.734375 2.578125 -3.734375 C 3.171875 -3.734375 3.3125 -3.015625 3.3125 -2.953125 C 3.3125 -2.921875 3.296875 -2.859375 3.28125 -2.828125 Z M 3.28125 -2.828125 "/>
</g>
<g id="nn_glyph-0-3">
<path d="M 4.5 -3.453125 C 4.515625 -3.5 4.53125 -3.546875 4.53125 -3.609375 C 4.53125 -3.71875 4.453125 -3.859375 4.25 -3.859375 C 4.140625 -3.859375 3.96875 -3.796875 3.90625 -3.625 L 3.75 -3.015625 L 3.296875 -1.234375 C 3.234375 -0.96875 3.234375 -0.953125 3.203125 -0.875 C 3.203125 -0.828125 2.828125 -0.125 2.171875 -0.125 C 1.625 -0.125 1.625 -0.6875 1.625 -0.859375 C 1.625 -1.265625 1.734375 -1.703125 2.125 -2.703125 C 2.203125 -2.921875 2.25 -3.046875 2.25 -3.203125 C 2.25 -3.65625 1.921875 -3.96875 1.484375 -3.96875 C 0.625 -3.96875 0.265625 -2.6875 0.265625 -2.578125 C 0.265625 -2.5 0.328125 -2.46875 0.390625 -2.46875 C 0.484375 -2.46875 0.5 -2.53125 0.53125 -2.640625 C 0.71875 -3.3125 1.078125 -3.734375 1.453125 -3.734375 C 1.671875 -3.734375 1.671875 -3.5625 1.671875 -3.4375 C 1.671875 -3.296875 1.625 -3.125 1.546875 -2.921875 C 1.125 -1.796875 1.015625 -1.421875 1.015625 -1 C 1.015625 0 1.828125 0.09375 2.15625 0.09375 C 2.59375 0.09375 2.90625 -0.140625 3.0625 -0.296875 C 2.953125 0.15625 2.859375 0.5625 2.5 1.015625 C 2.234375 1.375 1.875 1.609375 1.484375 1.609375 C 1.234375 1.609375 0.9375 1.53125 0.8125 1.28125 C 1.28125 1.28125 1.34375 0.875 1.34375 0.796875 C 1.34375 0.59375 1.203125 0.46875 1 0.46875 C 0.796875 0.46875 0.5 0.640625 0.5 1.046875 C 0.5 1.515625 0.921875 1.84375 1.484375 1.84375 C 2.390625 1.84375 3.375 1.0625 3.625 0.015625 Z M 4.5 -3.453125 "/>
</g>
<g id="nn_glyph-1-0">
<path d="M 3.015625 0 L 3.015625 -0.234375 L 2.765625 -0.234375 C 2.140625 -0.234375 2.140625 -0.3125 2.140625 -0.515625 L 2.140625 -3.796875 C 2.140625 -3.984375 2.125 -3.984375 1.9375 -3.984375 C 1.546875 -3.59375 0.9375 -3.59375 0.71875 -3.59375 L 0.71875 -3.359375 C 0.875 -3.359375 1.28125 -3.359375 1.640625 -3.53125 L 1.640625 -0.515625 C 1.640625 -0.3125 1.640625 -0.234375 1.015625 -0.234375 L 0.765625 -0.234375 L 0.765625 0 C 1.09375 -0.03125 1.5625 -0.03125 1.890625 -0.03125 C 2.21875 -0.03125 2.6875 -0.03125 3.015625 0 Z M 3.015625 0 "/>
</g>
<g id="nn_glyph-1-1">
<path d="M 3.21875 -1.125 L 3 -1.125 C 2.984375 -1.03125 2.921875 -0.640625 2.84375 -0.578125 C 2.796875 -0.53125 2.3125 -0.53125 2.21875 -0.53125 L 1.109375 -0.53125 L 1.875 -1.15625 C 2.078125 -1.328125 2.609375 -1.703125 2.796875 -1.890625 C 2.96875 -2.0625 3.21875 -2.375 3.21875 -2.796875 C 3.21875 -3.546875 2.546875 -3.984375 1.734375 -3.984375 C 0.96875 -3.984375 0.4375 -3.46875 0.4375 -2.90625 C 0.4375 -2.609375 0.6875 -2.5625 0.75 -2.5625 C 0.90625 -2.5625 1.078125 -2.671875 1.078125 -2.890625 C 1.078125 -3.015625 1 -3.21875 0.734375 -3.21875 C 0.875 -3.515625 1.234375 -3.75 1.65625 -3.75 C 2.28125 -3.75 2.609375 -3.28125 2.609375 -2.796875 C 2.609375 -2.375 2.328125 -1.9375 1.921875 -1.546875 L 0.5 -0.25 C 0.4375 -0.1875 0.4375 -0.1875 0.4375 0 L 3.03125 0 Z M 3.21875 -1.125 "/>
</g>
<g id="nn_glyph-2-0">
<path d="M 1.75 0 L 1.75 -6.21875 L 0.875 -6.21875 L 0.875 0 Z M 1.75 0 "/>
</g>
<g id="nn_glyph-2-1">
<path d="M 4.109375 0 L 4.109375 -2.65625 C 4.109375 -3.328125 3.921875 -4.078125 2.8125 -4.078125 C 2.09375 -4.078125 1.65625 -3.671875 1.4375 -3.40625 L 1.4375 -4.03125 L 0.734375 -4.03125 L 0.734375 0 L 1.5 0 L 1.5 -2.1875 C 1.5 -2.78125 1.734375 -3.5 2.4375 -3.5 C 3.34375 -3.5 3.34375 -2.859375 3.34375 -2.59375 L 3.34375 0 Z M 4.109375 0 "/>
</g>
<g id="nn_glyph-2-2">
<path d="M 4.515625 -2 C 4.515625 -3.078125 3.9375 -4.078125 3.046875 -4.078125 C 2.796875 -4.078125 2.125 -4.03125 1.484375 -3.546875 L 1.484375 -3.984375 L 0.765625 -3.984375 L 0.765625 1.734375 L 1.515625 1.734375 L 1.515625 -0.40625 C 1.859375 -0.09375 2.3125 0.09375 2.78125 0.09375 C 3.71875 0.09375 4.515625 -0.796875 4.515625 -2 Z M 3.75 -1.984375 C 3.75 -1.125 3.109375 -0.484375 2.40625 -0.484375 C 2.109375 -0.484375 1.78125 -0.59375 1.515625 -1.046875 L 1.515625 -2.984375 C 1.640625 -3.140625 1.96875 -3.46875 2.5 -3.46875 C 3.1875 -3.46875 3.75 -2.828125 3.75 -1.984375 Z M 3.75 -1.984375 "/>
</g>
<g id="nn_glyph-2-3">
<path d="M 4.109375 0 L 4.109375 -3.984375 L 3.34375 -3.984375 L 3.34375 -1.390625 C 3.34375 -0.671875 2.765625 -0.4375 2.21875 -0.4375 C 1.5625 -0.4375 1.5 -0.640625 1.5 -1.015625 L 1.5 -3.984375 L 0.734375 -3.984375 L 0.734375 -0.984375 C 0.734375 -0.21875 1.046875 0.09375 1.703125 0.09375 C 2.234375 0.09375 2.9375 -0.046875 3.375 -0.4375 L 3.375 0 Z M 4.109375 0 "/>
</g>
<g id="nn_glyph-2-4">
<path d="M 3.125 -0.234375 L 2.96875 -0.796875 C 2.734375 -0.625 2.40625 -0.515625 2.125 -0.515625 C 1.765625 -0.515625 1.65625 -0.828125 1.65625 -1.296875 L 1.65625 -3.421875 L 2.96875 -3.421875 L 2.96875 -3.984375 L 1.65625 -3.984375 L 1.65625 -5.125 L 0.984375 -5.125 L 0.984375 -3.984375 L 0.171875 -3.984375 L 0.171875 -3.421875 L 0.953125 -3.421875 L 0.953125 -1.125 C 0.953125 -0.59375 1.0625 0.09375 1.734375 0.09375 C 2.140625 0.09375 2.609375 0.015625 3.125 -0.234375 Z M 3.125 -0.234375 "/>
</g>
<g id="nn_glyph-2-5">
<path d="M 4.71875 0 L 4.71875 -0.625 L 4.3125 -0.625 L 2.09375 -0.609375 L 1.75 -0.609375 L 1.75 -6.21875 L 0.875 -6.21875 L 0.875 0 Z M 4.71875 0 "/>
</g>
<g id="nn_glyph-2-6">
<path d="M 3.859375 0 L 3.859375 -2.59375 C 3.859375 -3.484375 3.1875 -4.140625 2.28125 -4.140625 C 1.6875 -4.140625 1.25 -3.984375 0.8125 -3.734375 L 0.875 -3.109375 C 1.328125 -3.4375 1.765625 -3.5625 2.28125 -3.5625 C 2.78125 -3.5625 3.09375 -3.171875 3.09375 -2.578125 L 3.09375 -2.203125 C 1.53125 -2.171875 0.5 -1.765625 0.5 -1.046875 C 0.5 -0.625 0.78125 0.09375 1.578125 0.09375 C 1.75 0.09375 2.546875 0.078125 3.125 -0.34375 L 3.125 0 Z M 3.09375 -1.25 C 3.09375 -1.0625 3.09375 -0.84375 2.765625 -0.65625 C 2.546875 -0.515625 2.234375 -0.484375 2.0625 -0.484375 C 1.59375 -0.484375 1.203125 -0.703125 1.203125 -1.0625 C 1.203125 -1.6875 2.984375 -1.71875 3.09375 -1.71875 Z M 3.09375 -1.25 "/>
</g>
<g id="nn_glyph-2-7">
<path d="M 4.203125 -3.984375 L 3.46875 -3.984375 C 2.78125 -2.34375 2.28125 -1.15625 2.234375 -0.53125 C 2.203125 -0.9375 1.8125 -1.859375 1.703125 -2.125 C 1.328125 -3.046875 1.171875 -3.34375 0.890625 -3.984375 L 0.125 -3.984375 L 1.953125 0 L 1.625 0.796875 C 1.375 1.296875 1.203125 1.296875 1.078125 1.296875 C 0.9375 1.296875 0.609375 1.265625 0.34375 1.140625 L 0.390625 1.765625 C 0.421875 1.78125 0.765625 1.84375 1.0625 1.84375 C 1.3125 1.84375 1.703125 1.84375 2.171875 0.765625 Z M 4.203125 -3.984375 "/>
</g>
<g id="nn_glyph-2-8">
<path d="M 3.90625 -1.96875 C 3.90625 -2.25 3.890625 -2.921875 3.53125 -3.46875 C 3.15625 -4.03125 2.5625 -4.140625 2.21875 -4.140625 C 1.15625 -4.140625 0.3125 -3.171875 0.3125 -2.03125 C 0.3125 -0.84375 1.21875 0.09375 2.359375 0.09375 C 2.796875 0.09375 3.328125 -0.015625 3.859375 -0.34375 L 3.796875 -0.953125 C 3.234375 -0.5625 2.6875 -0.484375 2.375 -0.484375 C 1.609375 -0.484375 1.03125 -1.140625 1 -1.96875 Z M 3.359375 -2.5 L 1.046875 -2.5 C 1.203125 -3.0625 1.640625 -3.546875 2.21875 -3.546875 C 2.5625 -3.546875 3.1875 -3.40625 3.359375 -2.5 Z M 3.359375 -2.5 "/>
</g>
<g id="nn_glyph-2-9">
<path d="M 3.078125 -3.4375 L 3.078125 -4.078125 C 2.40625 -4.078125 1.8125 -3.75 1.4375 -3.21875 L 1.4375 -4.03125 L 0.765625 -4.03125 L 0.765625 0 L 1.484375 0 L 1.484375 -1.90625 C 1.484375 -2.859375 2.234375 -3.421875 3.078125 -3.4375 Z M 3.078125 -3.4375 "/>
</g>
<g id="nn_glyph-2-10">
<path d="M 5.765625 0 L 5.765625 -6.21875 L 4.890625 -6.21875 L 4.890625 -3.53125 L 1.75 -3.53125 L 1.75 -6.21875 L 0.875 -6.21875 L 0.875 0 L 1.75 0 L 1.75 -2.9375 L 4.890625 -2.9375 L 4.890625 0 Z M 5.765625 0 "/>
</g>
<g id="nn_glyph-2-11">
<path d="M 1.484375 0 L 1.484375 -3.984375 L 0.75 -3.984375 L 0.75 0 Z M 1.5625 -5.046875 L 1.5625 -5.90625 L 0.6875 -5.90625 L 0.6875 -5.046875 Z M 1.5625 -5.046875 "/>
</g>
<g id="nn_glyph-2-12">
<path d="M 4.078125 0 L 4.078125 -6.21875 L 3.359375 -6.21875 L 3.359375 -3.59375 C 2.84375 -4.015625 2.25 -4.078125 1.96875 -4.078125 C 1.046875 -4.078125 0.328125 -3.140625 0.328125 -1.984375 C 0.328125 -0.828125 1.03125 0.09375 1.921875 0.09375 C 2.203125 0.09375 2.78125 0.03125 3.328125 -0.46875 L 3.328125 0 Z M 3.328125 -1.265625 C 3.328125 -1.09375 3.328125 -1.078125 3.234375 -0.953125 C 2.984375 -0.625 2.671875 -0.484375 2.34375 -0.484375 C 1.75 -0.484375 1.09375 -0.90625 1.09375 -1.984375 C 1.09375 -3.125 1.859375 -3.5 2.4375 -3.5 C 2.859375 -3.5 3.15625 -3.265625 3.328125 -3.03125 Z M 3.328125 -1.265625 "/>
</g>
<g id="nn_glyph-2-13">
<path d="M 6.40625 -3.078125 C 6.40625 -4.984375 5.046875 -6.421875 3.46875 -6.421875 C 1.890625 -6.421875 0.515625 -4.984375 0.515625 -3.078125 C 0.515625 -1.21875 1.890625 0.203125 3.46875 0.203125 C 5.046875 0.203125 6.40625 -1.21875 6.40625 -3.078125 Z M 5.53125 -3.21875 C 5.53125 -1.53125 4.546875 -0.4375 3.46875 -0.4375 C 2.375 -0.4375 1.40625 -1.53125 1.40625 -3.21875 C 1.40625 -4.859375 2.421875 -5.8125 3.46875 -5.8125 C 4.5 -5.8125 5.53125 -4.859375 5.53125 -3.21875 Z M 5.53125 -3.21875 "/>
</g>
<g id="nn_glyph-3-0">
<path d="M 4.234375 -0.859375 C 4.234375 -0.859375 4.234375 -0.953125 4.125 -0.953125 C 4.046875 -0.953125 4.03125 -0.921875 4 -0.796875 C 3.90625 -0.484375 3.65625 -0.140625 3.34375 -0.140625 C 3.234375 -0.140625 3.1875 -0.234375 3.1875 -0.359375 C 3.1875 -0.46875 3.234375 -0.578125 3.28125 -0.703125 C 3.375 -0.9375 3.640625 -1.609375 3.640625 -1.9375 C 3.640625 -2.4375 3.265625 -2.640625 2.8125 -2.640625 C 2.515625 -2.640625 2.140625 -2.546875 1.75 -2.078125 C 1.71875 -2.53125 1.296875 -2.640625 1.078125 -2.640625 C 0.84375 -2.640625 0.6875 -2.5 0.59375 -2.3125 C 0.4375 -2.0625 0.359375 -1.75 0.359375 -1.71875 C 0.359375 -1.65625 0.421875 -1.640625 0.46875 -1.640625 C 0.5625 -1.640625 0.578125 -1.671875 0.609375 -1.765625 C 0.71875 -2.25 0.875 -2.4375 1.0625 -2.4375 C 1.28125 -2.4375 1.28125 -2.203125 1.28125 -2.140625 C 1.28125 -2.046875 1.21875 -1.796875 1.171875 -1.640625 L 1.046875 -1.09375 L 0.921875 -0.640625 C 0.875 -0.46875 0.8125 -0.171875 0.8125 -0.140625 C 0.8125 0 0.90625 0.0625 1.015625 0.0625 C 1.125 0.0625 1.234375 -0.015625 1.28125 -0.109375 L 1.375 -0.46875 L 1.5 -1 L 1.609375 -1.40625 C 1.65625 -1.609375 1.859375 -1.921875 2.09375 -2.140625 C 2.203125 -2.265625 2.46875 -2.4375 2.78125 -2.4375 C 3.171875 -2.4375 3.171875 -2.140625 3.171875 -2.015625 C 3.171875 -1.671875 2.921875 -1.03125 2.8125 -0.765625 C 2.765625 -0.65625 2.734375 -0.5625 2.734375 -0.453125 C 2.734375 -0.15625 3 0.0625 3.328125 0.0625 C 3.9375 0.0625 4.234375 -0.734375 4.234375 -0.859375 Z M 4.234375 -0.859375 "/>
</g>
</g>
<clipPath id="nn_clip-0">
<path clip-rule="nonzero" d="M 43 214 L 101 214 L 101 269.777344 L 43 269.777344 Z M 43 214 "/>
</clipPath>
<clipPath id="nn_clip-1">
<path clip-rule="nonzero" d="M 172 214 L 229 214 L 229 269.777344 L 172 269.777344 Z M 172 214 "/>
</clipPath>
<clipPath id="nn_clip-2">
<path clip-rule="nonzero" d="M 300 214 L 358 214 L 358 269.777344 L 300 269.777344 Z M 300 214 "/>
</clipPath>
</defs>
<path fill="none" stroke-width="0.99628" stroke-linecap="butt" stroke-linejoin="miter" stroke="currentColor" stroke-opacity="1" stroke-miterlimit="10" d="M 14.171625 -0.00003125 C 14.171625 7.828094 7.827875 14.171844 -0.00025 14.171844 C -7.828375 14.171844 -14.172125 7.828094 -14.172125 -0.00003125 C -14.172125 -7.828156 -7.828375 -14.171906 -0.00025 -14.171906 C 7.827875 -14.171906 14.171625 -7.828156 14.171625 -0.00003125 Z M 14.171625 -0.00003125 " transform="matrix(1, 0, 0, -1, 71.969, 70.082)"/>
<g fill="currentColor" fill-opacity="1" class="glyph">
<use xlink:href="#nn_glyph-0-0" x="67.281" y="71.514"/>
</g>
<g fill="currentColor" fill-opacity="1" class="glyph">
<use xlink:href="#nn_glyph-1-0" x="72.505" y="72.51"/>
</g>
<g fill="currentColor" fill-opacity="1" class="glyph">
<use xlink:href="#nn_glyph-2-0" x="49.794" y="21.502"/>
<use xlink:href="#nn_glyph-2-1" x="52.418824" y="21.502"/>
<use xlink:href="#nn_glyph-2-2" x="57.273376" y="21.502"/>
<use xlink:href="#nn_glyph-2-3" x="62.127929" y="21.502"/>
<use xlink:href="#nn_glyph-2-4" x="66.982481" y="21.502"/>
</g>
<g fill="currentColor" fill-opacity="1" class="glyph">
<use xlink:href="#nn_glyph-2-5" x="73.449425" y="21.502"/>
<use xlink:href="#nn_glyph-2-6" x="78.572862" y="21.502"/>
</g>
<g fill="currentColor" fill-opacity="1" class="glyph">
<use xlink:href="#nn_glyph-2-7" x="82.832942" y="21.502"/>
</g>
<g fill="currentColor" fill-opacity="1" class="glyph">
<use xlink:href="#nn_glyph-2-8" x="86.910108" y="21.502"/>
<use xlink:href="#nn_glyph-2-9" x="91.087876" y="21.502"/>
</g>
<g fill="currentColor" fill-opacity="1" class="glyph">
<use xlink:href="#nn_glyph-2-10" x="175.797" y="21.502"/>
<use xlink:href="#nn_glyph-2-11" x="182.444115" y="21.502"/>
<use xlink:href="#nn_glyph-2-12" x="184.688477" y="21.502"/>
<use xlink:href="#nn_glyph-2-12" x="189.543029" y="21.502"/>
<use xlink:href="#nn_glyph-2-8" x="194.397582" y="21.502"/>
<use xlink:href="#nn_glyph-2-1" x="198.57535" y="21.502"/>
</g>
<g fill="currentColor" fill-opacity="1" class="glyph">
<use xlink:href="#nn_glyph-2-5" x="206.502867" y="21.502"/>
<use xlink:href="#nn_glyph-2-6" x="211.626304" y="21.502"/>
</g>
<g fill="currentColor" fill-opacity="1" class="glyph">
<use xlink:href="#nn_glyph-2-7" x="215.886384" y="21.502"/>
</g>
<g fill="currentColor" fill-opacity="1" class="glyph">
<use xlink:href="#nn_glyph-2-8" x="219.96355" y="21.502"/>
<use xlink:href="#nn_glyph-2-9" x="224.141318" y="21.502"/>
</g>
<g fill="currentColor" fill-opacity="1" class="glyph">
<use xlink:href="#nn_glyph-2-13" x="303.575" y="21.502"/>
<use xlink:href="#nn_glyph-2-3" x="310.518437" y="21.502"/>
<use xlink:href="#nn_glyph-2-4" x="315.372989" y="21.502"/>
<use xlink:href="#nn_glyph-2-2" x="318.766969" y="21.502"/>
<use xlink:href="#nn_glyph-2-3" x="323.621521" y="21.502"/>
<use xlink:href="#nn_glyph-2-4" x="328.476074" y="21.502"/>
</g>
<g fill="currentColor" fill-opacity="1" class="glyph">
<use xlink:href="#nn_glyph-2-5" x="334.943018" y="21.502"/>
<use xlink:href="#nn_glyph-2-6" x="340.066455" y="21.502"/>
</g>
<g fill="currentColor" fill-opacity="1" class="glyph">
<use xlink:href="#nn_glyph-2-7" x="344.326535" y="21.502"/>
</g>
<g fill="currentColor" fill-opacity="1" class="glyph">
<use xlink:href="#nn_glyph-2-8" x="348.4037" y="21.502"/>
<use xlink:href="#nn_glyph-2-9" x="352.581469" y="21.502"/>
</g>
<path fill="none" stroke-width="0.99628" stroke-linecap="butt" stroke-linejoin="miter" stroke="currentColor" stroke-opacity="1" stroke-miterlimit="10" d="M 14.171625 -57.691438 C 14.171625 -49.863313 7.827875 -43.515656 -0.00025 -43.515656 C -7.828375 -43.515656 -14.172125 -49.863313 -14.172125 -57.691438 C -14.172125 -65.519563 -7.828375 -71.863313 -0.00025 -71.863313 C 7.827875 -71.863313 14.171625 -65.519563 14.171625 -57.691438 Z M 14.171625 -57.691438 " transform="matrix(1, 0, 0, -1, 71.969, 70.082)"/>
<g fill="currentColor" fill-opacity="1" class="glyph">
<use xlink:href="#nn_glyph-0-0" x="67.281" y="129.203"/>
</g>
<g fill="currentColor" fill-opacity="1" class="glyph">
<use xlink:href="#nn_glyph-1-1" x="72.505" y="130.2"/>
</g>
<path fill="none" stroke-width="0.99628" stroke-linecap="butt" stroke-linejoin="miter" stroke="currentColor" stroke-opacity="1" stroke-miterlimit="10" d="M 14.171625 -115.378938 C 14.171625 -107.550813 7.827875 -101.207063 -0.00025 -101.207063 C -7.828375 -101.207063 -14.172125 -107.550813 -14.172125 -115.378938 C -14.172125 -123.207063 -7.828375 -129.554719 -0.00025 -129.554719 C 7.827875 -129.554719 14.171625 -123.207063 14.171625 -115.378938 Z M 14.171625 -115.378938 " transform="matrix(1, 0, 0, -1, 71.969, 70.082)"/>
<g fill="currentColor" fill-opacity="1" class="glyph">
<use xlink:href="#nn_glyph-0-1" x="66.593" y="185.945"/>
</g>
<g fill="currentColor" fill-opacity="1" class="glyph">
<use xlink:href="#nn_glyph-0-1" x="70.686162" y="185.945"/>
</g>
<g fill="currentColor" fill-opacity="1" class="glyph">
<use xlink:href="#nn_glyph-0-1" x="74.78829" y="185.945"/>
</g>
<g clip-path="url(#nn_clip-0)">
<path fill="none" stroke-width="0.99628" stroke-linecap="butt" stroke-linejoin="miter" stroke="currentColor" stroke-opacity="1" stroke-miterlimit="10" d="M 14.171625 -173.070344 C 14.171625 -165.242219 7.827875 -158.894563 -0.00025 -158.894563 C -7.828375 -158.894563 -14.172125 -165.242219 -14.172125 -173.070344 C -14.172125 -180.898469 -7.828375 -187.242219 -0.00025 -187.242219 C 7.827875 -187.242219 14.171625 -180.898469 14.171625 -173.070344 Z M 14.171625 -173.070344 " transform="matrix(1, 0, 0, -1, 71.969, 70.082)"/>
</g>
<g fill="currentColor" fill-opacity="1" class="glyph">
<use xlink:href="#nn_glyph-0-0" x="66.807" y="244.582"/>
</g>
<g fill="currentColor" fill-opacity="1" class="glyph">
<use xlink:href="#nn_glyph-3-0" x="72.031" y="245.578"/>
</g>
<path fill="none" stroke-width="0.99628" stroke-linecap="butt" stroke-linejoin="miter" stroke="currentColor" stroke-opacity="1" stroke-miterlimit="10" d="M 142.730219 -0.00003125 C 142.730219 7.828094 136.386469 14.171844 128.558344 14.171844 C 120.730219 14.171844 114.382562 7.828094 114.382562 -0.00003125 C 114.382562 -7.828156 120.730219 -14.171906 128.558344 -14.171906 C 136.386469 -14.171906 142.730219 -7.828156 142.730219 -0.00003125 Z M 142.730219 -0.00003125 " transform="matrix(1, 0, 0, -1, 71.969, 70.082)"/>
<g fill="currentColor" fill-opacity="1" class="glyph">
<use xlink:href="#nn_glyph-0-2" x="196.007" y="71.514"/>
</g>
<g fill="currentColor" fill-opacity="1" class="glyph">
<use xlink:href="#nn_glyph-1-0" x="200.889" y="72.51"/>
</g>
<path fill="none" stroke-width="0.99628" stroke-linecap="butt" stroke-linejoin="miter" stroke="currentColor" stroke-opacity="1" stroke-miterlimit="10" d="M 142.730219 -57.691438 C 142.730219 -49.863313 136.386469 -43.515656 128.558344 -43.515656 C 120.730219 -43.515656 114.382562 -49.863313 114.382562 -57.691438 C 114.382562 -65.519563 120.730219 -71.863313 128.558344 -71.863313 C 136.386469 -71.863313 142.730219 -65.519563 142.730219 -57.691438 Z M 142.730219 -57.691438 " transform="matrix(1, 0, 0, -1, 71.969, 70.082)"/>
<g fill="currentColor" fill-opacity="1" class="glyph">
<use xlink:href="#nn_glyph-0-2" x="196.007" y="129.203"/>
</g>
<g fill="currentColor" fill-opacity="1" class="glyph">
<use xlink:href="#nn_glyph-1-1" x="200.889" y="130.2"/>
</g>
<path fill="none" stroke-width="0.99628" stroke-linecap="butt" stroke-linejoin="miter" stroke="currentColor" stroke-opacity="1" stroke-miterlimit="10" d="M 142.730219 -115.378938 C 142.730219 -107.550813 136.386469 -101.207063 128.558344 -101.207063 C 120.730219 -101.207063 114.382562 -107.550813 114.382562 -115.378938 C 114.382562 -123.207063 120.730219 -129.554719 128.558344 -129.554719 C 136.386469 -129.554719 142.730219 -123.207063 142.730219 -115.378938 Z M 142.730219 -115.378938 " transform="matrix(1, 0, 0, -1, 71.969, 70.082)"/>
<g fill="currentColor" fill-opacity="1" class="glyph">
<use xlink:href="#nn_glyph-0-1" x="195.148" y="185.945"/>
</g>
<g fill="currentColor" fill-opacity="1" class="glyph">
<use xlink:href="#nn_glyph-0-1" x="199.241162" y="185.945"/>
</g>
<g fill="currentColor" fill-opacity="1" class="glyph">
<use xlink:href="#nn_glyph-0-1" x="203.34329" y="185.945"/>
</g>
<g clip-path="url(#nn_clip-1)">
<path fill="none" stroke-width="0.99628" stroke-linecap="butt" stroke-linejoin="miter" stroke="currentColor" stroke-opacity="1" stroke-miterlimit="10" d="M 142.730219 -173.070344 C 142.730219 -165.242219 136.386469 -158.894563 128.558344 -158.894563 C 120.730219 -158.894563 114.382562 -165.242219 114.382562 -173.070344 C 114.382562 -180.898469 120.730219 -187.242219 128.558344 -187.242219 C 136.386469 -187.242219 142.730219 -180.898469 142.730219 -173.070344 Z M 142.730219 -173.070344 " transform="matrix(1, 0, 0, -1, 71.969, 70.082)"/>
</g>
<g fill="currentColor" fill-opacity="1" class="glyph">
<use xlink:href="#nn_glyph-0-2" x="195.533" y="244.582"/>
</g>
<g fill="currentColor" fill-opacity="1" class="glyph">
<use xlink:href="#nn_glyph-3-0" x="200.415" y="245.578"/>
</g>
<path fill="none" stroke-width="0.99628" stroke-linecap="butt" stroke-linejoin="miter" stroke="currentColor" stroke-opacity="1" stroke-miterlimit="10" d="M 271.288813 -0.00003125 C 271.288813 7.828094 264.941156 14.171844 257.113031 14.171844 C 249.284906 14.171844 242.941156 7.828094 242.941156 -0.00003125 C 242.941156 -7.828156 249.284906 -14.171906 257.113031 -14.171906 C 264.941156 -14.171906 271.288813 -7.828156 271.288813 -0.00003125 Z M 271.288813 -0.00003125 " transform="matrix(1, 0, 0, -1, 71.969, 70.082)"/>
<g fill="currentColor" fill-opacity="1" class="glyph">
<use xlink:href="#nn_glyph-0-3" x="324.734" y="71.141"/>
</g>
<g fill="currentColor" fill-opacity="1" class="glyph">
<use xlink:href="#nn_glyph-1-0" x="329.273" y="72.137"/>
</g>
<path fill="none" stroke-width="0.99628" stroke-linecap="butt" stroke-linejoin="miter" stroke="currentColor" stroke-opacity="1" stroke-miterlimit="10" d="M 271.288813 -57.691438 C 271.288813 -49.863313 264.941156 -43.515656 257.113031 -43.515656 C 249.284906 -43.515656 242.941156 -49.863313 242.941156 -57.691438 C 242.941156 -65.519563 249.284906 -71.863313 257.113031 -71.863313 C 264.941156 -71.863313 271.288813 -65.519563 271.288813 -57.691438 Z M 271.288813 -57.691438 " transform="matrix(1, 0, 0, -1, 71.969, 70.082)"/>
<g fill="currentColor" fill-opacity="1" class="glyph">
<use xlink:href="#nn_glyph-0-3" x="324.734" y="128.83"/>
</g>
<g fill="currentColor" fill-opacity="1" class="glyph">
<use xlink:href="#nn_glyph-1-1" x="329.273" y="129.826"/>
</g>
<path fill="none" stroke-width="0.99628" stroke-linecap="butt" stroke-linejoin="miter" stroke="currentColor" stroke-opacity="1" stroke-miterlimit="10" d="M 271.288813 -115.378938 C 271.288813 -107.550813 264.941156 -101.207063 257.113031 -101.207063 C 249.284906 -101.207063 242.941156 -107.550813 242.941156 -115.378938 C 242.941156 -123.207063 249.284906 -129.554719 257.113031 -129.554719 C 264.941156 -129.554719 271.288813 -123.207063 271.288813 -115.378938 Z M 271.288813 -115.378938 " transform="matrix(1, 0, 0, -1, 71.969, 70.082)"/>
<g fill="currentColor" fill-opacity="1" class="glyph">
<use xlink:href="#nn_glyph-0-1" x="323.704" y="185.945"/>
</g>
<g fill="currentColor" fill-opacity="1" class="glyph">
<use xlink:href="#nn_glyph-0-1" x="327.797162" y="185.945"/>
</g>
<g fill="currentColor" fill-opacity="1" class="glyph">
<use xlink:href="#nn_glyph-0-1" x="331.89929" y="185.945"/>
</g>
<g clip-path="url(#nn_clip-2)">
<path fill="none" stroke-width="0.99628" stroke-linecap="butt" stroke-linejoin="miter" stroke="currentColor" stroke-opacity="1" stroke-miterlimit="10" d="M 271.288813 -173.070344 C 271.288813 -165.242219 264.941156 -158.894563 257.113031 -158.894563 C 249.284906 -158.894563 242.941156 -165.242219 242.941156 -173.070344 C 242.941156 -180.898469 249.284906 -187.242219 257.113031 -187.242219 C 264.941156 -187.242219 271.288813 -180.898469 271.288813 -173.070344 Z M 271.288813 -173.070344 " transform="matrix(1, 0, 0, -1, 71.969, 70.082)"/>
</g>
<g fill="currentColor" fill-opacity="1" class="glyph">
<use xlink:href="#nn_glyph-0-3" x="324.26" y="244.208"/>
</g>
<g fill="currentColor" fill-opacity="1" class="glyph">
<use xlink:href="#nn_glyph-3-0" x="328.799" y="245.204"/>
</g>
<path fill="none" stroke-width="0.99628" stroke-linecap="butt" stroke-linejoin="miter" stroke="currentColor" stroke-opacity="1" stroke-miterlimit="10" d="M 14.671625 -0.00003125 L 108.554437 -0.00003125 " transform="matrix(1, 0, 0, -1, 71.969, 70.082)"/>
<path fill-rule="nonzero" fill="currentColor" fill-opacity="1" class="glyph" stroke-width="0.99628" stroke-linecap="butt" stroke-linejoin="miter" stroke="currentColor" stroke-opacity="1" stroke-miterlimit="10" d="M 7.08714 -0.00003125 L 1.610577 2.070281 L 3.423077 -0.00003125 L 1.610577 -2.070344 Z M 7.08714 -0.00003125 " transform="matrix(1, 0, 0, -1, 177.35036, 70.082)"/>
<path fill="none" stroke-width="0.99628" stroke-linecap="butt" stroke-linejoin="miter" stroke="currentColor" stroke-opacity="1" stroke-miterlimit="10" d="M 13.386469 -6.007844 L 110.308344 -49.500031 " transform="matrix(1, 0, 0, -1, 71.969, 70.082)"/>
<path fill-rule="nonzero" fill="currentColor" fill-opacity="1" class="glyph" stroke-width="0.99628" stroke-linecap="butt" stroke-linejoin="miter" stroke="currentColor" stroke-opacity="1" stroke-miterlimit="10" d="M 7.085723 0.00139337 L 1.610238 2.070035 L 3.420785 0.000927078 L 1.610032 -2.070474 Z M 7.085723 0.00139337 " transform="matrix(0.91231, 0.4094, 0.4094, -0.91231, 179.38271, 118.28397)"/>
<path fill="none" stroke-width="0.99628" stroke-linecap="butt" stroke-linejoin="miter" stroke="currentColor" stroke-opacity="1" stroke-miterlimit="10" d="M 10.917719 -9.800813 L 113.671625 -102.019563 " transform="matrix(1, 0, 0, -1, 71.969, 70.082)"/>
<path fill-rule="nonzero" fill="currentColor" fill-opacity="1" class="glyph" stroke-width="0.99628" stroke-linecap="butt" stroke-linejoin="miter" stroke="currentColor" stroke-opacity="1" stroke-miterlimit="10" d="M 7.084449 -0.000590782 L 1.608497 2.071159 L 3.424743 0.000697092 L 1.608866 -2.069967 Z M 7.084449 -0.000590782 " transform="matrix(0.74419, 0.66791, 0.66791, -0.74419, 183.279, 169.98263)"/>
<path fill="none" stroke-width="0.99628" stroke-linecap="butt" stroke-linejoin="miter" stroke="currentColor" stroke-opacity="1" stroke-miterlimit="10" d="M 8.74975 -11.777375 L 116.632562 -157.01175 " transform="matrix(1, 0, 0, -1, 71.969, 70.082)"/>
<path fill-rule="nonzero" fill="currentColor" fill-opacity="1" class="glyph" stroke-width="0.99628" stroke-linecap="butt" stroke-linejoin="miter" stroke="currentColor" stroke-opacity="1" stroke-miterlimit="10" d="M 7.08537 0.00181868 L 1.609111 2.069588 L 3.425023 0.000525482 L 1.608719 -2.071263 Z M 7.08537 0.00181868 " transform="matrix(0.59627, 0.80273, 0.80273, -0.59627, 186.70734, 224.54782)"/>
<path fill="none" stroke-width="0.99628" stroke-linecap="butt" stroke-linejoin="miter" stroke="currentColor" stroke-opacity="1" stroke-miterlimit="10" d="M 13.386469 -51.683625 L 110.308344 -8.187531 " transform="matrix(1, 0, 0, -1, 71.969, 70.082)"/>
<path fill-rule="nonzero" fill="currentColor" fill-opacity="1" class="glyph" stroke-width="0.99628" stroke-linecap="butt" stroke-linejoin="miter" stroke="currentColor" stroke-opacity="1" stroke-miterlimit="10" d="M 7.086668 0.000711962 L 1.609377 2.069015 L 3.42173 0.00117825 L 1.609583 -2.071494 Z M 7.086668 0.000711962 " transform="matrix(0.91231, -0.4094, -0.4094, -0.91231, 179.38271, 79.5699)"/>
<path fill="none" stroke-width="0.99628" stroke-linecap="butt" stroke-linejoin="miter" stroke="currentColor" stroke-opacity="1" stroke-miterlimit="10" d="M 14.671625 -57.691438 L 108.554437 -57.691438 " transform="matrix(1, 0, 0, -1, 71.969, 70.082)"/>
<path fill-rule="nonzero" fill="currentColor" fill-opacity="1" class="glyph" stroke-width="0.99628" stroke-linecap="butt" stroke-linejoin="miter" stroke="currentColor" stroke-opacity="1" stroke-miterlimit="10" d="M 7.08714 -0.0015575 L 1.610577 2.068755 L 3.423077 -0.0015575 L 1.610577 -2.07187 Z M 7.08714 -0.0015575 " transform="matrix(1, 0, 0, -1, 177.35036, 127.77188)"/>
<path fill="none" stroke-width="0.99628" stroke-linecap="butt" stroke-linejoin="miter" stroke="currentColor" stroke-opacity="1" stroke-miterlimit="10" d="M 13.386469 -63.695344 L 110.308344 -107.191438 " transform="matrix(1, 0, 0, -1, 71.969, 70.082)"/>
<path fill-rule="nonzero" fill="currentColor" fill-opacity="1" class="glyph" stroke-width="0.99628" stroke-linecap="butt" stroke-linejoin="miter" stroke="currentColor" stroke-opacity="1" stroke-miterlimit="10" d="M 7.086348 0.000000838319 L 1.609264 2.072207 L 3.42141 -0.00046545 L 1.609058 -2.068303 Z M 7.086348 0.000000838319 " transform="matrix(0.91231, 0.4094, 0.4094, -0.91231, 179.38271, 175.97385)"/>
<path fill="none" stroke-width="0.99628" stroke-linecap="butt" stroke-linejoin="miter" stroke="currentColor" stroke-opacity="1" stroke-miterlimit="10" d="M 10.917719 -67.488313 L 113.671625 -159.710969 " transform="matrix(1, 0, 0, -1, 71.969, 70.082)"/>
<path fill-rule="nonzero" fill="currentColor" fill-opacity="1" class="glyph" stroke-width="0.99628" stroke-linecap="butt" stroke-linejoin="miter" stroke="currentColor" stroke-opacity="1" stroke-miterlimit="10" d="M 7.085461 -0.00171925 L 1.609509 2.070031 L 3.423146 0.00247584 L 1.609878 -2.071096 Z M 7.085461 -0.00171925 " transform="matrix(0.74419, 0.66791, 0.66791, -0.74419, 183.279, 227.67252)"/>
<path fill="none" stroke-width="0.99628" stroke-linecap="butt" stroke-linejoin="miter" stroke="currentColor" stroke-opacity="1" stroke-miterlimit="10" d="M 10.917719 -105.582063 L 113.671625 -13.359406 " transform="matrix(1, 0, 0, -1, 71.969, 70.082)"/>
<path fill-rule="nonzero" fill="currentColor" fill-opacity="1" class="glyph" stroke-width="0.99628" stroke-linecap="butt" stroke-linejoin="miter" stroke="currentColor" stroke-opacity="1" stroke-miterlimit="10" d="M 7.084964 0.00116478 L 1.609381 2.070541 L 3.425258 -0.000123091 L 1.609012 -2.070585 Z M 7.084964 0.00116478 " transform="matrix(0.74419, -0.66791, -0.66791, -0.74419, 183.279, 85.56111)"/>
<path fill="none" stroke-width="0.99628" stroke-linecap="butt" stroke-linejoin="miter" stroke="currentColor" stroke-opacity="1" stroke-miterlimit="10" d="M 13.386469 -109.375031 L 110.308344 -65.878938 " transform="matrix(1, 0, 0, -1, 71.969, 70.082)"/>
<path fill-rule="nonzero" fill="currentColor" fill-opacity="1" class="glyph" stroke-width="0.99628" stroke-linecap="butt" stroke-linejoin="miter" stroke="currentColor" stroke-opacity="1" stroke-miterlimit="10" d="M 7.086043 -0.000680565 L 1.610352 2.071187 L 3.421105 -0.000214277 L 1.610558 -2.069323 Z M 7.086043 -0.000680565 " transform="matrix(0.91231, -0.4094, -0.4094, -0.91231, 179.38271, 137.25978)"/>
<path fill="none" stroke-width="0.99628" stroke-linecap="butt" stroke-linejoin="miter" stroke="currentColor" stroke-opacity="1" stroke-miterlimit="10" d="M 14.671625 -115.378938 L 108.554437 -115.378938 " transform="matrix(1, 0, 0, -1, 71.969, 70.082)"/>
<path fill-rule="nonzero" fill="currentColor" fill-opacity="1" class="glyph" stroke-width="0.99628" stroke-linecap="butt" stroke-linejoin="miter" stroke="currentColor" stroke-opacity="1" stroke-miterlimit="10" d="M 7.08714 0.0008225 L 1.610577 2.071135 L 3.423077 0.0008225 L 1.610577 -2.06949 Z M 7.08714 0.0008225 " transform="matrix(1, 0, 0, -1, 177.35036, 185.46176)"/>
<path fill="none" stroke-width="0.99628" stroke-linecap="butt" stroke-linejoin="miter" stroke="currentColor" stroke-opacity="1" stroke-miterlimit="10" d="M 13.386469 -121.38675 L 110.308344 -164.882844 " transform="matrix(1, 0, 0, -1, 71.969, 70.082)"/>
<path fill-rule="nonzero" fill="currentColor" fill-opacity="1" class="glyph" stroke-width="0.99628" stroke-linecap="butt" stroke-linejoin="miter" stroke="currentColor" stroke-opacity="1" stroke-miterlimit="10" d="M 7.086973 -0.00139169 L 1.609888 2.070814 L 3.422035 -0.00185798 L 1.609682 -2.069695 Z M 7.086973 -0.00139169 " transform="matrix(0.91231, 0.4094, 0.4094, -0.91231, 179.38271, 233.66373)"/>
<path fill="none" stroke-width="0.99628" stroke-linecap="butt" stroke-linejoin="miter" stroke="currentColor" stroke-opacity="1" stroke-miterlimit="10" d="M 8.74975 -161.293 L 116.632562 -16.054719 " transform="matrix(1, 0, 0, -1, 71.969, 70.082)"/>
<path fill-rule="nonzero" fill="currentColor" fill-opacity="1" class="glyph" stroke-width="0.99628" stroke-linecap="butt" stroke-linejoin="miter" stroke="currentColor" stroke-opacity="1" stroke-miterlimit="10" d="M 7.084764 -0.0022689 L 1.608113 2.070812 L 3.424416 -0.000975705 L 1.608505 -2.070038 Z M 7.084764 -0.0022689 " transform="matrix(0.59627, -0.80273, -0.80273, -0.59627, 186.70734, 88.6858)"/>
<path fill="none" stroke-width="0.99628" stroke-linecap="butt" stroke-linejoin="miter" stroke="currentColor" stroke-opacity="1" stroke-miterlimit="10" d="M 10.917719 -163.269563 L 113.671625 -71.050813 " transform="matrix(1, 0, 0, -1, 71.969, 70.082)"/>
<path fill-rule="nonzero" fill="currentColor" fill-opacity="1" class="glyph" stroke-width="0.99628" stroke-linecap="butt" stroke-linejoin="miter" stroke="currentColor" stroke-opacity="1" stroke-miterlimit="10" d="M 7.083951 0.0000363172 L 1.608368 2.069413 L 3.424245 -0.00125156 L 1.607999 -2.071714 Z M 7.083951 0.0000363172 " transform="matrix(0.74419, -0.66791, -0.66791, -0.74419, 183.279, 143.251)"/>
<path fill="none" stroke-width="0.99628" stroke-linecap="butt" stroke-linejoin="miter" stroke="currentColor" stroke-opacity="1" stroke-miterlimit="10" d="M 13.386469 -167.062531 L 110.308344 -123.566438 " transform="matrix(1, 0, 0, -1, 71.969, 70.082)"/>
<path fill-rule="nonzero" fill="currentColor" fill-opacity="1" class="glyph" stroke-width="0.99628" stroke-linecap="butt" stroke-linejoin="miter" stroke="currentColor" stroke-opacity="1" stroke-miterlimit="10" d="M 7.085418 -0.00207309 L 1.609727 2.069794 L 3.42208 0.0019572 L 1.609933 -2.070715 Z M 7.085418 -0.00207309 " transform="matrix(0.91231, -0.4094, -0.4094, -0.91231, 179.38271, 194.94966)"/>
<path fill="none" stroke-width="0.99628" stroke-linecap="butt" stroke-linejoin="miter" stroke="currentColor" stroke-opacity="1" stroke-miterlimit="10" d="M 14.671625 -173.070344 L 108.554437 -173.070344 " transform="matrix(1, 0, 0, -1, 71.969, 70.082)"/>
<path fill-rule="nonzero" fill="currentColor" fill-opacity="1" class="glyph" stroke-width="0.99628" stroke-linecap="butt" stroke-linejoin="miter" stroke="currentColor" stroke-opacity="1" stroke-miterlimit="10" d="M 7.08714 -0.00070375 L 1.610577 2.069609 L 3.423077 -0.00070375 L 1.610577 -2.071016 Z M 7.08714 -0.00070375 " transform="matrix(1, 0, 0, -1, 177.35036, 243.15164)"/>
<path fill="none" stroke-width="0.99628" stroke-linecap="butt" stroke-linejoin="miter" stroke="currentColor" stroke-opacity="1" stroke-miterlimit="10" d="M 143.230219 -0.00003125 L 237.113031 -0.00003125 " transform="matrix(1, 0, 0, -1, 71.969, 70.082)"/>
<path fill-rule="nonzero" fill="currentColor" fill-opacity="1" class="glyph" stroke-width="0.99628" stroke-linecap="butt" stroke-linejoin="miter" stroke="currentColor" stroke-opacity="1" stroke-miterlimit="10" d="M 7.084877 -0.00003125 L 1.608315 2.070281 L 3.424721 -0.00003125 L 1.608315 -2.070344 Z M 7.084877 -0.00003125 " transform="matrix(1, 0, 0, -1, 305.90731, 70.082)"/>
<path fill="none" stroke-width="0.99628" stroke-linecap="butt" stroke-linejoin="miter" stroke="currentColor" stroke-opacity="1" stroke-miterlimit="10" d="M 141.941156 -6.007844 L 238.866938 -49.500031 " transform="matrix(1, 0, 0, -1, 71.969, 70.082)"/>
<path fill-rule="nonzero" fill="currentColor" fill-opacity="1" class="glyph" stroke-width="0.99628" stroke-linecap="butt" stroke-linejoin="miter" stroke="currentColor" stroke-opacity="1" stroke-miterlimit="10" d="M 7.083677 0.000475211 L 1.608192 2.069117 L 3.422303 0.00160827 L 1.607986 -2.071392 Z M 7.083677 0.000475211 " transform="matrix(0.91231, 0.4094, 0.4094, -0.91231, 307.93964, 118.28397)"/>
<path fill="none" stroke-width="0.99628" stroke-linecap="butt" stroke-linejoin="miter" stroke="currentColor" stroke-opacity="1" stroke-miterlimit="10" d="M 139.476313 -9.800813 L 242.230219 -102.019563 " transform="matrix(1, 0, 0, -1, 71.969, 70.082)"/>
<path fill-rule="nonzero" fill="currentColor" fill-opacity="1" class="glyph" stroke-width="0.99628" stroke-linecap="butt" stroke-linejoin="miter" stroke="currentColor" stroke-opacity="1" stroke-miterlimit="10" d="M 7.085679 0.00051386 L 1.60682 2.069655 L 3.423066 -0.000807492 L 1.610096 -2.068862 Z M 7.085679 0.00051386 " transform="matrix(0.74419, 0.66791, 0.66791, -0.74419, 311.83594, 169.98263)"/>
<path fill="none" stroke-width="0.99628" stroke-linecap="butt" stroke-linejoin="miter" stroke="currentColor" stroke-opacity="1" stroke-miterlimit="10" d="M 137.304438 -11.777375 L 245.18725 -157.01175 " transform="matrix(1, 0, 0, -1, 71.969, 70.082)"/>
<path fill-rule="nonzero" fill="currentColor" fill-opacity="1" class="glyph" stroke-width="0.99628" stroke-linecap="butt" stroke-linejoin="miter" stroke="currentColor" stroke-opacity="1" stroke-miterlimit="10" d="M 7.084021 0.00000234647 L 1.610091 2.070907 L 3.423673 -0.00129085 L 1.609699 -2.069943 Z M 7.084021 0.00000234647 " transform="matrix(0.59627, 0.80273, 0.80273, -0.59627, 315.26429, 224.54782)"/>
<path fill="none" stroke-width="0.99628" stroke-linecap="butt" stroke-linejoin="miter" stroke="currentColor" stroke-opacity="1" stroke-miterlimit="10" d="M 141.941156 -51.683625 L 238.866938 -8.187531 " transform="matrix(1, 0, 0, -1, 71.969, 70.082)"/>
<path fill-rule="nonzero" fill="currentColor" fill-opacity="1" class="glyph" stroke-width="0.99628" stroke-linecap="butt" stroke-linejoin="miter" stroke="currentColor" stroke-opacity="1" stroke-miterlimit="10" d="M 7.084622 0.00163012 L 1.607331 2.069933 L 3.423248 0.000497055 L 1.607537 -2.070576 Z M 7.084622 0.00163012 " transform="matrix(0.91231, -0.4094, -0.4094, -0.91231, 307.93964, 79.5699)"/>
<path fill="none" stroke-width="0.99628" stroke-linecap="butt" stroke-linejoin="miter" stroke="currentColor" stroke-opacity="1" stroke-miterlimit="10" d="M 143.230219 -57.691438 L 237.113031 -57.691438 " transform="matrix(1, 0, 0, -1, 71.969, 70.082)"/>
<path fill-rule="nonzero" fill="currentColor" fill-opacity="1" class="glyph" stroke-width="0.99628" stroke-linecap="butt" stroke-linejoin="miter" stroke="currentColor" stroke-opacity="1" stroke-miterlimit="10" d="M 7.084877 -0.0015575 L 1.608315 2.068755 L 3.424721 -0.0015575 L 1.608315 -2.07187 Z M 7.084877 -0.0015575 " transform="matrix(1, 0, 0, -1, 305.90731, 127.77188)"/>
<path fill="none" stroke-width="0.99628" stroke-linecap="butt" stroke-linejoin="miter" stroke="currentColor" stroke-opacity="1" stroke-miterlimit="10" d="M 141.941156 -63.695344 L 238.866938 -107.191438 " transform="matrix(1, 0, 0, -1, 71.969, 70.082)"/>
<path fill-rule="nonzero" fill="currentColor" fill-opacity="1" class="glyph" stroke-width="0.99628" stroke-linecap="butt" stroke-linejoin="miter" stroke="currentColor" stroke-opacity="1" stroke-miterlimit="10" d="M 7.084302 -0.000917317 L 1.607218 2.071289 L 3.422928 0.000215745 L 1.607012 -2.069221 Z M 7.084302 -0.000917317 " transform="matrix(0.91231, 0.4094, 0.4094, -0.91231, 307.93964, 175.97385)"/>
<path fill="none" stroke-width="0.99628" stroke-linecap="butt" stroke-linejoin="miter" stroke="currentColor" stroke-opacity="1" stroke-miterlimit="10" d="M 139.476313 -67.488313 L 242.230219 -159.710969 " transform="matrix(1, 0, 0, -1, 71.969, 70.082)"/>
<path fill-rule="nonzero" fill="currentColor" fill-opacity="1" class="glyph" stroke-width="0.99628" stroke-linecap="butt" stroke-linejoin="miter" stroke="currentColor" stroke-opacity="1" stroke-miterlimit="10" d="M 7.086692 -0.000614605 L 1.607833 2.068526 L 3.42147 0.00097126 L 1.611109 -2.069991 Z M 7.086692 -0.000614605 " transform="matrix(0.74419, 0.66791, 0.66791, -0.74419, 311.83594, 227.67252)"/>
<path fill="none" stroke-width="0.99628" stroke-linecap="butt" stroke-linejoin="miter" stroke="currentColor" stroke-opacity="1" stroke-miterlimit="10" d="M 139.476313 -105.582063 L 242.230219 -13.359406 " transform="matrix(1, 0, 0, -1, 71.969, 70.082)"/>
<path fill-rule="nonzero" fill="currentColor" fill-opacity="1" class="glyph" stroke-width="0.99628" stroke-linecap="butt" stroke-linejoin="miter" stroke="currentColor" stroke-opacity="1" stroke-miterlimit="10" d="M 7.086195 0.000060141 L 1.610612 2.069436 L 3.423582 0.00138149 L 1.607335 -2.069081 Z M 7.086195 0.000060141 " transform="matrix(0.74419, -0.66791, -0.66791, -0.74419, 311.83594, 85.56111)"/>
<path fill="none" stroke-width="0.99628" stroke-linecap="butt" stroke-linejoin="miter" stroke="currentColor" stroke-opacity="1" stroke-miterlimit="10" d="M 141.941156 -109.375031 L 238.866938 -65.878938 " transform="matrix(1, 0, 0, -1, 71.969, 70.082)"/>
<path fill-rule="nonzero" fill="currentColor" fill-opacity="1" class="glyph" stroke-width="0.99628" stroke-linecap="butt" stroke-linejoin="miter" stroke="currentColor" stroke-opacity="1" stroke-miterlimit="10" d="M 7.083997 0.00023759 L 1.608306 2.072105 L 3.422623 -0.000895472 L 1.608512 -2.068404 Z M 7.083997 0.00023759 " transform="matrix(0.91231, -0.4094, -0.4094, -0.91231, 307.93964, 137.25978)"/>
<path fill="none" stroke-width="0.99628" stroke-linecap="butt" stroke-linejoin="miter" stroke="currentColor" stroke-opacity="1" stroke-miterlimit="10" d="M 143.230219 -115.378938 L 237.113031 -115.378938 " transform="matrix(1, 0, 0, -1, 71.969, 70.082)"/>
<path fill-rule="nonzero" fill="currentColor" fill-opacity="1" class="glyph" stroke-width="0.99628" stroke-linecap="butt" stroke-linejoin="miter" stroke="currentColor" stroke-opacity="1" stroke-miterlimit="10" d="M 7.084877 0.0008225 L 1.608315 2.071135 L 3.424721 0.0008225 L 1.608315 -2.06949 Z M 7.084877 0.0008225 " transform="matrix(1, 0, 0, -1, 305.90731, 185.46176)"/>
<path fill="none" stroke-width="0.99628" stroke-linecap="butt" stroke-linejoin="miter" stroke="currentColor" stroke-opacity="1" stroke-miterlimit="10" d="M 141.941156 -121.38675 L 238.866938 -164.882844 " transform="matrix(1, 0, 0, -1, 71.969, 70.082)"/>
<path fill-rule="nonzero" fill="currentColor" fill-opacity="1" class="glyph" stroke-width="0.99628" stroke-linecap="butt" stroke-linejoin="miter" stroke="currentColor" stroke-opacity="1" stroke-miterlimit="10" d="M 7.084927 -0.00230984 L 1.607842 2.069896 L 3.423553 -0.00117678 L 1.607636 -2.070613 Z M 7.084927 -0.00230984 " transform="matrix(0.91231, 0.4094, 0.4094, -0.91231, 307.93964, 233.66373)"/>
<path fill="none" stroke-width="0.99628" stroke-linecap="butt" stroke-linejoin="miter" stroke="currentColor" stroke-opacity="1" stroke-miterlimit="10" d="M 137.304438 -161.293 L 245.18725 -16.054719 " transform="matrix(1, 0, 0, -1, 71.969, 70.082)"/>
<path fill-rule="nonzero" fill="currentColor" fill-opacity="1" class="glyph" stroke-width="0.99628" stroke-linecap="butt" stroke-linejoin="miter" stroke="currentColor" stroke-opacity="1" stroke-miterlimit="10" d="M 7.083415 -0.000452569 L 1.609093 2.069493 L 3.423067 0.000840629 L 1.609485 -2.071358 Z M 7.083415 -0.000452569 " transform="matrix(0.59627, -0.80273, -0.80273, -0.59627, 315.26429, 88.6858)"/>
<path fill="none" stroke-width="0.99628" stroke-linecap="butt" stroke-linejoin="miter" stroke="currentColor" stroke-opacity="1" stroke-miterlimit="10" d="M 139.476313 -163.269563 L 242.230219 -71.050813 " transform="matrix(1, 0, 0, -1, 71.969, 70.082)"/>
<path fill-rule="nonzero" fill="currentColor" fill-opacity="1" class="glyph" stroke-width="0.99628" stroke-linecap="butt" stroke-linejoin="miter" stroke="currentColor" stroke-opacity="1" stroke-miterlimit="10" d="M 7.085182 -0.00106832 L 1.609599 2.068308 L 3.422569 0.000253028 L 1.606323 -2.070209 Z M 7.085182 -0.00106832 " transform="matrix(0.74419, -0.66791, -0.66791, -0.74419, 311.83594, 143.251)"/>
<path fill="none" stroke-width="0.99628" stroke-linecap="butt" stroke-linejoin="miter" stroke="currentColor" stroke-opacity="1" stroke-miterlimit="10" d="M 141.941156 -167.062531 L 238.866938 -123.566438 " transform="matrix(1, 0, 0, -1, 71.969, 70.082)"/>
<path fill-rule="nonzero" fill="currentColor" fill-opacity="1" class="glyph" stroke-width="0.99628" stroke-linecap="butt" stroke-linejoin="miter" stroke="currentColor" stroke-opacity="1" stroke-miterlimit="10" d="M 7.083372 -0.00115494 L 1.607681 2.070712 L 3.423598 0.001276 L 1.607887 -2.069797 Z M 7.083372 -0.00115494 " transform="matrix(0.91231, -0.4094, -0.4094, -0.91231, 307.93964, 194.94966)"/>
<path fill="none" stroke-width="0.99628" stroke-linecap="butt" stroke-linejoin="miter" stroke="currentColor" stroke-opacity="1" stroke-miterlimit="10" d="M 143.230219 -173.070344 L 237.113031 -173.070344 " transform="matrix(1, 0, 0, -1, 71.969, 70.082)"/>
<path fill-rule="nonzero" fill="currentColor" fill-opacity="1" class="glyph" stroke-width="0.99628" stroke-linecap="butt" stroke-linejoin="miter" stroke="currentColor" stroke-opacity="1" stroke-miterlimit="10" d="M 7.084877 -0.00070375 L 1.608315 2.069609 L 3.424721 -0.00070375 L 1.608315 -2.071016 Z M 7.084877 -0.00070375 " transform="matrix(1, 0, 0, -1, 305.90731, 243.15164)"/>
</svg>
