<svg xmlns="http://www.w3.org/2000/svg" xmlns:xlink="http://www.w3.org/1999/xlink" width="401.574" height="269.776" class="math" viewBox="0 0 401.574 269.776"><style>.glyph{fill:#000!important}path{stroke:#000!important}@media (prefers-color-scheme:dark){.glyph{fill:#fff!important}path{stroke:#fff!important}}</style><defs><path id="nn_glyph-0-0" d="M4.563-1.281c0-.047-.032-.11-.11-.11-.11 0-.11.032-.156.172-.203.64-.719 1.094-1.188 1.094-.25 0-.5-.156-.5-.594 0-.203.125-.687.204-1.031l.296-1.187c.11-.329.375-.797.844-.797.156 0 .328.015.453.109a.504.504 0 0 0-.422.484c0 .172.125.329.344.329.25 0 .5-.22.5-.532 0-.422-.453-.625-.875-.625-.531 0-.844.485-.953.672a1.04 1.04 0 0 0-1-.672c-.953 0-1.484 1.156-1.484 1.39 0 .079.062.11.125.11.078 0 .109-.047.125-.11.28-.89.875-1.155 1.218-1.155.266 0 .485.172.485.593 0 .313-.375 1.75-.5 2.188-.063.265-.344.828-.828.828-.188 0-.375-.062-.453-.11.234-.046.421-.265.421-.484 0-.234-.171-.328-.343-.328-.266 0-.5.219-.5.531 0 .438.484.61.859.61.531 0 .828-.422.969-.672.219.594.75.672.984.672.969 0 1.485-1.156 1.485-1.375Zm0 0"/><path id="nn_glyph-0-1" d="M1.766-.484A.487.487 0 0 0 1.28-.97a.477.477 0 0 0-.484.485C.797-.22 1 0 1.28 0a.487.487 0 0 0 .485-.484Zm0 0"/><path id="nn_glyph-0-2" d="M4.61-1.281c0-.047-.032-.11-.11-.11-.11 0-.125.047-.156.22-.203.78-.39 1.046-.672 1.046-.235 0-.281-.219-.281-.406 0-.172.046-.36.125-.672l.218-.922L4-3.156c.031-.125.094-.344.094-.375 0-.14-.125-.25-.282-.25-.124 0-.343.062-.39.375-.172-.328-.438-.563-.844-.563-1.047 0-2.203 1.25-2.203 2.61C.375-.375 1 .094 1.609.094c.579 0 1.047-.485 1.204-.656.093.5.546.656.828.656.265 0 .484-.11.687-.485.156-.296.281-.859.281-.89ZM3.28-2.828l-.437 1.734c-.047.172-.047.172-.188.344-.328.39-.687.625-1.031.625-.437 0-.578-.453-.578-.844 0-.437.25-1.469.469-1.906.28-.531.703-.86 1.062-.86.594 0 .735.72.735.782a.4.4 0 0 1-.032.125Zm0 0"/><path id="nn_glyph-0-3" d="M4.5-3.453c.016-.047.031-.094.031-.156 0-.11-.078-.25-.281-.25a.37.37 0 0 0-.344.234l-.156.61-.453 1.78c-.063.266-.063.282-.094.36 0 .047-.375.75-1.031.75-.547 0-.547-.562-.547-.734 0-.407.11-.844.5-1.844.078-.219.125-.344.125-.5a.74.74 0 0 0-.766-.766c-.859 0-1.218 1.281-1.218 1.39 0 .079.062.11.125.11.093 0 .109-.062.14-.172.188-.671.547-1.093.922-1.093.219 0 .219.172.219.297 0 .14-.047.312-.125.515-.422 1.125-.531 1.5-.531 1.922 0 1 .812 1.094 1.14 1.094.438 0 .75-.235.906-.39-.109.452-.203.859-.562 1.312-.266.359-.625.593-1.016.593-.25 0-.546-.078-.671-.328a.5.5 0 0 0 .53-.484c0-.203-.14-.328-.343-.328S.5.64.5 1.047c0 .469.422.797.984.797.907 0 1.891-.782 2.141-1.828Zm0 0"/><path id="nn_glyph-1-0" d="M3.016 0v-.234h-.25c-.625 0-.625-.078-.625-.282v-3.28c0-.188-.016-.188-.203-.188-.391.39-1 .39-1.22.39v.235c.157 0 .563 0 .923-.172v3.015c0 .204 0 .282-.625.282h-.25V0c.328-.031.797-.031 1.125-.031s.797 0 1.125.031Zm0 0"/><path id="nn_glyph-1-1" d="M3.219-1.125H3c-.016.094-.078.484-.156.547-.047.047-.531.047-.625.047h-1.11l.766-.625c.203-.172.734-.547.922-.735.172-.171.422-.484.422-.906 0-.75-.672-1.187-1.485-1.187-.765 0-1.296.515-1.296 1.078 0 .297.25.344.312.344a.32.32 0 0 0 .328-.329c0-.125-.078-.328-.344-.328.141-.297.5-.531.922-.531.625 0 .953.469.953.953 0 .422-.28.86-.687 1.25L.5-.25C.438-.187.438-.187.438 0H3.03Zm0 0"/><path id="nn_glyph-2-0" d="M1.75 0v-6.219H.875V0Zm0 0"/><path id="nn_glyph-2-1" d="M4.11 0v-2.656c0-.672-.188-1.422-1.298-1.422-.718 0-1.156.406-1.374.672v-.625H.734V0H1.5v-2.187c0-.594.234-1.313.938-1.313.906 0 .906.64.906.906V0Zm0 0"/><path id="nn_glyph-2-2" d="M4.516-2c0-1.078-.578-2.078-1.47-2.078-.25 0-.921.047-1.562.531v-.437H.766v5.718h.75v-2.14c.343.312.797.5 1.265.5.938 0 1.735-.89 1.735-2.094Zm-.766.016c0 .859-.64 1.5-1.344 1.5-.297 0-.625-.11-.89-.563v-1.937c.125-.157.453-.485.984-.485.688 0 1.25.64 1.25 1.485Zm0 0"/><path id="nn_glyph-2-3" d="M4.11 0v-3.984h-.766v2.593c0 .72-.578.954-1.125.954-.656 0-.719-.204-.719-.579v-2.968H.734v3c0 .765.313 1.078.97 1.078.53 0 1.234-.14 1.671-.531V0Zm0 0"/><path id="nn_glyph-2-4" d="m3.125-.234-.156-.563a1.5 1.5 0 0 1-.844.281c-.36 0-.469-.312-.469-.78v-2.126H2.97v-.562H1.656v-1.141H.984v1.14H.172v.563h.781v2.297c0 .531.11 1.219.781 1.219.407 0 .875-.078 1.391-.328Zm0 0"/><path id="nn_glyph-2-5" d="M4.719 0v-.625h-.407l-2.218.016H1.75v-5.61H.875V0Zm0 0"/><path id="nn_glyph-2-6" d="M3.86 0v-2.594c0-.89-.672-1.547-1.579-1.547-.594 0-1.031.157-1.469.407l.063.625c.453-.328.89-.453 1.406-.453.5 0 .813.39.813.984v.375C1.53-2.172.5-1.766.5-1.047.5-.625.781.093 1.578.093c.172 0 .969-.015 1.547-.437V0Zm-.766-1.25c0 .188 0 .406-.328.594-.22.14-.532.172-.703.172-.47 0-.86-.22-.86-.578 0-.625 1.781-.657 1.89-.657Zm0 0"/><path id="nn_glyph-2-7" d="M4.203-3.984H3.47C2.78-2.344 2.28-1.156 2.234-.531c-.03-.406-.421-1.328-.53-1.594-.376-.922-.532-1.219-.813-1.86H.125L1.953 0l-.328.797c-.25.5-.422.5-.547.5-.14 0-.469-.031-.734-.156l.047.625c.03.015.375.078.672.078.25 0 .64 0 1.109-1.078Zm0 0"/><path id="nn_glyph-2-8" d="M3.906-1.969c0-.281-.015-.953-.375-1.5-.375-.562-.969-.672-1.312-.672-1.063 0-1.906.97-1.906 2.11 0 1.187.906 2.125 2.046 2.125.438 0 .97-.11 1.5-.438l-.062-.61c-.563.391-1.11.47-1.422.47-.766 0-1.344-.657-1.375-1.485ZM3.36-2.5H1.047c.156-.562.594-1.047 1.172-1.047.344 0 .969.14 1.14 1.047Zm0 0"/><path id="nn_glyph-2-9" d="M3.078-3.437v-.641c-.672 0-1.265.328-1.64.86v-.813H.766V0h.718v-1.906c0-.953.75-1.516 1.594-1.531Zm0 0"/><path id="nn_glyph-2-10" d="M5.766 0v-6.219H4.89v2.688H1.75V-6.22H.875V0h.875v-2.937h3.14V0Zm0 0"/><path id="nn_glyph-2-11" d="M1.484 0v-3.984H.75V0Zm.079-5.047v-.86H.688v.86Zm0 0"/><path id="nn_glyph-2-12" d="M4.078 0v-6.219H3.36v2.625a2.24 2.24 0 0 0-1.39-.484c-.922 0-1.64.937-1.64 2.094S1.03.094 1.921.094c.281 0 .86-.063 1.406-.563V0Zm-.75-1.266c0 .172 0 .188-.094.313-.25.328-.562.469-.89.469-.594 0-1.25-.422-1.25-1.5 0-1.141.765-1.516 1.344-1.516.421 0 .718.234.89.469Zm0 0"/><path id="nn_glyph-2-13" d="M6.406-3.078c0-1.906-1.36-3.344-2.937-3.344C1.89-6.422.516-4.984.516-3.078.516-1.218 1.89.203 3.469.203s2.937-1.422 2.937-3.281Zm-.875-.14c0 1.687-.984 2.78-2.062 2.78-1.094 0-2.063-1.093-2.063-2.78 0-1.641 1.016-2.594 2.063-2.594 1.031 0 2.062.953 2.062 2.593Zm0 0"/><path id="nn_glyph-3-0" d="M4.234-.86s0-.093-.109-.093c-.078 0-.094.031-.125.156-.094.313-.344.656-.656.656-.11 0-.156-.093-.156-.218 0-.11.046-.22.093-.344.094-.235.36-.906.36-1.235 0-.5-.375-.703-.828-.703-.297 0-.672.094-1.063.563-.031-.453-.453-.563-.672-.563-.234 0-.39.141-.484.329-.156.25-.235.562-.235.593 0 .063.063.078.11.078.094 0 .11-.03.14-.125.11-.484.266-.671.454-.671.218 0 .218.234.218.296 0 .094-.062.344-.11.5l-.124.547-.125.453c-.047.172-.11.47-.11.5 0 .141.094.204.204.204s.218-.079.265-.172l.094-.36L1.5-1l.11-.406c.046-.203.25-.516.484-.735a.98.98 0 0 1 .687-.296c.39 0 .39.296.39.421 0 .344-.25.985-.358 1.25a.8.8 0 0 0-.079.313c0 .297.266.516.594.516.61 0 .906-.797.906-.922Zm0 0"/><clipPath id="nn_clip-0"><path d="M43 214h58v55.777H43Zm0 0"/></clipPath><clipPath id="nn_clip-1"><path d="M172 214h57v55.777h-57Zm0 0"/></clipPath><clipPath id="nn_clip-2"><path d="M300 214h58v55.777h-58Zm0 0"/></clipPath></defs><path fill="none" stroke="currentColor" stroke-miterlimit="10" stroke-width=".996" d="M14.172 0c0 7.828-6.344 14.172-14.172 14.172S-14.172 7.828-14.172 0-7.828-14.172 0-14.172 14.172-7.828 14.172 0Zm0 0" transform="matrix(1 0 0 -1 71.969 70.082)"/><use xlink:href="#nn_glyph-0-0" x="67.281" y="71.514" fill="currentColor" class="glyph"/><use xlink:href="#nn_glyph-1-0" x="72.505" y="72.51" fill="currentColor" class="glyph"/><g fill="currentColor" class="glyph"><use xlink:href="#nn_glyph-2-0" x="49.794" y="21.502"/><use xlink:href="#nn_glyph-2-1" x="52.419" y="21.502"/><use xlink:href="#nn_glyph-2-2" x="57.273" y="21.502"/><use xlink:href="#nn_glyph-2-3" x="62.128" y="21.502"/><use xlink:href="#nn_glyph-2-4" x="66.982" y="21.502"/></g><g fill="currentColor" class="glyph"><use xlink:href="#nn_glyph-2-5" x="73.449" y="21.502"/><use xlink:href="#nn_glyph-2-6" x="78.573" y="21.502"/></g><use xlink:href="#nn_glyph-2-7" x="82.833" y="21.502" fill="currentColor" class="glyph"/><g fill="currentColor" class="glyph"><use xlink:href="#nn_glyph-2-8" x="86.91" y="21.502"/><use xlink:href="#nn_glyph-2-9" x="91.088" y="21.502"/></g><g fill="currentColor" class="glyph"><use xlink:href="#nn_glyph-2-10" x="175.797" y="21.502"/><use xlink:href="#nn_glyph-2-11" x="182.444" y="21.502"/><use xlink:href="#nn_glyph-2-12" x="184.688" y="21.502"/><use xlink:href="#nn_glyph-2-12" x="189.543" y="21.502"/><use xlink:href="#nn_glyph-2-8" x="194.398" y="21.502"/><use xlink:href="#nn_glyph-2-1" x="198.575" y="21.502"/></g><g fill="currentColor" class="glyph"><use xlink:href="#nn_glyph-2-5" x="206.503" y="21.502"/><use xlink:href="#nn_glyph-2-6" x="211.626" y="21.502"/></g><use xlink:href="#nn_glyph-2-7" x="215.886" y="21.502" fill="currentColor" class="glyph"/><g fill="currentColor" class="glyph"><use xlink:href="#nn_glyph-2-8" x="219.964" y="21.502"/><use xlink:href="#nn_glyph-2-9" x="224.141" y="21.502"/></g><g fill="currentColor" class="glyph"><use xlink:href="#nn_glyph-2-13" x="303.575" y="21.502"/><use xlink:href="#nn_glyph-2-3" x="310.518" y="21.502"/><use xlink:href="#nn_glyph-2-4" x="315.373" y="21.502"/><use xlink:href="#nn_glyph-2-2" x="318.767" y="21.502"/><use xlink:href="#nn_glyph-2-3" x="323.622" y="21.502"/><use xlink:href="#nn_glyph-2-4" x="328.476" y="21.502"/></g><g fill="currentColor" class="glyph"><use xlink:href="#nn_glyph-2-5" x="334.943" y="21.502"/><use xlink:href="#nn_glyph-2-6" x="340.066" y="21.502"/></g><use xlink:href="#nn_glyph-2-7" x="344.327" y="21.502" fill="currentColor" class="glyph"/><g fill="currentColor" class="glyph"><use xlink:href="#nn_glyph-2-8" x="348.404" y="21.502"/><use xlink:href="#nn_glyph-2-9" x="352.581" y="21.502"/></g><path fill="none" stroke="currentColor" stroke-miterlimit="10" stroke-width=".996" d="M14.172-57.691c0 7.828-6.344 14.175-14.172 14.175s-14.172-6.347-14.172-14.175S-7.828-71.863 0-71.863s14.172 6.343 14.172 14.172Zm0 0" transform="matrix(1 0 0 -1 71.969 70.082)"/><use xlink:href="#nn_glyph-0-0" x="67.281" y="129.203" fill="currentColor" class="glyph"/><use xlink:href="#nn_glyph-1-1" x="72.505" y="130.2" fill="currentColor" class="glyph"/><path fill="none" stroke="currentColor" stroke-miterlimit="10" stroke-width=".996" d="M14.172-115.379c0 7.828-6.344 14.172-14.172 14.172s-14.172-6.344-14.172-14.172S-7.828-129.555 0-129.555s14.172 6.348 14.172 14.176Zm0 0" transform="matrix(1 0 0 -1 71.969 70.082)"/><use xlink:href="#nn_glyph-0-1" x="66.593" y="185.945" fill="currentColor" class="glyph"/><use xlink:href="#nn_glyph-0-1" x="70.686" y="185.945" fill="currentColor" class="glyph"/><use xlink:href="#nn_glyph-0-1" x="74.788" y="185.945" fill="currentColor" class="glyph"/><g clip-path="url(#nn_clip-0)"><path fill="none" stroke="currentColor" stroke-miterlimit="10" stroke-width=".996" d="M14.172-173.07c0 7.828-6.344 14.175-14.172 14.175s-14.172-6.347-14.172-14.175S-7.828-187.242 0-187.242s14.172 6.344 14.172 14.172Zm0 0" transform="matrix(1 0 0 -1 71.969 70.082)"/></g><use xlink:href="#nn_glyph-0-0" x="66.807" y="244.582" fill="currentColor" class="glyph"/><use xlink:href="#nn_glyph-3-0" x="72.031" y="245.578" fill="currentColor" class="glyph"/><path fill="none" stroke="currentColor" stroke-miterlimit="10" stroke-width=".996" d="M142.73 0c0 7.828-6.344 14.172-14.172 14.172S114.383 7.828 114.383 0s6.347-14.172 14.175-14.172S142.73-7.828 142.73 0Zm0 0" transform="matrix(1 0 0 -1 71.969 70.082)"/><use xlink:href="#nn_glyph-0-2" x="196.007" y="71.514" fill="currentColor" class="glyph"/><use xlink:href="#nn_glyph-1-0" x="200.889" y="72.51" fill="currentColor" class="glyph"/><path fill="none" stroke="currentColor" stroke-miterlimit="10" stroke-width=".996" d="M142.73-57.691c0 7.828-6.344 14.175-14.172 14.175s-14.175-6.347-14.175-14.175 6.347-14.172 14.175-14.172 14.172 6.343 14.172 14.172Zm0 0" transform="matrix(1 0 0 -1 71.969 70.082)"/><use xlink:href="#nn_glyph-0-2" x="196.007" y="129.203" fill="currentColor" class="glyph"/><use xlink:href="#nn_glyph-1-1" x="200.889" y="130.2" fill="currentColor" class="glyph"/><path fill="none" stroke="currentColor" stroke-miterlimit="10" stroke-width=".996" d="M142.73-115.379c0 7.828-6.344 14.172-14.172 14.172s-14.175-6.344-14.175-14.172 6.347-14.176 14.175-14.176 14.172 6.348 14.172 14.176Zm0 0" transform="matrix(1 0 0 -1 71.969 70.082)"/><use xlink:href="#nn_glyph-0-1" x="195.148" y="185.945" fill="currentColor" class="glyph"/><use xlink:href="#nn_glyph-0-1" x="199.241" y="185.945" fill="currentColor" class="glyph"/><use xlink:href="#nn_glyph-0-1" x="203.343" y="185.945" fill="currentColor" class="glyph"/><g clip-path="url(#nn_clip-1)"><path fill="none" stroke="currentColor" stroke-miterlimit="10" stroke-width=".996" d="M142.73-173.07c0 7.828-6.344 14.175-14.172 14.175s-14.175-6.347-14.175-14.175 6.347-14.172 14.175-14.172 14.172 6.344 14.172 14.172Zm0 0" transform="matrix(1 0 0 -1 71.969 70.082)"/></g><use xlink:href="#nn_glyph-0-2" x="195.533" y="244.582" fill="currentColor" class="glyph"/><use xlink:href="#nn_glyph-3-0" x="200.415" y="245.578" fill="currentColor" class="glyph"/><path fill="none" stroke="currentColor" stroke-miterlimit="10" stroke-width=".996" d="M271.289 0c0 7.828-6.348 14.172-14.176 14.172S242.941 7.828 242.941 0s6.344-14.172 14.172-14.172S271.289-7.828 271.289 0Zm0 0" transform="matrix(1 0 0 -1 71.969 70.082)"/><use xlink:href="#nn_glyph-0-3" x="324.734" y="71.141" fill="currentColor" class="glyph"/><use xlink:href="#nn_glyph-1-0" x="329.273" y="72.137" fill="currentColor" class="glyph"/><path fill="none" stroke="currentColor" stroke-miterlimit="10" stroke-width=".996" d="M271.289-57.691c0 7.828-6.348 14.175-14.176 14.175s-14.172-6.347-14.172-14.175 6.344-14.172 14.172-14.172 14.176 6.343 14.176 14.172Zm0 0" transform="matrix(1 0 0 -1 71.969 70.082)"/><use xlink:href="#nn_glyph-0-3" x="324.734" y="128.83" fill="currentColor" class="glyph"/><use xlink:href="#nn_glyph-1-1" x="329.273" y="129.826" fill="currentColor" class="glyph"/><path fill="none" stroke="currentColor" stroke-miterlimit="10" stroke-width=".996" d="M271.289-115.379c0 7.828-6.348 14.172-14.176 14.172s-14.172-6.344-14.172-14.172 6.344-14.176 14.172-14.176 14.176 6.348 14.176 14.176Zm0 0" transform="matrix(1 0 0 -1 71.969 70.082)"/><use xlink:href="#nn_glyph-0-1" x="323.704" y="185.945" fill="currentColor" class="glyph"/><use xlink:href="#nn_glyph-0-1" x="327.797" y="185.945" fill="currentColor" class="glyph"/><use xlink:href="#nn_glyph-0-1" x="331.899" y="185.945" fill="currentColor" class="glyph"/><g clip-path="url(#nn_clip-2)"><path fill="none" stroke="currentColor" stroke-miterlimit="10" stroke-width=".996" d="M271.289-173.07c0 7.828-6.348 14.175-14.176 14.175s-14.172-6.347-14.172-14.175 6.344-14.172 14.172-14.172 14.176 6.344 14.176 14.172Zm0 0" transform="matrix(1 0 0 -1 71.969 70.082)"/></g><use xlink:href="#nn_glyph-0-3" x="324.26" y="244.208" fill="currentColor" class="glyph"/><use xlink:href="#nn_glyph-3-0" x="328.799" y="245.204" fill="currentColor" class="glyph"/><path fill="none" stroke="currentColor" stroke-miterlimit="10" stroke-width=".996" d="M14.672 0h93.882" transform="matrix(1 0 0 -1 71.969 70.082)"/><path fill="currentColor" stroke="currentColor" stroke-miterlimit="10" stroke-width=".996" d="M7.087 0 1.611 2.07 3.423 0 1.611-2.07Zm0 0" class="glyph" transform="matrix(1 0 0 -1 177.35 70.082)"/><path fill="none" stroke="currentColor" stroke-miterlimit="10" stroke-width=".996" d="M13.386-6.008 110.308-49.5" transform="matrix(1 0 0 -1 71.969 70.082)"/><path fill="currentColor" stroke="currentColor" stroke-miterlimit="10" stroke-width=".996" d="M7.086.001 1.61 2.07 3.42 0 1.61-2.07Zm0 0" class="glyph" transform="rotate(204.168 102.353 39.94)scale(-.99996 .99996)"/><path fill="none" stroke="currentColor" stroke-miterlimit="10" stroke-width=".996" d="m10.918-9.8 102.754-92.22" transform="matrix(1 0 0 -1 71.969 70.082)"/><path fill="currentColor" stroke="currentColor" stroke-miterlimit="10" stroke-width=".996" d="M7.084 0 1.608 2.07 3.425.001 1.609-2.07Zm0 0" class="glyph" transform="rotate(221.908 124.186 49.899)scale(-.99996 .99996)"/><path fill="none" stroke="currentColor" stroke-miterlimit="10" stroke-width=".996" d="m8.75-11.777 107.883-145.235" transform="matrix(1 0 0 -1 71.969 70.082)"/><path fill="currentColor" stroke="currentColor" stroke-miterlimit="10" stroke-width=".996" d="M7.085.002 1.61 2.07 3.425 0 1.609-2.07Zm0 0" class="glyph" transform="rotate(233.395 149.815 65.327)scale(-.99996 .99996)"/><path fill="none" stroke="currentColor" stroke-miterlimit="10" stroke-width=".996" d="m13.386-51.684 96.922 43.496" transform="matrix(1 0 0 -1 71.969 70.082)"/><path fill="currentColor" stroke="currentColor" stroke-miterlimit="10" stroke-width=".996" d="M7.087 0 1.609 2.07 3.422.001 1.61-2.07Zm0 0" class="glyph" transform="rotate(155.832 81.174 58.987)scale(-.99996 .99996)"/><path fill="none" stroke="currentColor" stroke-miterlimit="10" stroke-width=".996" d="M14.672-57.691h93.882" transform="matrix(1 0 0 -1 71.969 70.082)"/><path fill="currentColor" stroke="currentColor" stroke-miterlimit="10" stroke-width=".996" d="m7.087-.002-5.476 2.07 1.812-2.07-1.812-2.07Zm0 0" class="glyph" transform="matrix(1 0 0 -1 177.35 127.772)"/><path fill="none" stroke="currentColor" stroke-miterlimit="10" stroke-width=".996" d="m13.386-63.695 96.922-43.496" transform="matrix(1 0 0 -1 71.969 70.082)"/><path fill="currentColor" stroke="currentColor" stroke-miterlimit="10" stroke-width=".996" d="M7.086 0 1.61 2.072 3.421 0 1.61-2.068Zm0 0" class="glyph" transform="matrix(.91231 .4094 .4094 -.91231 179.383 175.974)"/><path fill="none" stroke="currentColor" stroke-miterlimit="10" stroke-width=".996" d="m10.918-67.488 102.754-92.223" transform="matrix(1 0 0 -1 71.969 70.082)"/><path fill="currentColor" stroke="currentColor" stroke-miterlimit="10" stroke-width=".996" d="M7.085-.002 1.61 2.07 3.423.002 1.61-2.07Zm0 0" class="glyph" transform="rotate(41.908 -205.628 353.14)scale(.99996 -.99996)"/><path fill="none" stroke="currentColor" stroke-miterlimit="10" stroke-width=".996" d="M10.918-105.582 113.672-13.36" transform="matrix(1 0 0 -1 71.969 70.082)"/><path fill="currentColor" stroke="currentColor" stroke-miterlimit="10" stroke-width=".996" d="m7.085.001-5.476 2.07L3.425 0 1.61-2.07Zm0 0" class="glyph" transform="rotate(138.092 75.257 77.873)scale(-.99996 .99996)"/><path fill="none" stroke="currentColor" stroke-miterlimit="10" stroke-width=".996" d="m13.386-109.375 96.922 43.496" transform="matrix(1 0 0 -1 71.969 70.082)"/><path fill="currentColor" stroke="currentColor" stroke-miterlimit="10" stroke-width=".996" d="M7.086 0 1.61 2.07 3.421 0l-1.81-2.07Zm0 0" class="glyph" transform="rotate(155.832 74.998 87.832)scale(-.99996 .99996)"/><path fill="none" stroke="currentColor" stroke-miterlimit="10" stroke-width=".996" d="M14.672-115.379h93.882" transform="matrix(1 0 0 -1 71.969 70.082)"/><path fill="currentColor" stroke="currentColor" stroke-miterlimit="10" stroke-width=".996" d="M7.087 0 1.611 2.072 3.423.001 1.611-2.07Zm0 0" class="glyph" transform="matrix(1 0 0 -1 177.35 185.462)"/><path fill="none" stroke="currentColor" stroke-miterlimit="10" stroke-width=".996" d="m13.386-121.387 96.922-43.496" transform="matrix(1 0 0 -1 71.969 70.082)"/><path fill="currentColor" stroke="currentColor" stroke-miterlimit="10" stroke-width=".996" d="M7.087-.001 1.61 2.07 3.422-.002 1.61-2.07Zm0 0" class="glyph" transform="rotate(204.168 114.704 97.63)scale(-.99996 .99996)"/><path fill="none" stroke="currentColor" stroke-miterlimit="10" stroke-width=".996" d="M8.75-161.293 116.633-16.055" transform="matrix(1 0 0 -1 71.969 70.082)"/><path fill="currentColor" stroke="currentColor" stroke-miterlimit="10" stroke-width=".996" d="M7.085-.002 1.608 2.07 3.424-.001 1.61-2.07Zm0 0" class="glyph" transform="rotate(126.605 71.054 91.29)scale(-.99996 .99996)"/><path fill="none" stroke="currentColor" stroke-miterlimit="10" stroke-width=".996" d="m10.918-163.27 102.754 92.22" transform="matrix(1 0 0 -1 71.969 70.082)"/><path fill="currentColor" stroke="currentColor" stroke-miterlimit="10" stroke-width=".996" d="M7.084 0 1.608 2.07 3.424-.002l-1.816-2.07Zm0 0" class="glyph" transform="rotate(138.092 64.211 106.718)scale(-.99996 .99996)"/><path fill="none" stroke="currentColor" stroke-miterlimit="10" stroke-width=".996" d="m13.386-167.063 96.922 43.497" transform="matrix(1 0 0 -1 71.969 70.082)"/><path fill="currentColor" stroke="currentColor" stroke-miterlimit="10" stroke-width=".996" d="M7.085-.002 1.61 2.07 3.422.002 1.61-2.071Zm0 0" class="glyph" transform="rotate(155.832 68.823 116.677)scale(-.99996 .99996)"/><path fill="none" stroke="currentColor" stroke-miterlimit="10" stroke-width=".996" d="M14.672-173.07h93.882" transform="matrix(1 0 0 -1 71.969 70.082)"/><path fill="currentColor" stroke="currentColor" stroke-miterlimit="10" stroke-width=".996" d="M7.087 0 1.611 2.07 3.423 0 1.611-2.072Zm0 0" class="glyph" transform="matrix(1 0 0 -1 177.35 243.152)"/><path fill="none" stroke="currentColor" stroke-miterlimit="10" stroke-width=".996" d="M143.23 0h93.883" transform="matrix(1 0 0 -1 71.969 70.082)"/><path fill="currentColor" stroke="currentColor" stroke-miterlimit="10" stroke-width=".996" d="M7.085 0 1.608 2.07 3.425 0 1.608-2.07Zm0 0" class="glyph" transform="matrix(1 0 0 -1 305.907 70.082)"/><path fill="none" stroke="currentColor" stroke-miterlimit="10" stroke-width=".996" d="M141.941-6.008 238.867-49.5" transform="matrix(1 0 0 -1 71.969 70.082)"/><path fill="currentColor" stroke="currentColor" stroke-miterlimit="10" stroke-width=".996" d="M7.084 0 1.608 2.07 3.422.001 1.608-2.071Zm0 0" class="glyph" transform="matrix(.91231 .4094 .4094 -.91231 307.94 118.284)"/><path fill="none" stroke="currentColor" stroke-miterlimit="10" stroke-width=".996" d="m139.476-9.8 102.754-92.22" transform="matrix(1 0 0 -1 71.969 70.082)"/><path fill="currentColor" stroke="currentColor" stroke-miterlimit="10" stroke-width=".996" d="m7.086 0-5.48 2.07L3.424 0 1.61-2.07Zm0 0" class="glyph" transform="rotate(41.908 -66.025 492.149)scale(.99996 -.99996)"/><path fill="none" stroke="currentColor" stroke-miterlimit="10" stroke-width=".996" d="m137.304-11.777 107.883-145.235" transform="matrix(1 0 0 -1 71.969 70.082)"/><path fill="currentColor" stroke="currentColor" stroke-miterlimit="10" stroke-width=".996" d="M7.084 0 1.61 2.07 3.424 0 1.61-2.07Zm0 0" class="glyph" transform="rotate(53.395 -65.624 425.725)scale(.99996 -.99996)"/><path fill="none" stroke="currentColor" stroke-miterlimit="10" stroke-width=".996" d="m141.941-51.684 96.926 43.496" transform="matrix(1 0 0 -1 71.969 70.082)"/><path fill="currentColor" stroke="currentColor" stroke-miterlimit="10" stroke-width=".996" d="M7.085.002 1.607 2.07 3.423 0 1.608-2.07Zm0 0" class="glyph" transform="matrix(.91231 -.4094 -.4094 -.91231 307.94 79.57)"/><path fill="none" stroke="currentColor" stroke-miterlimit="10" stroke-width=".996" d="M143.23-57.691h93.883" transform="matrix(1 0 0 -1 71.969 70.082)"/><path fill="currentColor" stroke="currentColor" stroke-miterlimit="10" stroke-width=".996" d="m7.085-.002-5.477 2.07 1.817-2.07-1.817-2.07Zm0 0" class="glyph" transform="matrix(1 0 0 -1 305.907 127.772)"/><path fill="none" stroke="currentColor" stroke-miterlimit="10" stroke-width=".996" d="m141.941-63.695 96.926-43.496" transform="matrix(1 0 0 -1 71.969 70.082)"/><path fill="currentColor" stroke="currentColor" stroke-miterlimit="10" stroke-width=".996" d="M7.084 0 1.607 2.07 3.423.001 1.607-2.07Zm0 0" class="glyph" transform="matrix(.91231 .4094 .4094 -.91231 307.94 175.974)"/><path fill="none" stroke="currentColor" stroke-miterlimit="10" stroke-width=".996" d="m139.476-67.488 102.754-92.223" transform="matrix(1 0 0 -1 71.969 70.082)"/><path fill="currentColor" stroke="currentColor" stroke-miterlimit="10" stroke-width=".996" d="m7.087 0-5.48 2.069L3.422 0 1.611-2.07Zm0 0" class="glyph" transform="rotate(221.908 199.51 54.129)scale(-.99996 .99996)"/><path fill="none" stroke="currentColor" stroke-miterlimit="10" stroke-width=".996" d="M139.476-105.582 242.23-13.36" transform="matrix(1 0 0 -1 71.969 70.082)"/><path fill="currentColor" stroke="currentColor" stroke-miterlimit="10" stroke-width=".996" d="M7.086 0 1.611 2.07 3.424 0l-1.817-2.07Zm0 0" class="glyph" transform="rotate(138.092 139.535 102.488)scale(-.99996 .99996)"/><path fill="none" stroke="currentColor" stroke-miterlimit="10" stroke-width=".996" d="m141.941-109.375 96.926 43.496" transform="matrix(1 0 0 -1 71.969 70.082)"/><path fill="currentColor" stroke="currentColor" stroke-miterlimit="10" stroke-width=".996" d="M7.084 0 1.608 2.072 3.423 0 1.609-2.068Zm0 0" class="glyph" transform="matrix(.91231 -.4094 -.4094 -.91231 307.94 137.26)"/><path fill="none" stroke="currentColor" stroke-miterlimit="10" stroke-width=".996" d="M143.23-115.379h93.883" transform="matrix(1 0 0 -1 71.969 70.082)"/><path fill="currentColor" stroke="currentColor" stroke-miterlimit="10" stroke-width=".996" d="M7.085 0 1.608 2.072 3.425.001 1.608-2.07Zm0 0" class="glyph" transform="matrix(1 0 0 -1 305.907 185.462)"/><path fill="none" stroke="currentColor" stroke-miterlimit="10" stroke-width=".996" d="m141.941-121.387 96.926-43.496" transform="matrix(1 0 0 -1 71.969 70.082)"/><path fill="currentColor" stroke="currentColor" stroke-miterlimit="10" stroke-width=".996" d="M7.085-.002 1.608 2.07 3.424-.001l-1.816-2.07Zm0 0" class="glyph" transform="matrix(.91231 .4094 .4094 -.91231 307.94 233.664)"/><path fill="none" stroke="currentColor" stroke-miterlimit="10" stroke-width=".996" d="M137.304-161.293 245.187-16.055" transform="matrix(1 0 0 -1 71.969 70.082)"/><path fill="currentColor" stroke="currentColor" stroke-miterlimit="10" stroke-width=".996" d="M7.083 0 1.61 2.07 3.423 0 1.61-2.07Zm0 0" class="glyph" transform="rotate(126.605 135.332 123.615)scale(-.99996 .99996)"/><path fill="none" stroke="currentColor" stroke-miterlimit="10" stroke-width=".996" d="M139.476-163.27 242.23-71.05" transform="matrix(1 0 0 -1 71.969 70.082)"/><path fill="currentColor" stroke="currentColor" stroke-miterlimit="10" stroke-width=".996" d="M7.085-.001 1.61 2.069 3.423 0 1.606-2.07Zm0 0" class="glyph" transform="rotate(138.092 128.49 131.333)scale(-.99996 .99996)"/><path fill="none" stroke="currentColor" stroke-miterlimit="10" stroke-width=".996" d="m141.941-167.063 96.926 43.497" transform="matrix(1 0 0 -1 71.969 70.082)"/><path fill="currentColor" stroke="currentColor" stroke-miterlimit="10" stroke-width=".996" d="M7.083-.001 1.608 2.07 3.424 0l-1.816-2.07Zm0 0" class="glyph" transform="matrix(.91231 -.4094 -.4094 -.91231 307.94 194.95)"/><path fill="none" stroke="currentColor" stroke-miterlimit="10" stroke-width=".996" d="M143.23-173.07h93.883" transform="matrix(1 0 0 -1 71.969 70.082)"/><path fill="currentColor" stroke="currentColor" stroke-miterlimit="10" stroke-width=".996" d="M7.085 0 1.608 2.07 3.425 0 1.608-2.072Zm0 0" class="glyph" transform="matrix(1 0 0 -1 305.907 243.152)"/></svg>