<svg xmlns="http://www.w3.org/2000/svg" xmlns:xlink="http://www.w3.org/1999/xlink" width="579.628" height="445.358" style="--axis-color:#000;--grid-stroke:rgba(0,0,0,0.2);--plot3d-stroke:rgba(0,0,0,0.3);--plot3d-grid:rgba(0,0,0,0.2)" viewBox="0 0 434.721 334.019"><style><![CDATA[@media (prefers-color-scheme:dark){:root{--axis-color:#fff;--grid-stroke:rgba(255,255,255,0.2);--plot3d-stroke:rgba(255,255,255,0.3);--plot3d-grid:rgba(255,255,255,0.2)}}.text{fill:var(--axis-color)!important;stroke:none!important}.axis path,.patch path[style*="stroke: currentColor"],.tick path{stroke:var(--axis-color)!important}@media (prefers-color-scheme:dark){g.legend>g:first-child>path:first-child{fill:rgba(26,26,26,.8)!important;stroke:rgba(255,255,255,.1)!important}}*{stroke-linejoin:round;stroke-linecap:butt}]]></style><g id="figure_1"><path d="M0 334.019h434.72V0H0z" class="patch" style="fill:none"/><g id="axes_1"><path d="M49.733 297.43h357.12V31.318H49.733z" class="patch" style="fill:none"/><g id="FillBetweenPolyCollection_1"><defs><path id="m18628eca7c" d="m65.965-177.472.651 5.796.65 2.372.651 1.8.65 1.503.651 1.31.651 1.171.65 1.066.651.982.65.912.651.854.651.803.65.76.651.721.65.686.652.656.65.627.65.6.651.578.651.556.65.536.651.517.65.499.651.483.651.467.65.453.651.44.65.426.651.414.651.402.65.391.651.38.65.371.652.361.65.352.65.343.651.334.651.326.65.318.651.31.65.304.651.297.651.29.65.283.651.276.65.271.651.265.651.26.65.253.651.248.65.243.652.238.65.234.65.228.651.224.651.22.65.214.651.211.65.207.651.202.651.199.65.195.651.191.65.188.651.184.651.18.65.178.651.174.65.17.651.168.651.165.65.161.651.16.65.155.652.153.65.15.65.148.651.146.651.142.65.14.651.138.65.135.651.134.651.13.65.129.651.126.65.124.651.122.651.12.65.118.651.117.65.114.652.112.65.11.65.109.651.107.651.105.65.103.651.102.65.1.651.098.651.097.65.095.651.093.65.093.651.09.651.09.65.087.651.087.65.085.652.083.65.083.65.08.651.08.651.08.65.076.651.076.65.075.651.074.651.073.65.071.651.07.65.07.651.068.651.067.65.066.651.065.65.064.652.064.65.062.65.06.651.061.65.06.652.058.65.057.65.057.651.056.651.055.65.054.651.053.65.053.651.052.651.05.65.05.651.05.65.049.651.048.651.047.65.047.651.045.65.046.652.044.65.044.65.043.651.043.651.042.65.04.651.041.65.04.651.04.651.039.65.038.651.038.65.037.651.037.651.036.65.036.651.035.65.034.652.034.65.034.65.033.651.032.651.032.65.032.651.031.65.031.651.03.651.03.65.03.651.028.65.029.651.028.651.028.65.027.651.027.65.027.652.026.65.025.65.026.651.025.651.025.65.024.651.024.65.023.651.024.651.023.65.022.651.023.65.021.651.022.651.021.65.021.651.021.65.02.651.02.651.02.65.02.651.02.65.018.652.02.65.018.65.018.651.018.651.017.65.018.651.017.65.017.651.017.651.016.65.016.651.016.65.016.651.016.651.015.65.015.651.015.65.015.652.014.65.014.65.014.651.014.651.014.65.013.651.014.65.013.651.013.651.012.65.013.651.012.65.012.651.012.651.012.65.012.651.011.65.012.652.011.65.011.65.01.651.012.651.01.65.01.651.01.65.01.651.01.651.01.65.01.651.01.65.01.651.009.651.009.65.009.651.009.65.009.652.008.65.009.65.008.651.008.65.009.652.008.65.008.65.008.651.007.651.008.65.007.651.008.65.007.651.007.651.007.65.007.651.007.65.007.651.007.651.006.65.007.651.006.65.007.652.006.65.006.65.006.651.006.651.006.65.006.651.006.65.005.651.006.651.005.65.006.651.005.65.005.651.006.651.005.65.005.651.005.65.005.652.004.65.005.65.005.651.005.651.004.65.005.651.004.65.004.651.005.651.004.65.004.651.004.65.005.651.004.651.004.65.003.651.004.65.004.652.004.65.004.65.003.651.004.651.003.65.004.651.003.65.004.651.003.651.003.65.004.651.003.65.003.651.003.651.003.65.003.651.003.65.003.651.003.651.003.65.003.651.003.65.002.652.003.65.003.65.002.651.003.651.003.65.002.651.003.65.002.651.003.651.002.65.002.651.003.65.002.651.002.651.002.65.003.651.002.65.002.652.002.65.002.65.002.651.002.651.002.65.002.651.002.65.002.651.002.651.002.65.002.651.001.65.002.651.002.651.002.65.001.651.002.65.002.652.001.65.002.65.002.651.001.651.002.65.001.651.002.65.001.651.002.651.001.65.001.651.002.65.001.651.002.651.001.65.001.651.002h.65l.652.002.65.001.65.002h.651l.65.002.652.001.65.001.65.002h.651l.651.002h.65l.651.002.65.001.651.001.651.001.65.001.651.001.65.001.651.001.651.001.65.001.651.001.65.001h.652l.65.002h.65l.651.002h.651l.65.001.651.001.65.001h.651l.651.002h.65l.651.001.65.001h.651l.651.002h.65l.651.001h.65l.652.001.65.001h.65l.651.002h1.301l.651.002h1.301l.651.001.65.001h.651l.65.001h.651l.651.001.65.001h.651l.65.001h.652l.65.001h.65l.651.001h.651l.65.001h.651l.65.001h.651l.651.001h.65l.651.001h.65l.651.001h.651l.65.001h.651l.65.001h1.302l.65.001h.651l.65.001h.652l.65.001h1.301l.651.001h1.301l.65.001h.651l.651.001h1.301l.65.001h1.302l.65.001h1.301v-98.169h-1.3l-.65.001h-1.302l-.65.001h-.651l-.651.001h-1.301l-.65.001h-1.302l-.65.001h-1.301l-.651.001h-.651l-.65.001h-.651l-.65.001h-1.302l-.65.001h-.651l-.65.001h-.652l-.65.001h-.65l-.651.001h-.651l-.65.001h-.651l-.65.001h-.651l-.651.001h-.65l-.651.001h-.65l-.651.001h-.651l-.65.001h-.651l-.65.001-.652.001h-.65l-.65.001h-.651l-.651.001-.65.001h-.651l-.65.001-.651.001h-.651l-.65.001-.651.001h-.65l-.651.001-.651.001h-.65l-.651.002h-.65l-.652.001h-.65l-.65.002h-.651l-.651.001-.65.001h-.651l-.65.002h-.651l-.651.001-.65.001-.651.001-.65.001-.651.001h-.651l-.65.002h-.651l-.65.002h-.652l-.65.002h-.65l-.651.002h-.65l-.652.002h-.65l-.65.002-.651.001-.651.001-.65.001-.651.001-.65.002h-.651l-.651.002-.65.001-.651.001-.65.002h-.651l-.651.002-.65.001-.651.002-.65.001-.652.001-.65.002-.65.001-.651.001-.651.002-.65.001-.651.002-.65.001-.651.002-.651.001-.65.002-.651.001-.65.002-.651.002-.651.001-.65.002-.651.002-.65.001-.652.002-.65.002-.65.002-.651.001-.651.002-.65.002-.651.002-.65.002-.651.002-.651.002-.65.002-.651.002-.65.002-.651.002-.651.002-.65.002-.651.002-.65.003-.652.002-.65.002-.65.002-.651.003-.651.002-.65.002-.651.003-.65.002-.651.003-.651.002-.65.003-.651.002-.65.003-.651.003-.651.002-.65.003-.651.003-.65.003-.651.003-.651.003-.65.003-.651.003-.65.003-.652.003-.65.003-.65.003-.651.003-.651.004-.65.003-.651.003-.65.004-.651.003-.651.004-.65.003-.651.004-.65.003-.651.004-.651.004-.65.004-.651.003-.65.004-.652.004-.65.004-.65.004-.651.005-.651.004-.65.004-.651.004-.65.005-.651.004-.651.005-.65.004-.651.005-.65.005-.651.004-.651.005-.65.005-.651.005-.65.005-.652.005-.65.006-.65.005-.651.005-.651.006-.65.005-.651.006-.65.005-.651.006-.651.006-.65.006-.651.006-.65.006-.651.006-.651.006-.65.007-.651.006-.65.007-.652.006-.65.007-.65.007-.651.007-.65.007-.652.007-.65.007-.65.007-.651.008-.651.007-.65.008-.651.007-.65.008-.651.008-.651.008-.65.008-.651.009-.65.008-.651.009-.651.008-.65.01-.651.008-.65.009-.652.01-.65.008-.65.01-.651.01-.651.01-.65.009-.651.01-.65.01-.651.01-.651.01-.65.011-.651.011-.65.01-.651.012-.651.011-.65.011-.651.012-.65.012-.652.011-.65.012-.65.013-.651.012-.651.013-.65.012-.651.013-.65.013-.651.014-.651.013-.65.014-.651.013-.65.015-.651.014-.651.014-.65.015-.651.015-.65.015-.652.015-.65.016-.65.016-.651.016-.651.016-.65.016-.651.017-.65.017-.651.017-.651.017-.65.018-.651.018-.65.018-.651.019-.651.018-.65.02-.651.019-.65.02-.652.02-.65.02-.65.02-.651.02-.65.021-.652.022-.65.021-.65.022-.651.023-.651.022-.65.023-.651.023-.65.024-.651.024-.651.024-.65.025-.651.025-.65.025-.651.026-.651.026-.65.027-.651.027-.65.027-.652.028-.65.028-.65.029-.651.028-.651.03-.65.03-.651.03-.65.03-.651.032-.651.031-.65.033-.651.032-.65.033-.651.034-.651.034-.65.034-.651.035-.65.036-.652.036-.65.037-.65.037-.651.038-.651.038-.65.039-.651.04-.65.04-.651.04-.651.041-.65.042-.651.043-.65.043-.651.044-.651.044-.65.045-.651.046-.65.047-.652.047-.65.048-.65.049-.651.05-.651.05-.65.05-.651.052-.65.053-.651.053-.651.054-.65.055-.651.056-.65.056-.651.058-.651.058-.65.06-.651.06-.65.061-.651.062-.651.064-.65.064-.651.065-.65.066-.652.067-.65.068-.65.07-.651.07-.651.071-.65.073-.651.074-.65.074-.651.077-.651.077-.65.078-.651.08-.65.081-.651.083-.651.083-.65.085-.651.087-.65.087-.652.09-.65.09-.65.093-.651.093-.651.095-.65.097-.651.098-.65.1-.651.102-.651.103-.65.105-.651.107-.65.109-.651.11-.651.112-.65.114-.651.116-.65.118-.652.12-.65.123-.65.124-.651.126-.651.129-.65.13-.651.133-.65.136-.651.138-.651.14-.65.142-.651.146-.65.147-.651.15-.651.154-.65.156-.651.159-.65.161-.652.165-.65.168-.65.17-.651.174-.65.178-.652.18-.65.184-.65.188-.651.191-.651.195-.65.199-.651.202-.65.207-.651.21-.651.216-.65.219-.651.224-.65.228-.651.233-.651.239-.65.243-.651.248-.65.254-.652.259-.65.265-.65.27-.651.277-.651.283-.65.29-.651.297-.65.303-.651.31-.651.319-.65.326-.651.334-.65.343-.651.352-.651.36-.65.371-.651.38-.65.392-.652.402-.65.414-.65.426-.651.44-.651.453-.65.467-.651.483-.65.5-.651.516-.651.536-.65.556-.651.577-.65.601-.651.627-.651.656-.65.686-.651.72-.65.76-.652.804-.65.854-.65.912-.651.982-.651 1.066-.65 1.171-.651 1.31-.65 1.502-.651 1.8-.651 2.373z" style="stroke:gray;stroke-opacity:.2"/></defs><g clip-path="url(#pdd810b26fd)"><use xlink:href="#m18628eca7c" y="334.019" style="fill:gray;fill-opacity:.2;stroke:gray;stroke-opacity:.2"/></g></g><g class="axis"><g class="tick xtick"><path id="line2d_1" d="M65.965 297.43V31.318" clip-path="url(#pdd810b26fd)" style="fill:none;stroke:#b0b0b0;stroke-opacity:.15;stroke-width:.8;stroke-linecap:square"/><g id="line2d_2"><defs><path id="mc313e56e31" d="M0 0v3.5" style="stroke:currentColor;stroke-width:.8"/></defs><use xlink:href="#mc313e56e31" x="65.965" y="297.43" style="stroke:currentColor;stroke-width:.8"/></g><g id="text_1" class="text" transform="matrix(.09 0 0 -.09 63.102 311.269)"><defs><path id="DejaVuSans-30" d="M2034 4250q-487 0-733-480-245-479-245-1442 0-959 245-1439 246-480 733-480 491 0 736 480 246 480 246 1439 0 963-246 1442-245 480-736 480zm0 500q785 0 1199-621 414-620 414-1801 0-1178-414-1799Q2819-91 2034-91q-784 0-1198 620-414 621-414 1799 0 1181 414 1801 414 621 1198 621z" transform="scale(.01563)"/></defs><use xlink:href="#DejaVuSans-30"/></g></g><g class="tick xtick"><path id="line2d_3" d="M130.896 297.43V31.318" clip-path="url(#pdd810b26fd)" style="fill:none;stroke:#b0b0b0;stroke-opacity:.15;stroke-width:.8;stroke-linecap:square"/><use xlink:href="#mc313e56e31" id="line2d_4" x="130.896" y="297.43" style="stroke:currentColor;stroke-width:.8"/><g id="text_2" class="text" transform="matrix(.09 0 0 -.09 128.033 311.269)"><defs><path id="DejaVuSans-31" d="M794 531h1031v3560L703 3866v575l1116 225h631V531h1031V0H794z" transform="scale(.01563)"/></defs><use xlink:href="#DejaVuSans-31"/></g></g><g class="tick xtick"><path id="line2d_5" d="M195.827 297.43V31.318" clip-path="url(#pdd810b26fd)" style="fill:none;stroke:#b0b0b0;stroke-opacity:.15;stroke-width:.8;stroke-linecap:square"/><use xlink:href="#mc313e56e31" id="line2d_6" x="195.827" y="297.43" style="stroke:currentColor;stroke-width:.8"/><g id="text_3" class="text" transform="matrix(.09 0 0 -.09 192.964 311.269)"><defs><path id="DejaVuSans-32" d="M1228 531h2203V0H469v531q359 372 979 998 621 627 780 809 303 340 423 576 121 236 121 464 0 372-261 606-261 235-680 235-297 0-627-103-329-103-704-313v638q381 153 712 231 332 78 607 78 725 0 1156-363 431-362 431-968 0-288-108-546-107-257-392-607-78-91-497-524-418-433-1181-1211z" transform="scale(.01563)"/></defs><use xlink:href="#DejaVuSans-32"/></g></g><g class="tick xtick"><path id="line2d_7" d="M260.758 297.43V31.318" clip-path="url(#pdd810b26fd)" style="fill:none;stroke:#b0b0b0;stroke-opacity:.15;stroke-width:.8;stroke-linecap:square"/><use xlink:href="#mc313e56e31" id="line2d_8" x="260.758" y="297.43" style="stroke:currentColor;stroke-width:.8"/><g id="text_4" class="text" transform="matrix(.09 0 0 -.09 257.895 311.269)"><defs><path id="DejaVuSans-33" d="M2597 2516q453-97 707-404 255-306 255-756 0-690-475-1069Q2609-91 1734-91q-293 0-604 58T488 141v609q262-153 574-231 313-78 654-78 593 0 904 234t311 681q0 413-289 645-289 233-804 233h-544v519h569q465 0 712 186t247 536q0 359-255 551-254 193-729 193-260 0-557-57-297-56-653-174v562q360 100 674 150t592 50q719 0 1137-327 419-326 419-882 0-388-222-655t-631-370z" transform="scale(.01563)"/></defs><use xlink:href="#DejaVuSans-33"/></g></g><g class="tick xtick"><path id="line2d_9" d="M325.689 297.43V31.318" clip-path="url(#pdd810b26fd)" style="fill:none;stroke:#b0b0b0;stroke-opacity:.15;stroke-width:.8;stroke-linecap:square"/><use xlink:href="#mc313e56e31" id="line2d_10" x="325.689" y="297.43" style="stroke:currentColor;stroke-width:.8"/><g id="text_5" class="text" transform="matrix(.09 0 0 -.09 322.826 311.269)"><defs><path id="DejaVuSans-34" d="M2419 4116 825 1625h1594zm-166 550h794V1625h666v-525h-666V0h-628v1100H313v609z" transform="scale(.01563)"/></defs><use xlink:href="#DejaVuSans-34"/></g></g><g class="tick xtick"><path id="line2d_11" d="M390.62 297.43V31.318" clip-path="url(#pdd810b26fd)" style="fill:none;stroke:#b0b0b0;stroke-opacity:.15;stroke-width:.8;stroke-linecap:square"/><use xlink:href="#mc313e56e31" id="line2d_12" x="390.62" y="297.43" style="stroke:currentColor;stroke-width:.8"/><g id="text_6" class="text" transform="matrix(.09 0 0 -.09 387.757 311.269)"><defs><path id="DejaVuSans-35" d="M691 4666h2478v-532H1269V2991q137 47 274 70 138 23 276 23 781 0 1237-428 457-428 457-1159 0-753-469-1171Q2575-91 1722-91q-294 0-599 50Q819 9 494 109v635q281-153 581-228t634-75q541 0 856 284 316 284 316 772 0 487-316 771-315 285-856 285-253 0-505-56-251-56-513-175z" transform="scale(.01563)"/></defs><use xlink:href="#DejaVuSans-35"/></g></g><g id="text_7" class="text" transform="matrix(.1 0 0 -.1 212.343 324.739)"><defs><path id="DejaVuSans-54" d="M-19 4666h3947v-532H2272V0h-634v4134H-19z" transform="scale(.01563)"/><path id="DejaVuSans-69" d="M603 3500h575V0H603zm0 1363h575v-729H603z" transform="scale(.01563)"/><path id="DejaVuSans-6d" d="M3328 2828q216 388 516 572t706 184q547 0 844-383 297-382 297-1088V0h-578v2094q0 503-179 746-178 244-543 244-447 0-707-297-259-296-259-809V0h-578v2094q0 506-178 748t-550 242q-441 0-701-298-259-298-259-808V0H581v3500h578v-544q197 322 472 475t653 153q382 0 649-194 267-193 395-562z" transform="scale(.01563)"/><path id="DejaVuSans-65" d="M3597 1894v-281H953q38-594 358-905t892-311q331 0 642 81t618 244V178Q3153 47 2828-22t-659-69q-838 0-1327 487-489 488-489 1320 0 859 464 1363 464 505 1252 505 706 0 1117-455 411-454 411-1235zm-575 169q-6 471-264 752-258 282-683 282-481 0-770-272t-333-766z" transform="scale(.01563)"/><path id="DejaVuSans-Oblique-74" d="m2706 3500-87-447H1472l-372-1900q-19-106-28-178t-9-112q0-200 120-291t386-91h581L2053 0h-550Q991 0 739 200 488 400 488 806q0 72 9 158t28 189l372 1900H409l91 447h478l194 994h575l-191-994z" transform="scale(.01563)"/></defs><use xlink:href="#DejaVuSans-54" transform="translate(0 .016)"/><use xlink:href="#DejaVuSans-69" transform="translate(61.084 .016)"/><use xlink:href="#DejaVuSans-6d" transform="translate(88.867 .016)"/><use xlink:href="#DejaVuSans-65" transform="translate(186.28 .016)"/><use xlink:href="#DejaVuSans-Oblique-74" transform="translate(279.59 .016)"/></g></g><g class="axis"><g class="tick ytick"><path id="line2d_13" d="M49.733 272.755h357.12" clip-path="url(#pdd810b26fd)" style="fill:none;stroke:#b0b0b0;stroke-opacity:.15;stroke-width:.8;stroke-linecap:square"/><g id="line2d_14"><defs><path id="m511764e6ab" d="M0 0h-3.5" style="stroke:currentColor;stroke-width:.8"/></defs><use xlink:href="#m511764e6ab" x="49.733" y="272.755" style="stroke:currentColor;stroke-width:.8"/></g><g id="text_8" class="text" transform="matrix(.09 0 0 -.09 20.878 276.174)"><defs><path id="DejaVuSans-2212" d="M678 2272h4006v-531H678z" transform="scale(.01563)"/><path id="DejaVuSans-2e" d="M684 794h660V0H684z" transform="scale(.01563)"/></defs><use xlink:href="#DejaVuSans-2212"/><use xlink:href="#DejaVuSans-31" transform="translate(83.79)"/><use xlink:href="#DejaVuSans-2e" transform="translate(147.412)"/><use xlink:href="#DejaVuSans-30" transform="translate(179.2)"/></g></g><g class="tick ytick"><path id="line2d_15" d="M49.733 214.65h357.12" clip-path="url(#pdd810b26fd)" style="fill:none;stroke:#b0b0b0;stroke-opacity:.15;stroke-width:.8;stroke-linecap:square"/><use xlink:href="#m511764e6ab" id="line2d_16" x="49.733" y="214.651" style="stroke:currentColor;stroke-width:.8"/><g id="text_9" class="text" transform="matrix(.09 0 0 -.09 20.878 218.07)"><use xlink:href="#DejaVuSans-2212"/><use xlink:href="#DejaVuSans-30" transform="translate(83.79)"/><use xlink:href="#DejaVuSans-2e" transform="translate(147.412)"/><use xlink:href="#DejaVuSans-35" transform="translate(179.2)"/></g></g><g class="tick ytick"><path id="line2d_17" d="M49.733 156.547h357.12" clip-path="url(#pdd810b26fd)" style="fill:none;stroke:#b0b0b0;stroke-opacity:.15;stroke-width:.8;stroke-linecap:square"/><use xlink:href="#m511764e6ab" id="line2d_18" x="49.733" y="156.547" style="stroke:currentColor;stroke-width:.8"/><g id="text_10" class="text" transform="matrix(.09 0 0 -.09 28.42 159.966)"><use xlink:href="#DejaVuSans-30"/><use xlink:href="#DejaVuSans-2e" transform="translate(63.623)"/><use xlink:href="#DejaVuSans-30" transform="translate(95.41)"/></g></g><g class="tick ytick"><path id="line2d_19" d="M49.733 98.442h357.12" clip-path="url(#pdd810b26fd)" style="fill:none;stroke:#b0b0b0;stroke-opacity:.15;stroke-width:.8;stroke-linecap:square"/><use xlink:href="#m511764e6ab" id="line2d_20" x="49.733" y="98.442" style="stroke:currentColor;stroke-width:.8"/><g id="text_11" class="text" transform="matrix(.09 0 0 -.09 28.42 101.862)"><use xlink:href="#DejaVuSans-30"/><use xlink:href="#DejaVuSans-2e" transform="translate(63.623)"/><use xlink:href="#DejaVuSans-35" transform="translate(95.41)"/></g></g><g class="tick ytick"><path id="line2d_21" d="M49.733 40.338h357.12" clip-path="url(#pdd810b26fd)" style="fill:none;stroke:#b0b0b0;stroke-opacity:.15;stroke-width:.8;stroke-linecap:square"/><use xlink:href="#m511764e6ab" id="line2d_22" x="49.733" y="40.338" style="stroke:currentColor;stroke-width:.8"/><g id="text_12" class="text" transform="matrix(.09 0 0 -.09 28.42 43.757)"><use xlink:href="#DejaVuSans-31"/><use xlink:href="#DejaVuSans-2e" transform="translate(63.623)"/><use xlink:href="#DejaVuSans-30" transform="translate(95.41)"/></g></g><g id="text_13" class="text" transform="matrix(0 -.1 -.1 0 14.798 173.674)"><defs><path id="DejaVuSans-Oblique-58" d="M878 4666h638l800-1685 1447 1685h737L2578 2438 3738 0h-635l-940 1966L459 0h-734l2181 2509z" transform="scale(.01563)"/><path id="DejaVuSans-28" d="M1984 4856q-418-718-622-1422-203-703-203-1425 0-721 205-1429t620-1424h-500Q1016-109 783 600T550 2009q0 697 231 1403 232 707 703 1444z" transform="scale(.01563)"/><path id="DejaVuSans-29" d="M513 4856h500q468-737 701-1444 233-706 233-1403 0-700-233-1409T1013-844H513q415 716 620 1424t205 1429q0 722-205 1425-205 704-620 1422z" transform="scale(.01563)"/></defs><use xlink:href="#DejaVuSans-Oblique-58" transform="translate(0 .125)"/><use xlink:href="#DejaVuSans-28" transform="translate(68.506 .125)"/><use xlink:href="#DejaVuSans-Oblique-74" transform="translate(107.52 .125)"/><use xlink:href="#DejaVuSans-29" transform="translate(146.729 .125)"/></g></g><path id="line2d_23" d="m65.965 156.547.651-2.887.65.824.651-3.749.65-8.809 1.302 2.916.65-9.094.651-4.314.65 2.904.651-2.997 1.302 5.731.65-1.27 1.302 21.352.65 3.263.65 5.858.651-1.894.651 5.22.65 8.115.651-8.664.65 1.225.651-.489.651 8.186.65 3.013.651-.816.65 6.523.651-2.394.651 3.295.65 1.478.651 3.268.65-11.013.652-.095.65 5.973.65-4.994.651 6.914.651-1.441.65 11.168.651 7.421.65-1.492.651-4.628.651-1.301.65.376.651 1.45.65 8.282.651 3.816.651 2.283.65-6.552.651-2.36.65 9.897.652-2.3.65 1.837.65 3.52.651-3.992 1.302-12.177.65 4.552.65 1.44.651-2.292.651-6.018.65 2.475.651.753 1.301 12.674.651-5.14.65-8.265.651.093.65-6.158.651-2.385.651 3.482.65-2.391.651-9.211.65-.002.652-9.301.65 15.077.65-5.026.651-.721.651 1.527.65-.754.651 11.333.65.981.651-2.376.651-8.873.65 2.789.651 4.455.65 2.642.651-5.612.651-2.163.65 2.84.651-3.24.65-.798.652-5.858.65 3.89.65 1.689.651 2.05.651 8.263 1.301-3.823.65-.303.651 1.093.651 7.945.65 2.11.651 1.643.65 4.301.651.547.651-2.742.65-11.335.651-1.31.65-1.783.652.159.65 10.873.65-.197.651-.7.651-14.657.65.875.651-2 .65-.033.651 6.556.651-6.92 1.301-9.397.65 5.118.651-8.353.651 8.002.65-3.609.651-12.902.65 5.672.652 3.167.65-.725.65 2.785.651 8.85.65-.62.652 5.955.65-3.011.65 5.104.651-9.28.651 4.342.65 1.632.651-4.978.65 6.936.651-1.586.651-7.849.65 9.142.651-1.336.65-1.763.651-4.783 1.302 14.396.65-3.341 1.952-6.008.65 3.708.651-1.618.651-1.96.65 3.907.651-11.112.65-2.946.651 6.75.651-4.035.65 5.472.651-4.803.65-6.929.651 4.621.651-5.777.65-2.538.651-4.899.65-11.109.652 1.416.65 4.36 1.301 9.773.651.329.65-2.103.651-1.714.65-4.9.651-.136.651-8.505.65 1.539.651-15.816.65-3.535.651 5.106.651 6.312.65-2.758.651 1.363.65-4.094.652-2.666.65.526.65 5.019.651 8.865.651 2.596.65-4.992.651-1.226.65 7.265.651-1.03.651-2.256.65 5.135.651-.93.65-.369.651 6.614.651-2.153.65-3.318 1.302-12.443.65 8.056.651 5.444 1.952-9.037.65-22.365.651-3.141.65-6.4.651-5.3.651-3.504.65 2.137.651-4.12.65 4.81.651 1.66.651 3.095.65-.224.651-13.196.65 11.196.651-3.72.651 9.664.65 2.968.651-6.122.65-.126.652 6.511.65 4.36.65-3.776.651 4.443.651-1.09.65-.089.651 3.963.65-12.309.651-3.449.651 12.026.65-.908.651 4.026.65-4.8.651 4.791.651.82.65-2.787.651-4.864.65 7.175.652 2.095.65 2.895.65 3.912.651-10.17.651-2.194.65 7.501.651-5.21.65-12.172.651-5.755.651 9.112.65 3.034.651-7.162.65 4.361.651-2.36.651-4.265.65 5.65.651.572.65 19.055.652 6.04.65 1.514.65 7.286.651-9.501.65 8.36.652 2.55.65-.785.65-8.395.651 8.382.651-6.778.65-.032.651 5.73.65-2.697.651-1.15.651 3.502.65-.415.651 2.232.65-.683.651-3.865.651-9.206.65 7.266.651-12.371.65 11.452.652.91.65-3.395.65-1.586.651 3.676.651 1.241.65 2.888.651 3.428.65-4.958.651-2.06.651 4.054.65-5.227.651-1.75.65-4.674.651-3.577.651 4.924.65 3.326.651-4.293.65-3.468.652.225.65-.58.65-7.319.651 3.594.651-3.047 1.301 2.736.65-6.25 1.302-9.136.65-7.344.651.17.65-3.67.651 2.12.651-1.581.65 1.07.651-.258.65-3.15.652 5.084.65-11.863.65 6.223.651 7.389.651-6.447.65-4.273 1.302-6.54.65.474.651 5.613.65-.08.651 4.295.65-5.335.651 1.223.651 5.156.65 2.19.651-2.09.65 3.598.651 5.075 1.302-2.307 1.3 6.217.652-1.114 1.3 17.016.651 4.298.651 1.334.65-1.723.651-8.476.65-4.828.651 1.118.651.292.65 6.005.651.245.65 1.812.651-1.752.651 4.942.65-2.917.651-8.785.65.814.652-2.157.65-3.818.65 2.55.651-1.102.651.136.65-.36.651 4.701.65.035.651-2.717.651-8.236.65-5.32.651-12.22.65 4.835.651-4.726.651-.69.65-12.343 1.302 10.473.65 3.876.651 12.707.65 3.332.651 4.665.651-.652.65-1.76.651-10.663.65-5.21.651 3.702.651 5.544.65-2.574.651 7.974.65-10.395.651-6.533.651 3.092.65 10.297.651-7.595.65.99.652-6.874.65 9.63.65 3.782.651.242.65-.003.652 2.886.65-3.37.65 6.478.651 1.056.651-.478.65-2.765.651-3.89.65 6.805.651 9.137.651-7.264.65-1.72.651 4.57.65-8.822.651-.42.651-6.597.65-.091 1.302-21.488.65 1.9.651-5.207.65-3.275.651-7.454.651 6.157.65-3.478.651-5.618.65 10.79.651 7.37.651 12.293.65 1.924.651-3.825.65-8.358.651-.001.651-9.033.65 8.512.651 10.33.65.684.652-1.875.65.56.65 12.378.651.796.651 7.853.65-3.673.651-1.886.65 5.719.651 3.203.651 6.349.65.514.651-5.403.65 5.912.651-2.785.651 3.243.65 4.747.651.729.65 6.117.652 3.276.65 6.996.65-11.43.651-.137.651 4.133.65-1.204.651.7.65 1.326.651-3.535.651-4.344 1.301 6.583.65 1.64.651 13.406.651 8.741.65-8.066.651-9.626.65 1.447.652-3.36.65-1.796.65-17.864.651-6.355.65.938.652 5.741.65 9.482.65-1.1.651 4.485.651 8.322.65 3.757.651 6.258.65-9.873.651-5.124.651.081.65-8.565.651-.355.65 5.101.651-8.789.651-3.008.65 6.17.651 1.206.65 5.18h0" clip-path="url(#pdd810b26fd)" style="fill:none;stroke:#ff0001;stroke-opacity:.8;stroke-linecap:square"/><path id="line2d_24" d="m65.965 156.547.651-1.496.65 5.289.651 2.173.65 3.066.651-5.049.651 2.372.65-2.94.651-11.703.65-7.28.651 2.661.651 2.103.65-2.57.651 9.79.65 5.034.652-2.874.65.732.65-11.24.651 3.678 1.302 11.324.65-.103.65.914.651-12.987.651 2.383.65-.27.651-5.088.65.712.651-3.149.651-2.193.65-4.747.651 8.33.65-4.602.652.928.65-.97.65 2.37.651-9.531.651 12.069.65-8.04.651 4.09.65-8.766.651-6.916.651-5.67.65-4.545.651-12.87 1.952 11.733.65-5.068.651 7.891.65-5.588.652 2.002 1.3 13.044.651 4.85.651 8.822.65-2.862 1.302-10.195.65 3.857.651-1.6.65.17.651-3.818.65-2.358.651-.282.651 11.043.65 1.135.651-.484.65 4.2.651 1.697.651 7.671.65 1.934.651-2.885.65-12.063.652 6.043.65.256.65 5.702.651.613.651 1.37 1.301-10.343.65-.812.651.804.651-6.76.65-.864.651-8.624.65 9.742.651-10.175.651 3.84.65 6.536.651.438.65 6.936.652-3.18.65 2.837.65-1.54.651 5.818.651 1.39.65-.474.651 1.187.65-9.164.651-3.255.651-1.013.65 10.965.651-2.096.65-7.067.651 4.175.651 1.289.65 17.708.651 7.24.65 12.062.652-.737.65.746.65.483.651 2.403.651-6.073.65 7.053.651.272.65-3.627.651.907.651.386.65 4.65.651 1.768.65-4.363.651 11.575.651.678.65 3.15.651.141.65-10.57.652 2.4.65-8.864.65-6.542.651-.276.65-.607.652-1.15.65 4.706.65-3.763.651 3.464.651-.327.65 12.643.651 4.81.65-3.348.651 6.312.651-2.2.65 2.702.651-6.017.65-7.53.651-1.201.651-.074.65-.395.651-.033.65-7.08.652-14.662.65 7.743.65 5.916.651-8.02.651 6.592.65 7.882.651-12.436 1.301 2.92.651 2.877.65-3.477.651 6.51.65-10.43.651-4.423.651.284.65 3.188.651-.67.65-6.101.652-15.202.65-8.653.65-5.712.651-.036.651-6.947.65 2.275.651-1.681.65-6.544.651-3.221.651 4.189.65 9.204.651-2.681.65-.53.651-5.148.651-.045.65 2.498 1.302-11.323.65 12.609.651 9.092.65-.552.651.584.651 1.289.65-4.595.651-11.486.65 6.298.651.653.651.404.65-.939.651 7.37.65-2.507.651.013.651-11.62.65-1.929.651 4.392.65 8.989.651.796.651 4.578.65 2.651.651-1.837.65-1.181.652-.935.65-7.89.65-2.117.651-15.497.651-.56.65 2.745 1.302 16.997.65-5.026.651-3.493.65.824.651 1.6.65 5.444.651 1.214.651-.478.65 11.966.651-4.055.65 11.966.652-1.854.65.376.65-1.584.651 3.893.651-9.742 1.301-7.505.65 1.258.651.647.651-4.942 1.301-15.172.65.616.651.012.651-1.583.65 1.874.651 4.46.65-.659 1.302-5.15.65.787.651 4.167.651-2.587.65-1.998.651 5.686.65-5.207.651-4.072.651.615 1.301 15.023.65-2.263.651 3.33.651 1.848.65 6.8.651-4.589.65 11.218.652.424.65-1.919.65-3.398.651-2.62.65 7.286.652 2.546.65 4.457.65 6.91.651 10.28.651-2.801.65-6.855.651 3.368.65-4.43.651-3.064.651 5.33.65.704.651-.207.65-4.26.651-.572.651 10.196.65-10.64.651-2.188.65 5.864.652 8.98.65 5.047.65 1.985.651 3.881.651 2.669.65 5.812.651-3.38.65 5.964.651-3.301.651-4.092.65 8.619.651 2.566.65-5.48.651-1.075.651-5.185.65-6.411.651 6.478.65 2.42.652-1.813.65 1.529.65-2.049.651-8.611.651 1.137.65-1.3.651.72.65 11.934.651 4.773.651 1.118.65 2.547.651-4.755.65-6.383.651 3.977.651-6.284.65 3.012.651-1.816.65 2.257.652 7.774.65 4.437.65 9.456.651-4.914.651-8.08.65-5.409.651 1.694.65-4.194.651 11.252.651-6.16.65-10.923.651-3.953.65 2.9.651-4.926.651-.371.65 6.01.651 7.813.65 1.209.651-.28.651 14.84.65-17.164.651 2.45.65-7.685.652-.245.65-7.463.65-12.923.651 3.228.651 2.023.65-3.443.651-5.654.65-1.183.651 1.035.651 8.211.65-.495.651 6 .65-.036.651-7.067 1.302-4.192.65 9.07.65-2.796.652 3.128.65 11.295.65-7.777.651 1.446.651-.278.65-2.787.651-7.338.65 4.411.651-8.477.651.315.65 4.727.651-.617.65 3.724.651.595.651-8.751.65 11.042.651-.404.65.078.652 1.813.65 2.674.65-4.006.651 3.497.651 16.77.65 8.606.651 1.574.65-5.498.651-3.42.651 12.368.65-3.478.651-.863 1.301 5.549.651-3.674.65-1.938 1.302 11.698.65-.955.651-11.07.65-6.33.651-3.637.65 6.043.652 4.533.65-4.073.65-4.852.651 4.53.651.775.65 4.663.651 3.13.65-6.104.651 1.428.651 5.172.65 8.363.651.53.65 1.472.651-8.732 1.302 9.933.65-3.988.65-1.585.652-.273.65-1.24.65 2.387.651-.756.651-4.744.65 6.243.651-5.474.65-6.488.651 2.785.651-17.086.65-11.098.651 9.84.65-6.052.651-4.454.651 6.236.65-3.088.651 2.659.65-5.299 1.302 11.242.65-11.104.651-.283.651-4.564.65-5.766.651.784.65 2.437.651-2.976.651-10.378.65-.834.651-2.396.65 1.17.651-1.921.651 3.005.65-2.058.651-5.657.65-8.23.652-5.297.65-2.466.65-11.262.651.654.651 1.324.65 10.907.651-1.682.65-3.7.651-6.26.651.927.65-13.233.651-4.78.65 6.586.651-1.937.651.446.65-7.402.651.14.65 5.257.652-1.465.65 3.54.65 10.542.651 5.2.65-.622.652 3.434.65-7.333.65 7.977.651 4.74.651 6.027.65-.791.651-7.847.65.132.651 1.381.651-7.047.65-13.172.651-1.926.65 11.63.651 7.613.651-2.92.65-1.912.651 12.683.65-2.797h0" clip-path="url(#pdd810b26fd)" style="fill:none;stroke:#00ff02;stroke-opacity:.8;stroke-linecap:square"/><path id="line2d_25" d="m65.965 156.547.651 4.36 1.301-14.896 1.952 27.851.65-10.921.651-.554.65.263.651-3.27.651 5.578.65.989.651 6.81.65-3.631.652 5.441.65-2.223.65-6.273.651.614.651-4.868 1.301 13.824.65-1.411.651 1.113.651 8.07.65 2.618.651-7.189.65 3.945.651-.33.651 2.091.65-1.318.651-2.216 1.302-6.777.65-4.918.65-2.566.651-1.208.651 2.924.65 17.776.651 2.088 1.301 8.232.651 9.815.65-4.712.651 10.515.65-2.821.651.997.651-2.887.65-5.413.651-11.99.65-8.205.652-6.328.65-8.531.65-.357.651-.596.651 2.724.65-1.832.651-6.54 1.301.062.651 3.683.65-9.319.651-.096.65-3.25.651 1.19.651-2.665.65 10.615.651-.8.65 3.562.651-7.649.651-4.502.65 1.665.651 4.232.65 5.477.652-3.306.65 4.006.65-9.935.651 6.133.651 3.82.65 5.827.651 8.388.65-2.416.651 4.579.651-6.889.65-.298.651 10.91.65 4.838.651.11.651-7.376.65 2.93.651 1.76.65 8.835.652-7.346.65 12.903.65-1.589.651.027.651-1.928.65-3.758.651-6.223.65-.25.651 9.978.651-9.28.65 3.536.651-5.347.65 1.649.651-4.439.651.2.65 2.438.651-5.16.65 14.57.652 1.986.65-.157.65-2.116.651 3.396.651 11.215.65-1.974.651 6.832.65-3.73.651-2.225.651.099.65-8.942.651-6.852.65 6.055.651 10.465.651-8.11.65-13.329.651 4.336.65-1.659.652 5.636.65 3.898.65-17.155.651-2.422.65-.394.652-.784.65 7.31.65-2.193.651-10.833.651-8.536.65 3.014.651 5.216.65-3.896.651-.18.651.712.65 4.43.651-4.75.65-.309.651.265.651-.13.65-2.32 1.302 12.061.65 14.806.651-2.027.65-11.239.651-6.069.651.133.65 6.603.651 2.13.65 3.71.651-2.067.651 1.523.65-2.573.651 2.396.65 7.878.651-9.996 1.302 15.006.65 4.215.65 3.123.652-4.736.65-2.41.65 2.57.651-3.08.651-13.1.65-2.33.651-1.433.65-4.278.651 5.107.651-16.423.65-8.879.651 3.317.65-3.276.651 12.192.651-1.985.65-.087.651-2.298.65 3.73.652-6.396.65 5.445.65-7.027.651 2.385.651 10.741.65 2.787.651-10.516.65 9.448.651 6.135.651-2.031.65 5.66.651 2.45.65 4.491.651-3.933.651 1.29.65-7.187.651 9.338.65-8.547.651-4.651.651-1.157.65-2.366.651 2.824.65 5.51.652-10.114.65.713.65 6.807.651-2.612.651-1.374.65-4.752.651 2.765.65 5.243 1.302 12.545.65-4.076.651-2.83.65-5.063.651-2.714.651 3.043.65-13.694.651 1.06.65 10.192.652-4.898.65 2.178.65 1.589.651 1.272.651-2.075.65 6.774.651 2.382.65-.187.651-7.731.651 4.871.65 3.316.651-7.002.65-3.599.651-1.064.651 4.219.65-6.197.651.141 1.952-1.71.65-4.93.651 1.728.651 13.486.65 1.934.651.196.65-.783.651 4.013.651 7.684.65-3.244.651-4.535.65 9.583.651 1.56.651 4.351.65-1.96.651 1.967.65 8.543.652-7.011.65-2.76.65 2.279 1.302 12.315.65 1.123.651 10.79.65-10.406.651 3.738.651-.042.65 2.03.651-1.637.65-5.701.651 15.046.651-4.552.65.271.651-6.766.65-2.761.651 8.632.651 6.67.65-7.493.651-5.227.65 1.188.652-4.267.65 3.157.65-6.16.651 1.242.651 4.154.65-1.39.651 1.009.65-3.33.651 2.152.651.164.65-14.979.651-5.798.65 1.44.651-1.297.651 6.312.65-8.973.651.713 1.302-12.318 1.951-16.048.651-11.744 1.301-5.333.65 11.498.651 3.463.651 6.951.65-1.896.651-4.268.65-3.336.651 7.84.651-7.27.65-3.63.651.017.65 6.605.652-.83.65-2.867.65-6.515.651 4.584.651 2.116.65 4.457.651-2.077.65.74.651.285.651 3.586 1.952-15.532.65 9.36.651-2.154.65-4.023.651-.317.65-2.704.651-6.756.651-3.994.65-6.34.651-10.119.65-6.34 1.302-4.692.65-1.693.651-4.71.651-1.33.65-3.554.651 1.298.65 1.566.651-3.392.651 1.853.65 4.214.651.828.65-2.116.651 3.127.651-9.462.65.485.651 5.747.65-15.56.652 2.182.65-10.509.65-3.645.651-2.316.651 4.392.65-.57.651 4.882.65-4.014.651 1.087.651.142.65-12.607.651 6.21.65 7.587.651 2.994.651-3.08.65-9.467.651 2.893.65-4.895.652 4.441.65.476.65 11.103.651 8.479.651-5.055 1.301-11.329.65-2.183.651 16.185.651 4.43.65 8.777.651.144.65 1.547.651-5.313.651-9.026.65-6.26.651-1.904.65-9.313.652 2.339.65-5.492.65 4.027.651-1.572.65-5.577.652-1.955.65 4.708.65-.689 1.302-10.302.65-14.814.651-3.555.65-2.037.651 9.872.651 2.75.65 7.356.651-9.2.65 1.57.651 7.815.651-.154.65.27.651-3.366.65-2.114.652-2.997.65.811.65-1.389 1.302 20.424 1.301 4.121.65 8.827.651-6.445.651-.177.65 2.86.651-1.475.65-4.202.651 10.271.651-4.282.65-.911 1.302-7.2.65 6.689.651-6.78.65-5.127.651-7.868.651 6.122.65-2.863.651 5.107.65 6.781.651-7.195.651 4.287.65-2.375.651 1.318.65-5.148.651 2.984.651-2.037.65-4.39.651 17.205.65 1.369.652 7.673.65-8.918.65-4.22.651-.115.651-4.662.65-1.717.651 4.177.65-8.552.651-10.114 1.302-10.874.65.424.65 3.072.651-4.638.651 4.418.65.883.651 2.429.65 6.278.652-2.783.65 1.019.65 1.335.651-9.146.65 3.918.652 6.733.65 4.848.65-1.82.651-7.053.651-.167.65 6.774.651 10.84.65 2.805.651-7.808.651-1.49.65 5.728.651-1.017.65 4.53.651 1.95 1.302-8.924.65-1.81.65 5.06h0" clip-path="url(#pdd810b26fd)" style="fill:none;stroke:#00f;stroke-opacity:.8;stroke-linecap:square"/><path id="line2d_26" d="m65.965 156.547.651-.154.65-1.511.651 2.307.65 1.183.651 7.376.651 15.024.65-1.852.651 4.917.65-2.48.651-5.607.651-.044.65-1.642.651 8.438.65-4.841.652 10.024.65 2.659.65 5.624.651-.423.651.433.65 8.712.651 3.19.65 7.739.651 3.234.651-2.37.65 8.537.651-10.184.65 2.494.651-4.336.651-13.458.65 9.311.651 2.39.65 1.372.652 5.017.65-6.883.65.723.651-7.812.651 2.89.65-2.41 1.302 4.343.65-1.689.651-3.716 1.301 9.168.65 3.42.651.44.651 7.787.65 1.1.651-7.04.65 7.358.652.967.65-10.735.65 3.027.651 4.84.651-2.047.65-.427.651-5.413.65 8.825.651-.8.651-1.084.65.066.651 3.687.65-1.672.651-7.466.651-.913.65-1.37.651-2.58.65.93.651 3.503.651-2.245.65-9.03.651-4.132.65 1.039.652-7.204.65-5.62.65-7.3.651 10.764.651-1.54 1.301-21.095.65.256.651 3.327.651 4.655.65.15.651.34.65-2.661.651 1.004.651 3.692 1.301 2.298.65 2.754.652 8.152.65.922.65 3.027.651 1.735.651 5.682.65-3.748.651-2.478.65 13.687.651-5.997.651-.914.65-2.839.651-3.798.65-4.543.651 6.654.651-9.116.65 3.802.651 1.617.65-4.84.652 9.547.65-8.553.65 3.393.651 2.713.651-14.522 1.301 19.214.65-2.535 1.302 10.833.65.772.651-2.168.65 1 .651-3.646.651 7.644.65-8.381.651 10.168.65-1.2.652-10.653.65 2.723.65-6.054.651 5.838.65 7.578.652 10.284.65 2.516.65-9.968.651-2.315.651-4.484.65-17.789.651-1.597.65 1.364.651-1.617.651-5.963.65-.35.651-2.108.65 1.42.651.302.651-8.758.65 2.593.651-1.967.65.778.652-1.325.65 5.037.65-1.322.651-.025.651-5.56.65 1.565.651-6.177.65-8.363.651-2.34.651-.842.65-1.566.651-4.97.65.613 1.302-13.335.65-.653.651 2.45.65-7.504.652 5.564.65 3.494.65 6.706.651 3.087.651-6.509.65-3.04.651-1.077.65-2.695.651-7.456.651 2.618 1.301-5.439.65 1.248.651 4.806 1.302 16.514.65 2.948.65-4.032.652-2.557.65-9.702.65 1.972.651-5.002.651 5.594.65-5.11.651-.372.65-6.747.651-.15.651 14.291 1.301-9.479.65 9.89.651 5.795 1.302-6.805.65-9.891.65-7.36.651.2.651 9.495.65 1.326.651.708.65-.154.652-8.737.65 5.587.65-5.218.651-12.069 1.302 7.69.65-4.793.65-6.583.651 1.744.651-.485.65 7.754.651-4.172.65 3.728.651-.108.651 1.808.65-4.738.651 3.061.65 5.62.652.472.65-6.16.65 1.278.651-10.34.651-3.543.65 2.006.651.677.65-2.538.651-6.795.651-12.254.65-6.376 1.302-8.798.65-6.335.651 8.136.65-5.181.651.851.65-6.283.652-8.334.65-1.678.65 7.797.651 5.434.651 7.837.65-6.852.651.443.65 11.299.651 3.619.651 9.782.65-.78.651-8.292.65-17.535.651-3.432.651 4.855 1.301 14.217.65-5.43.652-.479.65 2.362.65 2.854.651 5.887.65 7.81.652 1.643.65-1.47.65 6.001.651 3.72.651-5.05.65 3.735.651-2.356.65 13.929.651 10.82.651 3.041.65-6.116.651 1.82.65-6.417.651-3.693.651-6.14.65-13.386.651-4.474.65 2.397.652-.642.65-1.932.65-.832.651-5.007.651-1.02.65-4.274.651 1.655.65-3.568.651 3.767.651-.009.65 1.15.651-3.92.65-1.453.651.787.651-5.54.65-3.793.651 5.398.65 1.688.652-1.445.65-11.41.65-6.736.651 3.065.651 6.149.65-7.359.651.025.65 6.918.651 4.843 1.302-9.073.65 1.41.65 6.051.651 4.52.651 2.948.65 8.397.651 1.791.65 5.568.652 1.462.65 7.327.65-2.878.651 2.35.651-4.562.65-1.843.651.595.65 6.268.651-1.43 1.302 13.529.65 1.723.65 10.066.651-14.995.651 1.7.65 12.253.651-7.633 1.302-5.636.65-1.33.65 8.261.651-3.866.65 3.564.652 6.18.65 2.83.65 2.222.651-2.527.651-9.2.65-5.606.651 5.258.65-.585.651-3.074.651 11.594.65 15.923.651 12.745.65 1.073.651 1.861.651.375.65-3.435.651 4.344.65 1.601 1.302 12.88.65-.373.651.325.651-3.408.65-6.827.651 1.51.65-1.417 1.302 8.202.65 2.37 1.302 16.348 1.301 9.495.65 5.246.651 1.938.65-.101.652.262.65-4.381.65 1.628.651 2.465.651-1.023.65-11.327.651-6.119.65-1.387.651 3.566.651-.689.65 2.267.651 3.376.65 4.899.651-3.812.651-11.457.65.424.651 7.86.65-5.57.652-4 .65 3.062.65 6.467.651 2.635.65-.87.652.838.65-1.11.65-1.958.651-1.269.651 2.359.65 3.193.651 1.563.65-1.798.651-.003.651-4.196.65-9.426.651-2.705.65-5.612.651-6.989.651 9.556 1.301 11.067.65-8.925.652-4.042 1.3 13.42 1.302 21.036.65-12.348.651-2.72.65-8.396.651 5.406.651-1.896.65 2.174.651.533.65 5.623.651 17.698.651-1.857.65 6.82.651-6.64.65.796.652 5.98.65 2.955.65-5.886.651-2.798.651 11.151.65-6.784.651-.599.65-16.192.651 4.138.651-6.408.65-.077.651 6.386.65 1.026.651 1.94.651-1.206.65 9.155.651-6.397.65 2.978.652-6.262.65 4.696.65-12.373.651 4.602.651-.166.65 8.685.651 2.648.65-1.487.651-4.442.651-5.985.65 5.178.651-.711.65 3.023.651-3.53.651-1.522.65.662.651-9.79.65-5.252.652-1.958.65 2.024.65 5.787.651-3.17.65 8.609.652-2.555.65-9.738.65 6.275.651-7.856.651 4.528.65-1.104.651 1.638.65 5.319.651-2.839.651 6.698.65-4.684.651.902.65 6.11.651 1.888.651-1.205.65-4.983.651 4.618.65-5.711h0" clip-path="url(#pdd810b26fd)" style="fill:none;stroke:#f0f;stroke-opacity:.8;stroke-linecap:square"/><path id="line2d_27" d="m65.965 156.547.651-3.399.65-7.13.651-4.702.65 4.75.651-2.32.651 1.113.65.507.651 3.365.65.598.651-4.93.651 5.094.65-.046.651-9.045 1.302 5.212.65-4.669.65-.335.651.694.651-9.328.65 7.937.651.902.65 2.89.651 9.357.651 5.073.65.18.651 8.862.65.65.651 1.443.651-5.873.65-1.893.651.188.65.36 1.302 5.26.65-.375.651 5.592.651 8.216.65 1.916.651-2.822.65 4.517.651 15.46.651-3.214.65-.254.651 2.005.65.61.651-2.91.651-7.178.65 1.718.651.431.65-10.912.652-4.399.65 6.444.65 8.061.651-12.793.651 10.057.65-4.349.651 3.831.65-1.706.651-6.273.651 11.011.65.618.651-8.16.65-5.745.651-12.135.651 4.935.65 2.217.651.956.65-1.696 1.302 6.054.65 2.341.651-1.019.65-1.721.652 3.034.65-.883.65-10.498.651 7.383.651-6.4.65-1.338.651 2.367.65.72.651 5.916.651.732.65 11.514.651-.144.65.289.651-8.407.651 1.818 1.301 7.703.65 6.94.652-7.505.65-1.002.65-3.804.651-7.079.651 3.442.65 1.6.651-2.084.65-1.224.651 5.39.651 1.007.65 3.005.651-1.936.65 11.245.651-6.55.651 5.666.65 3.204.651 2.287.65.874.652 2.021.65-1.321.65 1.735.651-12.374.651 1.07.65-1.912.651 11.215.65-.043.651 4.48.651-11.862.65-1.382.651-5.099.65-7.693.651-12.021.651 11.254 1.301-5.298.65-6.566.652 2.51.65 1.888.65-.486 1.302-8.475.65 10.545.651 2.776.65-.708.651 2.135.651-7.853.65-3.43 1.302 5.195.65-4.684.651-8.388.65-.292.651 4.93.65-4.507.651 11.283.651 4.345.65-6.396.651 4.346.65-5.035.652-8.092.65-10.761.65-3.396.651-8.078.651-5.978.65 7.467.651-6.81.65 1.673.651 3.317.651 9.397.65 6.176.651-.829 1.301-18.567.651-2.15.65 3.03.651-10.369.65 1.37.652 6.162.65-9.364.65 4.484.651-2.613.651 4.401.65.463.651-3.72.65 5.962.651-.497.651-6.852.65-14.246.651-5.535.65-8.51.651 2.125.651 2.553.65-10.5.651-8.496.65-3.232.652 7.574.65 1.816.65-.667.651 2.694.651-3.215.65 1.436.651.285 1.301 3.301.651-1.27.65.627.651 12.562.65-5.462.651 10.743.651 3.972.65.796.651 5.873.65.896.651-5.189.651-6.152.65 9.354.651-.768.65-2.69.652 11.955.65 2.035.65-.927.651 4.672.651-.272.65-1.196.651-2.693.65 2.245.651 8.427.651-1.813 1.301 3.544.65-7.575.651 3.574.651-5.977.65 3.083.651-.148.65 8.903.652-3.46.65-1.108.65 9.105 1.302 7.758.65 4.953.651-1.77.65 4.841.651-1.53.651-2.837.65-7.419.651 2.87.65-3.034.651-8.153.651 4.163.65-3.442 1.302 2.149.65 1.302.651 4.763.65-3.953.651.207.651-7.472.65 8.757.651-2.437.65 6.86.651-2.716.651-6.95.65 4.955.651-3.565 1.301 16.168.651 1.217.65 6.643.651-5.446.65 1.43.652 2.078.65 2.475.65-6.697.651-1.135.65 1.141 1.302-17.637.65 3.305.651 4.975 1.302 23.6.65-.968.65-8.373.651-6.653.651-8.95.65.633.651 4.9.65-.162.651.583.651-11.384.65 2.238.651-2.277.65-1.192.652-.89.65 3.004.65.023.651-6.323.651 2.993.65-.046.651-1.466.65.401L258.547 159l.65-2.768.651 7.454.65-4.001.651 13.023 1.302 3.828.65-5.75.65-.273.652 6.851.65 1.573.65-24.572.651 8.291.651-5.662.65-1.798.651.72.65 3.74.651.595 1.302 13.14.65 2.272.65-.773.651 3.036.651.815.65-1.89.651 1.254.65-4.155 1.302-18.049.65 3.024.651-2.435.651-13.318.65-.082.651 1.353 1.301 3.105.651-.09.65-5.337.651 1.43.65 2.134.651 1.44.651-7.294.65 2.783 1.302-8.786.65 1.029.651 1.635.65 7.508.651-5.517.65-6.576.652-3.182.65-4.34.65-15.919.651-2.214.651-6.931.65-5.465.651 3.717.65.712.651 2.2.651 1.431.65 8.9.651 2.602.65-1.532.651-11.09.651 1.266.65-2.87.651 5.022.65 1.715.652.238.65-5.443.65 8.756.651-5.006.651-.175.65 7.467.651 3.49.65 7.37.651 2.812.651-2.675.65-4.2.651 3.906.65 10.428.651 5.602.651-.792.65 4.533.651-2.513.65 2.573.652-11.253.65-6.208.65 4.18.651 1.915.651-1.407.65-7.837.651 11.453.65 2.428.651 6.275.651-.26.65-2.176.651-11.484.65 10.036.651-8.107.651 3.18.65 15.63.651-1.554.65.906.652 6.856.65 3.995.65 2.95.651-2.492.65 5.418.652 4.324.65-7.372.65 7.777.651 5.74.651 7.873.65-5.061.651 6.629.65-9.31.651 3.46.651 4.405.65-1.482.651-12.432.65 4.053.651 8.504.651-1.27.65-4.082.651 9.597.65-14.115.652.574.65-5.593.65-2.324.651-1.34.651 2.205 1.301-16.688.65 3.538.651-16.145.651-5.523.65-1.59.651 1.923.65-.6.651-.924.651-4.414.65 1.5.651-4.766.65.797.652-2.327.65 5.176.65-.44.651 5.788.651 2.302.65-2.32.651-1.05.65-5.112 1.302 6.43.65-4.016.651 5.43.65-8.167.651 1.13.651.891.65 4.229.651-12.043.65 2.892.652 3.803.65-2.204.65-6.461.651-4.303.651-5.7.65.001.651-10.322.65-1.336.651 3.785.651-3.77.65.594.651-5.097.65-.351.651-9.45.651-5.923.65-10.665.651-3.62.65-1.273.652 9.838.65-5.533.65-7.448.651 7.39.65 11.927.652 8.222.65.195 1.301 19.86.651 5.743.65 2.205.651 13.902.65.487.651 7.033.651 14.31.65 1.347 1.302 8.514.65-.795.651-6.43.65.31.651-2.833.65-2.31h0" clip-path="url(#pdd810b26fd)" style="fill:none;stroke:#0ff;stroke-opacity:.8;stroke-linecap:square"/><path id="line2d_28" d="m65.965 156.547.651 4.927.65-7.623.651-5.35.65-3.665.651 6.21.651-10.407.65 5.996.651-4.716.65 1.814.651 3.532.651 8.163.65-6.408 1.302 10.965.65-2.561 1.302-8.78.65-.454.651 7.744.65-.296.651 10.667.65-1.971.651-2.822.651-1.013.65 4.983.651-5.335.65-2.482.651 12.847.651 9.514.65-2.032.651 2.538.65 6.112.652 1.612.65 5.693.65-3.164.651-.066.651-.512.65 6.567.651 10.831 1.301-4.15.651 6.243.65-1.29.651 4.985.65 3.937.651.76.651-11.856.65-5.131.651 5.832.65-3.554.652-1.921.65-2.449.65-1.435.651.372.651 11.848.65 5.086.651-2.011 1.301-5.675.651-2.107.65 10.796.651.631.65-7.797.651 14.601.651-3.708.65-14.322.651-.708.65-2.051.651-5.795.651-.12.65-6.213.651 12.813.65 2.04 1.302-24.988.65-8.47.651-6.436.651 4.511.65.348.651-6.8.65-2.307.651-5.129.651-8.079.65-1.301.651.9.65.396 1.302-6.362.65 2.168.651 10.28.65-3.043.652.73.65 2.975.65 1.016.651 1.71.651 12.418.65-5.834.651-4.819.65-3.395.651-10.322.651 5.799.65-2.306.651-5.366.65-.11.651-2.014.651 2.578.65-4.185.651 3.31.65.742.652-13.076.65-8.223.65.47.651 5.072.651 3.292.65-10.05.651-.997.65-4.457 1.302 6.41.65-1.932.651-6.031.65-13.147.651 5.079 1.302 12.976.65-7.577.65-6.066.652 8.801.65.408.65.667.651-4.555.65 5.13.652 10.038.65 6.897.65-12.515.651-4.968.651-1.947.65-.59.651 2.446.65-.636.651-2.555.651-3.184.65-2.537.651 6.266.65 1.522.651-6.036.651 4.619 1.952-7.969.65-8.684.651.72.65.54.651 1.481.651-1.053.65 3.47.651-.876.65 1.42.651-2.483.651 3.713.65-2.302.651.166.65 6.013.651-1.135.651 6.04.65-9.429.651 4.502.65-16.806.652 2.239.65-15.99.65 1.602.651-2.77.651.635.65-.893.651 13.653.65 3.016.651 7.056.651.142.65 2.293.651 9.726.65-1.063 1.302-5.034.65 1.756.651-9.775.65-.417.652 8.954.65 1.776.65 3.315.651-7.121.651-1.805.65 4.497.651.49.65-.868.651 8.595.651-4.012.65 5.75.651-1.847.65 1.59 1.302 5.268.65-4.459.651 6.255.65 8.42.651 2.259.651 2.71.65 11.134.651 1.714.65 5.592.652-.123.65-5.659.65 5.978.651-1.962.651-7.056.65 1.62.651 9.654.65-1.242.651-9.32.651-6.803.65-10.621.651 2.38.65 7.196.651-1.404.651-1.96.65-1.09.651.892.65 3.845.652-4.384.65.532.65-.473.651 6.24.651-10.68.65-1.676.651 6.56.65 8.208.651 2.15.651 1.737.65-11.899.651-1.203.65 9.525.651-.326.651-3.779.65-1.81.651 2.088.65-2.775.652 10.562.65-1.948.65-7.827.651-13.424.651 4.353.65-6.527.651-10.159.65 9.999 1.302 15.75.65 3.266.651-2.771.65 6.833.651-2.875.651 3.662.65 6.664.651-7.119.65-1.611.652 1.685.65-1.829.65 7.549.651.483.65-5.84.652 10.057.65 3.048.65 1.38.651-2.28.651 14.102.65.958 1.302 18.63.65-3.101.651 7.553.65 1.443.651-3.854.65-.789.651.978.651 1.45.65.46.651 5.76.65-6.385.652 6.756.65-9.2.65 5.125 1.302-8.16.65-.99.651-.032.65-3.628 1.302-13.084.65 8.098.651 2.575.65 3.655.651.673.651.094.65 1.025.651-1.299.65-6.638.652 6.887.65-6.15.65-1.744 1.302-9.72 1.301-9.79.65-.164.651 8.712.651-5.829 1.301-7.755.65-2.475.651-6.397.651-2.11.65-3.497.651-2.312.65-5.894.652-7.133.65 6.73.65-7.7.651 1.655.651-2.853.65.482.651 2.664.65.218.651-.071.651-5.371.65.273.651 8.12.65-6.182.651-.473.651-.625.65 1.553.651 2.053.65-11.394.651-4.464.651-.452.65 12.577.651 6.59.65-7.901.652-2.92.65 11.347.65 1.284.651-4.747.651.55.65 2.645.651-.4.65-3.79.651-6.388.651-4.515.65-2.087.651-8.081.65 3.745.651-8.81.651 5.05.65-.999 1.302 6.788.65 4.163.651-.897.65-9.683.651 3.806.651-3.228.65-7.57.651 3.085.65-2.056.651 11.787.651-10.545.65-3.575.651-8.318.65-1.147.651 9.311.651-8.882.65-6.619.651 7.072.65-8.498 1.302 16.77.65-10.878.651-5.555.651-.817.65-4.485.651.647.65 4.824.651 2.965 1.302 15.18.65-7.373.65.484.651 7.41.651-6.951.65 8.035.651-.941.65-7.594.652 5.336.65-6.084.65 5.912.651-1.475.65-2.715.652-11.51.65-5.32.65 2.255.651 8.51.651 5.277 1.301 7.548.65-7.38.651.1.651 1.715.65-.186.651-2.644.65 2.182.651-3.823 1.302-10.241.65-10.335.65-1.636.652 9.137.65-.78 1.952 19.973.65 5.292.651-4.505.65 6.103.651-5.848.651 1.399.65-8.087.651.63.65-2.921.651 3.256.651-7.216.65-1.925.651 1.9.65 5.944.652 2.765.65-8.042.65-2.64.651-1.566.651 10.33 1.301-8.202.65-6.574.651 2.025.651 2.802.65-2.35.651.905.65 10.826.651 1.901.651 3.76.65-10.913 1.302-10.707.65 3.733.651-.907.65 3.041.651-4.78.651 3.575.65 8.208.651 4.954.65 3.005.651-2.784.651.867.65-4.529.651-2.282.65 2.065.651-8.83.651-3.81.65 5.294.651 1.848.65 5.344.652-2.369.65 6.387.65-11.025.651 4.327.65-6.125.652 4.918 1.3-4.458.651-3.574.651 6.245 1.952 9.483.65 6.41.651-7.607.65-5.182.651-.892.65 4.725.651 8.514.651 17.096.65-12.334.651 1.429.65-1.644h0" clip-path="url(#pdd810b26fd)" style="fill:none;stroke:#ff0;stroke-opacity:.8;stroke-linecap:square"/><path id="line2d_29" d="m65.965 156.547 1.302 11.911.65 3.624.65-6.277.651.85.651-6.426.65 12.03.651-4.18.65-9.812.651 2.297.651-13.53.65 5.875.651 3.274.65 11.644.652 2.048.65 7.206.65-12.002.651-3.52.651-9.091.65-10.697.651 6.548.65 8.978.651-9.638.651 5.346.65-2.186.651 2.749.65-.59.651 2.51.651-2.515.65 3.254.651-5.006.65 4.399.652-5.434.65 7.668.65 2.739.651 5.65.651-1.622.65 3.246.651-3.64.65-1.62.651 5.343.651 3.205.65.479.651 1.977.65-.611.651-2.985.651-.357.65-5.88.651 4.29.65-8.527.652 5.53.65-8.877.65-4.494 1.953-26.49 1.3 15.297.651 4.643.651-7.31.65-15.515.651 3.482 1.301 11.659.651.34.65-1.738.651 1.232.65 3.531 1.302-6.225 1.301 10.193.65-4.37.652-8.794.65 1.147 1.301-7.15.651 4.613.65 5.982.651.875.65 3.327.651-4.105.651 9.082.65 2.244.651-4.507 1.301 2.019.651.526 1.301 2.646.65-.662.652-.024.65 5.269.65-7.298.651-.26.651-2.588.65 6.096.651 10.887.65 1.473.651-3.476.651 9.938.65 5.263.651 3.05.65-6.579.651-12.604.651 2.785.65-5.554.651-2.25.65 5.43.652-5.753.65-3.693.65-.963.651 1.515.651.568.65-8.038.651-6.12.65-10.473.651-1.8.651-8.71.65 5.847.651-5.712.65-12.307.651-1.846.651 1.011.65-3.745.651-1.061.65 4.092.652 7.694.65-8.541.65 8.224.651.501.65-2.332.652 3.67.65.959.65 5.705.651-2.063.651.449.65-5.33.651 5.098.65-1.157.651 3.898.651-1.911.65-9.646.651 4.874.65 3.55.651-3.524.651 6.695.65 9.42.651-2.225.65.243.652-5.88.65 1.177.65-.063.651 5.33.651.227.65 1.004.651-.91.65-3.003.651-.297.651 6.012.65.324.651 11.134.65-1.957.651-.475.651 4.22.65-8 .651 3.661.65-6.282.652 6.91.65-6.79.65 8.02.651 27.176.651 11.75.65 4.782.651 1.62.65 3.912.651-.363.651-4.842.65.272.651-9.988.65 1.258.651-4.87.651 2.693.65.412.651 2.066.65-6.143.652 2.472.65 5.612.65 11.892.651 3.1.651-1.958.65 1.151.651.795.65 15.02.651 3.115.651-7.294.65 1.13.651-2.667.65-1.991.651-6.503.651-9.953.65-1.15.651-3.464.65 5.878.651-4.916.651-1.634.65-.12.651 10.59.65 2.227.652.776.65-13.052.65-20.293.651.676 1.302 5.563.65-.078.65 3.22.651-13.26.651-4.22.65 12.042.651-.207.65-9.168.651 2.94.651 7.379.65 2.733.651-.579.65-2.284.652-1.086.65 2.882.65.288.651 2.657.651 9.939.65-3.18.651 11.176.65-1.894.651-12.823.651 8.774.65 1.89.651-1.483.65 1.813.651.501.651-2.346.65 7.524.651-.201.65 3.289.652-1.63.65 2.857.65 7.443.651-2.193.651-2.738.65 10.977.651-9.275.65-2.715.651-7.458.651-.5.65-23.475.651 11.303.65-.035.651-3.734.651-6.817.65.348.651-.122.65-3.05.652-9.902.65 3.066.65 13.3.651-6.416.65-17.211.652 10.177.65-2.494.65-5.663 1.302-7.838.65 7.319.651-2.527.65-6.592.651-.989 1.302-3.94.65 2.188.65 6.608.651 1.88.651 5.83.65-3.143.651 2.776.65-4.11.652 1.807.65.895 1.301 11.527 1.302-9.873.65-.977.65-.102.651-.706.651-12.146.65.603.651-1.356.65-4.94.651-2.023.651-7.567.65 8.25.651-.893.65-.59.652-6.645 1.3-4.801.651 5.158.651.574.65 6.091.651 4.67.65 1.321.651 6.806.651-1.497.65 4.556.651-5.933.65 6.148.651 2.323.651.824.65-.982.651 2.528.65 7.42.652.207.65.74.65.184.651-1.076.651-8.041.65 3.194.651 6.966.65-3.108.651-4.71.651-1.719.65-17.81.651 3.102.65 1.882.651 3.095.651-5.125.65 4.762.651-7.072.65-1.944.651 3.804.651-4.499.65-.278.651 2.242.65 3.895.652-4.939.65-5.894.65 1.315.651 5.766.651 7.866.65 9.28.651-7.225.65-.683.651 7.222.651-4.28.65-1.204.651 8.415.65 2.969 1.302-14.586.65 10.435.651-7.171.65-3.756.652-2.05.65-10.5.65-7.909.651-.835.651 5.001.65 10.978.651 3.237.65 1.517.651-11.415 1.302 17.362.65.028.65 9.365.651 7.169.651 1.364.65 4.65.651-1.47.65 1.88.652 10.735.65-4.527.65-6.38.651-4.821.651-2.338.65 2.157.651-5.246.65 2.624 1.302.849.65 11.792.651 4.887.65 2.352.651-7.025.651-11.971.65-1.6 1.302 6.073.65-.514.651 3.489.65-2.101.651-3.509.65 1.224.652 3.861.65-2.501.65 5.753.651 1.567.651 7.342.65-8.342.651 2.604.65 9.925.651 2.2.651-5.34.65.35.651.717.65 16.435.651-4.73.651-8.2 1.301 9.458.65-3.43 1.302-8.432.65-1.988.651-.963.651 1.405.65 2.001.651.696.65 5.624.651-4.175.651 10.9.65 1.369.651-6.403.65 7.249.651-3.415.651-1.78.65 2.91.651-1.075.65-4.728.652-6.185.65.2.65-6.326.651-.847.651-1.361.65 5.013.651-1.981.65 4.277.651 2.745.651-5.467 1.301 15.412.65 2.239.651-1.036.651 8.405.65-.912.651-2.301.65.297.652-1.822.65-3.053 1.301-17.048.651 4.361 1.301-17.163.65-4.167.651-3.267.651-4.99.65-1.79.651.632.65-1.59.651-14.461.651 3.368.65-2.636.651 5.32.65-4.532.652-8.057.65 9.618.65-10.703.651 4.808 1.302-6.573.65 7.684.65-3.205.651.997.651 5.503.65-4.31.651-1.067.65-3.817.651 7.151.651 10.114.65.015.651 4.465.65 7.386.651-1.364.651 8.493.65-6.597.651-2.594.65 7.752h0" clip-path="url(#pdd810b26fd)" style="fill:none;stroke:#ff8000;stroke-opacity:.8;stroke-linecap:square"/><path id="line2d_30" d="m65.965 156.547.651 6.06.65 4.728.651-3.94.65-10.639.651 8.403.651-1.39.65-1.997.651-1.352.65.059.651-10.48.651-7.875.65 1.648.651 2.718.65-3.213 1.302 12.623 1.301-12.036.651-.71.65-3.323.651 6.017.65 10.837.651 1.363.651-2.172.65 2.763.651 1.283.65-2.005.651 1.234.651-2.354.65-5.895.651 6.143.65-9.393.652 10.72.65-7.162.65 13.048.651 1.816.651-7.568.65-.989.651.755.65-.085.651-7.545.651-3.529.65 1.4.651 2.272.65-6.44.651-2.188.651-3.588.65 9.166.651-9.948.65-.816.652-7.46.65-9.453.65-.215.651-1.847.651-6.5.65-3.964.651-2.883.65-1.33.651 1.488.651.324.65-1.316.651-7.414.65-4.458.651 5.52.651-.786.65 3.612.651 2.196.65 9.915.651-3.701.651.28.65-5.058.651-.356.65 1.133.652-11.842 1.3 17.252.651-5.091.651-3.07 1.301 18.049.65 4.157.651-6.665.651-.75.65-6.284.651 1.096.65-3.856.651 10.103.651 4.553.65 11.434.651-4.34.65-1.142.652 11.758.65 7.33.65 2.116.651-4.435.651-7.674 1.301-4.904.65 5.6.651-1.767.651-.51.65 4.189.651 5.904.65 3.11.651.959.651-5.95.65-2.141.651 5.385.65-.357.652-3.59.65 7.503.65 4.425.651-16.227.651-1.558.65-1.14.651 5.163.65 7.477.651-3.254.651 11.776.65 4.396.651-.976.65 3.922.651.934.651-1.817.65 8.75.651 4.046.65 2.194.652 1.338.65 5.453.65-1.946.651 6.285.65 4.554.652-9.387.65 5.093.65-2.825.651-1.976.651-7.602.65 1.61.651-1.475.65-5.242.651-3.172.651 8.807.65 2.558.651-8.813.65 3.442.651-.424.651-2.144.65 13.625.651-4.227.65 4.271 1.302 4.539.65-4.486.651-2.665.651-3.695.65-.107.651.476.65.014.651 8.465.651-7.41.65 1.393.651 3.406.65.311.651 1.635.651-6.283.65-1.396.651-12.524.65 11.782.652 2.69.65 1.214.65 2.676.651 4.723.651.067.65-8.844.651.419.65 3.544.651-9.916.651 8.146.65-1.315 1.302 8.347.65-2.763.651 3.13.65-3.46.651 1.375.65 3.104.652 7.162.65-17.252.65-.302.651-1.663.651 13.223.65-7.259.651-10.833.65-5.821.651-3.04.651 2.839.65-5.197.651 7.009.65-.075.651-2.161.651 1.998.65-.435.651-3.767.65-8.764 1.302-9.934 1.301-12.303 1.302 4.678.65 9.131.65.333.651 17.443.651 7.197.65 5.26.651-7.256.65-5.158.651-6.498.651.45.65 6.91.651-6.732.65-2.23.651.713.651-2.338.65-9.587.651-2.86.65 1.218.652-1.634.65-14.151.65 3.288.651 8.16.651-1.696.65 2.933.651 10.094.65.057 1.302 14.48.65 13.08.651 5.788.65-6.403.651-3.298.651-5.645.65 9.312.651-9.763.65-2.347.652-6.199.65-2.22.65-11.88.651-5.482.651 7.272.65-6.218.651-8.1.65-1.134 1.302-10.383.65 8.166.651-.845.65 3.468.651-4.082.651-9.168.65 1.889.651-1.841.65-11.132.652 3.274.65-5.679.65.247.651 2.946.65.844.652 1.705.65 8.093.65-2.242 1.302 11.631 1.952-9.971.65-2.268.651 6.836.65 2.275.651.135.65-3.193.651 2.408.651-2.458.65 12.65.651-2.04.65 4.139 1.302-3.534.65-5.728.651 1.225.651-6.453.65-1.26.651 1.78.65-4.835.651-2.844.651-3.582.65-2.434.651 3.887.65 8.264.651 2.157 1.302 11.934.65 1.263.65 2.282.652 3.11.65-8.387.65 5.49.651 2.98.651 1.19.65 1.666.651-.021.65-3.304 1.302 3.188 1.301-3.581.65-2.926.651 6.399.651 1.175.65-.88.651-3.596.65-5.42.652 3.587.65-5.91.65 5.64.651-2.679.651 3.244.65-1.905.651 1.557 1.301 8.808.651 2.41.65-4.412.651-3.172.65 3.26.651 5.406.651-5.31.65 1.957.651-5.538.65 16.927.651-3.643.651.253.65.85.651 8.927.65-4.778.652-1.16.65-5.731.65 3.034.651-1.273.651-5.154.65-3.053 1.302 23.928.65.73.651-6.547.65 1.699.651-9.037.65-.47.651 4.986.651-7.19.65 2.556.651-.184.65 3.417.652 1.36.65.662.65-3.902.651-.095.651 2.343.65 1.016.651.38.65 3.86.651-3.716.651-1.39.65.617.651-7.758.65 5.82.651-1.304.651-1.705.65-8.028.651-3.813.65 3.222 1.302-9.746.65 6.069.651-7.002.651.33.65.654.651 9.163.65 1.925.651 3.36.651-11.18.65 3.499.651-3.665.65.7.651-.578.651 2.423.65-3.95.651 9.023.65 2.594.652 10.337.65-4.698.65 2.718.651 9.98.65-2.933.652.408.65 5.588.65 1.209.651 8.66.651 3.579.65-.64.651 1.615.65-3.965.651 1.834.651.672.65-6.456.651-3.956.65 4.943.651-.732.651 3.53.65 1.04.651 2.51 1.302 16.276.65 1.586.65-1.096.651.534.651 7.798.65-8.725.651-1.794.65.507.651 5.668.651-4.452.65.125.651-4.723.65 5.234.651 1.25.651 8.377.65-3.615.651 4.55.65 9.803 1.302 11.053.65 1.494.651-.003.651-1.317.65.762.651-5.584.65 3.033.651 5.257.651 3.078.65.499.651-4.2.65.978.651 11.726.651-1.016.65 3.24.651-3.214.65 3.444 1.302-10.845.65 1.788.651-.017.651 2.85.65-7.55.651 2.252.65 3.626.651-7.733.651 6.008.65 7.578.651-1.698.65 4.108.651-6.357.651 6.847 1.301-8.21.65-.626.652-6.96.65-1.327.65-6.99.651 4.176.65-3.956.652 3.382.65 1.724 1.952-13.362.65-3.351.651-9.071.65-15.06.651 3.174.651 5.378.65 2.252.651-2.919.65-6.808.651 2.79.651-.57.65-5.83.651 1.05.65-1.303h0" clip-path="url(#pdd810b26fd)" style="fill:none;stroke:#8000ff;stroke-opacity:.8;stroke-linecap:square"/><path id="line2d_31" d="m65.965 156.547.651 9.066.65.116.651 3.544.65 8.42.651-8.351.651 2.68.65 4.427.651-6.358 1.301 14.922.651-.933.65-5.202.651-4.205.65 1.817.652 5.656.65-9.47.65-19.368.651-5.717.651-.657.65-4.249.651 2.387.65-.78.651 2.48.651 1.003.65-.75.651-1.592.65 1.712.651-9.875.651 1.005.65-3.883.651-6.209.65-7.578.652 8.206.65-2.632.65-4.166.651-1.87.651 2.084.65-7.74.651 3.923.65-1.916.651 1.445 1.302-8.73 1.3 19.032.651 1.47.651 2.274.65-2.028.651-3.789.65 6.998.652 4.773.65.356.65-15.591.651 8.902.651-.383.65-2.871.651-4.542.65-.07.651 1.186.651-1.395.65-.276.651.034.65-4.105.651 5.745.651 1.65.65-6.23.651.027.65 1.492.651 5.42.651 1.777 1.301-2.362.65-3.904.652-2.634.65-8.293.65 3.698.651-11.716.651-5.952.65-4.268.651 9.667.65-6.78.651 14.211.651.502.65 22.454.651 1.317.65-1.886.651.47.651 3.846.65 2.242.651 15.057.65-.787.652 4.198.65-4.244 1.301-18.162.651 7.738.65 5.262.651.024.65-4.98.651 3.201.651 1.567.65-.218.651 2.539.65.744 1.302 2.18.65 1.142.651-1.712.65 4.44.652 14.198.65 2.975.65-5.022.651.864.651 7.363.65-1.314.651-5.072 1.301 18.857 1.302 12.6.65-10.832.65 6.206 1.302-9.959.65-4.346.651-2.03.65 4.342.652 2.904.65 6.59.65 5.156.651 6.08.65-.192.652 3.369.65-2.842.65-7.114.651-14.627.651.59.65 8.947.651-8.305.65.712.651-4.774.651 6.88.65 2.823.651-1.194.65 5.12.651-7.617.651-9.727.65-2.09.651 3.09.65 4.004.652 1.7.65 2.022.65 3.921.651-4.085.651 4.689.65.194.651-9.084.65 4.906.651-.233.651 3.005.65-2.169.651 2.954.65 10.66.651 3.66.651 4.494.65-5.523.651.97 1.302-.714.65.077.65 6.999 1.302 16.072.65 5.34.651 8.733.65-1.507.651-15.582.651 2.012.65 15.776.651-.721.65 6.898.651-4.98.651-.898.65 7.455.651-4.88.65.577.652.202.65 2.42.65-16.41.651-.085 1.302-1.916.65 4.884.65-.182.651-.06.651-10.85.65 5.132.651-8.478.65 2.84.651 5.737.651-3.799.65-.822.651-1.887.65-3.296.651 1.665.651-3.3.65-4.127.651-5.064 1.302 3.563 1.3 14.856.651-3.051.651-1.381.65 2.344.651 1.276.65-.154.651-9.192.651-5.298.65-1.762.651 4.71.65 1 1.302-20.053 1.301-13.945.65-2.92.652 8.302.65-3.498 1.301 12.609.651-3.568.65-4.411.651-7.666.65-2.355.651-5.978.651 4.18.65 9.637.651-2.702.65 2.492.651 11.536.651 6.919.65-8.82.651-2.324.65.658.652-2.642.65-4.671.65 5.498.651 3.28.651 8.035.65 1.11.651 8.433.65-2.63.651-6.914.651.81.65 4.776.651 1.03.65-2.748.651 1.97.651 2.854.65 1.21.651-4.364.65 2.527.652 4.505.65 10.07.65-11.232.651-5.602.65-13.168.652-5.494.65-3.601.65 2.138.651-3.92.651 2.402.65-4.229.651-2.524.65 1.127.651-13.7.651 4.417.65-5.154.651 2.418.65 6.327 1.302 6.304.65-3.909.651-5.075.65-4.052.652 4.596.65 2.69.65 11.197 1.302-10.452.65 2.125.651-.497.65 11.144.651 7.615.651-2.858.65 6.02.651 3.292.65-2.058.651.401.651-3.13.65-5.22.651-6.94.65-1.959.652-6.588.65-.47.65 4.668.651-3.527.651-4.931.65-7.566.651 11.586.65 4.053.651 6.609.651-4.97.65 6.54.651 9.057.65-1.175.651-11.253.651-6.215.65 10.21.651-.92.65-3.676.652 1.503.65-1.724.65-10.812.651-1.516.651 5.172.65-3.605.651-1.643.65.704.651 6.908.651 4.552.65-8.557.651 2.557.65-1.579.651 5.933.651 2.037.65-3.559.651.383 1.302 7.856.65 10.084.65 1.75.651.974.65 3.986.652 6.576.65-9.727.65-2.624.651 3.566.651.233.65.585.651-4.59.65-1.624.651 4.83.651 2.248.65.942.651-1.62.65-7.667.651 1.796.651 2.497.65-6.56.651-4.193.65 2.721.652 7.348.65 3.02.65-1.366.651-11.164 1.302 7.924.65-3.165.65-2.06.651 3.545.651 2.757.65-.86.651-8.712.65 8.896.651 1.2.651-.814.65-5.88.651.369.65-6.996.652-.326.65-9.709.65 7.424.651 1.086.651 3.106.65-.857.651 2.55.65-5.69.651-1.254.651 4.923.65-.025.651-5.143 1.301-7.524.651-2.042 1.301 7.555 1.302 11.165.65 1.535.65-6.16.651 9.166.65 7.274.652-1.229.65-6.346.65 1.154.651 6.594.651 15.58.65-3.461.651-.235.65-2.539.651 1.806.651-.881.65-6.315 1.302-5.24.65 1.084.651-2.224.65-5.688.651 2.092.65 10.33.652-2.342.65-1.205.65 8.005.651-6.715.651.54.65 12.106.651 7.004.65 1.447.651-4.955.651 1.12.65-.093.651-3.357 1.301-8.506.651 7.897.65-8.605.651 7.846.65-2.91.652 1.04.65-1.603.65 14.265.651 3.402.651 4.1.65 10.365.651.217.65-.345.651 4.487.651.02.65 1.363.651 12.37.65 7.441.651-1.664.651 2.589 1.301-12.23.65 1.428.652.798.65 1.116.65-3.104.651 5.25.651.625.65 4.252.651-4.846.65-3.03.651 8.506.651 6.985.65 2.254.651-1.095.65-2.586.651-3.54.651 4.252.65-4.716.651-3.314.65-1.82.652.504.65-3.734.65 2.868.651 5.052.65-3.667.652 8.118 1.3-13.147.651-11.093.651-3.413.65-2.757.651-.528.65-1.422.651 2.362.651-6.382.65-9.982.651 2.174.65-2.407.651 2.283.651 7.34.65 4.745.651 8.172.65-4.612h0" clip-path="url(#pdd810b26fd)" style="fill:none;stroke:#ff0001;stroke-opacity:.8;stroke-linecap:square"/><path id="line2d_32" d="m65.965 156.547.651 1.687.65-.663.651-7.275.65 7.951.651-.592.651.27.65 2.061.651 6.301.65 1.971.651-15.121 1.302 6.36.65 7.376.65-4.41.652 3.202.65.58 1.301 12.573.651 3.853.65.315 1.302-10.439.65-10.087.651-3.059.65-10.646.651-6.234.65-2.044.651-1.599.651 7.888.65 6.131.651 9.537.65-7.758.652-2.412.65-4.14.65-5.765.651 1.288.651.282.65 2.256.651-1.762.65 1.855.651-2.035.651 3.344.65 1.814 1.302-3.85.65 1.212.651 7.858.65-6.347.651 6.889.65 1.74 1.302 6.413.65-2.64.651-4.866.651 1.752.65 4.005.651 1.15.65-.239.651-4.112.651 5.776.65 4.49.651 8.241.65.696.651 7.365.651-3.427.65-6.63.651-1.616.65-4.501.651 11.21 1.302-4.38.65 4.131.65 21.216.652-.815.65-2.5.65-14.773.651-1.653.651.921.65 6.268.651-.826.65-7.96.651-6.593.651 2.186.65 7.076.651-3.991.65-13.981.651 5.609.651-3.93.65-5.689.651.792.65 2.29 1.302-4.144.65-3.925.651.742.651 1.84.65-4.502.651 10.007.65-6.613.651-2.041.651 1.92.65 9.442.651 5.885.65-2.29.651 5.507.651 1.382.65 11.318.651 5.968.65-7.166.652-2.264.65-12.296.65 6.822.651 4.239 1.302 1.941.65-4.76.65 4.173.651 5.933.651-4.106 1.301 27.307.65-2.528 1.953-19.938.65 8.563.65.306.652.964.65-.7.65 5.477.651-.4 1.302-11.32.65-.094.65-.3.651-4.029.651-1.737.65-4.244.651 6.658.65-.376.651 2.607.651.24.65-.494.651 2.941.65 1.284.651-6.066.651-11.593.65 2.36.651-4.197 1.302-17.04.65-2.309.65 9.741.651-9.127.651 2.439.65-2.817.651 3.033.65 2.19.651-1.789.651 4.92.65-8.306.651.384.65-6.34.651-1.852.651-3.947.65 1.105.651-1.58.65 6.296.652-8.363.65-2.955.65-5.495.651 13.618.651 8.967.65 1.84.651-5.766.65 2.434.651 5.218.651 6.397 1.301 7.31.65-4.902.651-1.237.651 8.393.65-.697.651-6.673.65 4.436.652 8.048.65-2.023.65 3.048.651-6.163.651 3.181.65-2.308.651-1.537.65-6.235.651-.955.651-4.589.65-6.936.651 10.802.65-7.58.651 1.89.651.52.65-5.31.651-1.623.65 1.974.651 8.717.651 2.475.65.372.651 6.998.65-8.159.652-6.45.65 2.428.65 7.393.651 12.719.651 2.313.65 9.918.651-4.499.65 12.338.651-2.275.651 3.46.65-.785.651 4.465.65 1.613.651 5.536.651-3.745.65 4.199.651-6.066.65 7.371.652-5.071.65 5.437 1.301 8.003.651 7.205.65 9.125.651 1.402.65 10.297.651-.028.651-3.209.65 6.465.651-2.018.65 4.064.651-2.622.651-6.253.65.82.651-2.1.65-12.4.652 3.451.65-2.89.65 8.551.651-2.909.651 3.092.65 1.94.651-11.755.65-5.43.651 2.578.651 2.075.65.5.651-5.075.65 3.482.651.27.651 9.258.65-2.29.651-.515 1.302 9.272.65 5.851.65.725.651 8.72.65 5.032.652-.86.65 5.505.65-4.394.651 3.295.651 1.498.65-3.542 1.302-17.234.65 7.032.651-2.039.65.732.651-1.144.65 2.073.651.722.651-4.615.65-1.401.651 1.396.65.132.652-.63.65 6.123.65-9.034.651 4.489.651-3.545.65 3.8.651 11.146.65-4.76.651-3.394.651-4.807.65.568.651-1.712.65 7.953.651-8.982.651 7.618.65 3.282.651-6.211.65-.18.652-8.102.65.635.65-6.293.651-14.57.651.944.65-2.029.651 7.35.65 4.661.651-.566.651 4.3.65-3.559.651 1.673.65-3.829.651-.105.651-7.66.65.096.651 3.948.65-14.485.652 2.076.65-4.257.65.131.651.836.651-2.214.65-.68.651 4.94.65 6.672.651-1.655.651 5.918.65-4.606.651-2.36.65-4.75.651-2.628.651.236.65 19.12.651-2.337.65-6.665.651.888.651 1.32.65-4.186.651-6.166.65 4.352.652.028.65 3.557.65 10.09.651-5.938.651-1.545.65-2.56.651 2.903.65-6.02.651-1.414.651 1.949.65 1.011.651 5.634.65-7.297.651-.294.651 1.065 1.301-16.314.65 1.54.652 1.137.65 3.157.65-6.58.651-10.956.651 2.147.65-7.844.651-2.917.65 13.124.651 3.922.651 2.63.65.144.651 11.066.65-4.507.651-3.17.651 2.08.65 10.623.651-2.49.65-.908.652-4.444.65-13.001.65 4.233.651-6.54.651 3.833.65-.128.651 5.37.65 2.749.651 1.04.651 9.401.65-16.154.651-3.503 1.301-2.797.651-2.368.65 9.571.651 5.38.65-6.561.652-3.176.65-5.616.65 16.142.651-13.255.65 2.244.652 5.196.65.39 1.301-3.976.651-2.827.65 11.042.651-.637.65 4.239.651 8.16.651-1.034.65 3.521.651 4.597.65-.812.651-10.049.651-4.205.65 1.52.651-8.151.65.476.652-2.406.65 4.04.65 4.974.651-1.977.651-1.532.65 9.613.651-1.228.65-12.072.651-1.856.651 3.802.65.304.651 3.643.65.458.651-9.1.651 4.759.65 7.22.651-6.042.65-8.306.652-.615.65-11.109.65 4.839.651 5.742.651-5.74.65 3.25.651.659.65-1.006.651 2.753.651-9.588.65 7.432.651 5.243.65 8.976.651 1.205.651-3.79.65 1.619.651-7.407.65-9.695.652-.251.65-12.339.65-6.938.651-10.167.651-2.144.65 4.918.651-8.464.65-2.605.651-.939.651-1.622.65-.65.651-4.571.65-5.888.651 3.861.651-1.958.65 3.36.651 6.621.65-8.114.652 9.274.65-1.17.65 4.536.651-10.391.65.23.652 2.01.65 6.357.65-1.724.651 9.396.651-1.372.65.39.651-3.712.65-15.527.651 2.222.651-8.502.65 3.687.651-.815.65-7.142.651-4.23.651-2.665.65 7.57.651 5.296.65.55h0" clip-path="url(#pdd810b26fd)" style="fill:none;stroke:#00ff02;stroke-opacity:.8;stroke-linecap:square"/><path id="line2d_33" d="M65.965 156.547H390.62" clip-path="url(#pdd810b26fd)" style="fill:none;stroke-dasharray:5.55,2.4;stroke-dashoffset:0;stroke:currentColor;stroke-width:1.5"/><path id="line2d_34" d="m65.965 156.547.651-5.796.65-2.373 1.302-3.303 1.301-2.48 1.301-2.048 1.952-2.57 1.952-2.167 1.952-1.883 2.602-2.186 2.603-1.903 3.253-2.073 3.253-1.806 3.903-1.89 3.904-1.644 4.554-1.668 5.205-1.64 5.205-1.406 5.856-1.356 6.506-1.276 7.156-1.176 7.808-1.064 9.108-1.01 10.41-.917 11.711-.797 13.663-.697 16.265-.594 19.518-.48 24.724-.376 33.831-.274 51.399-.17 61.157-.062" clip-path="url(#pdd810b26fd)" style="fill:none;stroke-dasharray:.8,1.32;stroke-dashoffset:0;stroke:currentColor;stroke-opacity:.5;stroke-width:.8"/><path id="line2d_35" d="m65.965 156.547.651 5.795.65 2.373 1.302 3.303 1.301 2.48 1.301 2.048 1.952 2.57 1.952 2.167 1.952 1.883 2.602 2.186 2.603 1.903 3.253 2.073 3.253 1.806 3.903 1.89 3.904 1.644 4.554 1.668 5.205 1.64 5.205 1.406 5.856 1.356 6.506 1.276 7.156 1.176 7.808 1.064 9.108 1.01 10.41.917 11.711.797 13.663.697 16.265.594 19.518.48 24.724.376 33.831.274 51.399.17 61.157.062" clip-path="url(#pdd810b26fd)" style="fill:none;stroke-dasharray:.8,1.32;stroke-dashoffset:0;stroke:currentColor;stroke-opacity:.5;stroke-width:.8"/><path d="M49.733 297.43V31.318M49.733 297.43h357.12" class="patch" style="fill:none;stroke:currentColor;stroke-width:.8;stroke-linejoin:miter;stroke-linecap:square"/><g id="text_14" class="text" transform="matrix(.12 0 0 -.12 29.065 16.318)"><defs><path id="DejaVuSans-4f" d="M2522 4238q-688 0-1093-513-404-512-404-1397 0-881 404-1394 405-512 1093-512 687 0 1089 512 402 513 402 1394 0 885-402 1397-402 513-1089 513m0 512q981 0 1568-658 588-658 588-1764 0-1103-588-1761Q3503-91 2522-91q-984 0-1574 656-589 657-589 1763t589 1764q590 658 1574 658" transform="scale(.01563)"/><path id="DejaVuSans-72" d="M2631 2963q-97 56-211 82-114 27-251 27-488 0-749-317t-261-911V0H581v3500h578v-544q182 319 472 473 291 155 707 155 59 0 131-8 72-7 159-23z" transform="scale(.01563)"/><path id="DejaVuSans-6e" d="M3513 2113V0h-575v2094q0 497-194 743-194 247-581 247-466 0-735-297-269-296-269-809V0H581v3500h578v-544q207 316 486 472 280 156 646 156 603 0 912-373 310-373 310-1098" transform="scale(.01563)"/><path id="DejaVuSans-73" d="M2834 3397v-544q-243 125-506 187-262 63-544 63-428 0-642-131t-214-394q0-200 153-314t616-217l197-44q612-131 870-370t258-667q0-488-386-773Q2250-91 1575-91q-281 0-586 55T347 128v594q319-166 628-249 309-82 613-82 406 0 624 139 219 139 219 392 0 234-158 359-157 125-692 241l-200 47q-534 112-772 345-237 233-237 639 0 494 350 762 350 269 994 269 318 0 599-47 282-46 519-140" transform="scale(.01563)"/><path id="DejaVuSans-74" d="M1172 4494v-994h1184v-447H1172V1153q0-428 117-550t477-122h590V0h-590q-666 0-919 248-253 249-253 905v1900H172v447h422v994z" transform="scale(.01563)"/><path id="DejaVuSans-2d" d="M313 2009h1684v-512H313z" transform="scale(.01563)"/><path id="DejaVuSans-55" d="M556 4666h635V1831q0-750 271-1080 272-329 882-329 606 0 878 329 272 330 272 1080v2835h634V1753q0-912-452-1378Q3225-91 2344-91q-885 0-1337 466-451 466-451 1378z" transform="scale(.01563)"/><path id="DejaVuSans-68" d="M3513 2113V0h-575v2094q0 497-194 743-194 247-581 247-466 0-735-297-269-296-269-809V0H581v4863h578V2956q207 316 486 472 280 156 646 156 603 0 912-373 310-373 310-1098" transform="scale(.01563)"/><path id="DejaVuSans-6c" d="M603 4863h575V0H603z" transform="scale(.01563)"/><path id="DejaVuSans-62" d="M3116 1747q0 634-261 995t-717 361q-457 0-718-361t-261-995 261-995 718-361q456 0 717 361t261 995M1159 2969q182 312 458 463 277 152 661 152 638 0 1036-506 399-506 399-1331T3314 415Q2916-91 2278-91q-384 0-661 152-276 152-458 464V0H581v4863h578z" transform="scale(.01563)"/><path id="DejaVuSans-63" d="M3122 3366v-538q-244 135-489 202t-495 67q-560 0-870-355-309-354-309-995t309-996q310-354 870-354 250 0 495 67t489 202V134Q2881 22 2623-34q-257-57-548-57-791 0-1257 497-465 497-465 1341 0 856 470 1346 471 491 1290 491 265 0 518-55 253-54 491-163" transform="scale(.01563)"/><path id="DejaVuSans-6b" d="M581 4863h578V1991l1716 1509h734L1753 1863 3688 0h-750L1159 1709V0H581z" transform="scale(.01563)"/><path id="DejaVuSans-50" d="M1259 4147V2394h794q441 0 681 228 241 228 241 650 0 419-241 647-240 228-681 228zm-631 519h1425q785 0 1186-355 402-355 402-1039 0-691-402-1044-401-353-1186-353h-794V0H628z" transform="scale(.01563)"/><path id="DejaVuSans-6f" d="M1959 3097q-462 0-731-361t-269-989 267-989q268-361 733-361 460 0 728 362 269 363 269 988 0 622-269 986-268 364-728 364m0 487q750 0 1178-488 429-487 429-1349 0-859-429-1349Q2709-91 1959-91q-753 0-1180 489-426 490-426 1349 0 862 426 1349 427 488 1180 488" transform="scale(.01563)"/><path id="DejaVuSans-3a" d="M750 794h659V0H750zm0 2515h659v-793H750z" transform="scale(.01563)"/><path id="DejaVuSans-53" d="M3425 4513v-616q-359 172-678 256-319 85-616 85-515 0-795-200t-280-569q0-310 186-468 186-157 705-254l381-78q706-135 1042-474t336-907q0-679-455-1029Q2797-91 1919-91q-331 0-705 75-373 75-773 222v650q384-215 753-325 369-109 725-109 540 0 834 212 294 213 294 607 0 343-211 537t-692 291l-385 75q-706 140-1022 440-315 300-315 835 0 619 436 975t1201 356q329 0 669-60 341-59 697-177" transform="scale(.01563)"/><path id="DejaVuSans-61" d="M2194 1759q-697 0-966-159t-269-544q0-306 202-486 202-179 548-179 479 0 768 339t289 901v128zm1147 238V0h-575v531q-197-318-491-470T1556-91q-537 0-855 302-317 302-317 808 0 590 395 890 396 300 1180 300h807v57q0 397-261 614t-733 217q-300 0-585-72-284-72-546-216v532q315 122 612 182 297 61 578 61 760 0 1135-394 375-393 375-1193" transform="scale(.01563)"/><path id="DejaVuSans-70" d="M1159 525v-1856H581v4831h578v-531q182 312 458 463 277 152 661 152 638 0 1036-506 399-506 399-1331T3314 415Q2916-91 2278-91q-384 0-661 152-276 152-458 464m1957 1222q0 634-261 995t-717 361q-457 0-718-361t-261-995 261-995 718-361q456 0 717 361t261 995" transform="scale(.01563)"/><path id="DejaVuSans-64" d="M2906 2969v1894h575V0h-575v525q-181-312-458-464-276-152-664-152-634 0-1033 506-398 507-398 1332t398 1331q399 506 1033 506 388 0 664-152 277-151 458-463M947 1747q0-634 261-995t717-361 718 361q263 361 263 995t-263 995q-262 361-718 361t-717-361-261-995" transform="scale(.01563)"/><path id="DejaVuSans-56" d="M1831 0 50 4666h659L2188 738l1481 3928h656L2547 0z" transform="scale(.01563)"/><path id="DejaVuSans-45" d="M628 4666h2950v-532H1259V2753h2222v-531H1259V531h2375V0H628z" transform="scale(.01563)"/><path id="DejaVuSans-76" d="M191 3500h609L1894 563l1094 2937h609L2284 0h-781z" transform="scale(.01563)"/></defs><use xlink:href="#DejaVuSans-4f"/><use xlink:href="#DejaVuSans-72" transform="translate(78.71)"/><use xlink:href="#DejaVuSans-6e" transform="translate(118.074)"/><use xlink:href="#DejaVuSans-73" transform="translate(181.453)"/><use xlink:href="#DejaVuSans-74" transform="translate(233.553)"/><use xlink:href="#DejaVuSans-65" transform="translate(272.762)"/><use xlink:href="#DejaVuSans-69" transform="translate(334.285)"/><use xlink:href="#DejaVuSans-6e" transform="translate(362.068)"/><use xlink:href="#DejaVuSans-2d" transform="translate(425.447)"/><use xlink:href="#DejaVuSans-55" transform="translate(461.531)"/><use xlink:href="#DejaVuSans-68" transform="translate(534.725)"/><use xlink:href="#DejaVuSans-6c" transform="translate(598.104)"/><use xlink:href="#DejaVuSans-65" transform="translate(625.887)"/><use xlink:href="#DejaVuSans-6e" transform="translate(687.41)"/><use xlink:href="#DejaVuSans-62" transform="translate(750.79)"/><use xlink:href="#DejaVuSans-65" transform="translate(814.266)"/><use xlink:href="#DejaVuSans-63" transform="translate(875.79)"/><use xlink:href="#DejaVuSans-6b" transform="translate(930.77)"/><use xlink:href="#DejaVuSans-50" transform="translate(1020.467)"/><use xlink:href="#DejaVuSans-72" transform="translate(1079.02)"/><use xlink:href="#DejaVuSans-6f" transform="translate(1117.883)"/><use xlink:href="#DejaVuSans-63" transform="translate(1179.064)"/><use xlink:href="#DejaVuSans-65" transform="translate(1234.045)"/><use xlink:href="#DejaVuSans-73" transform="translate(1295.568)"/><use xlink:href="#DejaVuSans-73" transform="translate(1347.668)"/><use xlink:href="#DejaVuSans-3a" transform="translate(1399.768)"/><use xlink:href="#DejaVuSans-53" transform="translate(1465.246)"/><use xlink:href="#DejaVuSans-61" transform="translate(1528.723)"/><use xlink:href="#DejaVuSans-6d" transform="translate(1590.002)"/><use xlink:href="#DejaVuSans-70" transform="translate(1687.414)"/><use xlink:href="#DejaVuSans-6c" transform="translate(1750.89)"/><use xlink:href="#DejaVuSans-65" transform="translate(1778.674)"/><use xlink:href="#DejaVuSans-50" transform="translate(1871.984)"/><use xlink:href="#DejaVuSans-61" transform="translate(1927.787)"/><use xlink:href="#DejaVuSans-74" transform="translate(1989.066)"/><use xlink:href="#DejaVuSans-68" transform="translate(2028.275)"/><use xlink:href="#DejaVuSans-73" transform="translate(2091.654)"/><use xlink:href="#DejaVuSans-61" transform="translate(2175.541)"/><use xlink:href="#DejaVuSans-6e" transform="translate(2236.82)"/><use xlink:href="#DejaVuSans-64" transform="translate(2300.2)"/><use xlink:href="#DejaVuSans-56" transform="translate(2395.463)"/><use xlink:href="#DejaVuSans-61" transform="translate(2456.121)"/><use xlink:href="#DejaVuSans-72" transform="translate(2517.4)"/><use xlink:href="#DejaVuSans-69" transform="translate(2558.514)"/><use xlink:href="#DejaVuSans-61" transform="translate(2586.297)"/><use xlink:href="#DejaVuSans-6e" transform="translate(2647.576)"/><use xlink:href="#DejaVuSans-63" transform="translate(2710.955)"/><use xlink:href="#DejaVuSans-65" transform="translate(2765.936)"/><use xlink:href="#DejaVuSans-45" transform="translate(2859.246)"/><use xlink:href="#DejaVuSans-6e" transform="translate(2922.43)"/><use xlink:href="#DejaVuSans-76" transform="translate(2985.809)"/><use xlink:href="#DejaVuSans-65" transform="translate(3044.988)"/><use xlink:href="#DejaVuSans-6c" transform="translate(3106.512)"/><use xlink:href="#DejaVuSans-6f" transform="translate(3134.295)"/><use xlink:href="#DejaVuSans-70" transform="translate(3195.477)"/><use xlink:href="#DejaVuSans-65" transform="translate(3258.953)"/></g><g class="legend"><path d="M315.113 70.261h78.297q1.8 0 1.8-1.8v-25.52q0-1.8-1.8-1.8h-78.297q-1.8 0-1.8 1.8v25.52q0 1.8 1.8 1.8z" class="patch" style="fill:rgba(255,255,255,.8)!important;opacity:.9;stroke:rgba(0,0,0,.1)!important;stroke-linejoin:miter"/><path id="line2d_36" d="M316.913 48.429h18" style="fill:none;stroke-dasharray:5.55,2.4;stroke-dashoffset:0;stroke:currentColor;stroke-width:1.5"/><g id="text_15" class="text" transform="matrix(.09 0 0 -.09 342.113 51.579)"><defs><path id="DejaVuSans-4d" d="M628 4666h941l1190-3175 1197 3175h941V0h-616v4097L3078 897h-634L1241 4097V0H628z" transform="scale(.01563)"/></defs><use xlink:href="#DejaVuSans-4d"/><use xlink:href="#DejaVuSans-65" transform="translate(86.28)"/><use xlink:href="#DejaVuSans-61" transform="translate(147.803)"/><use xlink:href="#DejaVuSans-6e" transform="translate(209.082)"/></g><path id="line2d_37" d="M316.913 61.64h18" style="fill:none;stroke-dasharray:.8,1.32;stroke-dashoffset:0;stroke:currentColor;stroke-opacity:.5;stroke-width:.8"/><g id="text_16" class="text" transform="matrix(.09 0 0 -.09 342.113 64.79)"><defs><path id="DejaVuSans-b1" d="M2944 4013V2803h1740v-531H2944V1063h-525v1209H678v531h1741v1210zM678 531h4006V0H678z" transform="scale(.01563)"/></defs><use xlink:href="#DejaVuSans-b1"/><use xlink:href="#DejaVuSans-31" transform="translate(83.79)"/><use xlink:href="#DejaVuSans-73" transform="translate(179.2)"/><use xlink:href="#DejaVuSans-74" transform="translate(231.299)"/><use xlink:href="#DejaVuSans-64" transform="translate(270.508)"/><use xlink:href="#DejaVuSans-64" transform="translate(365.771)"/><use xlink:href="#DejaVuSans-65" transform="translate(429.248)"/><use xlink:href="#DejaVuSans-76" transform="translate(490.771)"/></g></g></g></g><defs><clipPath id="pdd810b26fd"><path d="M49.733 31.318h357.12V297.43H49.733z"/></clipPath></defs></svg>