<?xml version="1.0" encoding="utf-8" standalone="no"?>
<!DOCTYPE svg PUBLIC "-//W3C//DTD SVG 1.1//EN"
  "http://www.w3.org/Graphics/SVG/1.1/DTD/svg11.dtd">
<svg xmlns:xlink="http://www.w3.org/1999/xlink" width="418.416562pt" height="316.603094pt" viewBox="0 0 418.416562 316.603094" xmlns="http://www.w3.org/2000/svg" version="1.1">
<style>/* === RDF autogenerated palette === */
:root {
    --axis-color: #000;
    --grid-stroke: rgba(0,0,0,0.2);
    --plot3d-stroke: rgba(0,0,0,0.3);
    --plot3d-grid: rgba(0,0,0,0.2);
}
@media (prefers-color-scheme: dark) {
    :root {
        --axis-color: #fff;
        --grid-stroke: rgba(255,255,255,0.2);
        --plot3d-stroke: rgba(255,255,255,0.3);
        --plot3d-grid: rgba(255,255,255,0.2);
    }
}

/* Light‑mode palette */
.black { fill:#000000; stroke:#000000; }:root { --black: #000000; }.c1 { fill:#FF0001; stroke:#FF0001; }:root { --c1: #FF0001; }.c2 { fill:#00FF02; stroke:#00FF02; }:root { --c2: #00FF02; }.c3 { fill:#0000FF; stroke:#0000FF; }:root { --c3: #0000FF; }.c4 { fill:#FF00FF; stroke:#FF00FF; }:root { --c4: #FF00FF; }.c5 { fill:#00FFFF; stroke:#00FFFF; }:root { --c5: #00FFFF; }.c6 { fill:#FFFF00; stroke:#FFFF00; }:root { --c6: #FFFF00; }.c7 { fill:#FF8000; stroke:#FF8000; }:root { --c7: #FF8000; }.c8 { fill:#8000FF; stroke:#8000FF; }:root { --c8: #8000FF; }.gray { fill:#7f7f7f; stroke:#7f7f7f; }:root { --gray: #7f7f7f; }.grey { fill:#7f7f7f; stroke:#7f7f7f; }:root { --grey: #7f7f7f; }.octonary { fill:#bcbd22; stroke:#bcbd22; }:root { --octonary: #bcbd22; }.primary { fill:#d62728; stroke:#d62728; }:root { --primary: #d62728; }.quaternary { fill:#9467bd; stroke:#9467bd; }:root { --quaternary: #9467bd; }.quinary { fill:#8c564b; stroke:#8c564b; }:root { --quinary: #8c564b; }.secondary { fill:#2ca02c; stroke:#2ca02c; }:root { --secondary: #2ca02c; }.senary { fill:#e377c2; stroke:#e377c2; }:root { --senary: #e377c2; }.septenary { fill:#7f7f7f; stroke:#7f7f7f; }:root { --septenary: #7f7f7f; }.tertiary { fill:#1f77b4; stroke:#1f77b4; }:root { --tertiary: #1f77b4; }.white { fill:#ffffff; stroke:#ffffff; }:root { --white: #ffffff; }

/* Dark overrides */
@media (prefers-color-scheme: dark) {
    .black { fill:#FFFFFF; stroke:#FFFFFF; }:root { --black: #FFFFFF; }.c1 { fill:#FF0001; stroke:#FF0001; }:root { --c1: #FF0001; }.c2 { fill:#00FF02; stroke:#00FF02; }:root { --c2: #00FF02; }.c3 { fill:#0000FF; stroke:#0000FF; }:root { --c3: #0000FF; }.c4 { fill:#FF00FF; stroke:#FF00FF; }:root { --c4: #FF00FF; }.c5 { fill:#00FFFF; stroke:#00FFFF; }:root { --c5: #00FFFF; }.c6 { fill:#FFFF00; stroke:#FFFF00; }:root { --c6: #FFFF00; }.c7 { fill:#FF8000; stroke:#FF8000; }:root { --c7: #FF8000; }.c8 { fill:#8000FF; stroke:#8000FF; }:root { --c8: #8000FF; }.gray { fill:#CCCCCC; stroke:#CCCCCC; }:root { --gray: #CCCCCC; }.grey { fill:#CCCCCC; stroke:#CCCCCC; }:root { --grey: #CCCCCC; }.octonary { fill:#E6DB74; stroke:#E6DB74; }:root { --octonary: #E6DB74; }.primary { fill:#FF4A98; stroke:#FF4A98; }:root { --primary: #FF4A98; }.quaternary { fill:#B4A0FF; stroke:#B4A0FF; }:root { --quaternary: #B4A0FF; }.quinary { fill:#FFB86B; stroke:#FFB86B; }:root { --quinary: #FFB86B; }.secondary { fill:#0AFAFA; stroke:#0AFAFA; }:root { --secondary: #0AFAFA; }.senary { fill:#FF79C6; stroke:#FF79C6; }:root { --senary: #FF79C6; }.septenary { fill:#CCCCCC; stroke:#CCCCCC; }:root { --septenary: #CCCCCC; }.tertiary { fill:#7F83FF; stroke:#7F83FF; }:root { --tertiary: #7F83FF; }.white { fill:#000000; stroke:#000000; }:root { --white: #000000; }
}/* Axis, ticks, legend */
text, .text { fill: var(--axis-color) !important; stroke: none !important; }
.axis line, .axis path,
.tick line, .tick path,
path.domain,
line.grid { stroke: var(--axis-color) !important; }
.legend text { fill: var(--axis-color) !important; }

/* Patch paths that relied on currentColor */
.patch path[style*="stroke: currentColor"] { stroke: var(--axis-color) !important; }

/* Legend background (first child of legend group) */
g.legend > g:first-child > path:first-child {
    fill: rgba(255,255,255,0.8) !important;
    stroke: rgba(0,0,0,0.1) !important;
}
@media (prefers-color-scheme: dark) {
    g.legend > g:first-child > path:first-child {
        fill: rgba(26,26,26,0.8) !important;
        stroke: rgba(255,255,255,0.1) !important;
    }
}

/* 3‑D specific rules */
.plot3d path, .plot3d polygon {
    stroke: var(--plot3d-stroke) !important;
}
.plot3d-grid line { stroke: var(--plot3d-grid) !important; }
.plot3d-surface path[style*="fill:"] {
    fill-opacity: 0.9 !important;
}
@media (prefers-color-scheme: dark) {
    .plot3d-surface path[style*="fill:"] {
        fill-opacity: 0.95 !important;
        filter: saturate(1.2) !important;
    }
}</style>

 <metadata>
  <rdf:RDF xmlns:dc="http://purl.org/dc/elements/1.1/" xmlns:cc="http://creativecommons.org/ns#" xmlns:rdf="http://www.w3.org/1999/02/22-rdf-syntax-ns#">
   <cc:Work>
    <dc:type rdf:resource="http://purl.org/dc/dcmitype/StillImage"/>
    <dc:date>2025-09-15T16:42:02.497472</dc:date>
    <dc:format>image/svg+xml</dc:format>
    <dc:creator>
     <cc:Agent>
      <dc:title>Matplotlib v3.10.1, https://matplotlib.org/</dc:title>
     </cc:Agent>
    </dc:creator>
   </cc:Work>
  </rdf:RDF>
 </metadata>
 <defs>
  <style type="text/css">*{stroke-linejoin: round; stroke-linecap: butt}</style>
 </defs>
 <g id="figure_1">
  <g class="patch">
   <path d="M 0 316.603094 
L 418.416562 316.603094 
L 418.416562 0 
L 0 0 
L 0 316.603094 
z
" style="fill: none"/>
  </g>
  <g id="axes_1">
   <g class="patch">
    <path d="M 54.096563 277.111219 
L 411.216563 277.111219 
L 411.216563 10.999219 
L 54.096563 10.999219 
L 54.096563 277.111219 
z
" style="fill: none"/>
   </g>
   <g id="line2d_1">
    <path d="M 160.267373 277.111219 
L 160.267373 10.999219 
" clip-path="url(#p710623140c)" style="fill: none; stroke-dasharray: 3.7,1.6; stroke-dashoffset: 0; stroke: #808080; stroke-opacity: 0.5"/>
   </g>
   <g id="line2d_2">
    <path d="M 208.526833 277.111219 
L 208.526833 10.999219 
" clip-path="url(#p710623140c)" style="fill: none; stroke-dasharray: 3.7,1.6; stroke-dashoffset: 0; stroke: #808080; stroke-opacity: 0.5"/>
   </g>
   <g id="line2d_3">
    <path d="M 353.305211 277.111219 
L 353.305211 10.999219 
" clip-path="url(#p710623140c)" style="fill: none; stroke-dasharray: 3.7,1.6; stroke-dashoffset: 0; stroke: #808080; stroke-opacity: 0.5"/>
   </g>
   <g class="axis">
    <g class="tick xtick">
     <g id="line2d_4">
      <path d="M 63.748454 277.111219 
L 63.748454 10.999219 
" clip-path="url(#p710623140c)" style="fill: none; stroke: #b0b0b0; stroke-opacity: 0.15; stroke-width: 0.8; stroke-linecap: square"/>
     </g>
     <g id="line2d_5">
      <defs>
       <path id="md0127d144e" d="M 0 0 
L 0 3.5 
" style="stroke: var(--black); stroke-width: 0.8"/>
      </defs>
      <g>
       <use xlink:href="#md0127d144e" x="63.748454" y="277.111219" style="stroke: var(--black); stroke-width: 0.8"/>
      </g>
     </g>
     <g id="text_1" class="text">
      <!-- −1 -->
      <g transform="translate(56.377361 291.709656) scale(0.1 -0.1)">
       <defs>
        <path id="DejaVuSans-2212" d="M 678 2272 
L 4684 2272 
L 4684 1741 
L 678 1741 
L 678 2272 
z
" transform="scale(0.015625)"/>
        <path id="DejaVuSans-31" d="M 794 531 
L 1825 531 
L 1825 4091 
L 703 3866 
L 703 4441 
L 1819 4666 
L 2450 4666 
L 2450 531 
L 3481 531 
L 3481 0 
L 794 0 
L 794 531 
z
" transform="scale(0.015625)"/>
       </defs>
       <use xlink:href="#DejaVuSans-2212"/>
       <use xlink:href="#DejaVuSans-31" transform="translate(83.789062 0)"/>
      </g>
     </g>
    </g>
    <g class="tick xtick">
     <g id="line2d_6">
      <path d="M 112.007914 277.111219 
L 112.007914 10.999219 
" clip-path="url(#p710623140c)" style="fill: none; stroke: #b0b0b0; stroke-opacity: 0.15; stroke-width: 0.8; stroke-linecap: square"/>
     </g>
     <g id="line2d_7">
      <g>
       <use xlink:href="#md0127d144e" x="112.007914" y="277.111219" style="stroke: var(--black); stroke-width: 0.8"/>
      </g>
     </g>
     <g id="text_2" class="text">
      <!-- 0 -->
      <g transform="translate(108.826664 291.709656) scale(0.1 -0.1)">
       <defs>
        <path id="DejaVuSans-30" d="M 2034 4250 
Q 1547 4250 1301 3770 
Q 1056 3291 1056 2328 
Q 1056 1369 1301 889 
Q 1547 409 2034 409 
Q 2525 409 2770 889 
Q 3016 1369 3016 2328 
Q 3016 3291 2770 3770 
Q 2525 4250 2034 4250 
z
M 2034 4750 
Q 2819 4750 3233 4129 
Q 3647 3509 3647 2328 
Q 3647 1150 3233 529 
Q 2819 -91 2034 -91 
Q 1250 -91 836 529 
Q 422 1150 422 2328 
Q 422 3509 836 4129 
Q 1250 4750 2034 4750 
z
" transform="scale(0.015625)"/>
       </defs>
       <use xlink:href="#DejaVuSans-30"/>
      </g>
     </g>
    </g>
    <g class="tick xtick">
     <g id="line2d_8">
      <path d="M 160.267373 277.111219 
L 160.267373 10.999219 
" clip-path="url(#p710623140c)" style="fill: none; stroke: #b0b0b0; stroke-opacity: 0.15; stroke-width: 0.8; stroke-linecap: square"/>
     </g>
     <g id="line2d_9">
      <g>
       <use xlink:href="#md0127d144e" x="160.267373" y="277.111219" style="stroke: var(--black); stroke-width: 0.8"/>
      </g>
     </g>
     <g id="text_3" class="text">
      <!-- 1 -->
      <g transform="translate(157.086123 291.709656) scale(0.1 -0.1)">
       <use xlink:href="#DejaVuSans-31"/>
      </g>
     </g>
    </g>
    <g class="tick xtick">
     <g id="line2d_10">
      <path d="M 208.526833 277.111219 
L 208.526833 10.999219 
" clip-path="url(#p710623140c)" style="fill: none; stroke: #b0b0b0; stroke-opacity: 0.15; stroke-width: 0.8; stroke-linecap: square"/>
     </g>
     <g id="line2d_11">
      <g>
       <use xlink:href="#md0127d144e" x="208.526833" y="277.111219" style="stroke: var(--black); stroke-width: 0.8"/>
      </g>
     </g>
     <g id="text_4" class="text">
      <!-- 2 -->
      <g transform="translate(205.345583 291.709656) scale(0.1 -0.1)">
       <defs>
        <path id="DejaVuSans-32" d="M 1228 531 
L 3431 531 
L 3431 0 
L 469 0 
L 469 531 
Q 828 903 1448 1529 
Q 2069 2156 2228 2338 
Q 2531 2678 2651 2914 
Q 2772 3150 2772 3378 
Q 2772 3750 2511 3984 
Q 2250 4219 1831 4219 
Q 1534 4219 1204 4116 
Q 875 4013 500 3803 
L 500 4441 
Q 881 4594 1212 4672 
Q 1544 4750 1819 4750 
Q 2544 4750 2975 4387 
Q 3406 4025 3406 3419 
Q 3406 3131 3298 2873 
Q 3191 2616 2906 2266 
Q 2828 2175 2409 1742 
Q 1991 1309 1228 531 
z
" transform="scale(0.015625)"/>
       </defs>
       <use xlink:href="#DejaVuSans-32"/>
      </g>
     </g>
    </g>
    <g class="tick xtick">
     <g id="line2d_12">
      <path d="M 256.786292 277.111219 
L 256.786292 10.999219 
" clip-path="url(#p710623140c)" style="fill: none; stroke: #b0b0b0; stroke-opacity: 0.15; stroke-width: 0.8; stroke-linecap: square"/>
     </g>
     <g id="line2d_13">
      <g>
       <use xlink:href="#md0127d144e" x="256.786292" y="277.111219" style="stroke: var(--black); stroke-width: 0.8"/>
      </g>
     </g>
     <g id="text_5" class="text">
      <!-- 3 -->
      <g transform="translate(253.605042 291.709656) scale(0.1 -0.1)">
       <defs>
        <path id="DejaVuSans-33" d="M 2597 2516 
Q 3050 2419 3304 2112 
Q 3559 1806 3559 1356 
Q 3559 666 3084 287 
Q 2609 -91 1734 -91 
Q 1441 -91 1130 -33 
Q 819 25 488 141 
L 488 750 
Q 750 597 1062 519 
Q 1375 441 1716 441 
Q 2309 441 2620 675 
Q 2931 909 2931 1356 
Q 2931 1769 2642 2001 
Q 2353 2234 1838 2234 
L 1294 2234 
L 1294 2753 
L 1863 2753 
Q 2328 2753 2575 2939 
Q 2822 3125 2822 3475 
Q 2822 3834 2567 4026 
Q 2313 4219 1838 4219 
Q 1578 4219 1281 4162 
Q 984 4106 628 3988 
L 628 4550 
Q 988 4650 1302 4700 
Q 1616 4750 1894 4750 
Q 2613 4750 3031 4423 
Q 3450 4097 3450 3541 
Q 3450 3153 3228 2886 
Q 3006 2619 2597 2516 
z
" transform="scale(0.015625)"/>
       </defs>
       <use xlink:href="#DejaVuSans-33"/>
      </g>
     </g>
    </g>
    <g class="tick xtick">
     <g id="line2d_14">
      <path d="M 305.045752 277.111219 
L 305.045752 10.999219 
" clip-path="url(#p710623140c)" style="fill: none; stroke: #b0b0b0; stroke-opacity: 0.15; stroke-width: 0.8; stroke-linecap: square"/>
     </g>
     <g id="line2d_15">
      <g>
       <use xlink:href="#md0127d144e" x="305.045752" y="277.111219" style="stroke: var(--black); stroke-width: 0.8"/>
      </g>
     </g>
     <g id="text_6" class="text">
      <!-- 4 -->
      <g transform="translate(301.864502 291.709656) scale(0.1 -0.1)">
       <defs>
        <path id="DejaVuSans-34" d="M 2419 4116 
L 825 1625 
L 2419 1625 
L 2419 4116 
z
M 2253 4666 
L 3047 4666 
L 3047 1625 
L 3713 1625 
L 3713 1100 
L 3047 1100 
L 3047 0 
L 2419 0 
L 2419 1100 
L 313 1100 
L 313 1709 
L 2253 4666 
z
" transform="scale(0.015625)"/>
       </defs>
       <use xlink:href="#DejaVuSans-34"/>
      </g>
     </g>
    </g>
    <g class="tick xtick">
     <g id="line2d_16">
      <path d="M 353.305211 277.111219 
L 353.305211 10.999219 
" clip-path="url(#p710623140c)" style="fill: none; stroke: #b0b0b0; stroke-opacity: 0.15; stroke-width: 0.8; stroke-linecap: square"/>
     </g>
     <g id="line2d_17">
      <g>
       <use xlink:href="#md0127d144e" x="353.305211" y="277.111219" style="stroke: var(--black); stroke-width: 0.8"/>
      </g>
     </g>
     <g id="text_7" class="text">
      <!-- 5 -->
      <g transform="translate(350.123961 291.709656) scale(0.1 -0.1)">
       <defs>
        <path id="DejaVuSans-35" d="M 691 4666 
L 3169 4666 
L 3169 4134 
L 1269 4134 
L 1269 2991 
Q 1406 3038 1543 3061 
Q 1681 3084 1819 3084 
Q 2600 3084 3056 2656 
Q 3513 2228 3513 1497 
Q 3513 744 3044 326 
Q 2575 -91 1722 -91 
Q 1428 -91 1123 -41 
Q 819 9 494 109 
L 494 744 
Q 775 591 1075 516 
Q 1375 441 1709 441 
Q 2250 441 2565 725 
Q 2881 1009 2881 1497 
Q 2881 1984 2565 2268 
Q 2250 2553 1709 2553 
Q 1456 2553 1204 2497 
Q 953 2441 691 2322 
L 691 4666 
z
" transform="scale(0.015625)"/>
       </defs>
       <use xlink:href="#DejaVuSans-35"/>
      </g>
     </g>
    </g>
    <g class="tick xtick">
     <g id="line2d_18">
      <path d="M 401.564671 277.111219 
L 401.564671 10.999219 
" clip-path="url(#p710623140c)" style="fill: none; stroke: #b0b0b0; stroke-opacity: 0.15; stroke-width: 0.8; stroke-linecap: square"/>
     </g>
     <g id="line2d_19">
      <g>
       <use xlink:href="#md0127d144e" x="401.564671" y="277.111219" style="stroke: var(--black); stroke-width: 0.8"/>
      </g>
     </g>
     <g id="text_8" class="text">
      <!-- 6 -->
      <g transform="translate(398.383421 291.709656) scale(0.1 -0.1)">
       <defs>
        <path id="DejaVuSans-36" d="M 2113 2584 
Q 1688 2584 1439 2293 
Q 1191 2003 1191 1497 
Q 1191 994 1439 701 
Q 1688 409 2113 409 
Q 2538 409 2786 701 
Q 3034 994 3034 1497 
Q 3034 2003 2786 2293 
Q 2538 2584 2113 2584 
z
M 3366 4563 
L 3366 3988 
Q 3128 4100 2886 4159 
Q 2644 4219 2406 4219 
Q 1781 4219 1451 3797 
Q 1122 3375 1075 2522 
Q 1259 2794 1537 2939 
Q 1816 3084 2150 3084 
Q 2853 3084 3261 2657 
Q 3669 2231 3669 1497 
Q 3669 778 3244 343 
Q 2819 -91 2113 -91 
Q 1303 -91 875 529 
Q 447 1150 447 2328 
Q 447 3434 972 4092 
Q 1497 4750 2381 4750 
Q 2619 4750 2861 4703 
Q 3103 4656 3366 4563 
z
" transform="scale(0.015625)"/>
       </defs>
       <use xlink:href="#DejaVuSans-36"/>
      </g>
     </g>
    </g>
    <g id="text_9" class="text">
     <!-- x -->
     <g transform="translate(229.105312 306.907469) scale(0.12 -0.12)">
      <defs>
       <path id="DejaVuSans-78" d="M 3513 3500 
L 2247 1797 
L 3578 0 
L 2900 0 
L 1881 1375 
L 863 0 
L 184 0 
L 1544 1831 
L 300 3500 
L 978 3500 
L 1906 2253 
L 2834 3500 
L 3513 3500 
z
" transform="scale(0.015625)"/>
      </defs>
      <use xlink:href="#DejaVuSans-78"/>
     </g>
    </g>
   </g>
   <g class="axis">
    <g class="tick ytick">
     <g id="line2d_20">
      <path d="M 54.096563 277.111219 
L 411.216563 277.111219 
" clip-path="url(#p710623140c)" style="fill: none; stroke: #b0b0b0; stroke-opacity: 0.15; stroke-width: 0.8; stroke-linecap: square"/>
     </g>
     <g id="line2d_21">
      <defs>
       <path id="ma0ff90b96d" d="M 0 0 
L -3.5 0 
" style="stroke: var(--black); stroke-width: 0.8"/>
      </defs>
      <g>
       <use xlink:href="#ma0ff90b96d" x="54.096563" y="277.111219" style="stroke: var(--black); stroke-width: 0.8"/>
      </g>
     </g>
     <g id="text_10" class="text">
      <!-- −0.5 -->
      <g transform="translate(22.81375 280.910437) scale(0.1 -0.1)">
       <defs>
        <path id="DejaVuSans-2e" d="M 684 794 
L 1344 794 
L 1344 0 
L 684 0 
L 684 794 
z
" transform="scale(0.015625)"/>
       </defs>
       <use xlink:href="#DejaVuSans-2212"/>
       <use xlink:href="#DejaVuSans-30" transform="translate(83.789062 0)"/>
       <use xlink:href="#DejaVuSans-2e" transform="translate(147.412109 0)"/>
       <use xlink:href="#DejaVuSans-35" transform="translate(179.199219 0)"/>
      </g>
     </g>
    </g>
    <g class="tick ytick">
     <g id="line2d_22">
      <path d="M 54.096563 247.543219 
L 411.216563 247.543219 
" clip-path="url(#p710623140c)" style="fill: none; stroke: #b0b0b0; stroke-opacity: 0.15; stroke-width: 0.8; stroke-linecap: square"/>
     </g>
     <g id="line2d_23">
      <g>
       <use xlink:href="#ma0ff90b96d" x="54.096563" y="247.543219" style="stroke: var(--black); stroke-width: 0.8"/>
      </g>
     </g>
     <g id="text_11" class="text">
      <!-- 0.0 -->
      <g transform="translate(31.193438 251.342437) scale(0.1 -0.1)">
       <use xlink:href="#DejaVuSans-30"/>
       <use xlink:href="#DejaVuSans-2e" transform="translate(63.623047 0)"/>
       <use xlink:href="#DejaVuSans-30" transform="translate(95.410156 0)"/>
      </g>
     </g>
    </g>
    <g class="tick ytick">
     <g id="line2d_24">
      <path d="M 54.096563 217.975219 
L 411.216563 217.975219 
" clip-path="url(#p710623140c)" style="fill: none; stroke: #b0b0b0; stroke-opacity: 0.15; stroke-width: 0.8; stroke-linecap: square"/>
     </g>
     <g id="line2d_25">
      <g>
       <use xlink:href="#ma0ff90b96d" x="54.096563" y="217.975219" style="stroke: var(--black); stroke-width: 0.8"/>
      </g>
     </g>
     <g id="text_12" class="text">
      <!-- 0.5 -->
      <g transform="translate(31.193438 221.774437) scale(0.1 -0.1)">
       <use xlink:href="#DejaVuSans-30"/>
       <use xlink:href="#DejaVuSans-2e" transform="translate(63.623047 0)"/>
       <use xlink:href="#DejaVuSans-35" transform="translate(95.410156 0)"/>
      </g>
     </g>
    </g>
    <g class="tick ytick">
     <g id="line2d_26">
      <path d="M 54.096563 188.407219 
L 411.216563 188.407219 
" clip-path="url(#p710623140c)" style="fill: none; stroke: #b0b0b0; stroke-opacity: 0.15; stroke-width: 0.8; stroke-linecap: square"/>
     </g>
     <g id="line2d_27">
      <g>
       <use xlink:href="#ma0ff90b96d" x="54.096563" y="188.407219" style="stroke: var(--black); stroke-width: 0.8"/>
      </g>
     </g>
     <g id="text_13" class="text">
      <!-- 1.0 -->
      <g transform="translate(31.193438 192.206437) scale(0.1 -0.1)">
       <use xlink:href="#DejaVuSans-31"/>
       <use xlink:href="#DejaVuSans-2e" transform="translate(63.623047 0)"/>
       <use xlink:href="#DejaVuSans-30" transform="translate(95.410156 0)"/>
      </g>
     </g>
    </g>
    <g class="tick ytick">
     <g id="line2d_28">
      <path d="M 54.096563 158.839219 
L 411.216563 158.839219 
" clip-path="url(#p710623140c)" style="fill: none; stroke: #b0b0b0; stroke-opacity: 0.15; stroke-width: 0.8; stroke-linecap: square"/>
     </g>
     <g id="line2d_29">
      <g>
       <use xlink:href="#ma0ff90b96d" x="54.096563" y="158.839219" style="stroke: var(--black); stroke-width: 0.8"/>
      </g>
     </g>
     <g id="text_14" class="text">
      <!-- 1.5 -->
      <g transform="translate(31.193438 162.638437) scale(0.1 -0.1)">
       <use xlink:href="#DejaVuSans-31"/>
       <use xlink:href="#DejaVuSans-2e" transform="translate(63.623047 0)"/>
       <use xlink:href="#DejaVuSans-35" transform="translate(95.410156 0)"/>
      </g>
     </g>
    </g>
    <g class="tick ytick">
     <g id="line2d_30">
      <path d="M 54.096563 129.271219 
L 411.216563 129.271219 
" clip-path="url(#p710623140c)" style="fill: none; stroke: #b0b0b0; stroke-opacity: 0.15; stroke-width: 0.8; stroke-linecap: square"/>
     </g>
     <g id="line2d_31">
      <g>
       <use xlink:href="#ma0ff90b96d" x="54.096563" y="129.271219" style="stroke: var(--black); stroke-width: 0.8"/>
      </g>
     </g>
     <g id="text_15" class="text">
      <!-- 2.0 -->
      <g transform="translate(31.193438 133.070437) scale(0.1 -0.1)">
       <use xlink:href="#DejaVuSans-32"/>
       <use xlink:href="#DejaVuSans-2e" transform="translate(63.623047 0)"/>
       <use xlink:href="#DejaVuSans-30" transform="translate(95.410156 0)"/>
      </g>
     </g>
    </g>
    <g class="tick ytick">
     <g id="line2d_32">
      <path d="M 54.096563 99.703219 
L 411.216563 99.703219 
" clip-path="url(#p710623140c)" style="fill: none; stroke: #b0b0b0; stroke-opacity: 0.15; stroke-width: 0.8; stroke-linecap: square"/>
     </g>
     <g id="line2d_33">
      <g>
       <use xlink:href="#ma0ff90b96d" x="54.096563" y="99.703219" style="stroke: var(--black); stroke-width: 0.8"/>
      </g>
     </g>
     <g id="text_16" class="text">
      <!-- 2.5 -->
      <g transform="translate(31.193438 103.502437) scale(0.1 -0.1)">
       <use xlink:href="#DejaVuSans-32"/>
       <use xlink:href="#DejaVuSans-2e" transform="translate(63.623047 0)"/>
       <use xlink:href="#DejaVuSans-35" transform="translate(95.410156 0)"/>
      </g>
     </g>
    </g>
    <g class="tick ytick">
     <g id="line2d_34">
      <path d="M 54.096563 70.135219 
L 411.216563 70.135219 
" clip-path="url(#p710623140c)" style="fill: none; stroke: #b0b0b0; stroke-opacity: 0.15; stroke-width: 0.8; stroke-linecap: square"/>
     </g>
     <g id="line2d_35">
      <g>
       <use xlink:href="#ma0ff90b96d" x="54.096563" y="70.135219" style="stroke: var(--black); stroke-width: 0.8"/>
      </g>
     </g>
     <g id="text_17" class="text">
      <!-- 3.0 -->
      <g transform="translate(31.193438 73.934437) scale(0.1 -0.1)">
       <use xlink:href="#DejaVuSans-33"/>
       <use xlink:href="#DejaVuSans-2e" transform="translate(63.623047 0)"/>
       <use xlink:href="#DejaVuSans-30" transform="translate(95.410156 0)"/>
      </g>
     </g>
    </g>
    <g class="tick ytick">
     <g id="line2d_36">
      <path d="M 54.096563 40.567219 
L 411.216563 40.567219 
" clip-path="url(#p710623140c)" style="fill: none; stroke: #b0b0b0; stroke-opacity: 0.15; stroke-width: 0.8; stroke-linecap: square"/>
     </g>
     <g id="line2d_37">
      <g>
       <use xlink:href="#ma0ff90b96d" x="54.096563" y="40.567219" style="stroke: var(--black); stroke-width: 0.8"/>
      </g>
     </g>
     <g id="text_18" class="text">
      <!-- 3.5 -->
      <g transform="translate(31.193438 44.366437) scale(0.1 -0.1)">
       <use xlink:href="#DejaVuSans-33"/>
       <use xlink:href="#DejaVuSans-2e" transform="translate(63.623047 0)"/>
       <use xlink:href="#DejaVuSans-35" transform="translate(95.410156 0)"/>
      </g>
     </g>
    </g>
    <g class="tick ytick">
     <g id="line2d_38">
      <path d="M 54.096563 10.999219 
L 411.216563 10.999219 
" clip-path="url(#p710623140c)" style="fill: none; stroke: #b0b0b0; stroke-opacity: 0.15; stroke-width: 0.8; stroke-linecap: square"/>
     </g>
     <g id="line2d_39">
      <g>
       <use xlink:href="#ma0ff90b96d" x="54.096563" y="10.999219" style="stroke: var(--black); stroke-width: 0.8"/>
      </g>
     </g>
     <g id="text_19" class="text">
      <!-- 4.0 -->
      <g transform="translate(31.193438 14.798437) scale(0.1 -0.1)">
       <use xlink:href="#DejaVuSans-34"/>
       <use xlink:href="#DejaVuSans-2e" transform="translate(63.623047 0)"/>
       <use xlink:href="#DejaVuSans-30" transform="translate(95.410156 0)"/>
      </g>
     </g>
    </g>
    <g id="text_20" class="text">
     <!-- f(x) -->
     <g transform="translate(16.318125 154.400531) rotate(-90) scale(0.12 -0.12)">
      <defs>
       <path id="DejaVuSans-66" d="M 2375 4863 
L 2375 4384 
L 1825 4384 
Q 1516 4384 1395 4259 
Q 1275 4134 1275 3809 
L 1275 3500 
L 2222 3500 
L 2222 3053 
L 1275 3053 
L 1275 0 
L 697 0 
L 697 3053 
L 147 3053 
L 147 3500 
L 697 3500 
L 697 3744 
Q 697 4328 969 4595 
Q 1241 4863 1831 4863 
L 2375 4863 
z
" transform="scale(0.015625)"/>
       <path id="DejaVuSans-28" d="M 1984 4856 
Q 1566 4138 1362 3434 
Q 1159 2731 1159 2009 
Q 1159 1288 1364 580 
Q 1569 -128 1984 -844 
L 1484 -844 
Q 1016 -109 783 600 
Q 550 1309 550 2009 
Q 550 2706 781 3412 
Q 1013 4119 1484 4856 
L 1984 4856 
z
" transform="scale(0.015625)"/>
       <path id="DejaVuSans-29" d="M 513 4856 
L 1013 4856 
Q 1481 4119 1714 3412 
Q 1947 2706 1947 2009 
Q 1947 1309 1714 600 
Q 1481 -109 1013 -844 
L 513 -844 
Q 928 -128 1133 580 
Q 1338 1288 1338 2009 
Q 1338 2731 1133 3434 
Q 928 4138 513 4856 
z
" transform="scale(0.015625)"/>
      </defs>
      <use xlink:href="#DejaVuSans-66"/>
      <use xlink:href="#DejaVuSans-28" transform="translate(35.205078 0)"/>
      <use xlink:href="#DejaVuSans-78" transform="translate(74.21875 0)"/>
      <use xlink:href="#DejaVuSans-29" transform="translate(133.398438 0)"/>
     </g>
    </g>
   </g>
   <g id="line2d_40">
    <path d="M 63.748454 277.111219 
L 63.748454 10.999219 
" clip-path="url(#p710623140c)" style="fill: none; stroke: var(--black); stroke-opacity: 0.8; stroke-width: 2; stroke-linecap: square"/>
   </g>
   <g id="line2d_41">
    <path d="M 401.564671 277.111219 
L 401.564671 10.999219 
" clip-path="url(#p710623140c)" style="fill: none; stroke: var(--black); stroke-opacity: 0.8; stroke-width: 2; stroke-linecap: square"/>
   </g>
   <g class="patch">
    <path d="M 54.096563 277.111219 
L 54.096563 10.999219 
" style="fill: none; stroke: var(--black); stroke-width: 0.8; stroke-linejoin: miter; stroke-linecap: square"/>
   </g>
   <g class="patch">
    <path d="M 54.096563 277.111219 
L 411.216562 277.111219 
" style="fill: none; stroke: var(--black); stroke-width: 0.8; stroke-linejoin: miter; stroke-linecap: square"/>
   </g>
   <g id="line2d_42">
    <path d="M 68.912407 317.603094 
L 74.418888 298.466839 
L 79.754104 280.660782 
L 85.089321 263.577481 
L 90.424538 247.216934 
L 95.759754 231.579142 
L 101.094971 216.664105 
L 105.945168 203.732165 
L 110.795365 191.397543 
L 115.645562 179.66024 
L 120.495758 168.520254 
L 125.345955 157.977587 
L 129.711133 148.999894 
L 134.07631 140.506028 
L 138.441487 132.495991 
L 142.806664 124.969781 
L 147.171842 117.927399 
L 151.051999 112.07368 
L 154.932157 106.602245 
L 158.812314 101.513093 
L 160.267373 99.703219 
L 160.267373 99.703219 
" clip-path="url(#p710623140c)" style="fill: none; stroke: #8000ff; stroke-width: 2.5; stroke-linecap: square"/>
   </g>
   <g id="line2d_43">
    <path d="M 160.749968 130.448025 
L 164.12813 138.354508 
L 167.506292 145.681459 
L 170.884454 152.428876 
L 173.780022 157.751116 
L 176.67559 162.647577 
L 179.571157 167.118259 
L 182.466725 171.163161 
L 185.362292 174.782284 
L 187.775265 177.472972 
L 190.188238 179.86798 
L 192.601211 181.967308 
L 195.014184 183.770956 
L 197.427157 185.278924 
L 199.84013 186.491212 
L 202.253103 187.40782 
L 204.183481 187.928217 
L 206.11386 188.259379 
L 208.044238 188.401305 
L 209.974617 188.353996 
L 211.904995 188.117452 
L 213.835373 187.691673 
L 215.765752 187.076659 
L 218.178725 186.041779 
L 220.591698 184.711219 
L 223.004671 183.084979 
L 225.417644 181.163059 
L 227.830617 178.945459 
L 230.24359 176.432179 
L 232.656562 173.623219 
L 235.069535 170.518579 
L 237.965103 166.402713 
L 240.860671 161.861068 
L 243.756238 156.893644 
L 246.651806 151.500441 
L 249.547373 145.681459 
L 252.925535 138.354508 
L 256.303698 130.448025 
L 256.786292 129.271219 
L 256.786292 129.271219 
" clip-path="url(#p710623140c)" style="fill: none; stroke: #8000ff; stroke-width: 2.5; stroke-linecap: square"/>
   </g>
   <g id="LineCollection_1">
    <path d="M 256.786292 188.407219 
L 256.786292 129.271219 
" clip-path="url(#p710623140c)" style="fill: none; stroke: #8000ff; stroke-width: 2.5"/>
   </g>
   <g id="line2d_44">
    <path d="M 256.786292 188.407219 
L 329.175481 99.703219 
L 329.175481 99.703219 
" clip-path="url(#p710623140c)" style="fill: none; stroke: #8000ff; stroke-width: 2.5; stroke-linecap: square"/>
   </g>
   <g id="line2d_45">
    <path d="M 329.175481 104.138419 
L 333.176894 102.789413 
L 337.178306 101.684337 
L 341.179719 100.82319 
L 345.181131 100.205974 
L 349.182544 99.832687 
L 353.183956 99.703331 
L 357.185369 99.817904 
L 361.186781 100.176407 
L 365.188194 100.77884 
L 369.189606 101.625202 
L 373.191019 102.715495 
L 377.192431 104.049717 
L 381.193843 105.627869 
L 385.195256 107.449951 
L 389.196668 109.515963 
L 393.198081 111.825905 
L 397.199493 114.379776 
L 401.564671 117.444019 
L 401.564671 117.444019 
" clip-path="url(#p710623140c)" style="fill: none; stroke: #8000ff; stroke-width: 2.5; stroke-linecap: square"/>
   </g>
   <g class="patch">
    <path d="M 131.159414 54.826948 
Q 145.158203 75.840335 158.53713 95.923254 
" style="fill: none; opacity: 0.7; stroke: #808080; stroke-linecap: round"/>
    <path d="M 158.039234 91.929247 
L 158.53713 95.923254 
L 155.043186 93.925167 
" style="fill: none; opacity: 0.7; stroke: #808080; stroke-linecap: round"/>
   </g>
   <g id="text_21" class="text">
    <g class="patch">
     <path d="M 92.12504 52.661391 
L 151.194571 52.661391 
Q 153.894571 52.661391 153.894571 49.961391 
L 153.894571 31.173047 
Q 153.894571 28.473047 151.194571 28.473047 
L 92.12504 28.473047 
Q 89.42504 28.473047 89.42504 31.173047 
L 89.42504 49.961391 
Q 89.42504 52.661391 92.12504 52.661391 
z
" style="fill: var(--white); opacity: 0.8; stroke: var(--black); stroke-linejoin: miter"/>
    </g>
    <!-- Jump -->
    <g transform="translate(110.240353 38.011641) scale(0.09 -0.09)">
     <defs>
      <path id="DejaVuSans-4a" d="M 628 4666 
L 1259 4666 
L 1259 325 
Q 1259 -519 939 -900 
Q 619 -1281 -91 -1281 
L -331 -1281 
L -331 -750 
L -134 -750 
Q 284 -750 456 -515 
Q 628 -281 628 325 
L 628 4666 
z
" transform="scale(0.015625)"/>
      <path id="DejaVuSans-75" d="M 544 1381 
L 544 3500 
L 1119 3500 
L 1119 1403 
Q 1119 906 1312 657 
Q 1506 409 1894 409 
Q 2359 409 2629 706 
Q 2900 1003 2900 1516 
L 2900 3500 
L 3475 3500 
L 3475 0 
L 2900 0 
L 2900 538 
Q 2691 219 2414 64 
Q 2138 -91 1772 -91 
Q 1169 -91 856 284 
Q 544 659 544 1381 
z
M 1991 3584 
L 1991 3584 
z
" transform="scale(0.015625)"/>
      <path id="DejaVuSans-6d" d="M 3328 2828 
Q 3544 3216 3844 3400 
Q 4144 3584 4550 3584 
Q 5097 3584 5394 3201 
Q 5691 2819 5691 2113 
L 5691 0 
L 5113 0 
L 5113 2094 
Q 5113 2597 4934 2840 
Q 4756 3084 4391 3084 
Q 3944 3084 3684 2787 
Q 3425 2491 3425 1978 
L 3425 0 
L 2847 0 
L 2847 2094 
Q 2847 2600 2669 2842 
Q 2491 3084 2119 3084 
Q 1678 3084 1418 2786 
Q 1159 2488 1159 1978 
L 1159 0 
L 581 0 
L 581 3500 
L 1159 3500 
L 1159 2956 
Q 1356 3278 1631 3431 
Q 1906 3584 2284 3584 
Q 2666 3584 2933 3390 
Q 3200 3197 3328 2828 
z
" transform="scale(0.015625)"/>
      <path id="DejaVuSans-70" d="M 1159 525 
L 1159 -1331 
L 581 -1331 
L 581 3500 
L 1159 3500 
L 1159 2969 
Q 1341 3281 1617 3432 
Q 1894 3584 2278 3584 
Q 2916 3584 3314 3078 
Q 3713 2572 3713 1747 
Q 3713 922 3314 415 
Q 2916 -91 2278 -91 
Q 1894 -91 1617 61 
Q 1341 213 1159 525 
z
M 3116 1747 
Q 3116 2381 2855 2742 
Q 2594 3103 2138 3103 
Q 1681 3103 1420 2742 
Q 1159 2381 1159 1747 
Q 1159 1113 1420 752 
Q 1681 391 2138 391 
Q 2594 391 2855 752 
Q 3116 1113 3116 1747 
z
" transform="scale(0.015625)"/>
     </defs>
     <use xlink:href="#DejaVuSans-4a"/>
     <use xlink:href="#DejaVuSans-75" transform="translate(29.492188 0)"/>
     <use xlink:href="#DejaVuSans-6d" transform="translate(92.871094 0)"/>
     <use xlink:href="#DejaVuSans-70" transform="translate(190.283203 0)"/>
    </g>
    <!-- Discontinuity -->
    <g transform="translate(92.12504 48.089672) scale(0.09 -0.09)">
     <defs>
      <path id="DejaVuSans-44" d="M 1259 4147 
L 1259 519 
L 2022 519 
Q 2988 519 3436 956 
Q 3884 1394 3884 2338 
Q 3884 3275 3436 3711 
Q 2988 4147 2022 4147 
L 1259 4147 
z
M 628 4666 
L 1925 4666 
Q 3281 4666 3915 4102 
Q 4550 3538 4550 2338 
Q 4550 1131 3912 565 
Q 3275 0 1925 0 
L 628 0 
L 628 4666 
z
" transform="scale(0.015625)"/>
      <path id="DejaVuSans-69" d="M 603 3500 
L 1178 3500 
L 1178 0 
L 603 0 
L 603 3500 
z
M 603 4863 
L 1178 4863 
L 1178 4134 
L 603 4134 
L 603 4863 
z
" transform="scale(0.015625)"/>
      <path id="DejaVuSans-73" d="M 2834 3397 
L 2834 2853 
Q 2591 2978 2328 3040 
Q 2066 3103 1784 3103 
Q 1356 3103 1142 2972 
Q 928 2841 928 2578 
Q 928 2378 1081 2264 
Q 1234 2150 1697 2047 
L 1894 2003 
Q 2506 1872 2764 1633 
Q 3022 1394 3022 966 
Q 3022 478 2636 193 
Q 2250 -91 1575 -91 
Q 1294 -91 989 -36 
Q 684 19 347 128 
L 347 722 
Q 666 556 975 473 
Q 1284 391 1588 391 
Q 1994 391 2212 530 
Q 2431 669 2431 922 
Q 2431 1156 2273 1281 
Q 2116 1406 1581 1522 
L 1381 1569 
Q 847 1681 609 1914 
Q 372 2147 372 2553 
Q 372 3047 722 3315 
Q 1072 3584 1716 3584 
Q 2034 3584 2315 3537 
Q 2597 3491 2834 3397 
z
" transform="scale(0.015625)"/>
      <path id="DejaVuSans-63" d="M 3122 3366 
L 3122 2828 
Q 2878 2963 2633 3030 
Q 2388 3097 2138 3097 
Q 1578 3097 1268 2742 
Q 959 2388 959 1747 
Q 959 1106 1268 751 
Q 1578 397 2138 397 
Q 2388 397 2633 464 
Q 2878 531 3122 666 
L 3122 134 
Q 2881 22 2623 -34 
Q 2366 -91 2075 -91 
Q 1284 -91 818 406 
Q 353 903 353 1747 
Q 353 2603 823 3093 
Q 1294 3584 2113 3584 
Q 2378 3584 2631 3529 
Q 2884 3475 3122 3366 
z
" transform="scale(0.015625)"/>
      <path id="DejaVuSans-6f" d="M 1959 3097 
Q 1497 3097 1228 2736 
Q 959 2375 959 1747 
Q 959 1119 1226 758 
Q 1494 397 1959 397 
Q 2419 397 2687 759 
Q 2956 1122 2956 1747 
Q 2956 2369 2687 2733 
Q 2419 3097 1959 3097 
z
M 1959 3584 
Q 2709 3584 3137 3096 
Q 3566 2609 3566 1747 
Q 3566 888 3137 398 
Q 2709 -91 1959 -91 
Q 1206 -91 779 398 
Q 353 888 353 1747 
Q 353 2609 779 3096 
Q 1206 3584 1959 3584 
z
" transform="scale(0.015625)"/>
      <path id="DejaVuSans-6e" d="M 3513 2113 
L 3513 0 
L 2938 0 
L 2938 2094 
Q 2938 2591 2744 2837 
Q 2550 3084 2163 3084 
Q 1697 3084 1428 2787 
Q 1159 2491 1159 1978 
L 1159 0 
L 581 0 
L 581 3500 
L 1159 3500 
L 1159 2956 
Q 1366 3272 1645 3428 
Q 1925 3584 2291 3584 
Q 2894 3584 3203 3211 
Q 3513 2838 3513 2113 
z
" transform="scale(0.015625)"/>
      <path id="DejaVuSans-74" d="M 1172 4494 
L 1172 3500 
L 2356 3500 
L 2356 3053 
L 1172 3053 
L 1172 1153 
Q 1172 725 1289 603 
Q 1406 481 1766 481 
L 2356 481 
L 2356 0 
L 1766 0 
Q 1100 0 847 248 
Q 594 497 594 1153 
L 594 3053 
L 172 3053 
L 172 3500 
L 594 3500 
L 594 4494 
L 1172 4494 
z
" transform="scale(0.015625)"/>
      <path id="DejaVuSans-79" d="M 2059 -325 
Q 1816 -950 1584 -1140 
Q 1353 -1331 966 -1331 
L 506 -1331 
L 506 -850 
L 844 -850 
Q 1081 -850 1212 -737 
Q 1344 -625 1503 -206 
L 1606 56 
L 191 3500 
L 800 3500 
L 1894 763 
L 2988 3500 
L 3597 3500 
L 2059 -325 
z
" transform="scale(0.015625)"/>
     </defs>
     <use xlink:href="#DejaVuSans-44"/>
     <use xlink:href="#DejaVuSans-69" transform="translate(77.001953 0)"/>
     <use xlink:href="#DejaVuSans-73" transform="translate(104.785156 0)"/>
     <use xlink:href="#DejaVuSans-63" transform="translate(156.884766 0)"/>
     <use xlink:href="#DejaVuSans-6f" transform="translate(211.865234 0)"/>
     <use xlink:href="#DejaVuSans-6e" transform="translate(273.046875 0)"/>
     <use xlink:href="#DejaVuSans-74" transform="translate(336.425781 0)"/>
     <use xlink:href="#DejaVuSans-69" transform="translate(375.634766 0)"/>
     <use xlink:href="#DejaVuSans-6e" transform="translate(403.417969 0)"/>
     <use xlink:href="#DejaVuSans-75" transform="translate(466.796875 0)"/>
     <use xlink:href="#DejaVuSans-69" transform="translate(530.175781 0)"/>
     <use xlink:href="#DejaVuSans-74" transform="translate(557.958984 0)"/>
     <use xlink:href="#DejaVuSans-79" transform="translate(597.167969 0)"/>
    </g>
   </g>
   <g class="patch">
    <path d="M 181.459654 221.5747 
Q 194.361334 205.765285 206.556127 190.822075 
" style="fill: none; opacity: 0.7; stroke: #808080; stroke-linecap: round"/>
    <path d="M 202.88543 192.47313 
L 206.556127 190.822075 
L 205.674553 194.749266 
" style="fill: none; opacity: 0.7; stroke: #808080; stroke-linecap: round"/>
   </g>
   <g id="text_22" class="text">
    <g class="patch">
     <path d="M 146.650046 247.810191 
L 193.188484 247.810191 
Q 195.888484 247.810191 195.888484 245.110191 
L 195.888484 226.321847 
Q 195.888484 223.621847 193.188484 223.621847 
L 146.650046 223.621847 
Q 143.950046 223.621847 143.950046 226.321847 
L 143.950046 245.110191 
Q 143.950046 247.810191 146.650046 247.810191 
z
" style="fill: var(--white); opacity: 0.8; stroke: var(--black); stroke-linejoin: miter"/>
    </g>
    <!-- Stationary -->
    <g transform="translate(146.650046 233.160441) scale(0.09 -0.09)">
     <defs>
      <path id="DejaVuSans-53" d="M 3425 4513 
L 3425 3897 
Q 3066 4069 2747 4153 
Q 2428 4238 2131 4238 
Q 1616 4238 1336 4038 
Q 1056 3838 1056 3469 
Q 1056 3159 1242 3001 
Q 1428 2844 1947 2747 
L 2328 2669 
Q 3034 2534 3370 2195 
Q 3706 1856 3706 1288 
Q 3706 609 3251 259 
Q 2797 -91 1919 -91 
Q 1588 -91 1214 -16 
Q 841 59 441 206 
L 441 856 
Q 825 641 1194 531 
Q 1563 422 1919 422 
Q 2459 422 2753 634 
Q 3047 847 3047 1241 
Q 3047 1584 2836 1778 
Q 2625 1972 2144 2069 
L 1759 2144 
Q 1053 2284 737 2584 
Q 422 2884 422 3419 
Q 422 4038 858 4394 
Q 1294 4750 2059 4750 
Q 2388 4750 2728 4690 
Q 3069 4631 3425 4513 
z
" transform="scale(0.015625)"/>
      <path id="DejaVuSans-61" d="M 2194 1759 
Q 1497 1759 1228 1600 
Q 959 1441 959 1056 
Q 959 750 1161 570 
Q 1363 391 1709 391 
Q 2188 391 2477 730 
Q 2766 1069 2766 1631 
L 2766 1759 
L 2194 1759 
z
M 3341 1997 
L 3341 0 
L 2766 0 
L 2766 531 
Q 2569 213 2275 61 
Q 1981 -91 1556 -91 
Q 1019 -91 701 211 
Q 384 513 384 1019 
Q 384 1609 779 1909 
Q 1175 2209 1959 2209 
L 2766 2209 
L 2766 2266 
Q 2766 2663 2505 2880 
Q 2244 3097 1772 3097 
Q 1472 3097 1187 3025 
Q 903 2953 641 2809 
L 641 3341 
Q 956 3463 1253 3523 
Q 1550 3584 1831 3584 
Q 2591 3584 2966 3190 
Q 3341 2797 3341 1997 
z
" transform="scale(0.015625)"/>
      <path id="DejaVuSans-72" d="M 2631 2963 
Q 2534 3019 2420 3045 
Q 2306 3072 2169 3072 
Q 1681 3072 1420 2755 
Q 1159 2438 1159 1844 
L 1159 0 
L 581 0 
L 581 3500 
L 1159 3500 
L 1159 2956 
Q 1341 3275 1631 3429 
Q 1922 3584 2338 3584 
Q 2397 3584 2469 3576 
Q 2541 3569 2628 3553 
L 2631 2963 
z
" transform="scale(0.015625)"/>
     </defs>
     <use xlink:href="#DejaVuSans-53"/>
     <use xlink:href="#DejaVuSans-74" transform="translate(63.476562 0)"/>
     <use xlink:href="#DejaVuSans-61" transform="translate(102.685547 0)"/>
     <use xlink:href="#DejaVuSans-74" transform="translate(163.964844 0)"/>
     <use xlink:href="#DejaVuSans-69" transform="translate(203.173828 0)"/>
     <use xlink:href="#DejaVuSans-6f" transform="translate(230.957031 0)"/>
     <use xlink:href="#DejaVuSans-6e" transform="translate(292.138672 0)"/>
     <use xlink:href="#DejaVuSans-61" transform="translate(355.517578 0)"/>
     <use xlink:href="#DejaVuSans-72" transform="translate(416.796875 0)"/>
     <use xlink:href="#DejaVuSans-79" transform="translate(457.910156 0)"/>
    </g>
    <!-- Point -->
    <g transform="translate(158.749421 243.238472) scale(0.09 -0.09)">
     <defs>
      <path id="DejaVuSans-50" d="M 1259 4147 
L 1259 2394 
L 2053 2394 
Q 2494 2394 2734 2622 
Q 2975 2850 2975 3272 
Q 2975 3691 2734 3919 
Q 2494 4147 2053 4147 
L 1259 4147 
z
M 628 4666 
L 2053 4666 
Q 2838 4666 3239 4311 
Q 3641 3956 3641 3272 
Q 3641 2581 3239 2228 
Q 2838 1875 2053 1875 
L 1259 1875 
L 1259 0 
L 628 0 
L 628 4666 
z
" transform="scale(0.015625)"/>
     </defs>
     <use xlink:href="#DejaVuSans-50"/>
     <use xlink:href="#DejaVuSans-6f" transform="translate(56.677734 0)"/>
     <use xlink:href="#DejaVuSans-69" transform="translate(117.859375 0)"/>
     <use xlink:href="#DejaVuSans-6e" transform="translate(145.642578 0)"/>
     <use xlink:href="#DejaVuSans-74" transform="translate(209.021484 0)"/>
    </g>
   </g>
   <g class="patch">
    <path d="M 281.725439 215.775166 
Q 269.954539 203.695248 258.963901 192.416075 
" style="fill: none; opacity: 0.7; stroke: #808080; stroke-linecap: round"/>
    <path d="M 260.187118 196.250621 
L 258.963901 192.416075 
L 262.765467 193.738228 
" style="fill: none; opacity: 0.7; stroke: #808080; stroke-linecap: round"/>
   </g>
   <g id="text_23" class="text">
    <g class="patch">
     <path d="M 251.225657 241.896591 
L 339.562063 241.896591 
Q 342.262063 241.896591 342.262063 239.196591 
L 342.262063 220.408247 
Q 342.262063 217.708247 339.562063 217.708247 
L 251.225657 217.708247 
Q 248.525657 217.708247 248.525657 220.408247 
L 248.525657 239.196591 
Q 248.525657 241.896591 251.225657 241.896591 
z
" style="fill: var(--white); opacity: 0.8; stroke: var(--black); stroke-linejoin: miter"/>
    </g>
    <!-- Sharp Corner -->
    <g transform="translate(265.653079 227.246841) scale(0.09 -0.09)">
     <defs>
      <path id="DejaVuSans-68" d="M 3513 2113 
L 3513 0 
L 2938 0 
L 2938 2094 
Q 2938 2591 2744 2837 
Q 2550 3084 2163 3084 
Q 1697 3084 1428 2787 
Q 1159 2491 1159 1978 
L 1159 0 
L 581 0 
L 581 4863 
L 1159 4863 
L 1159 2956 
Q 1366 3272 1645 3428 
Q 1925 3584 2291 3584 
Q 2894 3584 3203 3211 
Q 3513 2838 3513 2113 
z
" transform="scale(0.015625)"/>
      <path id="DejaVuSans-20" transform="scale(0.015625)"/>
      <path id="DejaVuSans-43" d="M 4122 4306 
L 4122 3641 
Q 3803 3938 3442 4084 
Q 3081 4231 2675 4231 
Q 1875 4231 1450 3742 
Q 1025 3253 1025 2328 
Q 1025 1406 1450 917 
Q 1875 428 2675 428 
Q 3081 428 3442 575 
Q 3803 722 4122 1019 
L 4122 359 
Q 3791 134 3420 21 
Q 3050 -91 2638 -91 
Q 1578 -91 968 557 
Q 359 1206 359 2328 
Q 359 3453 968 4101 
Q 1578 4750 2638 4750 
Q 3056 4750 3426 4639 
Q 3797 4528 4122 4306 
z
" transform="scale(0.015625)"/>
      <path id="DejaVuSans-65" d="M 3597 1894 
L 3597 1613 
L 953 1613 
Q 991 1019 1311 708 
Q 1631 397 2203 397 
Q 2534 397 2845 478 
Q 3156 559 3463 722 
L 3463 178 
Q 3153 47 2828 -22 
Q 2503 -91 2169 -91 
Q 1331 -91 842 396 
Q 353 884 353 1716 
Q 353 2575 817 3079 
Q 1281 3584 2069 3584 
Q 2775 3584 3186 3129 
Q 3597 2675 3597 1894 
z
M 3022 2063 
Q 3016 2534 2758 2815 
Q 2500 3097 2075 3097 
Q 1594 3097 1305 2825 
Q 1016 2553 972 2059 
L 3022 2063 
z
" transform="scale(0.015625)"/>
     </defs>
     <use xlink:href="#DejaVuSans-53"/>
     <use xlink:href="#DejaVuSans-68" transform="translate(63.476562 0)"/>
     <use xlink:href="#DejaVuSans-61" transform="translate(126.855469 0)"/>
     <use xlink:href="#DejaVuSans-72" transform="translate(188.134766 0)"/>
     <use xlink:href="#DejaVuSans-70" transform="translate(229.248047 0)"/>
     <use xlink:href="#DejaVuSans-20" transform="translate(292.724609 0)"/>
     <use xlink:href="#DejaVuSans-43" transform="translate(324.511719 0)"/>
     <use xlink:href="#DejaVuSans-6f" transform="translate(394.335938 0)"/>
     <use xlink:href="#DejaVuSans-72" transform="translate(455.517578 0)"/>
     <use xlink:href="#DejaVuSans-6e" transform="translate(494.880859 0)"/>
     <use xlink:href="#DejaVuSans-65" transform="translate(558.259766 0)"/>
     <use xlink:href="#DejaVuSans-72" transform="translate(619.783203 0)"/>
    </g>
    <!-- (Non-differentiable) -->
    <g transform="translate(251.225657 237.324872) scale(0.09 -0.09)">
     <defs>
      <path id="DejaVuSans-4e" d="M 628 4666 
L 1478 4666 
L 3547 763 
L 3547 4666 
L 4159 4666 
L 4159 0 
L 3309 0 
L 1241 3903 
L 1241 0 
L 628 0 
L 628 4666 
z
" transform="scale(0.015625)"/>
      <path id="DejaVuSans-2d" d="M 313 2009 
L 1997 2009 
L 1997 1497 
L 313 1497 
L 313 2009 
z
" transform="scale(0.015625)"/>
      <path id="DejaVuSans-64" d="M 2906 2969 
L 2906 4863 
L 3481 4863 
L 3481 0 
L 2906 0 
L 2906 525 
Q 2725 213 2448 61 
Q 2172 -91 1784 -91 
Q 1150 -91 751 415 
Q 353 922 353 1747 
Q 353 2572 751 3078 
Q 1150 3584 1784 3584 
Q 2172 3584 2448 3432 
Q 2725 3281 2906 2969 
z
M 947 1747 
Q 947 1113 1208 752 
Q 1469 391 1925 391 
Q 2381 391 2643 752 
Q 2906 1113 2906 1747 
Q 2906 2381 2643 2742 
Q 2381 3103 1925 3103 
Q 1469 3103 1208 2742 
Q 947 2381 947 1747 
z
" transform="scale(0.015625)"/>
      <path id="DejaVuSans-62" d="M 3116 1747 
Q 3116 2381 2855 2742 
Q 2594 3103 2138 3103 
Q 1681 3103 1420 2742 
Q 1159 2381 1159 1747 
Q 1159 1113 1420 752 
Q 1681 391 2138 391 
Q 2594 391 2855 752 
Q 3116 1113 3116 1747 
z
M 1159 2969 
Q 1341 3281 1617 3432 
Q 1894 3584 2278 3584 
Q 2916 3584 3314 3078 
Q 3713 2572 3713 1747 
Q 3713 922 3314 415 
Q 2916 -91 2278 -91 
Q 1894 -91 1617 61 
Q 1341 213 1159 525 
L 1159 0 
L 581 0 
L 581 4863 
L 1159 4863 
L 1159 2969 
z
" transform="scale(0.015625)"/>
      <path id="DejaVuSans-6c" d="M 603 4863 
L 1178 4863 
L 1178 0 
L 603 0 
L 603 4863 
z
" transform="scale(0.015625)"/>
     </defs>
     <use xlink:href="#DejaVuSans-28"/>
     <use xlink:href="#DejaVuSans-4e" transform="translate(39.013672 0)"/>
     <use xlink:href="#DejaVuSans-6f" transform="translate(113.818359 0)"/>
     <use xlink:href="#DejaVuSans-6e" transform="translate(175 0)"/>
     <use xlink:href="#DejaVuSans-2d" transform="translate(238.378906 0)"/>
     <use xlink:href="#DejaVuSans-64" transform="translate(274.462891 0)"/>
     <use xlink:href="#DejaVuSans-69" transform="translate(337.939453 0)"/>
     <use xlink:href="#DejaVuSans-66" transform="translate(365.722656 0)"/>
     <use xlink:href="#DejaVuSans-66" transform="translate(400.927734 0)"/>
     <use xlink:href="#DejaVuSans-65" transform="translate(436.132812 0)"/>
     <use xlink:href="#DejaVuSans-72" transform="translate(497.65625 0)"/>
     <use xlink:href="#DejaVuSans-65" transform="translate(536.519531 0)"/>
     <use xlink:href="#DejaVuSans-6e" transform="translate(598.042969 0)"/>
     <use xlink:href="#DejaVuSans-74" transform="translate(661.421875 0)"/>
     <use xlink:href="#DejaVuSans-69" transform="translate(700.630859 0)"/>
     <use xlink:href="#DejaVuSans-61" transform="translate(728.414062 0)"/>
     <use xlink:href="#DejaVuSans-62" transform="translate(789.693359 0)"/>
     <use xlink:href="#DejaVuSans-6c" transform="translate(853.169922 0)"/>
     <use xlink:href="#DejaVuSans-65" transform="translate(880.953125 0)"/>
     <use xlink:href="#DejaVuSans-29" transform="translate(942.476562 0)"/>
    </g>
   </g>
   <g class="patch">
    <path d="M 369.087008 72.629122 
Q 361.699886 85.301928 354.875806 97.008822 
" style="fill: none; opacity: 0.7; stroke: #808080; stroke-linecap: round"/>
    <path d="M 358.243849 94.805125 
L 354.875806 97.008822 
L 355.133674 92.992168 
" style="fill: none; opacity: 0.7; stroke: #808080; stroke-linecap: round"/>
   </g>
   <g id="text_24" class="text">
    <g class="patch">
     <path d="M 354.165722 70.402191 
L 400.70416 70.402191 
Q 403.40416 70.402191 403.40416 67.702191 
L 403.40416 48.913847 
Q 403.40416 46.213847 400.70416 46.213847 
L 354.165722 46.213847 
Q 351.465722 46.213847 351.465722 48.913847 
L 351.465722 67.702191 
Q 351.465722 70.402191 354.165722 70.402191 
z
" style="fill: var(--white); opacity: 0.8; stroke: var(--black); stroke-linejoin: miter"/>
    </g>
    <!-- Stationary -->
    <g transform="translate(354.165722 55.752441) scale(0.09 -0.09)">
     <use xlink:href="#DejaVuSans-53"/>
     <use xlink:href="#DejaVuSans-74" transform="translate(63.476562 0)"/>
     <use xlink:href="#DejaVuSans-61" transform="translate(102.685547 0)"/>
     <use xlink:href="#DejaVuSans-74" transform="translate(163.964844 0)"/>
     <use xlink:href="#DejaVuSans-69" transform="translate(203.173828 0)"/>
     <use xlink:href="#DejaVuSans-6f" transform="translate(230.957031 0)"/>
     <use xlink:href="#DejaVuSans-6e" transform="translate(292.138672 0)"/>
     <use xlink:href="#DejaVuSans-61" transform="translate(355.517578 0)"/>
     <use xlink:href="#DejaVuSans-72" transform="translate(416.796875 0)"/>
     <use xlink:href="#DejaVuSans-79" transform="translate(457.910156 0)"/>
    </g>
    <!-- Point -->
    <g transform="translate(366.265097 65.830472) scale(0.09 -0.09)">
     <use xlink:href="#DejaVuSans-50"/>
     <use xlink:href="#DejaVuSans-6f" transform="translate(56.677734 0)"/>
     <use xlink:href="#DejaVuSans-69" transform="translate(117.859375 0)"/>
     <use xlink:href="#DejaVuSans-6e" transform="translate(145.642578 0)"/>
     <use xlink:href="#DejaVuSans-74" transform="translate(209.021484 0)"/>
    </g>
   </g>
   <g class="patch">
    <path d="M 97.971214 286.251899 
Q 81.71415 276.291388 66.410414 266.91497 
" style="fill: none; opacity: 0.7; stroke: #808080; stroke-linecap: round"/>
    <path d="M 68.539701 270.330543 
L 66.410414 266.91497 
L 70.420445 267.260884 
" style="fill: none; opacity: 0.7; stroke: #808080; stroke-linecap: round"/>
   </g>
   <g id="text_25" class="text">
    <g class="patch">
     <path d="M 75.084711 301.907175 
L 148.931117 301.907175 
Q 151.631117 301.907175 151.631117 299.207175 
L 151.631117 290.496862 
Q 151.631117 287.796862 148.931117 287.796862 
L 75.084711 287.796862 
Q 72.384711 287.796862 72.384711 290.496862 
L 72.384711 299.207175 
Q 72.384711 301.907175 75.084711 301.907175 
z
" style="fill: var(--white); opacity: 0.8; stroke: var(--black); stroke-linejoin: miter"/>
    </g>
    <!-- Boundary points -->
    <g transform="translate(75.084711 297.335456) scale(0.09 -0.09)">
     <defs>
      <path id="DejaVuSans-42" d="M 1259 2228 
L 1259 519 
L 2272 519 
Q 2781 519 3026 730 
Q 3272 941 3272 1375 
Q 3272 1813 3026 2020 
Q 2781 2228 2272 2228 
L 1259 2228 
z
M 1259 4147 
L 1259 2741 
L 2194 2741 
Q 2656 2741 2882 2914 
Q 3109 3088 3109 3444 
Q 3109 3797 2882 3972 
Q 2656 4147 2194 4147 
L 1259 4147 
z
M 628 4666 
L 2241 4666 
Q 2963 4666 3353 4366 
Q 3744 4066 3744 3513 
Q 3744 3084 3544 2831 
Q 3344 2578 2956 2516 
Q 3422 2416 3680 2098 
Q 3938 1781 3938 1306 
Q 3938 681 3513 340 
Q 3088 0 2303 0 
L 628 0 
L 628 4666 
z
" transform="scale(0.015625)"/>
     </defs>
     <use xlink:href="#DejaVuSans-42"/>
     <use xlink:href="#DejaVuSans-6f" transform="translate(68.603516 0)"/>
     <use xlink:href="#DejaVuSans-75" transform="translate(129.785156 0)"/>
     <use xlink:href="#DejaVuSans-6e" transform="translate(193.164062 0)"/>
     <use xlink:href="#DejaVuSans-64" transform="translate(256.542969 0)"/>
     <use xlink:href="#DejaVuSans-61" transform="translate(320.019531 0)"/>
     <use xlink:href="#DejaVuSans-72" transform="translate(381.298828 0)"/>
     <use xlink:href="#DejaVuSans-79" transform="translate(422.412109 0)"/>
     <use xlink:href="#DejaVuSans-20" transform="translate(481.591797 0)"/>
     <use xlink:href="#DejaVuSans-70" transform="translate(513.378906 0)"/>
     <use xlink:href="#DejaVuSans-6f" transform="translate(576.855469 0)"/>
     <use xlink:href="#DejaVuSans-69" transform="translate(638.037109 0)"/>
     <use xlink:href="#DejaVuSans-6e" transform="translate(665.820312 0)"/>
     <use xlink:href="#DejaVuSans-74" transform="translate(729.199219 0)"/>
     <use xlink:href="#DejaVuSans-73" transform="translate(768.408203 0)"/>
    </g>
   </g>
   <g class="patch">
    <path d="M 367.341911 286.251899 
Q 383.598975 276.291388 398.902711 266.91497 
" style="fill: none; opacity: 0.7; stroke: #808080; stroke-linecap: round"/>
    <path d="M 394.89268 267.260884 
L 398.902711 266.91497 
L 396.773424 270.330543 
" style="fill: none; opacity: 0.7; stroke: #808080; stroke-linecap: round"/>
   </g>
   <g id="text_26" class="text">
    <g class="patch">
     <path d="M 316.382008 301.907175 
L 390.228414 301.907175 
Q 392.928414 301.907175 392.928414 299.207175 
L 392.928414 290.496862 
Q 392.928414 287.796862 390.228414 287.796862 
L 316.382008 287.796862 
Q 313.682008 287.796862 313.682008 290.496862 
L 313.682008 299.207175 
Q 313.682008 301.907175 316.382008 301.907175 
z
" style="fill: var(--white); opacity: 0.8; stroke: var(--black); stroke-linejoin: miter"/>
    </g>
    <!-- Boundary points -->
    <g transform="translate(316.382008 297.335456) scale(0.09 -0.09)">
     <use xlink:href="#DejaVuSans-42"/>
     <use xlink:href="#DejaVuSans-6f" transform="translate(68.603516 0)"/>
     <use xlink:href="#DejaVuSans-75" transform="translate(129.785156 0)"/>
     <use xlink:href="#DejaVuSans-6e" transform="translate(193.164062 0)"/>
     <use xlink:href="#DejaVuSans-64" transform="translate(256.542969 0)"/>
     <use xlink:href="#DejaVuSans-61" transform="translate(320.019531 0)"/>
     <use xlink:href="#DejaVuSans-72" transform="translate(381.298828 0)"/>
     <use xlink:href="#DejaVuSans-79" transform="translate(422.412109 0)"/>
     <use xlink:href="#DejaVuSans-20" transform="translate(481.591797 0)"/>
     <use xlink:href="#DejaVuSans-70" transform="translate(513.378906 0)"/>
     <use xlink:href="#DejaVuSans-6f" transform="translate(576.855469 0)"/>
     <use xlink:href="#DejaVuSans-69" transform="translate(638.037109 0)"/>
     <use xlink:href="#DejaVuSans-6e" transform="translate(665.820312 0)"/>
     <use xlink:href="#DejaVuSans-74" transform="translate(729.199219 0)"/>
     <use xlink:href="#DejaVuSans-73" transform="translate(768.408203 0)"/>
    </g>
   </g>
   <g id="PathCollection_1">
    <defs>
     <path id="mb143b64b63" d="M 0 4.472136 
C 1.186024 4.472136 2.323632 4.000923 3.162278 3.162278 
C 4.000923 2.323632 4.472136 1.186024 4.472136 0 
C 4.472136 -1.186024 4.000923 -2.323632 3.162278 -3.162278 
C 2.323632 -4.000923 1.186024 -4.472136 0 -4.472136 
C -1.186024 -4.472136 -2.323632 -4.000923 -3.162278 -3.162278 
C -4.000923 -2.323632 -4.472136 -1.186024 -4.472136 0 
C -4.472136 1.186024 -4.000923 2.323632 -3.162278 3.162278 
C -2.323632 4.000923 -1.186024 4.472136 0 4.472136 
z
" style="stroke: var(--white); stroke-width: 2"/>
    </defs>
    <g clip-path="url(#p710623140c)">
     <use xlink:href="#mb143b64b63" x="160.267373" y="129.271219" style="fill: #8000ff; stroke: var(--white); stroke-width: 2"/>
    </g>
   </g>
   <g id="PathCollection_2">
    <path d="M 160.267373 104.175355 
C 161.453398 104.175355 162.591005 103.704142 163.429651 102.865496 
C 164.268297 102.026851 164.739509 100.889243 164.739509 99.703219 
C 164.739509 98.517194 164.268297 97.379587 163.429651 96.540941 
C 162.591005 95.702295 161.453398 95.231083 160.267373 95.231083 
C 159.081349 95.231083 157.943741 95.702295 157.105096 96.540941 
C 156.26645 97.379587 155.795237 98.517194 155.795237 99.703219 
C 155.795237 100.889243 156.26645 102.026851 157.105096 102.865496 
C 157.943741 103.704142 159.081349 104.175355 160.267373 104.175355 
L 160.267373 104.175355 
z
" clip-path="url(#p710623140c)" style="fill: none; stroke: #8000ff; stroke-width: 2"/>
   </g>
   <g id="PathCollection_3">
    <defs>
     <path id="m0ffc31bee9" d="M -0 6.324555 
L 6.324555 0 
L 0 -6.324555 
L -6.324555 -0 
z
" style="stroke: var(--white); stroke-width: 2"/>
    </defs>
    <g clip-path="url(#p710623140c)">
     <use xlink:href="#m0ffc31bee9" x="256.786292" y="188.407219" style="fill: #8000ff; stroke: var(--white); stroke-width: 2"/>
    </g>
   </g>
   <g id="PathCollection_4">
    <defs>
     <path id="m5fea34b258" d="M -0 4.472136 
L 4.472136 -4.472136 
L -4.472136 -4.472136 
z
" style="stroke: var(--white); stroke-width: 2"/>
    </defs>
    <g clip-path="url(#p710623140c)">
     <use xlink:href="#m5fea34b258" x="208.526833" y="188.407219" style="fill: #ff0001; stroke: var(--white); stroke-width: 2"/>
    </g>
   </g>
   <g id="PathCollection_5">
    <defs>
     <path id="ma3fbe3833a" d="M 0 -4.472136 
L -4.472136 4.472136 
L 4.472136 4.472136 
z
" style="stroke: var(--white); stroke-width: 2"/>
    </defs>
    <g clip-path="url(#p710623140c)">
     <use xlink:href="#ma3fbe3833a" x="353.305211" y="99.703219" style="fill: #ff0001; stroke: var(--white); stroke-width: 2"/>
    </g>
   </g>
  </g>
 </g>
 <defs>
  <clipPath id="p710623140c">
   <rect x="54.096563" y="10.999219" width="357.12" height="266.112"/>
  </clipPath>
 </defs>
</svg>
