<?xml version="1.0" encoding="utf-8" standalone="no"?>
<!DOCTYPE svg PUBLIC "-//W3C//DTD SVG 1.1//EN"
  "http://www.w3.org/Graphics/SVG/1.1/DTD/svg11.dtd">
<svg xmlns:xlink="http://www.w3.org/1999/xlink" width="358.58375pt" height="230.439359pt" viewBox="0 0 358.58375 230.439359" xmlns="http://www.w3.org/2000/svg" version="1.1">
<style>:root { --axis-color:#000; --grid-stroke:rgba(0,0,0,0.2); --plot3d-stroke:rgba(0,0,0,0.3); --plot3d-grid:rgba(0,0,0,0.2); }
@media (prefers-color-scheme:dark) { :root { --axis-color:#fff; --grid-stroke:rgba(255,255,255,0.2); --plot3d-stroke:rgba(255,255,255,0.3); --plot3d-grid:rgba(255,255,255,0.2); } }
.black{fill:#000000;stroke:#000000;}:root{--black:#000000;}.c1{fill:#FF0001;stroke:#FF0001;}:root{--c1:#FF0001;}.c2{fill:#00FF02;stroke:#00FF02;}:root{--c2:#00FF02;}.c3{fill:#0000FF;stroke:#0000FF;}:root{--c3:#0000FF;}.c4{fill:#FF00FF;stroke:#FF00FF;}:root{--c4:#FF00FF;}.c5{fill:#00FFFF;stroke:#00FFFF;}:root{--c5:#00FFFF;}.c6{fill:#FFFF00;stroke:#FFFF00;}:root{--c6:#FFFF00;}.c7{fill:#FF8000;stroke:#FF8000;}:root{--c7:#FF8000;}.c8{fill:#8000FF;stroke:#8000FF;}:root{--c8:#8000FF;}.gray{fill:#7f7f7f;stroke:#7f7f7f;}:root{--gray:#7f7f7f;}.grey{fill:#7f7f7f;stroke:#7f7f7f;}:root{--grey:#7f7f7f;}.octonary{fill:#bcbd22;stroke:#bcbd22;}:root{--octonary:#bcbd22;}.primary{fill:#d62728;stroke:#d62728;}:root{--primary:#d62728;}.quaternary{fill:#9467bd;stroke:#9467bd;}:root{--quaternary:#9467bd;}.quinary{fill:#8c564b;stroke:#8c564b;}:root{--quinary:#8c564b;}.secondary{fill:#2ca02c;stroke:#2ca02c;}:root{--secondary:#2ca02c;}.senary{fill:#e377c2;stroke:#e377c2;}:root{--senary:#e377c2;}.septenary{fill:#7f7f7f;stroke:#7f7f7f;}:root{--septenary:#7f7f7f;}.tertiary{fill:#1f77b4;stroke:#1f77b4;}:root{--tertiary:#1f77b4;}.white{fill:#ffffff;stroke:#ffffff;}:root{--white:#ffffff;}
@media (prefers-color-scheme:dark) { .black{fill:#FFFFFF;stroke:#FFFFFF;}:root{--black:#FFFFFF;}.c1{fill:#FF0001;stroke:#FF0001;}:root{--c1:#FF0001;}.c2{fill:#00FF02;stroke:#00FF02;}:root{--c2:#00FF02;}.c3{fill:#0000FF;stroke:#0000FF;}:root{--c3:#0000FF;}.c4{fill:#FF00FF;stroke:#FF00FF;}:root{--c4:#FF00FF;}.c5{fill:#00FFFF;stroke:#00FFFF;}:root{--c5:#00FFFF;}.c6{fill:#FFFF00;stroke:#FFFF00;}:root{--c6:#FFFF00;}.c7{fill:#FF8000;stroke:#FF8000;}:root{--c7:#FF8000;}.c8{fill:#8000FF;stroke:#8000FF;}:root{--c8:#8000FF;}.gray{fill:#CCCCCC;stroke:#CCCCCC;}:root{--gray:#CCCCCC;}.grey{fill:#CCCCCC;stroke:#CCCCCC;}:root{--grey:#CCCCCC;}.octonary{fill:#E6DB74;stroke:#E6DB74;}:root{--octonary:#E6DB74;}.primary{fill:#FF4A98;stroke:#FF4A98;}:root{--primary:#FF4A98;}.quaternary{fill:#B4A0FF;stroke:#B4A0FF;}:root{--quaternary:#B4A0FF;}.quinary{fill:#FFB86B;stroke:#FFB86B;}:root{--quinary:#FFB86B;}.secondary{fill:#0AFAFA;stroke:#0AFAFA;}:root{--secondary:#0AFAFA;}.senary{fill:#FF79C6;stroke:#FF79C6;}:root{--senary:#FF79C6;}.septenary{fill:#CCCCCC;stroke:#CCCCCC;}:root{--septenary:#CCCCCC;}.tertiary{fill:#7F83FF;stroke:#7F83FF;}:root{--tertiary:#7F83FF;}.white{fill:#000000;stroke:#000000;}:root{--white:#000000;} }
text,.text { fill:var(--axis-color)!important; stroke:none!important; }
.axis line,.axis path,.tick line,.tick path,path.domain,line.grid { stroke:var(--axis-color)!important; }
.legend text { fill:var(--axis-color)!important; }
.patch path[style*="stroke: currentColor"] { stroke:var(--axis-color)!important; }
g.legend>g:first-child>path:first-child { fill:rgba(255,255,255,0.8)!important; stroke:rgba(0,0,0,0.1)!important; }
@media (prefers-color-scheme:dark) { g.legend>g:first-child>path:first-child { fill:rgba(26,26,26,0.8)!important; stroke:rgba(255,255,255,0.1)!important; } }
.plot3d path,.plot3d polygon { stroke:var(--plot3d-stroke)!important; }
.plot3d-grid line { stroke:var(--plot3d-grid)!important; }
.plot3d-surface path[style*="fill:"] { fill-opacity:0.9!important; }
@media (prefers-color-scheme:dark) { .plot3d-surface path[style*="fill:"] { fill-opacity:0.95!important; filter:saturate(1.2)!important; } }</style>

 <metadata>
  <rdf:RDF xmlns:dc="http://purl.org/dc/elements/1.1/" xmlns:cc="http://creativecommons.org/ns#" xmlns:rdf="http://www.w3.org/1999/02/22-rdf-syntax-ns#">
   <cc:Work>
    <dc:type rdf:resource="http://purl.org/dc/dcmitype/StillImage"/>
    <dc:date>2026-05-06T23:46:23.567518</dc:date>
    <dc:format>image/svg+xml</dc:format>
    <dc:creator>
     <cc:Agent>
      <dc:title>Matplotlib v3.10.1, https://matplotlib.org/</dc:title>
     </cc:Agent>
    </dc:creator>
   </cc:Work>
  </rdf:RDF>
 </metadata>
 <defs>
  <style type="text/css">*{stroke-linejoin: round; stroke-linecap: butt}</style>
 </defs>
 <g id="figure_1">
  <g class="patch">
   <path d="M 0 230.439359 
L 358.58375 230.439359 
L 358.58375 0 
L 0 0 
L 0 230.439359 
z
" style="fill: none"/>
  </g>
  <g id="axes_1">
   <g class="patch">
    <path d="M 48.08375 195.515297 
L 354.98375 195.515297 
L 354.98375 7.019297 
L 48.08375 7.019297 
L 48.08375 195.515297 
z
" style="fill: none"/>
   </g>
   <g class="axis">
    <g class="tick xtick">
     <g id="line2d_1">
      <path d="M 56.378345 195.515297 
L 56.378345 7.019297 
" clip-path="url(#p9494aa50da)" style="fill: none; stroke: #b0b0b0; stroke-opacity: 0.15; stroke-width: 0.5; stroke-linecap: square"/>
     </g>
     <g id="line2d_2">
      <defs>
       <path id="m569521c64f" d="M 0 0 
L 0 3.5 
" style="stroke:var(--black); stroke-width: 0.8"/>
      </defs>
      <g>
       <use xlink:href="#m569521c64f" x="56.378345" y="195.515297" style="stroke:var(--black); stroke-width: 0.8"/>
      </g>
     </g>
     <g id="text_1" class="text">
      <!-- $\mathdefault{−1}$ -->
      <g transform="translate(49.718345 209.353891) scale(0.09 -0.09)">
       <defs>
        <path id="DejaVuSerif-2212" d="M 678 2259 
L 4684 2259 
L 4684 1753 
L 678 1753 
L 678 2259 
z
" transform="scale(0.015625)"/>
        <path id="DejaVuSerif-31" d="M 909 0 
L 909 331 
L 1722 331 
L 1722 4213 
L 781 3603 
L 781 4013 
L 1919 4750 
L 2350 4750 
L 2350 331 
L 3163 331 
L 3163 0 
L 909 0 
z
" transform="scale(0.015625)"/>
       </defs>
       <use xlink:href="#DejaVuSerif-2212" transform="translate(0 0.78125)"/>
       <use xlink:href="#DejaVuSerif-31" transform="translate(83.789062 0.78125)"/>
      </g>
     </g>
    </g>
    <g class="tick xtick">
     <g id="line2d_3">
      <path d="M 97.851318 195.515297 
L 97.851318 7.019297 
" clip-path="url(#p9494aa50da)" style="fill: none; stroke: #b0b0b0; stroke-opacity: 0.15; stroke-width: 0.5; stroke-linecap: square"/>
     </g>
     <g id="line2d_4">
      <g>
       <use xlink:href="#m569521c64f" x="97.851318" y="195.515297" style="stroke:var(--black); stroke-width: 0.8"/>
      </g>
     </g>
     <g id="text_2" class="text">
      <!-- $\mathdefault{0}$ -->
      <g transform="translate(94.971318 209.353891) scale(0.09 -0.09)">
       <defs>
        <path id="DejaVuSerif-30" d="M 2034 219 
Q 2513 219 2750 744 
Q 2988 1269 2988 2328 
Q 2988 3391 2750 3916 
Q 2513 4441 2034 4441 
Q 1556 4441 1318 3916 
Q 1081 3391 1081 2328 
Q 1081 1269 1318 744 
Q 1556 219 2034 219 
z
M 2034 -91 
Q 1275 -91 848 546 
Q 422 1184 422 2328 
Q 422 3475 848 4112 
Q 1275 4750 2034 4750 
Q 2797 4750 3222 4112 
Q 3647 3475 3647 2328 
Q 3647 1184 3222 546 
Q 2797 -91 2034 -91 
z
" transform="scale(0.015625)"/>
       </defs>
       <use xlink:href="#DejaVuSerif-30" transform="translate(0 0.78125)"/>
      </g>
     </g>
    </g>
    <g class="tick xtick">
     <g id="line2d_5">
      <path d="M 139.324291 195.515297 
L 139.324291 7.019297 
" clip-path="url(#p9494aa50da)" style="fill: none; stroke: #b0b0b0; stroke-opacity: 0.15; stroke-width: 0.5; stroke-linecap: square"/>
     </g>
     <g id="line2d_6">
      <g>
       <use xlink:href="#m569521c64f" x="139.324291" y="195.515297" style="stroke:var(--black); stroke-width: 0.8"/>
      </g>
     </g>
     <g id="text_3" class="text">
      <!-- $\mathdefault{1}$ -->
      <g transform="translate(136.444291 209.353891) scale(0.09 -0.09)">
       <use xlink:href="#DejaVuSerif-31" transform="translate(0 0.78125)"/>
      </g>
     </g>
    </g>
    <g class="tick xtick">
     <g id="line2d_7">
      <path d="M 180.797264 195.515297 
L 180.797264 7.019297 
" clip-path="url(#p9494aa50da)" style="fill: none; stroke: #b0b0b0; stroke-opacity: 0.15; stroke-width: 0.5; stroke-linecap: square"/>
     </g>
     <g id="line2d_8">
      <g>
       <use xlink:href="#m569521c64f" x="180.797264" y="195.515297" style="stroke:var(--black); stroke-width: 0.8"/>
      </g>
     </g>
     <g id="text_4" class="text">
      <!-- $\mathdefault{2}$ -->
      <g transform="translate(177.917264 209.353891) scale(0.09 -0.09)">
       <defs>
        <path id="DejaVuSerif-32" d="M 819 3553 
L 469 3553 
L 469 4384 
Q 803 4563 1142 4656 
Q 1481 4750 1806 4750 
Q 2534 4750 2956 4397 
Q 3378 4044 3378 3438 
Q 3378 2753 2422 1800 
Q 2347 1728 2309 1691 
L 1131 513 
L 3078 513 
L 3078 1088 
L 3444 1088 
L 3444 0 
L 434 0 
L 434 341 
L 1850 1753 
Q 2319 2222 2519 2614 
Q 2719 3006 2719 3438 
Q 2719 3909 2473 4175 
Q 2228 4441 1797 4441 
Q 1350 4441 1106 4219 
Q 863 3997 819 3553 
z
" transform="scale(0.015625)"/>
       </defs>
       <use xlink:href="#DejaVuSerif-32" transform="translate(0 0.78125)"/>
      </g>
     </g>
    </g>
    <g class="tick xtick">
     <g id="line2d_9">
      <path d="M 222.270236 195.515297 
L 222.270236 7.019297 
" clip-path="url(#p9494aa50da)" style="fill: none; stroke: #b0b0b0; stroke-opacity: 0.15; stroke-width: 0.5; stroke-linecap: square"/>
     </g>
     <g id="line2d_10">
      <g>
       <use xlink:href="#m569521c64f" x="222.270236" y="195.515297" style="stroke:var(--black); stroke-width: 0.8"/>
      </g>
     </g>
     <g id="text_5" class="text">
      <!-- $\mathdefault{3}$ -->
      <g transform="translate(219.390236 209.353891) scale(0.09 -0.09)">
       <defs>
        <path id="DejaVuSerif-33" d="M 622 4469 
Q 988 4606 1323 4678 
Q 1659 4750 1953 4750 
Q 2638 4750 3022 4454 
Q 3406 4159 3406 3634 
Q 3406 3213 3140 2930 
Q 2875 2647 2388 2547 
Q 2963 2466 3280 2130 
Q 3597 1794 3597 1259 
Q 3597 606 3158 257 
Q 2719 -91 1894 -91 
Q 1528 -91 1179 -12 
Q 831 66 488 225 
L 488 1131 
L 838 1131 
Q 869 681 1141 450 
Q 1413 219 1906 219 
Q 2384 219 2661 495 
Q 2938 772 2938 1253 
Q 2938 1803 2653 2086 
Q 2369 2369 1819 2369 
L 1522 2369 
L 1522 2688 
L 1678 2688 
Q 2225 2688 2498 2914 
Q 2772 3141 2772 3597 
Q 2772 4006 2547 4223 
Q 2322 4441 1900 4441 
Q 1478 4441 1245 4241 
Q 1013 4041 972 3647 
L 622 3647 
L 622 4469 
z
" transform="scale(0.015625)"/>
       </defs>
       <use xlink:href="#DejaVuSerif-33" transform="translate(0 0.78125)"/>
      </g>
     </g>
    </g>
    <g class="tick xtick">
     <g id="line2d_11">
      <path d="M 263.743209 195.515297 
L 263.743209 7.019297 
" clip-path="url(#p9494aa50da)" style="fill: none; stroke: #b0b0b0; stroke-opacity: 0.15; stroke-width: 0.5; stroke-linecap: square"/>
     </g>
     <g id="line2d_12">
      <g>
       <use xlink:href="#m569521c64f" x="263.743209" y="195.515297" style="stroke:var(--black); stroke-width: 0.8"/>
      </g>
     </g>
     <g id="text_6" class="text">
      <!-- $\mathdefault{4}$ -->
      <g transform="translate(260.863209 209.353891) scale(0.09 -0.09)">
       <defs>
        <path id="DejaVuSerif-34" d="M 2234 1581 
L 2234 4063 
L 641 1581 
L 2234 1581 
z
M 3609 0 
L 1484 0 
L 1484 331 
L 2234 331 
L 2234 1247 
L 197 1247 
L 197 1588 
L 2241 4750 
L 2859 4750 
L 2859 1581 
L 3750 1581 
L 3750 1247 
L 2859 1247 
L 2859 331 
L 3609 331 
L 3609 0 
z
" transform="scale(0.015625)"/>
       </defs>
       <use xlink:href="#DejaVuSerif-34" transform="translate(0 0.78125)"/>
      </g>
     </g>
    </g>
    <g class="tick xtick">
     <g id="line2d_13">
      <path d="M 305.216182 195.515297 
L 305.216182 7.019297 
" clip-path="url(#p9494aa50da)" style="fill: none; stroke: #b0b0b0; stroke-opacity: 0.15; stroke-width: 0.5; stroke-linecap: square"/>
     </g>
     <g id="line2d_14">
      <g>
       <use xlink:href="#m569521c64f" x="305.216182" y="195.515297" style="stroke:var(--black); stroke-width: 0.8"/>
      </g>
     </g>
     <g id="text_7" class="text">
      <!-- $\mathdefault{5}$ -->
      <g transform="translate(302.336182 209.353891) scale(0.09 -0.09)">
       <defs>
        <path id="DejaVuSerif-35" d="M 3219 4666 
L 3219 4153 
L 1081 4153 
L 1081 2816 
Q 1244 2928 1461 2984 
Q 1678 3041 1947 3041 
Q 2703 3041 3140 2622 
Q 3578 2203 3578 1478 
Q 3578 738 3136 323 
Q 2694 -91 1894 -91 
Q 1572 -91 1234 -12 
Q 897 66 544 225 
L 544 1131 
L 897 1131 
Q 925 688 1179 453 
Q 1434 219 1894 219 
Q 2388 219 2653 544 
Q 2919 869 2919 1478 
Q 2919 2084 2655 2407 
Q 2391 2731 1894 2731 
Q 1613 2731 1398 2631 
Q 1184 2531 1019 2322 
L 750 2322 
L 750 4666 
L 3219 4666 
z
" transform="scale(0.015625)"/>
       </defs>
       <use xlink:href="#DejaVuSerif-35" transform="translate(0 0.09375)"/>
      </g>
     </g>
    </g>
    <g class="tick xtick">
     <g id="line2d_15">
      <path d="M 346.689155 195.515297 
L 346.689155 7.019297 
" clip-path="url(#p9494aa50da)" style="fill: none; stroke: #b0b0b0; stroke-opacity: 0.15; stroke-width: 0.5; stroke-linecap: square"/>
     </g>
     <g id="line2d_16">
      <g>
       <use xlink:href="#m569521c64f" x="346.689155" y="195.515297" style="stroke:var(--black); stroke-width: 0.8"/>
      </g>
     </g>
     <g id="text_8" class="text">
      <!-- $\mathdefault{6}$ -->
      <g transform="translate(343.809155 209.353891) scale(0.09 -0.09)">
       <defs>
        <path id="DejaVuSerif-36" d="M 2094 219 
Q 2534 219 2771 542 
Q 3009 866 3009 1472 
Q 3009 2078 2771 2401 
Q 2534 2725 2094 2725 
Q 1647 2725 1412 2412 
Q 1178 2100 1178 1509 
Q 1178 888 1415 553 
Q 1653 219 2094 219 
z
M 1075 2569 
Q 1288 2803 1556 2918 
Q 1825 3034 2163 3034 
Q 2859 3034 3264 2615 
Q 3669 2197 3669 1472 
Q 3669 763 3233 336 
Q 2797 -91 2069 -91 
Q 1278 -91 853 498 
Q 428 1088 428 2181 
Q 428 3406 931 4078 
Q 1434 4750 2350 4750 
Q 2597 4750 2869 4703 
Q 3141 4656 3425 4563 
L 3425 3794 
L 3072 3794 
Q 3034 4109 2831 4275 
Q 2628 4441 2284 4441 
Q 1678 4441 1381 3981 
Q 1084 3522 1075 2569 
z
" transform="scale(0.015625)"/>
       </defs>
       <use xlink:href="#DejaVuSerif-36" transform="translate(0 0.78125)"/>
      </g>
     </g>
    </g>
    <g id="text_9" class="text">
     <!-- x -->
     <g transform="translate(198.150312 224.343734) scale(0.12 -0.12)">
      <defs>
       <path id="DejaVuSerif-78" d="M 1863 2028 
L 2559 2988 
L 2113 2988 
L 2113 3322 
L 3391 3322 
L 3391 2988 
L 2950 2988 
L 2059 1759 
L 3097 331 
L 3531 331 
L 3531 0 
L 1997 0 
L 1997 331 
L 2419 331 
L 1697 1325 
L 972 331 
L 1403 331 
L 1403 0 
L 141 0 
L 141 331 
L 581 331 
L 1497 1594 
L 488 2988 
L 78 2988 
L 78 3322 
L 1563 3322 
L 1563 2988 
L 1166 2988 
L 1863 2028 
z
" transform="scale(0.015625)"/>
      </defs>
      <use xlink:href="#DejaVuSerif-78"/>
     </g>
    </g>
   </g>
   <g class="axis">
    <g class="tick ytick">
     <g id="line2d_17">
      <path d="M 48.08375 195.515297 
L 354.98375 195.515297 
" clip-path="url(#p9494aa50da)" style="fill: none; stroke: #b0b0b0; stroke-opacity: 0.15; stroke-width: 0.5; stroke-linecap: square"/>
     </g>
     <g id="line2d_18">
      <defs>
       <path id="m33e5d05024" d="M 0 0 
L -3.5 0 
" style="stroke:var(--black); stroke-width: 0.8"/>
      </defs>
      <g>
       <use xlink:href="#m33e5d05024" x="48.08375" y="195.515297" style="stroke:var(--black); stroke-width: 0.8"/>
      </g>
     </g>
     <g id="text_10" class="text">
      <!-- $\mathdefault{−0.5}$ -->
      <g transform="translate(19.21375 198.934594) scale(0.09 -0.09)">
       <defs>
        <path id="DejaVuSerif-2e" d="M 603 325 
Q 603 500 722 622 
Q 841 744 1019 744 
Q 1191 744 1312 622 
Q 1434 500 1434 325 
Q 1434 153 1312 31 
Q 1191 -91 1019 -91 
Q 841 -91 722 29 
Q 603 150 603 325 
z
" transform="scale(0.015625)"/>
       </defs>
       <use xlink:href="#DejaVuSerif-2212" transform="translate(0 0.78125)"/>
       <use xlink:href="#DejaVuSerif-30" transform="translate(83.789062 0.78125)"/>
       <use xlink:href="#DejaVuSerif-2e" transform="translate(147.412109 0.78125)"/>
       <use xlink:href="#DejaVuSerif-35" transform="translate(179.199219 0.78125)"/>
      </g>
     </g>
    </g>
    <g class="tick ytick">
     <g id="line2d_19">
      <path d="M 48.08375 174.571297 
L 354.98375 174.571297 
" clip-path="url(#p9494aa50da)" style="fill: none; stroke: #b0b0b0; stroke-opacity: 0.15; stroke-width: 0.5; stroke-linecap: square"/>
     </g>
     <g id="line2d_20">
      <g>
       <use xlink:href="#m33e5d05024" x="48.08375" y="174.571297" style="stroke:var(--black); stroke-width: 0.8"/>
      </g>
     </g>
     <g id="text_11" class="text">
      <!-- $\mathdefault{0.0}$ -->
      <g transform="translate(26.68375 177.990594) scale(0.09 -0.09)">
       <use xlink:href="#DejaVuSerif-30" transform="translate(0 0.78125)"/>
       <use xlink:href="#DejaVuSerif-2e" transform="translate(63.623047 0.78125)"/>
       <use xlink:href="#DejaVuSerif-30" transform="translate(95.410156 0.78125)"/>
      </g>
     </g>
    </g>
    <g class="tick ytick">
     <g id="line2d_21">
      <path d="M 48.08375 153.627297 
L 354.98375 153.627297 
" clip-path="url(#p9494aa50da)" style="fill: none; stroke: #b0b0b0; stroke-opacity: 0.15; stroke-width: 0.5; stroke-linecap: square"/>
     </g>
     <g id="line2d_22">
      <g>
       <use xlink:href="#m33e5d05024" x="48.08375" y="153.627297" style="stroke:var(--black); stroke-width: 0.8"/>
      </g>
     </g>
     <g id="text_12" class="text">
      <!-- $\mathdefault{0.5}$ -->
      <g transform="translate(26.68375 157.046594) scale(0.09 -0.09)">
       <use xlink:href="#DejaVuSerif-30" transform="translate(0 0.78125)"/>
       <use xlink:href="#DejaVuSerif-2e" transform="translate(63.623047 0.78125)"/>
       <use xlink:href="#DejaVuSerif-35" transform="translate(95.410156 0.78125)"/>
      </g>
     </g>
    </g>
    <g class="tick ytick">
     <g id="line2d_23">
      <path d="M 48.08375 132.683297 
L 354.98375 132.683297 
" clip-path="url(#p9494aa50da)" style="fill: none; stroke: #b0b0b0; stroke-opacity: 0.15; stroke-width: 0.5; stroke-linecap: square"/>
     </g>
     <g id="line2d_24">
      <g>
       <use xlink:href="#m33e5d05024" x="48.08375" y="132.683297" style="stroke:var(--black); stroke-width: 0.8"/>
      </g>
     </g>
     <g id="text_13" class="text">
      <!-- $\mathdefault{1.0}$ -->
      <g transform="translate(26.68375 136.102594) scale(0.09 -0.09)">
       <use xlink:href="#DejaVuSerif-31" transform="translate(0 0.78125)"/>
       <use xlink:href="#DejaVuSerif-2e" transform="translate(63.623047 0.78125)"/>
       <use xlink:href="#DejaVuSerif-30" transform="translate(95.410156 0.78125)"/>
      </g>
     </g>
    </g>
    <g class="tick ytick">
     <g id="line2d_25">
      <path d="M 48.08375 111.739297 
L 354.98375 111.739297 
" clip-path="url(#p9494aa50da)" style="fill: none; stroke: #b0b0b0; stroke-opacity: 0.15; stroke-width: 0.5; stroke-linecap: square"/>
     </g>
     <g id="line2d_26">
      <g>
       <use xlink:href="#m33e5d05024" x="48.08375" y="111.739297" style="stroke:var(--black); stroke-width: 0.8"/>
      </g>
     </g>
     <g id="text_14" class="text">
      <!-- $\mathdefault{1.5}$ -->
      <g transform="translate(26.68375 115.158594) scale(0.09 -0.09)">
       <use xlink:href="#DejaVuSerif-31" transform="translate(0 0.78125)"/>
       <use xlink:href="#DejaVuSerif-2e" transform="translate(63.623047 0.78125)"/>
       <use xlink:href="#DejaVuSerif-35" transform="translate(95.410156 0.78125)"/>
      </g>
     </g>
    </g>
    <g class="tick ytick">
     <g id="line2d_27">
      <path d="M 48.08375 90.795297 
L 354.98375 90.795297 
" clip-path="url(#p9494aa50da)" style="fill: none; stroke: #b0b0b0; stroke-opacity: 0.15; stroke-width: 0.5; stroke-linecap: square"/>
     </g>
     <g id="line2d_28">
      <g>
       <use xlink:href="#m33e5d05024" x="48.08375" y="90.795297" style="stroke:var(--black); stroke-width: 0.8"/>
      </g>
     </g>
     <g id="text_15" class="text">
      <!-- $\mathdefault{2.0}$ -->
      <g transform="translate(26.68375 94.214594) scale(0.09 -0.09)">
       <use xlink:href="#DejaVuSerif-32" transform="translate(0 0.78125)"/>
       <use xlink:href="#DejaVuSerif-2e" transform="translate(63.623047 0.78125)"/>
       <use xlink:href="#DejaVuSerif-30" transform="translate(95.410156 0.78125)"/>
      </g>
     </g>
    </g>
    <g class="tick ytick">
     <g id="line2d_29">
      <path d="M 48.08375 69.851297 
L 354.98375 69.851297 
" clip-path="url(#p9494aa50da)" style="fill: none; stroke: #b0b0b0; stroke-opacity: 0.15; stroke-width: 0.5; stroke-linecap: square"/>
     </g>
     <g id="line2d_30">
      <g>
       <use xlink:href="#m33e5d05024" x="48.08375" y="69.851297" style="stroke:var(--black); stroke-width: 0.8"/>
      </g>
     </g>
     <g id="text_16" class="text">
      <!-- $\mathdefault{2.5}$ -->
      <g transform="translate(26.68375 73.270594) scale(0.09 -0.09)">
       <use xlink:href="#DejaVuSerif-32" transform="translate(0 0.78125)"/>
       <use xlink:href="#DejaVuSerif-2e" transform="translate(63.623047 0.78125)"/>
       <use xlink:href="#DejaVuSerif-35" transform="translate(95.410156 0.78125)"/>
      </g>
     </g>
    </g>
    <g class="tick ytick">
     <g id="line2d_31">
      <path d="M 48.08375 48.907297 
L 354.98375 48.907297 
" clip-path="url(#p9494aa50da)" style="fill: none; stroke: #b0b0b0; stroke-opacity: 0.15; stroke-width: 0.5; stroke-linecap: square"/>
     </g>
     <g id="line2d_32">
      <g>
       <use xlink:href="#m33e5d05024" x="48.08375" y="48.907297" style="stroke:var(--black); stroke-width: 0.8"/>
      </g>
     </g>
     <g id="text_17" class="text">
      <!-- $\mathdefault{3.0}$ -->
      <g transform="translate(26.68375 52.326594) scale(0.09 -0.09)">
       <use xlink:href="#DejaVuSerif-33" transform="translate(0 0.78125)"/>
       <use xlink:href="#DejaVuSerif-2e" transform="translate(63.623047 0.78125)"/>
       <use xlink:href="#DejaVuSerif-30" transform="translate(95.410156 0.78125)"/>
      </g>
     </g>
    </g>
    <g class="tick ytick">
     <g id="line2d_33">
      <path d="M 48.08375 27.963297 
L 354.98375 27.963297 
" clip-path="url(#p9494aa50da)" style="fill: none; stroke: #b0b0b0; stroke-opacity: 0.15; stroke-width: 0.5; stroke-linecap: square"/>
     </g>
     <g id="line2d_34">
      <g>
       <use xlink:href="#m33e5d05024" x="48.08375" y="27.963297" style="stroke:var(--black); stroke-width: 0.8"/>
      </g>
     </g>
     <g id="text_18" class="text">
      <!-- $\mathdefault{3.5}$ -->
      <g transform="translate(26.68375 31.382594) scale(0.09 -0.09)">
       <use xlink:href="#DejaVuSerif-33" transform="translate(0 0.78125)"/>
       <use xlink:href="#DejaVuSerif-2e" transform="translate(63.623047 0.78125)"/>
       <use xlink:href="#DejaVuSerif-35" transform="translate(95.410156 0.78125)"/>
      </g>
     </g>
    </g>
    <g class="tick ytick">
     <g id="line2d_35">
      <path d="M 48.08375 7.019297 
L 354.98375 7.019297 
" clip-path="url(#p9494aa50da)" style="fill: none; stroke: #b0b0b0; stroke-opacity: 0.15; stroke-width: 0.5; stroke-linecap: square"/>
     </g>
     <g id="line2d_36">
      <g>
       <use xlink:href="#m33e5d05024" x="48.08375" y="7.019297" style="stroke:var(--black); stroke-width: 0.8"/>
      </g>
     </g>
     <g id="text_19" class="text">
      <!-- $\mathdefault{4.0}$ -->
      <g transform="translate(26.68375 10.438594) scale(0.09 -0.09)">
       <use xlink:href="#DejaVuSerif-34" transform="translate(0 0.78125)"/>
       <use xlink:href="#DejaVuSerif-2e" transform="translate(63.623047 0.78125)"/>
       <use xlink:href="#DejaVuSerif-30" transform="translate(95.410156 0.78125)"/>
      </g>
     </g>
    </g>
    <g id="text_20" class="text">
     <!-- f(x) -->
     <g transform="translate(12.718125 111.553547) rotate(-90) scale(0.12 -0.12)">
      <defs>
       <path id="DejaVuSerif-66" d="M 2753 4078 
L 2450 4078 
Q 2447 4313 2317 4434 
Q 2188 4556 1941 4556 
Q 1619 4556 1487 4379 
Q 1356 4203 1356 3750 
L 1356 3322 
L 2284 3322 
L 2284 2988 
L 1356 2988 
L 1356 331 
L 2094 331 
L 2094 0 
L 231 0 
L 231 331 
L 781 331 
L 781 2988 
L 231 2988 
L 231 3322 
L 781 3322 
L 781 3738 
Q 781 4294 1070 4578 
Q 1359 4863 1919 4863 
Q 2128 4863 2337 4825 
Q 2547 4788 2753 4709 
L 2753 4078 
z
" transform="scale(0.015625)"/>
       <path id="DejaVuSerif-28" d="M 2041 -997 
Q 1281 -656 893 83 
Q 506 822 506 1931 
Q 506 3044 893 3783 
Q 1281 4522 2041 4863 
L 2041 4556 
Q 1559 4225 1350 3623 
Q 1141 3022 1141 1931 
Q 1141 844 1350 242 
Q 1559 -359 2041 -691 
L 2041 -997 
z
" transform="scale(0.015625)"/>
       <path id="DejaVuSerif-29" d="M 453 -997 
L 453 -691 
Q 934 -359 1145 242 
Q 1356 844 1356 1931 
Q 1356 3022 1145 3623 
Q 934 4225 453 4556 
L 453 4863 
Q 1216 4522 1603 3783 
Q 1991 3044 1991 1931 
Q 1991 822 1603 83 
Q 1216 -656 453 -997 
z
" transform="scale(0.015625)"/>
      </defs>
      <use xlink:href="#DejaVuSerif-66"/>
      <use xlink:href="#DejaVuSerif-28" transform="translate(37.011719 0)"/>
      <use xlink:href="#DejaVuSerif-78" transform="translate(76.025391 0)"/>
      <use xlink:href="#DejaVuSerif-29" transform="translate(132.421875 0)"/>
     </g>
    </g>
   </g>
   <g id="line2d_37">
    <path d="M 139.324291 195.515297 
L 139.324291 7.019297 
" clip-path="url(#p9494aa50da)" style="fill: none; stroke-dasharray: 3.7,1.6; stroke-dashoffset: 0; stroke: #808080; stroke-opacity: 0.5"/>
   </g>
   <g id="line2d_38">
    <path d="M 180.797264 195.515297 
L 180.797264 7.019297 
" clip-path="url(#p9494aa50da)" style="fill: none; stroke-dasharray: 3.7,1.6; stroke-dashoffset: 0; stroke: #808080; stroke-opacity: 0.5"/>
   </g>
   <g id="line2d_39">
    <path d="M 305.216182 195.515297 
L 305.216182 7.019297 
" clip-path="url(#p9494aa50da)" style="fill: none; stroke-dasharray: 3.7,1.6; stroke-dashoffset: 0; stroke: #808080; stroke-opacity: 0.5"/>
   </g>
   <g id="line2d_40">
    <path d="M 56.378345 195.515297 
L 56.378345 7.019297 
" clip-path="url(#p9494aa50da)" style="fill: none; stroke:var(--black); stroke-opacity: 0.8; stroke-width: 2; stroke-linecap: square"/>
   </g>
   <g id="line2d_41">
    <path d="M 346.689155 195.515297 
L 346.689155 7.019297 
" clip-path="url(#p9494aa50da)" style="fill: none; stroke:var(--black); stroke-opacity: 0.8; stroke-width: 2; stroke-linecap: square"/>
   </g>
   <g class="patch">
    <path d="M 48.08375 195.515297 
L 48.08375 7.019297 
" style="fill: none; stroke:var(--black); stroke-width: 0.8; stroke-linejoin: miter; stroke-linecap: square"/>
   </g>
   <g class="patch">
    <path d="M 48.08375 195.515297 
L 354.98375 195.515297 
" style="fill: none; stroke:var(--black); stroke-width: 0.8; stroke-linejoin: miter; stroke-linecap: square"/>
   </g>
   <g id="line2d_42">
    <path d="M 58.362576 231.439359 
L 63.464179 216.544446 
L 68.882759 201.418606 
L 73.884524 188.090942 
L 78.88629 175.372543 
L 83.888055 163.263409 
L 88.889821 151.763539 
L 93.474773 141.757214 
L 98.059724 132.262841 
L 102.644676 123.280419 
L 107.229628 114.809948 
L 111.397766 107.553776 
L 115.565904 100.720704 
L 119.734042 94.310733 
L 123.90218 88.323862 
L 127.653504 83.297428 
L 131.404828 78.613707 
L 135.156153 74.272696 
L 138.907477 70.274397 
L 139.324291 69.851297 
L 139.324291 69.851297 
" clip-path="url(#p9494aa50da)" style="fill: none; stroke:var(--c8); stroke-width: 2.5; stroke-linecap: square"/>
   </g>
   <g id="line2d_43">
    <path d="M 139.73902 91.628868 
L 143.056858 97.995844 
L 145.959966 103.127124 
L 148.863074 107.847902 
L 151.766182 112.158177 
L 154.669291 116.05795 
L 157.572399 119.54722 
L 160.060777 122.211297 
L 162.549155 124.57378 
L 165.037534 126.63467 
L 167.525912 128.393966 
L 170.014291 129.851668 
L 172.087939 130.836036 
L 174.161588 131.610964 
L 176.235236 132.176452 
L 178.308885 132.5325 
L 180.382534 132.679108 
L 182.456182 132.616276 
L 184.529831 132.344004 
L 186.60348 131.862292 
L 188.677128 131.17114 
L 190.750777 130.270548 
L 192.824426 129.160516 
L 195.312804 127.552017 
L 197.801182 125.641924 
L 200.289561 123.430238 
L 202.777939 120.916958 
L 205.266318 118.102084 
L 207.754696 114.985617 
L 210.657804 110.968558 
L 213.560912 106.540996 
L 216.46402 101.702932 
L 219.367128 96.454366 
L 222.270236 90.795297 
L 222.270236 90.795297 
" clip-path="url(#p9494aa50da)" style="fill: none; stroke:var(--c8); stroke-width: 2.5; stroke-linecap: square"/>
   </g>
   <g id="LineCollection_1">
    <path d="M 222.270236 132.683297 
L 222.270236 90.795297 
" clip-path="url(#p9494aa50da)" style="fill: none; stroke:var(--c8); stroke-width: 2.5"/>
   </g>
   <g id="line2d_44">
    <path d="M 222.270236 132.683297 
L 284.479696 69.851297 
L 284.479696 69.851297 
" clip-path="url(#p9494aa50da)" style="fill: none; stroke:var(--c8); stroke-width: 2.5; stroke-linecap: square"/>
   </g>
   <g id="line2d_45">
    <path d="M 284.479696 72.992897 
L 288.54363 71.882179 
L 292.607565 71.012787 
L 296.6715 70.384721 
L 300.735434 69.997981 
L 304.486758 69.855184 
L 308.238082 69.918015 
L 311.989407 70.186472 
L 316.053341 70.709345 
L 320.117276 71.473543 
L 324.18121 72.479068 
L 328.245145 73.725918 
L 332.309079 75.214095 
L 336.373014 76.943597 
L 340.436948 78.914425 
L 344.500883 81.126579 
L 346.689155 82.417697 
L 346.689155 82.417697 
" clip-path="url(#p9494aa50da)" style="fill: none; stroke:var(--c8); stroke-width: 2.5; stroke-linecap: square"/>
   </g>
   <g class="patch">
    <path d="M 117.636127 42.179667 
Q 127.851432 54.818642 137.363948 66.588085 
" style="fill: none; opacity: 0.7; stroke: #808080; stroke-linecap: round"/>
    <path d="M 136.500929 62.656775 
L 137.363948 66.588085 
L 133.701088 64.919714 
" style="fill: none; opacity: 0.7; stroke: #808080; stroke-linecap: round"/>
   </g>
   <g id="text_21" class="text">
    <g class="patch">
     <path d="M 75.827865 40.121453 
L 136.463959 40.121453 
Q 139.163959 40.121453 139.163959 37.421453 
L 139.163959 18.633109 
Q 139.163959 15.933109 136.463959 15.933109 
L 75.827865 15.933109 
Q 73.127865 15.933109 73.127865 18.633109 
L 73.127865 37.421453 
Q 73.127865 40.121453 75.827865 40.121453 
z
" style="fill:var(--white); opacity: 0.8; stroke:var(--black); stroke-linejoin: miter"/>
    </g>
    <!-- Jump -->
    <g transform="translate(94.295443 25.343734) scale(0.09 -0.09)">
     <defs>
      <path id="DejaVuSerif-4a" d="M -538 -1119 
L -538 -384 
L -181 -384 
Q -172 -694 -34 -845 
Q 103 -997 378 -997 
Q 750 -997 897 -762 
Q 1044 -528 1044 153 
L 1044 4331 
L 319 4331 
L 319 4666 
L 2272 4666 
L 2272 4331 
L 1678 4331 
L 1678 128 
Q 1678 -644 1368 -987 
Q 1059 -1331 372 -1331 
Q 150 -1331 -79 -1278 
Q -309 -1225 -538 -1119 
z
" transform="scale(0.015625)"/>
      <path id="DejaVuSerif-75" d="M 2266 3322 
L 3341 3322 
L 3341 331 
L 3884 331 
L 3884 0 
L 2766 0 
L 2766 588 
Q 2606 256 2353 82 
Q 2100 -91 1766 -91 
Q 1213 -91 952 223 
Q 691 538 691 1209 
L 691 2988 
L 172 2988 
L 172 3322 
L 1269 3322 
L 1269 1388 
Q 1269 781 1417 556 
Q 1566 331 1947 331 
Q 2347 331 2556 625 
Q 2766 919 2766 1478 
L 2766 2988 
L 2266 2988 
L 2266 3322 
z
" transform="scale(0.015625)"/>
      <path id="DejaVuSerif-6d" d="M 3316 2675 
Q 3481 3041 3739 3227 
Q 3997 3413 4341 3413 
Q 4863 3413 5119 3089 
Q 5375 2766 5375 2113 
L 5375 331 
L 5894 331 
L 5894 0 
L 4300 0 
L 4300 331 
L 4800 331 
L 4800 2047 
Q 4800 2556 4650 2772 
Q 4500 2988 4153 2988 
Q 3769 2988 3567 2697 
Q 3366 2406 3366 1850 
L 3366 331 
L 3866 331 
L 3866 0 
L 2291 0 
L 2291 331 
L 2791 331 
L 2791 2069 
Q 2791 2566 2641 2777 
Q 2491 2988 2144 2988 
Q 1759 2988 1557 2697 
Q 1356 2406 1356 1850 
L 1356 331 
L 1856 331 
L 1856 0 
L 263 0 
L 263 331 
L 781 331 
L 781 2994 
L 231 2994 
L 231 3322 
L 1356 3322 
L 1356 2731 
Q 1516 3063 1762 3238 
Q 2009 3413 2322 3413 
Q 2709 3413 2968 3220 
Q 3228 3028 3316 2675 
z
" transform="scale(0.015625)"/>
      <path id="DejaVuSerif-70" d="M 1313 1825 
L 1313 1497 
Q 1313 897 1542 583 
Q 1772 269 2209 269 
Q 2650 269 2876 622 
Q 3103 975 3103 1663 
Q 3103 2353 2876 2703 
Q 2650 3053 2209 3053 
Q 1772 3053 1542 2737 
Q 1313 2422 1313 1825 
z
M 738 2988 
L 184 2988 
L 184 3322 
L 1313 3322 
L 1313 2803 
Q 1481 3116 1742 3264 
Q 2003 3413 2388 3413 
Q 3000 3413 3387 2928 
Q 3775 2444 3775 1663 
Q 3775 881 3387 395 
Q 3000 -91 2388 -91 
Q 2003 -91 1742 57 
Q 1481 206 1313 519 
L 1313 -997 
L 1856 -997 
L 1856 -1331 
L 184 -1331 
L 184 -997 
L 738 -997 
L 738 2988 
z
" transform="scale(0.015625)"/>
     </defs>
     <use xlink:href="#DejaVuSerif-4a"/>
     <use xlink:href="#DejaVuSerif-75" transform="translate(40.087891 0)"/>
     <use xlink:href="#DejaVuSerif-6d" transform="translate(104.492188 0)"/>
     <use xlink:href="#DejaVuSerif-70" transform="translate(199.316406 0)"/>
    </g>
    <!-- Discontinuity -->
    <g transform="translate(75.827865 35.421766) scale(0.09 -0.09)">
     <defs>
      <path id="DejaVuSerif-44" d="M 1581 331 
L 2163 331 
Q 3072 331 3558 850 
Q 4044 1369 4044 2338 
Q 4044 3306 3559 3818 
Q 3075 4331 2163 4331 
L 1581 4331 
L 1581 331 
z
M 353 0 
L 353 331 
L 947 331 
L 947 4331 
L 353 4331 
L 353 4666 
L 2209 4666 
Q 3416 4666 4089 4050 
Q 4763 3434 4763 2338 
Q 4763 1238 4088 619 
Q 3413 0 2209 0 
L 353 0 
z
" transform="scale(0.015625)"/>
      <path id="DejaVuSerif-69" d="M 622 4353 
Q 622 4497 726 4603 
Q 831 4709 978 4709 
Q 1122 4709 1226 4603 
Q 1331 4497 1331 4353 
Q 1331 4206 1228 4103 
Q 1125 4000 978 4000 
Q 831 4000 726 4103 
Q 622 4206 622 4353 
z
M 1356 331 
L 1900 331 
L 1900 0 
L 231 0 
L 231 331 
L 781 331 
L 781 2988 
L 231 2988 
L 231 3322 
L 1356 3322 
L 1356 331 
z
" transform="scale(0.015625)"/>
      <path id="DejaVuSerif-73" d="M 359 184 
L 359 959 
L 691 959 
Q 703 588 923 403 
Q 1144 219 1575 219 
Q 1963 219 2166 364 
Q 2369 509 2369 788 
Q 2369 1006 2220 1140 
Q 2072 1275 1594 1428 
L 1178 1569 
Q 750 1706 558 1912 
Q 366 2119 366 2438 
Q 366 2894 700 3153 
Q 1034 3413 1625 3413 
Q 1888 3413 2178 3344 
Q 2469 3275 2778 3144 
L 2778 2419 
L 2447 2419 
Q 2434 2741 2221 2922 
Q 2009 3103 1644 3103 
Q 1281 3103 1095 2975 
Q 909 2847 909 2591 
Q 909 2381 1050 2254 
Q 1191 2128 1613 1997 
L 2069 1856 
Q 2541 1709 2748 1489 
Q 2956 1269 2956 922 
Q 2956 450 2595 179 
Q 2234 -91 1600 -91 
Q 1278 -91 972 -22 
Q 666 47 359 184 
z
" transform="scale(0.015625)"/>
      <path id="DejaVuSerif-63" d="M 3291 997 
Q 3169 466 2822 187 
Q 2475 -91 1925 -91 
Q 1200 -91 759 389 
Q 319 869 319 1663 
Q 319 2459 759 2936 
Q 1200 3413 1925 3413 
Q 2241 3413 2553 3339 
Q 2866 3266 3181 3116 
L 3181 2266 
L 2847 2266 
Q 2781 2703 2561 2903 
Q 2341 3103 1931 3103 
Q 1466 3103 1228 2742 
Q 991 2381 991 1663 
Q 991 944 1227 581 
Q 1463 219 1931 219 
Q 2303 219 2525 412 
Q 2747 606 2828 997 
L 3291 997 
z
" transform="scale(0.015625)"/>
      <path id="DejaVuSerif-6f" d="M 1925 219 
Q 2388 219 2623 584 
Q 2859 950 2859 1663 
Q 2859 2375 2623 2739 
Q 2388 3103 1925 3103 
Q 1463 3103 1227 2739 
Q 991 2375 991 1663 
Q 991 950 1228 584 
Q 1466 219 1925 219 
z
M 1925 -91 
Q 1200 -91 759 389 
Q 319 869 319 1663 
Q 319 2456 758 2934 
Q 1197 3413 1925 3413 
Q 2653 3413 3092 2934 
Q 3531 2456 3531 1663 
Q 3531 869 3092 389 
Q 2653 -91 1925 -91 
z
" transform="scale(0.015625)"/>
      <path id="DejaVuSerif-6e" d="M 263 0 
L 263 331 
L 781 331 
L 781 2988 
L 231 2988 
L 231 3322 
L 1356 3322 
L 1356 2731 
Q 1516 3069 1770 3241 
Q 2025 3413 2363 3413 
Q 2913 3413 3172 3097 
Q 3431 2781 3431 2113 
L 3431 331 
L 3944 331 
L 3944 0 
L 2356 0 
L 2356 331 
L 2853 331 
L 2853 1931 
Q 2853 2541 2703 2767 
Q 2553 2994 2175 2994 
Q 1775 2994 1565 2701 
Q 1356 2409 1356 1850 
L 1356 331 
L 1856 331 
L 1856 0 
L 263 0 
z
" transform="scale(0.015625)"/>
      <path id="DejaVuSerif-74" d="M 691 2988 
L 184 2988 
L 184 3322 
L 691 3322 
L 691 4353 
L 1269 4353 
L 1269 3322 
L 2350 3322 
L 2350 2988 
L 1269 2988 
L 1269 878 
Q 1269 456 1350 337 
Q 1431 219 1650 219 
Q 1875 219 1978 351 
Q 2081 484 2088 781 
L 2522 781 
Q 2497 328 2275 118 
Q 2053 -91 1600 -91 
Q 1103 -91 897 129 
Q 691 350 691 878 
L 691 2988 
z
" transform="scale(0.015625)"/>
      <path id="DejaVuSerif-79" d="M 1381 -609 
L 1600 -56 
L 359 2988 
L -19 2988 
L -19 3322 
L 1509 3322 
L 1509 2988 
L 978 2988 
L 1913 703 
L 2847 2988 
L 2350 2988 
L 2350 3322 
L 3597 3322 
L 3597 2988 
L 3225 2988 
L 1703 -750 
Q 1547 -1138 1356 -1280 
Q 1166 -1422 819 -1422 
Q 672 -1422 517 -1397 
Q 363 -1372 206 -1325 
L 206 -691 
L 500 -691 
Q 519 -903 608 -995 
Q 697 -1088 884 -1088 
Q 1056 -1088 1161 -992 
Q 1266 -897 1381 -609 
z
" transform="scale(0.015625)"/>
     </defs>
     <use xlink:href="#DejaVuSerif-44"/>
     <use xlink:href="#DejaVuSerif-69" transform="translate(80.175781 0)"/>
     <use xlink:href="#DejaVuSerif-73" transform="translate(112.158203 0)"/>
     <use xlink:href="#DejaVuSerif-63" transform="translate(163.476562 0)"/>
     <use xlink:href="#DejaVuSerif-6f" transform="translate(219.482422 0)"/>
     <use xlink:href="#DejaVuSerif-6e" transform="translate(279.6875 0)"/>
     <use xlink:href="#DejaVuSerif-74" transform="translate(344.091797 0)"/>
     <use xlink:href="#DejaVuSerif-69" transform="translate(384.277344 0)"/>
     <use xlink:href="#DejaVuSerif-6e" transform="translate(416.259766 0)"/>
     <use xlink:href="#DejaVuSerif-75" transform="translate(480.664062 0)"/>
     <use xlink:href="#DejaVuSerif-69" transform="translate(545.068359 0)"/>
     <use xlink:href="#DejaVuSerif-74" transform="translate(577.050781 0)"/>
     <use xlink:href="#DejaVuSerif-79" transform="translate(617.236328 0)"/>
    </g>
   </g>
   <g class="patch">
    <path d="M 161.626092 152.046318 
Q 170.508438 143.075084 178.604161 134.898346 
" style="fill: none; opacity: 0.7; stroke: #808080; stroke-linecap: round"/>
    <path d="M 174.792169 136.190133 
L 178.604161 134.898346 
L 177.350395 138.723012 
" style="fill: none; opacity: 0.7; stroke: #808080; stroke-linecap: round"/>
   </g>
   <g id="text_22" class="text">
    <g class="patch">
     <path d="M 123.813182 178.287869 
L 171.424588 178.287869 
Q 174.124588 178.287869 174.124588 175.587869 
L 174.124588 156.671556 
Q 174.124588 153.971556 171.424588 153.971556 
L 123.813182 153.971556 
Q 121.113182 153.971556 121.113182 156.671556 
L 121.113182 175.587869 
Q 121.113182 178.287869 123.813182 178.287869 
z
" style="fill:var(--white); opacity: 0.8; stroke:var(--black); stroke-linejoin: miter"/>
    </g>
    <!-- Stationary -->
    <g transform="translate(123.813182 163.51015) scale(0.09 -0.09)">
     <defs>
      <path id="DejaVuSerif-53" d="M 594 225 
L 594 1288 
L 953 1284 
Q 969 753 1261 498 
Q 1553 244 2150 244 
Q 2706 244 2998 464 
Q 3291 684 3291 1106 
Q 3291 1444 3114 1625 
Q 2938 1806 2369 1978 
L 1753 2163 
Q 1084 2366 811 2669 
Q 538 2972 538 3500 
Q 538 4094 959 4422 
Q 1381 4750 2144 4750 
Q 2469 4750 2856 4679 
Q 3244 4609 3681 4475 
L 3681 3481 
L 3328 3481 
Q 3275 3975 2998 4195 
Q 2722 4416 2156 4416 
Q 1663 4416 1405 4214 
Q 1147 4013 1147 3628 
Q 1147 3294 1340 3103 
Q 1534 2913 2163 2725 
L 2741 2553 
Q 3375 2363 3645 2067 
Q 3916 1772 3916 1275 
Q 3916 597 3481 253 
Q 3047 -91 2188 -91 
Q 1803 -91 1404 -12 
Q 1006 66 594 225 
z
" transform="scale(0.015625)"/>
      <path id="DejaVuSerif-61" d="M 2547 1044 
L 2547 1747 
L 1806 1747 
Q 1378 1747 1168 1562 
Q 959 1378 959 997 
Q 959 650 1171 447 
Q 1384 244 1747 244 
Q 2106 244 2326 466 
Q 2547 688 2547 1044 
z
M 3122 2075 
L 3122 331 
L 3634 331 
L 3634 0 
L 2547 0 
L 2547 359 
Q 2356 128 2106 18 
Q 1856 -91 1522 -91 
Q 969 -91 644 203 
Q 319 497 319 997 
Q 319 1513 691 1797 
Q 1063 2081 1741 2081 
L 2547 2081 
L 2547 2309 
Q 2547 2688 2317 2895 
Q 2088 3103 1672 3103 
Q 1328 3103 1125 2947 
Q 922 2791 872 2484 
L 575 2484 
L 575 3156 
Q 875 3284 1158 3348 
Q 1441 3413 1709 3413 
Q 2400 3413 2761 3070 
Q 3122 2728 3122 2075 
z
" transform="scale(0.015625)"/>
      <path id="DejaVuSerif-72" d="M 3059 3328 
L 3059 2497 
L 2728 2497 
Q 2713 2744 2591 2866 
Q 2469 2988 2234 2988 
Q 1809 2988 1582 2694 
Q 1356 2400 1356 1850 
L 1356 331 
L 2022 331 
L 2022 0 
L 263 0 
L 263 331 
L 781 331 
L 781 2994 
L 231 2994 
L 231 3322 
L 1356 3322 
L 1356 2731 
Q 1525 3078 1790 3245 
Q 2056 3413 2438 3413 
Q 2578 3413 2733 3391 
Q 2888 3369 3059 3328 
z
" transform="scale(0.015625)"/>
     </defs>
     <use xlink:href="#DejaVuSerif-53"/>
     <use xlink:href="#DejaVuSerif-74" transform="translate(68.505859 0)"/>
     <use xlink:href="#DejaVuSerif-61" transform="translate(108.691406 0)"/>
     <use xlink:href="#DejaVuSerif-74" transform="translate(168.310547 0)"/>
     <use xlink:href="#DejaVuSerif-69" transform="translate(208.496094 0)"/>
     <use xlink:href="#DejaVuSerif-6f" transform="translate(240.478516 0)"/>
     <use xlink:href="#DejaVuSerif-6e" transform="translate(300.683594 0)"/>
     <use xlink:href="#DejaVuSerif-61" transform="translate(365.087891 0)"/>
     <use xlink:href="#DejaVuSerif-72" transform="translate(424.707031 0)"/>
     <use xlink:href="#DejaVuSerif-79" transform="translate(472.509766 0)"/>
    </g>
    <!-- Point -->
    <g transform="translate(135.916073 173.71615) scale(0.09 -0.09)">
     <defs>
      <path id="DejaVuSerif-50" d="M 1581 2375 
L 2406 2375 
Q 2872 2375 3115 2626 
Q 3359 2878 3359 3353 
Q 3359 3831 3115 4081 
Q 2872 4331 2406 4331 
L 1581 4331 
L 1581 2375 
z
M 353 0 
L 353 331 
L 947 331 
L 947 4331 
L 353 4331 
L 353 4666 
L 2559 4666 
Q 3259 4666 3668 4311 
Q 4078 3956 4078 3353 
Q 4078 2753 3668 2397 
Q 3259 2041 2559 2041 
L 1581 2041 
L 1581 331 
L 2303 331 
L 2303 0 
L 353 0 
z
" transform="scale(0.015625)"/>
     </defs>
     <use xlink:href="#DejaVuSerif-50"/>
     <use xlink:href="#DejaVuSerif-6f" transform="translate(63.285156 0)"/>
     <use xlink:href="#DejaVuSerif-69" transform="translate(123.490234 0)"/>
     <use xlink:href="#DejaVuSerif-6e" transform="translate(155.472656 0)"/>
     <use xlink:href="#DejaVuSerif-74" transform="translate(219.876953 0)"/>
    </g>
   </g>
   <g class="patch">
    <path d="M 239.033679 148.119815 
Q 231.416258 141.676383 224.652443 135.955 
" style="fill: none; opacity: 0.7; stroke: #808080; stroke-linecap: round"/>
    <path d="M 226.238526 139.654235 
L 224.652443 135.955 
L 228.563481 136.905675 
" style="fill: none; opacity: 0.7; stroke: #808080; stroke-linecap: round"/>
   </g>
   <g id="text_23" class="text">
    <g class="patch">
     <path d="M 209.929709 174.099069 
L 300.967521 174.099069 
Q 303.667521 174.099069 303.667521 171.399069 
L 303.667521 152.610725 
Q 303.667521 149.910725 300.967521 149.910725 
L 209.929709 149.910725 
Q 207.229709 149.910725 207.229709 152.610725 
L 207.229709 171.399069 
Q 207.229709 174.099069 209.929709 174.099069 
z
" style="fill:var(--white); opacity: 0.8; stroke:var(--black); stroke-linejoin: miter"/>
    </g>
    <!-- Sharp Corner -->
    <g transform="translate(224.307209 159.449319) scale(0.09 -0.09)">
     <defs>
      <path id="DejaVuSerif-68" d="M 263 0 
L 263 331 
L 781 331 
L 781 4531 
L 231 4531 
L 231 4863 
L 1356 4863 
L 1356 2731 
Q 1516 3069 1770 3241 
Q 2025 3413 2363 3413 
Q 2913 3413 3172 3097 
Q 3431 2781 3431 2113 
L 3431 331 
L 3944 331 
L 3944 0 
L 2356 0 
L 2356 331 
L 2853 331 
L 2853 1931 
Q 2853 2541 2704 2764 
Q 2556 2988 2175 2988 
Q 1775 2988 1565 2697 
Q 1356 2406 1356 1850 
L 1356 331 
L 1856 331 
L 1856 0 
L 263 0 
z
" transform="scale(0.015625)"/>
      <path id="DejaVuSerif-20" transform="scale(0.015625)"/>
      <path id="DejaVuSerif-43" d="M 4513 1234 
Q 4306 581 3820 245 
Q 3334 -91 2591 -91 
Q 2134 -91 1743 65 
Q 1353 222 1050 525 
Q 700 875 529 1320 
Q 359 1766 359 2328 
Q 359 3416 987 4083 
Q 1616 4750 2644 4750 
Q 3025 4750 3456 4650 
Q 3888 4550 4384 4347 
L 4384 3272 
L 4031 3272 
Q 3916 3859 3567 4137 
Q 3219 4416 2591 4416 
Q 1844 4416 1459 3886 
Q 1075 3356 1075 2328 
Q 1075 1303 1459 773 
Q 1844 244 2591 244 
Q 3113 244 3450 492 
Q 3788 741 3938 1234 
L 4513 1234 
z
" transform="scale(0.015625)"/>
      <path id="DejaVuSerif-65" d="M 3469 1600 
L 991 1600 
L 991 1575 
Q 991 903 1244 561 
Q 1497 219 1991 219 
Q 2369 219 2611 417 
Q 2853 616 2950 1006 
L 3413 1006 
Q 3275 459 2904 184 
Q 2534 -91 1931 -91 
Q 1203 -91 761 389 
Q 319 869 319 1663 
Q 319 2450 753 2931 
Q 1188 3413 1894 3413 
Q 2647 3413 3050 2948 
Q 3453 2484 3469 1600 
z
M 2791 1931 
Q 2772 2513 2545 2808 
Q 2319 3103 1894 3103 
Q 1497 3103 1269 2806 
Q 1041 2509 991 1931 
L 2791 1931 
z
" transform="scale(0.015625)"/>
     </defs>
     <use xlink:href="#DejaVuSerif-53"/>
     <use xlink:href="#DejaVuSerif-68" transform="translate(68.505859 0)"/>
     <use xlink:href="#DejaVuSerif-61" transform="translate(132.910156 0)"/>
     <use xlink:href="#DejaVuSerif-72" transform="translate(192.529297 0)"/>
     <use xlink:href="#DejaVuSerif-70" transform="translate(240.332031 0)"/>
     <use xlink:href="#DejaVuSerif-20" transform="translate(304.345703 0)"/>
     <use xlink:href="#DejaVuSerif-43" transform="translate(336.132812 0)"/>
     <use xlink:href="#DejaVuSerif-6f" transform="translate(412.646484 0)"/>
     <use xlink:href="#DejaVuSerif-72" transform="translate(472.851562 0)"/>
     <use xlink:href="#DejaVuSerif-6e" transform="translate(520.654297 0)"/>
     <use xlink:href="#DejaVuSerif-65" transform="translate(585.058594 0)"/>
     <use xlink:href="#DejaVuSerif-72" transform="translate(644.238281 0)"/>
    </g>
    <!-- (Non-differentiable) -->
    <g transform="translate(209.929709 169.52735) scale(0.09 -0.09)">
     <defs>
      <path id="DejaVuSerif-4e" d="M 313 0 
L 313 331 
L 941 331 
L 941 4331 
L 313 4331 
L 313 4666 
L 1509 4666 
L 4306 984 
L 4306 4331 
L 3681 4331 
L 3681 4666 
L 5319 4666 
L 5319 4331 
L 4691 4331 
L 4691 -91 
L 4313 -91 
L 1325 3841 
L 1325 331 
L 1953 331 
L 1953 0 
L 313 0 
z
" transform="scale(0.015625)"/>
      <path id="DejaVuSerif-2d" d="M 281 1959 
L 1881 1959 
L 1881 1472 
L 281 1472 
L 281 1959 
z
" transform="scale(0.015625)"/>
      <path id="DejaVuSerif-64" d="M 3359 331 
L 3909 331 
L 3909 0 
L 2784 0 
L 2784 519 
Q 2616 206 2355 57 
Q 2094 -91 1709 -91 
Q 1097 -91 708 395 
Q 319 881 319 1663 
Q 319 2444 706 2928 
Q 1094 3413 1709 3413 
Q 2094 3413 2355 3264 
Q 2616 3116 2784 2803 
L 2784 4531 
L 2241 4531 
L 2241 4863 
L 3359 4863 
L 3359 331 
z
M 2784 1497 
L 2784 1825 
Q 2784 2422 2554 2737 
Q 2325 3053 1888 3053 
Q 1444 3053 1217 2703 
Q 991 2353 991 1663 
Q 991 975 1217 622 
Q 1444 269 1888 269 
Q 2325 269 2554 583 
Q 2784 897 2784 1497 
z
" transform="scale(0.015625)"/>
      <path id="DejaVuSerif-62" d="M 738 331 
L 738 4531 
L 184 4531 
L 184 4863 
L 1313 4863 
L 1313 2803 
Q 1481 3116 1742 3264 
Q 2003 3413 2388 3413 
Q 3000 3413 3387 2928 
Q 3775 2444 3775 1663 
Q 3775 881 3387 395 
Q 3000 -91 2388 -91 
Q 2003 -91 1742 57 
Q 1481 206 1313 519 
L 1313 0 
L 184 0 
L 184 331 
L 738 331 
z
M 1313 1497 
Q 1313 897 1542 583 
Q 1772 269 2209 269 
Q 2650 269 2876 622 
Q 3103 975 3103 1663 
Q 3103 2353 2876 2703 
Q 2650 3053 2209 3053 
Q 1772 3053 1542 2737 
Q 1313 2422 1313 1825 
L 1313 1497 
z
" transform="scale(0.015625)"/>
      <path id="DejaVuSerif-6c" d="M 1313 331 
L 1856 331 
L 1856 0 
L 184 0 
L 184 331 
L 738 331 
L 738 4531 
L 184 4531 
L 184 4863 
L 1313 4863 
L 1313 331 
z
" transform="scale(0.015625)"/>
     </defs>
     <use xlink:href="#DejaVuSerif-28"/>
     <use xlink:href="#DejaVuSerif-4e" transform="translate(39.013672 0)"/>
     <use xlink:href="#DejaVuSerif-6f" transform="translate(126.513672 0)"/>
     <use xlink:href="#DejaVuSerif-6e" transform="translate(186.71875 0)"/>
     <use xlink:href="#DejaVuSerif-2d" transform="translate(251.123047 0)"/>
     <use xlink:href="#DejaVuSerif-64" transform="translate(284.912109 0)"/>
     <use xlink:href="#DejaVuSerif-69" transform="translate(348.925781 0)"/>
     <use xlink:href="#DejaVuSerif-66" transform="translate(380.908203 0)"/>
     <use xlink:href="#DejaVuSerif-66" transform="translate(417.919922 0)"/>
     <use xlink:href="#DejaVuSerif-65" transform="translate(454.931641 0)"/>
     <use xlink:href="#DejaVuSerif-72" transform="translate(514.111328 0)"/>
     <use xlink:href="#DejaVuSerif-65" transform="translate(561.914062 0)"/>
     <use xlink:href="#DejaVuSerif-6e" transform="translate(621.09375 0)"/>
     <use xlink:href="#DejaVuSerif-74" transform="translate(685.498047 0)"/>
     <use xlink:href="#DejaVuSerif-69" transform="translate(725.683594 0)"/>
     <use xlink:href="#DejaVuSerif-61" transform="translate(757.666016 0)"/>
     <use xlink:href="#DejaVuSerif-62" transform="translate(817.285156 0)"/>
     <use xlink:href="#DejaVuSerif-6c" transform="translate(881.298828 0)"/>
     <use xlink:href="#DejaVuSerif-65" transform="translate(913.28125 0)"/>
     <use xlink:href="#DejaVuSerif-29" transform="translate(972.460938 0)"/>
    </g>
   </g>
   <g class="patch">
    <path d="M 315.891278 54.756605 
Q 311.131009 61.487673 307.016299 67.305914 
" style="fill: none; opacity: 0.7; stroke: #808080; stroke-linecap: round"/>
    <path d="M 310.564583 65.405997 
L 307.016299 67.305914 
L 307.625336 63.327337 
" style="fill: none; opacity: 0.7; stroke: #808080; stroke-linecap: round"/>
   </g>
   <g id="text_24" class="text">
    <g class="patch">
     <path d="M 302.146966 52.623869 
L 349.758372 52.623869 
Q 352.458372 52.623869 352.458372 49.923869 
L 352.458372 31.007556 
Q 352.458372 28.307556 349.758372 28.307556 
L 302.146966 28.307556 
Q 299.446966 28.307556 299.446966 31.007556 
L 299.446966 49.923869 
Q 299.446966 52.623869 302.146966 52.623869 
z
" style="fill:var(--white); opacity: 0.8; stroke:var(--black); stroke-linejoin: miter"/>
    </g>
    <!-- Stationary -->
    <g transform="translate(302.146966 37.84615) scale(0.09 -0.09)">
     <use xlink:href="#DejaVuSerif-53"/>
     <use xlink:href="#DejaVuSerif-74" transform="translate(68.505859 0)"/>
     <use xlink:href="#DejaVuSerif-61" transform="translate(108.691406 0)"/>
     <use xlink:href="#DejaVuSerif-74" transform="translate(168.310547 0)"/>
     <use xlink:href="#DejaVuSerif-69" transform="translate(208.496094 0)"/>
     <use xlink:href="#DejaVuSerif-6f" transform="translate(240.478516 0)"/>
     <use xlink:href="#DejaVuSerif-6e" transform="translate(300.683594 0)"/>
     <use xlink:href="#DejaVuSerif-61" transform="translate(365.087891 0)"/>
     <use xlink:href="#DejaVuSerif-72" transform="translate(424.707031 0)"/>
     <use xlink:href="#DejaVuSerif-79" transform="translate(472.509766 0)"/>
    </g>
    <!-- Point -->
    <g transform="translate(314.249856 48.05215) scale(0.09 -0.09)">
     <use xlink:href="#DejaVuSerif-50"/>
     <use xlink:href="#DejaVuSerif-6f" transform="translate(63.285156 0)"/>
     <use xlink:href="#DejaVuSerif-69" transform="translate(123.490234 0)"/>
     <use xlink:href="#DejaVuSerif-6e" transform="translate(155.472656 0)"/>
     <use xlink:href="#DejaVuSerif-74" transform="translate(219.876953 0)"/>
    </g>
   </g>
   <g class="patch">
    <path d="M 80.974703 199.558946 
Q 69.569763 193.799411 59.162818 188.543866 
" style="fill: none; opacity: 0.7; stroke: #808080; stroke-linecap: round"/>
    <path d="M 61.564889 191.773425 
L 59.162818 188.543866 
L 63.187708 188.559945 
" style="fill: none; opacity: 0.7; stroke: #808080; stroke-linecap: round"/>
   </g>
   <g id="text_25" class="text">
    <g class="patch">
     <path d="M 60.306552 215.200837 
L 135.396083 215.200837 
Q 138.096083 215.200837 138.096083 212.500837 
L 138.096083 203.662556 
Q 138.096083 200.962556 135.396083 200.962556 
L 60.306552 200.962556 
Q 57.606552 200.962556 57.606552 203.662556 
L 57.606552 212.500837 
Q 57.606552 215.200837 60.306552 215.200837 
z
" style="fill:var(--white); opacity: 0.8; stroke:var(--black); stroke-linejoin: miter"/>
    </g>
    <!-- Boundary points -->
    <g transform="translate(60.306552 210.50115) scale(0.09 -0.09)">
     <defs>
      <path id="DejaVuSerif-42" d="M 1581 331 
L 2516 331 
Q 3078 331 3337 575 
Q 3597 819 3597 1350 
Q 3597 1878 3339 2120 
Q 3081 2363 2516 2363 
L 1581 2363 
L 1581 331 
z
M 1581 2694 
L 2375 2694 
Q 2888 2694 3123 2891 
Q 3359 3088 3359 3513 
Q 3359 3941 3123 4136 
Q 2888 4331 2375 4331 
L 1581 4331 
L 1581 2694 
z
M 353 0 
L 353 331 
L 947 331 
L 947 4331 
L 353 4331 
L 353 4666 
L 2656 4666 
Q 3363 4666 3720 4377 
Q 4078 4088 4078 3513 
Q 4078 3097 3829 2850 
Q 3581 2603 3103 2547 
Q 3697 2472 4005 2167 
Q 4313 1863 4313 1350 
Q 4313 656 3875 328 
Q 3438 0 2509 0 
L 353 0 
z
" transform="scale(0.015625)"/>
     </defs>
     <use xlink:href="#DejaVuSerif-42"/>
     <use xlink:href="#DejaVuSerif-6f" transform="translate(73.486328 0)"/>
     <use xlink:href="#DejaVuSerif-75" transform="translate(133.691406 0)"/>
     <use xlink:href="#DejaVuSerif-6e" transform="translate(198.095703 0)"/>
     <use xlink:href="#DejaVuSerif-64" transform="translate(262.5 0)"/>
     <use xlink:href="#DejaVuSerif-61" transform="translate(326.513672 0)"/>
     <use xlink:href="#DejaVuSerif-72" transform="translate(386.132812 0)"/>
     <use xlink:href="#DejaVuSerif-79" transform="translate(433.935547 0)"/>
     <use xlink:href="#DejaVuSerif-20" transform="translate(490.429688 0)"/>
     <use xlink:href="#DejaVuSerif-70" transform="translate(522.216797 0)"/>
     <use xlink:href="#DejaVuSerif-6f" transform="translate(586.230469 0)"/>
     <use xlink:href="#DejaVuSerif-69" transform="translate(646.435547 0)"/>
     <use xlink:href="#DejaVuSerif-6e" transform="translate(678.417969 0)"/>
     <use xlink:href="#DejaVuSerif-74" transform="translate(742.822266 0)"/>
     <use xlink:href="#DejaVuSerif-73" transform="translate(783.007812 0)"/>
    </g>
   </g>
   <g class="patch">
    <path d="M 322.092797 199.558946 
Q 333.497737 193.799411 343.904682 188.543866 
" style="fill: none; opacity: 0.7; stroke: #808080; stroke-linecap: round"/>
    <path d="M 339.879792 188.559945 
L 343.904682 188.543866 
L 341.502611 191.773425 
" style="fill: none; opacity: 0.7; stroke: #808080; stroke-linecap: round"/>
   </g>
   <g id="text_26" class="text">
    <g class="patch">
     <path d="M 267.671417 215.200837 
L 342.760948 215.200837 
Q 345.460948 215.200837 345.460948 212.500837 
L 345.460948 203.662556 
Q 345.460948 200.962556 342.760948 200.962556 
L 267.671417 200.962556 
Q 264.971417 200.962556 264.971417 203.662556 
L 264.971417 212.500837 
Q 264.971417 215.200837 267.671417 215.200837 
z
" style="fill:var(--white); opacity: 0.8; stroke:var(--black); stroke-linejoin: miter"/>
    </g>
    <!-- Boundary points -->
    <g transform="translate(267.671417 210.50115) scale(0.09 -0.09)">
     <use xlink:href="#DejaVuSerif-42"/>
     <use xlink:href="#DejaVuSerif-6f" transform="translate(73.486328 0)"/>
     <use xlink:href="#DejaVuSerif-75" transform="translate(133.691406 0)"/>
     <use xlink:href="#DejaVuSerif-6e" transform="translate(198.095703 0)"/>
     <use xlink:href="#DejaVuSerif-64" transform="translate(262.5 0)"/>
     <use xlink:href="#DejaVuSerif-61" transform="translate(326.513672 0)"/>
     <use xlink:href="#DejaVuSerif-72" transform="translate(386.132812 0)"/>
     <use xlink:href="#DejaVuSerif-79" transform="translate(433.935547 0)"/>
     <use xlink:href="#DejaVuSerif-20" transform="translate(490.429688 0)"/>
     <use xlink:href="#DejaVuSerif-70" transform="translate(522.216797 0)"/>
     <use xlink:href="#DejaVuSerif-6f" transform="translate(586.230469 0)"/>
     <use xlink:href="#DejaVuSerif-69" transform="translate(646.435547 0)"/>
     <use xlink:href="#DejaVuSerif-6e" transform="translate(678.417969 0)"/>
     <use xlink:href="#DejaVuSerif-74" transform="translate(742.822266 0)"/>
     <use xlink:href="#DejaVuSerif-73" transform="translate(783.007812 0)"/>
    </g>
   </g>
   <g id="PathCollection_1">
    <defs>
     <path id="m4e9008e49c" d="M 0 4.472136 
C 1.186024 4.472136 2.323632 4.000923 3.162278 3.162278 
C 4.000923 2.323632 4.472136 1.186024 4.472136 0 
C 4.472136 -1.186024 4.000923 -2.323632 3.162278 -3.162278 
C 2.323632 -4.000923 1.186024 -4.472136 0 -4.472136 
C -1.186024 -4.472136 -2.323632 -4.000923 -3.162278 -3.162278 
C -4.000923 -2.323632 -4.472136 -1.186024 -4.472136 0 
C -4.472136 1.186024 -4.000923 2.323632 -3.162278 3.162278 
C -2.323632 4.000923 -1.186024 4.472136 0 4.472136 
z
" style="stroke:var(--white); stroke-width: 2"/>
    </defs>
    <g clip-path="url(#p9494aa50da)">
     <use xlink:href="#m4e9008e49c" x="139.324291" y="90.795297" style="fill:var(--c8); stroke:var(--white); stroke-width: 2"/>
    </g>
   </g>
   <g id="PathCollection_2">
    <path d="M 139.324291 74.323433 
C 140.510315 74.323433 141.647922 73.85222 142.486568 73.013575 
C 143.325214 72.174929 143.796426 71.037321 143.796426 69.851297 
C 143.796426 68.665273 143.325214 67.527665 142.486568 66.689019 
C 141.647922 65.850373 140.510315 65.379161 139.324291 65.379161 
C 138.138266 65.379161 137.000659 65.850373 136.162013 66.689019 
C 135.323367 67.527665 134.852155 68.665273 134.852155 69.851297 
C 134.852155 71.037321 135.323367 72.174929 136.162013 73.013575 
C 137.000659 73.85222 138.138266 74.323433 139.324291 74.323433 
L 139.324291 74.323433 
z
" clip-path="url(#p9494aa50da)" style="fill: none; stroke:var(--c8); stroke-width: 2"/>
   </g>
   <g id="PathCollection_3">
    <defs>
     <path id="m18e03dddb9" d="M -0 6.324555 
L 6.324555 0 
L 0 -6.324555 
L -6.324555 -0 
z
" style="stroke:var(--white); stroke-width: 2"/>
    </defs>
    <g clip-path="url(#p9494aa50da)">
     <use xlink:href="#m18e03dddb9" x="222.270236" y="132.683297" style="fill:var(--c8); stroke:var(--white); stroke-width: 2"/>
    </g>
   </g>
   <g id="PathCollection_4">
    <defs>
     <path id="mc3f4b5069d" d="M -0 4.472136 
L 4.472136 -4.472136 
L -4.472136 -4.472136 
z
" style="stroke:var(--white); stroke-width: 2"/>
    </defs>
    <g clip-path="url(#p9494aa50da)">
     <use xlink:href="#mc3f4b5069d" x="180.797264" y="132.683297" style="fill:var(--c1); stroke:var(--white); stroke-width: 2"/>
    </g>
   </g>
   <g id="PathCollection_5">
    <defs>
     <path id="m03f9004fae" d="M 0 -4.472136 
L -4.472136 4.472136 
L 4.472136 4.472136 
z
" style="stroke:var(--white); stroke-width: 2"/>
    </defs>
    <g clip-path="url(#p9494aa50da)">
     <use xlink:href="#m03f9004fae" x="305.216182" y="69.851297" style="fill:var(--c1); stroke:var(--white); stroke-width: 2"/>
    </g>
   </g>
  </g>
 </g>
 <defs>
  <clipPath id="p9494aa50da">
   <rect x="48.08375" y="7.019297" width="306.9" height="188.496"/>
  </clipPath>
 </defs>
</svg>
