<svg xmlns="http://www.w3.org/2000/svg" xmlns:xlink="http://www.w3.org/1999/xlink" width="557.889" height="422.137" style="--axis-color:#000;--grid-stroke:rgba(0,0,0,0.2);--plot3d-stroke:rgba(0,0,0,0.3);--plot3d-grid:rgba(0,0,0,0.2);--black:#000000;--c1:#FF0001;--c2:#00FF02;--c3:#0000FF;--c4:#FF00FF;--c5:#00FFFF;--c6:#FFFF00;--c7:#FF8000;--c8:#8000FF;--gray:#7f7f7f;--grey:#7f7f7f;--octonary:#bcbd22;--primary:#d62728;--quaternary:#9467bd;--quinary:#8c564b;--secondary:#2ca02c;--senary:#e377c2;--septenary:#7f7f7f;--tertiary:#1f77b4;--white:#ffffff" viewBox="0 0 418.417 316.603"><style><![CDATA[@media (prefers-color-scheme:dark){:root{--axis-color:#fff;--grid-stroke:rgba(255,255,255,0.2);--plot3d-stroke:rgba(255,255,255,0.3);--plot3d-grid:rgba(255,255,255,0.2);--black:#FFFFFF;--c1:#FF0001;--c2:#00FF02;--c3:#0000FF;--c4:#FF00FF;--c5:#00FFFF;--c6:#FFFF00;--c7:#FF8000;--c8:#8000FF;--gray:#CCCCCC;--grey:#CCCCCC;--octonary:#E6DB74;--primary:#FF4A98;--quaternary:#B4A0FF;--quinary:#FFB86B;--secondary:#0AFAFA;--senary:#FF79C6;--septenary:#CCCCCC;--tertiary:#7F83FF;--white:#000000}}.text{fill:var(--axis-color)!important;stroke:none!important}.axis path,.patch path[style*="stroke: currentColor"],.tick path{stroke:var(--axis-color)!important}*{stroke-linejoin:round;stroke-linecap:butt}]]></style><g id="figure_1"><path d="M0 316.603h418.417V0H0z" class="patch" style="fill:none"/><g id="axes_1"><path d="M54.097 277.111h357.12V11H54.097z" class="patch" style="fill:none"/><path id="line2d_1" d="M160.267 277.111V11" clip-path="url(#p710623140c)" style="fill:none;stroke-dasharray:3.7,1.6;stroke-dashoffset:0;stroke:gray;stroke-opacity:.5"/><path id="line2d_2" d="M208.527 277.111V11" clip-path="url(#p710623140c)" style="fill:none;stroke-dasharray:3.7,1.6;stroke-dashoffset:0;stroke:gray;stroke-opacity:.5"/><path id="line2d_3" d="M353.305 277.111V11" clip-path="url(#p710623140c)" style="fill:none;stroke-dasharray:3.7,1.6;stroke-dashoffset:0;stroke:gray;stroke-opacity:.5"/><g class="axis"><g class="tick xtick"><path id="line2d_4" d="M63.748 277.111V11" clip-path="url(#p710623140c)" style="fill:none;stroke:#b0b0b0;stroke-opacity:.15;stroke-width:.8;stroke-linecap:square"/><g id="line2d_5"><defs><path id="md0127d144e" d="M0 0v3.5" style="stroke:var(--black);stroke-width:.8"/></defs><use xlink:href="#md0127d144e" x="63.748" y="277.111" style="stroke:var(--black);stroke-width:.8"/></g><g id="text_1" class="text" transform="matrix(.1 0 0 -.1 56.377 291.71)"><defs><path id="DejaVuSans-2212" d="M678 2272h4006v-531H678z" transform="scale(.01563)"/><path id="DejaVuSans-31" d="M794 531h1031v3560L703 3866v575l1116 225h631V531h1031V0H794z" transform="scale(.01563)"/></defs><use xlink:href="#DejaVuSans-2212"/><use xlink:href="#DejaVuSans-31" transform="translate(83.79)"/></g></g><g class="tick xtick"><path id="line2d_6" d="M112.008 277.111V11" clip-path="url(#p710623140c)" style="fill:none;stroke:#b0b0b0;stroke-opacity:.15;stroke-width:.8;stroke-linecap:square"/><use xlink:href="#md0127d144e" id="line2d_7" x="112.008" y="277.111" style="stroke:var(--black);stroke-width:.8"/><g id="text_2" class="text" transform="matrix(.1 0 0 -.1 108.827 291.71)"><defs><path id="DejaVuSans-30" d="M2034 4250q-487 0-733-480-245-479-245-1442 0-959 245-1439 246-480 733-480 491 0 736 480 246 480 246 1439 0 963-246 1442-245 480-736 480zm0 500q785 0 1199-621 414-620 414-1801 0-1178-414-1799Q2819-91 2034-91q-784 0-1198 620-414 621-414 1799 0 1181 414 1801 414 621 1198 621z" transform="scale(.01563)"/></defs><use xlink:href="#DejaVuSans-30"/></g></g><g class="tick xtick"><path id="line2d_8" d="M160.267 277.111V11" clip-path="url(#p710623140c)" style="fill:none;stroke:#b0b0b0;stroke-opacity:.15;stroke-width:.8;stroke-linecap:square"/><use xlink:href="#md0127d144e" id="line2d_9" x="160.267" y="277.111" style="stroke:var(--black);stroke-width:.8"/><use xlink:href="#DejaVuSans-31" id="text_3" class="text" transform="matrix(.1 0 0 -.1 157.086 291.71)"/></g><g class="tick xtick"><path id="line2d_10" d="M208.527 277.111V11" clip-path="url(#p710623140c)" style="fill:none;stroke:#b0b0b0;stroke-opacity:.15;stroke-width:.8;stroke-linecap:square"/><use xlink:href="#md0127d144e" id="line2d_11" x="208.527" y="277.111" style="stroke:var(--black);stroke-width:.8"/><g id="text_4" class="text" transform="matrix(.1 0 0 -.1 205.346 291.71)"><defs><path id="DejaVuSans-32" d="M1228 531h2203V0H469v531q359 372 979 998 621 627 780 809 303 340 423 576 121 236 121 464 0 372-261 606-261 235-680 235-297 0-627-103-329-103-704-313v638q381 153 712 231 332 78 607 78 725 0 1156-363 431-362 431-968 0-288-108-546-107-257-392-607-78-91-497-524-418-433-1181-1211z" transform="scale(.01563)"/></defs><use xlink:href="#DejaVuSans-32"/></g></g><g class="tick xtick"><path id="line2d_12" d="M256.786 277.111V11" clip-path="url(#p710623140c)" style="fill:none;stroke:#b0b0b0;stroke-opacity:.15;stroke-width:.8;stroke-linecap:square"/><use xlink:href="#md0127d144e" id="line2d_13" x="256.786" y="277.111" style="stroke:var(--black);stroke-width:.8"/><g id="text_5" class="text" transform="matrix(.1 0 0 -.1 253.605 291.71)"><defs><path id="DejaVuSans-33" d="M2597 2516q453-97 707-404 255-306 255-756 0-690-475-1069Q2609-91 1734-91q-293 0-604 58T488 141v609q262-153 574-231 313-78 654-78 593 0 904 234t311 681q0 413-289 645-289 233-804 233h-544v519h569q465 0 712 186t247 536q0 359-255 551-254 193-729 193-260 0-557-57-297-56-653-174v562q360 100 674 150t592 50q719 0 1137-327 419-326 419-882 0-388-222-655t-631-370z" transform="scale(.01563)"/></defs><use xlink:href="#DejaVuSans-33"/></g></g><g class="tick xtick"><path id="line2d_14" d="M305.046 277.111V11" clip-path="url(#p710623140c)" style="fill:none;stroke:#b0b0b0;stroke-opacity:.15;stroke-width:.8;stroke-linecap:square"/><use xlink:href="#md0127d144e" id="line2d_15" x="305.046" y="277.111" style="stroke:var(--black);stroke-width:.8"/><g id="text_6" class="text" transform="matrix(.1 0 0 -.1 301.865 291.71)"><defs><path id="DejaVuSans-34" d="M2419 4116 825 1625h1594zm-166 550h794V1625h666v-525h-666V0h-628v1100H313v609z" transform="scale(.01563)"/></defs><use xlink:href="#DejaVuSans-34"/></g></g><g class="tick xtick"><path id="line2d_16" d="M353.305 277.111V11" clip-path="url(#p710623140c)" style="fill:none;stroke:#b0b0b0;stroke-opacity:.15;stroke-width:.8;stroke-linecap:square"/><use xlink:href="#md0127d144e" id="line2d_17" x="353.305" y="277.111" style="stroke:var(--black);stroke-width:.8"/><g id="text_7" class="text" transform="matrix(.1 0 0 -.1 350.124 291.71)"><defs><path id="DejaVuSans-35" d="M691 4666h2478v-532H1269V2991q137 47 274 70 138 23 276 23 781 0 1237-428 457-428 457-1159 0-753-469-1171Q2575-91 1722-91q-294 0-599 50Q819 9 494 109v635q281-153 581-228t634-75q541 0 856 284 316 284 316 772 0 487-316 771-315 285-856 285-253 0-505-56-251-56-513-175z" transform="scale(.01563)"/></defs><use xlink:href="#DejaVuSans-35"/></g></g><g class="tick xtick"><path id="line2d_18" d="M401.565 277.111V11" clip-path="url(#p710623140c)" style="fill:none;stroke:#b0b0b0;stroke-opacity:.15;stroke-width:.8;stroke-linecap:square"/><use xlink:href="#md0127d144e" id="line2d_19" x="401.565" y="277.111" style="stroke:var(--black);stroke-width:.8"/><g id="text_8" class="text" transform="matrix(.1 0 0 -.1 398.383 291.71)"><defs><path id="DejaVuSans-36" d="M2113 2584q-425 0-674-291-248-290-248-796 0-503 248-796 249-292 674-292t673 292q248 293 248 796 0 506-248 796-248 291-673 291zm1253 1979v-575q-238 112-480 171-242 60-480 60-625 0-955-422-329-422-376-1275 184 272 462 417 279 145 613 145 703 0 1111-427 408-426 408-1160 0-719-425-1154Q2819-91 2113-91q-810 0-1238 620-428 621-428 1799 0 1106 525 1764t1409 658q238 0 480-47t505-140z" transform="scale(.01563)"/></defs><use xlink:href="#DejaVuSans-36"/></g></g><g id="text_9" class="text" transform="matrix(.12 0 0 -.12 229.105 306.907)"><defs><path id="DejaVuSans-78" d="M3513 3500 2247 1797 3578 0h-678L1881 1375 863 0H184l1360 1831L300 3500h678l928-1247 928 1247z" transform="scale(.01563)"/></defs><use xlink:href="#DejaVuSans-78"/></g></g><g class="axis"><g class="tick ytick"><path id="line2d_20" d="M54.097 277.111h357.12" clip-path="url(#p710623140c)" style="fill:none;stroke:#b0b0b0;stroke-opacity:.15;stroke-width:.8;stroke-linecap:square"/><g id="line2d_21"><defs><path id="ma0ff90b96d" d="M0 0h-3.5" style="stroke:var(--black);stroke-width:.8"/></defs><use xlink:href="#ma0ff90b96d" x="54.097" y="277.111" style="stroke:var(--black);stroke-width:.8"/></g><g id="text_10" class="text" transform="matrix(.1 0 0 -.1 22.814 280.91)"><defs><path id="DejaVuSans-2e" d="M684 794h660V0H684z" transform="scale(.01563)"/></defs><use xlink:href="#DejaVuSans-2212"/><use xlink:href="#DejaVuSans-30" transform="translate(83.79)"/><use xlink:href="#DejaVuSans-2e" transform="translate(147.412)"/><use xlink:href="#DejaVuSans-35" transform="translate(179.2)"/></g></g><g class="tick ytick"><path id="line2d_22" d="M54.097 247.543h357.12" clip-path="url(#p710623140c)" style="fill:none;stroke:#b0b0b0;stroke-opacity:.15;stroke-width:.8;stroke-linecap:square"/><use xlink:href="#ma0ff90b96d" id="line2d_23" x="54.097" y="247.543" style="stroke:var(--black);stroke-width:.8"/><g id="text_11" class="text" transform="matrix(.1 0 0 -.1 31.193 251.342)"><use xlink:href="#DejaVuSans-30"/><use xlink:href="#DejaVuSans-2e" transform="translate(63.623)"/><use xlink:href="#DejaVuSans-30" transform="translate(95.41)"/></g></g><g class="tick ytick"><path id="line2d_24" d="M54.097 217.975h357.12" clip-path="url(#p710623140c)" style="fill:none;stroke:#b0b0b0;stroke-opacity:.15;stroke-width:.8;stroke-linecap:square"/><use xlink:href="#ma0ff90b96d" id="line2d_25" x="54.097" y="217.975" style="stroke:var(--black);stroke-width:.8"/><g id="text_12" class="text" transform="matrix(.1 0 0 -.1 31.193 221.774)"><use xlink:href="#DejaVuSans-30"/><use xlink:href="#DejaVuSans-2e" transform="translate(63.623)"/><use xlink:href="#DejaVuSans-35" transform="translate(95.41)"/></g></g><g class="tick ytick"><path id="line2d_26" d="M54.097 188.407h357.12" clip-path="url(#p710623140c)" style="fill:none;stroke:#b0b0b0;stroke-opacity:.15;stroke-width:.8;stroke-linecap:square"/><use xlink:href="#ma0ff90b96d" id="line2d_27" x="54.097" y="188.407" style="stroke:var(--black);stroke-width:.8"/><g id="text_13" class="text" transform="matrix(.1 0 0 -.1 31.193 192.206)"><use xlink:href="#DejaVuSans-31"/><use xlink:href="#DejaVuSans-2e" transform="translate(63.623)"/><use xlink:href="#DejaVuSans-30" transform="translate(95.41)"/></g></g><g class="tick ytick"><path id="line2d_28" d="M54.097 158.84h357.12" clip-path="url(#p710623140c)" style="fill:none;stroke:#b0b0b0;stroke-opacity:.15;stroke-width:.8;stroke-linecap:square"/><use xlink:href="#ma0ff90b96d" id="line2d_29" x="54.097" y="158.839" style="stroke:var(--black);stroke-width:.8"/><g id="text_14" class="text" transform="matrix(.1 0 0 -.1 31.193 162.638)"><use xlink:href="#DejaVuSans-31"/><use xlink:href="#DejaVuSans-2e" transform="translate(63.623)"/><use xlink:href="#DejaVuSans-35" transform="translate(95.41)"/></g></g><g class="tick ytick"><path id="line2d_30" d="M54.097 129.271h357.12" clip-path="url(#p710623140c)" style="fill:none;stroke:#b0b0b0;stroke-opacity:.15;stroke-width:.8;stroke-linecap:square"/><use xlink:href="#ma0ff90b96d" id="line2d_31" x="54.097" y="129.271" style="stroke:var(--black);stroke-width:.8"/><g id="text_15" class="text" transform="matrix(.1 0 0 -.1 31.193 133.07)"><use xlink:href="#DejaVuSans-32"/><use xlink:href="#DejaVuSans-2e" transform="translate(63.623)"/><use xlink:href="#DejaVuSans-30" transform="translate(95.41)"/></g></g><g class="tick ytick"><path id="line2d_32" d="M54.097 99.703h357.12" clip-path="url(#p710623140c)" style="fill:none;stroke:#b0b0b0;stroke-opacity:.15;stroke-width:.8;stroke-linecap:square"/><use xlink:href="#ma0ff90b96d" id="line2d_33" x="54.097" y="99.703" style="stroke:var(--black);stroke-width:.8"/><g id="text_16" class="text" transform="matrix(.1 0 0 -.1 31.193 103.502)"><use xlink:href="#DejaVuSans-32"/><use xlink:href="#DejaVuSans-2e" transform="translate(63.623)"/><use xlink:href="#DejaVuSans-35" transform="translate(95.41)"/></g></g><g class="tick ytick"><path id="line2d_34" d="M54.097 70.135h357.12" clip-path="url(#p710623140c)" style="fill:none;stroke:#b0b0b0;stroke-opacity:.15;stroke-width:.8;stroke-linecap:square"/><use xlink:href="#ma0ff90b96d" id="line2d_35" x="54.097" y="70.135" style="stroke:var(--black);stroke-width:.8"/><g id="text_17" class="text" transform="matrix(.1 0 0 -.1 31.193 73.934)"><use xlink:href="#DejaVuSans-33"/><use xlink:href="#DejaVuSans-2e" transform="translate(63.623)"/><use xlink:href="#DejaVuSans-30" transform="translate(95.41)"/></g></g><g class="tick ytick"><path id="line2d_36" d="M54.097 40.567h357.12" clip-path="url(#p710623140c)" style="fill:none;stroke:#b0b0b0;stroke-opacity:.15;stroke-width:.8;stroke-linecap:square"/><use xlink:href="#ma0ff90b96d" id="line2d_37" x="54.097" y="40.567" style="stroke:var(--black);stroke-width:.8"/><g id="text_18" class="text" transform="matrix(.1 0 0 -.1 31.193 44.366)"><use xlink:href="#DejaVuSans-33"/><use xlink:href="#DejaVuSans-2e" transform="translate(63.623)"/><use xlink:href="#DejaVuSans-35" transform="translate(95.41)"/></g></g><g class="tick ytick"><path id="line2d_38" d="M54.097 11h357.12" clip-path="url(#p710623140c)" style="fill:none;stroke:#b0b0b0;stroke-opacity:.15;stroke-width:.8;stroke-linecap:square"/><use xlink:href="#ma0ff90b96d" id="line2d_39" x="54.097" y="10.999" style="stroke:var(--black);stroke-width:.8"/><g id="text_19" class="text" transform="matrix(.1 0 0 -.1 31.193 14.798)"><use xlink:href="#DejaVuSans-34"/><use xlink:href="#DejaVuSans-2e" transform="translate(63.623)"/><use xlink:href="#DejaVuSans-30" transform="translate(95.41)"/></g></g><g id="text_20" class="text" transform="matrix(0 -.12 -.12 0 16.318 154.4)"><defs><path id="DejaVuSans-66" d="M2375 4863v-479h-550q-309 0-430-125-120-125-120-450v-309h947v-447h-947V0H697v3053H147v447h550v244q0 584 272 851 272 268 862 268z" transform="scale(.01563)"/><path id="DejaVuSans-28" d="M1984 4856q-418-718-622-1422-203-703-203-1425 0-721 205-1429t620-1424h-500Q1016-109 783 600T550 2009q0 697 231 1403 232 707 703 1444z" transform="scale(.01563)"/><path id="DejaVuSans-29" d="M513 4856h500q468-737 701-1444 233-706 233-1403 0-700-233-1409T1013-844H513q415 716 620 1424t205 1429q0 722-205 1425-205 704-620 1422z" transform="scale(.01563)"/></defs><use xlink:href="#DejaVuSans-66"/><use xlink:href="#DejaVuSans-28" transform="translate(35.205)"/><use xlink:href="#DejaVuSans-78" transform="translate(74.219)"/><use xlink:href="#DejaVuSans-29" transform="translate(133.398)"/></g></g><path id="line2d_40" d="M63.748 277.111V11" clip-path="url(#p710623140c)" style="fill:none;stroke:var(--black);stroke-opacity:.8;stroke-width:2;stroke-linecap:square"/><path id="line2d_41" d="M401.565 277.111V11" clip-path="url(#p710623140c)" style="fill:none;stroke:var(--black);stroke-opacity:.8;stroke-width:2;stroke-linecap:square"/><path d="M54.097 277.111V11M54.097 277.111h357.12" class="patch" style="fill:none;stroke:var(--black);stroke-width:.8;stroke-linejoin:miter;stroke-linecap:square"/><path id="line2d_42" d="m68.912 317.603 5.507-19.136 5.335-17.806 5.335-17.084 5.336-16.36 5.335-15.638 5.335-14.915 4.85-12.932 4.85-12.334 4.85-11.738 4.85-11.14 4.851-10.542 4.365-8.978 4.365-8.494 4.365-8.01 4.366-7.526 4.365-7.043 3.88-5.853 3.88-5.472 3.88-5.089 1.455-1.81h0" clip-path="url(#p710623140c)" style="fill:none;stroke:#8000ff;stroke-width:2.5;stroke-linecap:square"/><path id="line2d_43" d="m160.75 130.448 3.378 7.907 3.378 7.326 3.378 6.748 2.896 5.322 2.896 4.897 2.895 4.47 2.896 4.045 2.895 3.62 2.413 2.69 2.413 2.395 2.413 2.1 2.413 1.803 2.413 1.508 2.413 1.212 2.413.917 1.93.52 1.93.331 1.931.142 1.93-.047 1.931-.237 1.93-.425 1.93-.615 2.414-1.035 2.413-1.33 2.413-1.627 2.413-1.922 2.413-2.218 2.413-2.513 2.413-2.809 2.413-3.104 2.895-4.116 2.896-4.542 2.895-4.967 2.896-5.394 2.895-5.819 3.379-7.326 3.378-7.907.482-1.177h0" clip-path="url(#p710623140c)" style="fill:none;stroke:#8000ff;stroke-width:2.5;stroke-linecap:square"/><path id="LineCollection_1" d="M256.786 188.407v-59.136" clip-path="url(#p710623140c)" style="fill:none;stroke:#8000ff;stroke-width:2.5"/><path id="line2d_44" d="m256.786 188.407 72.39-88.704h0" clip-path="url(#p710623140c)" style="fill:none;stroke:#8000ff;stroke-width:2.5;stroke-linecap:square"/><path id="line2d_45" d="m329.175 104.138 4.002-1.349 4.001-1.105 4.002-.86 4.001-.618 4.002-.373 4.001-.13 4.001.115 4.002.358 4.001.603 4.002.846 4.001 1.09 4.001 1.335 4.002 1.578 4.001 1.822 4.002 2.066 4.001 2.31 4.001 2.554 4.366 3.064h0" clip-path="url(#p710623140c)" style="fill:none;stroke:#8000ff;stroke-width:2.5;stroke-linecap:square"/><g class="patch"><path d="m131.16 54.827 27.377 41.096M158.04 91.93l.497 3.993-3.494-1.998" style="fill:none;opacity:.7;stroke:gray;stroke-linecap:round"/></g><g id="text_21" class="text"><path d="M92.125 52.661h59.07q2.7 0 2.7-2.7V31.173q0-2.7-2.7-2.7h-59.07q-2.7 0-2.7 2.7v18.788q0 2.7 2.7 2.7z" class="patch" style="fill:var(--white);opacity:.8;stroke:var(--black);stroke-linejoin:miter"/><g transform="matrix(.09 0 0 -.09 110.24 38.012)"><defs><path id="DejaVuSans-4a" d="M628 4666h631V325q0-844-320-1225T-91-1281h-240v531h197q418 0 590 235 172 234 172 840z" transform="scale(.01563)"/><path id="DejaVuSans-75" d="M544 1381v2119h575V1403q0-497 193-746 194-248 582-248 465 0 735 297 271 297 271 810v1984h575V0h-575v538q-209-319-486-474-276-155-642-155-603 0-916 375-312 375-312 1097m1447 2203" transform="scale(.01563)"/><path id="DejaVuSans-6d" d="M3328 2828q216 388 516 572t706 184q547 0 844-383 297-382 297-1088V0h-578v2094q0 503-179 746-178 244-543 244-447 0-707-297-259-296-259-809V0h-578v2094q0 506-178 748t-550 242q-441 0-701-298-259-298-259-808V0H581v3500h578v-544q197 322 472 475t653 153q382 0 649-194 267-193 395-562" transform="scale(.01563)"/><path id="DejaVuSans-70" d="M1159 525v-1856H581v4831h578v-531q182 312 458 463 277 152 661 152 638 0 1036-506 399-506 399-1331T3314 415Q2916-91 2278-91q-384 0-661 152-276 152-458 464m1957 1222q0 634-261 995t-717 361q-457 0-718-361t-261-995 261-995 718-361q456 0 717 361t261 995" transform="scale(.01563)"/></defs><use xlink:href="#DejaVuSans-4a"/><use xlink:href="#DejaVuSans-75" transform="translate(29.492)"/><use xlink:href="#DejaVuSans-6d" transform="translate(92.871)"/><use xlink:href="#DejaVuSans-70" transform="translate(190.283)"/></g><g transform="matrix(.09 0 0 -.09 92.125 48.09)"><defs><path id="DejaVuSans-44" d="M1259 4147V519h763q966 0 1414 437 448 438 448 1382 0 937-448 1373t-1414 436zm-631 519h1297q1356 0 1990-564 635-564 635-1764 0-1207-638-1773Q3275 0 1925 0H628z" transform="scale(.01563)"/><path id="DejaVuSans-69" d="M603 3500h575V0H603zm0 1363h575v-729H603z" transform="scale(.01563)"/><path id="DejaVuSans-73" d="M2834 3397v-544q-243 125-506 187-262 63-544 63-428 0-642-131t-214-394q0-200 153-314t616-217l197-44q612-131 870-370t258-667q0-488-386-773Q2250-91 1575-91q-281 0-586 55T347 128v594q319-166 628-249 309-82 613-82 406 0 624 139 219 139 219 392 0 234-158 359-157 125-692 241l-200 47q-534 112-772 345-237 233-237 639 0 494 350 762 350 269 994 269 318 0 599-47 282-46 519-140" transform="scale(.01563)"/><path id="DejaVuSans-63" d="M3122 3366v-538q-244 135-489 202t-495 67q-560 0-870-355-309-354-309-995t309-996q310-354 870-354 250 0 495 67t489 202V134Q2881 22 2623-34q-257-57-548-57-791 0-1257 497-465 497-465 1341 0 856 470 1346 471 491 1290 491 265 0 518-55 253-54 491-163" transform="scale(.01563)"/><path id="DejaVuSans-6f" d="M1959 3097q-462 0-731-361t-269-989 267-989q268-361 733-361 460 0 728 362 269 363 269 988 0 622-269 986-268 364-728 364m0 487q750 0 1178-488 429-487 429-1349 0-859-429-1349Q2709-91 1959-91q-753 0-1180 489-426 490-426 1349 0 862 426 1349 427 488 1180 488" transform="scale(.01563)"/><path id="DejaVuSans-6e" d="M3513 2113V0h-575v2094q0 497-194 743-194 247-581 247-466 0-735-297-269-296-269-809V0H581v3500h578v-544q207 316 486 472 280 156 646 156 603 0 912-373 310-373 310-1098" transform="scale(.01563)"/><path id="DejaVuSans-74" d="M1172 4494v-994h1184v-447H1172V1153q0-428 117-550t477-122h590V0h-590q-666 0-919 248-253 249-253 905v1900H172v447h422v994z" transform="scale(.01563)"/><path id="DejaVuSans-79" d="M2059-325q-243-625-475-815-231-191-618-191H506v481h338q237 0 368 113 132 112 291 531l103 262L191 3500h609L1894 763l1094 2737h609z" transform="scale(.01563)"/></defs><use xlink:href="#DejaVuSans-44"/><use xlink:href="#DejaVuSans-69" transform="translate(77.002)"/><use xlink:href="#DejaVuSans-73" transform="translate(104.785)"/><use xlink:href="#DejaVuSans-63" transform="translate(156.885)"/><use xlink:href="#DejaVuSans-6f" transform="translate(211.865)"/><use xlink:href="#DejaVuSans-6e" transform="translate(273.047)"/><use xlink:href="#DejaVuSans-74" transform="translate(336.426)"/><use xlink:href="#DejaVuSans-69" transform="translate(375.635)"/><use xlink:href="#DejaVuSans-6e" transform="translate(403.418)"/><use xlink:href="#DejaVuSans-75" transform="translate(466.797)"/><use xlink:href="#DejaVuSans-69" transform="translate(530.176)"/><use xlink:href="#DejaVuSans-74" transform="translate(557.959)"/><use xlink:href="#DejaVuSans-79" transform="translate(597.168)"/></g></g><g class="patch"><path d="m181.46 221.575 25.096-30.753M202.885 192.473l3.671-1.65-.881 3.926" style="fill:none;opacity:.7;stroke:gray;stroke-linecap:round"/></g><g id="text_22" class="text"><path d="M146.65 247.81h46.538q2.7 0 2.7-2.7v-18.788q0-2.7-2.7-2.7H146.65q-2.7 0-2.7 2.7v18.788q0 2.7 2.7 2.7z" class="patch" style="fill:var(--white);opacity:.8;stroke:var(--black);stroke-linejoin:miter"/><g transform="matrix(.09 0 0 -.09 146.65 233.16)"><defs><path id="DejaVuSans-53" d="M3425 4513v-616q-359 172-678 256-319 85-616 85-515 0-795-200t-280-569q0-310 186-468 186-157 705-254l381-78q706-135 1042-474t336-907q0-679-455-1029Q2797-91 1919-91q-331 0-705 75-373 75-773 222v650q384-215 753-325 369-109 725-109 540 0 834 212 294 213 294 607 0 343-211 537t-692 291l-385 75q-706 140-1022 440-315 300-315 835 0 619 436 975t1201 356q329 0 669-60 341-59 697-177" transform="scale(.01563)"/><path id="DejaVuSans-61" d="M2194 1759q-697 0-966-159t-269-544q0-306 202-486 202-179 548-179 479 0 768 339t289 901v128zm1147 238V0h-575v531q-197-318-491-470T1556-91q-537 0-855 302-317 302-317 808 0 590 395 890 396 300 1180 300h807v57q0 397-261 614t-733 217q-300 0-585-72-284-72-546-216v532q315 122 612 182 297 61 578 61 760 0 1135-394 375-393 375-1193" transform="scale(.01563)"/><path id="DejaVuSans-72" d="M2631 2963q-97 56-211 82-114 27-251 27-488 0-749-317t-261-911V0H581v3500h578v-544q182 319 472 473 291 155 707 155 59 0 131-8 72-7 159-23z" transform="scale(.01563)"/></defs><use xlink:href="#DejaVuSans-53"/><use xlink:href="#DejaVuSans-74" transform="translate(63.477)"/><use xlink:href="#DejaVuSans-61" transform="translate(102.686)"/><use xlink:href="#DejaVuSans-74" transform="translate(163.965)"/><use xlink:href="#DejaVuSans-69" transform="translate(203.174)"/><use xlink:href="#DejaVuSans-6f" transform="translate(230.957)"/><use xlink:href="#DejaVuSans-6e" transform="translate(292.139)"/><use xlink:href="#DejaVuSans-61" transform="translate(355.518)"/><use xlink:href="#DejaVuSans-72" transform="translate(416.797)"/><use xlink:href="#DejaVuSans-79" transform="translate(457.91)"/></g><g transform="matrix(.09 0 0 -.09 158.75 243.238)"><defs><path id="DejaVuSans-50" d="M1259 4147V2394h794q441 0 681 228 241 228 241 650 0 419-241 647-240 228-681 228zm-631 519h1425q785 0 1186-355 402-355 402-1039 0-691-402-1044-401-353-1186-353h-794V0H628z" transform="scale(.01563)"/></defs><use xlink:href="#DejaVuSans-50"/><use xlink:href="#DejaVuSans-6f" transform="translate(56.678)"/><use xlink:href="#DejaVuSans-69" transform="translate(117.86)"/><use xlink:href="#DejaVuSans-6e" transform="translate(145.643)"/><use xlink:href="#DejaVuSans-74" transform="translate(209.021)"/></g></g><g class="patch"><path d="m281.725 215.775-22.761-23.359M260.187 196.25l-1.223-3.834 3.801 1.322" style="fill:none;opacity:.7;stroke:gray;stroke-linecap:round"/></g><g id="text_23" class="text"><path d="M251.226 241.897h88.336q2.7 0 2.7-2.7v-18.789q0-2.7-2.7-2.7h-88.336q-2.7 0-2.7 2.7v18.789q0 2.7 2.7 2.7z" class="patch" style="fill:var(--white);opacity:.8;stroke:var(--black);stroke-linejoin:miter"/><g transform="matrix(.09 0 0 -.09 265.653 227.247)"><defs><path id="DejaVuSans-68" d="M3513 2113V0h-575v2094q0 497-194 743-194 247-581 247-466 0-735-297-269-296-269-809V0H581v4863h578V2956q207 316 486 472 280 156 646 156 603 0 912-373 310-373 310-1098" transform="scale(.01563)"/><path id="DejaVuSans-43" d="M4122 4306v-665q-319 297-680 443-361 147-767 147-800 0-1225-489t-425-1414q0-922 425-1411t1225-489q406 0 767 147t680 444V359q-331-225-702-338-370-112-782-112-1060 0-1670 648-609 649-609 1771 0 1125 609 1773 610 649 1670 649 418 0 788-111 371-111 696-333" transform="scale(.01563)"/><path id="DejaVuSans-65" d="M3597 1894v-281H953q38-594 358-905t892-311q331 0 642 81t618 244V178Q3153 47 2828-22t-659-69q-838 0-1327 487-489 488-489 1320 0 859 464 1363 464 505 1252 505 706 0 1117-455 411-454 411-1235m-575 169q-6 471-264 752-258 282-683 282-481 0-770-272t-333-766z" transform="scale(.01563)"/></defs><use xlink:href="#DejaVuSans-53"/><use xlink:href="#DejaVuSans-68" transform="translate(63.477)"/><use xlink:href="#DejaVuSans-61" transform="translate(126.855)"/><use xlink:href="#DejaVuSans-72" transform="translate(188.135)"/><use xlink:href="#DejaVuSans-70" transform="translate(229.248)"/><use xlink:href="#DejaVuSans-43" transform="translate(324.512)"/><use xlink:href="#DejaVuSans-6f" transform="translate(394.336)"/><use xlink:href="#DejaVuSans-72" transform="translate(455.518)"/><use xlink:href="#DejaVuSans-6e" transform="translate(494.88)"/><use xlink:href="#DejaVuSans-65" transform="translate(558.26)"/><use xlink:href="#DejaVuSans-72" transform="translate(619.783)"/></g><g transform="matrix(.09 0 0 -.09 251.226 237.325)"><defs><path id="DejaVuSans-4e" d="M628 4666h850L3547 763v3903h612V0h-850L1241 3903V0H628z" transform="scale(.01563)"/><path id="DejaVuSans-2d" d="M313 2009h1684v-512H313z" transform="scale(.01563)"/><path id="DejaVuSans-64" d="M2906 2969v1894h575V0h-575v525q-181-312-458-464-276-152-664-152-634 0-1033 506-398 507-398 1332t398 1331q399 506 1033 506 388 0 664-152 277-151 458-463M947 1747q0-634 261-995t717-361 718 361q263 361 263 995t-263 995q-262 361-718 361t-717-361-261-995" transform="scale(.01563)"/><path id="DejaVuSans-62" d="M3116 1747q0 634-261 995t-717 361q-457 0-718-361t-261-995 261-995 718-361q456 0 717 361t261 995M1159 2969q182 312 458 463 277 152 661 152 638 0 1036-506 399-506 399-1331T3314 415Q2916-91 2278-91q-384 0-661 152-276 152-458 464V0H581v4863h578z" transform="scale(.01563)"/><path id="DejaVuSans-6c" d="M603 4863h575V0H603z" transform="scale(.01563)"/></defs><use xlink:href="#DejaVuSans-28"/><use xlink:href="#DejaVuSans-4e" transform="translate(39.014)"/><use xlink:href="#DejaVuSans-6f" transform="translate(113.818)"/><use xlink:href="#DejaVuSans-6e" transform="translate(175)"/><use xlink:href="#DejaVuSans-2d" transform="translate(238.379)"/><use xlink:href="#DejaVuSans-64" transform="translate(274.463)"/><use xlink:href="#DejaVuSans-69" transform="translate(337.94)"/><use xlink:href="#DejaVuSans-66" transform="translate(365.723)"/><use xlink:href="#DejaVuSans-66" transform="translate(400.928)"/><use xlink:href="#DejaVuSans-65" transform="translate(436.133)"/><use xlink:href="#DejaVuSans-72" transform="translate(497.656)"/><use xlink:href="#DejaVuSans-65" transform="translate(536.52)"/><use xlink:href="#DejaVuSans-6e" transform="translate(598.043)"/><use xlink:href="#DejaVuSans-74" transform="translate(661.422)"/><use xlink:href="#DejaVuSans-69" transform="translate(700.63)"/><use xlink:href="#DejaVuSans-61" transform="translate(728.414)"/><use xlink:href="#DejaVuSans-62" transform="translate(789.693)"/><use xlink:href="#DejaVuSans-6c" transform="translate(853.17)"/><use xlink:href="#DejaVuSans-65" transform="translate(880.953)"/><use xlink:href="#DejaVuSans-29" transform="translate(942.477)"/></g></g><g class="patch"><path d="m369.087 72.63-14.211 24.379M358.244 94.805l-3.368 2.204.258-4.017" style="fill:none;opacity:.7;stroke:gray;stroke-linecap:round"/></g><g id="text_24" class="text"><path d="M354.166 70.402h46.538q2.7 0 2.7-2.7V48.914q0-2.7-2.7-2.7h-46.538q-2.7 0-2.7 2.7v18.788q0 2.7 2.7 2.7z" class="patch" style="fill:var(--white);opacity:.8;stroke:var(--black);stroke-linejoin:miter"/><g transform="matrix(.09 0 0 -.09 354.166 55.752)"><use xlink:href="#DejaVuSans-53"/><use xlink:href="#DejaVuSans-74" transform="translate(63.477)"/><use xlink:href="#DejaVuSans-61" transform="translate(102.686)"/><use xlink:href="#DejaVuSans-74" transform="translate(163.965)"/><use xlink:href="#DejaVuSans-69" transform="translate(203.174)"/><use xlink:href="#DejaVuSans-6f" transform="translate(230.957)"/><use xlink:href="#DejaVuSans-6e" transform="translate(292.139)"/><use xlink:href="#DejaVuSans-61" transform="translate(355.518)"/><use xlink:href="#DejaVuSans-72" transform="translate(416.797)"/><use xlink:href="#DejaVuSans-79" transform="translate(457.91)"/></g><g transform="matrix(.09 0 0 -.09 366.265 65.83)"><use xlink:href="#DejaVuSans-50"/><use xlink:href="#DejaVuSans-6f" transform="translate(56.678)"/><use xlink:href="#DejaVuSans-69" transform="translate(117.86)"/><use xlink:href="#DejaVuSans-6e" transform="translate(145.643)"/><use xlink:href="#DejaVuSans-74" transform="translate(209.021)"/></g></g><g class="patch"><path d="m97.971 286.252-31.56-19.337M68.54 270.33l-2.13-3.415 4.01.346" style="fill:none;opacity:.7;stroke:gray;stroke-linecap:round"/></g><g id="text_25" class="text"><path d="M75.085 301.907h73.846q2.7 0 2.7-2.7v-8.71q0-2.7-2.7-2.7H75.085q-2.7 0-2.7 2.7v8.71q0 2.7 2.7 2.7z" class="patch" style="fill:var(--white);opacity:.8;stroke:var(--black);stroke-linejoin:miter"/><g transform="matrix(.09 0 0 -.09 75.085 297.335)"><defs><path id="DejaVuSans-42" d="M1259 2228V519h1013q509 0 754 211 246 211 246 645 0 438-246 645-245 208-754 208zm0 1919V2741h935q462 0 688 173 227 174 227 530 0 353-227 528-226 175-688 175zm-631 519h1613q722 0 1112-300 391-300 391-853 0-429-200-682t-588-315q466-100 724-418 258-317 258-792 0-625-425-966Q3088 0 2303 0H628z" transform="scale(.01563)"/></defs><use xlink:href="#DejaVuSans-42"/><use xlink:href="#DejaVuSans-6f" transform="translate(68.604)"/><use xlink:href="#DejaVuSans-75" transform="translate(129.785)"/><use xlink:href="#DejaVuSans-6e" transform="translate(193.164)"/><use xlink:href="#DejaVuSans-64" transform="translate(256.543)"/><use xlink:href="#DejaVuSans-61" transform="translate(320.02)"/><use xlink:href="#DejaVuSans-72" transform="translate(381.299)"/><use xlink:href="#DejaVuSans-79" transform="translate(422.412)"/><use xlink:href="#DejaVuSans-70" transform="translate(513.379)"/><use xlink:href="#DejaVuSans-6f" transform="translate(576.855)"/><use xlink:href="#DejaVuSans-69" transform="translate(638.037)"/><use xlink:href="#DejaVuSans-6e" transform="translate(665.82)"/><use xlink:href="#DejaVuSans-74" transform="translate(729.2)"/><use xlink:href="#DejaVuSans-73" transform="translate(768.408)"/></g></g><g class="patch"><path d="m367.342 286.252 31.56-19.337M394.893 267.26l4.01-.345-2.13 3.416" style="fill:none;opacity:.7;stroke:gray;stroke-linecap:round"/></g><g id="text_26" class="text"><path d="M316.382 301.907h73.846q2.7 0 2.7-2.7v-8.71q0-2.7-2.7-2.7h-73.846q-2.7 0-2.7 2.7v8.71q0 2.7 2.7 2.7z" class="patch" style="fill:var(--white);opacity:.8;stroke:var(--black);stroke-linejoin:miter"/><g transform="matrix(.09 0 0 -.09 316.382 297.335)"><use xlink:href="#DejaVuSans-42"/><use xlink:href="#DejaVuSans-6f" transform="translate(68.604)"/><use xlink:href="#DejaVuSans-75" transform="translate(129.785)"/><use xlink:href="#DejaVuSans-6e" transform="translate(193.164)"/><use xlink:href="#DejaVuSans-64" transform="translate(256.543)"/><use xlink:href="#DejaVuSans-61" transform="translate(320.02)"/><use xlink:href="#DejaVuSans-72" transform="translate(381.299)"/><use xlink:href="#DejaVuSans-79" transform="translate(422.412)"/><use xlink:href="#DejaVuSans-70" transform="translate(513.379)"/><use xlink:href="#DejaVuSans-6f" transform="translate(576.855)"/><use xlink:href="#DejaVuSans-69" transform="translate(638.037)"/><use xlink:href="#DejaVuSans-6e" transform="translate(665.82)"/><use xlink:href="#DejaVuSans-74" transform="translate(729.2)"/><use xlink:href="#DejaVuSans-73" transform="translate(768.408)"/></g></g><g id="PathCollection_1"><defs><path id="mb143b64b63" d="M0 4.472a4.472 4.472 0 1 0 0-8.945 4.472 4.472 0 0 0 0 8.945z" style="stroke:var(--white);stroke-width:2"/></defs><g clip-path="url(#p710623140c)"><use xlink:href="#mb143b64b63" x="160.267" y="129.271" style="fill:#8000ff;stroke:var(--white);stroke-width:2"/></g></g><path id="PathCollection_2" d="M160.267 104.175a4.472 4.472 0 1 0 0-8.944 4.472 4.472 0 0 0 0 8.944z" clip-path="url(#p710623140c)" style="fill:none;stroke:#8000ff;stroke-width:2"/><g id="PathCollection_3"><defs><path id="m0ffc31bee9" d="M0 6.325 6.325 0 0-6.325-6.325 0z" style="stroke:var(--white);stroke-width:2"/></defs><g clip-path="url(#p710623140c)"><use xlink:href="#m0ffc31bee9" x="256.786" y="188.407" style="fill:#8000ff;stroke:var(--white);stroke-width:2"/></g></g><g id="PathCollection_4"><defs><path id="m5fea34b258" d="m0 4.472 4.472-8.944h-8.944z" style="stroke:var(--white);stroke-width:2"/></defs><g clip-path="url(#p710623140c)"><use xlink:href="#m5fea34b258" x="208.527" y="188.407" style="fill:#ff0001;stroke:var(--white);stroke-width:2"/></g></g><g id="PathCollection_5"><defs><path id="ma3fbe3833a" d="m0-4.472-4.472 8.944h8.944z" style="stroke:var(--white);stroke-width:2"/></defs><g clip-path="url(#p710623140c)"><use xlink:href="#ma3fbe3833a" x="353.305" y="99.703" style="fill:#ff0001;stroke:var(--white);stroke-width:2"/></g></g></g></g><defs><clipPath id="p710623140c"><path d="M54.097 10.999h357.12v266.112H54.097z"/></clipPath></defs></svg>