<svg xmlns="http://www.w3.org/2000/svg" xmlns:xlink="http://www.w3.org/1999/xlink" width="549.65" height="433.358" style="--axis-color:#000;--grid-stroke:rgba(0,0,0,0.2);--plot3d-stroke:rgba(0,0,0,0.3);--plot3d-grid:rgba(0,0,0,0.2);--black:#000000;--c1:#FF0001;--c2:#00FF02;--c3:#0000FF;--c4:#FF00FF;--c5:#00FFFF;--c6:#FFFF00;--c7:#FF8000;--c8:#8000FF;--gray:#7f7f7f;--grey:#7f7f7f;--octonary:#bcbd22;--primary:#d62728;--quaternary:#9467bd;--quinary:#8c564b;--secondary:#2ca02c;--senary:#e377c2;--septenary:#7f7f7f;--tertiary:#1f77b4;--white:#ffffff" viewBox="0 0 412.237 325.019"><style><![CDATA[@media (prefers-color-scheme:dark){:root{--axis-color:#fff;--grid-stroke:rgba(255,255,255,0.2);--plot3d-stroke:rgba(255,255,255,0.3);--plot3d-grid:rgba(255,255,255,0.2);--black:#FFFFFF;--c1:#FF0001;--c2:#00FF02;--c3:#0000FF;--c4:#FF00FF;--c5:#00FFFF;--c6:#FFFF00;--c7:#FF8000;--c8:#8000FF;--gray:#CCCCCC;--grey:#CCCCCC;--octonary:#E6DB74;--primary:#FF4A98;--quaternary:#B4A0FF;--quinary:#FFB86B;--secondary:#0AFAFA;--senary:#FF79C6;--septenary:#CCCCCC;--tertiary:#7F83FF;--white:#000000}}.text{fill:var(--axis-color)!important;stroke:none!important}.axis path,.patch path[style*="stroke: currentColor"],.tick path{stroke:var(--axis-color)!important}@media (prefers-color-scheme:dark){g.legend>g:first-child>path:first-child{fill:rgba(26,26,26,.8)!important;stroke:rgba(255,255,255,.1)!important}}*{stroke-linejoin:round;stroke-linecap:butt}]]></style><g id="figure_1"><path d="M0 325.019h412.237V0H0z" class="patch" style="fill:none"/><g id="axes_1"><path d="M47.917 288.43h357.12V22.318H47.917z" class="patch" style="fill:none"/><g class="axis"><g class="tick xtick"><path id="line2d_1" d="M64.15 288.43V22.318" clip-path="url(#pa64bb227d5)" style="fill:none;stroke:#b0b0b0;stroke-opacity:.1;stroke-width:.8;stroke-linecap:square"/><g id="line2d_2"><defs><path id="mb4724cbcaa" d="M0 0v3.5" style="stroke:var(--black);stroke-width:.8"/></defs><use xlink:href="#mb4724cbcaa" x="64.15" y="288.43" style="stroke:var(--black);stroke-width:.8"/></g><g id="text_1" class="text" transform="matrix(.09 0 0 -.09 61.287 302.269)"><defs><path id="DejaVuSans-30" d="M2034 4250q-487 0-733-480-245-479-245-1442 0-959 245-1439 246-480 733-480 491 0 736 480 246 480 246 1439 0 963-246 1442-245 480-736 480zm0 500q785 0 1199-621 414-620 414-1801 0-1178-414-1799Q2819-91 2034-91q-784 0-1198 620-414 621-414 1799 0 1181 414 1801 414 621 1198 621z" transform="scale(.01563)"/></defs><use xlink:href="#DejaVuSans-30"/></g></g><g class="tick xtick"><path id="line2d_3" d="M130.406 288.43V22.318" clip-path="url(#pa64bb227d5)" style="fill:none;stroke:#b0b0b0;stroke-opacity:.1;stroke-width:.8;stroke-linecap:square"/><use xlink:href="#mb4724cbcaa" id="line2d_4" x="130.406" y="288.43" style="stroke:var(--black);stroke-width:.8"/><g id="text_2" class="text" transform="matrix(.09 0 0 -.09 124.68 302.269)"><defs><path id="DejaVuSans-31" d="M794 531h1031v3560L703 3866v575l1116 225h631V531h1031V0H794z" transform="scale(.01563)"/></defs><use xlink:href="#DejaVuSans-31"/><use xlink:href="#DejaVuSans-30" transform="translate(63.623)"/></g></g><g class="tick xtick"><path id="line2d_5" d="M196.662 288.43V22.318" clip-path="url(#pa64bb227d5)" style="fill:none;stroke:#b0b0b0;stroke-opacity:.1;stroke-width:.8;stroke-linecap:square"/><use xlink:href="#mb4724cbcaa" id="line2d_6" x="196.662" y="288.43" style="stroke:var(--black);stroke-width:.8"/><g id="text_3" class="text" transform="matrix(.09 0 0 -.09 190.936 302.269)"><defs><path id="DejaVuSans-32" d="M1228 531h2203V0H469v531q359 372 979 998 621 627 780 809 303 340 423 576 121 236 121 464 0 372-261 606-261 235-680 235-297 0-627-103-329-103-704-313v638q381 153 712 231 332 78 607 78 725 0 1156-363 431-362 431-968 0-288-108-546-107-257-392-607-78-91-497-524-418-433-1181-1211z" transform="scale(.01563)"/></defs><use xlink:href="#DejaVuSans-32"/><use xlink:href="#DejaVuSans-30" transform="translate(63.623)"/></g></g><g class="tick xtick"><path id="line2d_7" d="M262.918 288.43V22.318" clip-path="url(#pa64bb227d5)" style="fill:none;stroke:#b0b0b0;stroke-opacity:.1;stroke-width:.8;stroke-linecap:square"/><use xlink:href="#mb4724cbcaa" id="line2d_8" x="262.918" y="288.43" style="stroke:var(--black);stroke-width:.8"/><g id="text_4" class="text" transform="matrix(.09 0 0 -.09 257.192 302.269)"><defs><path id="DejaVuSans-33" d="M2597 2516q453-97 707-404 255-306 255-756 0-690-475-1069Q2609-91 1734-91q-293 0-604 58T488 141v609q262-153 574-231 313-78 654-78 593 0 904 234t311 681q0 413-289 645-289 233-804 233h-544v519h569q465 0 712 186t247 536q0 359-255 551-254 193-729 193-260 0-557-57-297-56-653-174v562q360 100 674 150t592 50q719 0 1137-327 419-326 419-882 0-388-222-655t-631-370z" transform="scale(.01563)"/></defs><use xlink:href="#DejaVuSans-33"/><use xlink:href="#DejaVuSans-30" transform="translate(63.623)"/></g></g><g class="tick xtick"><path id="line2d_9" d="M329.174 288.43V22.318" clip-path="url(#pa64bb227d5)" style="fill:none;stroke:#b0b0b0;stroke-opacity:.1;stroke-width:.8;stroke-linecap:square"/><use xlink:href="#mb4724cbcaa" id="line2d_10" x="329.174" y="288.43" style="stroke:var(--black);stroke-width:.8"/><g id="text_5" class="text" transform="matrix(.09 0 0 -.09 323.448 302.269)"><defs><path id="DejaVuSans-34" d="M2419 4116 825 1625h1594zm-166 550h794V1625h666v-525h-666V0h-628v1100H313v609z" transform="scale(.01563)"/></defs><use xlink:href="#DejaVuSans-34"/><use xlink:href="#DejaVuSans-30" transform="translate(63.623)"/></g></g><g class="tick xtick"><path id="line2d_11" d="M395.43 288.43V22.318" clip-path="url(#pa64bb227d5)" style="fill:none;stroke:#b0b0b0;stroke-opacity:.1;stroke-width:.8;stroke-linecap:square"/><use xlink:href="#mb4724cbcaa" id="line2d_12" x="395.43" y="288.43" style="stroke:var(--black);stroke-width:.8"/><g id="text_6" class="text" transform="matrix(.09 0 0 -.09 389.704 302.269)"><defs><path id="DejaVuSans-35" d="M691 4666h2478v-532H1269V2991q137 47 274 70 138 23 276 23 781 0 1237-428 457-428 457-1159 0-753-469-1171Q2575-91 1722-91q-294 0-599 50Q819 9 494 109v635q281-153 581-228t634-75q541 0 856 284 316 284 316 772 0 487-316 771-315 285-856 285-253 0-505-56-251-56-513-175z" transform="scale(.01563)"/></defs><use xlink:href="#DejaVuSans-35"/><use xlink:href="#DejaVuSans-30" transform="translate(63.623)"/></g></g><g id="text_7" class="text" transform="matrix(.1 0 0 -.1 221.127 315.739)"><defs><path id="DejaVuSans-Oblique-78" d="M3841 3500 2234 1784 3219 0h-660l-740 1388L531 0h-697l1722 1844-915 1656h659l672-1266 1172 1266z" transform="scale(.01563)"/></defs><use xlink:href="#DejaVuSans-Oblique-78" transform="translate(0 .313)"/><use xlink:href="#DejaVuSans-34" transform="matrix(.7 0 0 .7 59.18 -16.094)"/></g></g><g class="axis"><g class="tick ytick"><path id="line2d_13" d="M47.917 276.334h357.12" clip-path="url(#pa64bb227d5)" style="fill:none;stroke:#b0b0b0;stroke-opacity:.1;stroke-width:.8;stroke-linecap:square"/><g id="line2d_14"><defs><path id="m319ad51bee" d="M0 0h-3.5" style="stroke:var(--black);stroke-width:.8"/></defs><use xlink:href="#m319ad51bee" x="47.917" y="276.334" style="stroke:var(--black);stroke-width:.8"/></g><g id="text_8" class="text" transform="matrix(.09 0 0 -.09 20.878 279.753)"><defs><path id="DejaVuSans-2e" d="M684 794h660V0H684z" transform="scale(.01563)"/></defs><use xlink:href="#DejaVuSans-30"/><use xlink:href="#DejaVuSans-2e" transform="translate(63.623)"/><use xlink:href="#DejaVuSans-30" transform="translate(95.41)"/><use xlink:href="#DejaVuSans-30" transform="translate(159.033)"/></g></g><g class="tick ytick"><path id="line2d_15" d="M47.917 219.09h357.12" clip-path="url(#pa64bb227d5)" style="fill:none;stroke:#b0b0b0;stroke-opacity:.1;stroke-width:.8;stroke-linecap:square"/><use xlink:href="#m319ad51bee" id="line2d_16" x="47.917" y="219.09" style="stroke:var(--black);stroke-width:.8"/><g id="text_9" class="text" transform="matrix(.09 0 0 -.09 20.878 222.509)"><use xlink:href="#DejaVuSans-30"/><use xlink:href="#DejaVuSans-2e" transform="translate(63.623)"/><use xlink:href="#DejaVuSans-30" transform="translate(95.41)"/><use xlink:href="#DejaVuSans-32" transform="translate(159.033)"/></g></g><g class="tick ytick"><path id="line2d_17" d="M47.917 161.845h357.12" clip-path="url(#pa64bb227d5)" style="fill:none;stroke:#b0b0b0;stroke-opacity:.1;stroke-width:.8;stroke-linecap:square"/><use xlink:href="#m319ad51bee" id="line2d_18" x="47.917" y="161.845" style="stroke:var(--black);stroke-width:.8"/><g id="text_10" class="text" transform="matrix(.09 0 0 -.09 20.878 165.264)"><use xlink:href="#DejaVuSans-30"/><use xlink:href="#DejaVuSans-2e" transform="translate(63.623)"/><use xlink:href="#DejaVuSans-30" transform="translate(95.41)"/><use xlink:href="#DejaVuSans-34" transform="translate(159.033)"/></g></g><g class="tick ytick"><path id="line2d_19" d="M47.917 104.6h357.12" clip-path="url(#pa64bb227d5)" style="fill:none;stroke:#b0b0b0;stroke-opacity:.1;stroke-width:.8;stroke-linecap:square"/><use xlink:href="#m319ad51bee" id="line2d_20" x="47.917" y="104.601" style="stroke:var(--black);stroke-width:.8"/><g id="text_11" class="text" transform="matrix(.09 0 0 -.09 20.878 108.02)"><defs><path id="DejaVuSans-36" d="M2113 2584q-425 0-674-291-248-290-248-796 0-503 248-796 249-292 674-292t673 292q248 293 248 796 0 506-248 796-248 291-673 291zm1253 1979v-575q-238 112-480 171-242 60-480 60-625 0-955-422-329-422-376-1275 184 272 462 417 279 145 613 145 703 0 1111-427 408-426 408-1160 0-719-425-1154Q2819-91 2113-91q-810 0-1238 620-428 621-428 1799 0 1106 525 1764t1409 658q238 0 480-47t505-140z" transform="scale(.01563)"/></defs><use xlink:href="#DejaVuSans-30"/><use xlink:href="#DejaVuSans-2e" transform="translate(63.623)"/><use xlink:href="#DejaVuSans-30" transform="translate(95.41)"/><use xlink:href="#DejaVuSans-36" transform="translate(159.033)"/></g></g><g class="tick ytick"><path id="line2d_21" d="M47.917 47.356h357.12" clip-path="url(#pa64bb227d5)" style="fill:none;stroke:#b0b0b0;stroke-opacity:.1;stroke-width:.8;stroke-linecap:square"/><use xlink:href="#m319ad51bee" id="line2d_22" x="47.917" y="47.356" style="stroke:var(--black);stroke-width:.8"/><g id="text_12" class="text" transform="matrix(.09 0 0 -.09 20.878 50.775)"><defs><path id="DejaVuSans-38" d="M2034 2216q-450 0-708-241-257-241-257-662 0-422 257-663 258-241 708-241t709 242q260 243 260 662 0 421-258 662-257 241-711 241zm-631 268q-406 100-633 378-226 279-226 679 0 559 398 884 399 325 1092 325 697 0 1094-325t397-884q0-400-227-679-226-278-629-378 456-106 710-416 255-309 255-755 0-679-414-1042Q2806-91 2034-91q-771 0-1186 362-414 363-414 1042 0 446 256 755 257 310 713 416zm-231 997q0-362 226-565 227-203 636-203 407 0 636 203 230 203 230 565 0 363-230 566-229 203-636 203-409 0-636-203-226-203-226-566z" transform="scale(.01563)"/></defs><use xlink:href="#DejaVuSans-30"/><use xlink:href="#DejaVuSans-2e" transform="translate(63.623)"/><use xlink:href="#DejaVuSans-30" transform="translate(95.41)"/><use xlink:href="#DejaVuSans-38" transform="translate(159.033)"/></g></g><g id="text_13" class="text" transform="matrix(0 -.1 -.1 0 14.798 181.803)"><defs><path id="DejaVuSans-50" d="M1259 4147V2394h794q441 0 681 228 241 228 241 650 0 419-241 647-240 228-681 228zm-631 519h1425q785 0 1186-355 402-355 402-1039 0-691-402-1044-401-353-1186-353h-794V0H628z" transform="scale(.01563)"/><path id="DejaVuSans-72" d="M2631 2963q-97 56-211 82-114 27-251 27-488 0-749-317t-261-911V0H581v3500h578v-544q182 319 472 473 291 155 707 155 59 0 131-8 72-7 159-23z" transform="scale(.01563)"/><path id="DejaVuSans-6f" d="M1959 3097q-462 0-731-361t-269-989 267-989q268-361 733-361 460 0 728 362 269 363 269 988 0 622-269 986-268 364-728 364zm0 487q750 0 1178-488 429-487 429-1349 0-859-429-1349Q2709-91 1959-91q-753 0-1180 489-426 490-426 1349 0 862 426 1349 427 488 1180 488z" transform="scale(.01563)"/><path id="DejaVuSans-62" d="M3116 1747q0 634-261 995t-717 361q-457 0-718-361t-261-995 261-995 718-361q456 0 717 361t261 995zM1159 2969q182 312 458 463 277 152 661 152 638 0 1036-506 399-506 399-1331T3314 415Q2916-91 2278-91q-384 0-661 152-276 152-458 464V0H581v4863h578z" transform="scale(.01563)"/><path id="DejaVuSans-61" d="M2194 1759q-697 0-966-159t-269-544q0-306 202-486 202-179 548-179 479 0 768 339t289 901v128zm1147 238V0h-575v531q-197-318-491-470T1556-91q-537 0-855 302-317 302-317 808 0 590 395 890 396 300 1180 300h807v57q0 397-261 614t-733 217q-300 0-585-72-284-72-546-216v532q315 122 612 182 297 61 578 61 760 0 1135-394 375-393 375-1193z" transform="scale(.01563)"/><path id="DejaVuSans-69" d="M603 3500h575V0H603zm0 1363h575v-729H603z" transform="scale(.01563)"/><path id="DejaVuSans-6c" d="M603 4863h575V0H603z" transform="scale(.01563)"/><path id="DejaVuSans-74" d="M1172 4494v-994h1184v-447H1172V1153q0-428 117-550t477-122h590V0h-590q-666 0-919 248-253 249-253 905v1900H172v447h422v994z" transform="scale(.01563)"/><path id="DejaVuSans-79" d="M2059-325q-243-625-475-815-231-191-618-191H506v481h338q237 0 368 113 132 112 291 531l103 262L191 3500h609L1894 763l1094 2737h609z" transform="scale(.01563)"/></defs><use xlink:href="#DejaVuSans-50"/><use xlink:href="#DejaVuSans-72" transform="translate(58.553)"/><use xlink:href="#DejaVuSans-6f" transform="translate(97.416)"/><use xlink:href="#DejaVuSans-62" transform="translate(158.598)"/><use xlink:href="#DejaVuSans-61" transform="translate(222.074)"/><use xlink:href="#DejaVuSans-62" transform="translate(283.354)"/><use xlink:href="#DejaVuSans-69" transform="translate(346.83)"/><use xlink:href="#DejaVuSans-6c" transform="translate(374.613)"/><use xlink:href="#DejaVuSans-69" transform="translate(402.396)"/><use xlink:href="#DejaVuSans-74" transform="translate(430.18)"/><use xlink:href="#DejaVuSans-79" transform="translate(469.389)"/></g></g><path id="line2d_23" d="M64.15 276.334h6.626l6.625-.002 6.626-.008 6.625-.034 6.626-.11 6.626-.31 6.625-.748 6.626-1.59 6.625-3.036 6.626-5.254 6.626-8.318 6.625-12.132 6.626-16.377 6.625-20.537 6.626-23.96 6.626-25.992 6.625-26.12 6.626-24.087 6.625-19.968 6.626-14.144 6.626-7.24h6.625l6.626 6.847 6.625 12.695 6.626 17.138 6.626 19.995 6.625 21.29 6.626 21.215 6.625 20.056 6.626 18.146 6.626 15.805 6.625 13.308 6.626 10.868 6.625 8.63 6.626 6.679 6.626 5.044 6.625 3.725 6.626 2.693 6.625 1.907 6.626 1.325 6.626.904 6.625.606 6.626.4 6.625.259 6.626.166 6.626.104 6.625.065 6.626.04 6.625.023" clip-path="url(#pa64bb227d5)" style="fill:none;stroke:#8000ff;stroke-width:1.5;stroke-linecap:square"/><path id="line2d_24" d="M64.15 276.334h19.877l6.625-.006 6.626-.02 6.626-.072 6.625-.216 6.626-.564 6.625-1.301 6.626-2.688 6.626-5.014 6.625-8.508 6.626-13.203 6.625-18.805 6.626-24.638 6.626-29.701 6.625-32.859 6.626-33.124 6.625-29.951 6.626-23.412 6.626-14.227 6.625-3.61 6.626 7.011 6.625 16.313 6.626 23.317 6.626 27.54 6.625 28.991 6.626 28.08 6.625 25.44 6.626 21.78 6.626 17.738 6.625 13.808 6.626 10.312 6.625 7.408 6.626 5.132 6.626 3.435 6.625 2.226 6.626 1.397 6.625.85 6.626.504 6.626.29 6.625.163 6.626.088 6.625.048 6.626.024 6.626.012 6.625.007 6.626.003h6.625" clip-path="url(#pa64bb227d5)" style="fill:none;stroke-dasharray:5.55,2.4;stroke-dashoffset:0;stroke:#ff8000;stroke-width:1.5"/><path d="M47.917 288.43V22.318M47.917 288.43h357.12" class="patch" style="fill:none;stroke:var(--black);stroke-width:.8;stroke-linejoin:miter;stroke-linecap:square"/><g id="text_14" class="text" transform="matrix(.12 0 0 -.12 81.5 16.318)"><defs><path id="DejaVuSans-65" d="M3597 1894v-281H953q38-594 358-905t892-311q331 0 642 81t618 244V178Q3153 47 2828-22t-659-69q-838 0-1327 487-489 488-489 1320 0 859 464 1363 464 505 1252 505 706 0 1117-455 411-454 411-1235m-575 169q-6 471-264 752-258 282-683 282-481 0-770-272t-333-766z" transform="scale(.01563)"/><path id="DejaVuSans-64" d="M2906 2969v1894h575V0h-575v525q-181-312-458-464-276-152-664-152-634 0-1033 506-398 507-398 1332t398 1331q399 506 1033 506 388 0 664-152 277-151 458-463M947 1747q0-634 261-995t717-361 718 361q263 361 263 995t-263 995q-262 361-718 361t-717-361-261-995" transform="scale(.01563)"/><path id="DejaVuSans-63" d="M3122 3366v-538q-244 135-489 202t-495 67q-560 0-870-355-309-354-309-995t309-996q310-354 870-354 250 0 495 67t489 202V134Q2881 22 2623-34q-257-57-548-57-791 0-1257 497-465 497-465 1341 0 856 470 1346 471 491 1290 491 265 0 518-55 253-54 491-163" transform="scale(.01563)"/><path id="DejaVuSans-76" d="M191 3500h609L1894 563l1094 2937h609L2284 0h-781z" transform="scale(.01563)"/><path id="DejaVuSans-44" d="M1259 4147V519h763q966 0 1414 437 448 438 448 1382 0 937-448 1373t-1414 436zm-631 519h1297q1356 0 1990-564 635-564 635-1764 0-1207-638-1773Q3275 0 1925 0H628z" transform="scale(.01563)"/><path id="DejaVuSans-73" d="M2834 3397v-544q-243 125-506 187-262 63-544 63-428 0-642-131t-214-394q0-200 153-314t616-217l197-44q612-131 870-370t258-667q0-488-386-773Q2250-91 1575-91q-281 0-586 55T347 128v594q319-166 628-249 309-82 613-82 406 0 624 139 219 139 219 392 0 234-158 359-157 125-692 241l-200 47q-534 112-772 345-237 233-237 639 0 494 350 762 350 269 994 269 318 0 599-47 282-46 519-140" transform="scale(.01563)"/><path id="DejaVuSans-75" d="M544 1381v2119h575V1403q0-497 193-746 194-248 582-248 465 0 735 297 271 297 271 810v1984h575V0h-575v538q-209-319-486-474-276-155-642-155-603 0-916 375-312 375-312 1097m1447 2203" transform="scale(.01563)"/><path id="DejaVuSans-6e" d="M3513 2113V0h-575v2094q0 497-194 743-194 247-581 247-466 0-735-297-269-296-269-809V0H581v3500h578v-544q207 316 486 472 280 156 646 156 603 0 912-373 310-373 310-1098" transform="scale(.01563)"/><path id="DejaVuSans-3a" d="M750 794h659V0H750zm0 2515h659v-793H750z" transform="scale(.01563)"/><path id="DejaVuSans-42" d="M1259 2228V519h1013q509 0 754 211 246 211 246 645 0 438-246 645-245 208-754 208zm0 1919V2741h935q462 0 688 173 227 174 227 530 0 353-227 528-226 175-688 175zm-631 519h1613q722 0 1112-300 391-300 391-853 0-429-200-682t-588-315q466-100 724-418 258-317 258-792 0-625-425-966Q3088 0 2303 0H628z" transform="scale(.01563)"/><path id="DejaVuSans-46" d="M628 4666h2681v-532H1259V2759h1850v-531H1259V0H628z" transform="scale(.01563)"/><path id="DejaVuSans-71" d="M947 1747q0-634 261-995t717-361 718 361q263 361 263 995t-263 995q-262 361-718 361t-717-361-261-995M2906 525q-181-312-458-464-276-152-664-152-634 0-1033 506-398 507-398 1332t398 1331q399 506 1033 506 388 0 664-152 277-151 458-463v531h575v-4831h-575z" transform="scale(.01563)"/></defs><use xlink:href="#DejaVuSans-50"/><use xlink:href="#DejaVuSans-72" transform="translate(58.553)"/><use xlink:href="#DejaVuSans-65" transform="translate(97.416)"/><use xlink:href="#DejaVuSans-64" transform="translate(158.94)"/><use xlink:href="#DejaVuSans-69" transform="translate(222.416)"/><use xlink:href="#DejaVuSans-63" transform="translate(250.2)"/><use xlink:href="#DejaVuSans-74" transform="translate(305.18)"/><use xlink:href="#DejaVuSans-69" transform="translate(344.389)"/><use xlink:href="#DejaVuSans-76" transform="translate(372.172)"/><use xlink:href="#DejaVuSans-65" transform="translate(431.352)"/><use xlink:href="#DejaVuSans-44" transform="translate(524.662)"/><use xlink:href="#DejaVuSans-69" transform="translate(601.664)"/><use xlink:href="#DejaVuSans-73" transform="translate(629.447)"/><use xlink:href="#DejaVuSans-74" transform="translate(681.547)"/><use xlink:href="#DejaVuSans-72" transform="translate(720.756)"/><use xlink:href="#DejaVuSans-69" transform="translate(761.87)"/><use xlink:href="#DejaVuSans-62" transform="translate(789.652)"/><use xlink:href="#DejaVuSans-75" transform="translate(853.129)"/><use xlink:href="#DejaVuSans-74" transform="translate(916.508)"/><use xlink:href="#DejaVuSans-69" transform="translate(955.717)"/><use xlink:href="#DejaVuSans-6f" transform="translate(983.5)"/><use xlink:href="#DejaVuSans-6e" transform="translate(1044.682)"/><use xlink:href="#DejaVuSans-73" transform="translate(1108.06)"/><use xlink:href="#DejaVuSans-3a" transform="translate(1160.16)"/><use xlink:href="#DejaVuSans-42" transform="translate(1225.639)"/><use xlink:href="#DejaVuSans-61" transform="translate(1294.242)"/><use xlink:href="#DejaVuSans-79" transform="translate(1355.521)"/><use xlink:href="#DejaVuSans-65" transform="translate(1414.701)"/><use xlink:href="#DejaVuSans-73" transform="translate(1476.225)"/><use xlink:href="#DejaVuSans-69" transform="translate(1528.324)"/><use xlink:href="#DejaVuSans-61" transform="translate(1556.107)"/><use xlink:href="#DejaVuSans-6e" transform="translate(1617.387)"/><use xlink:href="#DejaVuSans-76" transform="translate(1712.553)"/><use xlink:href="#DejaVuSans-73" transform="translate(1771.732)"/><use xlink:href="#DejaVuSans-46" transform="translate(1855.62)"/><use xlink:href="#DejaVuSans-72" transform="translate(1905.889)"/><use xlink:href="#DejaVuSans-65" transform="translate(1944.752)"/><use xlink:href="#DejaVuSans-71" transform="translate(2006.275)"/><use xlink:href="#DejaVuSans-75" transform="translate(2069.752)"/><use xlink:href="#DejaVuSans-65" transform="translate(2133.13)"/><use xlink:href="#DejaVuSans-6e" transform="translate(2194.654)"/><use xlink:href="#DejaVuSans-74" transform="translate(2258.033)"/><use xlink:href="#DejaVuSans-69" transform="translate(2297.242)"/><use xlink:href="#DejaVuSans-73" transform="translate(2325.025)"/><use xlink:href="#DejaVuSans-74" transform="translate(2377.125)"/></g><g class="legend"><path d="M257.5 59.674h140.537q2 0 2-2V29.318q0-2-2-2H257.5q-2 0-2 2v28.356q0 2 2 2z" class="patch" style="fill:rgba(255,255,255,.8)!important;opacity:.8;stroke:rgba(0,0,0,.1)!important;stroke-linejoin:miter"/><path id="line2d_25" d="M259.5 35.417h20" style="fill:none;stroke:#8000ff;stroke-width:1.5;stroke-linecap:square"/><g id="text_15" class="text" transform="matrix(.1 0 0 -.1 287.5 38.917)"><use xlink:href="#DejaVuSans-42"/><use xlink:href="#DejaVuSans-61" transform="translate(68.604)"/><use xlink:href="#DejaVuSans-79" transform="translate(129.883)"/><use xlink:href="#DejaVuSans-65" transform="translate(189.063)"/><use xlink:href="#DejaVuSans-73" transform="translate(250.586)"/><use xlink:href="#DejaVuSans-69" transform="translate(302.686)"/><use xlink:href="#DejaVuSans-61" transform="translate(330.469)"/><use xlink:href="#DejaVuSans-6e" transform="translate(391.748)"/><use xlink:href="#DejaVuSans-50" transform="translate(486.914)"/><use xlink:href="#DejaVuSans-72" transform="translate(545.467)"/><use xlink:href="#DejaVuSans-65" transform="translate(584.33)"/><use xlink:href="#DejaVuSans-64" transform="translate(645.854)"/><use xlink:href="#DejaVuSans-69" transform="translate(709.33)"/><use xlink:href="#DejaVuSans-63" transform="translate(737.113)"/><use xlink:href="#DejaVuSans-74" transform="translate(792.094)"/><use xlink:href="#DejaVuSans-69" transform="translate(831.303)"/><use xlink:href="#DejaVuSans-76" transform="translate(859.086)"/><use xlink:href="#DejaVuSans-65" transform="translate(918.266)"/></g><path id="line2d_26" d="M259.5 50.095h20" style="fill:none;stroke-dasharray:5.55,2.4;stroke-dashoffset:0;stroke:#ff8000;stroke-width:1.5"/><g id="text_16" class="text" transform="matrix(.1 0 0 -.1 287.5 53.595)"><use xlink:href="#DejaVuSans-46"/><use xlink:href="#DejaVuSans-72" transform="translate(50.27)"/><use xlink:href="#DejaVuSans-65" transform="translate(89.133)"/><use xlink:href="#DejaVuSans-71" transform="translate(150.656)"/><use xlink:href="#DejaVuSans-75" transform="translate(214.133)"/><use xlink:href="#DejaVuSans-65" transform="translate(277.512)"/><use xlink:href="#DejaVuSans-6e" transform="translate(339.035)"/><use xlink:href="#DejaVuSans-74" transform="translate(402.414)"/><use xlink:href="#DejaVuSans-69" transform="translate(441.623)"/><use xlink:href="#DejaVuSans-73" transform="translate(469.406)"/><use xlink:href="#DejaVuSans-74" transform="translate(521.506)"/><use xlink:href="#DejaVuSans-50" transform="translate(592.502)"/><use xlink:href="#DejaVuSans-72" transform="translate(651.055)"/><use xlink:href="#DejaVuSans-65" transform="translate(689.918)"/><use xlink:href="#DejaVuSans-64" transform="translate(751.441)"/><use xlink:href="#DejaVuSans-69" transform="translate(814.918)"/><use xlink:href="#DejaVuSans-63" transform="translate(842.701)"/><use xlink:href="#DejaVuSans-74" transform="translate(897.682)"/><use xlink:href="#DejaVuSans-69" transform="translate(936.89)"/><use xlink:href="#DejaVuSans-76" transform="translate(964.674)"/><use xlink:href="#DejaVuSans-65" transform="translate(1023.854)"/></g></g></g></g><defs><clipPath id="pa64bb227d5"><path d="M47.917 22.318h357.12V288.43H47.917z"/></clipPath></defs></svg>