<svg xmlns="http://www.w3.org/2000/svg" xmlns:xlink="http://www.w3.org/1999/xlink" width="549.65" height="433.358" style="--axis-color:#000;--grid-stroke:rgba(0,0,0,0.2);--plot3d-stroke:rgba(0,0,0,0.3);--plot3d-grid:rgba(0,0,0,0.2);--black:#000000;--c1:#FF0001;--c2:#00FF02;--c3:#0000FF;--c4:#FF00FF;--c5:#00FFFF;--c6:#FFFF00;--c7:#FF8000;--c8:#8000FF;--gray:#7f7f7f;--grey:#7f7f7f;--octonary:#bcbd22;--primary:#d62728;--quaternary:#9467bd;--quinary:#8c564b;--secondary:#2ca02c;--senary:#e377c2;--septenary:#7f7f7f;--tertiary:#1f77b4;--white:#ffffff" viewBox="0 0 412.237 325.019"><style><![CDATA[@media (prefers-color-scheme:dark){:root{--axis-color:#fff;--grid-stroke:rgba(255,255,255,0.2);--plot3d-stroke:rgba(255,255,255,0.3);--plot3d-grid:rgba(255,255,255,0.2);--black:#FFFFFF;--c1:#FF0001;--c2:#00FF02;--c3:#0000FF;--c4:#FF00FF;--c5:#00FFFF;--c6:#FFFF00;--c7:#FF8000;--c8:#8000FF;--gray:#CCCCCC;--grey:#CCCCCC;--octonary:#E6DB74;--primary:#FF4A98;--quaternary:#B4A0FF;--quinary:#FFB86B;--secondary:#0AFAFA;--senary:#FF79C6;--septenary:#CCCCCC;--tertiary:#7F83FF;--white:#000000}}.text{fill:var(--axis-color)!important;stroke:none!important}.axis path,.patch path[style*="stroke: currentColor"],.tick path{stroke:var(--axis-color)!important}@media (prefers-color-scheme:dark){g.legend>g:first-child>path:first-child{fill:rgba(26,26,26,.8)!important;stroke:rgba(255,255,255,.1)!important}}*{stroke-linejoin:round;stroke-linecap:butt}]]></style><g id="figure_1"><path d="M0 325.019h412.237V0H0z" class="patch" style="fill:none"/><g id="axes_1"><path d="M47.917 288.43h357.12V22.318H47.917z" class="patch" style="fill:none"/><g class="axis"><g class="tick xtick"><path id="line2d_1" d="M64.15 288.43V22.318" clip-path="url(#p9bc5149ce2)" style="fill:none;stroke:#b0b0b0;stroke-opacity:.1;stroke-width:.8;stroke-linecap:square"/><g id="line2d_2"><defs><path id="m097aa8c8de" d="M0 0v3.5" style="stroke:var(--black);stroke-width:.8"/></defs><use xlink:href="#m097aa8c8de" x="64.15" y="288.43" style="stroke:var(--black);stroke-width:.8"/></g><g id="text_1" class="text" transform="matrix(.09 0 0 -.09 61.287 302.269)"><defs><path id="DejaVuSans-30" d="M2034 4250q-487 0-733-480-245-479-245-1442 0-959 245-1439 246-480 733-480 491 0 736 480 246 480 246 1439 0 963-246 1442-245 480-736 480zm0 500q785 0 1199-621 414-620 414-1801 0-1178-414-1799Q2819-91 2034-91q-784 0-1198 620-414 621-414 1799 0 1181 414 1801 414 621 1198 621z" transform="scale(.01563)"/></defs><use xlink:href="#DejaVuSans-30"/></g></g><g class="tick xtick"><path id="line2d_3" d="M129.08 288.43V22.318" clip-path="url(#p9bc5149ce2)" style="fill:none;stroke:#b0b0b0;stroke-opacity:.1;stroke-width:.8;stroke-linecap:square"/><use xlink:href="#m097aa8c8de" id="line2d_4" x="129.081" y="288.43" style="stroke:var(--black);stroke-width:.8"/><g id="text_2" class="text" transform="matrix(.09 0 0 -.09 123.355 302.269)"><defs><path id="DejaVuSans-31" d="M794 531h1031v3560L703 3866v575l1116 225h631V531h1031V0H794z" transform="scale(.01563)"/></defs><use xlink:href="#DejaVuSans-31"/><use xlink:href="#DejaVuSans-30" transform="translate(63.623)"/></g></g><g class="tick xtick"><path id="line2d_5" d="M194.012 288.43V22.318" clip-path="url(#p9bc5149ce2)" style="fill:none;stroke:#b0b0b0;stroke-opacity:.1;stroke-width:.8;stroke-linecap:square"/><use xlink:href="#m097aa8c8de" id="line2d_6" x="194.012" y="288.43" style="stroke:var(--black);stroke-width:.8"/><g id="text_3" class="text" transform="matrix(.09 0 0 -.09 188.285 302.269)"><defs><path id="DejaVuSans-32" d="M1228 531h2203V0H469v531q359 372 979 998 621 627 780 809 303 340 423 576 121 236 121 464 0 372-261 606-261 235-680 235-297 0-627-103-329-103-704-313v638q381 153 712 231 332 78 607 78 725 0 1156-363 431-362 431-968 0-288-108-546-107-257-392-607-78-91-497-524-418-433-1181-1211z" transform="scale(.01563)"/></defs><use xlink:href="#DejaVuSans-32"/><use xlink:href="#DejaVuSans-30" transform="translate(63.623)"/></g></g><g class="tick xtick"><path id="line2d_7" d="M258.943 288.43V22.318" clip-path="url(#p9bc5149ce2)" style="fill:none;stroke:#b0b0b0;stroke-opacity:.1;stroke-width:.8;stroke-linecap:square"/><use xlink:href="#m097aa8c8de" id="line2d_8" x="258.943" y="288.43" style="stroke:var(--black);stroke-width:.8"/><g id="text_4" class="text" transform="matrix(.09 0 0 -.09 253.216 302.269)"><defs><path id="DejaVuSans-33" d="M2597 2516q453-97 707-404 255-306 255-756 0-690-475-1069Q2609-91 1734-91q-293 0-604 58T488 141v609q262-153 574-231 313-78 654-78 593 0 904 234t311 681q0 413-289 645-289 233-804 233h-544v519h569q465 0 712 186t247 536q0 359-255 551-254 193-729 193-260 0-557-57-297-56-653-174v562q360 100 674 150t592 50q719 0 1137-327 419-326 419-882 0-388-222-655t-631-370z" transform="scale(.01563)"/></defs><use xlink:href="#DejaVuSans-33"/><use xlink:href="#DejaVuSans-30" transform="translate(63.623)"/></g></g><g class="tick xtick"><path id="line2d_9" d="M323.874 288.43V22.318" clip-path="url(#p9bc5149ce2)" style="fill:none;stroke:#b0b0b0;stroke-opacity:.1;stroke-width:.8;stroke-linecap:square"/><use xlink:href="#m097aa8c8de" id="line2d_10" x="323.874" y="288.43" style="stroke:var(--black);stroke-width:.8"/><g id="text_5" class="text" transform="matrix(.09 0 0 -.09 318.147 302.269)"><defs><path id="DejaVuSans-34" d="M2419 4116 825 1625h1594zm-166 550h794V1625h666v-525h-666V0h-628v1100H313v609z" transform="scale(.01563)"/></defs><use xlink:href="#DejaVuSans-34"/><use xlink:href="#DejaVuSans-30" transform="translate(63.623)"/></g></g><g class="tick xtick"><path id="line2d_11" d="M388.804 288.43V22.318" clip-path="url(#p9bc5149ce2)" style="fill:none;stroke:#b0b0b0;stroke-opacity:.1;stroke-width:.8;stroke-linecap:square"/><use xlink:href="#m097aa8c8de" id="line2d_12" x="388.804" y="288.43" style="stroke:var(--black);stroke-width:.8"/><g id="text_6" class="text" transform="matrix(.09 0 0 -.09 383.078 302.269)"><defs><path id="DejaVuSans-35" d="M691 4666h2478v-532H1269V2991q137 47 274 70 138 23 276 23 781 0 1237-428 457-428 457-1159 0-753-469-1171Q2575-91 1722-91q-294 0-599 50Q819 9 494 109v635q281-153 581-228t634-75q541 0 856 284 316 284 316 772 0 487-316 771-315 285-856 285-253 0-505-56-251-56-513-175z" transform="scale(.01563)"/></defs><use xlink:href="#DejaVuSans-35"/><use xlink:href="#DejaVuSans-30" transform="translate(63.623)"/></g></g><g id="text_7" class="text" transform="matrix(.1 0 0 -.1 212.154 315.739)"><defs><path id="DejaVuSans-54" d="M-19 4666h3947v-532H2272V0h-634v4134H-19z" transform="scale(.01563)"/><path id="DejaVuSans-68" d="M3513 2113V0h-575v2094q0 497-194 743-194 247-581 247-466 0-735-297-269-296-269-809V0H581v4863h578V2956q207 316 486 472 280 156 646 156 603 0 912-373 310-373 310-1098z" transform="scale(.01563)"/><path id="DejaVuSans-65" d="M3597 1894v-281H953q38-594 358-905t892-311q331 0 642 81t618 244V178Q3153 47 2828-22t-659-69q-838 0-1327 487-489 488-489 1320 0 859 464 1363 464 505 1252 505 706 0 1117-455 411-454 411-1235zm-575 169q-6 471-264 752-258 282-683 282-481 0-770-272t-333-766z" transform="scale(.01563)"/><path id="DejaVuSans-74" d="M1172 4494v-994h1184v-447H1172V1153q0-428 117-550t477-122h590V0h-590q-666 0-919 248-253 249-253 905v1900H172v447h422v994z" transform="scale(.01563)"/><path id="DejaVuSans-61" d="M2194 1759q-697 0-966-159t-269-544q0-306 202-486 202-179 548-179 479 0 768 339t289 901v128zm1147 238V0h-575v531q-197-318-491-470T1556-91q-537 0-855 302-317 302-317 808 0 590 395 890 396 300 1180 300h807v57q0 397-261 614t-733 217q-300 0-585-72-284-72-546-216v532q315 122 612 182 297 61 578 61 760 0 1135-394 375-393 375-1193z" transform="scale(.01563)"/></defs><use xlink:href="#DejaVuSans-54"/><use xlink:href="#DejaVuSans-68" transform="translate(61.084)"/><use xlink:href="#DejaVuSans-65" transform="translate(124.463)"/><use xlink:href="#DejaVuSans-74" transform="translate(185.986)"/><use xlink:href="#DejaVuSans-61" transform="translate(225.195)"/></g></g><g class="axis"><g class="tick ytick"><path id="line2d_13" d="M47.917 276.334h357.12" clip-path="url(#p9bc5149ce2)" style="fill:none;stroke:#b0b0b0;stroke-opacity:.1;stroke-width:.8;stroke-linecap:square"/><g id="line2d_14"><defs><path id="m5ff10538cb" d="M0 0h-3.5" style="stroke:var(--black);stroke-width:.8"/></defs><use xlink:href="#m5ff10538cb" x="47.917" y="276.334" style="stroke:var(--black);stroke-width:.8"/></g><g id="text_8" class="text" transform="matrix(.09 0 0 -.09 20.878 279.753)"><defs><path id="DejaVuSans-2e" d="M684 794h660V0H684z" transform="scale(.01563)"/></defs><use xlink:href="#DejaVuSans-30"/><use xlink:href="#DejaVuSans-2e" transform="translate(63.623)"/><use xlink:href="#DejaVuSans-30" transform="translate(95.41)"/><use xlink:href="#DejaVuSans-30" transform="translate(159.033)"/></g></g><g class="tick ytick"><path id="line2d_15" d="M47.917 243.449h357.12" clip-path="url(#p9bc5149ce2)" style="fill:none;stroke:#b0b0b0;stroke-opacity:.1;stroke-width:.8;stroke-linecap:square"/><use xlink:href="#m5ff10538cb" id="line2d_16" x="47.917" y="243.449" style="stroke:var(--black);stroke-width:.8"/><g id="text_9" class="text" transform="matrix(.09 0 0 -.09 20.878 246.868)"><use xlink:href="#DejaVuSans-30"/><use xlink:href="#DejaVuSans-2e" transform="translate(63.623)"/><use xlink:href="#DejaVuSans-30" transform="translate(95.41)"/><use xlink:href="#DejaVuSans-32" transform="translate(159.033)"/></g></g><g class="tick ytick"><path id="line2d_17" d="M47.917 210.563h357.12" clip-path="url(#p9bc5149ce2)" style="fill:none;stroke:#b0b0b0;stroke-opacity:.1;stroke-width:.8;stroke-linecap:square"/><use xlink:href="#m5ff10538cb" id="line2d_18" x="47.917" y="210.563" style="stroke:var(--black);stroke-width:.8"/><g id="text_10" class="text" transform="matrix(.09 0 0 -.09 20.878 213.982)"><use xlink:href="#DejaVuSans-30"/><use xlink:href="#DejaVuSans-2e" transform="translate(63.623)"/><use xlink:href="#DejaVuSans-30" transform="translate(95.41)"/><use xlink:href="#DejaVuSans-34" transform="translate(159.033)"/></g></g><g class="tick ytick"><path id="line2d_19" d="M47.917 177.677h357.12" clip-path="url(#p9bc5149ce2)" style="fill:none;stroke:#b0b0b0;stroke-opacity:.1;stroke-width:.8;stroke-linecap:square"/><use xlink:href="#m5ff10538cb" id="line2d_20" x="47.917" y="177.677" style="stroke:var(--black);stroke-width:.8"/><g id="text_11" class="text" transform="matrix(.09 0 0 -.09 20.878 181.097)"><defs><path id="DejaVuSans-36" d="M2113 2584q-425 0-674-291-248-290-248-796 0-503 248-796 249-292 674-292t673 292q248 293 248 796 0 506-248 796-248 291-673 291zm1253 1979v-575q-238 112-480 171-242 60-480 60-625 0-955-422-329-422-376-1275 184 272 462 417 279 145 613 145 703 0 1111-427 408-426 408-1160 0-719-425-1154Q2819-91 2113-91q-810 0-1238 620-428 621-428 1799 0 1106 525 1764t1409 658q238 0 480-47t505-140z" transform="scale(.01563)"/></defs><use xlink:href="#DejaVuSans-30"/><use xlink:href="#DejaVuSans-2e" transform="translate(63.623)"/><use xlink:href="#DejaVuSans-30" transform="translate(95.41)"/><use xlink:href="#DejaVuSans-36" transform="translate(159.033)"/></g></g><g class="tick ytick"><path id="line2d_21" d="M47.917 144.792h357.12" clip-path="url(#p9bc5149ce2)" style="fill:none;stroke:#b0b0b0;stroke-opacity:.1;stroke-width:.8;stroke-linecap:square"/><use xlink:href="#m5ff10538cb" id="line2d_22" x="47.917" y="144.792" style="stroke:var(--black);stroke-width:.8"/><g id="text_12" class="text" transform="matrix(.09 0 0 -.09 20.878 148.211)"><defs><path id="DejaVuSans-38" d="M2034 2216q-450 0-708-241-257-241-257-662 0-422 257-663 258-241 708-241t709 242q260 243 260 662 0 421-258 662-257 241-711 241zm-631 268q-406 100-633 378-226 279-226 679 0 559 398 884 399 325 1092 325 697 0 1094-325t397-884q0-400-227-679-226-278-629-378 456-106 710-416 255-309 255-755 0-679-414-1042Q2806-91 2034-91q-771 0-1186 362-414 363-414 1042 0 446 256 755 257 310 713 416zm-231 997q0-362 226-565 227-203 636-203 407 0 636 203 230 203 230 565 0 363-230 566-229 203-636 203-409 0-636-203-226-203-226-566z" transform="scale(.01563)"/></defs><use xlink:href="#DejaVuSans-30"/><use xlink:href="#DejaVuSans-2e" transform="translate(63.623)"/><use xlink:href="#DejaVuSans-30" transform="translate(95.41)"/><use xlink:href="#DejaVuSans-38" transform="translate(159.033)"/></g></g><g class="tick ytick"><path id="line2d_23" d="M47.917 111.906h357.12" clip-path="url(#p9bc5149ce2)" style="fill:none;stroke:#b0b0b0;stroke-opacity:.1;stroke-width:.8;stroke-linecap:square"/><use xlink:href="#m5ff10538cb" id="line2d_24" x="47.917" y="111.906" style="stroke:var(--black);stroke-width:.8"/><g id="text_13" class="text" transform="matrix(.09 0 0 -.09 20.878 115.326)"><use xlink:href="#DejaVuSans-30"/><use xlink:href="#DejaVuSans-2e" transform="translate(63.623)"/><use xlink:href="#DejaVuSans-31" transform="translate(95.41)"/><use xlink:href="#DejaVuSans-30" transform="translate(159.033)"/></g></g><g class="tick ytick"><path id="line2d_25" d="M47.917 79.02h357.12" clip-path="url(#p9bc5149ce2)" style="fill:none;stroke:#b0b0b0;stroke-opacity:.1;stroke-width:.8;stroke-linecap:square"/><use xlink:href="#m5ff10538cb" id="line2d_26" x="47.917" y="79.021" style="stroke:var(--black);stroke-width:.8"/><g id="text_14" class="text" transform="matrix(.09 0 0 -.09 20.878 82.44)"><use xlink:href="#DejaVuSans-30"/><use xlink:href="#DejaVuSans-2e" transform="translate(63.623)"/><use xlink:href="#DejaVuSans-31" transform="translate(95.41)"/><use xlink:href="#DejaVuSans-32" transform="translate(159.033)"/></g></g><g class="tick ytick"><path id="line2d_27" d="M47.917 46.135h357.12" clip-path="url(#p9bc5149ce2)" style="fill:none;stroke:#b0b0b0;stroke-opacity:.1;stroke-width:.8;stroke-linecap:square"/><use xlink:href="#m5ff10538cb" id="line2d_28" x="47.917" y="46.135" style="stroke:var(--black);stroke-width:.8"/><g id="text_15" class="text" transform="matrix(.09 0 0 -.09 20.878 49.555)"><use xlink:href="#DejaVuSans-30"/><use xlink:href="#DejaVuSans-2e" transform="translate(63.623)"/><use xlink:href="#DejaVuSans-31" transform="translate(95.41)"/><use xlink:href="#DejaVuSans-34" transform="translate(159.033)"/></g></g><g id="text_16" class="text" transform="matrix(0 -.1 -.1 0 14.798 174.383)"><defs><path id="DejaVuSans-44" d="M1259 4147V519h763q966 0 1414 437 448 438 448 1382 0 937-448 1373t-1414 436zm-631 519h1297q1356 0 1990-564 635-564 635-1764 0-1207-638-1773Q3275 0 1925 0H628z" transform="scale(.01563)"/><path id="DejaVuSans-6e" d="M3513 2113V0h-575v2094q0 497-194 743-194 247-581 247-466 0-735-297-269-296-269-809V0H581v3500h578v-544q207 316 486 472 280 156 646 156 603 0 912-373 310-373 310-1098z" transform="scale(.01563)"/><path id="DejaVuSans-73" d="M2834 3397v-544q-243 125-506 187-262 63-544 63-428 0-642-131t-214-394q0-200 153-314t616-217l197-44q612-131 870-370t258-667q0-488-386-773Q2250-91 1575-91q-281 0-586 55T347 128v594q319-166 628-249 309-82 613-82 406 0 624 139 219 139 219 392 0 234-158 359-157 125-692 241l-200 47q-534 112-772 345-237 233-237 639 0 494 350 762 350 269 994 269 318 0 599-47 282-46 519-140z" transform="scale(.01563)"/><path id="DejaVuSans-69" d="M603 3500h575V0H603zm0 1363h575v-729H603z" transform="scale(.01563)"/><path id="DejaVuSans-79" d="M2059-325q-243-625-475-815-231-191-618-191H506v481h338q237 0 368 113 132 112 291 531l103 262L191 3500h609L1894 763l1094 2737h609z" transform="scale(.01563)"/></defs><use xlink:href="#DejaVuSans-44"/><use xlink:href="#DejaVuSans-65" transform="translate(77.002)"/><use xlink:href="#DejaVuSans-6e" transform="translate(138.525)"/><use xlink:href="#DejaVuSans-73" transform="translate(201.904)"/><use xlink:href="#DejaVuSans-69" transform="translate(254.004)"/><use xlink:href="#DejaVuSans-74" transform="translate(281.787)"/><use xlink:href="#DejaVuSans-79" transform="translate(320.996)"/></g></g><path id="line2d_29" d="m64.15 276.334 44.522-.11 4.55-.235 3.25-.362 2.6-.484 2.274-.623 2.275-.867 1.95-.985 1.95-1.25 1.95-1.56 1.625-1.565 1.625-1.834 1.624-2.123 1.95-2.957 1.95-3.428 1.95-3.918 1.95-4.418 2.275-5.782 2.275-6.434 2.6-8.09 2.924-9.913 3.575-12.984 11.374-42.082 2.6-8.5 2.275-6.754 1.95-5.194 1.95-4.584 1.625-3.318 1.625-2.839 1.625-2.343 1.3-1.511 1.3-1.184 1.3-.857 1.3-.531.974-.187.975-.007.975.17 1.3.493 1.3.793 1.3 1.08 1.3 1.355 1.625 2.06 1.625 2.442 1.95 3.39 1.95 3.841 2.274 4.974 2.6 6.222 3.25 8.386 4.55 12.425 9.424 25.9 3.9 10.025 3.574 8.582 3.25 7.217 2.925 5.986 2.925 5.488 2.925 4.99 2.6 4.025 2.6 3.652 2.6 3.294 2.599 2.956 2.6 2.64 2.6 2.344 2.6 2.074 2.924 2.038 2.925 1.756 2.925 1.505 3.25 1.415 3.25 1.178 3.574 1.064 3.9.93 4.225.783 4.875.677 5.85.572 6.824.433 8.774.323 12.35.21 21.123.104 40.947.02h0" clip-path="url(#p9bc5149ce2)" style="fill:none;stroke:#8000ff;stroke-width:1.5;stroke-linecap:square"/><path id="line2d_30" d="m64.15 276.334 72.47-.109 4.225-.23 2.925-.35 2.275-.458 1.95-.583 1.95-.82 1.624-.915 1.625-1.172 1.625-1.48 1.625-1.843 1.625-2.26 1.625-2.735 1.625-3.263 1.625-3.842 1.625-4.466 1.624-5.124 1.625-5.805 1.95-7.879 1.95-8.859 2.275-11.503 2.6-14.5 3.25-19.647 8.774-54.198 2.275-12.351 1.95-9.451 1.625-6.92 1.625-5.942 1.3-3.995 1.3-3.285.974-1.983.975-1.563.975-1.139.975-.714.65-.24.65-.054.65.133.65.316.975.813.975 1.21.975 1.593.975 1.963 1.3 3.163 1.3 3.747 1.625 5.432 1.95 7.484 2.274 9.83 2.6 12.32 3.9 19.738 6.824 34.666 3.25 15.277 2.925 12.627 2.6 10.197 2.275 8.082 2.275 7.288 2.274 6.505 1.95 4.974 1.95 4.446 1.95 3.947 1.95 3.482 1.95 3.055 1.95 2.663 1.95 2.31 1.95 1.992 1.95 1.709 2.274 1.68 2.275 1.386 2.275 1.138 2.6 1.044 2.925.91 3.25.75 3.574.589 4.225.464 5.2.346 7.15.239 11.373.131 29.249.039h48.421" clip-path="url(#p9bc5149ce2)" style="fill:none;stroke-dasharray:5.55,2.4;stroke-dashoffset:0;stroke:#ff8000;stroke-width:1.5"/><path id="line2d_31" d="m64.15 276.334 84.495-.11 3.9-.247 2.6-.37 1.95-.47 1.624-.577 1.625-.803 1.3-.851 1.3-1.08 1.3-1.35 1.3-1.672 1.3-2.044 1.3-2.471 1.3-2.954 1.3-3.49 1.3-4.08 1.299-4.718 1.625-6.857 1.625-7.977 1.625-9.13 1.625-10.278 1.95-13.788 2.274-17.88 2.6-22.285 8.775-77.05 1.95-14.392 1.624-10.448 1.3-7.18 1.3-6.026.975-3.715.975-2.997.975-2.26.65-1.093.65-.759.65-.425.65-.093.65.237.65.563.65.883.65 1.198.975 2.369.975 3.029 1.3 5.003 1.3 6.02 1.624 8.794 1.95 12.117 2.275 15.78 3.25 24.392 6.5 49.134 2.6 17.946 2.274 14.377 2.275 12.982 1.95 9.96 1.95 8.88 1.95 7.826 1.95 6.822 1.624 4.966 1.625 4.36 1.625 3.801 1.625 3.294 1.625 2.836 1.625 2.426 1.625 2.063 1.625 1.745 1.625 1.467 1.95 1.447 1.95 1.158 1.95.92 2.274.83 2.6.699 2.925.548 3.575.433 4.55.31 6.499.2 11.7.091 51.346.014h38.022" clip-path="url(#p9bc5149ce2)" style="fill:none;stroke-dasharray:1.5,2.475;stroke-dashoffset:0;stroke:#ff0;stroke-width:1.5"/><path d="M47.917 288.43V22.318M47.917 288.43h357.12" class="patch" style="fill:none;stroke:var(--black);stroke-width:.8;stroke-linejoin:miter;stroke-linecap:square"/><g id="text_17" class="text" transform="matrix(.12 0 0 -.12 144.564 16.318)"><defs><path id="DejaVuSans-50" d="M1259 4147V2394h794q441 0 681 228 241 228 241 650 0 419-241 647-240 228-681 228zm-631 519h1425q785 0 1186-355 402-355 402-1039 0-691-402-1044-401-353-1186-353h-794V0H628z" transform="scale(.01563)"/><path id="DejaVuSans-6f" d="M1959 3097q-462 0-731-361t-269-989 267-989q268-361 733-361 460 0 728 362 269 363 269 988 0 622-269 986-268 364-728 364m0 487q750 0 1178-488 429-487 429-1349 0-859-429-1349Q2709-91 1959-91q-753 0-1180 489-426 490-426 1349 0 862 426 1349 427 488 1180 488" transform="scale(.01563)"/><path id="DejaVuSans-2d" d="M313 2009h1684v-512H313z" transform="scale(.01563)"/><path id="DejaVuSans-47" d="M3809 666v1253H2778v519h1656V434q-365-259-806-392-440-133-940-133-1094 0-1712 639-617 640-617 1780 0 1144 617 1783 618 639 1712 639 456 0 867-113 411-112 758-331v-672q-350 297-744 447t-828 150q-857 0-1287-478-429-478-429-1425 0-944 429-1422 430-478 1287-478 334 0 596 58 263 58 472 180" transform="scale(.01563)"/><path id="DejaVuSans-6d" d="M3328 2828q216 388 516 572t706 184q547 0 844-383 297-382 297-1088V0h-578v2094q0 503-179 746-178 244-543 244-447 0-707-297-259-296-259-809V0h-578v2094q0 506-178 748t-550 242q-441 0-701-298-259-298-259-808V0H581v3500h578v-544q197 322 472 475t653 153q382 0 649-194 267-193 395-562" transform="scale(.01563)"/><path id="DejaVuSans-43" d="M4122 4306v-665q-319 297-680 443-361 147-767 147-800 0-1225-489t-425-1414q0-922 425-1411t1225-489q406 0 767 147t680 444V359q-331-225-702-338-370-112-782-112-1060 0-1670 648-609 649-609 1771 0 1125 609 1773 610 649 1670 649 418 0 788-111 371-111 696-333" transform="scale(.01563)"/><path id="DejaVuSans-6a" d="M603 3500h575V-63q0-668-255-968-254-300-820-300h-219v487H38q328 0 446 152Q603-541 603-63zm0 1363h575v-729H603z" transform="scale(.01563)"/><path id="DejaVuSans-75" d="M544 1381v2119h575V1403q0-497 193-746 194-248 582-248 465 0 735 297 271 297 271 810v1984h575V0h-575v538q-209-319-486-474-276-155-642-155-603 0-916 375-312 375-312 1097m1447 2203" transform="scale(.01563)"/><path id="DejaVuSans-67" d="M2906 1791q0 625-258 968-257 344-723 344-462 0-720-344-258-343-258-968 0-622 258-966t720-344q466 0 723 344 258 344 258 966m575-1357q0-893-397-1329-396-436-1215-436-303 0-572 45t-522 139v559q253-137 500-202 247-66 503-66 566 0 847 295t281 892v285q-178-310-456-463T1784 0Q1141 0 747 490 353 981 353 1791q0 812 394 1302 394 491 1037 491 388 0 666-153t456-462v531h575z" transform="scale(.01563)"/><path id="DejaVuSans-63" d="M3122 3366v-538q-244 135-489 202t-495 67q-560 0-870-355-309-354-309-995t309-996q310-354 870-354 250 0 495 67t489 202V134Q2881 22 2623-34q-257-57-548-57-791 0-1257 497-465 497-465 1341 0 856 470 1346 471 491 1290 491 265 0 518-55 253-54 491-163" transform="scale(.01563)"/></defs><use xlink:href="#DejaVuSans-50"/><use xlink:href="#DejaVuSans-6f" transform="translate(56.678)"/><use xlink:href="#DejaVuSans-69" transform="translate(117.86)"/><use xlink:href="#DejaVuSans-73" transform="translate(145.643)"/><use xlink:href="#DejaVuSans-73" transform="translate(197.742)"/><use xlink:href="#DejaVuSans-6f" transform="translate(249.842)"/><use xlink:href="#DejaVuSans-6e" transform="translate(311.023)"/><use xlink:href="#DejaVuSans-2d" transform="translate(374.402)"/><use xlink:href="#DejaVuSans-47" transform="translate(414.111)"/><use xlink:href="#DejaVuSans-61" transform="translate(491.602)"/><use xlink:href="#DejaVuSans-6d" transform="translate(552.88)"/><use xlink:href="#DejaVuSans-6d" transform="translate(650.293)"/><use xlink:href="#DejaVuSans-61" transform="translate(747.705)"/><use xlink:href="#DejaVuSans-43" transform="translate(840.771)"/><use xlink:href="#DejaVuSans-6f" transform="translate(910.596)"/><use xlink:href="#DejaVuSans-6e" transform="translate(971.777)"/><use xlink:href="#DejaVuSans-6a" transform="translate(1035.156)"/><use xlink:href="#DejaVuSans-75" transform="translate(1062.94)"/><use xlink:href="#DejaVuSans-67" transform="translate(1126.318)"/><use xlink:href="#DejaVuSans-61" transform="translate(1189.795)"/><use xlink:href="#DejaVuSans-63" transform="translate(1251.074)"/><use xlink:href="#DejaVuSans-79" transform="translate(1306.055)"/></g><g class="legend"><path d="M279.554 74.353h118.483q2 0 2-2V29.318q0-2-2-2H279.554q-2 0-2 2v43.035q0 2 2 2z" class="patch" style="fill:rgba(255,255,255,.8)!important;opacity:.8;stroke:rgba(0,0,0,.1)!important;stroke-linejoin:miter"/><path id="line2d_32" d="M281.554 35.417h20" style="fill:none;stroke:#8000ff;stroke-width:1.5;stroke-linecap:square"/><g id="text_18" class="text" transform="matrix(.1 0 0 -.1 309.554 38.917)"><defs><path id="DejaVuSans-72" d="M2631 2963q-97 56-211 82-114 27-251 27-488 0-749-317t-261-911V0H581v3500h578v-544q182 319 472 473 291 155 707 155 59 0 131-8 72-7 159-23z" transform="scale(.01563)"/><path id="DejaVuSans-66" d="M2375 4863v-479h-550q-309 0-430-125-120-125-120-450v-309h947v-447h-947V0H697v3053H147v447h550v244q0 584 272 851 272 268 862 268z" transform="scale(.01563)"/><path id="DejaVuSans-78" d="M3513 3500 2247 1797 3578 0h-678L1881 1375 863 0H184l1360 1831L300 3500h678l928-1247 928 1247z" transform="scale(.01563)"/></defs><use xlink:href="#DejaVuSans-50"/><use xlink:href="#DejaVuSans-6f" transform="translate(56.678)"/><use xlink:href="#DejaVuSans-73" transform="translate(117.86)"/><use xlink:href="#DejaVuSans-74" transform="translate(169.959)"/><use xlink:href="#DejaVuSans-65" transform="translate(209.168)"/><use xlink:href="#DejaVuSans-72" transform="translate(270.691)"/><use xlink:href="#DejaVuSans-69" transform="translate(311.805)"/><use xlink:href="#DejaVuSans-6f" transform="translate(339.588)"/><use xlink:href="#DejaVuSans-72" transform="translate(400.77)"/><use xlink:href="#DejaVuSans-61" transform="translate(473.67)"/><use xlink:href="#DejaVuSans-66" transform="translate(534.95)"/><use xlink:href="#DejaVuSans-74" transform="translate(568.404)"/><use xlink:href="#DejaVuSans-65" transform="translate(607.613)"/><use xlink:href="#DejaVuSans-72" transform="translate(669.137)"/><use xlink:href="#DejaVuSans-78" transform="translate(742.037)"/><use xlink:href="#DejaVuSans-31" transform="translate(801.217)"/></g><path id="line2d_33" d="M281.554 50.095h20" style="fill:none;stroke-dasharray:5.55,2.4;stroke-dashoffset:0;stroke:#ff8000;stroke-width:1.5"/><g id="text_19" class="text" transform="matrix(.1 0 0 -.1 309.554 53.595)"><use xlink:href="#DejaVuSans-50"/><use xlink:href="#DejaVuSans-6f" transform="translate(56.678)"/><use xlink:href="#DejaVuSans-73" transform="translate(117.86)"/><use xlink:href="#DejaVuSans-74" transform="translate(169.959)"/><use xlink:href="#DejaVuSans-65" transform="translate(209.168)"/><use xlink:href="#DejaVuSans-72" transform="translate(270.691)"/><use xlink:href="#DejaVuSans-69" transform="translate(311.805)"/><use xlink:href="#DejaVuSans-6f" transform="translate(339.588)"/><use xlink:href="#DejaVuSans-72" transform="translate(400.77)"/><use xlink:href="#DejaVuSans-61" transform="translate(473.67)"/><use xlink:href="#DejaVuSans-66" transform="translate(534.95)"/><use xlink:href="#DejaVuSans-74" transform="translate(568.404)"/><use xlink:href="#DejaVuSans-65" transform="translate(607.613)"/><use xlink:href="#DejaVuSans-72" transform="translate(669.137)"/><use xlink:href="#DejaVuSans-78" transform="translate(742.037)"/><use xlink:href="#DejaVuSans-32" transform="translate(801.217)"/></g><path id="line2d_34" d="M281.554 64.773h20" style="fill:none;stroke-dasharray:1.5,2.475;stroke-dashoffset:0;stroke:#ff0;stroke-width:1.5"/><g id="text_20" class="text" transform="matrix(.1 0 0 -.1 309.554 68.273)"><use xlink:href="#DejaVuSans-50"/><use xlink:href="#DejaVuSans-6f" transform="translate(56.678)"/><use xlink:href="#DejaVuSans-73" transform="translate(117.86)"/><use xlink:href="#DejaVuSans-74" transform="translate(169.959)"/><use xlink:href="#DejaVuSans-65" transform="translate(209.168)"/><use xlink:href="#DejaVuSans-72" transform="translate(270.691)"/><use xlink:href="#DejaVuSans-69" transform="translate(311.805)"/><use xlink:href="#DejaVuSans-6f" transform="translate(339.588)"/><use xlink:href="#DejaVuSans-72" transform="translate(400.77)"/><use xlink:href="#DejaVuSans-61" transform="translate(473.67)"/><use xlink:href="#DejaVuSans-66" transform="translate(534.95)"/><use xlink:href="#DejaVuSans-74" transform="translate(568.404)"/><use xlink:href="#DejaVuSans-65" transform="translate(607.613)"/><use xlink:href="#DejaVuSans-72" transform="translate(669.137)"/><use xlink:href="#DejaVuSans-78" transform="translate(742.037)"/><use xlink:href="#DejaVuSans-33" transform="translate(801.217)"/></g></g></g></g><defs><clipPath id="p9bc5149ce2"><path d="M47.917 22.318h357.12V288.43H47.917z"/></clipPath></defs></svg>