<?xml version="1.0" encoding="utf-8" standalone="no"?>
<!DOCTYPE svg PUBLIC "-//W3C//DTD SVG 1.1//EN"
  "http://www.w3.org/Graphics/SVG/1.1/DTD/svg11.dtd">
<svg xmlns:xlink="http://www.w3.org/1999/xlink" width="350.03375pt" height="228.140628pt" viewBox="0 0 350.03375 228.140628" xmlns="http://www.w3.org/2000/svg" version="1.1">
<style>:root { --axis-color:#000; --grid-stroke:rgba(0,0,0,0.2); --plot3d-stroke:rgba(0,0,0,0.3); --plot3d-grid:rgba(0,0,0,0.2); }
@media (prefers-color-scheme:dark) { :root { --axis-color:#fff; --grid-stroke:rgba(255,255,255,0.2); --plot3d-stroke:rgba(255,255,255,0.3); --plot3d-grid:rgba(255,255,255,0.2); } }
.black{fill:#000000;stroke:#000000;}:root{--black:#000000;}.c1{fill:#FF0001;stroke:#FF0001;}:root{--c1:#FF0001;}.c2{fill:#00FF02;stroke:#00FF02;}:root{--c2:#00FF02;}.c3{fill:#0000FF;stroke:#0000FF;}:root{--c3:#0000FF;}.c4{fill:#FF00FF;stroke:#FF00FF;}:root{--c4:#FF00FF;}.c5{fill:#00FFFF;stroke:#00FFFF;}:root{--c5:#00FFFF;}.c6{fill:#FFFF00;stroke:#FFFF00;}:root{--c6:#FFFF00;}.c7{fill:#FF8000;stroke:#FF8000;}:root{--c7:#FF8000;}.c8{fill:#8000FF;stroke:#8000FF;}:root{--c8:#8000FF;}.gray{fill:#7f7f7f;stroke:#7f7f7f;}:root{--gray:#7f7f7f;}.grey{fill:#7f7f7f;stroke:#7f7f7f;}:root{--grey:#7f7f7f;}.octonary{fill:#bcbd22;stroke:#bcbd22;}:root{--octonary:#bcbd22;}.primary{fill:#d62728;stroke:#d62728;}:root{--primary:#d62728;}.quaternary{fill:#9467bd;stroke:#9467bd;}:root{--quaternary:#9467bd;}.quinary{fill:#8c564b;stroke:#8c564b;}:root{--quinary:#8c564b;}.secondary{fill:#2ca02c;stroke:#2ca02c;}:root{--secondary:#2ca02c;}.senary{fill:#e377c2;stroke:#e377c2;}:root{--senary:#e377c2;}.septenary{fill:#7f7f7f;stroke:#7f7f7f;}:root{--septenary:#7f7f7f;}.tertiary{fill:#1f77b4;stroke:#1f77b4;}:root{--tertiary:#1f77b4;}.white{fill:#ffffff;stroke:#ffffff;}:root{--white:#ffffff;}
@media (prefers-color-scheme:dark) { .black{fill:#FFFFFF;stroke:#FFFFFF;}:root{--black:#FFFFFF;}.c1{fill:#FF0001;stroke:#FF0001;}:root{--c1:#FF0001;}.c2{fill:#00FF02;stroke:#00FF02;}:root{--c2:#00FF02;}.c3{fill:#0000FF;stroke:#0000FF;}:root{--c3:#0000FF;}.c4{fill:#FF00FF;stroke:#FF00FF;}:root{--c4:#FF00FF;}.c5{fill:#00FFFF;stroke:#00FFFF;}:root{--c5:#00FFFF;}.c6{fill:#FFFF00;stroke:#FFFF00;}:root{--c6:#FFFF00;}.c7{fill:#FF8000;stroke:#FF8000;}:root{--c7:#FF8000;}.c8{fill:#8000FF;stroke:#8000FF;}:root{--c8:#8000FF;}.gray{fill:#CCCCCC;stroke:#CCCCCC;}:root{--gray:#CCCCCC;}.grey{fill:#CCCCCC;stroke:#CCCCCC;}:root{--grey:#CCCCCC;}.octonary{fill:#E6DB74;stroke:#E6DB74;}:root{--octonary:#E6DB74;}.primary{fill:#FF4A98;stroke:#FF4A98;}:root{--primary:#FF4A98;}.quaternary{fill:#B4A0FF;stroke:#B4A0FF;}:root{--quaternary:#B4A0FF;}.quinary{fill:#FFB86B;stroke:#FFB86B;}:root{--quinary:#FFB86B;}.secondary{fill:#0AFAFA;stroke:#0AFAFA;}:root{--secondary:#0AFAFA;}.senary{fill:#FF79C6;stroke:#FF79C6;}:root{--senary:#FF79C6;}.septenary{fill:#CCCCCC;stroke:#CCCCCC;}:root{--septenary:#CCCCCC;}.tertiary{fill:#7F83FF;stroke:#7F83FF;}:root{--tertiary:#7F83FF;}.white{fill:#000000;stroke:#000000;}:root{--white:#000000;} }
text,.text { fill:var(--axis-color)!important; stroke:none!important; }
.axis line,.axis path,.tick line,.tick path,path.domain,line.grid { stroke:var(--axis-color)!important; }
.legend text { fill:var(--axis-color)!important; }
.patch path[style*="stroke: currentColor"] { stroke:var(--axis-color)!important; }
g.legend>g:first-child>path:first-child { fill:rgba(255,255,255,0.8)!important; stroke:rgba(0,0,0,0.1)!important; }
@media (prefers-color-scheme:dark) { g.legend>g:first-child>path:first-child { fill:rgba(26,26,26,0.8)!important; stroke:rgba(255,255,255,0.1)!important; } }
.plot3d path,.plot3d polygon { stroke:var(--plot3d-stroke)!important; }
.plot3d-grid line { stroke:var(--plot3d-grid)!important; }
.plot3d-surface path[style*="fill:"] { fill-opacity:0.9!important; }
@media (prefers-color-scheme:dark) { .plot3d-surface path[style*="fill:"] { fill-opacity:0.95!important; filter:saturate(1.2)!important; } }</style>

 <metadata>
  <rdf:RDF xmlns:dc="http://purl.org/dc/elements/1.1/" xmlns:cc="http://creativecommons.org/ns#" xmlns:rdf="http://www.w3.org/1999/02/22-rdf-syntax-ns#">
   <cc:Work>
    <dc:type rdf:resource="http://purl.org/dc/dcmitype/StillImage"/>
    <dc:date>2026-05-06T23:46:23.157218</dc:date>
    <dc:format>image/svg+xml</dc:format>
    <dc:creator>
     <cc:Agent>
      <dc:title>Matplotlib v3.10.1, https://matplotlib.org/</dc:title>
     </cc:Agent>
    </dc:creator>
   </cc:Work>
  </rdf:RDF>
 </metadata>
 <defs>
  <style type="text/css">*{stroke-linejoin: round; stroke-linecap: butt}</style>
 </defs>
 <g id="figure_1">
  <g class="patch">
   <path d="M 0 228.140628 
L 350.03375 228.140628 
L 350.03375 0 
L 0 0 
L 0 228.140628 
z
" style="fill: none"/>
  </g>
  <g id="axes_1">
   <g class="patch">
    <path d="M 39.53375 193.216565 
L 346.43375 193.216565 
L 346.43375 4.720565 
L 39.53375 4.720565 
L 39.53375 193.216565 
z
" style="fill: none"/>
   </g>
   <g class="axis">
    <g class="tick xtick">
     <g id="line2d_1">
      <path d="M 43.276433 193.216565 
L 43.276433 4.720565 
" clip-path="url(#pe55997fb6c)" style="fill: none; stroke: #b0b0b0; stroke-opacity: 0.15; stroke-width: 0.5; stroke-linecap: square"/>
     </g>
     <g id="line2d_2">
      <defs>
       <path id="m68b50b143d" d="M 0 0 
L 0 3.5 
" style="stroke:var(--black); stroke-width: 0.8"/>
      </defs>
      <g>
       <use xlink:href="#m68b50b143d" x="43.276433" y="193.216565" style="stroke:var(--black); stroke-width: 0.8"/>
      </g>
     </g>
     <g id="text_1" class="text">
      <!-- $\mathdefault{−2}$ -->
      <g transform="translate(36.616433 207.055159) scale(0.09 -0.09)">
       <defs>
        <path id="DejaVuSerif-2212" d="M 678 2259 
L 4684 2259 
L 4684 1753 
L 678 1753 
L 678 2259 
z
" transform="scale(0.015625)"/>
        <path id="DejaVuSerif-32" d="M 819 3553 
L 469 3553 
L 469 4384 
Q 803 4563 1142 4656 
Q 1481 4750 1806 4750 
Q 2534 4750 2956 4397 
Q 3378 4044 3378 3438 
Q 3378 2753 2422 1800 
Q 2347 1728 2309 1691 
L 1131 513 
L 3078 513 
L 3078 1088 
L 3444 1088 
L 3444 0 
L 434 0 
L 434 341 
L 1850 1753 
Q 2319 2222 2519 2614 
Q 2719 3006 2719 3438 
Q 2719 3909 2473 4175 
Q 2228 4441 1797 4441 
Q 1350 4441 1106 4219 
Q 863 3997 819 3553 
z
" transform="scale(0.015625)"/>
       </defs>
       <use xlink:href="#DejaVuSerif-2212" transform="translate(0 0.78125)"/>
       <use xlink:href="#DejaVuSerif-32" transform="translate(83.789062 0.78125)"/>
      </g>
     </g>
    </g>
    <g class="tick xtick">
     <g id="line2d_3">
      <path d="M 80.703262 193.216565 
L 80.703262 4.720565 
" clip-path="url(#pe55997fb6c)" style="fill: none; stroke: #b0b0b0; stroke-opacity: 0.15; stroke-width: 0.5; stroke-linecap: square"/>
     </g>
     <g id="line2d_4">
      <g>
       <use xlink:href="#m68b50b143d" x="80.703262" y="193.216565" style="stroke:var(--black); stroke-width: 0.8"/>
      </g>
     </g>
     <g id="text_2" class="text">
      <!-- $\mathdefault{−1}$ -->
      <g transform="translate(74.043262 207.055159) scale(0.09 -0.09)">
       <defs>
        <path id="DejaVuSerif-31" d="M 909 0 
L 909 331 
L 1722 331 
L 1722 4213 
L 781 3603 
L 781 4013 
L 1919 4750 
L 2350 4750 
L 2350 331 
L 3163 331 
L 3163 0 
L 909 0 
z
" transform="scale(0.015625)"/>
       </defs>
       <use xlink:href="#DejaVuSerif-2212" transform="translate(0 0.78125)"/>
       <use xlink:href="#DejaVuSerif-31" transform="translate(83.789062 0.78125)"/>
      </g>
     </g>
    </g>
    <g class="tick xtick">
     <g id="line2d_5">
      <path d="M 118.130091 193.216565 
L 118.130091 4.720565 
" clip-path="url(#pe55997fb6c)" style="fill: none; stroke: #b0b0b0; stroke-opacity: 0.15; stroke-width: 0.5; stroke-linecap: square"/>
     </g>
     <g id="line2d_6">
      <g>
       <use xlink:href="#m68b50b143d" x="118.130091" y="193.216565" style="stroke:var(--black); stroke-width: 0.8"/>
      </g>
     </g>
     <g id="text_3" class="text">
      <!-- $\mathdefault{0}$ -->
      <g transform="translate(115.250091 207.055159) scale(0.09 -0.09)">
       <defs>
        <path id="DejaVuSerif-30" d="M 2034 219 
Q 2513 219 2750 744 
Q 2988 1269 2988 2328 
Q 2988 3391 2750 3916 
Q 2513 4441 2034 4441 
Q 1556 4441 1318 3916 
Q 1081 3391 1081 2328 
Q 1081 1269 1318 744 
Q 1556 219 2034 219 
z
M 2034 -91 
Q 1275 -91 848 546 
Q 422 1184 422 2328 
Q 422 3475 848 4112 
Q 1275 4750 2034 4750 
Q 2797 4750 3222 4112 
Q 3647 3475 3647 2328 
Q 3647 1184 3222 546 
Q 2797 -91 2034 -91 
z
" transform="scale(0.015625)"/>
       </defs>
       <use xlink:href="#DejaVuSerif-30" transform="translate(0 0.78125)"/>
      </g>
     </g>
    </g>
    <g class="tick xtick">
     <g id="line2d_7">
      <path d="M 155.556921 193.216565 
L 155.556921 4.720565 
" clip-path="url(#pe55997fb6c)" style="fill: none; stroke: #b0b0b0; stroke-opacity: 0.15; stroke-width: 0.5; stroke-linecap: square"/>
     </g>
     <g id="line2d_8">
      <g>
       <use xlink:href="#m68b50b143d" x="155.556921" y="193.216565" style="stroke:var(--black); stroke-width: 0.8"/>
      </g>
     </g>
     <g id="text_4" class="text">
      <!-- $\mathdefault{1}$ -->
      <g transform="translate(152.676921 207.055159) scale(0.09 -0.09)">
       <use xlink:href="#DejaVuSerif-31" transform="translate(0 0.78125)"/>
      </g>
     </g>
    </g>
    <g class="tick xtick">
     <g id="line2d_9">
      <path d="M 192.98375 193.216565 
L 192.98375 4.720565 
" clip-path="url(#pe55997fb6c)" style="fill: none; stroke: #b0b0b0; stroke-opacity: 0.15; stroke-width: 0.5; stroke-linecap: square"/>
     </g>
     <g id="line2d_10">
      <g>
       <use xlink:href="#m68b50b143d" x="192.98375" y="193.216565" style="stroke:var(--black); stroke-width: 0.8"/>
      </g>
     </g>
     <g id="text_5" class="text">
      <!-- $\mathdefault{2}$ -->
      <g transform="translate(190.10375 207.055159) scale(0.09 -0.09)">
       <use xlink:href="#DejaVuSerif-32" transform="translate(0 0.78125)"/>
      </g>
     </g>
    </g>
    <g class="tick xtick">
     <g id="line2d_11">
      <path d="M 230.410579 193.216565 
L 230.410579 4.720565 
" clip-path="url(#pe55997fb6c)" style="fill: none; stroke: #b0b0b0; stroke-opacity: 0.15; stroke-width: 0.5; stroke-linecap: square"/>
     </g>
     <g id="line2d_12">
      <g>
       <use xlink:href="#m68b50b143d" x="230.410579" y="193.216565" style="stroke:var(--black); stroke-width: 0.8"/>
      </g>
     </g>
     <g id="text_6" class="text">
      <!-- $\mathdefault{3}$ -->
      <g transform="translate(227.530579 207.055159) scale(0.09 -0.09)">
       <defs>
        <path id="DejaVuSerif-33" d="M 622 4469 
Q 988 4606 1323 4678 
Q 1659 4750 1953 4750 
Q 2638 4750 3022 4454 
Q 3406 4159 3406 3634 
Q 3406 3213 3140 2930 
Q 2875 2647 2388 2547 
Q 2963 2466 3280 2130 
Q 3597 1794 3597 1259 
Q 3597 606 3158 257 
Q 2719 -91 1894 -91 
Q 1528 -91 1179 -12 
Q 831 66 488 225 
L 488 1131 
L 838 1131 
Q 869 681 1141 450 
Q 1413 219 1906 219 
Q 2384 219 2661 495 
Q 2938 772 2938 1253 
Q 2938 1803 2653 2086 
Q 2369 2369 1819 2369 
L 1522 2369 
L 1522 2688 
L 1678 2688 
Q 2225 2688 2498 2914 
Q 2772 3141 2772 3597 
Q 2772 4006 2547 4223 
Q 2322 4441 1900 4441 
Q 1478 4441 1245 4241 
Q 1013 4041 972 3647 
L 622 3647 
L 622 4469 
z
" transform="scale(0.015625)"/>
       </defs>
       <use xlink:href="#DejaVuSerif-33" transform="translate(0 0.78125)"/>
      </g>
     </g>
    </g>
    <g class="tick xtick">
     <g id="line2d_13">
      <path d="M 267.837409 193.216565 
L 267.837409 4.720565 
" clip-path="url(#pe55997fb6c)" style="fill: none; stroke: #b0b0b0; stroke-opacity: 0.15; stroke-width: 0.5; stroke-linecap: square"/>
     </g>
     <g id="line2d_14">
      <g>
       <use xlink:href="#m68b50b143d" x="267.837409" y="193.216565" style="stroke:var(--black); stroke-width: 0.8"/>
      </g>
     </g>
     <g id="text_7" class="text">
      <!-- $\mathdefault{4}$ -->
      <g transform="translate(264.957409 207.055159) scale(0.09 -0.09)">
       <defs>
        <path id="DejaVuSerif-34" d="M 2234 1581 
L 2234 4063 
L 641 1581 
L 2234 1581 
z
M 3609 0 
L 1484 0 
L 1484 331 
L 2234 331 
L 2234 1247 
L 197 1247 
L 197 1588 
L 2241 4750 
L 2859 4750 
L 2859 1581 
L 3750 1581 
L 3750 1247 
L 2859 1247 
L 2859 331 
L 3609 331 
L 3609 0 
z
" transform="scale(0.015625)"/>
       </defs>
       <use xlink:href="#DejaVuSerif-34" transform="translate(0 0.78125)"/>
      </g>
     </g>
    </g>
    <g class="tick xtick">
     <g id="line2d_15">
      <path d="M 305.264238 193.216565 
L 305.264238 4.720565 
" clip-path="url(#pe55997fb6c)" style="fill: none; stroke: #b0b0b0; stroke-opacity: 0.15; stroke-width: 0.5; stroke-linecap: square"/>
     </g>
     <g id="line2d_16">
      <g>
       <use xlink:href="#m68b50b143d" x="305.264238" y="193.216565" style="stroke:var(--black); stroke-width: 0.8"/>
      </g>
     </g>
     <g id="text_8" class="text">
      <!-- $\mathdefault{5}$ -->
      <g transform="translate(302.384238 207.055159) scale(0.09 -0.09)">
       <defs>
        <path id="DejaVuSerif-35" d="M 3219 4666 
L 3219 4153 
L 1081 4153 
L 1081 2816 
Q 1244 2928 1461 2984 
Q 1678 3041 1947 3041 
Q 2703 3041 3140 2622 
Q 3578 2203 3578 1478 
Q 3578 738 3136 323 
Q 2694 -91 1894 -91 
Q 1572 -91 1234 -12 
Q 897 66 544 225 
L 544 1131 
L 897 1131 
Q 925 688 1179 453 
Q 1434 219 1894 219 
Q 2388 219 2653 544 
Q 2919 869 2919 1478 
Q 2919 2084 2655 2407 
Q 2391 2731 1894 2731 
Q 1613 2731 1398 2631 
Q 1184 2531 1019 2322 
L 750 2322 
L 750 4666 
L 3219 4666 
z
" transform="scale(0.015625)"/>
       </defs>
       <use xlink:href="#DejaVuSerif-35" transform="translate(0 0.09375)"/>
      </g>
     </g>
    </g>
    <g class="tick xtick">
     <g id="line2d_17">
      <path d="M 342.691067 193.216565 
L 342.691067 4.720565 
" clip-path="url(#pe55997fb6c)" style="fill: none; stroke: #b0b0b0; stroke-opacity: 0.15; stroke-width: 0.5; stroke-linecap: square"/>
     </g>
     <g id="line2d_18">
      <g>
       <use xlink:href="#m68b50b143d" x="342.691067" y="193.216565" style="stroke:var(--black); stroke-width: 0.8"/>
      </g>
     </g>
     <g id="text_9" class="text">
      <!-- $\mathdefault{6}$ -->
      <g transform="translate(339.811067 207.055159) scale(0.09 -0.09)">
       <defs>
        <path id="DejaVuSerif-36" d="M 2094 219 
Q 2534 219 2771 542 
Q 3009 866 3009 1472 
Q 3009 2078 2771 2401 
Q 2534 2725 2094 2725 
Q 1647 2725 1412 2412 
Q 1178 2100 1178 1509 
Q 1178 888 1415 553 
Q 1653 219 2094 219 
z
M 1075 2569 
Q 1288 2803 1556 2918 
Q 1825 3034 2163 3034 
Q 2859 3034 3264 2615 
Q 3669 2197 3669 1472 
Q 3669 763 3233 336 
Q 2797 -91 2069 -91 
Q 1278 -91 853 498 
Q 428 1088 428 2181 
Q 428 3406 931 4078 
Q 1434 4750 2350 4750 
Q 2597 4750 2869 4703 
Q 3141 4656 3425 4563 
L 3425 3794 
L 3072 3794 
Q 3034 4109 2831 4275 
Q 2628 4441 2284 4441 
Q 1678 4441 1381 3981 
Q 1084 3522 1075 2569 
z
" transform="scale(0.015625)"/>
       </defs>
       <use xlink:href="#DejaVuSerif-36" transform="translate(0 0.78125)"/>
      </g>
     </g>
    </g>
    <g id="text_10" class="text">
     <!-- $x_1$ -->
     <g transform="translate(187.04375 222.045003) scale(0.12 -0.12)">
      <defs>
       <path id="Cmmi10-78" d="M 500 184 
Q 613 97 819 97 
Q 1019 97 1172 289 
Q 1325 481 1381 709 
L 1672 1844 
Q 1741 2153 1741 2266 
Q 1741 2425 1652 2544 
Q 1563 2663 1403 2663 
Q 1200 2663 1022 2536 
Q 844 2409 722 2214 
Q 600 2019 550 1819 
Q 538 1778 500 1778 
L 422 1778 
Q 372 1778 372 1838 
L 372 1856 
Q 434 2094 584 2320 
Q 734 2547 951 2687 
Q 1169 2828 1416 2828 
Q 1650 2828 1839 2703 
Q 2028 2578 2106 2363 
Q 2216 2559 2386 2693 
Q 2556 2828 2759 2828 
Q 2897 2828 3040 2779 
Q 3184 2731 3275 2631 
Q 3366 2531 3366 2381 
Q 3366 2219 3261 2101 
Q 3156 1984 2994 1984 
Q 2891 1984 2822 2050 
Q 2753 2116 2753 2216 
Q 2753 2350 2845 2451 
Q 2938 2553 3066 2572 
Q 2950 2663 2747 2663 
Q 2541 2663 2389 2472 
Q 2238 2281 2175 2047 
L 1894 916 
Q 1825 659 1825 494 
Q 1825 331 1917 214 
Q 2009 97 2163 97 
Q 2463 97 2698 361 
Q 2934 625 3009 941 
Q 3022 978 3059 978 
L 3138 978 
Q 3163 978 3178 961 
Q 3194 944 3194 922 
Q 3194 916 3188 903 
Q 3097 522 2806 225 
Q 2516 -72 2150 -72 
Q 1916 -72 1727 54 
Q 1538 181 1459 397 
Q 1359 209 1182 68 
Q 1006 -72 806 -72 
Q 669 -72 523 -23 
Q 378 25 287 125 
Q 197 225 197 378 
Q 197 528 301 651 
Q 406 775 563 775 
Q 669 775 741 711 
Q 813 647 813 544 
Q 813 409 723 309 
Q 634 209 500 184 
z
" transform="scale(0.015625)"/>
       <path id="Cmr10-31" d="M 594 0 
L 594 225 
Q 1394 225 1394 428 
L 1394 3788 
Q 1063 3628 556 3628 
L 556 3853 
Q 1341 3853 1741 4263 
L 1831 4263 
Q 1853 4263 1873 4245 
Q 1894 4228 1894 4206 
L 1894 428 
Q 1894 225 2694 225 
L 2694 0 
L 594 0 
z
" transform="scale(0.015625)"/>
      </defs>
      <use xlink:href="#Cmmi10-78" transform="translate(0 0.8125)"/>
      <use xlink:href="#Cmr10-31" transform="translate(57.080078 -16.19375) scale(0.7)"/>
     </g>
    </g>
   </g>
   <g class="axis">
    <g class="tick ytick">
     <g id="line2d_19">
      <path d="M 39.53375 190.917833 
L 346.43375 190.917833 
" clip-path="url(#pe55997fb6c)" style="fill: none; stroke: #b0b0b0; stroke-opacity: 0.15; stroke-width: 0.5; stroke-linecap: square"/>
     </g>
     <g id="line2d_20">
      <defs>
       <path id="md1e84cfb5a" d="M 0 0 
L -3.5 0 
" style="stroke:var(--black); stroke-width: 0.8"/>
      </defs>
      <g>
       <use xlink:href="#md1e84cfb5a" x="39.53375" y="190.917833" style="stroke:var(--black); stroke-width: 0.8"/>
      </g>
     </g>
     <g id="text_11" class="text">
      <!-- $\mathdefault{−2}$ -->
      <g transform="translate(19.21375 194.33713) scale(0.09 -0.09)">
       <use xlink:href="#DejaVuSerif-2212" transform="translate(0 0.78125)"/>
       <use xlink:href="#DejaVuSerif-32" transform="translate(83.789062 0.78125)"/>
      </g>
     </g>
    </g>
    <g class="tick ytick">
     <g id="line2d_21">
      <path d="M 39.53375 167.930516 
L 346.43375 167.930516 
" clip-path="url(#pe55997fb6c)" style="fill: none; stroke: #b0b0b0; stroke-opacity: 0.15; stroke-width: 0.5; stroke-linecap: square"/>
     </g>
     <g id="line2d_22">
      <g>
       <use xlink:href="#md1e84cfb5a" x="39.53375" y="167.930516" style="stroke:var(--black); stroke-width: 0.8"/>
      </g>
     </g>
     <g id="text_12" class="text">
      <!-- $\mathdefault{−1}$ -->
      <g transform="translate(19.21375 171.349813) scale(0.09 -0.09)">
       <use xlink:href="#DejaVuSerif-2212" transform="translate(0 0.78125)"/>
       <use xlink:href="#DejaVuSerif-31" transform="translate(83.789062 0.78125)"/>
      </g>
     </g>
    </g>
    <g class="tick ytick">
     <g id="line2d_23">
      <path d="M 39.53375 144.943199 
L 346.43375 144.943199 
" clip-path="url(#pe55997fb6c)" style="fill: none; stroke: #b0b0b0; stroke-opacity: 0.15; stroke-width: 0.5; stroke-linecap: square"/>
     </g>
     <g id="line2d_24">
      <g>
       <use xlink:href="#md1e84cfb5a" x="39.53375" y="144.943199" style="stroke:var(--black); stroke-width: 0.8"/>
      </g>
     </g>
     <g id="text_13" class="text">
      <!-- $\mathdefault{0}$ -->
      <g transform="translate(26.77375 148.362496) scale(0.09 -0.09)">
       <use xlink:href="#DejaVuSerif-30" transform="translate(0 0.78125)"/>
      </g>
     </g>
    </g>
    <g class="tick ytick">
     <g id="line2d_25">
      <path d="M 39.53375 121.955882 
L 346.43375 121.955882 
" clip-path="url(#pe55997fb6c)" style="fill: none; stroke: #b0b0b0; stroke-opacity: 0.15; stroke-width: 0.5; stroke-linecap: square"/>
     </g>
     <g id="line2d_26">
      <g>
       <use xlink:href="#md1e84cfb5a" x="39.53375" y="121.955882" style="stroke:var(--black); stroke-width: 0.8"/>
      </g>
     </g>
     <g id="text_14" class="text">
      <!-- $\mathdefault{1}$ -->
      <g transform="translate(26.77375 125.375179) scale(0.09 -0.09)">
       <use xlink:href="#DejaVuSerif-31" transform="translate(0 0.78125)"/>
      </g>
     </g>
    </g>
    <g class="tick ytick">
     <g id="line2d_27">
      <path d="M 39.53375 98.968565 
L 346.43375 98.968565 
" clip-path="url(#pe55997fb6c)" style="fill: none; stroke: #b0b0b0; stroke-opacity: 0.15; stroke-width: 0.5; stroke-linecap: square"/>
     </g>
     <g id="line2d_28">
      <g>
       <use xlink:href="#md1e84cfb5a" x="39.53375" y="98.968565" style="stroke:var(--black); stroke-width: 0.8"/>
      </g>
     </g>
     <g id="text_15" class="text">
      <!-- $\mathdefault{2}$ -->
      <g transform="translate(26.77375 102.387862) scale(0.09 -0.09)">
       <use xlink:href="#DejaVuSerif-32" transform="translate(0 0.78125)"/>
      </g>
     </g>
    </g>
    <g class="tick ytick">
     <g id="line2d_29">
      <path d="M 39.53375 75.981248 
L 346.43375 75.981248 
" clip-path="url(#pe55997fb6c)" style="fill: none; stroke: #b0b0b0; stroke-opacity: 0.15; stroke-width: 0.5; stroke-linecap: square"/>
     </g>
     <g id="line2d_30">
      <g>
       <use xlink:href="#md1e84cfb5a" x="39.53375" y="75.981248" style="stroke:var(--black); stroke-width: 0.8"/>
      </g>
     </g>
     <g id="text_16" class="text">
      <!-- $\mathdefault{3}$ -->
      <g transform="translate(26.77375 79.400545) scale(0.09 -0.09)">
       <use xlink:href="#DejaVuSerif-33" transform="translate(0 0.78125)"/>
      </g>
     </g>
    </g>
    <g class="tick ytick">
     <g id="line2d_31">
      <path d="M 39.53375 52.993931 
L 346.43375 52.993931 
" clip-path="url(#pe55997fb6c)" style="fill: none; stroke: #b0b0b0; stroke-opacity: 0.15; stroke-width: 0.5; stroke-linecap: square"/>
     </g>
     <g id="line2d_32">
      <g>
       <use xlink:href="#md1e84cfb5a" x="39.53375" y="52.993931" style="stroke:var(--black); stroke-width: 0.8"/>
      </g>
     </g>
     <g id="text_17" class="text">
      <!-- $\mathdefault{4}$ -->
      <g transform="translate(26.77375 56.413228) scale(0.09 -0.09)">
       <use xlink:href="#DejaVuSerif-34" transform="translate(0 0.78125)"/>
      </g>
     </g>
    </g>
    <g class="tick ytick">
     <g id="line2d_33">
      <path d="M 39.53375 30.006614 
L 346.43375 30.006614 
" clip-path="url(#pe55997fb6c)" style="fill: none; stroke: #b0b0b0; stroke-opacity: 0.15; stroke-width: 0.5; stroke-linecap: square"/>
     </g>
     <g id="line2d_34">
      <g>
       <use xlink:href="#md1e84cfb5a" x="39.53375" y="30.006614" style="stroke:var(--black); stroke-width: 0.8"/>
      </g>
     </g>
     <g id="text_18" class="text">
      <!-- $\mathdefault{5}$ -->
      <g transform="translate(26.77375 33.425911) scale(0.09 -0.09)">
       <use xlink:href="#DejaVuSerif-35" transform="translate(0 0.09375)"/>
      </g>
     </g>
    </g>
    <g class="tick ytick">
     <g id="line2d_35">
      <path d="M 39.53375 7.019297 
L 346.43375 7.019297 
" clip-path="url(#pe55997fb6c)" style="fill: none; stroke: #b0b0b0; stroke-opacity: 0.15; stroke-width: 0.5; stroke-linecap: square"/>
     </g>
     <g id="line2d_36">
      <g>
       <use xlink:href="#md1e84cfb5a" x="39.53375" y="7.019297" style="stroke:var(--black); stroke-width: 0.8"/>
      </g>
     </g>
     <g id="text_19" class="text">
      <!-- $\mathdefault{6}$ -->
      <g transform="translate(26.77375 10.438594) scale(0.09 -0.09)">
       <use xlink:href="#DejaVuSerif-36" transform="translate(0 0.78125)"/>
      </g>
     </g>
    </g>
    <g id="text_20" class="text">
     <!-- $x_2$ -->
     <g transform="translate(12.718125 104.908565) rotate(-90) scale(0.12 -0.12)">
      <defs>
       <path id="Cmr10-32" d="M 319 0 
L 319 172 
Q 319 188 331 206 
L 1325 1306 
Q 1550 1550 1690 1715 
Q 1831 1881 1968 2097 
Q 2106 2313 2186 2536 
Q 2266 2759 2266 3009 
Q 2266 3272 2169 3511 
Q 2072 3750 1880 3894 
Q 1688 4038 1416 4038 
Q 1138 4038 916 3870 
Q 694 3703 603 3438 
Q 628 3444 672 3444 
Q 816 3444 917 3347 
Q 1019 3250 1019 3097 
Q 1019 2950 917 2848 
Q 816 2747 672 2747 
Q 522 2747 420 2851 
Q 319 2956 319 3097 
Q 319 3338 409 3548 
Q 500 3759 670 3923 
Q 841 4088 1055 4175 
Q 1269 4263 1509 4263 
Q 1875 4263 2190 4108 
Q 2506 3953 2690 3670 
Q 2875 3388 2875 3009 
Q 2875 2731 2753 2481 
Q 2631 2231 2440 2026 
Q 2250 1822 1953 1562 
Q 1656 1303 1563 1216 
L 838 519 
L 1453 519 
Q 1906 519 2211 526 
Q 2516 534 2534 550 
Q 2609 631 2688 1141 
L 2875 1141 
L 2694 0 
L 319 0 
z
" transform="scale(0.015625)"/>
      </defs>
      <use xlink:href="#Cmmi10-78" transform="translate(0 0.8125)"/>
      <use xlink:href="#Cmr10-32" transform="translate(57.080078 -16.19375) scale(0.7)"/>
     </g>
    </g>
   </g>
   <g id="QuadContourSet_1">
    <path d="M 174.598641 122.013495 
L 175.349054 122.013495 
L 176.099466 122.013495 
L 176.849879 122.013495 
L 177.600291 122.013495 
L 178.350704 122.013495 
L 179.101117 122.013495 
L 179.851529 122.013495 
L 180.601942 122.013495 
L 181.352354 122.013495 
L 182.102767 122.013495 
L 182.85318 122.013495 
L 183.603592 122.013495 
L 184.354005 122.013495 
L 185.104418 122.013495 
L 185.85483 122.013495 
L 186.605243 122.013495 
L 187.355655 122.013495 
L 188.106068 122.013495 
L 188.856481 122.013495 
L 189.606893 122.013495 
L 190.357306 122.013495 
L 191.107718 122.013495 
L 191.858131 122.013495 
L 192.608544 122.013495 
L 193.358956 122.013495 
L 194.109369 122.013495 
L 194.859782 122.013495 
L 195.610194 122.013495 
L 196.360607 122.013495 
L 197.111019 122.013495 
L 197.861432 122.013495 
L 198.611845 122.013495 
L 199.362257 122.013495 
L 200.11267 122.013495 
L 200.863082 122.013495 
L 201.613495 122.013495 
L 202.363908 122.013495 
L 203.11432 122.013495 
L 203.864733 122.013495 
L 204.615146 122.013495 
L 205.365558 122.013495 
L 206.115971 122.013495 
L 206.866383 122.013495 
L 207.616796 122.013495 
L 208.367209 122.013495 
L 209.117621 122.013495 
L 209.868034 122.013495 
L 210.618446 122.013495 
L 211.368859 122.013495 
L 212.119272 122.013495 
L 212.869684 122.013495 
L 213.620097 122.013495 
L 214.37051 122.013495 
L 215.120922 122.013495 
L 215.871335 122.013495 
L 216.621747 122.013495 
L 217.37216 122.013495 
L 218.122573 122.013495 
L 218.872985 122.013495 
L 219.623398 122.013495 
L 220.373811 122.013495 
L 221.124223 122.013495 
L 221.874636 122.013495 
L 222.625048 122.013495 
L 223.375461 122.013495 
L 224.125874 122.013495 
L 224.876286 122.013495 
L 225.626699 122.013495 
L 226.377111 122.013495 
L 227.127524 122.013495 
L 227.877937 122.013495 
L 228.628349 122.013495 
L 229.378762 122.013495 
L 230.129175 122.013495 
L 230.879587 122.013495 
L 231.63 122.013495 
L 232.380412 122.013495 
L 233.130825 122.013495 
L 233.881238 122.013495 
L 234.63165 122.013495 
L 235.382063 122.013495 
L 236.132475 122.013495 
L 236.882888 122.013495 
L 237.633301 122.013495 
L 238.383713 122.013495 
L 239.134126 122.013495 
L 239.884539 122.013495 
L 240.634951 122.013495 
L 241.385364 122.013495 
L 242.135776 122.013495 
L 242.886189 122.013495 
L 243.636602 122.013495 
L 244.387014 122.013495 
L 245.137427 122.013495 
L 245.887839 122.013495 
L 246.638252 122.013495 
L 247.388665 122.013495 
L 248.139077 122.013495 
L 248.88949 122.013495 
L 249.639903 122.013495 
L 250.390315 122.013495 
L 251.140728 122.013495 
L 251.89114 122.013495 
L 252.641553 122.013495 
L 253.391966 122.013495 
L 254.142378 122.013495 
L 254.892791 122.013495 
L 255.643204 122.013495 
L 256.393616 122.013495 
L 257.144029 122.013495 
L 257.894441 122.013495 
L 258.644854 122.013495 
L 259.395267 122.013495 
L 260.145679 122.013495 
L 260.896092 122.013495 
L 261.646504 122.013495 
L 262.396917 122.013495 
L 263.14733 122.013495 
L 263.897742 122.013495 
L 264.648155 122.013495 
L 265.398568 122.013495 
L 266.14898 122.013495 
L 266.899393 122.013495 
L 267.274599 121.783045 
L 266.899393 121.552596 
L 266.14898 121.552596 
L 265.773774 121.322147 
L 265.398568 121.091697 
L 264.648155 121.091697 
L 264.272949 120.861248 
L 263.897742 120.630799 
L 263.14733 120.630799 
L 262.772123 120.40035 
L 262.396917 120.1699 
L 261.646504 120.1699 
L 261.271298 119.939451 
L 260.896092 119.709002 
L 260.145679 119.709002 
L 259.770473 119.478552 
L 259.395267 119.248103 
L 258.644854 119.248103 
L 258.269648 119.017654 
L 257.894441 118.787204 
L 257.144029 118.787204 
L 256.768822 118.556755 
L 256.393616 118.326306 
L 255.643204 118.326306 
L 255.267997 118.095857 
L 254.892791 117.865407 
L 254.142378 117.865407 
L 253.767172 117.634958 
L 253.391966 117.404509 
L 252.641553 117.404509 
L 252.266347 117.174059 
L 251.89114 116.94361 
L 251.140728 116.94361 
L 250.765522 116.713161 
L 250.390315 116.482712 
L 249.639903 116.482712 
L 249.264696 116.252262 
L 248.88949 116.021813 
L 248.139077 116.021813 
L 247.763871 115.791364 
L 247.388665 115.560914 
L 246.638252 115.560914 
L 246.263046 115.330465 
L 245.887839 115.100016 
L 245.137427 115.100016 
L 244.762221 114.869566 
L 244.387014 114.639117 
L 243.636602 114.639117 
L 243.261395 114.408668 
L 242.886189 114.178219 
L 242.135776 114.178219 
L 241.76057 113.947769 
L 241.385364 113.71732 
L 240.634951 113.71732 
L 240.259745 113.486871 
L 239.884539 113.256421 
L 239.134126 113.256421 
L 238.75892 113.025972 
L 238.383713 112.795523 
L 237.633301 112.795523 
L 237.258094 112.565074 
L 236.882888 112.334624 
L 236.132475 112.334624 
L 235.757269 112.104175 
L 235.382063 111.873726 
L 234.63165 111.873726 
L 234.256444 111.643276 
L 233.881238 111.412827 
L 233.130825 111.412827 
L 232.755619 111.182378 
L 232.380412 110.951928 
L 231.63 110.951928 
L 231.254793 110.721479 
L 230.879587 110.49103 
L 230.129175 110.49103 
L 229.753968 110.260581 
L 229.378762 110.030131 
L 228.628349 110.030131 
L 228.253143 109.799682 
L 227.877937 109.569233 
L 227.127524 109.569233 
L 226.752318 109.338783 
L 226.377111 109.108334 
L 225.626699 109.108334 
L 225.251493 108.877885 
L 224.876286 108.647436 
L 224.125874 108.647436 
L 223.750667 108.416986 
L 223.375461 108.186537 
L 222.625048 108.186537 
L 222.249842 107.956088 
L 221.874636 107.725638 
L 221.124223 107.725638 
L 220.749017 107.495189 
L 220.373811 107.26474 
L 219.623398 107.26474 
L 219.248192 107.03429 
L 218.872985 106.803841 
L 218.122573 106.803841 
L 217.747366 106.573392 
L 217.37216 106.342943 
L 216.621747 106.342943 
L 216.246541 106.112493 
L 215.871335 105.882044 
L 215.120922 105.882044 
L 214.745716 105.651595 
L 214.37051 105.421145 
L 213.620097 105.421145 
L 213.244891 105.190696 
L 212.869684 104.960247 
L 212.119272 104.960247 
L 211.744065 104.729798 
L 211.368859 104.499348 
L 210.618446 104.499348 
L 210.24324 104.268899 
L 209.868034 104.03845 
L 209.117621 104.03845 
L 208.742415 103.808 
L 208.367209 103.577551 
L 207.616796 103.577551 
L 207.24159 103.347102 
L 206.866383 103.116652 
L 206.115971 103.116652 
L 205.740764 102.886203 
L 205.365558 102.655754 
L 204.615146 102.655754 
L 204.239939 102.425305 
L 203.864733 102.194855 
L 203.11432 102.194855 
L 202.739114 101.964406 
L 202.363908 101.733957 
L 201.613495 101.733957 
L 201.238289 101.503507 
L 200.863082 101.273058 
L 200.11267 101.273058 
L 199.737464 101.042609 
L 199.362257 100.81216 
L 198.611845 100.81216 
L 198.236638 100.58171 
L 197.861432 100.351261 
L 197.111019 100.351261 
L 196.735813 100.120812 
L 196.360607 99.890362 
L 195.610194 99.890362 
L 195.234988 99.659913 
L 194.859782 99.429464 
L 194.109369 99.429464 
L 193.734163 99.199014 
L 193.358956 98.968565 
L 192.98375 99.199014 
L 192.608544 99.429464 
L 192.233337 99.659913 
L 192.233337 100.120812 
L 191.858131 100.351261 
L 191.482925 100.58171 
L 191.482925 101.042609 
L 191.107718 101.273058 
L 190.732512 101.503507 
L 190.732512 101.964406 
L 190.357306 102.194855 
L 189.9821 102.425305 
L 189.9821 102.886203 
L 189.606893 103.116652 
L 189.231687 103.347102 
L 189.231687 103.808 
L 188.856481 104.03845 
L 188.481274 104.268899 
L 188.481274 104.729798 
L 188.106068 104.960247 
L 187.730862 105.190696 
L 187.730862 105.651595 
L 187.355655 105.882044 
L 186.980449 106.112493 
L 186.980449 106.573392 
L 186.605243 106.803841 
L 186.230036 107.03429 
L 186.230036 107.495189 
L 185.85483 107.725638 
L 185.479624 107.956088 
L 185.479624 108.416986 
L 185.104418 108.647436 
L 184.729211 108.877885 
L 184.729211 109.338783 
L 184.354005 109.569233 
L 183.978799 109.799682 
L 183.978799 110.260581 
L 183.603592 110.49103 
L 183.228386 110.721479 
L 183.228386 111.182378 
L 182.85318 111.412827 
L 182.477973 111.643276 
L 182.477973 112.104175 
L 182.102767 112.334624 
L 181.727561 112.565074 
L 181.727561 113.025972 
L 181.352354 113.256421 
L 180.977148 113.486871 
L 180.977148 113.947769 
L 180.601942 114.178219 
L 180.226736 114.408668 
L 180.226736 114.869566 
L 179.851529 115.100016 
L 179.476323 115.330465 
L 179.476323 115.791364 
L 179.101117 116.021813 
L 178.72591 116.252262 
L 178.72591 116.713161 
L 178.350704 116.94361 
L 177.975498 117.174059 
L 177.975498 117.634958 
L 177.600291 117.865407 
L 177.225085 118.095857 
L 177.225085 118.556755 
L 176.849879 118.787204 
L 176.474672 119.017654 
L 176.474672 119.478552 
L 176.099466 119.709002 
L 175.72426 119.939451 
L 175.72426 120.40035 
L 175.349054 120.630799 
L 174.973847 120.861248 
L 174.973847 121.322147 
L 174.598641 121.552596 
L 174.223435 121.783045 
z
" clip-path="url(#pe55997fb6c)" style="fill:var(--c8); fill-opacity: 0.4"/>
   </g>
   <g id="line2d_37">
    <path d="M 43.276433 52.993931 
L 46.300823 53.922712 
L 49.325213 54.851492 
L 52.349604 55.780272 
L 55.373994 56.709053 
L 58.398384 57.637833 
L 61.422774 58.566614 
L 64.447165 59.495394 
L 67.471555 60.424175 
L 70.495945 61.352955 
L 73.520335 62.281736 
L 76.544726 63.210516 
L 79.569116 64.139297 
L 82.593506 65.068077 
L 85.617896 65.996858 
L 88.642287 66.925638 
L 91.666677 67.854419 
L 94.691067 68.783199 
L 97.715457 69.71198 
L 100.739848 70.64076 
L 103.764238 71.569541 
L 106.788628 72.498321 
L 109.813018 73.427102 
L 112.837409 74.355882 
L 115.861799 75.284663 
L 118.886189 76.213443 
L 121.910579 77.142224 
L 124.93497 78.071004 
L 127.95936 78.999785 
L 130.98375 79.928565 
L 134.00814 80.857346 
L 137.03253 81.786126 
L 140.056921 82.714907 
L 143.081311 83.643687 
L 146.105701 84.572468 
L 149.130091 85.501248 
L 152.154482 86.430029 
L 155.178872 87.358809 
L 158.203262 88.28759 
L 161.227652 89.21637 
L 164.252043 90.145151 
L 167.276433 91.073931 
L 170.300823 92.002712 
L 173.325213 92.931492 
L 176.349604 93.860272 
L 179.373994 94.789053 
L 182.398384 95.717833 
L 185.422774 96.646614 
L 188.447165 97.575394 
L 191.471555 98.504175 
L 194.495945 99.432955 
L 197.520335 100.361736 
L 200.544726 101.290516 
L 203.569116 102.219297 
L 206.593506 103.148077 
L 209.617896 104.076858 
L 212.642287 105.005638 
L 215.666677 105.934419 
L 218.691067 106.863199 
L 221.715457 107.79198 
L 224.739848 108.72076 
L 227.764238 109.649541 
L 230.788628 110.578321 
L 233.813018 111.507102 
L 236.837409 112.435882 
L 239.861799 113.364663 
L 242.886189 114.293443 
L 245.910579 115.222224 
L 248.93497 116.151004 
L 251.95936 117.079785 
L 254.98375 118.008565 
L 258.00814 118.937346 
L 261.03253 119.866126 
L 264.056921 120.794907 
L 267.081311 121.723687 
L 270.105701 122.652468 
L 273.130091 123.581248 
L 276.154482 124.510029 
L 279.178872 125.438809 
L 282.203262 126.36759 
L 285.227652 127.29637 
L 288.252043 128.225151 
L 291.276433 129.153931 
L 294.300823 130.082712 
L 297.325213 131.011492 
L 300.349604 131.940272 
L 303.373994 132.869053 
L 306.398384 133.797833 
L 309.422774 134.726614 
L 312.447165 135.655394 
L 315.471555 136.584175 
L 318.495945 137.512955 
L 321.520335 138.441736 
L 324.544726 139.370516 
L 327.569116 140.299297 
L 330.593506 141.228077 
L 333.617896 142.156858 
L 336.642287 143.085638 
L 339.666677 144.014419 
L 342.691067 144.943199 
" clip-path="url(#pe55997fb6c)" style="fill: none; stroke:var(--c8); stroke-opacity: 0.8; stroke-width: 2; stroke-linecap: square"/>
   </g>
   <g id="line2d_38">
    <path d="M 87.013846 229.140628 
L 88.642287 227.140272 
L 91.666677 223.425151 
L 94.691067 219.710029 
L 97.715457 215.994907 
L 100.739848 212.279785 
L 103.764238 208.564663 
L 106.788628 204.849541 
L 109.813018 201.134419 
L 112.837409 197.419297 
L 115.861799 193.704175 
L 118.886189 189.989053 
L 121.910579 186.273931 
L 124.93497 182.558809 
L 127.95936 178.843687 
L 130.98375 175.128565 
L 134.00814 171.413443 
L 137.03253 167.698321 
L 140.056921 163.983199 
L 143.081311 160.268077 
L 146.105701 156.552955 
L 149.130091 152.837833 
L 152.154482 149.122712 
L 155.178872 145.40759 
L 158.203262 141.692468 
L 161.227652 137.977346 
L 164.252043 134.262224 
L 167.276433 130.547102 
L 170.300823 126.83198 
L 173.325213 123.116858 
L 176.349604 119.401736 
L 179.373994 115.686614 
L 182.398384 111.971492 
L 185.422774 108.25637 
L 188.447165 104.541248 
L 191.471555 100.826126 
L 194.495945 97.111004 
L 197.520335 93.395882 
L 200.544726 89.68076 
L 203.569116 85.965638 
L 206.593506 82.250516 
L 209.617896 78.535394 
L 212.642287 74.820272 
L 215.666677 71.105151 
L 218.691067 67.390029 
L 221.715457 63.674907 
L 224.739848 59.959785 
L 227.764238 56.244663 
L 230.788628 52.529541 
L 233.813018 48.814419 
L 236.837409 45.099297 
L 239.861799 41.384175 
L 242.886189 37.669053 
L 245.910579 33.953931 
L 248.93497 30.238809 
L 251.95936 26.523687 
L 254.98375 22.808565 
L 258.00814 19.093443 
L 261.03253 15.378321 
L 264.056921 11.663199 
L 267.081311 7.948077 
L 270.105701 4.232955 
L 273.130091 0.517833 
L 274.365723 -1 
" clip-path="url(#pe55997fb6c)" style="fill: none; stroke:var(--c8); stroke-opacity: 0.8; stroke-width: 2; stroke-linecap: square"/>
   </g>
   <g id="line2d_39">
    <path d="M 43.276433 121.955882 
L 46.300823 121.955882 
L 49.325213 121.955882 
L 52.349604 121.955882 
L 55.373994 121.955882 
L 58.398384 121.955882 
L 61.422774 121.955882 
L 64.447165 121.955882 
L 67.471555 121.955882 
L 70.495945 121.955882 
L 73.520335 121.955882 
L 76.544726 121.955882 
L 79.569116 121.955882 
L 82.593506 121.955882 
L 85.617896 121.955882 
L 88.642287 121.955882 
L 91.666677 121.955882 
L 94.691067 121.955882 
L 97.715457 121.955882 
L 100.739848 121.955882 
L 103.764238 121.955882 
L 106.788628 121.955882 
L 109.813018 121.955882 
L 112.837409 121.955882 
L 115.861799 121.955882 
L 118.886189 121.955882 
L 121.910579 121.955882 
L 124.93497 121.955882 
L 127.95936 121.955882 
L 130.98375 121.955882 
L 134.00814 121.955882 
L 137.03253 121.955882 
L 140.056921 121.955882 
L 143.081311 121.955882 
L 146.105701 121.955882 
L 149.130091 121.955882 
L 152.154482 121.955882 
L 155.178872 121.955882 
L 158.203262 121.955882 
L 161.227652 121.955882 
L 164.252043 121.955882 
L 167.276433 121.955882 
L 170.300823 121.955882 
L 173.325213 121.955882 
L 176.349604 121.955882 
L 179.373994 121.955882 
L 182.398384 121.955882 
L 185.422774 121.955882 
L 188.447165 121.955882 
L 191.471555 121.955882 
L 194.495945 121.955882 
L 197.520335 121.955882 
L 200.544726 121.955882 
L 203.569116 121.955882 
L 206.593506 121.955882 
L 209.617896 121.955882 
L 212.642287 121.955882 
L 215.666677 121.955882 
L 218.691067 121.955882 
L 221.715457 121.955882 
L 224.739848 121.955882 
L 227.764238 121.955882 
L 230.788628 121.955882 
L 233.813018 121.955882 
L 236.837409 121.955882 
L 239.861799 121.955882 
L 242.886189 121.955882 
L 245.910579 121.955882 
L 248.93497 121.955882 
L 251.95936 121.955882 
L 254.98375 121.955882 
L 258.00814 121.955882 
L 261.03253 121.955882 
L 264.056921 121.955882 
L 267.081311 121.955882 
L 270.105701 121.955882 
L 273.130091 121.955882 
L 276.154482 121.955882 
L 279.178872 121.955882 
L 282.203262 121.955882 
L 285.227652 121.955882 
L 288.252043 121.955882 
L 291.276433 121.955882 
L 294.300823 121.955882 
L 297.325213 121.955882 
L 300.349604 121.955882 
L 303.373994 121.955882 
L 306.398384 121.955882 
L 309.422774 121.955882 
L 312.447165 121.955882 
L 315.471555 121.955882 
L 318.495945 121.955882 
L 321.520335 121.955882 
L 324.544726 121.955882 
L 327.569116 121.955882 
L 330.593506 121.955882 
L 333.617896 121.955882 
L 336.642287 121.955882 
L 339.666677 121.955882 
L 342.691067 121.955882 
" clip-path="url(#pe55997fb6c)" style="fill: none; stroke:var(--c8); stroke-opacity: 0.8; stroke-width: 2; stroke-linecap: square"/>
   </g>
   <g class="patch">
    <path d="M 39.53375 193.216565 
L 39.53375 4.720565 
" style="fill: none; stroke:var(--black); stroke-width: 0.8; stroke-linejoin: miter; stroke-linecap: square"/>
   </g>
   <g class="patch">
    <path d="M 39.53375 193.216565 
L 346.43375 193.216565 
" style="fill: none; stroke:var(--black); stroke-width: 0.8; stroke-linejoin: miter; stroke-linecap: square"/>
   </g>
   <g class="legend">
    <g class="patch">
     <path d="M 226.6275 27.540878 
L 339.43375 27.540878 
Q 341.43375 27.540878 341.43375 25.540878 
L 341.43375 11.720565 
Q 341.43375 9.720565 339.43375 9.720565 
L 226.6275 9.720565 
Q 224.6275 9.720565 224.6275 11.720565 
L 224.6275 25.540878 
Q 224.6275 27.540878 226.6275 27.540878 
L 226.6275 27.540878 
z
" style="fill: none; opacity: 0.9; stroke: #cccccc; stroke-linejoin: miter"/>
    </g>
    <g class="patch">
     <path d="M 228.6275 21.319003 
L 248.6275 21.319003 
L 248.6275 14.319003 
L 228.6275 14.319003 
z
" style="fill:var(--c8); opacity: 0.4"/>
    </g>
    <g id="text_21" class="text">
     <!-- Feasible Region -->
     <g transform="translate(256.6275 21.319003) scale(0.1 -0.1)">
      <defs>
       <path id="DejaVuSerif-46" d="M 353 0 
L 353 331 
L 947 331 
L 947 4331 
L 353 4331 
L 353 4666 
L 4172 4666 
L 4172 3628 
L 3788 3628 
L 3788 4281 
L 1581 4281 
L 1581 2719 
L 3175 2719 
L 3175 3303 
L 3559 3303 
L 3559 1753 
L 3175 1753 
L 3175 2338 
L 1581 2338 
L 1581 331 
L 2328 331 
L 2328 0 
L 353 0 
z
" transform="scale(0.015625)"/>
       <path id="DejaVuSerif-65" d="M 3469 1600 
L 991 1600 
L 991 1575 
Q 991 903 1244 561 
Q 1497 219 1991 219 
Q 2369 219 2611 417 
Q 2853 616 2950 1006 
L 3413 1006 
Q 3275 459 2904 184 
Q 2534 -91 1931 -91 
Q 1203 -91 761 389 
Q 319 869 319 1663 
Q 319 2450 753 2931 
Q 1188 3413 1894 3413 
Q 2647 3413 3050 2948 
Q 3453 2484 3469 1600 
z
M 2791 1931 
Q 2772 2513 2545 2808 
Q 2319 3103 1894 3103 
Q 1497 3103 1269 2806 
Q 1041 2509 991 1931 
L 2791 1931 
z
" transform="scale(0.015625)"/>
       <path id="DejaVuSerif-61" d="M 2547 1044 
L 2547 1747 
L 1806 1747 
Q 1378 1747 1168 1562 
Q 959 1378 959 997 
Q 959 650 1171 447 
Q 1384 244 1747 244 
Q 2106 244 2326 466 
Q 2547 688 2547 1044 
z
M 3122 2075 
L 3122 331 
L 3634 331 
L 3634 0 
L 2547 0 
L 2547 359 
Q 2356 128 2106 18 
Q 1856 -91 1522 -91 
Q 969 -91 644 203 
Q 319 497 319 997 
Q 319 1513 691 1797 
Q 1063 2081 1741 2081 
L 2547 2081 
L 2547 2309 
Q 2547 2688 2317 2895 
Q 2088 3103 1672 3103 
Q 1328 3103 1125 2947 
Q 922 2791 872 2484 
L 575 2484 
L 575 3156 
Q 875 3284 1158 3348 
Q 1441 3413 1709 3413 
Q 2400 3413 2761 3070 
Q 3122 2728 3122 2075 
z
" transform="scale(0.015625)"/>
       <path id="DejaVuSerif-73" d="M 359 184 
L 359 959 
L 691 959 
Q 703 588 923 403 
Q 1144 219 1575 219 
Q 1963 219 2166 364 
Q 2369 509 2369 788 
Q 2369 1006 2220 1140 
Q 2072 1275 1594 1428 
L 1178 1569 
Q 750 1706 558 1912 
Q 366 2119 366 2438 
Q 366 2894 700 3153 
Q 1034 3413 1625 3413 
Q 1888 3413 2178 3344 
Q 2469 3275 2778 3144 
L 2778 2419 
L 2447 2419 
Q 2434 2741 2221 2922 
Q 2009 3103 1644 3103 
Q 1281 3103 1095 2975 
Q 909 2847 909 2591 
Q 909 2381 1050 2254 
Q 1191 2128 1613 1997 
L 2069 1856 
Q 2541 1709 2748 1489 
Q 2956 1269 2956 922 
Q 2956 450 2595 179 
Q 2234 -91 1600 -91 
Q 1278 -91 972 -22 
Q 666 47 359 184 
z
" transform="scale(0.015625)"/>
       <path id="DejaVuSerif-69" d="M 622 4353 
Q 622 4497 726 4603 
Q 831 4709 978 4709 
Q 1122 4709 1226 4603 
Q 1331 4497 1331 4353 
Q 1331 4206 1228 4103 
Q 1125 4000 978 4000 
Q 831 4000 726 4103 
Q 622 4206 622 4353 
z
M 1356 331 
L 1900 331 
L 1900 0 
L 231 0 
L 231 331 
L 781 331 
L 781 2988 
L 231 2988 
L 231 3322 
L 1356 3322 
L 1356 331 
z
" transform="scale(0.015625)"/>
       <path id="DejaVuSerif-62" d="M 738 331 
L 738 4531 
L 184 4531 
L 184 4863 
L 1313 4863 
L 1313 2803 
Q 1481 3116 1742 3264 
Q 2003 3413 2388 3413 
Q 3000 3413 3387 2928 
Q 3775 2444 3775 1663 
Q 3775 881 3387 395 
Q 3000 -91 2388 -91 
Q 2003 -91 1742 57 
Q 1481 206 1313 519 
L 1313 0 
L 184 0 
L 184 331 
L 738 331 
z
M 1313 1497 
Q 1313 897 1542 583 
Q 1772 269 2209 269 
Q 2650 269 2876 622 
Q 3103 975 3103 1663 
Q 3103 2353 2876 2703 
Q 2650 3053 2209 3053 
Q 1772 3053 1542 2737 
Q 1313 2422 1313 1825 
L 1313 1497 
z
" transform="scale(0.015625)"/>
       <path id="DejaVuSerif-6c" d="M 1313 331 
L 1856 331 
L 1856 0 
L 184 0 
L 184 331 
L 738 331 
L 738 4531 
L 184 4531 
L 184 4863 
L 1313 4863 
L 1313 331 
z
" transform="scale(0.015625)"/>
       <path id="DejaVuSerif-20" transform="scale(0.015625)"/>
       <path id="DejaVuSerif-52" d="M 3066 2316 
Q 3284 2256 3442 2114 
Q 3600 1972 3725 1716 
L 4403 331 
L 4972 331 
L 4972 0 
L 3872 0 
L 3144 1484 
Q 2934 1916 2759 2042 
Q 2584 2169 2278 2169 
L 1581 2169 
L 1581 331 
L 2241 331 
L 2241 0 
L 353 0 
L 353 331 
L 947 331 
L 947 4331 
L 353 4331 
L 353 4666 
L 2719 4666 
Q 3400 4666 3770 4341 
Q 4141 4016 4141 3419 
Q 4141 2938 3870 2661 
Q 3600 2384 3066 2316 
z
M 1581 2503 
L 2503 2503 
Q 2975 2503 3200 2726 
Q 3425 2950 3425 3419 
Q 3425 3888 3200 4109 
Q 2975 4331 2503 4331 
L 1581 4331 
L 1581 2503 
z
" transform="scale(0.015625)"/>
       <path id="DejaVuSerif-67" d="M 3359 2988 
L 3359 72 
Q 3359 -644 2965 -1033 
Q 2572 -1422 1844 -1422 
Q 1516 -1422 1216 -1362 
Q 916 -1303 641 -1184 
L 641 -488 
L 941 -488 
Q 997 -813 1206 -963 
Q 1416 -1113 1806 -1113 
Q 2313 -1113 2548 -827 
Q 2784 -541 2784 72 
L 2784 519 
Q 2616 206 2355 57 
Q 2094 -91 1709 -91 
Q 1097 -91 708 395 
Q 319 881 319 1663 
Q 319 2444 706 2928 
Q 1094 3413 1709 3413 
Q 2094 3413 2355 3264 
Q 2616 3116 2784 2803 
L 2784 3322 
L 3909 3322 
L 3909 2988 
L 3359 2988 
z
M 2784 1825 
Q 2784 2422 2554 2737 
Q 2325 3053 1888 3053 
Q 1444 3053 1217 2703 
Q 991 2353 991 1663 
Q 991 975 1217 622 
Q 1444 269 1888 269 
Q 2325 269 2554 583 
Q 2784 897 2784 1497 
L 2784 1825 
z
" transform="scale(0.015625)"/>
       <path id="DejaVuSerif-6f" d="M 1925 219 
Q 2388 219 2623 584 
Q 2859 950 2859 1663 
Q 2859 2375 2623 2739 
Q 2388 3103 1925 3103 
Q 1463 3103 1227 2739 
Q 991 2375 991 1663 
Q 991 950 1228 584 
Q 1466 219 1925 219 
z
M 1925 -91 
Q 1200 -91 759 389 
Q 319 869 319 1663 
Q 319 2456 758 2934 
Q 1197 3413 1925 3413 
Q 2653 3413 3092 2934 
Q 3531 2456 3531 1663 
Q 3531 869 3092 389 
Q 2653 -91 1925 -91 
z
" transform="scale(0.015625)"/>
       <path id="DejaVuSerif-6e" d="M 263 0 
L 263 331 
L 781 331 
L 781 2988 
L 231 2988 
L 231 3322 
L 1356 3322 
L 1356 2731 
Q 1516 3069 1770 3241 
Q 2025 3413 2363 3413 
Q 2913 3413 3172 3097 
Q 3431 2781 3431 2113 
L 3431 331 
L 3944 331 
L 3944 0 
L 2356 0 
L 2356 331 
L 2853 331 
L 2853 1931 
Q 2853 2541 2703 2767 
Q 2553 2994 2175 2994 
Q 1775 2994 1565 2701 
Q 1356 2409 1356 1850 
L 1356 331 
L 1856 331 
L 1856 0 
L 263 0 
z
" transform="scale(0.015625)"/>
      </defs>
      <use xlink:href="#DejaVuSerif-46"/>
      <use xlink:href="#DejaVuSerif-65" transform="translate(63.884766 0)"/>
      <use xlink:href="#DejaVuSerif-61" transform="translate(123.064453 0)"/>
      <use xlink:href="#DejaVuSerif-73" transform="translate(182.683594 0)"/>
      <use xlink:href="#DejaVuSerif-69" transform="translate(234.001953 0)"/>
      <use xlink:href="#DejaVuSerif-62" transform="translate(265.984375 0)"/>
      <use xlink:href="#DejaVuSerif-6c" transform="translate(329.998047 0)"/>
      <use xlink:href="#DejaVuSerif-65" transform="translate(361.980469 0)"/>
      <use xlink:href="#DejaVuSerif-20" transform="translate(421.160156 0)"/>
      <use xlink:href="#DejaVuSerif-52" transform="translate(452.947266 0)"/>
      <use xlink:href="#DejaVuSerif-65" transform="translate(528.240234 0)"/>
      <use xlink:href="#DejaVuSerif-67" transform="translate(587.419922 0)"/>
      <use xlink:href="#DejaVuSerif-69" transform="translate(651.433594 0)"/>
      <use xlink:href="#DejaVuSerif-6f" transform="translate(683.416016 0)"/>
      <use xlink:href="#DejaVuSerif-6e" transform="translate(743.621094 0)"/>
     </g>
    </g>
   </g>
  </g>
 </g>
 <defs>
  <clipPath id="pe55997fb6c">
   <rect x="39.53375" y="4.720565" width="306.9" height="188.496"/>
  </clipPath>
 </defs>
</svg>
