<?xml version="1.0" encoding="utf-8" standalone="no"?>
<!DOCTYPE svg PUBLIC "-//W3C//DTD SVG 1.1//EN"
  "http://www.w3.org/Graphics/SVG/1.1/DTD/svg11.dtd">
<svg xmlns:xlink="http://www.w3.org/1999/xlink" width="407.401719pt" height="312.010091pt" viewBox="0 0 407.401719 312.010091" xmlns="http://www.w3.org/2000/svg" version="1.1">
<style>/* === RDF autogenerated palette === */
:root {
    --axis-color: #000;
    --grid-stroke: rgba(0,0,0,0.2);
    --plot3d-stroke: rgba(0,0,0,0.3);
    --plot3d-grid: rgba(0,0,0,0.2);
}
@media (prefers-color-scheme: dark) {
    :root {
        --axis-color: #fff;
        --grid-stroke: rgba(255,255,255,0.2);
        --plot3d-stroke: rgba(255,255,255,0.3);
        --plot3d-grid: rgba(255,255,255,0.2);
    }
}

/* Light‑mode palette */
.c1 { fill:#FF0001; stroke:#FF0001; }.c2 { fill:#00FF02; stroke:#00FF02; }.c3 { fill:#0000FF; stroke:#0000FF; }.c4 { fill:#FF00FF; stroke:#FF00FF; }.c5 { fill:#00FFFF; stroke:#00FFFF; }.c6 { fill:#FFFF00; stroke:#FFFF00; }.c7 { fill:#FF8000; stroke:#FF8000; }.c8 { fill:#8000FF; stroke:#8000FF; }.octonary { fill:#bcbd22; stroke:#bcbd22; }.primary { fill:#d62728; stroke:#d62728; }.quaternary { fill:#9467bd; stroke:#9467bd; }.quinary { fill:#8c564b; stroke:#8c564b; }.secondary { fill:#2ca02c; stroke:#2ca02c; }.senary { fill:#e377c2; stroke:#e377c2; }.septenary { fill:#7f7f7f; stroke:#7f7f7f; }.tertiary { fill:#1f77b4; stroke:#1f77b4; }

/* Dark overrides */
@media (prefers-color-scheme: dark) {
    .c1 { fill:#FF0001; stroke:#FF0001; }.c2 { fill:#00FF02; stroke:#00FF02; }.c3 { fill:#0000FF; stroke:#0000FF; }.c4 { fill:#FF00FF; stroke:#FF00FF; }.c5 { fill:#00FFFF; stroke:#00FFFF; }.c6 { fill:#FFFF00; stroke:#FFFF00; }.c7 { fill:#FF8000; stroke:#FF8000; }.c8 { fill:#8000FF; stroke:#8000FF; }.octonary { fill:#E6DB74; stroke:#E6DB74; }.primary { fill:#FF4A98; stroke:#FF4A98; }.quaternary { fill:#B4A0FF; stroke:#B4A0FF; }.quinary { fill:#FFB86B; stroke:#FFB86B; }.secondary { fill:#0AFAFA; stroke:#0AFAFA; }.senary { fill:#FF79C6; stroke:#FF79C6; }.septenary { fill:#CCCCCC; stroke:#CCCCCC; }.tertiary { fill:#7F83FF; stroke:#7F83FF; }
}/* Axis, ticks, legend */
text, .text { fill: var(--axis-color) !important; stroke: none !important; }
.axis line, .axis path,
.tick line, .tick path,
path.domain,
line.grid { stroke: var(--axis-color) !important; }
.legend text { fill: var(--axis-color) !important; }

/* Patch paths that relied on currentColor */
.patch path[style*="stroke: currentColor"] { stroke: var(--axis-color) !important; }

/* Legend background (first child of legend group) */
g.legend > g:first-child > path:first-child {
    fill: rgba(255,255,255,0.8) !important;
    stroke: rgba(0,0,0,0.1) !important;
}
@media (prefers-color-scheme: dark) {
    g.legend > g:first-child > path:first-child {
        fill: rgba(26,26,26,0.8) !important;
        stroke: rgba(255,255,255,0.1) !important;
    }
}

/* 3‑D specific rules */
.plot3d path, .plot3d polygon {
    stroke: var(--plot3d-stroke) !important;
}
.plot3d-grid line { stroke: var(--plot3d-grid) !important; }
.plot3d-surface path[style*="fill:"] {
    fill-opacity: 0.9 !important;
}
@media (prefers-color-scheme: dark) {
    .plot3d-surface path[style*="fill:"] {
        fill-opacity: 0.95 !important;
        filter: saturate(1.2) !important;
    }
}</style>

 <metadata>
  <rdf:RDF xmlns:dc="http://purl.org/dc/elements/1.1/" xmlns:cc="http://creativecommons.org/ns#" xmlns:rdf="http://www.w3.org/1999/02/22-rdf-syntax-ns#">
   <cc:Work>
    <dc:type rdf:resource="http://purl.org/dc/dcmitype/StillImage"/>
    <dc:date>2025-09-03T17:59:51.535243</dc:date>
    <dc:format>image/svg+xml</dc:format>
    <dc:creator>
     <cc:Agent>
      <dc:title>Matplotlib v3.10.1, https://matplotlib.org/</dc:title>
     </cc:Agent>
    </dc:creator>
   </cc:Work>
  </rdf:RDF>
 </metadata>
 <defs>
  <style type="text/css">*{stroke-linejoin: round; stroke-linecap: butt}</style>
 </defs>
 <g id="figure_1">
  <g class="patch">
   <path d="M -0 312.010091 
L 407.401719 312.010091 
L 407.401719 0 
L -0 0 
L -0 312.010091 
z
" style="fill: none"/>
  </g>
  <g id="axes_1">
   <g class="patch">
    <path d="M 43.081719 273.486029 
L 400.201719 273.486029 
L 400.201719 7.374029 
L 43.081719 7.374029 
L 43.081719 273.486029 
z
" style="fill: none"/>
   </g>
   <g id="QuadContourSet_1">
    <path d="M 200.248137 172.964047 
L 201.121345 172.964047 
L 201.994552 172.964047 
L 202.867759 172.964047 
L 203.740967 172.964047 
L 204.614174 172.964047 
L 205.487382 172.964047 
L 206.360589 172.964047 
L 207.233797 172.964047 
L 208.107004 172.964047 
L 208.980211 172.964047 
L 209.853419 172.964047 
L 210.726626 172.964047 
L 211.599834 172.964047 
L 212.473041 172.964047 
L 213.346248 172.964047 
L 214.219456 172.964047 
L 215.092663 172.964047 
L 215.965871 172.964047 
L 216.839078 172.964047 
L 217.712285 172.964047 
L 218.585493 172.964047 
L 219.4587 172.964047 
L 220.331908 172.964047 
L 221.205115 172.964047 
L 222.078322 172.964047 
L 222.95153 172.964047 
L 223.824737 172.964047 
L 224.697945 172.964047 
L 225.571152 172.964047 
L 226.444359 172.964047 
L 227.317567 172.964047 
L 228.190774 172.964047 
L 229.063982 172.964047 
L 229.937189 172.964047 
L 230.810397 172.964047 
L 231.683604 172.964047 
L 232.556811 172.964047 
L 233.430019 172.964047 
L 234.303226 172.964047 
L 235.176434 172.964047 
L 236.049641 172.964047 
L 236.922848 172.964047 
L 237.796056 172.964047 
L 238.669263 172.964047 
L 239.542471 172.964047 
L 240.415678 172.964047 
L 241.288885 172.964047 
L 242.162093 172.964047 
L 243.0353 172.964047 
L 243.908508 172.964047 
L 244.781715 172.964047 
L 245.654922 172.964047 
L 246.52813 172.964047 
L 247.401337 172.964047 
L 248.274545 172.964047 
L 249.147752 172.964047 
L 250.02096 172.964047 
L 250.894167 172.964047 
L 251.767374 172.964047 
L 252.640582 172.964047 
L 253.513789 172.964047 
L 254.386997 172.964047 
L 255.260204 172.964047 
L 256.133411 172.964047 
L 257.006619 172.964047 
L 257.879826 172.964047 
L 258.753034 172.964047 
L 259.626241 172.964047 
L 260.499448 172.964047 
L 261.372656 172.964047 
L 262.245863 172.964047 
L 263.119071 172.964047 
L 263.992278 172.964047 
L 264.865485 172.964047 
L 265.738693 172.964047 
L 266.6119 172.964047 
L 267.485108 172.964047 
L 268.358315 172.964047 
L 269.231523 172.964047 
L 270.10473 172.964047 
L 270.977937 172.964047 
L 271.851145 172.964047 
L 272.724352 172.964047 
L 273.59756 172.964047 
L 274.470767 172.964047 
L 275.343974 172.964047 
L 276.217182 172.964047 
L 277.090389 172.964047 
L 277.963597 172.964047 
L 278.836804 172.964047 
L 279.710011 172.964047 
L 280.583219 172.964047 
L 281.456426 172.964047 
L 282.329634 172.964047 
L 283.202841 172.964047 
L 284.076048 172.964047 
L 284.949256 172.964047 
L 285.822463 172.964047 
L 286.695671 172.964047 
L 287.568878 172.964047 
L 288.442086 172.964047 
L 289.315293 172.964047 
L 290.1885 172.964047 
L 291.061708 172.964047 
L 291.934915 172.964047 
L 292.808123 172.964047 
L 293.68133 172.964047 
L 294.554537 172.964047 
L 295.427745 172.964047 
L 296.300952 172.964047 
L 297.17416 172.964047 
L 298.047367 172.964047 
L 298.920574 172.964047 
L 299.793782 172.964047 
L 300.666989 172.964047 
L 301.540197 172.964047 
L 302.413404 172.964047 
L 303.286611 172.964047 
L 304.159819 172.964047 
L 305.033026 172.964047 
L 305.906234 172.964047 
L 306.779441 172.964047 
L 307.652649 172.964047 
L 308.089252 172.638706 
L 307.652649 172.313366 
L 306.779441 172.313366 
L 306.342837 171.988026 
L 305.906234 171.662686 
L 305.033026 171.662686 
L 304.596423 171.337346 
L 304.159819 171.012005 
L 303.286611 171.012005 
L 302.850008 170.686665 
L 302.413404 170.361325 
L 301.540197 170.361325 
L 301.103593 170.035985 
L 300.666989 169.710645 
L 299.793782 169.710645 
L 299.357178 169.385305 
L 298.920574 169.059964 
L 298.047367 169.059964 
L 297.610763 168.734624 
L 297.17416 168.409284 
L 296.300952 168.409284 
L 295.864348 168.083944 
L 295.427745 167.758604 
L 294.554537 167.758604 
L 294.117934 167.433263 
L 293.68133 167.107923 
L 292.808123 167.107923 
L 292.371519 166.782583 
L 291.934915 166.457243 
L 291.061708 166.457243 
L 290.625104 166.131903 
L 290.1885 165.806563 
L 289.315293 165.806563 
L 288.878689 165.481222 
L 288.442086 165.155882 
L 287.568878 165.155882 
L 287.132274 164.830542 
L 286.695671 164.505202 
L 285.822463 164.505202 
L 285.38586 164.179862 
L 284.949256 163.854522 
L 284.076048 163.854522 
L 283.639445 163.529181 
L 283.202841 163.203841 
L 282.329634 163.203841 
L 281.89303 162.878501 
L 281.456426 162.553161 
L 280.583219 162.553161 
L 280.146615 162.227821 
L 279.710011 161.90248 
L 278.836804 161.90248 
L 278.4002 161.57714 
L 277.963597 161.2518 
L 277.090389 161.2518 
L 276.653786 160.92646 
L 276.217182 160.60112 
L 275.343974 160.60112 
L 274.907371 160.27578 
L 274.470767 159.950439 
L 273.59756 159.950439 
L 273.160956 159.625099 
L 272.724352 159.299759 
L 271.851145 159.299759 
L 271.414541 158.974419 
L 270.977937 158.649079 
L 270.10473 158.649079 
L 269.668126 158.323738 
L 269.231523 157.998398 
L 268.358315 157.998398 
L 267.921711 157.673058 
L 267.485108 157.347718 
L 266.6119 157.347718 
L 266.175297 157.022378 
L 265.738693 156.697038 
L 264.865485 156.697038 
L 264.428882 156.371697 
L 263.992278 156.046357 
L 263.119071 156.046357 
L 262.682467 155.721017 
L 262.245863 155.395677 
L 261.372656 155.395677 
L 260.936052 155.070337 
L 260.499448 154.744996 
L 259.626241 154.744996 
L 259.189637 154.419656 
L 258.753034 154.094316 
L 257.879826 154.094316 
L 257.443223 153.768976 
L 257.006619 153.443636 
L 256.133411 153.443636 
L 255.696808 153.118296 
L 255.260204 152.792955 
L 254.386997 152.792955 
L 253.950393 152.467615 
L 253.513789 152.142275 
L 252.640582 152.142275 
L 252.203978 151.816935 
L 251.767374 151.491595 
L 250.894167 151.491595 
L 250.457563 151.166255 
L 250.02096 150.840914 
L 249.147752 150.840914 
L 248.711148 150.515574 
L 248.274545 150.190234 
L 247.401337 150.190234 
L 246.964734 149.864894 
L 246.52813 149.539554 
L 245.654922 149.539554 
L 245.218319 149.214213 
L 244.781715 148.888873 
L 243.908508 148.888873 
L 243.471904 148.563533 
L 243.0353 148.238193 
L 242.162093 148.238193 
L 241.725489 147.912853 
L 241.288885 147.587513 
L 240.415678 147.587513 
L 239.979074 147.262172 
L 239.542471 146.936832 
L 238.669263 146.936832 
L 238.23266 146.611492 
L 237.796056 146.286152 
L 236.922848 146.286152 
L 236.486245 145.960812 
L 236.049641 145.635471 
L 235.176434 145.635471 
L 234.73983 145.310131 
L 234.303226 144.984791 
L 233.430019 144.984791 
L 232.993415 144.659451 
L 232.556811 144.334111 
L 231.683604 144.334111 
L 231.247 144.008771 
L 230.810397 143.68343 
L 229.937189 143.68343 
L 229.500585 143.35809 
L 229.063982 143.03275 
L 228.190774 143.03275 
L 227.754171 142.70741 
L 227.317567 142.38207 
L 226.444359 142.38207 
L 226.007756 142.056729 
L 225.571152 141.731389 
L 224.697945 141.731389 
L 224.261341 141.406049 
L 223.824737 141.080709 
L 222.95153 141.080709 
L 222.514926 140.755369 
L 222.078322 140.430029 
L 221.641719 140.755369 
L 221.205115 141.080709 
L 220.768511 141.406049 
L 220.768511 142.056729 
L 220.331908 142.38207 
L 219.895304 142.70741 
L 219.895304 143.35809 
L 219.4587 143.68343 
L 219.022097 144.008771 
L 219.022097 144.659451 
L 218.585493 144.984791 
L 218.148889 145.310131 
L 218.148889 145.960812 
L 217.712285 146.286152 
L 217.275682 146.611492 
L 217.275682 147.262172 
L 216.839078 147.587513 
L 216.402474 147.912853 
L 216.402474 148.563533 
L 215.965871 148.888873 
L 215.529267 149.214213 
L 215.529267 149.864894 
L 215.092663 150.190234 
L 214.656059 150.515574 
L 214.656059 151.166255 
L 214.219456 151.491595 
L 213.782852 151.816935 
L 213.782852 152.467615 
L 213.346248 152.792955 
L 212.909645 153.118296 
L 212.909645 153.768976 
L 212.473041 154.094316 
L 212.036437 154.419656 
L 212.036437 155.070337 
L 211.599834 155.395677 
L 211.16323 155.721017 
L 211.16323 156.371697 
L 210.726626 156.697038 
L 210.290022 157.022378 
L 210.290022 157.673058 
L 209.853419 157.998398 
L 209.416815 158.323738 
L 209.416815 158.974419 
L 208.980211 159.299759 
L 208.543608 159.625099 
L 208.543608 160.27578 
L 208.107004 160.60112 
L 207.6704 160.92646 
L 207.6704 161.57714 
L 207.233797 161.90248 
L 206.797193 162.227821 
L 206.797193 162.878501 
L 206.360589 163.203841 
L 205.923985 163.529181 
L 205.923985 164.179862 
L 205.487382 164.505202 
L 205.050778 164.830542 
L 205.050778 165.481222 
L 204.614174 165.806563 
L 204.177571 166.131903 
L 204.177571 166.782583 
L 203.740967 167.107923 
L 203.304363 167.433263 
L 203.304363 168.083944 
L 202.867759 168.409284 
L 202.431156 168.734624 
L 202.431156 169.385305 
L 201.994552 169.710645 
L 201.557948 170.035985 
L 201.557948 170.686665 
L 201.121345 171.012005 
L 200.684741 171.337346 
L 200.684741 171.988026 
L 200.248137 172.313366 
L 199.811534 172.638706 
z
" clip-path="url(#p86dccc2145)" style="fill: #8000ff; fill-opacity: 0.4"/>
   </g>
   <g class="axis">
    <g class="tick xtick">
     <g id="line2d_1">
      <path d="M 47.436841 273.486029 
L 47.436841 7.374029 
" clip-path="url(#p86dccc2145)" style="fill: none; stroke: #b0b0b0; stroke-opacity: 0.15; stroke-width: 0.8; stroke-linecap: square"/>
     </g>
     <g id="line2d_2">
      <defs>
       <path id="m2bde2f33bc" d="M 0 0 
L 0 3.5 
" style="stroke: currentColor; stroke-width: 0.8"/>
      </defs>
      <g>
       <use xlink:href="#m2bde2f33bc" x="47.436841" y="273.486029" style="stroke: currentColor; stroke-width: 0.8"/>
      </g>
     </g>
     <g id="text_1" class="text">
      <!-- −2 -->
      <g transform="translate(40.802856 287.324622) scale(0.09 -0.09)">
       <defs>
        <path id="DejaVuSans-2212" d="M 678 2272 
L 4684 2272 
L 4684 1741 
L 678 1741 
L 678 2272 
z
" transform="scale(0.015625)"/>
        <path id="DejaVuSans-32" d="M 1228 531 
L 3431 531 
L 3431 0 
L 469 0 
L 469 531 
Q 828 903 1448 1529 
Q 2069 2156 2228 2338 
Q 2531 2678 2651 2914 
Q 2772 3150 2772 3378 
Q 2772 3750 2511 3984 
Q 2250 4219 1831 4219 
Q 1534 4219 1204 4116 
Q 875 4013 500 3803 
L 500 4441 
Q 881 4594 1212 4672 
Q 1544 4750 1819 4750 
Q 2544 4750 2975 4387 
Q 3406 4025 3406 3419 
Q 3406 3131 3298 2873 
Q 3191 2616 2906 2266 
Q 2828 2175 2409 1742 
Q 1991 1309 1228 531 
z
" transform="scale(0.015625)"/>
       </defs>
       <use xlink:href="#DejaVuSans-2212"/>
       <use xlink:href="#DejaVuSans-32" transform="translate(83.789062 0)"/>
      </g>
     </g>
    </g>
    <g class="tick xtick">
     <g id="line2d_3">
      <path d="M 90.98806 273.486029 
L 90.98806 7.374029 
" clip-path="url(#p86dccc2145)" style="fill: none; stroke: #b0b0b0; stroke-opacity: 0.15; stroke-width: 0.8; stroke-linecap: square"/>
     </g>
     <g id="line2d_4">
      <g>
       <use xlink:href="#m2bde2f33bc" x="90.98806" y="273.486029" style="stroke: currentColor; stroke-width: 0.8"/>
      </g>
     </g>
     <g id="text_2" class="text">
      <!-- −1 -->
      <g transform="translate(84.354076 287.324622) scale(0.09 -0.09)">
       <defs>
        <path id="DejaVuSans-31" d="M 794 531 
L 1825 531 
L 1825 4091 
L 703 3866 
L 703 4441 
L 1819 4666 
L 2450 4666 
L 2450 531 
L 3481 531 
L 3481 0 
L 794 0 
L 794 531 
z
" transform="scale(0.015625)"/>
       </defs>
       <use xlink:href="#DejaVuSans-2212"/>
       <use xlink:href="#DejaVuSans-31" transform="translate(83.789062 0)"/>
      </g>
     </g>
    </g>
    <g class="tick xtick">
     <g id="line2d_5">
      <path d="M 134.53928 273.486029 
L 134.53928 7.374029 
" clip-path="url(#p86dccc2145)" style="fill: none; stroke: #b0b0b0; stroke-opacity: 0.15; stroke-width: 0.8; stroke-linecap: square"/>
     </g>
     <g id="line2d_6">
      <g>
       <use xlink:href="#m2bde2f33bc" x="134.53928" y="273.486029" style="stroke: currentColor; stroke-width: 0.8"/>
      </g>
     </g>
     <g id="text_3" class="text">
      <!-- 0 -->
      <g transform="translate(131.676155 287.324622) scale(0.09 -0.09)">
       <defs>
        <path id="DejaVuSans-30" d="M 2034 4250 
Q 1547 4250 1301 3770 
Q 1056 3291 1056 2328 
Q 1056 1369 1301 889 
Q 1547 409 2034 409 
Q 2525 409 2770 889 
Q 3016 1369 3016 2328 
Q 3016 3291 2770 3770 
Q 2525 4250 2034 4250 
z
M 2034 4750 
Q 2819 4750 3233 4129 
Q 3647 3509 3647 2328 
Q 3647 1150 3233 529 
Q 2819 -91 2034 -91 
Q 1250 -91 836 529 
Q 422 1150 422 2328 
Q 422 3509 836 4129 
Q 1250 4750 2034 4750 
z
" transform="scale(0.015625)"/>
       </defs>
       <use xlink:href="#DejaVuSans-30"/>
      </g>
     </g>
    </g>
    <g class="tick xtick">
     <g id="line2d_7">
      <path d="M 178.090499 273.486029 
L 178.090499 7.374029 
" clip-path="url(#p86dccc2145)" style="fill: none; stroke: #b0b0b0; stroke-opacity: 0.15; stroke-width: 0.8; stroke-linecap: square"/>
     </g>
     <g id="line2d_8">
      <g>
       <use xlink:href="#m2bde2f33bc" x="178.090499" y="273.486029" style="stroke: currentColor; stroke-width: 0.8"/>
      </g>
     </g>
     <g id="text_4" class="text">
      <!-- 1 -->
      <g transform="translate(175.227374 287.324622) scale(0.09 -0.09)">
       <use xlink:href="#DejaVuSans-31"/>
      </g>
     </g>
    </g>
    <g class="tick xtick">
     <g id="line2d_9">
      <path d="M 221.641719 273.486029 
L 221.641719 7.374029 
" clip-path="url(#p86dccc2145)" style="fill: none; stroke: #b0b0b0; stroke-opacity: 0.15; stroke-width: 0.8; stroke-linecap: square"/>
     </g>
     <g id="line2d_10">
      <g>
       <use xlink:href="#m2bde2f33bc" x="221.641719" y="273.486029" style="stroke: currentColor; stroke-width: 0.8"/>
      </g>
     </g>
     <g id="text_5" class="text">
      <!-- 2 -->
      <g transform="translate(218.778594 287.324622) scale(0.09 -0.09)">
       <use xlink:href="#DejaVuSans-32"/>
      </g>
     </g>
    </g>
    <g class="tick xtick">
     <g id="line2d_11">
      <path d="M 265.192938 273.486029 
L 265.192938 7.374029 
" clip-path="url(#p86dccc2145)" style="fill: none; stroke: #b0b0b0; stroke-opacity: 0.15; stroke-width: 0.8; stroke-linecap: square"/>
     </g>
     <g id="line2d_12">
      <g>
       <use xlink:href="#m2bde2f33bc" x="265.192938" y="273.486029" style="stroke: currentColor; stroke-width: 0.8"/>
      </g>
     </g>
     <g id="text_6" class="text">
      <!-- 3 -->
      <g transform="translate(262.329813 287.324622) scale(0.09 -0.09)">
       <defs>
        <path id="DejaVuSans-33" d="M 2597 2516 
Q 3050 2419 3304 2112 
Q 3559 1806 3559 1356 
Q 3559 666 3084 287 
Q 2609 -91 1734 -91 
Q 1441 -91 1130 -33 
Q 819 25 488 141 
L 488 750 
Q 750 597 1062 519 
Q 1375 441 1716 441 
Q 2309 441 2620 675 
Q 2931 909 2931 1356 
Q 2931 1769 2642 2001 
Q 2353 2234 1838 2234 
L 1294 2234 
L 1294 2753 
L 1863 2753 
Q 2328 2753 2575 2939 
Q 2822 3125 2822 3475 
Q 2822 3834 2567 4026 
Q 2313 4219 1838 4219 
Q 1578 4219 1281 4162 
Q 984 4106 628 3988 
L 628 4550 
Q 988 4650 1302 4700 
Q 1616 4750 1894 4750 
Q 2613 4750 3031 4423 
Q 3450 4097 3450 3541 
Q 3450 3153 3228 2886 
Q 3006 2619 2597 2516 
z
" transform="scale(0.015625)"/>
       </defs>
       <use xlink:href="#DejaVuSans-33"/>
      </g>
     </g>
    </g>
    <g class="tick xtick">
     <g id="line2d_13">
      <path d="M 308.744158 273.486029 
L 308.744158 7.374029 
" clip-path="url(#p86dccc2145)" style="fill: none; stroke: #b0b0b0; stroke-opacity: 0.15; stroke-width: 0.8; stroke-linecap: square"/>
     </g>
     <g id="line2d_14">
      <g>
       <use xlink:href="#m2bde2f33bc" x="308.744158" y="273.486029" style="stroke: currentColor; stroke-width: 0.8"/>
      </g>
     </g>
     <g id="text_7" class="text">
      <!-- 4 -->
      <g transform="translate(305.881033 287.324622) scale(0.09 -0.09)">
       <defs>
        <path id="DejaVuSans-34" d="M 2419 4116 
L 825 1625 
L 2419 1625 
L 2419 4116 
z
M 2253 4666 
L 3047 4666 
L 3047 1625 
L 3713 1625 
L 3713 1100 
L 3047 1100 
L 3047 0 
L 2419 0 
L 2419 1100 
L 313 1100 
L 313 1709 
L 2253 4666 
z
" transform="scale(0.015625)"/>
       </defs>
       <use xlink:href="#DejaVuSans-34"/>
      </g>
     </g>
    </g>
    <g class="tick xtick">
     <g id="line2d_15">
      <path d="M 352.295377 273.486029 
L 352.295377 7.374029 
" clip-path="url(#p86dccc2145)" style="fill: none; stroke: #b0b0b0; stroke-opacity: 0.15; stroke-width: 0.8; stroke-linecap: square"/>
     </g>
     <g id="line2d_16">
      <g>
       <use xlink:href="#m2bde2f33bc" x="352.295377" y="273.486029" style="stroke: currentColor; stroke-width: 0.8"/>
      </g>
     </g>
     <g id="text_8" class="text">
      <!-- 5 -->
      <g transform="translate(349.432252 287.324622) scale(0.09 -0.09)">
       <defs>
        <path id="DejaVuSans-35" d="M 691 4666 
L 3169 4666 
L 3169 4134 
L 1269 4134 
L 1269 2991 
Q 1406 3038 1543 3061 
Q 1681 3084 1819 3084 
Q 2600 3084 3056 2656 
Q 3513 2228 3513 1497 
Q 3513 744 3044 326 
Q 2575 -91 1722 -91 
Q 1428 -91 1123 -41 
Q 819 9 494 109 
L 494 744 
Q 775 591 1075 516 
Q 1375 441 1709 441 
Q 2250 441 2565 725 
Q 2881 1009 2881 1497 
Q 2881 1984 2565 2268 
Q 2250 2553 1709 2553 
Q 1456 2553 1204 2497 
Q 953 2441 691 2322 
L 691 4666 
z
" transform="scale(0.015625)"/>
       </defs>
       <use xlink:href="#DejaVuSans-35"/>
      </g>
     </g>
    </g>
    <g class="tick xtick">
     <g id="line2d_17">
      <path d="M 395.846597 273.486029 
L 395.846597 7.374029 
" clip-path="url(#p86dccc2145)" style="fill: none; stroke: #b0b0b0; stroke-opacity: 0.15; stroke-width: 0.8; stroke-linecap: square"/>
     </g>
     <g id="line2d_18">
      <g>
       <use xlink:href="#m2bde2f33bc" x="395.846597" y="273.486029" style="stroke: currentColor; stroke-width: 0.8"/>
      </g>
     </g>
     <g id="text_9" class="text">
      <!-- 6 -->
      <g transform="translate(392.983472 287.324622) scale(0.09 -0.09)">
       <defs>
        <path id="DejaVuSans-36" d="M 2113 2584 
Q 1688 2584 1439 2293 
Q 1191 2003 1191 1497 
Q 1191 994 1439 701 
Q 1688 409 2113 409 
Q 2538 409 2786 701 
Q 3034 994 3034 1497 
Q 3034 2003 2786 2293 
Q 2538 2584 2113 2584 
z
M 3366 4563 
L 3366 3988 
Q 3128 4100 2886 4159 
Q 2644 4219 2406 4219 
Q 1781 4219 1451 3797 
Q 1122 3375 1075 2522 
Q 1259 2794 1537 2939 
Q 1816 3084 2150 3084 
Q 2853 3084 3261 2657 
Q 3669 2231 3669 1497 
Q 3669 778 3244 343 
Q 2819 -91 2113 -91 
Q 1303 -91 875 529 
Q 447 1150 447 2328 
Q 447 3434 972 4092 
Q 1497 4750 2381 4750 
Q 2619 4750 2861 4703 
Q 3103 4656 3366 4563 
z
" transform="scale(0.015625)"/>
       </defs>
       <use xlink:href="#DejaVuSans-36"/>
      </g>
     </g>
    </g>
    <g id="text_10" class="text">
     <!-- $x_1$ -->
     <g transform="translate(215.221719 302.314466) scale(0.12 -0.12)">
      <defs>
       <path id="DejaVuSans-Oblique-78" d="M 3841 3500 
L 2234 1784 
L 3219 0 
L 2559 0 
L 1819 1388 
L 531 0 
L -166 0 
L 1556 1844 
L 641 3500 
L 1300 3500 
L 1972 2234 
L 3144 3500 
L 3841 3500 
z
" transform="scale(0.015625)"/>
      </defs>
      <use xlink:href="#DejaVuSans-Oblique-78" transform="translate(0 0.3125)"/>
      <use xlink:href="#DejaVuSans-31" transform="translate(59.179688 -16.09375) scale(0.7)"/>
     </g>
    </g>
   </g>
   <g class="axis">
    <g class="tick ytick">
     <g id="line2d_19">
      <path d="M 43.081719 270.24076 
L 400.201719 270.24076 
" clip-path="url(#p86dccc2145)" style="fill: none; stroke: #b0b0b0; stroke-opacity: 0.15; stroke-width: 0.8; stroke-linecap: square"/>
     </g>
     <g id="line2d_20">
      <defs>
       <path id="m0dcaa9b2bd" d="M 0 0 
L -3.5 0 
" style="stroke: currentColor; stroke-width: 0.8"/>
      </defs>
      <g>
       <use xlink:href="#m0dcaa9b2bd" x="43.081719" y="270.24076" style="stroke: currentColor; stroke-width: 0.8"/>
      </g>
     </g>
     <g id="text_11" class="text">
      <!-- −2 -->
      <g transform="translate(22.81375 273.660057) scale(0.09 -0.09)">
       <use xlink:href="#DejaVuSans-2212"/>
       <use xlink:href="#DejaVuSans-32" transform="translate(83.789062 0)"/>
      </g>
     </g>
    </g>
    <g class="tick ytick">
     <g id="line2d_21">
      <path d="M 43.081719 237.788077 
L 400.201719 237.788077 
" clip-path="url(#p86dccc2145)" style="fill: none; stroke: #b0b0b0; stroke-opacity: 0.15; stroke-width: 0.8; stroke-linecap: square"/>
     </g>
     <g id="line2d_22">
      <g>
       <use xlink:href="#m0dcaa9b2bd" x="43.081719" y="237.788077" style="stroke: currentColor; stroke-width: 0.8"/>
      </g>
     </g>
     <g id="text_12" class="text">
      <!-- −1 -->
      <g transform="translate(22.81375 241.207374) scale(0.09 -0.09)">
       <use xlink:href="#DejaVuSans-2212"/>
       <use xlink:href="#DejaVuSans-31" transform="translate(83.789062 0)"/>
      </g>
     </g>
    </g>
    <g class="tick ytick">
     <g id="line2d_23">
      <path d="M 43.081719 205.335394 
L 400.201719 205.335394 
" clip-path="url(#p86dccc2145)" style="fill: none; stroke: #b0b0b0; stroke-opacity: 0.15; stroke-width: 0.8; stroke-linecap: square"/>
     </g>
     <g id="line2d_24">
      <g>
       <use xlink:href="#m0dcaa9b2bd" x="43.081719" y="205.335394" style="stroke: currentColor; stroke-width: 0.8"/>
      </g>
     </g>
     <g id="text_13" class="text">
      <!-- 0 -->
      <g transform="translate(30.355469 208.754691) scale(0.09 -0.09)">
       <use xlink:href="#DejaVuSans-30"/>
      </g>
     </g>
    </g>
    <g class="tick ytick">
     <g id="line2d_25">
      <path d="M 43.081719 172.882712 
L 400.201719 172.882712 
" clip-path="url(#p86dccc2145)" style="fill: none; stroke: #b0b0b0; stroke-opacity: 0.15; stroke-width: 0.8; stroke-linecap: square"/>
     </g>
     <g id="line2d_26">
      <g>
       <use xlink:href="#m0dcaa9b2bd" x="43.081719" y="172.882712" style="stroke: currentColor; stroke-width: 0.8"/>
      </g>
     </g>
     <g id="text_14" class="text">
      <!-- 1 -->
      <g transform="translate(30.355469 176.302008) scale(0.09 -0.09)">
       <use xlink:href="#DejaVuSans-31"/>
      </g>
     </g>
    </g>
    <g class="tick ytick">
     <g id="line2d_27">
      <path d="M 43.081719 140.430029 
L 400.201719 140.430029 
" clip-path="url(#p86dccc2145)" style="fill: none; stroke: #b0b0b0; stroke-opacity: 0.15; stroke-width: 0.8; stroke-linecap: square"/>
     </g>
     <g id="line2d_28">
      <g>
       <use xlink:href="#m0dcaa9b2bd" x="43.081719" y="140.430029" style="stroke: currentColor; stroke-width: 0.8"/>
      </g>
     </g>
     <g id="text_15" class="text">
      <!-- 2 -->
      <g transform="translate(30.355469 143.849325) scale(0.09 -0.09)">
       <use xlink:href="#DejaVuSans-32"/>
      </g>
     </g>
    </g>
    <g class="tick ytick">
     <g id="line2d_29">
      <path d="M 43.081719 107.977346 
L 400.201719 107.977346 
" clip-path="url(#p86dccc2145)" style="fill: none; stroke: #b0b0b0; stroke-opacity: 0.15; stroke-width: 0.8; stroke-linecap: square"/>
     </g>
     <g id="line2d_30">
      <g>
       <use xlink:href="#m0dcaa9b2bd" x="43.081719" y="107.977346" style="stroke: currentColor; stroke-width: 0.8"/>
      </g>
     </g>
     <g id="text_16" class="text">
      <!-- 3 -->
      <g transform="translate(30.355469 111.396643) scale(0.09 -0.09)">
       <use xlink:href="#DejaVuSans-33"/>
      </g>
     </g>
    </g>
    <g class="tick ytick">
     <g id="line2d_31">
      <path d="M 43.081719 75.524663 
L 400.201719 75.524663 
" clip-path="url(#p86dccc2145)" style="fill: none; stroke: #b0b0b0; stroke-opacity: 0.15; stroke-width: 0.8; stroke-linecap: square"/>
     </g>
     <g id="line2d_32">
      <g>
       <use xlink:href="#m0dcaa9b2bd" x="43.081719" y="75.524663" style="stroke: currentColor; stroke-width: 0.8"/>
      </g>
     </g>
     <g id="text_17" class="text">
      <!-- 4 -->
      <g transform="translate(30.355469 78.94396) scale(0.09 -0.09)">
       <use xlink:href="#DejaVuSans-34"/>
      </g>
     </g>
    </g>
    <g class="tick ytick">
     <g id="line2d_33">
      <path d="M 43.081719 43.07198 
L 400.201719 43.07198 
" clip-path="url(#p86dccc2145)" style="fill: none; stroke: #b0b0b0; stroke-opacity: 0.15; stroke-width: 0.8; stroke-linecap: square"/>
     </g>
     <g id="line2d_34">
      <g>
       <use xlink:href="#m0dcaa9b2bd" x="43.081719" y="43.07198" style="stroke: currentColor; stroke-width: 0.8"/>
      </g>
     </g>
     <g id="text_18" class="text">
      <!-- 5 -->
      <g transform="translate(30.355469 46.491277) scale(0.09 -0.09)">
       <use xlink:href="#DejaVuSans-35"/>
      </g>
     </g>
    </g>
    <g class="tick ytick">
     <g id="line2d_35">
      <path d="M 43.081719 10.619297 
L 400.201719 10.619297 
" clip-path="url(#p86dccc2145)" style="fill: none; stroke: #b0b0b0; stroke-opacity: 0.15; stroke-width: 0.8; stroke-linecap: square"/>
     </g>
     <g id="line2d_36">
      <g>
       <use xlink:href="#m0dcaa9b2bd" x="43.081719" y="10.619297" style="stroke: currentColor; stroke-width: 0.8"/>
      </g>
     </g>
     <g id="text_19" class="text">
      <!-- 6 -->
      <g transform="translate(30.355469 14.038594) scale(0.09 -0.09)">
       <use xlink:href="#DejaVuSans-36"/>
      </g>
     </g>
    </g>
    <g id="text_20" class="text">
     <!-- $x_2$ -->
     <g transform="translate(16.318125 146.850029) rotate(-90) scale(0.12 -0.12)">
      <use xlink:href="#DejaVuSans-Oblique-78" transform="translate(0 0.3125)"/>
      <use xlink:href="#DejaVuSans-32" transform="translate(59.179688 -16.09375) scale(0.7)"/>
     </g>
    </g>
   </g>
   <g id="line2d_37">
    <path d="M 47.436841 75.524663 
L 50.956131 76.835882 
L 54.475422 78.147102 
L 57.994712 79.458321 
L 61.514003 80.769541 
L 65.033293 82.08076 
L 68.552583 83.39198 
L 72.071874 84.703199 
L 75.591164 86.014419 
L 79.110455 87.325638 
L 82.629745 88.636858 
L 86.149036 89.948077 
L 89.668326 91.259297 
L 93.187617 92.570516 
L 96.706907 93.881736 
L 100.226198 95.192955 
L 103.745488 96.504175 
L 107.264779 97.815394 
L 110.784069 99.126614 
L 114.30336 100.437833 
L 117.82265 101.749053 
L 121.34194 103.060272 
L 124.861231 104.371492 
L 128.380521 105.682712 
L 131.899812 106.993931 
L 135.419102 108.305151 
L 138.938393 109.61637 
L 142.457683 110.92759 
L 145.976974 112.238809 
L 149.496264 113.550029 
L 153.015555 114.861248 
L 156.534845 116.172468 
L 160.054136 117.483687 
L 163.573426 118.794907 
L 167.092717 120.106126 
L 170.612007 121.417346 
L 174.131297 122.728565 
L 177.650588 124.039785 
L 181.169878 125.351004 
L 184.689169 126.662224 
L 188.208459 127.973443 
L 191.72775 129.284663 
L 195.24704 130.595882 
L 198.766331 131.907102 
L 202.285621 133.218321 
L 205.804912 134.529541 
L 209.324202 135.84076 
L 212.843493 137.15198 
L 216.362783 138.463199 
L 219.882074 139.774419 
L 223.401364 141.085638 
L 226.920654 142.396858 
L 230.439945 143.708077 
L 233.959235 145.019297 
L 237.478526 146.330516 
L 240.997816 147.641736 
L 244.517107 148.952955 
L 248.036397 150.264175 
L 251.555688 151.575394 
L 255.074978 152.886614 
L 258.594269 154.197833 
L 262.113559 155.509053 
L 265.63285 156.820272 
L 269.15214 158.131492 
L 272.671431 159.442712 
L 276.190721 160.753931 
L 279.710011 162.065151 
L 283.229302 163.37637 
L 286.748592 164.68759 
L 290.267883 165.998809 
L 293.787173 167.310029 
L 297.306464 168.621248 
L 300.825754 169.932468 
L 304.345045 171.243687 
L 307.864335 172.554907 
L 311.383626 173.866126 
L 314.902916 175.177346 
L 318.422207 176.488565 
L 321.941497 177.799785 
L 325.460787 179.111004 
L 328.980078 180.422224 
L 332.499368 181.733443 
L 336.018659 183.044663 
L 339.537949 184.355882 
L 343.05724 185.667102 
L 346.57653 186.978321 
L 350.095821 188.289541 
L 353.615111 189.60076 
L 357.134402 190.91198 
L 360.653692 192.223199 
L 364.172983 193.534419 
L 367.692273 194.845638 
L 371.211564 196.156858 
L 374.730854 197.468077 
L 378.250144 198.779297 
L 381.769435 200.090516 
L 385.288725 201.401736 
L 388.808016 202.712955 
L 392.327306 204.024175 
L 395.846597 205.335394 
" clip-path="url(#p86dccc2145)" style="fill: none; stroke: #8000ff; stroke-opacity: 0.8; stroke-width: 2; stroke-linecap: square"/>
   </g>
   <g id="line2d_38">
    <path d="M 105.841244 313.010091 
L 107.264779 310.888565 
L 110.784069 305.643687 
L 114.30336 300.398809 
L 117.82265 295.153931 
L 121.34194 289.909053 
L 124.861231 284.664175 
L 128.380521 279.419297 
L 131.899812 274.174419 
L 135.419102 268.929541 
L 138.938393 263.684663 
L 142.457683 258.439785 
L 145.976974 253.194907 
L 149.496264 247.950029 
L 153.015555 242.705151 
L 156.534845 237.460272 
L 160.054136 232.215394 
L 163.573426 226.970516 
L 167.092717 221.725638 
L 170.612007 216.48076 
L 174.131297 211.235882 
L 177.650588 205.991004 
L 181.169878 200.746126 
L 184.689169 195.501248 
L 188.208459 190.25637 
L 191.72775 185.011492 
L 195.24704 179.766614 
L 198.766331 174.521736 
L 202.285621 169.276858 
L 205.804912 164.03198 
L 209.324202 158.787102 
L 212.843493 153.542224 
L 216.362783 148.297346 
L 219.882074 143.052468 
L 223.401364 137.80759 
L 226.920654 132.562712 
L 230.439945 127.317833 
L 233.959235 122.072955 
L 237.478526 116.828077 
L 240.997816 111.583199 
L 244.517107 106.338321 
L 248.036397 101.093443 
L 251.555688 95.848565 
L 255.074978 90.603687 
L 258.594269 85.358809 
L 262.113559 80.113931 
L 265.63285 74.869053 
L 269.15214 69.624175 
L 272.671431 64.379297 
L 276.190721 59.134419 
L 279.710011 53.889541 
L 283.229302 48.644663 
L 286.748592 43.399785 
L 290.267883 38.154907 
L 293.787173 32.910029 
L 297.306464 27.665151 
L 300.825754 22.420272 
L 304.345045 17.175394 
L 307.864335 11.930516 
L 311.383626 6.685638 
L 314.902916 1.44076 
L 316.540656 -1 
" clip-path="url(#p86dccc2145)" style="fill: none; stroke: #8000ff; stroke-opacity: 0.8; stroke-width: 2; stroke-linecap: square"/>
   </g>
   <g id="line2d_39">
    <path d="M 47.436841 172.882712 
L 50.956131 172.882712 
L 54.475422 172.882712 
L 57.994712 172.882712 
L 61.514003 172.882712 
L 65.033293 172.882712 
L 68.552583 172.882712 
L 72.071874 172.882712 
L 75.591164 172.882712 
L 79.110455 172.882712 
L 82.629745 172.882712 
L 86.149036 172.882712 
L 89.668326 172.882712 
L 93.187617 172.882712 
L 96.706907 172.882712 
L 100.226198 172.882712 
L 103.745488 172.882712 
L 107.264779 172.882712 
L 110.784069 172.882712 
L 114.30336 172.882712 
L 117.82265 172.882712 
L 121.34194 172.882712 
L 124.861231 172.882712 
L 128.380521 172.882712 
L 131.899812 172.882712 
L 135.419102 172.882712 
L 138.938393 172.882712 
L 142.457683 172.882712 
L 145.976974 172.882712 
L 149.496264 172.882712 
L 153.015555 172.882712 
L 156.534845 172.882712 
L 160.054136 172.882712 
L 163.573426 172.882712 
L 167.092717 172.882712 
L 170.612007 172.882712 
L 174.131297 172.882712 
L 177.650588 172.882712 
L 181.169878 172.882712 
L 184.689169 172.882712 
L 188.208459 172.882712 
L 191.72775 172.882712 
L 195.24704 172.882712 
L 198.766331 172.882712 
L 202.285621 172.882712 
L 205.804912 172.882712 
L 209.324202 172.882712 
L 212.843493 172.882712 
L 216.362783 172.882712 
L 219.882074 172.882712 
L 223.401364 172.882712 
L 226.920654 172.882712 
L 230.439945 172.882712 
L 233.959235 172.882712 
L 237.478526 172.882712 
L 240.997816 172.882712 
L 244.517107 172.882712 
L 248.036397 172.882712 
L 251.555688 172.882712 
L 255.074978 172.882712 
L 258.594269 172.882712 
L 262.113559 172.882712 
L 265.63285 172.882712 
L 269.15214 172.882712 
L 272.671431 172.882712 
L 276.190721 172.882712 
L 279.710011 172.882712 
L 283.229302 172.882712 
L 286.748592 172.882712 
L 290.267883 172.882712 
L 293.787173 172.882712 
L 297.306464 172.882712 
L 300.825754 172.882712 
L 304.345045 172.882712 
L 307.864335 172.882712 
L 311.383626 172.882712 
L 314.902916 172.882712 
L 318.422207 172.882712 
L 321.941497 172.882712 
L 325.460787 172.882712 
L 328.980078 172.882712 
L 332.499368 172.882712 
L 336.018659 172.882712 
L 339.537949 172.882712 
L 343.05724 172.882712 
L 346.57653 172.882712 
L 350.095821 172.882712 
L 353.615111 172.882712 
L 357.134402 172.882712 
L 360.653692 172.882712 
L 364.172983 172.882712 
L 367.692273 172.882712 
L 371.211564 172.882712 
L 374.730854 172.882712 
L 378.250144 172.882712 
L 381.769435 172.882712 
L 385.288725 172.882712 
L 388.808016 172.882712 
L 392.327306 172.882712 
L 395.846597 172.882712 
" clip-path="url(#p86dccc2145)" style="fill: none; stroke: #8000ff; stroke-opacity: 0.8; stroke-width: 2; stroke-linecap: square"/>
   </g>
   <g class="patch">
    <path d="M 43.081719 273.486029 
L 43.081719 7.374029 
" style="fill: none; stroke: currentColor; stroke-width: 0.8; stroke-linejoin: miter; stroke-linecap: square"/>
   </g>
   <g class="patch">
    <path d="M 43.081719 273.486029 
L 400.201719 273.486029 
" style="fill: none; stroke: currentColor; stroke-width: 0.8; stroke-linejoin: miter; stroke-linecap: square"/>
   </g>
   <g class="legend">
    <g class="patch">
     <path d="M 283.039219 30.052154 
L 393.201719 30.052154 
Q 395.201719 30.052154 395.201719 28.052154 
L 395.201719 14.374029 
Q 395.201719 12.374029 393.201719 12.374029 
L 283.039219 12.374029 
Q 281.039219 12.374029 281.039219 14.374029 
L 281.039219 28.052154 
Q 281.039219 30.052154 283.039219 30.052154 
z
" style="fill: #ffffff; opacity: 0.9; stroke: #cccccc; stroke-linejoin: miter"/>
    </g>
    <g class="patch">
     <path d="M 285.039219 23.972466 
L 305.039219 23.972466 
L 305.039219 16.972466 
L 285.039219 16.972466 
z
" style="fill: #8000ff; opacity: 0.4"/>
    </g>
    <g id="text_21" class="text">
     <!-- Feasible Region -->
     <g transform="translate(313.039219 23.972466) scale(0.1 -0.1)">
      <defs>
       <path id="DejaVuSans-46" d="M 628 4666 
L 3309 4666 
L 3309 4134 
L 1259 4134 
L 1259 2759 
L 3109 2759 
L 3109 2228 
L 1259 2228 
L 1259 0 
L 628 0 
L 628 4666 
z
" transform="scale(0.015625)"/>
       <path id="DejaVuSans-65" d="M 3597 1894 
L 3597 1613 
L 953 1613 
Q 991 1019 1311 708 
Q 1631 397 2203 397 
Q 2534 397 2845 478 
Q 3156 559 3463 722 
L 3463 178 
Q 3153 47 2828 -22 
Q 2503 -91 2169 -91 
Q 1331 -91 842 396 
Q 353 884 353 1716 
Q 353 2575 817 3079 
Q 1281 3584 2069 3584 
Q 2775 3584 3186 3129 
Q 3597 2675 3597 1894 
z
M 3022 2063 
Q 3016 2534 2758 2815 
Q 2500 3097 2075 3097 
Q 1594 3097 1305 2825 
Q 1016 2553 972 2059 
L 3022 2063 
z
" transform="scale(0.015625)"/>
       <path id="DejaVuSans-61" d="M 2194 1759 
Q 1497 1759 1228 1600 
Q 959 1441 959 1056 
Q 959 750 1161 570 
Q 1363 391 1709 391 
Q 2188 391 2477 730 
Q 2766 1069 2766 1631 
L 2766 1759 
L 2194 1759 
z
M 3341 1997 
L 3341 0 
L 2766 0 
L 2766 531 
Q 2569 213 2275 61 
Q 1981 -91 1556 -91 
Q 1019 -91 701 211 
Q 384 513 384 1019 
Q 384 1609 779 1909 
Q 1175 2209 1959 2209 
L 2766 2209 
L 2766 2266 
Q 2766 2663 2505 2880 
Q 2244 3097 1772 3097 
Q 1472 3097 1187 3025 
Q 903 2953 641 2809 
L 641 3341 
Q 956 3463 1253 3523 
Q 1550 3584 1831 3584 
Q 2591 3584 2966 3190 
Q 3341 2797 3341 1997 
z
" transform="scale(0.015625)"/>
       <path id="DejaVuSans-73" d="M 2834 3397 
L 2834 2853 
Q 2591 2978 2328 3040 
Q 2066 3103 1784 3103 
Q 1356 3103 1142 2972 
Q 928 2841 928 2578 
Q 928 2378 1081 2264 
Q 1234 2150 1697 2047 
L 1894 2003 
Q 2506 1872 2764 1633 
Q 3022 1394 3022 966 
Q 3022 478 2636 193 
Q 2250 -91 1575 -91 
Q 1294 -91 989 -36 
Q 684 19 347 128 
L 347 722 
Q 666 556 975 473 
Q 1284 391 1588 391 
Q 1994 391 2212 530 
Q 2431 669 2431 922 
Q 2431 1156 2273 1281 
Q 2116 1406 1581 1522 
L 1381 1569 
Q 847 1681 609 1914 
Q 372 2147 372 2553 
Q 372 3047 722 3315 
Q 1072 3584 1716 3584 
Q 2034 3584 2315 3537 
Q 2597 3491 2834 3397 
z
" transform="scale(0.015625)"/>
       <path id="DejaVuSans-69" d="M 603 3500 
L 1178 3500 
L 1178 0 
L 603 0 
L 603 3500 
z
M 603 4863 
L 1178 4863 
L 1178 4134 
L 603 4134 
L 603 4863 
z
" transform="scale(0.015625)"/>
       <path id="DejaVuSans-62" d="M 3116 1747 
Q 3116 2381 2855 2742 
Q 2594 3103 2138 3103 
Q 1681 3103 1420 2742 
Q 1159 2381 1159 1747 
Q 1159 1113 1420 752 
Q 1681 391 2138 391 
Q 2594 391 2855 752 
Q 3116 1113 3116 1747 
z
M 1159 2969 
Q 1341 3281 1617 3432 
Q 1894 3584 2278 3584 
Q 2916 3584 3314 3078 
Q 3713 2572 3713 1747 
Q 3713 922 3314 415 
Q 2916 -91 2278 -91 
Q 1894 -91 1617 61 
Q 1341 213 1159 525 
L 1159 0 
L 581 0 
L 581 4863 
L 1159 4863 
L 1159 2969 
z
" transform="scale(0.015625)"/>
       <path id="DejaVuSans-6c" d="M 603 4863 
L 1178 4863 
L 1178 0 
L 603 0 
L 603 4863 
z
" transform="scale(0.015625)"/>
       <path id="DejaVuSans-20" transform="scale(0.015625)"/>
       <path id="DejaVuSans-52" d="M 2841 2188 
Q 3044 2119 3236 1894 
Q 3428 1669 3622 1275 
L 4263 0 
L 3584 0 
L 2988 1197 
Q 2756 1666 2539 1819 
Q 2322 1972 1947 1972 
L 1259 1972 
L 1259 0 
L 628 0 
L 628 4666 
L 2053 4666 
Q 2853 4666 3247 4331 
Q 3641 3997 3641 3322 
Q 3641 2881 3436 2590 
Q 3231 2300 2841 2188 
z
M 1259 4147 
L 1259 2491 
L 2053 2491 
Q 2509 2491 2742 2702 
Q 2975 2913 2975 3322 
Q 2975 3731 2742 3939 
Q 2509 4147 2053 4147 
L 1259 4147 
z
" transform="scale(0.015625)"/>
       <path id="DejaVuSans-67" d="M 2906 1791 
Q 2906 2416 2648 2759 
Q 2391 3103 1925 3103 
Q 1463 3103 1205 2759 
Q 947 2416 947 1791 
Q 947 1169 1205 825 
Q 1463 481 1925 481 
Q 2391 481 2648 825 
Q 2906 1169 2906 1791 
z
M 3481 434 
Q 3481 -459 3084 -895 
Q 2688 -1331 1869 -1331 
Q 1566 -1331 1297 -1286 
Q 1028 -1241 775 -1147 
L 775 -588 
Q 1028 -725 1275 -790 
Q 1522 -856 1778 -856 
Q 2344 -856 2625 -561 
Q 2906 -266 2906 331 
L 2906 616 
Q 2728 306 2450 153 
Q 2172 0 1784 0 
Q 1141 0 747 490 
Q 353 981 353 1791 
Q 353 2603 747 3093 
Q 1141 3584 1784 3584 
Q 2172 3584 2450 3431 
Q 2728 3278 2906 2969 
L 2906 3500 
L 3481 3500 
L 3481 434 
z
" transform="scale(0.015625)"/>
       <path id="DejaVuSans-6f" d="M 1959 3097 
Q 1497 3097 1228 2736 
Q 959 2375 959 1747 
Q 959 1119 1226 758 
Q 1494 397 1959 397 
Q 2419 397 2687 759 
Q 2956 1122 2956 1747 
Q 2956 2369 2687 2733 
Q 2419 3097 1959 3097 
z
M 1959 3584 
Q 2709 3584 3137 3096 
Q 3566 2609 3566 1747 
Q 3566 888 3137 398 
Q 2709 -91 1959 -91 
Q 1206 -91 779 398 
Q 353 888 353 1747 
Q 353 2609 779 3096 
Q 1206 3584 1959 3584 
z
" transform="scale(0.015625)"/>
       <path id="DejaVuSans-6e" d="M 3513 2113 
L 3513 0 
L 2938 0 
L 2938 2094 
Q 2938 2591 2744 2837 
Q 2550 3084 2163 3084 
Q 1697 3084 1428 2787 
Q 1159 2491 1159 1978 
L 1159 0 
L 581 0 
L 581 3500 
L 1159 3500 
L 1159 2956 
Q 1366 3272 1645 3428 
Q 1925 3584 2291 3584 
Q 2894 3584 3203 3211 
Q 3513 2838 3513 2113 
z
" transform="scale(0.015625)"/>
      </defs>
      <use xlink:href="#DejaVuSans-46"/>
      <use xlink:href="#DejaVuSans-65" transform="translate(52.019531 0)"/>
      <use xlink:href="#DejaVuSans-61" transform="translate(113.542969 0)"/>
      <use xlink:href="#DejaVuSans-73" transform="translate(174.822266 0)"/>
      <use xlink:href="#DejaVuSans-69" transform="translate(226.921875 0)"/>
      <use xlink:href="#DejaVuSans-62" transform="translate(254.705078 0)"/>
      <use xlink:href="#DejaVuSans-6c" transform="translate(318.181641 0)"/>
      <use xlink:href="#DejaVuSans-65" transform="translate(345.964844 0)"/>
      <use xlink:href="#DejaVuSans-20" transform="translate(407.488281 0)"/>
      <use xlink:href="#DejaVuSans-52" transform="translate(439.275391 0)"/>
      <use xlink:href="#DejaVuSans-65" transform="translate(504.257812 0)"/>
      <use xlink:href="#DejaVuSans-67" transform="translate(565.78125 0)"/>
      <use xlink:href="#DejaVuSans-69" transform="translate(629.257812 0)"/>
      <use xlink:href="#DejaVuSans-6f" transform="translate(657.041016 0)"/>
      <use xlink:href="#DejaVuSans-6e" transform="translate(718.222656 0)"/>
     </g>
    </g>
   </g>
  </g>
 </g>
 <defs>
  <clipPath id="p86dccc2145">
   <rect x="43.081719" y="7.374029" width="357.12" height="266.112"/>
  </clipPath>
 </defs>
</svg>
