<svg xmlns="http://www.w3.org/2000/svg" xmlns:xlink="http://www.w3.org/1999/xlink" width="543.202" height="416.013" style="--axis-color:#000;--grid-stroke:rgba(0,0,0,0.2);--plot3d-stroke:rgba(0,0,0,0.3);--plot3d-grid:rgba(0,0,0,0.2);--black:#000000;--c1:#FF0001;--c2:#00FF02;--c3:#0000FF;--c4:#FF00FF;--c5:#00FFFF;--c6:#FFFF00;--c7:#FF8000;--c8:#8000FF;--gray:#7f7f7f;--grey:#7f7f7f;--octonary:#bcbd22;--primary:#d62728;--quaternary:#9467bd;--quinary:#8c564b;--secondary:#2ca02c;--senary:#e377c2;--septenary:#7f7f7f;--tertiary:#1f77b4;--white:#ffffff" viewBox="0 0 407.402 312.01"><style><![CDATA[@media (prefers-color-scheme:dark){:root{--axis-color:#fff;--grid-stroke:rgba(255,255,255,0.2);--plot3d-stroke:rgba(255,255,255,0.3);--plot3d-grid:rgba(255,255,255,0.2);--black:#FFFFFF;--c1:#FF0001;--c2:#00FF02;--c3:#0000FF;--c4:#FF00FF;--c5:#00FFFF;--c6:#FFFF00;--c7:#FF8000;--c8:#8000FF;--gray:#CCCCCC;--grey:#CCCCCC;--octonary:#E6DB74;--primary:#FF4A98;--quaternary:#B4A0FF;--quinary:#FFB86B;--secondary:#0AFAFA;--senary:#FF79C6;--septenary:#CCCCCC;--tertiary:#7F83FF;--white:#000000}}.text{fill:var(--axis-color)!important;stroke:none!important}.axis path,.patch path[style*="stroke: currentColor"],.tick path{stroke:var(--axis-color)!important}@media (prefers-color-scheme:dark){g.legend>g:first-child>path:first-child{fill:rgba(26,26,26,.8)!important;stroke:rgba(255,255,255,.1)!important}}*{stroke-linejoin:round;stroke-linecap:butt}]]></style><g id="figure_1"><path d="M0 312.01h407.402V0H0z" class="patch" style="fill:none"/><g id="axes_1"><path d="M43.082 273.486h357.12V7.374H43.082z" class="patch" style="fill:none"/><path id="QuadContourSet_1" d="M200.248 172.964h107.405l.436-.325-.436-.326h-.874l-.436-.325-.437-.325h-.873l-.437-.326-.436-.325h-.873l-.437-.325-.437-.326h-.873l-.436-.325-.437-.325h-.873l-.437-.326-.436-.325h-.874l-.436-.325-.437-.326h-.873l-.437-.325-.436-.325h-.873l-.437-.326-.437-.325h-.873l-.436-.325-.437-.326h-.873l-.437-.325-.437-.325h-.873l-.436-.326-.437-.325h-.873l-.437-.325-.436-.326h-.874l-.436-.325-.437-.325h-.873l-.437-.326-.436-.325h-.873l-.437-.325-.437-.326h-.873l-.436-.325-.437-.326h-.873l-.437-.325-.436-.325h-.874l-.436-.326-.437-.325h-.873l-.437-.325-.436-.326h-.873l-.437-.325-.437-.325h-.873l-.436-.326-.437-.325h-.873l-.437-.325-.436-.326h-.874l-.436-.325-.437-.325h-.873l-.437-.326-.436-.325h-.874l-.436-.325-.437-.326h-.873l-.437-.325-.436-.325h-.873l-.437-.326-.437-.325h-.873l-.436-.325-.437-.326h-.873l-.437-.325-.436-.325h-.874l-.436-.326-.437-.325h-.873l-.437-.325-.436-.326h-.873l-.437-.325-.437-.325h-.873l-.436-.326-.437-.325h-.873l-.437-.325-.436-.326h-.874l-.436-.325-.437-.325h-.873l-.437-.326-.436-.325h-.873l-.437-.325-.437-.326h-.873l-.437-.325-.436-.325h-.873l-.437-.326-.437-.325h-.873l-.436-.326-.437-.325h-.873l-.437-.325-.436-.326h-.874l-.436-.325-.437-.325h-.873l-.437-.326-.436-.325h-.873l-.437-.325-.437-.326h-.873l-.436-.325-.437-.325h-.873l-.437-.326-.436-.325h-.874l-.436-.325-.437-.326h-.873l-.437-.325-.436-.325h-.873l-.437-.326-.437-.325-.436.325-.437.326-.436.325v.65l-.437.326-.437.325v.651l-.436.325-.437.326v.65l-.437.326-.436.325v.65l-.437.326-.436.325v.651l-.437.326-.437.325v.65l-.436.326-.437.325v.65l-.436.326-.437.326v.65l-.437.326-.436.325v.65l-.437.326-.436.325v.651l-.437.325-.437.326v.65l-.436.326-.437.325v.65l-.436.326-.437.325v.651l-.437.325-.436.326v.65l-.437.326-.436.325v.65l-.437.326-.437.325v.651l-.436.325-.437.326v.65l-.436.326-.437.325v.65l-.437.326-.436.326v.65l-.437.326-.436.325v.65l-.437.326-.437.325v.65l-.436.326-.437.326v.65l-.436.326-.437.325v.65l-.437.326-.436.325v.651l-.437.325-.436.326z" clip-path="url(#p54681eb369)" style="fill:#8000ff;fill-opacity:.4"/><g class="axis"><g class="tick xtick"><path id="line2d_1" d="M47.437 273.486V7.374" clip-path="url(#p54681eb369)" style="fill:none;stroke:#b0b0b0;stroke-opacity:.15;stroke-width:.8;stroke-linecap:square"/><g id="line2d_2"><defs><path id="m3baf588711" d="M0 0v3.5" style="stroke:var(--black);stroke-width:.8"/></defs><use xlink:href="#m3baf588711" x="47.437" y="273.486" style="stroke:var(--black);stroke-width:.8"/></g><g id="text_1" class="text" transform="matrix(.09 0 0 -.09 40.803 287.325)"><defs><path id="DejaVuSans-2212" d="M678 2272h4006v-531H678z" transform="scale(.01563)"/><path id="DejaVuSans-32" d="M1228 531h2203V0H469v531q359 372 979 998 621 627 780 809 303 340 423 576 121 236 121 464 0 372-261 606-261 235-680 235-297 0-627-103-329-103-704-313v638q381 153 712 231 332 78 607 78 725 0 1156-363 431-362 431-968 0-288-108-546-107-257-392-607-78-91-497-524-418-433-1181-1211z" transform="scale(.01563)"/></defs><use xlink:href="#DejaVuSans-2212"/><use xlink:href="#DejaVuSans-32" transform="translate(83.79)"/></g></g><g class="tick xtick"><path id="line2d_3" d="M90.988 273.486V7.374" clip-path="url(#p54681eb369)" style="fill:none;stroke:#b0b0b0;stroke-opacity:.15;stroke-width:.8;stroke-linecap:square"/><use xlink:href="#m3baf588711" id="line2d_4" x="90.988" y="273.486" style="stroke:var(--black);stroke-width:.8"/><g id="text_2" class="text" transform="matrix(.09 0 0 -.09 84.354 287.325)"><defs><path id="DejaVuSans-31" d="M794 531h1031v3560L703 3866v575l1116 225h631V531h1031V0H794z" transform="scale(.01563)"/></defs><use xlink:href="#DejaVuSans-2212"/><use xlink:href="#DejaVuSans-31" transform="translate(83.79)"/></g></g><g class="tick xtick"><path id="line2d_5" d="M134.54 273.486V7.374" clip-path="url(#p54681eb369)" style="fill:none;stroke:#b0b0b0;stroke-opacity:.15;stroke-width:.8;stroke-linecap:square"/><use xlink:href="#m3baf588711" id="line2d_6" x="134.539" y="273.486" style="stroke:var(--black);stroke-width:.8"/><g id="text_3" class="text" transform="matrix(.09 0 0 -.09 131.676 287.325)"><defs><path id="DejaVuSans-30" d="M2034 4250q-487 0-733-480-245-479-245-1442 0-959 245-1439 246-480 733-480 491 0 736 480 246 480 246 1439 0 963-246 1442-245 480-736 480zm0 500q785 0 1199-621 414-620 414-1801 0-1178-414-1799Q2819-91 2034-91q-784 0-1198 620-414 621-414 1799 0 1181 414 1801 414 621 1198 621z" transform="scale(.01563)"/></defs><use xlink:href="#DejaVuSans-30"/></g></g><g class="tick xtick"><path id="line2d_7" d="M178.09 273.486V7.374" clip-path="url(#p54681eb369)" style="fill:none;stroke:#b0b0b0;stroke-opacity:.15;stroke-width:.8;stroke-linecap:square"/><use xlink:href="#m3baf588711" id="line2d_8" x="178.09" y="273.486" style="stroke:var(--black);stroke-width:.8"/><use xlink:href="#DejaVuSans-31" id="text_4" class="text" transform="matrix(.09 0 0 -.09 175.227 287.325)"/></g><g class="tick xtick"><path id="line2d_9" d="M221.642 273.486V7.374" clip-path="url(#p54681eb369)" style="fill:none;stroke:#b0b0b0;stroke-opacity:.15;stroke-width:.8;stroke-linecap:square"/><use xlink:href="#m3baf588711" id="line2d_10" x="221.642" y="273.486" style="stroke:var(--black);stroke-width:.8"/><use xlink:href="#DejaVuSans-32" id="text_5" class="text" transform="matrix(.09 0 0 -.09 218.779 287.325)"/></g><g class="tick xtick"><path id="line2d_11" d="M265.193 273.486V7.374" clip-path="url(#p54681eb369)" style="fill:none;stroke:#b0b0b0;stroke-opacity:.15;stroke-width:.8;stroke-linecap:square"/><use xlink:href="#m3baf588711" id="line2d_12" x="265.193" y="273.486" style="stroke:var(--black);stroke-width:.8"/><g id="text_6" class="text" transform="matrix(.09 0 0 -.09 262.33 287.325)"><defs><path id="DejaVuSans-33" d="M2597 2516q453-97 707-404 255-306 255-756 0-690-475-1069Q2609-91 1734-91q-293 0-604 58T488 141v609q262-153 574-231 313-78 654-78 593 0 904 234t311 681q0 413-289 645-289 233-804 233h-544v519h569q465 0 712 186t247 536q0 359-255 551-254 193-729 193-260 0-557-57-297-56-653-174v562q360 100 674 150t592 50q719 0 1137-327 419-326 419-882 0-388-222-655t-631-370z" transform="scale(.01563)"/></defs><use xlink:href="#DejaVuSans-33"/></g></g><g class="tick xtick"><path id="line2d_13" d="M308.744 273.486V7.374" clip-path="url(#p54681eb369)" style="fill:none;stroke:#b0b0b0;stroke-opacity:.15;stroke-width:.8;stroke-linecap:square"/><use xlink:href="#m3baf588711" id="line2d_14" x="308.744" y="273.486" style="stroke:var(--black);stroke-width:.8"/><g id="text_7" class="text" transform="matrix(.09 0 0 -.09 305.881 287.325)"><defs><path id="DejaVuSans-34" d="M2419 4116 825 1625h1594zm-166 550h794V1625h666v-525h-666V0h-628v1100H313v609z" transform="scale(.01563)"/></defs><use xlink:href="#DejaVuSans-34"/></g></g><g class="tick xtick"><path id="line2d_15" d="M352.295 273.486V7.374" clip-path="url(#p54681eb369)" style="fill:none;stroke:#b0b0b0;stroke-opacity:.15;stroke-width:.8;stroke-linecap:square"/><use xlink:href="#m3baf588711" id="line2d_16" x="352.295" y="273.486" style="stroke:var(--black);stroke-width:.8"/><g id="text_8" class="text" transform="matrix(.09 0 0 -.09 349.432 287.325)"><defs><path id="DejaVuSans-35" d="M691 4666h2478v-532H1269V2991q137 47 274 70 138 23 276 23 781 0 1237-428 457-428 457-1159 0-753-469-1171Q2575-91 1722-91q-294 0-599 50Q819 9 494 109v635q281-153 581-228t634-75q541 0 856 284 316 284 316 772 0 487-316 771-315 285-856 285-253 0-505-56-251-56-513-175z" transform="scale(.01563)"/></defs><use xlink:href="#DejaVuSans-35"/></g></g><g class="tick xtick"><path id="line2d_17" d="M395.847 273.486V7.374" clip-path="url(#p54681eb369)" style="fill:none;stroke:#b0b0b0;stroke-opacity:.15;stroke-width:.8;stroke-linecap:square"/><use xlink:href="#m3baf588711" id="line2d_18" x="395.847" y="273.486" style="stroke:var(--black);stroke-width:.8"/><g id="text_9" class="text" transform="matrix(.09 0 0 -.09 392.983 287.325)"><defs><path id="DejaVuSans-36" d="M2113 2584q-425 0-674-291-248-290-248-796 0-503 248-796 249-292 674-292t673 292q248 293 248 796 0 506-248 796-248 291-673 291zm1253 1979v-575q-238 112-480 171-242 60-480 60-625 0-955-422-329-422-376-1275 184 272 462 417 279 145 613 145 703 0 1111-427 408-426 408-1160 0-719-425-1154Q2819-91 2113-91q-810 0-1238 620-428 621-428 1799 0 1106 525 1764t1409 658q238 0 480-47t505-140z" transform="scale(.01563)"/></defs><use xlink:href="#DejaVuSans-36"/></g></g><g id="text_10" class="text" transform="matrix(.12 0 0 -.12 215.222 302.314)"><defs><path id="DejaVuSans-Oblique-78" d="M3841 3500 2234 1784 3219 0h-660l-740 1388L531 0h-697l1722 1844-915 1656h659l672-1266 1172 1266z" transform="scale(.01563)"/></defs><use xlink:href="#DejaVuSans-Oblique-78" transform="translate(0 .313)"/><use xlink:href="#DejaVuSans-31" transform="matrix(.7 0 0 .7 59.18 -16.094)"/></g></g><g class="axis"><g class="tick ytick"><path id="line2d_19" d="M43.082 270.24h357.12" clip-path="url(#p54681eb369)" style="fill:none;stroke:#b0b0b0;stroke-opacity:.15;stroke-width:.8;stroke-linecap:square"/><g id="line2d_20"><defs><path id="m3cc1072ac4" d="M0 0h-3.5" style="stroke:var(--black);stroke-width:.8"/></defs><use xlink:href="#m3cc1072ac4" x="43.082" y="270.241" style="stroke:var(--black);stroke-width:.8"/></g><g id="text_11" class="text" transform="matrix(.09 0 0 -.09 22.814 273.66)"><use xlink:href="#DejaVuSans-2212"/><use xlink:href="#DejaVuSans-32" transform="translate(83.79)"/></g></g><g class="tick ytick"><path id="line2d_21" d="M43.082 237.788h357.12" clip-path="url(#p54681eb369)" style="fill:none;stroke:#b0b0b0;stroke-opacity:.15;stroke-width:.8;stroke-linecap:square"/><use xlink:href="#m3cc1072ac4" id="line2d_22" x="43.082" y="237.788" style="stroke:var(--black);stroke-width:.8"/><g id="text_12" class="text" transform="matrix(.09 0 0 -.09 22.814 241.207)"><use xlink:href="#DejaVuSans-2212"/><use xlink:href="#DejaVuSans-31" transform="translate(83.79)"/></g></g><g class="tick ytick"><path id="line2d_23" d="M43.082 205.335h357.12" clip-path="url(#p54681eb369)" style="fill:none;stroke:#b0b0b0;stroke-opacity:.15;stroke-width:.8;stroke-linecap:square"/><use xlink:href="#m3cc1072ac4" id="line2d_24" x="43.082" y="205.335" style="stroke:var(--black);stroke-width:.8"/><use xlink:href="#DejaVuSans-30" id="text_13" class="text" transform="matrix(.09 0 0 -.09 30.355 208.755)"/></g><g class="tick ytick"><path id="line2d_25" d="M43.082 172.883h357.12" clip-path="url(#p54681eb369)" style="fill:none;stroke:#b0b0b0;stroke-opacity:.15;stroke-width:.8;stroke-linecap:square"/><use xlink:href="#m3cc1072ac4" id="line2d_26" x="43.082" y="172.883" style="stroke:var(--black);stroke-width:.8"/><use xlink:href="#DejaVuSans-31" id="text_14" class="text" transform="matrix(.09 0 0 -.09 30.355 176.302)"/></g><g class="tick ytick"><path id="line2d_27" d="M43.082 140.43h357.12" clip-path="url(#p54681eb369)" style="fill:none;stroke:#b0b0b0;stroke-opacity:.15;stroke-width:.8;stroke-linecap:square"/><use xlink:href="#m3cc1072ac4" id="line2d_28" x="43.082" y="140.43" style="stroke:var(--black);stroke-width:.8"/><use xlink:href="#DejaVuSans-32" id="text_15" class="text" transform="matrix(.09 0 0 -.09 30.355 143.85)"/></g><g class="tick ytick"><path id="line2d_29" d="M43.082 107.977h357.12" clip-path="url(#p54681eb369)" style="fill:none;stroke:#b0b0b0;stroke-opacity:.15;stroke-width:.8;stroke-linecap:square"/><use xlink:href="#m3cc1072ac4" id="line2d_30" x="43.082" y="107.977" style="stroke:var(--black);stroke-width:.8"/><use xlink:href="#DejaVuSans-33" id="text_16" class="text" transform="matrix(.09 0 0 -.09 30.355 111.397)"/></g><g class="tick ytick"><path id="line2d_31" d="M43.082 75.525h357.12" clip-path="url(#p54681eb369)" style="fill:none;stroke:#b0b0b0;stroke-opacity:.15;stroke-width:.8;stroke-linecap:square"/><use xlink:href="#m3cc1072ac4" id="line2d_32" x="43.082" y="75.525" style="stroke:var(--black);stroke-width:.8"/><use xlink:href="#DejaVuSans-34" id="text_17" class="text" transform="matrix(.09 0 0 -.09 30.355 78.944)"/></g><g class="tick ytick"><path id="line2d_33" d="M43.082 43.072h357.12" clip-path="url(#p54681eb369)" style="fill:none;stroke:#b0b0b0;stroke-opacity:.15;stroke-width:.8;stroke-linecap:square"/><use xlink:href="#m3cc1072ac4" id="line2d_34" x="43.082" y="43.072" style="stroke:var(--black);stroke-width:.8"/><use xlink:href="#DejaVuSans-35" id="text_18" class="text" transform="matrix(.09 0 0 -.09 30.355 46.491)"/></g><g class="tick ytick"><path id="line2d_35" d="M43.082 10.62h357.12" clip-path="url(#p54681eb369)" style="fill:none;stroke:#b0b0b0;stroke-opacity:.15;stroke-width:.8;stroke-linecap:square"/><use xlink:href="#m3cc1072ac4" id="line2d_36" x="43.082" y="10.619" style="stroke:var(--black);stroke-width:.8"/><use xlink:href="#DejaVuSans-36" id="text_19" class="text" transform="matrix(.09 0 0 -.09 30.355 14.039)"/></g><g id="text_20" class="text" transform="matrix(0 -.12 -.12 0 16.318 146.85)"><use xlink:href="#DejaVuSans-Oblique-78" transform="translate(0 .313)"/><use xlink:href="#DejaVuSans-32" transform="matrix(.7 0 0 .7 59.18 -16.094)"/></g></g><path id="line2d_37" d="m47.437 75.525 3.52 1.31 3.518 1.312 3.52 1.311 3.519 1.312 3.52 1.31 3.519 1.312 3.519 1.311 3.52 1.311 3.518 1.312 3.52 1.31 3.519 1.312 3.52 1.311 3.519 1.312 3.519 1.31 3.52 1.312 3.518 1.311 3.52 1.311 3.52 1.312 3.518 1.31 3.52 1.312 3.519 1.311 3.52 1.311 3.519 1.312 3.519 1.31 3.52 1.312 3.518 1.311 3.52 1.312 3.519 1.31 3.52 1.312 3.519 1.311 3.519 1.311 3.52 1.312 3.518 1.31 3.52 1.312 3.519 1.311 3.52 1.312 3.519 1.31 3.519 1.312 3.52 1.311 3.518 1.311 3.52 1.312 3.519 1.31 3.52 1.312 3.519 1.311 3.519 1.312 3.52 1.31 3.518 1.312 3.52 1.311 3.52 1.311 3.518 1.312 3.52 1.31 3.519 1.312 3.52 1.311 3.519 1.312 3.519 1.31 3.52 1.312 3.518 1.311 3.52 1.311 3.519 1.312 3.52 1.31 3.519 1.312 3.519 1.311 3.52 1.311 3.518 1.312 3.52 1.31 3.519 1.312 3.52 1.311 3.519 1.312 3.519 1.31 3.52 1.312 3.518 1.311 3.52 1.311 3.519 1.312 3.52 1.31 3.519 1.312 3.519 1.311 3.52 1.312 3.518 1.31 3.52 1.312 3.52 1.311 3.518 1.311 3.52 1.312 3.519 1.31 3.52 1.312 3.519 1.311 3.519 1.312 3.52 1.31 3.518 1.312 3.52 1.311 3.519 1.311 3.52 1.312 3.519 1.31 3.519 1.312 3.52 1.311 3.518 1.312 3.52 1.31 3.519 1.312 3.52 1.311 3.519 1.311" clip-path="url(#p54681eb369)" style="fill:none;stroke:#8000ff;stroke-opacity:.8;stroke-width:2;stroke-linecap:square"/><path id="line2d_38" d="m105.841 313.01 1.424-2.121 3.52-5.245 3.518-5.245 3.52-5.245 3.519-5.245 3.52-5.245 3.519-5.245 3.519-5.245 3.52-5.244 3.518-5.245 3.52-5.245 3.519-5.245 3.52-5.245 3.519-5.245 3.519-5.245 3.52-5.245 3.518-5.244 3.52-5.245 3.519-5.245 3.52-5.245 3.519-5.245 3.519-5.245 3.52-5.245 3.518-5.245 3.52-5.245 3.519-5.244 3.52-5.245 3.519-5.245 3.519-5.245 3.52-5.245 3.518-5.245 3.52-5.245 3.52-5.245 3.518-5.244 3.52-5.245 3.519-5.245 3.52-5.245 3.519-5.245 3.519-5.245 3.52-5.245 3.518-5.245 3.52-5.244 3.519-5.245 3.52-5.245 3.519-5.245 3.519-5.245 3.52-5.245 3.518-5.245 3.52-5.245 3.519-5.244 3.52-5.245 3.519-5.245 3.519-5.245 3.52-5.245 3.518-5.245 3.52-5.245 3.519-5.245 3.52-5.244 3.519-5.245 3.519-5.245L316.54-1" clip-path="url(#p54681eb369)" style="fill:none;stroke:#8000ff;stroke-opacity:.8;stroke-width:2;stroke-linecap:square"/><path id="line2d_39" d="M47.437 172.883h348.41" clip-path="url(#p54681eb369)" style="fill:none;stroke:#8000ff;stroke-opacity:.8;stroke-width:2;stroke-linecap:square"/><path d="M43.082 273.486V7.374M43.082 273.486h357.12" class="patch" style="fill:none;stroke:var(--black);stroke-width:.8;stroke-linejoin:miter;stroke-linecap:square"/><g class="legend"><path d="M283.04 30.052h110.162q2 0 2-2V14.374q0-2-2-2H283.039q-2 0-2 2v13.678q0 2 2 2z" class="patch" style="fill:rgba(255,255,255,.8)!important;opacity:.9;stroke:rgba(0,0,0,.1)!important;stroke-linejoin:miter"/><path d="M285.04 23.972h20v-7h-20z" class="patch" style="fill:#8000ff;opacity:.4"/><g id="text_21" class="text" transform="matrix(.1 0 0 -.1 313.04 23.972)"><defs><path id="DejaVuSans-46" d="M628 4666h2681v-532H1259V2759h1850v-531H1259V0H628z" transform="scale(.01563)"/><path id="DejaVuSans-65" d="M3597 1894v-281H953q38-594 358-905t892-311q331 0 642 81t618 244V178Q3153 47 2828-22t-659-69q-838 0-1327 487-489 488-489 1320 0 859 464 1363 464 505 1252 505 706 0 1117-455 411-454 411-1235m-575 169q-6 471-264 752-258 282-683 282-481 0-770-272t-333-766z" transform="scale(.01563)"/><path id="DejaVuSans-61" d="M2194 1759q-697 0-966-159t-269-544q0-306 202-486 202-179 548-179 479 0 768 339t289 901v128zm1147 238V0h-575v531q-197-318-491-470T1556-91q-537 0-855 302-317 302-317 808 0 590 395 890 396 300 1180 300h807v57q0 397-261 614t-733 217q-300 0-585-72-284-72-546-216v532q315 122 612 182 297 61 578 61 760 0 1135-394 375-393 375-1193" transform="scale(.01563)"/><path id="DejaVuSans-73" d="M2834 3397v-544q-243 125-506 187-262 63-544 63-428 0-642-131t-214-394q0-200 153-314t616-217l197-44q612-131 870-370t258-667q0-488-386-773Q2250-91 1575-91q-281 0-586 55T347 128v594q319-166 628-249 309-82 613-82 406 0 624 139 219 139 219 392 0 234-158 359-157 125-692 241l-200 47q-534 112-772 345-237 233-237 639 0 494 350 762 350 269 994 269 318 0 599-47 282-46 519-140" transform="scale(.01563)"/><path id="DejaVuSans-69" d="M603 3500h575V0H603zm0 1363h575v-729H603z" transform="scale(.01563)"/><path id="DejaVuSans-62" d="M3116 1747q0 634-261 995t-717 361q-457 0-718-361t-261-995 261-995 718-361q456 0 717 361t261 995M1159 2969q182 312 458 463 277 152 661 152 638 0 1036-506 399-506 399-1331T3314 415Q2916-91 2278-91q-384 0-661 152-276 152-458 464V0H581v4863h578z" transform="scale(.01563)"/><path id="DejaVuSans-6c" d="M603 4863h575V0H603z" transform="scale(.01563)"/><path id="DejaVuSans-52" d="M2841 2188q203-69 395-294t386-619L4263 0h-679l-596 1197q-232 469-449 622t-592 153h-688V0H628v4666h1425q800 0 1194-335 394-334 394-1009 0-441-205-732-205-290-595-402M1259 4147V2491h794q456 0 689 211t233 620-233 617-689 208z" transform="scale(.01563)"/><path id="DejaVuSans-67" d="M2906 1791q0 625-258 968-257 344-723 344-462 0-720-344-258-343-258-968 0-622 258-966t720-344q466 0 723 344 258 344 258 966m575-1357q0-893-397-1329-396-436-1215-436-303 0-572 45t-522 139v559q253-137 500-202 247-66 503-66 566 0 847 295t281 892v285q-178-310-456-463T1784 0Q1141 0 747 490 353 981 353 1791q0 812 394 1302 394 491 1037 491 388 0 666-153t456-462v531h575z" transform="scale(.01563)"/><path id="DejaVuSans-6f" d="M1959 3097q-462 0-731-361t-269-989 267-989q268-361 733-361 460 0 728 362 269 363 269 988 0 622-269 986-268 364-728 364m0 487q750 0 1178-488 429-487 429-1349 0-859-429-1349Q2709-91 1959-91q-753 0-1180 489-426 490-426 1349 0 862 426 1349 427 488 1180 488" transform="scale(.01563)"/><path id="DejaVuSans-6e" d="M3513 2113V0h-575v2094q0 497-194 743-194 247-581 247-466 0-735-297-269-296-269-809V0H581v3500h578v-544q207 316 486 472 280 156 646 156 603 0 912-373 310-373 310-1098" transform="scale(.01563)"/></defs><use xlink:href="#DejaVuSans-46"/><use xlink:href="#DejaVuSans-65" transform="translate(52.02)"/><use xlink:href="#DejaVuSans-61" transform="translate(113.543)"/><use xlink:href="#DejaVuSans-73" transform="translate(174.822)"/><use xlink:href="#DejaVuSans-69" transform="translate(226.922)"/><use xlink:href="#DejaVuSans-62" transform="translate(254.705)"/><use xlink:href="#DejaVuSans-6c" transform="translate(318.182)"/><use xlink:href="#DejaVuSans-65" transform="translate(345.965)"/><use xlink:href="#DejaVuSans-52" transform="translate(439.275)"/><use xlink:href="#DejaVuSans-65" transform="translate(504.258)"/><use xlink:href="#DejaVuSans-67" transform="translate(565.781)"/><use xlink:href="#DejaVuSans-69" transform="translate(629.258)"/><use xlink:href="#DejaVuSans-6f" transform="translate(657.041)"/><use xlink:href="#DejaVuSans-6e" transform="translate(718.223)"/></g></g></g></g><defs><clipPath id="p54681eb369"><path d="M43.082 7.374h357.12v266.112H43.082z"/></clipPath></defs></svg>