<?xml version="1.0" encoding="utf-8" standalone="no"?>
<!DOCTYPE svg PUBLIC "-//W3C//DTD SVG 1.1//EN"
  "http://www.w3.org/Graphics/SVG/1.1/DTD/svg11.dtd">
<svg xmlns:xlink="http://www.w3.org/1999/xlink" width="422.943339pt" height="325.018562pt" viewBox="0 0 422.943339 325.018562" xmlns="http://www.w3.org/2000/svg" version="1.1">
<style>/* === RDF autogenerated palette === */
:root {
    --axis-color: #000;
    --grid-stroke: rgba(0,0,0,0.2);
    --plot3d-stroke: rgba(0,0,0,0.3);
    --plot3d-grid: rgba(0,0,0,0.2);
}
@media (prefers-color-scheme: dark) {
    :root {
        --axis-color: #fff;
        --grid-stroke: rgba(255,255,255,0.2);
        --plot3d-stroke: rgba(255,255,255,0.3);
        --plot3d-grid: rgba(255,255,255,0.2);
    }
}

/* Light‑mode palette */
.black { fill:#000000; stroke:#000000; }:root { --black: #000000; }.c1 { fill:#FF0001; stroke:#FF0001; }:root { --c1: #FF0001; }.c2 { fill:#00FF02; stroke:#00FF02; }:root { --c2: #00FF02; }.c3 { fill:#0000FF; stroke:#0000FF; }:root { --c3: #0000FF; }.c4 { fill:#FF00FF; stroke:#FF00FF; }:root { --c4: #FF00FF; }.c5 { fill:#00FFFF; stroke:#00FFFF; }:root { --c5: #00FFFF; }.c6 { fill:#FFFF00; stroke:#FFFF00; }:root { --c6: #FFFF00; }.c7 { fill:#FF8000; stroke:#FF8000; }:root { --c7: #FF8000; }.c8 { fill:#8000FF; stroke:#8000FF; }:root { --c8: #8000FF; }.gray { fill:#7f7f7f; stroke:#7f7f7f; }:root { --gray: #7f7f7f; }.grey { fill:#7f7f7f; stroke:#7f7f7f; }:root { --grey: #7f7f7f; }.octonary { fill:#bcbd22; stroke:#bcbd22; }:root { --octonary: #bcbd22; }.primary { fill:#d62728; stroke:#d62728; }:root { --primary: #d62728; }.quaternary { fill:#9467bd; stroke:#9467bd; }:root { --quaternary: #9467bd; }.quinary { fill:#8c564b; stroke:#8c564b; }:root { --quinary: #8c564b; }.secondary { fill:#2ca02c; stroke:#2ca02c; }:root { --secondary: #2ca02c; }.senary { fill:#e377c2; stroke:#e377c2; }:root { --senary: #e377c2; }.septenary { fill:#7f7f7f; stroke:#7f7f7f; }:root { --septenary: #7f7f7f; }.tertiary { fill:#1f77b4; stroke:#1f77b4; }:root { --tertiary: #1f77b4; }.white { fill:#ffffff; stroke:#ffffff; }:root { --white: #ffffff; }

/* Dark overrides */
@media (prefers-color-scheme: dark) {
    .black { fill:#FFFFFF; stroke:#FFFFFF; }:root { --black: #FFFFFF; }.c1 { fill:#FF0001; stroke:#FF0001; }:root { --c1: #FF0001; }.c2 { fill:#00FF02; stroke:#00FF02; }:root { --c2: #00FF02; }.c3 { fill:#0000FF; stroke:#0000FF; }:root { --c3: #0000FF; }.c4 { fill:#FF00FF; stroke:#FF00FF; }:root { --c4: #FF00FF; }.c5 { fill:#00FFFF; stroke:#00FFFF; }:root { --c5: #00FFFF; }.c6 { fill:#FFFF00; stroke:#FFFF00; }:root { --c6: #FFFF00; }.c7 { fill:#FF8000; stroke:#FF8000; }:root { --c7: #FF8000; }.c8 { fill:#8000FF; stroke:#8000FF; }:root { --c8: #8000FF; }.gray { fill:#CCCCCC; stroke:#CCCCCC; }:root { --gray: #CCCCCC; }.grey { fill:#CCCCCC; stroke:#CCCCCC; }:root { --grey: #CCCCCC; }.octonary { fill:#E6DB74; stroke:#E6DB74; }:root { --octonary: #E6DB74; }.primary { fill:#FF4A98; stroke:#FF4A98; }:root { --primary: #FF4A98; }.quaternary { fill:#B4A0FF; stroke:#B4A0FF; }:root { --quaternary: #B4A0FF; }.quinary { fill:#FFB86B; stroke:#FFB86B; }:root { --quinary: #FFB86B; }.secondary { fill:#0AFAFA; stroke:#0AFAFA; }:root { --secondary: #0AFAFA; }.senary { fill:#FF79C6; stroke:#FF79C6; }:root { --senary: #FF79C6; }.septenary { fill:#CCCCCC; stroke:#CCCCCC; }:root { --septenary: #CCCCCC; }.tertiary { fill:#7F83FF; stroke:#7F83FF; }:root { --tertiary: #7F83FF; }.white { fill:#000000; stroke:#000000; }:root { --white: #000000; }
}/* Axis, ticks, legend */
text, .text { fill: var(--axis-color) !important; stroke: none !important; }
.axis line, .axis path,
.tick line, .tick path,
path.domain,
line.grid { stroke: var(--axis-color) !important; }
.legend text { fill: var(--axis-color) !important; }

/* Patch paths that relied on currentColor */
.patch path[style*="stroke: currentColor"] { stroke: var(--axis-color) !important; }

/* Legend background (first child of legend group) */
g.legend > g:first-child > path:first-child {
    fill: rgba(255,255,255,0.8) !important;
    stroke: rgba(0,0,0,0.1) !important;
}
@media (prefers-color-scheme: dark) {
    g.legend > g:first-child > path:first-child {
        fill: rgba(26,26,26,0.8) !important;
        stroke: rgba(255,255,255,0.1) !important;
    }
}

/* 3‑D specific rules */
.plot3d path, .plot3d polygon {
    stroke: var(--plot3d-stroke) !important;
}
.plot3d-grid line { stroke: var(--plot3d-grid) !important; }
.plot3d-surface path[style*="fill:"] {
    fill-opacity: 0.9 !important;
}
@media (prefers-color-scheme: dark) {
    .plot3d-surface path[style*="fill:"] {
        fill-opacity: 0.95 !important;
        filter: saturate(1.2) !important;
    }
}</style>

 <metadata>
  <rdf:RDF xmlns:dc="http://purl.org/dc/elements/1.1/" xmlns:cc="http://creativecommons.org/ns#" xmlns:rdf="http://www.w3.org/1999/02/22-rdf-syntax-ns#">
   <cc:Work>
    <dc:type rdf:resource="http://purl.org/dc/dcmitype/StillImage"/>
    <dc:date>2025-11-06T14:04:28.160243</dc:date>
    <dc:format>image/svg+xml</dc:format>
    <dc:creator>
     <cc:Agent>
      <dc:title>Matplotlib v3.10.1, https://matplotlib.org/</dc:title>
     </cc:Agent>
    </dc:creator>
   </cc:Work>
  </rdf:RDF>
 </metadata>
 <defs>
  <style type="text/css">*{stroke-linejoin: round; stroke-linecap: butt}</style>
 </defs>
 <g id="figure_1">
  <g class="patch">
   <path d="M -0 325.018562 
L 422.943339 325.018562 
L 422.943339 0 
L -0 0 
L -0 325.018562 
z
" style="fill: none"/>
  </g>
  <g id="axes_1">
   <g class="patch">
    <path d="M 42.190938 288.430125 
L 136.169885 288.430125 
L 136.169885 22.318125 
L 42.190938 22.318125 
L 42.190938 288.430125 
z
" style="fill: none"/>
   </g>
   <g class="axis">
    <g class="tick xtick">
     <g id="line2d_1">
      <path d="M 46.462708 288.430125 
L 46.462708 22.318125 
" clip-path="url(#pcf52a47a3c)" style="fill: none; stroke: #b0b0b0; stroke-opacity: 0.15; stroke-width: 0.8; stroke-linecap: square"/>
     </g>
     <g id="line2d_2">
      <defs>
       <path id="ma8a86f81af" d="M 0 0 
L 0 3.5 
" style="stroke: var(--black); stroke-width: 0.8"/>
      </defs>
      <g>
       <use xlink:href="#ma8a86f81af" x="46.462708" y="288.430125" style="stroke: var(--black); stroke-width: 0.8"/>
      </g>
     </g>
     <g id="text_1" class="text">
      <!-- 0.0 -->
      <g transform="translate(39.306302 302.268719) scale(0.09 -0.09)">
       <defs>
        <path id="DejaVuSans-30" d="M 2034 4250 
Q 1547 4250 1301 3770 
Q 1056 3291 1056 2328 
Q 1056 1369 1301 889 
Q 1547 409 2034 409 
Q 2525 409 2770 889 
Q 3016 1369 3016 2328 
Q 3016 3291 2770 3770 
Q 2525 4250 2034 4250 
z
M 2034 4750 
Q 2819 4750 3233 4129 
Q 3647 3509 3647 2328 
Q 3647 1150 3233 529 
Q 2819 -91 2034 -91 
Q 1250 -91 836 529 
Q 422 1150 422 2328 
Q 422 3509 836 4129 
Q 1250 4750 2034 4750 
z
" transform="scale(0.015625)"/>
        <path id="DejaVuSans-2e" d="M 684 794 
L 1344 794 
L 1344 0 
L 684 0 
L 684 794 
z
" transform="scale(0.015625)"/>
       </defs>
       <use xlink:href="#DejaVuSans-30"/>
       <use xlink:href="#DejaVuSans-2e" transform="translate(63.623047 0)"/>
       <use xlink:href="#DejaVuSans-30" transform="translate(95.410156 0)"/>
      </g>
     </g>
    </g>
    <g class="tick xtick">
     <g id="line2d_3">
      <path d="M 89.180411 288.430125 
L 89.180411 22.318125 
" clip-path="url(#pcf52a47a3c)" style="fill: none; stroke: #b0b0b0; stroke-opacity: 0.15; stroke-width: 0.8; stroke-linecap: square"/>
     </g>
     <g id="line2d_4">
      <g>
       <use xlink:href="#ma8a86f81af" x="89.180411" y="288.430125" style="stroke: var(--black); stroke-width: 0.8"/>
      </g>
     </g>
     <g id="text_2" class="text">
      <!-- 0.5 -->
      <g transform="translate(82.024005 302.268719) scale(0.09 -0.09)">
       <defs>
        <path id="DejaVuSans-35" d="M 691 4666 
L 3169 4666 
L 3169 4134 
L 1269 4134 
L 1269 2991 
Q 1406 3038 1543 3061 
Q 1681 3084 1819 3084 
Q 2600 3084 3056 2656 
Q 3513 2228 3513 1497 
Q 3513 744 3044 326 
Q 2575 -91 1722 -91 
Q 1428 -91 1123 -41 
Q 819 9 494 109 
L 494 744 
Q 775 591 1075 516 
Q 1375 441 1709 441 
Q 2250 441 2565 725 
Q 2881 1009 2881 1497 
Q 2881 1984 2565 2268 
Q 2250 2553 1709 2553 
Q 1456 2553 1204 2497 
Q 953 2441 691 2322 
L 691 4666 
z
" transform="scale(0.015625)"/>
       </defs>
       <use xlink:href="#DejaVuSans-30"/>
       <use xlink:href="#DejaVuSans-2e" transform="translate(63.623047 0)"/>
       <use xlink:href="#DejaVuSans-35" transform="translate(95.410156 0)"/>
      </g>
     </g>
    </g>
    <g class="tick xtick">
     <g id="line2d_5">
      <path d="M 131.898115 288.430125 
L 131.898115 22.318125 
" clip-path="url(#pcf52a47a3c)" style="fill: none; stroke: #b0b0b0; stroke-opacity: 0.15; stroke-width: 0.8; stroke-linecap: square"/>
     </g>
     <g id="line2d_6">
      <g>
       <use xlink:href="#ma8a86f81af" x="131.898115" y="288.430125" style="stroke: var(--black); stroke-width: 0.8"/>
      </g>
     </g>
     <g id="text_3" class="text">
      <!-- 1.0 -->
      <g transform="translate(124.741708 302.268719) scale(0.09 -0.09)">
       <defs>
        <path id="DejaVuSans-31" d="M 794 531 
L 1825 531 
L 1825 4091 
L 703 3866 
L 703 4441 
L 1819 4666 
L 2450 4666 
L 2450 531 
L 3481 531 
L 3481 0 
L 794 0 
L 794 531 
z
" transform="scale(0.015625)"/>
       </defs>
       <use xlink:href="#DejaVuSans-31"/>
       <use xlink:href="#DejaVuSans-2e" transform="translate(63.623047 0)"/>
       <use xlink:href="#DejaVuSans-30" transform="translate(95.410156 0)"/>
      </g>
     </g>
    </g>
    <g id="text_4" class="text">
     <!-- $\mu$ -->
     <g transform="translate(85.980411 315.718562) scale(0.1 -0.1)">
      <defs>
       <path id="DejaVuSans-Oblique-3bc" d="M -84 -1331 
L 856 3500 
L 1434 3500 
L 1009 1322 
Q 997 1256 987 1175 
Q 978 1094 978 1013 
Q 978 722 1161 565 
Q 1344 409 1684 409 
Q 2147 409 2431 671 
Q 2716 934 2816 1459 
L 3213 3500 
L 3788 3500 
L 3266 809 
Q 3253 750 3248 706 
Q 3244 663 3244 628 
Q 3244 531 3283 486 
Q 3322 441 3406 441 
Q 3438 441 3492 456 
Q 3547 472 3647 513 
L 3559 50 
Q 3422 -19 3297 -55 
Q 3172 -91 3053 -91 
Q 2847 -91 2730 40 
Q 2613 172 2613 403 
Q 2438 153 2195 31 
Q 1953 -91 1625 -91 
Q 1334 -91 1117 43 
Q 900 178 831 397 
L 494 -1331 
L -84 -1331 
z
" transform="scale(0.015625)"/>
      </defs>
      <use xlink:href="#DejaVuSans-Oblique-3bc" transform="translate(0 0.3125)"/>
     </g>
    </g>
   </g>
   <g class="axis">
    <g class="tick ytick">
     <g id="line2d_7">
      <path d="M 42.190938 276.334125 
L 136.169885 276.334125 
" clip-path="url(#pcf52a47a3c)" style="fill: none; stroke: #b0b0b0; stroke-opacity: 0.15; stroke-width: 0.8; stroke-linecap: square"/>
     </g>
     <g id="line2d_8">
      <defs>
       <path id="mf574d436bf" d="M 0 0 
L -3.5 0 
" style="stroke: var(--black); stroke-width: 0.8"/>
      </defs>
      <g>
       <use xlink:href="#mf574d436bf" x="42.190938" y="276.334125" style="stroke: var(--black); stroke-width: 0.8"/>
      </g>
     </g>
     <g id="text_5" class="text">
      <!-- 0.0 -->
      <g transform="translate(20.878125 279.753422) scale(0.09 -0.09)">
       <use xlink:href="#DejaVuSans-30"/>
       <use xlink:href="#DejaVuSans-2e" transform="translate(63.623047 0)"/>
       <use xlink:href="#DejaVuSans-30" transform="translate(95.410156 0)"/>
      </g>
     </g>
    </g>
    <g class="tick ytick">
     <g id="line2d_9">
      <path d="M 42.190938 218.989885 
L 136.169885 218.989885 
" clip-path="url(#pcf52a47a3c)" style="fill: none; stroke: #b0b0b0; stroke-opacity: 0.15; stroke-width: 0.8; stroke-linecap: square"/>
     </g>
     <g id="line2d_10">
      <g>
       <use xlink:href="#mf574d436bf" x="42.190938" y="218.989885" style="stroke: var(--black); stroke-width: 0.8"/>
      </g>
     </g>
     <g id="text_6" class="text">
      <!-- 0.5 -->
      <g transform="translate(20.878125 222.409182) scale(0.09 -0.09)">
       <use xlink:href="#DejaVuSans-30"/>
       <use xlink:href="#DejaVuSans-2e" transform="translate(63.623047 0)"/>
       <use xlink:href="#DejaVuSans-35" transform="translate(95.410156 0)"/>
      </g>
     </g>
    </g>
    <g class="tick ytick">
     <g id="line2d_11">
      <path d="M 42.190938 161.645645 
L 136.169885 161.645645 
" clip-path="url(#pcf52a47a3c)" style="fill: none; stroke: #b0b0b0; stroke-opacity: 0.15; stroke-width: 0.8; stroke-linecap: square"/>
     </g>
     <g id="line2d_12">
      <g>
       <use xlink:href="#mf574d436bf" x="42.190938" y="161.645645" style="stroke: var(--black); stroke-width: 0.8"/>
      </g>
     </g>
     <g id="text_7" class="text">
      <!-- 1.0 -->
      <g transform="translate(20.878125 165.064942) scale(0.09 -0.09)">
       <use xlink:href="#DejaVuSans-31"/>
       <use xlink:href="#DejaVuSans-2e" transform="translate(63.623047 0)"/>
       <use xlink:href="#DejaVuSans-30" transform="translate(95.410156 0)"/>
      </g>
     </g>
    </g>
    <g class="tick ytick">
     <g id="line2d_13">
      <path d="M 42.190938 104.301405 
L 136.169885 104.301405 
" clip-path="url(#pcf52a47a3c)" style="fill: none; stroke: #b0b0b0; stroke-opacity: 0.15; stroke-width: 0.8; stroke-linecap: square"/>
     </g>
     <g id="line2d_14">
      <g>
       <use xlink:href="#mf574d436bf" x="42.190938" y="104.301405" style="stroke: var(--black); stroke-width: 0.8"/>
      </g>
     </g>
     <g id="text_8" class="text">
      <!-- 1.5 -->
      <g transform="translate(20.878125 107.720702) scale(0.09 -0.09)">
       <use xlink:href="#DejaVuSans-31"/>
       <use xlink:href="#DejaVuSans-2e" transform="translate(63.623047 0)"/>
       <use xlink:href="#DejaVuSans-35" transform="translate(95.410156 0)"/>
      </g>
     </g>
    </g>
    <g class="tick ytick">
     <g id="line2d_15">
      <path d="M 42.190938 46.957166 
L 136.169885 46.957166 
" clip-path="url(#pcf52a47a3c)" style="fill: none; stroke: #b0b0b0; stroke-opacity: 0.15; stroke-width: 0.8; stroke-linecap: square"/>
     </g>
     <g id="line2d_16">
      <g>
       <use xlink:href="#mf574d436bf" x="42.190938" y="46.957166" style="stroke: var(--black); stroke-width: 0.8"/>
      </g>
     </g>
     <g id="text_9" class="text">
      <!-- 2.0 -->
      <g transform="translate(20.878125 50.376462) scale(0.09 -0.09)">
       <defs>
        <path id="DejaVuSans-32" d="M 1228 531 
L 3431 531 
L 3431 0 
L 469 0 
L 469 531 
Q 828 903 1448 1529 
Q 2069 2156 2228 2338 
Q 2531 2678 2651 2914 
Q 2772 3150 2772 3378 
Q 2772 3750 2511 3984 
Q 2250 4219 1831 4219 
Q 1534 4219 1204 4116 
Q 875 4013 500 3803 
L 500 4441 
Q 881 4594 1212 4672 
Q 1544 4750 1819 4750 
Q 2544 4750 2975 4387 
Q 3406 4025 3406 3419 
Q 3406 3131 3298 2873 
Q 3191 2616 2906 2266 
Q 2828 2175 2409 1742 
Q 1991 1309 1228 531 
z
" transform="scale(0.015625)"/>
       </defs>
       <use xlink:href="#DejaVuSans-32"/>
       <use xlink:href="#DejaVuSans-2e" transform="translate(63.623047 0)"/>
       <use xlink:href="#DejaVuSans-30" transform="translate(95.410156 0)"/>
      </g>
     </g>
    </g>
    <g id="text_10" class="text">
     <!-- Density -->
     <g transform="translate(14.798438 174.382719) rotate(-90) scale(0.1 -0.1)">
      <defs>
       <path id="DejaVuSans-44" d="M 1259 4147 
L 1259 519 
L 2022 519 
Q 2988 519 3436 956 
Q 3884 1394 3884 2338 
Q 3884 3275 3436 3711 
Q 2988 4147 2022 4147 
L 1259 4147 
z
M 628 4666 
L 1925 4666 
Q 3281 4666 3915 4102 
Q 4550 3538 4550 2338 
Q 4550 1131 3912 565 
Q 3275 0 1925 0 
L 628 0 
L 628 4666 
z
" transform="scale(0.015625)"/>
       <path id="DejaVuSans-65" d="M 3597 1894 
L 3597 1613 
L 953 1613 
Q 991 1019 1311 708 
Q 1631 397 2203 397 
Q 2534 397 2845 478 
Q 3156 559 3463 722 
L 3463 178 
Q 3153 47 2828 -22 
Q 2503 -91 2169 -91 
Q 1331 -91 842 396 
Q 353 884 353 1716 
Q 353 2575 817 3079 
Q 1281 3584 2069 3584 
Q 2775 3584 3186 3129 
Q 3597 2675 3597 1894 
z
M 3022 2063 
Q 3016 2534 2758 2815 
Q 2500 3097 2075 3097 
Q 1594 3097 1305 2825 
Q 1016 2553 972 2059 
L 3022 2063 
z
" transform="scale(0.015625)"/>
       <path id="DejaVuSans-6e" d="M 3513 2113 
L 3513 0 
L 2938 0 
L 2938 2094 
Q 2938 2591 2744 2837 
Q 2550 3084 2163 3084 
Q 1697 3084 1428 2787 
Q 1159 2491 1159 1978 
L 1159 0 
L 581 0 
L 581 3500 
L 1159 3500 
L 1159 2956 
Q 1366 3272 1645 3428 
Q 1925 3584 2291 3584 
Q 2894 3584 3203 3211 
Q 3513 2838 3513 2113 
z
" transform="scale(0.015625)"/>
       <path id="DejaVuSans-73" d="M 2834 3397 
L 2834 2853 
Q 2591 2978 2328 3040 
Q 2066 3103 1784 3103 
Q 1356 3103 1142 2972 
Q 928 2841 928 2578 
Q 928 2378 1081 2264 
Q 1234 2150 1697 2047 
L 1894 2003 
Q 2506 1872 2764 1633 
Q 3022 1394 3022 966 
Q 3022 478 2636 193 
Q 2250 -91 1575 -91 
Q 1294 -91 989 -36 
Q 684 19 347 128 
L 347 722 
Q 666 556 975 473 
Q 1284 391 1588 391 
Q 1994 391 2212 530 
Q 2431 669 2431 922 
Q 2431 1156 2273 1281 
Q 2116 1406 1581 1522 
L 1381 1569 
Q 847 1681 609 1914 
Q 372 2147 372 2553 
Q 372 3047 722 3315 
Q 1072 3584 1716 3584 
Q 2034 3584 2315 3537 
Q 2597 3491 2834 3397 
z
" transform="scale(0.015625)"/>
       <path id="DejaVuSans-69" d="M 603 3500 
L 1178 3500 
L 1178 0 
L 603 0 
L 603 3500 
z
M 603 4863 
L 1178 4863 
L 1178 4134 
L 603 4134 
L 603 4863 
z
" transform="scale(0.015625)"/>
       <path id="DejaVuSans-74" d="M 1172 4494 
L 1172 3500 
L 2356 3500 
L 2356 3053 
L 1172 3053 
L 1172 1153 
Q 1172 725 1289 603 
Q 1406 481 1766 481 
L 2356 481 
L 2356 0 
L 1766 0 
Q 1100 0 847 248 
Q 594 497 594 1153 
L 594 3053 
L 172 3053 
L 172 3500 
L 594 3500 
L 594 4494 
L 1172 4494 
z
" transform="scale(0.015625)"/>
       <path id="DejaVuSans-79" d="M 2059 -325 
Q 1816 -950 1584 -1140 
Q 1353 -1331 966 -1331 
L 506 -1331 
L 506 -850 
L 844 -850 
Q 1081 -850 1212 -737 
Q 1344 -625 1503 -206 
L 1606 56 
L 191 3500 
L 800 3500 
L 1894 763 
L 2988 3500 
L 3597 3500 
L 2059 -325 
z
" transform="scale(0.015625)"/>
      </defs>
      <use xlink:href="#DejaVuSans-44"/>
      <use xlink:href="#DejaVuSans-65" transform="translate(77.001953 0)"/>
      <use xlink:href="#DejaVuSans-6e" transform="translate(138.525391 0)"/>
      <use xlink:href="#DejaVuSans-73" transform="translate(201.904297 0)"/>
      <use xlink:href="#DejaVuSans-69" transform="translate(254.003906 0)"/>
      <use xlink:href="#DejaVuSans-74" transform="translate(281.787109 0)"/>
      <use xlink:href="#DejaVuSans-79" transform="translate(320.996094 0)"/>
     </g>
    </g>
   </g>
   <g id="line2d_17">
    <path d="M 46.462708 276.334125 
L 49.460441 276.238515 
L 51.173432 275.970823 
L 52.672299 275.517441 
L 53.957042 274.921705 
L 55.241785 274.101104 
L 56.526528 273.026666 
L 57.811271 271.672236 
L 59.096014 270.014473 
L 60.59488 267.66981 
L 62.093747 264.856702 
L 63.592614 261.552613 
L 65.091481 257.740222 
L 66.804471 252.745501 
L 68.517462 247.061505 
L 70.444576 239.842418 
L 72.371691 231.762434 
L 74.512929 221.807717 
L 76.868291 209.736864 
L 79.437777 195.352506 
L 82.435511 177.205739 
L 86.075616 153.706825 
L 96.567683 85.001194 
L 99.137169 70.197595 
L 101.064284 60.240855 
L 102.777274 52.428831 
L 104.276141 46.539846 
L 105.560884 42.293868 
L 106.631503 39.382781 
L 107.702122 37.093597 
L 108.558617 35.7435 
L 109.415113 34.849492 
L 110.057484 34.494351 
L 110.699856 34.422261 
L 111.342227 34.644879 
L 111.984599 35.174035 
L 112.62697 36.021738 
L 113.269342 37.200172 
L 114.125837 39.307273 
L 114.982332 42.054114 
L 115.838828 45.471036 
L 116.909447 50.731607 
L 117.980066 57.149056 
L 119.050685 64.786305 
L 120.335428 75.65174 
L 121.620171 88.479974 
L 122.904914 103.387478 
L 124.403781 123.566825 
L 125.902647 146.933025 
L 127.401514 173.685555 
L 129.114505 208.66922 
L 130.827495 248.657261 
L 131.898115 276.334125 
L 131.898115 276.334125 
" clip-path="url(#pcf52a47a3c)" style="fill: none; stroke: #0000ff; stroke-width: 2; stroke-linecap: square"/>
   </g>
   <g class="patch">
    <path d="M 42.190938 288.430125 
L 42.190938 22.318125 
" style="fill: none; stroke: var(--black); stroke-width: 0.8; stroke-linejoin: miter; stroke-linecap: square"/>
   </g>
   <g class="patch">
    <path d="M 42.190938 288.430125 
L 136.169885 288.430125 
" style="fill: none; stroke: var(--black); stroke-width: 0.8; stroke-linejoin: miter; stroke-linecap: square"/>
   </g>
   <g id="text_11" class="text">
    <!-- Prior Distribution -->
    <g transform="translate(38.486974 16.318125) scale(0.12 -0.12)">
     <defs>
      <path id="DejaVuSans-50" d="M 1259 4147 
L 1259 2394 
L 2053 2394 
Q 2494 2394 2734 2622 
Q 2975 2850 2975 3272 
Q 2975 3691 2734 3919 
Q 2494 4147 2053 4147 
L 1259 4147 
z
M 628 4666 
L 2053 4666 
Q 2838 4666 3239 4311 
Q 3641 3956 3641 3272 
Q 3641 2581 3239 2228 
Q 2838 1875 2053 1875 
L 1259 1875 
L 1259 0 
L 628 0 
L 628 4666 
z
" transform="scale(0.015625)"/>
      <path id="DejaVuSans-72" d="M 2631 2963 
Q 2534 3019 2420 3045 
Q 2306 3072 2169 3072 
Q 1681 3072 1420 2755 
Q 1159 2438 1159 1844 
L 1159 0 
L 581 0 
L 581 3500 
L 1159 3500 
L 1159 2956 
Q 1341 3275 1631 3429 
Q 1922 3584 2338 3584 
Q 2397 3584 2469 3576 
Q 2541 3569 2628 3553 
L 2631 2963 
z
" transform="scale(0.015625)"/>
      <path id="DejaVuSans-6f" d="M 1959 3097 
Q 1497 3097 1228 2736 
Q 959 2375 959 1747 
Q 959 1119 1226 758 
Q 1494 397 1959 397 
Q 2419 397 2687 759 
Q 2956 1122 2956 1747 
Q 2956 2369 2687 2733 
Q 2419 3097 1959 3097 
z
M 1959 3584 
Q 2709 3584 3137 3096 
Q 3566 2609 3566 1747 
Q 3566 888 3137 398 
Q 2709 -91 1959 -91 
Q 1206 -91 779 398 
Q 353 888 353 1747 
Q 353 2609 779 3096 
Q 1206 3584 1959 3584 
z
" transform="scale(0.015625)"/>
      <path id="DejaVuSans-20" transform="scale(0.015625)"/>
      <path id="DejaVuSans-62" d="M 3116 1747 
Q 3116 2381 2855 2742 
Q 2594 3103 2138 3103 
Q 1681 3103 1420 2742 
Q 1159 2381 1159 1747 
Q 1159 1113 1420 752 
Q 1681 391 2138 391 
Q 2594 391 2855 752 
Q 3116 1113 3116 1747 
z
M 1159 2969 
Q 1341 3281 1617 3432 
Q 1894 3584 2278 3584 
Q 2916 3584 3314 3078 
Q 3713 2572 3713 1747 
Q 3713 922 3314 415 
Q 2916 -91 2278 -91 
Q 1894 -91 1617 61 
Q 1341 213 1159 525 
L 1159 0 
L 581 0 
L 581 4863 
L 1159 4863 
L 1159 2969 
z
" transform="scale(0.015625)"/>
      <path id="DejaVuSans-75" d="M 544 1381 
L 544 3500 
L 1119 3500 
L 1119 1403 
Q 1119 906 1312 657 
Q 1506 409 1894 409 
Q 2359 409 2629 706 
Q 2900 1003 2900 1516 
L 2900 3500 
L 3475 3500 
L 3475 0 
L 2900 0 
L 2900 538 
Q 2691 219 2414 64 
Q 2138 -91 1772 -91 
Q 1169 -91 856 284 
Q 544 659 544 1381 
z
M 1991 3584 
L 1991 3584 
z
" transform="scale(0.015625)"/>
     </defs>
     <use xlink:href="#DejaVuSans-50"/>
     <use xlink:href="#DejaVuSans-72" transform="translate(58.552734 0)"/>
     <use xlink:href="#DejaVuSans-69" transform="translate(99.666016 0)"/>
     <use xlink:href="#DejaVuSans-6f" transform="translate(127.449219 0)"/>
     <use xlink:href="#DejaVuSans-72" transform="translate(188.630859 0)"/>
     <use xlink:href="#DejaVuSans-20" transform="translate(229.744141 0)"/>
     <use xlink:href="#DejaVuSans-44" transform="translate(261.53125 0)"/>
     <use xlink:href="#DejaVuSans-69" transform="translate(338.533203 0)"/>
     <use xlink:href="#DejaVuSans-73" transform="translate(366.316406 0)"/>
     <use xlink:href="#DejaVuSans-74" transform="translate(418.416016 0)"/>
     <use xlink:href="#DejaVuSans-72" transform="translate(457.625 0)"/>
     <use xlink:href="#DejaVuSans-69" transform="translate(498.738281 0)"/>
     <use xlink:href="#DejaVuSans-62" transform="translate(526.521484 0)"/>
     <use xlink:href="#DejaVuSans-75" transform="translate(589.998047 0)"/>
     <use xlink:href="#DejaVuSans-74" transform="translate(653.376953 0)"/>
     <use xlink:href="#DejaVuSans-69" transform="translate(692.585938 0)"/>
     <use xlink:href="#DejaVuSans-6f" transform="translate(720.369141 0)"/>
     <use xlink:href="#DejaVuSans-6e" transform="translate(781.550781 0)"/>
    </g>
   </g>
  </g>
  <g id="axes_2">
   <g class="patch">
    <path d="M 173.761464 288.430125 
L 267.740411 288.430125 
L 267.740411 22.318125 
L 173.761464 22.318125 
L 173.761464 288.430125 
z
" style="fill: none"/>
   </g>
   <g class="axis">
    <g class="tick xtick">
     <g id="line2d_18">
      <path d="M 178.033234 288.430125 
L 178.033234 22.318125 
" clip-path="url(#p6ecf647620)" style="fill: none; stroke: #b0b0b0; stroke-opacity: 0.15; stroke-width: 0.8; stroke-linecap: square"/>
     </g>
     <g id="line2d_19">
      <g>
       <use xlink:href="#ma8a86f81af" x="178.033234" y="288.430125" style="stroke: var(--black); stroke-width: 0.8"/>
      </g>
     </g>
     <g id="text_12" class="text">
      <!-- 0.0 -->
      <g transform="translate(170.876828 302.268719) scale(0.09 -0.09)">
       <use xlink:href="#DejaVuSans-30"/>
       <use xlink:href="#DejaVuSans-2e" transform="translate(63.623047 0)"/>
       <use xlink:href="#DejaVuSans-30" transform="translate(95.410156 0)"/>
      </g>
     </g>
    </g>
    <g class="tick xtick">
     <g id="line2d_20">
      <path d="M 220.750938 288.430125 
L 220.750938 22.318125 
" clip-path="url(#p6ecf647620)" style="fill: none; stroke: #b0b0b0; stroke-opacity: 0.15; stroke-width: 0.8; stroke-linecap: square"/>
     </g>
     <g id="line2d_21">
      <g>
       <use xlink:href="#ma8a86f81af" x="220.750938" y="288.430125" style="stroke: var(--black); stroke-width: 0.8"/>
      </g>
     </g>
     <g id="text_13" class="text">
      <!-- 0.5 -->
      <g transform="translate(213.594531 302.268719) scale(0.09 -0.09)">
       <use xlink:href="#DejaVuSans-30"/>
       <use xlink:href="#DejaVuSans-2e" transform="translate(63.623047 0)"/>
       <use xlink:href="#DejaVuSans-35" transform="translate(95.410156 0)"/>
      </g>
     </g>
    </g>
    <g class="tick xtick">
     <g id="line2d_22">
      <path d="M 263.468641 288.430125 
L 263.468641 22.318125 
" clip-path="url(#p6ecf647620)" style="fill: none; stroke: #b0b0b0; stroke-opacity: 0.15; stroke-width: 0.8; stroke-linecap: square"/>
     </g>
     <g id="line2d_23">
      <g>
       <use xlink:href="#ma8a86f81af" x="263.468641" y="288.430125" style="stroke: var(--black); stroke-width: 0.8"/>
      </g>
     </g>
     <g id="text_14" class="text">
      <!-- 1.0 -->
      <g transform="translate(256.312235 302.268719) scale(0.09 -0.09)">
       <use xlink:href="#DejaVuSans-31"/>
       <use xlink:href="#DejaVuSans-2e" transform="translate(63.623047 0)"/>
       <use xlink:href="#DejaVuSans-30" transform="translate(95.410156 0)"/>
      </g>
     </g>
    </g>
    <g id="text_15" class="text">
     <!-- $\mu$ -->
     <g transform="translate(217.550938 315.718562) scale(0.1 -0.1)">
      <use xlink:href="#DejaVuSans-Oblique-3bc" transform="translate(0 0.3125)"/>
     </g>
    </g>
   </g>
   <g class="axis">
    <g class="tick ytick">
     <g id="line2d_24">
      <path d="M 173.761464 276.334125 
L 267.740411 276.334125 
" clip-path="url(#p6ecf647620)" style="fill: none; stroke: #b0b0b0; stroke-opacity: 0.15; stroke-width: 0.8; stroke-linecap: square"/>
     </g>
     <g id="line2d_25">
      <g>
       <use xlink:href="#mf574d436bf" x="173.761464" y="276.334125" style="stroke: var(--black); stroke-width: 0.8"/>
      </g>
     </g>
     <g id="text_16" class="text">
      <!-- 0.00 -->
      <g transform="translate(146.722401 279.753422) scale(0.09 -0.09)">
       <use xlink:href="#DejaVuSans-30"/>
       <use xlink:href="#DejaVuSans-2e" transform="translate(63.623047 0)"/>
       <use xlink:href="#DejaVuSans-30" transform="translate(95.410156 0)"/>
       <use xlink:href="#DejaVuSans-30" transform="translate(159.033203 0)"/>
      </g>
     </g>
    </g>
    <g class="tick ytick">
     <g id="line2d_26">
      <path d="M 173.761464 217.271393 
L 267.740411 217.271393 
" clip-path="url(#p6ecf647620)" style="fill: none; stroke: #b0b0b0; stroke-opacity: 0.15; stroke-width: 0.8; stroke-linecap: square"/>
     </g>
     <g id="line2d_27">
      <g>
       <use xlink:href="#mf574d436bf" x="173.761464" y="217.271393" style="stroke: var(--black); stroke-width: 0.8"/>
      </g>
     </g>
     <g id="text_17" class="text">
      <!-- 0.02 -->
      <g transform="translate(146.722401 220.69069) scale(0.09 -0.09)">
       <use xlink:href="#DejaVuSans-30"/>
       <use xlink:href="#DejaVuSans-2e" transform="translate(63.623047 0)"/>
       <use xlink:href="#DejaVuSans-30" transform="translate(95.410156 0)"/>
       <use xlink:href="#DejaVuSans-32" transform="translate(159.033203 0)"/>
      </g>
     </g>
    </g>
    <g class="tick ytick">
     <g id="line2d_28">
      <path d="M 173.761464 158.208662 
L 267.740411 158.208662 
" clip-path="url(#p6ecf647620)" style="fill: none; stroke: #b0b0b0; stroke-opacity: 0.15; stroke-width: 0.8; stroke-linecap: square"/>
     </g>
     <g id="line2d_29">
      <g>
       <use xlink:href="#mf574d436bf" x="173.761464" y="158.208662" style="stroke: var(--black); stroke-width: 0.8"/>
      </g>
     </g>
     <g id="text_18" class="text">
      <!-- 0.04 -->
      <g transform="translate(146.722401 161.627959) scale(0.09 -0.09)">
       <defs>
        <path id="DejaVuSans-34" d="M 2419 4116 
L 825 1625 
L 2419 1625 
L 2419 4116 
z
M 2253 4666 
L 3047 4666 
L 3047 1625 
L 3713 1625 
L 3713 1100 
L 3047 1100 
L 3047 0 
L 2419 0 
L 2419 1100 
L 313 1100 
L 313 1709 
L 2253 4666 
z
" transform="scale(0.015625)"/>
       </defs>
       <use xlink:href="#DejaVuSans-30"/>
       <use xlink:href="#DejaVuSans-2e" transform="translate(63.623047 0)"/>
       <use xlink:href="#DejaVuSans-30" transform="translate(95.410156 0)"/>
       <use xlink:href="#DejaVuSans-34" transform="translate(159.033203 0)"/>
      </g>
     </g>
    </g>
    <g class="tick ytick">
     <g id="line2d_30">
      <path d="M 173.761464 99.14593 
L 267.740411 99.14593 
" clip-path="url(#p6ecf647620)" style="fill: none; stroke: #b0b0b0; stroke-opacity: 0.15; stroke-width: 0.8; stroke-linecap: square"/>
     </g>
     <g id="line2d_31">
      <g>
       <use xlink:href="#mf574d436bf" x="173.761464" y="99.14593" style="stroke: var(--black); stroke-width: 0.8"/>
      </g>
     </g>
     <g id="text_19" class="text">
      <!-- 0.06 -->
      <g transform="translate(146.722401 102.565227) scale(0.09 -0.09)">
       <defs>
        <path id="DejaVuSans-36" d="M 2113 2584 
Q 1688 2584 1439 2293 
Q 1191 2003 1191 1497 
Q 1191 994 1439 701 
Q 1688 409 2113 409 
Q 2538 409 2786 701 
Q 3034 994 3034 1497 
Q 3034 2003 2786 2293 
Q 2538 2584 2113 2584 
z
M 3366 4563 
L 3366 3988 
Q 3128 4100 2886 4159 
Q 2644 4219 2406 4219 
Q 1781 4219 1451 3797 
Q 1122 3375 1075 2522 
Q 1259 2794 1537 2939 
Q 1816 3084 2150 3084 
Q 2853 3084 3261 2657 
Q 3669 2231 3669 1497 
Q 3669 778 3244 343 
Q 2819 -91 2113 -91 
Q 1303 -91 875 529 
Q 447 1150 447 2328 
Q 447 3434 972 4092 
Q 1497 4750 2381 4750 
Q 2619 4750 2861 4703 
Q 3103 4656 3366 4563 
z
" transform="scale(0.015625)"/>
       </defs>
       <use xlink:href="#DejaVuSans-30"/>
       <use xlink:href="#DejaVuSans-2e" transform="translate(63.623047 0)"/>
       <use xlink:href="#DejaVuSans-30" transform="translate(95.410156 0)"/>
       <use xlink:href="#DejaVuSans-36" transform="translate(159.033203 0)"/>
      </g>
     </g>
    </g>
    <g class="tick ytick">
     <g id="line2d_32">
      <path d="M 173.761464 40.083199 
L 267.740411 40.083199 
" clip-path="url(#p6ecf647620)" style="fill: none; stroke: #b0b0b0; stroke-opacity: 0.15; stroke-width: 0.8; stroke-linecap: square"/>
     </g>
     <g id="line2d_33">
      <g>
       <use xlink:href="#mf574d436bf" x="173.761464" y="40.083199" style="stroke: var(--black); stroke-width: 0.8"/>
      </g>
     </g>
     <g id="text_20" class="text">
      <!-- 0.08 -->
      <g transform="translate(146.722401 43.502496) scale(0.09 -0.09)">
       <defs>
        <path id="DejaVuSans-38" d="M 2034 2216 
Q 1584 2216 1326 1975 
Q 1069 1734 1069 1313 
Q 1069 891 1326 650 
Q 1584 409 2034 409 
Q 2484 409 2743 651 
Q 3003 894 3003 1313 
Q 3003 1734 2745 1975 
Q 2488 2216 2034 2216 
z
M 1403 2484 
Q 997 2584 770 2862 
Q 544 3141 544 3541 
Q 544 4100 942 4425 
Q 1341 4750 2034 4750 
Q 2731 4750 3128 4425 
Q 3525 4100 3525 3541 
Q 3525 3141 3298 2862 
Q 3072 2584 2669 2484 
Q 3125 2378 3379 2068 
Q 3634 1759 3634 1313 
Q 3634 634 3220 271 
Q 2806 -91 2034 -91 
Q 1263 -91 848 271 
Q 434 634 434 1313 
Q 434 1759 690 2068 
Q 947 2378 1403 2484 
z
M 1172 3481 
Q 1172 3119 1398 2916 
Q 1625 2713 2034 2713 
Q 2441 2713 2670 2916 
Q 2900 3119 2900 3481 
Q 2900 3844 2670 4047 
Q 2441 4250 2034 4250 
Q 1625 4250 1398 4047 
Q 1172 3844 1172 3481 
z
" transform="scale(0.015625)"/>
       </defs>
       <use xlink:href="#DejaVuSans-30"/>
       <use xlink:href="#DejaVuSans-2e" transform="translate(63.623047 0)"/>
       <use xlink:href="#DejaVuSans-30" transform="translate(95.410156 0)"/>
       <use xlink:href="#DejaVuSans-38" transform="translate(159.033203 0)"/>
      </g>
     </g>
    </g>
    <g id="text_21" class="text">
     <!-- Likelihood -->
     <g transform="translate(140.642714 180.579594) rotate(-90) scale(0.1 -0.1)">
      <defs>
       <path id="DejaVuSans-4c" d="M 628 4666 
L 1259 4666 
L 1259 531 
L 3531 531 
L 3531 0 
L 628 0 
L 628 4666 
z
" transform="scale(0.015625)"/>
       <path id="DejaVuSans-6b" d="M 581 4863 
L 1159 4863 
L 1159 1991 
L 2875 3500 
L 3609 3500 
L 1753 1863 
L 3688 0 
L 2938 0 
L 1159 1709 
L 1159 0 
L 581 0 
L 581 4863 
z
" transform="scale(0.015625)"/>
       <path id="DejaVuSans-6c" d="M 603 4863 
L 1178 4863 
L 1178 0 
L 603 0 
L 603 4863 
z
" transform="scale(0.015625)"/>
       <path id="DejaVuSans-68" d="M 3513 2113 
L 3513 0 
L 2938 0 
L 2938 2094 
Q 2938 2591 2744 2837 
Q 2550 3084 2163 3084 
Q 1697 3084 1428 2787 
Q 1159 2491 1159 1978 
L 1159 0 
L 581 0 
L 581 4863 
L 1159 4863 
L 1159 2956 
Q 1366 3272 1645 3428 
Q 1925 3584 2291 3584 
Q 2894 3584 3203 3211 
Q 3513 2838 3513 2113 
z
" transform="scale(0.015625)"/>
       <path id="DejaVuSans-64" d="M 2906 2969 
L 2906 4863 
L 3481 4863 
L 3481 0 
L 2906 0 
L 2906 525 
Q 2725 213 2448 61 
Q 2172 -91 1784 -91 
Q 1150 -91 751 415 
Q 353 922 353 1747 
Q 353 2572 751 3078 
Q 1150 3584 1784 3584 
Q 2172 3584 2448 3432 
Q 2725 3281 2906 2969 
z
M 947 1747 
Q 947 1113 1208 752 
Q 1469 391 1925 391 
Q 2381 391 2643 752 
Q 2906 1113 2906 1747 
Q 2906 2381 2643 2742 
Q 2381 3103 1925 3103 
Q 1469 3103 1208 2742 
Q 947 2381 947 1747 
z
" transform="scale(0.015625)"/>
      </defs>
      <use xlink:href="#DejaVuSans-4c"/>
      <use xlink:href="#DejaVuSans-69" transform="translate(55.712891 0)"/>
      <use xlink:href="#DejaVuSans-6b" transform="translate(83.496094 0)"/>
      <use xlink:href="#DejaVuSans-65" transform="translate(137.78125 0)"/>
      <use xlink:href="#DejaVuSans-6c" transform="translate(199.304688 0)"/>
      <use xlink:href="#DejaVuSans-69" transform="translate(227.087891 0)"/>
      <use xlink:href="#DejaVuSans-68" transform="translate(254.871094 0)"/>
      <use xlink:href="#DejaVuSans-6f" transform="translate(318.25 0)"/>
      <use xlink:href="#DejaVuSans-6f" transform="translate(379.431641 0)"/>
      <use xlink:href="#DejaVuSans-64" transform="translate(440.613281 0)"/>
     </g>
    </g>
   </g>
   <g id="line2d_34">
    <path d="M 178.033234 276.334125 
L 184.671073 276.234879 
L 187.240559 275.978704 
L 189.381797 275.536867 
L 191.094788 274.967482 
L 192.807778 274.149739 
L 194.306645 273.187276 
L 195.805512 271.954686 
L 197.304379 270.413772 
L 198.803245 268.526608 
L 200.302112 266.256123 
L 201.800979 263.566696 
L 203.299846 260.42474 
L 204.798712 256.799294 
L 206.511703 252.028474 
L 208.224694 246.554775 
L 209.937684 240.350564 
L 211.864799 232.474547 
L 213.791913 223.638698 
L 215.933151 212.70366 
L 218.07439 200.629687 
L 220.429752 186.119723 
L 223.213362 167.514625 
L 226.639343 142.966342 
L 235.632543 77.554656 
L 237.773782 64.001312 
L 239.486772 54.430363 
L 240.985639 47.248586 
L 242.270382 42.159805 
L 243.341001 38.788922 
L 244.197496 36.729343 
L 245.053992 35.290941 
L 245.696363 34.651473 
L 246.124611 34.447111 
L 246.552859 34.428449 
L 246.981106 34.602614 
L 247.409354 34.976869 
L 248.051725 35.929642 
L 248.694097 37.374843 
L 249.336468 39.338721 
L 250.192964 42.810756 
L 251.049459 47.31879 
L 251.905954 52.931025 
L 252.976573 61.606801 
L 254.047192 72.261316 
L 255.117812 85.043509 
L 256.402555 103.409303 
L 257.687298 125.341902 
L 258.97204 151.133773 
L 260.256783 181.090655 
L 261.75565 221.731179 
L 263.254517 269.006701 
L 263.468641 276.334125 
L 263.468641 276.334125 
" clip-path="url(#p6ecf647620)" style="fill: none; stroke: #ffa500; stroke-width: 2; stroke-linecap: square"/>
   </g>
   <g class="patch">
    <path d="M 173.761464 288.430125 
L 173.761464 22.318125 
" style="fill: none; stroke: var(--black); stroke-width: 0.8; stroke-linejoin: miter; stroke-linecap: square"/>
   </g>
   <g class="patch">
    <path d="M 173.761464 288.430125 
L 267.740411 288.430125 
" style="fill: none; stroke: var(--black); stroke-width: 0.8; stroke-linejoin: miter; stroke-linecap: square"/>
   </g>
   <g id="text_22" class="text">
    <!-- Likelihood Function -->
    <g transform="translate(163.079688 16.318125) scale(0.12 -0.12)">
     <defs>
      <path id="DejaVuSans-46" d="M 628 4666 
L 3309 4666 
L 3309 4134 
L 1259 4134 
L 1259 2759 
L 3109 2759 
L 3109 2228 
L 1259 2228 
L 1259 0 
L 628 0 
L 628 4666 
z
" transform="scale(0.015625)"/>
      <path id="DejaVuSans-63" d="M 3122 3366 
L 3122 2828 
Q 2878 2963 2633 3030 
Q 2388 3097 2138 3097 
Q 1578 3097 1268 2742 
Q 959 2388 959 1747 
Q 959 1106 1268 751 
Q 1578 397 2138 397 
Q 2388 397 2633 464 
Q 2878 531 3122 666 
L 3122 134 
Q 2881 22 2623 -34 
Q 2366 -91 2075 -91 
Q 1284 -91 818 406 
Q 353 903 353 1747 
Q 353 2603 823 3093 
Q 1294 3584 2113 3584 
Q 2378 3584 2631 3529 
Q 2884 3475 3122 3366 
z
" transform="scale(0.015625)"/>
     </defs>
     <use xlink:href="#DejaVuSans-4c"/>
     <use xlink:href="#DejaVuSans-69" transform="translate(55.712891 0)"/>
     <use xlink:href="#DejaVuSans-6b" transform="translate(83.496094 0)"/>
     <use xlink:href="#DejaVuSans-65" transform="translate(137.78125 0)"/>
     <use xlink:href="#DejaVuSans-6c" transform="translate(199.304688 0)"/>
     <use xlink:href="#DejaVuSans-69" transform="translate(227.087891 0)"/>
     <use xlink:href="#DejaVuSans-68" transform="translate(254.871094 0)"/>
     <use xlink:href="#DejaVuSans-6f" transform="translate(318.25 0)"/>
     <use xlink:href="#DejaVuSans-6f" transform="translate(379.431641 0)"/>
     <use xlink:href="#DejaVuSans-64" transform="translate(440.613281 0)"/>
     <use xlink:href="#DejaVuSans-20" transform="translate(504.089844 0)"/>
     <use xlink:href="#DejaVuSans-46" transform="translate(535.876953 0)"/>
     <use xlink:href="#DejaVuSans-75" transform="translate(587.896484 0)"/>
     <use xlink:href="#DejaVuSans-6e" transform="translate(651.275391 0)"/>
     <use xlink:href="#DejaVuSans-63" transform="translate(714.654297 0)"/>
     <use xlink:href="#DejaVuSans-74" transform="translate(769.634766 0)"/>
     <use xlink:href="#DejaVuSans-69" transform="translate(808.84375 0)"/>
     <use xlink:href="#DejaVuSans-6f" transform="translate(836.626953 0)"/>
     <use xlink:href="#DejaVuSans-6e" transform="translate(897.808594 0)"/>
    </g>
   </g>
  </g>
  <g id="axes_3">
   <g class="patch">
    <path d="M 305.33199 288.430125 
L 399.310938 288.430125 
L 399.310938 22.318125 
L 305.33199 22.318125 
L 305.33199 288.430125 
z
" style="fill: none"/>
   </g>
   <g class="axis">
    <g class="tick xtick">
     <g id="line2d_35">
      <path d="M 309.60376 288.430125 
L 309.60376 22.318125 
" clip-path="url(#pb3fa1488cf)" style="fill: none; stroke: #b0b0b0; stroke-opacity: 0.15; stroke-width: 0.8; stroke-linecap: square"/>
     </g>
     <g id="line2d_36">
      <g>
       <use xlink:href="#ma8a86f81af" x="309.60376" y="288.430125" style="stroke: var(--black); stroke-width: 0.8"/>
      </g>
     </g>
     <g id="text_23" class="text">
      <!-- 0.0 -->
      <g transform="translate(302.447354 302.268719) scale(0.09 -0.09)">
       <use xlink:href="#DejaVuSans-30"/>
       <use xlink:href="#DejaVuSans-2e" transform="translate(63.623047 0)"/>
       <use xlink:href="#DejaVuSans-30" transform="translate(95.410156 0)"/>
      </g>
     </g>
    </g>
    <g class="tick xtick">
     <g id="line2d_37">
      <path d="M 352.321464 288.430125 
L 352.321464 22.318125 
" clip-path="url(#pb3fa1488cf)" style="fill: none; stroke: #b0b0b0; stroke-opacity: 0.15; stroke-width: 0.8; stroke-linecap: square"/>
     </g>
     <g id="line2d_38">
      <g>
       <use xlink:href="#ma8a86f81af" x="352.321464" y="288.430125" style="stroke: var(--black); stroke-width: 0.8"/>
      </g>
     </g>
     <g id="text_24" class="text">
      <!-- 0.5 -->
      <g transform="translate(345.165058 302.268719) scale(0.09 -0.09)">
       <use xlink:href="#DejaVuSans-30"/>
       <use xlink:href="#DejaVuSans-2e" transform="translate(63.623047 0)"/>
       <use xlink:href="#DejaVuSans-35" transform="translate(95.410156 0)"/>
      </g>
     </g>
    </g>
    <g class="tick xtick">
     <g id="line2d_39">
      <path d="M 395.039167 288.430125 
L 395.039167 22.318125 
" clip-path="url(#pb3fa1488cf)" style="fill: none; stroke: #b0b0b0; stroke-opacity: 0.15; stroke-width: 0.8; stroke-linecap: square"/>
     </g>
     <g id="line2d_40">
      <g>
       <use xlink:href="#ma8a86f81af" x="395.039167" y="288.430125" style="stroke: var(--black); stroke-width: 0.8"/>
      </g>
     </g>
     <g id="text_25" class="text">
      <!-- 1.0 -->
      <g transform="translate(387.882761 302.268719) scale(0.09 -0.09)">
       <use xlink:href="#DejaVuSans-31"/>
       <use xlink:href="#DejaVuSans-2e" transform="translate(63.623047 0)"/>
       <use xlink:href="#DejaVuSans-30" transform="translate(95.410156 0)"/>
      </g>
     </g>
    </g>
    <g id="text_26" class="text">
     <!-- $\mu$ -->
     <g transform="translate(349.121464 315.718562) scale(0.1 -0.1)">
      <use xlink:href="#DejaVuSans-Oblique-3bc" transform="translate(0 0.3125)"/>
     </g>
    </g>
   </g>
   <g class="axis">
    <g class="tick ytick">
     <g id="line2d_41">
      <path d="M 305.33199 276.334125 
L 399.310938 276.334125 
" clip-path="url(#pb3fa1488cf)" style="fill: none; stroke: #b0b0b0; stroke-opacity: 0.15; stroke-width: 0.8; stroke-linecap: square"/>
     </g>
     <g id="line2d_42">
      <g>
       <use xlink:href="#mf574d436bf" x="305.33199" y="276.334125" style="stroke: var(--black); stroke-width: 0.8"/>
      </g>
     </g>
     <g id="text_27" class="text">
      <!-- 0.0 -->
      <g transform="translate(284.019178 279.753422) scale(0.09 -0.09)">
       <use xlink:href="#DejaVuSans-30"/>
       <use xlink:href="#DejaVuSans-2e" transform="translate(63.623047 0)"/>
       <use xlink:href="#DejaVuSans-30" transform="translate(95.410156 0)"/>
      </g>
     </g>
    </g>
    <g class="tick ytick">
     <g id="line2d_43">
      <path d="M 305.33199 236.81717 
L 399.310938 236.81717 
" clip-path="url(#pb3fa1488cf)" style="fill: none; stroke: #b0b0b0; stroke-opacity: 0.15; stroke-width: 0.8; stroke-linecap: square"/>
     </g>
     <g id="line2d_44">
      <g>
       <use xlink:href="#mf574d436bf" x="305.33199" y="236.81717" style="stroke: var(--black); stroke-width: 0.8"/>
      </g>
     </g>
     <g id="text_28" class="text">
      <!-- 0.5 -->
      <g transform="translate(284.019178 240.236467) scale(0.09 -0.09)">
       <use xlink:href="#DejaVuSans-30"/>
       <use xlink:href="#DejaVuSans-2e" transform="translate(63.623047 0)"/>
       <use xlink:href="#DejaVuSans-35" transform="translate(95.410156 0)"/>
      </g>
     </g>
    </g>
    <g class="tick ytick">
     <g id="line2d_45">
      <path d="M 305.33199 197.300216 
L 399.310938 197.300216 
" clip-path="url(#pb3fa1488cf)" style="fill: none; stroke: #b0b0b0; stroke-opacity: 0.15; stroke-width: 0.8; stroke-linecap: square"/>
     </g>
     <g id="line2d_46">
      <g>
       <use xlink:href="#mf574d436bf" x="305.33199" y="197.300216" style="stroke: var(--black); stroke-width: 0.8"/>
      </g>
     </g>
     <g id="text_29" class="text">
      <!-- 1.0 -->
      <g transform="translate(284.019178 200.719513) scale(0.09 -0.09)">
       <use xlink:href="#DejaVuSans-31"/>
       <use xlink:href="#DejaVuSans-2e" transform="translate(63.623047 0)"/>
       <use xlink:href="#DejaVuSans-30" transform="translate(95.410156 0)"/>
      </g>
     </g>
    </g>
    <g class="tick ytick">
     <g id="line2d_47">
      <path d="M 305.33199 157.783261 
L 399.310938 157.783261 
" clip-path="url(#pb3fa1488cf)" style="fill: none; stroke: #b0b0b0; stroke-opacity: 0.15; stroke-width: 0.8; stroke-linecap: square"/>
     </g>
     <g id="line2d_48">
      <g>
       <use xlink:href="#mf574d436bf" x="305.33199" y="157.783261" style="stroke: var(--black); stroke-width: 0.8"/>
      </g>
     </g>
     <g id="text_30" class="text">
      <!-- 1.5 -->
      <g transform="translate(284.019178 161.202558) scale(0.09 -0.09)">
       <use xlink:href="#DejaVuSans-31"/>
       <use xlink:href="#DejaVuSans-2e" transform="translate(63.623047 0)"/>
       <use xlink:href="#DejaVuSans-35" transform="translate(95.410156 0)"/>
      </g>
     </g>
    </g>
    <g class="tick ytick">
     <g id="line2d_49">
      <path d="M 305.33199 118.266306 
L 399.310938 118.266306 
" clip-path="url(#pb3fa1488cf)" style="fill: none; stroke: #b0b0b0; stroke-opacity: 0.15; stroke-width: 0.8; stroke-linecap: square"/>
     </g>
     <g id="line2d_50">
      <g>
       <use xlink:href="#mf574d436bf" x="305.33199" y="118.266306" style="stroke: var(--black); stroke-width: 0.8"/>
      </g>
     </g>
     <g id="text_31" class="text">
      <!-- 2.0 -->
      <g transform="translate(284.019178 121.685603) scale(0.09 -0.09)">
       <use xlink:href="#DejaVuSans-32"/>
       <use xlink:href="#DejaVuSans-2e" transform="translate(63.623047 0)"/>
       <use xlink:href="#DejaVuSans-30" transform="translate(95.410156 0)"/>
      </g>
     </g>
    </g>
    <g class="tick ytick">
     <g id="line2d_51">
      <path d="M 305.33199 78.749352 
L 399.310938 78.749352 
" clip-path="url(#pb3fa1488cf)" style="fill: none; stroke: #b0b0b0; stroke-opacity: 0.15; stroke-width: 0.8; stroke-linecap: square"/>
     </g>
     <g id="line2d_52">
      <g>
       <use xlink:href="#mf574d436bf" x="305.33199" y="78.749352" style="stroke: var(--black); stroke-width: 0.8"/>
      </g>
     </g>
     <g id="text_32" class="text">
      <!-- 2.5 -->
      <g transform="translate(284.019178 82.168649) scale(0.09 -0.09)">
       <use xlink:href="#DejaVuSans-32"/>
       <use xlink:href="#DejaVuSans-2e" transform="translate(63.623047 0)"/>
       <use xlink:href="#DejaVuSans-35" transform="translate(95.410156 0)"/>
      </g>
     </g>
    </g>
    <g class="tick ytick">
     <g id="line2d_53">
      <path d="M 305.33199 39.232397 
L 399.310938 39.232397 
" clip-path="url(#pb3fa1488cf)" style="fill: none; stroke: #b0b0b0; stroke-opacity: 0.15; stroke-width: 0.8; stroke-linecap: square"/>
     </g>
     <g id="line2d_54">
      <g>
       <use xlink:href="#mf574d436bf" x="305.33199" y="39.232397" style="stroke: var(--black); stroke-width: 0.8"/>
      </g>
     </g>
     <g id="text_33" class="text">
      <!-- 3.0 -->
      <g transform="translate(284.019178 42.651694) scale(0.09 -0.09)">
       <defs>
        <path id="DejaVuSans-33" d="M 2597 2516 
Q 3050 2419 3304 2112 
Q 3559 1806 3559 1356 
Q 3559 666 3084 287 
Q 2609 -91 1734 -91 
Q 1441 -91 1130 -33 
Q 819 25 488 141 
L 488 750 
Q 750 597 1062 519 
Q 1375 441 1716 441 
Q 2309 441 2620 675 
Q 2931 909 2931 1356 
Q 2931 1769 2642 2001 
Q 2353 2234 1838 2234 
L 1294 2234 
L 1294 2753 
L 1863 2753 
Q 2328 2753 2575 2939 
Q 2822 3125 2822 3475 
Q 2822 3834 2567 4026 
Q 2313 4219 1838 4219 
Q 1578 4219 1281 4162 
Q 984 4106 628 3988 
L 628 4550 
Q 988 4650 1302 4700 
Q 1616 4750 1894 4750 
Q 2613 4750 3031 4423 
Q 3450 4097 3450 3541 
Q 3450 3153 3228 2886 
Q 3006 2619 2597 2516 
z
" transform="scale(0.015625)"/>
       </defs>
       <use xlink:href="#DejaVuSans-33"/>
       <use xlink:href="#DejaVuSans-2e" transform="translate(63.623047 0)"/>
       <use xlink:href="#DejaVuSans-30" transform="translate(95.410156 0)"/>
      </g>
     </g>
    </g>
    <g id="text_34" class="text">
     <!-- Density -->
     <g transform="translate(277.93949 174.382719) rotate(-90) scale(0.1 -0.1)">
      <use xlink:href="#DejaVuSans-44"/>
      <use xlink:href="#DejaVuSans-65" transform="translate(77.001953 0)"/>
      <use xlink:href="#DejaVuSans-6e" transform="translate(138.525391 0)"/>
      <use xlink:href="#DejaVuSans-73" transform="translate(201.904297 0)"/>
      <use xlink:href="#DejaVuSans-69" transform="translate(254.003906 0)"/>
      <use xlink:href="#DejaVuSans-74" transform="translate(281.787109 0)"/>
      <use xlink:href="#DejaVuSans-79" transform="translate(320.996094 0)"/>
     </g>
    </g>
   </g>
   <g id="line2d_55">
    <path d="M 309.60376 276.334125 
L 324.806552 276.225503 
L 327.804286 275.983251 
L 329.945524 275.617697 
L 331.872638 275.062856 
L 333.371505 274.422487 
L 334.870372 273.541925 
L 336.155115 272.549899 
L 337.439858 271.293691 
L 338.724601 269.726525 
L 340.009344 267.798319 
L 341.294087 265.456368 
L 342.57883 262.646216 
L 343.863573 259.312713 
L 345.148316 255.401275 
L 346.647182 250.037531 
L 348.146049 243.738773 
L 349.644916 236.438721 
L 351.143783 228.086078 
L 352.856773 217.21174 
L 354.569764 204.914334 
L 356.496878 189.435337 
L 358.638117 170.382866 
L 361.207603 145.478205 
L 368.487813 73.317254 
L 370.200803 59.173576 
L 371.485546 50.166638 
L 372.556165 43.969606 
L 373.412661 40.005407 
L 374.269156 37.029015 
L 374.911527 35.501962 
L 375.339775 34.841325 
L 375.768023 34.479566 
L 376.19627 34.427384 
L 376.624518 34.695048 
L 377.052766 35.29233 
L 377.481013 36.228439 
L 378.123385 38.286455 
L 378.765756 41.151765 
L 379.622252 46.264563 
L 380.478747 52.887559 
L 381.549366 63.316301 
L 382.619985 76.119156 
L 383.904728 94.501037 
L 385.403595 119.728353 
L 387.116586 152.533355 
L 391.82731 245.583001 
L 392.897929 261.371523 
L 393.754424 270.547701 
L 394.396796 274.808427 
L 394.825043 276.158518 
L 395.039167 276.334125 
L 395.039167 276.334125 
" clip-path="url(#pb3fa1488cf)" style="fill: none; stroke: #008000; stroke-width: 2; stroke-linecap: square"/>
   </g>
   <g class="patch">
    <path d="M 305.33199 288.430125 
L 305.33199 22.318125 
" style="fill: none; stroke: var(--black); stroke-width: 0.8; stroke-linejoin: miter; stroke-linecap: square"/>
   </g>
   <g class="patch">
    <path d="M 305.33199 288.430125 
L 399.310938 288.430125 
" style="fill: none; stroke: var(--black); stroke-width: 0.8; stroke-linejoin: miter; stroke-linecap: square"/>
   </g>
   <g id="text_35" class="text">
    <!-- Posterior Distribution -->
    <g transform="translate(288.899589 16.318125) scale(0.12 -0.12)">
     <use xlink:href="#DejaVuSans-50"/>
     <use xlink:href="#DejaVuSans-6f" transform="translate(56.677734 0)"/>
     <use xlink:href="#DejaVuSans-73" transform="translate(117.859375 0)"/>
     <use xlink:href="#DejaVuSans-74" transform="translate(169.958984 0)"/>
     <use xlink:href="#DejaVuSans-65" transform="translate(209.167969 0)"/>
     <use xlink:href="#DejaVuSans-72" transform="translate(270.691406 0)"/>
     <use xlink:href="#DejaVuSans-69" transform="translate(311.804688 0)"/>
     <use xlink:href="#DejaVuSans-6f" transform="translate(339.587891 0)"/>
     <use xlink:href="#DejaVuSans-72" transform="translate(400.769531 0)"/>
     <use xlink:href="#DejaVuSans-20" transform="translate(441.882812 0)"/>
     <use xlink:href="#DejaVuSans-44" transform="translate(473.669922 0)"/>
     <use xlink:href="#DejaVuSans-69" transform="translate(550.671875 0)"/>
     <use xlink:href="#DejaVuSans-73" transform="translate(578.455078 0)"/>
     <use xlink:href="#DejaVuSans-74" transform="translate(630.554688 0)"/>
     <use xlink:href="#DejaVuSans-72" transform="translate(669.763672 0)"/>
     <use xlink:href="#DejaVuSans-69" transform="translate(710.876953 0)"/>
     <use xlink:href="#DejaVuSans-62" transform="translate(738.660156 0)"/>
     <use xlink:href="#DejaVuSans-75" transform="translate(802.136719 0)"/>
     <use xlink:href="#DejaVuSans-74" transform="translate(865.515625 0)"/>
     <use xlink:href="#DejaVuSans-69" transform="translate(904.724609 0)"/>
     <use xlink:href="#DejaVuSans-6f" transform="translate(932.507812 0)"/>
     <use xlink:href="#DejaVuSans-6e" transform="translate(993.689453 0)"/>
    </g>
   </g>
  </g>
 </g>
 <defs>
  <clipPath id="pcf52a47a3c">
   <rect x="42.190938" y="22.318125" width="93.978947" height="266.112"/>
  </clipPath>
  <clipPath id="p6ecf647620">
   <rect x="173.761464" y="22.318125" width="93.978947" height="266.112"/>
  </clipPath>
  <clipPath id="pb3fa1488cf">
   <rect x="305.33199" y="22.318125" width="93.978947" height="266.112"/>
  </clipPath>
 </defs>
</svg>
