<svg xmlns="http://www.w3.org/2000/svg" xmlns:xlink="http://www.w3.org/1999/xlink" width="563.924" height="433.358" style="--axis-color:#000;--grid-stroke:rgba(0,0,0,0.2);--plot3d-stroke:rgba(0,0,0,0.3);--plot3d-grid:rgba(0,0,0,0.2);--black:#000000;--c1:#FF0001;--c2:#00FF02;--c3:#0000FF;--c4:#FF00FF;--c5:#00FFFF;--c6:#FFFF00;--c7:#FF8000;--c8:#8000FF;--gray:#7f7f7f;--grey:#7f7f7f;--octonary:#bcbd22;--primary:#d62728;--quaternary:#9467bd;--quinary:#8c564b;--secondary:#2ca02c;--senary:#e377c2;--septenary:#7f7f7f;--tertiary:#1f77b4;--white:#ffffff" viewBox="0 0 422.943 325.019"><style><![CDATA[@media (prefers-color-scheme:dark){:root{--axis-color:#fff;--grid-stroke:rgba(255,255,255,0.2);--plot3d-stroke:rgba(255,255,255,0.3);--plot3d-grid:rgba(255,255,255,0.2);--black:#FFFFFF;--c1:#FF0001;--c2:#00FF02;--c3:#0000FF;--c4:#FF00FF;--c5:#00FFFF;--c6:#FFFF00;--c7:#FF8000;--c8:#8000FF;--gray:#CCCCCC;--grey:#CCCCCC;--octonary:#E6DB74;--primary:#FF4A98;--quaternary:#B4A0FF;--quinary:#FFB86B;--secondary:#0AFAFA;--senary:#FF79C6;--septenary:#CCCCCC;--tertiary:#7F83FF;--white:#000000}}.text{fill:var(--axis-color)!important;stroke:none!important}.axis path,.patch path[style*="stroke: currentColor"],.tick path{stroke:var(--axis-color)!important}*{stroke-linejoin:round;stroke-linecap:butt}]]></style><g id="figure_1"><path d="M0 325.019h422.943V0H0z" class="patch" style="fill:none"/><g id="axes_1"><path d="M42.19 288.43h93.98V22.318H42.19z" class="patch" style="fill:none"/><g class="axis"><g class="tick xtick"><path id="line2d_1" d="M46.463 288.43V22.318" clip-path="url(#pcf52a47a3c)" style="fill:none;stroke:#b0b0b0;stroke-opacity:.15;stroke-width:.8;stroke-linecap:square"/><g id="line2d_2"><defs><path id="ma8a86f81af" d="M0 0v3.5" style="stroke:var(--black);stroke-width:.8"/></defs><use xlink:href="#ma8a86f81af" x="46.463" y="288.43" style="stroke:var(--black);stroke-width:.8"/></g><g id="text_1" class="text" transform="matrix(.09 0 0 -.09 39.306 302.269)"><defs><path id="DejaVuSans-30" d="M2034 4250q-487 0-733-480-245-479-245-1442 0-959 245-1439 246-480 733-480 491 0 736 480 246 480 246 1439 0 963-246 1442-245 480-736 480zm0 500q785 0 1199-621 414-620 414-1801 0-1178-414-1799Q2819-91 2034-91q-784 0-1198 620-414 621-414 1799 0 1181 414 1801 414 621 1198 621z" transform="scale(.01563)"/><path id="DejaVuSans-2e" d="M684 794h660V0H684z" transform="scale(.01563)"/></defs><use xlink:href="#DejaVuSans-30"/><use xlink:href="#DejaVuSans-2e" transform="translate(63.623)"/><use xlink:href="#DejaVuSans-30" transform="translate(95.41)"/></g></g><g class="tick xtick"><path id="line2d_3" d="M89.18 288.43V22.318" clip-path="url(#pcf52a47a3c)" style="fill:none;stroke:#b0b0b0;stroke-opacity:.15;stroke-width:.8;stroke-linecap:square"/><use xlink:href="#ma8a86f81af" id="line2d_4" x="89.18" y="288.43" style="stroke:var(--black);stroke-width:.8"/><g id="text_2" class="text" transform="matrix(.09 0 0 -.09 82.024 302.269)"><defs><path id="DejaVuSans-35" d="M691 4666h2478v-532H1269V2991q137 47 274 70 138 23 276 23 781 0 1237-428 457-428 457-1159 0-753-469-1171Q2575-91 1722-91q-294 0-599 50Q819 9 494 109v635q281-153 581-228t634-75q541 0 856 284 316 284 316 772 0 487-316 771-315 285-856 285-253 0-505-56-251-56-513-175z" transform="scale(.01563)"/></defs><use xlink:href="#DejaVuSans-30"/><use xlink:href="#DejaVuSans-2e" transform="translate(63.623)"/><use xlink:href="#DejaVuSans-35" transform="translate(95.41)"/></g></g><g class="tick xtick"><path id="line2d_5" d="M131.898 288.43V22.318" clip-path="url(#pcf52a47a3c)" style="fill:none;stroke:#b0b0b0;stroke-opacity:.15;stroke-width:.8;stroke-linecap:square"/><use xlink:href="#ma8a86f81af" id="line2d_6" x="131.898" y="288.43" style="stroke:var(--black);stroke-width:.8"/><g id="text_3" class="text" transform="matrix(.09 0 0 -.09 124.742 302.269)"><defs><path id="DejaVuSans-31" d="M794 531h1031v3560L703 3866v575l1116 225h631V531h1031V0H794z" transform="scale(.01563)"/></defs><use xlink:href="#DejaVuSans-31"/><use xlink:href="#DejaVuSans-2e" transform="translate(63.623)"/><use xlink:href="#DejaVuSans-30" transform="translate(95.41)"/></g></g><g id="text_4" class="text" transform="matrix(.1 0 0 -.1 85.98 315.719)"><defs><path id="DejaVuSans-Oblique-3bc" d="m-84-1331 940 4831h578l-425-2178q-12-66-22-147-9-81-9-162 0-291 183-448 183-156 523-156 463 0 747 262 285 263 385 788l397 2041h575L3266 809q-13-59-18-103-4-43-4-78 0-97 39-142t123-45q32 0 86 15 55 16 155 57l-88-463q-137-69-262-105t-244-36q-206 0-323 131-117 132-117 363-175-250-418-372-242-122-570-122-291 0-508 134-217 135-286 354L494-1331z" transform="scale(.01563)"/></defs><use xlink:href="#DejaVuSans-Oblique-3bc" transform="translate(0 .313)"/></g></g><g class="axis"><g class="tick ytick"><path id="line2d_7" d="M42.19 276.334h93.98" clip-path="url(#pcf52a47a3c)" style="fill:none;stroke:#b0b0b0;stroke-opacity:.15;stroke-width:.8;stroke-linecap:square"/><g id="line2d_8"><defs><path id="mf574d436bf" d="M0 0h-3.5" style="stroke:var(--black);stroke-width:.8"/></defs><use xlink:href="#mf574d436bf" x="42.191" y="276.334" style="stroke:var(--black);stroke-width:.8"/></g><g id="text_5" class="text" transform="matrix(.09 0 0 -.09 20.878 279.753)"><use xlink:href="#DejaVuSans-30"/><use xlink:href="#DejaVuSans-2e" transform="translate(63.623)"/><use xlink:href="#DejaVuSans-30" transform="translate(95.41)"/></g></g><g class="tick ytick"><path id="line2d_9" d="M42.19 218.99h93.98" clip-path="url(#pcf52a47a3c)" style="fill:none;stroke:#b0b0b0;stroke-opacity:.15;stroke-width:.8;stroke-linecap:square"/><use xlink:href="#mf574d436bf" id="line2d_10" x="42.191" y="218.99" style="stroke:var(--black);stroke-width:.8"/><g id="text_6" class="text" transform="matrix(.09 0 0 -.09 20.878 222.41)"><use xlink:href="#DejaVuSans-30"/><use xlink:href="#DejaVuSans-2e" transform="translate(63.623)"/><use xlink:href="#DejaVuSans-35" transform="translate(95.41)"/></g></g><g class="tick ytick"><path id="line2d_11" d="M42.19 161.646h93.98" clip-path="url(#pcf52a47a3c)" style="fill:none;stroke:#b0b0b0;stroke-opacity:.15;stroke-width:.8;stroke-linecap:square"/><use xlink:href="#mf574d436bf" id="line2d_12" x="42.191" y="161.646" style="stroke:var(--black);stroke-width:.8"/><g id="text_7" class="text" transform="matrix(.09 0 0 -.09 20.878 165.065)"><use xlink:href="#DejaVuSans-31"/><use xlink:href="#DejaVuSans-2e" transform="translate(63.623)"/><use xlink:href="#DejaVuSans-30" transform="translate(95.41)"/></g></g><g class="tick ytick"><path id="line2d_13" d="M42.19 104.301h93.98" clip-path="url(#pcf52a47a3c)" style="fill:none;stroke:#b0b0b0;stroke-opacity:.15;stroke-width:.8;stroke-linecap:square"/><use xlink:href="#mf574d436bf" id="line2d_14" x="42.191" y="104.301" style="stroke:var(--black);stroke-width:.8"/><g id="text_8" class="text" transform="matrix(.09 0 0 -.09 20.878 107.72)"><use xlink:href="#DejaVuSans-31"/><use xlink:href="#DejaVuSans-2e" transform="translate(63.623)"/><use xlink:href="#DejaVuSans-35" transform="translate(95.41)"/></g></g><g class="tick ytick"><path id="line2d_15" d="M42.19 46.957h93.98" clip-path="url(#pcf52a47a3c)" style="fill:none;stroke:#b0b0b0;stroke-opacity:.15;stroke-width:.8;stroke-linecap:square"/><use xlink:href="#mf574d436bf" id="line2d_16" x="42.191" y="46.957" style="stroke:var(--black);stroke-width:.8"/><g id="text_9" class="text" transform="matrix(.09 0 0 -.09 20.878 50.376)"><defs><path id="DejaVuSans-32" d="M1228 531h2203V0H469v531q359 372 979 998 621 627 780 809 303 340 423 576 121 236 121 464 0 372-261 606-261 235-680 235-297 0-627-103-329-103-704-313v638q381 153 712 231 332 78 607 78 725 0 1156-363 431-362 431-968 0-288-108-546-107-257-392-607-78-91-497-524-418-433-1181-1211z" transform="scale(.01563)"/></defs><use xlink:href="#DejaVuSans-32"/><use xlink:href="#DejaVuSans-2e" transform="translate(63.623)"/><use xlink:href="#DejaVuSans-30" transform="translate(95.41)"/></g></g><g id="text_10" class="text" transform="matrix(0 -.1 -.1 0 14.798 174.383)"><defs><path id="DejaVuSans-44" d="M1259 4147V519h763q966 0 1414 437 448 438 448 1382 0 937-448 1373t-1414 436zm-631 519h1297q1356 0 1990-564 635-564 635-1764 0-1207-638-1773Q3275 0 1925 0H628z" transform="scale(.01563)"/><path id="DejaVuSans-65" d="M3597 1894v-281H953q38-594 358-905t892-311q331 0 642 81t618 244V178Q3153 47 2828-22t-659-69q-838 0-1327 487-489 488-489 1320 0 859 464 1363 464 505 1252 505 706 0 1117-455 411-454 411-1235zm-575 169q-6 471-264 752-258 282-683 282-481 0-770-272t-333-766z" transform="scale(.01563)"/><path id="DejaVuSans-6e" d="M3513 2113V0h-575v2094q0 497-194 743-194 247-581 247-466 0-735-297-269-296-269-809V0H581v3500h578v-544q207 316 486 472 280 156 646 156 603 0 912-373 310-373 310-1098z" transform="scale(.01563)"/><path id="DejaVuSans-73" d="M2834 3397v-544q-243 125-506 187-262 63-544 63-428 0-642-131t-214-394q0-200 153-314t616-217l197-44q612-131 870-370t258-667q0-488-386-773Q2250-91 1575-91q-281 0-586 55T347 128v594q319-166 628-249 309-82 613-82 406 0 624 139 219 139 219 392 0 234-158 359-157 125-692 241l-200 47q-534 112-772 345-237 233-237 639 0 494 350 762 350 269 994 269 318 0 599-47 282-46 519-140z" transform="scale(.01563)"/><path id="DejaVuSans-69" d="M603 3500h575V0H603zm0 1363h575v-729H603z" transform="scale(.01563)"/><path id="DejaVuSans-74" d="M1172 4494v-994h1184v-447H1172V1153q0-428 117-550t477-122h590V0h-590q-666 0-919 248-253 249-253 905v1900H172v447h422v994z" transform="scale(.01563)"/><path id="DejaVuSans-79" d="M2059-325q-243-625-475-815-231-191-618-191H506v481h338q237 0 368 113 132 112 291 531l103 262L191 3500h609L1894 763l1094 2737h609z" transform="scale(.01563)"/></defs><use xlink:href="#DejaVuSans-44"/><use xlink:href="#DejaVuSans-65" transform="translate(77.002)"/><use xlink:href="#DejaVuSans-6e" transform="translate(138.525)"/><use xlink:href="#DejaVuSans-73" transform="translate(201.904)"/><use xlink:href="#DejaVuSans-69" transform="translate(254.004)"/><use xlink:href="#DejaVuSans-74" transform="translate(281.787)"/><use xlink:href="#DejaVuSans-79" transform="translate(320.996)"/></g></g><path id="line2d_17" d="m46.463 276.334 2.997-.095 1.713-.268 1.5-.454 1.284-.595 1.285-.82 1.285-1.075 1.284-1.355 1.285-1.658 1.499-2.344 1.499-2.813 1.499-3.304 1.498-3.813 1.713-4.994 1.713-5.684 1.928-7.22 1.927-8.08 2.14-9.954 2.356-12.071 2.57-14.384 2.998-18.147 3.64-23.5 10.492-68.705 2.57-14.803 1.926-9.957 1.713-7.812 1.5-5.89 1.284-4.245 1.07-2.911 1.071-2.29.857-1.35.856-.894.642-.355.643-.072.642.223.643.529.642.848.642 1.178.857 2.107.856 2.747.857 3.417 1.07 5.26 1.071 6.418 1.07 7.637 1.285 10.866 1.285 12.828 1.285 14.907 1.499 20.18 1.499 23.366 1.499 26.753 1.713 34.983 1.712 39.988 1.071 27.677h0" clip-path="url(#pcf52a47a3c)" style="fill:none;stroke:#00f;stroke-width:2;stroke-linecap:square"/><path d="M42.19 288.43V22.318M42.19 288.43h93.98" class="patch" style="fill:none;stroke:var(--black);stroke-width:.8;stroke-linejoin:miter;stroke-linecap:square"/><g id="text_11" class="text" transform="matrix(.12 0 0 -.12 38.487 16.318)"><defs><path id="DejaVuSans-50" d="M1259 4147V2394h794q441 0 681 228 241 228 241 650 0 419-241 647-240 228-681 228zm-631 519h1425q785 0 1186-355 402-355 402-1039 0-691-402-1044-401-353-1186-353h-794V0H628z" transform="scale(.01563)"/><path id="DejaVuSans-72" d="M2631 2963q-97 56-211 82-114 27-251 27-488 0-749-317t-261-911V0H581v3500h578v-544q182 319 472 473 291 155 707 155 59 0 131-8 72-7 159-23z" transform="scale(.01563)"/><path id="DejaVuSans-6f" d="M1959 3097q-462 0-731-361t-269-989 267-989q268-361 733-361 460 0 728 362 269 363 269 988 0 622-269 986-268 364-728 364m0 487q750 0 1178-488 429-487 429-1349 0-859-429-1349Q2709-91 1959-91q-753 0-1180 489-426 490-426 1349 0 862 426 1349 427 488 1180 488" transform="scale(.01563)"/><path id="DejaVuSans-62" d="M3116 1747q0 634-261 995t-717 361q-457 0-718-361t-261-995 261-995 718-361q456 0 717 361t261 995M1159 2969q182 312 458 463 277 152 661 152 638 0 1036-506 399-506 399-1331T3314 415Q2916-91 2278-91q-384 0-661 152-276 152-458 464V0H581v4863h578z" transform="scale(.01563)"/><path id="DejaVuSans-75" d="M544 1381v2119h575V1403q0-497 193-746 194-248 582-248 465 0 735 297 271 297 271 810v1984h575V0h-575v538q-209-319-486-474-276-155-642-155-603 0-916 375-312 375-312 1097m1447 2203" transform="scale(.01563)"/></defs><use xlink:href="#DejaVuSans-50"/><use xlink:href="#DejaVuSans-72" transform="translate(58.553)"/><use xlink:href="#DejaVuSans-69" transform="translate(99.666)"/><use xlink:href="#DejaVuSans-6f" transform="translate(127.45)"/><use xlink:href="#DejaVuSans-72" transform="translate(188.63)"/><use xlink:href="#DejaVuSans-44" transform="translate(261.531)"/><use xlink:href="#DejaVuSans-69" transform="translate(338.533)"/><use xlink:href="#DejaVuSans-73" transform="translate(366.316)"/><use xlink:href="#DejaVuSans-74" transform="translate(418.416)"/><use xlink:href="#DejaVuSans-72" transform="translate(457.625)"/><use xlink:href="#DejaVuSans-69" transform="translate(498.738)"/><use xlink:href="#DejaVuSans-62" transform="translate(526.521)"/><use xlink:href="#DejaVuSans-75" transform="translate(589.998)"/><use xlink:href="#DejaVuSans-74" transform="translate(653.377)"/><use xlink:href="#DejaVuSans-69" transform="translate(692.586)"/><use xlink:href="#DejaVuSans-6f" transform="translate(720.37)"/><use xlink:href="#DejaVuSans-6e" transform="translate(781.55)"/></g></g><g id="axes_2"><path d="M173.761 288.43h93.98V22.318h-93.98z" class="patch" style="fill:none"/><g class="axis"><g class="tick xtick"><path id="line2d_18" d="M178.033 288.43V22.318" clip-path="url(#p6ecf647620)" style="fill:none;stroke:#b0b0b0;stroke-opacity:.15;stroke-width:.8;stroke-linecap:square"/><use xlink:href="#ma8a86f81af" id="line2d_19" x="178.033" y="288.43" style="stroke:var(--black);stroke-width:.8"/><g id="text_12" class="text" transform="matrix(.09 0 0 -.09 170.877 302.269)"><use xlink:href="#DejaVuSans-30"/><use xlink:href="#DejaVuSans-2e" transform="translate(63.623)"/><use xlink:href="#DejaVuSans-30" transform="translate(95.41)"/></g></g><g class="tick xtick"><path id="line2d_20" d="M220.75 288.43V22.318" clip-path="url(#p6ecf647620)" style="fill:none;stroke:#b0b0b0;stroke-opacity:.15;stroke-width:.8;stroke-linecap:square"/><use xlink:href="#ma8a86f81af" id="line2d_21" x="220.751" y="288.43" style="stroke:var(--black);stroke-width:.8"/><g id="text_13" class="text" transform="matrix(.09 0 0 -.09 213.595 302.269)"><use xlink:href="#DejaVuSans-30"/><use xlink:href="#DejaVuSans-2e" transform="translate(63.623)"/><use xlink:href="#DejaVuSans-35" transform="translate(95.41)"/></g></g><g class="tick xtick"><path id="line2d_22" d="M263.469 288.43V22.318" clip-path="url(#p6ecf647620)" style="fill:none;stroke:#b0b0b0;stroke-opacity:.15;stroke-width:.8;stroke-linecap:square"/><use xlink:href="#ma8a86f81af" id="line2d_23" x="263.469" y="288.43" style="stroke:var(--black);stroke-width:.8"/><g id="text_14" class="text" transform="matrix(.09 0 0 -.09 256.312 302.269)"><use xlink:href="#DejaVuSans-31"/><use xlink:href="#DejaVuSans-2e" transform="translate(63.623)"/><use xlink:href="#DejaVuSans-30" transform="translate(95.41)"/></g></g><use xlink:href="#DejaVuSans-Oblique-3bc" id="text_15" class="text" transform="matrix(.1 0 0 -.1 217.55 315.687)"/></g><g class="axis"><g class="tick ytick"><path id="line2d_24" d="M173.761 276.334h93.98" clip-path="url(#p6ecf647620)" style="fill:none;stroke:#b0b0b0;stroke-opacity:.15;stroke-width:.8;stroke-linecap:square"/><use xlink:href="#mf574d436bf" id="line2d_25" x="173.761" y="276.334" style="stroke:var(--black);stroke-width:.8"/><g id="text_16" class="text" transform="matrix(.09 0 0 -.09 146.722 279.753)"><use xlink:href="#DejaVuSans-30"/><use xlink:href="#DejaVuSans-2e" transform="translate(63.623)"/><use xlink:href="#DejaVuSans-30" transform="translate(95.41)"/><use xlink:href="#DejaVuSans-30" transform="translate(159.033)"/></g></g><g class="tick ytick"><path id="line2d_26" d="M173.761 217.271h93.98" clip-path="url(#p6ecf647620)" style="fill:none;stroke:#b0b0b0;stroke-opacity:.15;stroke-width:.8;stroke-linecap:square"/><use xlink:href="#mf574d436bf" id="line2d_27" x="173.761" y="217.271" style="stroke:var(--black);stroke-width:.8"/><g id="text_17" class="text" transform="matrix(.09 0 0 -.09 146.722 220.69)"><use xlink:href="#DejaVuSans-30"/><use xlink:href="#DejaVuSans-2e" transform="translate(63.623)"/><use xlink:href="#DejaVuSans-30" transform="translate(95.41)"/><use xlink:href="#DejaVuSans-32" transform="translate(159.033)"/></g></g><g class="tick ytick"><path id="line2d_28" d="M173.761 158.209h93.98" clip-path="url(#p6ecf647620)" style="fill:none;stroke:#b0b0b0;stroke-opacity:.15;stroke-width:.8;stroke-linecap:square"/><use xlink:href="#mf574d436bf" id="line2d_29" x="173.761" y="158.209" style="stroke:var(--black);stroke-width:.8"/><g id="text_18" class="text" transform="matrix(.09 0 0 -.09 146.722 161.628)"><defs><path id="DejaVuSans-34" d="M2419 4116 825 1625h1594zm-166 550h794V1625h666v-525h-666V0h-628v1100H313v609z" transform="scale(.01563)"/></defs><use xlink:href="#DejaVuSans-30"/><use xlink:href="#DejaVuSans-2e" transform="translate(63.623)"/><use xlink:href="#DejaVuSans-30" transform="translate(95.41)"/><use xlink:href="#DejaVuSans-34" transform="translate(159.033)"/></g></g><g class="tick ytick"><path id="line2d_30" d="M173.761 99.146h93.98" clip-path="url(#p6ecf647620)" style="fill:none;stroke:#b0b0b0;stroke-opacity:.15;stroke-width:.8;stroke-linecap:square"/><use xlink:href="#mf574d436bf" id="line2d_31" x="173.761" y="99.146" style="stroke:var(--black);stroke-width:.8"/><g id="text_19" class="text" transform="matrix(.09 0 0 -.09 146.722 102.565)"><defs><path id="DejaVuSans-36" d="M2113 2584q-425 0-674-291-248-290-248-796 0-503 248-796 249-292 674-292t673 292q248 293 248 796 0 506-248 796-248 291-673 291zm1253 1979v-575q-238 112-480 171-242 60-480 60-625 0-955-422-329-422-376-1275 184 272 462 417 279 145 613 145 703 0 1111-427 408-426 408-1160 0-719-425-1154Q2819-91 2113-91q-810 0-1238 620-428 621-428 1799 0 1106 525 1764t1409 658q238 0 480-47t505-140z" transform="scale(.01563)"/></defs><use xlink:href="#DejaVuSans-30"/><use xlink:href="#DejaVuSans-2e" transform="translate(63.623)"/><use xlink:href="#DejaVuSans-30" transform="translate(95.41)"/><use xlink:href="#DejaVuSans-36" transform="translate(159.033)"/></g></g><g class="tick ytick"><path id="line2d_32" d="M173.761 40.083h93.98" clip-path="url(#p6ecf647620)" style="fill:none;stroke:#b0b0b0;stroke-opacity:.15;stroke-width:.8;stroke-linecap:square"/><use xlink:href="#mf574d436bf" id="line2d_33" x="173.761" y="40.083" style="stroke:var(--black);stroke-width:.8"/><g id="text_20" class="text" transform="matrix(.09 0 0 -.09 146.722 43.502)"><defs><path id="DejaVuSans-38" d="M2034 2216q-450 0-708-241-257-241-257-662 0-422 257-663 258-241 708-241t709 242q260 243 260 662 0 421-258 662-257 241-711 241zm-631 268q-406 100-633 378-226 279-226 679 0 559 398 884 399 325 1092 325 697 0 1094-325t397-884q0-400-227-679-226-278-629-378 456-106 710-416 255-309 255-755 0-679-414-1042Q2806-91 2034-91q-771 0-1186 362-414 363-414 1042 0 446 256 755 257 310 713 416zm-231 997q0-362 226-565 227-203 636-203 407 0 636 203 230 203 230 565 0 363-230 566-229 203-636 203-409 0-636-203-226-203-226-566z" transform="scale(.01563)"/></defs><use xlink:href="#DejaVuSans-30"/><use xlink:href="#DejaVuSans-2e" transform="translate(63.623)"/><use xlink:href="#DejaVuSans-30" transform="translate(95.41)"/><use xlink:href="#DejaVuSans-38" transform="translate(159.033)"/></g></g><g id="text_21" class="text" transform="matrix(0 -.1 -.1 0 140.643 180.58)"><defs><path id="DejaVuSans-4c" d="M628 4666h631V531h2272V0H628z" transform="scale(.01563)"/><path id="DejaVuSans-6b" d="M581 4863h578V1991l1716 1509h734L1753 1863 3688 0h-750L1159 1709V0H581z" transform="scale(.01563)"/><path id="DejaVuSans-6c" d="M603 4863h575V0H603z" transform="scale(.01563)"/><path id="DejaVuSans-68" d="M3513 2113V0h-575v2094q0 497-194 743-194 247-581 247-466 0-735-297-269-296-269-809V0H581v4863h578V2956q207 316 486 472 280 156 646 156 603 0 912-373 310-373 310-1098z" transform="scale(.01563)"/><path id="DejaVuSans-64" d="M2906 2969v1894h575V0h-575v525q-181-312-458-464-276-152-664-152-634 0-1033 506-398 507-398 1332t398 1331q399 506 1033 506 388 0 664-152 277-151 458-463zM947 1747q0-634 261-995t717-361 718 361q263 361 263 995t-263 995q-262 361-718 361t-717-361-261-995z" transform="scale(.01563)"/></defs><use xlink:href="#DejaVuSans-4c"/><use xlink:href="#DejaVuSans-69" transform="translate(55.713)"/><use xlink:href="#DejaVuSans-6b" transform="translate(83.496)"/><use xlink:href="#DejaVuSans-65" transform="translate(137.781)"/><use xlink:href="#DejaVuSans-6c" transform="translate(199.305)"/><use xlink:href="#DejaVuSans-69" transform="translate(227.088)"/><use xlink:href="#DejaVuSans-68" transform="translate(254.871)"/><use xlink:href="#DejaVuSans-6f" transform="translate(318.25)"/><use xlink:href="#DejaVuSans-6f" transform="translate(379.432)"/><use xlink:href="#DejaVuSans-64" transform="translate(440.613)"/></g></g><path id="line2d_34" d="m178.033 276.334 6.638-.1 2.57-.255 2.14-.442 1.714-.57 1.713-.817 1.499-.963 1.499-1.232 1.498-1.541 1.5-1.887 1.498-2.27 1.499-2.69 1.499-3.142 1.499-3.626 1.713-4.77 1.713-5.474 1.713-6.204 1.927-7.876 1.927-8.836 2.141-10.935 2.141-12.074 2.356-14.51 2.783-18.605 3.426-24.549 8.994-65.411L237.773 64l1.714-9.57 1.499-7.182 1.284-5.09 1.071-3.37.856-2.06.857-1.438.642-.64.429-.204.428-.019.428.175.428.374.643.953.642 1.445.642 1.964.857 3.472.856 4.508.857 5.612 1.07 8.676 1.071 10.654 1.07 12.783 1.286 18.365 1.284 21.933 1.285 25.792 1.285 29.957 1.499 40.64 1.499 47.276.214 7.327h0" clip-path="url(#p6ecf647620)" style="fill:none;stroke:orange;stroke-width:2;stroke-linecap:square"/><path d="M173.761 288.43V22.318M173.761 288.43h93.98" class="patch" style="fill:none;stroke:var(--black);stroke-width:.8;stroke-linejoin:miter;stroke-linecap:square"/><g id="text_22" class="text" transform="matrix(.12 0 0 -.12 163.08 16.318)"><defs><path id="DejaVuSans-46" d="M628 4666h2681v-532H1259V2759h1850v-531H1259V0H628z" transform="scale(.01563)"/><path id="DejaVuSans-63" d="M3122 3366v-538q-244 135-489 202t-495 67q-560 0-870-355-309-354-309-995t309-996q310-354 870-354 250 0 495 67t489 202V134Q2881 22 2623-34q-257-57-548-57-791 0-1257 497-465 497-465 1341 0 856 470 1346 471 491 1290 491 265 0 518-55 253-54 491-163" transform="scale(.01563)"/></defs><use xlink:href="#DejaVuSans-4c"/><use xlink:href="#DejaVuSans-69" transform="translate(55.713)"/><use xlink:href="#DejaVuSans-6b" transform="translate(83.496)"/><use xlink:href="#DejaVuSans-65" transform="translate(137.781)"/><use xlink:href="#DejaVuSans-6c" transform="translate(199.305)"/><use xlink:href="#DejaVuSans-69" transform="translate(227.088)"/><use xlink:href="#DejaVuSans-68" transform="translate(254.871)"/><use xlink:href="#DejaVuSans-6f" transform="translate(318.25)"/><use xlink:href="#DejaVuSans-6f" transform="translate(379.432)"/><use xlink:href="#DejaVuSans-64" transform="translate(440.613)"/><use xlink:href="#DejaVuSans-46" transform="translate(535.877)"/><use xlink:href="#DejaVuSans-75" transform="translate(587.896)"/><use xlink:href="#DejaVuSans-6e" transform="translate(651.275)"/><use xlink:href="#DejaVuSans-63" transform="translate(714.654)"/><use xlink:href="#DejaVuSans-74" transform="translate(769.635)"/><use xlink:href="#DejaVuSans-69" transform="translate(808.844)"/><use xlink:href="#DejaVuSans-6f" transform="translate(836.627)"/><use xlink:href="#DejaVuSans-6e" transform="translate(897.809)"/></g></g><g id="axes_3"><path d="M305.332 288.43h93.979V22.318h-93.979z" class="patch" style="fill:none"/><g class="axis"><g class="tick xtick"><path id="line2d_35" d="M309.604 288.43V22.318" clip-path="url(#pb3fa1488cf)" style="fill:none;stroke:#b0b0b0;stroke-opacity:.15;stroke-width:.8;stroke-linecap:square"/><use xlink:href="#ma8a86f81af" id="line2d_36" x="309.604" y="288.43" style="stroke:var(--black);stroke-width:.8"/><g id="text_23" class="text" transform="matrix(.09 0 0 -.09 302.447 302.269)"><use xlink:href="#DejaVuSans-30"/><use xlink:href="#DejaVuSans-2e" transform="translate(63.623)"/><use xlink:href="#DejaVuSans-30" transform="translate(95.41)"/></g></g><g class="tick xtick"><path id="line2d_37" d="M352.321 288.43V22.318" clip-path="url(#pb3fa1488cf)" style="fill:none;stroke:#b0b0b0;stroke-opacity:.15;stroke-width:.8;stroke-linecap:square"/><use xlink:href="#ma8a86f81af" id="line2d_38" x="352.321" y="288.43" style="stroke:var(--black);stroke-width:.8"/><g id="text_24" class="text" transform="matrix(.09 0 0 -.09 345.165 302.269)"><use xlink:href="#DejaVuSans-30"/><use xlink:href="#DejaVuSans-2e" transform="translate(63.623)"/><use xlink:href="#DejaVuSans-35" transform="translate(95.41)"/></g></g><g class="tick xtick"><path id="line2d_39" d="M395.04 288.43V22.318" clip-path="url(#pb3fa1488cf)" style="fill:none;stroke:#b0b0b0;stroke-opacity:.15;stroke-width:.8;stroke-linecap:square"/><use xlink:href="#ma8a86f81af" id="line2d_40" x="395.039" y="288.43" style="stroke:var(--black);stroke-width:.8"/><g id="text_25" class="text" transform="matrix(.09 0 0 -.09 387.883 302.269)"><use xlink:href="#DejaVuSans-31"/><use xlink:href="#DejaVuSans-2e" transform="translate(63.623)"/><use xlink:href="#DejaVuSans-30" transform="translate(95.41)"/></g></g><use xlink:href="#DejaVuSans-Oblique-3bc" id="text_26" class="text" transform="matrix(.1 0 0 -.1 349.121 315.687)"/></g><g class="axis"><g class="tick ytick"><path id="line2d_41" d="M305.332 276.334h93.979" clip-path="url(#pb3fa1488cf)" style="fill:none;stroke:#b0b0b0;stroke-opacity:.15;stroke-width:.8;stroke-linecap:square"/><use xlink:href="#mf574d436bf" id="line2d_42" x="305.332" y="276.334" style="stroke:var(--black);stroke-width:.8"/><g id="text_27" class="text" transform="matrix(.09 0 0 -.09 284.02 279.753)"><use xlink:href="#DejaVuSans-30"/><use xlink:href="#DejaVuSans-2e" transform="translate(63.623)"/><use xlink:href="#DejaVuSans-30" transform="translate(95.41)"/></g></g><g class="tick ytick"><path id="line2d_43" d="M305.332 236.817h93.979" clip-path="url(#pb3fa1488cf)" style="fill:none;stroke:#b0b0b0;stroke-opacity:.15;stroke-width:.8;stroke-linecap:square"/><use xlink:href="#mf574d436bf" id="line2d_44" x="305.332" y="236.817" style="stroke:var(--black);stroke-width:.8"/><g id="text_28" class="text" transform="matrix(.09 0 0 -.09 284.02 240.236)"><use xlink:href="#DejaVuSans-30"/><use xlink:href="#DejaVuSans-2e" transform="translate(63.623)"/><use xlink:href="#DejaVuSans-35" transform="translate(95.41)"/></g></g><g class="tick ytick"><path id="line2d_45" d="M305.332 197.3h93.979" clip-path="url(#pb3fa1488cf)" style="fill:none;stroke:#b0b0b0;stroke-opacity:.15;stroke-width:.8;stroke-linecap:square"/><use xlink:href="#mf574d436bf" id="line2d_46" x="305.332" y="197.3" style="stroke:var(--black);stroke-width:.8"/><g id="text_29" class="text" transform="matrix(.09 0 0 -.09 284.02 200.72)"><use xlink:href="#DejaVuSans-31"/><use xlink:href="#DejaVuSans-2e" transform="translate(63.623)"/><use xlink:href="#DejaVuSans-30" transform="translate(95.41)"/></g></g><g class="tick ytick"><path id="line2d_47" d="M305.332 157.783h93.979" clip-path="url(#pb3fa1488cf)" style="fill:none;stroke:#b0b0b0;stroke-opacity:.15;stroke-width:.8;stroke-linecap:square"/><use xlink:href="#mf574d436bf" id="line2d_48" x="305.332" y="157.783" style="stroke:var(--black);stroke-width:.8"/><g id="text_30" class="text" transform="matrix(.09 0 0 -.09 284.02 161.203)"><use xlink:href="#DejaVuSans-31"/><use xlink:href="#DejaVuSans-2e" transform="translate(63.623)"/><use xlink:href="#DejaVuSans-35" transform="translate(95.41)"/></g></g><g class="tick ytick"><path id="line2d_49" d="M305.332 118.266h93.979" clip-path="url(#pb3fa1488cf)" style="fill:none;stroke:#b0b0b0;stroke-opacity:.15;stroke-width:.8;stroke-linecap:square"/><use xlink:href="#mf574d436bf" id="line2d_50" x="305.332" y="118.266" style="stroke:var(--black);stroke-width:.8"/><g id="text_31" class="text" transform="matrix(.09 0 0 -.09 284.02 121.686)"><use xlink:href="#DejaVuSans-32"/><use xlink:href="#DejaVuSans-2e" transform="translate(63.623)"/><use xlink:href="#DejaVuSans-30" transform="translate(95.41)"/></g></g><g class="tick ytick"><path id="line2d_51" d="M305.332 78.75h93.979" clip-path="url(#pb3fa1488cf)" style="fill:none;stroke:#b0b0b0;stroke-opacity:.15;stroke-width:.8;stroke-linecap:square"/><use xlink:href="#mf574d436bf" id="line2d_52" x="305.332" y="78.749" style="stroke:var(--black);stroke-width:.8"/><g id="text_32" class="text" transform="matrix(.09 0 0 -.09 284.02 82.169)"><use xlink:href="#DejaVuSans-32"/><use xlink:href="#DejaVuSans-2e" transform="translate(63.623)"/><use xlink:href="#DejaVuSans-35" transform="translate(95.41)"/></g></g><g class="tick ytick"><path id="line2d_53" d="M305.332 39.232h93.979" clip-path="url(#pb3fa1488cf)" style="fill:none;stroke:#b0b0b0;stroke-opacity:.15;stroke-width:.8;stroke-linecap:square"/><use xlink:href="#mf574d436bf" id="line2d_54" x="305.332" y="39.232" style="stroke:var(--black);stroke-width:.8"/><g id="text_33" class="text" transform="matrix(.09 0 0 -.09 284.02 42.652)"><defs><path id="DejaVuSans-33" d="M2597 2516q453-97 707-404 255-306 255-756 0-690-475-1069Q2609-91 1734-91q-293 0-604 58T488 141v609q262-153 574-231 313-78 654-78 593 0 904 234t311 681q0 413-289 645-289 233-804 233h-544v519h569q465 0 712 186t247 536q0 359-255 551-254 193-729 193-260 0-557-57-297-56-653-174v562q360 100 674 150t592 50q719 0 1137-327 419-326 419-882 0-388-222-655t-631-370z" transform="scale(.01563)"/></defs><use xlink:href="#DejaVuSans-33"/><use xlink:href="#DejaVuSans-2e" transform="translate(63.623)"/><use xlink:href="#DejaVuSans-30" transform="translate(95.41)"/></g></g><g id="text_34" class="text" transform="matrix(0 -.1 -.1 0 277.94 174.383)"><use xlink:href="#DejaVuSans-44"/><use xlink:href="#DejaVuSans-65" transform="translate(77.002)"/><use xlink:href="#DejaVuSans-6e" transform="translate(138.525)"/><use xlink:href="#DejaVuSans-73" transform="translate(201.904)"/><use xlink:href="#DejaVuSans-69" transform="translate(254.004)"/><use xlink:href="#DejaVuSans-74" transform="translate(281.787)"/><use xlink:href="#DejaVuSans-79" transform="translate(320.996)"/></g></g><path id="line2d_55" d="m309.604 276.334 15.203-.108 2.997-.243 2.142-.365 1.927-.555 1.499-.64 1.498-.881 1.285-.992 1.285-1.256 1.285-1.567 1.284-1.929 1.285-2.342 1.285-2.81 1.285-3.333 1.284-3.912 1.5-5.363 1.498-6.3 1.499-7.3 1.499-8.352 1.713-10.874 1.713-12.298 1.927-15.479 2.141-19.052 2.57-24.905 7.28-72.16 1.713-14.144 1.285-9.007 1.07-6.197.857-3.965.856-2.976.643-1.527.428-.66.428-.362.428-.053.429.268.428.597.428.936.642 2.058.643 2.866.856 5.113.857 6.623 1.07 10.428 1.071 12.803 1.285 18.382 1.499 25.227 1.713 32.805 4.71 93.05 1.07 15.789.857 9.176.643 4.26.428 1.35.214.176h0" clip-path="url(#pb3fa1488cf)" style="fill:none;stroke:green;stroke-width:2;stroke-linecap:square"/><path d="M305.332 288.43V22.318M305.332 288.43h93.979" class="patch" style="fill:none;stroke:var(--black);stroke-width:.8;stroke-linejoin:miter;stroke-linecap:square"/><g id="text_35" class="text" transform="matrix(.12 0 0 -.12 288.9 16.318)"><use xlink:href="#DejaVuSans-50"/><use xlink:href="#DejaVuSans-6f" transform="translate(56.678)"/><use xlink:href="#DejaVuSans-73" transform="translate(117.86)"/><use xlink:href="#DejaVuSans-74" transform="translate(169.959)"/><use xlink:href="#DejaVuSans-65" transform="translate(209.168)"/><use xlink:href="#DejaVuSans-72" transform="translate(270.691)"/><use xlink:href="#DejaVuSans-69" transform="translate(311.805)"/><use xlink:href="#DejaVuSans-6f" transform="translate(339.588)"/><use xlink:href="#DejaVuSans-72" transform="translate(400.77)"/><use xlink:href="#DejaVuSans-44" transform="translate(473.67)"/><use xlink:href="#DejaVuSans-69" transform="translate(550.672)"/><use xlink:href="#DejaVuSans-73" transform="translate(578.455)"/><use xlink:href="#DejaVuSans-74" transform="translate(630.555)"/><use xlink:href="#DejaVuSans-72" transform="translate(669.764)"/><use xlink:href="#DejaVuSans-69" transform="translate(710.877)"/><use xlink:href="#DejaVuSans-62" transform="translate(738.66)"/><use xlink:href="#DejaVuSans-75" transform="translate(802.137)"/><use xlink:href="#DejaVuSans-74" transform="translate(865.516)"/><use xlink:href="#DejaVuSans-69" transform="translate(904.725)"/><use xlink:href="#DejaVuSans-6f" transform="translate(932.508)"/><use xlink:href="#DejaVuSans-6e" transform="translate(993.69)"/></g></g></g><defs><clipPath id="pcf52a47a3c"><path d="M42.191 22.318h93.979V288.43H42.191z"/></clipPath><clipPath id="p6ecf647620"><path d="M173.761 22.318h93.979V288.43h-93.979z"/></clipPath><clipPath id="pb3fa1488cf"><path d="M305.332 22.318h93.979V288.43h-93.979z"/></clipPath></defs></svg>