<svg xmlns="http://www.w3.org/2000/svg" xmlns:xlink="http://www.w3.org/1999/xlink" width="581.615" height="447.489" style="--axis-color:#000;--grid-stroke:rgba(0,0,0,0.2);--plot3d-stroke:rgba(0,0,0,0.3);--plot3d-grid:rgba(0,0,0,0.2);--black:#000000;--c1:#FF0001;--c2:#00FF02;--c3:#0000FF;--c4:#FF00FF;--c5:#00FFFF;--c6:#FFFF00;--c7:#FF8000;--c8:#8000FF;--gray:#7f7f7f;--grey:#7f7f7f;--octonary:#bcbd22;--primary:#d62728;--quaternary:#9467bd;--quinary:#8c564b;--secondary:#2ca02c;--senary:#e377c2;--septenary:#7f7f7f;--tertiary:#1f77b4;--white:#ffffff" viewBox="0 0 436.211 335.617"><style><![CDATA[@media (prefers-color-scheme:dark){:root{--axis-color:#fff;--grid-stroke:rgba(255,255,255,0.2);--plot3d-stroke:rgba(255,255,255,0.3);--plot3d-grid:rgba(255,255,255,0.2);--black:#FFFFFF;--c1:#FF0001;--c2:#00FF02;--c3:#0000FF;--c4:#FF00FF;--c5:#00FFFF;--c6:#FFFF00;--c7:#FF8000;--c8:#8000FF;--gray:#CCCCCC;--grey:#CCCCCC;--octonary:#E6DB74;--primary:#FF4A98;--quaternary:#B4A0FF;--quinary:#FFB86B;--secondary:#0AFAFA;--senary:#FF79C6;--septenary:#CCCCCC;--tertiary:#7F83FF;--white:#000000}}.text{fill:var(--axis-color)!important;stroke:none!important}.axis path,.patch path[style*="stroke: currentColor"],.tick path{stroke:var(--axis-color)!important}*{stroke-linejoin:round;stroke-linecap:butt}]]></style><g id="figure_1"><path d="M0 335.617h436.211V0H0z" class="patch" style="fill:none"/><g id="axes_1"><path d="M55.459 299.029h93.979V32.917h-93.98z" class="patch" style="fill:none"/><g class="axis"><g class="tick xtick"><path id="line2d_1" d="M59.73 299.029V32.917" clip-path="url(#pf867b61ad6)" style="fill:none;stroke:#b0b0b0;stroke-opacity:.15;stroke-width:.8;stroke-linecap:square"/><g id="line2d_2"><defs><path id="m5a626c061c" d="M0 0v3.5" style="stroke:var(--black);stroke-width:.8"/></defs><use xlink:href="#m5a626c061c" x="59.731" y="299.029" style="stroke:var(--black);stroke-width:.8"/></g><g id="text_1" class="text" transform="matrix(.09 0 0 -.09 52.574 312.867)"><defs><path id="DejaVuSans-30" d="M2034 4250q-487 0-733-480-245-479-245-1442 0-959 245-1439 246-480 733-480 491 0 736 480 246 480 246 1439 0 963-246 1442-245 480-736 480zm0 500q785 0 1199-621 414-620 414-1801 0-1178-414-1799Q2819-91 2034-91q-784 0-1198 620-414 621-414 1799 0 1181 414 1801 414 621 1198 621z" transform="scale(.01563)"/><path id="DejaVuSans-2e" d="M684 794h660V0H684z" transform="scale(.01563)"/></defs><use xlink:href="#DejaVuSans-30"/><use xlink:href="#DejaVuSans-2e" transform="translate(63.623)"/><use xlink:href="#DejaVuSans-30" transform="translate(95.41)"/></g></g><g class="tick xtick"><path id="line2d_3" d="M102.448 299.029V32.917" clip-path="url(#pf867b61ad6)" style="fill:none;stroke:#b0b0b0;stroke-opacity:.15;stroke-width:.8;stroke-linecap:square"/><use xlink:href="#m5a626c061c" id="line2d_4" x="102.448" y="299.029" style="stroke:var(--black);stroke-width:.8"/><g id="text_2" class="text" transform="matrix(.09 0 0 -.09 95.292 312.867)"><defs><path id="DejaVuSans-35" d="M691 4666h2478v-532H1269V2991q137 47 274 70 138 23 276 23 781 0 1237-428 457-428 457-1159 0-753-469-1171Q2575-91 1722-91q-294 0-599 50Q819 9 494 109v635q281-153 581-228t634-75q541 0 856 284 316 284 316 772 0 487-316 771-315 285-856 285-253 0-505-56-251-56-513-175z" transform="scale(.01563)"/></defs><use xlink:href="#DejaVuSans-30"/><use xlink:href="#DejaVuSans-2e" transform="translate(63.623)"/><use xlink:href="#DejaVuSans-35" transform="translate(95.41)"/></g></g><g class="tick xtick"><path id="line2d_5" d="M145.166 299.029V32.917" clip-path="url(#pf867b61ad6)" style="fill:none;stroke:#b0b0b0;stroke-opacity:.15;stroke-width:.8;stroke-linecap:square"/><use xlink:href="#m5a626c061c" id="line2d_6" x="145.166" y="299.029" style="stroke:var(--black);stroke-width:.8"/><g id="text_3" class="text" transform="matrix(.09 0 0 -.09 138.01 312.867)"><defs><path id="DejaVuSans-31" d="M794 531h1031v3560L703 3866v575l1116 225h631V531h1031V0H794z" transform="scale(.01563)"/></defs><use xlink:href="#DejaVuSans-31"/><use xlink:href="#DejaVuSans-2e" transform="translate(63.623)"/><use xlink:href="#DejaVuSans-30" transform="translate(95.41)"/></g></g><g id="text_4" class="text" transform="matrix(.1 0 0 -.1 99.248 326.317)"><defs><path id="DejaVuSans-Oblique-3bc" d="m-84-1331 940 4831h578l-425-2178q-12-66-22-147-9-81-9-162 0-291 183-448 183-156 523-156 463 0 747 262 285 263 385 788l397 2041h575L3266 809q-13-59-18-103-4-43-4-78 0-97 39-142t123-45q32 0 86 15 55 16 155 57l-88-463q-137-69-262-105t-244-36q-206 0-323 131-117 132-117 363-175-250-418-372-242-122-570-122-291 0-508 134-217 135-286 354L494-1331z" transform="scale(.01563)"/></defs><use xlink:href="#DejaVuSans-Oblique-3bc" transform="translate(0 .313)"/></g></g><g class="axis"><g class="tick ytick"><path id="line2d_7" d="M55.459 298.875h93.979" clip-path="url(#pf867b61ad6)" style="fill:none;stroke:#b0b0b0;stroke-opacity:.15;stroke-width:.8;stroke-linecap:square"/><g id="line2d_8"><defs><path id="me53bc9ce65" d="M0 0h-3.5" style="stroke:var(--black);stroke-width:.8"/></defs><use xlink:href="#me53bc9ce65" x="55.459" y="298.875" style="stroke:var(--black);stroke-width:.8"/></g><g id="text_5" class="text" transform="matrix(.09 0 0 -.09 20.878 302.302)"><defs><path id="DejaVuSans-2212" d="M678 2272h4006v-531H678z" transform="scale(.01563)"/></defs><use xlink:href="#DejaVuSans-2212"/><use xlink:href="#DejaVuSans-31" transform="translate(83.79)"/><use xlink:href="#DejaVuSans-2e" transform="translate(147.412)"/><use xlink:href="#DejaVuSans-30" transform="translate(179.2)"/><use xlink:href="#DejaVuSans-30" transform="translate(242.822)"/></g></g><g class="tick ytick"><path id="line2d_9" d="M55.459 265.625h93.979" clip-path="url(#pf867b61ad6)" style="fill:none;stroke:#b0b0b0;stroke-opacity:.15;stroke-width:.8;stroke-linecap:square"/><use xlink:href="#me53bc9ce65" id="line2d_10" x="55.459" y="265.625" style="stroke:var(--black);stroke-width:.8"/><g id="text_6" class="text" transform="matrix(.09 0 0 -.09 20.878 269.052)"><defs><path id="DejaVuSans-37" d="M525 4666h3000v-269L1831 0h-659l1594 4134H525z" transform="scale(.01563)"/></defs><use xlink:href="#DejaVuSans-2212"/><use xlink:href="#DejaVuSans-30" transform="translate(83.79)"/><use xlink:href="#DejaVuSans-2e" transform="translate(147.412)"/><use xlink:href="#DejaVuSans-37" transform="translate(179.2)"/><use xlink:href="#DejaVuSans-35" transform="translate(242.822)"/></g></g><g class="tick ytick"><path id="line2d_11" d="M55.459 232.406h93.979" clip-path="url(#pf867b61ad6)" style="fill:none;stroke:#b0b0b0;stroke-opacity:.15;stroke-width:.8;stroke-linecap:square"/><use xlink:href="#me53bc9ce65" id="line2d_12" x="55.459" y="232.406" style="stroke:var(--black);stroke-width:.8"/><g id="text_7" class="text" transform="matrix(.09 0 0 -.09 20.878 235.833)"><use xlink:href="#DejaVuSans-2212"/><use xlink:href="#DejaVuSans-30" transform="translate(83.79)"/><use xlink:href="#DejaVuSans-2e" transform="translate(147.412)"/><use xlink:href="#DejaVuSans-35" transform="translate(179.2)"/><use xlink:href="#DejaVuSans-30" transform="translate(242.822)"/></g></g><g class="tick ytick"><path id="line2d_13" d="M55.459 199.156h93.979" clip-path="url(#pf867b61ad6)" style="fill:none;stroke:#b0b0b0;stroke-opacity:.15;stroke-width:.8;stroke-linecap:square"/><use xlink:href="#me53bc9ce65" id="line2d_14" x="55.459" y="199.156" style="stroke:var(--black);stroke-width:.8"/><g id="text_8" class="text" transform="matrix(.09 0 0 -.09 20.878 202.583)"><defs><path id="DejaVuSans-32" d="M1228 531h2203V0H469v531q359 372 979 998 621 627 780 809 303 340 423 576 121 236 121 464 0 372-261 606-261 235-680 235-297 0-627-103-329-103-704-313v638q381 153 712 231 332 78 607 78 725 0 1156-363 431-362 431-968 0-288-108-546-107-257-392-607-78-91-497-524-418-433-1181-1211z" transform="scale(.01563)"/></defs><use xlink:href="#DejaVuSans-2212"/><use xlink:href="#DejaVuSans-30" transform="translate(83.79)"/><use xlink:href="#DejaVuSans-2e" transform="translate(147.412)"/><use xlink:href="#DejaVuSans-32" transform="translate(179.2)"/><use xlink:href="#DejaVuSans-35" transform="translate(242.822)"/></g></g><g class="tick ytick"><path id="line2d_15" d="M55.459 165.922h93.979" clip-path="url(#pf867b61ad6)" style="fill:none;stroke:#b0b0b0;stroke-opacity:.15;stroke-width:.8;stroke-linecap:square"/><use xlink:href="#me53bc9ce65" id="line2d_16" x="55.459" y="165.922" style="stroke:var(--black);stroke-width:.8"/><g id="text_9" class="text" transform="matrix(.09 0 0 -.09 28.42 169.349)"><use xlink:href="#DejaVuSans-30"/><use xlink:href="#DejaVuSans-2e" transform="translate(63.623)"/><use xlink:href="#DejaVuSans-30" transform="translate(95.41)"/><use xlink:href="#DejaVuSans-30" transform="translate(159.033)"/></g></g><g class="tick ytick"><path id="line2d_17" d="M55.459 132.688h93.979" clip-path="url(#pf867b61ad6)" style="fill:none;stroke:#b0b0b0;stroke-opacity:.15;stroke-width:.8;stroke-linecap:square"/><use xlink:href="#me53bc9ce65" id="line2d_18" x="55.459" y="132.688" style="stroke:var(--black);stroke-width:.8"/><g id="text_10" class="text" transform="matrix(.09 0 0 -.09 28.42 136.114)"><use xlink:href="#DejaVuSans-30"/><use xlink:href="#DejaVuSans-2e" transform="translate(63.623)"/><use xlink:href="#DejaVuSans-32" transform="translate(95.41)"/><use xlink:href="#DejaVuSans-35" transform="translate(159.033)"/></g></g><g class="tick ytick"><path id="line2d_19" d="M55.459 99.438h93.979" clip-path="url(#pf867b61ad6)" style="fill:none;stroke:#b0b0b0;stroke-opacity:.15;stroke-width:.8;stroke-linecap:square"/><use xlink:href="#me53bc9ce65" id="line2d_20" x="55.459" y="99.438" style="stroke:var(--black);stroke-width:.8"/><g id="text_11" class="text" transform="matrix(.09 0 0 -.09 28.42 102.864)"><use xlink:href="#DejaVuSans-30"/><use xlink:href="#DejaVuSans-2e" transform="translate(63.623)"/><use xlink:href="#DejaVuSans-35" transform="translate(95.41)"/><use xlink:href="#DejaVuSans-30" transform="translate(159.033)"/></g></g><g class="tick ytick"><path id="line2d_21" d="M55.459 66.203h93.979" clip-path="url(#pf867b61ad6)" style="fill:none;stroke:#b0b0b0;stroke-opacity:.15;stroke-width:.8;stroke-linecap:square"/><use xlink:href="#me53bc9ce65" id="line2d_22" x="55.459" y="66.203" style="stroke:var(--black);stroke-width:.8"/><g id="text_12" class="text" transform="matrix(.09 0 0 -.09 28.42 69.63)"><use xlink:href="#DejaVuSans-30"/><use xlink:href="#DejaVuSans-2e" transform="translate(63.623)"/><use xlink:href="#DejaVuSans-37" transform="translate(95.41)"/><use xlink:href="#DejaVuSans-35" transform="translate(159.033)"/></g></g><g class="tick ytick"><path id="line2d_23" d="M55.459 32.953h93.979" clip-path="url(#pf867b61ad6)" style="fill:none;stroke:#b0b0b0;stroke-opacity:.15;stroke-width:.8;stroke-linecap:square"/><use xlink:href="#me53bc9ce65" id="line2d_24" x="55.459" y="32.953" style="stroke:var(--black);stroke-width:.8"/><g id="text_13" class="text" transform="matrix(.09 0 0 -.09 28.42 36.38)"><use xlink:href="#DejaVuSans-31"/><use xlink:href="#DejaVuSans-2e" transform="translate(63.623)"/><use xlink:href="#DejaVuSans-30" transform="translate(95.41)"/><use xlink:href="#DejaVuSans-30" transform="translate(159.033)"/></g></g><g id="text_14" class="text" transform="matrix(0 -.1 -.1 0 14.798 184.981)"><defs><path id="DejaVuSans-44" d="M1259 4147V519h763q966 0 1414 437 448 438 448 1382 0 937-448 1373t-1414 436zm-631 519h1297q1356 0 1990-564 635-564 635-1764 0-1207-638-1773Q3275 0 1925 0H628z" transform="scale(.01563)"/><path id="DejaVuSans-65" d="M3597 1894v-281H953q38-594 358-905t892-311q331 0 642 81t618 244V178Q3153 47 2828-22t-659-69q-838 0-1327 487-489 488-489 1320 0 859 464 1363 464 505 1252 505 706 0 1117-455 411-454 411-1235zm-575 169q-6 471-264 752-258 282-683 282-481 0-770-272t-333-766z" transform="scale(.01563)"/><path id="DejaVuSans-6e" d="M3513 2113V0h-575v2094q0 497-194 743-194 247-581 247-466 0-735-297-269-296-269-809V0H581v3500h578v-544q207 316 486 472 280 156 646 156 603 0 912-373 310-373 310-1098z" transform="scale(.01563)"/><path id="DejaVuSans-73" d="M2834 3397v-544q-243 125-506 187-262 63-544 63-428 0-642-131t-214-394q0-200 153-314t616-217l197-44q612-131 870-370t258-667q0-488-386-773Q2250-91 1575-91q-281 0-586 55T347 128v594q319-166 628-249 309-82 613-82 406 0 624 139 219 139 219 392 0 234-158 359-157 125-692 241l-200 47q-534 112-772 345-237 233-237 639 0 494 350 762 350 269 994 269 318 0 599-47 282-46 519-140z" transform="scale(.01563)"/><path id="DejaVuSans-69" d="M603 3500h575V0H603zm0 1363h575v-729H603z" transform="scale(.01563)"/><path id="DejaVuSans-74" d="M1172 4494v-994h1184v-447H1172V1153q0-428 117-550t477-122h590V0h-590q-666 0-919 248-253 249-253 905v1900H172v447h422v994z" transform="scale(.01563)"/><path id="DejaVuSans-79" d="M2059-325q-243-625-475-815-231-191-618-191H506v481h338q237 0 368 113 132 112 291 531l103 262L191 3500h609L1894 763l1094 2737h609z" transform="scale(.01563)"/></defs><use xlink:href="#DejaVuSans-44"/><use xlink:href="#DejaVuSans-65" transform="translate(77.002)"/><use xlink:href="#DejaVuSans-6e" transform="translate(138.525)"/><use xlink:href="#DejaVuSans-73" transform="translate(201.904)"/><use xlink:href="#DejaVuSans-69" transform="translate(254.004)"/><use xlink:href="#DejaVuSans-74" transform="translate(281.787)"/><use xlink:href="#DejaVuSans-79" transform="translate(320.996)"/></g><g id="text_15" class="text" transform="matrix(.1 0 0 -.1 55.459 29.917)"><defs><path id="DejaVuSans-2b" d="M2944 4013V2272h1740v-531H2944V0h-525v1741H678v531h1741v1741z" transform="scale(.01563)"/></defs><use xlink:href="#DejaVuSans-31"/><use xlink:href="#DejaVuSans-65" transform="translate(63.623)"/><use xlink:href="#DejaVuSans-2212" transform="translate(125.146)"/><use xlink:href="#DejaVuSans-31" transform="translate(208.936)"/><use xlink:href="#DejaVuSans-32" transform="translate(272.559)"/><use xlink:href="#DejaVuSans-2b" transform="translate(336.182)"/><use xlink:href="#DejaVuSans-31" transform="translate(419.97)"/><use xlink:href="#DejaVuSans-30" transform="translate(483.594)"/><use xlink:href="#DejaVuSans-65" transform="translate(547.217)"/><use xlink:href="#DejaVuSans-2212" transform="translate(608.74)"/><use xlink:href="#DejaVuSans-31" transform="translate(692.53)"/></g></g><path id="line2d_25" d="m59.73 165.922.215.047.214-.11.642.078.214-.078.429.125 1.713-.047.856.047 1.499-.062.428.094 1.285-.047.214-.078.214.093.429-.03.428.03.642-.015h.642l1.713-.031.643.062 1.927-.031 1.499.015.856-.015 1.5-.016 1.712.016.857-.016H82l63.166-.031h0" clip-path="url(#pf867b61ad6)" style="fill:none;stroke:#00f;stroke-width:2;stroke-linecap:square"/><path d="M55.459 299V32.89M55.459 299.029h93.979" class="patch" style="fill:none;stroke:var(--black);stroke-width:.8;stroke-linejoin:miter;stroke-linecap:square"/><g id="text_16" class="text" transform="matrix(.12 0 0 -.12 51.755 16.318)"><defs><path id="DejaVuSans-50" d="M1259 4147V2394h794q441 0 681 228 241 228 241 650 0 419-241 647-240 228-681 228zm-631 519h1425q785 0 1186-355 402-355 402-1039 0-691-402-1044-401-353-1186-353h-794V0H628z" transform="scale(.01563)"/><path id="DejaVuSans-72" d="M2631 2963q-97 56-211 82-114 27-251 27-488 0-749-317t-261-911V0H581v3500h578v-544q182 319 472 473 291 155 707 155 59 0 131-8 72-7 159-23z" transform="scale(.01563)"/><path id="DejaVuSans-6f" d="M1959 3097q-462 0-731-361t-269-989 267-989q268-361 733-361 460 0 728 362 269 363 269 988 0 622-269 986-268 364-728 364m0 487q750 0 1178-488 429-487 429-1349 0-859-429-1349Q2709-91 1959-91q-753 0-1180 489-426 490-426 1349 0 862 426 1349 427 488 1180 488" transform="scale(.01563)"/><path id="DejaVuSans-62" d="M3116 1747q0 634-261 995t-717 361q-457 0-718-361t-261-995 261-995 718-361q456 0 717 361t261 995M1159 2969q182 312 458 463 277 152 661 152 638 0 1036-506 399-506 399-1331T3314 415Q2916-91 2278-91q-384 0-661 152-276 152-458 464V0H581v4863h578z" transform="scale(.01563)"/><path id="DejaVuSans-75" d="M544 1381v2119h575V1403q0-497 193-746 194-248 582-248 465 0 735 297 271 297 271 810v1984h575V0h-575v538q-209-319-486-474-276-155-642-155-603 0-916 375-312 375-312 1097m1447 2203" transform="scale(.01563)"/></defs><use xlink:href="#DejaVuSans-50"/><use xlink:href="#DejaVuSans-72" transform="translate(58.553)"/><use xlink:href="#DejaVuSans-69" transform="translate(99.666)"/><use xlink:href="#DejaVuSans-6f" transform="translate(127.45)"/><use xlink:href="#DejaVuSans-72" transform="translate(188.63)"/><use xlink:href="#DejaVuSans-44" transform="translate(261.531)"/><use xlink:href="#DejaVuSans-69" transform="translate(338.533)"/><use xlink:href="#DejaVuSans-73" transform="translate(366.316)"/><use xlink:href="#DejaVuSans-74" transform="translate(418.416)"/><use xlink:href="#DejaVuSans-72" transform="translate(457.625)"/><use xlink:href="#DejaVuSans-69" transform="translate(498.738)"/><use xlink:href="#DejaVuSans-62" transform="translate(526.521)"/><use xlink:href="#DejaVuSans-75" transform="translate(589.998)"/><use xlink:href="#DejaVuSans-74" transform="translate(653.377)"/><use xlink:href="#DejaVuSans-69" transform="translate(692.586)"/><use xlink:href="#DejaVuSans-6f" transform="translate(720.37)"/><use xlink:href="#DejaVuSans-6e" transform="translate(781.55)"/></g></g><g id="axes_2"><path d="M187.03 299.029h93.978V32.917H187.03z" class="patch" style="fill:none"/><g class="axis"><g class="tick xtick"><path id="line2d_26" d="M191.301 299.029V32.917" clip-path="url(#p796be21f8b)" style="fill:none;stroke:#b0b0b0;stroke-opacity:.15;stroke-width:.8;stroke-linecap:square"/><use xlink:href="#m5a626c061c" id="line2d_27" x="191.301" y="299.029" style="stroke:var(--black);stroke-width:.8"/><g id="text_17" class="text" transform="matrix(.09 0 0 -.09 184.145 312.867)"><use xlink:href="#DejaVuSans-30"/><use xlink:href="#DejaVuSans-2e" transform="translate(63.623)"/><use xlink:href="#DejaVuSans-30" transform="translate(95.41)"/></g></g><g class="tick xtick"><path id="line2d_28" d="M234.019 299.029V32.917" clip-path="url(#p796be21f8b)" style="fill:none;stroke:#b0b0b0;stroke-opacity:.15;stroke-width:.8;stroke-linecap:square"/><use xlink:href="#m5a626c061c" id="line2d_29" x="234.019" y="299.029" style="stroke:var(--black);stroke-width:.8"/><g id="text_18" class="text" transform="matrix(.09 0 0 -.09 226.863 312.867)"><use xlink:href="#DejaVuSans-30"/><use xlink:href="#DejaVuSans-2e" transform="translate(63.623)"/><use xlink:href="#DejaVuSans-35" transform="translate(95.41)"/></g></g><g class="tick xtick"><path id="line2d_30" d="M276.737 299.029V32.917" clip-path="url(#p796be21f8b)" style="fill:none;stroke:#b0b0b0;stroke-opacity:.15;stroke-width:.8;stroke-linecap:square"/><use xlink:href="#m5a626c061c" id="line2d_31" x="276.737" y="299.029" style="stroke:var(--black);stroke-width:.8"/><g id="text_19" class="text" transform="matrix(.09 0 0 -.09 269.58 312.867)"><use xlink:href="#DejaVuSans-31"/><use xlink:href="#DejaVuSans-2e" transform="translate(63.623)"/><use xlink:href="#DejaVuSans-30" transform="translate(95.41)"/></g></g><use xlink:href="#DejaVuSans-Oblique-3bc" id="text_20" class="text" transform="matrix(.1 0 0 -.1 230.819 326.286)"/></g><g class="axis"><g class="tick ytick"><path id="line2d_32" d="M187.03 286.933h93.978" clip-path="url(#p796be21f8b)" style="fill:none;stroke:#b0b0b0;stroke-opacity:.15;stroke-width:.8;stroke-linecap:square"/><use xlink:href="#me53bc9ce65" id="line2d_33" x="187.029" y="286.933" style="stroke:var(--black);stroke-width:.8"/><g id="text_21" class="text" transform="matrix(.09 0 0 -.09 159.99 290.352)"><use xlink:href="#DejaVuSans-30"/><use xlink:href="#DejaVuSans-2e" transform="translate(63.623)"/><use xlink:href="#DejaVuSans-30" transform="translate(95.41)"/><use xlink:href="#DejaVuSans-30" transform="translate(159.033)"/></g></g><g class="tick ytick"><path id="line2d_34" d="M187.03 227.87h93.978" clip-path="url(#p796be21f8b)" style="fill:none;stroke:#b0b0b0;stroke-opacity:.15;stroke-width:.8;stroke-linecap:square"/><use xlink:href="#me53bc9ce65" id="line2d_35" x="187.029" y="227.87" style="stroke:var(--black);stroke-width:.8"/><g id="text_22" class="text" transform="matrix(.09 0 0 -.09 159.99 231.29)"><use xlink:href="#DejaVuSans-30"/><use xlink:href="#DejaVuSans-2e" transform="translate(63.623)"/><use xlink:href="#DejaVuSans-30" transform="translate(95.41)"/><use xlink:href="#DejaVuSans-32" transform="translate(159.033)"/></g></g><g class="tick ytick"><path id="line2d_36" d="M187.03 168.807h93.978" clip-path="url(#p796be21f8b)" style="fill:none;stroke:#b0b0b0;stroke-opacity:.15;stroke-width:.8;stroke-linecap:square"/><use xlink:href="#me53bc9ce65" id="line2d_37" x="187.029" y="168.807" style="stroke:var(--black);stroke-width:.8"/><g id="text_23" class="text" transform="matrix(.09 0 0 -.09 159.99 172.226)"><defs><path id="DejaVuSans-34" d="M2419 4116 825 1625h1594zm-166 550h794V1625h666v-525h-666V0h-628v1100H313v609z" transform="scale(.01563)"/></defs><use xlink:href="#DejaVuSans-30"/><use xlink:href="#DejaVuSans-2e" transform="translate(63.623)"/><use xlink:href="#DejaVuSans-30" transform="translate(95.41)"/><use xlink:href="#DejaVuSans-34" transform="translate(159.033)"/></g></g><g class="tick ytick"><path id="line2d_38" d="M187.03 109.744h93.978" clip-path="url(#p796be21f8b)" style="fill:none;stroke:#b0b0b0;stroke-opacity:.15;stroke-width:.8;stroke-linecap:square"/><use xlink:href="#me53bc9ce65" id="line2d_39" x="187.029" y="109.744" style="stroke:var(--black);stroke-width:.8"/><g id="text_24" class="text" transform="matrix(.09 0 0 -.09 159.99 113.164)"><defs><path id="DejaVuSans-36" d="M2113 2584q-425 0-674-291-248-290-248-796 0-503 248-796 249-292 674-292t673 292q248 293 248 796 0 506-248 796-248 291-673 291zm1253 1979v-575q-238 112-480 171-242 60-480 60-625 0-955-422-329-422-376-1275 184 272 462 417 279 145 613 145 703 0 1111-427 408-426 408-1160 0-719-425-1154Q2819-91 2113-91q-810 0-1238 620-428 621-428 1799 0 1106 525 1764t1409 658q238 0 480-47t505-140z" transform="scale(.01563)"/></defs><use xlink:href="#DejaVuSans-30"/><use xlink:href="#DejaVuSans-2e" transform="translate(63.623)"/><use xlink:href="#DejaVuSans-30" transform="translate(95.41)"/><use xlink:href="#DejaVuSans-36" transform="translate(159.033)"/></g></g><g class="tick ytick"><path id="line2d_40" d="M187.03 50.682h93.978" clip-path="url(#p796be21f8b)" style="fill:none;stroke:#b0b0b0;stroke-opacity:.15;stroke-width:.8;stroke-linecap:square"/><use xlink:href="#me53bc9ce65" id="line2d_41" x="187.029" y="50.682" style="stroke:var(--black);stroke-width:.8"/><g id="text_25" class="text" transform="matrix(.09 0 0 -.09 159.99 54.1)"><defs><path id="DejaVuSans-38" d="M2034 2216q-450 0-708-241-257-241-257-662 0-422 257-663 258-241 708-241t709 242q260 243 260 662 0 421-258 662-257 241-711 241zm-631 268q-406 100-633 378-226 279-226 679 0 559 398 884 399 325 1092 325 697 0 1094-325t397-884q0-400-227-679-226-278-629-378 456-106 710-416 255-309 255-755 0-679-414-1042Q2806-91 2034-91q-771 0-1186 362-414 363-414 1042 0 446 256 755 257 310 713 416zm-231 997q0-362 226-565 227-203 636-203 407 0 636 203 230 203 230 565 0 363-230 566-229 203-636 203-409 0-636-203-226-203-226-566z" transform="scale(.01563)"/></defs><use xlink:href="#DejaVuSans-30"/><use xlink:href="#DejaVuSans-2e" transform="translate(63.623)"/><use xlink:href="#DejaVuSans-30" transform="translate(95.41)"/><use xlink:href="#DejaVuSans-38" transform="translate(159.033)"/></g></g><g id="text_26" class="text" transform="matrix(0 -.1 -.1 0 153.91 191.178)"><defs><path id="DejaVuSans-4c" d="M628 4666h631V531h2272V0H628z" transform="scale(.01563)"/><path id="DejaVuSans-6b" d="M581 4863h578V1991l1716 1509h734L1753 1863 3688 0h-750L1159 1709V0H581z" transform="scale(.01563)"/><path id="DejaVuSans-6c" d="M603 4863h575V0H603z" transform="scale(.01563)"/><path id="DejaVuSans-68" d="M3513 2113V0h-575v2094q0 497-194 743-194 247-581 247-466 0-735-297-269-296-269-809V0H581v4863h578V2956q207 316 486 472 280 156 646 156 603 0 912-373 310-373 310-1098z" transform="scale(.01563)"/><path id="DejaVuSans-64" d="M2906 2969v1894h575V0h-575v525q-181-312-458-464-276-152-664-152-634 0-1033 506-398 507-398 1332t398 1331q399 506 1033 506 388 0 664-152 277-151 458-463zM947 1747q0-634 261-995t717-361 718 361q263 361 263 995t-263 995q-262 361-718 361t-717-361-261-995z" transform="scale(.01563)"/></defs><use xlink:href="#DejaVuSans-4c"/><use xlink:href="#DejaVuSans-69" transform="translate(55.713)"/><use xlink:href="#DejaVuSans-6b" transform="translate(83.496)"/><use xlink:href="#DejaVuSans-65" transform="translate(137.781)"/><use xlink:href="#DejaVuSans-6c" transform="translate(199.305)"/><use xlink:href="#DejaVuSans-69" transform="translate(227.088)"/><use xlink:href="#DejaVuSans-68" transform="translate(254.871)"/><use xlink:href="#DejaVuSans-6f" transform="translate(318.25)"/><use xlink:href="#DejaVuSans-6f" transform="translate(379.432)"/><use xlink:href="#DejaVuSans-64" transform="translate(440.613)"/></g></g><path id="line2d_42" d="m191.301 286.933 6.638-.1 2.57-.256 2.14-.442 1.714-.57 1.713-.817 1.499-.962 1.498-1.233 1.5-1.54 1.498-1.888 1.5-2.27 1.498-2.69 1.499-3.142 1.499-3.625 1.713-4.771 1.713-5.474 1.713-6.204 1.927-7.876 1.927-8.836 2.141-10.935 2.141-12.074 2.356-14.51 2.783-18.605 3.426-24.548 8.994-65.412 2.14-13.553 1.714-9.571 1.499-7.182 1.284-5.089 1.071-3.37.856-2.06.857-1.439.642-.64.429-.203.428-.02.428.175.428.374.643.953.642 1.445.642 1.964.857 3.472.856 4.508.857 5.612 1.07 8.676 1.071 10.655 1.07 12.782 1.286 18.366 1.284 21.932 1.285 25.792 1.285 29.957 1.499 40.64 1.498 47.276.215 7.328h0" clip-path="url(#p796be21f8b)" style="fill:none;stroke:orange;stroke-width:2;stroke-linecap:square"/><path d="M187.03 299.029V32.917M187.03 299.029h93.978" class="patch" style="fill:none;stroke:var(--black);stroke-width:.8;stroke-linejoin:miter;stroke-linecap:square"/><g id="text_27" class="text" transform="matrix(.12 0 0 -.12 176.348 26.917)"><defs><path id="DejaVuSans-46" d="M628 4666h2681v-532H1259V2759h1850v-531H1259V0H628z" transform="scale(.01563)"/><path id="DejaVuSans-63" d="M3122 3366v-538q-244 135-489 202t-495 67q-560 0-870-355-309-354-309-995t309-996q310-354 870-354 250 0 495 67t489 202V134Q2881 22 2623-34q-257-57-548-57-791 0-1257 497-465 497-465 1341 0 856 470 1346 471 491 1290 491 265 0 518-55 253-54 491-163" transform="scale(.01563)"/></defs><use xlink:href="#DejaVuSans-4c"/><use xlink:href="#DejaVuSans-69" transform="translate(55.713)"/><use xlink:href="#DejaVuSans-6b" transform="translate(83.496)"/><use xlink:href="#DejaVuSans-65" transform="translate(137.781)"/><use xlink:href="#DejaVuSans-6c" transform="translate(199.305)"/><use xlink:href="#DejaVuSans-69" transform="translate(227.088)"/><use xlink:href="#DejaVuSans-68" transform="translate(254.871)"/><use xlink:href="#DejaVuSans-6f" transform="translate(318.25)"/><use xlink:href="#DejaVuSans-6f" transform="translate(379.432)"/><use xlink:href="#DejaVuSans-64" transform="translate(440.613)"/><use xlink:href="#DejaVuSans-46" transform="translate(535.877)"/><use xlink:href="#DejaVuSans-75" transform="translate(587.896)"/><use xlink:href="#DejaVuSans-6e" transform="translate(651.275)"/><use xlink:href="#DejaVuSans-63" transform="translate(714.654)"/><use xlink:href="#DejaVuSans-74" transform="translate(769.635)"/><use xlink:href="#DejaVuSans-69" transform="translate(808.844)"/><use xlink:href="#DejaVuSans-6f" transform="translate(836.627)"/><use xlink:href="#DejaVuSans-6e" transform="translate(897.809)"/></g></g><g id="axes_3"><path d="M318.6 299.029h93.979V32.917H318.6z" class="patch" style="fill:none"/><g class="axis"><g class="tick xtick"><path id="line2d_43" d="M322.872 299.029V32.917" clip-path="url(#p4325a8bbf3)" style="fill:none;stroke:#b0b0b0;stroke-opacity:.15;stroke-width:.8;stroke-linecap:square"/><use xlink:href="#m5a626c061c" id="line2d_44" x="322.872" y="299.029" style="stroke:var(--black);stroke-width:.8"/><g id="text_28" class="text" transform="matrix(.09 0 0 -.09 315.715 312.867)"><use xlink:href="#DejaVuSans-30"/><use xlink:href="#DejaVuSans-2e" transform="translate(63.623)"/><use xlink:href="#DejaVuSans-30" transform="translate(95.41)"/></g></g><g class="tick xtick"><path id="line2d_45" d="M365.59 299.029V32.917" clip-path="url(#p4325a8bbf3)" style="fill:none;stroke:#b0b0b0;stroke-opacity:.15;stroke-width:.8;stroke-linecap:square"/><use xlink:href="#m5a626c061c" id="line2d_46" x="365.589" y="299.029" style="stroke:var(--black);stroke-width:.8"/><g id="text_29" class="text" transform="matrix(.09 0 0 -.09 358.433 312.867)"><use xlink:href="#DejaVuSans-30"/><use xlink:href="#DejaVuSans-2e" transform="translate(63.623)"/><use xlink:href="#DejaVuSans-35" transform="translate(95.41)"/></g></g><g class="tick xtick"><path id="line2d_47" d="M408.307 299.029V32.917" clip-path="url(#p4325a8bbf3)" style="fill:none;stroke:#b0b0b0;stroke-opacity:.15;stroke-width:.8;stroke-linecap:square"/><use xlink:href="#m5a626c061c" id="line2d_48" x="408.307" y="299.029" style="stroke:var(--black);stroke-width:.8"/><g id="text_30" class="text" transform="matrix(.09 0 0 -.09 401.15 312.867)"><use xlink:href="#DejaVuSans-31"/><use xlink:href="#DejaVuSans-2e" transform="translate(63.623)"/><use xlink:href="#DejaVuSans-30" transform="translate(95.41)"/></g></g><use xlink:href="#DejaVuSans-Oblique-3bc" id="text_31" class="text" transform="matrix(.1 0 0 -.1 362.39 326.286)"/></g><g class="axis"><g class="tick ytick"><path id="line2d_49" d="M318.6 286.933h93.979" clip-path="url(#p4325a8bbf3)" style="fill:none;stroke:#b0b0b0;stroke-opacity:.15;stroke-width:.8;stroke-linecap:square"/><use xlink:href="#me53bc9ce65" id="line2d_50" x="318.6" y="286.933" style="stroke:var(--black);stroke-width:.8"/><g id="text_32" class="text" transform="matrix(.09 0 0 -.09 297.287 290.352)"><use xlink:href="#DejaVuSans-30"/><use xlink:href="#DejaVuSans-2e" transform="translate(63.623)"/><use xlink:href="#DejaVuSans-30" transform="translate(95.41)"/></g></g><g class="tick ytick"><path id="line2d_51" d="M318.6 237.714h93.979" clip-path="url(#p4325a8bbf3)" style="fill:none;stroke:#b0b0b0;stroke-opacity:.15;stroke-width:.8;stroke-linecap:square"/><use xlink:href="#me53bc9ce65" id="line2d_52" x="318.6" y="237.714" style="stroke:var(--black);stroke-width:.8"/><g id="text_33" class="text" transform="matrix(.09 0 0 -.09 297.287 241.133)"><use xlink:href="#DejaVuSans-30"/><use xlink:href="#DejaVuSans-2e" transform="translate(63.623)"/><use xlink:href="#DejaVuSans-35" transform="translate(95.41)"/></g></g><g class="tick ytick"><path id="line2d_53" d="M318.6 188.495h93.979" clip-path="url(#p4325a8bbf3)" style="fill:none;stroke:#b0b0b0;stroke-opacity:.15;stroke-width:.8;stroke-linecap:square"/><use xlink:href="#me53bc9ce65" id="line2d_54" x="318.6" y="188.495" style="stroke:var(--black);stroke-width:.8"/><g id="text_34" class="text" transform="matrix(.09 0 0 -.09 297.287 191.914)"><use xlink:href="#DejaVuSans-31"/><use xlink:href="#DejaVuSans-2e" transform="translate(63.623)"/><use xlink:href="#DejaVuSans-30" transform="translate(95.41)"/></g></g><g class="tick ytick"><path id="line2d_55" d="M318.6 139.276h93.979" clip-path="url(#p4325a8bbf3)" style="fill:none;stroke:#b0b0b0;stroke-opacity:.15;stroke-width:.8;stroke-linecap:square"/><use xlink:href="#me53bc9ce65" id="line2d_56" x="318.6" y="139.276" style="stroke:var(--black);stroke-width:.8"/><g id="text_35" class="text" transform="matrix(.09 0 0 -.09 297.287 142.695)"><use xlink:href="#DejaVuSans-31"/><use xlink:href="#DejaVuSans-2e" transform="translate(63.623)"/><use xlink:href="#DejaVuSans-35" transform="translate(95.41)"/></g></g><g class="tick ytick"><path id="line2d_57" d="M318.6 90.057h93.979" clip-path="url(#p4325a8bbf3)" style="fill:none;stroke:#b0b0b0;stroke-opacity:.15;stroke-width:.8;stroke-linecap:square"/><use xlink:href="#me53bc9ce65" id="line2d_58" x="318.6" y="90.057" style="stroke:var(--black);stroke-width:.8"/><g id="text_36" class="text" transform="matrix(.09 0 0 -.09 297.287 93.476)"><use xlink:href="#DejaVuSans-32"/><use xlink:href="#DejaVuSans-2e" transform="translate(63.623)"/><use xlink:href="#DejaVuSans-30" transform="translate(95.41)"/></g></g><g class="tick ytick"><path id="line2d_59" d="M318.6 40.838h93.979" clip-path="url(#p4325a8bbf3)" style="fill:none;stroke:#b0b0b0;stroke-opacity:.15;stroke-width:.8;stroke-linecap:square"/><use xlink:href="#me53bc9ce65" id="line2d_60" x="318.6" y="40.838" style="stroke:var(--black);stroke-width:.8"/><g id="text_37" class="text" transform="matrix(.09 0 0 -.09 297.287 44.257)"><use xlink:href="#DejaVuSans-32"/><use xlink:href="#DejaVuSans-2e" transform="translate(63.623)"/><use xlink:href="#DejaVuSans-35" transform="translate(95.41)"/></g></g><g id="text_38" class="text" transform="matrix(0 -.1 -.1 0 291.207 184.981)"><use xlink:href="#DejaVuSans-44"/><use xlink:href="#DejaVuSans-65" transform="translate(77.002)"/><use xlink:href="#DejaVuSans-6e" transform="translate(138.525)"/><use xlink:href="#DejaVuSans-73" transform="translate(201.904)"/><use xlink:href="#DejaVuSans-69" transform="translate(254.004)"/><use xlink:href="#DejaVuSans-74" transform="translate(281.787)"/><use xlink:href="#DejaVuSans-79" transform="translate(320.996)"/></g></g><path id="line2d_61" d="m322.872 286.933 6.638-.1 2.57-.256 2.14-.442 1.713-.57 1.713-.817 1.5-.962 1.498-1.233 1.499-1.54 1.499-1.888 1.499-2.27 1.498-2.69 1.5-3.142 1.498-3.625 1.713-4.771 1.713-5.474 1.713-6.204 1.927-7.876 1.927-8.836 2.142-10.935 2.14-12.074 2.356-14.51 2.784-18.605 3.426-24.548 8.993-65.412 2.141-13.553 1.713-9.571 1.5-7.182 1.284-5.089 1.07-3.37.857-2.06.856-1.439.643-.64.428-.203.428-.02.429.175.428.374.642.953.643 1.445.642 1.964.856 3.472.857 4.508.856 5.612 1.071 8.676 1.07 10.655 1.071 12.782 1.285 18.366 1.285 21.932 1.285 25.792 1.284 29.957 1.5 40.64 1.498 47.276.214 7.328h0" clip-path="url(#p4325a8bbf3)" style="fill:none;stroke:green;stroke-width:2;stroke-linecap:square"/><path d="M318.6 299.029V32.917M318.6 299.029h93.979" class="patch" style="fill:none;stroke:var(--black);stroke-width:.8;stroke-linejoin:miter;stroke-linecap:square"/><g id="text_39" class="text" transform="matrix(.12 0 0 -.12 302.168 26.917)"><use xlink:href="#DejaVuSans-50"/><use xlink:href="#DejaVuSans-6f" transform="translate(56.678)"/><use xlink:href="#DejaVuSans-73" transform="translate(117.86)"/><use xlink:href="#DejaVuSans-74" transform="translate(169.959)"/><use xlink:href="#DejaVuSans-65" transform="translate(209.168)"/><use xlink:href="#DejaVuSans-72" transform="translate(270.691)"/><use xlink:href="#DejaVuSans-69" transform="translate(311.805)"/><use xlink:href="#DejaVuSans-6f" transform="translate(339.588)"/><use xlink:href="#DejaVuSans-72" transform="translate(400.77)"/><use xlink:href="#DejaVuSans-44" transform="translate(473.67)"/><use xlink:href="#DejaVuSans-69" transform="translate(550.672)"/><use xlink:href="#DejaVuSans-73" transform="translate(578.455)"/><use xlink:href="#DejaVuSans-74" transform="translate(630.555)"/><use xlink:href="#DejaVuSans-72" transform="translate(669.764)"/><use xlink:href="#DejaVuSans-69" transform="translate(710.877)"/><use xlink:href="#DejaVuSans-62" transform="translate(738.66)"/><use xlink:href="#DejaVuSans-75" transform="translate(802.137)"/><use xlink:href="#DejaVuSans-74" transform="translate(865.516)"/><use xlink:href="#DejaVuSans-69" transform="translate(904.725)"/><use xlink:href="#DejaVuSans-6f" transform="translate(932.508)"/><use xlink:href="#DejaVuSans-6e" transform="translate(993.69)"/></g></g></g><defs><clipPath id="pf867b61ad6"><path d="M55.459 32.917h93.979v266.112H55.459z"/></clipPath><clipPath id="p796be21f8b"><path d="M187.029 32.917h93.979v266.112h-93.979z"/></clipPath><clipPath id="p4325a8bbf3"><path d="M318.6 32.917h93.979v266.112H318.6z"/></clipPath></defs></svg>