<svg xmlns="http://www.w3.org/2000/svg" xmlns:xlink="http://www.w3.org/1999/xlink" width="608.658" height="445.358" style="--axis-color:#000;--grid-stroke:rgba(0,0,0,0.2);--plot3d-stroke:rgba(0,0,0,0.3);--plot3d-grid:rgba(0,0,0,0.2)" viewBox="0 0 456.493 334.019"><style><![CDATA[@media (prefers-color-scheme:dark){:root{--axis-color:#fff;--grid-stroke:rgba(255,255,255,0.2);--plot3d-stroke:rgba(255,255,255,0.3);--plot3d-grid:rgba(255,255,255,0.2)}}.text{fill:var(--axis-color)!important;stroke:none!important}.axis path,.patch path[style*="stroke: currentColor"],.tick path{stroke:var(--axis-color)!important}@media (prefers-color-scheme:dark){g.legend>g:first-child>path:first-child{fill:rgba(26,26,26,.8)!important;stroke:rgba(255,255,255,.1)!important}}*{stroke-linejoin:round;stroke-linecap:butt}]]></style><g id="figure_1"><path d="M0 334.019h456.493V0H0z" class="patch" style="fill:none"/><g id="axes_1"><path d="M49.687 297.43h357.12V31.318H49.687z" class="patch" style="fill:none"/><g class="axis"><g class="tick xtick"><path id="line2d_1" d="M65.92 297.43V31.318" clip-path="url(#p150600fe92)" style="fill:none;stroke:#b0b0b0;stroke-opacity:.15;stroke-width:.8;stroke-linecap:square"/><g id="line2d_2"><defs><path id="mfe77caace6" d="M0 0v3.5" style="stroke:currentColor;stroke-width:.8"/></defs><use xlink:href="#mfe77caace6" x="65.919" y="297.43" style="stroke:currentColor;stroke-width:.8"/></g><g id="text_1" class="text" transform="matrix(.09 0 0 -.09 63.056 311.269)"><defs><path id="DejaVuSans-30" d="M2034 4250q-487 0-733-480-245-479-245-1442 0-959 245-1439 246-480 733-480 491 0 736 480 246 480 246 1439 0 963-246 1442-245 480-736 480zm0 500q785 0 1199-621 414-620 414-1801 0-1178-414-1799Q2819-91 2034-91q-784 0-1198 620-414 621-414 1799 0 1181 414 1801 414 621 1198 621z" transform="scale(.01563)"/></defs><use xlink:href="#DejaVuSans-30"/></g></g><g class="tick xtick"><path id="line2d_3" d="M130.85 297.43V31.318" clip-path="url(#p150600fe92)" style="fill:none;stroke:#b0b0b0;stroke-opacity:.15;stroke-width:.8;stroke-linecap:square"/><use xlink:href="#mfe77caace6" id="line2d_4" x="130.85" y="297.43" style="stroke:currentColor;stroke-width:.8"/><g id="text_2" class="text" transform="matrix(.09 0 0 -.09 127.987 311.269)"><defs><path id="DejaVuSans-31" d="M794 531h1031v3560L703 3866v575l1116 225h631V531h1031V0H794z" transform="scale(.01563)"/></defs><use xlink:href="#DejaVuSans-31"/></g></g><g class="tick xtick"><path id="line2d_5" d="M195.781 297.43V31.318" clip-path="url(#p150600fe92)" style="fill:none;stroke:#b0b0b0;stroke-opacity:.15;stroke-width:.8;stroke-linecap:square"/><use xlink:href="#mfe77caace6" id="line2d_6" x="195.781" y="297.43" style="stroke:currentColor;stroke-width:.8"/><g id="text_3" class="text" transform="matrix(.09 0 0 -.09 192.918 311.269)"><defs><path id="DejaVuSans-32" d="M1228 531h2203V0H469v531q359 372 979 998 621 627 780 809 303 340 423 576 121 236 121 464 0 372-261 606-261 235-680 235-297 0-627-103-329-103-704-313v638q381 153 712 231 332 78 607 78 725 0 1156-363 431-362 431-968 0-288-108-546-107-257-392-607-78-91-497-524-418-433-1181-1211z" transform="scale(.01563)"/></defs><use xlink:href="#DejaVuSans-32"/></g></g><g class="tick xtick"><path id="line2d_7" d="M260.712 297.43V31.318" clip-path="url(#p150600fe92)" style="fill:none;stroke:#b0b0b0;stroke-opacity:.15;stroke-width:.8;stroke-linecap:square"/><use xlink:href="#mfe77caace6" id="line2d_8" x="260.712" y="297.43" style="stroke:currentColor;stroke-width:.8"/><g id="text_4" class="text" transform="matrix(.09 0 0 -.09 257.849 311.269)"><defs><path id="DejaVuSans-33" d="M2597 2516q453-97 707-404 255-306 255-756 0-690-475-1069Q2609-91 1734-91q-293 0-604 58T488 141v609q262-153 574-231 313-78 654-78 593 0 904 234t311 681q0 413-289 645-289 233-804 233h-544v519h569q465 0 712 186t247 536q0 359-255 551-254 193-729 193-260 0-557-57-297-56-653-174v562q360 100 674 150t592 50q719 0 1137-327 419-326 419-882 0-388-222-655t-631-370z" transform="scale(.01563)"/></defs><use xlink:href="#DejaVuSans-33"/></g></g><g class="tick xtick"><path id="line2d_9" d="M325.643 297.43V31.318" clip-path="url(#p150600fe92)" style="fill:none;stroke:#b0b0b0;stroke-opacity:.15;stroke-width:.8;stroke-linecap:square"/><use xlink:href="#mfe77caace6" id="line2d_10" x="325.643" y="297.43" style="stroke:currentColor;stroke-width:.8"/><g id="text_5" class="text" transform="matrix(.09 0 0 -.09 322.78 311.269)"><defs><path id="DejaVuSans-34" d="M2419 4116 825 1625h1594zm-166 550h794V1625h666v-525h-666V0h-628v1100H313v609z" transform="scale(.01563)"/></defs><use xlink:href="#DejaVuSans-34"/></g></g><g class="tick xtick"><path id="line2d_11" d="M390.574 297.43V31.318" clip-path="url(#p150600fe92)" style="fill:none;stroke:#b0b0b0;stroke-opacity:.15;stroke-width:.8;stroke-linecap:square"/><use xlink:href="#mfe77caace6" id="line2d_12" x="390.574" y="297.43" style="stroke:currentColor;stroke-width:.8"/><g id="text_6" class="text" transform="matrix(.09 0 0 -.09 387.71 311.269)"><defs><path id="DejaVuSans-35" d="M691 4666h2478v-532H1269V2991q137 47 274 70 138 23 276 23 781 0 1237-428 457-428 457-1159 0-753-469-1171Q2575-91 1722-91q-294 0-599 50Q819 9 494 109v635q281-153 581-228t634-75q541 0 856 284 316 284 316 772 0 487-316 771-315 285-856 285-253 0-505-56-251-56-513-175z" transform="scale(.01563)"/></defs><use xlink:href="#DejaVuSans-35"/></g></g><g id="text_7" class="text" transform="matrix(.1 0 0 -.1 185.007 324.739)"><defs><path id="DejaVuSans-54" d="M-19 4666h3947v-532H2272V0h-634v4134H-19z" transform="scale(.01563)"/><path id="DejaVuSans-69" d="M603 3500h575V0H603zm0 1363h575v-729H603z" transform="scale(.01563)"/><path id="DejaVuSans-6d" d="M3328 2828q216 388 516 572t706 184q547 0 844-383 297-382 297-1088V0h-578v2094q0 503-179 746-178 244-543 244-447 0-707-297-259-296-259-809V0h-578v2094q0 506-178 748t-550 242q-441 0-701-298-259-298-259-808V0H581v3500h578v-544q197 322 472 475t653 153q382 0 649-194 267-193 395-562z" transform="scale(.01563)"/><path id="DejaVuSans-65" d="M3597 1894v-281H953q38-594 358-905t892-311q331 0 642 81t618 244V178Q3153 47 2828-22t-659-69q-838 0-1327 487-489 488-489 1320 0 859 464 1363 464 505 1252 505 706 0 1117-455 411-454 411-1235zm-575 169q-6 471-264 752-258 282-683 282-481 0-770-272t-333-766z" transform="scale(.01563)"/><path id="DejaVuSans-74" d="M1172 4494v-994h1184v-447H1172V1153q0-428 117-550t477-122h590V0h-590q-666 0-919 248-253 249-253 905v1900H172v447h422v994z" transform="scale(.01563)"/><path id="DejaVuSans-28" d="M1984 4856q-418-718-622-1422-203-703-203-1425 0-721 205-1429t620-1424h-500Q1016-109 783 600T550 2009q0 697 231 1403 232 707 703 1444z" transform="scale(.01563)"/><path id="DejaVuSans-72" d="M2631 2963q-97 56-211 82-114 27-251 27-488 0-749-317t-261-911V0H581v3500h578v-544q182 319 472 473 291 155 707 155 59 0 131-8 72-7 159-23z" transform="scale(.01563)"/><path id="DejaVuSans-76" d="M191 3500h609L1894 563l1094 2937h609L2284 0h-781z" transform="scale(.01563)"/><path id="DejaVuSans-73" d="M2834 3397v-544q-243 125-506 187-262 63-544 63-428 0-642-131t-214-394q0-200 153-314t616-217l197-44q612-131 870-370t258-667q0-488-386-773Q2250-91 1575-91q-281 0-586 55T347 128v594q319-166 628-249 309-82 613-82 406 0 624 139 219 139 219 392 0 234-158 359-157 125-692 241l-200 47q-534 112-772 345-237 233-237 639 0 494 350 762 350 269 994 269 318 0 599-47 282-46 519-140z" transform="scale(.01563)"/><path id="DejaVuSans-64" d="M2906 2969v1894h575V0h-575v525q-181-312-458-464-276-152-664-152-634 0-1033 506-398 507-398 1332t398 1331q399 506 1033 506 388 0 664-152 277-151 458-463zM947 1747q0-634 261-995t717-361 718 361q263 361 263 995t-263 995q-262 361-718 361t-717-361-261-995z" transform="scale(.01563)"/><path id="DejaVuSans-29" d="M513 4856h500q468-737 701-1444 233-706 233-1403 0-700-233-1409T1013-844H513q415 716 620 1424t205 1429q0 722-205 1425-205 704-620 1422z" transform="scale(.01563)"/></defs><use xlink:href="#DejaVuSans-54"/><use xlink:href="#DejaVuSans-69" transform="translate(57.959)"/><use xlink:href="#DejaVuSans-6d" transform="translate(85.742)"/><use xlink:href="#DejaVuSans-65" transform="translate(183.154)"/><use xlink:href="#DejaVuSans-74" transform="translate(276.465)"/><use xlink:href="#DejaVuSans-28" transform="translate(347.46)"/><use xlink:href="#DejaVuSans-72" transform="translate(386.475)"/><use xlink:href="#DejaVuSans-65" transform="translate(425.338)"/><use xlink:href="#DejaVuSans-76" transform="translate(486.861)"/><use xlink:href="#DejaVuSans-65" transform="translate(546.041)"/><use xlink:href="#DejaVuSans-72" transform="translate(607.564)"/><use xlink:href="#DejaVuSans-73" transform="translate(648.678)"/><use xlink:href="#DejaVuSans-65" transform="translate(700.777)"/><use xlink:href="#DejaVuSans-64" transform="translate(762.3)"/><use xlink:href="#DejaVuSans-29" transform="translate(825.777)"/></g></g><g class="axis"><g class="tick ytick"><path id="line2d_13" d="M49.687 270.819h357.12" clip-path="url(#p150600fe92)" style="fill:none;stroke:#b0b0b0;stroke-opacity:.15;stroke-width:.8;stroke-linecap:square"/><g id="line2d_14"><defs><path id="mfdd6fc7ca9" d="M0 0h-3.5" style="stroke:currentColor;stroke-width:.8"/></defs><use xlink:href="#mfdd6fc7ca9" x="49.687" y="270.819" style="stroke:currentColor;stroke-width:.8"/></g><g id="text_8" class="text" transform="matrix(.09 0 0 -.09 29.419 274.238)"><defs><path id="DejaVuSans-2212" d="M678 2272h4006v-531H678z" transform="scale(.01563)"/></defs><use xlink:href="#DejaVuSans-2212"/><use xlink:href="#DejaVuSans-32" transform="translate(83.79)"/></g></g><g class="tick ytick"><path id="line2d_15" d="M49.687 217.597h357.12" clip-path="url(#p150600fe92)" style="fill:none;stroke:#b0b0b0;stroke-opacity:.15;stroke-width:.8;stroke-linecap:square"/><use xlink:href="#mfdd6fc7ca9" id="line2d_16" x="49.687" y="217.597" style="stroke:currentColor;stroke-width:.8"/><g id="text_9" class="text" transform="matrix(.09 0 0 -.09 29.419 221.016)"><use xlink:href="#DejaVuSans-2212"/><use xlink:href="#DejaVuSans-31" transform="translate(83.79)"/></g></g><g class="tick ytick"><path id="line2d_17" d="M49.687 164.374h357.12" clip-path="url(#p150600fe92)" style="fill:none;stroke:#b0b0b0;stroke-opacity:.15;stroke-width:.8;stroke-linecap:square"/><use xlink:href="#mfdd6fc7ca9" id="line2d_18" x="49.687" y="164.374" style="stroke:currentColor;stroke-width:.8"/><use xlink:href="#DejaVuSans-30" id="text_10" class="text" transform="matrix(.09 0 0 -.09 36.96 167.793)"/></g><g class="tick ytick"><path id="line2d_19" d="M49.687 111.152h357.12" clip-path="url(#p150600fe92)" style="fill:none;stroke:#b0b0b0;stroke-opacity:.15;stroke-width:.8;stroke-linecap:square"/><use xlink:href="#mfdd6fc7ca9" id="line2d_20" x="49.687" y="111.152" style="stroke:currentColor;stroke-width:.8"/><use xlink:href="#DejaVuSans-31" id="text_11" class="text" transform="matrix(.09 0 0 -.09 36.96 114.571)"/></g><g class="tick ytick"><path id="line2d_21" d="M49.687 57.93h357.12" clip-path="url(#p150600fe92)" style="fill:none;stroke:#b0b0b0;stroke-opacity:.15;stroke-width:.8;stroke-linecap:square"/><use xlink:href="#mfdd6fc7ca9" id="line2d_22" x="49.687" y="57.929" style="stroke:currentColor;stroke-width:.8"/><use xlink:href="#DejaVuSans-32" id="text_12" class="text" transform="matrix(.09 0 0 -.09 36.96 61.349)"/></g><g id="text_13" class="text" transform="matrix(0 -.1 -.1 0 23.339 173.195)"><defs><path id="DejaVuSans-78" d="M3513 3500 2247 1797 3578 0h-678L1881 1375 863 0H184l1360 1831L300 3500h678l928-1247 928 1247z" transform="scale(.01563)"/></defs><use xlink:href="#DejaVuSans-78"/><use xlink:href="#DejaVuSans-28" transform="translate(59.18)"/><use xlink:href="#DejaVuSans-74" transform="translate(98.193)"/><use xlink:href="#DejaVuSans-29" transform="translate(137.402)"/></g></g><path id="line2d_23" d="m65.92 164.374.65-1.322.65.359.651-1.73.65-4.072 1.302 1.155.65-4.241.651-2.112.65 1.166.651-1.52 1.302 2.309.65-.714 1.301 9.567.651 1.488.65 2.697.651-.815.65 2.432.651 3.791.651-3.841.65.633.651-.143.65 3.827.652 1.51.65-.221.65 3.134.651-.906.651 1.685.65.875.651 1.706.65-4.812.651.119.651 2.899.65-2.085.651 3.339.65-.443.651 5.325.651 3.682.65-.351.651-1.795.65-.298.652.464.65.96.65 4.1.651 2.111.651 1.435.65-2.594.651-.713.65 4.888.651-.632.651 1.251.65 2.036.651-1.378 1.301-4.76.651 2.439.65 1.046.651-.651.65-2.37.652 1.484.65.714 1.301 6.599.651-1.892.65-3.35.651.425.65-2.433.651-.743.651 1.932.65-.733.651-3.87.65.292.651-3.965.651 7.142.65-1.967.651-.025.65 1.003.652-.03.65 5.502.65.836.651-.692.65-3.68.652 1.606.65 2.39.65 1.59.651-2.17.651-.623.65 1.657.651-1.108.65-.008.651-2.327.651 2.103 1.301 2.421.65 4.16 1.302-.896.65.276.651.915.65 4.063 1.302 2.693.65 2.48.651.79.651-.708.65-4.657.651-.135.65-.356.651.524.651 5.436.65.439.651.21.65-6.182.651.841.651-.467.65.424.651 3.445.65-2.682 1.302-3.437.65 2.736.651-3.398.651 4.042.65-1.222.651-5.497.65 2.928.651 1.82.651.061.65 1.667.651 4.464.65.187.651 3.198.651-.868.65 2.834.651-3.718.65 2.466.652 1.255.65-1.758.65 3.67.651-.185.651-3.06.65 4.675.651-.06.65-.263.651-1.652 1.302 7.664.65-.919 1.952-.994.65 2.267.651-.146.65-.308.651 2.37.651-4.48.65-.805.651 3.619.65-1.273.652 3.059.65-1.608.65-2.607.651 2.64.651-2.087.65-.637.651-1.731.65-4.603.651 1.065 1.302 5.23.65 2.627.65.68.651-.428.651-.26.65-1.727.651.428.65-3.402.652 1.146.65-6.789.65-1.262.651 2.674.651 3.262.65-.849.651 1.024.65-1.464.651-.833.651.614.65 2.678.651 4.474.65 1.663.651-1.792.651-.097.65 3.788.651.04.65-.526.652 2.848.65.107.65.362.651 3.56.651-.407.65-.951 1.302-4.634.65 4.169.651 3.027 1.952-2.468.65-9.717.651-1.052.65-2.562.651-2.096.65-1.306.652 1.257.65-1.593.65 2.473.651 1.063.65 1.732.652.235.65-5.705.65 5.384.651-1.374.651 4.734.65 1.731.651-2.41.65.3.651 3.341.651 2.4.65-1.295.651 2.448.65-.055.651.4.651 2.258.65-5.166.651-1.184.65 5.884.652.04.65 2.298.65-1.716.651 2.65.651.865.65-.78.651-1.743.65 3.742.651 1.463.651 1.848.65 2.336.651-4.085.65-.493.651 3.937.651-1.834.65-5.051.651-2.187.65 4.588.652 1.866.65-2.78.65 2.453.651-.592.651-1.478.65 3.04.651.754.65 9.226.651 3.39.651 1.361.65 4.019.651-3.618.65 4.507.651 1.903.651.398.65-3.087.651 4.548.65-2.336.652.715.65 3.36.65-.46.651.238.651 2.367.65.6.651 1.816.65.5.651-.955.651-3.42.65 4.069.651-4.872.65 5.965.651 1.215.651-.745.65.068.651 2.472.65 1.387 1.302 4.581.65-1.386.651-.085.65 2.708.652-1.51.65.055.65-1.29.651-.812.651 3.065.65 2.37.651-1.091.65-.736.651.94.651.578.65-2.506.651 2.451.65-.562 1.302 2.908.65-2.014 1.302-2.578.65-2.595.651.804.65-.95.651 1.686.651.008.65 1.217.651.621.65-.7.651 3.057.651-4.668 1.301 7.668.65-2.16.651-1.2 1.302-1.544.65.92.65 3.281.652.715.65 2.723.65-1.654.651 1.32.651 3.135.65 1.815.651-.126.65 2.472.651 3.177 1.302.725 1.3 4.652.651.432 1.302 9.737.65 3.033.65 1.71.652.325.65-2.77.65-1.146.651 1.554.65 1.19.652 3.815.65 1.223.558 1.675h0" clip-path="url(#p150600fe92)" style="fill:none;stroke:#ff0001;stroke-width:1.2;stroke-linecap:square"/><path id="line2d_24" d="m65.92 164.374.65-.685.65 2.413.651 1.02.65 1.442.651-2.254.651 1.112.65-1.304.651-5.337.65-3.386.651 1.12.651.881.65-1.247.651 4.397.65 2.282.651-1.309.651.325.65-5.153.651 1.606 1.301 5.115.651-.03.65.435.651-5.925.65 1.03.652-.169.65-2.378.65.246.651-1.52.651-1.101.65-2.287.651 3.672.65-2.198.651.303.651-.56.65.963.651-4.474.65 5.356.651-3.777.651 1.728.65-4.137 1.302-6.167.65-2.343.651-6.187 1.952 4.306.65-2.631.651 3.27.65-2.856.651.583 1.302 5.366.65 1.977.65 3.825.651-1.47 1.302-5.06.65 1.519.65-.957.652-.159.65-1.985.65-1.343.651-.41.651 4.774.65.306.651-.431.65 1.71.651.589.651 3.334.65.755.651-1.44.65-5.664.651 2.551.651-.062.65 2.432.651.136.65.487 1.302-5.035.65-.574.651.16.65-3.3.652-.645.65-4.207.65 4.148.651-4.913.651 1.438.65 2.695.651-.058.65 2.92.651-1.67.651 1.062.65-.926.651 2.433.65.442.651-.406.651.351.65-4.383.651-1.737.65-.733.652 4.745.65-1.17.65-3.46.651 1.642.651.344.65 7.87.651 3.19.65 5.442.651-.343 1.302.548.65 1.099.65-2.769.651 3.205.651.144.65-1.64.651.414.65.18.652 2.137.65.846.65-1.95.651 5.321.651.406.65 1.542.651.185.65-4.718.651 1.155.651-3.989.65-2.981.651-.154.65-.307.651-.559.651 2.115.65-1.735.651 1.552.65-.163.652 5.775.65 2.27.65-1.437.651 2.967.651-.89.65 1.341.651-2.633.65-3.365.651-.513.651-.004.65-.152.651.012.65-3.217.651-6.733.651 3.434.65 2.645.651-3.7.65 2.942.651 3.573.651-5.681 1.301 1.215.65 1.27.652-1.622.65 2.93.65-4.788.651-2.104.651.024.65 1.354.651-.392.65-2.885.651-7.093.651-4.192.65-2.902.651-.34.65-3.51.651.669.651-1.133.65-3.372.651-1.895.65 1.475.652 3.796.65-1.591.65-.627.651-2.747.651-.445.65.715 1.302-6.057.65 5.28.651 3.748.65-.614.651-.1.65.224.651-2.465.651-5.653.65 2.416 1.302-.378.65-.861.651 2.935.65-1.544.651-.41.651-5.739.65-1.378.651 1.5.65 3.631.651-.067.651 1.666.65.811.651-1.23 1.301-1.788.651-4.037.65-1.446.651-7.592.65-.853.652.653 1.3 6.657.651-2.792.65-2.125.652-.174.65.183.65 1.949.651.043.651-.727.65 4.965.651-2.299.65 5.01.651-1.247.651-.24.65-1.138.651 1.357.65-4.866 1.302-4.404.65.052.651-.224.65-2.782 1.302-8.108.65-.378.651-.655.651-1.39.65.178.651 1.37.65-.95 1.302-3.694.65-.34.651 1.21 1.301-3.477.651 1.887 1.301-5.659.65-.473 1.302 5.412.65-1.707.651.836.651.174.65 2.449.651-2.73.65 4.478.651-.399.651-1.473 1.301-4.005.65 2.679.651.55.651 1.436.65 2.585.651 4.168.65-1.76.652-3.638.65.996.65-2.558.651-1.964.651 1.857.65-.231.651-.649.65-2.51.651-.852.651 4.073.65-5.41.651-1.61.65 2.058.651 3.519.651 1.772.65.397.651 1.275.65.741.652 2.195.65-1.981.65 2.273.651-1.935.65-2.32.652 3.47.65.75.65-2.92.651-.942.651-2.834.65-3.432.651 2.427.65.606.651-1.32.651.194.65-1.437.651-4.46.65-.054.651-1.167.651-.254.65 4.882.651 1.676.65.028.652.686.65-2.644.65-3.424.651 1.276.651-3.402.65.812.651-1.384.65.466.651 3.004.651 1.52.65 3.845.651-2.68.65-4.164.651-2.995.651.218.65-2.47.651 4.572.65-3.334.652-5.558.65-2.44.65.669.651-2.902.651-.852.65 2.064.651 2.923.65-.055.651-.735.651 6.185.65-8.382.651.487.65-4.143.651-.79.651-4.101.65-6.655.651.654.65.117.652-2.378.65-3.42.65-1.413.651-.411.65 2.875.652-1.065.65 1.9.65-.831.651-4.058 1.302-3.684.65 3.243.65-2.14.651.549.651 4.303.65-4.365.651-.196.65-.983.651-2.14.651-4.247.65 1.08.651-4.801.65-.836.652 1.181.65-1.243.65.733.651-.681.651-4.966.65 4.037 1.302-2.071.65-.142.651.258.65-2.792.651.612.65 6.707.651 3.069.651-.103.65-3.338.651-2.427.65 4.776.652-2.409.65-1.238 1.301.843.651-2.514.65-1.748 1.302 3.63.65-1.254.651-5.898.65-3.804.651-2.617.65 1.786.651 1.126 1.302-5.975.65 1.077.65-.621.652 1.158.65.48.65-3.738.651-.333.651 1.384.65 2.872.651-.669.65-.24.651-4.91.651 1.168.65 1.456.651-2.75.65-1.68.651-1.098.651-1.55.65.098.651-1.334.502-2.447m.408 0 .392 1.098.203-1.098h0" clip-path="url(#p150600fe92)" style="fill:none;stroke:#00ff02;stroke-width:1.2;stroke-linecap:square"/><path id="line2d_25" d="m65.92 164.374.65 1.998 1.301-6.816 1.952 12.727.65-4.89.651-.213.65.16.651-1.458.651 2.574.65.508.651 3.182.65-1.557.651 2.576.651-.899.65-2.767.651.348.65-2.16 1.302 6.457.65-.516.651.631.65 3.825.652 1.382.65-3.093.65 1.962.651.031.651 1.139.65-.408.651-.827 1.301-2.773.651-2.119.65-1.07.651-.466.65 1.42.651 8.242.651 1.172 1.301 4.26.65 4.781.652-1.807.65 5.14.65-.9.651.835.651-.936.65-2.108.651-5.152.65-3.494.651-2.684.651-3.733 1.301-.195.65 1.364.651-.704.651-2.871 1.301.195.65 1.772.652-4.16.65.006.65-1.438.651.573.651-1.183.65 4.882.651-.279.65 1.715.651-3.395.651-2.004.65.793.651 1.98.65 2.577.651-1.41.651 1.919.65-4.44.651 2.856.65 1.837.652 2.78.65 3.992.65-.901.651 2.288.65-2.934.652.043.65 5.175.65 2.465.651.333.651-3.093.65 1.58.651 1.067.65 4.32.651-3.033.651 6.197.65-.356.651.376.65-.516.651-1.364.651-2.514.65.183.651 4.869.65-3.886.652 1.927.65-2.117.65 1.056.651-1.72.651.379.65 1.406.651-2.055.65 6.95.651 1.282.651.315.65-.58.651 1.934.65 5.54.651-.427.651 3.597.65-1.193.651-.524.65.53.652-3.607.65-2.704.65 3.166.651 5.228.651-3.209.65-5.647.651 2.36.65-.355.651 2.978.651 2.221.65-7.392.651-.752.65.164.651-.015.651 3.689.65-.614.651-4.582.65-3.596.652 1.64.65 2.67.65-1.467.651.211.651.62.65 2.331.651-1.843.65.162.651.426.651.248.65-.754 1.302 6.157.65 7.159.651-.453.65-4.68.651-2.383.65.422.651 3.389.651 1.385.65 2.125.651-.494.65 1.14.652-.723.65 1.54.65 4.068.651-4.064 1.302 7.834.65 2.487.65 2.018.651-1.557.651-.517.65 1.75.651-.815.65-5.42.651-.568.651-.168.65-1.477.651 2.797.65-7.028.652-3.674.65 1.858.65-1.139.651 5.927.651-.485.65.374.651-.636.65 2.112.651-2.497.651 2.887.65-2.788.651 1.482.65 5.326.651 1.755.651-4.316.65 4.763.651 3.31.65-.388.652 3.125.65 1.695.65 2.65.651-1.175.651 1.195.65-2.673.651 4.853.65-3.275.651-1.541.651.034.65-.524.651 1.843.65 3.094.651-4.021.651.876.65 3.675.651-.59.65-.036.652-1.588.65 1.828.65 2.985 1.302 7.034.65-1.156.651-.606.65-1.642.651-.595.651 2.03.65-5.612.651 1.062.65 5.256.651-1.587 1.302 3.005.65 1.246.65-.275.651 3.77.651 1.807.65.65.651-2.801.65 2.927.652 2.25.65-2.45.65-.929.651.213.651 2.63.65-2.107.651.76 1.952 1.326.65-1.553.651 1.47.65 6.87.651 1.672.651.894.65.452.651 2.649.65 4.362.652-.588.65-1.194.65 5.25.651 1.642.651 2.937.65.081.651 1.874.65 4.905.651-2.157.651-.247.65 2.05 1.302 7.74.65 1.636.651 6.078.65-3.553.651 2.868.65 1.168.652 2.125.65.467.65-1.396.651 8.078.651-.793.65 1.396.651-1.817.65-.017 1.302 9.55.65-2.077.651-1.078.65 1.836.651-.646.651 2.736.65-1.502.651 1.859.65 3.209.652.705.65 1.804.65-.166.651 2.332.65 1.445.652-5.48.65-1.361.65 1.925.651.69.651 4.176.65-2.776.651 1.613 1.301-3.075 1.302-2.215.65-1.491.65-4.218.651-.043.651-.22.65 6.34.651 2.743.716 4.408m.888 0 .348-.385.65-.311.095.696h0" clip-path="url(#p150600fe92)" style="fill:none;stroke:#00f;stroke-width:1.2;stroke-linecap:square"/><path id="line2d_26" d="m65.92 164.374.65-.07.65-.693.651 1.046.65.546.651 3.39.651 6.94.65-.693.651 2.397.65-.959.651-2.405.651.108.65-.623.651 3.983.65-2.043.651 4.736.651 1.427.65 2.803.651.072.65.463.651 4.26.651 1.788.65 3.894.651 1.883.65-.66.652 4.323.65-4.193.65 1.551.651-1.558.651-5.76.65 4.583.651 1.477.65 1.027.651 2.709.651-2.706.65.736.651-3.166.65 1.689.651-.717 1.302 2.753.65-.366.65-1.303 1.302 4.987.65 2.008.651.669.651 4.04.65 1.03.651-2.687.65 3.865.651.99.651-4.36.65 1.877.651 2.732.65-.389.651.344.651-1.938.65 4.552.651.204.65.072.652.596.65 2.259.65-.167.651-2.828.651.129.65-.082.651-.64.65.953.651 2.143.651-.465.65-3.582.651-1.393.65.952.651-2.813.651-2.13.65-2.933.651 5.296.65-.267 1.302-8.864.65.419.651 1.83.65 2.46 1.302.951.65-.85.651.815.651 2.055 1.301 1.844.65 1.671.651 4.165.651.908.65 1.882.651 1.313.65 3.135.651-1.143.651-.581.65 6.81.651-2.114.65.18.652-.703.65-1.157.65-1.518.651 3.585.651-3.59.65 2.27.651 1.299.65-1.645.651 4.917.651-3.307 1.301 3.941.65-6.044 1.302 9.897.65-.512 1.302 6.276.65 1.069.651-.267.65 1.174.651-.942.651 4.211.65-3.074.651 5.372.65.236.651-4.095.651 1.967.65-2.029.651 3.383.65 4.223.651 5.516.651 2.03.65-3.666.651-.219.65-1.22.652-7.337.65-.03.65 1.322.651-.031.651-2.026.65.51.651-.29.65 1.315.651.817.651-3.326.65 1.822.651-.246.65 1.004.651.05.651 2.96.65.083.651.675.65-1.856.651 1.377.651-2.155.65-3.19.651-.482.65.195.652-.14.65-1.704.65.826 1.302-5.045.65.175.651 1.595.65-2.944.651 2.996.651 2.087.65 3.583.651 1.973.65-2.399.651-.848.651.036.65-.708.651-2.902.65 1.667 1.302-1.528.65 1.031.651 2.673 1.302 8.632.65 1.968.65-1.204.651-.55.651-3.836.65 1.454.651-1.723.65 3.1.651-1.761.651.38.65-2.54.651.444.65 7.06 1.302-3.15.65 5.088.651 3.278.651-1.025.65-.778.651-3.898.65-2.798.651.62.651 4.884.65 1.207.651.936.65.55.651-3.377.651 3.131.65-1.777.651-4.944 1.302 4.57.65-1.628.65-2.475.651 1.3.65.294.652 4.067.65-1.34.65 2.254.651.525.651 1.407.65-1.577.651 1.97.65 3.165.651.847.651-2.182.65 1.189.651-4.12.65-1.068.651 1.454.651.862.65-.602.651-2.565.65-5.104.652-2.487 1.3-3.266.651-2.558.651 4.032.65-2.012.651.72.65-2.541.651-3.518.651-.52.65 3.81.651 2.78.65 3.916.651-2.758.651.542.65 5.519.651 2.076.65 4.925.652.154.65-3.289.65-7.57.651-1.222.651 2.555 1.301 7.285.65-2.025.651.21 1.302 3.266.65 3.165.65 4.087.651 1.316.651-.095.65 3.321.651 2.319.65-1.67.652 2.327.65-.436.65 7.013.651 5.683.651 2.194.65-1.975.651 1.627.65-2.129.651-.916.651-2.056.65-5.408.651-1.407.65 1.715.651.343.651-.247.65.249.651-1.665.65.134.652-1.358.65 1.333.65-1.044.651 2.297.65.595.652 1.13.65-1.179.65-.072.651.95.651-1.938.65-1.17.651 3.019.65 1.358.651-.062.651-4.63.65-2.559.651 1.89.65 3.326.651-2.818.651.52.65 3.683.651 2.779 1.302-2.99.65 1.191.65 3.33.651 2.672.651 1.985.65 4.503.651 1.537.65 3.283.651 1.444.651 4.144.65-.477.651 1.905.65-1.24.651-.018.651 1.093.65 3.7.651.22 1.302 7.995.65 1.761.65 5.6.651-5.806.651 1.752.65 6.601.651-2.42.65-.338.651-.186.651.404.65 4.794.651-.7.287 1.187h0" clip-path="url(#p150600fe92)" style="fill:none;stroke:#f0f;stroke-width:1.2;stroke-linecap:square"/><path id="line2d_27" d="m65.92 164.374.65-1.556.65-3.288.651-2.22.65 2.077.651-1.132.651.426.65.155.651 1.467.65.22.651-2.308.651 2.25.65-.07.651-4.193 1.301 2.186.651-2.215.65-.26.651.206.65-4.378.651 3.468.651.295.65 1.211.651 4.191.65 2.288.652.079.65 4.057.65.352.651.72.651-2.62.65-.835 1.302.292 1.301 2.473.65-.114.651 2.617.65 3.855.651 1.023.651-1.134.65 2.21.651 7.253.65-1.2.652.137.65 1.171.65.548.651-1.06.651-3.029.65 1 .651.423.65-4.768.651-1.853.651 3.085.65 3.869.651-5.63.65 4.755.651-1.777.651 1.943.65-.567.651-2.669.65 5.21.652.52.65-3.494.65-2.438.651-5.4.651 2.34.65 1.128.651.566.65-.642 1.302 3.043.65 1.238.651-.285.65-.612.651 1.556.651-.217.65-4.625.651 3.498.65-2.766.652-.487.65 1.2.65.464.651 2.849.65.513.652 5.457.65.193.65.392.651-3.587.651 1.044 1.301 4.005.65 3.456.651-3.114.651-.18.65-1.47.651-2.99.65 1.783.651.964.651-.712.65-.33.651 2.694.65.722.652 1.645.65-.596.65 5.43.651-2.646.651 2.91.65 1.82.651 1.424.65.793.651 1.328.651-.188.65 1.207.651-5.241.65.84.651-.517.651 5.485.65.404.651 2.478.65-4.975.652-.247.65-1.957.65-3.175.651-5.203.651 5.381 1.301-1.839.65-2.736.651 1.38.651 1.113.65.04 1.302-3.383.65 5.039.651 1.55.65-.024.651 1.274.65-3.285.652-1.306 1.3 2.887.651-1.865.651-3.589.65.067.651 2.458.65-1.83.651 5.373.651 2.27.65-2.62.651 2.262.65-2.006.651-3.436.651-4.708.65-1.402.651-3.568.65-2.656.651 3.463.651-3.027.65.815.651 1.579.65 4.385.652 2.971.65-.197 1.301-8.207.651-.923.65 1.437.651-4.681.65.63.651 2.833.651-4.238.65 2.045.651-1.178.65 2.02.651.242.651-1.669.65 2.742.651-.179.65-3.092.652-6.521.65-2.624.65-4.022.651.793.651 1.002 1.301-9.074.65-1.757.651 3.17.651.578.65-.55.651.986.65-1.706.651.401.651-.118 1.301 1.024.65-.813.652.047.65 5.515.65-2.66.651 4.724.651 1.691.65.261.651 2.591.65.348.651-2.432.651-2.909.65 4.154.651-.423.65-1.308.651 5.38.651.913.65-.43.651 2.128.65-.106.652-.531.65-1.225.65 1.02.651 3.866.65-.77 1.302 1.732.65-3.396.651 1.661.651-2.69.65 1.422.651-.038.65 4.106.651-1.499.651-.443.65 4.228 1.302 3.81.65 2.437.651-.61.65 2.409.651-.478.65-1.084.652-3.2.65 1.468.65-1.218.651-3.58.651 2.008.65-1.446 1.302 1.208.65.72.651 2.315.65-1.646.651.236.65-3.28.651 4.107.651-.964.65 3.28.651-1.06.65-3.017.652 2.393.65-1.476 1.301 7.727.651.798.65 3.292.651-2.2.65.916 1.302 2.645.65-2.761.651-.256.65.782 1.302-7.594.65 1.672.651 2.46 1.302 11.311.65-.074.65-3.47.651-2.733.651-3.825.65.508.651 2.468.65.182.651.525.651-4.95.65 1.216.651-.835.65-.352.651-.22.651 1.56.65.216.651-2.69.65 1.537.652.166.65-.483.65.364 1.302 6.73.65-.992.651 3.674.65-1.524.651 6.25 1.302 2.51.65-2.233.65.241.651 3.506.651 1.135.65-10.827.651 4.07.65-2.266.651-.53.651.614.65 2.004.651.59 1.302 6.704.65 1.453.65.075.651 1.818.651.823.65-.407.651 1.024.65-1.443 1.302-7.447.65 1.712.651-.767.65-5.764.651.215 1.302 1.901.65.936.65.247.652-2.155.65.912.65 1.246.651.943.651-3.046.65 1.525 1.302-3.51.65.689.651.974.65 3.676.651-2.24.65-2.758.651-1.244.651-1.793.65-7.123.651-.947.65-3.121.652-2.494.65 1.677.65.324.651 1.01.65.672.652 4.103.65 1.274.65-.601.651-4.988.651.6.65-1.284.651 2.31.65.829.651.164.651-2.437.65 4.032.651-2.214.65-.034.651 3.466.651 1.692.65 3.492.651 1.454.65-1.041.652-1.755.65 1.931.65 4.945.651 2.803.651-.089.65 2.347.651-.848.65 1.466.651-4.847.651-2.606.65 2.113.651 1.103.65-.404.651-3.356.651 5.43.65 1.372.651 3.15.65.2.652-.677.65-4.951.65 4.832.651-3.41.651 1.708.65 7.434.651-.335.65.784.651 3.518.651 2.254.65 1.804.651-.666 1.301 5.424.651-2.844.65 4.05.651 3.17.65 4.187.652-1.681.65 3.645.65-3.61.651 2.186.651 2.644.65-.02.651-5.039.65 2.435.651 4.504.651.086.65-1.204.651 5.038.65-5.756.651.887.651-1.93.65-.464.651-.025.65 1.595 1.302-6.49.65 2.124.651-6.864.65-2.098.652-.33.65 1.271.65.131.651-.018.651-1.62.65 1.063.651-1.793.65.725.651-.697.651 2.726.65.19.651 3.043.65 1.486.651-.613.651-.044.65-1.907 1.302 3.778.65-1.388.651 2.915.65-3.273 1.302 1.77.65 2.373.651-5.049.65 1.717.651 2.155.651-.568.65-2.53.651-1.579.65-2.243.651.333.651-4.393.65-.34.651 1.998.65-1.437.652.541.65-2.06.65.083.651-4.085.651-2.53.65-4.736.651-1.578.65-.526.651 4.555.651-2.42.65-3.333.651 3.415.65 5.541.651 3.921.651.3 1.301 9.582.65 2.972.652 1.392.65 6.767.65.713.651 3.719.651 7.1.65 1.258 1.302 5.242.65.355.651-2.226.65.824.651-.608.65-.382h0" clip-path="url(#p150600fe92)" style="fill:none;stroke:#0ff;stroke-width:1.2;stroke-linecap:square"/><path id="line2d_28" d="m65.92 164.374.65 2.257.65-3.46.651-2.467.65-1.73.651 2.769.651-4.803.65 2.643.651-2.225.65.735.651 1.533.651 3.675.65-2.946 1.302 4.952.65-1.155 1.302-4.048.65-.263.65 3.488.651-.145.651 4.874.65-.846.651-1.247.65-.437.652 2.303.65-2.39.65-1.119.651 5.887.651 4.443.65-.783.651 1.298.65 2.951.651.931.651 2.812.65-1.207.651.194.65-.01.651 3.23.651 5.228 1.301-1.234.65 3.175.652-.232 1.3 4.826.651.763.651-5.007.65-2 .651 2.99.65-1.269.651-.54.651-.794.65-.342.651.48.65 5.738.651 2.72.651-.494 1.301-1.781.65-.58.652 5.32.65.736.65-3.117.651 7.094.651-1.194.65-6.077.651.071.65-.546.651-2.27.651.292.65-2.495.651 6.18.65 1.332 1.302-10.7.65-3.62.651-2.743.65 2.231.652.355.65-2.915.65-.9.651-2.205.65-3.59.652-.535.65.465.65.24 1.302-2.81.65 1.014.651 4.744.65-1.292.651.417.651 1.45.65.574.651.898.65 5.814 1.302-4.5.65-1.413.651-4.606.65 2.711.652-.963.65-2.379.65-.005.651-.877.651 1.213.65-1.868.651 1.539.65.383.651-5.94.651-3.8.65.128.651 2.237.65 1.455.651-4.636.651-.553.65-2.146 1.302 2.69.65-.98.651-2.869.65-6.168.651 2.095 1.302 5.579.65-3.59.65-2.949.651 3.821.651.032.65.152.651-2.236.65 2.169.651 4.449.651 3.073.65-5.774.651-2.397.65-1.047.652-.439.65.946.65-.45.651-1.334 1.302-3.006.65 2.649.65.514.651-2.938.651 1.9 1.952-4.261.65-4.22 1.302-.017.65.384.65-.77.651 1.293.651-.677.65.367.651-1.414.65 1.407.652-1.327.65-.213.65 2.464.651-.774.651 2.504.65-4.544.651 1.774.65-7.958.651.654.651-7.682.65.27.651-1.725.65-.187.651-.886.651 5.767.65.98.651 2.846.65-.278.652.705.65 4.123.65-.76 1.302-2.886.65.487.651-4.784.65-.564.651 3.723.651.49.65 1.204.651-3.557.65-1.17.651 1.703.651-.106.65-.728.651 3.6.65-2.123.652 2.321.65-1.124.65.436 1.302 1.862.65-2.296.651 2.58.65 3.611.651.841.651 1.06.65 4.936.651.69.65 2.478.651-.105.651-2.641.65 2.651.651-.947.65-3.293.652.635.65 4.324.65-.605.651-4.313.65-3.22.652-5.014.65.872.65 3.091.651-.802.651-1.068.65-.683.651.217.65 1.574.651-2.172.651.05.65-.408.651 2.663.65-5.048.651-.995.651 2.765.65 3.561 1.302 1.499.65-5.574.651-.753.65 4.152.651-.3.651-1.885.65-1.009.651.764.65-1.451.651 4.638.651-1.025.65-3.732.651-6.345.65 1.708.651-3.248.651-4.956.65 4.21 1.302 6.643.65 1.284.651-1.461.65 2.918.651-1.486.651 1.49.65 2.885.651-3.385.65-.91.651.59.651-1.012.65 3.271.651.082.65-2.812.651 4.43.651 1.285.65.538.651-1.129.65 6.358.652.428 1.3 8.582.651-1.305.651 3.555.65.806.651-1.61.65-.23.651.577.651.798.65.356.651 2.787.65-2.737.651 3.241.651-4.021.65 2.48 1.302-3.427.65-.336.651.098.65-1.55 1.302-5.856.65 3.717.651 1.238.65 1.75.651.409.651.148.65.576.651-.48.65-2.935.651 3.219.651-2.708.65-.728 1.302-4.362 1.301-4.521.65-.14.651 3.923.65-2.68 1.302-3.675.65-1.232.651-3.046.651-1.124.65-1.773.651-1.255.65-2.911.651-3.518.651 2.783.65-3.784.651.45.65-1.608.651-.1.651.9.65-.205.651-.338.65-2.769.652-.22.65 3.374.65-3.127 1.302-1.184.65.362.651.598.65-5.55.651-2.451.651-.645.65 5.316.651 2.652.65-3.946.651-1.717.651 4.796.65.257.651-2.5.65-.106.652.854.65-.526.65-2.083.651-3.3.65-2.485.652-1.406.65-4.167.65 1.194.651-4.536.651 1.752.65-.99 1.302 2.04.65 1.4.651-.894.65-4.927.651 1.185.65-2.016.651-4.03.651.8.65-1.541.651 4.781.65-5.374.652-2.254.65-4.454.65-1.226.651 3.55.651-4.727.65-3.752.651 2.47.65-4.62 1.302 6.153.65-5.674.651-3.31.65-1.18.651-2.872.651-.555.65 1.355.651.53 1.302 5.366.65-4.106.65-.56.651 2.609.651-3.926.65 2.888.651-1.177.65-4.235.651 1.633.651-3.57.65 1.881.651-1.47.65-2.054.651-6.105.651-3.349.65.08.651 2.952.65 1.519 1.302 1.736.65-4.214.651-.84.651-.108.65-.972.651-2.106.65.081.651-2.662 1.302-6.611.65-5.754.65-1.844.651 3.073.651-1.418 1.952 6.042.65 1.456.651-3.003.65 1.819.651-3.622.65-.347.652-4.69.65-.755.65-2.386.651.418.651-4.365.65-1.996.651-.264.65 1.593.651.166.651-4.772.65-2.358.651-1.892.65 3.54 1.302-6.058.65-4.214.651-.326.65.034.652-2.316.65-.85.65 3.692.651-.336.651.52.65-6.185 1.302-7.48.65.358.651-1.753.65.04.651-3.532.65.255.651 2.39.651.943.65.072.651-2.568.65-.924.652-3.398.65-2.408.65-.44.056-.463h0" clip-path="url(#p150600fe92)" style="fill:none;stroke:#ff0;stroke-width:1.2;stroke-linecap:square"/><path id="line2d_29" d="m65.92 164.374 1.3 5.493.651 1.736.65-2.774.651.45.651-2.876.65 5.535.651-1.811.65-4.417.651 1.067.651-6.167.65 2.634.651 1.48.65 5.334.651 1.014.651 3.39.65-5.36.651-1.552.65-4.126.651-4.918.651 2.91.65 4.065.651-4.404.65 2.397.652-1.02.65 1.228.65-.284.651 1.131.651-1.154.65 1.472.651-2.291.65 1.985.651-2.49.651 3.475.65 1.266.651 2.618.65-.676.651 1.543.651-1.59.65-.687.651 2.492.65 1.547.652.32.65 1.01.65-.163.651-1.252.651-.067.65-2.598.651 2.022.65-3.82.651 2.564.651-3.998.65-2.048 1.952-12.353 1.302 6.676.65 2.033.65-3.412.652-7.218.65 1.383 1.301 4.993.651.036.65-.913.651.434.65 1.495 1.302-3.074 1.301 4.418.65-2.081.651-4.134.651.36 1.301-3.616.65 1.906.652 2.562.65.259.65 1.387.651-1.996.65 4.016.652.942.65-2.137 1.301.727.651.15 1.301 1.046.65-.374.651-.088.651 2.336.65-3.386.651-.21.65-1.279.651 2.682.651 4.914.65.671.651-1.585.65 4.536.652 2.458.65 1.479.65-2.911.651-5.712.651 1.256.65-2.546.651-1.068.65 2.435.651-2.653.651-1.746.65-.52.651.608.65.183.651-3.755.651-2.928.65-4.962.651-1.058.65-4.237.652 2.374.65-2.886.65-5.944.651-1.235.651.06.65-2.115.651-.913.65 1.438.651 3.11.651-4.278.65 3.342.651-.145.65-1.441.651 1.29.651.068.65 2.245.651-1.277.65-.143.652-2.789.65 1.95.65-.885.651 1.42.651-1.217.65-4.774.651 1.81.65 1.234.651-1.987.651 2.668.65 3.956.651-1.319.65-.205.651-3.01.651.182.65-.38.651 2.085.65-.219.651.137.651-.737.65-1.703.651-.486.65 2.4.652-.17.65 4.782.65-1.145.651-.48.651 1.665.65-3.907.651 1.381.65-3.151.651 2.848.651-3.384.65 3.353.651 12.176.65 5.284.651 2.166.651.749.65 1.809.651-.124.65-2.177.652.134.65-4.563.65.524.651-2.275.651 1.157.65.13.651.888.65-2.858.651 1.049.651 2.501.65 5.413.651 1.462.65-.834.651.578.651.423.65 6.943.651 1.587.65-3.159.652.655.65-1.078.65-.783.651-2.862.651-4.483.65-.514.651-1.582.65 2.676.651-2.231.651-.76.65-.076.651 4.827.65 1.066.651.415.651-5.912.65-9.312.651.162.65 1.028.652 1.245.65-.146.65 1.362.651-6.165.65-2.111.652 5.309.65-.226.65-4.332.651 1.154.651 3.204.65 1.123.651-.377.65-1.164.651-.629.651 1.18.65.009.651 1.095.65 4.446.651-1.5.651 5.056.65-.86.651-5.876.65 3.932.652.835.65-.699.65.802.651.213.651-1.089.65 3.417.651-.073.65 1.524.651-.708.651 1.338.65 3.456.651-.91.65-1.171.651 5.092.651-4.112.65-1.166.651-3.355.65-.216.652-10.742.65 5.037.65-.086.651-1.78.651-3.216.65.021.651-.193.65-1.536.651-4.695.651 1.18.65 5.885.651-3.06.65-8.047.651 4.386.651-1.355.65-2.824 1.302-4.152.65 3.03.651-1.435.65-3.315.651-.792 1.302-2.517.65.623.65 2.659.651.534.651 2.352.65-1.723.651.967.65-2.171.651.51.651.101 1.301 4.706 1.302-5.026.65-.749.65-.357.651-.636.65-5.882.652-.123.65-1.02.65-2.672.651-1.371.651-3.926.65 3.266 1.302-1.614.65-3.523 1.302-3.268.65 1.799.65-.271.651 2.255.651 1.64.65.132.651 2.65.65-1.112.652 1.646.65-3.13.65 2.361.651.646.651-.028.65-.854.651.745.65 3 .651-.261.651-.017.65-.27.651-.847.65-4.047.651 1.044.651 2.79.65-1.783.651-2.538.65-1.202.652-8.585.65.876.65.332.651.897.651-2.853.65 1.64.651-3.753.65-1.453.651 1.162.651-2.62.65-.72.651.43.65 1.195 1.302-6.131.65-.043.651 2 .65 2.994.652 3.688.65-3.815.65-.87.651 2.743.65-2.482.652-1.105.65 3.289.65.844 1.302-7.729.65 4.179.651-3.823.65-2.307.651-1.555.651-5.442.65-4.327.651-1.143.65 1.52.651 4.282.651.803.65.032.651-5.887 1.302 6.535.65-.623.65 3.65.651 2.7.651.084.65 1.592.651-1.183.65.337.651 4.402.651-2.523.65-3.405.651-2.734.65-1.632.651.408.651-2.973.65.594 1.302-.803.65 4.803.651 1.711.65.578.651-3.704.651-6.019.65-1.349 1.302 1.535.65-.837.651.99.65-1.552.651-2.215.65-.074.651 1.137.651-1.756.65 2.004.651.119.65 2.77.652-4.37.65.584.65 3.951.651.473.651-2.97.65-.404.651-.235.65 6.963.651-2.629.651-4.251.65 1.454.651 1.797.65-2.07 1.302-4.942.65-1.496.651-1.044.65.03.652.308.65-.282.65 1.976.651-2.48.65 4.394.652.094.65-3.46.65 2.747.651-2.094.651-1.371.65.762.651-1.05.65-2.732.651-3.434.651-.553.65-3.547.651-1.081.65-1.328.651 1.579.651-1.598.65 1.25.651.572.65-3.176.652 2.563.65 3.111.65.402.651-1.088.651 3.225.65-.992.651-1.639.65-.468.651-1.44.651-2.02 1.301-9.158.65 1.233 1.302-9.41 1.952-8.37.65-1.782.651-.69.65-1.71.651-7.622.651.443.65-2.292.651 1.327.65-3.159.651-4.81.651 3.226.65-6.028.651 1 1.301-5.4.651 2.28.65-2.667.651-.77.65 1.29.807-3.588m2.245 0 .202 1.05.575-1.05m.182 0 .544.704.65 2.2.651-1.768.651 2.73L389.23-1h0" clip-path="url(#p150600fe92)" style="fill:none;stroke:#ff8000;stroke-width:1.2;stroke-linecap:square"/><path id="line2d_30" d="m65.92 164.374.65 2.776.65 2.204.651-1.735.65-4.828.651 3.825.651-.606.65-.892.651-.61.65.027.651-4.8.651-3.672.65.638.651 1.137.65-1.562 1.302 5.594 1.301-5.616.65-.436.651-1.638.651 2.618.65 4.863.651.593.65-1.017.652 1.229.65.568.65-.93.651.54.651-1.094.65-2.732.651 2.744.65-4.333.651 4.818.651-3.303.65 5.907.651.845.65-3.44.651-.476.651.317.65-.064.651-3.48.65-1.691.652.544.65.952.65-3.024.651-1.12.651-1.774.65 4.043.651-4.654.65-.536.651-3.585.651-4.547.65-.378.651-1.13.65-3.273.651-2.156.651-1.69.65-.997.651.28.65-.246.652-.997.65-3.801.65-2.498.651 2.04.651-.816.65 1.19.651.56.65 4.109.651-2.068.651-.272.65-2.716.651-.599.65.079.651-5.86 1.302 6.926.65-2.744.65-1.853 1.302 7.38.65 1.544.651-3.389.65-.725.652-3.267.65.07.65-2.194.651 4.171.651 1.692.65 4.868.651-2.285.65-.85.651 5.05.651 3.093.65.75.651-2.237.65-3.75 1.302-2.838.65 2.242.651-1.098.65-.536.652 1.61.65 2.421.65 1.178.651.21.651-2.95.65-1.244.651 2.187.65-.41.651-1.896.651 3.16.65 1.797.651-7.635 1.301-1.864.651 2.034.65 3.125.651-1.744.65 5.118.652 1.81.65-.622.65 1.612.651.269.651-.987.65 3.84.651 1.74.65.919.651.539.651 2.431.65-.922.651 2.835.65 2.081.651-4.273.651 2.298.65-1.297.651-.925.65-3.515.652.655.65-.748.65-2.483.651-1.57.651 3.897.65 1.089.651-4.103.65 1.453.651-.296.651-1.088.65 6.12.651-1.97.65 1.896 1.302 2.024.65-2.06.651-1.254.65-1.744.651-.125.651.142.65-.068.651 3.803.65-3.415.652.57.65 1.5.65.104.651.712.651-2.905.65-.706.651-5.813.65 5.24.651 1.148.651.49.65 1.166.651 2.121.65.019.651-4.062.651.123.65 1.556.651-4.585.65 3.622.652-.658 1.3 3.718.651-1.278.651 1.402.65-1.594.651.596.65 1.398.651 3.275.651-7.86.65-.207.651-.833.65 5.974.651-3.323.651-5.007.65-2.78.651-1.546.65 1.127.652-2.536.65 3.02.65-.182.651-1.139.651.752.65-.351.651-1.881.65-4.195 1.302-5.058 1.301-6.29 1.301 1.377.651 3.817.65-.156.651 7.68.65 3.097.652 2.256.65-3.445.65-2.531.651-3.18.65-.04.652 2.92.65-3.286.65-1.268.651.063.651-1.33.65-4.669.651-1.65.65.197.651-1.105.651-6.85.65 1.044.651 3.292.65-1.171.651.934.651 4.23.65-.305 1.302 6.013.65 5.746.651 2.489.65-3.059.651-1.678.651-2.777.65 4.037.651-4.641.65-1.308.651-3.09.651-1.308.65-5.75.651-2.897.65 2.906.651-3.229.651-4.132.65-.998 1.302-5.768.65 3.177.651-.9.65 1.065.651-2.374.651-4.734.65.269.651-1.432.65-5.703.651.82.651-3.266.65-.592.651.641.65-.308.651.087.651 3.019.65-1.668 1.302 4.04 1.952-6.43.65-1.71.651 2.441.65.39.651-.579.65-2.107.651.433.651-1.785.65 5.115.651-1.539.65 1.276 1.302-2.832.65-3.252.651-.11.65-3.623.652-1.29.65.088.65-2.935 1.953-6.401.65.95.65 2.975.651.224 1.302 3.988.65-.11.65.36.651.75.651-4.502.65 1.796.651.676.65-.128.651.091.651-.675.65-2.182.651-.022.65.094 1.302-3.027.65-2.058.651 2.19.651-.168.65-1.106.651-2.36.65-3.224.651.86.651-3.47.65 1.776.651-2.004.65.686.651-1.657.651-.088.65 1.077.651 1.382.65.352.652-2.763.65-2.228.65.692.651 1.69.651-3.189.65.1.651-3.325.65 6.922.651-2.396.651-.64.65-.37.651 3.33.65-2.896.651-1.275.651-3.38.65.592.651-1.367.65-3.158.652-2.235 1.3 9.31.651-.385.65-3.719.652.01.65-4.9.65-1.04.651 1.45.651-4.1.65.312.651-.933.65.708.651-.216.651-.535.65-2.626.651-.913.65.197.651-.402.651-.694.65.897.651-2.553.65-1.519.652-.614.65-4.453.65 1.71 1.302-3.242.65-4.633.651-2.762.65.43 1.302-6.57.65 1.668.651-4.286 1.301-1.819.651 3.055.65-.209.651.452.65-6.192.652.451.65-2.815.65-.848.651-1.437.651-.074.468-2.15m.369 0 .464 2.086.65.027.651 3.582.651-3.246.65.113.651 3.448.65-2.41.651-.905.651 1.462.65-.516.651 2.897.65.618.652-1.298.65-.277.65-2.83.651-.206.651-.733.295-1.812h0" clip-path="url(#p150600fe92)" style="fill:none;stroke:#8000ff;stroke-width:1.2;stroke-linecap:square"/><path id="line2d_31" d="m65.92 164.374.65 4.152.65.112.651 1.682.65 3.94.651-3.689.651 1.312.65 2.13.651-2.781 1.301 7.065.651-.239.65-2.198.651-1.774.65.958.651 2.73.651-4.162.65-8.754.651-2.625.65-.345.651-1.994.651 1.017.65-.418.651 1.07.65.408.652-.389.65-.779.65.724.651-4.573.651.346.65-1.886.651-2.977.65-3.646.651 3.534.651-1.378.65-2.1.651-1.076.65.722.651-3.766.651 1.524.65-1.127.651.399 1.302-4.537 1.3 8.141.651.477.651.851.65-1.105.651-1.926.65 2.99.651 2.013.651.02.65-7.283.651 3.834.65-.363.651-1.506.651-2.292.65-.273.651.299.65-.877.652-.375.65-.236.65-2.134.651 2.35.651.508.65-3.09.651-.268.65.402.651 2.208.651.573 1.301-1.553.65-2.038.651-1.482.651-4.094.65 1.343.651-5.695.65-3.132.652-2.403.65 3.95.65-3.525.651 6.042.65-.148.652 9.906.65.367.65-1.093.651-.028.651 1.52.65.808.651 6.69.65-.472.651 1.806.651-2.035 1.301-8.616.65 3.307.651 2.221.651-.146.65-2.438.651 1.276.65.546.652-.263.65.998.65.19 1.302.712.65.389.651-.912.65 1.894.651 6.39.651 1.34.65-2.303.651.36.65 3.342.651-.585.651-2.314 1.301 8.651 1.302 6.006.65-4.782.65 2.954 1.302-4.29.65-1.9.651-.868.65 2.039.651 1.409.651 3.116.65 2.501.651 2.96.65.126.651 1.758.651-1.064.65-3.036.651-6.521.65.354.652 4.188.65-3.657.65.421.651-2.086.651 3.222.65 1.408.651-.413.65 2.472.651-3.328.651-4.341.65-.906.651 1.454.65 1.893 1.302 1.885.65 1.906.651-1.735.65 2.258.651.23.651-4.016.65 2.333.651.012.65 1.494.652-.856.65 1.478.65 5.027.651 1.89.651 2.298.65-2.26.651.68 1.301.161.651.278.65 3.45 1.302 8 .65 2.844.651 4.436.65-.195.651-6.647.65 1.313.652 7.634.65.182.65 3.67.651-1.722.651.12.65 3.943.651-1.655 1.301 1.471.651 1.674.65-6.93.651.446 1.301.093.651 2.718 1.301.925.65-4.447.652 2.806.65-3.39.65 1.742.651 3.09.651-1.238.65.105.651-.384.65-1.038.651 1.215.651-1.044.65-1.44.651-1.894 1.301 2.44 1.302 7.708.65-.871.65-.122.652 1.579.65 1.108.65.465.651-3.67.65-1.944.652-.354.65 2.602.65.936 1.302-8.267 1.301-5.695.65-1.057.651 4.067.651-1.283 1.301 6.415.65-1.25.651-1.655.651-3.173.65-.786.651-2.46.65 2.157.652 4.685.65-.903.65 1.46.651 5.622.651 3.583.65-3.578.651-.657.65.698.651-.808.651-1.75.65 2.88.651 1.901.65 4.103.651.986.651 4.351.65-.659.651-2.634.65.863.652 2.688.65 1.007.65-.714.651 1.434.651 1.855.65 1.123.651-1.416.65 1.715.651 2.64.651 5.223.65-4.464.651-1.954.65-5.45.651-2.016.651-1.18.65 1.427.651-1.33.65 1.544.652-1.474.65-.718.65.941.651-5.839.651 2.374.65-1.98.651 1.46.65 3.266 1.302 3.734.65-1.332.651-1.888.65-1.448.651 2.489.651 1.648.65 5.564 1.302-3.796.65 1.424.651.24.65 5.572.651 4.03.65-.713.652 3.338.65 2.131.65-.293.651.825.651-.786.65-1.759.651-2.575.65-.334.651-2.463.651.3.65 2.654.651-1.065.65-1.727.651-2.962.651 5.765.65 2.392.651 3.592.65-1.663.652 3.579.65 4.778.65.155.651-4.464.651-2.223.65 5.263.651.236.65-1.028.651 1.325.651-.139.65-4.308.651-.114.65 2.942.651-1.04.651-.16.65.908.651 3.758.65 2.728.652-3.243.65 1.797.65-.076.651 3.36.651 1.616.65-.928.651.86 1.301 5.01.651 5.37.65 1.623.651 1.285.65 2.676.651 3.894.651-3.525.65-.327.651 2.497 1.302 2.168.65-1.192.65.144.651 3.095.65 1.95.652 1.373.65.211.65-2.56.651 1.73.651 2.069.65-2.057.651-1.008.65 2.139.651 4.281.651 2.352.65.37.651-4.12 1.301 5.518.651-.456.65.036 1.302 4.863.65.633.651-2.96.65 5.055.651 1.594.651.687.65-1.631.651 1.2.65-2.163.651.854.651-3.438.65 4.353.651 1.505.65 2.444.651.656.651 2.219.65-1.532.651.47.65 3.3.652 1.072.65-1.265.65-.576.651-.754.651.096 1.301 5.545 1.301 7.338.651 1.88.65-1.627 1.302 9.922.65.723.651-1.62.65 1.783.651 4.292.399 5.182h0" clip-path="url(#p150600fe92)" style="fill:none;stroke:#ff0001;stroke-width:1.2;stroke-linecap:square"/><path id="line2d_32" d="m65.92 164.374.65.773.65-.293.651-3.325.65 3.602.651-.261.651.131.65.953.651 2.907.65.966.651-6.85 1.302 2.89.65 3.399.65-1.953.651 1.506.651.326 1.301 5.932.65 1.91.651.317 1.302-4.461.65-4.51.65-1.354.652-4.848.65-2.896 1.301-1.844.651 3.507.65 2.753.651 4.35.65-3.508.651-1.11.651-1.917.65-2.687.651.505.65.052.651.957.651-.868.65.776.651-.994.65 1.455.652.776 1.3-1.862.651.487.651 3.537.65-2.918.651 3.102.65.788 1.302 2.964.65-1.166.651-2.201.65.799.651 1.841.651.56.65-.069.651-1.844.65 2.66.652 2.106.65 3.854.65.452.651 3.511.651-1.382.65-2.87.651-.616.65-1.947.651 5.221 1.302-1.7.65 2.026.65 9.877.651-.075.651-.85.65-6.484.651-.57.65.602.652 3.057.65-.15 1.301-6.267.65 1.135.652 3.389.65-1.633.65-6.233.651 2.651.651-1.68.65-2.512.651.421.65 1.113 1.302-1.751.65-1.744.651.368.65.877.651-2.016.651 4.6.65-2.947.651-.895.65.906.652 4.364.65 2.796.65-.91.651 2.647.651.794.65 5.355.651 2.978.65-2.997.651-.796.651-5.404.65 3.276.651 2.137 1.301 1.346.651-1.94.65 2.121.651 2.957.65-1.602 1.302 13.113.65-.724 1.953-7.996.65 4.222.65.498.651.804.651.05.65 2.878.651.224 1.301-4.403 1.302.502.65-1.503.65-.477.652-1.634.65 3.335.65.157.651 1.524.651.458.65.126.651 1.699.65.961.651-2.394.651-4.962.65 1.357.651-1.63 1.301-7.325.651-.895.65 4.61.651-3.969.65 1.272.651-1.118.651 1.544.65 1.178.651-.629.65 2.434.652-3.59.65.337.65-2.738.651-.723.651-1.693.65.596.651-.626.65 2.972.651-3.7.651-1.278.65-2.458.651 6.26.65 4.218.651 1.011.651-2.458.65 1.261.651 2.553.65 3.128 1.302 3.855.65-1.955.651-.305.651 4.099.65-.009.651-2.747.65 2.299.651 3.984.651-.575.65 1.737.651-2.46.65 1.784.651-.709.651-.367.65-2.527.651-.146.65-1.814.652-2.918.65 5.165.65-3.184.651 1.107.651.493.65-2.17.651-.516.65 1.123.651 4.226.651 1.424.65.48.651 3.518.65-3.377.651-2.643.651 1.383.65 3.675.651 6.164.65 1.481.652 4.983.65-1.554.65 6.132.651-.478.65 2.138.652.22.65 2.623.65 1.35.651 3.161.651-1.05.65 2.57.651-2.1.65 4.019.651-1.628.651 3.158 1.301 5.109.65 4.069.651 4.998.651 1.527.65 5.616.651.959.65-.491.652 3.925.65.089.65 2.868.651-.16.651-1.833.65 1.373.651.049.65-4.676.651 2.512.651-.364.65 4.864.651-.322.65 2.413.651 1.913.651-4.339.65-1.51 1.302 4.05.65 1.221.651-1.323.65 2.572.651 1.129.651 5.254.65.031.651.838 1.301 6.44.651 3.831.65 1.53.651 5.205.65 3.58.651.923.651 3.842.65-.648.651 2.855.65 2.063.652-.226 1.3-5.171.651 4.512.651.412.65 1.677.651.833.65 2.307.651 1.712.651-.718.65.734.651 2.016.65 1.455.651 1.117.651 4.216.65-2.677.651 3.468.65-.172.652 3.18.65 6.578.65-.626.651-.018.65-.677.652 1.764.656.78h0" clip-path="url(#p150600fe92)" style="fill:none;stroke:#00ff02;stroke-width:1.2;stroke-linecap:square"/><path d="M49.687 297.43V31.318M49.687 297.43h357.12" class="patch" style="fill:none;stroke:currentColor;stroke-width:.8;stroke-linejoin:miter;stroke-linecap:square"/><g id="text_14" class="text" transform="matrix(.12 0 0 -.12 7.2 16.318)"><defs><path id="DejaVuSans-52" d="M2841 2188q203-69 395-294t386-619L4263 0h-679l-596 1197q-232 469-449 622t-592 153h-688V0H628v4666h1425q800 0 1194-335 394-334 394-1009 0-441-205-732-205-290-595-402M1259 4147V2491h794q456 0 689 211t233 620-233 617-689 208z" transform="scale(.01563)"/><path id="DejaVuSans-2d" d="M313 2009h1684v-512H313z" transform="scale(.01563)"/><path id="DejaVuSans-4f" d="M2522 4238q-688 0-1093-513-404-512-404-1397 0-881 404-1394 405-512 1093-512 687 0 1089 512 402 513 402 1394 0 885-402 1397-402 513-1089 513m0 512q981 0 1568-658 588-658 588-1764 0-1103-588-1761Q3503-91 2522-91q-984 0-1574 656-589 657-589 1763t589 1764q590 658 1574 658" transform="scale(.01563)"/><path id="DejaVuSans-6e" d="M3513 2113V0h-575v2094q0 497-194 743-194 247-581 247-466 0-735-297-269-296-269-809V0H581v3500h578v-544q207 316 486 472 280 156 646 156 603 0 912-373 310-373 310-1098" transform="scale(.01563)"/><path id="DejaVuSans-55" d="M556 4666h635V1831q0-750 271-1080 272-329 882-329 606 0 878 329 272 330 272 1080v2835h634V1753q0-912-452-1378Q3225-91 2344-91q-885 0-1337 466-451 466-451 1378z" transform="scale(.01563)"/><path id="DejaVuSans-68" d="M3513 2113V0h-575v2094q0 497-194 743-194 247-581 247-466 0-735-297-269-296-269-809V0H581v4863h578V2956q207 316 486 472 280 156 646 156 603 0 912-373 310-373 310-1098" transform="scale(.01563)"/><path id="DejaVuSans-6c" d="M603 4863h575V0H603z" transform="scale(.01563)"/><path id="DejaVuSans-62" d="M3116 1747q0 634-261 995t-717 361q-457 0-718-361t-261-995 261-995 718-361q456 0 717 361t261 995M1159 2969q182 312 458 463 277 152 661 152 638 0 1036-506 399-506 399-1331T3314 415Q2916-91 2278-91q-384 0-661 152-276 152-458 464V0H581v4863h578z" transform="scale(.01563)"/><path id="DejaVuSans-63" d="M3122 3366v-538q-244 135-489 202t-495 67q-560 0-870-355-309-354-309-995t309-996q310-354 870-354 250 0 495 67t489 202V134Q2881 22 2623-34q-257-57-548-57-791 0-1257 497-465 497-465 1341 0 856 470 1346 471 491 1290 491 265 0 518-55 253-54 491-163" transform="scale(.01563)"/><path id="DejaVuSans-6b" d="M581 4863h578V1991l1716 1509h734L1753 1863 3688 0h-750L1159 1709V0H581z" transform="scale(.01563)"/><path id="DejaVuSans-50" d="M1259 4147V2394h794q441 0 681 228 241 228 241 650 0 419-241 647-240 228-681 228zm-631 519h1425q785 0 1186-355 402-355 402-1039 0-691-402-1044-401-353-1186-353h-794V0H628z" transform="scale(.01563)"/><path id="DejaVuSans-6f" d="M1959 3097q-462 0-731-361t-269-989 267-989q268-361 733-361 460 0 728 362 269 363 269 988 0 622-269 986-268 364-728 364m0 487q750 0 1178-488 429-487 429-1349 0-859-429-1349Q2709-91 1959-91q-753 0-1180 489-426 490-426 1349 0 862 426 1349 427 488 1180 488" transform="scale(.01563)"/><path id="DejaVuSans-53" d="M3425 4513v-616q-359 172-678 256-319 85-616 85-515 0-795-200t-280-569q0-310 186-468 186-157 705-254l381-78q706-135 1042-474t336-907q0-679-455-1029Q2797-91 1919-91q-331 0-705 75-373 75-773 222v650q384-215 753-325 369-109 725-109 540 0 834 212 294 213 294 607 0 343-211 537t-692 291l-385 75q-706 140-1022 440-315 300-315 835 0 619 436 975t1201 356q329 0 669-60 341-59 697-177" transform="scale(.01563)"/><path id="DejaVuSans-42" d="M1259 2228V519h1013q509 0 754 211 246 211 246 645 0 438-246 645-245 208-754 208zm0 1919V2741h935q462 0 688 173 227 174 227 530 0 353-227 528-226 175-688 175zm-631 519h1613q722 0 1112-300 391-300 391-853 0-429-200-682t-588-315q466-100 724-418 258-317 258-792 0-625-425-966Q3088 0 2303 0H628z" transform="scale(.01563)"/><path id="DejaVuSans-61" d="M2194 1759q-697 0-966-159t-269-544q0-306 202-486 202-179 548-179 479 0 768 339t289 901v128zm1147 238V0h-575v531q-197-318-491-470T1556-91q-537 0-855 302-317 302-317 808 0 590 395 890 396 300 1180 300h807v57q0 397-261 614t-733 217q-300 0-585-72-284-72-546-216v532q315 122 612 182 297 61 578 61 760 0 1135-394 375-393 375-1193" transform="scale(.01563)"/><path id="DejaVuSans-45" d="M628 4666h2950v-532H1259V2753h2222v-531H1259V531h2375V0H628z" transform="scale(.01563)"/><path id="DejaVuSans-75" d="M544 1381v2119h575V1403q0-497 193-746 194-248 582-248 465 0 735 297 271 297 271 810v1984h575V0h-575v538q-209-319-486-474-276-155-642-155-603 0-916 375-312 375-312 1097m1447 2203" transform="scale(.01563)"/><path id="DejaVuSans-4d" d="M628 4666h941l1190-3175 1197 3175h941V0h-616v4097L3078 897h-634L1241 4097V0H628z" transform="scale(.01563)"/><path id="DejaVuSans-79" d="M2059-325q-243-625-475-815-231-191-618-191H506v481h338q237 0 368 113 132 112 291 531l103 262L191 3500h609L1894 763l1094 2737h609z" transform="scale(.01563)"/></defs><use xlink:href="#DejaVuSans-52"/><use xlink:href="#DejaVuSans-65" transform="translate(64.982)"/><use xlink:href="#DejaVuSans-76" transform="translate(126.506)"/><use xlink:href="#DejaVuSans-65" transform="translate(185.686)"/><use xlink:href="#DejaVuSans-72" transform="translate(247.209)"/><use xlink:href="#DejaVuSans-73" transform="translate(288.322)"/><use xlink:href="#DejaVuSans-65" transform="translate(340.422)"/><use xlink:href="#DejaVuSans-2d" transform="translate(401.945)"/><use xlink:href="#DejaVuSans-54" transform="translate(428.904)"/><use xlink:href="#DejaVuSans-69" transform="translate(486.863)"/><use xlink:href="#DejaVuSans-6d" transform="translate(514.646)"/><use xlink:href="#DejaVuSans-65" transform="translate(612.059)"/><use xlink:href="#DejaVuSans-4f" transform="translate(705.37)"/><use xlink:href="#DejaVuSans-72" transform="translate(784.08)"/><use xlink:href="#DejaVuSans-6e" transform="translate(823.443)"/><use xlink:href="#DejaVuSans-73" transform="translate(886.822)"/><use xlink:href="#DejaVuSans-74" transform="translate(938.922)"/><use xlink:href="#DejaVuSans-65" transform="translate(978.13)"/><use xlink:href="#DejaVuSans-69" transform="translate(1039.654)"/><use xlink:href="#DejaVuSans-6e" transform="translate(1067.438)"/><use xlink:href="#DejaVuSans-2d" transform="translate(1130.816)"/><use xlink:href="#DejaVuSans-55" transform="translate(1166.9)"/><use xlink:href="#DejaVuSans-68" transform="translate(1240.094)"/><use xlink:href="#DejaVuSans-6c" transform="translate(1303.473)"/><use xlink:href="#DejaVuSans-65" transform="translate(1331.256)"/><use xlink:href="#DejaVuSans-6e" transform="translate(1392.78)"/><use xlink:href="#DejaVuSans-62" transform="translate(1456.158)"/><use xlink:href="#DejaVuSans-65" transform="translate(1519.635)"/><use xlink:href="#DejaVuSans-63" transform="translate(1581.158)"/><use xlink:href="#DejaVuSans-6b" transform="translate(1636.139)"/><use xlink:href="#DejaVuSans-50" transform="translate(1725.836)"/><use xlink:href="#DejaVuSans-72" transform="translate(1784.389)"/><use xlink:href="#DejaVuSans-6f" transform="translate(1823.252)"/><use xlink:href="#DejaVuSans-63" transform="translate(1884.434)"/><use xlink:href="#DejaVuSans-65" transform="translate(1939.414)"/><use xlink:href="#DejaVuSans-73" transform="translate(2000.938)"/><use xlink:href="#DejaVuSans-73" transform="translate(2053.037)"/><use xlink:href="#DejaVuSans-28" transform="translate(2136.924)"/><use xlink:href="#DejaVuSans-53" transform="translate(2175.938)"/><use xlink:href="#DejaVuSans-63" transform="translate(2239.414)"/><use xlink:href="#DejaVuSans-6f" transform="translate(2294.395)"/><use xlink:href="#DejaVuSans-72" transform="translate(2355.576)"/><use xlink:href="#DejaVuSans-65" transform="translate(2394.44)"/><use xlink:href="#DejaVuSans-2d" transform="translate(2455.963)"/><use xlink:href="#DejaVuSans-42" transform="translate(2488.422)"/><use xlink:href="#DejaVuSans-61" transform="translate(2557.025)"/><use xlink:href="#DejaVuSans-73" transform="translate(2618.305)"/><use xlink:href="#DejaVuSans-65" transform="translate(2670.404)"/><use xlink:href="#DejaVuSans-64" transform="translate(2731.928)"/><use xlink:href="#DejaVuSans-45" transform="translate(2827.191)"/><use xlink:href="#DejaVuSans-75" transform="translate(2890.375)"/><use xlink:href="#DejaVuSans-6c" transform="translate(2953.754)"/><use xlink:href="#DejaVuSans-65" transform="translate(2981.537)"/><use xlink:href="#DejaVuSans-72" transform="translate(3043.06)"/><use xlink:href="#DejaVuSans-2d" transform="translate(3077.799)"/><use xlink:href="#DejaVuSans-4d" transform="translate(3113.883)"/><use xlink:href="#DejaVuSans-61" transform="translate(3200.162)"/><use xlink:href="#DejaVuSans-72" transform="translate(3261.441)"/><use xlink:href="#DejaVuSans-75" transform="translate(3302.555)"/><use xlink:href="#DejaVuSans-79" transform="translate(3365.934)"/><use xlink:href="#DejaVuSans-61" transform="translate(3425.113)"/><use xlink:href="#DejaVuSans-6d" transform="translate(3486.393)"/><use xlink:href="#DejaVuSans-61" transform="translate(3583.805)"/><use xlink:href="#DejaVuSans-29" transform="translate(3645.084)"/></g><g class="legend"><path d="M274.564 101.753h119.5q1.6 0 1.6-1.6V42.24q0-1.6-1.6-1.6h-119.5q-1.6 0-1.6 1.6v57.913q0 1.6 1.6 1.6z" class="patch" style="fill:rgba(255,255,255,.8)!important;opacity:.9;stroke:rgba(0,0,0,.1)!important;stroke-linejoin:miter"/><path id="line2d_33" d="M276.164 47.12h16" style="fill:none;stroke:#ff0001;stroke-width:1.2;stroke-linecap:square"/><g id="text_15" class="text" transform="matrix(.08 0 0 -.08 298.564 49.92)"><use xlink:href="#DejaVuSans-50"/><use xlink:href="#DejaVuSans-61" transform="translate(55.803)"/><use xlink:href="#DejaVuSans-74" transform="translate(117.082)"/><use xlink:href="#DejaVuSans-68" transform="translate(156.291)"/><use xlink:href="#DejaVuSans-31" transform="translate(251.457)"/></g><path id="line2d_34" d="M276.164 58.862h16" style="fill:none;stroke:#00ff02;stroke-width:1.2;stroke-linecap:square"/><g id="text_16" class="text" transform="matrix(.08 0 0 -.08 298.564 61.662)"><use xlink:href="#DejaVuSans-50"/><use xlink:href="#DejaVuSans-61" transform="translate(55.803)"/><use xlink:href="#DejaVuSans-74" transform="translate(117.082)"/><use xlink:href="#DejaVuSans-68" transform="translate(156.291)"/><use xlink:href="#DejaVuSans-32" transform="translate(251.457)"/></g><path id="line2d_35" d="M276.164 70.604h16" style="fill:none;stroke:#00f;stroke-width:1.2;stroke-linecap:square"/><g id="text_17" class="text" transform="matrix(.08 0 0 -.08 298.564 73.404)"><use xlink:href="#DejaVuSans-50"/><use xlink:href="#DejaVuSans-61" transform="translate(55.803)"/><use xlink:href="#DejaVuSans-74" transform="translate(117.082)"/><use xlink:href="#DejaVuSans-68" transform="translate(156.291)"/><use xlink:href="#DejaVuSans-33" transform="translate(251.457)"/></g><path id="line2d_36" d="M276.164 82.347h16" style="fill:none;stroke:#f0f;stroke-width:1.2;stroke-linecap:square"/><g id="text_18" class="text" transform="matrix(.08 0 0 -.08 298.564 85.147)"><use xlink:href="#DejaVuSans-50"/><use xlink:href="#DejaVuSans-61" transform="translate(55.803)"/><use xlink:href="#DejaVuSans-74" transform="translate(117.082)"/><use xlink:href="#DejaVuSans-68" transform="translate(156.291)"/><use xlink:href="#DejaVuSans-34" transform="translate(251.457)"/></g><path id="line2d_37" d="M276.164 94.09h16" style="fill:none;stroke:#0ff;stroke-width:1.2;stroke-linecap:square"/><g id="text_19" class="text" transform="matrix(.08 0 0 -.08 298.564 96.89)"><use xlink:href="#DejaVuSans-50"/><use xlink:href="#DejaVuSans-61" transform="translate(55.803)"/><use xlink:href="#DejaVuSans-74" transform="translate(117.082)"/><use xlink:href="#DejaVuSans-68" transform="translate(156.291)"/><use xlink:href="#DejaVuSans-35" transform="translate(251.457)"/></g><path id="line2d_38" d="M339.77 47.12h16" style="fill:none;stroke:#ff0;stroke-width:1.2;stroke-linecap:square"/><g id="text_20" class="text" transform="matrix(.08 0 0 -.08 362.17 49.92)"><defs><path id="DejaVuSans-36" d="M2113 2584q-425 0-674-291-248-290-248-796 0-503 248-796 249-292 674-292t673 292q248 293 248 796 0 506-248 796-248 291-673 291m1253 1979v-575q-238 112-480 171-242 60-480 60-625 0-955-422-329-422-376-1275 184 272 462 417 279 145 613 145 703 0 1111-427 408-426 408-1160 0-719-425-1154Q2819-91 2113-91q-810 0-1238 620-428 621-428 1799 0 1106 525 1764t1409 658q238 0 480-47t505-140" transform="scale(.01563)"/></defs><use xlink:href="#DejaVuSans-50"/><use xlink:href="#DejaVuSans-61" transform="translate(55.803)"/><use xlink:href="#DejaVuSans-74" transform="translate(117.082)"/><use xlink:href="#DejaVuSans-68" transform="translate(156.291)"/><use xlink:href="#DejaVuSans-36" transform="translate(251.457)"/></g><path id="line2d_39" d="M339.77 58.862h16" style="fill:none;stroke:#ff8000;stroke-width:1.2;stroke-linecap:square"/><g id="text_21" class="text" transform="matrix(.08 0 0 -.08 362.17 61.662)"><defs><path id="DejaVuSans-37" d="M525 4666h3000v-269L1831 0h-659l1594 4134H525z" transform="scale(.01563)"/></defs><use xlink:href="#DejaVuSans-50"/><use xlink:href="#DejaVuSans-61" transform="translate(55.803)"/><use xlink:href="#DejaVuSans-74" transform="translate(117.082)"/><use xlink:href="#DejaVuSans-68" transform="translate(156.291)"/><use xlink:href="#DejaVuSans-37" transform="translate(251.457)"/></g><path id="line2d_40" d="M339.77 70.604h16" style="fill:none;stroke:#8000ff;stroke-width:1.2;stroke-linecap:square"/><g id="text_22" class="text" transform="matrix(.08 0 0 -.08 362.17 73.404)"><defs><path id="DejaVuSans-38" d="M2034 2216q-450 0-708-241-257-241-257-662 0-422 257-663 258-241 708-241t709 242q260 243 260 662 0 421-258 662-257 241-711 241m-631 268q-406 100-633 378-226 279-226 679 0 559 398 884 399 325 1092 325 697 0 1094-325t397-884q0-400-227-679-226-278-629-378 456-106 710-416 255-309 255-755 0-679-414-1042Q2806-91 2034-91q-771 0-1186 362-414 363-414 1042 0 446 256 755 257 310 713 416m-231 997q0-362 226-565 227-203 636-203 407 0 636 203 230 203 230 565 0 363-230 566-229 203-636 203-409 0-636-203-226-203-226-566" transform="scale(.01563)"/></defs><use xlink:href="#DejaVuSans-50"/><use xlink:href="#DejaVuSans-61" transform="translate(55.803)"/><use xlink:href="#DejaVuSans-74" transform="translate(117.082)"/><use xlink:href="#DejaVuSans-68" transform="translate(156.291)"/><use xlink:href="#DejaVuSans-38" transform="translate(251.457)"/></g><path id="line2d_41" d="M339.77 82.347h16" style="fill:none;stroke:#ff0001;stroke-width:1.2;stroke-linecap:square"/><g id="text_23" class="text" transform="matrix(.08 0 0 -.08 362.17 85.147)"><defs><path id="DejaVuSans-39" d="M703 97v575q238-113 481-172 244-59 479-59 625 0 954 420 330 420 377 1277-181-269-460-413-278-144-615-144-700 0-1108 423-408 424-408 1159 0 718 425 1152 425 435 1131 435 810 0 1236-621 427-620 427-1801 0-1103-524-1761Q2575-91 1691-91q-238 0-482 47Q966 3 703 97m1256 1978q425 0 673 290 249 291 249 798 0 503-249 795-248 292-673 292t-673-292-248-795q0-507 248-798 248-290 673-290" transform="scale(.01563)"/></defs><use xlink:href="#DejaVuSans-50"/><use xlink:href="#DejaVuSans-61" transform="translate(55.803)"/><use xlink:href="#DejaVuSans-74" transform="translate(117.082)"/><use xlink:href="#DejaVuSans-68" transform="translate(156.291)"/><use xlink:href="#DejaVuSans-39" transform="translate(251.457)"/></g><path id="line2d_42" d="M339.77 94.09h16" style="fill:none;stroke:#00ff02;stroke-width:1.2;stroke-linecap:square"/><g id="text_24" class="text" transform="matrix(.08 0 0 -.08 362.17 96.89)"><use xlink:href="#DejaVuSans-50"/><use xlink:href="#DejaVuSans-61" transform="translate(55.803)"/><use xlink:href="#DejaVuSans-74" transform="translate(117.082)"/><use xlink:href="#DejaVuSans-68" transform="translate(156.291)"/><use xlink:href="#DejaVuSans-31" transform="translate(251.457)"/><use xlink:href="#DejaVuSans-30" transform="translate(315.08)"/></g></g></g></g><defs><clipPath id="p150600fe92"><path d="M49.687 31.318h357.12V297.43H49.687z"/></clipPath></defs></svg>