<svg xmlns="http://www.w3.org/2000/svg" xmlns:xlink="http://www.w3.org/1999/xlink" width="420.671" height="445.358" viewBox="0 0 315.503 334.019"><style><![CDATA[.text{fill:#000!important;stroke:none!important}.axis path,.tick path,[stroke=black],[stroke=currentColor]{stroke:#000!important}@media (prefers-color-scheme:dark){.text{fill:#fff!important;stroke:none!important}.axis path,.tick path,[stroke=black],[stroke=currentColor]{stroke:#fff!important}}*{stroke-linejoin:round;stroke-linecap:butt}]]></style><g id="figure_1"><path d="M0 334.019h315.503V0H0z" class="patch" style="fill:none"/><g id="axes_1"><path d="M42.19 297.43h266.113V31.318H42.19z" class="patch" style="fill:none"/><path d="M64.367 275.254h22.176z" class="patch" clip-path="url(#p2c8fb606b1)" style="fill:#ff8000;opacity:.5;stroke:#ff8000;stroke-linejoin:miter"/><path d="M86.543 275.254h22.176v-4.435H86.543z" class="patch" clip-path="url(#p2c8fb606b1)" style="fill:#ff8000;opacity:.5;stroke:#ff8000;stroke-linejoin:miter"/><path d="M108.719 275.254h22.176v-17.74h-22.176z" class="patch" clip-path="url(#p2c8fb606b1)" style="fill:#ff8000;opacity:.5;stroke:#ff8000;stroke-linejoin:miter"/><path d="M130.895 275.254h22.176v-39.917h-22.176z" class="patch" clip-path="url(#p2c8fb606b1)" style="fill:#ff8000;opacity:.5;stroke:#ff8000;stroke-linejoin:miter"/><path d="M153.07 275.254h22.177v-70.963H153.07z" class="patch" clip-path="url(#p2c8fb606b1)" style="fill:#ff8000;opacity:.5;stroke:#ff8000;stroke-linejoin:miter"/><path d="M175.247 275.254h22.176v-110.88h-22.176z" class="patch" clip-path="url(#p2c8fb606b1)" style="fill:#ff8000;opacity:.5;stroke:#ff8000;stroke-linejoin:miter"/><path d="M197.423 275.254h22.176V115.587h-22.176z" class="patch" clip-path="url(#p2c8fb606b1)" style="fill:#ff8000;opacity:.5;stroke:#ff8000;stroke-linejoin:miter"/><path d="M219.599 275.254h22.176V57.93h-22.176z" class="patch" clip-path="url(#p2c8fb606b1)" style="fill:#ff8000;opacity:.5;stroke:#ff8000;stroke-linejoin:miter"/><path d="M241.775 275.254h22.176V-8.599h-22.176z" class="patch" clip-path="url(#p2c8fb606b1)" style="fill:#ff8000;opacity:.5;stroke:#ff8000;stroke-linejoin:miter"/><path d="M263.95 275.254h22.177V-83.997H263.95z" class="patch" clip-path="url(#p2c8fb606b1)" style="fill:#ff8000;opacity:.5;stroke:#ff8000;stroke-linejoin:miter"/><g class="axis"><g class="tick xtick"><path id="line2d_1" d="M64.367 297.43V31.318" clip-path="url(#p2c8fb606b1)" style="fill:none;stroke:#b0b0b0;stroke-opacity:.1;stroke-width:.8;stroke-linecap:square"/><g id="line2d_2"><defs><path id="m95b288bf4f" d="M0 0v3.5" style="stroke:currentColor;stroke-width:.8"/></defs><use xlink:href="#m95b288bf4f" x="64.367" y="297.43" style="stroke:currentColor;stroke-width:.8"/></g><g id="text_1" class="text" transform="matrix(.09 0 0 -.09 57.21 311.269)"><defs><path id="DejaVuSans-30" d="M2034 4250q-487 0-733-480-245-479-245-1442 0-959 245-1439 246-480 733-480 491 0 736 480 246 480 246 1439 0 963-246 1442-245 480-736 480zm0 500q785 0 1199-621 414-620 414-1801 0-1178-414-1799Q2819-91 2034-91q-784 0-1198 620-414 621-414 1799 0 1181 414 1801 414 621 1198 621z" transform="scale(.01563)"/><path id="DejaVuSans-2e" d="M684 794h660V0H684z" transform="scale(.01563)"/></defs><use xlink:href="#DejaVuSans-30"/><use xlink:href="#DejaVuSans-2e" transform="translate(63.623)"/><use xlink:href="#DejaVuSans-30" transform="translate(95.41)"/></g></g><g class="tick xtick"><path id="line2d_3" d="M119.807 297.43V31.318" clip-path="url(#p2c8fb606b1)" style="fill:none;stroke:#b0b0b0;stroke-opacity:.1;stroke-width:.8;stroke-linecap:square"/><use xlink:href="#m95b288bf4f" id="line2d_4" x="119.807" y="297.43" style="stroke:currentColor;stroke-width:.8"/><g id="text_2" class="text" transform="matrix(.09 0 0 -.09 112.65 311.269)"><defs><path id="DejaVuSans-35" d="M691 4666h2478v-532H1269V2991q137 47 274 70 138 23 276 23 781 0 1237-428 457-428 457-1159 0-753-469-1171Q2575-91 1722-91q-294 0-599 50Q819 9 494 109v635q281-153 581-228t634-75q541 0 856 284 316 284 316 772 0 487-316 771-315 285-856 285-253 0-505-56-251-56-513-175z" transform="scale(.01563)"/></defs><use xlink:href="#DejaVuSans-30"/><use xlink:href="#DejaVuSans-2e" transform="translate(63.623)"/><use xlink:href="#DejaVuSans-35" transform="translate(95.41)"/></g></g><g class="tick xtick"><path id="line2d_5" d="M175.247 297.43V31.318" clip-path="url(#p2c8fb606b1)" style="fill:none;stroke:#b0b0b0;stroke-opacity:.1;stroke-width:.8;stroke-linecap:square"/><use xlink:href="#m95b288bf4f" id="line2d_6" x="175.247" y="297.43" style="stroke:currentColor;stroke-width:.8"/><g id="text_3" class="text" transform="matrix(.09 0 0 -.09 168.09 311.269)"><defs><path id="DejaVuSans-31" d="M794 531h1031v3560L703 3866v575l1116 225h631V531h1031V0H794z" transform="scale(.01563)"/></defs><use xlink:href="#DejaVuSans-31"/><use xlink:href="#DejaVuSans-2e" transform="translate(63.623)"/><use xlink:href="#DejaVuSans-30" transform="translate(95.41)"/></g></g><g class="tick xtick"><path id="line2d_7" d="M230.687 297.43V31.318" clip-path="url(#p2c8fb606b1)" style="fill:none;stroke:#b0b0b0;stroke-opacity:.1;stroke-width:.8;stroke-linecap:square"/><use xlink:href="#m95b288bf4f" id="line2d_8" x="230.687" y="297.43" style="stroke:currentColor;stroke-width:.8"/><g id="text_4" class="text" transform="matrix(.09 0 0 -.09 223.53 311.269)"><use xlink:href="#DejaVuSans-31"/><use xlink:href="#DejaVuSans-2e" transform="translate(63.623)"/><use xlink:href="#DejaVuSans-35" transform="translate(95.41)"/></g></g><g class="tick xtick"><path id="line2d_9" d="M286.127 297.43V31.318" clip-path="url(#p2c8fb606b1)" style="fill:none;stroke:#b0b0b0;stroke-opacity:.1;stroke-width:.8;stroke-linecap:square"/><use xlink:href="#m95b288bf4f" id="line2d_10" x="286.127" y="297.43" style="stroke:currentColor;stroke-width:.8"/><g id="text_5" class="text" transform="matrix(.09 0 0 -.09 278.97 311.269)"><defs><path id="DejaVuSans-32" d="M1228 531h2203V0H469v531q359 372 979 998 621 627 780 809 303 340 423 576 121 236 121 464 0 372-261 606-261 235-680 235-297 0-627-103-329-103-704-313v638q381 153 712 231 332 78 607 78 725 0 1156-363 431-362 431-968 0-288-108-546-107-257-392-607-78-91-497-524-418-433-1181-1211z" transform="scale(.01563)"/></defs><use xlink:href="#DejaVuSans-32"/><use xlink:href="#DejaVuSans-2e" transform="translate(63.623)"/><use xlink:href="#DejaVuSans-30" transform="translate(95.41)"/></g></g><g id="text_6" class="text" transform="matrix(.1 0 0 -.1 172.247 324.739)"><defs><path id="DejaVuSans-Oblique-78" d="M3841 3500 2234 1784 3219 0h-660l-740 1388L531 0h-697l1722 1844-915 1656h659l672-1266 1172 1266z" transform="scale(.01563)"/></defs><use xlink:href="#DejaVuSans-Oblique-78" transform="translate(0 .313)"/></g></g><g class="axis"><g class="tick ytick"><path id="line2d_11" d="M42.19 275.254h266.113" clip-path="url(#p2c8fb606b1)" style="fill:none;stroke:#b0b0b0;stroke-opacity:.1;stroke-width:.8;stroke-linecap:square"/><g id="line2d_12"><defs><path id="mbc15896534" d="M0 0h-3.5" style="stroke:currentColor;stroke-width:.8"/></defs><use xlink:href="#mbc15896534" x="42.191" y="275.254" style="stroke:currentColor;stroke-width:.8"/></g><g id="text_7" class="text" transform="matrix(.09 0 0 -.09 20.878 278.673)"><use xlink:href="#DejaVuSans-30"/><use xlink:href="#DejaVuSans-2e" transform="translate(63.623)"/><use xlink:href="#DejaVuSans-30" transform="translate(95.41)"/></g></g><g class="tick ytick"><path id="line2d_13" d="M42.19 219.814h266.113" clip-path="url(#p2c8fb606b1)" style="fill:none;stroke:#b0b0b0;stroke-opacity:.1;stroke-width:.8;stroke-linecap:square"/><use xlink:href="#mbc15896534" id="line2d_14" x="42.191" y="219.814" style="stroke:currentColor;stroke-width:.8"/><g id="text_8" class="text" transform="matrix(.09 0 0 -.09 20.878 223.233)"><use xlink:href="#DejaVuSans-30"/><use xlink:href="#DejaVuSans-2e" transform="translate(63.623)"/><use xlink:href="#DejaVuSans-35" transform="translate(95.41)"/></g></g><g class="tick ytick"><path id="line2d_15" d="M42.19 164.374h266.113" clip-path="url(#p2c8fb606b1)" style="fill:none;stroke:#b0b0b0;stroke-opacity:.1;stroke-width:.8;stroke-linecap:square"/><use xlink:href="#mbc15896534" id="line2d_16" x="42.191" y="164.374" style="stroke:currentColor;stroke-width:.8"/><g id="text_9" class="text" transform="matrix(.09 0 0 -.09 20.878 167.793)"><use xlink:href="#DejaVuSans-31"/><use xlink:href="#DejaVuSans-2e" transform="translate(63.623)"/><use xlink:href="#DejaVuSans-30" transform="translate(95.41)"/></g></g><g class="tick ytick"><path id="line2d_17" d="M42.19 108.934h266.113" clip-path="url(#p2c8fb606b1)" style="fill:none;stroke:#b0b0b0;stroke-opacity:.1;stroke-width:.8;stroke-linecap:square"/><use xlink:href="#mbc15896534" id="line2d_18" x="42.191" y="108.934" style="stroke:currentColor;stroke-width:.8"/><g id="text_10" class="text" transform="matrix(.09 0 0 -.09 20.878 112.353)"><use xlink:href="#DejaVuSans-31"/><use xlink:href="#DejaVuSans-2e" transform="translate(63.623)"/><use xlink:href="#DejaVuSans-35" transform="translate(95.41)"/></g></g><g class="tick ytick"><path id="line2d_19" d="M42.19 53.494h266.113" clip-path="url(#p2c8fb606b1)" style="fill:none;stroke:#b0b0b0;stroke-opacity:.1;stroke-width:.8;stroke-linecap:square"/><use xlink:href="#mbc15896534" id="line2d_20" x="42.191" y="53.494" style="stroke:currentColor;stroke-width:.8"/><g id="text_11" class="text" transform="matrix(.09 0 0 -.09 20.878 56.913)"><use xlink:href="#DejaVuSans-32"/><use xlink:href="#DejaVuSans-2e" transform="translate(63.623)"/><use xlink:href="#DejaVuSans-30" transform="translate(95.41)"/></g></g><g id="text_12" class="text" transform="matrix(0 -.1 -.1 0 14.798 173.024)"><defs><path id="DejaVuSans-Oblique-66" d="m3059 4863-90-479h-550q-313 0-455-123t-211-452l-62-309h947l-85-447h-947L1013 0H434l597 3053H481l82 447h550l46 244q119 619 417 869 299 250 940 250z" transform="scale(.01563)"/><path id="DejaVuSans-28" d="M1984 4856q-418-718-622-1422-203-703-203-1425 0-721 205-1429t620-1424h-500Q1016-109 783 600T550 2009q0 697 231 1403 232 707 703 1444z" transform="scale(.01563)"/><path id="DejaVuSans-29" d="M513 4856h500q468-737 701-1444 233-706 233-1403 0-700-233-1409T1013-844H513q415 716 620 1424t205 1429q0 722-205 1425-205 704-620 1422z" transform="scale(.01563)"/></defs><use xlink:href="#DejaVuSans-Oblique-66" transform="translate(0 .016)"/><use xlink:href="#DejaVuSans-28" transform="translate(35.205 .016)"/><use xlink:href="#DejaVuSans-Oblique-78" transform="translate(74.219 .016)"/><use xlink:href="#DejaVuSans-29" transform="translate(133.398 .016)"/></g></g><path id="line2d_21" d="m64.367 275.254 2.24-.045 2.24-.136 2.24-.226 2.24-.317 2.24-.407 2.24-.498 2.24-.588 2.24-.679 2.24-.77 2.24-.86 2.24-.95 2.24-1.04 2.24-1.132 2.24-1.221 2.24-1.313 2.24-1.403 2.24-1.493 2.24-1.584 2.24-1.674 2.24-1.765 2.24-1.855 2.24-1.946 2.24-2.036 2.24-2.127 2.24-2.218 2.24-2.308 2.24-2.398 2.24-2.489 2.24-2.58 2.24-2.67 2.24-2.76 2.24-2.85 2.24-2.942 2.24-3.032 2.24-3.122 2.24-3.213 2.24-3.304 2.24-3.394 2.24-3.484 2.24-3.575 2.24-3.665 2.24-3.756 2.24-3.847 2.24-3.937 2.24-4.027 2.24-4.118 2.24-4.209 2.24-4.299 2.24-4.39 2.24-4.48 2.24-4.57 2.24-4.66 2.24-4.752 2.24-4.842 2.24-4.933 2.24-5.023 2.24-5.113 2.24-5.204 2.24-5.295 2.24-5.385 2.24-5.476 2.24-5.566 2.24-5.656 2.24-5.747 2.24-5.838 2.24-5.928 2.24-6.018 2.24-6.11 2.24-6.2 2.24-6.29 2.24-6.38 2.24-6.471 2.24-6.562 2.24-6.652 2.24-6.742 2.24-6.833 2.24-6.924 2.24-7.014.296-.938" clip-path="url(#p2c8fb606b1)" style="fill:none;stroke:#8000ff;stroke-width:2;stroke-linecap:square"/><path d="M42.19 297.43V31.318M42.19 297.43h266.113" class="patch" style="fill:none;stroke:currentColor;stroke-width:.8;stroke-linejoin:miter;stroke-linecap:square"/><g id="text_13" class="text" transform="matrix(.12 0 0 -.12 60.587 16.318)"><defs><path id="DejaVuSans-52" d="M2841 2188q203-69 395-294t386-619L4263 0h-679l-596 1197q-232 469-449 622t-592 153h-688V0H628v4666h1425q800 0 1194-335 394-334 394-1009 0-441-205-732-205-290-595-402zM1259 4147V2491h794q456 0 689 211t233 620-233 617-689 208z" transform="scale(.01563)"/><path id="DejaVuSans-69" d="M603 3500h575V0H603zm0 1363h575v-729H603z" transform="scale(.01563)"/><path id="DejaVuSans-65" d="M3597 1894v-281H953q38-594 358-905t892-311q331 0 642 81t618 244V178Q3153 47 2828-22t-659-69q-838 0-1327 487-489 488-489 1320 0 859 464 1363 464 505 1252 505 706 0 1117-455 411-454 411-1235zm-575 169q-6 471-264 752-258 282-683 282-481 0-770-272t-333-766z" transform="scale(.01563)"/><path id="DejaVuSans-6d" d="M3328 2828q216 388 516 572t706 184q547 0 844-383 297-382 297-1088V0h-578v2094q0 503-179 746-178 244-543 244-447 0-707-297-259-296-259-809V0h-578v2094q0 506-178 748t-550 242q-441 0-701-298-259-298-259-808V0H581v3500h578v-544q197 322 472 475t653 153q382 0 649-194 267-193 395-562z" transform="scale(.01563)"/><path id="DejaVuSans-61" d="M2194 1759q-697 0-966-159t-269-544q0-306 202-486 202-179 548-179 479 0 768 339t289 901v128zm1147 238V0h-575v531q-197-318-491-470T1556-91q-537 0-855 302-317 302-317 808 0 590 395 890 396 300 1180 300h807v57q0 397-261 614t-733 217q-300 0-585-72-284-72-546-216v532q315 122 612 182 297 61 578 61 760 0 1135-394 375-393 375-1193z" transform="scale(.01563)"/><path id="DejaVuSans-6e" d="M3513 2113V0h-575v2094q0 497-194 743-194 247-581 247-466 0-735-297-269-296-269-809V0H581v3500h578v-544q207 316 486 472 280 156 646 156 603 0 912-373 310-373 310-1098z" transform="scale(.01563)"/><path id="DejaVuSans-53" d="M3425 4513v-616q-359 172-678 256-319 85-616 85-515 0-795-200t-280-569q0-310 186-468 186-157 705-254l381-78q706-135 1042-474t336-907q0-679-455-1029Q2797-91 1919-91q-331 0-705 75-373 75-773 222v650q384-215 753-325 369-109 725-109 540 0 834 212 294 213 294 607 0 343-211 537t-692 291l-385 75q-706 140-1022 440-315 300-315 835 0 619 436 975t1201 356q329 0 669-60 341-59 697-177z" transform="scale(.01563)"/><path id="DejaVuSans-75" d="M544 1381v2119h575V1403q0-497 193-746 194-248 582-248 465 0 735 297 271 297 271 810v1984h575V0h-575v538q-209-319-486-474-276-155-642-155-603 0-916 375-312 375-312 1097zm1447 2203z" transform="scale(.01563)"/><path id="DejaVuSans-2c" d="M750 794h659V256L897-744H494L750 256z" transform="scale(.01563)"/><path id="DejaVuSans-Oblique-6e" d="M3566 2113 3156 0h-578l410 2091q28 147 43 259 16 113 16 178 0 263-166 409-165 147-462 147-463 0-797-308-334-307-438-835L800 0H225l678 3500h575l-115-550q240 303 577 468 338 166 710 166 463 0 717-250 255-250 255-703 0-112-14-240t-42-278z" transform="scale(.01563)"/><path id="DejaVuSans-3d" d="M678 2906h4006v-525H678zm0-1275h4006v-531H678z" transform="scale(.01563)"/><path id="DejaVuSans-64" d="M2906 2969v1894h575V0h-575v525q-181-312-458-464-276-152-664-152-634 0-1033 506-398 507-398 1332t398 1331q399 506 1033 506 388 0 664-152 277-151 458-463zM947 1747q0-634 261-995t717-361 718 361q263 361 263 995t-263 995q-262 361-718 361t-717-361-261-995z" transform="scale(.01563)"/><path id="DejaVuSans-72" d="M2631 2963q-97 56-211 82-114 27-251 27-488 0-749-317t-261-911V0H581v3500h578v-544q182 319 472 473 291 155 707 155 59 0 131-8 72-7 159-23z" transform="scale(.01563)"/><path id="DejaVuSans-6f" d="M1959 3097q-462 0-731-361t-269-989 267-989q268-361 733-361 460 0 728 362 269 363 269 988 0 622-269 986-268 364-728 364zm0 487q750 0 1178-488 429-487 429-1349 0-859-429-1349Q2709-91 1959-91q-753 0-1180 489-426 490-426 1349 0 862 426 1349 427 488 1180 488z" transform="scale(.01563)"/><path id="DejaVuSans-38" d="M2034 2216q-450 0-708-241-257-241-257-662 0-422 257-663 258-241 708-241t709 242q260 243 260 662 0 421-258 662-257 241-711 241zm-631 268q-406 100-633 378-226 279-226 679 0 559 398 884 399 325 1092 325 697 0 1094-325t397-884q0-400-227-679-226-278-629-378 456-106 710-416 255-309 255-755 0-679-414-1042Q2806-91 2034-91q-771 0-1186 362-414 363-414 1042 0 446 256 755 257 310 713 416zm-231 997q0-362 226-565 227-203 636-203 407 0 636 203 230 203 230 565 0 363-230 566-229 203-636 203-409 0-636-203-226-203-226-566z" transform="scale(.01563)"/></defs><use xlink:href="#DejaVuSans-52" transform="translate(0 .016)"/><use xlink:href="#DejaVuSans-69" transform="translate(69.482 .016)"/><use xlink:href="#DejaVuSans-65" transform="translate(97.266 .016)"/><use xlink:href="#DejaVuSans-6d" transform="translate(158.79 .016)"/><use xlink:href="#DejaVuSans-61" transform="translate(256.201 .016)"/><use xlink:href="#DejaVuSans-6e" transform="translate(317.48 .016)"/><use xlink:href="#DejaVuSans-6e" transform="translate(380.86 .016)"/><use xlink:href="#DejaVuSans-53" transform="translate(476.025 .016)"/><use xlink:href="#DejaVuSans-75" transform="translate(539.502 .016)"/><use xlink:href="#DejaVuSans-6d" transform="translate(602.88 .016)"/><use xlink:href="#DejaVuSans-2c" transform="translate(700.293 .016)"/><use xlink:href="#DejaVuSans-Oblique-6e" transform="translate(763.867 .016)"/><use xlink:href="#DejaVuSans-3d" transform="translate(846.729 .016)"/><use xlink:href="#DejaVuSans-31" transform="translate(950 .016)"/><use xlink:href="#DejaVuSans-30" transform="translate(1013.623 .016)"/><use xlink:href="#DejaVuSans-2c" transform="translate(1077.246 .016)"/><use xlink:href="#DejaVuSans-61" transform="translate(1140.82 .016)"/><use xlink:href="#DejaVuSans-6e" transform="translate(1202.1 .016)"/><use xlink:href="#DejaVuSans-64" transform="translate(1265.479 .016)"/><use xlink:href="#DejaVuSans-65" transform="translate(1360.742 .016)"/><use xlink:href="#DejaVuSans-72" transform="translate(1422.266 .016)"/><use xlink:href="#DejaVuSans-72" transform="translate(1463.379 .016)"/><use xlink:href="#DejaVuSans-6f" transform="translate(1504.492 .016)"/><use xlink:href="#DejaVuSans-72" transform="translate(1565.674 .016)"/><use xlink:href="#DejaVuSans-3d" transform="translate(1638.574 .016)"/><use xlink:href="#DejaVuSans-30" transform="translate(1754.15 .016)"/><use xlink:href="#DejaVuSans-2e" transform="translate(1817.773 .016)"/><use xlink:href="#DejaVuSans-38" transform="translate(1846.936 .016)"/></g></g></g><defs><clipPath id="p2c8fb606b1"><path d="M42.191 31.318h266.112V297.43H42.191z"/></clipPath></defs></svg>