<svg xmlns="http://www.w3.org/2000/svg" xmlns:xlink="http://www.w3.org/1999/xlink" width="542.587" height="414.491" style="--axis-color:#000;--grid-stroke:rgba(0,0,0,0.2);--plot3d-stroke:rgba(0,0,0,0.3);--plot3d-grid:rgba(0,0,0,0.2)" viewBox="0 0 406.94 310.868"><style><![CDATA[@media (prefers-color-scheme:dark){:root{--axis-color:#fff;--grid-stroke:rgba(255,255,255,0.2);--plot3d-stroke:rgba(255,255,255,0.3);--plot3d-grid:rgba(255,255,255,0.2)}}.text{fill:var(--axis-color)!important;stroke:none!important}.axis path,.patch path[style*="stroke: currentColor"],.tick path{stroke:var(--axis-color)!important}g.legend>g:first-child>path:first-child{fill:rgba(255,255,255,.8)!important;stroke:rgba(0,0,0,.1)!important}@media (prefers-color-scheme:dark){g.legend>g:first-child>path:first-child{fill:rgba(26,26,26,.8)!important;stroke:rgba(255,255,255,.1)!important}}*{stroke-linejoin:round;stroke-linecap:butt}]]></style><g id="figure_1"><path d="M0 310.868h406.94V0H0z" class="patch" style="fill:none"/><g id="axes_1"><path d="M42.62 273.312h155.27V7.2H42.62z" class="patch" style="fill:none"/><g id="FillBetweenPolyCollection_1"><defs><path id="m58354e2e87" d="M162.058-37.556v-266.112 28.082l.001 1.337v4.012l.001 1.337v1.337l.001 1.338.001 1.337.001 1.337.001 1.337.002 1.338.002 1.337.002 1.337.003 1.337.004 1.338.004 1.337.006 1.337.006 1.337.008 1.338.01 1.337.012 1.337.014 1.337.016 1.338.02 1.337.024 1.337.027 1.337.033 1.338.038 1.337.045 1.337.052 1.337.06 1.338.07 1.337.081 1.337.093 1.337.105 1.338.12 1.337.137 1.337.154 1.337.173 1.338.194 1.337.217 1.337.242 1.337.267 1.338.295 1.337.325 1.337.355 1.337.387 1.337.42 1.338.456 1.337.49 1.337.524 1.337.56 1.338.594 1.337.63 1.337.662 1.337.694 1.338.723 1.337.75 1.337.775 1.337.795 1.338.812 1.337.824 1.337.83 1.337.834 1.338.83 1.337.822 1.337.805 1.337.785 1.338.757 1.337.722 1.337.683 1.337.637 1.338.585 1.337.527 1.337.466 1.337.4 1.338.328 1.337.255 1.337.18 1.337.101 1.338.023 1.337-.056 1.337-.135 1.337-.212 1.338-.287 1.337-.359 1.337-.428 1.337-.492 1.338-.553 1.337-.607 1.337-.657 1.337-.7 1.338-.739 1.337-.77 1.337-.793 1.337-.813 1.338-.826 1.337-.832 1.337-.833 1.337-.83 1.338-.819 1.337-.805 1.337-.786 1.337-.765 1.338-.74 1.337-.71 1.337-.681 1.337-.649 1.338-.614 1.337-.58 1.337-.545 1.337-.51 1.337-.475 1.338-.44 1.337-.406 1.337-.374 1.337-.342 1.338-.311 1.337-.284 1.337-.256 1.337-.23 1.338-.208 1.337-.185 1.337-.165 1.337-.146 1.338-.13 1.337-.113 1.337-.1 1.337-.087 1.338-.076 1.337-.066 1.337-.057 1.337-.049 1.338-.042 1.337-.035 1.337-.031 1.337-.026 1.338-.022 1.337-.018 1.337-.016 1.337-.012 1.338-.011 1.337-.01 1.337-.007 1.337-.006 1.338-.005 1.337-.004 1.337-.003 1.337-.003 1.338-.002 1.337-.002 1.337-.001 1.337-.001 1.338-.001 1.337v1.337l-.002 1.337v5.349l-.001 1.338v22.733z" style="stroke:#ff0001;stroke-opacity:.3"/></defs><g clip-path="url(#p029b00f218)"><use xlink:href="#m58354e2e87" y="310.868" style="fill:#ff0001;fill-opacity:.3;stroke:#ff0001;stroke-opacity:.3"/></g></g><g class="axis"><g class="tick xtick"><path id="line2d_1" d="M42.62 273.312V7.2" clip-path="url(#p029b00f218)" style="fill:none;stroke:#b0b0b0;stroke-opacity:.15;stroke-width:.8;stroke-linecap:square"/><g id="line2d_2"><defs><path id="m7328f22e0f" d="M0 0v3.5" style="stroke:currentColor;stroke-width:.8"/></defs><use xlink:href="#m7328f22e0f" x="42.62" y="273.312" style="stroke:currentColor;stroke-width:.8"/></g><g id="text_1" class="text" transform="matrix(.1 0 0 -.1 34.669 287.91)"><defs><path id="DejaVuSans-30" d="M2034 4250q-487 0-733-480-245-479-245-1442 0-959 245-1439 246-480 733-480 491 0 736 480 246 480 246 1439 0 963-246 1442-245 480-736 480zm0 500q785 0 1199-621 414-620 414-1801 0-1178-414-1799Q2819-91 2034-91q-784 0-1198 620-414 621-414 1799 0 1181 414 1801 414 621 1198 621z" transform="scale(.01563)"/><path id="DejaVuSans-2e" d="M684 794h660V0H684z" transform="scale(.01563)"/></defs><use xlink:href="#DejaVuSans-30"/><use xlink:href="#DejaVuSans-2e" transform="translate(63.623)"/><use xlink:href="#DejaVuSans-30" transform="translate(95.41)"/></g></g><g class="tick xtick"><path id="line2d_3" d="M102.34 273.312V7.2" clip-path="url(#p029b00f218)" style="fill:none;stroke:#b0b0b0;stroke-opacity:.15;stroke-width:.8;stroke-linecap:square"/><use xlink:href="#m7328f22e0f" id="line2d_4" x="102.339" y="273.312" style="stroke:currentColor;stroke-width:.8"/><g id="text_2" class="text" transform="matrix(.1 0 0 -.1 94.388 287.91)"><defs><path id="DejaVuSans-35" d="M691 4666h2478v-532H1269V2991q137 47 274 70 138 23 276 23 781 0 1237-428 457-428 457-1159 0-753-469-1171Q2575-91 1722-91q-294 0-599 50Q819 9 494 109v635q281-153 581-228t634-75q541 0 856 284 316 284 316 772 0 487-316 771-315 285-856 285-253 0-505-56-251-56-513-175z" transform="scale(.01563)"/></defs><use xlink:href="#DejaVuSans-30"/><use xlink:href="#DejaVuSans-2e" transform="translate(63.623)"/><use xlink:href="#DejaVuSans-35" transform="translate(95.41)"/></g></g><g class="tick xtick"><path id="line2d_5" d="M162.058 273.312V7.2" clip-path="url(#p029b00f218)" style="fill:none;stroke:#b0b0b0;stroke-opacity:.15;stroke-width:.8;stroke-linecap:square"/><use xlink:href="#m7328f22e0f" id="line2d_6" x="162.058" y="273.312" style="stroke:currentColor;stroke-width:.8"/><g id="text_3" class="text" transform="matrix(.1 0 0 -.1 154.107 287.91)"><defs><path id="DejaVuSans-31" d="M794 531h1031v3560L703 3866v575l1116 225h631V531h1031V0H794z" transform="scale(.01563)"/></defs><use xlink:href="#DejaVuSans-31"/><use xlink:href="#DejaVuSans-2e" transform="translate(63.623)"/><use xlink:href="#DejaVuSans-30" transform="translate(95.41)"/></g></g><g id="text_4" class="text" transform="matrix(.1 0 0 -.1 118.255 301.589)"><defs><path id="DejaVuSans-Oblique-74" d="m2706 3500-87-447H1472l-372-1900q-19-106-28-178t-9-112q0-200 120-291t386-91h581L2053 0h-550Q991 0 739 200 488 400 488 806q0 72 9 158t28 189l372 1900H409l91 447h478l194 994h575l-191-994z" transform="scale(.01563)"/></defs><use xlink:href="#DejaVuSans-Oblique-74" transform="translate(0 .781)"/></g></g><g class="axis"><g class="tick ytick"><path id="line2d_7" d="M42.62 236.273h155.27" clip-path="url(#p029b00f218)" style="fill:none;stroke:#b0b0b0;stroke-opacity:.15;stroke-width:.8;stroke-linecap:square"/><g id="line2d_8"><defs><path id="m3081e09eb4" d="M0 0h-3.5" style="stroke:currentColor;stroke-width:.8"/></defs><use xlink:href="#m3081e09eb4" x="42.62" y="236.273" style="stroke:currentColor;stroke-width:.8"/></g><g id="text_5" class="text" transform="matrix(.1 0 0 -.1 20.878 240.072)"><defs><path id="DejaVuSans-2212" d="M678 2272h4006v-531H678z" transform="scale(.01563)"/><path id="DejaVuSans-34" d="M2419 4116 825 1625h1594zm-166 550h794V1625h666v-525h-666V0h-628v1100H313v609z" transform="scale(.01563)"/></defs><use xlink:href="#DejaVuSans-2212"/><use xlink:href="#DejaVuSans-34" transform="translate(83.79)"/></g></g><g class="tick ytick"><path id="line2d_9" d="M42.62 189.794h155.27" clip-path="url(#p029b00f218)" style="fill:none;stroke:#b0b0b0;stroke-opacity:.15;stroke-width:.8;stroke-linecap:square"/><use xlink:href="#m3081e09eb4" id="line2d_10" x="42.62" y="189.794" style="stroke:currentColor;stroke-width:.8"/><g id="text_6" class="text" transform="matrix(.1 0 0 -.1 20.878 193.593)"><defs><path id="DejaVuSans-32" d="M1228 531h2203V0H469v531q359 372 979 998 621 627 780 809 303 340 423 576 121 236 121 464 0 372-261 606-261 235-680 235-297 0-627-103-329-103-704-313v638q381 153 712 231 332 78 607 78 725 0 1156-363 431-362 431-968 0-288-108-546-107-257-392-607-78-91-497-524-418-433-1181-1211z" transform="scale(.01563)"/></defs><use xlink:href="#DejaVuSans-2212"/><use xlink:href="#DejaVuSans-32" transform="translate(83.79)"/></g></g><g class="tick ytick"><path id="line2d_11" d="M42.62 143.315h155.27" clip-path="url(#p029b00f218)" style="fill:none;stroke:#b0b0b0;stroke-opacity:.15;stroke-width:.8;stroke-linecap:square"/><use xlink:href="#m3081e09eb4" id="line2d_12" x="42.62" y="143.315" style="stroke:currentColor;stroke-width:.8"/><use xlink:href="#DejaVuSans-30" id="text_7" class="text" transform="matrix(.1 0 0 -.1 29.258 147.115)"/></g><g class="tick ytick"><path id="line2d_13" d="M42.62 96.837h155.27" clip-path="url(#p029b00f218)" style="fill:none;stroke:#b0b0b0;stroke-opacity:.15;stroke-width:.8;stroke-linecap:square"/><use xlink:href="#m3081e09eb4" id="line2d_14" x="42.62" y="96.837" style="stroke:currentColor;stroke-width:.8"/><use xlink:href="#DejaVuSans-32" id="text_8" class="text" transform="matrix(.1 0 0 -.1 29.258 100.636)"/></g><g class="tick ytick"><path id="line2d_15" d="M42.62 50.358h155.27" clip-path="url(#p029b00f218)" style="fill:none;stroke:#b0b0b0;stroke-opacity:.15;stroke-width:.8;stroke-linecap:square"/><use xlink:href="#m3081e09eb4" id="line2d_16" x="42.62" y="50.358" style="stroke:currentColor;stroke-width:.8"/><use xlink:href="#DejaVuSans-34" id="text_9" class="text" transform="matrix(.1 0 0 -.1 29.258 54.157)"/></g><g id="text_10" class="text" transform="matrix(0 -.1 -.1 0 14.798 153.987)"><defs><path id="DejaVuSans-56" d="M1831 0 50 4666h659L2188 738l1481 3928h656L2547 0z" transform="scale(.01563)"/><path id="DejaVuSans-61" d="M2194 1759q-697 0-966-159t-269-544q0-306 202-486 202-179 548-179 479 0 768 339t289 901v128zm1147 238V0h-575v531q-197-318-491-470T1556-91q-537 0-855 302-317 302-317 808 0 590 395 890 396 300 1180 300h807v57q0 397-261 614t-733 217q-300 0-585-72-284-72-546-216v532q315 122 612 182 297 61 578 61 760 0 1135-394 375-393 375-1193z" transform="scale(.01563)"/><path id="DejaVuSans-6c" d="M603 4863h575V0H603z" transform="scale(.01563)"/><path id="DejaVuSans-75" d="M544 1381v2119h575V1403q0-497 193-746 194-248 582-248 465 0 735 297 271 297 271 810v1984h575V0h-575v538q-209-319-486-474-276-155-642-155-603 0-916 375-312 375-312 1097zm1447 2203z" transform="scale(.01563)"/><path id="DejaVuSans-65" d="M3597 1894v-281H953q38-594 358-905t892-311q331 0 642 81t618 244V178Q3153 47 2828-22t-659-69q-838 0-1327 487-489 488-489 1320 0 859 464 1363 464 505 1252 505 706 0 1117-455 411-454 411-1235zm-575 169q-6 471-264 752-258 282-683 282-481 0-770-272t-333-766z" transform="scale(.01563)"/></defs><use xlink:href="#DejaVuSans-56"/><use xlink:href="#DejaVuSans-61" transform="translate(60.658)"/><use xlink:href="#DejaVuSans-6c" transform="translate(121.938)"/><use xlink:href="#DejaVuSans-75" transform="translate(149.72)"/><use xlink:href="#DejaVuSans-65" transform="translate(213.1)"/></g></g><path id="line2d_17" d="m42.62 143.315 1.195-.137 1.194-1.225 1.194 2.282 1.195-.012 1.194.486 1.195-.098 1.194 6.08 1.194-2.963 1.195.742 1.194-3.94 1.195 1.12 1.194 2.857 1.194 2.084 1.195-2.1 1.194.223 1.194 4.386 1.195-.03 1.194-2.932 1.195.88 1.194-.443 1.194.157 1.195-.815 1.194-1.789 1.194-.556 1.195-4.916 1.194-.734 1.195 1.056 1.194-3.367 1.194-1.034 1.195-.318 1.194-2.447 1.195 1.264 1.194.329 1.194.323 1.195-.26 1.194 4.146 1.194-1.44 1.195-2.71 1.194 3.882 1.195.171 1.194 1.152 1.194-.36 1.195-2.065 1.194 3.128 1.194-.778 1.195 4.357 1.194.608 1.195-.658 1.194-1.635 1.194-1.333 1.195-4.493 1.194-1.31 1.195 2.204 1.194-2.995 1.194-1.83 1.195.94 1.194-1.551 1.194.859 1.195.437 1.194 3.615 1.195-.12 1.194 2.452 1.194.985 1.195-.085 1.194-.636 1.194 1.398 1.195 4.043 1.194-1.085 1.195-2.353 1.194-.277 1.194-1.416 1.195-.289 1.194 2.125 1.195 1.512 1.194-2.163 1.194 3.839 1.195-.71 1.194.821 1.194-3.651 1.195-.995 1.194-4.667 1.195.81 1.194-.906 1.194-1.128 1.195-1.176 1.194-4.995 1.194 1.046 1.195.538 1.194 2.215 1.195-.522 1.194-2.575 1.194-1.216 1.195-.328 1.194-4.697 1.195-2.27 1.194-2.94 1.194-3.207 1.195-.364 1.194-1.032 1.194-2.567" clip-path="url(#p029b00f218)" style="fill:none;stroke:#ff0001;stroke-opacity:.7;stroke-width:1.2;stroke-linecap:square"/><path id="line2d_18" d="m42.62 143.315 1.195-1.054 1.194-1.174 1.194.89 1.195-1.95 1.194.644 1.195 1.496 1.194-.518 1.194 3.886 1.195-1.812 1.194-3.934 1.195 4.12 1.194 1.269 1.194-2.091 1.195.458 1.194 1.713 1.194-1.084 1.195-2.578 1.194 1.158 1.195 2.052 1.194-1.783 1.194-5.66 1.195.872 1.194 3.702 1.194.292 1.195 2.083 1.194 1.221 1.195 3.722 1.194-1.175 1.194-.629 1.195-.924 1.194.724 1.195.132 1.194-.913 1.194-4.33 1.195-4.933 1.194-.243 1.194-4.635 1.195-.583 1.194 4.195 1.195-3.28 1.194.321 1.194-1.852 1.195-.671 1.194-.833 1.194.546 1.195-.88 1.194 2.484 1.195-.595 1.194-.18 1.194 2.368 1.195-1.084 1.194 1.724 1.195-.506 1.194 1.779 1.194-3.117 1.195-2.38 1.194 1.978 1.194.435 1.195-1.284 1.194 1.644 1.195 2.835 1.194-1.955 1.194 2.076 1.195-.419 1.194 2.28 1.194-3.872 1.195 2.386 1.194.928 1.195-.786 1.194 4.758 1.194 1.554 1.195 4.27 1.194-1.174 1.195 1.134 1.194.399 1.194-4.256 1.195.74 1.194-3.668 1.194-1.367 1.195-3.885 1.194-1.752 1.195-1.715 1.194 2.779 1.194-.967 1.195 2.296 1.194-.22 1.194-.823 1.195.797 1.194-1.88 1.195-.185 1.194 6.268 1.194 3.728 1.195 1.369 1.194-1.705 1.195-7.083 1.194-.243 1.194-1.53 1.195-1.28 1.194-1.818 1.194.576" clip-path="url(#p029b00f218)" style="fill:none;stroke:#ff0001;stroke-opacity:.7;stroke-width:1.2;stroke-linecap:square"/><path id="line2d_19" d="m42.62 143.315 1.195-3.145 1.194-3.648 1.194 1.286 1.195-1.85 1.194 3.328 1.195 3.303 1.194-2.265 1.194 1.203 1.195-1.217 1.194-3.16 1.195-1.467 1.194.744 1.194.548 1.195 1.747 1.194-5.395 1.194.318 1.195-.54 1.194-.676 1.195-.316 1.194.376 1.194-2.764 1.195 1.207 1.194 1.54 1.194-.379 1.195-.649 1.194-3.925 1.195 1.968 1.194-.2 1.194.262 1.195 2.927 1.194-.507 1.195 3.187 1.194 1.552 1.194 2.02 1.195 3.212 1.194 1.368 1.194-.054 1.195-1.88 1.194 2.446 1.195.436 1.194-1.894 1.194.148 1.195-3.15 1.194.836 1.194 4.018 1.195-3.44 1.194 1.275 1.195 3.796 1.194.075 1.194 1.11 1.195-2.554 1.194-2.323 1.195-3.257 1.194 2.505 1.194 2.885 1.195-.097 1.194-.429 1.194-.518 1.195-.6 1.194-2.487 1.195-.804 1.194-.898 1.194.164 1.195 4.404 1.194-.893 1.194.17 1.195-2.392 1.194 2.526 1.195-1.847 1.194.567 1.194 3.017 1.195 3.345 1.194-2.491 1.195-2.685 1.194.452 1.194 3.74 1.195-2.675 1.194 2.188 1.194-3.68 1.195 2.262 1.194.974 1.195 1.3 1.194-.942 1.194 1.632 1.195-2.903 1.194-2.671 1.194 2.16 1.195-4.352 1.194-2.584 1.195-.105 1.194-.828 1.194-2.934 1.195 2.386 1.194-2.02 1.195 3.051 1.194-1.378 1.194-1.436 1.195-2.755 1.194.042 1.194.743" clip-path="url(#p029b00f218)" style="fill:none;stroke:#ff0001;stroke-opacity:.7;stroke-width:1.2;stroke-linecap:square"/><path id="line2d_20" d="m42.62 143.315 1.195 3.68 1.194 1.906 1.194-4.697 1.195-1.422 1.194-.335 1.195-5.788 1.194-6.156 1.194-4.297 1.195-.13 1.194 1.653 1.195-1.09 1.194-.266 1.194 2.394 1.195-.276 1.194 2.346 1.194 2.58 1.195-.414 1.194 1.994 1.195.615 1.194-4.857 1.194-1.332 1.195-.861 1.194-1.662 1.194 1.122 1.195 2.36 1.194-4.451 1.195.78 1.194 2.701 1.194-.784 1.195 2.699 1.194 1.16 1.195-3.504 1.194-3.824 1.194 2.53 1.195-.893 1.194-2.607 1.194-2.242 1.195-.383 1.194 3.787 1.195-2.67 1.194-3.113 1.194-1.236 1.195-.651 1.194 4.105 1.194-1.802 1.195-2.119 1.194 1.635 1.195-1.57 1.194-.501 1.194-2.158 1.195-1.475 1.194.356 1.195-.888 1.194-1.961 1.194.869 1.195 3.109 1.194-1.982 1.194-.738 1.195-2.92 1.194 1.266 1.195-1.032 1.194-.767 1.194-2.95 1.195-.748 1.194-3.391 1.194-2.337 1.195 4.99 1.194-.747 1.195-1.213 1.194 3.749 1.194-2.86 1.195-2.362 1.194-1.138 1.195-2.384 1.194.204 1.194-2.297 1.195 1.024 1.194.383 1.194-1.059 1.195-.757 1.194-.274 1.195 1.074 1.194 2.634 1.194-1.813 1.195 3.205 1.194 3.135 1.194.654 1.195 1.586 1.194-5.144 1.195.342 1.194-.668 1.194-1.428 1.195 4.537 1.194-4.182 1.195 2.683 1.194 3.304 1.194-2.414 1.195-4.503 1.194-1.495 1.194-1.382" clip-path="url(#p029b00f218)" style="fill:none;stroke:#ff0001;stroke-opacity:.7;stroke-width:1.2;stroke-linecap:square"/><path id="line2d_21" d="m42.62 143.315 1.195 1.081 1.194 3.087 1.194 3.053 1.195-1.963 1.194-.827 1.195.172 1.194 3.455 1.194.28 1.195-.384 1.194-1.546 1.195-4.936 1.194-1.108 1.194-2.324 1.195-1.054 1.194 4.24 1.194 3.484 1.195-.485 1.194-.592 1.195-2.062 1.194-1.821 1.194.128 1.195-2.62 1.194-.412 1.194.003 1.195-2.316 1.194.24 1.195 2.035 1.194-5.718 1.194 2.838 1.195-1.03 1.194-1.737 1.195-1.116 1.194-.502 1.194-.692 1.195-.86 1.194.494 1.194-1.177 1.195 2.6 1.194-.343 1.195-1.248 1.194-.333 1.194 2.056 1.195 5.306 1.194 4 1.194 1.298 1.195-1.407 1.194-2.116 1.195 1.952 1.194 1.538 1.194-1.579 1.195.208 1.194-1.328 1.195 1.006 1.194.582 1.194 1.175 1.195.379 1.194-.48 1.194 2.05 1.195 2.59 1.194 3.507 1.195 4.353 1.194-5.75 1.194.084 1.195-.782 1.194 2.99 1.194.077 1.195.47 1.194 1.145 1.195-3.242 1.194-3.511 1.194-.492 1.195-2.904 1.194-.595 1.195 1.346 1.194-.772 1.194 1.305 1.195.63 1.194-1.456 1.194-.815 1.195.712 1.194.727 1.195-.648 1.194.452 1.194-1.35 1.195 2.02 1.194 5.337 1.194.607 1.195-3.22 1.194 6.145 1.195 3.892 1.194.074 1.194-.843 1.195-1.813 1.194.196 1.195.478 1.194-2.572 1.194-.374 1.195.911 1.194.982 1.194 2.617" clip-path="url(#p029b00f218)" style="fill:none;stroke:#ff0001;stroke-opacity:.7;stroke-width:1.2;stroke-linecap:square"/><path id="line2d_22" d="m42.62 143.315 1.195-5.307 1.194-2.585 1.194 3.014 1.195 3.305 1.194 1.673 1.195-4.202 1.194-1.974 1.194 1.39 1.195.96 1.194-5.337 1.195 1.506 1.194-.24 1.194 1.502 1.195-1.97 1.194-.951 1.194-1.2 1.195-4.011 1.194.328 1.195.29 1.194 3.23 1.194 2.54 1.195 2.476 1.194-2.25 1.194-.07 1.195 1.903 1.194.83 1.195 3.079 1.194-.417 1.194.535 1.195-1.799 1.194-4.652 1.195 2.824 1.194-.594 1.194-2.426 1.195 2.718 1.194.328 1.194 1.742 1.195-.533 1.194-.191 1.195-.94 1.194-.178 1.194.492 1.195.25 1.194 1.429 1.194 1.443 1.195.35 1.194-1.907 1.195 2.718 1.194.601 1.194-1.035 1.195-2.898 1.194 1.13 1.195-3.288 1.194-1.086 1.194.058 1.195-.8 1.194 1.052 1.194-.045 1.195 4.75 1.194 2.416 1.195.663 1.194-4.611 1.194 2.702 1.195-1.372 1.194-1.433 1.194-.121 1.195.945 1.194 3.342 1.195.948 1.194-3.829 1.194 1.294 1.195 1.832 1.194-3.4 1.195-2.632 1.194-1.977 1.194 5.673 1.195-3.57 1.194-.39 1.194-.385 1.195-1.361 1.194 3.242 1.195 1.183 1.194-.634 1.194 1.978 1.195-.352 1.194-.013 1.194 1.506 1.195.17 1.194 2.964 1.195 1.163 1.194-1.822 1.194 2.085 1.195.315 1.194-1.313 1.195-.19 1.194-.52 1.194 2.782 1.195.514 1.194 2.373 1.194-.615" clip-path="url(#p029b00f218)" style="fill:none;stroke:#ff0001;stroke-opacity:.7;stroke-width:1.2;stroke-linecap:square"/><path id="line2d_23" d="m42.62 143.315 1.195.927 1.194-2.298 1.194 2.24 1.195.352 1.194.093 1.195-1.257 1.194.64 1.194 1.922 1.195 4.567 1.194-3.177 1.195 2.788 1.194-1.9 1.194-1 1.195.285 1.194 1.083 1.194-2.928 1.195.08 1.194-2.223 1.195 2.295 1.194 1.194 1.194 1.737 1.195 4.71 1.194 1.32 1.194.207 1.195-4.173 1.194 1.662 1.195.266 1.194 3.197 1.194.564 1.195 2.103 1.194 1.638 1.195.92 1.194.632 1.194 2.915 1.195 4.47 1.194-3.832 1.194.635 1.195.002 1.194 3.315 1.195.012 1.194 2.868 1.194-1.319 1.195 3.883 1.194 1.18 1.194 2.628 1.195 1.117 1.194 3.654 1.195 2.726 1.194 4.61 1.194.79 1.195-.085 1.194 1.46 1.195 2.613 1.194-2.74 1.194-3.201 1.195 3.25 1.194-1.609 1.194.352 1.195-.588 1.194 1.735 1.195 1 1.194 4.313 1.194-2.893 1.195-.3 1.194-.17 1.194-2.173 1.195 2.839 1.194.726 1.195.535 1.194-.401 1.194-.322 1.195 1.236 1.194 2.249 1.195-1.612 1.194 3.011 1.194-.765 1.195-2.265 1.194 2.535 1.194 3.72 1.195.904 1.194.316 1.195-4.199 1.194 3.546 1.194-1.061 1.195 2.696 1.194 2.949 1.194.933 1.195-1.3 1.194-1.667 1.195-1.166 1.194 2.097 1.194-2.156 1.195 2.687 1.194-.007 1.195-.399 1.194 1.496 1.194-.326 1.195.301 1.194.1 1.194-1.08" clip-path="url(#p029b00f218)" style="fill:none;stroke:#ff0001;stroke-opacity:.7;stroke-width:1.2;stroke-linecap:square"/><path id="line2d_24" d="m42.62 143.315 1.195.47 1.194 3.11 1.194 2.688 1.195.294 1.194 1.262 1.195.299 1.194-3.177 1.194-1.11 1.195-5.103 1.194.52 1.195-1.293 1.194-.151 1.194 1.214 1.195 2.106 1.194-.23 1.194-1.028 1.195-1.948 1.194-.675 1.195-.512 1.194-3.687 1.194-2.396 1.195-.951 1.194.952 1.194-4.344 1.195 2.035 1.194-1.867 1.195 1.875 1.194-3.021 1.194.683 1.195.72 1.194-3.998 1.195-.167 1.194-2.695 1.194 5.686 1.195-5.158 1.194-.05 1.194-1.122 1.195-2.718 1.194-1.085 1.195 1.563 1.194.992 1.194-.346 1.195 1.464 1.194-.83 1.194.728 1.195.572 1.194 3.139 1.195 2.428 1.194.259 1.194-3.042 1.195-2.342 1.194-.865 1.195-2.572 1.194-1.082 1.194-3.476 1.195 2.531 1.194-4.024 1.194 1.17 1.195-2.1 1.194 2.087 1.195 3.221 1.194 2.9 1.194 2.179 1.195-1.364 1.194 4.117 1.194.298 1.195 1.19 1.194 1.555 1.195-.982 1.194-3.833 1.194.452 1.195-4.84 1.194 2.217 1.195.202 1.194 1.575 1.194-1.41 1.195.086 1.194-.6 1.194-.494 1.195 2.079 1.194 1.38 1.195 1.004 1.194 1.006 1.194-2.701 1.195-.442 1.194-.656 1.194 4.022 1.195-1.908 1.194.625 1.195 3.086 1.194 1.194 1.194-.134 1.195-3.472 1.194-.817 1.195-.898 1.194 4.175 1.194 2.772 1.195-.663 1.194 2.991 1.194-.618" clip-path="url(#p029b00f218)" style="fill:none;stroke:#ff0001;stroke-opacity:.7;stroke-width:1.2;stroke-linecap:square"/><path id="line2d_25" d="m42.62 143.315 1.195-.68 1.194.03 1.194 2.37 1.195-.447 1.194 1.807 1.195-1.374 1.194 1.586 1.194-3.01 1.195-.442 1.194-.046 1.195.595 1.194-2.6 1.194-2 1.195.882 1.194 1.518 1.194.046 1.195-3.712 1.194 2.524 1.195-2.229 1.194 1.958 1.194.753 1.195-2.79 1.194-1.666 1.194 3.086 1.195-.956 1.194.663 1.195-4.758 1.194-.946 1.194-2.27 1.195-2.895 1.194-3.436 1.195 5.7 1.194-.363 1.194.414 1.195-1.324 1.194-1.67 1.194-1.72 1.195-3.692 1.194-1.034 1.195 2.863 1.194 2.033 1.194 2.189 1.195.608 1.194-.58 1.194-.137 1.195-.758 1.194-2.198 1.195 1.8 1.194 4.28 1.194-3.039 1.195-4.523 1.194-.827 1.195-.475 1.194 1.664 1.194-.574 1.195-1.242 1.194 1.093 1.194-2.418 1.195-.17 1.194 2.705 1.195-1.722 1.194-1.719 1.194-3.107 1.195-.761 1.194.168 1.194-2.105 1.195 1.392 1.194 2.609 1.195-.053 1.194-1.59 1.194-4.658 1.195-1.548 1.194-1.135 1.195-1.839 1.194.106 1.194.16 1.195-.185 1.194-.793 1.194 2.634 1.195-1.281 1.194-2.103 1.195-1.46 1.194-.94 1.194 1.088 1.195-1.473 1.194 3.164 1.194.627 1.195-1.51 1.194 1.979 1.195 1.992 1.194 1.47 1.194 1.109 1.195-2.8 1.194 2.692 1.195 2.383 1.194.903 1.194 3.128 1.195-3.877 1.194-.155 1.194 1.393" clip-path="url(#p029b00f218)" style="fill:none;stroke:#ff0001;stroke-opacity:.7;stroke-width:1.2;stroke-linecap:square"/><path id="line2d_26" d="m42.62 143.315 1.195-.262 1.194-1.725 1.194-2.645 1.195-3.744 1.194 1.066 1.195 1.792 1.194 4.645 1.194.738 1.195 1.58 1.194.267 1.195-4.088 1.194-8.248 1.194 1.7 1.195-2.663 1.194.924 1.194-1.935 1.195-1.62 1.194 1.423 1.195 3.239 1.194-4.528 1.194-1.167 1.195-4.55 1.194-1.867 1.194.32 1.195 1.783 1.194-.412 1.195-4.043 1.194 1.19 1.194-3.608 1.195 3.269 1.194 1.012 1.195 2.668 1.194 2.874 1.194 1.7 1.195-2.43 1.194 2.14 1.194-2.613 1.195 5.613 1.194-1.614 1.195 1.07 1.194-.79 1.194-1.468 1.195-.103 1.194-.147 1.194.91 1.195-2.528 1.194 1.217 1.195 2.711 1.194 2.044 1.194 1.049 1.195-3.264 1.194 2.356 1.195.07 1.194-1.962 1.194-1.246 1.195-.094 1.194-.19 1.194-.976 1.195-1.44 1.194-1.859 1.195 3.117 1.194-2.723 1.194.191 1.195 3.855 1.194.954 1.194 1.094 1.195-.603 1.194-.698 1.195 1.941 1.194 3.583 1.194 1.064 1.195-.596 1.194-.294 1.195 1.341 1.194-2.485 1.194-.567 1.195-.966 1.194-1.285 1.194-5.162 1.195-2.374 1.194 3.325 1.195 1.83 1.194-.045 1.194 1.894 1.195-2.668 1.194.816 1.194-.316 1.195-3.037 1.194-.938 1.195.107 1.194.559 1.194 2.928 1.195-3.448 1.194 1.757 1.195-2.474 1.194.453 1.194-.717 1.195-3.25 1.194.152 1.194-1.428" clip-path="url(#p029b00f218)" style="fill:none;stroke:#ff0001;stroke-opacity:.7;stroke-width:1.2;stroke-linecap:square"/><path id="line2d_27" d="m42.62 143.315 1.195-2.013 1.194 2.514 1.194 1.915 1.195-2.139 1.194-1.259 1.195-4.666 1.194-1.162 1.194.545 1.195-2.358 1.194 2.603 1.195 5.884 1.194.56 1.194-.44 1.195-3.011 1.194-3.1h1.194l1.195 1.48 1.194-1.522 1.195-3.17 1.194 4.568 1.194-.028 1.195 6.542 1.194-5.492 1.194-4.116 1.195-2.749 1.194-.742 1.195.117 1.194-2.558 1.194 1.408 1.195 1.464 1.194-1.647 1.195-5.031 1.194.516 1.194-1.572 1.195-1.545 1.194-1.785 1.194.39 1.195-.124 1.194-6.776 1.195.295 1.194 4.538 1.194 4.412 1.195.316 1.194.966 1.194-3.952 1.195.96 1.194 1.782 1.195-2.29 1.194 2.88 1.194-.386 1.195 5.627 1.194 1.779 1.195-2.774 1.194-1.212 1.194-1.832 1.195 2.537 1.194 2.905 1.194 3.35 1.195 2.967 1.194-.846 1.195-4.703 1.194 1.86 1.194-2.272 1.195-2.22 1.194-2.205 1.194-3.498 1.195.58 1.194 1.945 1.195-1.385 1.194-.812 1.194-1.397 1.195.9 1.194 2.974 1.195 1.544 1.194-3.504 1.194 2.246 1.195 4.515 1.194 1.198 1.194-3.447 1.195 2.964 1.194-.996 1.195-5.29 1.194-3.187 1.194.515 1.195-2.779 1.194-1.215 1.194-.446 1.195 1.82 1.194-2.278 1.195 1.69 1.194 4.842 1.194-1.848 1.195 1.196 1.194-4.077 1.195.452 1.194-1.902 1.194-.52 1.195 2.755 1.194-.636 1.194.66" clip-path="url(#p029b00f218)" style="fill:none;stroke:#00ff02;stroke-opacity:.7;stroke-width:1.2;stroke-linecap:square"/><path id="line2d_28" d="m42.62 143.315 1.195 4.016 1.194-2.565 1.194 2.216 1.195-1.534 1.194-.013 1.195 1.837 1.194 1.243 1.194.973 1.195-1.727 1.194-1.042 1.195-.289 1.194.811 1.194-1.394 1.195.583 1.194-3.26 1.194 4.006 1.195-.066 1.194 1.081 1.195-.333 1.194-2.791 1.194 5.404 1.195.145 1.194-1.897 1.194-1.514 1.195-2.882 1.194-2.515 1.195-2.842 1.194 5.205 1.194 3.105 1.195-.372 1.194 1.661 1.195 1.6 1.194 1.86 1.194 1.91 1.195-2.16 1.194 3.44 1.194-1.798 1.195-.727 1.194 2.931 1.195-4.294 1.194-4.893 1.194-3.961 1.195 2.436 1.194-.767 1.194-.6 1.195.28 1.194-2.854 1.195-3.388 1.194-2.303 1.194-2.897 1.195-4.497 1.194-3.198 1.195-1.651 1.194 2.267 1.194-.135 1.195-1.202 1.194-1.071 1.194 1.592 1.195-.477 1.194-.191 1.195.392 1.194 1.538 1.194-1.962 1.195-.104 1.194-4.1 1.194-1.805 1.195 1.349 1.194-1.53 1.195-3.211 1.194-.532 1.194-2.357 1.195 2.314 1.194-1.756 1.195-2.852 1.194-1.03 1.194 1.664 1.195 3.106 1.194-1.106 1.194.381 1.195-1.265 1.194 1.064 1.195-.567 1.194-.862 1.194-1.891 1.195.93 1.194 1.335 1.194-2.996 1.195-.702 1.194 3.469 1.195-.356 1.194 1.26 1.194-5.434 1.195.315 1.194-.592 1.195-1.074 1.194-1.08 1.194-3.369 1.195 4.021 1.194 4.055 1.194-.28" clip-path="url(#p029b00f218)" style="fill:none;stroke:#00ff02;stroke-opacity:.7;stroke-width:1.2;stroke-linecap:square"/><path id="line2d_29" d="m42.62 143.315 1.195 4.611 1.194 3.439 1.194 1.371 1.195 1.939 1.194 1.118 1.195-.944 1.194 4.005 1.194 2.295 1.195-.302 1.194-.644 1.195-.68 1.194 5.153 1.194-.984 1.195-.878 1.194 2.796 1.194-1.666 1.195-1.11 1.194-.142 1.195.88 1.194-.25 1.194.017 1.195-3.242 1.194.706 1.194 1.892 1.195 2.658 1.194 1.314 1.195-4.025 1.194.291 1.194-1.926 1.195.02 1.194 1.987 1.195-2.06 1.194-2.158 1.194-2.414 1.195-2.413 1.194-1.384 1.194.27 1.195 3.649 1.194-1.832 1.195 3.2 1.194 2.35 1.194 3.415 1.195 2.295 1.194-3.35 1.194 2.279 1.195 3.69 1.194 4.252 1.195.765 1.194.204 1.194-2.657 1.195-.683 1.194 1.167 1.195-1.66 1.194 2.055 1.194-.163 1.195.71 1.194 3.9 1.194-1.034 1.195-2.277 1.194 2.393 1.195-1.03 1.194-2.088 1.194 1.306 1.195-3.31 1.194 4.064 1.194-.478 1.195-.594 1.194 1.321 1.195 1.29 1.194 3.556 1.194 3.967 1.195 1.771 1.194-2.788 1.195-.46 1.194-1.551 1.194 1.682 1.195.666 1.194 1.659 1.194-2.505 1.195-.324 1.194-6.427 1.195-.836 1.194-1.23 1.194-1.165 1.195-2.34 1.194 2.999 1.194-4.031 1.195-1.645 1.194 3.197 1.195.156 1.194-1.706 1.194-1.268 1.195-1.039 1.194 1.244 1.195-1.422 1.194 1.852 1.194-.358 1.195 1.545 1.194 3.416 1.194 1.495" clip-path="url(#p029b00f218)" style="fill:none;stroke:#00ff02;stroke-opacity:.7;stroke-width:1.2;stroke-linecap:square"/><path id="line2d_30" d="m42.62 143.315 1.195-3.15 1.194-1.596 1.194-2.709 1.195-1.296 1.194.752 1.195 3.65 1.194-5.595 1.194-2.27 1.195-1.994 1.194-3.88 1.195-1.982 1.194.057 1.194-1.232 1.195-1.273 1.194-2.665 1.194-.247 1.195-.727 1.194-1.368 1.195-2.456 1.194 3.82 1.194 4.754 1.195 1.141 1.194 1.323 1.194-.34 1.195 3.451 1.194-1.149 1.195 2.294 1.194 2.645 1.194 1.33 1.195 1.147 1.194-2.32 1.195 1.293 1.194 3.362 1.194 1.314 1.195 3.321 1.194 2.018 1.194-3.393 1.195-3.736 1.194-1.015 1.195-1.883 1.194 1.678 1.194-.438 1.195 2.584 1.194-1.13 1.194-.392 1.195-.481 1.194 1.334 1.195-.702 1.194-2.819 1.194-.266 1.195 1.403 1.194-2.964 1.195-3.984 1.194-4.522 1.194-1.323 1.195-.304 1.194-3.263 1.194 1.482 1.195-1.759 1.194.81 1.195.139 1.194 1.554 1.194-.137 1.195-5.38 1.194.981 1.194.594 1.195-.392 1.194-.558 1.195 2.902 1.194-1.843 1.194 2.064 1.195.862 1.194-4.905 1.195-.117 1.194 1.465 1.194 2.24 1.195.675 1.194 1.286 1.194.362 1.195.124 1.194-3.34 1.195-2.203 1.194.823 1.194.443 1.195-3.993 1.194 4.869 1.194 3.62 1.195.217L148.92 123l1.195-2.763 1.194.128 1.194 1.822 1.195-.327 1.194.004 1.195-2.771 1.194-4.619 1.194 1.756 1.195 2.354 1.194.199 1.194-.78" clip-path="url(#p029b00f218)" style="fill:none;stroke:#00ff02;stroke-opacity:.7;stroke-width:1.2;stroke-linecap:square"/><path id="line2d_31" d="m42.62 143.315 1.195-.989 1.194-4.052 1.194-2.325 1.195-2.383 1.194-.667 1.195-3.103 1.194-.433 1.194 1.687 1.195-1.073 1.194 6.48 1.195 2.645 1.194 1.095 1.194 3.197 1.195 4.142 1.194-.988 1.194 1.726 1.195 1.77 1.194 2.644 1.195-.182 1.194 2.386 1.194-.658 1.195.394 1.194-2.168 1.194-2.235 1.195.618 1.194-.984 1.195 2.644 1.194-4.65 1.194-3.005 1.195-1.4 1.194 3.375 1.195-5.159 1.194 2.2 1.194-8.832 1.195 2.411 1.194 1.917 1.194 5.048 1.195.514 1.194 3.36 1.195.906 1.194-2.16 1.194-.98 1.195-1.432 1.194-3.424 1.194 2.148 1.195-.207 1.194.16 1.195-1.99 1.194.546 1.194 3.312 1.195.978 1.194.358 1.195-1.052 1.194.776 1.194.815 1.195 4.07 1.194-.971 1.194 3.758 1.195 2.124 1.194 3.57 1.195-4.77 1.194.218 1.194.626 1.195-4.596 1.194-.15 1.194.488 1.195 1.154 1.194-.844 1.195 1.029 1.194 1.688 1.194 1.57 1.195 2.127 1.194-.188 1.195.68 1.194 1.087 1.194.56 1.195-1.519 1.194-.917 1.194 1.161 1.195-2.222 1.194 4.156 1.195 1.336 1.194-3.535 1.194-3.452 1.195.338 1.194-2.517 1.194 7.646 1.195-.996 1.194.958 1.195 3.386 1.194-2.454 1.194-3.62 1.195-2.914 1.194.843 1.195.957 1.194 1.02 1.194-.905 1.195 2.479 1.194-1.025 1.194-.74" clip-path="url(#p029b00f218)" style="fill:none;stroke:#00ff02;stroke-opacity:.7;stroke-width:1.2;stroke-linecap:square"/><path id="line2d_32" d="m42.62 143.315 1.195.044 1.194 2.549 1.194 5.056 1.195-.718 1.194-.21 1.195-1.034 1.194 2.475 1.194.486 1.195.963 1.194 2.16 1.195.638 1.194 1.264 1.194-1.23 1.195.639 1.194-4.8 1.194-.74 1.195-4.308 1.194-1.074 1.195-2.017 1.194-5.052 1.194.658 1.195 3.856 1.194-2.728 1.194-3.028 1.195 1.703 1.194 1.53 1.195 3.101 1.194-2.852 1.194 1.664 1.195 2.013 1.194.892 1.195.321 1.194-2.248 1.194 1.053 1.195.431 1.194.665 1.194 1.346 1.195.11 1.194-1.403 1.195.603 1.194 2.34 1.194-.902 1.195 1.09 1.194 1.24 1.194 3.485 1.195.723 1.194 1.697 1.195-.418 1.194-1.596 1.194-3.476 1.195.397 1.194-4.354 1.195-2.634 1.194-4.808 1.194 2.372 1.195 2.437 1.194-1.164 1.194-1.046 1.195-.943 1.194-1.315 1.195-3.846 1.194-.03 1.194 2.756 1.195-2.978 1.194.895 1.194.153 1.195-.855 1.194-2.339 1.195 2.026 1.194 3.11 1.194-1.686 1.195 1.93 1.194-1.423 1.195-.006 1.194-.826 1.194 1.323 1.195 1.515 1.194 2.023 1.194 2.367 1.195-1.172 1.194 1.823 1.195 4.144 1.194-.826 1.194.383 1.195 2.858 1.194-.68 1.194-3.47 1.195-1.05 1.194 2.74 1.195.134 1.194-1.642 1.194-3.638 1.195-1.793 1.194-3.931 1.195-.712 1.194.401 1.194-2.045 1.195 1.38 1.194-.568 1.194 1.2" clip-path="url(#p029b00f218)" style="fill:none;stroke:#00ff02;stroke-opacity:.7;stroke-width:1.2;stroke-linecap:square"/><path id="line2d_33" d="m42.62 143.315 1.195-.023 1.194-4.337 1.194 1.831 1.195 3.67 1.194-3.172 1.195-2.875 1.194-.612 1.194 3.928 1.195 1.062 1.194-.097 1.195-2.14 1.194.385 1.194-4.465 1.195 2.088 1.194-2.553 1.194 1.977 1.195-1.227 1.194 1.993 1.195 1.773 1.194-2.452 1.194-.702 1.195-3.023 1.194-1.745 1.194-2.321 1.195 1.192 1.194-.56 1.195-.541 1.194-.066 1.194 1.185 1.195 1.363 1.194 2.55 1.195 2.158 1.194 1.173 1.194.046 1.195 1.585 1.194 1.311 1.194.877 1.195.963 1.194.403 1.195-2.13 1.194-.76 1.194-3.434 1.195.187 1.194-.447 1.194 2.536 1.195 2.758 1.194-3.443 1.195.63 1.194-1.055 1.194 1.642 1.195-.016 1.194 3.069 1.195-.83 1.194 3.386 1.194-2.196 1.195-2.466 1.194 1.208 1.194-3.164 1.195.567 1.194 1.162 1.195-.616 1.194 3.189 1.194-4.42 1.195.396 1.194 2.367 1.194 2.577 1.195 3.588 1.194-1.069 1.195 2.096 1.194.003 1.194 1.605 1.195-4.133 1.194-.602 1.195.509 1.194-1.01 1.194 2.739 1.195-2.243 1.194 1.65 1.194 1.086 1.195-1.822 1.194-.42 1.195-4.22 1.194-3.308 1.194-.473 1.195 1.333 1.194 2.421 1.194-.16 1.195-.573 1.194 3.89 1.195-.483 1.194-6.513 1.194-1.88 1.195-1.303 1.194 1.786 1.195.87 1.194-2.383 1.194-1.856 1.195 1.195 1.194-1.952 1.194-4.285" clip-path="url(#p029b00f218)" style="fill:none;stroke:#00ff02;stroke-opacity:.7;stroke-width:1.2;stroke-linecap:square"/><path id="line2d_34" d="m42.62 143.315 1.195.91 1.194 1.36 1.194-4.107 1.195 4.212 1.194-2.312 1.195-.686 1.194 3.426 1.194 2.103 1.195 2.112 1.194-.54 1.195-1.703 1.194-.156 1.194.068 1.195-.197 1.194-3.15 1.194.243 1.195-1.461 1.194-1.87 1.195 3.248 1.194.737 1.194-.317 1.195-3.794 1.194-2.314 1.194 3.849 1.195 2.449 1.194-3.134 1.195 3.363 1.194-.348 1.194-4.07 1.195-.816 1.194 3.735 1.195-3.3 1.194.971 1.194-3.376 1.195.038 1.194-2.903 1.194.913 1.195-.722 1.194 1.91 1.195-.195 1.194 1.338 1.194-5.009 1.195-3.818 1.194-.898 1.194-2.049 1.195-3.839 1.194-.098 1.195 1.58 1.194 3.985 1.194-4.856 1.195-.914 1.194-.663 1.195-.631 1.194-2.424 1.194.411 1.195 5.294 1.194 2.014 1.194-2.146 1.195 2.505 1.194-1.184 1.195-.287 1.194 1.048 1.194-3.938 1.195-.665 1.194 1.103 1.194-1.484 1.195-.573 1.194-1.969 1.195-2.556 1.194 2.473 1.194-.315 1.195-.927 1.194 1.163 1.195-.313 1.194 2.39 1.194-.609 1.195 1.593 1.194 2.167 1.194-2.274 1.195-4.088 1.194-1.274 1.195 4.726 1.194 1.076 1.194-1.25 1.195-.54 1.194.802 1.194 1.292 1.195-4.55 1.194-.532 1.195 1.403 1.194 2.955 1.194.315 1.195 1.837 1.194-1.968 1.195.504 1.194 3.178 1.194 3.06 1.195-.594 1.194-.868 1.194-3.188" clip-path="url(#p029b00f218)" style="fill:none;stroke:#00ff02;stroke-opacity:.7;stroke-width:1.2;stroke-linecap:square"/><path id="line2d_35" d="m42.62 143.315 1.195-1.431 1.194-1.322 1.194.551 1.195 4.075 1.194 4.389 1.195 1.296 1.194-3.076 1.194 1.245 1.195-.262 1.194-.53 1.195 2.79 1.194-3.224 1.194-2.344 1.195 2.661 1.194.43 1.194-.744 1.195-.388 1.194-2.09 1.195-1.451 1.194.792 1.194-2.007 1.195-.127 1.194.846 1.194 1 1.195-1.083 1.194-1.802 1.195 4.454 1.194 6.679 1.194 1.66 1.195-1.755 1.194.24 1.195-.14 1.194-2.129 1.194 3.597 1.195 3.555 1.194.286 1.194-.365 1.195-1.704 1.194.317 1.195.573 1.194 2.93 1.194-6.464 1.195-2.718 1.194 2.697 1.194-1.095 1.195-.618 1.194-2.65 1.195 2.537 1.194.598 1.194-2.823 1.195 6.41 1.194 1.96 1.195-2.61 1.194-1.502 1.194 1.894 1.195.394 1.194 4.274 1.194-1.514 1.195-2.61 1.194-1.262 1.195.233 1.194-.113 1.194-3.975 1.195-3.097 1.194-.995 1.194 3.96 1.195-2.52 1.194 2.971 1.195 2.802 1.194-.675 1.194-.62 1.195-1.066 1.194 2.716 1.195-2.094 1.194.225 1.194 4.09 1.195-.979 1.194.469 1.194-1.265 1.195 4.116 1.194.372 1.195-1.782 1.194-1.413 1.194 4.558 1.195 2.612 1.194-.597 1.194 2.267 1.195 2.963 1.194-.328 1.195-2.934 1.194 3.573 1.194 3.99 1.195-2.923 1.194 1.899 1.195-3.485 1.194-1.095 1.194.298 1.195 1.55 1.194 2.25 1.194-1.87" clip-path="url(#p029b00f218)" style="fill:none;stroke:#00ff02;stroke-opacity:.7;stroke-width:1.2;stroke-linecap:square"/><path id="line2d_36" d="m42.62 143.315 1.195 3.445 1.194-1.082 1.194 5.675 1.195-3.321 1.194-.85 1.195 3.602 1.194 2.23 1.194-1.177 1.195 2.216 1.194 3.176 1.195 1.542 1.194-.336 1.194.136 1.195-1.47 1.194-2.342 1.194 1.835 1.195-2.043 1.194 3.956 1.195 2.07 1.194-1.632 1.194-1.874 1.195.447 1.194-.326 1.194 4.13 1.195.84 1.194-.782 1.195 2.342 1.194-1.997 1.194-1.497 1.195 1.297 1.194-2.678 1.195-1.893 1.194 5.277 1.194-1.997 1.195-.614 1.194-.518 1.194-1.29 1.195 1.557 1.194-1.77 1.195 1.532 1.194-.568 1.194-.645 1.195 1.14 1.194 3.271 1.194.593 1.195-3.011 1.194 1.28 1.195 3.707 1.194-3.656 1.194-.808 1.195 1.334 1.194.165 1.195.26 1.194-1.618 1.194-2.248 1.195 2.197 1.194 3.013 1.194-2.433 1.195-2.125 1.194-1.8 1.195-.381 1.194 1.19 1.194.141 1.195 1.092 1.194-3.14 1.194 2.505 1.195 2.531 1.194.585 1.195-3.802 1.194.527 1.194 1.006 1.195 2.83 1.194 3.28 1.195 2.276 1.194-5.077 1.194-1.122 1.195-.46 1.194-2.418 1.194 1.046 1.195-.334 1.194-.79 1.195-1.013 1.194-.479 1.194 1.387 1.195-3.633 1.194 3.437 1.194 2.462 1.195-.033 1.194-2.245 1.195-.86 1.194-1.975 1.194 3.51 1.195-3.098 1.194-1.077 1.195-.621 1.194 1.083 1.194 2.14 1.195 2.11 1.194-2.055 1.194-.683" clip-path="url(#p029b00f218)" style="fill:none;stroke:#00ff02;stroke-opacity:.7;stroke-width:1.2;stroke-linecap:square"/><path id="line2d_37" d="m162.058 273.312.106-53.49.262-9.36.329-5.35.554-5.349.623-4.011.851-4.012 1.122-4.012 1.425-4.011 1.74-4.012 2.04-4.012 2.29-4.012 8.76-14.71 1.264-2.674 1.045-2.674.787-2.675.5-2.674.19-2.675-.124-2.674-.435-2.675-.728-2.674-.993-2.675-1.222-2.674-2.162-4.012-3.242-5.35-4.095-6.685-2.248-4.012-1.986-4.012-1.679-4.012-1.365-4.011-1.067-4.012-.804-4.012-.584-4.011-.516-5.35-.356-6.686-.203-9.36-.074-17.385-.005-40.117h0" clip-path="url(#p029b00f218)" style="fill:none;stroke:#ff0001;stroke-width:2;stroke-linecap:square"/><path id="line2d_38" d="m162.058 273.312.097-68.2.191-4.011.268-2.675.46-2.674.75-2.675 1.141-2.674.75-1.338.884-1.337 1.022-1.337 2.462-2.674 2.954-2.675 8.086-6.686 1.396-1.337 1.21-1.338.978-1.337.712-1.337.419-1.337.108-1.338-.205-1.337-.509-1.337-.792-1.337-1.043-1.338-1.252-1.337-2.934-2.674-4.67-4.012-2.707-2.675-1.108-1.337-.903-1.337-.677-1.337-.435-1.338-.182-1.337.074-1.337.328-1.337.576-1.338.81-1.337 1.023-1.337 1.213-1.337 2.854-2.675 6.155-5.349 1.326-1.337 1.138-1.337.903-1.338.632-1.337.336-1.337.025-1.337-.288-1.338-.59-1.337-.87-1.337-1.117-1.337-1.322-1.338-3.073-2.674-6.518-5.349-2.825-2.675-2.304-2.674-.942-1.337-1.483-2.675-1.018-2.674-.655-2.675-.397-2.674-.297-4.012-.13-5.349-.034-16.047V7.2" clip-path="url(#p029b00f218)" style="fill:none;stroke-dasharray:7.4,3.2;stroke-dashoffset:0;stroke:#8000ff;stroke-width:2"/><path d="M42.62 273.312V7.2M42.62 273.312h155.27" class="patch" style="fill:none;stroke:currentColor;stroke-width:.8;stroke-linejoin:miter;stroke-linecap:square"/><g class="legend"><path d="M48.92 67.35h72.09q1.8 0 1.8-1.8V13.5q0-1.8-1.8-1.8H48.92q-1.8 0-1.8 1.8v52.05q0 1.8 1.8 1.8z" class="patch" style="fill:#fff;opacity:.9;stroke:#ccc;stroke-linejoin:miter"/><path id="line2d_39" d="M50.72 19.08h18" style="fill:none;stroke:#ff0001;stroke-opacity:.7;stroke-width:1.2;stroke-linecap:square"/><g id="text_11" class="text" transform="matrix(.09 0 0 -.09 75.92 22.23)"><defs><path id="DejaVuSans-Oblique-78" d="M3841 3500 2234 1784 3219 0h-660l-740 1388L531 0h-697l1722 1844-915 1656h659l672-1266 1172 1266z" transform="scale(.01563)"/><path id="DejaVuSans-28" d="M1984 4856q-418-718-622-1422-203-703-203-1425 0-721 205-1429t620-1424h-500Q1016-109 783 600T550 2009q0 697 231 1403 232 707 703 1444z" transform="scale(.01563)"/><path id="DejaVuSans-29" d="M513 4856h500q468-737 701-1444 233-706 233-1403 0-700-233-1409T1013-844H513q415 716 620 1424t205 1429q0 722-205 1425-205 704-620 1422" transform="scale(.01563)"/><path id="DejaVuSans-3d" d="M678 2906h4006v-525H678zm0-1275h4006v-531H678z" transform="scale(.01563)"/><path id="DejaVuSans-Oblique-3b2" d="M872 216 572-1331H-6l934 4809q278 1425 1610 1425 1350 0 1121-1203-156-856-765-1169 819-281 659-1115Q3272-69 1759-66q-662 3-887 282m147 750q240-544 856-541 900 0 1091 981 172 882-1291 813l103 531q1131-19 1328 1000 135 688-597 684-818 0-1006-975z" transform="scale(.01563)"/></defs><use xlink:href="#DejaVuSans-Oblique-78" transform="translate(0 .39)"/><use xlink:href="#DejaVuSans-28" transform="translate(59.18 .39)"/><use xlink:href="#DejaVuSans-Oblique-74" transform="translate(98.193 .39)"/><use xlink:href="#DejaVuSans-29" transform="translate(137.402 .39)"/><use xlink:href="#DejaVuSans-3d" transform="translate(195.898 .39)"/><use xlink:href="#DejaVuSans-Oblique-3b2" transform="translate(299.17 .39)"/><use xlink:href="#DejaVuSans-28" transform="translate(362.988 .39)"/><use xlink:href="#DejaVuSans-Oblique-74" transform="translate(402.002 .39)"/><use xlink:href="#DejaVuSans-29" transform="translate(441.21 .39)"/></g><path id="line2d_40" d="M50.72 32.309h18" style="fill:none;stroke:#00ff02;stroke-opacity:.7;stroke-width:1.2;stroke-linecap:square"/><g id="text_12" class="text" transform="matrix(.09 0 0 -.09 75.92 35.459)"><defs><path id="DejaVuSans-22c6" d="M778 2391h935l290 887 294-887h931l-756-550 294-888-763 550-759-550 290 888z" transform="scale(.01563)"/></defs><use xlink:href="#DejaVuSans-Oblique-78" transform="translate(0 .125)"/><use xlink:href="#DejaVuSans-22c6" transform="matrix(.7 0 0 .7 63.646 38.406)"/><use xlink:href="#DejaVuSans-28" transform="translate(110.199 .125)"/><use xlink:href="#DejaVuSans-Oblique-74" transform="translate(149.212 .125)"/><use xlink:href="#DejaVuSans-29" transform="translate(188.421 .125)"/></g><path id="line2d_41" d="M50.72 45.519h18" style="fill:none;stroke:#ff0001;stroke-width:2;stroke-linecap:square"/><g id="text_13" class="text" transform="matrix(.09 0 0 -.09 75.92 48.669)"><defs><path id="STIXNonUnicode-Italic-e23a" d="M4294 800h7q992 3270 1107 3578 64 160 115 236 307 474 730 474 237 0 397-157t160-381q0-172-90-278t-250-106q-102 0-173 58-70 58-99 125-28 67-80 124-51 58-115 58t-122-23q-57-22-96-51-38-28-80-86-41-57-67-96-25-38-54-112-29-73-39-105-9-32-35-106-25-74-25-86L4262-154h-128Q3078 1280 2483 2893h-13q-64-314-112-532-48-217-144-569t-186-602q-89-249-224-537-134-288-275-468-140-179-326-300-185-122-390-122-237 0-397 157T256 301q0 173 89 278 90 106 250 106 103 0 173-58 70-57 99-125 29-67 80-125 51-57 115-57 160 0 307 160 148 160 269 448 122 288 224 614 103 327 195 746 93 419 157 745 64 327 134 708 71 381 110 553h172q52-128 244-614t268-672q77-186 250-586t291-624q119-224 285-506 166-281 326-492" transform="scale(.01563)"/><path id="DejaVuSans-2c" d="M750 794h659V256L897-744H494L750 256z" transform="scale(.01563)"/><path id="DejaVuSans-Oblique-54" d="M378 4666h3947l-100-532H2559L1759 0h-634l800 4134H275z" transform="scale(.01563)"/></defs><use xlink:href="#STIXNonUnicode-Italic-e23a" transform="translate(0 .5)"/><use xlink:href="#DejaVuSans-28" transform="translate(95.7 .5)"/><use xlink:href="#DejaVuSans-30" transform="translate(134.714 .5)"/><use xlink:href="#DejaVuSans-2c" transform="translate(198.337 .5)"/><use xlink:href="#DejaVuSans-Oblique-54" transform="translate(249.606 .5)"/><use xlink:href="#DejaVuSans-29" transform="translate(310.69 .5)"/></g><path id="line2d_42" d="M50.72 58.73h18" style="fill:none;stroke-dasharray:7.4,3.2;stroke-dashoffset:0;stroke:#8000ff;stroke-width:2"/><g id="text_14" class="text" transform="matrix(.09 0 0 -.09 75.92 61.88)"><defs><path id="DejaVuSans-Oblique-3c0" d="M584 3500h3354l-113-575h-441L2966 775q-44-225 15-325 57-97 228-97 47 0 116 10 72 6 94 9l-81-416q-116-40-235-59-122-19-237-19-375 0-478 203-104 207 3 757l406 2087H1506L938 0H350l569 2925H472z" transform="scale(.01563)"/></defs><use xlink:href="#DejaVuSans-Oblique-3c0" transform="translate(0 .313)"/></g></g></g><g id="axes_2"><path d="M244.47 273.312h155.27V7.2H244.47z" class="patch" style="fill:none"/><g id="FillBetweenPolyCollection_2"><defs><path id="me3a923cae3" d="M363.909-37.556v-266.112 60.176l.001 1.337.001 1.337.002 1.338.002 1.337.003 1.337.006 1.337.008 1.338.012 1.337.017 1.337.026 1.337.036 1.338.05 1.337.072 1.337.096 1.337.13 1.338.172 1.337.225 1.337.289 1.337.366 1.338.457 1.337.56 1.337.678 1.337.806 1.337.942 1.338 1.082 1.337 1.221 1.337 1.354 1.337 1.472 1.338 1.568 1.337 1.634 1.337 1.665 1.337 1.65 1.338 1.592 1.337 1.482 1.337 1.322 1.337 1.116 1.338.87 1.337.59 1.337.288 1.337-.024 1.338-.336 1.337-.633 1.337-.903 1.337-1.137 1.338-1.327 1.337-1.465 1.337-1.55 1.337-1.581 1.338-1.558 1.337-1.486 1.337-1.369 1.337-1.212 1.338-1.024 1.337-.81 1.337-.576 1.337-.328 1.338-.074 1.337.183 1.337.434 1.337.677 1.338.904 1.337 1.107 1.337 1.283 1.337 1.424 1.338 1.522 1.337 1.574 1.337 1.574 1.337 1.521 1.338 1.413 1.337 1.252 1.337 1.043 1.337.792 1.338.51 1.337.204 1.337-.108 1.337-.418 1.338-.713 1.337-.978 1.337-1.21 1.337-1.395 1.338-1.535 1.337-1.622 1.337-1.663 1.337-1.656 1.338-1.61 1.337-1.53 1.337-1.425 1.337-1.299 1.337-1.163 1.338-1.022 1.337-.883 1.337-.75 1.337-.627 1.338-.515 1.337-.417 1.337-.332 1.337-.26 1.338-.201 1.337-.153 1.337-.115 1.337-.084 1.338-.062 1.337-.044 1.337-.031 1.337-.022 1.338-.015 1.337-.01 1.337-.007 1.337-.004 1.338-.003 1.337-.002 1.337-.001 1.337-.001 1.338v4.011l-.001 1.338v49.478z" style="stroke:#8000ff;stroke-opacity:.3"/></defs><g clip-path="url(#p97ff2e630d)"><use xlink:href="#me3a923cae3" y="310.868" style="fill:#8000ff;fill-opacity:.3;stroke:#8000ff;stroke-opacity:.3"/></g></g><g class="axis"><g class="tick xtick"><path id="line2d_43" d="M244.47 273.312V7.2" clip-path="url(#p97ff2e630d)" style="fill:none;stroke:#b0b0b0;stroke-opacity:.15;stroke-width:.8;stroke-linecap:square"/><use xlink:href="#m7328f22e0f" id="line2d_44" x="244.471" y="273.312" style="stroke:currentColor;stroke-width:.8"/><g id="text_15" class="text" transform="matrix(.1 0 0 -.1 236.52 287.91)"><use xlink:href="#DejaVuSans-30"/><use xlink:href="#DejaVuSans-2e" transform="translate(63.623)"/><use xlink:href="#DejaVuSans-30" transform="translate(95.41)"/></g></g><g class="tick xtick"><path id="line2d_45" d="M304.19 273.312V7.2" clip-path="url(#p97ff2e630d)" style="fill:none;stroke:#b0b0b0;stroke-opacity:.15;stroke-width:.8;stroke-linecap:square"/><use xlink:href="#m7328f22e0f" id="line2d_46" x="304.19" y="273.312" style="stroke:currentColor;stroke-width:.8"/><g id="text_16" class="text" transform="matrix(.1 0 0 -.1 296.238 287.91)"><use xlink:href="#DejaVuSans-30"/><use xlink:href="#DejaVuSans-2e" transform="translate(63.623)"/><use xlink:href="#DejaVuSans-35" transform="translate(95.41)"/></g></g><g class="tick xtick"><path id="line2d_47" d="M363.909 273.312V7.2" clip-path="url(#p97ff2e630d)" style="fill:none;stroke:#b0b0b0;stroke-opacity:.15;stroke-width:.8;stroke-linecap:square"/><use xlink:href="#m7328f22e0f" id="line2d_48" x="363.909" y="273.312" style="stroke:currentColor;stroke-width:.8"/><g id="text_17" class="text" transform="matrix(.1 0 0 -.1 355.957 287.91)"><use xlink:href="#DejaVuSans-31"/><use xlink:href="#DejaVuSans-2e" transform="translate(63.623)"/><use xlink:href="#DejaVuSans-30" transform="translate(95.41)"/></g></g><use xlink:href="#DejaVuSans-Oblique-74" id="text_18" class="text" transform="matrix(.1 0 0 -.1 320.106 301.51)"/></g><g class="axis"><g class="tick ytick"><path id="line2d_49" d="M244.47 236.273h155.27" clip-path="url(#p97ff2e630d)" style="fill:none;stroke:#b0b0b0;stroke-opacity:.15;stroke-width:.8;stroke-linecap:square"/><use xlink:href="#m3081e09eb4" id="line2d_50" x="244.471" y="236.273" style="stroke:currentColor;stroke-width:.8"/><g id="text_19" class="text" transform="matrix(.1 0 0 -.1 222.729 240.072)"><use xlink:href="#DejaVuSans-2212"/><use xlink:href="#DejaVuSans-34" transform="translate(83.79)"/></g></g><g class="tick ytick"><path id="line2d_51" d="M244.47 189.794h155.27" clip-path="url(#p97ff2e630d)" style="fill:none;stroke:#b0b0b0;stroke-opacity:.15;stroke-width:.8;stroke-linecap:square"/><use xlink:href="#m3081e09eb4" id="line2d_52" x="244.471" y="189.794" style="stroke:currentColor;stroke-width:.8"/><g id="text_20" class="text" transform="matrix(.1 0 0 -.1 222.729 193.593)"><use xlink:href="#DejaVuSans-2212"/><use xlink:href="#DejaVuSans-32" transform="translate(83.79)"/></g></g><g class="tick ytick"><path id="line2d_53" d="M244.47 143.315h155.27" clip-path="url(#p97ff2e630d)" style="fill:none;stroke:#b0b0b0;stroke-opacity:.15;stroke-width:.8;stroke-linecap:square"/><use xlink:href="#m3081e09eb4" id="line2d_54" x="244.471" y="143.315" style="stroke:currentColor;stroke-width:.8"/><use xlink:href="#DejaVuSans-30" id="text_21" class="text" transform="matrix(.1 0 0 -.1 231.108 147.115)"/></g><g class="tick ytick"><path id="line2d_55" d="M244.47 96.837h155.27" clip-path="url(#p97ff2e630d)" style="fill:none;stroke:#b0b0b0;stroke-opacity:.15;stroke-width:.8;stroke-linecap:square"/><use xlink:href="#m3081e09eb4" id="line2d_56" x="244.471" y="96.837" style="stroke:currentColor;stroke-width:.8"/><use xlink:href="#DejaVuSans-32" id="text_22" class="text" transform="matrix(.1 0 0 -.1 231.108 100.636)"/></g><g class="tick ytick"><path id="line2d_57" d="M244.47 50.358h155.27" clip-path="url(#p97ff2e630d)" style="fill:none;stroke:#b0b0b0;stroke-opacity:.15;stroke-width:.8;stroke-linecap:square"/><use xlink:href="#m3081e09eb4" id="line2d_58" x="244.471" y="50.358" style="stroke:currentColor;stroke-width:.8"/><use xlink:href="#DejaVuSans-34" id="text_23" class="text" transform="matrix(.1 0 0 -.1 231.108 54.157)"/></g><g id="text_24" class="text" transform="matrix(0 -.1 -.1 0 216.649 153.987)"><use xlink:href="#DejaVuSans-56"/><use xlink:href="#DejaVuSans-61" transform="translate(60.658)"/><use xlink:href="#DejaVuSans-6c" transform="translate(121.938)"/><use xlink:href="#DejaVuSans-75" transform="translate(149.72)"/><use xlink:href="#DejaVuSans-65" transform="translate(213.1)"/></g></g><path id="line2d_59" d="M363.909 159.557h-1.195l-1.194 1.938-1.194-1.734-1.195-1.726-1.194-3.22-1.194.333-1.195-2.38-1.194-1.919-1.195-4.958-1.194 2.982-1.194-1.584-1.195.45-1.194-1.633-1.194-3.183-1.195-.113-1.194-1.2-1.195 3.868-1.194-1.241-1.194-1.048-1.195-.561-1.194-1.967-1.195 4.15-1.194-.915-1.194.325-1.195 4.452-1.194.202-1.194 1.592-1.195-4.263-1.194-3.017-1.195 2.383-1.194 4.105-1.194-.626-1.195 1.51-1.194-1.48-1.194-2.425-1.195-2.745-1.194.148-1.195 3.459-1.194-3.288-1.194-1.193-1.195-1.458-1.194 1.03-1.195-.09-1.194 2.481-1.194-2.916-1.195-2.971-1.194 1.93-1.194-2.47-1.195.081-1.194.313-1.195 2.857-1.194-3.843-1.194-1.661-1.195-3.641-1.194-1.264-1.194 1.54-1.195-.378-1.194-.52-1.195 4.352-1.194-2.403-1.194 1.405-1.195.445-1.194 1.042-1.195.572-1.194 2.639-1.194.065-1.195 4.836-1.194 1.297-1.194 1.467-1.195 2.904-1.194-1.717-1.195-.964-1.194-1.054-1.194-1.128-1.195 1.821-1.194-.218-1.194 4.828-1.195-2.954-1.194-2.995-1.195-2.347-1.194-1.05-1.194-1.558-1.195.925-1.194-1.01-1.195-.362-1.194 2.9-1.194-.201-1.195 2.301-1.194 4.117-1.194-.612-1.195-1.85-1.194 1.166-1.195-1.813-1.194-.51-1.194 4.21-1.195-1.664-1.194-2.661-1.194.778-1.195-2.25-1.194 2.237" clip-path="url(#p97ff2e630d)" style="fill:none;stroke:#ff8000;stroke-opacity:.7;stroke-width:1.2;stroke-linecap:square"/><path id="line2d_60" d="m363.909 113.325-1.195-1.916-1.194 1.342-1.194 3.636-1.195.962-1.194-3.981-1.194-1.976-1.195 1.066-1.194-.298-1.195-.052-1.194.8-1.194.56-1.195-3.249-1.194-1.835-1.194 4.022-1.195 2.157-1.194-5.157-1.195-4.621-1.194.064-1.194 1.313-1.195 1.206-1.194-4.887-1.195-1.222-1.194 1.545-1.194 1.224-1.195 2.66-1.194.851-1.194-.173-1.195 1.599-1.194 2.143-1.195-3.398-1.194 3.174-1.194-.227-1.195-.039-1.194-2.724-1.194 3.56-1.195.957-1.194 1.034-1.195 2.75-1.194-.96-1.194 3.751-1.195 3.011-1.194 2.967-1.195.253-1.194 3.919-1.194-1.037-1.195.677-1.194 3.618-1.194 5.994-1.195.033-1.194-.244-1.195 3.504-1.194-.935-1.194-1.304-1.195 1.736-1.194.295-1.194 3.459-1.195 5.35-1.194-1.11-1.195 2.627-1.194-4.538-1.194 3.199-1.195 1.176-1.194-.724-1.195-1.617-1.194 1.771-1.194 2.268-1.195 5.286-1.194 4.346-1.194-1.206-1.195-.597-1.194-.722-1.195-1.216-1.194.647-1.194.45-1.195 2.794-1.194-4.387-1.194-.463-1.195-.029-1.194-1.514-1.195 1.426-1.194-4.463-1.194.328-1.195-3.678-1.194-2.752-1.195-.695-1.194 4.147-1.194 1.492-1.195 3.053-1.194-2.328-1.194 1.534-1.195 3.333-1.194-3.42-1.195-1.56-1.194.768-1.194-1.668-1.195-1.25-1.194-1.384-1.194-.687-1.195-3.121-1.194-1.93" clip-path="url(#p97ff2e630d)" style="fill:none;stroke:#ff8000;stroke-opacity:.7;stroke-width:1.2;stroke-linecap:square"/><path id="line2d_61" d="m363.909 110.759-1.195 4.5-1.194-.986-1.194-3.683-1.195-1.873-1.194-3.118-1.194-.323-1.195-3.588-1.194-1.768-1.195 2.225-1.194-4.292-1.194.554-1.195 1.268-1.194-2.207-1.194-4.392-1.195 1.322-1.194-.045-1.195-4.05-1.194 4.75-1.194-5.164-1.195 3.182-1.194-3.856-1.195 1.916-1.194-2.705-1.194-1.064-1.195.107-1.194-1.728-1.194 1.545-1.195-4.516-1.194-6.665-1.195 2.492-1.194-.045-1.194-1.737-1.195-.224-1.194.472-1.194-1.104-1.195-4.252-1.194.966-1.195-2.282-1.194-2.272-1.194.293-1.195-.381-1.194-4.094-1.195-5.015-1.194-3.187-1.194-3.695-1.195-3.835-1.194-1.978-1.194-.472-1.195-2.529-1.194-4.108-1.195.225-1.194 2.844-1.194-.812-1.195-.643-1.194-1.367-1.194 3.82-1.195-7.571-1.194-.39-1.195.16-1.194.926-1.194 1.185-1.195-.589-1.194 1.717-1.195-1.135-1.194-.329-1.194-2.498-1.195-2.469-1.194 2.034-1.194.54-1.195-.966-1.194-1.22-1.195-.542-1.194-.969-1.194 1.492-1.195-.135-1.194 3.32-1.194-1.806-1.195-1.23-1.194.456-1.195-3.21-1.194-1.268-1.194-1.351-1.195-1.293-1.194.664-1.195.63-1.194 1.276-1.194 6.34-1.195 3.526-1.194-2.417-1.194-4.212-1.195-2.021-1.194 3.645-1.195-5.228-1.194 1.65-1.194.872-1.195.59-1.194-2.285-1.194-2.043-1.195 2.083-1.194.183" clip-path="url(#p97ff2e630d)" style="fill:none;stroke:#ff8000;stroke-opacity:.7;stroke-width:1.2;stroke-linecap:square"/><path id="line2d_62" d="m363.909 127.6-1.195-.53-1.194-1.353-1.194.158-1.195-2.468-1.194-1.827-1.194-.115-1.195.313-1.194 3.764-1.195-2.06-1.194 3.317-1.194-1.5-1.195-2.018-1.194-1.516-1.194 3.937-1.195 2.135-1.194 4.358-1.195 3.09-1.194 3.53-1.194 3.317-1.195.708-1.194-4.968-1.195 2.576-1.194 3.604-1.194-.953-1.195-.588-1.194-2.143-1.194.947-1.195.557-1.194-.787-1.195-.354-1.194-.071-1.194-2.159-1.195.418-1.194-.203-1.194-.65-1.195-3.443-1.194.512-1.195 3.557-1.194-1.888-1.194-3.415-1.195 1.81-1.194 1.822-1.195-2.092-1.194 2.237-1.194-.082-1.195 1.23-1.194-4.27-1.194-2.541-1.195 1.305-1.194-1.883-1.195.429-1.194 1.296-1.194.422-1.195 2.707-1.194-3.761-1.194.992-1.195 3.338-1.194.203-1.195.522-1.194 3.292-1.194 1.447-1.195-2.215-1.194 2.458-1.195 3.894-1.194-.24-1.194 1.26-1.195-.943-1.194 1.784-1.194 2.033-1.195-5.826-1.194-.636-1.195 1.09-1.194-.002-1.194 1.08-1.195 1.861-1.194 2.437-1.194-.49-1.195 4.17-1.194-1.232-1.195-.853-1.194-.55-1.194-4.458-1.195-2.427-1.194-1.633-1.195-1.254-1.194.989-1.194 3.454-1.195-4.59-1.194.33-1.194 2.442-1.195.73-1.194 3.344-1.195 2.448-1.194-1.39-1.194 1.295-1.195-.046-1.194-.667-1.194-3.874-1.195.783-1.194.942" clip-path="url(#p97ff2e630d)" style="fill:none;stroke:#ff8000;stroke-opacity:.7;stroke-width:1.2;stroke-linecap:square"/><path id="line2d_63" d="m363.909 106.46-1.195-2.437-1.194-2.367-1.194-1.97-1.195-1.818-1.194-.037-1.194 3.226-1.195-4.773-1.194-2.068-1.195-.705-1.194-1.955-1.194-.626-1.195-3.549-1.194-2.633-1.194 1.073-1.195-2.387-1.194-.251-1.195-2.478-1.194 2.97-1.194 2.66-1.195-.812-1.194 1.149-1.195-4.136-1.194 1.445-1.194-4.926-1.195-2.042-1.194 3.152-1.194-.885-1.195-.048-1.194-5.576-1.195 1.206-1.194-3.74-1.194-1.585-1.195-3.526-1.194-5.124-1.194-1.666-1.195 3.502-1.194-2.416-1.195 2.48-1.194.495-1.194 1.103-1.195-4.249-1.194-2.268-1.195-2.792-1.194-3.843-1.194-1.546-1.195-4.032-1.194-.998-1.194 2.236-1.195-1.089-1.194-.889-1.195-7.92-1.194-1.669-1.194-1.223-1.195 1.412-1.194 1.657-1.194 2.21-1.195-1.105-1.194-.624-1.195 1.744-1.194-.83-1.194 3.942-1.195.45-1.194-4.252-1.195-1.254-1.194-3.68-1.194-2.23-1.195-1.99-1.194.503-1.194.85-1.195-3.43-1.194-1.406-1.195 2.791-1.194.226-1.194-2.603-1.195 1.415-1.194 3.358-1.194-1.512-1.195-2.253-1.194-1.62-1.195 1.962-1.194-3.492-1.194.146-1.195.151-1.194-3.235-1.195-1.022-1.194-.591-1.194-.201-1.195-.77-1.194 3.143-1.194 2.572-1.195-1.643-1.194 3.393-1.195.802-1.194 3.45-1.194 1.258-1.195 2.739-1.194 2.121-1.194.543-1.195-.888-1.194 2.275" clip-path="url(#p97ff2e630d)" style="fill:none;stroke:#ff8000;stroke-opacity:.7;stroke-width:1.2;stroke-linecap:square"/><path id="line2d_64" d="m363.909 179.526-1.195-1.141-1.194.972-1.194-3.063-1.195 3.265-1.194.987-1.194 1.634-1.195-2.535-1.194.937-1.195-2.198-1.194 2.929-1.194 2.555-1.195-.295-1.194 1.673-1.194 1.242-1.195-1.995-1.194-.992-1.195-.193-1.194-2.072-1.194-4.37-1.195-1.182-1.194 2.202-1.195-1.373-1.194-2.418-1.194 1.077-1.195-4.21-1.194 2.436-1.194-.827-1.195 2.688-1.194-.203-1.195.817-1.194-1.359-1.194 1.695-1.195.298-1.194 2.4-1.194 2.516-1.195-2.88-1.194-2.54-1.195 1.729-1.194 1.593-1.194 1.453-1.195 1.012-1.194-.69-1.195 1.224-1.194 1.232-1.194 1.414-1.195-2.074-1.194-3.832-1.194 2.638-1.195 1.504-1.194-.272-1.195.457-1.194.419-1.194 1.07-1.195-2.665-1.194 1.095-1.194 2.21-1.195-.77-1.194-1.618-1.195-.687-1.194-1.883-1.194.827-1.195-.413-1.194 1.421-1.195-.124-1.194 1.729-1.194-.644-1.195 3.643-1.194-1.366-1.194 1.796-1.195.812-1.194.725-1.195-1.475-1.194 6.36-1.194-2.194-1.195-2.396-1.194 4-1.194-1.334-1.195 1.937-1.194 3.291-1.195-2.45-1.194 2.814-1.194-.625-1.195 4.503-1.194 1.159-1.195 3.11-1.194 1.796-1.194 3.723-1.195-1.104-1.194 8.74-1.194-.755-1.195-3.836-1.194 4.512-1.195 3.709-1.194 1.985-1.194 4.996-1.195 3.61-1.194 1.006-1.194 6-1.195 3.146-1.194 5.982" clip-path="url(#p97ff2e630d)" style="fill:none;stroke:#ff8000;stroke-opacity:.7;stroke-width:1.2;stroke-linecap:square"/><path id="line2d_65" d="m363.909 169.831-1.195 3.563-1.194 1.51-1.194.385-1.195-2.683-1.194 1.524-1.194-3.142-1.195 1.046-1.194-.693-1.195 3.134-1.194 1.78-1.194 2.695-1.195 2.788-1.194 1.404-1.194 2.42-1.195-.067-1.194-2.232-1.195 1.38-1.194 3.638-1.194 4.213-1.195 1.15-1.194-4.208-1.195-1.717-1.194 2.724-1.194.979-1.195 4.048-1.194 3.31-1.194 5.08-1.195-.337-1.194.092-1.195.273-1.194 3.93-1.194 1.491-1.195 3.109-1.194.631-1.194 1.428-1.195 3.703-1.194 7.295-1.195 6.602-1.194-.4-1.194 2.748-1.195 1.76-1.194 4.789-1.195.307-1.194-.243-1.194 5.904-1.195.44-1.194-2.143-1.194 1.248-1.195-.233-1.194.372-1.195 1.16-1.194.944-1.194-2.347-1.195-1.256-1.194.19-1.194-.124-1.195.142-1.194-2.182-1.195 2.715-1.194-7.12-1.194 4.56-1.195 1.012-1.194 1.302-1.195-2.346-1.194 3.77-1.194-2.956-1.195 2.563-1.194-3.31-1.194 3.478-1.195-.303-1.194 1.982-1.195.248-1.194.472-1.194-1.18-1.195 1.855-1.194.474-1.194.617-1.195 1.21-1.194 1.475-1.195 2.31-1.194 1.658-1.194-1.965-1.195.02-1.194-.646-1.195-.89-1.194-.389-1.194-.641-1.195.53-1.194 1.778-1.194 1.046-1.195-.154-1.194-1.107-1.195 2.98-1.194-1.671-1.194-1.078-1.195-.712-1.194-2.243-1.194 2.49-1.195.007-1.194 1.73" clip-path="url(#p97ff2e630d)" style="fill:none;stroke:#ff8000;stroke-opacity:.7;stroke-width:1.2;stroke-linecap:square"/><path id="line2d_66" d="m363.909 176.036-1.195 2.66-1.194-1.14-1.194-1.024-1.195 2.023-1.194 2.234-1.194 3.331-1.195-2.149-1.194 1.36-1.195 1.704-1.194 4.993-1.194.41-1.195 1.708-1.194.888-1.194 4.103-1.195.72-1.194 1.28-1.195-.065-1.194 6.019-1.194.625-1.195 4.052-1.194 3.191-1.195 2.2-1.194 1.699-1.194 2.58-1.195-.305-1.194 3.534-1.194 1.377-1.195 1.91-1.194 1.995-1.195 1.525-1.194 3.664-1.194-.052-1.195 5.093-1.194-1.917-1.194 3.625-1.195 3.223-1.194 4.713-1.195-.1-1.194 5.232-1.194-2.44-1.195.786-1.194-.47-1.195 2.124-1.194-5.774-1.194-3.471-1.195.42-1.194 2.587-1.194 2.228-1.195-2.706-1.194 1.872-1.195 3.253-1.194 1.961-1.194-.603-1.195.26-1.194-1.526-1.194-.908-1.195-.186-1.194-1.149-1.195-1.63-1.194 3.784-1.194-4.153-1.195-2.02-1.194.301-1.195-1.138-1.194 2.492-1.194 1.306-1.195-.34-1.194 4.476-1.194 1.729-1.195-.436-1.194-2.34-1.195 2.736-1.194-3.78-1.194.173-1.195-1.845-1.194.093-1.194 2.151-1.195-.464-1.194 1.351-1.195 1.351-1.194-1.123-1.194-3.615-1.195-1.18-1.194.854-1.195.014-1.194 4.937-1.194-4.47-1.195.728-1.194-3.399-1.194.502-1.195-3.336-1.194-3.718-1.195 5.124-1.194-1.774-1.194 3.47-1.195 2.326-1.194 2.642-1.194-1.814-1.195-1.07-1.194 3.958" clip-path="url(#p97ff2e630d)" style="fill:none;stroke:#ff8000;stroke-opacity:.7;stroke-width:1.2;stroke-linecap:square"/><path id="line2d_67" d="m363.909 177.644-1.195-.424-1.194-.674-1.194-3.772-1.195.704-1.194 3.976-1.194 2.96-1.195.552-1.194-.38-1.195 1.33-1.194 2.453-1.194 2.25-1.195 1.064-1.194-1.053-1.194-.545-1.195 5.029-1.194.495-1.195.21-1.194 1.905-1.194.48-1.195 1.653-1.194 2.733-1.195 4.226-1.194-6.81-1.194 4.763-1.195 2.991-1.194 6.137-1.194 5.824-1.195 3.06-1.194 2.774-1.195 1.45-1.194.22-1.194.512-1.195 2.706-1.194 4.732-1.194 2.29-1.195 4.353-1.194 3.643-1.195 1.93-1.194-.092-1.194 1.926-1.195-4.392-1.194 3.286-1.195.794-1.194 2.76-1.194-1.13-1.195.532-1.194 4.337-1.194-3.782-1.195-1.464-1.194 1.485-1.195-1.25-1.194 2.831-1.194-.362-1.195-4.303-1.194-1.469-1.194 5.48-1.195-2.271-1.194-.723-1.195 1.572-1.194-.44-1.194.513-1.195 1.533-1.194-.541-1.195-.573-1.194-.959-1.194.487-1.195.141-1.194 1.985-1.194-6.393-1.195 4.9-1.194.578-1.195.326-1.194-.085-1.194.008-1.195-.408-1.194-.763-1.194 1.117-1.195 1.628-1.194.714-1.195-3.006-1.194-3.425-1.194.585-1.195 3.652-1.194-2.26-1.195 2.158-1.194-1.119-1.194-2.57-1.195 3.708-1.194 1.536-1.194-3.535-1.195 2.123-1.194-.157-1.195 1.51-1.194-3.085-1.194 3.443-1.195-.98-1.194 2.869-1.194 4.652-1.195 2.38-1.194.298" clip-path="url(#p97ff2e630d)" style="fill:none;stroke:#ff8000;stroke-opacity:.7;stroke-width:1.2;stroke-linecap:square"/><path id="line2d_68" d="m363.909 165.445-1.195 4.306-1.194.269-1.194 4.543-1.195-1.268-1.194-1.863-1.194-2.951-1.195.776-1.194-1.003-1.195 2.712-1.194.627-1.194 3.027-1.195 2.817-1.194-3.404-1.194.61-1.195 1.598-1.194-.529-1.195.635-1.194-2.371-1.194-1.77-1.195 6.803-1.194-2.609-1.195.92-1.194 1.173-1.194 4.826-1.195 3.044-1.194 4.053-1.194 3.327-1.195 3.544-1.194-1.127-1.195 1.31-1.194-3.462-1.194.172-1.195 2.34-1.194.307-1.194.315-1.195 2.473-1.194 2.661-1.195 1.938-1.194 1.26-1.194 2.602-1.195 2.497-1.194 4.752-1.195 4.89-1.194 3.427-1.194 1.646-1.195 3.24-1.194 1.428-1.194 6.6-1.195 1.384-1.194 2.982-1.195 2.283-1.194 3.057-1.194-.043-1.195 4.924-1.194-2.819-1.194 2.132-1.195 1.715-1.194-.062-1.195-1.766-1.194 5.324-1.194-2.947-1.195 1.216-1.194.48-1.195-1.58-1.194-2.014-1.194-2.908-1.195 3.537-1.194 2.909-1.194-.933-1.195.182-1.194-2.734-1.195-4.824-1.194-.784-1.194 1.762-1.195-.207-1.194-3.882-1.194-.389-1.195 4.56-1.194 1.118-1.195-1.82-1.194 4.477-1.194-1.664-1.195-1.39-1.194 3.11-1.195 3.39-1.194-.021-1.194.61-1.195-2.068-1.194 7.019-1.194-2.509-1.195 4.33-1.194-3.727-1.195.379-1.194.221-1.194-3.51-1.195 1.834-1.194-2.78-1.194-1.863-1.195 1.965-1.194 2.674" clip-path="url(#p97ff2e630d)" style="fill:none;stroke:#ff8000;stroke-opacity:.7;stroke-width:1.2;stroke-linecap:square"/><path id="line2d_69" d="m363.909 273.312.097-68.2.19-4.011.268-2.675.461-2.674.749-2.675 1.142-2.674.75-1.338.883-1.337 1.022-1.337 2.462-2.674 2.954-2.675 8.087-6.686 1.395-1.337 1.21-1.338.978-1.337.713-1.337.418-1.337.108-1.338-.204-1.337-.51-1.337-.792-1.337-1.043-1.338-1.252-1.337-2.934-2.674-4.67-4.012-2.707-2.675-1.107-1.337-.904-1.337-.677-1.337-.434-1.338-.183-1.337.074-1.337.328-1.337.576-1.338.81-1.337 1.024-1.337 1.212-1.337 2.855-2.675 6.154-5.349 1.327-1.337 1.137-1.337.903-1.338.633-1.337.336-1.337.024-1.337-.288-1.338-.59-1.337-.87-1.337-1.116-1.337-1.322-1.338-3.073-2.674-6.518-5.349-2.826-2.675-2.303-2.674-.942-1.337-1.483-2.675-1.018-2.674-.655-2.675-.397-2.674-.297-4.012-.13-5.349-.035-16.047V7.2h0" clip-path="url(#p97ff2e630d)" style="fill:none;stroke:#8000ff;stroke-width:2;stroke-linecap:square"/><path d="M244.47 273.312V7.2M244.47 273.312h155.27" class="patch" style="fill:none;stroke:currentColor;stroke-width:.8;stroke-linejoin:miter;stroke-linecap:square"/><g class="legend"><path d="M250.77 40.84h88.2q1.8 0 1.8-1.8V13.5q0-1.8-1.8-1.8h-88.2q-1.8 0-1.8 1.8v25.54q0 1.8 1.8 1.8z" class="patch" style="fill:#fff;opacity:.9;stroke:#ccc;stroke-linejoin:miter"/><path id="line2d_70" d="M252.57 18.99h18" style="fill:none;stroke:#ff8000;stroke-opacity:.7;stroke-width:1.2;stroke-linecap:square"/><g id="text_25" class="text" transform="matrix(.09 0 0 -.09 277.77 22.14)"><defs><path id="DejaVuSans-Oblique-79" d="M1588-325q-400-672-652-839t-642-167h-453l96 481h332q240 0 409 131t378 513l178 334-775 3372h610l581-2681 1606 2681h603z" transform="scale(.01563)"/></defs><use xlink:href="#DejaVuSans-Oblique-78" transform="translate(0 .125)"/><use xlink:href="#DejaVuSans-28" transform="translate(59.18 .125)"/><use xlink:href="#DejaVuSans-Oblique-74" transform="translate(98.193 .125)"/><use xlink:href="#DejaVuSans-29" transform="translate(137.402 .125)"/><use xlink:href="#DejaVuSans-3d" transform="translate(195.898 .125)"/><use xlink:href="#DejaVuSans-Oblique-79" transform="translate(299.17 .125)"/><use xlink:href="#DejaVuSans-28" transform="translate(358.35 .125)"/><use xlink:href="#DejaVuSans-Oblique-54" transform="translate(397.363 .125)"/><use xlink:href="#DejaVuSans-2212" transform="translate(477.93 .125)"/><use xlink:href="#DejaVuSans-Oblique-74" transform="translate(581.201 .125)"/><use xlink:href="#DejaVuSans-29" transform="translate(620.41 .125)"/></g><path id="line2d_71" d="M252.57 32.219h18" style="fill:none;stroke:#8000ff;stroke-width:2;stroke-linecap:square"/><use xlink:href="#DejaVuSans-Oblique-3c0" id="text_26" class="text" transform="matrix(.09 0 0 -.09 277.77 35.34)"/></g></g></g><defs><clipPath id="p029b00f218"><path d="M42.62 7.2h155.27v266.112H42.62z"/></clipPath><clipPath id="p97ff2e630d"><path d="M244.471 7.2h155.27v266.112h-155.27z"/></clipPath></defs></svg>