<svg xmlns="http://www.w3.org/2000/svg" xmlns:xlink="http://www.w3.org/1999/xlink" width="419.277" height="445.358" viewBox="0 0 314.458 334.019"><style><![CDATA[.text{fill:#000!important;stroke:none!important}.axis path,.tick path,[stroke=black],[stroke=currentColor]{stroke:#000!important}@media (prefers-color-scheme:dark){.text{fill:#fff!important;stroke:none!important}.axis path,.tick path,[stroke=black],[stroke=currentColor]{stroke:#fff!important}}*{stroke-linejoin:round;stroke-linecap:butt}]]></style><g id="figure_1"><path d="M0 334.019h314.458V0H0z" class="patch" style="fill:none"/><g id="axes_1"><path d="M41.146 297.43h266.112V31.318H41.146z" class="patch" style="fill:none"/><g class="axis"><g class="tick xtick"><path id="line2d_1" d="M71.851 297.43V31.318" clip-path="url(#p78a7118e24)" style="fill:none;stroke:#b0b0b0;stroke-opacity:.1;stroke-width:.8;stroke-linecap:square"/><g id="line2d_2"><defs><path id="m4cac27b46d" d="M0 0v3.5" style="stroke:currentColor;stroke-width:.8"/></defs><use xlink:href="#m4cac27b46d" x="71.851" y="297.43" style="stroke:currentColor;stroke-width:.8"/></g><g id="text_1" class="text" transform="matrix(.09 0 0 -.09 65.217 311.269)"><defs><path id="DejaVuSans-2212" d="M678 2272h4006v-531H678z" transform="scale(.01563)"/><path id="DejaVuSans-34" d="M2419 4116 825 1625h1594zm-166 550h794V1625h666v-525h-666V0h-628v1100H313v609z" transform="scale(.01563)"/></defs><use xlink:href="#DejaVuSans-2212"/><use xlink:href="#DejaVuSans-34" transform="translate(83.79)"/></g></g><g class="tick xtick"><path id="line2d_3" d="M123.027 297.43V31.318" clip-path="url(#p78a7118e24)" style="fill:none;stroke:#b0b0b0;stroke-opacity:.1;stroke-width:.8;stroke-linecap:square"/><use xlink:href="#m4cac27b46d" id="line2d_4" x="123.027" y="297.43" style="stroke:currentColor;stroke-width:.8"/><g id="text_2" class="text" transform="matrix(.09 0 0 -.09 116.393 311.269)"><defs><path id="DejaVuSans-32" d="M1228 531h2203V0H469v531q359 372 979 998 621 627 780 809 303 340 423 576 121 236 121 464 0 372-261 606-261 235-680 235-297 0-627-103-329-103-704-313v638q381 153 712 231 332 78 607 78 725 0 1156-363 431-362 431-968 0-288-108-546-107-257-392-607-78-91-497-524-418-433-1181-1211z" transform="scale(.01563)"/></defs><use xlink:href="#DejaVuSans-2212"/><use xlink:href="#DejaVuSans-32" transform="translate(83.79)"/></g></g><g class="tick xtick"><path id="line2d_5" d="M174.202 297.43V31.318" clip-path="url(#p78a7118e24)" style="fill:none;stroke:#b0b0b0;stroke-opacity:.1;stroke-width:.8;stroke-linecap:square"/><use xlink:href="#m4cac27b46d" id="line2d_6" x="174.202" y="297.43" style="stroke:currentColor;stroke-width:.8"/><g id="text_3" class="text" transform="matrix(.09 0 0 -.09 171.339 311.269)"><defs><path id="DejaVuSans-30" d="M2034 4250q-487 0-733-480-245-479-245-1442 0-959 245-1439 246-480 733-480 491 0 736 480 246 480 246 1439 0 963-246 1442-245 480-736 480zm0 500q785 0 1199-621 414-620 414-1801 0-1178-414-1799Q2819-91 2034-91q-784 0-1198 620-414 621-414 1799 0 1181 414 1801 414 621 1198 621z" transform="scale(.01563)"/></defs><use xlink:href="#DejaVuSans-30"/></g></g><g class="tick xtick"><path id="line2d_7" d="M225.377 297.43V31.318" clip-path="url(#p78a7118e24)" style="fill:none;stroke:#b0b0b0;stroke-opacity:.1;stroke-width:.8;stroke-linecap:square"/><use xlink:href="#m4cac27b46d" id="line2d_8" x="225.377" y="297.43" style="stroke:currentColor;stroke-width:.8"/><use xlink:href="#DejaVuSans-32" id="text_4" class="text" transform="matrix(.09 0 0 -.09 222.514 311.269)"/></g><g class="tick xtick"><path id="line2d_9" d="M276.553 297.43V31.318" clip-path="url(#p78a7118e24)" style="fill:none;stroke:#b0b0b0;stroke-opacity:.1;stroke-width:.8;stroke-linecap:square"/><use xlink:href="#m4cac27b46d" id="line2d_10" x="276.553" y="297.43" style="stroke:currentColor;stroke-width:.8"/><use xlink:href="#DejaVuSans-34" id="text_5" class="text" transform="matrix(.09 0 0 -.09 273.69 311.269)"/></g><g id="text_6" class="text" transform="matrix(.1 0 0 -.1 172.202 324.739)"><defs><path id="DejaVuSans-Oblique-74" d="m2706 3500-87-447H1472l-372-1900q-19-106-28-178t-9-112q0-200 120-291t386-91h581L2053 0h-550Q991 0 739 200 488 400 488 806q0 72 9 158t28 189l372 1900H409l91 447h478l194 994h575l-191-994z" transform="scale(.01563)"/></defs><use xlink:href="#DejaVuSans-Oblique-74" transform="translate(0 .781)"/></g></g><g class="axis"><g class="tick ytick"><path id="line2d_11" d="M41.146 266.725h266.112" clip-path="url(#p78a7118e24)" style="fill:none;stroke:#b0b0b0;stroke-opacity:.1;stroke-width:.8;stroke-linecap:square"/><g id="line2d_12"><defs><path id="ma46dfcd3ab" d="M0 0h-3.5" style="stroke:currentColor;stroke-width:.8"/></defs><use xlink:href="#ma46dfcd3ab" x="41.146" y="266.725" style="stroke:currentColor;stroke-width:.8"/></g><g id="text_7" class="text" transform="matrix(.09 0 0 -.09 20.878 270.144)"><use xlink:href="#DejaVuSans-2212"/><use xlink:href="#DejaVuSans-34" transform="translate(83.79)"/></g></g><g class="tick ytick"><path id="line2d_13" d="M41.146 215.55h266.112" clip-path="url(#p78a7118e24)" style="fill:none;stroke:#b0b0b0;stroke-opacity:.1;stroke-width:.8;stroke-linecap:square"/><use xlink:href="#ma46dfcd3ab" id="line2d_14" x="41.146" y="215.55" style="stroke:currentColor;stroke-width:.8"/><g id="text_8" class="text" transform="matrix(.09 0 0 -.09 20.878 218.969)"><use xlink:href="#DejaVuSans-2212"/><use xlink:href="#DejaVuSans-32" transform="translate(83.79)"/></g></g><g class="tick ytick"><path id="line2d_15" d="M41.146 164.374h266.112" clip-path="url(#p78a7118e24)" style="fill:none;stroke:#b0b0b0;stroke-opacity:.1;stroke-width:.8;stroke-linecap:square"/><use xlink:href="#ma46dfcd3ab" id="line2d_16" x="41.146" y="164.374" style="stroke:currentColor;stroke-width:.8"/><use xlink:href="#DejaVuSans-30" id="text_9" class="text" transform="matrix(.09 0 0 -.09 28.42 167.793)"/></g><g class="tick ytick"><path id="line2d_17" d="M41.146 113.199h266.112" clip-path="url(#p78a7118e24)" style="fill:none;stroke:#b0b0b0;stroke-opacity:.1;stroke-width:.8;stroke-linecap:square"/><use xlink:href="#ma46dfcd3ab" id="line2d_18" x="41.146" y="113.199" style="stroke:currentColor;stroke-width:.8"/><use xlink:href="#DejaVuSans-32" id="text_10" class="text" transform="matrix(.09 0 0 -.09 28.42 116.618)"/></g><g class="tick ytick"><path id="line2d_19" d="M41.146 62.023h266.112" clip-path="url(#p78a7118e24)" style="fill:none;stroke:#b0b0b0;stroke-opacity:.1;stroke-width:.8;stroke-linecap:square"/><use xlink:href="#ma46dfcd3ab" id="line2d_20" x="41.146" y="62.023" style="stroke:currentColor;stroke-width:.8"/><use xlink:href="#DejaVuSans-34" id="text_11" class="text" transform="matrix(.09 0 0 -.09 28.42 65.443)"/></g><g id="text_12" class="text" transform="matrix(0 -.1 -.1 0 14.798 167.374)"><defs><path id="DejaVuSans-Oblique-78" d="M3841 3500 2234 1784 3219 0h-660l-740 1388L531 0h-697l1722 1844-915 1656h659l672-1266 1172 1266z" transform="scale(.01563)"/></defs><use xlink:href="#DejaVuSans-Oblique-78" transform="translate(0 .313)"/></g></g><path id="line2d_21" d="M88.88 335.019 256.89-1" clip-path="url(#p78a7118e24)" style="fill:none;stroke:#8000ff;stroke-width:2;stroke-linecap:square"/><path d="M41.146 297.43V31.318M41.146 297.43h266.112" class="patch" style="fill:none;stroke:currentColor;stroke-width:.8;stroke-linejoin:miter;stroke-linecap:square"/><g id="text_13" class="text" transform="matrix(.12 0 0 -.12 80.86 16.318)"><defs><path id="DejaVuSans-53" d="M3425 4513v-616q-359 172-678 256-319 85-616 85-515 0-795-200t-280-569q0-310 186-468 186-157 705-254l381-78q706-135 1042-474t336-907q0-679-455-1029Q2797-91 1919-91q-331 0-705 75-373 75-773 222v650q384-215 753-325 369-109 725-109 540 0 834 212 294 213 294 607 0 343-211 537t-692 291l-385 75q-706 140-1022 440-315 300-315 835 0 619 436 975t1201 356q329 0 669-60 341-59 697-177z" transform="scale(.01563)"/><path id="DejaVuSans-61" d="M2194 1759q-697 0-966-159t-269-544q0-306 202-486 202-179 548-179 479 0 768 339t289 901v128zm1147 238V0h-575v531q-197-318-491-470T1556-91q-537 0-855 302-317 302-317 808 0 590 395 890 396 300 1180 300h807v57q0 397-261 614t-733 217q-300 0-585-72-284-72-546-216v532q315 122 612 182 297 61 578 61 760 0 1135-394 375-393 375-1193z" transform="scale(.01563)"/><path id="DejaVuSans-6d" d="M3328 2828q216 388 516 572t706 184q547 0 844-383 297-382 297-1088V0h-578v2094q0 503-179 746-178 244-543 244-447 0-707-297-259-296-259-809V0h-578v2094q0 506-178 748t-550 242q-441 0-701-298-259-298-259-808V0H581v3500h578v-544q197 322 472 475t653 153q382 0 649-194 267-193 395-562z" transform="scale(.01563)"/><path id="DejaVuSans-70" d="M1159 525v-1856H581v4831h578v-531q182 312 458 463 277 152 661 152 638 0 1036-506 399-506 399-1331T3314 415Q2916-91 2278-91q-384 0-661 152-276 152-458 464zm1957 1222q0 634-261 995t-717 361q-457 0-718-361t-261-995 261-995 718-361q456 0 717 361t261 995z" transform="scale(.01563)"/><path id="DejaVuSans-6c" d="M603 4863h575V0H603z" transform="scale(.01563)"/><path id="DejaVuSans-65" d="M3597 1894v-281H953q38-594 358-905t892-311q331 0 642 81t618 244V178Q3153 47 2828-22t-659-69q-838 0-1327 487-489 488-489 1320 0 859 464 1363 464 505 1252 505 706 0 1117-455 411-454 411-1235zm-575 169q-6 471-264 752-258 282-683 282-481 0-770-272t-333-766z" transform="scale(.01563)"/><path id="DejaVuSans-6f" d="M1959 3097q-462 0-731-361t-269-989 267-989q268-361 733-361 460 0 728 362 269 363 269 988 0 622-269 986-268 364-728 364zm0 487q750 0 1178-488 429-487 429-1349 0-859-429-1349Q2709-91 1959-91q-753 0-1180 489-426 490-426 1349 0 862 426 1349 427 488 1180 488z" transform="scale(.01563)"/><path id="DejaVuSans-66" d="M2375 4863v-479h-550q-309 0-430-125-120-125-120-450v-309h947v-447h-947V0H697v3053H147v447h550v244q0 584 272 851 272 268 862 268z" transform="scale(.01563)"/><path id="DejaVuSans-44" d="M1259 4147V519h763q966 0 1414 437 448 438 448 1382 0 937-448 1373t-1414 436zm-631 519h1297q1356 0 1990-564 635-564 635-1764 0-1207-638-1773Q3275 0 1925 0H628z" transform="scale(.01563)"/><path id="DejaVuSans-45" d="M628 4666h2950v-532H1259V2753h2222v-531H1259V531h2375V0H628z" transform="scale(.01563)"/><path id="DejaVuSans-77" d="M269 3500h575l719-2731 715 2731h678l719-2731 716 2731h575L4050 0h-678l-753 2869L1863 0h-679z" transform="scale(.01563)"/><path id="DejaVuSans-69" d="M603 3500h575V0H603zm0 1363h575v-729H603z" transform="scale(.01563)"/><path id="DejaVuSans-74" d="M1172 4494v-994h1184v-447H1172V1153q0-428 117-550t477-122h590V0h-590q-666 0-919 248-253 249-253 905v1900H172v447h422v994z" transform="scale(.01563)"/><path id="DejaVuSans-68" d="M3513 2113V0h-575v2094q0 497-194 743-194 247-581 247-466 0-735-297-269-296-269-809V0H581v4863h578V2956q207 316 486 472 280 156 646 156 603 0 912-373 310-373 310-1098z" transform="scale(.01563)"/><path id="DejaVuSans-6e" d="M3513 2113V0h-575v2094q0 497-194 743-194 247-581 247-466 0-735-297-269-296-269-809V0H581v3500h578v-544q207 316 486 472 280 156 646 156 603 0 912-373 310-373 310-1098z" transform="scale(.01563)"/><path id="DejaVuSans-79" d="M2059-325q-243-625-475-815-231-191-618-191H506v481h338q237 0 368 113 132 112 291 531l103 262L191 3500h609L1894 763l1094 2737h609z" transform="scale(.01563)"/><path id="DejaVuSans-64" d="M2906 2969v1894h575V0h-575v525q-181-312-458-464-276-152-664-152-634 0-1033 506-398 507-398 1332t398 1331q399 506 1033 506 388 0 664-152 277-151 458-463zM947 1747q0-634 261-995t717-361 718 361q263 361 263 995t-263 995q-262 361-718 361t-717-361-261-995z" transform="scale(.01563)"/><path id="DejaVuSans-72" d="M2631 2963q-97 56-211 82-114 27-251 27-488 0-749-317t-261-911V0H581v3500h578v-544q182 319 472 473 291 155 707 155 59 0 131-8 72-7 159-23z" transform="scale(.01563)"/></defs><use xlink:href="#DejaVuSans-53"/><use xlink:href="#DejaVuSans-61" transform="translate(63.477)"/><use xlink:href="#DejaVuSans-6d" transform="translate(124.756)"/><use xlink:href="#DejaVuSans-70" transform="translate(222.168)"/><use xlink:href="#DejaVuSans-6c" transform="translate(285.645)"/><use xlink:href="#DejaVuSans-65" transform="translate(313.428)"/><use xlink:href="#DejaVuSans-6f" transform="translate(406.738)"/><use xlink:href="#DejaVuSans-66" transform="translate(467.92)"/><use xlink:href="#DejaVuSans-61" transform="translate(534.912)"/><use xlink:href="#DejaVuSans-53" transform="translate(627.979)"/><use xlink:href="#DejaVuSans-44" transform="translate(691.455)"/><use xlink:href="#DejaVuSans-45" transform="translate(768.457)"/><use xlink:href="#DejaVuSans-77" transform="translate(863.428)"/><use xlink:href="#DejaVuSans-69" transform="translate(945.215)"/><use xlink:href="#DejaVuSans-74" transform="translate(972.998)"/><use xlink:href="#DejaVuSans-68" transform="translate(1012.207)"/><use xlink:href="#DejaVuSans-6f" transform="translate(1107.373)"/><use xlink:href="#DejaVuSans-6e" transform="translate(1168.555)"/><use xlink:href="#DejaVuSans-6c" transform="translate(1231.934)"/><use xlink:href="#DejaVuSans-79" transform="translate(1259.717)"/><use xlink:href="#DejaVuSans-64" transform="translate(1350.684)"/><use xlink:href="#DejaVuSans-72" transform="translate(1414.16)"/><use xlink:href="#DejaVuSans-69" transform="translate(1455.273)"/><use xlink:href="#DejaVuSans-66" transform="translate(1483.057)"/><use xlink:href="#DejaVuSans-74" transform="translate(1516.512)"/></g></g></g><defs><clipPath id="p78a7118e24"><path d="M41.146 31.318h266.112V297.43H41.146z"/></clipPath></defs></svg>