<svg xmlns="http://www.w3.org/2000/svg" xmlns:xlink="http://www.w3.org/1999/xlink" width="448.242" height="445.358" viewBox="0 0 336.181 334.019"><style><![CDATA[.text{fill:#000!important;stroke:none!important}.axis path,.tick path,[stroke=black],[stroke=currentColor]{stroke:#000!important}@media (prefers-color-scheme:dark){.text{fill:#fff!important;stroke:none!important}.axis path,.tick path,[stroke=black],[stroke=currentColor]{stroke:#fff!important}}*{stroke-linejoin:round;stroke-linecap:butt}]]></style><g id="figure_1"><path d="M0 334.019h336.181V0H0z" class="patch" style="fill:none"/><g id="axes_1"><path d="M55.459 297.43H321.57V31.318H55.459z" class="patch" style="fill:none"/><g class="axis"><g class="tick xtick"><path id="line2d_1" d="M58.068 297.43V31.318" clip-path="url(#pcc40061d80)" style="fill:none;stroke:#b0b0b0;stroke-opacity:.1;stroke-width:.8;stroke-linecap:square"/><g id="line2d_2"><defs><path id="m5858578aaf" d="M0 0v3.5" style="stroke:currentColor;stroke-width:.8"/></defs><use xlink:href="#m5858578aaf" x="58.068" y="297.43" style="stroke:currentColor;stroke-width:.8"/></g><g id="text_1" class="text" transform="matrix(.09 0 0 -.09 44.277 311.269)"><defs><path id="DejaVuSans-2212" d="M678 2272h4006v-531H678z" transform="scale(.01563)"/><path id="DejaVuSans-31" d="M794 531h1031v3560L703 3866v575l1116 225h631V531h1031V0H794z" transform="scale(.01563)"/><path id="DejaVuSans-30" d="M2034 4250q-487 0-733-480-245-479-245-1442 0-959 245-1439 246-480 733-480 491 0 736 480 246 480 246 1439 0 963-246 1442-245 480-736 480zm0 500q785 0 1199-621 414-620 414-1801 0-1178-414-1799Q2819-91 2034-91q-784 0-1198 620-414 621-414 1799 0 1181 414 1801 414 621 1198 621z" transform="scale(.01563)"/><path id="DejaVuSans-2e" d="M684 794h660V0H684z" transform="scale(.01563)"/></defs><use xlink:href="#DejaVuSans-2212"/><use xlink:href="#DejaVuSans-31" transform="translate(83.79)"/><use xlink:href="#DejaVuSans-30" transform="translate(147.412)"/><use xlink:href="#DejaVuSans-2e" transform="translate(211.035)"/><use xlink:href="#DejaVuSans-30" transform="translate(242.822)"/></g></g><g class="tick xtick"><path id="line2d_3" d="M90.68 297.43V31.318" clip-path="url(#pcc40061d80)" style="fill:none;stroke:#b0b0b0;stroke-opacity:.1;stroke-width:.8;stroke-linecap:square"/><use xlink:href="#m5858578aaf" id="line2d_4" x="90.68" y="297.43" style="stroke:currentColor;stroke-width:.8"/><g id="text_2" class="text" transform="matrix(.09 0 0 -.09 79.752 311.269)"><defs><path id="DejaVuSans-37" d="M525 4666h3000v-269L1831 0h-659l1594 4134H525z" transform="scale(.01563)"/><path id="DejaVuSans-35" d="M691 4666h2478v-532H1269V2991q137 47 274 70 138 23 276 23 781 0 1237-428 457-428 457-1159 0-753-469-1171Q2575-91 1722-91q-294 0-599 50Q819 9 494 109v635q281-153 581-228t634-75q541 0 856 284 316 284 316 772 0 487-316 771-315 285-856 285-253 0-505-56-251-56-513-175z" transform="scale(.01563)"/></defs><use xlink:href="#DejaVuSans-2212"/><use xlink:href="#DejaVuSans-37" transform="translate(83.79)"/><use xlink:href="#DejaVuSans-2e" transform="translate(147.412)"/><use xlink:href="#DejaVuSans-35" transform="translate(179.2)"/></g></g><g class="tick xtick"><path id="line2d_5" d="M123.291 297.43V31.318" clip-path="url(#pcc40061d80)" style="fill:none;stroke:#b0b0b0;stroke-opacity:.1;stroke-width:.8;stroke-linecap:square"/><use xlink:href="#m5858578aaf" id="line2d_6" x="123.291" y="297.43" style="stroke:currentColor;stroke-width:.8"/><g id="text_3" class="text" transform="matrix(.09 0 0 -.09 112.364 311.269)"><use xlink:href="#DejaVuSans-2212"/><use xlink:href="#DejaVuSans-35" transform="translate(83.79)"/><use xlink:href="#DejaVuSans-2e" transform="translate(147.412)"/><use xlink:href="#DejaVuSans-30" transform="translate(179.2)"/></g></g><g class="tick xtick"><path id="line2d_7" d="M155.903 297.43V31.318" clip-path="url(#pcc40061d80)" style="fill:none;stroke:#b0b0b0;stroke-opacity:.1;stroke-width:.8;stroke-linecap:square"/><use xlink:href="#m5858578aaf" id="line2d_8" x="155.903" y="297.43" style="stroke:currentColor;stroke-width:.8"/><g id="text_4" class="text" transform="matrix(.09 0 0 -.09 144.976 311.269)"><defs><path id="DejaVuSans-32" d="M1228 531h2203V0H469v531q359 372 979 998 621 627 780 809 303 340 423 576 121 236 121 464 0 372-261 606-261 235-680 235-297 0-627-103-329-103-704-313v638q381 153 712 231 332 78 607 78 725 0 1156-363 431-362 431-968 0-288-108-546-107-257-392-607-78-91-497-524-418-433-1181-1211z" transform="scale(.01563)"/></defs><use xlink:href="#DejaVuSans-2212"/><use xlink:href="#DejaVuSans-32" transform="translate(83.79)"/><use xlink:href="#DejaVuSans-2e" transform="translate(147.412)"/><use xlink:href="#DejaVuSans-35" transform="translate(179.2)"/></g></g><g class="tick xtick"><path id="line2d_9" d="M188.515 297.43V31.318" clip-path="url(#pcc40061d80)" style="fill:none;stroke:#b0b0b0;stroke-opacity:.1;stroke-width:.8;stroke-linecap:square"/><use xlink:href="#m5858578aaf" id="line2d_10" x="188.515" y="297.43" style="stroke:currentColor;stroke-width:.8"/><g id="text_5" class="text" transform="matrix(.09 0 0 -.09 181.358 311.269)"><use xlink:href="#DejaVuSans-30"/><use xlink:href="#DejaVuSans-2e" transform="translate(63.623)"/><use xlink:href="#DejaVuSans-30" transform="translate(95.41)"/></g></g><g class="tick xtick"><path id="line2d_11" d="M221.127 297.43V31.318" clip-path="url(#pcc40061d80)" style="fill:none;stroke:#b0b0b0;stroke-opacity:.1;stroke-width:.8;stroke-linecap:square"/><use xlink:href="#m5858578aaf" id="line2d_12" x="221.127" y="297.43" style="stroke:currentColor;stroke-width:.8"/><g id="text_6" class="text" transform="matrix(.09 0 0 -.09 213.97 311.269)"><use xlink:href="#DejaVuSans-32"/><use xlink:href="#DejaVuSans-2e" transform="translate(63.623)"/><use xlink:href="#DejaVuSans-35" transform="translate(95.41)"/></g></g><g class="tick xtick"><path id="line2d_13" d="M253.738 297.43V31.318" clip-path="url(#pcc40061d80)" style="fill:none;stroke:#b0b0b0;stroke-opacity:.1;stroke-width:.8;stroke-linecap:square"/><use xlink:href="#m5858578aaf" id="line2d_14" x="253.738" y="297.43" style="stroke:currentColor;stroke-width:.8"/><g id="text_7" class="text" transform="matrix(.09 0 0 -.09 246.582 311.269)"><use xlink:href="#DejaVuSans-35"/><use xlink:href="#DejaVuSans-2e" transform="translate(63.623)"/><use xlink:href="#DejaVuSans-30" transform="translate(95.41)"/></g></g><g class="tick xtick"><path id="line2d_15" d="M286.35 297.43V31.318" clip-path="url(#pcc40061d80)" style="fill:none;stroke:#b0b0b0;stroke-opacity:.1;stroke-width:.8;stroke-linecap:square"/><use xlink:href="#m5858578aaf" id="line2d_16" x="286.35" y="297.43" style="stroke:currentColor;stroke-width:.8"/><g id="text_8" class="text" transform="matrix(.09 0 0 -.09 279.194 311.269)"><use xlink:href="#DejaVuSans-37"/><use xlink:href="#DejaVuSans-2e" transform="translate(63.623)"/><use xlink:href="#DejaVuSans-35" transform="translate(95.41)"/></g></g><g class="tick xtick"><path id="line2d_17" d="M318.962 297.43V31.318" clip-path="url(#pcc40061d80)" style="fill:none;stroke:#b0b0b0;stroke-opacity:.1;stroke-width:.8;stroke-linecap:square"/><use xlink:href="#m5858578aaf" id="line2d_18" x="318.962" y="297.43" style="stroke:currentColor;stroke-width:.8"/><g id="text_9" class="text" transform="matrix(.09 0 0 -.09 308.942 311.269)"><use xlink:href="#DejaVuSans-31"/><use xlink:href="#DejaVuSans-30" transform="translate(63.623)"/><use xlink:href="#DejaVuSans-2e" transform="translate(127.246)"/><use xlink:href="#DejaVuSans-30" transform="translate(159.033)"/></g></g><g id="text_10" class="text" transform="matrix(.1 0 0 -.1 186.515 324.739)"><defs><path id="DejaVuSans-Oblique-74" d="m2706 3500-87-447H1472l-372-1900q-19-106-28-178t-9-112q0-200 120-291t386-91h581L2053 0h-550Q991 0 739 200 488 400 488 806q0 72 9 158t28 189l372 1900H409l91 447h478l194 994h575l-191-994z" transform="scale(.01563)"/></defs><use xlink:href="#DejaVuSans-Oblique-74" transform="translate(0 .781)"/></g></g><g class="axis"><g class="tick ytick"><path id="line2d_19" d="M55.459 294.821H321.57" clip-path="url(#pcc40061d80)" style="fill:none;stroke:#b0b0b0;stroke-opacity:.1;stroke-width:.8;stroke-linecap:square"/><g id="line2d_20"><defs><path id="m83bf1805db" d="M0 0h-3.5" style="stroke:currentColor;stroke-width:.8"/></defs><use xlink:href="#m83bf1805db" x="55.459" y="294.821" style="stroke:currentColor;stroke-width:.8"/></g><g id="text_11" class="text" transform="matrix(.09 0 0 -.09 20.878 298.24)"><use xlink:href="#DejaVuSans-2212"/><use xlink:href="#DejaVuSans-31" transform="translate(83.79)"/><use xlink:href="#DejaVuSans-30" transform="translate(147.412)"/><use xlink:href="#DejaVuSans-2e" transform="translate(211.035)"/><use xlink:href="#DejaVuSans-30" transform="translate(242.822)"/></g></g><g class="tick ytick"><path id="line2d_21" d="M55.459 262.21H321.57" clip-path="url(#pcc40061d80)" style="fill:none;stroke:#b0b0b0;stroke-opacity:.1;stroke-width:.8;stroke-linecap:square"/><use xlink:href="#m83bf1805db" id="line2d_22" x="55.459" y="262.209" style="stroke:currentColor;stroke-width:.8"/><g id="text_12" class="text" transform="matrix(.09 0 0 -.09 26.604 265.629)"><use xlink:href="#DejaVuSans-2212"/><use xlink:href="#DejaVuSans-37" transform="translate(83.79)"/><use xlink:href="#DejaVuSans-2e" transform="translate(147.412)"/><use xlink:href="#DejaVuSans-35" transform="translate(179.2)"/></g></g><g class="tick ytick"><path id="line2d_23" d="M55.459 229.598H321.57" clip-path="url(#pcc40061d80)" style="fill:none;stroke:#b0b0b0;stroke-opacity:.1;stroke-width:.8;stroke-linecap:square"/><use xlink:href="#m83bf1805db" id="line2d_24" x="55.459" y="229.598" style="stroke:currentColor;stroke-width:.8"/><g id="text_13" class="text" transform="matrix(.09 0 0 -.09 26.604 233.017)"><use xlink:href="#DejaVuSans-2212"/><use xlink:href="#DejaVuSans-35" transform="translate(83.79)"/><use xlink:href="#DejaVuSans-2e" transform="translate(147.412)"/><use xlink:href="#DejaVuSans-30" transform="translate(179.2)"/></g></g><g class="tick ytick"><path id="line2d_25" d="M55.459 196.986H321.57" clip-path="url(#pcc40061d80)" style="fill:none;stroke:#b0b0b0;stroke-opacity:.1;stroke-width:.8;stroke-linecap:square"/><use xlink:href="#m83bf1805db" id="line2d_26" x="55.459" y="196.986" style="stroke:currentColor;stroke-width:.8"/><g id="text_14" class="text" transform="matrix(.09 0 0 -.09 26.604 200.405)"><use xlink:href="#DejaVuSans-2212"/><use xlink:href="#DejaVuSans-32" transform="translate(83.79)"/><use xlink:href="#DejaVuSans-2e" transform="translate(147.412)"/><use xlink:href="#DejaVuSans-35" transform="translate(179.2)"/></g></g><g class="tick ytick"><path id="line2d_27" d="M55.459 164.374H321.57" clip-path="url(#pcc40061d80)" style="fill:none;stroke:#b0b0b0;stroke-opacity:.1;stroke-width:.8;stroke-linecap:square"/><use xlink:href="#m83bf1805db" id="line2d_28" x="55.459" y="164.374" style="stroke:currentColor;stroke-width:.8"/><g id="text_15" class="text" transform="matrix(.09 0 0 -.09 34.146 167.793)"><use xlink:href="#DejaVuSans-30"/><use xlink:href="#DejaVuSans-2e" transform="translate(63.623)"/><use xlink:href="#DejaVuSans-30" transform="translate(95.41)"/></g></g><g class="tick ytick"><path id="line2d_29" d="M55.459 131.762H321.57" clip-path="url(#pcc40061d80)" style="fill:none;stroke:#b0b0b0;stroke-opacity:.1;stroke-width:.8;stroke-linecap:square"/><use xlink:href="#m83bf1805db" id="line2d_30" x="55.459" y="131.762" style="stroke:currentColor;stroke-width:.8"/><g id="text_16" class="text" transform="matrix(.09 0 0 -.09 34.146 135.182)"><use xlink:href="#DejaVuSans-32"/><use xlink:href="#DejaVuSans-2e" transform="translate(63.623)"/><use xlink:href="#DejaVuSans-35" transform="translate(95.41)"/></g></g><g class="tick ytick"><path id="line2d_31" d="M55.459 99.15H321.57" clip-path="url(#pcc40061d80)" style="fill:none;stroke:#b0b0b0;stroke-opacity:.1;stroke-width:.8;stroke-linecap:square"/><use xlink:href="#m83bf1805db" id="line2d_32" x="55.459" y="99.151" style="stroke:currentColor;stroke-width:.8"/><g id="text_17" class="text" transform="matrix(.09 0 0 -.09 34.146 102.57)"><use xlink:href="#DejaVuSans-35"/><use xlink:href="#DejaVuSans-2e" transform="translate(63.623)"/><use xlink:href="#DejaVuSans-30" transform="translate(95.41)"/></g></g><g class="tick ytick"><path id="line2d_33" d="M55.459 66.539H321.57" clip-path="url(#pcc40061d80)" style="fill:none;stroke:#b0b0b0;stroke-opacity:.1;stroke-width:.8;stroke-linecap:square"/><use xlink:href="#m83bf1805db" id="line2d_34" x="55.459" y="66.539" style="stroke:currentColor;stroke-width:.8"/><g id="text_18" class="text" transform="matrix(.09 0 0 -.09 34.146 69.958)"><use xlink:href="#DejaVuSans-37"/><use xlink:href="#DejaVuSans-2e" transform="translate(63.623)"/><use xlink:href="#DejaVuSans-35" transform="translate(95.41)"/></g></g><g class="tick ytick"><path id="line2d_35" d="M55.459 33.927H321.57" clip-path="url(#pcc40061d80)" style="fill:none;stroke:#b0b0b0;stroke-opacity:.1;stroke-width:.8;stroke-linecap:square"/><use xlink:href="#m83bf1805db" id="line2d_36" x="55.459" y="33.927" style="stroke:currentColor;stroke-width:.8"/><g id="text_19" class="text" transform="matrix(.09 0 0 -.09 28.42 37.346)"><use xlink:href="#DejaVuSans-31"/><use xlink:href="#DejaVuSans-30" transform="translate(63.623)"/><use xlink:href="#DejaVuSans-2e" transform="translate(127.246)"/><use xlink:href="#DejaVuSans-30" transform="translate(159.033)"/></g></g><g id="text_20" class="text" transform="matrix(0 -.1 -.1 0 14.798 167.374)"><defs><path id="DejaVuSans-Oblique-78" d="M3841 3500 2234 1784 3219 0h-660l-740 1388L531 0h-697l1722 1844-915 1656h659l672-1266 1172 1266z" transform="scale(.01563)"/></defs><use xlink:href="#DejaVuSans-Oblique-78" transform="translate(0 .313)"/></g></g><path id="line2d_37" d="m55.459 169 1.337 1.426 1.337 15.231 1.338-35.782 1.337 24.581 1.337 15.403 1.337-27.65 1.338 20.681 1.337-31.344 1.337 11.532 1.337-40.877 1.338 42.395 1.337 35.954 1.337-.387 1.337-49.128 1.338 17.275 1.337-4.416 1.337-8.5 1.337 32.932 1.338-57.824 1.337 42.607 2.674-15.954 1.338-3.995 1.337 8.242 1.337.776 1.337 2.314 1.338 13.9 1.337-7.094 1.337-14.156 1.337-22.162 1.338 50.615 1.337-46.447 1.337 15.71 1.337 4.876 1.338-.413 1.337 21.576 1.337-11.496 1.337-39.648 1.338 32.294 1.337 46.466 1.337-38.85 1.337-27.394 1.337 65.958 1.338-33.99 1.337 4.85 1.337-18.037 1.337-37.426 1.338 30.683 1.337-5.097 1.337-7.23 1.337 19.778 1.338 7.106 1.337-24.698 1.337-5.748 1.337 42.778 1.338 25.97 2.674-89.596 1.337 49.542 1.338-30.748 1.337 26.095 1.337-28.727 1.337 2.664 1.338 25.438 1.337-4.62 1.337-27.487 1.337 17.531 1.338-11.755 1.337-28.642 1.337 69.21 1.337-14.296 1.338 44.367 1.337-12.82 1.337-16.899 1.337-22.292 1.338-50.287 1.337 33.97 1.337 12.177 1.337-9.51 1.338-32.239 1.337 85.03 1.337 4.924 1.337-45.584 1.338 10.36 1.337 15.109 1.337-54.063 1.337 39.859 1.338-16.03 1.337 42.639 1.337-1.048 1.337 14.146 1.338-44.529 1.337-16.22 1.337 27.43 1.337-53.442 1.338 57.386 1.337 1.981 1.337-18.878 1.337 25.194 1.338-28.016 1.337-5.677 1.337-15.975 1.337-31.117 1.338 44.124 1.337 11.36 1.337-47.753 2.674 34.235 1.338 2.659 1.337 21.208 1.337-15.243 1.337-5.16 1.338 40.18 1.337-46.975 1.337 6.98 1.337 9.677 1.338-14.516 1.337 28.038 1.337 36.98 1.337-12.439 1.338-71.713 1.337 84.795 1.337-89.228 1.337 67.229 1.338-31.351 1.337 14.738 1.337-5.46 1.337-49.392 1.338 94.844 1.337-17.225 1.337-23.939 1.337 22.679 1.338-11.14 1.337-40.474 1.337 37.321 1.337-22.956 1.338 20.284 1.337 26.597 1.337-10.258 1.337-31.652 1.338 12.675 1.337 24.964 1.337-33.322 1.337 11.344 1.338-35.89 1.337-26.686 1.337 35.283 2.675 32.173 1.337.958 1.337-14.163 1.337-4.515 1.338 32.768 1.337-37.847 1.337 21.844 1.337-17.07 1.338-5.092 1.337 17.232 1.337 56.29 1.337-71.804 1.338-20.765 1.337 15.024 1.337 58.192 1.337-16.825 1.338-25.798 1.337 10.27 1.337-28.808 1.337 26.583 1.338-12.128 1.337 11.944 1.337-6.77 1.337-24.263 1.338 17.263 1.337-11.555 1.337-25.134 1.337 55.059 1.337-4.219 1.338-12.068 1.337 13.189 1.337-14.609 1.337-54.027 1.338 26.869 1.337 32.932 1.337 4.786 1.337 39.283 1.338-54.484 1.337-4.961 1.337 45.292 1.337-38.316 2.675-26.017 1.337 5.84 1.337-1.727 1.338 62.74L316.222 162l1.337 24.047 1.337 5.422 1.338-44.514 1.337 58.211h0" clip-path="url(#pcc40061d80)" style="fill:none;stroke:#8000ff;stroke-width:2;stroke-linecap:square"/><path d="M55.459 297.43V31.318M55.459 297.43H321.57" class="patch" style="fill:none;stroke:currentColor;stroke-width:.8;stroke-linejoin:miter;stroke-linecap:square"/><g id="text_21" class="text" transform="matrix(.12 0 0 -.12 81.706 16.318)"><defs><path id="DejaVuSans-53" d="M3425 4513v-616q-359 172-678 256-319 85-616 85-515 0-795-200t-280-569q0-310 186-468 186-157 705-254l381-78q706-135 1042-474t336-907q0-679-455-1029Q2797-91 1919-91q-331 0-705 75-373 75-773 222v650q384-215 753-325 369-109 725-109 540 0 834 212 294 213 294 607 0 343-211 537t-692 291l-385 75q-706 140-1022 440-315 300-315 835 0 619 436 975t1201 356q329 0 669-60 341-59 697-177z" transform="scale(.01563)"/><path id="DejaVuSans-61" d="M2194 1759q-697 0-966-159t-269-544q0-306 202-486 202-179 548-179 479 0 768 339t289 901v128zm1147 238V0h-575v531q-197-318-491-470T1556-91q-537 0-855 302-317 302-317 808 0 590 395 890 396 300 1180 300h807v57q0 397-261 614t-733 217q-300 0-585-72-284-72-546-216v532q315 122 612 182 297 61 578 61 760 0 1135-394 375-393 375-1193z" transform="scale(.01563)"/><path id="DejaVuSans-6d" d="M3328 2828q216 388 516 572t706 184q547 0 844-383 297-382 297-1088V0h-578v2094q0 503-179 746-178 244-543 244-447 0-707-297-259-296-259-809V0h-578v2094q0 506-178 748t-550 242q-441 0-701-298-259-298-259-808V0H581v3500h578v-544q197 322 472 475t653 153q382 0 649-194 267-193 395-562z" transform="scale(.01563)"/><path id="DejaVuSans-70" d="M1159 525v-1856H581v4831h578v-531q182 312 458 463 277 152 661 152 638 0 1036-506 399-506 399-1331T3314 415Q2916-91 2278-91q-384 0-661 152-276 152-458 464zm1957 1222q0 634-261 995t-717 361q-457 0-718-361t-261-995 261-995 718-361q456 0 717 361t261 995z" transform="scale(.01563)"/><path id="DejaVuSans-6c" d="M603 4863h575V0H603z" transform="scale(.01563)"/><path id="DejaVuSans-65" d="M3597 1894v-281H953q38-594 358-905t892-311q331 0 642 81t618 244V178Q3153 47 2828-22t-659-69q-838 0-1327 487-489 488-489 1320 0 859 464 1363 464 505 1252 505 706 0 1117-455 411-454 411-1235zm-575 169q-6 471-264 752-258 282-683 282-481 0-770-272t-333-766z" transform="scale(.01563)"/><path id="DejaVuSans-6f" d="M1959 3097q-462 0-731-361t-269-989 267-989q268-361 733-361 460 0 728 362 269 363 269 988 0 622-269 986-268 364-728 364zm0 487q750 0 1178-488 429-487 429-1349 0-859-429-1349Q2709-91 1959-91q-753 0-1180 489-426 490-426 1349 0 862 426 1349 427 488 1180 488z" transform="scale(.01563)"/><path id="DejaVuSans-66" d="M2375 4863v-479h-550q-309 0-430-125-120-125-120-450v-309h947v-447h-947V0H697v3053H147v447h550v244q0 584 272 851 272 268 862 268z" transform="scale(.01563)"/><path id="DejaVuSans-44" d="M1259 4147V519h763q966 0 1414 437 448 438 448 1382 0 937-448 1373t-1414 436zm-631 519h1297q1356 0 1990-564 635-564 635-1764 0-1207-638-1773Q3275 0 1925 0H628z" transform="scale(.01563)"/><path id="DejaVuSans-45" d="M628 4666h2950v-532H1259V2753h2222v-531H1259V531h2375V0H628z" transform="scale(.01563)"/><path id="DejaVuSans-77" d="M269 3500h575l719-2731 715 2731h678l719-2731 716 2731h575L4050 0h-678l-753 2869L1863 0h-679z" transform="scale(.01563)"/><path id="DejaVuSans-69" d="M603 3500h575V0H603zm0 1363h575v-729H603z" transform="scale(.01563)"/><path id="DejaVuSans-74" d="M1172 4494v-994h1184v-447H1172V1153q0-428 117-550t477-122h590V0h-590q-666 0-919 248-253 249-253 905v1900H172v447h422v994z" transform="scale(.01563)"/><path id="DejaVuSans-68" d="M3513 2113V0h-575v2094q0 497-194 743-194 247-581 247-466 0-735-297-269-296-269-809V0H581v4863h578V2956q207 316 486 472 280 156 646 156 603 0 912-373 310-373 310-1098z" transform="scale(.01563)"/><path id="DejaVuSans-6e" d="M3513 2113V0h-575v2094q0 497-194 743-194 247-581 247-466 0-735-297-269-296-269-809V0H581v3500h578v-544q207 316 486 472 280 156 646 156 603 0 912-373 310-373 310-1098z" transform="scale(.01563)"/><path id="DejaVuSans-79" d="M2059-325q-243-625-475-815-231-191-618-191H506v481h338q237 0 368 113 132 112 291 531l103 262L191 3500h609L1894 763l1094 2737h609z" transform="scale(.01563)"/><path id="DejaVuSans-64" d="M2906 2969v1894h575V0h-575v525q-181-312-458-464-276-152-664-152-634 0-1033 506-398 507-398 1332t398 1331q399 506 1033 506 388 0 664-152 277-151 458-463zM947 1747q0-634 261-995t717-361 718 361q263 361 263 995t-263 995q-262 361-718 361t-717-361-261-995z" transform="scale(.01563)"/><path id="DejaVuSans-75" d="M544 1381v2119h575V1403q0-497 193-746 194-248 582-248 465 0 735 297 271 297 271 810v1984h575V0h-575v538q-209-319-486-474-276-155-642-155-603 0-916 375-312 375-312 1097zm1447 2203z" transform="scale(.01563)"/><path id="DejaVuSans-73" d="M2834 3397v-544q-243 125-506 187-262 63-544 63-428 0-642-131t-214-394q0-200 153-314t616-217l197-44q612-131 870-370t258-667q0-488-386-773Q2250-91 1575-91q-281 0-586 55T347 128v594q319-166 628-249 309-82 613-82 406 0 624 139 219 139 219 392 0 234-158 359-157 125-692 241l-200 47q-534 112-772 345-237 233-237 639 0 494 350 762 350 269 994 269 318 0 599-47 282-46 519-140z" transform="scale(.01563)"/></defs><use xlink:href="#DejaVuSans-53"/><use xlink:href="#DejaVuSans-61" transform="translate(63.477)"/><use xlink:href="#DejaVuSans-6d" transform="translate(124.756)"/><use xlink:href="#DejaVuSans-70" transform="translate(222.168)"/><use xlink:href="#DejaVuSans-6c" transform="translate(285.645)"/><use xlink:href="#DejaVuSans-65" transform="translate(313.428)"/><use xlink:href="#DejaVuSans-6f" transform="translate(406.738)"/><use xlink:href="#DejaVuSans-66" transform="translate(467.92)"/><use xlink:href="#DejaVuSans-61" transform="translate(534.912)"/><use xlink:href="#DejaVuSans-53" transform="translate(627.979)"/><use xlink:href="#DejaVuSans-44" transform="translate(691.455)"/><use xlink:href="#DejaVuSans-45" transform="translate(768.457)"/><use xlink:href="#DejaVuSans-77" transform="translate(863.428)"/><use xlink:href="#DejaVuSans-69" transform="translate(945.215)"/><use xlink:href="#DejaVuSans-74" transform="translate(972.998)"/><use xlink:href="#DejaVuSans-68" transform="translate(1012.207)"/><use xlink:href="#DejaVuSans-6f" transform="translate(1107.373)"/><use xlink:href="#DejaVuSans-6e" transform="translate(1168.555)"/><use xlink:href="#DejaVuSans-6c" transform="translate(1231.934)"/><use xlink:href="#DejaVuSans-79" transform="translate(1259.717)"/><use xlink:href="#DejaVuSans-64" transform="translate(1350.684)"/><use xlink:href="#DejaVuSans-69" transform="translate(1414.16)"/><use xlink:href="#DejaVuSans-66" transform="translate(1441.943)"/><use xlink:href="#DejaVuSans-66" transform="translate(1477.148)"/><use xlink:href="#DejaVuSans-75" transform="translate(1512.354)"/><use xlink:href="#DejaVuSans-73" transform="translate(1575.732)"/><use xlink:href="#DejaVuSans-69" transform="translate(1627.832)"/><use xlink:href="#DejaVuSans-6f" transform="translate(1655.615)"/><use xlink:href="#DejaVuSans-6e" transform="translate(1716.797)"/></g></g></g><defs><clipPath id="pcc40061d80"><path d="M55.459 31.318h266.112V297.43H55.459z"/></clipPath></defs></svg>