<svg xmlns="http://www.w3.org/2000/svg" xmlns:xlink="http://www.w3.org/1999/xlink" width="832.511" height="525.933" viewBox="0 0 624.383 394.45"><style><![CDATA[.text{fill:#000!important;stroke:none!important}.axis path,.tick path,[stroke=black],[stroke=currentColor]{stroke:#000!important}@media (prefers-color-scheme:dark){.text{fill:#fff!important;stroke:none!important}.axis path,.tick path,[stroke=black],[stroke=currentColor]{stroke:#fff!important}}*{stroke-linejoin:round;stroke-linecap:butt}]]></style><g id="figure_1"><path d="M0 394.45h624.383V0H0z" class="patch" style="fill:none"/><g id="axes_1"><path d="M59.183 173.518h558v-151.2h-558z" class="patch" style="fill:none"/><g class="axis"><g class="tick xtick"><path id="line2d_1" d="M84.547 173.518v-151.2" clip-path="url(#p6d793556f3)" style="fill:none;stroke:#b0b0b0;stroke-opacity:.3;stroke-width:.5;stroke-linecap:square"/><g id="line2d_2"><defs><path id="md20587f8cf" d="M0 0v3.5" style="stroke:currentColor;stroke-width:.8"/></defs><use xlink:href="#md20587f8cf" x="84.547" y="173.518" style="stroke:currentColor;stroke-width:.8"/></g></g><g class="tick xtick"><path id="line2d_3" d="M147.956 173.518v-151.2" clip-path="url(#p6d793556f3)" style="fill:none;stroke:#b0b0b0;stroke-opacity:.3;stroke-width:.5;stroke-linecap:square"/><use xlink:href="#md20587f8cf" id="line2d_4" x="147.956" y="173.518" style="stroke:currentColor;stroke-width:.8"/></g><g class="tick xtick"><path id="line2d_5" d="M211.365 173.518v-151.2" clip-path="url(#p6d793556f3)" style="fill:none;stroke:#b0b0b0;stroke-opacity:.3;stroke-width:.5;stroke-linecap:square"/><use xlink:href="#md20587f8cf" id="line2d_6" x="211.365" y="173.518" style="stroke:currentColor;stroke-width:.8"/></g><g class="tick xtick"><path id="line2d_7" d="M274.774 173.518v-151.2" clip-path="url(#p6d793556f3)" style="fill:none;stroke:#b0b0b0;stroke-opacity:.3;stroke-width:.5;stroke-linecap:square"/><use xlink:href="#md20587f8cf" id="line2d_8" x="274.774" y="173.518" style="stroke:currentColor;stroke-width:.8"/></g><g class="tick xtick"><path id="line2d_9" d="M338.183 173.518v-151.2" clip-path="url(#p6d793556f3)" style="fill:none;stroke:#b0b0b0;stroke-opacity:.3;stroke-width:.5;stroke-linecap:square"/><use xlink:href="#md20587f8cf" id="line2d_10" x="338.183" y="173.518" style="stroke:currentColor;stroke-width:.8"/></g><g class="tick xtick"><path id="line2d_11" d="M401.592 173.518v-151.2" clip-path="url(#p6d793556f3)" style="fill:none;stroke:#b0b0b0;stroke-opacity:.3;stroke-width:.5;stroke-linecap:square"/><use xlink:href="#md20587f8cf" id="line2d_12" x="401.592" y="173.518" style="stroke:currentColor;stroke-width:.8"/></g><g class="tick xtick"><path id="line2d_13" d="M465.001 173.518v-151.2" clip-path="url(#p6d793556f3)" style="fill:none;stroke:#b0b0b0;stroke-opacity:.3;stroke-width:.5;stroke-linecap:square"/><use xlink:href="#md20587f8cf" id="line2d_14" x="465.001" y="173.518" style="stroke:currentColor;stroke-width:.8"/></g><g class="tick xtick"><path id="line2d_15" d="M528.41 173.518v-151.2" clip-path="url(#p6d793556f3)" style="fill:none;stroke:#b0b0b0;stroke-opacity:.3;stroke-width:.5;stroke-linecap:square"/><use xlink:href="#md20587f8cf" id="line2d_16" x="528.41" y="173.518" style="stroke:currentColor;stroke-width:.8"/></g><g class="tick xtick"><path id="line2d_17" d="M591.82 173.518v-151.2" clip-path="url(#p6d793556f3)" style="fill:none;stroke:#b0b0b0;stroke-opacity:.3;stroke-width:.5;stroke-linecap:square"/><use xlink:href="#md20587f8cf" id="line2d_18" x="591.819" y="173.518" style="stroke:currentColor;stroke-width:.8"/></g></g><g class="axis"><g class="tick ytick"><path id="line2d_19" d="M59.183 161.278h558" clip-path="url(#p6d793556f3)" style="fill:none;stroke:#b0b0b0;stroke-opacity:.3;stroke-width:.5;stroke-linecap:square"/><g id="line2d_20"><defs><path id="mb07173942d" d="M0 0h-3.5" style="stroke:currentColor;stroke-width:.8"/></defs><use xlink:href="#mb07173942d" x="59.183" y="161.278" style="stroke:currentColor;stroke-width:.8"/></g><g id="text_1" class="text" transform="matrix(.1 0 0 -.1 27.9 165.078)"><defs><path id="DejaVuSans-2212" d="M678 2272h4006v-531H678z" transform="scale(.01563)"/><path id="DejaVuSans-32" d="M1228 531h2203V0H469v531q359 372 979 998 621 627 780 809 303 340 423 576 121 236 121 464 0 372-261 606-261 235-680 235-297 0-627-103-329-103-704-313v638q381 153 712 231 332 78 607 78 725 0 1156-363 431-362 431-968 0-288-108-546-107-257-392-607-78-91-497-524-418-433-1181-1211z" transform="scale(.01563)"/><path id="DejaVuSans-2e" d="M684 794h660V0H684z" transform="scale(.01563)"/><path id="DejaVuSans-35" d="M691 4666h2478v-532H1269V2991q137 47 274 70 138 23 276 23 781 0 1237-428 457-428 457-1159 0-753-469-1171Q2575-91 1722-91q-294 0-599 50Q819 9 494 109v635q281-153 581-228t634-75q541 0 856 284 316 284 316 772 0 487-316 771-315 285-856 285-253 0-505-56-251-56-513-175z" transform="scale(.01563)"/></defs><use xlink:href="#DejaVuSans-2212"/><use xlink:href="#DejaVuSans-32" transform="translate(83.79)"/><use xlink:href="#DejaVuSans-2e" transform="translate(147.412)"/><use xlink:href="#DejaVuSans-35" transform="translate(179.2)"/></g></g><g class="tick ytick"><path id="line2d_21" d="M59.183 131.368h558" clip-path="url(#p6d793556f3)" style="fill:none;stroke:#b0b0b0;stroke-opacity:.3;stroke-width:.5;stroke-linecap:square"/><use xlink:href="#mb07173942d" id="line2d_22" x="59.183" y="131.368" style="stroke:currentColor;stroke-width:.8"/><g id="text_2" class="text" transform="matrix(.1 0 0 -.1 27.9 135.167)"><defs><path id="DejaVuSans-30" d="M2034 4250q-487 0-733-480-245-479-245-1442 0-959 245-1439 246-480 733-480 491 0 736 480 246 480 246 1439 0 963-246 1442-245 480-736 480zm0 500q785 0 1199-621 414-620 414-1801 0-1178-414-1799Q2819-91 2034-91q-784 0-1198 620-414 621-414 1799 0 1181 414 1801 414 621 1198 621z" transform="scale(.01563)"/></defs><use xlink:href="#DejaVuSans-2212"/><use xlink:href="#DejaVuSans-32" transform="translate(83.79)"/><use xlink:href="#DejaVuSans-2e" transform="translate(147.412)"/><use xlink:href="#DejaVuSans-30" transform="translate(179.2)"/></g></g><g class="tick ytick"><path id="line2d_23" d="M59.183 101.457h558" clip-path="url(#p6d793556f3)" style="fill:none;stroke:#b0b0b0;stroke-opacity:.3;stroke-width:.5;stroke-linecap:square"/><use xlink:href="#mb07173942d" id="line2d_24" x="59.183" y="101.457" style="stroke:currentColor;stroke-width:.8"/><g id="text_3" class="text" transform="matrix(.1 0 0 -.1 27.9 105.256)"><defs><path id="DejaVuSans-31" d="M794 531h1031v3560L703 3866v575l1116 225h631V531h1031V0H794z" transform="scale(.01563)"/></defs><use xlink:href="#DejaVuSans-2212"/><use xlink:href="#DejaVuSans-31" transform="translate(83.79)"/><use xlink:href="#DejaVuSans-2e" transform="translate(147.412)"/><use xlink:href="#DejaVuSans-35" transform="translate(179.2)"/></g></g><g class="tick ytick"><path id="line2d_25" d="M59.183 71.546h558" clip-path="url(#p6d793556f3)" style="fill:none;stroke:#b0b0b0;stroke-opacity:.3;stroke-width:.5;stroke-linecap:square"/><use xlink:href="#mb07173942d" id="line2d_26" x="59.183" y="71.546" style="stroke:currentColor;stroke-width:.8"/><g id="text_4" class="text" transform="matrix(.1 0 0 -.1 27.9 75.345)"><use xlink:href="#DejaVuSans-2212"/><use xlink:href="#DejaVuSans-31" transform="translate(83.79)"/><use xlink:href="#DejaVuSans-2e" transform="translate(147.412)"/><use xlink:href="#DejaVuSans-30" transform="translate(179.2)"/></g></g><g class="tick ytick"><path id="line2d_27" d="M59.183 41.635h558" clip-path="url(#p6d793556f3)" style="fill:none;stroke:#b0b0b0;stroke-opacity:.3;stroke-width:.5;stroke-linecap:square"/><use xlink:href="#mb07173942d" id="line2d_28" x="59.183" y="41.635" style="stroke:currentColor;stroke-width:.8"/><g id="text_5" class="text" transform="matrix(.1 0 0 -.1 27.9 45.435)"><use xlink:href="#DejaVuSans-2212"/><use xlink:href="#DejaVuSans-30" transform="translate(83.79)"/><use xlink:href="#DejaVuSans-2e" transform="translate(147.412)"/><use xlink:href="#DejaVuSans-35" transform="translate(179.2)"/></g></g><g id="text_6" class="text" transform="matrix(0 -.12 -.12 0 21.38 108.838)"><defs><path id="DejaVuSans-Oblique-3b2" d="M872 216 572-1331H-6l934 4809q278 1425 1610 1425 1350 0 1121-1203-156-856-765-1169 819-281 659-1115Q3272-69 1759-66q-662 3-887 282zm147 750q240-544 856-541 900 0 1091 981 172 882-1291 813l103 531q1131-19 1328 1000 135 688-597 684-818 0-1006-975z" transform="scale(.01563)"/><path id="DejaVuSans-28" d="M1984 4856q-418-718-622-1422-203-703-203-1425 0-721 205-1429t620-1424h-500Q1016-109 783 600T550 2009q0 697 231 1403 232 707 703 1444z" transform="scale(.01563)"/><path id="DejaVuSans-Oblique-74" d="m2706 3500-87-447H1472l-372-1900q-19-106-28-178t-9-112q0-200 120-291t386-91h581L2053 0h-550Q991 0 739 200 488 400 488 806q0 72 9 158t28 189l372 1900H409l91 447h478l194 994h575l-191-994z" transform="scale(.01563)"/><path id="DejaVuSans-29" d="M513 4856h500q468-737 701-1444 233-706 233-1403 0-700-233-1409T1013-844H513q415 716 620 1424t205 1429q0 722-205 1425-205 704-620 1422z" transform="scale(.01563)"/></defs><use xlink:href="#DejaVuSans-Oblique-3b2" transform="translate(0 .39)"/><use xlink:href="#DejaVuSans-28" transform="translate(63.818 .39)"/><use xlink:href="#DejaVuSans-Oblique-74" transform="translate(102.832 .39)"/><use xlink:href="#DejaVuSans-29" transform="translate(142.041 .39)"/></g></g><path id="line2d_29" d="m84.547 31.966 2.536-2.775 2.536 3.881 2.537 13.804 2.536-1.377 2.537-5.435 2.536 6.55 2.536-3.994 2.537 7.33 2.536 3.03 2.536 1.727 2.537-.4 2.536 7.956 2.536-.412 2.537-3.547 2.536 2.714 2.537-9.048 2.536-2.253 2.536-.015 2.537-1.67 2.536 9.831 2.536-5.24 2.537 11.151 2.536-3.184 2.536 1.14 2.537-5.851 2.536 13.645 2.537-2.728 2.536-6.38 2.536-11.444 2.537-10.78 2.536.449 2.536 4.652 2.537 3.855 5.072 6.57 2.537-5.275 2.536 8.294 2.537 11.123 2.536 2.722 2.536.804 5.073-5.974 2.536-.632 2.537 1.882 2.536-12.299 2.536-1.542 2.537 3.213 2.536 9.394 2.537 3.81 2.536 1.108 2.536 9.216 2.537 8.637 2.536-6.933 2.536.859 2.537 7.928 2.536-.252 2.536.31 2.537-7.286 2.536-4.857 2.537 3.812 2.536 5.608 2.536-6.261 2.537.89 2.536 5.267 2.536 3.82 2.537 5.637 2.536-4.22 2.536 2.924 2.537 3.605 2.536.267 2.537-.99 2.536-.712 2.536-2.424 2.537.957 2.536 3.609 2.536-1.554 2.537 3.952 2.536-.603 2.536 7.228 2.537.456 2.536-5.607 2.537-1.006 2.536-3.807 2.536 4.665 2.537-21.154 2.536 3.546 2.536-9.583 2.537-1.633 2.536 5.014 2.536 10.785 2.537-3.323 2.536 3.404 2.537 2.095 2.536 2.626 2.536 7.85 2.537-6.71 2.536-3.251 2.536-7.924 2.537-1.062 2.536 2.965 2.536 1.276 2.537-1.018 2.536-8.99 2.537-2.926 2.536 8.008 2.536-1.517 2.537 4.012 2.536 5.224 2.536 4.832 2.537-8.25 2.536 5.495 2.536-5.406 2.537 10.266 2.536 4.405 2.537 4.163 2.536 2.815 2.536 3.188 2.537 2.22 2.536 2.906 2.536 2.283 5.073-3.793 2.536-4.476 2.537 2.727 2.536 4.308 2.537-3.219 2.536 3.027 2.536 5.432 5.073 14.464 2.536.243 2.537-1.06 2.536 8.096 2.536 2.19 2.537 3.084 2.536 2.051 2.537 13.46 2.536-2.313 2.536-8.402 2.537-.101 2.536-10.681 2.536 5.267 2.537-3.642 2.536-3.127 2.536-5.247 2.537 2.392 2.536 6.033 2.537-4.937 2.536-.026 2.536-3.618 2.537-8.263 2.536 4.953 2.536 11.842 2.537.18 2.536-5.368 2.536-3.19 2.537-.588 2.536-.019 2.537 6.4 2.536-3.051 2.536-7.708 2.537 3.227 2.536-2.72 2.536 4.585 2.537-.502 2.536 1.353 2.536-.819 2.537 3.135 2.536-4.387 2.537 6.062 2.536-3.131 2.536-1.834 2.537 5.494 5.072 10.372 2.537-5.226 2.536-2.062 2.536 2.278 2.537-12.47 2.536-6.281 2.537 14.538 2.536.649 2.536-4.332 5.073 15.86 2.536 2.584 2.537 5.463 2.536-11.78 2.536 10.106 2.537-13.34 2.536 2.444 2.537 2.715 2.536-3.747 2.536-5.055 2.537 9.52 2.536-2.56 2.536.84 2.537-1.663 2.536-5.09 2.536 11.936h0" clip-path="url(#p6d793556f3)" style="fill:none;stroke:#8000ff;stroke-linecap:square"/><path d="M59.183 173.518v-151.2M59.183 173.518h558" class="patch" style="fill:none;stroke:currentColor;stroke-width:.8;stroke-linejoin:miter;stroke-linecap:square"/><g id="text_7" class="text" transform="matrix(.12 0 0 -.12 258.103 16.318)"><defs><path id="DejaVuSans-42" d="M1259 2228V519h1013q509 0 754 211 246 211 246 645 0 438-246 645-245 208-754 208zm0 1919V2741h935q462 0 688 173 227 174 227 530 0 353-227 528-226 175-688 175zm-631 519h1613q722 0 1112-300 391-300 391-853 0-429-200-682t-588-315q466-100 724-418 258-317 258-792 0-625-425-966Q3088 0 2303 0H628z" transform="scale(.01563)"/><path id="DejaVuSans-72" d="M2631 2963q-97 56-211 82-114 27-251 27-488 0-749-317t-261-911V0H581v3500h578v-544q182 319 472 473 291 155 707 155 59 0 131-8 72-7 159-23z" transform="scale(.01563)"/><path id="DejaVuSans-6f" d="M1959 3097q-462 0-731-361t-269-989 267-989q268-361 733-361 460 0 728 362 269 363 269 988 0 622-269 986-268 364-728 364zm0 487q750 0 1178-488 429-487 429-1349 0-859-429-1349Q2709-91 1959-91q-753 0-1180 489-426 490-426 1349 0 862 426 1349 427 488 1180 488z" transform="scale(.01563)"/><path id="DejaVuSans-77" d="M269 3500h575l719-2731 715 2731h678l719-2731 716 2731h575L4050 0h-678l-753 2869L1863 0h-679z" transform="scale(.01563)"/><path id="DejaVuSans-6e" d="M3513 2113V0h-575v2094q0 497-194 743-194 247-581 247-466 0-735-297-269-296-269-809V0H581v3500h578v-544q207 316 486 472 280 156 646 156 603 0 912-373 310-373 310-1098z" transform="scale(.01563)"/><path id="DejaVuSans-69" d="M603 3500h575V0H603zm0 1363h575v-729H603z" transform="scale(.01563)"/><path id="DejaVuSans-61" d="M2194 1759q-697 0-966-159t-269-544q0-306 202-486 202-179 548-179 479 0 768 339t289 901v128zm1147 238V0h-575v531q-197-318-491-470T1556-91q-537 0-855 302-317 302-317 808 0 590 395 890 396 300 1180 300h807v57q0 397-261 614t-733 217q-300 0-585-72-284-72-546-216v532q315 122 612 182 297 61 578 61 760 0 1135-394 375-393 375-1193z" transform="scale(.01563)"/><path id="DejaVuSans-6d" d="M3328 2828q216 388 516 572t706 184q547 0 844-383 297-382 297-1088V0h-578v2094q0 503-179 746-178 244-543 244-447 0-707-297-259-296-259-809V0h-578v2094q0 506-178 748t-550 242q-441 0-701-298-259-298-259-808V0H581v3500h578v-544q197 322 472 475t653 153q382 0 649-194 267-193 395-562z" transform="scale(.01563)"/><path id="DejaVuSans-74" d="M1172 4494v-994h1184v-447H1172V1153q0-428 117-550t477-122h590V0h-590q-666 0-919 248-253 249-253 905v1900H172v447h422v994z" transform="scale(.01563)"/><path id="DejaVuSans-68" d="M3513 2113V0h-575v2094q0 497-194 743-194 247-581 247-466 0-735-297-269-296-269-809V0H581v4863h578V2956q207 316 486 472 280 156 646 156 603 0 912-373 310-373 310-1098z" transform="scale(.01563)"/><path id="DejaVuSans-3d" d="M678 2906h4006v-525H678zm0-1275h4006v-531H678z" transform="scale(.01563)"/></defs><use xlink:href="#DejaVuSans-42"/><use xlink:href="#DejaVuSans-72" transform="translate(68.604)"/><use xlink:href="#DejaVuSans-6f" transform="translate(107.467)"/><use xlink:href="#DejaVuSans-77" transform="translate(168.648)"/><use xlink:href="#DejaVuSans-6e" transform="translate(250.436)"/><use xlink:href="#DejaVuSans-69" transform="translate(313.814)"/><use xlink:href="#DejaVuSans-61" transform="translate(341.598)"/><use xlink:href="#DejaVuSans-6e" transform="translate(402.877)"/><use xlink:href="#DejaVuSans-6d" transform="translate(498.043)"/><use xlink:href="#DejaVuSans-6f" transform="translate(595.455)"/><use xlink:href="#DejaVuSans-74" transform="translate(656.637)"/><use xlink:href="#DejaVuSans-69" transform="translate(695.846)"/><use xlink:href="#DejaVuSans-6f" transform="translate(723.629)"/><use xlink:href="#DejaVuSans-6e" transform="translate(784.81)"/><use xlink:href="#DejaVuSans-77" transform="translate(879.977)"/><use xlink:href="#DejaVuSans-69" transform="translate(961.764)"/><use xlink:href="#DejaVuSans-74" transform="translate(989.547)"/><use xlink:href="#DejaVuSans-68" transform="translate(1028.756)"/><use xlink:href="#DejaVuSans-6e" transform="translate(1123.922)"/><use xlink:href="#DejaVuSans-3d" transform="translate(1187.3)"/><use xlink:href="#DejaVuSans-35" transform="translate(1271.09)"/></g><g id="PathCollection_1"><defs><path id="m7e70f9a1dc" d="M0 3a3 3 0 1 0 0-6 3 3 0 0 0 0 6z" style="stroke:#ff0001"/></defs><g clip-path="url(#p6d793556f3)"><use xlink:href="#m7e70f9a1dc" x="84.547" y="31.966" style="fill:#ff0001;stroke:#ff0001"/><use xlink:href="#m7e70f9a1dc" x="186.001" y="71.386" style="fill:#ff0001;stroke:#ff0001"/><use xlink:href="#m7e70f9a1dc" x="287.456" y="109.236" style="fill:#ff0001;stroke:#ff0001"/><use xlink:href="#m7e70f9a1dc" x="388.91" y="120.112" style="fill:#ff0001;stroke:#ff0001"/><use xlink:href="#m7e70f9a1dc" x="490.365" y="141.14" style="fill:#ff0001;stroke:#ff0001"/><use xlink:href="#m7e70f9a1dc" x="591.819" y="159.594" style="fill:#ff0001;stroke:#ff0001"/></g></g></g><g id="axes_2"><path d="M59.183 354.958h558v-151.2h-558z" class="patch" style="fill:none"/><g class="axis"><g class="tick xtick"><path id="line2d_30" d="M84.547 354.958v-151.2" clip-path="url(#pceda78b65d)" style="fill:none;stroke:#b0b0b0;stroke-opacity:.3;stroke-width:.5;stroke-linecap:square"/><use xlink:href="#md20587f8cf" id="line2d_31" x="84.547" y="354.958" style="stroke:currentColor;stroke-width:.8"/><g id="text_8" class="text" transform="matrix(.1 0 0 -.1 73.414 369.557)"><use xlink:href="#DejaVuSans-30"/><use xlink:href="#DejaVuSans-2e" transform="translate(63.623)"/><use xlink:href="#DejaVuSans-30" transform="translate(95.41)"/><use xlink:href="#DejaVuSans-30" transform="translate(159.033)"/></g></g><g class="tick xtick"><path id="line2d_32" d="M147.956 354.958v-151.2" clip-path="url(#pceda78b65d)" style="fill:none;stroke:#b0b0b0;stroke-opacity:.3;stroke-width:.5;stroke-linecap:square"/><use xlink:href="#md20587f8cf" id="line2d_33" x="147.956" y="354.958" style="stroke:currentColor;stroke-width:.8"/><g id="text_9" class="text" transform="matrix(.1 0 0 -.1 136.823 369.557)"><use xlink:href="#DejaVuSans-30"/><use xlink:href="#DejaVuSans-2e" transform="translate(63.623)"/><use xlink:href="#DejaVuSans-32" transform="translate(95.41)"/><use xlink:href="#DejaVuSans-35" transform="translate(159.033)"/></g></g><g class="tick xtick"><path id="line2d_34" d="M211.365 354.958v-151.2" clip-path="url(#pceda78b65d)" style="fill:none;stroke:#b0b0b0;stroke-opacity:.3;stroke-width:.5;stroke-linecap:square"/><use xlink:href="#md20587f8cf" id="line2d_35" x="211.365" y="354.958" style="stroke:currentColor;stroke-width:.8"/><g id="text_10" class="text" transform="matrix(.1 0 0 -.1 200.232 369.557)"><use xlink:href="#DejaVuSans-30"/><use xlink:href="#DejaVuSans-2e" transform="translate(63.623)"/><use xlink:href="#DejaVuSans-35" transform="translate(95.41)"/><use xlink:href="#DejaVuSans-30" transform="translate(159.033)"/></g></g><g class="tick xtick"><path id="line2d_36" d="M274.774 354.958v-151.2" clip-path="url(#pceda78b65d)" style="fill:none;stroke:#b0b0b0;stroke-opacity:.3;stroke-width:.5;stroke-linecap:square"/><use xlink:href="#md20587f8cf" id="line2d_37" x="274.774" y="354.958" style="stroke:currentColor;stroke-width:.8"/><g id="text_11" class="text" transform="matrix(.1 0 0 -.1 263.641 369.557)"><defs><path id="DejaVuSans-37" d="M525 4666h3000v-269L1831 0h-659l1594 4134H525z" transform="scale(.01563)"/></defs><use xlink:href="#DejaVuSans-30"/><use xlink:href="#DejaVuSans-2e" transform="translate(63.623)"/><use xlink:href="#DejaVuSans-37" transform="translate(95.41)"/><use xlink:href="#DejaVuSans-35" transform="translate(159.033)"/></g></g><g class="tick xtick"><path id="line2d_38" d="M338.183 354.958v-151.2" clip-path="url(#pceda78b65d)" style="fill:none;stroke:#b0b0b0;stroke-opacity:.3;stroke-width:.5;stroke-linecap:square"/><use xlink:href="#md20587f8cf" id="line2d_39" x="338.183" y="354.958" style="stroke:currentColor;stroke-width:.8"/><g id="text_12" class="text" transform="matrix(.1 0 0 -.1 327.05 369.557)"><use xlink:href="#DejaVuSans-31"/><use xlink:href="#DejaVuSans-2e" transform="translate(63.623)"/><use xlink:href="#DejaVuSans-30" transform="translate(95.41)"/><use xlink:href="#DejaVuSans-30" transform="translate(159.033)"/></g></g><g class="tick xtick"><path id="line2d_40" d="M401.592 354.958v-151.2" clip-path="url(#pceda78b65d)" style="fill:none;stroke:#b0b0b0;stroke-opacity:.3;stroke-width:.5;stroke-linecap:square"/><use xlink:href="#md20587f8cf" id="line2d_41" x="401.592" y="354.958" style="stroke:currentColor;stroke-width:.8"/><g id="text_13" class="text" transform="matrix(.1 0 0 -.1 390.46 369.557)"><use xlink:href="#DejaVuSans-31"/><use xlink:href="#DejaVuSans-2e" transform="translate(63.623)"/><use xlink:href="#DejaVuSans-32" transform="translate(95.41)"/><use xlink:href="#DejaVuSans-35" transform="translate(159.033)"/></g></g><g class="tick xtick"><path id="line2d_42" d="M465.001 354.958v-151.2" clip-path="url(#pceda78b65d)" style="fill:none;stroke:#b0b0b0;stroke-opacity:.3;stroke-width:.5;stroke-linecap:square"/><use xlink:href="#md20587f8cf" id="line2d_43" x="465.001" y="354.958" style="stroke:currentColor;stroke-width:.8"/><g id="text_14" class="text" transform="matrix(.1 0 0 -.1 453.868 369.557)"><use xlink:href="#DejaVuSans-31"/><use xlink:href="#DejaVuSans-2e" transform="translate(63.623)"/><use xlink:href="#DejaVuSans-35" transform="translate(95.41)"/><use xlink:href="#DejaVuSans-30" transform="translate(159.033)"/></g></g><g class="tick xtick"><path id="line2d_44" d="M528.41 354.958v-151.2" clip-path="url(#pceda78b65d)" style="fill:none;stroke:#b0b0b0;stroke-opacity:.3;stroke-width:.5;stroke-linecap:square"/><use xlink:href="#md20587f8cf" id="line2d_45" x="528.41" y="354.958" style="stroke:currentColor;stroke-width:.8"/><g id="text_15" class="text" transform="matrix(.1 0 0 -.1 517.278 369.557)"><use xlink:href="#DejaVuSans-31"/><use xlink:href="#DejaVuSans-2e" transform="translate(63.623)"/><use xlink:href="#DejaVuSans-37" transform="translate(95.41)"/><use xlink:href="#DejaVuSans-35" transform="translate(159.033)"/></g></g><g class="tick xtick"><path id="line2d_46" d="M591.82 354.958v-151.2" clip-path="url(#pceda78b65d)" style="fill:none;stroke:#b0b0b0;stroke-opacity:.3;stroke-width:.5;stroke-linecap:square"/><use xlink:href="#md20587f8cf" id="line2d_47" x="591.819" y="354.958" style="stroke:currentColor;stroke-width:.8"/><g id="text_16" class="text" transform="matrix(.1 0 0 -.1 580.687 369.557)"><use xlink:href="#DejaVuSans-32"/><use xlink:href="#DejaVuSans-2e" transform="translate(63.623)"/><use xlink:href="#DejaVuSans-30" transform="translate(95.41)"/><use xlink:href="#DejaVuSans-30" transform="translate(159.033)"/></g></g><use xlink:href="#DejaVuSans-74" id="text_17" class="text" transform="matrix(.12 0 0 -.12 335.83 384.754)"/></g><g class="axis"><g class="tick ytick"><path id="line2d_48" d="M59.183 348.085h558" clip-path="url(#pceda78b65d)" style="fill:none;stroke:#b0b0b0;stroke-opacity:.3;stroke-width:.5;stroke-linecap:square"/><use xlink:href="#mb07173942d" id="line2d_49" x="59.183" y="348.085" style="stroke:currentColor;stroke-width:.8"/><g id="text_18" class="text" transform="matrix(.1 0 0 -.1 36.28 351.885)"><use xlink:href="#DejaVuSans-30"/><use xlink:href="#DejaVuSans-2e" transform="translate(63.623)"/><use xlink:href="#DejaVuSans-30" transform="translate(95.41)"/></g></g><g class="tick ytick"><path id="line2d_50" d="M59.183 322.78h558" clip-path="url(#pceda78b65d)" style="fill:none;stroke:#b0b0b0;stroke-opacity:.3;stroke-width:.5;stroke-linecap:square"/><use xlink:href="#mb07173942d" id="line2d_51" x="59.183" y="322.779" style="stroke:currentColor;stroke-width:.8"/><g id="text_19" class="text" transform="matrix(.1 0 0 -.1 36.28 326.578)"><use xlink:href="#DejaVuSans-30"/><use xlink:href="#DejaVuSans-2e" transform="translate(63.623)"/><use xlink:href="#DejaVuSans-32" transform="translate(95.41)"/></g></g><g class="tick ytick"><path id="line2d_52" d="M59.183 297.473h558" clip-path="url(#pceda78b65d)" style="fill:none;stroke:#b0b0b0;stroke-opacity:.3;stroke-width:.5;stroke-linecap:square"/><use xlink:href="#mb07173942d" id="line2d_53" x="59.183" y="297.473" style="stroke:currentColor;stroke-width:.8"/><g id="text_20" class="text" transform="matrix(.1 0 0 -.1 36.28 301.272)"><defs><path id="DejaVuSans-34" d="M2419 4116 825 1625h1594zm-166 550h794V1625h666v-525h-666V0h-628v1100H313v609z" transform="scale(.01563)"/></defs><use xlink:href="#DejaVuSans-30"/><use xlink:href="#DejaVuSans-2e" transform="translate(63.623)"/><use xlink:href="#DejaVuSans-34" transform="translate(95.41)"/></g></g><g class="tick ytick"><path id="line2d_54" d="M59.183 272.167h558" clip-path="url(#pceda78b65d)" style="fill:none;stroke:#b0b0b0;stroke-opacity:.3;stroke-width:.5;stroke-linecap:square"/><use xlink:href="#mb07173942d" id="line2d_55" x="59.183" y="272.167" style="stroke:currentColor;stroke-width:.8"/><g id="text_21" class="text" transform="matrix(.1 0 0 -.1 36.28 275.966)"><defs><path id="DejaVuSans-36" d="M2113 2584q-425 0-674-291-248-290-248-796 0-503 248-796 249-292 674-292t673 292q248 293 248 796 0 506-248 796-248 291-673 291zm1253 1979v-575q-238 112-480 171-242 60-480 60-625 0-955-422-329-422-376-1275 184 272 462 417 279 145 613 145 703 0 1111-427 408-426 408-1160 0-719-425-1154Q2819-91 2113-91q-810 0-1238 620-428 621-428 1799 0 1106 525 1764t1409 658q238 0 480-47t505-140z" transform="scale(.01563)"/></defs><use xlink:href="#DejaVuSans-30"/><use xlink:href="#DejaVuSans-2e" transform="translate(63.623)"/><use xlink:href="#DejaVuSans-36" transform="translate(95.41)"/></g></g><g class="tick ytick"><path id="line2d_56" d="M59.183 246.86h558" clip-path="url(#pceda78b65d)" style="fill:none;stroke:#b0b0b0;stroke-opacity:.3;stroke-width:.5;stroke-linecap:square"/><use xlink:href="#mb07173942d" id="line2d_57" x="59.183" y="246.861" style="stroke:currentColor;stroke-width:.8"/><g id="text_22" class="text" transform="matrix(.1 0 0 -.1 36.28 250.66)"><defs><path id="DejaVuSans-38" d="M2034 2216q-450 0-708-241-257-241-257-662 0-422 257-663 258-241 708-241t709 242q260 243 260 662 0 421-258 662-257 241-711 241zm-631 268q-406 100-633 378-226 279-226 679 0 559 398 884 399 325 1092 325 697 0 1094-325t397-884q0-400-227-679-226-278-629-378 456-106 710-416 255-309 255-755 0-679-414-1042Q2806-91 2034-91q-771 0-1186 362-414 363-414 1042 0 446 256 755 257 310 713 416zm-231 997q0-362 226-565 227-203 636-203 407 0 636 203 230 203 230 565 0 363-230 566-229 203-636 203-409 0-636-203-226-203-226-566z" transform="scale(.01563)"/></defs><use xlink:href="#DejaVuSans-30"/><use xlink:href="#DejaVuSans-2e" transform="translate(63.623)"/><use xlink:href="#DejaVuSans-38" transform="translate(95.41)"/></g></g><g class="tick ytick"><path id="line2d_58" d="M59.183 221.554h558" clip-path="url(#pceda78b65d)" style="fill:none;stroke:#b0b0b0;stroke-opacity:.3;stroke-width:.5;stroke-linecap:square"/><use xlink:href="#mb07173942d" id="line2d_59" x="59.183" y="221.554" style="stroke:currentColor;stroke-width:.8"/><g id="text_23" class="text" transform="matrix(.1 0 0 -.1 36.28 225.354)"><use xlink:href="#DejaVuSans-31"/><use xlink:href="#DejaVuSans-2e" transform="translate(63.623)"/><use xlink:href="#DejaVuSans-30" transform="translate(95.41)"/></g></g><g id="text_24" class="text" transform="matrix(0 -.12 -.12 0 19.44 304.258)"><defs><path id="DejaVuSansDisplay-2211" d="M244 6509h5559v-853H1566l2968-3168L1469-888h4450v-850H109v660l3207 3541L244 5728z" transform="scale(.01563)"/><path id="DejaVuSans-Oblique-69" d="M1172 4863h575l-141-729h-575zM909 3500h575L800 0H225z" transform="scale(.01563)"/><path id="DejaVuSans-3c" d="M4684 3150 1459 2003 4684 863V294L678 1747v519l4006 1453z" transform="scale(.01563)"/><path id="DejaVuSans-394" d="M2188 4044 906 525h2566zM50 0l1781 4666h716L4325 0z" transform="scale(.01563)"/></defs><use xlink:href="#DejaVuSansDisplay-2211" transform="translate(33 .297)"/><use xlink:href="#DejaVuSans-Oblique-74" transform="matrix(.7 0 0 .7 0 -94.763)"/><use xlink:href="#DejaVuSans-Oblique-69" transform="matrix(.49 0 0 .49 27.446 -106.247)"/><use xlink:href="#DejaVuSans-3c" transform="matrix(.7 0 0 .7 56.612 -94.763)"/><use xlink:href="#DejaVuSans-Oblique-74" transform="matrix(.7 0 0 .7 128.902 -94.763)"/><use xlink:href="#DejaVuSans-28" transform="translate(156.348 .297)"/><use xlink:href="#DejaVuSans-394" transform="translate(195.362 .297)"/><use xlink:href="#DejaVuSans-Oblique-3b2" transform="translate(263.77 .297)"/><use xlink:href="#DejaVuSans-29" transform="translate(327.588 .297)"/><use xlink:href="#DejaVuSans-32" transform="matrix(.7 0 0 .7 367.56 38.578)"/></g></g><path id="line2d_60" d="M84.547 348.085H186v-54.941h101.455v-50.655H388.91v-4.183h101.455v-15.633h101.454V210.63h0" clip-path="url(#pceda78b65d)" style="fill:none;stroke:#8000ff;stroke-width:1.5;stroke-linecap:square"/><path d="M59.183 354.958v-151.2M59.183 354.958h558" class="patch" style="fill:none;stroke:currentColor;stroke-width:.8;stroke-linejoin:miter;stroke-linecap:square"/></g></g><defs><clipPath id="p6d793556f3"><path d="M59.183 22.318h558v151.2h-558z"/></clipPath><clipPath id="pceda78b65d"><path d="M59.183 203.758h558v151.2h-558z"/></clipPath></defs></svg>