<svg xmlns="http://www.w3.org/2000/svg" xmlns:xlink="http://www.w3.org/1999/xlink" width="661.138" height="82.871" style="--axis-color:#000;--grid-stroke:rgba(0,0,0,0.2);--plot3d-stroke:rgba(0,0,0,0.3);--plot3d-grid:rgba(0,0,0,0.2);--black:#000000;--c1:#FF0001;--c2:#00FF02;--c3:#0000FF;--c4:#FF00FF;--c5:#00FFFF;--c6:#FFFF00;--c7:#FF8000;--c8:#8000FF;--gray:#7f7f7f;--grey:#7f7f7f;--octonary:#bcbd22;--primary:#d62728;--quaternary:#9467bd;--quinary:#8c564b;--secondary:#2ca02c;--senary:#e377c2;--septenary:#7f7f7f;--tertiary:#1f77b4;--white:#ffffff" viewBox="0 0 661.138 82.871"><style><![CDATA[@media (prefers-color-scheme:dark){:root{--axis-color:#fff;--grid-stroke:rgba(255,255,255,0.2);--plot3d-stroke:rgba(255,255,255,0.3);--plot3d-grid:rgba(255,255,255,0.2);--black:#FFFFFF;--c1:#FF0001;--c2:#00FF02;--c3:#0000FF;--c4:#FF00FF;--c5:#00FFFF;--c6:#FFFF00;--c7:#FF8000;--c8:#8000FF;--gray:#CCCCCC;--grey:#CCCCCC;--octonary:#E6DB74;--primary:#FF4A98;--quaternary:#B4A0FF;--quinary:#FFB86B;--secondary:#0AFAFA;--senary:#FF79C6;--septenary:#CCCCCC;--tertiary:#7F83FF;--white:#000000}}]]></style><defs><path id="simple_example_glyph-0-0" d="M8.266-2.469c0-.078-.063-.156-.172-.156-.156 0-.172.094-.219.234C7.406-.875 6.406-.17 5.625-.17c-.594 0-.922-.454-.922-1.157 0-.375.063-.656.344-1.781l.594-2.344c.265-1.031.843-1.797 1.64-1.797 0 0 .516 0 .875.219-.547.11-.75.515-.75.843 0 .422.328.563.563.563.515 0 .875-.453.875-.922 0-.719-.813-1.047-1.547-1.047-1.047 0-1.625 1.032-1.781 1.36-.407-1.297-1.47-1.36-1.782-1.36-1.75 0-2.687 2.25-2.687 2.64 0 .063.078.157.187.157.141 0 .172-.11.22-.172C2.03-6.89 3.187-7.25 3.687-7.25c.765 0 .921.719.921 1.14 0 .376-.093.766-.296 1.594l-.594 2.36c-.25 1.031-.75 1.984-1.672 1.984-.078 0-.516 0-.875-.219a.88.88 0 0 0 .75-.843c0-.344-.25-.563-.578-.563-.407 0-.86.375-.86.922 0 .719.813 1.047 1.547 1.047.828 0 1.406-.656 1.781-1.36C4.079-.171 4.938.173 5.579.173c1.75 0 2.688-2.25 2.688-2.64m0 0"/><path id="simple_example_glyph-1-0" d="M4.906 0v-.344h-.375c-1.047 0-1.093-.14-1.093-.578v-6.734c0-.282 0-.297-.235-.297-.281.328-.89.766-2.11.766v.343c.266 0 .86 0 1.532-.297v6.22c0 .437-.047.577-1.094.577h-.375V0c.328-.031 1.485-.031 1.875-.031.406 0 1.547 0 1.875.031m0 0"/><path id="simple_example_glyph-1-1" d="M5.266-2.016H5c-.047.204-.14.875-.25 1.063-.094.11-.766.11-1.125.11H1.406c.328-.282 1.063-1.048 1.36-1.329 1.828-1.672 2.5-2.297 2.5-3.484 0-1.375-1.094-2.297-2.485-2.297-1.375 0-2.203 1.187-2.203 2.219 0 .609.531.609.563.609.265 0 .562-.187.562-.562 0-.344-.219-.563-.562-.563-.094 0-.125 0-.157.016.22-.813.875-1.375 1.641-1.375 1.016 0 1.64.859 1.64 1.953 0 1.015-.577 1.906-1.265 2.672L.578-.281V0h4.375Zm0 0"/><path id="simple_example_glyph-1-2" d="M5.36-2.047C5.36-3.14 4.468-4 3.327-4.203 4.36-4.5 5.031-5.375 5.031-6.313s-.984-1.64-2.14-1.64c-1.188 0-2.078.734-2.078 1.61 0 .468.375.577.546.577.25 0 .547-.187.547-.546 0-.375-.297-.547-.562-.547-.063 0-.094 0-.125.015.453-.812 1.578-.812 1.64-.812.391 0 1.172.172 1.172 1.343 0 .235-.031.891-.39 1.407-.36.531-.766.562-1.078.578l-.36.031c-.203.016-.25.031-.25.14s.063.11.266.11h.547c1.03 0 1.484.844 1.484 1.984 0 1.579-.812 1.985-1.406 1.985-.578 0-1.547-.266-1.906-1.063.39.063.734-.156.734-.578a.57.57 0 0 0-.578-.593c-.297 0-.61.171-.61.624C.484-.624 1.547.25 2.875.25c1.422 0 2.484-1.094 2.484-2.297m0 0"/><path id="simple_example_glyph-1-3" d="M5.516-2v-.344H4.313V-7.78c0-.235 0-.282-.172-.282-.094 0-.125 0-.22.141L.329-2.344V-2h3.14v1.094c0 .437-.03.562-.905.562h-.235V0c.281-.031 1.219-.031 1.563-.031.328 0 1.28 0 1.562.031v-.344H5.22c-.875 0-.907-.125-.907-.562V-2ZM3.53-2.344H.625l2.906-4.5Zm0 0"/><path id="simple_example_glyph-1-4" d="M5.266-2.406c0-1.422-.97-2.61-2.22-2.61a2.08 2.08 0 0 0-1.515.641v-2.469a3.9 3.9 0 0 0 1.063.172c1.344 0 2.219-.984 2.219-1.156 0-.047-.032-.11-.11-.11 0 0-.047 0-.156.047A4 4 0 0 1 3-7.562c-.781 0-1.344-.25-1.578-.344-.078-.032-.125-.032-.125-.032-.094 0-.094.079-.094.266v3.547c0 .219 0 .281.14.281.063 0 .079 0 .204-.156.328-.484.89-.766 1.484-.766.64 0 .953.579 1.047.782.203.468.219 1.062.219 1.515s0 1.125-.344 1.672c-.265.422-.719.719-1.25.719A1.84 1.84 0 0 1 .922-1.484a.4.4 0 0 0 .187.03c.204 0 .532-.109.532-.515 0-.343-.235-.531-.532-.531-.218 0-.53.11-.53.578C.578-.906 1.405.25 2.718.25c1.36 0 2.547-1.14 2.547-2.656m0 0"/><path id="simple_example_glyph-1-5" d="M5.36-2.437c0-1.594-1.11-2.657-2.313-2.657-1.063 0-1.453.922-1.578 1.25v-.312c0-3.032 1.469-3.5 2.11-3.5.437 0 .874.125 1.093.484-.14 0-.594 0-.594.484 0 .266.172.5.484.5.297 0 .5-.187.5-.53 0-.626-.453-1.235-1.484-1.235-1.515 0-3.094 1.547-3.094 4.172C.484-.484 1.922.25 2.938.25 4.25.25 5.358-.89 5.358-2.437m-.985-.016c0 .61 0 1.156-.234 1.61-.297.562-.72.765-1.203.765-.75 0-1.11-.656-1.22-.906C1.61-1.297 1.5-1.891 1.5-2.72c0-.953.422-2.14 1.5-2.14.656 0 1 .453 1.188.859.187.438.187 1.031.187 1.547m0 0"/><clipPath id="simple_example_clip-0"><path d="M0 0h102v82.871H0Zm0 0"/></clipPath><clipPath id="simple_example_clip-1"><path d="M96 0h122v82.871H96Zm0 0"/></clipPath><clipPath id="simple_example_clip-2"><path d="M212 0h122v82.871H212Zm0 0"/></clipPath><clipPath id="simple_example_clip-3"><path d="M327 0h122v82.871H327Zm0 0"/></clipPath><clipPath id="simple_example_clip-4"><path d="M443 0h122v82.871H443Zm0 0"/></clipPath><clipPath id="simple_example_clip-5"><path d="M559 0h102.137v82.871H559Zm0 0"/></clipPath></defs><g clip-path="url(#simple_example_clip-0)"><path fill="none" stroke="var(--black)" stroke-miterlimit="10" stroke-width="2.268" d="M69.781 41.438c0-15.657-12.691-28.348-28.347-28.348-15.653 0-28.344 12.691-28.344 28.348 0 15.652 12.691 28.343 28.344 28.343 15.656 0 28.347-12.691 28.347-28.344Zm0 0"/></g><use xlink:href="#simple_example_glyph-0-0" x="33.47" y="43.85" fill="var(--black)"/><use xlink:href="#simple_example_glyph-1-0" x="43.049" y="46.433" fill="var(--black)"/><g clip-path="url(#simple_example_clip-1)"><path fill="none" stroke="var(--black)" stroke-miterlimit="10" stroke-width="2.268" d="M185.438 41.438c0-15.657-12.692-28.348-28.348-28.348s-28.348 12.691-28.348 28.348c0 15.652 12.692 28.343 28.348 28.343s28.347-12.691 28.347-28.344Zm0 0"/></g><use xlink:href="#simple_example_glyph-0-0" x="149.124" y="43.85" fill="var(--black)"/><use xlink:href="#simple_example_glyph-1-1" x="158.703" y="46.433" fill="var(--black)"/><g clip-path="url(#simple_example_clip-2)"><path fill="none" stroke="var(--black)" stroke-miterlimit="10" stroke-width="2.268" d="M301.09 41.438c0-15.657-12.688-28.348-28.344-28.348s-28.348 12.691-28.348 28.348c0 15.652 12.692 28.343 28.348 28.343S301.09 57.09 301.09 41.437Zm0 0"/></g><use xlink:href="#simple_example_glyph-0-0" x="264.777" y="43.85" fill="var(--black)"/><use xlink:href="#simple_example_glyph-1-2" x="274.356" y="46.433" fill="var(--black)"/><g clip-path="url(#simple_example_clip-3)"><path fill="none" stroke="var(--black)" stroke-miterlimit="10" stroke-width="2.268" d="M416.746 41.438c0-15.657-12.691-28.348-28.348-28.348-15.652 0-28.343 12.691-28.343 28.348 0 15.652 12.691 28.343 28.343 28.343 15.657 0 28.348-12.691 28.348-28.344Zm0 0"/></g><use xlink:href="#simple_example_glyph-0-0" x="380.431" y="43.85" fill="var(--black)"/><use xlink:href="#simple_example_glyph-1-3" x="390.01" y="46.433" fill="var(--black)"/><g clip-path="url(#simple_example_clip-4)"><path fill="none" stroke="var(--black)" stroke-miterlimit="10" stroke-width="2.268" d="M532.402 41.438c0-15.657-12.691-28.348-28.347-28.348s-28.348 12.691-28.348 28.348c0 15.652 12.691 28.343 28.348 28.343s28.347-12.691 28.347-28.344Zm0 0"/></g><use xlink:href="#simple_example_glyph-0-0" x="496.084" y="43.85" fill="var(--black)"/><use xlink:href="#simple_example_glyph-1-4" x="505.663" y="46.433" fill="var(--black)"/><path fill="#ccf" d="M648.059 41.438c0-15.657-12.692-28.348-28.348-28.348s-28.348 12.691-28.348 28.348c0 15.652 12.692 28.343 28.348 28.343s28.348-12.691 28.348-28.344m0 0"/><g clip-path="url(#simple_example_clip-5)"><path fill="none" stroke="var(--black)" stroke-miterlimit="10" stroke-width="2.268" d="M648.059 41.438c0-15.657-12.692-28.348-28.348-28.348s-28.348 12.691-28.348 28.348c0 15.652 12.692 28.343 28.348 28.343s28.348-12.691 28.348-28.344Zm0 0"/></g><use xlink:href="#simple_example_glyph-0-0" x="611.738" y="43.85" fill="var(--black)"/><use xlink:href="#simple_example_glyph-1-5" x="621.317" y="46.433" fill="var(--black)"/><path fill="none" stroke="var(--black)" stroke-miterlimit="10" stroke-width="2.268" d="M70.914 41.438h51.899"/><path fill="var(--black)" d="m127.61 41.438-7.676-3.84 2.879 3.84-2.88 3.835"/><path fill="none" stroke="var(--black)" stroke-miterlimit="10" stroke-width="2.268" d="M186.57 41.438h51.899"/><path fill="var(--black)" d="m243.266 41.438-7.676-3.84 2.879 3.84-2.88 3.835"/><path fill="none" stroke="var(--black)" stroke-miterlimit="10" stroke-width="2.268" d="M302.227 41.438h51.894"/><path fill="var(--black)" d="m358.918 41.438-7.672-3.84 2.875 3.84-2.875 3.835"/><path fill="none" stroke="var(--black)" stroke-miterlimit="10" stroke-width="2.268" d="M417.879 41.438h51.898"/><path fill="var(--black)" d="m474.574 41.438-7.676-3.84 2.88 3.84-2.88 3.835"/><path fill="none" stroke="var(--black)" stroke-miterlimit="10" stroke-width="2.268" d="M533.535 41.438h51.899"/><path fill="var(--black)" d="m590.23 41.438-7.675-3.84 2.879 3.84-2.88 3.835"/></svg>