<?xml version="1.0" encoding="UTF-8"?>
<svg xmlns="http://www.w3.org/2000/svg" xmlns:xlink="http://www.w3.org/1999/xlink" width="661.138" height="82.871" viewBox="0 0 661.138 82.871">
<style>/* === RDF autogenerated palette === */
:root {
    --axis-color: #000;
    --grid-stroke: rgba(0,0,0,0.2);
    --plot3d-stroke: rgba(0,0,0,0.3);
    --plot3d-grid: rgba(0,0,0,0.2);
}
@media (prefers-color-scheme: dark) {
    :root {
        --axis-color: #fff;
        --grid-stroke: rgba(255,255,255,0.2);
        --plot3d-stroke: rgba(255,255,255,0.3);
        --plot3d-grid: rgba(255,255,255,0.2);
    }
}

/* Light‑mode palette */
.black { fill:#000000; stroke:#000000; }:root { --black: #000000; }.c1 { fill:#FF0001; stroke:#FF0001; }:root { --c1: #FF0001; }.c2 { fill:#00FF02; stroke:#00FF02; }:root { --c2: #00FF02; }.c3 { fill:#0000FF; stroke:#0000FF; }:root { --c3: #0000FF; }.c4 { fill:#FF00FF; stroke:#FF00FF; }:root { --c4: #FF00FF; }.c5 { fill:#00FFFF; stroke:#00FFFF; }:root { --c5: #00FFFF; }.c6 { fill:#FFFF00; stroke:#FFFF00; }:root { --c6: #FFFF00; }.c7 { fill:#FF8000; stroke:#FF8000; }:root { --c7: #FF8000; }.c8 { fill:#8000FF; stroke:#8000FF; }:root { --c8: #8000FF; }.gray { fill:#7f7f7f; stroke:#7f7f7f; }:root { --gray: #7f7f7f; }.grey { fill:#7f7f7f; stroke:#7f7f7f; }:root { --grey: #7f7f7f; }.octonary { fill:#bcbd22; stroke:#bcbd22; }:root { --octonary: #bcbd22; }.primary { fill:#d62728; stroke:#d62728; }:root { --primary: #d62728; }.quaternary { fill:#9467bd; stroke:#9467bd; }:root { --quaternary: #9467bd; }.quinary { fill:#8c564b; stroke:#8c564b; }:root { --quinary: #8c564b; }.secondary { fill:#2ca02c; stroke:#2ca02c; }:root { --secondary: #2ca02c; }.senary { fill:#e377c2; stroke:#e377c2; }:root { --senary: #e377c2; }.septenary { fill:#7f7f7f; stroke:#7f7f7f; }:root { --septenary: #7f7f7f; }.tertiary { fill:#1f77b4; stroke:#1f77b4; }:root { --tertiary: #1f77b4; }.white { fill:#ffffff; stroke:#ffffff; }:root { --white: #ffffff; }

/* Dark overrides */
@media (prefers-color-scheme: dark) {
    .black { fill:#FFFFFF; stroke:#FFFFFF; }:root { --black: #FFFFFF; }.c1 { fill:#FF0001; stroke:#FF0001; }:root { --c1: #FF0001; }.c2 { fill:#00FF02; stroke:#00FF02; }:root { --c2: #00FF02; }.c3 { fill:#0000FF; stroke:#0000FF; }:root { --c3: #0000FF; }.c4 { fill:#FF00FF; stroke:#FF00FF; }:root { --c4: #FF00FF; }.c5 { fill:#00FFFF; stroke:#00FFFF; }:root { --c5: #00FFFF; }.c6 { fill:#FFFF00; stroke:#FFFF00; }:root { --c6: #FFFF00; }.c7 { fill:#FF8000; stroke:#FF8000; }:root { --c7: #FF8000; }.c8 { fill:#8000FF; stroke:#8000FF; }:root { --c8: #8000FF; }.gray { fill:#CCCCCC; stroke:#CCCCCC; }:root { --gray: #CCCCCC; }.grey { fill:#CCCCCC; stroke:#CCCCCC; }:root { --grey: #CCCCCC; }.octonary { fill:#E6DB74; stroke:#E6DB74; }:root { --octonary: #E6DB74; }.primary { fill:#FF4A98; stroke:#FF4A98; }:root { --primary: #FF4A98; }.quaternary { fill:#B4A0FF; stroke:#B4A0FF; }:root { --quaternary: #B4A0FF; }.quinary { fill:#FFB86B; stroke:#FFB86B; }:root { --quinary: #FFB86B; }.secondary { fill:#0AFAFA; stroke:#0AFAFA; }:root { --secondary: #0AFAFA; }.senary { fill:#FF79C6; stroke:#FF79C6; }:root { --senary: #FF79C6; }.septenary { fill:#CCCCCC; stroke:#CCCCCC; }:root { --septenary: #CCCCCC; }.tertiary { fill:#7F83FF; stroke:#7F83FF; }:root { --tertiary: #7F83FF; }.white { fill:#000000; stroke:#000000; }:root { --white: #000000; }
}/* Axis, ticks, legend */
text, .text { fill: var(--axis-color) !important; stroke: none !important; }
.axis line, .axis path,
.tick line, .tick path,
path.domain,
line.grid { stroke: var(--axis-color) !important; }
.legend text { fill: var(--axis-color) !important; }

/* Patch paths that relied on currentColor */
.patch path[style*="stroke: currentColor"] { stroke: var(--axis-color) !important; }

/* Legend background (first child of legend group) */
g.legend > g:first-child > path:first-child {
    fill: rgba(255,255,255,0.8) !important;
    stroke: rgba(0,0,0,0.1) !important;
}
@media (prefers-color-scheme: dark) {
    g.legend > g:first-child > path:first-child {
        fill: rgba(26,26,26,0.8) !important;
        stroke: rgba(255,255,255,0.1) !important;
    }
}

/* 3‑D specific rules */
.plot3d path, .plot3d polygon {
    stroke: var(--plot3d-stroke) !important;
}
.plot3d-grid line { stroke: var(--plot3d-grid) !important; }
.plot3d-surface path[style*="fill:"] {
    fill-opacity: 0.9 !important;
}
@media (prefers-color-scheme: dark) {
    .plot3d-surface path[style*="fill:"] {
        fill-opacity: 0.95 !important;
        filter: saturate(1.2) !important;
    }
}</style>

<defs>
<g class="glyph">
<g id="simple_example_glyph-0-0">
<path d="M 8.265625 -2.46875 C 8.265625 -2.546875 8.203125 -2.625 8.09375 -2.625 C 7.9375 -2.625 7.921875 -2.53125 7.875 -2.390625 C 7.40625 -0.875 6.40625 -0.171875 5.625 -0.171875 C 5.03125 -0.171875 4.703125 -0.625 4.703125 -1.328125 C 4.703125 -1.703125 4.765625 -1.984375 5.046875 -3.109375 L 5.640625 -5.453125 C 5.90625 -6.484375 6.484375 -7.25 7.28125 -7.25 C 7.28125 -7.25 7.796875 -7.25 8.15625 -7.03125 C 7.609375 -6.921875 7.40625 -6.515625 7.40625 -6.1875 C 7.40625 -5.765625 7.734375 -5.625 7.96875 -5.625 C 8.484375 -5.625 8.84375 -6.078125 8.84375 -6.546875 C 8.84375 -7.265625 8.03125 -7.59375 7.296875 -7.59375 C 6.25 -7.59375 5.671875 -6.5625 5.515625 -6.234375 C 5.109375 -7.53125 4.046875 -7.59375 3.734375 -7.59375 C 1.984375 -7.59375 1.046875 -5.34375 1.046875 -4.953125 C 1.046875 -4.890625 1.125 -4.796875 1.234375 -4.796875 C 1.375 -4.796875 1.40625 -4.90625 1.453125 -4.96875 C 2.03125 -6.890625 3.1875 -7.25 3.6875 -7.25 C 4.453125 -7.25 4.609375 -6.53125 4.609375 -6.109375 C 4.609375 -5.734375 4.515625 -5.34375 4.3125 -4.515625 L 3.71875 -2.15625 C 3.46875 -1.125 2.96875 -0.171875 2.046875 -0.171875 C 1.96875 -0.171875 1.53125 -0.171875 1.171875 -0.390625 C 1.796875 -0.515625 1.921875 -1.03125 1.921875 -1.234375 C 1.921875 -1.578125 1.671875 -1.796875 1.34375 -1.796875 C 0.9375 -1.796875 0.484375 -1.421875 0.484375 -0.875 C 0.484375 -0.15625 1.296875 0.171875 2.03125 0.171875 C 2.859375 0.171875 3.4375 -0.484375 3.8125 -1.1875 C 4.078125 -0.171875 4.9375 0.171875 5.578125 0.171875 C 7.328125 0.171875 8.265625 -2.078125 8.265625 -2.46875 Z M 8.265625 -2.46875 "/>
</g>
<g id="simple_example_glyph-1-0">
<path d="M 4.90625 0 L 4.90625 -0.34375 L 4.53125 -0.34375 C 3.484375 -0.34375 3.4375 -0.484375 3.4375 -0.921875 L 3.4375 -7.65625 C 3.4375 -7.9375 3.4375 -7.953125 3.203125 -7.953125 C 2.921875 -7.625 2.3125 -7.1875 1.09375 -7.1875 L 1.09375 -6.84375 C 1.359375 -6.84375 1.953125 -6.84375 2.625 -7.140625 L 2.625 -0.921875 C 2.625 -0.484375 2.578125 -0.34375 1.53125 -0.34375 L 1.15625 -0.34375 L 1.15625 0 C 1.484375 -0.03125 2.640625 -0.03125 3.03125 -0.03125 C 3.4375 -0.03125 4.578125 -0.03125 4.90625 0 Z M 4.90625 0 "/>
</g>
<g id="simple_example_glyph-1-1">
<path d="M 5.265625 -2.015625 L 5 -2.015625 C 4.953125 -1.8125 4.859375 -1.140625 4.75 -0.953125 C 4.65625 -0.84375 3.984375 -0.84375 3.625 -0.84375 L 1.40625 -0.84375 C 1.734375 -1.125 2.46875 -1.890625 2.765625 -2.171875 C 4.59375 -3.84375 5.265625 -4.46875 5.265625 -5.65625 C 5.265625 -7.03125 4.171875 -7.953125 2.78125 -7.953125 C 1.40625 -7.953125 0.578125 -6.765625 0.578125 -5.734375 C 0.578125 -5.125 1.109375 -5.125 1.140625 -5.125 C 1.40625 -5.125 1.703125 -5.3125 1.703125 -5.6875 C 1.703125 -6.03125 1.484375 -6.25 1.140625 -6.25 C 1.046875 -6.25 1.015625 -6.25 0.984375 -6.234375 C 1.203125 -7.046875 1.859375 -7.609375 2.625 -7.609375 C 3.640625 -7.609375 4.265625 -6.75 4.265625 -5.65625 C 4.265625 -4.640625 3.6875 -3.75 3 -2.984375 L 0.578125 -0.28125 L 0.578125 0 L 4.953125 0 Z M 5.265625 -2.015625 "/>
</g>
<g id="simple_example_glyph-1-2">
<path d="M 5.359375 -2.046875 C 5.359375 -3.140625 4.46875 -4 3.328125 -4.203125 C 4.359375 -4.5 5.03125 -5.375 5.03125 -6.3125 C 5.03125 -7.25 4.046875 -7.953125 2.890625 -7.953125 C 1.703125 -7.953125 0.8125 -7.21875 0.8125 -6.34375 C 0.8125 -5.875 1.1875 -5.765625 1.359375 -5.765625 C 1.609375 -5.765625 1.90625 -5.953125 1.90625 -6.3125 C 1.90625 -6.6875 1.609375 -6.859375 1.34375 -6.859375 C 1.28125 -6.859375 1.25 -6.859375 1.21875 -6.84375 C 1.671875 -7.65625 2.796875 -7.65625 2.859375 -7.65625 C 3.25 -7.65625 4.03125 -7.484375 4.03125 -6.3125 C 4.03125 -6.078125 4 -5.421875 3.640625 -4.90625 C 3.28125 -4.375 2.875 -4.34375 2.5625 -4.328125 L 2.203125 -4.296875 C 2 -4.28125 1.953125 -4.265625 1.953125 -4.15625 C 1.953125 -4.046875 2.015625 -4.046875 2.21875 -4.046875 L 2.765625 -4.046875 C 3.796875 -4.046875 4.25 -3.203125 4.25 -2.0625 C 4.25 -0.484375 3.4375 -0.078125 2.84375 -0.078125 C 2.265625 -0.078125 1.296875 -0.34375 0.9375 -1.140625 C 1.328125 -1.078125 1.671875 -1.296875 1.671875 -1.71875 C 1.671875 -2.0625 1.421875 -2.3125 1.09375 -2.3125 C 0.796875 -2.3125 0.484375 -2.140625 0.484375 -1.6875 C 0.484375 -0.625 1.546875 0.25 2.875 0.25 C 4.296875 0.25 5.359375 -0.84375 5.359375 -2.046875 Z M 5.359375 -2.046875 "/>
</g>
<g id="simple_example_glyph-1-3">
<path d="M 5.515625 -2 L 5.515625 -2.34375 L 4.3125 -2.34375 L 4.3125 -7.78125 C 4.3125 -8.015625 4.3125 -8.0625 4.140625 -8.0625 C 4.046875 -8.0625 4.015625 -8.0625 3.921875 -7.921875 L 0.328125 -2.34375 L 0.328125 -2 L 3.46875 -2 L 3.46875 -0.90625 C 3.46875 -0.46875 3.4375 -0.34375 2.5625 -0.34375 L 2.328125 -0.34375 L 2.328125 0 C 2.609375 -0.03125 3.546875 -0.03125 3.890625 -0.03125 C 4.21875 -0.03125 5.171875 -0.03125 5.453125 0 L 5.453125 -0.34375 L 5.21875 -0.34375 C 4.34375 -0.34375 4.3125 -0.46875 4.3125 -0.90625 L 4.3125 -2 Z M 3.53125 -2.34375 L 0.625 -2.34375 L 3.53125 -6.84375 Z M 3.53125 -2.34375 "/>
</g>
<g id="simple_example_glyph-1-4">
<path d="M 5.265625 -2.40625 C 5.265625 -3.828125 4.296875 -5.015625 3.046875 -5.015625 C 2.359375 -5.015625 1.84375 -4.703125 1.53125 -4.375 L 1.53125 -6.84375 C 2.046875 -6.6875 2.46875 -6.671875 2.59375 -6.671875 C 3.9375 -6.671875 4.8125 -7.65625 4.8125 -7.828125 C 4.8125 -7.875 4.78125 -7.9375 4.703125 -7.9375 C 4.703125 -7.9375 4.65625 -7.9375 4.546875 -7.890625 C 3.890625 -7.609375 3.3125 -7.5625 3 -7.5625 C 2.21875 -7.5625 1.65625 -7.8125 1.421875 -7.90625 C 1.34375 -7.9375 1.296875 -7.9375 1.296875 -7.9375 C 1.203125 -7.9375 1.203125 -7.859375 1.203125 -7.671875 L 1.203125 -4.125 C 1.203125 -3.90625 1.203125 -3.84375 1.34375 -3.84375 C 1.40625 -3.84375 1.421875 -3.84375 1.546875 -4 C 1.875 -4.484375 2.4375 -4.765625 3.03125 -4.765625 C 3.671875 -4.765625 3.984375 -4.1875 4.078125 -3.984375 C 4.28125 -3.515625 4.296875 -2.921875 4.296875 -2.46875 C 4.296875 -2.015625 4.296875 -1.34375 3.953125 -0.796875 C 3.6875 -0.375 3.234375 -0.078125 2.703125 -0.078125 C 1.90625 -0.078125 1.140625 -0.609375 0.921875 -1.484375 C 0.984375 -1.453125 1.046875 -1.453125 1.109375 -1.453125 C 1.3125 -1.453125 1.640625 -1.5625 1.640625 -1.96875 C 1.640625 -2.3125 1.40625 -2.5 1.109375 -2.5 C 0.890625 -2.5 0.578125 -2.390625 0.578125 -1.921875 C 0.578125 -0.90625 1.40625 0.25 2.71875 0.25 C 4.078125 0.25 5.265625 -0.890625 5.265625 -2.40625 Z M 5.265625 -2.40625 "/>
</g>
<g id="simple_example_glyph-1-5">
<path d="M 5.359375 -2.4375 C 5.359375 -4.03125 4.25 -5.09375 3.046875 -5.09375 C 1.984375 -5.09375 1.59375 -4.171875 1.46875 -3.84375 L 1.46875 -4.15625 C 1.46875 -7.1875 2.9375 -7.65625 3.578125 -7.65625 C 4.015625 -7.65625 4.453125 -7.53125 4.671875 -7.171875 C 4.53125 -7.171875 4.078125 -7.171875 4.078125 -6.6875 C 4.078125 -6.421875 4.25 -6.1875 4.5625 -6.1875 C 4.859375 -6.1875 5.0625 -6.375 5.0625 -6.71875 C 5.0625 -7.34375 4.609375 -7.953125 3.578125 -7.953125 C 2.0625 -7.953125 0.484375 -6.40625 0.484375 -3.78125 C 0.484375 -0.484375 1.921875 0.25 2.9375 0.25 C 4.25 0.25 5.359375 -0.890625 5.359375 -2.4375 Z M 4.375 -2.453125 C 4.375 -1.84375 4.375 -1.296875 4.140625 -0.84375 C 3.84375 -0.28125 3.421875 -0.078125 2.9375 -0.078125 C 2.1875 -0.078125 1.828125 -0.734375 1.71875 -0.984375 C 1.609375 -1.296875 1.5 -1.890625 1.5 -2.71875 C 1.5 -3.671875 1.921875 -4.859375 3 -4.859375 C 3.65625 -4.859375 4 -4.40625 4.1875 -4 C 4.375 -3.5625 4.375 -2.96875 4.375 -2.453125 Z M 4.375 -2.453125 "/>
</g>
</g>
<clipPath id="simple_example_clip-0">
<path clip-rule="nonzero" d="M 0 0 L 102 0 L 102 82.871094 L 0 82.871094 Z M 0 0 "/>
</clipPath>
<clipPath id="simple_example_clip-1">
<path clip-rule="nonzero" d="M 96 0 L 218 0 L 218 82.871094 L 96 82.871094 Z M 96 0 "/>
</clipPath>
<clipPath id="simple_example_clip-2">
<path clip-rule="nonzero" d="M 212 0 L 334 0 L 334 82.871094 L 212 82.871094 Z M 212 0 "/>
</clipPath>
<clipPath id="simple_example_clip-3">
<path clip-rule="nonzero" d="M 327 0 L 449 0 L 449 82.871094 L 327 82.871094 Z M 327 0 "/>
</clipPath>
<clipPath id="simple_example_clip-4">
<path clip-rule="nonzero" d="M 443 0 L 565 0 L 565 82.871094 L 443 82.871094 Z M 443 0 "/>
</clipPath>
<clipPath id="simple_example_clip-5">
<path clip-rule="nonzero" d="M 559 0 L 661.136719 0 L 661.136719 82.871094 L 559 82.871094 Z M 559 0 "/>
</clipPath>
</defs>
<g clip-path="url(#simple_example_clip-0)">
<path fill="none" stroke-width="2.26773" stroke-linecap="butt" stroke-linejoin="miter" stroke="var(--black)" stroke-opacity="1" stroke-miterlimit="10" d="M 28.34625 -0.0015 C 28.34625 15.65475 15.654844 28.346156 -0.00140625 28.346156 C -15.65375 28.346156 -28.345156 15.65475 -28.345156 -0.0015 C -28.345156 -15.653844 -15.65375 -28.34525 -0.00140625 -28.34525 C 15.654844 -28.34525 28.34625 -15.653844 28.34625 -0.0015 Z M 28.34625 -0.0015 " transform="matrix(1, 0, 0, -1, 41.435, 41.436)"/>
</g>
<g fill="var(--black)" fill-opacity="1">
<use xlink:href="#simple_example_glyph-0-0" x="33.47" y="43.85"/>
</g>
<g fill="var(--black)" fill-opacity="1">
<use xlink:href="#simple_example_glyph-1-0" x="43.049" y="46.433"/>
</g>
<g clip-path="url(#simple_example_clip-1)">
<path fill="none" stroke-width="2.26773" stroke-linecap="butt" stroke-linejoin="miter" stroke="var(--black)" stroke-opacity="1" stroke-miterlimit="10" d="M 144.0025 -0.0015 C 144.0025 15.65475 131.311094 28.346156 115.654844 28.346156 C 99.998594 28.346156 87.307187 15.65475 87.307187 -0.0015 C 87.307187 -15.653844 99.998594 -28.34525 115.654844 -28.34525 C 131.311094 -28.34525 144.0025 -15.653844 144.0025 -0.0015 Z M 144.0025 -0.0015 " transform="matrix(1, 0, 0, -1, 41.435, 41.436)"/>
</g>
<g fill="var(--black)" fill-opacity="1">
<use xlink:href="#simple_example_glyph-0-0" x="149.124" y="43.85"/>
</g>
<g fill="var(--black)" fill-opacity="1">
<use xlink:href="#simple_example_glyph-1-1" x="158.703" y="46.433"/>
</g>
<g clip-path="url(#simple_example_clip-2)">
<path fill="none" stroke-width="2.26773" stroke-linecap="butt" stroke-linejoin="miter" stroke="var(--black)" stroke-opacity="1" stroke-miterlimit="10" d="M 259.654844 -0.0015 C 259.654844 15.65475 246.967344 28.346156 231.311094 28.346156 C 215.654844 28.346156 202.963437 15.65475 202.963437 -0.0015 C 202.963437 -15.653844 215.654844 -28.34525 231.311094 -28.34525 C 246.967344 -28.34525 259.654844 -15.653844 259.654844 -0.0015 Z M 259.654844 -0.0015 " transform="matrix(1, 0, 0, -1, 41.435, 41.436)"/>
</g>
<g fill="var(--black)" fill-opacity="1">
<use xlink:href="#simple_example_glyph-0-0" x="264.777" y="43.85"/>
</g>
<g fill="var(--black)" fill-opacity="1">
<use xlink:href="#simple_example_glyph-1-2" x="274.356" y="46.433"/>
</g>
<g clip-path="url(#simple_example_clip-3)">
<path fill="none" stroke-width="2.26773" stroke-linecap="butt" stroke-linejoin="miter" stroke="var(--black)" stroke-opacity="1" stroke-miterlimit="10" d="M 375.311094 -0.0015 C 375.311094 15.65475 362.619687 28.346156 346.963437 28.346156 C 331.311094 28.346156 318.619687 15.65475 318.619687 -0.0015 C 318.619687 -15.653844 331.311094 -28.34525 346.963437 -28.34525 C 362.619687 -28.34525 375.311094 -15.653844 375.311094 -0.0015 Z M 375.311094 -0.0015 " transform="matrix(1, 0, 0, -1, 41.435, 41.436)"/>
</g>
<g fill="var(--black)" fill-opacity="1">
<use xlink:href="#simple_example_glyph-0-0" x="380.431" y="43.85"/>
</g>
<g fill="var(--black)" fill-opacity="1">
<use xlink:href="#simple_example_glyph-1-3" x="390.01" y="46.433"/>
</g>
<g clip-path="url(#simple_example_clip-4)">
<path fill="none" stroke-width="2.26773" stroke-linecap="butt" stroke-linejoin="miter" stroke="var(--black)" stroke-opacity="1" stroke-miterlimit="10" d="M 490.967344 -0.0015 C 490.967344 15.65475 478.275937 28.346156 462.619687 28.346156 C 446.963437 28.346156 434.272031 15.65475 434.272031 -0.0015 C 434.272031 -15.653844 446.963437 -28.34525 462.619687 -28.34525 C 478.275937 -28.34525 490.967344 -15.653844 490.967344 -0.0015 Z M 490.967344 -0.0015 " transform="matrix(1, 0, 0, -1, 41.435, 41.436)"/>
</g>
<g fill="var(--black)" fill-opacity="1">
<use xlink:href="#simple_example_glyph-0-0" x="496.084" y="43.85"/>
</g>
<g fill="var(--black)" fill-opacity="1">
<use xlink:href="#simple_example_glyph-1-4" x="505.663" y="46.433"/>
</g>
<path fill-rule="nonzero" fill="rgb(79.998779%, 79.998779%, 100%)" fill-opacity="1" d="M 648.058594 41.4375 C 648.058594 25.78125 635.367188 13.089844 619.710938 13.089844 C 604.054688 13.089844 591.363281 25.78125 591.363281 41.4375 C 591.363281 57.089844 604.054688 69.78125 619.710938 69.78125 C 635.367188 69.78125 648.058594 57.089844 648.058594 41.4375 Z M 648.058594 41.4375 "/>
<g clip-path="url(#simple_example_clip-5)">
<path fill="none" stroke-width="2.26773" stroke-linecap="butt" stroke-linejoin="miter" stroke="var(--black)" stroke-opacity="1" stroke-miterlimit="10" d="M 606.623594 -0.0015 C 606.623594 15.65475 593.932188 28.346156 578.275938 28.346156 C 562.619688 28.346156 549.928281 15.65475 549.928281 -0.0015 C 549.928281 -15.653844 562.619688 -28.34525 578.275938 -28.34525 C 593.932188 -28.34525 606.623594 -15.653844 606.623594 -0.0015 Z M 606.623594 -0.0015 " transform="matrix(1, 0, 0, -1, 41.435, 41.436)"/>
</g>
<g fill="var(--black)" fill-opacity="1">
<use xlink:href="#simple_example_glyph-0-0" x="611.738" y="43.85"/>
</g>
<g fill="var(--black)" fill-opacity="1">
<use xlink:href="#simple_example_glyph-1-5" x="621.317" y="46.433"/>
</g>
<path fill="none" stroke-width="2.26773" stroke-linecap="butt" stroke-linejoin="miter" stroke="var(--black)" stroke-opacity="1" stroke-miterlimit="10" d="M 29.479062 -0.0015 L 81.3775 -0.0015 " transform="matrix(1, 0, 0, -1, 41.435, 41.436)"/>
<path fill-rule="nonzero" fill="var(--black)" fill-opacity="1" d="M 127.609375 41.4375 L 119.933594 37.597656 L 122.8125 41.4375 L 119.933594 45.273438 "/>
<path fill="none" stroke-width="2.26773" stroke-linecap="butt" stroke-linejoin="miter" stroke="var(--black)" stroke-opacity="1" stroke-miterlimit="10" d="M 145.135312 -0.0015 L 197.03375 -0.0015 " transform="matrix(1, 0, 0, -1, 41.435, 41.436)"/>
<path fill-rule="nonzero" fill="var(--black)" fill-opacity="1" d="M 243.265625 41.4375 L 235.589844 37.597656 L 238.46875 41.4375 L 235.589844 45.273438 "/>
<path fill="none" stroke-width="2.26773" stroke-linecap="butt" stroke-linejoin="miter" stroke="var(--black)" stroke-opacity="1" stroke-miterlimit="10" d="M 260.791562 -0.0015 L 312.686094 -0.0015 " transform="matrix(1, 0, 0, -1, 41.435, 41.436)"/>
<path fill-rule="nonzero" fill="var(--black)" fill-opacity="1" d="M 358.917969 41.4375 L 351.246094 37.597656 L 354.121094 41.4375 L 351.246094 45.273438 "/>
<path fill="none" stroke-width="2.26773" stroke-linecap="butt" stroke-linejoin="miter" stroke="var(--black)" stroke-opacity="1" stroke-miterlimit="10" d="M 376.443906 -0.0015 L 428.342344 -0.0015 " transform="matrix(1, 0, 0, -1, 41.435, 41.436)"/>
<path fill-rule="nonzero" fill="var(--black)" fill-opacity="1" d="M 474.574219 41.4375 L 466.898438 37.597656 L 469.777344 41.4375 L 466.898438 45.273438 "/>
<path fill="none" stroke-width="2.26773" stroke-linecap="butt" stroke-linejoin="miter" stroke="var(--black)" stroke-opacity="1" stroke-miterlimit="10" d="M 492.100156 -0.0015 L 543.998594 -0.0015 " transform="matrix(1, 0, 0, -1, 41.435, 41.436)"/>
<path fill-rule="nonzero" fill="var(--black)" fill-opacity="1" d="M 590.230469 41.4375 L 582.554688 37.597656 L 585.433594 41.4375 L 582.554688 45.273438 "/>
</svg>
