<?xml version="1.0" encoding="utf-8" standalone="no"?>
<!DOCTYPE svg PUBLIC "-//W3C//DTD SVG 1.1//EN"
  "http://www.w3.org/Graphics/SVG/1.1/DTD/svg11.dtd">
<svg xmlns:xlink="http://www.w3.org/1999/xlink" width="422.843437pt" height="325.986375pt" viewBox="0 0 422.843437 325.986375" xmlns="http://www.w3.org/2000/svg" version="1.1">
        <style>
            @keyframes drawLine {
                from { stroke-dashoffset: var(--length); }
                to { stroke-dashoffset: 0; }
            }

            @keyframes fadeIn {
                from { opacity: 0; }
                to { opacity: 1; }
            }

            @keyframes pulse {
                0% { opacity: 0.7; }
                50% { opacity: 1; }
                100% { opacity: 0.7; }
            }

            .animated-path {
                --length: 1000;
                stroke-dasharray: var(--length);
                stroke-dashoffset: var(--length);
                animation: drawLine 3.0s ease-in-out infinite;
                animation-delay: 0.0s;
            }

            .animated-fade {
                opacity: 0;
                animation: fadeIn 3.0s ease-in-out infinite;
                animation-delay: 0.0s;
            }

            .animated-pulse {
                animation: pulse 3.0s ease-in-out infinite;
                animation-delay: 0.0s;
            }
        </style>
        
        <style>
            /* Light mode (default) */
            .c1 { fill: #d62728 !important; stroke: #d62728 !important; }
.c2 { fill: #2ca02c !important; stroke: #2ca02c !important; }
.c3 { fill: #1f77b4 !important; stroke: #1f77b4 !important; }
.c4 { fill: #9467bd !important; stroke: #9467bd !important; }
.c5 { fill: #8c564b !important; stroke: #8c564b !important; }
.c6 { fill: #e377c2 !important; stroke: #e377c2 !important; }
.c7 { fill: #7f7f7f !important; stroke: #7f7f7f !important; }
.c8 { fill: #bcbd22 !important; stroke: #bcbd22 !important; }

            /* Text and graphic elements */
            text, .text {
                fill: #000000 !important;
                stroke: none !important;
            }

            .axis line, .axis path, .tick line, .tick path, path.domain, line.grid {
                stroke: #000000 !important;
            }

            .legend text {
                fill: #000000 !important;
            }

            g.legend > g:first-child > path:first-child {
                fill: rgba(255, 255, 255, 0.8) !important;
                stroke: rgba(0, 0, 0, 0.1) !important;
            }

            /* 3D specific styles - light mode */
            .plot3d path {
                stroke: rgba(0, 0, 0, 0.3) !important;
            }

            .plot3d polygon {
                stroke: rgba(0, 0, 0, 0.2) !important;
            }

            /* 3D grid lines */
            .plot3d-grid line {
                stroke: rgba(0, 0, 0, 0.2) !important;
            }

            /* Preserve mesh colors */
            .plot3d-surface path[style*="fill:"] {
                fill-opacity: 0.9 !important;
            }

            [stroke="currentColor"], [stroke="black"] {
                stroke: #000000 !important;
            }

            /* Dark mode via media query */
            @media (prefers-color-scheme: dark) {
                /* Dark theme colors */
                .c1 { fill: #FF4A98 !important; stroke: #FF4A98 !important; }
                .c2 { fill: #0AFAFA !important; stroke: #0AFAFA !important; }
                .c3 { fill: #7F83FF !important; stroke: #7F83FF !important; }
                .c4 { fill: #B4A0FF !important; stroke: #B4A0FF !important; }
                .c5 { fill: #FFB86B !important; stroke: #FFB86B !important; }
                .c6 { fill: #FF79C6 !important; stroke: #FF79C6 !important; }
                .c7 { fill: #CCCCCC !important; stroke: #CCCCCC !important; }
                .c8 { fill: #E6DB74 !important; stroke: #E6DB74 !important; }

                /* Dark theme text and graphics */
                text, .text {
                    fill: #FFFFFF !important;
                    stroke: none !important;
                }

                .axis line, .axis path, .tick line, .tick path, path.domain, line.grid {
                    stroke: #FFFFFF !important;
                }

                .grid line {
                    stroke: rgba(255, 255, 255, 0.2) !important;
                }

                .legend text {
                    fill: #FFFFFF !important;
                }

                g.legend > g:first-child > path:first-child {
                    fill: rgba(26, 26, 26, 0.8) !important;
                    stroke: rgba(255, 255, 255, 0.1) !important;
                }


                /* 3D specific styles - dark mode */
                .plot3d path {
                    stroke: rgba(255, 255, 255, 0.3) !important;
                }

                .plot3d polygon {
                    stroke: rgba(255, 255, 255, 0.2) !important;
                }

                /* 3D grid lines */
                .plot3d-grid line {
                    stroke: rgba(255, 255, 255, 0.2) !important;
                }

                /* Preserve mesh colors in dark mode */
                .plot3d-surface path[style*="fill:"] {
                    fill-opacity: 0.95 !important;
                    filter: saturate(1.2) !important; /* Boost colors in dark mode */
                }

                [stroke="currentColor"], [stroke="black"] {
                    stroke: #FFFFFF !important;
                }
            }
        </style>
        
 <metadata>
  <rdf:RDF xmlns:dc="http://purl.org/dc/elements/1.1/" xmlns:cc="http://creativecommons.org/ns#" xmlns:rdf="http://www.w3.org/1999/02/22-rdf-syntax-ns#">
   <cc:Work>
    <dc:type rdf:resource="http://purl.org/dc/dcmitype/StillImage"/>
    <dc:date>2025-04-16T18:41:18.310840</dc:date>
    <dc:format>image/svg+xml</dc:format>
    <dc:creator>
     <cc:Agent>
      <dc:title>Matplotlib v3.10.1, https://matplotlib.org/</dc:title>
     </cc:Agent>
    </dc:creator>
   </cc:Work>
  </rdf:RDF>
 </metadata>
 <defs>
  <style type="text/css">*{stroke-linejoin: round; stroke-linecap: butt}</style>
 </defs>
 <g id="figure_1">
  <g class="patch">
   <path class="animated-path" d="M 0 325.986375 
L 422.843437 325.986375 
L 422.843437 0 
L 0 0 
L 0 325.986375 
z
" style="fill: none"/>
  </g>
  <g id="axes_1">
   <g class="patch">
    <path class="animated-path" d="M 58.523438 288.430125 
L 415.643438 288.430125 
L 415.643438 22.318125 
L 58.523438 22.318125 
L 58.523438 288.430125 
z
" style="fill: none"/>
   </g>
   <g class="axis">
    <g class="tick xtick">
     <g id="line2d_1">
      <path class="animated-path" d="M 74.756165 288.430125 
L 74.756165 22.318125 
" clip-path="url(#p38b5228d04)" style="fill: none; stroke: #b0b0b0; stroke-opacity: 0.15; stroke-width: 0.8; stroke-linecap: square"/>
     </g>
     <g id="line2d_2">
      <defs>
       <path class="animated-path" id="mb4b1223f5f" d="M 0 0 
L 0 3.5 
" style="stroke: currentColor; stroke-width: 0.8"/>
      </defs>
      <g>
       <use xlink:href="#mb4b1223f5f" x="74.756165" y="288.430125" style="stroke: currentColor; stroke-width: 0.8"/>
      </g>
     </g>
     <g id="text_1" class="text">
      <!-- 0 -->
      <g transform="translate(71.574915 303.028562) scale(0.1 -0.1)">
       <defs>
        <path class="animated-path" id="DejaVuSans-30" d="M 2034 4250 
Q 1547 4250 1301 3770 
Q 1056 3291 1056 2328 
Q 1056 1369 1301 889 
Q 1547 409 2034 409 
Q 2525 409 2770 889 
Q 3016 1369 3016 2328 
Q 3016 3291 2770 3770 
Q 2525 4250 2034 4250 
z
M 2034 4750 
Q 2819 4750 3233 4129 
Q 3647 3509 3647 2328 
Q 3647 1150 3233 529 
Q 2819 -91 2034 -91 
Q 1250 -91 836 529 
Q 422 1150 422 2328 
Q 422 3509 836 4129 
Q 1250 4750 2034 4750 
z
" transform="scale(0.015625)"/>
       </defs>
       <use xlink:href="#DejaVuSans-30"/>
      </g>
     </g>
    </g>
    <g class="tick xtick">
     <g id="line2d_3">
      <path class="animated-path" d="M 139.687074 288.430125 
L 139.687074 22.318125 
" clip-path="url(#p38b5228d04)" style="fill: none; stroke: #b0b0b0; stroke-opacity: 0.15; stroke-width: 0.8; stroke-linecap: square"/>
     </g>
     <g id="line2d_4">
      <g>
       <use xlink:href="#mb4b1223f5f" x="139.687074" y="288.430125" style="stroke: currentColor; stroke-width: 0.8"/>
      </g>
     </g>
     <g id="text_2" class="text">
      <!-- 2 -->
      <g transform="translate(136.505824 303.028562) scale(0.1 -0.1)">
       <defs>
        <path class="animated-path" id="DejaVuSans-32" d="M 1228 531 
L 3431 531 
L 3431 0 
L 469 0 
L 469 531 
Q 828 903 1448 1529 
Q 2069 2156 2228 2338 
Q 2531 2678 2651 2914 
Q 2772 3150 2772 3378 
Q 2772 3750 2511 3984 
Q 2250 4219 1831 4219 
Q 1534 4219 1204 4116 
Q 875 4013 500 3803 
L 500 4441 
Q 881 4594 1212 4672 
Q 1544 4750 1819 4750 
Q 2544 4750 2975 4387 
Q 3406 4025 3406 3419 
Q 3406 3131 3298 2873 
Q 3191 2616 2906 2266 
Q 2828 2175 2409 1742 
Q 1991 1309 1228 531 
z
" transform="scale(0.015625)"/>
       </defs>
       <use xlink:href="#DejaVuSans-32"/>
      </g>
     </g>
    </g>
    <g class="tick xtick">
     <g id="line2d_5">
      <path class="animated-path" d="M 204.617983 288.430125 
L 204.617983 22.318125 
" clip-path="url(#p38b5228d04)" style="fill: none; stroke: #b0b0b0; stroke-opacity: 0.15; stroke-width: 0.8; stroke-linecap: square"/>
     </g>
     <g id="line2d_6">
      <g>
       <use xlink:href="#mb4b1223f5f" x="204.617983" y="288.430125" style="stroke: currentColor; stroke-width: 0.8"/>
      </g>
     </g>
     <g id="text_3" class="text">
      <!-- 4 -->
      <g transform="translate(201.436733 303.028562) scale(0.1 -0.1)">
       <defs>
        <path class="animated-path" id="DejaVuSans-34" d="M 2419 4116 
L 825 1625 
L 2419 1625 
L 2419 4116 
z
M 2253 4666 
L 3047 4666 
L 3047 1625 
L 3713 1625 
L 3713 1100 
L 3047 1100 
L 3047 0 
L 2419 0 
L 2419 1100 
L 313 1100 
L 313 1709 
L 2253 4666 
z
" transform="scale(0.015625)"/>
       </defs>
       <use xlink:href="#DejaVuSans-34"/>
      </g>
     </g>
    </g>
    <g class="tick xtick">
     <g id="line2d_7">
      <path class="animated-path" d="M 269.548892 288.430125 
L 269.548892 22.318125 
" clip-path="url(#p38b5228d04)" style="fill: none; stroke: #b0b0b0; stroke-opacity: 0.15; stroke-width: 0.8; stroke-linecap: square"/>
     </g>
     <g id="line2d_8">
      <g>
       <use xlink:href="#mb4b1223f5f" x="269.548892" y="288.430125" style="stroke: currentColor; stroke-width: 0.8"/>
      </g>
     </g>
     <g id="text_4" class="text">
      <!-- 6 -->
      <g transform="translate(266.367642 303.028562) scale(0.1 -0.1)">
       <defs>
        <path class="animated-path" id="DejaVuSans-36" d="M 2113 2584 
Q 1688 2584 1439 2293 
Q 1191 2003 1191 1497 
Q 1191 994 1439 701 
Q 1688 409 2113 409 
Q 2538 409 2786 701 
Q 3034 994 3034 1497 
Q 3034 2003 2786 2293 
Q 2538 2584 2113 2584 
z
M 3366 4563 
L 3366 3988 
Q 3128 4100 2886 4159 
Q 2644 4219 2406 4219 
Q 1781 4219 1451 3797 
Q 1122 3375 1075 2522 
Q 1259 2794 1537 2939 
Q 1816 3084 2150 3084 
Q 2853 3084 3261 2657 
Q 3669 2231 3669 1497 
Q 3669 778 3244 343 
Q 2819 -91 2113 -91 
Q 1303 -91 875 529 
Q 447 1150 447 2328 
Q 447 3434 972 4092 
Q 1497 4750 2381 4750 
Q 2619 4750 2861 4703 
Q 3103 4656 3366 4563 
z
" transform="scale(0.015625)"/>
       </defs>
       <use xlink:href="#DejaVuSans-36"/>
      </g>
     </g>
    </g>
    <g class="tick xtick">
     <g id="line2d_9">
      <path class="animated-path" d="M 334.479801 288.430125 
L 334.479801 22.318125 
" clip-path="url(#p38b5228d04)" style="fill: none; stroke: #b0b0b0; stroke-opacity: 0.15; stroke-width: 0.8; stroke-linecap: square"/>
     </g>
     <g id="line2d_10">
      <g>
       <use xlink:href="#mb4b1223f5f" x="334.479801" y="288.430125" style="stroke: currentColor; stroke-width: 0.8"/>
      </g>
     </g>
     <g id="text_5" class="text">
      <!-- 8 -->
      <g transform="translate(331.298551 303.028562) scale(0.1 -0.1)">
       <defs>
        <path class="animated-path" id="DejaVuSans-38" d="M 2034 2216 
Q 1584 2216 1326 1975 
Q 1069 1734 1069 1313 
Q 1069 891 1326 650 
Q 1584 409 2034 409 
Q 2484 409 2743 651 
Q 3003 894 3003 1313 
Q 3003 1734 2745 1975 
Q 2488 2216 2034 2216 
z
M 1403 2484 
Q 997 2584 770 2862 
Q 544 3141 544 3541 
Q 544 4100 942 4425 
Q 1341 4750 2034 4750 
Q 2731 4750 3128 4425 
Q 3525 4100 3525 3541 
Q 3525 3141 3298 2862 
Q 3072 2584 2669 2484 
Q 3125 2378 3379 2068 
Q 3634 1759 3634 1313 
Q 3634 634 3220 271 
Q 2806 -91 2034 -91 
Q 1263 -91 848 271 
Q 434 634 434 1313 
Q 434 1759 690 2068 
Q 947 2378 1403 2484 
z
M 1172 3481 
Q 1172 3119 1398 2916 
Q 1625 2713 2034 2713 
Q 2441 2713 2670 2916 
Q 2900 3119 2900 3481 
Q 2900 3844 2670 4047 
Q 2441 4250 2034 4250 
Q 1625 4250 1398 4047 
Q 1172 3844 1172 3481 
z
" transform="scale(0.015625)"/>
       </defs>
       <use xlink:href="#DejaVuSans-38"/>
      </g>
     </g>
    </g>
    <g class="tick xtick">
     <g id="line2d_11">
      <path class="animated-path" d="M 399.41071 288.430125 
L 399.41071 22.318125 
" clip-path="url(#p38b5228d04)" style="fill: none; stroke: #b0b0b0; stroke-opacity: 0.15; stroke-width: 0.8; stroke-linecap: square"/>
     </g>
     <g id="line2d_12">
      <g>
       <use xlink:href="#mb4b1223f5f" x="399.41071" y="288.430125" style="stroke: currentColor; stroke-width: 0.8"/>
      </g>
     </g>
     <g id="text_6" class="text">
      <!-- 10 -->
      <g transform="translate(393.04821 303.028562) scale(0.1 -0.1)">
       <defs>
        <path class="animated-path" id="DejaVuSans-31" d="M 794 531 
L 1825 531 
L 1825 4091 
L 703 3866 
L 703 4441 
L 1819 4666 
L 2450 4666 
L 2450 531 
L 3481 531 
L 3481 0 
L 794 0 
L 794 531 
z
" transform="scale(0.015625)"/>
       </defs>
       <use xlink:href="#DejaVuSans-31"/>
       <use xlink:href="#DejaVuSans-30" transform="translate(63.623047 0)"/>
      </g>
     </g>
    </g>
    <g id="text_7" class="text">
     <!-- x -->
     <g transform="translate(234.124063 316.706687) scale(0.1 -0.1)">
      <defs>
       <path class="animated-path" id="DejaVuSans-78" d="M 3513 3500 
L 2247 1797 
L 3578 0 
L 2900 0 
L 1881 1375 
L 863 0 
L 184 0 
L 1544 1831 
L 300 3500 
L 978 3500 
L 1906 2253 
L 2834 3500 
L 3513 3500 
z
" transform="scale(0.015625)"/>
      </defs>
      <use xlink:href="#DejaVuSans-78"/>
     </g>
    </g>
   </g>
   <g class="axis">
    <g class="tick ytick">
     <g id="line2d_13">
      <path class="animated-path" d="M 58.523438 276.408603 
L 415.643438 276.408603 
" clip-path="url(#p38b5228d04)" style="fill: none; stroke: #b0b0b0; stroke-opacity: 0.15; stroke-width: 0.8; stroke-linecap: square"/>
     </g>
     <g id="line2d_14">
      <defs>
       <path class="animated-path" id="me4e358d3bc" d="M 0 0 
L -3.5 0 
" style="stroke: currentColor; stroke-width: 0.8"/>
      </defs>
      <g>
       <use xlink:href="#me4e358d3bc" x="58.523438" y="276.408603" style="stroke: currentColor; stroke-width: 0.8"/>
      </g>
     </g>
     <g id="text_8" class="text">
      <!-- −1.00 -->
      <g transform="translate(20.878125 280.207822) scale(0.1 -0.1)">
       <defs>
        <path class="animated-path" id="DejaVuSans-2212" d="M 678 2272 
L 4684 2272 
L 4684 1741 
L 678 1741 
L 678 2272 
z
" transform="scale(0.015625)"/>
        <path class="animated-path" id="DejaVuSans-2e" d="M 684 794 
L 1344 794 
L 1344 0 
L 684 0 
L 684 794 
z
" transform="scale(0.015625)"/>
       </defs>
       <use xlink:href="#DejaVuSans-2212"/>
       <use xlink:href="#DejaVuSans-31" transform="translate(83.789062 0)"/>
       <use xlink:href="#DejaVuSans-2e" transform="translate(147.412109 0)"/>
       <use xlink:href="#DejaVuSans-30" transform="translate(179.199219 0)"/>
       <use xlink:href="#DejaVuSans-30" transform="translate(242.822266 0)"/>
      </g>
     </g>
    </g>
    <g class="tick ytick">
     <g id="line2d_15">
      <path class="animated-path" d="M 58.523438 246.15464 
L 415.643438 246.15464 
" clip-path="url(#p38b5228d04)" style="fill: none; stroke: #b0b0b0; stroke-opacity: 0.15; stroke-width: 0.8; stroke-linecap: square"/>
     </g>
     <g id="line2d_16">
      <g>
       <use xlink:href="#me4e358d3bc" x="58.523438" y="246.15464" style="stroke: currentColor; stroke-width: 0.8"/>
      </g>
     </g>
     <g id="text_9" class="text">
      <!-- −0.75 -->
      <g transform="translate(20.878125 249.953858) scale(0.1 -0.1)">
       <defs>
        <path class="animated-path" id="DejaVuSans-37" d="M 525 4666 
L 3525 4666 
L 3525 4397 
L 1831 0 
L 1172 0 
L 2766 4134 
L 525 4134 
L 525 4666 
z
" transform="scale(0.015625)"/>
        <path class="animated-path" id="DejaVuSans-35" d="M 691 4666 
L 3169 4666 
L 3169 4134 
L 1269 4134 
L 1269 2991 
Q 1406 3038 1543 3061 
Q 1681 3084 1819 3084 
Q 2600 3084 3056 2656 
Q 3513 2228 3513 1497 
Q 3513 744 3044 326 
Q 2575 -91 1722 -91 
Q 1428 -91 1123 -41 
Q 819 9 494 109 
L 494 744 
Q 775 591 1075 516 
Q 1375 441 1709 441 
Q 2250 441 2565 725 
Q 2881 1009 2881 1497 
Q 2881 1984 2565 2268 
Q 2250 2553 1709 2553 
Q 1456 2553 1204 2497 
Q 953 2441 691 2322 
L 691 4666 
z
" transform="scale(0.015625)"/>
       </defs>
       <use xlink:href="#DejaVuSans-2212"/>
       <use xlink:href="#DejaVuSans-30" transform="translate(83.789062 0)"/>
       <use xlink:href="#DejaVuSans-2e" transform="translate(147.412109 0)"/>
       <use xlink:href="#DejaVuSans-37" transform="translate(179.199219 0)"/>
       <use xlink:href="#DejaVuSans-35" transform="translate(242.822266 0)"/>
      </g>
     </g>
    </g>
    <g class="tick ytick">
     <g id="line2d_17">
      <path class="animated-path" d="M 58.523438 215.900676 
L 415.643438 215.900676 
" clip-path="url(#p38b5228d04)" style="fill: none; stroke: #b0b0b0; stroke-opacity: 0.15; stroke-width: 0.8; stroke-linecap: square"/>
     </g>
     <g id="line2d_18">
      <g>
       <use xlink:href="#me4e358d3bc" x="58.523438" y="215.900676" style="stroke: currentColor; stroke-width: 0.8"/>
      </g>
     </g>
     <g id="text_10" class="text">
      <!-- −0.50 -->
      <g transform="translate(20.878125 219.699895) scale(0.1 -0.1)">
       <use xlink:href="#DejaVuSans-2212"/>
       <use xlink:href="#DejaVuSans-30" transform="translate(83.789062 0)"/>
       <use xlink:href="#DejaVuSans-2e" transform="translate(147.412109 0)"/>
       <use xlink:href="#DejaVuSans-35" transform="translate(179.199219 0)"/>
       <use xlink:href="#DejaVuSans-30" transform="translate(242.822266 0)"/>
      </g>
     </g>
    </g>
    <g class="tick ytick">
     <g id="line2d_19">
      <path class="animated-path" d="M 58.523438 185.646712 
L 415.643438 185.646712 
" clip-path="url(#p38b5228d04)" style="fill: none; stroke: #b0b0b0; stroke-opacity: 0.15; stroke-width: 0.8; stroke-linecap: square"/>
     </g>
     <g id="line2d_20">
      <g>
       <use xlink:href="#me4e358d3bc" x="58.523438" y="185.646712" style="stroke: currentColor; stroke-width: 0.8"/>
      </g>
     </g>
     <g id="text_11" class="text">
      <!-- −0.25 -->
      <g transform="translate(20.878125 189.445931) scale(0.1 -0.1)">
       <use xlink:href="#DejaVuSans-2212"/>
       <use xlink:href="#DejaVuSans-30" transform="translate(83.789062 0)"/>
       <use xlink:href="#DejaVuSans-2e" transform="translate(147.412109 0)"/>
       <use xlink:href="#DejaVuSans-32" transform="translate(179.199219 0)"/>
       <use xlink:href="#DejaVuSans-35" transform="translate(242.822266 0)"/>
      </g>
     </g>
    </g>
    <g class="tick ytick">
     <g id="line2d_21">
      <path class="animated-path" d="M 58.523438 155.392748 
L 415.643438 155.392748 
" clip-path="url(#p38b5228d04)" style="fill: none; stroke: #b0b0b0; stroke-opacity: 0.15; stroke-width: 0.8; stroke-linecap: square"/>
     </g>
     <g id="line2d_22">
      <g>
       <use xlink:href="#me4e358d3bc" x="58.523438" y="155.392748" style="stroke: currentColor; stroke-width: 0.8"/>
      </g>
     </g>
     <g id="text_12" class="text">
      <!-- 0.00 -->
      <g transform="translate(29.257813 159.191967) scale(0.1 -0.1)">
       <use xlink:href="#DejaVuSans-30"/>
       <use xlink:href="#DejaVuSans-2e" transform="translate(63.623047 0)"/>
       <use xlink:href="#DejaVuSans-30" transform="translate(95.410156 0)"/>
       <use xlink:href="#DejaVuSans-30" transform="translate(159.033203 0)"/>
      </g>
     </g>
    </g>
    <g class="tick ytick">
     <g id="line2d_23">
      <path class="animated-path" d="M 58.523438 125.138785 
L 415.643438 125.138785 
" clip-path="url(#p38b5228d04)" style="fill: none; stroke: #b0b0b0; stroke-opacity: 0.15; stroke-width: 0.8; stroke-linecap: square"/>
     </g>
     <g id="line2d_24">
      <g>
       <use xlink:href="#me4e358d3bc" x="58.523438" y="125.138785" style="stroke: currentColor; stroke-width: 0.8"/>
      </g>
     </g>
     <g id="text_13" class="text">
      <!-- 0.25 -->
      <g transform="translate(29.257813 128.938003) scale(0.1 -0.1)">
       <use xlink:href="#DejaVuSans-30"/>
       <use xlink:href="#DejaVuSans-2e" transform="translate(63.623047 0)"/>
       <use xlink:href="#DejaVuSans-32" transform="translate(95.410156 0)"/>
       <use xlink:href="#DejaVuSans-35" transform="translate(159.033203 0)"/>
      </g>
     </g>
    </g>
    <g class="tick ytick">
     <g id="line2d_25">
      <path class="animated-path" d="M 58.523438 94.884821 
L 415.643438 94.884821 
" clip-path="url(#p38b5228d04)" style="fill: none; stroke: #b0b0b0; stroke-opacity: 0.15; stroke-width: 0.8; stroke-linecap: square"/>
     </g>
     <g id="line2d_26">
      <g>
       <use xlink:href="#me4e358d3bc" x="58.523438" y="94.884821" style="stroke: currentColor; stroke-width: 0.8"/>
      </g>
     </g>
     <g id="text_14" class="text">
      <!-- 0.50 -->
      <g transform="translate(29.257813 98.68404) scale(0.1 -0.1)">
       <use xlink:href="#DejaVuSans-30"/>
       <use xlink:href="#DejaVuSans-2e" transform="translate(63.623047 0)"/>
       <use xlink:href="#DejaVuSans-35" transform="translate(95.410156 0)"/>
       <use xlink:href="#DejaVuSans-30" transform="translate(159.033203 0)"/>
      </g>
     </g>
    </g>
    <g class="tick ytick">
     <g id="line2d_27">
      <path class="animated-path" d="M 58.523438 64.630857 
L 415.643438 64.630857 
" clip-path="url(#p38b5228d04)" style="fill: none; stroke: #b0b0b0; stroke-opacity: 0.15; stroke-width: 0.8; stroke-linecap: square"/>
     </g>
     <g id="line2d_28">
      <g>
       <use xlink:href="#me4e358d3bc" x="58.523438" y="64.630857" style="stroke: currentColor; stroke-width: 0.8"/>
      </g>
     </g>
     <g id="text_15" class="text">
      <!-- 0.75 -->
      <g transform="translate(29.257813 68.430076) scale(0.1 -0.1)">
       <use xlink:href="#DejaVuSans-30"/>
       <use xlink:href="#DejaVuSans-2e" transform="translate(63.623047 0)"/>
       <use xlink:href="#DejaVuSans-37" transform="translate(95.410156 0)"/>
       <use xlink:href="#DejaVuSans-35" transform="translate(159.033203 0)"/>
      </g>
     </g>
    </g>
    <g class="tick ytick">
     <g id="line2d_29">
      <path class="animated-path" d="M 58.523438 34.376893 
L 415.643438 34.376893 
" clip-path="url(#p38b5228d04)" style="fill: none; stroke: #b0b0b0; stroke-opacity: 0.15; stroke-width: 0.8; stroke-linecap: square"/>
     </g>
     <g id="line2d_30">
      <g>
       <use xlink:href="#me4e358d3bc" x="58.523438" y="34.376893" style="stroke: currentColor; stroke-width: 0.8"/>
      </g>
     </g>
     <g id="text_16" class="text">
      <!-- 1.00 -->
      <g transform="translate(29.257813 38.176112) scale(0.1 -0.1)">
       <use xlink:href="#DejaVuSans-31"/>
       <use xlink:href="#DejaVuSans-2e" transform="translate(63.623047 0)"/>
       <use xlink:href="#DejaVuSans-30" transform="translate(95.410156 0)"/>
       <use xlink:href="#DejaVuSans-30" transform="translate(159.033203 0)"/>
      </g>
     </g>
    </g>
    <g id="text_17" class="text">
     <!-- sin(x) -->
     <g transform="translate(14.798438 169.397562) rotate(-90) scale(0.1 -0.1)">
      <defs>
       <path class="animated-path" id="DejaVuSans-73" d="M 2834 3397 
L 2834 2853 
Q 2591 2978 2328 3040 
Q 2066 3103 1784 3103 
Q 1356 3103 1142 2972 
Q 928 2841 928 2578 
Q 928 2378 1081 2264 
Q 1234 2150 1697 2047 
L 1894 2003 
Q 2506 1872 2764 1633 
Q 3022 1394 3022 966 
Q 3022 478 2636 193 
Q 2250 -91 1575 -91 
Q 1294 -91 989 -36 
Q 684 19 347 128 
L 347 722 
Q 666 556 975 473 
Q 1284 391 1588 391 
Q 1994 391 2212 530 
Q 2431 669 2431 922 
Q 2431 1156 2273 1281 
Q 2116 1406 1581 1522 
L 1381 1569 
Q 847 1681 609 1914 
Q 372 2147 372 2553 
Q 372 3047 722 3315 
Q 1072 3584 1716 3584 
Q 2034 3584 2315 3537 
Q 2597 3491 2834 3397 
z
" transform="scale(0.015625)"/>
       <path class="animated-path" id="DejaVuSans-69" d="M 603 3500 
L 1178 3500 
L 1178 0 
L 603 0 
L 603 3500 
z
M 603 4863 
L 1178 4863 
L 1178 4134 
L 603 4134 
L 603 4863 
z
" transform="scale(0.015625)"/>
       <path class="animated-path" id="DejaVuSans-6e" d="M 3513 2113 
L 3513 0 
L 2938 0 
L 2938 2094 
Q 2938 2591 2744 2837 
Q 2550 3084 2163 3084 
Q 1697 3084 1428 2787 
Q 1159 2491 1159 1978 
L 1159 0 
L 581 0 
L 581 3500 
L 1159 3500 
L 1159 2956 
Q 1366 3272 1645 3428 
Q 1925 3584 2291 3584 
Q 2894 3584 3203 3211 
Q 3513 2838 3513 2113 
z
" transform="scale(0.015625)"/>
       <path class="animated-path" id="DejaVuSans-28" d="M 1984 4856 
Q 1566 4138 1362 3434 
Q 1159 2731 1159 2009 
Q 1159 1288 1364 580 
Q 1569 -128 1984 -844 
L 1484 -844 
Q 1016 -109 783 600 
Q 550 1309 550 2009 
Q 550 2706 781 3412 
Q 1013 4119 1484 4856 
L 1984 4856 
z
" transform="scale(0.015625)"/>
       <path class="animated-path" id="DejaVuSans-29" d="M 513 4856 
L 1013 4856 
Q 1481 4119 1714 3412 
Q 1947 2706 1947 2009 
Q 1947 1309 1714 600 
Q 1481 -109 1013 -844 
L 513 -844 
Q 928 -128 1133 580 
Q 1338 1288 1338 2009 
Q 1338 2731 1133 3434 
Q 928 4138 513 4856 
z
" transform="scale(0.015625)"/>
      </defs>
      <use xlink:href="#DejaVuSans-73"/>
      <use xlink:href="#DejaVuSans-69" transform="translate(52.099609 0)"/>
      <use xlink:href="#DejaVuSans-6e" transform="translate(79.882812 0)"/>
      <use xlink:href="#DejaVuSans-28" transform="translate(143.261719 0)"/>
      <use xlink:href="#DejaVuSans-78" transform="translate(182.275391 0)"/>
      <use xlink:href="#DejaVuSans-29" transform="translate(241.455078 0)"/>
     </g>
    </g>
   </g>
   <g id="line2d_31">
    <path class="animated-path" d="M 74.756165 155.392748 
L 78.035504 143.189701 
L 81.314842 131.111055 
L 84.594181 119.279947 
L 87.87352 107.816985 
L 91.152859 96.839028 
L 94.432198 86.45799 
L 97.711537 76.779698 
L 100.990876 67.902816 
L 104.270214 59.917839 
L 107.549553 52.906168 
L 110.828892 46.939283 
L 114.108231 42.078013 
L 117.38757 38.371914 
L 120.666909 35.85877 
L 123.946247 34.564198 
L 127.225586 34.501398 
L 130.504925 35.671008 
L 133.784264 38.061106 
L 137.063603 41.647326 
L 140.342942 46.393109 
L 143.62228 52.250074 
L 146.901619 59.158513 
L 150.180958 67.048 
L 153.460297 75.838106 
L 156.739636 85.439221 
L 160.018975 95.753468 
L 163.298314 106.675699 
L 166.577652 118.094571 
L 169.856991 129.893673 
L 173.13633 141.952723 
L 176.415669 154.148785 
L 179.695008 166.357529 
L 182.974347 178.454493 
L 186.253685 190.316358 
L 189.533024 201.822199 
L 192.812363 212.85472 
L 196.091702 223.301453 
L 199.371041 233.0559 
L 202.65038 242.01862 
L 205.929718 250.098244 
L 209.209057 257.212405 
L 212.488396 263.288579 
L 215.767735 268.264824 
L 219.047074 272.090409 
L 222.326413 274.726335 
L 225.605752 276.14573 
L 228.88509 276.334125 
L 232.164429 275.289599 
L 235.443768 273.022801 
L 238.723107 269.556838 
L 242.002446 264.927044 
L 245.281785 259.180618 
L 248.561123 252.37614 
L 251.840462 244.582977 
L 255.119801 235.880577 
L 258.39914 226.357654 
L 261.678479 216.111288 
L 264.957818 205.245935 
L 268.237157 193.872361 
L 271.516495 182.106511 
L 274.795834 170.068331 
L 278.075173 157.880543 
L 281.354512 145.667394 
L 284.633851 133.553388 
L 287.91319 121.662021 
L 291.192528 110.114517 
L 294.471867 99.028596 
L 297.751206 88.517273 
L 301.030545 78.687702 
L 304.309884 69.640091 
L 307.589223 61.466674 
L 310.868561 54.250774 
L 314.1479 48.065953 
L 317.427239 42.97526 
L 320.706578 39.030593 
L 323.985917 36.272164 
L 327.265256 34.728095 
L 330.544595 34.414125 
L 333.823933 35.333456 
L 337.103272 37.476716 
L 340.382611 40.822055 
L 343.66195 45.33537 
L 346.941289 50.97065 
L 350.220628 57.670448 
L 353.499966 65.366463 
L 356.779305 73.980239 
L 360.058644 83.423964 
L 363.337983 93.601366 
L 366.617322 104.408691 
L 369.896661 115.735767 
L 373.175999 127.467121 
L 376.455338 139.483158 
L 379.734677 151.661384 
L 383.014016 163.877649 
L 386.293355 176.007416 
L 389.572694 187.927029 
L 392.852033 199.514976 
L 396.131371 210.653124 
L 399.41071 221.227928 
" clip-path="url(#p38b5228d04)" style="fill: none; stroke: #ff0001; stroke-width: 2; stroke-linecap: square"/>
   </g>
   <g class="patch">
    <path class="animated-path" d="M 58.523438 288.430125 
L 58.523438 22.318125 
" style="fill: none; stroke: currentColor; stroke-width: 0.8; stroke-linejoin: miter; stroke-linecap: square"/>
   </g>
   <g class="patch">
    <path class="animated-path" d="M 415.643438 288.430125 
L 415.643438 22.318125 
" style="fill: none; stroke: currentColor; stroke-width: 0.8; stroke-linejoin: miter; stroke-linecap: square"/>
   </g>
   <g class="patch">
    <path class="animated-path" d="M 58.523438 288.430125 
L 415.643438 288.430125 
" style="fill: none; stroke: currentColor; stroke-width: 0.8; stroke-linejoin: miter; stroke-linecap: square"/>
   </g>
   <g class="patch">
    <path class="animated-path" d="M 58.523438 22.318125 
L 415.643438 22.318125 
" style="fill: none; stroke: currentColor; stroke-width: 0.8; stroke-linejoin: miter; stroke-linecap: square"/>
   </g>
   <g id="text_18" class="text">
    <!-- Animated Sine Wave -->
    <g transform="translate(174.88125 16.318125) scale(0.12 -0.12)">
     <defs>
      <path class="animated-path" id="DejaVuSans-41" d="M 2188 4044 
L 1331 1722 
L 3047 1722 
L 2188 4044 
z
M 1831 4666 
L 2547 4666 
L 4325 0 
L 3669 0 
L 3244 1197 
L 1141 1197 
L 716 0 
L 50 0 
L 1831 4666 
z
" transform="scale(0.015625)"/>
      <path class="animated-path" id="DejaVuSans-6d" d="M 3328 2828 
Q 3544 3216 3844 3400 
Q 4144 3584 4550 3584 
Q 5097 3584 5394 3201 
Q 5691 2819 5691 2113 
L 5691 0 
L 5113 0 
L 5113 2094 
Q 5113 2597 4934 2840 
Q 4756 3084 4391 3084 
Q 3944 3084 3684 2787 
Q 3425 2491 3425 1978 
L 3425 0 
L 2847 0 
L 2847 2094 
Q 2847 2600 2669 2842 
Q 2491 3084 2119 3084 
Q 1678 3084 1418 2786 
Q 1159 2488 1159 1978 
L 1159 0 
L 581 0 
L 581 3500 
L 1159 3500 
L 1159 2956 
Q 1356 3278 1631 3431 
Q 1906 3584 2284 3584 
Q 2666 3584 2933 3390 
Q 3200 3197 3328 2828 
z
" transform="scale(0.015625)"/>
      <path class="animated-path" id="DejaVuSans-61" d="M 2194 1759 
Q 1497 1759 1228 1600 
Q 959 1441 959 1056 
Q 959 750 1161 570 
Q 1363 391 1709 391 
Q 2188 391 2477 730 
Q 2766 1069 2766 1631 
L 2766 1759 
L 2194 1759 
z
M 3341 1997 
L 3341 0 
L 2766 0 
L 2766 531 
Q 2569 213 2275 61 
Q 1981 -91 1556 -91 
Q 1019 -91 701 211 
Q 384 513 384 1019 
Q 384 1609 779 1909 
Q 1175 2209 1959 2209 
L 2766 2209 
L 2766 2266 
Q 2766 2663 2505 2880 
Q 2244 3097 1772 3097 
Q 1472 3097 1187 3025 
Q 903 2953 641 2809 
L 641 3341 
Q 956 3463 1253 3523 
Q 1550 3584 1831 3584 
Q 2591 3584 2966 3190 
Q 3341 2797 3341 1997 
z
" transform="scale(0.015625)"/>
      <path class="animated-path" id="DejaVuSans-74" d="M 1172 4494 
L 1172 3500 
L 2356 3500 
L 2356 3053 
L 1172 3053 
L 1172 1153 
Q 1172 725 1289 603 
Q 1406 481 1766 481 
L 2356 481 
L 2356 0 
L 1766 0 
Q 1100 0 847 248 
Q 594 497 594 1153 
L 594 3053 
L 172 3053 
L 172 3500 
L 594 3500 
L 594 4494 
L 1172 4494 
z
" transform="scale(0.015625)"/>
      <path class="animated-path" id="DejaVuSans-65" d="M 3597 1894 
L 3597 1613 
L 953 1613 
Q 991 1019 1311 708 
Q 1631 397 2203 397 
Q 2534 397 2845 478 
Q 3156 559 3463 722 
L 3463 178 
Q 3153 47 2828 -22 
Q 2503 -91 2169 -91 
Q 1331 -91 842 396 
Q 353 884 353 1716 
Q 353 2575 817 3079 
Q 1281 3584 2069 3584 
Q 2775 3584 3186 3129 
Q 3597 2675 3597 1894 
z
M 3022 2063 
Q 3016 2534 2758 2815 
Q 2500 3097 2075 3097 
Q 1594 3097 1305 2825 
Q 1016 2553 972 2059 
L 3022 2063 
z
" transform="scale(0.015625)"/>
      <path class="animated-path" id="DejaVuSans-64" d="M 2906 2969 
L 2906 4863 
L 3481 4863 
L 3481 0 
L 2906 0 
L 2906 525 
Q 2725 213 2448 61 
Q 2172 -91 1784 -91 
Q 1150 -91 751 415 
Q 353 922 353 1747 
Q 353 2572 751 3078 
Q 1150 3584 1784 3584 
Q 2172 3584 2448 3432 
Q 2725 3281 2906 2969 
z
M 947 1747 
Q 947 1113 1208 752 
Q 1469 391 1925 391 
Q 2381 391 2643 752 
Q 2906 1113 2906 1747 
Q 2906 2381 2643 2742 
Q 2381 3103 1925 3103 
Q 1469 3103 1208 2742 
Q 947 2381 947 1747 
z
" transform="scale(0.015625)"/>
      <path class="animated-path" id="DejaVuSans-20" transform="scale(0.015625)"/>
      <path class="animated-path" id="DejaVuSans-53" d="M 3425 4513 
L 3425 3897 
Q 3066 4069 2747 4153 
Q 2428 4238 2131 4238 
Q 1616 4238 1336 4038 
Q 1056 3838 1056 3469 
Q 1056 3159 1242 3001 
Q 1428 2844 1947 2747 
L 2328 2669 
Q 3034 2534 3370 2195 
Q 3706 1856 3706 1288 
Q 3706 609 3251 259 
Q 2797 -91 1919 -91 
Q 1588 -91 1214 -16 
Q 841 59 441 206 
L 441 856 
Q 825 641 1194 531 
Q 1563 422 1919 422 
Q 2459 422 2753 634 
Q 3047 847 3047 1241 
Q 3047 1584 2836 1778 
Q 2625 1972 2144 2069 
L 1759 2144 
Q 1053 2284 737 2584 
Q 422 2884 422 3419 
Q 422 4038 858 4394 
Q 1294 4750 2059 4750 
Q 2388 4750 2728 4690 
Q 3069 4631 3425 4513 
z
" transform="scale(0.015625)"/>
      <path class="animated-path" id="DejaVuSans-57" d="M 213 4666 
L 850 4666 
L 1831 722 
L 2809 4666 
L 3519 4666 
L 4500 722 
L 5478 4666 
L 6119 4666 
L 4947 0 
L 4153 0 
L 3169 4050 
L 2175 0 
L 1381 0 
L 213 4666 
z
" transform="scale(0.015625)"/>
      <path class="animated-path" id="DejaVuSans-76" d="M 191 3500 
L 800 3500 
L 1894 563 
L 2988 3500 
L 3597 3500 
L 2284 0 
L 1503 0 
L 191 3500 
z
" transform="scale(0.015625)"/>
     </defs>
     <use xlink:href="#DejaVuSans-41"/>
     <use xlink:href="#DejaVuSans-6e" transform="translate(68.408203 0)"/>
     <use xlink:href="#DejaVuSans-69" transform="translate(131.787109 0)"/>
     <use xlink:href="#DejaVuSans-6d" transform="translate(159.570312 0)"/>
     <use xlink:href="#DejaVuSans-61" transform="translate(256.982422 0)"/>
     <use xlink:href="#DejaVuSans-74" transform="translate(318.261719 0)"/>
     <use xlink:href="#DejaVuSans-65" transform="translate(357.470703 0)"/>
     <use xlink:href="#DejaVuSans-64" transform="translate(418.994141 0)"/>
     <use xlink:href="#DejaVuSans-20" transform="translate(482.470703 0)"/>
     <use xlink:href="#DejaVuSans-53" transform="translate(514.257812 0)"/>
     <use xlink:href="#DejaVuSans-69" transform="translate(577.734375 0)"/>
     <use xlink:href="#DejaVuSans-6e" transform="translate(605.517578 0)"/>
     <use xlink:href="#DejaVuSans-65" transform="translate(668.896484 0)"/>
     <use xlink:href="#DejaVuSans-20" transform="translate(730.419922 0)"/>
     <use xlink:href="#DejaVuSans-57" transform="translate(762.207031 0)"/>
     <use xlink:href="#DejaVuSans-61" transform="translate(854.708984 0)"/>
     <use xlink:href="#DejaVuSans-76" transform="translate(915.988281 0)"/>
     <use xlink:href="#DejaVuSans-65" transform="translate(975.167969 0)"/>
    </g>
   </g>
  </g>
 </g>
 <defs>
  <clipPath id="p38b5228d04">
   <rect x="58.523438" y="22.318125" width="357.12" height="266.112"/>
  </clipPath>
 </defs>

        <script type="text/javascript">
            document.addEventListener("DOMContentLoaded", function() {
                const paths = document.querySelectorAll('.animated-path');
                paths.forEach(path => {
                    if (path.getTotalLength) {
                        const length = path.getTotalLength();
                        path.style.setProperty('--length', length);
                        path.setAttribute('stroke-dasharray', length);
                        path.setAttribute('stroke-dashoffset', length);
                    }
                });
            });
        </script>
        </svg>
        
