<svg xmlns="http://www.w3.org/2000/svg" xmlns:xlink="http://www.w3.org/1999/xlink" width="419.277" height="463.275" viewBox="0 0 314.458 347.456"><style><![CDATA[.text{fill:#000!important;stroke:none!important}.axis path,.tick path,[stroke=black],[stroke=currentColor]{stroke:#000!important}@media (prefers-color-scheme:dark){.text{fill:#fff!important;stroke:none!important}.axis path,.tick path,[stroke=black],[stroke=currentColor]{stroke:#fff!important}g.legend>g:first-child>path:first-child{fill:rgba(26,26,26,.8)!important;stroke:rgba(255,255,255,.1)!important}}*{stroke-linejoin:round;stroke-linecap:butt}]]></style><g id="figure_1"><path d="M0 347.456h314.458V0H0z" class="patch" style="fill:none"/><g id="axes_1"><path d="M41.146 310.868h266.112V44.755H41.146z" class="patch" style="fill:none"/><path id="FillBetweenPolyCollection_1" d="M-3.206 355.22V32.84L351.61 387.657V355.22z" clip-path="url(#p39aac85bb5)" style="fill:#ff0001;fill-opacity:.1;stroke:#ff0001;stroke-opacity:.1"/><path id="FillBetweenPolyCollection_2" d="M-3.206.404v-67.92L351.61 287.3V.404z" clip-path="url(#p39aac85bb5)" style="fill:#00ff02;fill-opacity:.1;stroke:#00ff02;stroke-opacity:.1"/><g class="axis"><g class="tick xtick"><path id="line2d_1" d="M67.757 310.868V44.755" clip-path="url(#p39aac85bb5)" style="fill:none;stroke:#b0b0b0;stroke-opacity:.15;stroke-width:.8;stroke-linecap:square"/><g id="line2d_2"><defs><path id="m15775e1c1d" d="M0 0v3.5" style="stroke:currentColor;stroke-width:.8"/></defs><use xlink:href="#m15775e1c1d" x="67.757" y="310.868" style="stroke:currentColor;stroke-width:.8"/></g><g id="text_1" class="text" transform="matrix(.09 0 0 -.09 61.123 324.706)"><defs><path id="DejaVuSans-2212" d="M678 2272h4006v-531H678z" transform="scale(.01563)"/><path id="DejaVuSans-36" d="M2113 2584q-425 0-674-291-248-290-248-796 0-503 248-796 249-292 674-292t673 292q248 293 248 796 0 506-248 796-248 291-673 291zm1253 1979v-575q-238 112-480 171-242 60-480 60-625 0-955-422-329-422-376-1275 184 272 462 417 279 145 613 145 703 0 1111-427 408-426 408-1160 0-719-425-1154Q2819-91 2113-91q-810 0-1238 620-428 621-428 1799 0 1106 525 1764t1409 658q238 0 480-47t505-140z" transform="scale(.01563)"/></defs><use xlink:href="#DejaVuSans-2212"/><use xlink:href="#DejaVuSans-36" transform="translate(83.79)"/></g></g><g class="tick xtick"><path id="line2d_3" d="M103.239 310.868V44.755" clip-path="url(#p39aac85bb5)" style="fill:none;stroke:#b0b0b0;stroke-opacity:.15;stroke-width:.8;stroke-linecap:square"/><use xlink:href="#m15775e1c1d" id="line2d_4" x="103.239" y="310.868" style="stroke:currentColor;stroke-width:.8"/><g id="text_2" class="text" transform="matrix(.09 0 0 -.09 96.605 324.706)"><defs><path id="DejaVuSans-34" d="M2419 4116 825 1625h1594zm-166 550h794V1625h666v-525h-666V0h-628v1100H313v609z" transform="scale(.01563)"/></defs><use xlink:href="#DejaVuSans-2212"/><use xlink:href="#DejaVuSans-34" transform="translate(83.79)"/></g></g><g class="tick xtick"><path id="line2d_5" d="M138.72 310.868V44.755" clip-path="url(#p39aac85bb5)" style="fill:none;stroke:#b0b0b0;stroke-opacity:.15;stroke-width:.8;stroke-linecap:square"/><use xlink:href="#m15775e1c1d" id="line2d_6" x="138.72" y="310.868" style="stroke:currentColor;stroke-width:.8"/><g id="text_3" class="text" transform="matrix(.09 0 0 -.09 132.087 324.706)"><defs><path id="DejaVuSans-32" d="M1228 531h2203V0H469v531q359 372 979 998 621 627 780 809 303 340 423 576 121 236 121 464 0 372-261 606-261 235-680 235-297 0-627-103-329-103-704-313v638q381 153 712 231 332 78 607 78 725 0 1156-363 431-362 431-968 0-288-108-546-107-257-392-607-78-91-497-524-418-433-1181-1211z" transform="scale(.01563)"/></defs><use xlink:href="#DejaVuSans-2212"/><use xlink:href="#DejaVuSans-32" transform="translate(83.79)"/></g></g><g class="tick xtick"><path id="line2d_7" d="M174.202 310.868V44.755" clip-path="url(#p39aac85bb5)" style="fill:none;stroke:#b0b0b0;stroke-opacity:.15;stroke-width:.8;stroke-linecap:square"/><use xlink:href="#m15775e1c1d" id="line2d_8" x="174.202" y="310.868" style="stroke:currentColor;stroke-width:.8"/><g id="text_4" class="text" transform="matrix(.09 0 0 -.09 171.339 324.706)"><defs><path id="DejaVuSans-30" d="M2034 4250q-487 0-733-480-245-479-245-1442 0-959 245-1439 246-480 733-480 491 0 736 480 246 480 246 1439 0 963-246 1442-245 480-736 480zm0 500q785 0 1199-621 414-620 414-1801 0-1178-414-1799Q2819-91 2034-91q-784 0-1198 620-414 621-414 1799 0 1181 414 1801 414 621 1198 621z" transform="scale(.01563)"/></defs><use xlink:href="#DejaVuSans-30"/></g></g><g class="tick xtick"><path id="line2d_9" d="M209.684 310.868V44.755" clip-path="url(#p39aac85bb5)" style="fill:none;stroke:#b0b0b0;stroke-opacity:.15;stroke-width:.8;stroke-linecap:square"/><use xlink:href="#m15775e1c1d" id="line2d_10" x="209.684" y="310.868" style="stroke:currentColor;stroke-width:.8"/><use xlink:href="#DejaVuSans-32" id="text_5" class="text" transform="matrix(.09 0 0 -.09 206.82 324.706)"/></g><g class="tick xtick"><path id="line2d_11" d="M245.165 310.868V44.755" clip-path="url(#p39aac85bb5)" style="fill:none;stroke:#b0b0b0;stroke-opacity:.15;stroke-width:.8;stroke-linecap:square"/><use xlink:href="#m15775e1c1d" id="line2d_12" x="245.165" y="310.868" style="stroke:currentColor;stroke-width:.8"/><use xlink:href="#DejaVuSans-34" id="text_6" class="text" transform="matrix(.09 0 0 -.09 242.302 324.706)"/></g><g class="tick xtick"><path id="line2d_13" d="M280.647 310.868V44.755" clip-path="url(#p39aac85bb5)" style="fill:none;stroke:#b0b0b0;stroke-opacity:.15;stroke-width:.8;stroke-linecap:square"/><use xlink:href="#m15775e1c1d" id="line2d_14" x="280.647" y="310.868" style="stroke:currentColor;stroke-width:.8"/><use xlink:href="#DejaVuSans-36" id="text_7" class="text" transform="matrix(.09 0 0 -.09 277.784 324.706)"/></g><g id="text_8" class="text" transform="matrix(.1 0 0 -.1 168.852 338.176)"><defs><path id="DejaVuSans-Oblique-78" d="M3841 3500 2234 1784 3219 0h-660l-740 1388L531 0h-697l1722 1844-915 1656h659l672-1266 1172 1266z" transform="scale(.01563)"/><path id="DejaVuSans-31" d="M794 531h1031v3560L703 3866v575l1116 225h631V531h1031V0H794z" transform="scale(.01563)"/></defs><use xlink:href="#DejaVuSans-Oblique-78" transform="translate(0 .313)"/><use xlink:href="#DejaVuSans-31" transform="matrix(.7 0 0 .7 59.18 -16.094)"/></g></g><g class="axis"><g class="tick ytick"><path id="line2d_15" d="M41.146 284.256h266.112" clip-path="url(#p39aac85bb5)" style="fill:none;stroke:#b0b0b0;stroke-opacity:.15;stroke-width:.8;stroke-linecap:square"/><g id="line2d_16"><defs><path id="md2dcd6031e" d="M0 0h-3.5" style="stroke:currentColor;stroke-width:.8"/></defs><use xlink:href="#md2dcd6031e" x="41.146" y="284.256" style="stroke:currentColor;stroke-width:.8"/></g><g id="text_9" class="text" transform="matrix(.09 0 0 -.09 20.878 287.676)"><use xlink:href="#DejaVuSans-2212"/><use xlink:href="#DejaVuSans-36" transform="translate(83.79)"/></g></g><g class="tick ytick"><path id="line2d_17" d="M41.146 248.775h266.112" clip-path="url(#p39aac85bb5)" style="fill:none;stroke:#b0b0b0;stroke-opacity:.15;stroke-width:.8;stroke-linecap:square"/><use xlink:href="#md2dcd6031e" id="line2d_18" x="41.146" y="248.775" style="stroke:currentColor;stroke-width:.8"/><g id="text_10" class="text" transform="matrix(.09 0 0 -.09 20.878 252.194)"><use xlink:href="#DejaVuSans-2212"/><use xlink:href="#DejaVuSans-34" transform="translate(83.79)"/></g></g><g class="tick ytick"><path id="line2d_19" d="M41.146 213.293h266.112" clip-path="url(#p39aac85bb5)" style="fill:none;stroke:#b0b0b0;stroke-opacity:.15;stroke-width:.8;stroke-linecap:square"/><use xlink:href="#md2dcd6031e" id="line2d_20" x="41.146" y="213.293" style="stroke:currentColor;stroke-width:.8"/><g id="text_11" class="text" transform="matrix(.09 0 0 -.09 20.878 216.712)"><use xlink:href="#DejaVuSans-2212"/><use xlink:href="#DejaVuSans-32" transform="translate(83.79)"/></g></g><g class="tick ytick"><path id="line2d_21" d="M41.146 177.812h266.112" clip-path="url(#p39aac85bb5)" style="fill:none;stroke:#b0b0b0;stroke-opacity:.15;stroke-width:.8;stroke-linecap:square"/><use xlink:href="#md2dcd6031e" id="line2d_22" x="41.146" y="177.811" style="stroke:currentColor;stroke-width:.8"/><use xlink:href="#DejaVuSans-30" id="text_12" class="text" transform="matrix(.09 0 0 -.09 28.42 181.23)"/></g><g class="tick ytick"><path id="line2d_23" d="M41.146 142.33h266.112" clip-path="url(#p39aac85bb5)" style="fill:none;stroke:#b0b0b0;stroke-opacity:.15;stroke-width:.8;stroke-linecap:square"/><use xlink:href="#md2dcd6031e" id="line2d_24" x="41.146" y="142.33" style="stroke:currentColor;stroke-width:.8"/><use xlink:href="#DejaVuSans-32" id="text_13" class="text" transform="matrix(.09 0 0 -.09 28.42 145.75)"/></g><g class="tick ytick"><path id="line2d_25" d="M41.146 106.848h266.112" clip-path="url(#p39aac85bb5)" style="fill:none;stroke:#b0b0b0;stroke-opacity:.15;stroke-width:.8;stroke-linecap:square"/><use xlink:href="#md2dcd6031e" id="line2d_26" x="41.146" y="106.848" style="stroke:currentColor;stroke-width:.8"/><use xlink:href="#DejaVuSans-34" id="text_14" class="text" transform="matrix(.09 0 0 -.09 28.42 110.268)"/></g><g class="tick ytick"><path id="line2d_27" d="M41.146 71.367h266.112" clip-path="url(#p39aac85bb5)" style="fill:none;stroke:#b0b0b0;stroke-opacity:.15;stroke-width:.8;stroke-linecap:square"/><use xlink:href="#md2dcd6031e" id="line2d_28" x="41.146" y="71.367" style="stroke:currentColor;stroke-width:.8"/><use xlink:href="#DejaVuSans-36" id="text_15" class="text" transform="matrix(.09 0 0 -.09 28.42 74.786)"/></g><g id="text_16" class="text" transform="matrix(0 -.1 -.1 0 14.798 183.161)"><use xlink:href="#DejaVuSans-Oblique-78" transform="translate(0 .313)"/><use xlink:href="#DejaVuSans-32" transform="matrix(.7 0 0 .7 59.18 -16.094)"/></g></g><path id="line2d_29" d="m13.131-1 302.327 302.327" clip-path="url(#p39aac85bb5)" style="fill:none;stroke:currentColor;stroke-width:2;stroke-linecap:square"/><path id="line2d_30" d="m63.31-1 252.148 252.148" clip-path="url(#p39aac85bb5)" style="fill:none;stroke-dasharray:5.55,2.4;stroke-dashoffset:0;stroke:gray;stroke-opacity:.7;stroke-width:1.5"/><path id="line2d_31" d="m-1 35.047 313.409 313.409" clip-path="url(#p39aac85bb5)" style="fill:none;stroke-dasharray:5.55,2.4;stroke-dashoffset:0;stroke:gray;stroke-opacity:.7;stroke-width:1.5"/><path d="M41.146 310.868V44.755M41.146 310.868h266.112" class="patch" style="fill:none;stroke:currentColor;stroke-width:.8;stroke-linejoin:miter;stroke-linecap:square"/><g id="PathCollection_1"><defs><path id="m158ea683e8" d="M0 3.536a3.536 3.536 0 1 0 0-7.072 3.536 3.536 0 0 0 0 7.072z" style="stroke:#fff;stroke-opacity:.7;stroke-width:.5"/></defs><g clip-path="url(#p39aac85bb5)"><use xlink:href="#m158ea683e8" x="146.462" y="237.697" style="fill:#ff0001;fill-opacity:.7;stroke:#fff;stroke-opacity:.7;stroke-width:.5"/><use xlink:href="#m158ea683e8" x="172.016" y="223.334" style="fill:#ff0001;fill-opacity:.7;stroke:#fff;stroke-opacity:.7;stroke-width:.5"/><use xlink:href="#m158ea683e8" x="162.315" y="237.611" style="fill:#ff0001;fill-opacity:.7;stroke:#fff;stroke-opacity:.7;stroke-width:.5"/><use xlink:href="#m158ea683e8" x="156.402" y="237.644" style="fill:#ff0001;fill-opacity:.7;stroke:#fff;stroke-opacity:.7;stroke-width:.5"/><use xlink:href="#m158ea683e8" x="136.77" y="227.6" style="fill:#ff0001;fill-opacity:.7;stroke:#fff;stroke-opacity:.7;stroke-width:.5"/><use xlink:href="#m158ea683e8" x="136.769" y="258.188" style="fill:#ff0001;fill-opacity:.7;stroke:#fff;stroke-opacity:.7;stroke-width:.5"/><use xlink:href="#m158ea683e8" x="132.426" y="255.515" style="fill:#ff0001;fill-opacity:.7;stroke:#fff;stroke-opacity:.7;stroke-width:.5"/><use xlink:href="#m158ea683e8" x="168.267" y="239.014" style="fill:#ff0001;fill-opacity:.7;stroke:#fff;stroke-opacity:.7;stroke-width:.5"/><use xlink:href="#m158ea683e8" x="156.511" y="245.409" style="fill:#ff0001;fill-opacity:.7;stroke:#fff;stroke-opacity:.7;stroke-width:.5"/><use xlink:href="#m158ea683e8" x="161.255" y="226.574" style="fill:#ff0001;fill-opacity:.7;stroke:#fff;stroke-opacity:.7;stroke-width:.5"/><use xlink:href="#m158ea683e8" x="130.763" y="243.921" style="fill:#ff0001;fill-opacity:.7;stroke:#fff;stroke-opacity:.7;stroke-width:.5"/><use xlink:href="#m158ea683e8" x="172.868" y="251.078" style="fill:#ff0001;fill-opacity:.7;stroke:#fff;stroke-opacity:.7;stroke-width:.5"/><use xlink:href="#m158ea683e8" x="105.726" y="234.181" style="fill:#ff0001;fill-opacity:.7;stroke:#fff;stroke-opacity:.7;stroke-width:.5"/><use xlink:href="#m158ea683e8" x="120.322" y="257.44" style="fill:#ff0001;fill-opacity:.7;stroke:#fff;stroke-opacity:.7;stroke-width:.5"/><use xlink:href="#m158ea683e8" x="94.354" y="263.053" style="fill:#ff0001;fill-opacity:.7;stroke:#fff;stroke-opacity:.7;stroke-width:.5"/><use xlink:href="#m158ea683e8" x="108.305" y="216.014" style="fill:#ff0001;fill-opacity:.7;stroke:#fff;stroke-opacity:.7;stroke-width:.5"/><use xlink:href="#m158ea683e8" x="111.773" y="215.122" style="fill:#ff0001;fill-opacity:.7;stroke:#fff;stroke-opacity:.7;stroke-width:.5"/><use xlink:href="#m158ea683e8" x="87.558" y="223.491" style="fill:#ff0001;fill-opacity:.7;stroke:#fff;stroke-opacity:.7;stroke-width:.5"/><use xlink:href="#m158ea683e8" x="156.461" y="195.552" style="fill:#ff0001;fill-opacity:.7;stroke:#fff;stroke-opacity:.7;stroke-width:.5"/><use xlink:href="#m158ea683e8" x="191.943" y="177.811" style="fill:#ff0001;fill-opacity:.7;stroke:#fff;stroke-opacity:.7;stroke-width:.5"/><use xlink:href="#m158ea683e8" x="138.72" y="160.071" style="fill:#ff0001;fill-opacity:.7;stroke:#fff;stroke-opacity:.7;stroke-width:.5"/></g></g><g id="PathCollection_2"><defs><path id="m754eea347e" d="M0 3.536a3.536 3.536 0 1 0 0-7.072 3.536 3.536 0 0 0 0 7.072z" style="stroke:#fff;stroke-opacity:.7;stroke-width:.5"/></defs><g clip-path="url(#p39aac85bb5)"><use xlink:href="#m754eea347e" x="232.064" y="113.233" style="fill:#00ff02;fill-opacity:.7;stroke:#fff;stroke-opacity:.7;stroke-width:.5"/><use xlink:href="#m754eea347e" x="222.886" y="132.492" style="fill:#00ff02;fill-opacity:.7;stroke:#fff;stroke-opacity:.7;stroke-width:.5"/><use xlink:href="#m754eea347e" x="248.901" y="90.726" style="fill:#00ff02;fill-opacity:.7;stroke:#fff;stroke-opacity:.7;stroke-width:.5"/><use xlink:href="#m754eea347e" x="238.076" y="101.075" style="fill:#00ff02;fill-opacity:.7;stroke:#fff;stroke-opacity:.7;stroke-width:.5"/><use xlink:href="#m754eea347e" x="223.967" y="92.328" style="fill:#00ff02;fill-opacity:.7;stroke:#fff;stroke-opacity:.7;stroke-width:.5"/><use xlink:href="#m754eea347e" x="240.516" y="94.705" style="fill:#00ff02;fill-opacity:.7;stroke:#fff;stroke-opacity:.7;stroke-width:.5"/><use xlink:href="#m754eea347e" x="220.079" y="110.508" style="fill:#00ff02;fill-opacity:.7;stroke:#fff;stroke-opacity:.7;stroke-width:.5"/><use xlink:href="#m754eea347e" x="258.884" y="93.266" style="fill:#00ff02;fill-opacity:.7;stroke:#fff;stroke-opacity:.7;stroke-width:.5"/><use xlink:href="#m754eea347e" x="230.032" y="137.62" style="fill:#00ff02;fill-opacity:.7;stroke:#fff;stroke-opacity:.7;stroke-width:.5"/><use xlink:href="#m754eea347e" x="247.938" y="131.899" style="fill:#00ff02;fill-opacity:.7;stroke:#fff;stroke-opacity:.7;stroke-width:.5"/><use xlink:href="#m754eea347e" x="232.379" y="139.923" style="fill:#00ff02;fill-opacity:.7;stroke:#fff;stroke-opacity:.7;stroke-width:.5"/><use xlink:href="#m754eea347e" x="241.62" y="125.015" style="fill:#00ff02;fill-opacity:.7;stroke:#fff;stroke-opacity:.7;stroke-width:.5"/><use xlink:href="#m754eea347e" x="280.145" y="99.348" style="fill:#00ff02;fill-opacity:.7;stroke:#fff;stroke-opacity:.7;stroke-width:.5"/><use xlink:href="#m754eea347e" x="274.941" y="64.153" style="fill:#00ff02;fill-opacity:.7;stroke:#fff;stroke-opacity:.7;stroke-width:.5"/><use xlink:href="#m754eea347e" x="299.662" y="102.881" style="fill:#00ff02;fill-opacity:.7;stroke:#fff;stroke-opacity:.7;stroke-width:.5"/><use xlink:href="#m754eea347e" x="278.729" y="54.324" style="fill:#00ff02;fill-opacity:.7;stroke:#fff;stroke-opacity:.7;stroke-width:.5"/><use xlink:href="#m754eea347e" x="275.366" y="65.748" style="fill:#00ff02;fill-opacity:.7;stroke:#fff;stroke-opacity:.7;stroke-width:.5"/><use xlink:href="#m754eea347e" x="286.976" y="96.272" style="fill:#00ff02;fill-opacity:.7;stroke:#fff;stroke-opacity:.7;stroke-width:.5"/><use xlink:href="#m754eea347e" x="174.202" y="142.33" style="fill:#00ff02;fill-opacity:.7;stroke:#fff;stroke-opacity:.7;stroke-width:.5"/><use xlink:href="#m754eea347e" x="147.591" y="177.811" style="fill:#00ff02;fill-opacity:.7;stroke:#fff;stroke-opacity:.7;stroke-width:.5"/><use xlink:href="#m754eea347e" x="200.813" y="195.552" style="fill:#00ff02;fill-opacity:.7;stroke:#fff;stroke-opacity:.7;stroke-width:.5"/></g></g><g class="patch"><path d="m157.356 193.763 6.582-13.164M160.36 183.282l3.578-2.683v4.472" style="fill:none;opacity:.6;stroke:red;stroke-linecap:round"/></g><g class="patch"><path d="m199.919 193.763-6.582-13.164M193.337 185.071V180.6l3.577 2.683" style="fill:none;opacity:.6;stroke:red;stroke-linecap:round"/></g><g class="patch"><path d="m148.485 179.6 6.582 13.165M155.067 188.293v4.472l-3.577-2.684" style="fill:none;opacity:.6;stroke:red;stroke-linecap:round"/></g><g id="text_17" class="text"><g transform="matrix(.12 0 0 -.12 121.35 16.318)"><defs><path id="DejaVuSans-53" d="M3425 4513v-616q-359 172-678 256-319 85-616 85-515 0-795-200t-280-569q0-310 186-468 186-157 705-254l381-78q706-135 1042-474t336-907q0-679-455-1029Q2797-91 1919-91q-331 0-705 75-373 75-773 222v650q384-215 753-325 369-109 725-109 540 0 834 212 294 213 294 607 0 343-211 537t-692 291l-385 75q-706 140-1022 440-315 300-315 835 0 619 436 975t1201 356q329 0 669-60 341-59 697-177z" transform="scale(.01563)"/><path id="DejaVuSans-6f" d="M1959 3097q-462 0-731-361t-269-989 267-989q268-361 733-361 460 0 728 362 269 363 269 988 0 622-269 986-268 364-728 364zm0 487q750 0 1178-488 429-487 429-1349 0-859-429-1349Q2709-91 1959-91q-753 0-1180 489-426 490-426 1349 0 862 426 1349 427 488 1180 488z" transform="scale(.01563)"/><path id="DejaVuSans-66" d="M2375 4863v-479h-550q-309 0-430-125-120-125-120-450v-309h947v-447h-947V0H697v3053H147v447h550v244q0 584 272 851 272 268 862 268z" transform="scale(.01563)"/><path id="DejaVuSans-74" d="M1172 4494v-994h1184v-447H1172V1153q0-428 117-550t477-122h590V0h-590q-666 0-919 248-253 249-253 905v1900H172v447h422v994z" transform="scale(.01563)"/><path id="DejaVuSans-4d" d="M628 4666h941l1190-3175 1197 3175h941V0h-616v4097L3078 897h-634L1241 4097V0H628z" transform="scale(.01563)"/><path id="DejaVuSans-61" d="M2194 1759q-697 0-966-159t-269-544q0-306 202-486 202-179 548-179 479 0 768 339t289 901v128zm1147 238V0h-575v531q-197-318-491-470T1556-91q-537 0-855 302-317 302-317 808 0 590 395 890 396 300 1180 300h807v57q0 397-261 614t-733 217q-300 0-585-72-284-72-546-216v532q315 122 612 182 297 61 578 61 760 0 1135-394 375-393 375-1193z" transform="scale(.01563)"/><path id="DejaVuSans-72" d="M2631 2963q-97 56-211 82-114 27-251 27-488 0-749-317t-261-911V0H581v3500h578v-544q182 319 472 473 291 155 707 155 59 0 131-8 72-7 159-23z" transform="scale(.01563)"/><path id="DejaVuSans-67" d="M2906 1791q0 625-258 968-257 344-723 344-462 0-720-344-258-343-258-968 0-622 258-966t720-344q466 0 723 344 258 344 258 966zm575-1357q0-893-397-1329-396-436-1215-436-303 0-572 45t-522 139v559q253-137 500-202 247-66 503-66 566 0 847 295t281 892v285q-178-310-456-463T1784 0Q1141 0 747 490 353 981 353 1791q0 812 394 1302 394 491 1037 491 388 0 666-153t456-462v531h575z" transform="scale(.01563)"/><path id="DejaVuSans-69" d="M603 3500h575V0H603zm0 1363h575v-729H603z" transform="scale(.01563)"/><path id="DejaVuSans-6e" d="M3513 2113V0h-575v2094q0 497-194 743-194 247-581 247-466 0-735-297-269-296-269-809V0H581v3500h578v-544q207 316 486 472 280 156 646 156 603 0 912-373 310-373 310-1098z" transform="scale(.01563)"/><path id="DejaVuSans-43" d="M4122 4306v-665q-319 297-680 443-361 147-767 147-800 0-1225-489t-425-1414q0-922 425-1411t1225-489q406 0 767 147t680 444V359q-331-225-702-338-370-112-782-112-1060 0-1670 648-609 649-609 1771 0 1125 609 1773 610 649 1670 649 418 0 788-111 371-111 696-333z" transform="scale(.01563)"/><path id="DejaVuSans-73" d="M2834 3397v-544q-243 125-506 187-262 63-544 63-428 0-642-131t-214-394q0-200 153-314t616-217l197-44q612-131 870-370t258-667q0-488-386-773Q2250-91 1575-91q-281 0-586 55T347 128v594q319-166 628-249 309-82 613-82 406 0 624 139 219 139 219 392 0 234-158 359-157 125-692 241l-200 47q-534 112-772 345-237 233-237 639 0 494 350 762 350 269 994 269 318 0 599-47 282-46 519-140z" transform="scale(.01563)"/><path id="DejaVuSans-65" d="M3597 1894v-281H953q38-594 358-905t892-311q331 0 642 81t618 244V178Q3153 47 2828-22t-659-69q-838 0-1327 487-489 488-489 1320 0 859 464 1363 464 505 1252 505 706 0 1117-455 411-454 411-1235zm-575 169q-6 471-264 752-258 282-683 282-481 0-770-272t-333-766z" transform="scale(.01563)"/><path id="DejaVuSans-3a" d="M750 794h659V0H750zm0 2515h659v-793H750z" transform="scale(.01563)"/></defs><use xlink:href="#DejaVuSans-53"/><use xlink:href="#DejaVuSans-6f" transform="translate(63.477)"/><use xlink:href="#DejaVuSans-66" transform="translate(124.658)"/><use xlink:href="#DejaVuSans-74" transform="translate(158.113)"/><use xlink:href="#DejaVuSans-4d" transform="translate(229.11)"/><use xlink:href="#DejaVuSans-61" transform="translate(315.389)"/><use xlink:href="#DejaVuSans-72" transform="translate(376.668)"/><use xlink:href="#DejaVuSans-67" transform="translate(416.031)"/><use xlink:href="#DejaVuSans-69" transform="translate(479.508)"/><use xlink:href="#DejaVuSans-6e" transform="translate(507.291)"/><use xlink:href="#DejaVuSans-43" transform="translate(602.457)"/><use xlink:href="#DejaVuSans-61" transform="translate(672.281)"/><use xlink:href="#DejaVuSans-73" transform="translate(733.56)"/><use xlink:href="#DejaVuSans-65" transform="translate(785.66)"/><use xlink:href="#DejaVuSans-3a" transform="translate(847.184)"/></g><g transform="matrix(.12 0 0 -.12 113.544 29.756)"><defs><path id="DejaVuSans-4e" d="M628 4666h850L3547 763v3903h612V0h-850L1241 3903V0H628z" transform="scale(.01563)"/><path id="DejaVuSans-2d" d="M313 2009h1684v-512H313z" transform="scale(.01563)"/><path id="DejaVuSans-70" d="M1159 525v-1856H581v4831h578v-531q182 312 458 463 277 152 661 152 638 0 1036-506 399-506 399-1331T3314 415Q2916-91 2278-91q-384 0-661 152-276 152-458 464zm1957 1222q0 634-261 995t-717 361q-457 0-718-361t-261-995 261-995 718-361q456 0 717 361t261 995z" transform="scale(.01563)"/><path id="DejaVuSans-62" d="M3116 1747q0 634-261 995t-717 361q-457 0-718-361t-261-995 261-995 718-361q456 0 717 361t261 995zM1159 2969q182 312 458 463 277 152 661 152 638 0 1036-506 399-506 399-1331T3314 415Q2916-91 2278-91q-384 0-661 152-276 152-458 464V0H581v4863h578z" transform="scale(.01563)"/><path id="DejaVuSans-6c" d="M603 4863h575V0H603z" transform="scale(.01563)"/><path id="DejaVuSans-44" d="M1259 4147V519h763q966 0 1414 437 448 438 448 1382 0 937-448 1373t-1414 436zm-631 519h1297q1356 0 1990-564 635-564 635-1764 0-1207-638-1773Q3275 0 1925 0H628z" transform="scale(.01563)"/></defs><use xlink:href="#DejaVuSans-4e"/><use xlink:href="#DejaVuSans-6f" transform="translate(74.805)"/><use xlink:href="#DejaVuSans-6e" transform="translate(135.986)"/><use xlink:href="#DejaVuSans-2d" transform="translate(199.365)"/><use xlink:href="#DejaVuSans-53" transform="translate(235.45)"/><use xlink:href="#DejaVuSans-65" transform="translate(298.926)"/><use xlink:href="#DejaVuSans-70" transform="translate(360.45)"/><use xlink:href="#DejaVuSans-61" transform="translate(423.926)"/><use xlink:href="#DejaVuSans-72" transform="translate(485.205)"/><use xlink:href="#DejaVuSans-61" transform="translate(526.318)"/><use xlink:href="#DejaVuSans-62" transform="translate(587.598)"/><use xlink:href="#DejaVuSans-6c" transform="translate(651.074)"/><use xlink:href="#DejaVuSans-65" transform="translate(678.857)"/><use xlink:href="#DejaVuSans-44" transform="translate(772.168)"/><use xlink:href="#DejaVuSans-61" transform="translate(849.17)"/><use xlink:href="#DejaVuSans-74" transform="translate(910.45)"/><use xlink:href="#DejaVuSans-61" transform="translate(949.658)"/></g></g><g class="legend"><path d="M187.637 104.797h113.321q1.8 0 1.8-1.8V51.056q0-1.8-1.8-1.8H187.637q-1.8 0-1.8 1.8v51.94q0 1.8 1.8 1.8z" class="patch" style="fill:rgba(255,255,255,.8)!important;opacity:.9;stroke:rgba(0,0,0,.1)!important;stroke-linejoin:miter"/><use xlink:href="#m158ea683e8" id="PathCollection_3" x="198.437" y="57.332" style="fill:#ff0001;fill-opacity:.7;stroke:#fff;stroke-opacity:.7;stroke-width:.5"/><g id="text_18" class="text" transform="matrix(.09 0 0 -.09 214.637 59.694)"><use xlink:href="#DejaVuSans-43"/><use xlink:href="#DejaVuSans-6c" transform="translate(69.824)"/><use xlink:href="#DejaVuSans-61" transform="translate(97.607)"/><use xlink:href="#DejaVuSans-73" transform="translate(158.887)"/><use xlink:href="#DejaVuSans-73" transform="translate(210.986)"/><use xlink:href="#DejaVuSans-31" transform="translate(294.873)"/></g><use xlink:href="#m754eea347e" id="PathCollection_4" x="198.437" y="70.542" style="fill:#00ff02;fill-opacity:.7;stroke:#fff;stroke-opacity:.7;stroke-width:.5"/><g id="text_19" class="text" transform="matrix(.09 0 0 -.09 214.637 72.904)"><use xlink:href="#DejaVuSans-43"/><use xlink:href="#DejaVuSans-6c" transform="translate(69.824)"/><use xlink:href="#DejaVuSans-61" transform="translate(97.607)"/><use xlink:href="#DejaVuSans-73" transform="translate(158.887)"/><use xlink:href="#DejaVuSans-73" transform="translate(210.986)"/><use xlink:href="#DejaVuSans-32" transform="translate(294.873)"/></g><path id="line2d_32" d="M189.437 82.965h18" style="fill:none;stroke:currentColor;stroke-width:2;stroke-linecap:square"/><g id="text_20" class="text" transform="matrix(.09 0 0 -.09 214.637 86.115)"><defs><path id="DejaVuSans-63" d="M3122 3366v-538q-244 135-489 202t-495 67q-560 0-870-355-309-354-309-995t309-996q310-354 870-354 250 0 495 67t489 202V134Q2881 22 2623-34q-257-57-548-57-791 0-1257 497-465 497-465 1341 0 856 470 1346 471 491 1290 491 265 0 518-55 253-54 491-163z" transform="scale(.01563)"/><path id="DejaVuSans-42" d="M1259 2228V519h1013q509 0 754 211 246 211 246 645 0 438-246 645-245 208-754 208zm0 1919V2741h935q462 0 688 173 227 174 227 530 0 353-227 528-226 175-688 175zm-631 519h1613q722 0 1112-300 391-300 391-853 0-429-200-682t-588-315q466-100 724-418 258-317 258-792 0-625-425-966Q3088 0 2303 0H628z" transform="scale(.01563)"/><path id="DejaVuSans-75" d="M544 1381v2119h575V1403q0-497 193-746 194-248 582-248 465 0 735 297 271 297 271 810v1984h575V0h-575v538q-209-319-486-474-276-155-642-155-603 0-916 375-312 375-312 1097zm1447 2203z" transform="scale(.01563)"/><path id="DejaVuSans-64" d="M2906 2969v1894h575V0h-575v525q-181-312-458-464-276-152-664-152-634 0-1033 506-398 507-398 1332t398 1331q399 506 1033 506 388 0 664-152 277-151 458-463zM947 1747q0-634 261-995t717-361 718 361q263 361 263 995t-263 995q-262 361-718 361t-717-361-261-995z" transform="scale(.01563)"/><path id="DejaVuSans-79" d="M2059-325q-243-625-475-815-231-191-618-191H506v481h338q237 0 368 113 132 112 291 531l103 262L191 3500h609L1894 763l1094 2737h609z" transform="scale(.01563)"/></defs><use xlink:href="#DejaVuSans-44"/><use xlink:href="#DejaVuSans-65" transform="translate(77.002)"/><use xlink:href="#DejaVuSans-63" transform="translate(138.525)"/><use xlink:href="#DejaVuSans-69" transform="translate(193.506)"/><use xlink:href="#DejaVuSans-73" transform="translate(221.29)"/><use xlink:href="#DejaVuSans-69" transform="translate(273.389)"/><use xlink:href="#DejaVuSans-6f" transform="translate(301.172)"/><use xlink:href="#DejaVuSans-6e" transform="translate(362.354)"/><use xlink:href="#DejaVuSans-42" transform="translate(457.52)"/><use xlink:href="#DejaVuSans-6f" transform="translate(526.123)"/><use xlink:href="#DejaVuSans-75" transform="translate(587.305)"/><use xlink:href="#DejaVuSans-6e" transform="translate(650.684)"/><use xlink:href="#DejaVuSans-64" transform="translate(714.063)"/><use xlink:href="#DejaVuSans-61" transform="translate(777.54)"/><use xlink:href="#DejaVuSans-72" transform="translate(838.818)"/><use xlink:href="#DejaVuSans-79" transform="translate(879.932)"/></g><path id="line2d_33" d="M189.437 96.175h18" style="fill:none;stroke-dasharray:5.55,2.4;stroke-dashoffset:0;stroke:gray;stroke-opacity:.7;stroke-width:1.5"/><g id="text_21" class="text" transform="matrix(.09 0 0 -.09 214.637 99.325)"><use xlink:href="#DejaVuSans-4d"/><use xlink:href="#DejaVuSans-61" transform="translate(86.28)"/><use xlink:href="#DejaVuSans-72" transform="translate(147.559)"/><use xlink:href="#DejaVuSans-67" transform="translate(186.922)"/><use xlink:href="#DejaVuSans-69" transform="translate(250.398)"/><use xlink:href="#DejaVuSans-6e" transform="translate(278.182)"/></g></g></g></g><defs><clipPath id="p39aac85bb5"><path d="M41.146 44.755h266.112v266.112H41.146z"/></clipPath></defs></svg>