<?xml version="1.0" encoding="utf-8" standalone="no"?>
<!DOCTYPE svg PUBLIC "-//W3C//DTD SVG 1.1//EN"
  "http://www.w3.org/Graphics/SVG/1.1/DTD/svg11.dtd">
<svg xmlns:xlink="http://www.w3.org/1999/xlink" width="402.70713pt" height="325.986375pt" viewBox="0 0 402.70713 325.986375" xmlns="http://www.w3.org/2000/svg" version="1.1">
<style>/* === RDF autogenerated palette === */
:root {
    --axis-color: #000;
    --grid-stroke: rgba(0,0,0,0.2);
    --plot3d-stroke: rgba(0,0,0,0.3);
    --plot3d-grid: rgba(0,0,0,0.2);
}
@media (prefers-color-scheme: dark) {
    :root {
        --axis-color: #fff;
        --grid-stroke: rgba(255,255,255,0.2);
        --plot3d-stroke: rgba(255,255,255,0.3);
        --plot3d-grid: rgba(255,255,255,0.2);
    }
}

/* Light‑mode palette */
.black { fill:#000000; stroke:#000000; }:root { --black: #000000; }.c1 { fill:#FF0001; stroke:#FF0001; }:root { --c1: #FF0001; }.c2 { fill:#00FF02; stroke:#00FF02; }:root { --c2: #00FF02; }.c3 { fill:#0000FF; stroke:#0000FF; }:root { --c3: #0000FF; }.c4 { fill:#FF00FF; stroke:#FF00FF; }:root { --c4: #FF00FF; }.c5 { fill:#00FFFF; stroke:#00FFFF; }:root { --c5: #00FFFF; }.c6 { fill:#FFFF00; stroke:#FFFF00; }:root { --c6: #FFFF00; }.c7 { fill:#FF8000; stroke:#FF8000; }:root { --c7: #FF8000; }.c8 { fill:#8000FF; stroke:#8000FF; }:root { --c8: #8000FF; }.gray { fill:#7f7f7f; stroke:#7f7f7f; }:root { --gray: #7f7f7f; }.grey { fill:#7f7f7f; stroke:#7f7f7f; }:root { --grey: #7f7f7f; }.octonary { fill:#bcbd22; stroke:#bcbd22; }:root { --octonary: #bcbd22; }.primary { fill:#d62728; stroke:#d62728; }:root { --primary: #d62728; }.quaternary { fill:#9467bd; stroke:#9467bd; }:root { --quaternary: #9467bd; }.quinary { fill:#8c564b; stroke:#8c564b; }:root { --quinary: #8c564b; }.secondary { fill:#2ca02c; stroke:#2ca02c; }:root { --secondary: #2ca02c; }.senary { fill:#e377c2; stroke:#e377c2; }:root { --senary: #e377c2; }.septenary { fill:#7f7f7f; stroke:#7f7f7f; }:root { --septenary: #7f7f7f; }.tertiary { fill:#1f77b4; stroke:#1f77b4; }:root { --tertiary: #1f77b4; }.white { fill:#ffffff; stroke:#ffffff; }:root { --white: #ffffff; }

/* Dark overrides */
@media (prefers-color-scheme: dark) {
    .black { fill:#FFFFFF; stroke:#FFFFFF; }:root { --black: #FFFFFF; }.c1 { fill:#FF0001; stroke:#FF0001; }:root { --c1: #FF0001; }.c2 { fill:#00FF02; stroke:#00FF02; }:root { --c2: #00FF02; }.c3 { fill:#0000FF; stroke:#0000FF; }:root { --c3: #0000FF; }.c4 { fill:#FF00FF; stroke:#FF00FF; }:root { --c4: #FF00FF; }.c5 { fill:#00FFFF; stroke:#00FFFF; }:root { --c5: #00FFFF; }.c6 { fill:#FFFF00; stroke:#FFFF00; }:root { --c6: #FFFF00; }.c7 { fill:#FF8000; stroke:#FF8000; }:root { --c7: #FF8000; }.c8 { fill:#8000FF; stroke:#8000FF; }:root { --c8: #8000FF; }.gray { fill:#CCCCCC; stroke:#CCCCCC; }:root { --gray: #CCCCCC; }.grey { fill:#CCCCCC; stroke:#CCCCCC; }:root { --grey: #CCCCCC; }.octonary { fill:#E6DB74; stroke:#E6DB74; }:root { --octonary: #E6DB74; }.primary { fill:#FF4A98; stroke:#FF4A98; }:root { --primary: #FF4A98; }.quaternary { fill:#B4A0FF; stroke:#B4A0FF; }:root { --quaternary: #B4A0FF; }.quinary { fill:#FFB86B; stroke:#FFB86B; }:root { --quinary: #FFB86B; }.secondary { fill:#0AFAFA; stroke:#0AFAFA; }:root { --secondary: #0AFAFA; }.senary { fill:#FF79C6; stroke:#FF79C6; }:root { --senary: #FF79C6; }.septenary { fill:#CCCCCC; stroke:#CCCCCC; }:root { --septenary: #CCCCCC; }.tertiary { fill:#7F83FF; stroke:#7F83FF; }:root { --tertiary: #7F83FF; }.white { fill:#000000; stroke:#000000; }:root { --white: #000000; }
}/* Axis, ticks, legend */
text, .text { fill: var(--axis-color) !important; stroke: none !important; }
.axis line, .axis path,
.tick line, .tick path,
path.domain,
line.grid { stroke: var(--axis-color) !important; }
.legend text { fill: var(--axis-color) !important; }

/* Patch paths that relied on currentColor */
.patch path[style*="stroke: currentColor"] { stroke: var(--axis-color) !important; }

/* Legend background (first child of legend group) */
g.legend > g:first-child > path:first-child {
    fill: rgba(255,255,255,0.8) !important;
    stroke: rgba(0,0,0,0.1) !important;
}
@media (prefers-color-scheme: dark) {
    g.legend > g:first-child > path:first-child {
        fill: rgba(26,26,26,0.8) !important;
        stroke: rgba(255,255,255,0.1) !important;
    }
}

/* 3‑D specific rules */
.plot3d path, .plot3d polygon {
    stroke: var(--plot3d-stroke) !important;
}
.plot3d-grid line { stroke: var(--plot3d-grid) !important; }
.plot3d-surface path[style*="fill:"] {
    fill-opacity: 0.9 !important;
}
@media (prefers-color-scheme: dark) {
    .plot3d-surface path[style*="fill:"] {
        fill-opacity: 0.95 !important;
        filter: saturate(1.2) !important;
    }
}</style>

 <metadata>
  <rdf:RDF xmlns:dc="http://purl.org/dc/elements/1.1/" xmlns:cc="http://creativecommons.org/ns#" xmlns:rdf="http://www.w3.org/1999/02/22-rdf-syntax-ns#">
   <cc:Work>
    <dc:type rdf:resource="http://purl.org/dc/dcmitype/StillImage"/>
    <dc:date>2025-11-06T09:35:51.001980</dc:date>
    <dc:format>image/svg+xml</dc:format>
    <dc:creator>
     <cc:Agent>
      <dc:title>Matplotlib v3.10.1, https://matplotlib.org/</dc:title>
     </cc:Agent>
    </dc:creator>
   </cc:Work>
  </rdf:RDF>
 </metadata>
 <defs>
  <style type="text/css">*{stroke-linejoin: round; stroke-linecap: butt}</style>
 </defs>
 <g id="figure_1">
  <g class="patch">
   <path d="M 0 325.986375 
L 402.70713 325.986375 
L 402.70713 0 
L 0 0 
L 0 325.986375 
z
" style="fill: none"/>
  </g>
  <g id="axes_1">
   <g class="patch">
    <path d="M 34.240625 288.430125 
L 183.040625 288.430125 
L 183.040625 22.318125 
L 34.240625 22.318125 
L 34.240625 288.430125 
z
" style="fill: none"/>
   </g>
   <g class="axis">
    <g class="tick xtick">
     <g id="line2d_1">
      <defs>
       <path id="m95d862f690" d="M 0 0 
L 0 3.5 
" style="stroke: var(--black); stroke-width: 0.8"/>
      </defs>
      <g>
       <use xlink:href="#m95d862f690" x="41.004261" y="288.430125" style="stroke: var(--black); stroke-width: 0.8"/>
      </g>
     </g>
     <g id="text_1" class="text">
      <!-- 0 -->
      <g transform="translate(37.823011 303.028562) scale(0.1 -0.1)">
       <defs>
        <path id="DejaVuSans-30" d="M 2034 4250 
Q 1547 4250 1301 3770 
Q 1056 3291 1056 2328 
Q 1056 1369 1301 889 
Q 1547 409 2034 409 
Q 2525 409 2770 889 
Q 3016 1369 3016 2328 
Q 3016 3291 2770 3770 
Q 2525 4250 2034 4250 
z
M 2034 4750 
Q 2819 4750 3233 4129 
Q 3647 3509 3647 2328 
Q 3647 1150 3233 529 
Q 2819 -91 2034 -91 
Q 1250 -91 836 529 
Q 422 1150 422 2328 
Q 422 3509 836 4129 
Q 1250 4750 2034 4750 
z
" transform="scale(0.015625)"/>
       </defs>
       <use xlink:href="#DejaVuSans-30"/>
      </g>
     </g>
    </g>
    <g class="tick xtick">
     <g id="line2d_2">
      <g>
       <use xlink:href="#m95d862f690" x="108.640625" y="288.430125" style="stroke: var(--black); stroke-width: 0.8"/>
      </g>
     </g>
     <g id="text_2" class="text">
      <!-- 5 -->
      <g transform="translate(105.459375 303.028562) scale(0.1 -0.1)">
       <defs>
        <path id="DejaVuSans-35" d="M 691 4666 
L 3169 4666 
L 3169 4134 
L 1269 4134 
L 1269 2991 
Q 1406 3038 1543 3061 
Q 1681 3084 1819 3084 
Q 2600 3084 3056 2656 
Q 3513 2228 3513 1497 
Q 3513 744 3044 326 
Q 2575 -91 1722 -91 
Q 1428 -91 1123 -41 
Q 819 9 494 109 
L 494 744 
Q 775 591 1075 516 
Q 1375 441 1709 441 
Q 2250 441 2565 725 
Q 2881 1009 2881 1497 
Q 2881 1984 2565 2268 
Q 2250 2553 1709 2553 
Q 1456 2553 1204 2497 
Q 953 2441 691 2322 
L 691 4666 
z
" transform="scale(0.015625)"/>
       </defs>
       <use xlink:href="#DejaVuSans-35"/>
      </g>
     </g>
    </g>
    <g class="tick xtick">
     <g id="line2d_3">
      <g>
       <use xlink:href="#m95d862f690" x="176.276989" y="288.430125" style="stroke: var(--black); stroke-width: 0.8"/>
      </g>
     </g>
     <g id="text_3" class="text">
      <!-- 10 -->
      <g transform="translate(169.914489 303.028562) scale(0.1 -0.1)">
       <defs>
        <path id="DejaVuSans-31" d="M 794 531 
L 1825 531 
L 1825 4091 
L 703 3866 
L 703 4441 
L 1819 4666 
L 2450 4666 
L 2450 531 
L 3481 531 
L 3481 0 
L 794 0 
L 794 531 
z
" transform="scale(0.015625)"/>
       </defs>
       <use xlink:href="#DejaVuSans-31"/>
       <use xlink:href="#DejaVuSans-30" transform="translate(63.623047 0)"/>
      </g>
     </g>
    </g>
    <g id="text_4" class="text">
     <!-- Time -->
     <g transform="translate(96.407031 316.706687) scale(0.1 -0.1)">
      <defs>
       <path id="DejaVuSans-54" d="M -19 4666 
L 3928 4666 
L 3928 4134 
L 2272 4134 
L 2272 0 
L 1638 0 
L 1638 4134 
L -19 4134 
L -19 4666 
z
" transform="scale(0.015625)"/>
       <path id="DejaVuSans-69" d="M 603 3500 
L 1178 3500 
L 1178 0 
L 603 0 
L 603 3500 
z
M 603 4863 
L 1178 4863 
L 1178 4134 
L 603 4134 
L 603 4863 
z
" transform="scale(0.015625)"/>
       <path id="DejaVuSans-6d" d="M 3328 2828 
Q 3544 3216 3844 3400 
Q 4144 3584 4550 3584 
Q 5097 3584 5394 3201 
Q 5691 2819 5691 2113 
L 5691 0 
L 5113 0 
L 5113 2094 
Q 5113 2597 4934 2840 
Q 4756 3084 4391 3084 
Q 3944 3084 3684 2787 
Q 3425 2491 3425 1978 
L 3425 0 
L 2847 0 
L 2847 2094 
Q 2847 2600 2669 2842 
Q 2491 3084 2119 3084 
Q 1678 3084 1418 2786 
Q 1159 2488 1159 1978 
L 1159 0 
L 581 0 
L 581 3500 
L 1159 3500 
L 1159 2956 
Q 1356 3278 1631 3431 
Q 1906 3584 2284 3584 
Q 2666 3584 2933 3390 
Q 3200 3197 3328 2828 
z
" transform="scale(0.015625)"/>
       <path id="DejaVuSans-65" d="M 3597 1894 
L 3597 1613 
L 953 1613 
Q 991 1019 1311 708 
Q 1631 397 2203 397 
Q 2534 397 2845 478 
Q 3156 559 3463 722 
L 3463 178 
Q 3153 47 2828 -22 
Q 2503 -91 2169 -91 
Q 1331 -91 842 396 
Q 353 884 353 1716 
Q 353 2575 817 3079 
Q 1281 3584 2069 3584 
Q 2775 3584 3186 3129 
Q 3597 2675 3597 1894 
z
M 3022 2063 
Q 3016 2534 2758 2815 
Q 2500 3097 2075 3097 
Q 1594 3097 1305 2825 
Q 1016 2553 972 2059 
L 3022 2063 
z
" transform="scale(0.015625)"/>
      </defs>
      <use xlink:href="#DejaVuSans-54"/>
      <use xlink:href="#DejaVuSans-69" transform="translate(57.958984 0)"/>
      <use xlink:href="#DejaVuSans-6d" transform="translate(85.742188 0)"/>
      <use xlink:href="#DejaVuSans-65" transform="translate(183.154297 0)"/>
     </g>
    </g>
   </g>
   <g class="axis">
    <g class="tick ytick">
     <g id="line2d_4">
      <defs>
       <path id="mbd81d9205d" d="M 0 0 
L -3.5 0 
" style="stroke: var(--black); stroke-width: 0.8"/>
      </defs>
      <g>
       <use xlink:href="#mbd81d9205d" x="34.240625" y="271.583519" style="stroke: var(--black); stroke-width: 0.8"/>
      </g>
     </g>
     <g id="text_5" class="text">
      <!-- 1 -->
      <g transform="translate(20.878125 275.382738) scale(0.1 -0.1)">
       <use xlink:href="#DejaVuSans-31"/>
      </g>
     </g>
    </g>
    <g class="tick ytick">
     <g id="line2d_5">
      <g>
       <use xlink:href="#mbd81d9205d" x="34.240625" y="235.222952" style="stroke: var(--black); stroke-width: 0.8"/>
      </g>
     </g>
     <g id="text_6" class="text">
      <!-- 2 -->
      <g transform="translate(20.878125 239.022171) scale(0.1 -0.1)">
       <defs>
        <path id="DejaVuSans-32" d="M 1228 531 
L 3431 531 
L 3431 0 
L 469 0 
L 469 531 
Q 828 903 1448 1529 
Q 2069 2156 2228 2338 
Q 2531 2678 2651 2914 
Q 2772 3150 2772 3378 
Q 2772 3750 2511 3984 
Q 2250 4219 1831 4219 
Q 1534 4219 1204 4116 
Q 875 4013 500 3803 
L 500 4441 
Q 881 4594 1212 4672 
Q 1544 4750 1819 4750 
Q 2544 4750 2975 4387 
Q 3406 4025 3406 3419 
Q 3406 3131 3298 2873 
Q 3191 2616 2906 2266 
Q 2828 2175 2409 1742 
Q 1991 1309 1228 531 
z
" transform="scale(0.015625)"/>
       </defs>
       <use xlink:href="#DejaVuSans-32"/>
      </g>
     </g>
    </g>
    <g class="tick ytick">
     <g id="line2d_6">
      <g>
       <use xlink:href="#mbd81d9205d" x="34.240625" y="198.862385" style="stroke: var(--black); stroke-width: 0.8"/>
      </g>
     </g>
     <g id="text_7" class="text">
      <!-- 3 -->
      <g transform="translate(20.878125 202.661604) scale(0.1 -0.1)">
       <defs>
        <path id="DejaVuSans-33" d="M 2597 2516 
Q 3050 2419 3304 2112 
Q 3559 1806 3559 1356 
Q 3559 666 3084 287 
Q 2609 -91 1734 -91 
Q 1441 -91 1130 -33 
Q 819 25 488 141 
L 488 750 
Q 750 597 1062 519 
Q 1375 441 1716 441 
Q 2309 441 2620 675 
Q 2931 909 2931 1356 
Q 2931 1769 2642 2001 
Q 2353 2234 1838 2234 
L 1294 2234 
L 1294 2753 
L 1863 2753 
Q 2328 2753 2575 2939 
Q 2822 3125 2822 3475 
Q 2822 3834 2567 4026 
Q 2313 4219 1838 4219 
Q 1578 4219 1281 4162 
Q 984 4106 628 3988 
L 628 4550 
Q 988 4650 1302 4700 
Q 1616 4750 1894 4750 
Q 2613 4750 3031 4423 
Q 3450 4097 3450 3541 
Q 3450 3153 3228 2886 
Q 3006 2619 2597 2516 
z
" transform="scale(0.015625)"/>
       </defs>
       <use xlink:href="#DejaVuSans-33"/>
      </g>
     </g>
    </g>
    <g class="tick ytick">
     <g id="line2d_7">
      <g>
       <use xlink:href="#mbd81d9205d" x="34.240625" y="162.501818" style="stroke: var(--black); stroke-width: 0.8"/>
      </g>
     </g>
     <g id="text_8" class="text">
      <!-- 4 -->
      <g transform="translate(20.878125 166.301037) scale(0.1 -0.1)">
       <defs>
        <path id="DejaVuSans-34" d="M 2419 4116 
L 825 1625 
L 2419 1625 
L 2419 4116 
z
M 2253 4666 
L 3047 4666 
L 3047 1625 
L 3713 1625 
L 3713 1100 
L 3047 1100 
L 3047 0 
L 2419 0 
L 2419 1100 
L 313 1100 
L 313 1709 
L 2253 4666 
z
" transform="scale(0.015625)"/>
       </defs>
       <use xlink:href="#DejaVuSans-34"/>
      </g>
     </g>
    </g>
    <g class="tick ytick">
     <g id="line2d_8">
      <g>
       <use xlink:href="#mbd81d9205d" x="34.240625" y="126.141251" style="stroke: var(--black); stroke-width: 0.8"/>
      </g>
     </g>
     <g id="text_9" class="text">
      <!-- 5 -->
      <g transform="translate(20.878125 129.94047) scale(0.1 -0.1)">
       <use xlink:href="#DejaVuSans-35"/>
      </g>
     </g>
    </g>
    <g class="tick ytick">
     <g id="line2d_9">
      <g>
       <use xlink:href="#mbd81d9205d" x="34.240625" y="89.780684" style="stroke: var(--black); stroke-width: 0.8"/>
      </g>
     </g>
     <g id="text_10" class="text">
      <!-- 6 -->
      <g transform="translate(20.878125 93.579903) scale(0.1 -0.1)">
       <defs>
        <path id="DejaVuSans-36" d="M 2113 2584 
Q 1688 2584 1439 2293 
Q 1191 2003 1191 1497 
Q 1191 994 1439 701 
Q 1688 409 2113 409 
Q 2538 409 2786 701 
Q 3034 994 3034 1497 
Q 3034 2003 2786 2293 
Q 2538 2584 2113 2584 
z
M 3366 4563 
L 3366 3988 
Q 3128 4100 2886 4159 
Q 2644 4219 2406 4219 
Q 1781 4219 1451 3797 
Q 1122 3375 1075 2522 
Q 1259 2794 1537 2939 
Q 1816 3084 2150 3084 
Q 2853 3084 3261 2657 
Q 3669 2231 3669 1497 
Q 3669 778 3244 343 
Q 2819 -91 2113 -91 
Q 1303 -91 875 529 
Q 447 1150 447 2328 
Q 447 3434 972 4092 
Q 1497 4750 2381 4750 
Q 2619 4750 2861 4703 
Q 3103 4656 3366 4563 
z
" transform="scale(0.015625)"/>
       </defs>
       <use xlink:href="#DejaVuSans-36"/>
      </g>
     </g>
    </g>
    <g class="tick ytick">
     <g id="line2d_10">
      <g>
       <use xlink:href="#mbd81d9205d" x="34.240625" y="53.420117" style="stroke: var(--black); stroke-width: 0.8"/>
      </g>
     </g>
     <g id="text_11" class="text">
      <!-- 7 -->
      <g transform="translate(20.878125 57.219336) scale(0.1 -0.1)">
       <defs>
        <path id="DejaVuSans-37" d="M 525 4666 
L 3525 4666 
L 3525 4397 
L 1831 0 
L 1172 0 
L 2766 4134 
L 525 4134 
L 525 4666 
z
" transform="scale(0.015625)"/>
       </defs>
       <use xlink:href="#DejaVuSans-37"/>
      </g>
     </g>
    </g>
    <g id="text_12" class="text">
     <!-- Population -->
     <g transform="translate(14.798438 181.640531) rotate(-90) scale(0.1 -0.1)">
      <defs>
       <path id="DejaVuSans-50" d="M 1259 4147 
L 1259 2394 
L 2053 2394 
Q 2494 2394 2734 2622 
Q 2975 2850 2975 3272 
Q 2975 3691 2734 3919 
Q 2494 4147 2053 4147 
L 1259 4147 
z
M 628 4666 
L 2053 4666 
Q 2838 4666 3239 4311 
Q 3641 3956 3641 3272 
Q 3641 2581 3239 2228 
Q 2838 1875 2053 1875 
L 1259 1875 
L 1259 0 
L 628 0 
L 628 4666 
z
" transform="scale(0.015625)"/>
       <path id="DejaVuSans-6f" d="M 1959 3097 
Q 1497 3097 1228 2736 
Q 959 2375 959 1747 
Q 959 1119 1226 758 
Q 1494 397 1959 397 
Q 2419 397 2687 759 
Q 2956 1122 2956 1747 
Q 2956 2369 2687 2733 
Q 2419 3097 1959 3097 
z
M 1959 3584 
Q 2709 3584 3137 3096 
Q 3566 2609 3566 1747 
Q 3566 888 3137 398 
Q 2709 -91 1959 -91 
Q 1206 -91 779 398 
Q 353 888 353 1747 
Q 353 2609 779 3096 
Q 1206 3584 1959 3584 
z
" transform="scale(0.015625)"/>
       <path id="DejaVuSans-70" d="M 1159 525 
L 1159 -1331 
L 581 -1331 
L 581 3500 
L 1159 3500 
L 1159 2969 
Q 1341 3281 1617 3432 
Q 1894 3584 2278 3584 
Q 2916 3584 3314 3078 
Q 3713 2572 3713 1747 
Q 3713 922 3314 415 
Q 2916 -91 2278 -91 
Q 1894 -91 1617 61 
Q 1341 213 1159 525 
z
M 3116 1747 
Q 3116 2381 2855 2742 
Q 2594 3103 2138 3103 
Q 1681 3103 1420 2742 
Q 1159 2381 1159 1747 
Q 1159 1113 1420 752 
Q 1681 391 2138 391 
Q 2594 391 2855 752 
Q 3116 1113 3116 1747 
z
" transform="scale(0.015625)"/>
       <path id="DejaVuSans-75" d="M 544 1381 
L 544 3500 
L 1119 3500 
L 1119 1403 
Q 1119 906 1312 657 
Q 1506 409 1894 409 
Q 2359 409 2629 706 
Q 2900 1003 2900 1516 
L 2900 3500 
L 3475 3500 
L 3475 0 
L 2900 0 
L 2900 538 
Q 2691 219 2414 64 
Q 2138 -91 1772 -91 
Q 1169 -91 856 284 
Q 544 659 544 1381 
z
M 1991 3584 
L 1991 3584 
z
" transform="scale(0.015625)"/>
       <path id="DejaVuSans-6c" d="M 603 4863 
L 1178 4863 
L 1178 0 
L 603 0 
L 603 4863 
z
" transform="scale(0.015625)"/>
       <path id="DejaVuSans-61" d="M 2194 1759 
Q 1497 1759 1228 1600 
Q 959 1441 959 1056 
Q 959 750 1161 570 
Q 1363 391 1709 391 
Q 2188 391 2477 730 
Q 2766 1069 2766 1631 
L 2766 1759 
L 2194 1759 
z
M 3341 1997 
L 3341 0 
L 2766 0 
L 2766 531 
Q 2569 213 2275 61 
Q 1981 -91 1556 -91 
Q 1019 -91 701 211 
Q 384 513 384 1019 
Q 384 1609 779 1909 
Q 1175 2209 1959 2209 
L 2766 2209 
L 2766 2266 
Q 2766 2663 2505 2880 
Q 2244 3097 1772 3097 
Q 1472 3097 1187 3025 
Q 903 2953 641 2809 
L 641 3341 
Q 956 3463 1253 3523 
Q 1550 3584 1831 3584 
Q 2591 3584 2966 3190 
Q 3341 2797 3341 1997 
z
" transform="scale(0.015625)"/>
       <path id="DejaVuSans-74" d="M 1172 4494 
L 1172 3500 
L 2356 3500 
L 2356 3053 
L 1172 3053 
L 1172 1153 
Q 1172 725 1289 603 
Q 1406 481 1766 481 
L 2356 481 
L 2356 0 
L 1766 0 
Q 1100 0 847 248 
Q 594 497 594 1153 
L 594 3053 
L 172 3053 
L 172 3500 
L 594 3500 
L 594 4494 
L 1172 4494 
z
" transform="scale(0.015625)"/>
       <path id="DejaVuSans-6e" d="M 3513 2113 
L 3513 0 
L 2938 0 
L 2938 2094 
Q 2938 2591 2744 2837 
Q 2550 3084 2163 3084 
Q 1697 3084 1428 2787 
Q 1159 2491 1159 1978 
L 1159 0 
L 581 0 
L 581 3500 
L 1159 3500 
L 1159 2956 
Q 1366 3272 1645 3428 
Q 1925 3584 2291 3584 
Q 2894 3584 3203 3211 
Q 3513 2838 3513 2113 
z
" transform="scale(0.015625)"/>
      </defs>
      <use xlink:href="#DejaVuSans-50"/>
      <use xlink:href="#DejaVuSans-6f" transform="translate(56.677734 0)"/>
      <use xlink:href="#DejaVuSans-70" transform="translate(117.859375 0)"/>
      <use xlink:href="#DejaVuSans-75" transform="translate(181.335938 0)"/>
      <use xlink:href="#DejaVuSans-6c" transform="translate(244.714844 0)"/>
      <use xlink:href="#DejaVuSans-61" transform="translate(272.498047 0)"/>
      <use xlink:href="#DejaVuSans-74" transform="translate(333.777344 0)"/>
      <use xlink:href="#DejaVuSans-69" transform="translate(372.986328 0)"/>
      <use xlink:href="#DejaVuSans-6f" transform="translate(400.769531 0)"/>
      <use xlink:href="#DejaVuSans-6e" transform="translate(461.951172 0)"/>
     </g>
    </g>
   </g>
   <g id="line2d_11">
    <path d="M 41.004261 271.583519 
L 42.370653 270.841492 
L 43.737044 270.084323 
L 45.103435 269.311701 
L 46.469826 268.523312 
L 47.836217 267.718834 
L 49.202608 266.897939 
L 50.569 266.060291 
L 51.935391 265.205549 
L 53.301782 264.333364 
L 54.668173 263.44338 
L 56.034564 262.535233 
L 57.400956 261.608554 
L 58.767347 260.662963 
L 60.133738 259.698075 
L 61.500129 258.713497 
L 62.86652 257.708825 
L 64.232912 256.683651 
L 65.599303 255.637556 
L 66.965694 254.570112 
L 68.332085 253.480885 
L 69.698476 252.369429 
L 71.064867 251.235292 
L 72.431259 250.078009 
L 73.79765 248.897109 
L 75.164041 247.69211 
L 76.530432 246.46252 
L 77.896823 245.207838 
L 79.263215 243.92755 
L 80.629606 242.621135 
L 81.995997 241.288059 
L 83.362388 239.927779 
L 84.728779 238.539739 
L 86.09517 237.123372 
L 87.461562 235.678101 
L 88.827953 234.203336 
L 90.194344 232.698474 
L 91.560735 231.162902 
L 92.927126 229.595993 
L 94.293518 227.997107 
L 95.659909 226.365592 
L 97.0263 224.700782 
L 98.392691 223.001998 
L 99.759082 221.268545 
L 101.125473 219.499717 
L 102.491865 217.694792 
L 103.858256 215.853033 
L 105.224647 213.973689 
L 106.591038 212.055991 
L 107.957429 210.099159 
L 109.323821 208.102392 
L 110.690212 206.064876 
L 112.056603 203.98578 
L 113.422994 201.864255 
L 114.789385 199.699435 
L 116.155777 197.490436 
L 117.522168 195.236358 
L 118.888559 192.936279 
L 120.25495 190.589261 
L 121.621341 188.194347 
L 122.987732 185.750559 
L 124.354124 183.256899 
L 125.720515 180.71235 
L 127.086906 178.115873 
L 128.453297 175.466409 
L 129.819688 172.762876 
L 131.18608 170.00417 
L 132.552471 167.189167 
L 133.918862 164.316716 
L 135.285253 161.385646 
L 136.651644 158.39476 
L 138.018035 155.342838 
L 139.384427 152.228634 
L 140.750818 149.050877 
L 142.117209 145.808269 
L 143.4836 142.499489 
L 144.849991 139.123184 
L 146.216383 135.677978 
L 147.582774 132.162464 
L 148.949165 128.575207 
L 150.315556 124.914744 
L 151.681947 121.179579 
L 153.048338 117.36819 
L 154.41473 113.479019 
L 155.781121 109.510481 
L 157.147512 105.460955 
L 158.513903 101.328788 
L 159.880294 97.112294 
L 161.246686 92.809752 
L 162.613077 88.419406 
L 163.979468 83.939465 
L 165.345859 79.368099 
L 166.71225 74.703443 
L 168.078642 69.943594 
L 169.445033 65.086608 
L 170.811424 60.130503 
L 172.177815 55.073256 
L 173.544206 49.912805 
L 174.910597 44.647041 
L 176.276989 39.273816 
" clip-path="url(#p6bb040f6aa)" style="fill: none; stroke: var(--black); stroke-width: 2; stroke-linecap: square"/>
   </g>
   <g id="line2d_12">
    <path d="M 41.004261 265.169325 
L 42.370653 269.386498 
L 43.737044 266.525576 
L 45.103435 261.163686 
L 46.469826 261.732765 
L 47.836217 271.272272 
L 49.202608 263.443363 
L 50.569 266.610634 
L 51.935391 265.580859 
L 53.301782 262.840404 
L 54.668173 262.919629 
L 56.034564 257.247412 
L 57.400956 258.841378 
L 58.767347 260.220546 
L 60.133738 258.084164 
L 61.500129 257.500238 
L 62.86652 252.276269 
L 64.232912 257.429618 
L 65.599303 254.499224 
L 66.965694 257.675653 
L 68.332085 262.763701 
L 69.698476 249.992835 
L 71.064867 248.092153 
L 72.431259 252.776563 
L 73.79765 240.644153 
L 75.164041 252.980266 
L 76.530432 246.29614 
L 77.896823 245.888449 
L 79.263215 238.354278 
L 80.629606 237.278463 
L 81.995997 240.724662 
L 83.362388 238.552759 
L 84.728779 241.767778 
L 86.09517 244.32566 
L 87.461562 236.943129 
L 88.827953 233.634842 
L 90.194344 228.225067 
L 91.560735 226.790981 
L 92.927126 231.004335 
L 94.293518 229.096297 
L 95.659909 230.17819 
L 97.0263 229.864048 
L 98.392691 229.206093 
L 99.759082 214.175415 
L 101.125473 221.352842 
L 102.491865 219.287655 
L 103.858256 220.408268 
L 105.224647 211.14669 
L 106.591038 217.924215 
L 107.957429 210.872694 
L 109.323821 211.358359 
L 110.690212 204.658077 
L 112.056603 205.843097 
L 113.422994 206.157101 
L 114.789385 199.801907 
L 116.155777 195.932997 
L 117.522168 194.994497 
L 118.888559 191.836474 
L 120.25495 192.895693 
L 121.621341 189.513295 
L 122.987732 188.195663 
L 124.354124 184.564255 
L 125.720515 183.668996 
L 127.086906 184.392735 
L 128.453297 174.821277 
L 129.819688 174.223774 
L 131.18608 175.931664 
L 132.552471 165.506464 
L 133.918862 167.615704 
L 135.285253 161.19677 
L 136.651644 155.743746 
L 138.018035 154.873849 
L 139.384427 148.085708 
L 140.750818 153.540773 
L 142.117209 144.345332 
L 143.4836 144.989497 
L 144.849991 142.289452 
L 146.216383 137.782709 
L 147.582774 133.295287 
L 148.949165 128.370987 
L 150.315556 129.151295 
L 151.681947 117.904123 
L 153.048338 115.675015 
L 154.41473 119.064889 
L 155.781121 104.099112 
L 157.147512 98.567394 
L 158.513903 97.042678 
L 159.880294 97.766511 
L 161.246686 96.703069 
L 162.613077 84.58536 
L 163.979468 85.405439 
L 165.345859 74.923219 
L 166.71225 73.946144 
L 168.078642 66.392479 
L 169.445033 63.790839 
L 170.811424 57.561363 
L 172.177815 55.035078 
L 173.544206 43.419278 
L 174.910597 44.185581 
L 176.276989 37.81216 
" clip-path="url(#p6bb040f6aa)" style="fill: none; stroke: #808080; stroke-opacity: 0.7; stroke-linecap: square"/>
   </g>
   <g id="line2d_13">
    <path d="M 41.004261 264.736277 
L 42.370653 275.742021 
L 43.737044 274.703878 
L 45.103435 265.78692 
L 46.469826 272.788855 
L 47.836217 260.651717 
L 49.202608 268.401881 
L 50.569 268.778079 
L 51.935391 258.213623 
L 53.301782 258.950128 
L 54.668173 256.652829 
L 56.034564 259.240804 
L 57.400956 264.740019 
L 58.767347 253.717859 
L 60.133738 260.672551 
L 61.500129 255.79572 
L 62.86652 254.264564 
L 64.232912 257.247277 
L 65.599303 253.404728 
L 66.965694 251.216917 
L 68.332085 252.11218 
L 69.698476 256.366913 
L 71.064867 250.150881 
L 72.431259 245.255195 
L 73.79765 251.422597 
L 75.164041 248.23619 
L 76.530432 248.044763 
L 77.896823 238.48381 
L 79.263215 241.483048 
L 80.629606 241.139581 
L 81.995997 244.087518 
L 83.362388 237.967038 
L 84.728779 240.99165 
L 86.09517 237.007634 
L 87.461562 237.990073 
L 88.827953 231.743786 
L 90.194344 230.601957 
L 91.560735 231.920288 
L 92.927126 228.15609 
L 94.293518 231.971541 
L 95.659909 231.78789 
L 97.0263 223.103129 
L 98.392691 222.395963 
L 99.759082 218.959535 
L 101.125473 210.834468 
L 102.491865 214.260611 
L 103.858256 219.172107 
L 105.224647 209.912154 
L 106.591038 216.840705 
L 107.957429 211.777506 
L 109.323821 208.350522 
L 110.690212 199.835065 
L 112.056603 206.693751 
L 113.422994 204.869232 
L 114.789385 200.057414 
L 116.155777 199.902881 
L 117.522168 191.139846 
L 118.888559 196.862971 
L 120.25495 194.761523 
L 121.621341 189.786286 
L 122.987732 187.561433 
L 124.354124 176.241011 
L 125.720515 177.260202 
L 127.086906 177.797532 
L 128.453297 179.922162 
L 129.819688 169.692724 
L 131.18608 173.64101 
L 132.552471 172.806042 
L 133.918862 159.996972 
L 135.285253 160.233225 
L 136.651644 155.046465 
L 138.018035 154.183926 
L 139.384427 149.113149 
L 140.750818 151.418043 
L 142.117209 149.568835 
L 143.4836 140.021173 
L 144.849991 142.044428 
L 146.216383 138.18522 
L 147.582774 133.818806 
L 148.949165 128.511652 
L 150.315556 126.201886 
L 151.681947 126.17898 
L 153.048338 119.708423 
L 154.41473 121.563439 
L 155.781121 107.237104 
L 157.147512 111.286127 
L 158.513903 105.344388 
L 159.880294 96.922619 
L 161.246686 95.498845 
L 162.613077 82.808918 
L 163.979468 88.640366 
L 165.345859 78.397087 
L 166.71225 74.846278 
L 168.078642 74.190848 
L 169.445033 63.183944 
L 170.811424 60.754255 
L 172.177815 52.266982 
L 173.544206 46.918497 
L 174.910597 36.781392 
L 176.276989 34.414125 
" clip-path="url(#p6bb040f6aa)" style="fill: none; stroke: #808080; stroke-opacity: 0.7; stroke-linecap: square"/>
   </g>
   <g id="line2d_14">
    <path d="M 41.004261 272.925885 
L 42.370653 271.711889 
L 43.737044 266.085898 
L 45.103435 266.929125 
L 46.469826 266.195757 
L 47.836217 273.598178 
L 49.202608 266.98639 
L 50.569 268.743813 
L 51.935391 264.187727 
L 53.301782 264.690244 
L 54.668173 260.133918 
L 56.034564 261.38181 
L 57.400956 258.749421 
L 58.767347 262.358889 
L 60.133738 263.132136 
L 61.500129 260.204461 
L 62.86652 257.770713 
L 64.232912 255.305034 
L 65.599303 247.42258 
L 66.965694 254.723762 
L 68.332085 256.956755 
L 69.698476 253.627439 
L 71.064867 252.920953 
L 72.431259 248.327315 
L 73.79765 254.499535 
L 75.164041 247.462086 
L 76.530432 245.893454 
L 77.896823 244.363614 
L 79.263215 246.099425 
L 80.629606 243.486232 
L 81.995997 246.466025 
L 83.362388 241.721518 
L 84.728779 240.513614 
L 86.09517 235.610591 
L 87.461562 239.882046 
L 88.827953 231.362855 
L 90.194344 227.264444 
L 91.560735 238.689485 
L 92.927126 228.046092 
L 94.293518 225.535831 
L 95.659909 228.68335 
L 97.0263 226.145285 
L 98.392691 223.485159 
L 99.759082 222.35133 
L 101.125473 220.623306 
L 102.491865 223.788837 
L 103.858256 211.66309 
L 105.224647 210.048134 
L 106.591038 215.01343 
L 107.957429 215.431161 
L 109.323821 206.207771 
L 110.690212 208.158474 
L 112.056603 203.46963 
L 113.422994 203.025351 
L 114.789385 197.184961 
L 116.155777 194.964289 
L 117.522168 197.874671 
L 118.888559 197.966269 
L 120.25495 196.344915 
L 121.621341 185.974973 
L 122.987732 190.073319 
L 124.354124 185.099712 
L 125.720515 182.880582 
L 127.086906 178.307011 
L 128.453297 182.506832 
L 129.819688 172.076466 
L 131.18608 168.099273 
L 132.552471 166.867659 
L 133.918862 165.447116 
L 135.285253 161.031493 
L 136.651644 156.943805 
L 138.018035 165.424142 
L 139.384427 145.116826 
L 140.750818 147.632475 
L 142.117209 148.180464 
L 143.4836 143.921017 
L 144.849991 137.327911 
L 146.216383 136.100139 
L 147.582774 139.546148 
L 148.949165 121.068594 
L 150.315556 125.316676 
L 151.681947 117.470174 
L 153.048338 119.884522 
L 154.41473 107.892665 
L 155.781121 108.469319 
L 157.147512 103.247164 
L 158.513903 105.129388 
L 159.880294 92.708501 
L 161.246686 90.301534 
L 162.613077 83.68582 
L 163.979468 86.223227 
L 165.345859 81.117141 
L 166.71225 66.326271 
L 168.078642 73.797871 
L 169.445033 65.580928 
L 170.811424 55.996701 
L 172.177815 54.717923 
L 173.544206 47.793152 
L 174.910597 46.09946 
L 176.276989 37.928272 
" clip-path="url(#p6bb040f6aa)" style="fill: none; stroke: #808080; stroke-opacity: 0.7; stroke-linecap: square"/>
   </g>
   <g id="line2d_15">
    <path d="M 41.004261 276.334125 
L 42.370653 264.812435 
L 43.737044 270.513974 
L 45.103435 271.784867 
L 46.469826 266.100305 
L 47.836217 269.394037 
L 49.202608 271.749378 
L 50.569 270.957032 
L 51.935391 262.68295 
L 53.301782 264.913582 
L 54.668173 263.929526 
L 56.034564 258.616496 
L 57.400956 265.705756 
L 58.767347 263.319749 
L 60.133738 261.09752 
L 61.500129 258.370429 
L 62.86652 257.862163 
L 64.232912 257.726789 
L 65.599303 255.861633 
L 66.965694 254.96028 
L 68.332085 256.097407 
L 69.698476 255.325518 
L 71.064867 250.237135 
L 72.431259 253.317427 
L 73.79765 253.105319 
L 75.164041 248.827623 
L 76.530432 247.035807 
L 77.896823 237.002263 
L 79.263215 246.48988 
L 80.629606 239.191385 
L 81.995997 238.57124 
L 83.362388 244.25085 
L 84.728779 235.728147 
L 86.09517 241.428029 
L 87.461562 245.347002 
L 88.827953 231.998724 
L 90.194344 239.082992 
L 91.560735 229.523279 
L 92.927126 232.083095 
L 94.293518 221.962886 
L 95.659909 222.480432 
L 97.0263 226.349319 
L 98.392691 225.503014 
L 99.759082 225.683 
L 101.125473 221.102937 
L 102.491865 218.714181 
L 103.858256 217.17908 
L 105.224647 213.403905 
L 106.591038 209.952454 
L 107.957429 208.827795 
L 109.323821 210.880863 
L 110.690212 211.292768 
L 112.056603 199.024265 
L 113.422994 204.371131 
L 114.789385 202.071211 
L 116.155777 199.38551 
L 117.522168 201.937863 
L 118.888559 194.674219 
L 120.25495 192.333317 
L 121.621341 185.938689 
L 122.987732 183.210929 
L 124.354124 183.243188 
L 125.720515 177.324097 
L 127.086906 176.879741 
L 128.453297 175.52343 
L 129.819688 172.177732 
L 131.18608 170.697397 
L 132.552471 168.624862 
L 133.918862 165.29021 
L 135.285253 165.487159 
L 136.651644 157.375058 
L 138.018035 158.953892 
L 139.384427 149.168415 
L 140.750818 149.957922 
L 142.117209 145.628303 
L 143.4836 140.70387 
L 144.849991 136.784057 
L 146.216383 141.388854 
L 147.582774 132.914778 
L 148.949165 125.374827 
L 150.315556 131.089153 
L 151.681947 119.771406 
L 153.048338 125.569549 
L 154.41473 117.196912 
L 155.781121 109.370018 
L 157.147512 111.484865 
L 158.513903 104.912161 
L 159.880294 102.46397 
L 161.246686 86.81704 
L 162.613077 87.822265 
L 163.979468 81.876765 
L 165.345859 80.177758 
L 166.71225 75.988541 
L 168.078642 75.821185 
L 169.445033 66.147745 
L 170.811424 62.899332 
L 172.177815 51.953796 
L 173.544206 45.763693 
L 174.910597 39.314478 
L 176.276989 36.173889 
" clip-path="url(#p6bb040f6aa)" style="fill: none; stroke: #808080; stroke-opacity: 0.7; stroke-linecap: square"/>
   </g>
   <g id="line2d_16">
    <path d="M 41.004261 273.760259 
L 42.370653 274.898957 
L 43.737044 267.296692 
L 45.103435 268.0162 
L 46.469826 274.953818 
L 47.836217 266.426282 
L 49.202608 263.936298 
L 50.569 265.846034 
L 51.935391 265.878415 
L 53.301782 267.27002 
L 54.668173 268.703062 
L 56.034564 259.625305 
L 57.400956 262.732511 
L 58.767347 261.511861 
L 60.133738 253.397803 
L 61.500129 256.224612 
L 62.86652 256.360485 
L 64.232912 256.167106 
L 65.599303 250.110768 
L 66.965694 248.317588 
L 68.332085 250.101152 
L 69.698476 250.252428 
L 71.064867 258.851387 
L 72.431259 249.628149 
L 73.79765 249.370185 
L 75.164041 247.350491 
L 76.530432 243.033551 
L 77.896823 255.169459 
L 79.263215 245.997601 
L 80.629606 241.639747 
L 81.995997 242.985536 
L 83.362388 245.07973 
L 84.728779 235.380138 
L 86.09517 236.11665 
L 87.461562 239.209092 
L 88.827953 233.058642 
L 90.194344 229.711142 
L 91.560735 231.143658 
L 92.927126 226.685094 
L 94.293518 227.712549 
L 95.659909 227.802667 
L 97.0263 228.916501 
L 98.392691 223.314447 
L 99.759082 220.562085 
L 101.125473 216.31514 
L 102.491865 218.11333 
L 103.858256 214.189844 
L 105.224647 217.481073 
L 106.591038 214.901675 
L 107.957429 210.50054 
L 109.323821 211.937081 
L 110.690212 203.082409 
L 112.056603 202.301812 
L 113.422994 200.849447 
L 114.789385 198.46716 
L 116.155777 190.141807 
L 117.522168 196.941174 
L 118.888559 200.940844 
L 120.25495 189.864595 
L 121.621341 188.378345 
L 122.987732 187.632288 
L 124.354124 186.81598 
L 125.720515 182.309268 
L 127.086906 177.456517 
L 128.453297 177.294679 
L 129.819688 163.991057 
L 131.18608 173.496619 
L 132.552471 170.072986 
L 133.918862 172.638268 
L 135.285253 160.471234 
L 136.651644 165.726529 
L 138.018035 157.304326 
L 139.384427 153.230987 
L 140.750818 151.631488 
L 142.117209 139.48563 
L 143.4836 138.883814 
L 144.849991 134.326728 
L 146.216383 138.886503 
L 147.582774 128.058832 
L 148.949165 126.77172 
L 150.315556 122.109868 
L 151.681947 117.436482 
L 153.048338 120.672505 
L 154.41473 115.021862 
L 155.781121 106.374033 
L 157.147512 115.116936 
L 158.513903 95.826241 
L 159.880294 95.101074 
L 161.246686 92.975934 
L 162.613077 87.617628 
L 163.979468 87.684368 
L 165.345859 80.640513 
L 166.71225 70.702747 
L 168.078642 65.223912 
L 169.445033 55.282984 
L 170.811424 60.399297 
L 172.177815 57.467792 
L 173.544206 51.782588 
L 174.910597 48.348699 
L 176.276989 39.556901 
" clip-path="url(#p6bb040f6aa)" style="fill: none; stroke: #808080; stroke-opacity: 0.7; stroke-linecap: square"/>
   </g>
   <g id="line2d_17">
    <path d="M 41.004261 270.191882 
L 42.370653 270.965999 
L 43.737044 266.097943 
L 45.103435 270.163323 
L 46.469826 269.786662 
L 47.836217 269.832359 
L 49.202608 272.83429 
L 50.569 271.760783 
L 51.935391 269.493034 
L 53.301782 259.601298 
L 54.668173 260.188163 
L 56.034564 257.535786 
L 57.400956 266.452551 
L 58.767347 267.820994 
L 60.133738 262.098078 
L 61.500129 258.074209 
L 62.86652 255.895559 
L 64.232912 252.873165 
L 65.599303 254.603899 
L 66.965694 248.23367 
L 68.332085 254.290292 
L 69.698476 255.689437 
L 71.064867 257.348296 
L 72.431259 253.310359 
L 73.79765 248.016755 
L 75.164041 250.923547 
L 76.530432 243.056472 
L 77.896823 240.072534 
L 79.263215 252.543502 
L 80.629606 239.479392 
L 81.995997 249.431387 
L 83.362388 238.467906 
L 84.728779 234.08604 
L 86.09517 236.887552 
L 87.461562 240.331123 
L 88.827953 236.331997 
L 90.194344 233.649832 
L 91.560735 231.825555 
L 92.927126 230.333737 
L 94.293518 228.396647 
L 95.659909 225.589367 
L 97.0263 229.095225 
L 98.392691 223.881996 
L 99.759082 215.748062 
L 101.125473 220.89831 
L 102.491865 219.308606 
L 103.858256 211.932647 
L 105.224647 223.279029 
L 106.591038 207.760432 
L 107.957429 212.396797 
L 109.323821 207.506338 
L 110.690212 205.714646 
L 112.056603 200.558913 
L 113.422994 202.837245 
L 114.789385 202.164775 
L 116.155777 192.771395 
L 117.522168 203.832628 
L 118.888559 192.862343 
L 120.25495 195.490395 
L 121.621341 190.963471 
L 122.987732 178.437516 
L 124.354124 183.419051 
L 125.720515 180.003066 
L 127.086906 184.593737 
L 128.453297 178.117257 
L 129.819688 172.048182 
L 131.18608 168.714251 
L 132.552471 164.946132 
L 133.918862 164.285345 
L 135.285253 159.469429 
L 136.651644 156.744783 
L 138.018035 161.995878 
L 139.384427 152.094079 
L 140.750818 146.25874 
L 142.117209 143.663433 
L 143.4836 143.8225 
L 144.849991 142.052488 
L 146.216383 139.744224 
L 147.582774 132.638984 
L 148.949165 124.455265 
L 150.315556 132.011614 
L 151.681947 123.578983 
L 153.048338 121.512576 
L 154.41473 110.624869 
L 155.781121 111.525982 
L 157.147512 107.17222 
L 158.513903 102.117629 
L 159.880294 95.492819 
L 161.246686 94.236501 
L 162.613077 99.495355 
L 163.979468 81.963952 
L 165.345859 77.771714 
L 166.71225 75.501707 
L 168.078642 73.885212 
L 169.445033 63.807515 
L 170.811424 58.751581 
L 172.177815 56.782323 
L 173.544206 50.700852 
L 174.910597 48.029143 
L 176.276989 39.923176 
" clip-path="url(#p6bb040f6aa)" style="fill: none; stroke: #808080; stroke-opacity: 0.7; stroke-linecap: square"/>
   </g>
   <g class="patch">
    <path d="M 34.240625 288.430125 
L 34.240625 22.318125 
" style="fill: none; stroke: var(--black); stroke-width: 0.8; stroke-linejoin: miter; stroke-linecap: square"/>
   </g>
   <g class="patch">
    <path d="M 183.040625 288.430125 
L 183.040625 22.318125 
" style="fill: none; stroke: var(--black); stroke-width: 0.8; stroke-linejoin: miter; stroke-linecap: square"/>
   </g>
   <g class="patch">
    <path d="M 34.240625 288.430125 
L 183.040625 288.430125 
" style="fill: none; stroke: var(--black); stroke-width: 0.8; stroke-linejoin: miter; stroke-linecap: square"/>
   </g>
   <g class="patch">
    <path d="M 34.240625 22.318125 
L 183.040625 22.318125 
" style="fill: none; stroke: var(--black); stroke-width: 0.8; stroke-linejoin: miter; stroke-linecap: square"/>
   </g>
   <g id="text_13" class="text">
    <!-- Bacterial Growth -->
    <g transform="translate(58.406563 16.318125) scale(0.12 -0.12)">
     <defs>
      <path id="DejaVuSans-42" d="M 1259 2228 
L 1259 519 
L 2272 519 
Q 2781 519 3026 730 
Q 3272 941 3272 1375 
Q 3272 1813 3026 2020 
Q 2781 2228 2272 2228 
L 1259 2228 
z
M 1259 4147 
L 1259 2741 
L 2194 2741 
Q 2656 2741 2882 2914 
Q 3109 3088 3109 3444 
Q 3109 3797 2882 3972 
Q 2656 4147 2194 4147 
L 1259 4147 
z
M 628 4666 
L 2241 4666 
Q 2963 4666 3353 4366 
Q 3744 4066 3744 3513 
Q 3744 3084 3544 2831 
Q 3344 2578 2956 2516 
Q 3422 2416 3680 2098 
Q 3938 1781 3938 1306 
Q 3938 681 3513 340 
Q 3088 0 2303 0 
L 628 0 
L 628 4666 
z
" transform="scale(0.015625)"/>
      <path id="DejaVuSans-63" d="M 3122 3366 
L 3122 2828 
Q 2878 2963 2633 3030 
Q 2388 3097 2138 3097 
Q 1578 3097 1268 2742 
Q 959 2388 959 1747 
Q 959 1106 1268 751 
Q 1578 397 2138 397 
Q 2388 397 2633 464 
Q 2878 531 3122 666 
L 3122 134 
Q 2881 22 2623 -34 
Q 2366 -91 2075 -91 
Q 1284 -91 818 406 
Q 353 903 353 1747 
Q 353 2603 823 3093 
Q 1294 3584 2113 3584 
Q 2378 3584 2631 3529 
Q 2884 3475 3122 3366 
z
" transform="scale(0.015625)"/>
      <path id="DejaVuSans-72" d="M 2631 2963 
Q 2534 3019 2420 3045 
Q 2306 3072 2169 3072 
Q 1681 3072 1420 2755 
Q 1159 2438 1159 1844 
L 1159 0 
L 581 0 
L 581 3500 
L 1159 3500 
L 1159 2956 
Q 1341 3275 1631 3429 
Q 1922 3584 2338 3584 
Q 2397 3584 2469 3576 
Q 2541 3569 2628 3553 
L 2631 2963 
z
" transform="scale(0.015625)"/>
      <path id="DejaVuSans-20" transform="scale(0.015625)"/>
      <path id="DejaVuSans-47" d="M 3809 666 
L 3809 1919 
L 2778 1919 
L 2778 2438 
L 4434 2438 
L 4434 434 
Q 4069 175 3628 42 
Q 3188 -91 2688 -91 
Q 1594 -91 976 548 
Q 359 1188 359 2328 
Q 359 3472 976 4111 
Q 1594 4750 2688 4750 
Q 3144 4750 3555 4637 
Q 3966 4525 4313 4306 
L 4313 3634 
Q 3963 3931 3569 4081 
Q 3175 4231 2741 4231 
Q 1884 4231 1454 3753 
Q 1025 3275 1025 2328 
Q 1025 1384 1454 906 
Q 1884 428 2741 428 
Q 3075 428 3337 486 
Q 3600 544 3809 666 
z
" transform="scale(0.015625)"/>
      <path id="DejaVuSans-77" d="M 269 3500 
L 844 3500 
L 1563 769 
L 2278 3500 
L 2956 3500 
L 3675 769 
L 4391 3500 
L 4966 3500 
L 4050 0 
L 3372 0 
L 2619 2869 
L 1863 0 
L 1184 0 
L 269 3500 
z
" transform="scale(0.015625)"/>
      <path id="DejaVuSans-68" d="M 3513 2113 
L 3513 0 
L 2938 0 
L 2938 2094 
Q 2938 2591 2744 2837 
Q 2550 3084 2163 3084 
Q 1697 3084 1428 2787 
Q 1159 2491 1159 1978 
L 1159 0 
L 581 0 
L 581 4863 
L 1159 4863 
L 1159 2956 
Q 1366 3272 1645 3428 
Q 1925 3584 2291 3584 
Q 2894 3584 3203 3211 
Q 3513 2838 3513 2113 
z
" transform="scale(0.015625)"/>
     </defs>
     <use xlink:href="#DejaVuSans-42"/>
     <use xlink:href="#DejaVuSans-61" transform="translate(68.603516 0)"/>
     <use xlink:href="#DejaVuSans-63" transform="translate(129.882812 0)"/>
     <use xlink:href="#DejaVuSans-74" transform="translate(184.863281 0)"/>
     <use xlink:href="#DejaVuSans-65" transform="translate(224.072266 0)"/>
     <use xlink:href="#DejaVuSans-72" transform="translate(285.595703 0)"/>
     <use xlink:href="#DejaVuSans-69" transform="translate(326.708984 0)"/>
     <use xlink:href="#DejaVuSans-61" transform="translate(354.492188 0)"/>
     <use xlink:href="#DejaVuSans-6c" transform="translate(415.771484 0)"/>
     <use xlink:href="#DejaVuSans-20" transform="translate(443.554688 0)"/>
     <use xlink:href="#DejaVuSans-47" transform="translate(475.341797 0)"/>
     <use xlink:href="#DejaVuSans-72" transform="translate(552.832031 0)"/>
     <use xlink:href="#DejaVuSans-6f" transform="translate(591.695312 0)"/>
     <use xlink:href="#DejaVuSans-77" transform="translate(652.876953 0)"/>
     <use xlink:href="#DejaVuSans-74" transform="translate(734.664062 0)"/>
     <use xlink:href="#DejaVuSans-68" transform="translate(773.873047 0)"/>
    </g>
   </g>
   <g class="legend">
    <g class="patch">
     <path d="M 41.240625 59.674375 
L 140.14375 59.674375 
Q 142.14375 59.674375 142.14375 57.674375 
L 142.14375 29.318125 
Q 142.14375 27.318125 140.14375 27.318125 
L 41.240625 27.318125 
Q 39.240625 27.318125 39.240625 29.318125 
L 39.240625 57.674375 
Q 39.240625 59.674375 41.240625 59.674375 
z
" style="fill: var(--white); opacity: 0.8; stroke: #cccccc; stroke-linejoin: miter"/>
    </g>
    <g id="line2d_18">
     <path d="M 43.240625 35.416562 
L 53.240625 35.416562 
L 63.240625 35.416562 
" style="fill: none; stroke: var(--black); stroke-width: 2; stroke-linecap: square"/>
    </g>
    <g id="text_14" class="text">
     <!-- Deterministic -->
     <g transform="translate(71.240625 38.916562) scale(0.1 -0.1)">
      <defs>
       <path id="DejaVuSans-44" d="M 1259 4147 
L 1259 519 
L 2022 519 
Q 2988 519 3436 956 
Q 3884 1394 3884 2338 
Q 3884 3275 3436 3711 
Q 2988 4147 2022 4147 
L 1259 4147 
z
M 628 4666 
L 1925 4666 
Q 3281 4666 3915 4102 
Q 4550 3538 4550 2338 
Q 4550 1131 3912 565 
Q 3275 0 1925 0 
L 628 0 
L 628 4666 
z
" transform="scale(0.015625)"/>
       <path id="DejaVuSans-73" d="M 2834 3397 
L 2834 2853 
Q 2591 2978 2328 3040 
Q 2066 3103 1784 3103 
Q 1356 3103 1142 2972 
Q 928 2841 928 2578 
Q 928 2378 1081 2264 
Q 1234 2150 1697 2047 
L 1894 2003 
Q 2506 1872 2764 1633 
Q 3022 1394 3022 966 
Q 3022 478 2636 193 
Q 2250 -91 1575 -91 
Q 1294 -91 989 -36 
Q 684 19 347 128 
L 347 722 
Q 666 556 975 473 
Q 1284 391 1588 391 
Q 1994 391 2212 530 
Q 2431 669 2431 922 
Q 2431 1156 2273 1281 
Q 2116 1406 1581 1522 
L 1381 1569 
Q 847 1681 609 1914 
Q 372 2147 372 2553 
Q 372 3047 722 3315 
Q 1072 3584 1716 3584 
Q 2034 3584 2315 3537 
Q 2597 3491 2834 3397 
z
" transform="scale(0.015625)"/>
      </defs>
      <use xlink:href="#DejaVuSans-44"/>
      <use xlink:href="#DejaVuSans-65" transform="translate(77.001953 0)"/>
      <use xlink:href="#DejaVuSans-74" transform="translate(138.525391 0)"/>
      <use xlink:href="#DejaVuSans-65" transform="translate(177.734375 0)"/>
      <use xlink:href="#DejaVuSans-72" transform="translate(239.257812 0)"/>
      <use xlink:href="#DejaVuSans-6d" transform="translate(278.621094 0)"/>
      <use xlink:href="#DejaVuSans-69" transform="translate(376.033203 0)"/>
      <use xlink:href="#DejaVuSans-6e" transform="translate(403.816406 0)"/>
      <use xlink:href="#DejaVuSans-69" transform="translate(467.195312 0)"/>
      <use xlink:href="#DejaVuSans-73" transform="translate(494.978516 0)"/>
      <use xlink:href="#DejaVuSans-74" transform="translate(547.078125 0)"/>
      <use xlink:href="#DejaVuSans-69" transform="translate(586.287109 0)"/>
      <use xlink:href="#DejaVuSans-63" transform="translate(614.070312 0)"/>
     </g>
    </g>
    <g id="line2d_19">
     <path d="M 43.240625 50.094687 
L 53.240625 50.094687 
L 63.240625 50.094687 
" style="fill: none; stroke: #808080; stroke-opacity: 0.7; stroke-linecap: square"/>
    </g>
    <g id="text_15" class="text">
     <!-- Stochastic -->
     <g transform="translate(71.240625 53.594687) scale(0.1 -0.1)">
      <defs>
       <path id="DejaVuSans-53" d="M 3425 4513 
L 3425 3897 
Q 3066 4069 2747 4153 
Q 2428 4238 2131 4238 
Q 1616 4238 1336 4038 
Q 1056 3838 1056 3469 
Q 1056 3159 1242 3001 
Q 1428 2844 1947 2747 
L 2328 2669 
Q 3034 2534 3370 2195 
Q 3706 1856 3706 1288 
Q 3706 609 3251 259 
Q 2797 -91 1919 -91 
Q 1588 -91 1214 -16 
Q 841 59 441 206 
L 441 856 
Q 825 641 1194 531 
Q 1563 422 1919 422 
Q 2459 422 2753 634 
Q 3047 847 3047 1241 
Q 3047 1584 2836 1778 
Q 2625 1972 2144 2069 
L 1759 2144 
Q 1053 2284 737 2584 
Q 422 2884 422 3419 
Q 422 4038 858 4394 
Q 1294 4750 2059 4750 
Q 2388 4750 2728 4690 
Q 3069 4631 3425 4513 
z
" transform="scale(0.015625)"/>
      </defs>
      <use xlink:href="#DejaVuSans-53"/>
      <use xlink:href="#DejaVuSans-74" transform="translate(63.476562 0)"/>
      <use xlink:href="#DejaVuSans-6f" transform="translate(102.685547 0)"/>
      <use xlink:href="#DejaVuSans-63" transform="translate(163.867188 0)"/>
      <use xlink:href="#DejaVuSans-68" transform="translate(218.847656 0)"/>
      <use xlink:href="#DejaVuSans-61" transform="translate(282.226562 0)"/>
      <use xlink:href="#DejaVuSans-73" transform="translate(343.505859 0)"/>
      <use xlink:href="#DejaVuSans-74" transform="translate(395.605469 0)"/>
      <use xlink:href="#DejaVuSans-69" transform="translate(434.814453 0)"/>
      <use xlink:href="#DejaVuSans-63" transform="translate(462.597656 0)"/>
     </g>
    </g>
   </g>
  </g>
  <g id="axes_2">
   <g class="patch">
    <path d="M 242.560625 288.430125 
L 391.360625 288.430125 
L 391.360625 22.318125 
L 242.560625 22.318125 
L 242.560625 288.430125 
z
" style="fill: none"/>
   </g>
   <g class="axis">
    <g class="tick xtick">
     <g id="line2d_20">
      <g>
       <use xlink:href="#m95d862f690" x="249.324261" y="288.430125" style="stroke: var(--black); stroke-width: 0.8"/>
      </g>
     </g>
     <g id="text_16" class="text">
      <!-- 0 -->
      <g transform="translate(246.143011 303.028562) scale(0.1 -0.1)">
       <use xlink:href="#DejaVuSans-30"/>
      </g>
     </g>
    </g>
    <g class="tick xtick">
     <g id="line2d_21">
      <g>
       <use xlink:href="#m95d862f690" x="317.643821" y="288.430125" style="stroke: var(--black); stroke-width: 0.8"/>
      </g>
     </g>
     <g id="text_17" class="text">
      <!-- 50 -->
      <g transform="translate(311.281321 303.028562) scale(0.1 -0.1)">
       <use xlink:href="#DejaVuSans-35"/>
       <use xlink:href="#DejaVuSans-30" transform="translate(63.623047 0)"/>
      </g>
     </g>
    </g>
    <g class="tick xtick">
     <g id="line2d_22">
      <g>
       <use xlink:href="#m95d862f690" x="385.96338" y="288.430125" style="stroke: var(--black); stroke-width: 0.8"/>
      </g>
     </g>
     <g id="text_18" class="text">
      <!-- 100 -->
      <g transform="translate(376.41963 303.028562) scale(0.1 -0.1)">
       <use xlink:href="#DejaVuSans-31"/>
       <use xlink:href="#DejaVuSans-30" transform="translate(63.623047 0)"/>
       <use xlink:href="#DejaVuSans-30" transform="translate(127.246094 0)"/>
      </g>
     </g>
    </g>
    <g id="text_19" class="text">
     <!-- Time -->
     <g transform="translate(304.727031 316.706687) scale(0.1 -0.1)">
      <use xlink:href="#DejaVuSans-54"/>
      <use xlink:href="#DejaVuSans-69" transform="translate(57.958984 0)"/>
      <use xlink:href="#DejaVuSans-6d" transform="translate(85.742188 0)"/>
      <use xlink:href="#DejaVuSans-65" transform="translate(183.154297 0)"/>
     </g>
    </g>
   </g>
   <g class="axis">
    <g class="tick ytick">
     <g id="line2d_23">
      <g>
       <use xlink:href="#mbd81d9205d" x="242.560625" y="272.241093" style="stroke: var(--black); stroke-width: 0.8"/>
      </g>
     </g>
     <g id="text_20" class="text">
      <!-- 94 -->
      <g transform="translate(222.835625 276.040312) scale(0.1 -0.1)">
       <defs>
        <path id="DejaVuSans-39" d="M 703 97 
L 703 672 
Q 941 559 1184 500 
Q 1428 441 1663 441 
Q 2288 441 2617 861 
Q 2947 1281 2994 2138 
Q 2813 1869 2534 1725 
Q 2256 1581 1919 1581 
Q 1219 1581 811 2004 
Q 403 2428 403 3163 
Q 403 3881 828 4315 
Q 1253 4750 1959 4750 
Q 2769 4750 3195 4129 
Q 3622 3509 3622 2328 
Q 3622 1225 3098 567 
Q 2575 -91 1691 -91 
Q 1453 -91 1209 -44 
Q 966 3 703 97 
z
M 1959 2075 
Q 2384 2075 2632 2365 
Q 2881 2656 2881 3163 
Q 2881 3666 2632 3958 
Q 2384 4250 1959 4250 
Q 1534 4250 1286 3958 
Q 1038 3666 1038 3163 
Q 1038 2656 1286 2365 
Q 1534 2075 1959 2075 
z
" transform="scale(0.015625)"/>
       </defs>
       <use xlink:href="#DejaVuSans-39"/>
       <use xlink:href="#DejaVuSans-34" transform="translate(63.623047 0)"/>
      </g>
     </g>
    </g>
    <g class="tick ytick">
     <g id="line2d_24">
      <g>
       <use xlink:href="#mbd81d9205d" x="242.560625" y="235.062307" style="stroke: var(--black); stroke-width: 0.8"/>
      </g>
     </g>
     <g id="text_21" class="text">
      <!-- 96 -->
      <g transform="translate(222.835625 238.861526) scale(0.1 -0.1)">
       <use xlink:href="#DejaVuSans-39"/>
       <use xlink:href="#DejaVuSans-36" transform="translate(63.623047 0)"/>
      </g>
     </g>
    </g>
    <g class="tick ytick">
     <g id="line2d_25">
      <g>
       <use xlink:href="#mbd81d9205d" x="242.560625" y="197.88352" style="stroke: var(--black); stroke-width: 0.8"/>
      </g>
     </g>
     <g id="text_22" class="text">
      <!-- 98 -->
      <g transform="translate(222.835625 201.682739) scale(0.1 -0.1)">
       <defs>
        <path id="DejaVuSans-38" d="M 2034 2216 
Q 1584 2216 1326 1975 
Q 1069 1734 1069 1313 
Q 1069 891 1326 650 
Q 1584 409 2034 409 
Q 2484 409 2743 651 
Q 3003 894 3003 1313 
Q 3003 1734 2745 1975 
Q 2488 2216 2034 2216 
z
M 1403 2484 
Q 997 2584 770 2862 
Q 544 3141 544 3541 
Q 544 4100 942 4425 
Q 1341 4750 2034 4750 
Q 2731 4750 3128 4425 
Q 3525 4100 3525 3541 
Q 3525 3141 3298 2862 
Q 3072 2584 2669 2484 
Q 3125 2378 3379 2068 
Q 3634 1759 3634 1313 
Q 3634 634 3220 271 
Q 2806 -91 2034 -91 
Q 1263 -91 848 271 
Q 434 634 434 1313 
Q 434 1759 690 2068 
Q 947 2378 1403 2484 
z
M 1172 3481 
Q 1172 3119 1398 2916 
Q 1625 2713 2034 2713 
Q 2441 2713 2670 2916 
Q 2900 3119 2900 3481 
Q 2900 3844 2670 4047 
Q 2441 4250 2034 4250 
Q 1625 4250 1398 4047 
Q 1172 3844 1172 3481 
z
" transform="scale(0.015625)"/>
       </defs>
       <use xlink:href="#DejaVuSans-39"/>
       <use xlink:href="#DejaVuSans-38" transform="translate(63.623047 0)"/>
      </g>
     </g>
    </g>
    <g class="tick ytick">
     <g id="line2d_26">
      <g>
       <use xlink:href="#mbd81d9205d" x="242.560625" y="160.704733" style="stroke: var(--black); stroke-width: 0.8"/>
      </g>
     </g>
     <g id="text_23" class="text">
      <!-- 100 -->
      <g transform="translate(216.473125 164.503952) scale(0.1 -0.1)">
       <use xlink:href="#DejaVuSans-31"/>
       <use xlink:href="#DejaVuSans-30" transform="translate(63.623047 0)"/>
       <use xlink:href="#DejaVuSans-30" transform="translate(127.246094 0)"/>
      </g>
     </g>
    </g>
    <g class="tick ytick">
     <g id="line2d_27">
      <g>
       <use xlink:href="#mbd81d9205d" x="242.560625" y="123.525947" style="stroke: var(--black); stroke-width: 0.8"/>
      </g>
     </g>
     <g id="text_24" class="text">
      <!-- 102 -->
      <g transform="translate(216.473125 127.325166) scale(0.1 -0.1)">
       <use xlink:href="#DejaVuSans-31"/>
       <use xlink:href="#DejaVuSans-30" transform="translate(63.623047 0)"/>
       <use xlink:href="#DejaVuSans-32" transform="translate(127.246094 0)"/>
      </g>
     </g>
    </g>
    <g class="tick ytick">
     <g id="line2d_28">
      <g>
       <use xlink:href="#mbd81d9205d" x="242.560625" y="86.34716" style="stroke: var(--black); stroke-width: 0.8"/>
      </g>
     </g>
     <g id="text_25" class="text">
      <!-- 104 -->
      <g transform="translate(216.473125 90.146379) scale(0.1 -0.1)">
       <use xlink:href="#DejaVuSans-31"/>
       <use xlink:href="#DejaVuSans-30" transform="translate(63.623047 0)"/>
       <use xlink:href="#DejaVuSans-34" transform="translate(127.246094 0)"/>
      </g>
     </g>
    </g>
    <g class="tick ytick">
     <g id="line2d_29">
      <g>
       <use xlink:href="#mbd81d9205d" x="242.560625" y="49.168374" style="stroke: var(--black); stroke-width: 0.8"/>
      </g>
     </g>
     <g id="text_26" class="text">
      <!-- 106 -->
      <g transform="translate(216.473125 52.967592) scale(0.1 -0.1)">
       <use xlink:href="#DejaVuSans-31"/>
       <use xlink:href="#DejaVuSans-30" transform="translate(63.623047 0)"/>
       <use xlink:href="#DejaVuSans-36" transform="translate(127.246094 0)"/>
      </g>
     </g>
    </g>
    <g id="text_27" class="text">
     <!-- Stock Price -->
     <g transform="translate(210.393438 182.999125) rotate(-90) scale(0.1 -0.1)">
      <defs>
       <path id="DejaVuSans-6b" d="M 581 4863 
L 1159 4863 
L 1159 1991 
L 2875 3500 
L 3609 3500 
L 1753 1863 
L 3688 0 
L 2938 0 
L 1159 1709 
L 1159 0 
L 581 0 
L 581 4863 
z
" transform="scale(0.015625)"/>
      </defs>
      <use xlink:href="#DejaVuSans-53"/>
      <use xlink:href="#DejaVuSans-74" transform="translate(63.476562 0)"/>
      <use xlink:href="#DejaVuSans-6f" transform="translate(102.685547 0)"/>
      <use xlink:href="#DejaVuSans-63" transform="translate(163.867188 0)"/>
      <use xlink:href="#DejaVuSans-6b" transform="translate(218.847656 0)"/>
      <use xlink:href="#DejaVuSans-20" transform="translate(276.757812 0)"/>
      <use xlink:href="#DejaVuSans-50" transform="translate(308.544922 0)"/>
      <use xlink:href="#DejaVuSans-72" transform="translate(367.097656 0)"/>
      <use xlink:href="#DejaVuSans-69" transform="translate(408.210938 0)"/>
      <use xlink:href="#DejaVuSans-63" transform="translate(435.994141 0)"/>
      <use xlink:href="#DejaVuSans-65" transform="translate(490.974609 0)"/>
     </g>
    </g>
   </g>
   <g id="line2d_30">
    <path d="M 249.324261 160.704733 
L 250.690653 130.509139 
L 252.057044 141.881319 
L 253.423435 151.699712 
L 254.789826 171.645547 
L 256.156217 155.558145 
L 257.522608 198.342353 
L 258.889 165.907361 
L 260.255391 180.057735 
L 261.621782 174.126992 
L 262.988173 178.762636 
L 264.354564 151.582936 
L 265.720956 189.879702 
L 267.087347 195.873242 
L 268.453738 203.01258 
L 269.820129 181.936494 
L 271.18652 202.382805 
L 272.552912 205.588141 
L 273.919303 221.906996 
L 275.285694 221.122268 
L 276.652085 210.288087 
L 278.018476 230.74793 
L 279.384867 209.468211 
L 280.751259 192.708186 
L 282.11765 183.367121 
L 283.484041 166.620756 
L 284.850432 179.330842 
L 286.216823 181.615296 
L 287.583215 199.010683 
L 288.949606 203.990559 
L 290.315997 194.131573 
L 291.682388 206.989127 
L 293.048779 214.364534 
L 294.41517 227.138658 
L 295.781562 242.850518 
L 297.147953 255.328576 
L 298.514344 255.564003 
L 299.880735 276.334125 
L 301.247126 271.976479 
L 302.613518 241.121764 
L 303.979909 227.327613 
L 305.3463 230.89372 
L 306.712691 247.394204 
L 308.079082 261.283423 
L 309.445473 229.821719 
L 310.811865 228.877233 
L 312.178256 240.718596 
L 313.544647 237.169593 
L 314.911038 198.127124 
L 316.277429 195.893442 
L 317.643821 184.420011 
L 319.010212 178.840027 
L 320.376603 185.388138 
L 321.742994 206.626858 
L 323.109385 213.120927 
L 324.475777 217.004144 
L 325.842168 206.099175 
L 327.208559 190.502982 
L 328.57495 173.194359 
L 329.941341 167.885464 
L 331.307732 151.431227 
L 332.674124 165.455027 
L 334.040515 142.164968 
L 335.406906 132.629914 
L 336.773297 138.171279 
L 338.139688 129.090023 
L 339.50608 130.494855 
L 340.872471 109.458551 
L 342.238862 81.206079 
L 343.605253 40.577558 
L 344.971644 66.537578 
L 346.338035 93.382777 
L 347.704427 102.760491 
L 349.070818 99.785499 
L 350.437209 83.498051 
L 351.8036 77.630589 
L 353.169991 115.222082 
L 354.536383 120.914229 
L 355.902774 105.522683 
L 357.269165 101.245361 
L 358.635556 87.080036 
L 360.001947 91.212981 
L 361.368338 94.944952 
L 362.73473 91.476889 
L 364.101121 83.854277 
L 365.467512 80.168006 
L 366.833903 77.955707 
L 368.200294 90.422912 
L 369.566686 83.404231 
L 370.933077 81.139647 
L 372.299468 60.143227 
L 373.665859 37.85607 
L 375.03225 34.414125 
L 376.398642 41.390445 
L 377.765033 53.264055 
L 379.131424 45.391552 
L 380.497815 43.953847 
L 381.864206 50.345878 
L 383.230597 49.535439 
L 384.596989 61.060879 
" clip-path="url(#p7591b18043)" style="fill: none; stroke: var(--black); stroke-width: 1.5; stroke-linecap: square"/>
   </g>
   <g class="patch">
    <path d="M 242.560625 288.430125 
L 242.560625 22.318125 
" style="fill: none; stroke: var(--black); stroke-width: 0.8; stroke-linejoin: miter; stroke-linecap: square"/>
   </g>
   <g class="patch">
    <path d="M 391.360625 288.430125 
L 391.360625 22.318125 
" style="fill: none; stroke: var(--black); stroke-width: 0.8; stroke-linejoin: miter; stroke-linecap: square"/>
   </g>
   <g class="patch">
    <path d="M 242.560625 288.430125 
L 391.360625 288.430125 
" style="fill: none; stroke: var(--black); stroke-width: 0.8; stroke-linejoin: miter; stroke-linecap: square"/>
   </g>
   <g class="patch">
    <path d="M 242.560625 22.318125 
L 391.360625 22.318125 
" style="fill: none; stroke: var(--black); stroke-width: 0.8; stroke-linejoin: miter; stroke-linecap: square"/>
   </g>
   <g id="text_28" class="text">
    <!-- Stock Price Evolution -->
    <g transform="translate(253.927813 16.318125) scale(0.12 -0.12)">
     <defs>
      <path id="DejaVuSans-45" d="M 628 4666 
L 3578 4666 
L 3578 4134 
L 1259 4134 
L 1259 2753 
L 3481 2753 
L 3481 2222 
L 1259 2222 
L 1259 531 
L 3634 531 
L 3634 0 
L 628 0 
L 628 4666 
z
" transform="scale(0.015625)"/>
      <path id="DejaVuSans-76" d="M 191 3500 
L 800 3500 
L 1894 563 
L 2988 3500 
L 3597 3500 
L 2284 0 
L 1503 0 
L 191 3500 
z
" transform="scale(0.015625)"/>
     </defs>
     <use xlink:href="#DejaVuSans-53"/>
     <use xlink:href="#DejaVuSans-74" transform="translate(63.476562 0)"/>
     <use xlink:href="#DejaVuSans-6f" transform="translate(102.685547 0)"/>
     <use xlink:href="#DejaVuSans-63" transform="translate(163.867188 0)"/>
     <use xlink:href="#DejaVuSans-6b" transform="translate(218.847656 0)"/>
     <use xlink:href="#DejaVuSans-20" transform="translate(276.757812 0)"/>
     <use xlink:href="#DejaVuSans-50" transform="translate(308.544922 0)"/>
     <use xlink:href="#DejaVuSans-72" transform="translate(367.097656 0)"/>
     <use xlink:href="#DejaVuSans-69" transform="translate(408.210938 0)"/>
     <use xlink:href="#DejaVuSans-63" transform="translate(435.994141 0)"/>
     <use xlink:href="#DejaVuSans-65" transform="translate(490.974609 0)"/>
     <use xlink:href="#DejaVuSans-20" transform="translate(552.498047 0)"/>
     <use xlink:href="#DejaVuSans-45" transform="translate(584.285156 0)"/>
     <use xlink:href="#DejaVuSans-76" transform="translate(647.46875 0)"/>
     <use xlink:href="#DejaVuSans-6f" transform="translate(706.648438 0)"/>
     <use xlink:href="#DejaVuSans-6c" transform="translate(767.830078 0)"/>
     <use xlink:href="#DejaVuSans-75" transform="translate(795.613281 0)"/>
     <use xlink:href="#DejaVuSans-74" transform="translate(858.992188 0)"/>
     <use xlink:href="#DejaVuSans-69" transform="translate(898.201172 0)"/>
     <use xlink:href="#DejaVuSans-6f" transform="translate(925.984375 0)"/>
     <use xlink:href="#DejaVuSans-6e" transform="translate(987.166016 0)"/>
    </g>
   </g>
   <g class="legend">
    <g class="patch">
     <path d="M 249.560625 44.99625 
L 333.318438 44.99625 
Q 335.318438 44.99625 335.318438 42.99625 
L 335.318438 29.318125 
Q 335.318438 27.318125 333.318438 27.318125 
L 249.560625 27.318125 
Q 247.560625 27.318125 247.560625 29.318125 
L 247.560625 42.99625 
Q 247.560625 44.99625 249.560625 44.99625 
z
" style="fill: var(--white); opacity: 0.8; stroke: #cccccc; stroke-linejoin: miter"/>
    </g>
    <g id="line2d_31">
     <path d="M 251.560625 35.416562 
L 261.560625 35.416562 
L 271.560625 35.416562 
" style="fill: none; stroke: var(--black); stroke-width: 1.5; stroke-linecap: square"/>
    </g>
    <g id="text_29" class="text">
     <!-- Stochastic -->
     <g transform="translate(279.560625 38.916562) scale(0.1 -0.1)">
      <use xlink:href="#DejaVuSans-53"/>
      <use xlink:href="#DejaVuSans-74" transform="translate(63.476562 0)"/>
      <use xlink:href="#DejaVuSans-6f" transform="translate(102.685547 0)"/>
      <use xlink:href="#DejaVuSans-63" transform="translate(163.867188 0)"/>
      <use xlink:href="#DejaVuSans-68" transform="translate(218.847656 0)"/>
      <use xlink:href="#DejaVuSans-61" transform="translate(282.226562 0)"/>
      <use xlink:href="#DejaVuSans-73" transform="translate(343.505859 0)"/>
      <use xlink:href="#DejaVuSans-74" transform="translate(395.605469 0)"/>
      <use xlink:href="#DejaVuSans-69" transform="translate(434.814453 0)"/>
      <use xlink:href="#DejaVuSans-63" transform="translate(462.597656 0)"/>
     </g>
    </g>
   </g>
  </g>
 </g>
 <defs>
  <clipPath id="p6bb040f6aa">
   <rect x="34.240625" y="22.318125" width="148.8" height="266.112"/>
  </clipPath>
  <clipPath id="p7591b18043">
   <rect x="242.560625" y="22.318125" width="148.8" height="266.112"/>
  </clipPath>
 </defs>
</svg>
