<svg xmlns="http://www.w3.org/2000/svg" xmlns:xlink="http://www.w3.org/1999/xlink" width="536.943" height="434.649" style="--axis-color:#000;--grid-stroke:rgba(0,0,0,0.2);--plot3d-stroke:rgba(0,0,0,0.3);--plot3d-grid:rgba(0,0,0,0.2);--black:#000000;--c1:#FF0001;--c2:#00FF02;--c3:#0000FF;--c4:#FF00FF;--c5:#00FFFF;--c6:#FFFF00;--c7:#FF8000;--c8:#8000FF;--gray:#7f7f7f;--grey:#7f7f7f;--octonary:#bcbd22;--primary:#d62728;--quaternary:#9467bd;--quinary:#8c564b;--secondary:#2ca02c;--senary:#e377c2;--septenary:#7f7f7f;--tertiary:#1f77b4;--white:#ffffff" viewBox="0 0 402.707 325.986"><style><![CDATA[@media (prefers-color-scheme:dark){:root{--axis-color:#fff;--grid-stroke:rgba(255,255,255,0.2);--plot3d-stroke:rgba(255,255,255,0.3);--plot3d-grid:rgba(255,255,255,0.2);--black:#FFFFFF;--c1:#FF0001;--c2:#00FF02;--c3:#0000FF;--c4:#FF00FF;--c5:#00FFFF;--c6:#FFFF00;--c7:#FF8000;--c8:#8000FF;--gray:#CCCCCC;--grey:#CCCCCC;--octonary:#E6DB74;--primary:#FF4A98;--quaternary:#B4A0FF;--quinary:#FFB86B;--secondary:#0AFAFA;--senary:#FF79C6;--septenary:#CCCCCC;--tertiary:#7F83FF;--white:#000000}}.text{fill:var(--axis-color)!important;stroke:none!important}.axis path,.patch path[style*="stroke: currentColor"],.tick path{stroke:var(--axis-color)!important}g.legend>g:first-child>path:first-child{fill:rgba(255,255,255,.8)!important;stroke:rgba(0,0,0,.1)!important}@media (prefers-color-scheme:dark){g.legend>g:first-child>path:first-child{fill:rgba(26,26,26,.8)!important;stroke:rgba(255,255,255,.1)!important}}*{stroke-linejoin:round;stroke-linecap:butt}]]></style><g id="figure_1"><path d="M0 325.986h402.707V0H0z" class="patch" style="fill:none"/><g id="axes_1"><path d="M34.24 288.43h148.8V22.318H34.24z" class="patch" style="fill:none"/><g class="axis"><g class="tick xtick"><g id="line2d_1"><defs><path id="m95d862f690" d="M0 0v3.5" style="stroke:var(--black);stroke-width:.8"/></defs><use xlink:href="#m95d862f690" x="41.004" y="288.43" style="stroke:var(--black);stroke-width:.8"/></g><g id="text_1" class="text" transform="matrix(.1 0 0 -.1 37.823 303.029)"><defs><path id="DejaVuSans-30" d="M2034 4250q-487 0-733-480-245-479-245-1442 0-959 245-1439 246-480 733-480 491 0 736 480 246 480 246 1439 0 963-246 1442-245 480-736 480zm0 500q785 0 1199-621 414-620 414-1801 0-1178-414-1799Q2819-91 2034-91q-784 0-1198 620-414 621-414 1799 0 1181 414 1801 414 621 1198 621z" transform="scale(.01563)"/></defs><use xlink:href="#DejaVuSans-30"/></g></g><g class="tick xtick"><use xlink:href="#m95d862f690" id="line2d_2" x="108.641" y="288.43" style="stroke:var(--black);stroke-width:.8"/><g id="text_2" class="text" transform="matrix(.1 0 0 -.1 105.46 303.029)"><defs><path id="DejaVuSans-35" d="M691 4666h2478v-532H1269V2991q137 47 274 70 138 23 276 23 781 0 1237-428 457-428 457-1159 0-753-469-1171Q2575-91 1722-91q-294 0-599 50Q819 9 494 109v635q281-153 581-228t634-75q541 0 856 284 316 284 316 772 0 487-316 771-315 285-856 285-253 0-505-56-251-56-513-175z" transform="scale(.01563)"/></defs><use xlink:href="#DejaVuSans-35"/></g></g><g class="tick xtick"><use xlink:href="#m95d862f690" id="line2d_3" x="176.277" y="288.43" style="stroke:var(--black);stroke-width:.8"/><g id="text_3" class="text" transform="matrix(.1 0 0 -.1 169.914 303.029)"><defs><path id="DejaVuSans-31" d="M794 531h1031v3560L703 3866v575l1116 225h631V531h1031V0H794z" transform="scale(.01563)"/></defs><use xlink:href="#DejaVuSans-31"/><use xlink:href="#DejaVuSans-30" transform="translate(63.623)"/></g></g><g id="text_4" class="text" transform="matrix(.1 0 0 -.1 96.407 316.707)"><defs><path id="DejaVuSans-54" d="M-19 4666h3947v-532H2272V0h-634v4134H-19z" transform="scale(.01563)"/><path id="DejaVuSans-69" d="M603 3500h575V0H603zm0 1363h575v-729H603z" transform="scale(.01563)"/><path id="DejaVuSans-6d" d="M3328 2828q216 388 516 572t706 184q547 0 844-383 297-382 297-1088V0h-578v2094q0 503-179 746-178 244-543 244-447 0-707-297-259-296-259-809V0h-578v2094q0 506-178 748t-550 242q-441 0-701-298-259-298-259-808V0H581v3500h578v-544q197 322 472 475t653 153q382 0 649-194 267-193 395-562z" transform="scale(.01563)"/><path id="DejaVuSans-65" d="M3597 1894v-281H953q38-594 358-905t892-311q331 0 642 81t618 244V178Q3153 47 2828-22t-659-69q-838 0-1327 487-489 488-489 1320 0 859 464 1363 464 505 1252 505 706 0 1117-455 411-454 411-1235zm-575 169q-6 471-264 752-258 282-683 282-481 0-770-272t-333-766z" transform="scale(.01563)"/></defs><use xlink:href="#DejaVuSans-54"/><use xlink:href="#DejaVuSans-69" transform="translate(57.959)"/><use xlink:href="#DejaVuSans-6d" transform="translate(85.742)"/><use xlink:href="#DejaVuSans-65" transform="translate(183.154)"/></g></g><g class="axis"><g class="tick ytick"><g id="line2d_4"><defs><path id="mbd81d9205d" d="M0 0h-3.5" style="stroke:var(--black);stroke-width:.8"/></defs><use xlink:href="#mbd81d9205d" x="34.241" y="271.584" style="stroke:var(--black);stroke-width:.8"/></g><use xlink:href="#DejaVuSans-31" id="text_5" class="text" transform="matrix(.1 0 0 -.1 20.878 275.383)"/></g><g class="tick ytick"><use xlink:href="#mbd81d9205d" id="line2d_5" x="34.241" y="235.223" style="stroke:var(--black);stroke-width:.8"/><g id="text_6" class="text" transform="matrix(.1 0 0 -.1 20.878 239.022)"><defs><path id="DejaVuSans-32" d="M1228 531h2203V0H469v531q359 372 979 998 621 627 780 809 303 340 423 576 121 236 121 464 0 372-261 606-261 235-680 235-297 0-627-103-329-103-704-313v638q381 153 712 231 332 78 607 78 725 0 1156-363 431-362 431-968 0-288-108-546-107-257-392-607-78-91-497-524-418-433-1181-1211z" transform="scale(.01563)"/></defs><use xlink:href="#DejaVuSans-32"/></g></g><g class="tick ytick"><use xlink:href="#mbd81d9205d" id="line2d_6" x="34.241" y="198.862" style="stroke:var(--black);stroke-width:.8"/><g id="text_7" class="text" transform="matrix(.1 0 0 -.1 20.878 202.662)"><defs><path id="DejaVuSans-33" d="M2597 2516q453-97 707-404 255-306 255-756 0-690-475-1069Q2609-91 1734-91q-293 0-604 58T488 141v609q262-153 574-231 313-78 654-78 593 0 904 234t311 681q0 413-289 645-289 233-804 233h-544v519h569q465 0 712 186t247 536q0 359-255 551-254 193-729 193-260 0-557-57-297-56-653-174v562q360 100 674 150t592 50q719 0 1137-327 419-326 419-882 0-388-222-655t-631-370z" transform="scale(.01563)"/></defs><use xlink:href="#DejaVuSans-33"/></g></g><g class="tick ytick"><use xlink:href="#mbd81d9205d" id="line2d_7" x="34.241" y="162.502" style="stroke:var(--black);stroke-width:.8"/><g id="text_8" class="text" transform="matrix(.1 0 0 -.1 20.878 166.301)"><defs><path id="DejaVuSans-34" d="M2419 4116 825 1625h1594zm-166 550h794V1625h666v-525h-666V0h-628v1100H313v609z" transform="scale(.01563)"/></defs><use xlink:href="#DejaVuSans-34"/></g></g><g class="tick ytick"><use xlink:href="#mbd81d9205d" id="line2d_8" x="34.241" y="126.141" style="stroke:var(--black);stroke-width:.8"/><use xlink:href="#DejaVuSans-35" id="text_9" class="text" transform="matrix(.1 0 0 -.1 20.878 129.94)"/></g><g class="tick ytick"><use xlink:href="#mbd81d9205d" id="line2d_9" x="34.241" y="89.781" style="stroke:var(--black);stroke-width:.8"/><g id="text_10" class="text" transform="matrix(.1 0 0 -.1 20.878 93.58)"><defs><path id="DejaVuSans-36" d="M2113 2584q-425 0-674-291-248-290-248-796 0-503 248-796 249-292 674-292t673 292q248 293 248 796 0 506-248 796-248 291-673 291zm1253 1979v-575q-238 112-480 171-242 60-480 60-625 0-955-422-329-422-376-1275 184 272 462 417 279 145 613 145 703 0 1111-427 408-426 408-1160 0-719-425-1154Q2819-91 2113-91q-810 0-1238 620-428 621-428 1799 0 1106 525 1764t1409 658q238 0 480-47t505-140z" transform="scale(.01563)"/></defs><use xlink:href="#DejaVuSans-36"/></g></g><g class="tick ytick"><use xlink:href="#mbd81d9205d" id="line2d_10" x="34.241" y="53.42" style="stroke:var(--black);stroke-width:.8"/><g id="text_11" class="text" transform="matrix(.1 0 0 -.1 20.878 57.22)"><defs><path id="DejaVuSans-37" d="M525 4666h3000v-269L1831 0h-659l1594 4134H525z" transform="scale(.01563)"/></defs><use xlink:href="#DejaVuSans-37"/></g></g><g id="text_12" class="text" transform="matrix(0 -.1 -.1 0 14.798 181.64)"><defs><path id="DejaVuSans-50" d="M1259 4147V2394h794q441 0 681 228 241 228 241 650 0 419-241 647-240 228-681 228zm-631 519h1425q785 0 1186-355 402-355 402-1039 0-691-402-1044-401-353-1186-353h-794V0H628z" transform="scale(.01563)"/><path id="DejaVuSans-6f" d="M1959 3097q-462 0-731-361t-269-989 267-989q268-361 733-361 460 0 728 362 269 363 269 988 0 622-269 986-268 364-728 364zm0 487q750 0 1178-488 429-487 429-1349 0-859-429-1349Q2709-91 1959-91q-753 0-1180 489-426 490-426 1349 0 862 426 1349 427 488 1180 488z" transform="scale(.01563)"/><path id="DejaVuSans-70" d="M1159 525v-1856H581v4831h578v-531q182 312 458 463 277 152 661 152 638 0 1036-506 399-506 399-1331T3314 415Q2916-91 2278-91q-384 0-661 152-276 152-458 464zm1957 1222q0 634-261 995t-717 361q-457 0-718-361t-261-995 261-995 718-361q456 0 717 361t261 995z" transform="scale(.01563)"/><path id="DejaVuSans-75" d="M544 1381v2119h575V1403q0-497 193-746 194-248 582-248 465 0 735 297 271 297 271 810v1984h575V0h-575v538q-209-319-486-474-276-155-642-155-603 0-916 375-312 375-312 1097zm1447 2203z" transform="scale(.01563)"/><path id="DejaVuSans-6c" d="M603 4863h575V0H603z" transform="scale(.01563)"/><path id="DejaVuSans-61" d="M2194 1759q-697 0-966-159t-269-544q0-306 202-486 202-179 548-179 479 0 768 339t289 901v128zm1147 238V0h-575v531q-197-318-491-470T1556-91q-537 0-855 302-317 302-317 808 0 590 395 890 396 300 1180 300h807v57q0 397-261 614t-733 217q-300 0-585-72-284-72-546-216v532q315 122 612 182 297 61 578 61 760 0 1135-394 375-393 375-1193z" transform="scale(.01563)"/><path id="DejaVuSans-74" d="M1172 4494v-994h1184v-447H1172V1153q0-428 117-550t477-122h590V0h-590q-666 0-919 248-253 249-253 905v1900H172v447h422v994z" transform="scale(.01563)"/><path id="DejaVuSans-6e" d="M3513 2113V0h-575v2094q0 497-194 743-194 247-581 247-466 0-735-297-269-296-269-809V0H581v3500h578v-544q207 316 486 472 280 156 646 156 603 0 912-373 310-373 310-1098z" transform="scale(.01563)"/></defs><use xlink:href="#DejaVuSans-50"/><use xlink:href="#DejaVuSans-6f" transform="translate(56.678)"/><use xlink:href="#DejaVuSans-70" transform="translate(117.86)"/><use xlink:href="#DejaVuSans-75" transform="translate(181.336)"/><use xlink:href="#DejaVuSans-6c" transform="translate(244.715)"/><use xlink:href="#DejaVuSans-61" transform="translate(272.498)"/><use xlink:href="#DejaVuSans-74" transform="translate(333.777)"/><use xlink:href="#DejaVuSans-69" transform="translate(372.986)"/><use xlink:href="#DejaVuSans-6f" transform="translate(400.77)"/><use xlink:href="#DejaVuSans-6e" transform="translate(461.951)"/></g></g><path id="line2d_11" d="m41.004 271.584 1.367-.743 1.366-.757 1.366-.772 1.367-.789 1.366-.804 1.367-.821 1.366-.838 1.366-.854 1.367-.873 1.366-.89 1.367-.908 1.366-.926 1.366-.946 1.367-.965 1.366-.985 1.367-1.004 1.366-1.025 1.366-1.046 1.367-1.068 1.366-1.09 1.366-1.11 1.367-1.135 1.366-1.157 1.367-1.18 1.366-1.206 1.366-1.23 1.367-1.254 1.366-1.28 1.367-1.307 1.366-1.333 1.366-1.36 1.367-1.388 1.366-1.417 1.367-1.445 1.366-1.475 1.366-1.505 1.367-1.535 1.366-1.567 1.367-1.599 1.366-1.631 1.366-1.665 1.367-1.699 1.366-1.733 1.366-1.77 1.367-1.804 1.366-1.842 1.367-1.88 1.366-1.917 1.366-1.957 1.367-1.997 1.366-2.037 1.367-2.08 1.366-2.12 1.366-2.166 1.367-2.209 1.366-2.254 1.367-2.3 1.366-2.347 1.366-2.395 1.367-2.443 1.366-2.494 1.367-2.545 1.366-2.596 1.366-2.65 1.367-2.703 1.366-2.759 1.366-2.815 1.367-2.872 1.366-2.931 1.367-2.991 1.366-3.052 1.366-3.114 1.367-3.178 1.366-3.243 1.367-3.309 1.366-3.376 1.366-3.445 1.367-3.516 1.366-3.587 1.367-3.66 1.366-3.735 1.366-3.812 1.367-3.889 1.366-3.969 1.367-4.049 1.366-4.132 1.366-4.217 1.367-4.302 1.366-4.39 1.366-4.48 1.367-4.572 1.366-4.665 1.367-4.76 1.366-4.856 1.366-4.956 1.367-5.058 1.366-5.16 1.367-5.266 1.366-5.373" clip-path="url(#p6bb040f6aa)" style="fill:none;stroke:var(--black);stroke-width:2;stroke-linecap:square"/><path id="line2d_12" d="m41.004 265.17 1.367 4.216 1.366-2.86 1.366-5.362 1.367.569 1.366 9.54 1.367-7.83 1.366 3.168 1.366-1.03 1.367-2.74 1.366.079 1.367-5.673 1.366 1.594 1.366 1.38 1.367-2.137 1.366-.584 1.367-5.224 1.366 5.154 1.366-2.93 1.367 3.176 1.366 5.088 1.366-12.771 1.367-1.9 1.366 4.684 1.367-12.133 1.366 12.336 1.366-6.684 1.367-.408 1.366-7.534 1.367-1.076 1.366 3.447 1.366-2.172 1.367 3.215 1.366 2.558 1.367-7.383 1.366-3.308 1.366-5.41 1.367-1.434 1.366 4.213 1.367-1.908 1.366 1.082 1.366-.314 1.367-.658 1.366-15.03 1.366 7.177 1.367-2.065 1.366 1.12 1.367-9.261 1.366 6.777 1.366-7.051 1.367.485 1.366-6.7 1.367 1.185 1.366.314 1.366-6.355 1.367-3.869 1.366-.939 1.367-3.158 1.366 1.06 1.366-3.383 1.367-1.317 1.366-3.632 1.367-.895 1.366.724 1.366-9.572 1.367-.597 1.366 1.708 1.366-10.426 1.367 2.11 1.366-6.42 1.367-5.452 1.366-.87 1.366-6.788 1.367 5.455 1.366-9.196 1.367.644 1.366-2.7 1.366-4.506 1.367-4.488 1.366-4.924 1.367.78 1.366-11.247 1.366-2.229 1.367 3.39 1.366-14.966 1.367-5.532 1.366-1.524 1.366.724 1.367-1.064 1.366-12.118 1.366.82 1.367-10.482 1.366-.977 1.367-7.554 1.366-2.601 1.366-6.23 1.367-2.526 1.366-11.616 1.367.767 1.366-6.374" clip-path="url(#p6bb040f6aa)" style="fill:none;stroke:gray;stroke-opacity:.7;stroke-linecap:square"/><path id="line2d_13" d="m41.004 264.736 1.367 11.006 1.366-1.038 1.366-8.917 1.367 7.002 1.366-12.137 1.367 7.75 1.366.376 1.366-10.564 1.367.736 1.366-2.297 1.367 2.588 1.366 5.499 1.366-11.022 1.367 6.955 1.366-4.877 1.367-1.531 1.366 2.982 1.366-3.842 1.367-2.188 1.366.895 1.366 4.255 1.367-6.216 1.366-4.896 1.367 6.168 1.366-3.187 1.366-.191 1.367-9.561 1.366 2.999 1.367-.343 1.366 2.948 1.366-6.121 1.367 3.025 1.366-3.984 1.367.982 1.366-6.246 1.366-1.142 1.367 1.318 1.366-3.764 1.367 3.816 1.366-.184 1.366-8.685 1.367-.707 1.366-3.436 1.366-8.126 1.367 3.427 1.366 4.911 1.367-9.26 1.366 6.929 1.366-5.063 1.367-3.427 1.366-8.516 1.367 6.859 1.366-1.825 1.366-4.812 1.367-.154 1.366-8.763 1.367 5.723 1.366-2.101 1.366-4.976 1.367-2.225 1.366-11.32 1.367 1.02 1.366.537 1.366 2.124 1.367-10.23 1.366 3.949 1.366-.835 1.367-12.809 1.366.236 1.367-5.187 1.366-.862 1.366-5.07 1.367 2.304 1.366-1.85 1.367-9.547 1.366 2.023 1.366-3.859 1.367-4.366 1.366-5.307 1.367-2.31 1.366-.023 1.366-6.47 1.367 1.854 1.366-14.326 1.367 4.05 1.366-5.943 1.366-8.421 1.367-1.424 1.366-12.69 1.366 5.831 1.367-10.243 1.366-3.55 1.367-.656 1.366-11.007 1.366-2.43 1.367-8.487 1.366-5.349 1.367-10.137 1.366-2.367" clip-path="url(#p6bb040f6aa)" style="fill:none;stroke:gray;stroke-opacity:.7;stroke-linecap:square"/><path id="line2d_14" d="m41.004 272.926 1.367-1.214 1.366-5.626 1.366.843 1.367-.733 1.366 7.402 1.367-6.612 1.366 1.758 1.366-4.556 1.367.502 1.366-4.556 1.367 1.248 1.366-2.633 1.366 3.61 1.367.773 1.366-2.928 1.367-2.433 1.366-2.466 1.366-7.882 1.367 7.3 1.366 2.234 1.366-3.33 1.367-.706 1.366-4.594 1.367 6.173 1.366-7.038 1.366-1.569 1.367-1.53 1.366 1.736 1.367-2.613 1.366 2.98 1.366-4.744 1.367-1.208 1.366-4.903 1.367 4.271 1.366-8.52 1.366-4.098 1.367 11.425 1.366-10.643 1.367-2.51 1.366 3.147 1.366-2.538 1.367-2.66 1.366-1.134 1.366-1.728 1.367 3.166 1.366-12.126 1.367-1.615 1.366 4.965 1.366.418 1.367-9.223 1.366 1.95 1.367-4.688 1.366-.445 1.366-5.84 1.367-2.22 1.366 2.91 1.367.091 1.366-1.621 1.366-10.37 1.367 4.098 1.366-4.973 1.367-2.22 1.366-4.573 1.366 4.2 1.367-10.43 1.366-3.978 1.366-1.231 1.367-1.42 1.366-4.417 1.367-4.087 1.366 8.48 1.366-20.307 1.367 2.515 1.366.548 1.367-4.259 1.366-6.593 1.366-1.228 1.367 3.446 1.366-18.477 1.367 4.248 1.366-7.847 1.366 2.415 1.367-11.992 1.366.576 1.367-5.222 1.366 1.882 1.366-12.42 1.367-2.407 1.366-6.616 1.366 2.537 1.367-5.106 1.366-14.79 1.367 7.47 1.366-8.216 1.366-9.584 1.367-1.28 1.366-6.924 1.367-1.694 1.366-8.17" clip-path="url(#p6bb040f6aa)" style="fill:none;stroke:gray;stroke-opacity:.7;stroke-linecap:square"/><path id="line2d_15" d="m41.004 276.334 1.367-11.522 1.366 5.702 1.366 1.27 1.367-5.684 1.366 3.294 1.367 2.355 1.366-.792 1.366-8.274 1.367 2.23 1.366-.983 1.367-5.314 1.366 7.09 1.366-2.386 1.367-2.222 1.366-2.728 1.367-.508 1.366-.135 1.366-1.865 1.367-.902 1.366 1.137 1.366-.771 1.367-5.089 1.366 3.08 1.367-.212 1.366-4.277 1.366-1.792 1.367-10.034 1.366 9.488 1.367-7.299 1.366-.62 1.366 5.68 1.367-8.523 1.366 5.7 1.367 3.919 1.366-13.348 1.366 7.084 1.367-9.56 1.366 2.56 1.367-10.12 1.366.517 1.366 3.87 1.367-.847 1.366.18 1.366-4.58 1.367-2.389 1.366-1.535 1.367-3.775 1.366-3.452 1.366-1.124 1.367 2.053 1.366.412 1.367-12.269 1.366 5.347 1.366-2.3 1.367-2.685 1.366 2.552 1.367-7.264 1.366-2.34 1.366-6.395 1.367-2.728 1.366.032 1.367-5.919 1.366-.444 1.366-1.357 1.367-3.345 1.366-1.48 1.366-2.073 1.367-3.335 1.366.197 1.367-8.112 1.366 1.579 1.366-9.786 1.367.79 1.366-4.33 1.367-4.924 1.366-3.92 1.366 4.605 1.367-8.474 1.366-7.54 1.367 5.714 1.366-11.318 1.366 5.799 1.367-8.373 1.366-7.827 1.367 2.115 1.366-6.573 1.366-2.448 1.367-15.647 1.366 1.005 1.366-5.945 1.367-1.7 1.366-4.188 1.367-.168 1.366-9.673 1.366-3.249 1.367-10.945 1.366-6.19 1.367-6.45 1.366-3.14" clip-path="url(#p6bb040f6aa)" style="fill:none;stroke:gray;stroke-opacity:.7;stroke-linecap:square"/><path id="line2d_16" d="m41.004 273.76 1.367 1.139 1.366-7.602 1.366.72 1.367 6.937 1.366-8.528 1.367-2.49 1.366 1.91 1.366.032 1.367 1.392 1.366 1.433 1.367-9.078 1.366 3.108 1.366-1.221 1.367-8.114 1.366 2.827 1.367.135 1.366-.193 1.366-6.056 1.367-1.793 1.366 1.783 1.366.151 1.367 8.6 1.366-9.224 1.367-.258 1.366-2.02 1.366-4.316 1.367 12.135 1.366-9.171 1.367-4.358 1.366 1.346 1.366 2.094 1.367-9.7 1.366.737 1.367 3.092 1.366-6.15 1.366-3.348 1.367 1.433 1.366-4.459 1.367 1.028 1.366.09 1.366 1.114 1.367-5.603 1.366-2.752 1.366-4.247 1.367 1.798 1.366-3.923 1.367 3.291 1.366-2.58 1.366-4.4 1.367 1.436 1.366-8.855 1.367-.78 1.366-1.453 1.366-2.382 1.367-8.325 1.366 6.8 1.367 3.999 1.366-11.076 1.366-1.487 1.367-.746 1.366-.816 1.367-4.507 1.366-4.852 1.366-.162 1.367-13.304 1.366 9.506 1.366-3.424 1.367 2.565 1.366-12.167 1.367 5.256 1.366-8.423 1.366-4.073 1.367-1.6 1.366-12.145 1.367-.602 1.366-4.557 1.366 4.56 1.367-10.828 1.366-1.287 1.367-4.662 1.366-4.674 1.366 3.237 1.367-5.651 1.366-8.648 1.367 8.743 1.366-19.29 1.366-.726 1.367-2.125 1.366-5.358 1.366.066 1.367-7.043 1.366-9.938 1.367-5.48 1.366-9.94 1.366 5.116 1.367-2.931 1.366-5.685 1.367-3.434 1.366-8.792" clip-path="url(#p6bb040f6aa)" style="fill:none;stroke:gray;stroke-opacity:.7;stroke-linecap:square"/><path id="line2d_17" d="m41.004 270.192 1.367.774 1.366-4.868 1.366 4.065 1.367-.376 1.366.045 1.367 3.002 1.366-1.073 1.366-2.268 1.367-9.892 1.366.587 1.367-2.652 1.366 8.917 1.366 1.368 1.367-5.723 1.366-4.024 1.367-2.178 1.366-3.023 1.366 1.73 1.367-6.37 1.366 6.057 1.366 1.4 1.367 1.658 1.366-4.038 1.367-5.293 1.366 2.907 1.366-7.868 1.367-2.983 1.366 12.47 1.367-13.064 1.366 9.952 1.366-10.963 1.367-4.382 1.366 2.802 1.367 3.443 1.366-3.999 1.366-2.682 1.367-1.824 1.366-1.492 1.367-1.937 1.366-2.808 1.366 3.506 1.367-5.213 1.366-8.134 1.366 5.15 1.367-1.59 1.366-7.375 1.367 11.346 1.366-15.519 1.366 4.637 1.367-4.89 1.366-1.792 1.367-5.156 1.366 2.278 1.366-.672 1.367-9.394 1.366 11.062 1.367-10.97 1.366 2.627 1.366-4.527 1.367-12.525 1.366 4.981 1.367-3.416 1.366 4.59 1.366-6.476 1.367-6.069 1.366-3.334 1.366-3.768 1.367-.66 1.366-4.817 1.367-2.724 1.366 5.25 1.366-9.9 1.367-5.836 1.366-2.596 1.367.16 1.366-1.77 1.366-2.309 1.367-7.105 1.366-8.184 1.367 7.557 1.366-8.433 1.366-2.066 1.367-10.888 1.366.901 1.367-4.354 1.366-5.054 1.366-6.625 1.367-1.256 1.366 5.258 1.366-17.531 1.367-4.192 1.366-2.27 1.367-1.617 1.366-10.077 1.366-5.056 1.367-1.97 1.366-6.081 1.367-2.672 1.366-8.106" clip-path="url(#p6bb040f6aa)" style="fill:none;stroke:gray;stroke-opacity:.7;stroke-linecap:square"/><path d="M34.24 288.43V22.318M183.04 288.43V22.318M34.24 288.43h148.8M34.24 22.318h148.8" class="patch" style="fill:none;stroke:var(--black);stroke-width:.8;stroke-linejoin:miter;stroke-linecap:square"/><g id="text_13" class="text" transform="matrix(.12 0 0 -.12 58.407 16.318)"><defs><path id="DejaVuSans-42" d="M1259 2228V519h1013q509 0 754 211 246 211 246 645 0 438-246 645-245 208-754 208zm0 1919V2741h935q462 0 688 173 227 174 227 530 0 353-227 528-226 175-688 175zm-631 519h1613q722 0 1112-300 391-300 391-853 0-429-200-682t-588-315q466-100 724-418 258-317 258-792 0-625-425-966Q3088 0 2303 0H628z" transform="scale(.01563)"/><path id="DejaVuSans-63" d="M3122 3366v-538q-244 135-489 202t-495 67q-560 0-870-355-309-354-309-995t309-996q310-354 870-354 250 0 495 67t489 202V134Q2881 22 2623-34q-257-57-548-57-791 0-1257 497-465 497-465 1341 0 856 470 1346 471 491 1290 491 265 0 518-55 253-54 491-163" transform="scale(.01563)"/><path id="DejaVuSans-72" d="M2631 2963q-97 56-211 82-114 27-251 27-488 0-749-317t-261-911V0H581v3500h578v-544q182 319 472 473 291 155 707 155 59 0 131-8 72-7 159-23z" transform="scale(.01563)"/><path id="DejaVuSans-47" d="M3809 666v1253H2778v519h1656V434q-365-259-806-392-440-133-940-133-1094 0-1712 639-617 640-617 1780 0 1144 617 1783 618 639 1712 639 456 0 867-113 411-112 758-331v-672q-350 297-744 447t-828 150q-857 0-1287-478-429-478-429-1425 0-944 429-1422 430-478 1287-478 334 0 596 58 263 58 472 180" transform="scale(.01563)"/><path id="DejaVuSans-77" d="M269 3500h575l719-2731 715 2731h678l719-2731 716 2731h575L4050 0h-678l-753 2869L1863 0h-679z" transform="scale(.01563)"/><path id="DejaVuSans-68" d="M3513 2113V0h-575v2094q0 497-194 743-194 247-581 247-466 0-735-297-269-296-269-809V0H581v4863h578V2956q207 316 486 472 280 156 646 156 603 0 912-373 310-373 310-1098" transform="scale(.01563)"/></defs><use xlink:href="#DejaVuSans-42"/><use xlink:href="#DejaVuSans-61" transform="translate(68.604)"/><use xlink:href="#DejaVuSans-63" transform="translate(129.883)"/><use xlink:href="#DejaVuSans-74" transform="translate(184.863)"/><use xlink:href="#DejaVuSans-65" transform="translate(224.072)"/><use xlink:href="#DejaVuSans-72" transform="translate(285.596)"/><use xlink:href="#DejaVuSans-69" transform="translate(326.709)"/><use xlink:href="#DejaVuSans-61" transform="translate(354.492)"/><use xlink:href="#DejaVuSans-6c" transform="translate(415.771)"/><use xlink:href="#DejaVuSans-47" transform="translate(475.342)"/><use xlink:href="#DejaVuSans-72" transform="translate(552.832)"/><use xlink:href="#DejaVuSans-6f" transform="translate(591.695)"/><use xlink:href="#DejaVuSans-77" transform="translate(652.877)"/><use xlink:href="#DejaVuSans-74" transform="translate(734.664)"/><use xlink:href="#DejaVuSans-68" transform="translate(773.873)"/></g><g class="legend"><path d="M41.24 59.674h98.904q2 0 2-2V29.318q0-2-2-2H41.24q-2 0-2 2v28.356q0 2 2 2z" class="patch" style="fill:var(--white);opacity:.8;stroke:#ccc;stroke-linejoin:miter"/><path id="line2d_18" d="M43.24 35.417h20" style="fill:none;stroke:var(--black);stroke-width:2;stroke-linecap:square"/><g id="text_14" class="text" transform="matrix(.1 0 0 -.1 71.24 38.917)"><defs><path id="DejaVuSans-44" d="M1259 4147V519h763q966 0 1414 437 448 438 448 1382 0 937-448 1373t-1414 436zm-631 519h1297q1356 0 1990-564 635-564 635-1764 0-1207-638-1773Q3275 0 1925 0H628z" transform="scale(.01563)"/><path id="DejaVuSans-73" d="M2834 3397v-544q-243 125-506 187-262 63-544 63-428 0-642-131t-214-394q0-200 153-314t616-217l197-44q612-131 870-370t258-667q0-488-386-773Q2250-91 1575-91q-281 0-586 55T347 128v594q319-166 628-249 309-82 613-82 406 0 624 139 219 139 219 392 0 234-158 359-157 125-692 241l-200 47q-534 112-772 345-237 233-237 639 0 494 350 762 350 269 994 269 318 0 599-47 282-46 519-140" transform="scale(.01563)"/></defs><use xlink:href="#DejaVuSans-44"/><use xlink:href="#DejaVuSans-65" transform="translate(77.002)"/><use xlink:href="#DejaVuSans-74" transform="translate(138.525)"/><use xlink:href="#DejaVuSans-65" transform="translate(177.734)"/><use xlink:href="#DejaVuSans-72" transform="translate(239.258)"/><use xlink:href="#DejaVuSans-6d" transform="translate(278.621)"/><use xlink:href="#DejaVuSans-69" transform="translate(376.033)"/><use xlink:href="#DejaVuSans-6e" transform="translate(403.816)"/><use xlink:href="#DejaVuSans-69" transform="translate(467.195)"/><use xlink:href="#DejaVuSans-73" transform="translate(494.979)"/><use xlink:href="#DejaVuSans-74" transform="translate(547.078)"/><use xlink:href="#DejaVuSans-69" transform="translate(586.287)"/><use xlink:href="#DejaVuSans-63" transform="translate(614.07)"/></g><path id="line2d_19" d="M43.24 50.095h20" style="fill:none;stroke:gray;stroke-opacity:.7;stroke-linecap:square"/><g id="text_15" class="text" transform="matrix(.1 0 0 -.1 71.24 53.595)"><defs><path id="DejaVuSans-53" d="M3425 4513v-616q-359 172-678 256-319 85-616 85-515 0-795-200t-280-569q0-310 186-468 186-157 705-254l381-78q706-135 1042-474t336-907q0-679-455-1029Q2797-91 1919-91q-331 0-705 75-373 75-773 222v650q384-215 753-325 369-109 725-109 540 0 834 212 294 213 294 607 0 343-211 537t-692 291l-385 75q-706 140-1022 440-315 300-315 835 0 619 436 975t1201 356q329 0 669-60 341-59 697-177" transform="scale(.01563)"/></defs><use xlink:href="#DejaVuSans-53"/><use xlink:href="#DejaVuSans-74" transform="translate(63.477)"/><use xlink:href="#DejaVuSans-6f" transform="translate(102.686)"/><use xlink:href="#DejaVuSans-63" transform="translate(163.867)"/><use xlink:href="#DejaVuSans-68" transform="translate(218.848)"/><use xlink:href="#DejaVuSans-61" transform="translate(282.227)"/><use xlink:href="#DejaVuSans-73" transform="translate(343.506)"/><use xlink:href="#DejaVuSans-74" transform="translate(395.605)"/><use xlink:href="#DejaVuSans-69" transform="translate(434.814)"/><use xlink:href="#DejaVuSans-63" transform="translate(462.598)"/></g></g></g><g id="axes_2"><path d="M242.56 288.43h148.8V22.318h-148.8z" class="patch" style="fill:none"/><g class="axis"><g class="tick xtick"><use xlink:href="#m95d862f690" id="line2d_20" x="249.324" y="288.43" style="stroke:var(--black);stroke-width:.8"/><use xlink:href="#DejaVuSans-30" id="text_16" class="text" transform="matrix(.1 0 0 -.1 246.143 303.029)"/></g><g class="tick xtick"><use xlink:href="#m95d862f690" id="line2d_21" x="317.644" y="288.43" style="stroke:var(--black);stroke-width:.8"/><g id="text_17" class="text" transform="matrix(.1 0 0 -.1 311.281 303.029)"><use xlink:href="#DejaVuSans-35"/><use xlink:href="#DejaVuSans-30" transform="translate(63.623)"/></g></g><g class="tick xtick"><use xlink:href="#m95d862f690" id="line2d_22" x="385.963" y="288.43" style="stroke:var(--black);stroke-width:.8"/><g id="text_18" class="text" transform="matrix(.1 0 0 -.1 376.42 303.029)"><use xlink:href="#DejaVuSans-31"/><use xlink:href="#DejaVuSans-30" transform="translate(63.623)"/><use xlink:href="#DejaVuSans-30" transform="translate(127.246)"/></g></g><g id="text_19" class="text" transform="matrix(.1 0 0 -.1 304.727 316.707)"><use xlink:href="#DejaVuSans-54"/><use xlink:href="#DejaVuSans-69" transform="translate(57.959)"/><use xlink:href="#DejaVuSans-6d" transform="translate(85.742)"/><use xlink:href="#DejaVuSans-65" transform="translate(183.154)"/></g></g><g class="axis"><g class="tick ytick"><use xlink:href="#mbd81d9205d" id="line2d_23" x="242.561" y="272.241" style="stroke:var(--black);stroke-width:.8"/><g id="text_20" class="text" transform="matrix(.1 0 0 -.1 222.836 276.04)"><defs><path id="DejaVuSans-39" d="M703 97v575q238-113 481-172 244-59 479-59 625 0 954 420 330 420 377 1277-181-269-460-413-278-144-615-144-700 0-1108 423-408 424-408 1159 0 718 425 1152 425 435 1131 435 810 0 1236-621 427-620 427-1801 0-1103-524-1761Q2575-91 1691-91q-238 0-482 47Q966 3 703 97zm1256 1978q425 0 673 290 249 291 249 798 0 503-249 795-248 292-673 292t-673-292-248-795q0-507 248-798 248-290 673-290z" transform="scale(.01563)"/></defs><use xlink:href="#DejaVuSans-39"/><use xlink:href="#DejaVuSans-34" transform="translate(63.623)"/></g></g><g class="tick ytick"><use xlink:href="#mbd81d9205d" id="line2d_24" x="242.561" y="235.062" style="stroke:var(--black);stroke-width:.8"/><g id="text_21" class="text" transform="matrix(.1 0 0 -.1 222.836 238.862)"><use xlink:href="#DejaVuSans-39"/><use xlink:href="#DejaVuSans-36" transform="translate(63.623)"/></g></g><g class="tick ytick"><use xlink:href="#mbd81d9205d" id="line2d_25" x="242.561" y="197.884" style="stroke:var(--black);stroke-width:.8"/><g id="text_22" class="text" transform="matrix(.1 0 0 -.1 222.836 201.683)"><defs><path id="DejaVuSans-38" d="M2034 2216q-450 0-708-241-257-241-257-662 0-422 257-663 258-241 708-241t709 242q260 243 260 662 0 421-258 662-257 241-711 241zm-631 268q-406 100-633 378-226 279-226 679 0 559 398 884 399 325 1092 325 697 0 1094-325t397-884q0-400-227-679-226-278-629-378 456-106 710-416 255-309 255-755 0-679-414-1042Q2806-91 2034-91q-771 0-1186 362-414 363-414 1042 0 446 256 755 257 310 713 416zm-231 997q0-362 226-565 227-203 636-203 407 0 636 203 230 203 230 565 0 363-230 566-229 203-636 203-409 0-636-203-226-203-226-566z" transform="scale(.01563)"/></defs><use xlink:href="#DejaVuSans-39"/><use xlink:href="#DejaVuSans-38" transform="translate(63.623)"/></g></g><g class="tick ytick"><use xlink:href="#mbd81d9205d" id="line2d_26" x="242.561" y="160.705" style="stroke:var(--black);stroke-width:.8"/><g id="text_23" class="text" transform="matrix(.1 0 0 -.1 216.473 164.504)"><use xlink:href="#DejaVuSans-31"/><use xlink:href="#DejaVuSans-30" transform="translate(63.623)"/><use xlink:href="#DejaVuSans-30" transform="translate(127.246)"/></g></g><g class="tick ytick"><use xlink:href="#mbd81d9205d" id="line2d_27" x="242.561" y="123.526" style="stroke:var(--black);stroke-width:.8"/><g id="text_24" class="text" transform="matrix(.1 0 0 -.1 216.473 127.325)"><use xlink:href="#DejaVuSans-31"/><use xlink:href="#DejaVuSans-30" transform="translate(63.623)"/><use xlink:href="#DejaVuSans-32" transform="translate(127.246)"/></g></g><g class="tick ytick"><use xlink:href="#mbd81d9205d" id="line2d_28" x="242.561" y="86.347" style="stroke:var(--black);stroke-width:.8"/><g id="text_25" class="text" transform="matrix(.1 0 0 -.1 216.473 90.146)"><use xlink:href="#DejaVuSans-31"/><use xlink:href="#DejaVuSans-30" transform="translate(63.623)"/><use xlink:href="#DejaVuSans-34" transform="translate(127.246)"/></g></g><g class="tick ytick"><use xlink:href="#mbd81d9205d" id="line2d_29" x="242.561" y="49.168" style="stroke:var(--black);stroke-width:.8"/><g id="text_26" class="text" transform="matrix(.1 0 0 -.1 216.473 52.968)"><use xlink:href="#DejaVuSans-31"/><use xlink:href="#DejaVuSans-30" transform="translate(63.623)"/><use xlink:href="#DejaVuSans-36" transform="translate(127.246)"/></g></g><g id="text_27" class="text" transform="matrix(0 -.1 -.1 0 210.393 183)"><defs><path id="DejaVuSans-6b" d="M581 4863h578V1991l1716 1509h734L1753 1863 3688 0h-750L1159 1709V0H581z" transform="scale(.01563)"/></defs><use xlink:href="#DejaVuSans-53"/><use xlink:href="#DejaVuSans-74" transform="translate(63.477)"/><use xlink:href="#DejaVuSans-6f" transform="translate(102.686)"/><use xlink:href="#DejaVuSans-63" transform="translate(163.867)"/><use xlink:href="#DejaVuSans-6b" transform="translate(218.848)"/><use xlink:href="#DejaVuSans-50" transform="translate(308.545)"/><use xlink:href="#DejaVuSans-72" transform="translate(367.098)"/><use xlink:href="#DejaVuSans-69" transform="translate(408.21)"/><use xlink:href="#DejaVuSans-63" transform="translate(435.994)"/><use xlink:href="#DejaVuSans-65" transform="translate(490.975)"/></g></g><path id="line2d_30" d="m249.324 160.705 1.367-30.196 1.366 11.372 1.366 9.819 1.367 19.946 1.366-16.088 1.367 42.784 1.366-32.435 1.366 14.15 1.367-5.93 1.366 4.636 1.367-27.18 1.366 38.297 1.366 5.993 1.367 7.14 1.366-21.077 1.367 20.447 1.366 3.205 1.366 16.319 1.367-.785 1.366-10.834 1.366 20.46 1.367-21.28 1.366-16.76 1.367-9.34 1.366-16.747 1.366 12.71 1.367 2.284 1.366 17.396 1.367 4.98 1.366-9.86 1.366 12.858 1.367 7.376 1.366 12.774 1.367 15.712 1.366 12.478 1.366.235 1.367 20.77 1.366-4.358 1.367-30.854 1.366-13.794 1.366 3.566 1.367 16.5 1.366 13.89 1.366-31.462 1.367-.945 1.366 11.842 1.367-3.55 1.366-39.042 1.366-2.234 1.367-11.473 1.366-5.58 1.367 6.548 1.366 21.239 1.366 6.494 1.367 3.883 1.366-10.905 1.367-15.596 1.366-17.309 1.366-5.309 1.367-16.454 1.366 14.024 1.367-23.29 1.366-9.535 1.366 5.541 1.367-9.081 1.366 1.405 1.366-21.036 1.367-28.253 1.366-40.628 1.367 25.96 1.366 26.845 1.366 9.377 1.367-2.975 1.366-16.287 1.367-5.867 1.366 37.591 1.366 5.692 1.367-15.391 1.366-4.278 1.367-14.165 1.366 4.133 1.366 3.732 1.367-3.468 1.366-7.623 1.367-3.686 1.366-2.212 1.366 12.467 1.367-7.019 1.366-2.264 1.366-20.997 1.367-22.287 1.366-3.442 1.367 6.976 1.366 11.874 1.366-7.872 1.367-1.438 1.366 6.392 1.367-.81 1.366 11.525" clip-path="url(#p7591b18043)" style="fill:none;stroke:var(--black);stroke-width:1.5;stroke-linecap:square"/><path d="M242.56 288.43V22.318M391.36 288.43V22.318M242.56 288.43h148.8M242.56 22.318h148.8" class="patch" style="fill:none;stroke:var(--black);stroke-width:.8;stroke-linejoin:miter;stroke-linecap:square"/><g id="text_28" class="text" transform="matrix(.12 0 0 -.12 253.928 16.318)"><defs><path id="DejaVuSans-45" d="M628 4666h2950v-532H1259V2753h2222v-531H1259V531h2375V0H628z" transform="scale(.01563)"/><path id="DejaVuSans-76" d="M191 3500h609L1894 563l1094 2937h609L2284 0h-781z" transform="scale(.01563)"/></defs><use xlink:href="#DejaVuSans-53"/><use xlink:href="#DejaVuSans-74" transform="translate(63.477)"/><use xlink:href="#DejaVuSans-6f" transform="translate(102.686)"/><use xlink:href="#DejaVuSans-63" transform="translate(163.867)"/><use xlink:href="#DejaVuSans-6b" transform="translate(218.848)"/><use xlink:href="#DejaVuSans-50" transform="translate(308.545)"/><use xlink:href="#DejaVuSans-72" transform="translate(367.098)"/><use xlink:href="#DejaVuSans-69" transform="translate(408.21)"/><use xlink:href="#DejaVuSans-63" transform="translate(435.994)"/><use xlink:href="#DejaVuSans-65" transform="translate(490.975)"/><use xlink:href="#DejaVuSans-45" transform="translate(584.285)"/><use xlink:href="#DejaVuSans-76" transform="translate(647.469)"/><use xlink:href="#DejaVuSans-6f" transform="translate(706.648)"/><use xlink:href="#DejaVuSans-6c" transform="translate(767.83)"/><use xlink:href="#DejaVuSans-75" transform="translate(795.613)"/><use xlink:href="#DejaVuSans-74" transform="translate(858.992)"/><use xlink:href="#DejaVuSans-69" transform="translate(898.201)"/><use xlink:href="#DejaVuSans-6f" transform="translate(925.984)"/><use xlink:href="#DejaVuSans-6e" transform="translate(987.166)"/></g><g class="legend"><path d="M249.56 44.996h83.758q2 0 2-2V29.318q0-2-2-2h-83.757q-2 0-2 2v13.678q0 2 2 2z" class="patch" style="fill:var(--white);opacity:.8;stroke:#ccc;stroke-linejoin:miter"/><path id="line2d_31" d="M251.56 35.417h20" style="fill:none;stroke:var(--black);stroke-width:1.5;stroke-linecap:square"/><g id="text_29" class="text" transform="matrix(.1 0 0 -.1 279.56 38.917)"><use xlink:href="#DejaVuSans-53"/><use xlink:href="#DejaVuSans-74" transform="translate(63.477)"/><use xlink:href="#DejaVuSans-6f" transform="translate(102.686)"/><use xlink:href="#DejaVuSans-63" transform="translate(163.867)"/><use xlink:href="#DejaVuSans-68" transform="translate(218.848)"/><use xlink:href="#DejaVuSans-61" transform="translate(282.227)"/><use xlink:href="#DejaVuSans-73" transform="translate(343.506)"/><use xlink:href="#DejaVuSans-74" transform="translate(395.605)"/><use xlink:href="#DejaVuSans-69" transform="translate(434.814)"/><use xlink:href="#DejaVuSans-63" transform="translate(462.598)"/></g></g></g></g><defs><clipPath id="p6bb040f6aa"><path d="M34.241 22.318h148.8V288.43h-148.8z"/></clipPath><clipPath id="p7591b18043"><path d="M242.561 22.318h148.8V288.43h-148.8z"/></clipPath></defs></svg>