<?xml version="1.0" encoding="utf-8" standalone="no"?>
<!DOCTYPE svg PUBLIC "-//W3C//DTD SVG 1.1//EN"
  "http://www.w3.org/Graphics/SVG/1.1/DTD/svg11.dtd">
<svg xmlns:xlink="http://www.w3.org/1999/xlink" width="350.03375pt" height="227.020062pt" viewBox="0 0 350.03375 227.020062" xmlns="http://www.w3.org/2000/svg" version="1.1">
<style>:root { --axis-color:#000; --grid-stroke:rgba(0,0,0,0.2); --plot3d-stroke:rgba(0,0,0,0.3); --plot3d-grid:rgba(0,0,0,0.2); }
@media (prefers-color-scheme:dark) { :root { --axis-color:#fff; --grid-stroke:rgba(255,255,255,0.2); --plot3d-stroke:rgba(255,255,255,0.3); --plot3d-grid:rgba(255,255,255,0.2); } }
.black{fill:#000000;stroke:#000000;}:root{--black:#000000;}.c1{fill:#FF0001;stroke:#FF0001;}:root{--c1:#FF0001;}.c2{fill:#00FF02;stroke:#00FF02;}:root{--c2:#00FF02;}.c3{fill:#0000FF;stroke:#0000FF;}:root{--c3:#0000FF;}.c4{fill:#FF00FF;stroke:#FF00FF;}:root{--c4:#FF00FF;}.c5{fill:#00FFFF;stroke:#00FFFF;}:root{--c5:#00FFFF;}.c6{fill:#FFFF00;stroke:#FFFF00;}:root{--c6:#FFFF00;}.c7{fill:#FF8000;stroke:#FF8000;}:root{--c7:#FF8000;}.c8{fill:#8000FF;stroke:#8000FF;}:root{--c8:#8000FF;}.gray{fill:#7f7f7f;stroke:#7f7f7f;}:root{--gray:#7f7f7f;}.grey{fill:#7f7f7f;stroke:#7f7f7f;}:root{--grey:#7f7f7f;}.octonary{fill:#bcbd22;stroke:#bcbd22;}:root{--octonary:#bcbd22;}.primary{fill:#d62728;stroke:#d62728;}:root{--primary:#d62728;}.quaternary{fill:#9467bd;stroke:#9467bd;}:root{--quaternary:#9467bd;}.quinary{fill:#8c564b;stroke:#8c564b;}:root{--quinary:#8c564b;}.secondary{fill:#2ca02c;stroke:#2ca02c;}:root{--secondary:#2ca02c;}.senary{fill:#e377c2;stroke:#e377c2;}:root{--senary:#e377c2;}.septenary{fill:#7f7f7f;stroke:#7f7f7f;}:root{--septenary:#7f7f7f;}.tertiary{fill:#1f77b4;stroke:#1f77b4;}:root{--tertiary:#1f77b4;}.white{fill:#ffffff;stroke:#ffffff;}:root{--white:#ffffff;}
@media (prefers-color-scheme:dark) { .black{fill:#FFFFFF;stroke:#FFFFFF;}:root{--black:#FFFFFF;}.c1{fill:#FF0001;stroke:#FF0001;}:root{--c1:#FF0001;}.c2{fill:#00FF02;stroke:#00FF02;}:root{--c2:#00FF02;}.c3{fill:#0000FF;stroke:#0000FF;}:root{--c3:#0000FF;}.c4{fill:#FF00FF;stroke:#FF00FF;}:root{--c4:#FF00FF;}.c5{fill:#00FFFF;stroke:#00FFFF;}:root{--c5:#00FFFF;}.c6{fill:#FFFF00;stroke:#FFFF00;}:root{--c6:#FFFF00;}.c7{fill:#FF8000;stroke:#FF8000;}:root{--c7:#FF8000;}.c8{fill:#8000FF;stroke:#8000FF;}:root{--c8:#8000FF;}.gray{fill:#CCCCCC;stroke:#CCCCCC;}:root{--gray:#CCCCCC;}.grey{fill:#CCCCCC;stroke:#CCCCCC;}:root{--grey:#CCCCCC;}.octonary{fill:#E6DB74;stroke:#E6DB74;}:root{--octonary:#E6DB74;}.primary{fill:#FF4A98;stroke:#FF4A98;}:root{--primary:#FF4A98;}.quaternary{fill:#B4A0FF;stroke:#B4A0FF;}:root{--quaternary:#B4A0FF;}.quinary{fill:#FFB86B;stroke:#FFB86B;}:root{--quinary:#FFB86B;}.secondary{fill:#0AFAFA;stroke:#0AFAFA;}:root{--secondary:#0AFAFA;}.senary{fill:#FF79C6;stroke:#FF79C6;}:root{--senary:#FF79C6;}.septenary{fill:#CCCCCC;stroke:#CCCCCC;}:root{--septenary:#CCCCCC;}.tertiary{fill:#7F83FF;stroke:#7F83FF;}:root{--tertiary:#7F83FF;}.white{fill:#000000;stroke:#000000;}:root{--white:#000000;} }
text,.text { fill:var(--axis-color)!important; stroke:none!important; }
.axis line,.axis path,.tick line,.tick path,path.domain,line.grid { stroke:var(--axis-color)!important; }
.legend text { fill:var(--axis-color)!important; }
.patch path[style*="stroke: currentColor"] { stroke:var(--axis-color)!important; }
g.legend>g:first-child>path:first-child { fill:rgba(255,255,255,0.8)!important; stroke:rgba(0,0,0,0.1)!important; }
@media (prefers-color-scheme:dark) { g.legend>g:first-child>path:first-child { fill:rgba(26,26,26,0.8)!important; stroke:rgba(255,255,255,0.1)!important; } }
.plot3d path,.plot3d polygon { stroke:var(--plot3d-stroke)!important; }
.plot3d-grid line { stroke:var(--plot3d-grid)!important; }
.plot3d-surface path[style*="fill:"] { fill-opacity:0.9!important; }
@media (prefers-color-scheme:dark) { .plot3d-surface path[style*="fill:"] { fill-opacity:0.95!important; filter:saturate(1.2)!important; } }</style>

 <metadata>
  <rdf:RDF xmlns:dc="http://purl.org/dc/elements/1.1/" xmlns:cc="http://creativecommons.org/ns#" xmlns:rdf="http://www.w3.org/1999/02/22-rdf-syntax-ns#">
   <cc:Work>
    <dc:type rdf:resource="http://purl.org/dc/dcmitype/StillImage"/>
    <dc:date>2026-05-06T23:46:23.050012</dc:date>
    <dc:format>image/svg+xml</dc:format>
    <dc:creator>
     <cc:Agent>
      <dc:title>Matplotlib v3.10.1, https://matplotlib.org/</dc:title>
     </cc:Agent>
    </dc:creator>
   </cc:Work>
  </rdf:RDF>
 </metadata>
 <defs>
  <style type="text/css">*{stroke-linejoin: round; stroke-linecap: butt}</style>
 </defs>
 <g id="figure_1">
  <g class="patch">
   <path d="M 0 227.020062 
L 350.03375 227.020062 
L 350.03375 0 
L 0 0 
L 0 227.020062 
z
" style="fill: none"/>
  </g>
  <g id="axes_1">
   <g class="patch">
    <path d="M 39.53375 192.096 
L 346.43375 192.096 
L 346.43375 3.6 
L 39.53375 3.6 
L 39.53375 192.096 
z
" style="fill: none"/>
   </g>
   <g class="axis">
    <g class="tick xtick">
     <g id="line2d_1">
      <path d="M 45.435673 192.096 
L 45.435673 3.6 
" clip-path="url(#pfff15a92ca)" style="fill: none; stroke: #b0b0b0; stroke-opacity: 0.15; stroke-width: 0.5; stroke-linecap: square"/>
     </g>
     <g id="line2d_2">
      <defs>
       <path id="m6d77e8c7e3" d="M 0 0 
L 0 3.5 
" style="stroke:var(--black); stroke-width: 0.8"/>
      </defs>
      <g>
       <use xlink:href="#m6d77e8c7e3" x="45.435673" y="192.096" style="stroke:var(--black); stroke-width: 0.8"/>
      </g>
     </g>
     <g id="text_1" class="text">
      <!-- $\mathdefault{−1}$ -->
      <g transform="translate(38.775673 205.934594) scale(0.09 -0.09)">
       <defs>
        <path id="DejaVuSerif-2212" d="M 678 2259 
L 4684 2259 
L 4684 1753 
L 678 1753 
L 678 2259 
z
" transform="scale(0.015625)"/>
        <path id="DejaVuSerif-31" d="M 909 0 
L 909 331 
L 1722 331 
L 1722 4213 
L 781 3603 
L 781 4013 
L 1919 4750 
L 2350 4750 
L 2350 331 
L 3163 331 
L 3163 0 
L 909 0 
z
" transform="scale(0.015625)"/>
       </defs>
       <use xlink:href="#DejaVuSerif-2212" transform="translate(0 0.78125)"/>
       <use xlink:href="#DejaVuSerif-31" transform="translate(83.789062 0.78125)"/>
      </g>
     </g>
    </g>
    <g class="tick xtick">
     <g id="line2d_3">
      <path d="M 104.454904 192.096 
L 104.454904 3.6 
" clip-path="url(#pfff15a92ca)" style="fill: none; stroke: #b0b0b0; stroke-opacity: 0.15; stroke-width: 0.5; stroke-linecap: square"/>
     </g>
     <g id="line2d_4">
      <g>
       <use xlink:href="#m6d77e8c7e3" x="104.454904" y="192.096" style="stroke:var(--black); stroke-width: 0.8"/>
      </g>
     </g>
     <g id="text_2" class="text">
      <!-- $\mathdefault{0}$ -->
      <g transform="translate(101.574904 205.934594) scale(0.09 -0.09)">
       <defs>
        <path id="DejaVuSerif-30" d="M 2034 219 
Q 2513 219 2750 744 
Q 2988 1269 2988 2328 
Q 2988 3391 2750 3916 
Q 2513 4441 2034 4441 
Q 1556 4441 1318 3916 
Q 1081 3391 1081 2328 
Q 1081 1269 1318 744 
Q 1556 219 2034 219 
z
M 2034 -91 
Q 1275 -91 848 546 
Q 422 1184 422 2328 
Q 422 3475 848 4112 
Q 1275 4750 2034 4750 
Q 2797 4750 3222 4112 
Q 3647 3475 3647 2328 
Q 3647 1184 3222 546 
Q 2797 -91 2034 -91 
z
" transform="scale(0.015625)"/>
       </defs>
       <use xlink:href="#DejaVuSerif-30" transform="translate(0 0.78125)"/>
      </g>
     </g>
    </g>
    <g class="tick xtick">
     <g id="line2d_5">
      <path d="M 163.474135 192.096 
L 163.474135 3.6 
" clip-path="url(#pfff15a92ca)" style="fill: none; stroke: #b0b0b0; stroke-opacity: 0.15; stroke-width: 0.5; stroke-linecap: square"/>
     </g>
     <g id="line2d_6">
      <g>
       <use xlink:href="#m6d77e8c7e3" x="163.474135" y="192.096" style="stroke:var(--black); stroke-width: 0.8"/>
      </g>
     </g>
     <g id="text_3" class="text">
      <!-- $\mathdefault{1}$ -->
      <g transform="translate(160.594135 205.934594) scale(0.09 -0.09)">
       <use xlink:href="#DejaVuSerif-31" transform="translate(0 0.78125)"/>
      </g>
     </g>
    </g>
    <g class="tick xtick">
     <g id="line2d_7">
      <path d="M 222.493365 192.096 
L 222.493365 3.6 
" clip-path="url(#pfff15a92ca)" style="fill: none; stroke: #b0b0b0; stroke-opacity: 0.15; stroke-width: 0.5; stroke-linecap: square"/>
     </g>
     <g id="line2d_8">
      <g>
       <use xlink:href="#m6d77e8c7e3" x="222.493365" y="192.096" style="stroke:var(--black); stroke-width: 0.8"/>
      </g>
     </g>
     <g id="text_4" class="text">
      <!-- $\mathdefault{2}$ -->
      <g transform="translate(219.613365 205.934594) scale(0.09 -0.09)">
       <defs>
        <path id="DejaVuSerif-32" d="M 819 3553 
L 469 3553 
L 469 4384 
Q 803 4563 1142 4656 
Q 1481 4750 1806 4750 
Q 2534 4750 2956 4397 
Q 3378 4044 3378 3438 
Q 3378 2753 2422 1800 
Q 2347 1728 2309 1691 
L 1131 513 
L 3078 513 
L 3078 1088 
L 3444 1088 
L 3444 0 
L 434 0 
L 434 341 
L 1850 1753 
Q 2319 2222 2519 2614 
Q 2719 3006 2719 3438 
Q 2719 3909 2473 4175 
Q 2228 4441 1797 4441 
Q 1350 4441 1106 4219 
Q 863 3997 819 3553 
z
" transform="scale(0.015625)"/>
       </defs>
       <use xlink:href="#DejaVuSerif-32" transform="translate(0 0.78125)"/>
      </g>
     </g>
    </g>
    <g class="tick xtick">
     <g id="line2d_9">
      <path d="M 281.512596 192.096 
L 281.512596 3.6 
" clip-path="url(#pfff15a92ca)" style="fill: none; stroke: #b0b0b0; stroke-opacity: 0.15; stroke-width: 0.5; stroke-linecap: square"/>
     </g>
     <g id="line2d_10">
      <g>
       <use xlink:href="#m6d77e8c7e3" x="281.512596" y="192.096" style="stroke:var(--black); stroke-width: 0.8"/>
      </g>
     </g>
     <g id="text_5" class="text">
      <!-- $\mathdefault{3}$ -->
      <g transform="translate(278.632596 205.934594) scale(0.09 -0.09)">
       <defs>
        <path id="DejaVuSerif-33" d="M 622 4469 
Q 988 4606 1323 4678 
Q 1659 4750 1953 4750 
Q 2638 4750 3022 4454 
Q 3406 4159 3406 3634 
Q 3406 3213 3140 2930 
Q 2875 2647 2388 2547 
Q 2963 2466 3280 2130 
Q 3597 1794 3597 1259 
Q 3597 606 3158 257 
Q 2719 -91 1894 -91 
Q 1528 -91 1179 -12 
Q 831 66 488 225 
L 488 1131 
L 838 1131 
Q 869 681 1141 450 
Q 1413 219 1906 219 
Q 2384 219 2661 495 
Q 2938 772 2938 1253 
Q 2938 1803 2653 2086 
Q 2369 2369 1819 2369 
L 1522 2369 
L 1522 2688 
L 1678 2688 
Q 2225 2688 2498 2914 
Q 2772 3141 2772 3597 
Q 2772 4006 2547 4223 
Q 2322 4441 1900 4441 
Q 1478 4441 1245 4241 
Q 1013 4041 972 3647 
L 622 3647 
L 622 4469 
z
" transform="scale(0.015625)"/>
       </defs>
       <use xlink:href="#DejaVuSerif-33" transform="translate(0 0.78125)"/>
      </g>
     </g>
    </g>
    <g class="tick xtick">
     <g id="line2d_11">
      <path d="M 340.531827 192.096 
L 340.531827 3.6 
" clip-path="url(#pfff15a92ca)" style="fill: none; stroke: #b0b0b0; stroke-opacity: 0.15; stroke-width: 0.5; stroke-linecap: square"/>
     </g>
     <g id="line2d_12">
      <g>
       <use xlink:href="#m6d77e8c7e3" x="340.531827" y="192.096" style="stroke:var(--black); stroke-width: 0.8"/>
      </g>
     </g>
     <g id="text_6" class="text">
      <!-- $\mathdefault{4}$ -->
      <g transform="translate(337.651827 205.934594) scale(0.09 -0.09)">
       <defs>
        <path id="DejaVuSerif-34" d="M 2234 1581 
L 2234 4063 
L 641 1581 
L 2234 1581 
z
M 3609 0 
L 1484 0 
L 1484 331 
L 2234 331 
L 2234 1247 
L 197 1247 
L 197 1588 
L 2241 4750 
L 2859 4750 
L 2859 1581 
L 3750 1581 
L 3750 1247 
L 2859 1247 
L 2859 331 
L 3609 331 
L 3609 0 
z
" transform="scale(0.015625)"/>
       </defs>
       <use xlink:href="#DejaVuSerif-34" transform="translate(0 0.78125)"/>
      </g>
     </g>
    </g>
    <g id="text_7" class="text">
     <!-- $x_1$ -->
     <g transform="translate(187.04375 220.924437) scale(0.12 -0.12)">
      <defs>
       <path id="Cmmi10-78" d="M 500 184 
Q 613 97 819 97 
Q 1019 97 1172 289 
Q 1325 481 1381 709 
L 1672 1844 
Q 1741 2153 1741 2266 
Q 1741 2425 1652 2544 
Q 1563 2663 1403 2663 
Q 1200 2663 1022 2536 
Q 844 2409 722 2214 
Q 600 2019 550 1819 
Q 538 1778 500 1778 
L 422 1778 
Q 372 1778 372 1838 
L 372 1856 
Q 434 2094 584 2320 
Q 734 2547 951 2687 
Q 1169 2828 1416 2828 
Q 1650 2828 1839 2703 
Q 2028 2578 2106 2363 
Q 2216 2559 2386 2693 
Q 2556 2828 2759 2828 
Q 2897 2828 3040 2779 
Q 3184 2731 3275 2631 
Q 3366 2531 3366 2381 
Q 3366 2219 3261 2101 
Q 3156 1984 2994 1984 
Q 2891 1984 2822 2050 
Q 2753 2116 2753 2216 
Q 2753 2350 2845 2451 
Q 2938 2553 3066 2572 
Q 2950 2663 2747 2663 
Q 2541 2663 2389 2472 
Q 2238 2281 2175 2047 
L 1894 916 
Q 1825 659 1825 494 
Q 1825 331 1917 214 
Q 2009 97 2163 97 
Q 2463 97 2698 361 
Q 2934 625 3009 941 
Q 3022 978 3059 978 
L 3138 978 
Q 3163 978 3178 961 
Q 3194 944 3194 922 
Q 3194 916 3188 903 
Q 3097 522 2806 225 
Q 2516 -72 2150 -72 
Q 1916 -72 1727 54 
Q 1538 181 1459 397 
Q 1359 209 1182 68 
Q 1006 -72 806 -72 
Q 669 -72 523 -23 
Q 378 25 287 125 
Q 197 225 197 378 
Q 197 528 301 651 
Q 406 775 563 775 
Q 669 775 741 711 
Q 813 647 813 544 
Q 813 409 723 309 
Q 634 209 500 184 
z
" transform="scale(0.015625)"/>
       <path id="Cmr10-31" d="M 594 0 
L 594 225 
Q 1394 225 1394 428 
L 1394 3788 
Q 1063 3628 556 3628 
L 556 3853 
Q 1341 3853 1741 4263 
L 1831 4263 
Q 1853 4263 1873 4245 
Q 1894 4228 1894 4206 
L 1894 428 
Q 1894 225 2694 225 
L 2694 0 
L 594 0 
z
" transform="scale(0.015625)"/>
      </defs>
      <use xlink:href="#Cmmi10-78" transform="translate(0 0.8125)"/>
      <use xlink:href="#Cmr10-31" transform="translate(57.080078 -16.19375) scale(0.7)"/>
     </g>
    </g>
   </g>
   <g class="axis">
    <g class="tick ytick">
     <g id="line2d_13">
      <path d="M 39.53375 188.471077 
L 346.43375 188.471077 
" clip-path="url(#pfff15a92ca)" style="fill: none; stroke: #b0b0b0; stroke-opacity: 0.15; stroke-width: 0.5; stroke-linecap: square"/>
     </g>
     <g id="line2d_14">
      <defs>
       <path id="m33d9e204d7" d="M 0 0 
L -3.5 0 
" style="stroke:var(--black); stroke-width: 0.8"/>
      </defs>
      <g>
       <use xlink:href="#m33d9e204d7" x="39.53375" y="188.471077" style="stroke:var(--black); stroke-width: 0.8"/>
      </g>
     </g>
     <g id="text_8" class="text">
      <!-- $\mathdefault{−1}$ -->
      <g transform="translate(19.21375 191.890374) scale(0.09 -0.09)">
       <use xlink:href="#DejaVuSerif-2212" transform="translate(0 0.78125)"/>
       <use xlink:href="#DejaVuSerif-31" transform="translate(83.789062 0.78125)"/>
      </g>
     </g>
    </g>
    <g class="tick ytick">
     <g id="line2d_15">
      <path d="M 39.53375 152.221846 
L 346.43375 152.221846 
" clip-path="url(#pfff15a92ca)" style="fill: none; stroke: #b0b0b0; stroke-opacity: 0.15; stroke-width: 0.5; stroke-linecap: square"/>
     </g>
     <g id="line2d_16">
      <g>
       <use xlink:href="#m33d9e204d7" x="39.53375" y="152.221846" style="stroke:var(--black); stroke-width: 0.8"/>
      </g>
     </g>
     <g id="text_9" class="text">
      <!-- $\mathdefault{0}$ -->
      <g transform="translate(26.77375 155.641143) scale(0.09 -0.09)">
       <use xlink:href="#DejaVuSerif-30" transform="translate(0 0.78125)"/>
      </g>
     </g>
    </g>
    <g class="tick ytick">
     <g id="line2d_17">
      <path d="M 39.53375 115.972615 
L 346.43375 115.972615 
" clip-path="url(#pfff15a92ca)" style="fill: none; stroke: #b0b0b0; stroke-opacity: 0.15; stroke-width: 0.5; stroke-linecap: square"/>
     </g>
     <g id="line2d_18">
      <g>
       <use xlink:href="#m33d9e204d7" x="39.53375" y="115.972615" style="stroke:var(--black); stroke-width: 0.8"/>
      </g>
     </g>
     <g id="text_10" class="text">
      <!-- $\mathdefault{1}$ -->
      <g transform="translate(26.77375 119.391912) scale(0.09 -0.09)">
       <use xlink:href="#DejaVuSerif-31" transform="translate(0 0.78125)"/>
      </g>
     </g>
    </g>
    <g class="tick ytick">
     <g id="line2d_19">
      <path d="M 39.53375 79.723385 
L 346.43375 79.723385 
" clip-path="url(#pfff15a92ca)" style="fill: none; stroke: #b0b0b0; stroke-opacity: 0.15; stroke-width: 0.5; stroke-linecap: square"/>
     </g>
     <g id="line2d_20">
      <g>
       <use xlink:href="#m33d9e204d7" x="39.53375" y="79.723385" style="stroke:var(--black); stroke-width: 0.8"/>
      </g>
     </g>
     <g id="text_11" class="text">
      <!-- $\mathdefault{2}$ -->
      <g transform="translate(26.77375 83.142681) scale(0.09 -0.09)">
       <use xlink:href="#DejaVuSerif-32" transform="translate(0 0.78125)"/>
      </g>
     </g>
    </g>
    <g class="tick ytick">
     <g id="line2d_21">
      <path d="M 39.53375 43.474154 
L 346.43375 43.474154 
" clip-path="url(#pfff15a92ca)" style="fill: none; stroke: #b0b0b0; stroke-opacity: 0.15; stroke-width: 0.5; stroke-linecap: square"/>
     </g>
     <g id="line2d_22">
      <g>
       <use xlink:href="#m33d9e204d7" x="39.53375" y="43.474154" style="stroke:var(--black); stroke-width: 0.8"/>
      </g>
     </g>
     <g id="text_12" class="text">
      <!-- $\mathdefault{3}$ -->
      <g transform="translate(26.77375 46.893451) scale(0.09 -0.09)">
       <use xlink:href="#DejaVuSerif-33" transform="translate(0 0.78125)"/>
      </g>
     </g>
    </g>
    <g class="tick ytick">
     <g id="line2d_23">
      <path d="M 39.53375 7.224923 
L 346.43375 7.224923 
" clip-path="url(#pfff15a92ca)" style="fill: none; stroke: #b0b0b0; stroke-opacity: 0.15; stroke-width: 0.5; stroke-linecap: square"/>
     </g>
     <g id="line2d_24">
      <g>
       <use xlink:href="#m33d9e204d7" x="39.53375" y="7.224923" style="stroke:var(--black); stroke-width: 0.8"/>
      </g>
     </g>
     <g id="text_13" class="text">
      <!-- $\mathdefault{4}$ -->
      <g transform="translate(26.77375 10.64422) scale(0.09 -0.09)">
       <use xlink:href="#DejaVuSerif-34" transform="translate(0 0.78125)"/>
      </g>
     </g>
    </g>
    <g id="text_14" class="text">
     <!-- $x_2$ -->
     <g transform="translate(12.718125 103.788) rotate(-90) scale(0.12 -0.12)">
      <defs>
       <path id="Cmr10-32" d="M 319 0 
L 319 172 
Q 319 188 331 206 
L 1325 1306 
Q 1550 1550 1690 1715 
Q 1831 1881 1968 2097 
Q 2106 2313 2186 2536 
Q 2266 2759 2266 3009 
Q 2266 3272 2169 3511 
Q 2072 3750 1880 3894 
Q 1688 4038 1416 4038 
Q 1138 4038 916 3870 
Q 694 3703 603 3438 
Q 628 3444 672 3444 
Q 816 3444 917 3347 
Q 1019 3250 1019 3097 
Q 1019 2950 917 2848 
Q 816 2747 672 2747 
Q 522 2747 420 2851 
Q 319 2956 319 3097 
Q 319 3338 409 3548 
Q 500 3759 670 3923 
Q 841 4088 1055 4175 
Q 1269 4263 1509 4263 
Q 1875 4263 2190 4108 
Q 2506 3953 2690 3670 
Q 2875 3388 2875 3009 
Q 2875 2731 2753 2481 
Q 2631 2231 2440 2026 
Q 2250 1822 1953 1562 
Q 1656 1303 1563 1216 
L 838 519 
L 1453 519 
Q 1906 519 2211 526 
Q 2516 534 2534 550 
Q 2609 631 2688 1141 
L 2875 1141 
L 2694 0 
L 319 0 
z
" transform="scale(0.015625)"/>
      </defs>
      <use xlink:href="#Cmmi10-78" transform="translate(0 0.8125)"/>
      <use xlink:href="#Cmr10-32" transform="translate(57.080078 -16.19375) scale(0.7)"/>
     </g>
    </g>
   </g>
   <g id="QuadContourSet_1">
    <path d="M 340.531827 188.243951 
L 340.531827 188.016826 
L 340.531827 187.562575 
L 340.531827 187.108324 
L 340.531827 186.654073 
L 340.531827 186.199822 
L 340.531827 185.745571 
L 340.531827 185.29132 
L 340.531827 184.837069 
L 340.531827 184.382818 
L 340.531827 183.928567 
L 340.531827 183.474316 
L 340.531827 183.020065 
L 340.531827 182.565814 
L 340.531827 182.111563 
L 340.531827 181.657312 
L 340.531827 181.203061 
L 340.531827 180.74881 
L 340.531827 180.294559 
L 340.531827 179.840308 
L 340.531827 179.386057 
L 340.531827 178.931806 
L 340.531827 178.477555 
L 340.531827 178.023304 
L 340.531827 177.569053 
L 340.531827 177.114802 
L 340.531827 176.660551 
L 340.531827 176.2063 
L 340.531827 175.752049 
L 340.531827 175.297798 
L 340.531827 174.843547 
L 340.531827 174.389296 
L 340.531827 173.935045 
L 340.531827 173.480794 
L 340.531827 173.026543 
L 340.531827 172.572291 
L 340.531827 172.11804 
L 340.531827 171.663789 
L 340.531827 171.209538 
L 340.531827 170.755287 
L 340.531827 170.301036 
L 340.531827 169.846785 
L 340.531827 169.392534 
L 340.531827 168.938283 
L 340.531827 168.484032 
L 340.531827 168.029781 
L 340.531827 167.57553 
L 340.531827 167.121279 
L 340.531827 166.667028 
L 340.531827 166.212777 
L 340.531827 165.758526 
L 340.531827 165.304275 
L 340.531827 164.850024 
L 340.531827 164.395773 
L 340.531827 163.941522 
L 340.531827 163.487271 
L 340.531827 163.03302 
L 340.531827 162.578769 
L 340.531827 162.124518 
L 340.531827 161.670267 
L 340.531827 161.216016 
L 340.531827 160.761765 
L 340.531827 160.307514 
L 340.531827 159.853263 
L 340.531827 159.399012 
L 340.531827 158.944761 
L 340.531827 158.49051 
L 340.531827 158.036259 
L 340.531827 157.582008 
L 340.531827 157.127757 
L 340.531827 156.673506 
L 340.531827 156.219255 
L 340.531827 155.765004 
L 340.531827 155.310753 
L 340.531827 154.856502 
L 340.531827 154.402251 
L 340.531827 153.948 
L 340.531827 153.493749 
L 340.531827 153.039498 
L 340.531827 152.585247 
L 340.531827 152.130996 
L 340.531827 151.676745 
L 340.531827 151.222494 
L 340.531827 150.768243 
L 340.531827 150.313992 
L 340.531827 149.859741 
L 340.531827 149.40549 
L 340.531827 148.951239 
L 340.531827 148.496988 
L 340.531827 148.042737 
L 340.531827 147.588486 
L 340.531827 147.134235 
L 340.531827 146.679984 
L 340.531827 146.225733 
L 340.531827 145.771482 
L 340.531827 145.317231 
L 340.531827 144.86298 
L 340.531827 144.408729 
L 340.531827 143.954478 
L 340.531827 143.500227 
L 340.531827 143.045976 
L 340.531827 142.591725 
L 340.531827 142.137474 
L 340.531827 141.683223 
L 340.531827 141.228972 
L 340.531827 140.774721 
L 340.531827 140.32047 
L 340.531827 139.866219 
L 340.531827 139.411968 
L 340.531827 138.957717 
L 340.531827 138.503466 
L 340.531827 138.049215 
L 340.531827 137.594964 
L 340.531827 137.140713 
L 340.531827 136.686462 
L 340.531827 136.232211 
L 340.531827 135.77796 
L 340.531827 135.323709 
L 340.531827 134.869457 
L 340.531827 134.415206 
L 340.531827 133.960955 
L 340.531827 133.506704 
L 340.531827 133.052453 
L 340.531827 132.598202 
L 340.531827 132.143951 
L 340.531827 131.6897 
L 340.531827 131.235449 
L 340.531827 130.781198 
L 340.531827 130.326947 
L 340.531827 129.872696 
L 340.531827 129.418445 
L 340.531827 128.964194 
L 340.531827 128.509943 
L 340.531827 128.055692 
L 340.531827 127.601441 
L 340.531827 127.14719 
L 340.531827 126.692939 
L 340.531827 126.238688 
L 340.531827 125.784437 
L 340.531827 125.330186 
L 340.531827 124.875935 
L 340.531827 124.421684 
L 340.531827 123.967433 
L 340.531827 123.513182 
L 340.531827 123.058931 
L 340.531827 122.60468 
L 340.531827 122.150429 
L 340.531827 121.696178 
L 340.531827 121.241927 
L 340.531827 120.787676 
L 340.531827 120.333425 
L 340.531827 119.879174 
L 340.531827 119.424923 
L 340.531827 118.970672 
L 340.531827 118.516421 
L 340.531827 118.06217 
L 340.531827 117.607919 
L 340.531827 117.153668 
L 340.531827 116.699417 
L 340.531827 116.245166 
L 340.531827 115.790915 
L 340.531827 115.336664 
L 340.531827 114.882413 
L 340.531827 114.428162 
L 340.531827 113.973911 
L 340.531827 113.51966 
L 340.531827 113.065409 
L 340.531827 112.611158 
L 340.531827 112.156907 
L 340.531827 111.702656 
L 340.531827 111.248405 
L 340.531827 110.794154 
L 340.531827 110.339903 
L 340.531827 109.885652 
L 340.531827 109.431401 
L 340.531827 108.97715 
L 340.531827 108.522899 
L 340.531827 108.068648 
L 340.531827 107.614397 
L 340.531827 107.160146 
L 340.531827 106.705895 
L 340.531827 106.251644 
L 340.531827 105.797393 
L 340.531827 105.343142 
L 340.531827 104.888891 
L 340.531827 104.43464 
L 340.531827 103.980389 
L 340.531827 103.526138 
L 340.531827 103.071887 
L 340.531827 102.617636 
L 340.531827 102.163385 
L 340.531827 101.709134 
L 340.531827 101.254883 
L 340.531827 100.800632 
L 340.531827 100.346381 
L 340.531827 99.89213 
L 340.531827 99.437879 
L 340.531827 98.983628 
L 340.531827 98.529377 
L 340.531827 98.075126 
L 340.531827 97.620874 
L 340.531827 97.166623 
L 340.531827 96.712372 
L 340.531827 96.258121 
L 340.531827 95.80387 
L 340.531827 95.349619 
L 340.531827 94.895368 
L 340.531827 94.441117 
L 340.531827 93.986866 
L 340.531827 93.532615 
L 340.531827 93.078364 
L 340.531827 92.624113 
L 340.531827 92.169862 
L 340.531827 91.715611 
L 340.531827 91.26136 
L 340.531827 90.807109 
L 340.531827 90.352858 
L 340.531827 89.898607 
L 340.531827 89.444356 
L 340.531827 88.990105 
L 340.531827 88.535854 
L 340.531827 88.081603 
L 340.531827 87.627352 
L 340.531827 87.173101 
L 340.531827 86.71885 
L 340.531827 86.264599 
L 340.531827 85.810348 
L 340.531827 85.356097 
L 340.531827 84.901846 
L 340.531827 84.447595 
L 340.531827 83.993344 
L 340.531827 83.539093 
L 340.531827 83.084842 
L 340.531827 82.630591 
L 340.531827 82.17634 
L 340.531827 81.722089 
L 340.531827 81.267838 
L 340.531827 80.813587 
L 340.531827 80.359336 
L 340.531827 79.905085 
L 340.531827 79.450834 
L 340.531827 78.996583 
L 340.531827 78.542332 
L 340.531827 78.088081 
L 340.531827 77.63383 
L 340.531827 77.179579 
L 340.531827 76.725328 
L 340.531827 76.271077 
L 340.531827 75.816826 
L 340.531827 75.362575 
L 340.531827 74.908324 
L 340.531827 74.454073 
L 340.531827 73.999822 
L 340.531827 73.545571 
L 340.531827 73.09132 
L 340.531827 72.637069 
L 340.531827 72.182818 
L 340.531827 71.728567 
L 340.531827 71.274316 
L 340.531827 70.820065 
L 340.531827 70.365814 
L 340.531827 69.911563 
L 340.531827 69.457312 
L 340.531827 69.003061 
L 340.531827 68.54881 
L 340.531827 68.094559 
L 340.531827 67.640308 
L 340.531827 67.186057 
L 340.531827 66.731806 
L 340.531827 66.277555 
L 340.531827 65.823304 
L 340.531827 65.369053 
L 340.531827 64.914802 
L 340.531827 64.460551 
L 340.531827 64.0063 
L 340.531827 63.552049 
L 340.531827 63.097798 
L 340.531827 62.643547 
L 340.531827 62.189296 
L 340.531827 61.735045 
L 340.531827 61.280794 
L 340.531827 60.826543 
L 340.531827 60.372291 
L 340.531827 59.91804 
L 340.531827 59.463789 
L 340.531827 59.009538 
L 340.531827 58.555287 
L 340.531827 58.101036 
L 340.531827 57.646785 
L 340.531827 57.192534 
L 340.531827 56.738283 
L 340.531827 56.284032 
L 340.531827 55.829781 
L 340.531827 55.37553 
L 340.531827 54.921279 
L 340.531827 54.467028 
L 340.531827 54.012777 
L 340.531827 53.558526 
L 340.531827 53.104275 
L 340.531827 52.650024 
L 340.531827 52.195773 
L 340.531827 51.741522 
L 340.531827 51.287271 
L 340.531827 50.83302 
L 340.531827 50.378769 
L 340.531827 49.924518 
L 340.531827 49.470267 
L 340.531827 49.016016 
L 340.531827 48.561765 
L 340.531827 48.107514 
L 340.531827 47.653263 
L 340.531827 47.199012 
L 340.531827 46.744761 
L 340.531827 46.29051 
L 340.531827 45.836259 
L 340.531827 45.382008 
L 340.531827 44.927757 
L 340.531827 44.473506 
L 340.531827 44.019255 
L 340.531827 43.565004 
L 340.531827 43.110753 
L 340.531827 42.656502 
L 340.531827 42.202251 
L 340.531827 41.748 
L 340.531827 41.293749 
L 340.531827 40.839498 
L 340.531827 40.385247 
L 340.531827 39.930996 
L 340.531827 39.476745 
L 340.531827 39.022494 
L 340.531827 38.568243 
L 340.531827 38.113992 
L 340.531827 37.659741 
L 340.531827 37.20549 
L 340.531827 36.751239 
L 340.531827 36.296988 
L 340.531827 35.842737 
L 340.531827 35.388486 
L 340.531827 34.934235 
L 340.531827 34.479984 
L 340.531827 34.025733 
L 340.531827 33.571482 
L 340.531827 33.117231 
L 340.531827 32.66298 
L 340.531827 32.208729 
L 340.531827 31.754478 
L 340.531827 31.300227 
L 340.531827 30.845976 
L 340.531827 30.391725 
L 340.531827 29.937474 
L 340.531827 29.483223 
L 340.531827 29.028972 
L 340.531827 28.574721 
L 340.531827 28.12047 
L 340.531827 27.666219 
L 340.531827 27.211968 
L 340.531827 26.757717 
L 340.531827 26.303466 
L 340.531827 25.849215 
L 340.531827 25.394964 
L 340.531827 24.940713 
L 340.531827 24.486462 
L 340.531827 24.032211 
L 340.531827 23.57796 
L 340.531827 23.123709 
L 340.531827 22.669457 
L 340.531827 22.215206 
L 340.531827 21.760955 
L 340.531827 21.306704 
L 340.531827 20.852453 
L 340.531827 20.398202 
L 340.531827 19.943951 
L 340.531827 19.4897 
L 340.531827 19.035449 
L 340.531827 18.581198 
L 340.531827 18.126947 
L 340.531827 17.672696 
L 340.531827 17.218445 
L 340.531827 16.764194 
L 340.531827 16.309943 
L 340.531827 15.855692 
L 340.531827 15.401441 
L 340.531827 14.94719 
L 340.531827 14.492939 
L 340.531827 14.038688 
L 340.531827 13.584437 
L 340.531827 13.130186 
L 340.531827 12.675935 
L 340.531827 12.221684 
L 340.531827 11.767433 
L 340.531827 11.313182 
L 340.531827 10.858931 
L 340.531827 10.40468 
L 340.531827 9.950429 
L 340.531827 9.496178 
L 340.531827 9.041927 
L 340.531827 8.587676 
L 340.531827 8.133425 
L 340.531827 7.679174 
L 340.531827 7.224923 
L 339.792238 7.224923 
L 339.052648 7.224923 
L 338.313059 7.224923 
L 337.573469 7.224923 
L 336.83388 7.224923 
L 336.094291 7.224923 
L 335.354701 7.224923 
L 334.615112 7.224923 
L 333.875523 7.224923 
L 333.135933 7.224923 
L 332.396344 7.224923 
L 331.656755 7.224923 
L 330.917165 7.224923 
L 330.177576 7.224923 
L 329.437987 7.224923 
L 328.698397 7.224923 
L 327.958808 7.224923 
L 327.219218 7.224923 
L 326.479629 7.224923 
L 325.74004 7.224923 
L 325.00045 7.224923 
L 324.260861 7.224923 
L 323.521272 7.224923 
L 322.781682 7.224923 
L 322.042093 7.224923 
L 321.302504 7.224923 
L 320.562914 7.224923 
L 319.823325 7.224923 
L 319.083736 7.224923 
L 318.344146 7.224923 
L 317.604557 7.224923 
L 316.864967 7.224923 
L 316.125378 7.224923 
L 315.385789 7.224923 
L 314.646199 7.224923 
L 313.90661 7.224923 
L 313.167021 7.224923 
L 312.427431 7.224923 
L 311.687842 7.224923 
L 310.948253 7.224923 
L 310.208663 7.224923 
L 309.469074 7.224923 
L 308.729485 7.224923 
L 307.989895 7.224923 
L 307.250306 7.224923 
L 306.510716 7.224923 
L 305.771127 7.224923 
L 305.031538 7.224923 
L 304.291948 7.224923 
L 303.552359 7.224923 
L 302.81277 7.224923 
L 302.07318 7.224923 
L 301.333591 7.224923 
L 300.594002 7.224923 
L 299.854412 7.224923 
L 299.114823 7.224923 
L 298.375234 7.224923 
L 297.635644 7.224923 
L 296.896055 7.224923 
L 296.156465 7.224923 
L 295.416876 7.224923 
L 294.677287 7.224923 
L 293.937697 7.224923 
L 293.198108 7.224923 
L 292.458519 7.224923 
L 291.718929 7.224923 
L 290.97934 7.224923 
L 290.239751 7.224923 
L 289.500161 7.224923 
L 288.760572 7.224923 
L 288.020983 7.224923 
L 287.281393 7.224923 
L 286.541804 7.224923 
L 285.802214 7.224923 
L 285.062625 7.224923 
L 284.323036 7.224923 
L 283.583446 7.224923 
L 282.843857 7.224923 
L 282.104268 7.224923 
L 281.364678 7.224923 
L 280.625089 7.224923 
L 279.8855 7.224923 
L 279.14591 7.224923 
L 278.406321 7.224923 
L 277.666731 7.224923 
L 276.927142 7.224923 
L 276.187553 7.224923 
L 275.447963 7.224923 
L 274.708374 7.224923 
L 273.968785 7.224923 
L 273.229195 7.224923 
L 272.489606 7.224923 
L 271.750017 7.224923 
L 271.010427 7.224923 
L 270.270838 7.224923 
L 269.531249 7.224923 
L 268.791659 7.224923 
L 268.05207 7.224923 
L 267.31248 7.224923 
L 266.572891 7.224923 
L 265.833302 7.224923 
L 265.093712 7.224923 
L 264.354123 7.224923 
L 263.614534 7.224923 
L 262.874944 7.224923 
L 262.135355 7.224923 
L 261.395766 7.224923 
L 260.656176 7.224923 
L 259.916587 7.224923 
L 259.176998 7.224923 
L 258.437408 7.224923 
L 257.697819 7.224923 
L 256.958229 7.224923 
L 256.21864 7.224923 
L 255.479051 7.224923 
L 254.739461 7.224923 
L 253.999872 7.224923 
L 253.260283 7.224923 
L 252.520693 7.224923 
L 251.781104 7.224923 
L 251.041515 7.224923 
L 250.301925 7.224923 
L 249.562336 7.224923 
L 248.822747 7.224923 
L 248.083157 7.224923 
L 247.343568 7.224923 
L 246.603978 7.224923 
L 245.864389 7.224923 
L 245.1248 7.224923 
L 244.38521 7.224923 
L 243.645621 7.224923 
L 242.906032 7.224923 
L 242.166442 7.224923 
L 241.426853 7.224923 
L 240.687264 7.224923 
L 239.947674 7.224923 
L 239.208085 7.224923 
L 238.468496 7.224923 
L 237.728906 7.224923 
L 236.989317 7.224923 
L 236.249727 7.224923 
L 235.510138 7.224923 
L 234.770549 7.224923 
L 234.030959 7.224923 
L 233.29137 7.224923 
L 232.551781 7.224923 
L 231.812191 7.224923 
L 231.072602 7.224923 
L 230.333013 7.224923 
L 229.593423 7.224923 
L 228.853834 7.224923 
L 228.114245 7.224923 
L 227.374655 7.224923 
L 226.635066 7.224923 
L 225.895476 7.224923 
L 225.155887 7.224923 
L 224.416298 7.224923 
L 223.676708 7.224923 
L 222.937119 7.224923 
L 222.19753 7.224923 
L 221.45794 7.224923 
L 220.718351 7.224923 
L 219.978762 7.224923 
L 219.239172 7.224923 
L 218.499583 7.224923 
L 217.759993 7.224923 
L 217.020404 7.224923 
L 216.280815 7.224923 
L 215.541225 7.224923 
L 214.801636 7.224923 
L 214.062047 7.224923 
L 213.322457 7.224923 
L 212.582868 7.224923 
L 211.843279 7.224923 
L 211.103689 7.224923 
L 210.3641 7.224923 
L 209.624511 7.224923 
L 208.884921 7.224923 
L 208.145332 7.224923 
L 207.405742 7.224923 
L 206.666153 7.224923 
L 205.926564 7.224923 
L 205.186974 7.224923 
L 204.447385 7.224923 
L 203.707796 7.224923 
L 202.968206 7.224923 
L 202.228617 7.224923 
L 201.489028 7.224923 
L 200.749438 7.224923 
L 200.009849 7.224923 
L 199.27026 7.224923 
L 198.53067 7.224923 
L 197.791081 7.224923 
L 197.051491 7.224923 
L 196.311902 7.224923 
L 195.572313 7.224923 
L 194.832723 7.224923 
L 194.093134 7.224923 
L 193.353545 7.224923 
L 192.613955 7.224923 
L 191.874366 7.224923 
L 191.134777 7.224923 
L 190.395187 7.224923 
L 189.655598 7.224923 
L 188.916009 7.224923 
L 188.176419 7.224923 
L 187.43683 7.224923 
L 186.69724 7.224923 
L 185.957651 7.224923 
L 185.218062 7.224923 
L 184.478472 7.224923 
L 183.738883 7.224923 
L 182.999294 7.224923 
L 182.259704 7.224923 
L 181.520115 7.224923 
L 180.780526 7.224923 
L 180.040936 7.224923 
L 179.301347 7.224923 
L 178.561758 7.224923 
L 177.822168 7.224923 
L 177.082579 7.224923 
L 176.342989 7.224923 
L 175.6034 7.224923 
L 174.863811 7.224923 
L 174.124221 7.224923 
L 173.384632 7.224923 
L 172.645043 7.224923 
L 171.905453 7.224923 
L 171.165864 7.224923 
L 170.426275 7.224923 
L 169.686685 7.224923 
L 168.947096 7.224923 
L 168.207507 7.224923 
L 167.467917 7.224923 
L 166.728328 7.224923 
L 165.988738 7.224923 
L 165.249149 7.224923 
L 164.50956 7.224923 
L 163.76997 7.224923 
L 163.030381 7.224923 
L 162.290792 7.224923 
L 161.551202 7.224923 
L 160.811613 7.224923 
L 160.072024 7.224923 
L 159.332434 7.224923 
L 158.592845 7.224923 
L 157.853255 7.224923 
L 157.113666 7.224923 
L 156.374077 7.224923 
L 155.634487 7.224923 
L 154.894898 7.224923 
L 154.155309 7.224923 
L 153.415719 7.224923 
L 152.67613 7.224923 
L 151.936541 7.224923 
L 151.196951 7.224923 
L 150.457362 7.224923 
L 149.717773 7.224923 
L 148.978183 7.224923 
L 148.238594 7.224923 
L 147.499004 7.224923 
L 146.759415 7.224923 
L 146.019826 7.224923 
L 145.280236 7.224923 
L 144.540647 7.224923 
L 143.801058 7.224923 
L 143.061468 7.224923 
L 142.321879 7.224923 
L 141.58229 7.224923 
L 140.8427 7.224923 
L 140.103111 7.224923 
L 139.363522 7.224923 
L 138.623932 7.224923 
L 137.884343 7.224923 
L 137.144753 7.224923 
L 136.405164 7.224923 
L 135.665575 7.224923 
L 134.925985 7.224923 
L 134.186396 7.224923 
L 133.446807 7.224923 
L 132.707217 7.224923 
L 131.967628 7.224923 
L 131.228039 7.224923 
L 130.488449 7.224923 
L 129.74886 7.224923 
L 129.009271 7.224923 
L 128.269681 7.224923 
L 127.530092 7.224923 
L 126.790502 7.224923 
L 126.050913 7.224923 
L 125.311324 7.224923 
L 124.571734 7.224923 
L 123.832145 7.224923 
L 123.092556 7.224923 
L 122.352966 7.224923 
L 121.613377 7.224923 
L 120.873788 7.224923 
L 120.134198 7.224923 
L 119.394609 7.224923 
L 118.65502 7.224923 
L 117.91543 7.224923 
L 117.175841 7.224923 
L 116.436251 7.224923 
L 115.696662 7.224923 
L 114.957073 7.224923 
L 114.217483 7.224923 
L 113.477894 7.224923 
L 112.738305 7.224923 
L 111.998715 7.224923 
L 111.259126 7.224923 
L 110.519537 7.224923 
L 109.779947 7.224923 
L 109.040358 7.224923 
L 108.300769 7.224923 
L 107.561179 7.224923 
L 106.82159 7.224923 
L 106.082 7.224923 
L 105.342411 7.224923 
L 104.602822 7.224923 
L 103.863232 7.224923 
L 103.123643 7.224923 
L 102.384054 7.224923 
L 101.644464 7.224923 
L 100.904875 7.224923 
L 100.165286 7.224923 
L 99.425696 7.224923 
L 98.686107 7.224923 
L 97.946517 7.224923 
L 97.206928 7.224923 
L 96.467339 7.224923 
L 95.727749 7.224923 
L 94.98816 7.224923 
L 94.248571 7.224923 
L 93.508981 7.224923 
L 92.769392 7.224923 
L 92.029803 7.224923 
L 91.290213 7.224923 
L 90.550624 7.224923 
L 89.811035 7.224923 
L 89.071445 7.224923 
L 88.331856 7.224923 
L 87.592266 7.224923 
L 86.852677 7.224923 
L 86.113088 7.224923 
L 85.373498 7.224923 
L 84.633909 7.224923 
L 83.89432 7.224923 
L 83.15473 7.224923 
L 82.415141 7.224923 
L 81.675552 7.224923 
L 80.935962 7.224923 
L 80.196373 7.224923 
L 79.456784 7.224923 
L 78.717194 7.224923 
L 77.977605 7.224923 
L 77.238015 7.224923 
L 76.498426 7.224923 
L 75.758837 7.224923 
L 75.019247 7.224923 
L 74.279658 7.224923 
L 73.540069 7.224923 
L 72.800479 7.224923 
L 72.06089 7.224923 
L 71.321301 7.224923 
L 70.581711 7.224923 
L 69.842122 7.224923 
L 69.102533 7.224923 
L 68.362943 7.224923 
L 67.623354 7.224923 
L 66.883764 7.224923 
L 66.144175 7.224923 
L 65.404586 7.224923 
L 64.664996 7.224923 
L 63.925407 7.224923 
L 63.185818 7.224923 
L 62.446228 7.224923 
L 61.706639 7.224923 
L 60.96705 7.224923 
L 60.22746 7.224923 
L 59.487871 7.224923 
L 58.748282 7.224923 
L 58.008692 7.224923 
L 57.269103 7.224923 
L 56.529513 7.224923 
L 55.789924 7.224923 
L 55.050335 7.224923 
L 54.310745 7.224923 
L 53.571156 7.224923 
L 52.831567 7.224923 
L 52.091977 7.224923 
L 51.352388 7.224923 
L 50.612799 7.224923 
L 49.873209 7.224923 
L 49.13362 7.224923 
L 48.394031 7.224923 
L 47.654441 7.224923 
L 46.914852 7.224923 
L 46.175262 7.224923 
L 45.805468 7.224923 
L 46.175262 7.452049 
L 46.545057 7.679174 
L 46.914852 7.9063 
L 47.284646 8.133425 
L 47.654441 8.360551 
L 48.024236 8.587676 
L 48.394031 8.814802 
L 48.763825 9.041927 
L 49.13362 9.269053 
L 49.503415 9.496178 
L 49.873209 9.723304 
L 50.243004 9.950429 
L 50.612799 10.177555 
L 50.982593 10.40468 
L 51.352388 10.631806 
L 51.722183 10.858931 
L 52.091977 11.086057 
L 52.461772 11.313182 
L 52.831567 11.540308 
L 53.201361 11.767433 
L 53.571156 11.994559 
L 53.940951 12.221684 
L 54.310745 12.44881 
L 54.68054 12.675935 
L 55.050335 12.903061 
L 55.420129 13.130186 
L 55.789924 13.357312 
L 56.159719 13.584437 
L 56.529513 13.811563 
L 56.899308 14.038688 
L 57.269103 14.265814 
L 57.638897 14.492939 
L 58.008692 14.720065 
L 58.378487 14.94719 
L 58.748282 15.174316 
L 59.118076 15.401441 
L 59.487871 15.628567 
L 59.857666 15.855692 
L 60.22746 16.082818 
L 60.597255 16.309943 
L 60.96705 16.537069 
L 61.336844 16.764194 
L 61.706639 16.99132 
L 62.076434 17.218445 
L 62.446228 17.445571 
L 62.816023 17.672696 
L 63.185818 17.899822 
L 63.555612 18.126947 
L 63.925407 18.354073 
L 64.295202 18.581198 
L 64.664996 18.808324 
L 65.034791 19.035449 
L 65.404586 19.262575 
L 65.77438 19.4897 
L 66.144175 19.716826 
L 66.51397 19.943951 
L 66.883764 20.171077 
L 67.253559 20.398202 
L 67.623354 20.625328 
L 67.993148 20.852453 
L 68.362943 21.079579 
L 68.732738 21.306704 
L 69.102533 21.53383 
L 69.472327 21.760955 
L 69.842122 21.988081 
L 70.211917 22.215206 
L 70.581711 22.442332 
L 70.951506 22.669457 
L 71.321301 22.896583 
L 71.691095 23.123709 
L 72.06089 23.350834 
L 72.430685 23.57796 
L 72.800479 23.805085 
L 73.170274 24.032211 
L 73.540069 24.259336 
L 73.909863 24.486462 
L 74.279658 24.713587 
L 74.649453 24.940713 
L 75.019247 25.167838 
L 75.389042 25.394964 
L 75.758837 25.622089 
L 76.128631 25.849215 
L 76.498426 26.07634 
L 76.868221 26.303466 
L 77.238015 26.530591 
L 77.60781 26.757717 
L 77.977605 26.984842 
L 78.3474 27.211968 
L 78.717194 27.439093 
L 79.086989 27.666219 
L 79.456784 27.893344 
L 79.826578 28.12047 
L 80.196373 28.347595 
L 80.566168 28.574721 
L 80.935962 28.801846 
L 81.305757 29.028972 
L 81.675552 29.256097 
L 82.045346 29.483223 
L 82.415141 29.710348 
L 82.784936 29.937474 
L 83.15473 30.164599 
L 83.524525 30.391725 
L 83.89432 30.61885 
L 84.264114 30.845976 
L 84.633909 31.073101 
L 85.003704 31.300227 
L 85.373498 31.527352 
L 85.743293 31.754478 
L 86.113088 31.981603 
L 86.482882 32.208729 
L 86.852677 32.435854 
L 87.222472 32.66298 
L 87.592266 32.890105 
L 87.962061 33.117231 
L 88.331856 33.344356 
L 88.701651 33.571482 
L 89.071445 33.798607 
L 89.44124 34.025733 
L 89.811035 34.252858 
L 90.180829 34.479984 
L 90.550624 34.707109 
L 90.920419 34.934235 
L 91.290213 35.16136 
L 91.660008 35.388486 
L 92.029803 35.615611 
L 92.399597 35.842737 
L 92.769392 36.069862 
L 93.139187 36.296988 
L 93.508981 36.524113 
L 93.878776 36.751239 
L 94.248571 36.978364 
L 94.618365 37.20549 
L 94.98816 37.432615 
L 95.357955 37.659741 
L 95.727749 37.886866 
L 96.097544 38.113992 
L 96.467339 38.341117 
L 96.837133 38.568243 
L 97.206928 38.795368 
L 97.576723 39.022494 
L 97.946517 39.249619 
L 98.316312 39.476745 
L 98.686107 39.70387 
L 99.055902 39.930996 
L 99.425696 40.158121 
L 99.795491 40.385247 
L 100.165286 40.612372 
L 100.53508 40.839498 
L 100.904875 41.066623 
L 101.27467 41.293749 
L 101.644464 41.520874 
L 102.014259 41.748 
L 102.384054 41.975126 
L 102.753848 42.202251 
L 103.123643 42.429377 
L 103.493438 42.656502 
L 103.863232 42.883628 
L 104.233027 43.110753 
L 104.602822 43.337879 
L 104.972616 43.565004 
L 105.342411 43.79213 
L 105.712206 44.019255 
L 106.082 44.246381 
L 106.451795 44.473506 
L 106.82159 44.700632 
L 107.191384 44.927757 
L 107.561179 45.154883 
L 107.930974 45.382008 
L 108.300769 45.609134 
L 108.670563 45.836259 
L 109.040358 46.063385 
L 109.410153 46.29051 
L 109.779947 46.517636 
L 110.149742 46.744761 
L 110.519537 46.971887 
L 110.889331 47.199012 
L 111.259126 47.426138 
L 111.628921 47.653263 
L 111.998715 47.880389 
L 112.36851 48.107514 
L 112.738305 48.33464 
L 113.108099 48.561765 
L 113.477894 48.788891 
L 113.847689 49.016016 
L 114.217483 49.243142 
L 114.587278 49.470267 
L 114.957073 49.697393 
L 115.326867 49.924518 
L 115.696662 50.151644 
L 116.066457 50.378769 
L 116.436251 50.605895 
L 116.806046 50.83302 
L 117.175841 51.060146 
L 117.545635 51.287271 
L 117.91543 51.514397 
L 118.285225 51.741522 
L 118.65502 51.968648 
L 119.024814 52.195773 
L 119.394609 52.422899 
L 119.764404 52.650024 
L 120.134198 52.87715 
L 120.503993 53.104275 
L 120.873788 53.331401 
L 121.243582 53.558526 
L 121.613377 53.785652 
L 121.983172 54.012777 
L 122.352966 54.239903 
L 122.722761 54.467028 
L 123.092556 54.694154 
L 123.46235 54.921279 
L 123.832145 55.148405 
L 124.20194 55.37553 
L 124.571734 55.602656 
L 124.941529 55.829781 
L 125.311324 56.056907 
L 125.681118 56.284032 
L 126.050913 56.511158 
L 126.420708 56.738283 
L 126.790502 56.965409 
L 127.160297 57.192534 
L 127.530092 57.41966 
L 127.899886 57.646785 
L 128.269681 57.873911 
L 128.639476 58.101036 
L 129.009271 58.328162 
L 129.379065 58.555287 
L 129.74886 58.782413 
L 130.118655 59.009538 
L 130.488449 59.236664 
L 130.858244 59.463789 
L 131.228039 59.690915 
L 131.597833 59.91804 
L 131.967628 60.145166 
L 132.337423 60.372291 
L 132.707217 60.599417 
L 133.077012 60.826543 
L 133.446807 61.053668 
L 133.816601 61.280794 
L 134.186396 61.507919 
L 134.556191 61.735045 
L 134.925985 61.96217 
L 135.29578 62.189296 
L 135.665575 62.416421 
L 136.035369 62.643547 
L 136.405164 62.870672 
L 136.774959 63.097798 
L 137.144753 63.324923 
L 137.514548 63.552049 
L 137.884343 63.779174 
L 138.254138 64.0063 
L 138.623932 64.233425 
L 138.993727 64.460551 
L 139.363522 64.687676 
L 139.733316 64.914802 
L 140.103111 65.141927 
L 140.472906 65.369053 
L 140.8427 65.596178 
L 141.212495 65.823304 
L 141.58229 66.050429 
L 141.952084 66.277555 
L 142.321879 66.50468 
L 142.691674 66.731806 
L 143.061468 66.958931 
L 143.431263 67.186057 
L 143.801058 67.413182 
L 144.170852 67.640308 
L 144.540647 67.867433 
L 144.910442 68.094559 
L 145.280236 68.321684 
L 145.650031 68.54881 
L 146.019826 68.775935 
L 146.38962 69.003061 
L 146.759415 69.230186 
L 147.12921 69.457312 
L 147.499004 69.684437 
L 147.868799 69.911563 
L 148.238594 70.138688 
L 148.608389 70.365814 
L 148.978183 70.592939 
L 149.347978 70.820065 
L 149.717773 71.04719 
L 150.087567 71.274316 
L 150.457362 71.501441 
L 150.827157 71.728567 
L 151.196951 71.955692 
L 151.566746 72.182818 
L 151.936541 72.409943 
L 152.306335 72.637069 
L 152.67613 72.864194 
L 153.045925 73.09132 
L 153.415719 73.318445 
L 153.785514 73.545571 
L 154.155309 73.772696 
L 154.525103 73.999822 
L 154.894898 74.226947 
L 155.264693 74.454073 
L 155.634487 74.681198 
L 156.004282 74.908324 
L 156.374077 75.135449 
L 156.743871 75.362575 
L 157.113666 75.5897 
L 157.483461 75.816826 
L 157.853255 76.043951 
L 158.22305 76.271077 
L 158.592845 76.498202 
L 158.96264 76.725328 
L 159.332434 76.952453 
L 159.702229 77.179579 
L 160.072024 77.406704 
L 160.441818 77.63383 
L 160.811613 77.860955 
L 161.181408 78.088081 
L 161.551202 78.315206 
L 161.920997 78.542332 
L 162.290792 78.769457 
L 162.660586 78.996583 
L 163.030381 79.223709 
L 163.400176 79.450834 
L 163.76997 79.67796 
L 164.139765 79.905085 
L 164.50956 80.132211 
L 164.879354 80.359336 
L 165.249149 80.586462 
L 165.618944 80.813587 
L 165.988738 81.040713 
L 166.358533 81.267838 
L 166.728328 81.494964 
L 167.098122 81.722089 
L 167.467917 81.949215 
L 167.837712 82.17634 
L 168.207507 82.403466 
L 168.577301 82.630591 
L 168.947096 82.857717 
L 169.316891 83.084842 
L 169.686685 83.311968 
L 170.05648 83.539093 
L 170.426275 83.766219 
L 170.796069 83.993344 
L 171.165864 84.22047 
L 171.535659 84.447595 
L 171.905453 84.674721 
L 172.275248 84.901846 
L 172.645043 85.128972 
L 173.014837 85.356097 
L 173.384632 85.583223 
L 173.754427 85.810348 
L 174.124221 86.037474 
L 174.494016 86.264599 
L 174.863811 86.491725 
L 175.233605 86.71885 
L 175.6034 86.945976 
L 175.973195 87.173101 
L 176.342989 87.400227 
L 176.712784 87.627352 
L 177.082579 87.854478 
L 177.452373 88.081603 
L 177.822168 88.308729 
L 178.191963 88.535854 
L 178.561758 88.76298 
L 178.931552 88.990105 
L 179.301347 89.217231 
L 179.671142 89.444356 
L 180.040936 89.671482 
L 180.410731 89.898607 
L 180.780526 90.125733 
L 181.15032 90.352858 
L 181.520115 90.579984 
L 181.88991 90.807109 
L 182.259704 91.034235 
L 182.629499 91.26136 
L 182.999294 91.488486 
L 183.369088 91.715611 
L 183.738883 91.942737 
L 184.108678 92.169862 
L 184.478472 92.396988 
L 184.848267 92.624113 
L 185.218062 92.851239 
L 185.587856 93.078364 
L 185.957651 93.30549 
L 186.327446 93.532615 
L 186.69724 93.759741 
L 187.067035 93.986866 
L 187.43683 94.213992 
L 187.806624 94.441117 
L 188.176419 94.668243 
L 188.546214 94.895368 
L 188.916009 95.122494 
L 189.285803 95.349619 
L 189.655598 95.576745 
L 190.025393 95.80387 
L 190.395187 96.030996 
L 190.764982 96.258121 
L 191.134777 96.485247 
L 191.504571 96.712372 
L 191.874366 96.939498 
L 192.244161 97.166623 
L 192.613955 97.393749 
L 192.98375 97.620874 
L 193.353545 97.848 
L 193.723339 98.075126 
L 194.093134 98.302251 
L 194.462929 98.529377 
L 194.832723 98.756502 
L 195.202518 98.983628 
L 195.572313 99.210753 
L 195.942107 99.437879 
L 196.311902 99.665004 
L 196.681697 99.89213 
L 197.051491 100.119255 
L 197.421286 100.346381 
L 197.791081 100.573506 
L 198.160876 100.800632 
L 198.53067 101.027757 
L 198.900465 101.254883 
L 199.27026 101.482008 
L 199.640054 101.709134 
L 200.009849 101.936259 
L 200.379644 102.163385 
L 200.749438 102.39051 
L 201.119233 102.617636 
L 201.489028 102.844761 
L 201.858822 103.071887 
L 202.228617 103.299012 
L 202.598412 103.526138 
L 202.968206 103.753263 
L 203.338001 103.980389 
L 203.707796 104.207514 
L 204.07759 104.43464 
L 204.447385 104.661765 
L 204.81718 104.888891 
L 205.186974 105.116016 
L 205.556769 105.343142 
L 205.926564 105.570267 
L 206.296358 105.797393 
L 206.666153 106.024518 
L 207.035948 106.251644 
L 207.405742 106.478769 
L 207.775537 106.705895 
L 208.145332 106.93302 
L 208.515127 107.160146 
L 208.884921 107.387271 
L 209.254716 107.614397 
L 209.624511 107.841522 
L 209.994305 108.068648 
L 210.3641 108.295773 
L 210.733895 108.522899 
L 211.103689 108.750024 
L 211.473484 108.97715 
L 211.843279 109.204275 
L 212.213073 109.431401 
L 212.582868 109.658526 
L 212.952663 109.885652 
L 213.322457 110.112777 
L 213.692252 110.339903 
L 214.062047 110.567028 
L 214.431841 110.794154 
L 214.801636 111.021279 
L 215.171431 111.248405 
L 215.541225 111.47553 
L 215.91102 111.702656 
L 216.280815 111.929781 
L 216.650609 112.156907 
L 217.020404 112.384032 
L 217.390199 112.611158 
L 217.759993 112.838283 
L 218.129788 113.065409 
L 218.499583 113.292534 
L 218.869378 113.51966 
L 219.239172 113.746785 
L 219.608967 113.973911 
L 219.978762 114.201036 
L 220.348556 114.428162 
L 220.718351 114.655287 
L 221.088146 114.882413 
L 221.45794 115.109538 
L 221.827735 115.336664 
L 222.19753 115.563789 
L 222.567324 115.790915 
L 222.937119 116.01804 
L 223.306914 116.245166 
L 223.676708 116.472291 
L 224.046503 116.699417 
L 224.416298 116.926543 
L 224.786092 117.153668 
L 225.155887 117.380794 
L 225.525682 117.607919 
L 225.895476 117.835045 
L 226.265271 118.06217 
L 226.635066 118.289296 
L 227.00486 118.516421 
L 227.374655 118.743547 
L 227.74445 118.970672 
L 228.114245 119.197798 
L 228.484039 119.424923 
L 228.853834 119.652049 
L 229.223629 119.879174 
L 229.593423 120.1063 
L 229.963218 120.333425 
L 230.333013 120.560551 
L 230.702807 120.787676 
L 231.072602 121.014802 
L 231.442397 121.241927 
L 231.812191 121.469053 
L 232.181986 121.696178 
L 232.551781 121.923304 
L 232.921575 122.150429 
L 233.29137 122.377555 
L 233.661165 122.60468 
L 234.030959 122.831806 
L 234.400754 123.058931 
L 234.770549 123.286057 
L 235.140343 123.513182 
L 235.510138 123.740308 
L 235.879933 123.967433 
L 236.249727 124.194559 
L 236.619522 124.421684 
L 236.989317 124.64881 
L 237.359111 124.875935 
L 237.728906 125.103061 
L 238.098701 125.330186 
L 238.468496 125.557312 
L 238.83829 125.784437 
L 239.208085 126.011563 
L 239.57788 126.238688 
L 239.947674 126.465814 
L 240.317469 126.692939 
L 240.687264 126.920065 
L 241.057058 127.14719 
L 241.426853 127.374316 
L 241.796648 127.601441 
L 242.166442 127.828567 
L 242.536237 128.055692 
L 242.906032 128.282818 
L 243.275826 128.509943 
L 243.645621 128.737069 
L 244.015416 128.964194 
L 244.38521 129.19132 
L 244.755005 129.418445 
L 245.1248 129.645571 
L 245.494594 129.872696 
L 245.864389 130.099822 
L 246.234184 130.326947 
L 246.603978 130.554073 
L 246.973773 130.781198 
L 247.343568 131.008324 
L 247.713362 131.235449 
L 248.083157 131.462575 
L 248.452952 131.6897 
L 248.822747 131.916826 
L 249.192541 132.143951 
L 249.562336 132.371077 
L 249.932131 132.598202 
L 250.301925 132.825328 
L 250.67172 133.052453 
L 251.041515 133.279579 
L 251.411309 133.506704 
L 251.781104 133.73383 
L 252.150899 133.960955 
L 252.520693 134.188081 
L 252.890488 134.415206 
L 253.260283 134.642332 
L 253.630077 134.869457 
L 253.999872 135.096583 
L 254.369667 135.323709 
L 254.739461 135.550834 
L 255.109256 135.77796 
L 255.479051 136.005085 
L 255.848845 136.232211 
L 256.21864 136.459336 
L 256.588435 136.686462 
L 256.958229 136.913587 
L 257.328024 137.140713 
L 257.697819 137.367838 
L 258.067614 137.594964 
L 258.437408 137.822089 
L 258.807203 138.049215 
L 259.176998 138.27634 
L 259.546792 138.503466 
L 259.916587 138.730591 
L 260.286382 138.957717 
L 260.656176 139.184842 
L 261.025971 139.411968 
L 261.395766 139.639093 
L 261.76556 139.866219 
L 262.135355 140.093344 
L 262.50515 140.32047 
L 262.874944 140.547595 
L 263.244739 140.774721 
L 263.614534 141.001846 
L 263.984328 141.228972 
L 264.354123 141.456097 
L 264.723918 141.683223 
L 265.093712 141.910348 
L 265.463507 142.137474 
L 265.833302 142.364599 
L 266.203096 142.591725 
L 266.572891 142.81885 
L 266.942686 143.045976 
L 267.31248 143.273101 
L 267.682275 143.500227 
L 268.05207 143.727352 
L 268.421865 143.954478 
L 268.791659 144.181603 
L 269.161454 144.408729 
L 269.531249 144.635854 
L 269.901043 144.86298 
L 270.270838 145.090105 
L 270.640633 145.317231 
L 271.010427 145.544356 
L 271.380222 145.771482 
L 271.750017 145.998607 
L 272.119811 146.225733 
L 272.489606 146.452858 
L 272.859401 146.679984 
L 273.229195 146.907109 
L 273.59899 147.134235 
L 273.968785 147.36136 
L 274.338579 147.588486 
L 274.708374 147.815611 
L 275.078169 148.042737 
L 275.447963 148.269862 
L 275.817758 148.496988 
L 276.187553 148.724113 
L 276.557347 148.951239 
L 276.927142 149.178364 
L 277.296937 149.40549 
L 277.666731 149.632615 
L 278.036526 149.859741 
L 278.406321 150.086866 
L 278.776116 150.313992 
L 279.14591 150.541117 
L 279.515705 150.768243 
L 279.8855 150.995368 
L 280.255294 151.222494 
L 280.625089 151.449619 
L 280.994884 151.676745 
L 281.364678 151.90387 
L 281.734473 152.130996 
L 282.104268 152.358121 
L 282.474062 152.585247 
L 282.843857 152.812372 
L 283.213652 153.039498 
L 283.583446 153.266623 
L 283.953241 153.493749 
L 284.323036 153.720874 
L 284.69283 153.948 
L 285.062625 154.175126 
L 285.43242 154.402251 
L 285.802214 154.629377 
L 286.172009 154.856502 
L 286.541804 155.083628 
L 286.911598 155.310753 
L 287.281393 155.537879 
L 287.651188 155.765004 
L 288.020983 155.99213 
L 288.390777 156.219255 
L 288.760572 156.446381 
L 289.130367 156.673506 
L 289.500161 156.900632 
L 289.869956 157.127757 
L 290.239751 157.354883 
L 290.609545 157.582008 
L 290.97934 157.809134 
L 291.349135 158.036259 
L 291.718929 158.263385 
L 292.088724 158.49051 
L 292.458519 158.717636 
L 292.828313 158.944761 
L 293.198108 159.171887 
L 293.567903 159.399012 
L 293.937697 159.626138 
L 294.307492 159.853263 
L 294.677287 160.080389 
L 295.047081 160.307514 
L 295.416876 160.53464 
L 295.786671 160.761765 
L 296.156465 160.988891 
L 296.52626 161.216016 
L 296.896055 161.443142 
L 297.265849 161.670267 
L 297.635644 161.897393 
L 298.005439 162.124518 
L 298.375234 162.351644 
L 298.745028 162.578769 
L 299.114823 162.805895 
L 299.484618 163.03302 
L 299.854412 163.260146 
L 300.224207 163.487271 
L 300.594002 163.714397 
L 300.963796 163.941522 
L 301.333591 164.168648 
L 301.703386 164.395773 
L 302.07318 164.622899 
L 302.442975 164.850024 
L 302.81277 165.07715 
L 303.182564 165.304275 
L 303.552359 165.531401 
L 303.922154 165.758526 
L 304.291948 165.985652 
L 304.661743 166.212777 
L 305.031538 166.439903 
L 305.401332 166.667028 
L 305.771127 166.894154 
L 306.140922 167.121279 
L 306.510716 167.348405 
L 306.880511 167.57553 
L 307.250306 167.802656 
L 307.6201 168.029781 
L 307.989895 168.256907 
L 308.35969 168.484032 
L 308.729485 168.711158 
L 309.099279 168.938283 
L 309.469074 169.165409 
L 309.838869 169.392534 
L 310.208663 169.61966 
L 310.578458 169.846785 
L 310.948253 170.073911 
L 311.318047 170.301036 
L 311.687842 170.528162 
L 312.057637 170.755287 
L 312.427431 170.982413 
L 312.797226 171.209538 
L 313.167021 171.436664 
L 313.536815 171.663789 
L 313.90661 171.890915 
L 314.276405 172.11804 
L 314.646199 172.345166 
L 315.015994 172.572291 
L 315.385789 172.799417 
L 315.755583 173.026543 
L 316.125378 173.253668 
L 316.495173 173.480794 
L 316.864967 173.707919 
L 317.234762 173.935045 
L 317.604557 174.16217 
L 317.974352 174.389296 
L 318.344146 174.616421 
L 318.713941 174.843547 
L 319.083736 175.070672 
L 319.45353 175.297798 
L 319.823325 175.524923 
L 320.19312 175.752049 
L 320.562914 175.979174 
L 320.932709 176.2063 
L 321.302504 176.433425 
L 321.672298 176.660551 
L 322.042093 176.887676 
L 322.411888 177.114802 
L 322.781682 177.341927 
L 323.151477 177.569053 
L 323.521272 177.796178 
L 323.891066 178.023304 
L 324.260861 178.250429 
L 324.630656 178.477555 
L 325.00045 178.70468 
L 325.370245 178.931806 
L 325.74004 179.158931 
L 326.109834 179.386057 
L 326.479629 179.613182 
L 326.849424 179.840308 
L 327.219218 180.067433 
L 327.589013 180.294559 
L 327.958808 180.521684 
L 328.328603 180.74881 
L 328.698397 180.975935 
L 329.068192 181.203061 
L 329.437987 181.430186 
L 329.807781 181.657312 
L 330.177576 181.884437 
L 330.547371 182.111563 
L 330.917165 182.338688 
L 331.28696 182.565814 
L 331.656755 182.792939 
L 332.026549 183.020065 
L 332.396344 183.24719 
L 332.766139 183.474316 
L 333.135933 183.701441 
L 333.505728 183.928567 
L 333.875523 184.155692 
L 334.245317 184.382818 
L 334.615112 184.609943 
L 334.984907 184.837069 
L 335.354701 185.064194 
L 335.724496 185.29132 
L 336.094291 185.518445 
L 336.464085 185.745571 
L 336.83388 185.972696 
L 337.203675 186.199822 
L 337.573469 186.426947 
L 337.943264 186.654073 
L 338.313059 186.881198 
L 338.682854 187.108324 
L 339.052648 187.335449 
L 339.422443 187.562575 
L 339.792238 187.7897 
L 340.162032 188.016826 
z
" clip-path="url(#pfff15a92ca)" style="fill:var(--c8); fill-opacity: 0.15"/>
   </g>
   <g id="line2d_25">
    <path d="M 45.435673 7.224923 
L 48.416442 9.055692 
L 51.397212 10.886462 
L 54.377981 12.717231 
L 57.35875 14.548 
L 60.339519 16.378769 
L 63.320288 18.209538 
L 66.301058 20.040308 
L 69.281827 21.871077 
L 72.262596 23.701846 
L 75.243365 25.532615 
L 78.224135 27.363385 
L 81.204904 29.194154 
L 84.185673 31.024923 
L 87.166442 32.855692 
L 90.147212 34.686462 
L 93.127981 36.517231 
L 96.10875 38.348 
L 99.089519 40.178769 
L 102.070288 42.009538 
L 105.051058 43.840308 
L 108.031827 45.671077 
L 111.012596 47.501846 
L 113.993365 49.332615 
L 116.974135 51.163385 
L 119.954904 52.994154 
L 122.935673 54.824923 
L 125.916442 56.655692 
L 128.897212 58.486462 
L 131.877981 60.317231 
L 134.85875 62.148 
L 137.839519 63.978769 
L 140.820288 65.809538 
L 143.801058 67.640308 
L 146.781827 69.471077 
L 149.762596 71.301846 
L 152.743365 73.132615 
L 155.724135 74.963385 
L 158.704904 76.794154 
L 161.685673 78.624923 
L 164.666442 80.455692 
L 167.647212 82.286462 
L 170.627981 84.117231 
L 173.60875 85.948 
L 176.589519 87.778769 
L 179.570288 89.609538 
L 182.551058 91.440308 
L 185.531827 93.271077 
L 188.512596 95.101846 
L 191.493365 96.932615 
L 194.474135 98.763385 
L 197.454904 100.594154 
L 200.435673 102.424923 
L 203.416442 104.255692 
L 206.397212 106.086462 
L 209.377981 107.917231 
L 212.35875 109.748 
L 215.339519 111.578769 
L 218.320288 113.409538 
L 221.301058 115.240308 
L 224.281827 117.071077 
L 227.262596 118.901846 
L 230.243365 120.732615 
L 233.224135 122.563385 
L 236.204904 124.394154 
L 239.185673 126.224923 
L 242.166442 128.055692 
L 245.147212 129.886462 
L 248.127981 131.717231 
L 251.10875 133.548 
L 254.089519 135.378769 
L 257.070288 137.209538 
L 260.051058 139.040308 
L 263.031827 140.871077 
L 266.012596 142.701846 
L 268.993365 144.532615 
L 271.974135 146.363385 
L 274.954904 148.194154 
L 277.935673 150.024923 
L 280.916442 151.855692 
L 283.897212 153.686462 
L 286.877981 155.517231 
L 289.85875 157.348 
L 292.839519 159.178769 
L 295.820288 161.009538 
L 298.801058 162.840308 
L 301.781827 164.671077 
L 304.762596 166.501846 
L 307.743365 168.332615 
L 310.724135 170.163385 
L 313.704904 171.994154 
L 316.685673 173.824923 
L 319.666442 175.655692 
L 322.647212 177.486462 
L 325.627981 179.317231 
L 328.60875 181.148 
L 331.589519 182.978769 
L 334.570288 184.809538 
L 337.551058 186.640308 
L 340.531827 188.471077 
" clip-path="url(#pfff15a92ca)" style="fill: none; stroke:var(--c8); stroke-width: 2; stroke-linecap: square"/>
   </g>
   <g class="patch">
    <path d="M 39.53375 192.096 
L 39.53375 3.6 
" style="fill: none; stroke:var(--black); stroke-width: 0.8; stroke-linejoin: miter; stroke-linecap: square"/>
   </g>
   <g class="patch">
    <path d="M 39.53375 192.096 
L 346.43375 192.096 
" style="fill: none; stroke:var(--black); stroke-width: 0.8; stroke-linejoin: miter; stroke-linecap: square"/>
   </g>
   <g class="legend">
    <g class="patch">
     <path d="M 218.924375 26.420312 
L 339.43375 26.420312 
Q 341.43375 26.420312 341.43375 24.420312 
L 341.43375 10.6 
Q 341.43375 8.6 339.43375 8.6 
L 218.924375 8.6 
Q 216.924375 8.6 216.924375 10.6 
L 216.924375 24.420312 
Q 216.924375 26.420312 218.924375 26.420312 
L 218.924375 26.420312 
z
" style="fill: none; opacity: 0.9; stroke: #cccccc; stroke-linejoin: miter"/>
    </g>
    <g class="patch">
     <path d="M 220.924375 20.198437 
L 240.924375 20.198437 
L 240.924375 13.198437 
L 220.924375 13.198437 
z
" style="fill:var(--c8); opacity: 0.15"/>
    </g>
    <g id="text_15" class="text">
     <!-- Infeasible Region -->
     <g transform="translate(248.924375 20.198437) scale(0.1 -0.1)">
      <defs>
       <path id="DejaVuSerif-49" d="M 1581 331 
L 2175 331 
L 2175 0 
L 353 0 
L 353 331 
L 947 331 
L 947 4331 
L 353 4331 
L 353 4666 
L 2175 4666 
L 2175 4331 
L 1581 4331 
L 1581 331 
z
" transform="scale(0.015625)"/>
       <path id="DejaVuSerif-6e" d="M 263 0 
L 263 331 
L 781 331 
L 781 2988 
L 231 2988 
L 231 3322 
L 1356 3322 
L 1356 2731 
Q 1516 3069 1770 3241 
Q 2025 3413 2363 3413 
Q 2913 3413 3172 3097 
Q 3431 2781 3431 2113 
L 3431 331 
L 3944 331 
L 3944 0 
L 2356 0 
L 2356 331 
L 2853 331 
L 2853 1931 
Q 2853 2541 2703 2767 
Q 2553 2994 2175 2994 
Q 1775 2994 1565 2701 
Q 1356 2409 1356 1850 
L 1356 331 
L 1856 331 
L 1856 0 
L 263 0 
z
" transform="scale(0.015625)"/>
       <path id="DejaVuSerif-66" d="M 2753 4078 
L 2450 4078 
Q 2447 4313 2317 4434 
Q 2188 4556 1941 4556 
Q 1619 4556 1487 4379 
Q 1356 4203 1356 3750 
L 1356 3322 
L 2284 3322 
L 2284 2988 
L 1356 2988 
L 1356 331 
L 2094 331 
L 2094 0 
L 231 0 
L 231 331 
L 781 331 
L 781 2988 
L 231 2988 
L 231 3322 
L 781 3322 
L 781 3738 
Q 781 4294 1070 4578 
Q 1359 4863 1919 4863 
Q 2128 4863 2337 4825 
Q 2547 4788 2753 4709 
L 2753 4078 
z
" transform="scale(0.015625)"/>
       <path id="DejaVuSerif-65" d="M 3469 1600 
L 991 1600 
L 991 1575 
Q 991 903 1244 561 
Q 1497 219 1991 219 
Q 2369 219 2611 417 
Q 2853 616 2950 1006 
L 3413 1006 
Q 3275 459 2904 184 
Q 2534 -91 1931 -91 
Q 1203 -91 761 389 
Q 319 869 319 1663 
Q 319 2450 753 2931 
Q 1188 3413 1894 3413 
Q 2647 3413 3050 2948 
Q 3453 2484 3469 1600 
z
M 2791 1931 
Q 2772 2513 2545 2808 
Q 2319 3103 1894 3103 
Q 1497 3103 1269 2806 
Q 1041 2509 991 1931 
L 2791 1931 
z
" transform="scale(0.015625)"/>
       <path id="DejaVuSerif-61" d="M 2547 1044 
L 2547 1747 
L 1806 1747 
Q 1378 1747 1168 1562 
Q 959 1378 959 997 
Q 959 650 1171 447 
Q 1384 244 1747 244 
Q 2106 244 2326 466 
Q 2547 688 2547 1044 
z
M 3122 2075 
L 3122 331 
L 3634 331 
L 3634 0 
L 2547 0 
L 2547 359 
Q 2356 128 2106 18 
Q 1856 -91 1522 -91 
Q 969 -91 644 203 
Q 319 497 319 997 
Q 319 1513 691 1797 
Q 1063 2081 1741 2081 
L 2547 2081 
L 2547 2309 
Q 2547 2688 2317 2895 
Q 2088 3103 1672 3103 
Q 1328 3103 1125 2947 
Q 922 2791 872 2484 
L 575 2484 
L 575 3156 
Q 875 3284 1158 3348 
Q 1441 3413 1709 3413 
Q 2400 3413 2761 3070 
Q 3122 2728 3122 2075 
z
" transform="scale(0.015625)"/>
       <path id="DejaVuSerif-73" d="M 359 184 
L 359 959 
L 691 959 
Q 703 588 923 403 
Q 1144 219 1575 219 
Q 1963 219 2166 364 
Q 2369 509 2369 788 
Q 2369 1006 2220 1140 
Q 2072 1275 1594 1428 
L 1178 1569 
Q 750 1706 558 1912 
Q 366 2119 366 2438 
Q 366 2894 700 3153 
Q 1034 3413 1625 3413 
Q 1888 3413 2178 3344 
Q 2469 3275 2778 3144 
L 2778 2419 
L 2447 2419 
Q 2434 2741 2221 2922 
Q 2009 3103 1644 3103 
Q 1281 3103 1095 2975 
Q 909 2847 909 2591 
Q 909 2381 1050 2254 
Q 1191 2128 1613 1997 
L 2069 1856 
Q 2541 1709 2748 1489 
Q 2956 1269 2956 922 
Q 2956 450 2595 179 
Q 2234 -91 1600 -91 
Q 1278 -91 972 -22 
Q 666 47 359 184 
z
" transform="scale(0.015625)"/>
       <path id="DejaVuSerif-69" d="M 622 4353 
Q 622 4497 726 4603 
Q 831 4709 978 4709 
Q 1122 4709 1226 4603 
Q 1331 4497 1331 4353 
Q 1331 4206 1228 4103 
Q 1125 4000 978 4000 
Q 831 4000 726 4103 
Q 622 4206 622 4353 
z
M 1356 331 
L 1900 331 
L 1900 0 
L 231 0 
L 231 331 
L 781 331 
L 781 2988 
L 231 2988 
L 231 3322 
L 1356 3322 
L 1356 331 
z
" transform="scale(0.015625)"/>
       <path id="DejaVuSerif-62" d="M 738 331 
L 738 4531 
L 184 4531 
L 184 4863 
L 1313 4863 
L 1313 2803 
Q 1481 3116 1742 3264 
Q 2003 3413 2388 3413 
Q 3000 3413 3387 2928 
Q 3775 2444 3775 1663 
Q 3775 881 3387 395 
Q 3000 -91 2388 -91 
Q 2003 -91 1742 57 
Q 1481 206 1313 519 
L 1313 0 
L 184 0 
L 184 331 
L 738 331 
z
M 1313 1497 
Q 1313 897 1542 583 
Q 1772 269 2209 269 
Q 2650 269 2876 622 
Q 3103 975 3103 1663 
Q 3103 2353 2876 2703 
Q 2650 3053 2209 3053 
Q 1772 3053 1542 2737 
Q 1313 2422 1313 1825 
L 1313 1497 
z
" transform="scale(0.015625)"/>
       <path id="DejaVuSerif-6c" d="M 1313 331 
L 1856 331 
L 1856 0 
L 184 0 
L 184 331 
L 738 331 
L 738 4531 
L 184 4531 
L 184 4863 
L 1313 4863 
L 1313 331 
z
" transform="scale(0.015625)"/>
       <path id="DejaVuSerif-20" transform="scale(0.015625)"/>
       <path id="DejaVuSerif-52" d="M 3066 2316 
Q 3284 2256 3442 2114 
Q 3600 1972 3725 1716 
L 4403 331 
L 4972 331 
L 4972 0 
L 3872 0 
L 3144 1484 
Q 2934 1916 2759 2042 
Q 2584 2169 2278 2169 
L 1581 2169 
L 1581 331 
L 2241 331 
L 2241 0 
L 353 0 
L 353 331 
L 947 331 
L 947 4331 
L 353 4331 
L 353 4666 
L 2719 4666 
Q 3400 4666 3770 4341 
Q 4141 4016 4141 3419 
Q 4141 2938 3870 2661 
Q 3600 2384 3066 2316 
z
M 1581 2503 
L 2503 2503 
Q 2975 2503 3200 2726 
Q 3425 2950 3425 3419 
Q 3425 3888 3200 4109 
Q 2975 4331 2503 4331 
L 1581 4331 
L 1581 2503 
z
" transform="scale(0.015625)"/>
       <path id="DejaVuSerif-67" d="M 3359 2988 
L 3359 72 
Q 3359 -644 2965 -1033 
Q 2572 -1422 1844 -1422 
Q 1516 -1422 1216 -1362 
Q 916 -1303 641 -1184 
L 641 -488 
L 941 -488 
Q 997 -813 1206 -963 
Q 1416 -1113 1806 -1113 
Q 2313 -1113 2548 -827 
Q 2784 -541 2784 72 
L 2784 519 
Q 2616 206 2355 57 
Q 2094 -91 1709 -91 
Q 1097 -91 708 395 
Q 319 881 319 1663 
Q 319 2444 706 2928 
Q 1094 3413 1709 3413 
Q 2094 3413 2355 3264 
Q 2616 3116 2784 2803 
L 2784 3322 
L 3909 3322 
L 3909 2988 
L 3359 2988 
z
M 2784 1825 
Q 2784 2422 2554 2737 
Q 2325 3053 1888 3053 
Q 1444 3053 1217 2703 
Q 991 2353 991 1663 
Q 991 975 1217 622 
Q 1444 269 1888 269 
Q 2325 269 2554 583 
Q 2784 897 2784 1497 
L 2784 1825 
z
" transform="scale(0.015625)"/>
       <path id="DejaVuSerif-6f" d="M 1925 219 
Q 2388 219 2623 584 
Q 2859 950 2859 1663 
Q 2859 2375 2623 2739 
Q 2388 3103 1925 3103 
Q 1463 3103 1227 2739 
Q 991 2375 991 1663 
Q 991 950 1228 584 
Q 1466 219 1925 219 
z
M 1925 -91 
Q 1200 -91 759 389 
Q 319 869 319 1663 
Q 319 2456 758 2934 
Q 1197 3413 1925 3413 
Q 2653 3413 3092 2934 
Q 3531 2456 3531 1663 
Q 3531 869 3092 389 
Q 2653 -91 1925 -91 
z
" transform="scale(0.015625)"/>
      </defs>
      <use xlink:href="#DejaVuSerif-49"/>
      <use xlink:href="#DejaVuSerif-6e" transform="translate(39.501953 0)"/>
      <use xlink:href="#DejaVuSerif-66" transform="translate(103.90625 0)"/>
      <use xlink:href="#DejaVuSerif-65" transform="translate(140.917969 0)"/>
      <use xlink:href="#DejaVuSerif-61" transform="translate(200.097656 0)"/>
      <use xlink:href="#DejaVuSerif-73" transform="translate(259.716797 0)"/>
      <use xlink:href="#DejaVuSerif-69" transform="translate(311.035156 0)"/>
      <use xlink:href="#DejaVuSerif-62" transform="translate(343.017578 0)"/>
      <use xlink:href="#DejaVuSerif-6c" transform="translate(407.03125 0)"/>
      <use xlink:href="#DejaVuSerif-65" transform="translate(439.013672 0)"/>
      <use xlink:href="#DejaVuSerif-20" transform="translate(498.193359 0)"/>
      <use xlink:href="#DejaVuSerif-52" transform="translate(529.980469 0)"/>
      <use xlink:href="#DejaVuSerif-65" transform="translate(605.273438 0)"/>
      <use xlink:href="#DejaVuSerif-67" transform="translate(664.453125 0)"/>
      <use xlink:href="#DejaVuSerif-69" transform="translate(728.466797 0)"/>
      <use xlink:href="#DejaVuSerif-6f" transform="translate(760.449219 0)"/>
      <use xlink:href="#DejaVuSerif-6e" transform="translate(820.654297 0)"/>
     </g>
    </g>
   </g>
  </g>
 </g>
 <defs>
  <clipPath id="pfff15a92ca">
   <rect x="39.53375" y="3.6" width="306.9" height="188.496"/>
  </clipPath>
 </defs>
</svg>
