<?xml version="1.0" encoding="utf-8" standalone="no"?>
<!DOCTYPE svg PUBLIC "-//W3C//DTD SVG 1.1//EN"
  "http://www.w3.org/Graphics/SVG/1.1/DTD/svg11.dtd">
<svg xmlns:xlink="http://www.w3.org/1999/xlink" width="280.54498pt" height="294.603535pt" viewBox="0 0 280.54498 294.603535" xmlns="http://www.w3.org/2000/svg" version="1.1">
        <style>
            /* Light mode (default) */
            .c1 { fill: #d62728 !important; stroke: #d62728 !important; }
.c2 { fill: #2ca02c !important; stroke: #2ca02c !important; }
.c3 { fill: #1f77b4 !important; stroke: #1f77b4 !important; }
.c4 { fill: #9467bd !important; stroke: #9467bd !important; }
.c5 { fill: #8c564b !important; stroke: #8c564b !important; }
.c6 { fill: #e377c2 !important; stroke: #e377c2 !important; }
.c7 { fill: #7f7f7f !important; stroke: #7f7f7f !important; }
.c8 { fill: #bcbd22 !important; stroke: #bcbd22 !important; }

            /* Text and graphic elements */
            text, .text {
                fill: #000000 !important;
                stroke: none !important;
            }

            .axis line, .axis path, .tick line, .tick path, path.domain, line.grid {
                stroke: #000000 !important;
            }

            .legend text {
                fill: #000000 !important;
            }

            g.legend > g:first-child > path:first-child {
                fill: rgba(255, 255, 255, 0.8) !important;
                stroke: rgba(0, 0, 0, 0.1) !important;
            }

            /* 3D specific styles - light mode */
            .plot3d path {
                stroke: rgba(0, 0, 0, 0.3) !important;
            }

            .plot3d polygon {
                stroke: rgba(0, 0, 0, 0.2) !important;
            }

            /* 3D grid lines */
            .plot3d-grid line {
                stroke: rgba(0, 0, 0, 0.2) !important;
            }

            /* Preserve mesh colors */
            .plot3d-surface path[style*="fill:"] {
                fill-opacity: 0.9 !important;
            }

            [stroke="currentColor"], [stroke="black"] {
                stroke: #000000 !important;
            }

            /* Dark mode via media query */
            @media (prefers-color-scheme: dark) {
                /* Dark theme colors */
                .c1 { fill: #FF4A98 !important; stroke: #FF4A98 !important; }
                .c2 { fill: #0AFAFA !important; stroke: #0AFAFA !important; }
                .c3 { fill: #7F83FF !important; stroke: #7F83FF !important; }
                .c4 { fill: #B4A0FF !important; stroke: #B4A0FF !important; }
                .c5 { fill: #FFB86B !important; stroke: #FFB86B !important; }
                .c6 { fill: #FF79C6 !important; stroke: #FF79C6 !important; }
                .c7 { fill: #CCCCCC !important; stroke: #CCCCCC !important; }
                .c8 { fill: #E6DB74 !important; stroke: #E6DB74 !important; }

                /* Dark theme text and graphics */
                text, .text {
                    fill: #FFFFFF !important;
                    stroke: none !important;
                }

                .axis line, .axis path, .tick line, .tick path, path.domain, line.grid {
                    stroke: #FFFFFF !important;
                }

                .grid line {
                    stroke: rgba(255, 255, 255, 0.2) !important;
                }

                .legend text {
                    fill: #FFFFFF !important;
                }

                g.legend > g:first-child > path:first-child {
                    fill: rgba(26, 26, 26, 0.8) !important;
                    stroke: rgba(255, 255, 255, 0.1) !important;
                }


                /* 3D specific styles - dark mode */
                .plot3d path {
                    stroke: rgba(255, 255, 255, 0.3) !important;
                }

                .plot3d polygon {
                    stroke: rgba(255, 255, 255, 0.2) !important;
                }

                /* 3D grid lines */
                .plot3d-grid line {
                    stroke: rgba(255, 255, 255, 0.2) !important;
                }

                /* Preserve mesh colors in dark mode */
                .plot3d-surface path[style*="fill:"] {
                    fill-opacity: 0.95 !important;
                    filter: saturate(1.2) !important; /* Boost colors in dark mode */
                }

                [stroke="currentColor"], [stroke="black"] {
                    stroke: #FFFFFF !important;
                }
            }
        </style>
        
 <metadata>
  <rdf:RDF xmlns:dc="http://purl.org/dc/elements/1.1/" xmlns:cc="http://creativecommons.org/ns#" xmlns:rdf="http://www.w3.org/1999/02/22-rdf-syntax-ns#">
   <cc:Work>
    <dc:type rdf:resource="http://purl.org/dc/dcmitype/StillImage"/>
    <dc:date>2025-04-04T09:52:08.803215</dc:date>
    <dc:format>image/svg+xml</dc:format>
    <dc:creator>
     <cc:Agent>
      <dc:title>Matplotlib v3.10.1, https://matplotlib.org/</dc:title>
     </cc:Agent>
    </dc:creator>
   </cc:Work>
  </rdf:RDF>
 </metadata>
 <defs>
  <style type="text/css">*{stroke-linejoin: round; stroke-linecap: butt}</style>
 </defs>
 <g id="figure_1">
  <g class="patch">
   <path d="M 0 294.603535 
L 280.54498 294.603535 
L 280.54498 0 
L 0 0 
L 0 294.603535 
z
" style="fill: none"/>
  </g>
  <g class="patch">
   <path d="M 7.2 273.312 
L 273.312 273.312 
L 273.312 7.2 
L 7.2 7.2 
L 7.2 273.312 
z
" style="fill: none"/>
  </g>
  <g id="pane3d_1">
   <g class="patch">
    <path d="M 36.832607 218.845431 
L 117.342091 149.9149 
L 115.93652 18.519704 
L 30.668128 80.067902 
" style="fill: none; opacity: 0.3; stroke: #808080; stroke-linejoin: miter"/>
   </g>
  </g>
  <g id="pane3d_2">
   <g class="patch">
    <path d="M 117.342091 149.9149 
L 247.299674 188.383675 
L 253.048471 52.802633 
L 115.93652 18.519704 
" style="fill: none; opacity: 0.3; stroke: #808080; stroke-linejoin: miter"/>
   </g>
  </g>
  <g id="pane3d_3">
   <g class="patch">
    <path d="M 36.832607 218.845431 
L 173.947415 264.024759 
L 247.299674 188.383675 
L 117.342091 149.9149 
" style="fill: none; opacity: 0.3; stroke: #808080; stroke-linejoin: miter"/>
   </g>
  </g>
  <g class="plot3d-grid">
   <g class="plot3d">
    <path d="M 41.611695 220.420141 
L 121.88806 151.260554 
L 120.721561 19.716137 
" style="fill: none; stroke: #b0b0b0; stroke-width: 0.8"/>
    <path d="M 64.688226 228.023858 
L 143.822277 157.753306 
L 143.82068 25.491749 
" style="fill: none; stroke: #b0b0b0; stroke-width: 0.8"/>
    <path d="M 88.151828 235.755114 
L 166.096142 164.346599 
L 167.296791 31.361623 
" style="fill: none; stroke: #b0b0b0; stroke-width: 0.8"/>
    <path d="M 112.012322 243.617147 
L 188.717607 171.042784 
L 191.159201 37.328085 
" style="fill: none; stroke: #b0b0b0; stroke-width: 0.8"/>
    <path d="M 136.279865 251.613301 
L 211.694871 177.844289 
L 215.417523 43.39354 
" style="fill: none; stroke: #b0b0b0; stroke-width: 0.8"/>
    <path d="M 160.96496 259.74704 
L 235.036396 184.753619 
L 240.081692 49.560471 
" style="fill: none; stroke: #b0b0b0; stroke-width: 0.8"/>
   </g>
  </g>
  <g class="plot3d-grid">
   <g class="plot3d">
    <path d="M 34.040271 77.63383 
L 40.0033 216.130751 
L 176.846609 261.0351 
" style="fill: none; stroke: #b0b0b0; stroke-width: 0.8"/>
    <path d="M 49.872286 66.206009 
L 54.904052 203.37304 
L 190.460024 246.996904 
" style="fill: none; stroke: #b0b0b0; stroke-width: 0.8"/>
    <path d="M 65.242101 55.111811 
L 69.39276 190.968112 
L 203.678954 233.365501 
" style="fill: none; stroke: #b0b0b0; stroke-width: 0.8"/>
    <path d="M 80.169664 44.336838 
L 83.486281 178.901534 
L 216.520301 220.123462 
" style="fill: none; stroke: #b0b0b0; stroke-width: 0.8"/>
    <path d="M 94.673793 33.867507 
L 97.200568 167.15965 
L 229.000016 207.254341 
" style="fill: none; stroke: #b0b0b0; stroke-width: 0.8"/>
    <path d="M 108.772253 23.690995 
L 110.550723 155.729527 
L 241.133163 194.742601 
" style="fill: none; stroke: #b0b0b0; stroke-width: 0.8"/>
   </g>
  </g>
  <g class="plot3d-grid">
   <g class="plot3d">
    <path d="M 247.498934 183.684277 
L 117.293258 145.349936 
L 36.619335 214.04415 
" style="fill: none; stroke: #b0b0b0; stroke-width: 0.8"/>
    <path d="M 248.462216 160.966004 
L 117.057302 123.292363 
L 35.587913 190.824333 
" style="fill: none; stroke: #b0b0b0; stroke-width: 0.8"/>
    <path d="M 249.443571 137.821487 
L 116.817116 100.839346 
L 34.536458 167.153496 
" style="fill: none; stroke: #b0b0b0; stroke-width: 0.8"/>
    <path d="M 250.443512 114.238617 
L 116.572585 77.980155 
L 33.464379 143.018371 
" style="fill: none; stroke: #b0b0b0; stroke-width: 0.8"/>
    <path d="M 251.462574 90.204822 
L 116.32359 54.703667 
L 32.371064 118.405162 
" style="fill: none; stroke: #b0b0b0; stroke-width: 0.8"/>
    <path d="M 252.501309 65.707043 
L 116.070007 30.998351 
L 31.255875 93.299522 
" style="fill: none; stroke: #b0b0b0; stroke-width: 0.8"/>
   </g>
  </g>
  <g id="axis3d_1">
   <g id="line2d_1">
    <path d="M 36.832607 218.845431 
L 173.947415 264.024759 
" style="fill: none; stroke: currentColor; stroke-width: 0.8; stroke-linecap: square"/>
   </g>
   <g class="tick xtick">
    <g id="line2d_2">
     <path d="M 42.306009 219.821977 
L 40.220338 221.618821 
" style="fill: none; stroke: currentColor; stroke-width: 0.8; stroke-linecap: square"/>
    </g>
    <g id="text_1" class="text">
     <!-- −4 -->
     <g transform="translate(27.482296 245.164594) scale(0.1 -0.1)">
      <defs>
       <path id="DejaVuSans-2212" d="M 678 2272 
L 4684 2272 
L 4684 1741 
L 678 1741 
L 678 2272 
z
" transform="scale(0.015625)"/>
       <path id="DejaVuSans-34" d="M 2419 4116 
L 825 1625 
L 2419 1625 
L 2419 4116 
z
M 2253 4666 
L 3047 4666 
L 3047 1625 
L 3713 1625 
L 3713 1100 
L 3047 1100 
L 3047 0 
L 2419 0 
L 2419 1100 
L 313 1100 
L 313 1709 
L 2253 4666 
z
" transform="scale(0.015625)"/>
      </defs>
      <use xlink:href="#DejaVuSans-2212"/>
      <use xlink:href="#DejaVuSans-34" transform="translate(83.789062 0)"/>
     </g>
    </g>
   </g>
   <g class="tick xtick">
    <g id="line2d_3">
     <path d="M 65.373087 227.415706 
L 63.31579 229.242573 
" style="fill: none; stroke: currentColor; stroke-width: 0.8; stroke-linecap: square"/>
    </g>
    <g id="text_2" class="text">
     <!-- −2 -->
     <g transform="translate(50.555277 252.928632) scale(0.1 -0.1)">
      <defs>
       <path id="DejaVuSans-32" d="M 1228 531 
L 3431 531 
L 3431 0 
L 469 0 
L 469 531 
Q 828 903 1448 1529 
Q 2069 2156 2228 2338 
Q 2531 2678 2651 2914 
Q 2772 3150 2772 3378 
Q 2772 3750 2511 3984 
Q 2250 4219 1831 4219 
Q 1534 4219 1204 4116 
Q 875 4013 500 3803 
L 500 4441 
Q 881 4594 1212 4672 
Q 1544 4750 1819 4750 
Q 2544 4750 2975 4387 
Q 3406 4025 3406 3419 
Q 3406 3131 3298 2873 
Q 3191 2616 2906 2266 
Q 2828 2175 2409 1742 
Q 1991 1309 1228 531 
z
" transform="scale(0.015625)"/>
      </defs>
      <use xlink:href="#DejaVuSans-2212"/>
      <use xlink:href="#DejaVuSans-32" transform="translate(83.789062 0)"/>
     </g>
    </g>
   </g>
   <g class="tick xtick">
    <g id="line2d_4">
     <path d="M 88.82682 235.136723 
L 86.799147 236.994371 
" style="fill: none; stroke: currentColor; stroke-width: 0.8; stroke-linecap: square"/>
    </g>
    <g id="text_3" class="text">
     <!-- 0 -->
     <g transform="translate(78.206006 260.8232) scale(0.1 -0.1)">
      <defs>
       <path id="DejaVuSans-30" d="M 2034 4250 
Q 1547 4250 1301 3770 
Q 1056 3291 1056 2328 
Q 1056 1369 1301 889 
Q 1547 409 2034 409 
Q 2525 409 2770 889 
Q 3016 1369 3016 2328 
Q 3016 3291 2770 3770 
Q 2525 4250 2034 4250 
z
M 2034 4750 
Q 2819 4750 3233 4129 
Q 3647 3509 3647 2328 
Q 3647 1150 3233 529 
Q 2819 -91 2034 -91 
Q 1250 -91 836 529 
Q 422 1150 422 2328 
Q 422 3509 836 4129 
Q 1250 4750 2034 4750 
z
" transform="scale(0.015625)"/>
      </defs>
      <use xlink:href="#DejaVuSans-30"/>
     </g>
    </g>
   </g>
   <g class="tick xtick">
    <g id="line2d_5">
     <path d="M 112.677011 242.988254 
L 110.680263 244.877468 
" style="fill: none; stroke: currentColor; stroke-width: 0.8; stroke-linecap: square"/>
    </g>
    <g id="text_4" class="text">
     <!-- 2 -->
     <g transform="translate(102.06466 268.851616) scale(0.1 -0.1)">
      <use xlink:href="#DejaVuSans-32"/>
     </g>
    </g>
   </g>
   <g class="tick xtick">
    <g id="line2d_6">
     <path d="M 136.933801 250.973638 
L 134.969332 252.89523 
" style="fill: none; stroke: currentColor; stroke-width: 0.8; stroke-linecap: square"/>
    </g>
    <g id="text_5" class="text">
     <!-- 4 -->
     <g transform="translate(126.331286 277.017315) scale(0.1 -0.1)">
      <use xlink:href="#DejaVuSans-34"/>
     </g>
    </g>
   </g>
   <g class="tick xtick">
    <g id="line2d_7">
     <path d="M 161.607674 259.096327 
L 159.676897 261.051136 
" style="fill: none; stroke: currentColor; stroke-width: 0.8; stroke-linecap: square"/>
    </g>
    <g id="text_6" class="text">
     <!-- 6 -->
     <g transform="translate(151.016438 285.323847) scale(0.1 -0.1)">
      <defs>
       <path id="DejaVuSans-36" d="M 2113 2584 
Q 1688 2584 1439 2293 
Q 1191 2003 1191 1497 
Q 1191 994 1439 701 
Q 1688 409 2113 409 
Q 2538 409 2786 701 
Q 3034 994 3034 1497 
Q 3034 2003 2786 2293 
Q 2538 2584 2113 2584 
z
M 3366 4563 
L 3366 3988 
Q 3128 4100 2886 4159 
Q 2644 4219 2406 4219 
Q 1781 4219 1451 3797 
Q 1122 3375 1075 2522 
Q 1259 2794 1537 2939 
Q 1816 3084 2150 3084 
Q 2853 3084 3261 2657 
Q 3669 2231 3669 1497 
Q 3669 778 3244 343 
Q 2819 -91 2113 -91 
Q 1303 -91 875 529 
Q 447 1150 447 2328 
Q 447 3434 972 4092 
Q 1497 4750 2381 4750 
Q 2619 4750 2861 4703 
Q 3103 4656 3366 4563 
z
" transform="scale(0.015625)"/>
      </defs>
      <use xlink:href="#DejaVuSans-36"/>
     </g>
    </g>
   </g>
   <g id="text_7" class="text">
    <!-- $\beta_x(t)$ -->
    <g transform="translate(77.376872 278.330476) rotate(-341.762949) scale(0.1 -0.1)">
     <defs>
      <path id="DejaVuSans-Oblique-3b2" d="M 872 216 
L 572 -1331 
L -6 -1331 
L 928 3478 
Q 1206 4903 2538 4903 
Q 3888 4903 3659 3700 
Q 3503 2844 2894 2531 
Q 3713 2250 3553 1416 
Q 3272 -69 1759 -66 
Q 1097 -63 872 216 
z
M 1019 966 
Q 1259 422 1875 425 
Q 2775 425 2966 1406 
Q 3138 2288 1675 2219 
L 1778 2750 
Q 2909 2731 3106 3750 
Q 3241 4438 2509 4434 
Q 1691 4434 1503 3459 
L 1019 966 
z
" transform="scale(0.015625)"/>
      <path id="DejaVuSans-Oblique-78" d="M 3841 3500 
L 2234 1784 
L 3219 0 
L 2559 0 
L 1819 1388 
L 531 0 
L -166 0 
L 1556 1844 
L 641 3500 
L 1300 3500 
L 1972 2234 
L 3144 3500 
L 3841 3500 
z
" transform="scale(0.015625)"/>
      <path id="DejaVuSans-28" d="M 1984 4856 
Q 1566 4138 1362 3434 
Q 1159 2731 1159 2009 
Q 1159 1288 1364 580 
Q 1569 -128 1984 -844 
L 1484 -844 
Q 1016 -109 783 600 
Q 550 1309 550 2009 
Q 550 2706 781 3412 
Q 1013 4119 1484 4856 
L 1984 4856 
z
" transform="scale(0.015625)"/>
      <path id="DejaVuSans-Oblique-74" d="M 2706 3500 
L 2619 3053 
L 1472 3053 
L 1100 1153 
Q 1081 1047 1072 975 
Q 1063 903 1063 863 
Q 1063 663 1183 572 
Q 1303 481 1569 481 
L 2150 481 
L 2053 0 
L 1503 0 
Q 991 0 739 200 
Q 488 400 488 806 
Q 488 878 497 964 
Q 506 1050 525 1153 
L 897 3053 
L 409 3053 
L 500 3500 
L 978 3500 
L 1172 4494 
L 1747 4494 
L 1556 3500 
L 2706 3500 
z
" transform="scale(0.015625)"/>
      <path id="DejaVuSans-29" d="M 513 4856 
L 1013 4856 
Q 1481 4119 1714 3412 
Q 1947 2706 1947 2009 
Q 1947 1309 1714 600 
Q 1481 -109 1013 -844 
L 513 -844 
Q 928 -128 1133 580 
Q 1338 1288 1338 2009 
Q 1338 2731 1133 3434 
Q 928 4138 513 4856 
z
" transform="scale(0.015625)"/>
     </defs>
     <use xlink:href="#DejaVuSans-Oblique-3b2" transform="translate(0 0.390625)"/>
     <use xlink:href="#DejaVuSans-Oblique-78" transform="translate(63.818359 -16.015625) scale(0.7)"/>
     <use xlink:href="#DejaVuSans-28" transform="translate(107.978516 0.390625)"/>
     <use xlink:href="#DejaVuSans-Oblique-74" transform="translate(146.992188 0.390625)"/>
     <use xlink:href="#DejaVuSans-29" transform="translate(186.201172 0.390625)"/>
    </g>
   </g>
  </g>
  <g id="axis3d_2">
   <g id="line2d_8">
    <path d="M 247.299674 188.383675 
L 173.947415 264.024759 
" style="fill: none; stroke: currentColor; stroke-width: 0.8; stroke-linecap: square"/>
   </g>
   <g class="tick xtick">
    <g id="line2d_9">
     <path d="M 175.698293 260.658287 
L 179.145964 261.78962 
" style="fill: none; stroke: currentColor; stroke-width: 0.8; stroke-linecap: square"/>
    </g>
    <g id="text_8" class="text">
     <!-- −4 -->
     <g transform="translate(181.226626 283.725085) scale(0.1 -0.1)">
      <use xlink:href="#DejaVuSans-2212"/>
      <use xlink:href="#DejaVuSans-34" transform="translate(83.789062 0)"/>
     </g>
    </g>
   </g>
   <g class="tick xtick">
    <g id="line2d_10">
     <path d="M 189.32329 246.631086 
L 192.736147 247.729393 
" style="fill: none; stroke: currentColor; stroke-width: 0.8; stroke-linecap: square"/>
    </g>
    <g id="text_9" class="text">
     <!-- −2 -->
     <g transform="translate(194.658894 269.473909) scale(0.1 -0.1)">
      <use xlink:href="#DejaVuSans-2212"/>
      <use xlink:href="#DejaVuSans-32" transform="translate(83.789062 0)"/>
     </g>
    </g>
   </g>
   <g class="tick xtick">
    <g id="line2d_11">
     <path d="M 202.553618 233.010205 
L 205.932216 234.07691 
" style="fill: none; stroke: currentColor; stroke-width: 0.8; stroke-linecap: square"/>
    </g>
    <g id="text_10" class="text">
     <!-- 0 -->
     <g transform="translate(211.892011 255.635445) scale(0.1 -0.1)">
      <use xlink:href="#DejaVuSans-30"/>
     </g>
    </g>
   </g>
   <g class="tick xtick">
    <g id="line2d_12">
     <path d="M 215.406181 219.778241 
L 218.75107 220.814689 
" style="fill: none; stroke: currentColor; stroke-width: 0.8; stroke-linecap: square"/>
    </g>
    <g id="text_11" class="text">
     <!-- 2 -->
     <g transform="translate(224.562944 242.192021) scale(0.1 -0.1)">
      <use xlink:href="#DejaVuSans-32"/>
     </g>
    </g>
   </g>
   <g class="tick xtick">
    <g id="line2d_13">
     <path d="M 227.89693 206.918771 
L 231.208656 207.926231 
" style="fill: none; stroke: currentColor; stroke-width: 0.8; stroke-linecap: square"/>
    </g>
    <g id="text_12" class="text">
     <!-- 4 -->
     <g transform="translate(236.877257 229.126958) scale(0.1 -0.1)">
      <use xlink:href="#DejaVuSans-34"/>
     </g>
    </g>
   </g>
   <g class="tick xtick">
    <g id="line2d_14">
     <path d="M 240.040932 194.416284 
L 243.320034 195.395955 
" style="fill: none; stroke: currentColor; stroke-width: 0.8; stroke-linecap: square"/>
    </g>
    <g id="text_13" class="text">
     <!-- 6 -->
     <g transform="translate(248.849796 216.424505) scale(0.1 -0.1)">
      <use xlink:href="#DejaVuSans-36"/>
     </g>
    </g>
   </g>
   <g id="text_14" class="text">
    <!-- $\beta_y(t)$ -->
    <g transform="translate(230.424543 265.946661) rotate(-45.880104) scale(0.1 -0.1)">
     <defs>
      <path id="DejaVuSans-Oblique-79" d="M 1588 -325 
Q 1188 -997 936 -1164 
Q 684 -1331 294 -1331 
L -159 -1331 
L -63 -850 
L 269 -850 
Q 509 -850 678 -719 
Q 847 -588 1056 -206 
L 1234 128 
L 459 3500 
L 1069 3500 
L 1650 819 
L 3256 3500 
L 3859 3500 
L 1588 -325 
z
" transform="scale(0.015625)"/>
     </defs>
     <use xlink:href="#DejaVuSans-Oblique-3b2" transform="translate(0 0.390625)"/>
     <use xlink:href="#DejaVuSans-Oblique-79" transform="translate(63.818359 -16.015625) scale(0.7)"/>
     <use xlink:href="#DejaVuSans-28" transform="translate(107.978516 0.390625)"/>
     <use xlink:href="#DejaVuSans-Oblique-74" transform="translate(146.992188 0.390625)"/>
     <use xlink:href="#DejaVuSans-29" transform="translate(186.201172 0.390625)"/>
    </g>
   </g>
  </g>
  <g id="axis3d_3">
   <g id="line2d_15">
    <path d="M 247.299674 188.383675 
L 253.048471 52.802633 
" style="fill: none; stroke: currentColor; stroke-width: 0.8; stroke-linecap: square"/>
   </g>
   <g class="tick xtick">
    <g id="line2d_16">
     <path d="M 246.410103 183.36371 
L 249.678985 184.326114 
" style="fill: none; stroke: currentColor; stroke-width: 0.8; stroke-linecap: square"/>
    </g>
    <g id="text_15" class="text">
     <!-- −4 -->
     <g transform="translate(256.993149 188.854653) scale(0.1 -0.1)">
      <use xlink:href="#DejaVuSans-2212"/>
      <use xlink:href="#DejaVuSans-34" transform="translate(83.789062 0)"/>
     </g>
    </g>
   </g>
   <g class="tick xtick">
    <g id="line2d_17">
     <path d="M 247.362914 160.650835 
L 250.663254 161.597039 
" style="fill: none; stroke: currentColor; stroke-width: 0.8; stroke-linecap: square"/>
    </g>
    <g id="text_16" class="text">
     <!-- −2 -->
     <g transform="translate(258.110047 166.17732) scale(0.1 -0.1)">
      <use xlink:href="#DejaVuSans-2212"/>
      <use xlink:href="#DejaVuSans-32" transform="translate(83.789062 0)"/>
     </g>
    </g>
   </g>
   <g class="tick xtick">
    <g id="line2d_18">
     <path d="M 248.333595 137.511976 
L 251.666004 138.4412 
" style="fill: none; stroke: currentColor; stroke-width: 0.8; stroke-linecap: square"/>
    </g>
    <g id="text_17" class="text">
     <!-- 0 -->
     <g transform="translate(263.437686 143.075712) scale(0.1 -0.1)">
      <use xlink:href="#DejaVuSans-30"/>
     </g>
    </g>
   </g>
   <g class="tick xtick">
    <g id="line2d_19">
     <path d="M 249.322654 113.935037 
L 252.68776 114.846463 
" style="fill: none; stroke: currentColor; stroke-width: 0.8; stroke-linecap: square"/>
    </g>
    <g id="text_18" class="text">
     <!-- 2 -->
     <g transform="translate(264.596968 119.537808) scale(0.1 -0.1)">
      <use xlink:href="#DejaVuSans-32"/>
     </g>
    </g>
   </g>
   <g class="tick xtick">
    <g id="line2d_20">
     <path d="M 250.330617 89.907456 
L 253.729067 90.800232 
" style="fill: none; stroke: currentColor; stroke-width: 0.8; stroke-linecap: square"/>
    </g>
    <g id="text_19" class="text">
     <!-- 4 -->
     <g transform="translate(265.778354 95.551131) scale(0.1 -0.1)">
      <use xlink:href="#DejaVuSans-34"/>
     </g>
    </g>
   </g>
   <g class="tick xtick">
    <g id="line2d_21">
     <path d="M 251.358031 65.416189 
L 254.790493 66.289421 
" style="fill: none; stroke: currentColor; stroke-width: 0.8; stroke-linecap: square"/>
    </g>
    <g id="text_20" class="text">
     <!-- 6 -->
     <g transform="translate(266.98248 71.102723) scale(0.1 -0.1)">
      <use xlink:href="#DejaVuSans-36"/>
     </g>
    </g>
   </g>
   <g id="text_21" class="text">
    <!-- $\beta_z(t)$ -->
    <g transform="translate(289.864989 128.568649) rotate(-87.572045) scale(0.1 -0.1)">
     <defs>
      <path id="DejaVuSans-Oblique-7a" d="M 744 3500 
L 3475 3500 
L 3372 2975 
L 738 459 
L 2913 459 
L 2822 0 
L -19 0 
L 84 525 
L 2719 3041 
L 653 3041 
L 744 3500 
z
" transform="scale(0.015625)"/>
     </defs>
     <use xlink:href="#DejaVuSans-Oblique-3b2" transform="translate(0 0.390625)"/>
     <use xlink:href="#DejaVuSans-Oblique-7a" transform="translate(63.818359 -16.015625) scale(0.7)"/>
     <use xlink:href="#DejaVuSans-28" transform="translate(103.295898 0.390625)"/>
     <use xlink:href="#DejaVuSans-Oblique-74" transform="translate(142.30957 0.390625)"/>
     <use xlink:href="#DejaVuSans-29" transform="translate(181.518555 0.390625)"/>
    </g>
   </g>
  </g>
  <g id="axes_1">
   <g id="line2d_22">
    <path d="M 119.189593 155.599451 
L 120.458494 152.739143 
L 119.027461 155.567128 
L 119.780683 156.613669 
L 117.841003 156.797165 
L 119.112991 158.171935 
L 117.295019 158.683478 
L 117.11127 157.948201 
L 118.300157 156.804744 
L 120.583909 158.138026 
L 123.110248 159.986102 
L 122.434878 159.061398 
L 120.437605 160.197729 
L 120.479935 160.214587 
L 119.918894 159.85438 
L 121.391381 158.634689 
L 124.825813 158.482477 
L 125.441182 157.031188 
L 125.755504 158.003154 
L 125.405237 160.180945 
L 125.657552 159.324526 
L 126.850619 160.532145 
L 126.507871 160.51774 
L 127.345721 160.393305 
L 127.314965 159.681262 
L 124.647548 158.422994 
L 124.426328 157.900384 
L 123.493599 158.928197 
L 122.527413 157.186219 
L 119.943841 153.466075 
L 120.440284 152.880328 
L 120.845993 151.752069 
L 122.01201 151.533544 
L 121.962728 151.639874 
L 125.179399 150.323782 
L 125.538135 151.718057 
L 125.916386 149.535644 
L 126.033457 149.673753 
L 122.595929 150.832973 
L 122.717436 148.630514 
L 123.052372 148.616458 
L 123.604083 146.87102 
L 124.272004 147.550482 
L 125.153155 146.267255 
L 123.967641 145.255577 
L 122.34485 147.250319 
L 122.546602 146.37417 
L 125.230088 146.723234 
L 124.077177 148.611745 
L 126.615723 151.874043 
L 129.03827 152.214747 
L 131.037401 150.600586 
L 131.753894 151.088684 
L 129.842768 149.804242 
L 128.335561 148.233357 
L 126.941863 149.834614 
L 127.532742 149.370964 
L 127.429058 148.976488 
L 126.803295 149.091369 
L 126.661464 148.401675 
L 123.24836 149.705966 
L 124.452988 148.542109 
L 123.959697 146.059449 
L 124.650728 146.784458 
L 125.025156 145.6742 
L 125.879087 146.304754 
L 124.675148 146.349563 
L 126.235849 143.93004 
L 126.499449 143.838069 
L 126.025606 142.915859 
L 129.069703 142.707815 
L 125.862824 141.909221 
L 127.789568 140.6481 
L 126.581498 140.50025 
L 123.40354 138.949123 
L 123.159839 137.300664 
L 123.917294 137.982566 
L 123.946718 136.855157 
L 122.665151 137.086809 
L 122.485034 137.605908 
L 123.702919 137.629989 
L 123.490471 139.456023 
L 123.160765 141.054217 
L 123.983665 139.977949 
L 125.413904 140.585223 
L 127.989412 139.963837 
L 128.031811 138.122983 
L 126.996616 138.288847 
L 128.082581 140.81274 
L 127.531019 138.271981 
L 126.617806 140.158593 
L 126.75876 142.484871 
L 128.033252 142.143679 
L 128.084978 141.575347 
L 129.021637 142.183905 
L 130.220676 140.860773 
L 129.527938 140.616671 
L 130.066123 142.028964 
L 131.383241 139.627945 
L 133.465667 138.867414 
L 133.360204 141.847495 
L 134.814085 140.904364 
L 134.785084 139.916277 
L 133.961296 139.182256 
L 133.732541 137.048047 
L 132.796485 137.30444 
L 132.972544 137.417032 
L 133.936759 136.798991 
L 135.594718 137.459883 
L 136.484265 139.08891 
L 134.648026 138.137677 
L 134.152842 138.379516 
L 134.750018 139.71818 
L 132.318422 138.199858 
L 134.115539 138.334167 
L 134.974674 138.143578 
L 134.515883 138.772607 
L 135.761297 138.247094 
L 134.498392 138.579382 
L 134.043455 137.560117 
L 134.527028 135.374513 
L 134.079923 136.760085 
L 133.118686 135.439019 
L 134.826599 135.961108 
L 133.970749 138.029202 
L 135.166797 137.830313 
L 135.862875 134.376754 
L 136.435973 133.758424 
L 135.968276 133.44941 
L 133.232631 132.899755 
L 133.415308 134.327681 
L 136.209236 133.406457 
L 134.948784 131.061167 
L 135.526007 131.417081 
L 134.715941 131.409196 
L 132.10598 131.885836 
L 133.589554 132.969042 
L 135.353864 134.075117 
L 137.648003 136.58078 
L 136.157384 136.975313 
L 135.645076 135.504753 
L 136.350813 134.972815 
L 137.328453 135.006688 
L 137.565197 136.268626 
L 138.964632 135.880522 
L 142.281914 133.791282 
L 142.758634 133.213472 
L 144.438345 133.193754 
L 145.545064 134.345779 
L 146.791253 135.187237 
L 146.753003 135.99886 
L 148.237545 136.360541 
L 146.934683 137.78316 
L 147.921883 136.718527 
L 148.901756 137.42897 
L 151.793318 138.729577 
L 150.898542 139.375263 
L 151.751735 138.856891 
L 150.906667 137.97225 
L 148.691242 138.566358 
L 147.831829 138.520021 
L 150.344279 140.196422 
L 152.928774 139.556677 
L 154.893744 138.645154 
L 154.296773 137.181924 
L 151.821464 136.281568 
L 150.404725 136.206091 
L 151.123221 136.322401 
L 150.443917 137.029723 
L 152.05591 137.65228 
L 151.680845 140.076971 
L 149.990365 141.860874 
L 148.522203 140.356818 
L 148.930093 141.878306 
L 148.835041 141.882553 
L 147.500181 142.463053 
L 148.678818 143.910943 
L 149.941244 146.644932 
L 149.900152 150.459504 
L 150.196315 149.757044 
L 151.440169 151.294632 
L 153.03133 149.409184 
L 155.75291 150.270413 
L 156.614589 152.772355 
L 158.032284 154.88249 
L 158.591071 153.259065 
L 158.785481 152.241858 
L 158.332249 151.911294 
L 159.552862 151.232526 
L 160.501247 150.863155 
L 161.657244 150.257609 
L 159.599879 150.932588 
L 159.648504 150.000832 
L 161.111024 151.116222 
L 162.014746 149.246881 
L 162.981255 150.572179 
L 163.315695 148.181894 
L 163.418909 144.949198 
L 165.075088 145.183908 
L 167.36095 145.207218 
L 168.057829 146.127797 
L 170.003062 143.229951 
L 168.943657 141.903268 
L 169.547701 142.53501 
L 169.913883 141.460425 
L 171.651343 141.475205 
L 171.521716 140.539232 
L 171.651783 137.907138 
L 171.995306 138.320822 
L 172.985698 138.543586 
L 172.751769 137.659026 
L 174.750531 135.07693 
L 173.657853 134.969283 
L 172.733718 135.719152 
L 172.277453 137.594298 
L 171.878401 138.207432 
L 170.944436 137.876431 
L 169.941686 136.46623 
L 170.388344 137.710857 
L 168.872894 137.629514 
L 166.701246 138.092976 
L 167.12659 141.518207 
L 165.793096 139.769572 
L 166.476594 138.843058 
L 166.770865 135.60927 
L 165.533497 136.428551 
L 165.849021 137.355755 
L 166.714785 138.10177 
L 166.070086 136.508213 
L 166.01259 139.05291 
L 168.669779 138.526203 
L 168.389756 139.504506 
L 169.559494 138.188007 
L 167.011487 137.324417 
L 167.662433 138.078223 
L 169.939851 134.305142 
L 168.397999 134.337295 
L 169.482971 134.987332 
L 169.667069 134.114305 
L 169.593836 133.290731 
L 171.221621 132.217975 
L 171.947821 135.325038 
L 172.166985 137.563035 
L 172.217707 135.760479 
L 171.516632 134.543517 
L 169.723406 134.270437 
L 168.177194 134.606049 
L 167.756573 135.86107 
L 166.073412 137.323462 
L 167.083308 136.535554 
L 166.886572 138.036208 
L 169.111145 138.352664 
L 170.06558 138.304911 
L 168.726162 136.322713 
L 169.07831 135.475378 
L 168.66419 133.109902 
L 168.067737 132.46085 
L 167.818139 134.823564 
L 170.520222 133.283393 
L 171.718199 133.570234 
L 171.221253 134.504947 
L 172.030493 133.469441 
L 171.389581 131.932204 
L 171.135718 130.905383 
L 168.244468 130.885648 
L 168.766012 134.015656 
L 167.671368 133.17439 
L 166.644407 134.704835 
L 168.486136 134.374427 
L 167.393959 134.585071 
L 168.20059 134.295719 
L 167.993066 133.465848 
L 167.186861 134.537676 
L 169.283167 134.869788 
L 167.104327 136.755936 
L 167.87651 135.779154 
L 168.178874 133.571255 
L 167.390063 134.250075 
L 166.906582 135.996408 
L 166.907329 138.244523 
L 166.198241 138.439748 
L 166.631455 140.487672 
L 164.47275 142.074308 
L 164.142842 141.991222 
L 165.426443 142.801906 
L 165.026579 142.779695 
L 165.312928 144.463606 
L 165.179865 145.500452 
L 165.292973 144.762906 
L 168.0012 142.121432 
L 166.213437 143.486028 
L 164.966015 144.015376 
L 165.302367 145.192214 
L 166.476898 144.6167 
L 167.363665 147.490316 
L 168.350091 146.10944 
L 168.192338 145.675485 
L 168.285325 147.765319 
L 167.637646 145.944823 
L 167.977676 147.237388 
L 167.056939 148.398365 
L 167.896886 149.744885 
L 169.622307 150.81446 
L 168.76638 150.288459 
L 169.381206 152.30871 
L 168.666561 154.3567 
L 168.714167 155.67413 
L 166.257154 156.736285 
L 165.729539 158.577477 
L 167.327461 160.369104 
L 166.937472 157.78081 
L 168.665752 157.847558 
L 169.736915 155.770028 
L 171.439041 156.654488 
L 170.768145 157.655815 
L 169.733272 157.533541 
L 170.647045 159.37741 
L 171.704126 158.928383 
L 171.263081 160.293425 
L 173.047785 158.843565 
L 171.566562 158.096576 
L 173.503794 158.037993 
L 173.111275 155.998789 
L 173.937142 158.673943 
L 174.745725 156.961694 
L 173.455069 159.484634 
L 172.844732 159.901356 
L 170.836336 160.499191 
L 170.252205 159.028764 
L 171.137439 158.047563 
L 168.720293 159.277175 
L 168.471887 161.146077 
L 168.733756 160.700122 
L 171.871151 160.318984 
L 171.233454 160.242609 
L 171.446438 158.519426 
L 169.429846 159.823642 
L 167.747983 161.725572 
L 168.062987 162.595923 
L 169.917842 160.99105 
L 167.744019 160.18132 
L 169.788819 160.949619 
L 169.459169 161.241481 
L 168.524214 163.681149 
L 167.506796 163.802219 
L 166.372357 163.179651 
L 165.23789 164.212624 
L 166.944121 163.277301 
L 163.818274 163.133928 
L 164.337192 160.655934 
L 165.992603 159.070425 
L 167.620181 160.733426 
L 168.04845 161.717418 
L 166.891241 162.059567 
L 166.161779 160.532272 
L 165.780588 160.2069 
L 162.801719 160.130496 
L 164.076148 160.503105 
L 167.093401 162.292267 
L 167.973197 164.268921 
L 168.156646 163.510191 
L 169.317346 162.726297 
L 166.904431 163.032554 
L 168.101264 159.925581 
L 168.108818 159.585884 
L 168.534723 159.618229 
L 166.18182 159.242307 
L 163.794881 159.842907 
L 161.44316 160.015746 
L 161.659063 158.509965 
L 159.75712 159.235131 
L 158.583858 158.730673 
L 159.273528 159.375266 
L 158.475993 160.750494 
L 160.433729 160.515877 
L 163.969254 158.359728 
L 164.38383 157.072085 
L 163.322574 157.033585 
L 164.034223 158.552292 
L 163.07783 159.902217 
L 163.586504 160.511113 
L 161.792178 160.953741 
L 163.233609 161.979237 
L 161.211085 163.1426 
L 159.763352 161.870356 
L 158.163666 162.347278 
L 156.052467 161.550571 
L 156.176783 158.956852 
L 153.495728 159.606288 
L 152.407432 158.241171 
L 152.875196 156.352663 
L 152.93049 155.451989 
L 152.375712 156.761997 
L 151.181392 157.896834 
L 152.072425 158.862857 
L 150.60867 157.485201 
L 152.39978 156.30083 
L 150.945089 156.857364 
L 151.079268 158.988656 
L 151.97443 159.553264 
L 150.107827 159.06648 
L 149.403701 158.601709 
L 149.012635 157.079156 
L 147.053118 156.925232 
L 145.521052 158.655831 
L 147.804488 159.788655 
L 148.055786 160.574335 
L 146.643479 158.39639 
L 145.850592 159.493373 
L 145.101753 158.188319 
L 146.413705 157.835213 
L 143.31813 156.094021 
L 140.098098 155.76575 
L 140.413806 156.709489 
L 138.485365 154.636508 
L 139.412672 155.604236 
L 140.027516 158.00029 
L 141.451245 156.986642 
L 140.223319 156.397446 
L 140.424054 158.362766 
L 138.631236 156.168964 
L 137.543014 152.712397 
L 141.306247 154.607788 
L 140.424466 155.822074 
L 139.479791 152.59867 
L 140.30404 153.611277 
L 140.323191 155.208945 
L 140.136619 155.351884 
L 140.459944 155.11251 
L 137.700215 154.061275 
L 137.684577 154.864033 
L 139.157985 154.532279 
L 137.98926 154.449116 
L 138.615791 155.518957 
L 137.488315 157.211494 
L 137.867648 158.056403 
L 138.870117 156.501924 
L 139.503784 157.317319 
L 138.329531 158.488602 
L 139.791591 157.537082 
L 139.259033 160.482803 
L 140.608027 161.861451 
L 140.143338 162.961104 
L 139.492258 162.820558 
L 139.950572 163.061961 
L 137.909969 163.792891 
L 137.931575 164.598303 
L 139.207885 162.818802 
L 141.315831 163.833417 
L 143.068327 163.6498 
L 142.818775 166.636394 
L 142.491939 168.036041 
L 143.105104 167.043859 
L 145.673186 167.937513 
L 144.711433 169.918875 
L 144.236711 168.251621 
L 145.797494 168.675526 
L 145.206015 169.140246 
L 142.117998 169.44088 
L 141.381748 170.527887 
L 139.823444 172.491222 
L 140.11531 174.71061 
L 140.069027 175.767804 
L 140.498306 177.866267 
L 140.276201 180.002346 
L 138.671231 180.432767 
L 138.641897 180.829409 
L 140.938652 182.017205 
L 140.910447 184.112291 
L 141.767046 182.683762 
L 141.291913 184.655889 
L 142.271619 184.360271 
L 143.407874 185.182222 
L 141.683745 184.788284 
L 142.768402 184.956401 
L 144.083315 184.499319 
L 144.727324 185.441038 
L 144.607888 183.990853 
L 145.39409 184.71908 
L 145.510319 185.909556 
L 146.066595 187.908024 
L 147.74496 187.132182 
L 147.207609 188.801301 
L 146.685652 185.653004 
L 145.533684 186.542227 
L 146.238077 186.873878 
L 147.281495 186.977389 
L 148.660562 185.881277 
L 147.011455 185.956836 
L 145.677723 186.576203 
L 147.185152 187.03735 
L 143.539043 187.351986 
L 144.875441 187.673082 
L 144.138179 188.314764 
L 145.062795 187.580553 
L 147.166561 187.262802 
L 145.83507 186.845967 
L 143.70456 186.582019 
L 143.921289 185.278955 
L 143.189711 186.141401 
L 144.578782 186.130331 
L 144.271665 186.950423 
L 142.604345 187.219458 
L 140.704048 186.620794 
L 138.935778 188.193876 
L 138.999184 187.502099 
L 137.432316 186.859895 
L 138.092679 185.771983 
L 139.710381 187.521496 
L 138.469912 187.091738 
L 138.189362 187.790215 
L 138.888592 188.025002 
L 139.723279 189.170472 
L 139.219817 189.178152 
L 136.432663 189.351877 
L 136.289317 190.750173 
L 133.815834 190.22388 
L 134.895707 189.67368 
L 136.093395 189.398966 
L 138.323468 189.992074 
L 136.935012 189.339528 
L 137.847844 187.961775 
L 136.395899 186.046493 
L 137.358708 185.333917 
L 138.698349 186.351488 
L 139.011386 184.990382 
L 139.215555 184.724402 
L 140.805086 185.757464 
L 138.962239 184.734318 
L 140.012804 183.494526 
L 140.73869 183.977128 
L 141.383099 182.288157 
L 139.642671 181.061094 
L 141.750155 179.587295 
L 141.732684 179.786054 
L 141.226838 181.299019 
L 142.718975 177.962533 
L 141.214277 182.093068 
L 138.823488 183.514524 
L 139.285814 186.150004 
L 138.343479 187.767923 
L 138.55607 187.731097 
L 138.193298 189.148027 
L 138.515363 189.135978 
L 139.132767 187.940293 
L 139.353224 188.70201 
L 137.731427 189.376613 
L 140.187689 189.639787 
L 139.636358 188.230488 
L 140.320457 185.753255 
L 139.389052 186.415834 
L 139.62263 184.530718 
L 140.6235 183.608828 
L 140.807842 184.182422 
L 141.14158 184.470351 
L 141.439966 183.926558 
L 143.98893 183.805939 
L 143.593867 185.010147 
L 144.772793 184.472721 
L 140.90273 187.937686 
L 141.088809 188.767466 
L 141.393675 187.180262 
L 142.619433 187.253016 
L 141.679641 189.058671 
L 139.900634 187.117587 
L 139.866303 185.883886 
L 139.621491 187.972518 
L 141.857906 189.398501 
L 141.020068 191.523794 
L 140.516004 188.392205 
L 140.828876 189.830333 
L 140.958819 193.549132 
L 138.678256 192.211187 
L 138.899838 192.230907 
L 137.743328 190.41221 
L 136.560913 188.868956 
L 131.896366 190.733532 
L 131.815414 190.845706 
L 132.532917 191.263165 
L 131.042719 189.24292 
L 129.024974 189.852149 
L 128.756912 189.666515 
L 130.699071 189.719205 
L 133.408018 190.928291 
L 131.872162 191.561462 
L 131.155792 190.575428 
L 131.797992 190.610842 
L 132.673252 190.006064 
L 133.645365 188.073336 
L 134.803179 187.357685 
L 134.395179 189.933569 
L 132.459304 190.392397 
L 132.949013 189.582899 
L 132.242835 190.157606 
L 130.431057 192.000148 
L 133.896479 193.576988 
L 133.319945 193.661647 
L 135.427654 194.454851 
L 135.23451 193.778828 
L 135.873415 195.323892 
L 136.701983 193.701051 
L 136.89627 194.623001 
L 138.00051 194.172725 
L 137.128724 194.429894 
L 135.885888 193.206357 
L 135.604428 194.865596 
L 137.807766 195.079874 
L 137.884779 193.639995 
L 136.677175 193.949266 
L 134.677166 194.044892 
L 133.540707 192.57568 
L 133.568059 191.86206 
L 133.568059 191.86206 
" clip-path="url(#p6e7276f5f6)" style="fill: none; stroke: #8000ff; stroke-width: 2; stroke-linecap: square"/>
   </g>
  </g>
 </g>
 <defs>
  <clipPath id="p6e7276f5f6">
   <rect x="7.2" y="7.2" width="266.112" height="266.112"/>
  </clipPath>
 </defs>
</svg>
