<?xml version="1.0" encoding="utf-8" standalone="no"?>
<!DOCTYPE svg PUBLIC "-//W3C//DTD SVG 1.1//EN"
  "http://www.w3.org/Graphics/SVG/1.1/DTD/svg11.dtd">
<svg xmlns:xlink="http://www.w3.org/1999/xlink" width="157.151293pt" height="376.428437pt" viewBox="0 0 157.151293 376.428437" xmlns="http://www.w3.org/2000/svg" version="1.1">
        <style>
            /* Light mode (default) */
            .c1 { fill: #d62728 !important; stroke: #d62728 !important; }
.c2 { fill: #2ca02c !important; stroke: #2ca02c !important; }
.c3 { fill: #1f77b4 !important; stroke: #1f77b4 !important; }
.c4 { fill: #9467bd !important; stroke: #9467bd !important; }
.c5 { fill: #8c564b !important; stroke: #8c564b !important; }
.c6 { fill: #e377c2 !important; stroke: #e377c2 !important; }
.c7 { fill: #7f7f7f !important; stroke: #7f7f7f !important; }
.c8 { fill: #bcbd22 !important; stroke: #bcbd22 !important; }

            /* Text and graphic elements */
            text, .text {
                fill: #000000 !important;
                stroke: none !important;
            }

            .axis line, .axis path, .tick line, .tick path, path.domain, line.grid {
                stroke: #000000 !important;
            }

            .legend text {
                fill: #000000 !important;
            }

            g.legend > g:first-child > path:first-child {
                fill: rgba(255, 255, 255, 0.8) !important;
                stroke: rgba(0, 0, 0, 0.1) !important;
            }

            [stroke="currentColor"], [stroke="black"] {
                stroke: #000000 !important;
            }

            /* Dark mode via media query */
            @media (prefers-color-scheme: dark) {
                /* Dark theme colors */
                .c1 { fill: #FF4A98 !important; stroke: #FF4A98 !important; }
                .c2 { fill: #0AFAFA !important; stroke: #0AFAFA !important; }
                .c3 { fill: #7F83FF !important; stroke: #7F83FF !important; }
                .c4 { fill: #B4A0FF !important; stroke: #B4A0FF !important; }
                .c5 { fill: #FFB86B !important; stroke: #FFB86B !important; }
                .c6 { fill: #FF79C6 !important; stroke: #FF79C6 !important; }
                .c7 { fill: #CCCCCC !important; stroke: #CCCCCC !important; }
                .c8 { fill: #E6DB74 !important; stroke: #E6DB74 !important; }

                /* Dark theme text and graphics */
                text, .text {
                    fill: #FFFFFF !important;
                    stroke: none !important;
                }

                .axis line, .axis path, .tick line, .tick path, path.domain, line.grid {
                    stroke: #FFFFFF !important;
                }

                .grid line {
                    stroke: rgba(255, 255, 255, 0.2) !important;
                }

                .legend text {
                    fill: #FFFFFF !important;
                }

                g.legend > g:first-child > path:first-child {
                    fill: rgba(26, 26, 26, 0.8) !important;
                    stroke: rgba(255, 255, 255, 0.1) !important;
                }

                [stroke="currentColor"], [stroke="black"] {
                    stroke: #FFFFFF !important;
                }
            }
        </style>
        
 <metadata>
  <rdf:RDF xmlns:dc="http://purl.org/dc/elements/1.1/" xmlns:cc="http://creativecommons.org/ns#" xmlns:rdf="http://www.w3.org/1999/02/22-rdf-syntax-ns#">
   <cc:Work>
    <dc:type rdf:resource="http://purl.org/dc/dcmitype/StillImage"/>
    <dc:date>2025-04-04T00:30:38.453021</dc:date>
    <dc:format>image/svg+xml</dc:format>
    <dc:creator>
     <cc:Agent>
      <dc:title>Matplotlib v3.10.1, https://matplotlib.org/</dc:title>
     </cc:Agent>
    </dc:creator>
   </cc:Work>
  </rdf:RDF>
 </metadata>
 <defs>
  <style type="text/css">*{stroke-linejoin: round; stroke-linecap: butt}</style>
 </defs>
 <g id="figure_1">
  <g class="patch">
   <path d="M 0 376.428437 
L 157.151293 376.428437 
L 157.151293 0 
L 0 0 
L 0 376.428437 
z
" style="fill: none"/>
  </g>
  <g id="axes_1">
   <g class="patch">
    <path d="M 41.267969 158.4 
L 149.951293 158.4 
L 149.951293 7.2 
L 41.267969 7.2 
L 41.267969 158.4 
z
" style="fill: none"/>
   </g>
   <g class="axis">
    <g class="tick xtick">
     <g id="line2d_1">
      <path d="M 44.52041 158.4 
L 44.52041 7.2 
" clip-path="url(#p10401bce92)" style="fill: none; stroke: #b0b0b0; stroke-opacity: 0.1; stroke-width: 0.8; stroke-linecap: square"/>
     </g>
     <g id="line2d_2">
      <defs>
       <path id="m1a8b9188ba" d="M 0 0 
L 0 3.5 
" style="stroke: currentColor; stroke-width: 0.8"/>
      </defs>
      <g>
       <use xlink:href="#m1a8b9188ba" x="44.52041" y="158.4" style="stroke: currentColor; stroke-width: 0.8"/>
      </g>
     </g>
    </g>
    <g class="tick xtick">
     <g id="line2d_3">
      <path d="M 77.044818 158.4 
L 77.044818 7.2 
" clip-path="url(#p10401bce92)" style="fill: none; stroke: #b0b0b0; stroke-opacity: 0.1; stroke-width: 0.8; stroke-linecap: square"/>
     </g>
     <g id="line2d_4">
      <g>
       <use xlink:href="#m1a8b9188ba" x="77.044818" y="158.4" style="stroke: currentColor; stroke-width: 0.8"/>
      </g>
     </g>
    </g>
    <g class="tick xtick">
     <g id="line2d_5">
      <path d="M 109.569226 158.4 
L 109.569226 7.2 
" clip-path="url(#p10401bce92)" style="fill: none; stroke: #b0b0b0; stroke-opacity: 0.1; stroke-width: 0.8; stroke-linecap: square"/>
     </g>
     <g id="line2d_6">
      <g>
       <use xlink:href="#m1a8b9188ba" x="109.569226" y="158.4" style="stroke: currentColor; stroke-width: 0.8"/>
      </g>
     </g>
    </g>
    <g class="tick xtick">
     <g id="line2d_7">
      <path d="M 142.093635 158.4 
L 142.093635 7.2 
" clip-path="url(#p10401bce92)" style="fill: none; stroke: #b0b0b0; stroke-opacity: 0.1; stroke-width: 0.8; stroke-linecap: square"/>
     </g>
     <g id="line2d_8">
      <g>
       <use xlink:href="#m1a8b9188ba" x="142.093635" y="158.4" style="stroke: currentColor; stroke-width: 0.8"/>
      </g>
     </g>
    </g>
    <g id="text_1" class="text">
     <!-- $t$ -->
     <g transform="translate(93.609631 173.498437) scale(0.1 -0.1)">
      <defs>
       <path id="DejaVuSans-Oblique-74" d="M 2706 3500 
L 2619 3053 
L 1472 3053 
L 1100 1153 
Q 1081 1047 1072 975 
Q 1063 903 1063 863 
Q 1063 663 1183 572 
Q 1303 481 1569 481 
L 2150 481 
L 2053 0 
L 1503 0 
Q 991 0 739 200 
Q 488 400 488 806 
Q 488 878 497 964 
Q 506 1050 525 1153 
L 897 3053 
L 409 3053 
L 500 3500 
L 978 3500 
L 1172 4494 
L 1747 4494 
L 1556 3500 
L 2706 3500 
z
" transform="scale(0.015625)"/>
      </defs>
      <use xlink:href="#DejaVuSans-Oblique-74" transform="translate(0 0.78125)"/>
     </g>
    </g>
   </g>
   <g class="axis">
    <g class="tick ytick">
     <g id="line2d_9">
      <path d="M 41.267969 148.407732 
L 149.951293 148.407732 
" clip-path="url(#p10401bce92)" style="fill: none; stroke: #b0b0b0; stroke-opacity: 0.1; stroke-width: 0.8; stroke-linecap: square"/>
     </g>
     <g id="line2d_10">
      <defs>
       <path id="m134dd2a1bf" d="M 0 0 
L -3.5 0 
" style="stroke: currentColor; stroke-width: 0.8"/>
      </defs>
      <g>
       <use xlink:href="#m134dd2a1bf" x="41.267969" y="148.407732" style="stroke: currentColor; stroke-width: 0.8"/>
      </g>
     </g>
     <g id="text_2" class="text">
      <!-- −2 -->
      <g transform="translate(21 151.827029) scale(0.09 -0.09)">
       <defs>
        <path id="DejaVuSans-2212" d="M 678 2272 
L 4684 2272 
L 4684 1741 
L 678 1741 
L 678 2272 
z
" transform="scale(0.015625)"/>
        <path id="DejaVuSans-32" d="M 1228 531 
L 3431 531 
L 3431 0 
L 469 0 
L 469 531 
Q 828 903 1448 1529 
Q 2069 2156 2228 2338 
Q 2531 2678 2651 2914 
Q 2772 3150 2772 3378 
Q 2772 3750 2511 3984 
Q 2250 4219 1831 4219 
Q 1534 4219 1204 4116 
Q 875 4013 500 3803 
L 500 4441 
Q 881 4594 1212 4672 
Q 1544 4750 1819 4750 
Q 2544 4750 2975 4387 
Q 3406 4025 3406 3419 
Q 3406 3131 3298 2873 
Q 3191 2616 2906 2266 
Q 2828 2175 2409 1742 
Q 1991 1309 1228 531 
z
" transform="scale(0.015625)"/>
       </defs>
       <use xlink:href="#DejaVuSans-2212"/>
       <use xlink:href="#DejaVuSans-32" transform="translate(83.789062 0)"/>
      </g>
     </g>
    </g>
    <g class="tick ytick">
     <g id="line2d_11">
      <path d="M 41.267969 115.883324 
L 149.951293 115.883324 
" clip-path="url(#p10401bce92)" style="fill: none; stroke: #b0b0b0; stroke-opacity: 0.1; stroke-width: 0.8; stroke-linecap: square"/>
     </g>
     <g id="line2d_12">
      <g>
       <use xlink:href="#m134dd2a1bf" x="41.267969" y="115.883324" style="stroke: currentColor; stroke-width: 0.8"/>
      </g>
     </g>
     <g id="text_3" class="text">
      <!-- 0 -->
      <g transform="translate(28.541719 119.302621) scale(0.09 -0.09)">
       <defs>
        <path id="DejaVuSans-30" d="M 2034 4250 
Q 1547 4250 1301 3770 
Q 1056 3291 1056 2328 
Q 1056 1369 1301 889 
Q 1547 409 2034 409 
Q 2525 409 2770 889 
Q 3016 1369 3016 2328 
Q 3016 3291 2770 3770 
Q 2525 4250 2034 4250 
z
M 2034 4750 
Q 2819 4750 3233 4129 
Q 3647 3509 3647 2328 
Q 3647 1150 3233 529 
Q 2819 -91 2034 -91 
Q 1250 -91 836 529 
Q 422 1150 422 2328 
Q 422 3509 836 4129 
Q 1250 4750 2034 4750 
z
" transform="scale(0.015625)"/>
       </defs>
       <use xlink:href="#DejaVuSans-30"/>
      </g>
     </g>
    </g>
    <g class="tick ytick">
     <g id="line2d_13">
      <path d="M 41.267969 83.358916 
L 149.951293 83.358916 
" clip-path="url(#p10401bce92)" style="fill: none; stroke: #b0b0b0; stroke-opacity: 0.1; stroke-width: 0.8; stroke-linecap: square"/>
     </g>
     <g id="line2d_14">
      <g>
       <use xlink:href="#m134dd2a1bf" x="41.267969" y="83.358916" style="stroke: currentColor; stroke-width: 0.8"/>
      </g>
     </g>
     <g id="text_4" class="text">
      <!-- 2 -->
      <g transform="translate(28.541719 86.778213) scale(0.09 -0.09)">
       <use xlink:href="#DejaVuSans-32"/>
      </g>
     </g>
    </g>
    <g class="tick ytick">
     <g id="line2d_15">
      <path d="M 41.267969 50.834507 
L 149.951293 50.834507 
" clip-path="url(#p10401bce92)" style="fill: none; stroke: #b0b0b0; stroke-opacity: 0.1; stroke-width: 0.8; stroke-linecap: square"/>
     </g>
     <g id="line2d_16">
      <g>
       <use xlink:href="#m134dd2a1bf" x="41.267969" y="50.834507" style="stroke: currentColor; stroke-width: 0.8"/>
      </g>
     </g>
     <g id="text_5" class="text">
      <!-- 4 -->
      <g transform="translate(28.541719 54.253804) scale(0.09 -0.09)">
       <defs>
        <path id="DejaVuSans-34" d="M 2419 4116 
L 825 1625 
L 2419 1625 
L 2419 4116 
z
M 2253 4666 
L 3047 4666 
L 3047 1625 
L 3713 1625 
L 3713 1100 
L 3047 1100 
L 3047 0 
L 2419 0 
L 2419 1100 
L 313 1100 
L 313 1709 
L 2253 4666 
z
" transform="scale(0.015625)"/>
       </defs>
       <use xlink:href="#DejaVuSans-34"/>
      </g>
     </g>
    </g>
    <g class="tick ytick">
     <g id="line2d_17">
      <path d="M 41.267969 18.310099 
L 149.951293 18.310099 
" clip-path="url(#p10401bce92)" style="fill: none; stroke: #b0b0b0; stroke-opacity: 0.1; stroke-width: 0.8; stroke-linecap: square"/>
     </g>
     <g id="line2d_18">
      <g>
       <use xlink:href="#m134dd2a1bf" x="41.267969" y="18.310099" style="stroke: currentColor; stroke-width: 0.8"/>
      </g>
     </g>
     <g id="text_6" class="text">
      <!-- 6 -->
      <g transform="translate(28.541719 21.729396) scale(0.09 -0.09)">
       <defs>
        <path id="DejaVuSans-36" d="M 2113 2584 
Q 1688 2584 1439 2293 
Q 1191 2003 1191 1497 
Q 1191 994 1439 701 
Q 1688 409 2113 409 
Q 2538 409 2786 701 
Q 3034 994 3034 1497 
Q 3034 2003 2786 2293 
Q 2538 2584 2113 2584 
z
M 3366 4563 
L 3366 3988 
Q 3128 4100 2886 4159 
Q 2644 4219 2406 4219 
Q 1781 4219 1451 3797 
Q 1122 3375 1075 2522 
Q 1259 2794 1537 2939 
Q 1816 3084 2150 3084 
Q 2853 3084 3261 2657 
Q 3669 2231 3669 1497 
Q 3669 778 3244 343 
Q 2819 -91 2113 -91 
Q 1303 -91 875 529 
Q 447 1150 447 2328 
Q 447 3434 972 4092 
Q 1497 4750 2381 4750 
Q 2619 4750 2861 4703 
Q 3103 4656 3366 4563 
z
" transform="scale(0.015625)"/>
       </defs>
       <use xlink:href="#DejaVuSans-36"/>
      </g>
     </g>
    </g>
    <g id="text_7" class="text">
     <!-- $f(t)$ -->
     <g transform="translate(14.920313 90.45) rotate(-90) scale(0.1 -0.1)">
      <defs>
       <path id="DejaVuSans-Oblique-66" d="M 3059 4863 
L 2969 4384 
L 2419 4384 
Q 2106 4384 1964 4261 
Q 1822 4138 1753 3809 
L 1691 3500 
L 2638 3500 
L 2553 3053 
L 1606 3053 
L 1013 0 
L 434 0 
L 1031 3053 
L 481 3053 
L 563 3500 
L 1113 3500 
L 1159 3744 
Q 1278 4363 1576 4613 
Q 1875 4863 2516 4863 
L 3059 4863 
z
" transform="scale(0.015625)"/>
       <path id="DejaVuSans-28" d="M 1984 4856 
Q 1566 4138 1362 3434 
Q 1159 2731 1159 2009 
Q 1159 1288 1364 580 
Q 1569 -128 1984 -844 
L 1484 -844 
Q 1016 -109 783 600 
Q 550 1309 550 2009 
Q 550 2706 781 3412 
Q 1013 4119 1484 4856 
L 1984 4856 
z
" transform="scale(0.015625)"/>
       <path id="DejaVuSans-29" d="M 513 4856 
L 1013 4856 
Q 1481 4119 1714 3412 
Q 1947 2706 1947 2009 
Q 1947 1309 1714 600 
Q 1481 -109 1013 -844 
L 513 -844 
Q 928 -128 1133 580 
Q 1338 1288 1338 2009 
Q 1338 2731 1133 3434 
Q 928 4138 513 4856 
z
" transform="scale(0.015625)"/>
      </defs>
      <use xlink:href="#DejaVuSans-Oblique-66" transform="translate(0 0.015625)"/>
      <use xlink:href="#DejaVuSans-28" transform="translate(35.205078 0.015625)"/>
      <use xlink:href="#DejaVuSans-Oblique-74" transform="translate(74.21875 0.015625)"/>
      <use xlink:href="#DejaVuSans-29" transform="translate(113.427734 0.015625)"/>
     </g>
    </g>
   </g>
   <g id="line2d_19">
    <path d="M 44.52041 133.843895 
L 45.552515 132.090961 
L 46.584621 130.272765 
L 47.616726 128.396627 
L 48.648831 126.470103 
L 49.680937 124.50095 
L 50.713042 122.497096 
L 51.745148 120.466611 
L 52.777253 118.417671 
L 53.809359 116.358525 
L 54.841464 114.297467 
L 55.87357 112.242794 
L 56.905675 110.20278 
L 57.937781 108.18564 
L 58.969886 106.199495 
L 60.001992 104.252344 
L 61.034097 102.352027 
L 62.066203 100.506196 
L 63.098308 98.722282 
L 64.130414 97.007471 
L 65.162519 95.368665 
L 66.194625 93.812465 
L 67.22673 92.345137 
L 68.258836 90.972588 
L 69.290941 89.700347 
L 70.323047 88.533534 
L 71.355152 87.47685 
L 72.387258 86.534549 
L 73.419363 85.710425 
L 74.451468 85.007796 
L 75.483574 84.429492 
L 76.515679 83.977842 
L 77.547785 83.654664 
L 78.57989 83.461259 
L 79.611996 83.398407 
L 80.644101 83.46636 
L 81.676207 83.664844 
L 82.708312 83.993061 
L 83.740418 84.449689 
L 84.772523 85.032889 
L 85.804629 85.740312 
L 86.836734 86.569111 
L 87.86884 87.515948 
L 88.900945 88.577011 
L 89.933051 89.748026 
L 90.965156 91.024279 
L 91.997262 92.40063 
L 93.029367 93.871538 
L 94.061473 95.43108 
L 95.093578 97.072976 
L 96.125684 98.790614 
L 97.157789 100.577079 
L 98.189894 102.425176 
L 99.222 104.327465 
L 100.254105 106.276285 
L 101.286211 108.263789 
L 102.318316 110.281975 
L 103.350422 112.322715 
L 104.382527 114.377792 
L 105.414633 116.438932 
L 106.446738 118.497834 
L 107.478844 120.546209 
L 108.510949 122.575808 
L 109.543055 124.578458 
L 110.57516 126.546096 
L 111.607266 128.4708 
L 112.639371 130.344817 
L 113.671477 132.160604 
L 114.703582 133.910848 
L 115.735688 135.588501 
L 116.767793 137.186808 
L 117.799899 138.699334 
L 118.832004 140.119988 
L 119.86411 141.443049 
L 120.896215 142.66319 
L 121.92832 143.775498 
L 122.960426 144.775495 
L 123.992531 145.659152 
L 125.024637 146.422913 
L 126.056742 147.063702 
L 127.088848 147.578938 
L 128.120953 147.966548 
L 129.153059 148.224969 
L 130.185164 148.353162 
L 131.21727 148.350611 
L 132.249375 148.217325 
L 133.281481 147.953842 
L 134.313586 147.561222 
L 135.345692 147.041046 
L 136.377797 146.395409 
L 137.409903 145.626911 
L 138.442008 144.738646 
L 139.474114 143.73419 
L 140.506219 142.617589 
L 141.538325 141.393339 
L 142.57043 140.066369 
L 143.602536 138.642022 
L 144.634641 137.126034 
L 145.666746 135.524509 
L 146.698852 133.843895 
" clip-path="url(#p10401bce92)" style="fill: none; stroke: #8000ff; stroke-width: 2; stroke-linecap: square"/>
   </g>
   <g class="patch">
    <path d="M 41.267969 158.4 
L 41.267969 7.2 
" style="fill: none; stroke: currentColor; stroke-width: 0.8; stroke-linejoin: miter; stroke-linecap: square"/>
   </g>
   <g class="patch">
    <path d="M 41.267969 158.4 
L 149.951293 158.4 
" style="fill: none; stroke: currentColor; stroke-width: 0.8; stroke-linejoin: miter; stroke-linecap: square"/>
   </g>
  </g>
  <g id="axes_2">
   <g class="patch">
    <path d="M 41.267969 339.84 
L 149.951293 339.84 
L 149.951293 188.64 
L 41.267969 188.64 
L 41.267969 339.84 
z
" style="fill: none"/>
   </g>
   <g class="axis">
    <g class="tick xtick">
     <g id="line2d_20">
      <path d="M 44.52041 339.84 
L 44.52041 188.64 
" clip-path="url(#pa0f0c07b43)" style="fill: none; stroke: #b0b0b0; stroke-opacity: 0.1; stroke-width: 0.8; stroke-linecap: square"/>
     </g>
     <g id="line2d_21">
      <g>
       <use xlink:href="#m1a8b9188ba" x="44.52041" y="339.84" style="stroke: currentColor; stroke-width: 0.8"/>
      </g>
     </g>
     <g id="text_8" class="text">
      <!-- 0 -->
      <g transform="translate(41.657285 353.678594) scale(0.09 -0.09)">
       <use xlink:href="#DejaVuSans-30"/>
      </g>
     </g>
    </g>
    <g class="tick xtick">
     <g id="line2d_22">
      <path d="M 77.044818 339.84 
L 77.044818 188.64 
" clip-path="url(#pa0f0c07b43)" style="fill: none; stroke: #b0b0b0; stroke-opacity: 0.1; stroke-width: 0.8; stroke-linecap: square"/>
     </g>
     <g id="line2d_23">
      <g>
       <use xlink:href="#m1a8b9188ba" x="77.044818" y="339.84" style="stroke: currentColor; stroke-width: 0.8"/>
      </g>
     </g>
     <g id="text_9" class="text">
      <!-- 2 -->
      <g transform="translate(74.181693 353.678594) scale(0.09 -0.09)">
       <use xlink:href="#DejaVuSans-32"/>
      </g>
     </g>
    </g>
    <g class="tick xtick">
     <g id="line2d_24">
      <path d="M 109.569226 339.84 
L 109.569226 188.64 
" clip-path="url(#pa0f0c07b43)" style="fill: none; stroke: #b0b0b0; stroke-opacity: 0.1; stroke-width: 0.8; stroke-linecap: square"/>
     </g>
     <g id="line2d_25">
      <g>
       <use xlink:href="#m1a8b9188ba" x="109.569226" y="339.84" style="stroke: currentColor; stroke-width: 0.8"/>
      </g>
     </g>
     <g id="text_10" class="text">
      <!-- 4 -->
      <g transform="translate(106.706101 353.678594) scale(0.09 -0.09)">
       <use xlink:href="#DejaVuSans-34"/>
      </g>
     </g>
    </g>
    <g class="tick xtick">
     <g id="line2d_26">
      <path d="M 142.093635 339.84 
L 142.093635 188.64 
" clip-path="url(#pa0f0c07b43)" style="fill: none; stroke: #b0b0b0; stroke-opacity: 0.1; stroke-width: 0.8; stroke-linecap: square"/>
     </g>
     <g id="line2d_27">
      <g>
       <use xlink:href="#m1a8b9188ba" x="142.093635" y="339.84" style="stroke: currentColor; stroke-width: 0.8"/>
      </g>
     </g>
     <g id="text_11" class="text">
      <!-- 6 -->
      <g transform="translate(139.23051 353.678594) scale(0.09 -0.09)">
       <use xlink:href="#DejaVuSans-36"/>
      </g>
     </g>
    </g>
    <g id="text_12" class="text">
     <!-- $t$ -->
     <g transform="translate(93.609631 367.14875) scale(0.1 -0.1)">
      <use xlink:href="#DejaVuSans-Oblique-74" transform="translate(0 0.78125)"/>
     </g>
    </g>
   </g>
   <g class="axis">
    <g class="tick ytick">
     <g id="line2d_28">
      <path d="M 41.267969 329.847732 
L 149.951293 329.847732 
" clip-path="url(#pa0f0c07b43)" style="fill: none; stroke: #b0b0b0; stroke-opacity: 0.1; stroke-width: 0.8; stroke-linecap: square"/>
     </g>
     <g id="line2d_29">
      <g>
       <use xlink:href="#m134dd2a1bf" x="41.267969" y="329.847732" style="stroke: currentColor; stroke-width: 0.8"/>
      </g>
     </g>
     <g id="text_13" class="text">
      <!-- −2 -->
      <g transform="translate(21 333.267029) scale(0.09 -0.09)">
       <use xlink:href="#DejaVuSans-2212"/>
       <use xlink:href="#DejaVuSans-32" transform="translate(83.789062 0)"/>
      </g>
     </g>
    </g>
    <g class="tick ytick">
     <g id="line2d_30">
      <path d="M 41.267969 297.323324 
L 149.951293 297.323324 
" clip-path="url(#pa0f0c07b43)" style="fill: none; stroke: #b0b0b0; stroke-opacity: 0.1; stroke-width: 0.8; stroke-linecap: square"/>
     </g>
     <g id="line2d_31">
      <g>
       <use xlink:href="#m134dd2a1bf" x="41.267969" y="297.323324" style="stroke: currentColor; stroke-width: 0.8"/>
      </g>
     </g>
     <g id="text_14" class="text">
      <!-- 0 -->
      <g transform="translate(28.541719 300.742621) scale(0.09 -0.09)">
       <use xlink:href="#DejaVuSans-30"/>
      </g>
     </g>
    </g>
    <g class="tick ytick">
     <g id="line2d_32">
      <path d="M 41.267969 264.798916 
L 149.951293 264.798916 
" clip-path="url(#pa0f0c07b43)" style="fill: none; stroke: #b0b0b0; stroke-opacity: 0.1; stroke-width: 0.8; stroke-linecap: square"/>
     </g>
     <g id="line2d_33">
      <g>
       <use xlink:href="#m134dd2a1bf" x="41.267969" y="264.798916" style="stroke: currentColor; stroke-width: 0.8"/>
      </g>
     </g>
     <g id="text_15" class="text">
      <!-- 2 -->
      <g transform="translate(28.541719 268.218213) scale(0.09 -0.09)">
       <use xlink:href="#DejaVuSans-32"/>
      </g>
     </g>
    </g>
    <g class="tick ytick">
     <g id="line2d_34">
      <path d="M 41.267969 232.274507 
L 149.951293 232.274507 
" clip-path="url(#pa0f0c07b43)" style="fill: none; stroke: #b0b0b0; stroke-opacity: 0.1; stroke-width: 0.8; stroke-linecap: square"/>
     </g>
     <g id="line2d_35">
      <g>
       <use xlink:href="#m134dd2a1bf" x="41.267969" y="232.274507" style="stroke: currentColor; stroke-width: 0.8"/>
      </g>
     </g>
     <g id="text_16" class="text">
      <!-- 4 -->
      <g transform="translate(28.541719 235.693804) scale(0.09 -0.09)">
       <use xlink:href="#DejaVuSans-34"/>
      </g>
     </g>
    </g>
    <g class="tick ytick">
     <g id="line2d_36">
      <path d="M 41.267969 199.750099 
L 149.951293 199.750099 
" clip-path="url(#pa0f0c07b43)" style="fill: none; stroke: #b0b0b0; stroke-opacity: 0.1; stroke-width: 0.8; stroke-linecap: square"/>
     </g>
     <g id="line2d_37">
      <g>
       <use xlink:href="#m134dd2a1bf" x="41.267969" y="199.750099" style="stroke: currentColor; stroke-width: 0.8"/>
      </g>
     </g>
     <g id="text_17" class="text">
      <!-- 6 -->
      <g transform="translate(28.541719 203.169396) scale(0.09 -0.09)">
       <use xlink:href="#DejaVuSans-36"/>
      </g>
     </g>
    </g>
    <g id="text_18" class="text">
     <!-- $\beta(t)$ -->
     <g transform="translate(14.9 273.34) rotate(-90) scale(0.1 -0.1)">
      <defs>
       <path id="DejaVuSans-Oblique-3b2" d="M 872 216 
L 572 -1331 
L -6 -1331 
L 928 3478 
Q 1206 4903 2538 4903 
Q 3888 4903 3659 3700 
Q 3503 2844 2894 2531 
Q 3713 2250 3553 1416 
Q 3272 -69 1759 -66 
Q 1097 -63 872 216 
z
M 1019 966 
Q 1259 422 1875 425 
Q 2775 425 2966 1406 
Q 3138 2288 1675 2219 
L 1778 2750 
Q 2909 2731 3106 3750 
Q 3241 4438 2509 4434 
Q 1691 4434 1503 3459 
L 1019 966 
z
" transform="scale(0.015625)"/>
      </defs>
      <use xlink:href="#DejaVuSans-Oblique-3b2" transform="translate(0 0.390625)"/>
      <use xlink:href="#DejaVuSans-28" transform="translate(63.818359 0.390625)"/>
      <use xlink:href="#DejaVuSans-Oblique-74" transform="translate(102.832031 0.390625)"/>
      <use xlink:href="#DejaVuSans-29" transform="translate(142.041016 0.390625)"/>
     </g>
    </g>
   </g>
   <g id="line2d_38">
    <path d="M 44.52041 297.323324 
L 44.845654 299.136531 
L 45.008276 298.101389 
L 45.33352 293.379352 
L 45.496142 293.392768 
L 45.821386 293.091854 
L 45.984008 289.163602 
L 46.14663 289.707889 
L 46.309252 291.670763 
L 46.471874 291.026212 
L 46.634496 289.627097 
L 46.797118 289.451771 
L 47.122362 290.714866 
L 47.284984 290.203414 
L 47.447606 290.249804 
L 47.610228 289.790512 
L 47.77285 288.408506 
L 47.935472 288.293899 
L 48.098095 286.932018 
L 48.260717 287.447953 
L 48.423339 286.670592 
L 48.911205 292.101887 
L 49.073827 289.60525 
L 49.236449 289.789686 
L 49.399071 288.705012 
L 49.561693 290.544472 
L 49.724315 289.940275 
L 49.886937 290.222529 
L 50.212181 286.726596 
L 50.537425 280.348097 
L 51.025291 274.890212 
L 51.350535 276.707124 
L 51.513157 275.694952 
L 51.675779 273.068998 
L 52.001024 277.313984 
L 52.163646 275.305485 
L 52.326268 275.036781 
L 52.48889 276.563174 
L 52.651512 275.553994 
L 52.976756 276.067913 
L 53.464622 277.823641 
L 53.627244 280.909032 
L 53.952488 278.405886 
L 54.11511 279.059559 
L 54.277732 276.923121 
L 54.440354 276.75302 
L 54.602976 276.826421 
L 54.92822 275.155476 
L 55.090842 275.120763 
L 55.253464 272.626865 
L 55.416086 272.677735 
L 55.578708 274.966167 
L 55.74133 274.763359 
L 55.903953 273.394333 
L 56.066575 273.971694 
L 56.229197 275.295661 
L 56.554441 271.981252 
L 56.717063 272.671682 
L 56.879685 271.999331 
L 57.204929 272.459598 
L 57.367551 271.391134 
L 57.530173 272.322002 
L 57.692795 271.995552 
L 57.855417 274.087662 
L 58.018039 273.428923 
L 58.180661 275.27462 
L 58.343283 274.838643 
L 58.505905 277.478061 
L 58.668527 277.12192 
L 58.831149 273.652993 
L 59.156393 273.199141 
L 59.319015 274.738841 
L 59.481637 274.916392 
L 59.644259 274.018638 
L 59.806882 274.319155 
L 59.969504 277.151728 
L 60.132126 277.840855 
L 60.45737 281.696422 
L 60.619992 282.942953 
L 60.782614 282.557895 
L 60.945236 284.236945 
L 61.107858 283.035273 
L 61.595724 285.555485 
L 61.758346 284.982311 
L 62.08359 288.827794 
L 62.246212 289.704417 
L 62.408834 289.177411 
L 62.571456 289.566534 
L 63.059322 284.777413 
L 63.221944 285.781537 
L 63.384566 284.867079 
L 63.709811 281.131049 
L 63.872433 279.900655 
L 64.035055 279.944296 
L 64.360299 282.512546 
L 64.522921 281.876029 
L 64.685543 284.011174 
L 64.848165 283.139861 
L 65.173409 287.077472 
L 65.336031 287.449652 
L 65.498653 286.143773 
L 65.661275 286.28079 
L 65.823897 283.480718 
L 65.986519 285.857411 
L 66.311763 281.926591 
L 66.474385 282.352758 
L 66.799629 283.52926 
L 66.962251 281.39537 
L 67.124873 282.483382 
L 67.287495 282.146467 
L 67.450117 282.882571 
L 67.61274 282.850188 
L 67.775362 284.995485 
L 67.937984 285.463541 
L 68.100606 286.720208 
L 68.588472 284.386423 
L 68.751094 286.452902 
L 69.076338 285.910185 
L 69.401582 282.877757 
L 69.564204 282.631587 
L 70.05207 289.797733 
L 70.214692 288.677656 
L 70.377314 289.553679 
L 70.539936 289.358295 
L 70.702558 290.119963 
L 70.86518 288.337583 
L 71.027802 287.914372 
L 71.190424 288.291863 
L 71.353046 289.131207 
L 71.515669 290.941434 
L 71.840913 289.417025 
L 72.003535 290.29554 
L 72.166157 289.075972 
L 72.328779 292.091887 
L 72.654023 293.626517 
L 72.816645 292.487005 
L 72.979267 296.646774 
L 73.141889 296.949193 
L 73.304511 300.197362 
L 73.629755 297.695936 
L 73.792377 295.458665 
L 73.954999 294.999162 
L 74.117621 295.457312 
L 74.280243 295.027327 
L 74.442865 297.490526 
L 74.605487 294.496914 
L 74.768109 296.105304 
L 74.930731 295.473704 
L 75.093353 295.341183 
L 75.418598 300.225352 
L 75.906464 296.920847 
L 76.069086 296.858548 
L 76.231708 297.005622 
L 76.39433 297.968181 
L 76.556952 297.469889 
L 76.719574 299.229133 
L 76.882196 298.813041 
L 77.20744 295.625538 
L 77.370062 297.356583 
L 77.532684 294.172429 
L 77.695306 293.643803 
L 78.02055 291.23154 
L 78.183172 292.366592 
L 78.345794 292.032822 
L 78.671038 294.336411 
L 78.83366 293.838948 
L 78.996282 292.174601 
L 79.158904 292.384739 
L 79.321527 294.446496 
L 79.484149 294.766133 
L 79.646771 296.414041 
L 79.809393 296.669388 
L 79.972015 296.516741 
L 80.134637 295.632365 
L 80.459881 298.976524 
L 80.622503 298.924061 
L 81.110369 303.197565 
L 81.272991 304.017843 
L 81.435613 307.065513 
L 81.598235 305.807453 
L 81.923479 306.720759 
L 82.086101 307.467395 
L 82.248723 307.438687 
L 82.411345 307.557521 
L 82.736589 306.5554 
L 82.899211 306.550899 
L 83.224456 308.055867 
L 83.387078 307.165804 
L 83.5497 305.381066 
L 83.874944 306.865442 
L 84.037566 305.092249 
L 84.200188 305.026294 
L 84.36281 306.512402 
L 84.525432 306.083264 
L 84.688054 307.479838 
L 84.850676 309.854326 
L 85.338542 308.432064 
L 85.501164 309.322248 
L 85.663786 305.795838 
L 85.826408 306.577494 
L 86.314274 313.404284 
L 86.476896 312.17701 
L 86.639518 313.535312 
L 86.80214 311.076892 
L 87.127385 313.785727 
L 87.290007 313.021713 
L 87.452629 314.801319 
L 87.615251 314.272514 
L 87.777873 315.825826 
L 87.940495 314.970932 
L 88.103117 315.420464 
L 88.265739 316.272167 
L 88.590983 319.430898 
L 89.078849 316.247888 
L 89.241471 315.618115 
L 89.404093 314.457331 
L 89.566715 315.608262 
L 89.729337 315.401826 
L 89.891959 316.952386 
L 90.217203 315.128381 
L 90.379825 317.860323 
L 90.542447 316.582802 
L 90.705069 318.537533 
L 90.867691 318.09376 
L 91.030314 316.631016 
L 91.192936 317.555822 
L 91.355558 319.127367 
L 91.51818 319.490507 
L 91.680802 322.041148 
L 91.843424 322.616021 
L 92.006046 323.731519 
L 92.168668 322.319834 
L 92.33129 323.385703 
L 92.656534 320.292726 
L 92.819156 321.62773 
L 92.981778 320.534833 
L 93.1444 317.891526 
L 93.307022 317.358132 
L 93.469644 317.657852 
L 93.632266 314.753681 
L 93.794888 314.055878 
L 93.95751 314.293865 
L 94.282754 311.051904 
L 94.445376 311.194603 
L 94.607998 310.029466 
L 94.77062 314.019085 
L 94.933243 314.265679 
L 95.258487 315.853673 
L 95.421109 315.689561 
L 95.746353 317.779021 
L 95.908975 316.964055 
L 96.071597 318.50824 
L 96.234219 318.932624 
L 96.396841 318.682174 
L 96.559463 318.707363 
L 96.884707 321.078297 
L 97.209951 318.546367 
L 97.372573 318.893621 
L 97.535195 321.889662 
L 97.860439 320.08367 
L 98.023061 320.223852 
L 98.185683 317.333223 
L 98.348305 317.97242 
L 98.67355 320.939418 
L 98.998794 316.356542 
L 99.161416 316.950184 
L 99.324038 318.809182 
L 99.48666 319.091232 
L 99.811904 315.26332 
L 99.974526 314.380204 
L 100.29977 317.706026 
L 100.462392 316.877088 
L 100.625014 318.172046 
L 100.787636 321.25809 
L 101.11288 319.475292 
L 101.275502 319.313398 
L 101.763368 314.316864 
L 101.92599 315.255715 
L 102.088612 314.517807 
L 102.251234 311.438148 
L 102.576479 313.683261 
L 102.739101 312.454903 
L 103.064345 314.871974 
L 103.552211 312.262371 
L 103.714833 312.962515 
L 103.877455 312.742401 
L 104.202699 309.392763 
L 104.527943 311.485378 
L 104.690565 310.453906 
L 104.853187 313.311243 
L 105.178431 313.889189 
L 105.503675 317.145473 
L 105.666297 316.535659 
L 105.828919 318.40532 
L 106.154163 314.852059 
L 106.316785 314.284593 
L 106.479408 314.411813 
L 106.804652 315.481195 
L 106.967274 314.787837 
L 107.292518 319.65112 
L 107.45514 319.247703 
L 107.780384 323.144662 
L 108.105628 319.555612 
L 108.26825 318.361945 
L 108.593494 318.772205 
L 108.756116 315.392598 
L 109.243982 319.714308 
L 109.406604 323.36038 
L 109.89447 321.101346 
L 110.057092 321.005831 
L 110.219714 319.460981 
L 110.382337 321.050455 
L 110.544959 318.35948 
L 110.707581 319.628883 
L 110.870203 318.914485 
L 111.032825 319.785217 
L 111.195447 318.4357 
L 111.520691 323.093857 
L 111.683313 323.859694 
L 111.845935 321.734835 
L 112.008557 321.614172 
L 112.171179 323.22651 
L 112.333801 323.421958 
L 112.496423 323.198652 
L 112.984289 319.487178 
L 113.309533 319.25853 
L 113.472155 319.955008 
L 113.797399 323.418505 
L 114.122643 326.707295 
L 114.285266 327.417151 
L 114.447888 326.161165 
L 114.61051 327.271354 
L 114.773132 330.307813 
L 114.935754 328.096882 
L 115.42362 330.373551 
L 115.586242 333.180491 
L 115.748864 332.592909 
L 115.911486 330.029534 
L 116.074108 330.533196 
L 116.23673 329.715799 
L 116.399352 327.033416 
L 116.561974 326.888714 
L 116.724596 326.995266 
L 117.04984 325.370799 
L 117.212462 324.550884 
L 117.375084 325.167232 
L 117.537706 323.920065 
L 117.700328 323.868375 
L 117.86295 320.127824 
L 118.025572 318.953605 
L 118.188195 318.930295 
L 118.350817 318.060088 
L 118.676061 311.993565 
L 118.838683 311.540887 
L 119.001305 310.705701 
L 119.163927 312.403495 
L 119.326549 312.281559 
L 119.814415 314.349419 
L 119.977037 314.56135 
L 120.139659 312.767437 
L 120.302281 312.810885 
L 120.464903 314.028026 
L 120.627525 313.417854 
L 120.790147 313.754788 
L 120.952769 313.634094 
L 121.278013 312.077199 
L 121.440635 313.21768 
L 121.603257 316.16043 
L 121.928501 315.091007 
L 122.57899 307.020551 
L 122.741612 306.699085 
L 122.904234 306.707497 
L 123.066856 308.760292 
L 123.229478 305.760775 
L 123.3921 308.443417 
L 123.554722 308.825616 
L 123.879966 311.476183 
L 124.20521 309.935194 
L 124.367832 311.145551 
L 124.530454 306.283084 
L 124.693076 308.947298 
L 125.01832 309.390441 
L 125.180942 309.304904 
L 125.343564 310.816838 
L 125.506186 310.257802 
L 125.668808 310.640596 
L 125.83143 311.45395 
L 126.156675 314.933603 
L 126.319297 314.794264 
L 126.481919 315.33707 
L 126.807163 313.397783 
L 127.295029 317.180981 
L 127.457651 318.017169 
L 127.620273 319.793471 
L 127.782895 319.455848 
L 127.945517 320.516764 
L 128.108139 319.253509 
L 128.270761 318.872598 
L 128.596005 320.28973 
L 128.921249 320.57489 
L 129.083871 321.160505 
L 129.409115 319.907936 
L 129.734359 323.247959 
L 129.896982 322.116927 
L 130.059604 324.180562 
L 130.222226 323.648487 
L 130.384848 321.260702 
L 130.54747 323.969531 
L 130.710092 323.655709 
L 130.872714 322.004692 
L 131.035336 322.35935 
L 131.197958 324.47265 
L 131.523202 322.134087 
L 131.685824 322.722166 
L 131.848446 322.0369 
L 132.17369 326.252785 
L 132.336312 328.716638 
L 132.498934 328.360522 
L 132.661556 327.151173 
L 132.824178 328.584702 
L 132.9868 327.512609 
L 133.149422 328.423528 
L 133.474666 332.878641 
L 133.637288 333.335118 
L 133.799911 332.340685 
L 134.125155 329.007276 
L 134.287777 330.068598 
L 134.450399 327.912262 
L 134.613021 329.133042 
L 134.775643 328.340391 
L 134.938265 330.424118 
L 135.263509 326.996699 
L 135.426131 326.06184 
L 135.588753 328.310831 
L 135.751375 324.254649 
L 135.913997 324.029695 
L 136.076619 321.761127 
L 136.239241 322.263071 
L 136.401863 320.53074 
L 136.564485 323.553988 
L 136.889729 325.746023 
L 137.052351 322.748574 
L 137.377595 322.764208 
L 137.865462 327.777054 
L 138.353328 324.06153 
L 138.51595 324.267498 
L 138.678572 321.228799 
L 138.841194 321.192883 
L 139.166438 318.357184 
L 139.32906 316.233584 
L 139.491682 312.158773 
L 139.654304 311.989457 
L 140.14217 315.430324 
L 140.304792 315.736699 
L 140.467414 314.269019 
L 140.630036 314.294132 
L 140.792658 313.820393 
L 141.117902 318.042093 
L 141.280524 320.633978 
L 141.605769 319.90383 
L 141.768391 316.914591 
L 141.931013 317.17736 
L 142.581501 309.624869 
L 142.744123 306.144235 
L 143.069367 311.319714 
L 143.231989 310.451387 
L 143.394611 310.666513 
L 143.719855 313.693115 
L 144.045099 314.068723 
L 144.207721 312.161042 
L 144.370343 312.275281 
L 144.532965 315.186828 
L 144.695587 320.170254 
L 144.858209 318.868707 
L 145.020831 319.729688 
L 145.183453 318.228656 
L 145.346075 319.334456 
L 145.508698 316.581126 
L 145.67132 318.861936 
L 145.833942 316.961271 
L 145.996564 316.897044 
L 146.159186 316.487494 
L 146.321808 319.625027 
L 146.48443 319.617143 
L 146.647052 320.497697 
L 146.647052 320.497697 
" clip-path="url(#pa0f0c07b43)" style="fill: none; stroke: #8000ff; stroke-width: 2; stroke-linecap: square"/>
   </g>
   <g class="patch">
    <path d="M 41.267969 339.84 
L 41.267969 188.64 
" style="fill: none; stroke: currentColor; stroke-width: 0.8; stroke-linejoin: miter; stroke-linecap: square"/>
   </g>
   <g class="patch">
    <path d="M 41.267969 339.84 
L 149.951293 339.84 
" style="fill: none; stroke: currentColor; stroke-width: 0.8; stroke-linejoin: miter; stroke-linecap: square"/>
   </g>
  </g>
 </g>
 <defs>
  <clipPath id="p10401bce92">
   <rect x="41.267969" y="7.2" width="108.683324" height="151.2"/>
  </clipPath>
  <clipPath id="pa0f0c07b43">
   <rect x="41.267969" y="188.64" width="108.683324" height="151.2"/>
  </clipPath>
 </defs>
</svg>
