<?xml version="1.0" encoding="utf-8" standalone="no"?>
<!DOCTYPE svg PUBLIC "-//W3C//DTD SVG 1.1//EN"
  "http://www.w3.org/Graphics/SVG/1.1/DTD/svg11.dtd">
<svg xmlns:xlink="http://www.w3.org/1999/xlink" width="332.40028pt" height="334.020437pt" viewBox="0 0 332.40028 334.020437" xmlns="http://www.w3.org/2000/svg" version="1.1"><defs> 
         </defs>
 <metadata>
  <rdf:RDF xmlns:dc="http://purl.org/dc/elements/1.1/" xmlns:cc="http://creativecommons.org/ns#" xmlns:rdf="http://www.w3.org/1999/02/22-rdf-syntax-ns#">
   <cc:Work>
    <dc:type rdf:resource="http://purl.org/dc/dcmitype/StillImage"/>
    <dc:date>2025-04-01T16:31:44.587571</dc:date>
    <dc:format>image/svg+xml</dc:format>
    <dc:creator>
     <cc:Agent>
      <dc:title>Matplotlib v3.10.1, https://matplotlib.org/</dc:title>
     </cc:Agent>
    </dc:creator>
   </cc:Work>
  </rdf:RDF>
 </metadata>
 <defs>
  <style type="text/css">*{stroke-linejoin: round; stroke-linecap: butt}</style>
 </defs>
 <g id="figure_1">
  <g id="patch_1">
   <path d="M 0 334.020437 
L 332.40028 334.020437 
L 332.40028 0 
L 0 0 
L 0 334.020437 
z
" style="fill: none"/>
  </g>
  <g id="axes_1">
   <g id="patch_2">
    <path d="M 49.732656 297.432 
L 325.20028 297.432 
L 325.20028 31.32 
L 49.732656 31.32 
L 49.732656 297.432 
z
" style="fill: none"/>
   </g>
   <g class="axis">
    <g id="xtick_1">
     <g id="line2d_1">
      <path d="M 72.688292 297.432 
L 72.688292 31.32 
" clip-path="url(#pfeaf421684)" style="fill: none; stroke: #b0b0b0; stroke-opacity: 0.1; stroke-width: 0.8; stroke-linecap: square"/>
     </g>
     <g id="line2d_2">
      <defs>
       <path id="mb9b260f150" d="M 0 0 
L 0 3.5 
" style="stroke: currentColor; stroke-width: 0.8"/>
      </defs>
      <g>
       <use xlink:href="#mb9b260f150" x="72.688292" y="297.432" style="stroke: currentColor; stroke-width: 0.8"/>
      </g>
     </g>
     <g id="text_1" class="text">
      <!-- 0.0 -->
      <g transform="translate(65.531885 311.270594) scale(0.09 -0.09)">
       <defs>
        <path id="DejaVuSans-30" d="M 2034 4250 
Q 1547 4250 1301 3770 
Q 1056 3291 1056 2328 
Q 1056 1369 1301 889 
Q 1547 409 2034 409 
Q 2525 409 2770 889 
Q 3016 1369 3016 2328 
Q 3016 3291 2770 3770 
Q 2525 4250 2034 4250 
z
M 2034 4750 
Q 2819 4750 3233 4129 
Q 3647 3509 3647 2328 
Q 3647 1150 3233 529 
Q 2819 -91 2034 -91 
Q 1250 -91 836 529 
Q 422 1150 422 2328 
Q 422 3509 836 4129 
Q 1250 4750 2034 4750 
z
" transform="scale(0.015625)"/>
        <path id="DejaVuSans-2e" d="M 684 794 
L 1344 794 
L 1344 0 
L 684 0 
L 684 794 
z
" transform="scale(0.015625)"/>
       </defs>
       <use xlink:href="#DejaVuSans-30"/>
       <use xlink:href="#DejaVuSans-2e" transform="translate(63.623047 0)"/>
       <use xlink:href="#DejaVuSans-30" transform="translate(95.410156 0)"/>
      </g>
     </g>
    </g>
    <g id="xtick_2">
     <g id="line2d_3">
      <path d="M 130.07738 297.432 
L 130.07738 31.32 
" clip-path="url(#pfeaf421684)" style="fill: none; stroke: #b0b0b0; stroke-opacity: 0.1; stroke-width: 0.8; stroke-linecap: square"/>
     </g>
     <g id="line2d_4">
      <g>
       <use xlink:href="#mb9b260f150" x="130.07738" y="297.432" style="stroke: currentColor; stroke-width: 0.8"/>
      </g>
     </g>
     <g id="text_2" class="text">
      <!-- 0.5 -->
      <g transform="translate(122.920974 311.270594) scale(0.09 -0.09)">
       <defs>
        <path id="DejaVuSans-35" d="M 691 4666 
L 3169 4666 
L 3169 4134 
L 1269 4134 
L 1269 2991 
Q 1406 3038 1543 3061 
Q 1681 3084 1819 3084 
Q 2600 3084 3056 2656 
Q 3513 2228 3513 1497 
Q 3513 744 3044 326 
Q 2575 -91 1722 -91 
Q 1428 -91 1123 -41 
Q 819 9 494 109 
L 494 744 
Q 775 591 1075 516 
Q 1375 441 1709 441 
Q 2250 441 2565 725 
Q 2881 1009 2881 1497 
Q 2881 1984 2565 2268 
Q 2250 2553 1709 2553 
Q 1456 2553 1204 2497 
Q 953 2441 691 2322 
L 691 4666 
z
" transform="scale(0.015625)"/>
       </defs>
       <use xlink:href="#DejaVuSans-30"/>
       <use xlink:href="#DejaVuSans-2e" transform="translate(63.623047 0)"/>
       <use xlink:href="#DejaVuSans-35" transform="translate(95.410156 0)"/>
      </g>
     </g>
    </g>
    <g id="xtick_3">
     <g id="line2d_5">
      <path d="M 187.466468 297.432 
L 187.466468 31.32 
" clip-path="url(#pfeaf421684)" style="fill: none; stroke: #b0b0b0; stroke-opacity: 0.1; stroke-width: 0.8; stroke-linecap: square"/>
     </g>
     <g id="line2d_6">
      <g>
       <use xlink:href="#mb9b260f150" x="187.466468" y="297.432" style="stroke: currentColor; stroke-width: 0.8"/>
      </g>
     </g>
     <g id="text_3" class="text">
      <!-- 1.0 -->
      <g transform="translate(180.310062 311.270594) scale(0.09 -0.09)">
       <defs>
        <path id="DejaVuSans-31" d="M 794 531 
L 1825 531 
L 1825 4091 
L 703 3866 
L 703 4441 
L 1819 4666 
L 2450 4666 
L 2450 531 
L 3481 531 
L 3481 0 
L 794 0 
L 794 531 
z
" transform="scale(0.015625)"/>
       </defs>
       <use xlink:href="#DejaVuSans-31"/>
       <use xlink:href="#DejaVuSans-2e" transform="translate(63.623047 0)"/>
       <use xlink:href="#DejaVuSans-30" transform="translate(95.410156 0)"/>
      </g>
     </g>
    </g>
    <g id="xtick_4">
     <g id="line2d_7">
      <path d="M 244.855556 297.432 
L 244.855556 31.32 
" clip-path="url(#pfeaf421684)" style="fill: none; stroke: #b0b0b0; stroke-opacity: 0.1; stroke-width: 0.8; stroke-linecap: square"/>
     </g>
     <g id="line2d_8">
      <g>
       <use xlink:href="#mb9b260f150" x="244.855556" y="297.432" style="stroke: currentColor; stroke-width: 0.8"/>
      </g>
     </g>
     <g id="text_4" class="text">
      <!-- 1.5 -->
      <g transform="translate(237.69915 311.270594) scale(0.09 -0.09)">
       <use xlink:href="#DejaVuSans-31"/>
       <use xlink:href="#DejaVuSans-2e" transform="translate(63.623047 0)"/>
       <use xlink:href="#DejaVuSans-35" transform="translate(95.410156 0)"/>
      </g>
     </g>
    </g>
    <g id="xtick_5">
     <g id="line2d_9">
      <path d="M 302.244644 297.432 
L 302.244644 31.32 
" clip-path="url(#pfeaf421684)" style="fill: none; stroke: #b0b0b0; stroke-opacity: 0.1; stroke-width: 0.8; stroke-linecap: square"/>
     </g>
     <g id="line2d_10">
      <g>
       <use xlink:href="#mb9b260f150" x="302.244644" y="297.432" style="stroke: currentColor; stroke-width: 0.8"/>
      </g>
     </g>
     <g id="text_5" class="text">
      <!-- 2.0 -->
      <g transform="translate(295.088238 311.270594) scale(0.09 -0.09)">
       <defs>
        <path id="DejaVuSans-32" d="M 1228 531 
L 3431 531 
L 3431 0 
L 469 0 
L 469 531 
Q 828 903 1448 1529 
Q 2069 2156 2228 2338 
Q 2531 2678 2651 2914 
Q 2772 3150 2772 3378 
Q 2772 3750 2511 3984 
Q 2250 4219 1831 4219 
Q 1534 4219 1204 4116 
Q 875 4013 500 3803 
L 500 4441 
Q 881 4594 1212 4672 
Q 1544 4750 1819 4750 
Q 2544 4750 2975 4387 
Q 3406 4025 3406 3419 
Q 3406 3131 3298 2873 
Q 3191 2616 2906 2266 
Q 2828 2175 2409 1742 
Q 1991 1309 1228 531 
z
" transform="scale(0.015625)"/>
       </defs>
       <use xlink:href="#DejaVuSans-32"/>
       <use xlink:href="#DejaVuSans-2e" transform="translate(63.623047 0)"/>
       <use xlink:href="#DejaVuSans-30" transform="translate(95.410156 0)"/>
      </g>
     </g>
    </g>
    <g id="text_6" class="text">
     <!-- $t$ -->
     <g transform="translate(185.466468 324.74075) scale(0.1 -0.1)">
      <defs>
       <path id="DejaVuSans-Oblique-74" d="M 2706 3500 
L 2619 3053 
L 1472 3053 
L 1100 1153 
Q 1081 1047 1072 975 
Q 1063 903 1063 863 
Q 1063 663 1183 572 
Q 1303 481 1569 481 
L 2150 481 
L 2053 0 
L 1503 0 
Q 991 0 739 200 
Q 488 400 488 806 
Q 488 878 497 964 
Q 506 1050 525 1153 
L 897 3053 
L 409 3053 
L 500 3500 
L 978 3500 
L 1172 4494 
L 1747 4494 
L 1556 3500 
L 2706 3500 
z
" transform="scale(0.015625)"/>
      </defs>
      <use xlink:href="#DejaVuSans-Oblique-74" transform="translate(0 0.78125)"/>
     </g>
    </g>
   </g>
   <g class="axis">
    <g id="ytick_1">
     <g id="line2d_11">
      <path d="M 49.732656 296.284467 
L 325.20028 296.284467 
" clip-path="url(#pfeaf421684)" style="fill: none; stroke: #b0b0b0; stroke-opacity: 0.1; stroke-width: 0.8; stroke-linecap: square"/>
     </g>
     <g id="line2d_12">
      <defs>
       <path id="mf4758837de" d="M 0 0 
L -3.5 0 
" style="stroke: currentColor; stroke-width: 0.8"/>
      </defs>
      <g>
       <use xlink:href="#mf4758837de" x="49.732656" y="296.284467" style="stroke: currentColor; stroke-width: 0.8"/>
      </g>
     </g>
     <g id="text_7" class="text">
      <!-- −2.0 -->
      <g transform="translate(20.878125 299.703764) scale(0.09 -0.09)">
       <defs>
        <path id="DejaVuSans-2212" d="M 678 2272 
L 4684 2272 
L 4684 1741 
L 678 1741 
L 678 2272 
z
" transform="scale(0.015625)"/>
       </defs>
       <use xlink:href="#DejaVuSans-2212"/>
       <use xlink:href="#DejaVuSans-32" transform="translate(83.789062 0)"/>
       <use xlink:href="#DejaVuSans-2e" transform="translate(147.412109 0)"/>
       <use xlink:href="#DejaVuSans-30" transform="translate(179.199219 0)"/>
      </g>
     </g>
    </g>
    <g id="ytick_2">
     <g id="line2d_13">
      <path d="M 49.732656 238.895379 
L 325.20028 238.895379 
" clip-path="url(#pfeaf421684)" style="fill: none; stroke: #b0b0b0; stroke-opacity: 0.1; stroke-width: 0.8; stroke-linecap: square"/>
     </g>
     <g id="line2d_14">
      <g>
       <use xlink:href="#mf4758837de" x="49.732656" y="238.895379" style="stroke: currentColor; stroke-width: 0.8"/>
      </g>
     </g>
     <g id="text_8" class="text">
      <!-- −1.5 -->
      <g transform="translate(20.878125 242.314676) scale(0.09 -0.09)">
       <use xlink:href="#DejaVuSans-2212"/>
       <use xlink:href="#DejaVuSans-31" transform="translate(83.789062 0)"/>
       <use xlink:href="#DejaVuSans-2e" transform="translate(147.412109 0)"/>
       <use xlink:href="#DejaVuSans-35" transform="translate(179.199219 0)"/>
      </g>
     </g>
    </g>
    <g id="ytick_3">
     <g id="line2d_15">
      <path d="M 49.732656 181.506291 
L 325.20028 181.506291 
" clip-path="url(#pfeaf421684)" style="fill: none; stroke: #b0b0b0; stroke-opacity: 0.1; stroke-width: 0.8; stroke-linecap: square"/>
     </g>
     <g id="line2d_16">
      <g>
       <use xlink:href="#mf4758837de" x="49.732656" y="181.506291" style="stroke: currentColor; stroke-width: 0.8"/>
      </g>
     </g>
     <g id="text_9" class="text">
      <!-- −1.0 -->
      <g transform="translate(20.878125 184.925588) scale(0.09 -0.09)">
       <use xlink:href="#DejaVuSans-2212"/>
       <use xlink:href="#DejaVuSans-31" transform="translate(83.789062 0)"/>
       <use xlink:href="#DejaVuSans-2e" transform="translate(147.412109 0)"/>
       <use xlink:href="#DejaVuSans-30" transform="translate(179.199219 0)"/>
      </g>
     </g>
    </g>
    <g id="ytick_4">
     <g id="line2d_17">
      <path d="M 49.732656 124.117203 
L 325.20028 124.117203 
" clip-path="url(#pfeaf421684)" style="fill: none; stroke: #b0b0b0; stroke-opacity: 0.1; stroke-width: 0.8; stroke-linecap: square"/>
     </g>
     <g id="line2d_18">
      <g>
       <use xlink:href="#mf4758837de" x="49.732656" y="124.117203" style="stroke: currentColor; stroke-width: 0.8"/>
      </g>
     </g>
     <g id="text_10" class="text">
      <!-- −0.5 -->
      <g transform="translate(20.878125 127.536499) scale(0.09 -0.09)">
       <use xlink:href="#DejaVuSans-2212"/>
       <use xlink:href="#DejaVuSans-30" transform="translate(83.789062 0)"/>
       <use xlink:href="#DejaVuSans-2e" transform="translate(147.412109 0)"/>
       <use xlink:href="#DejaVuSans-35" transform="translate(179.199219 0)"/>
      </g>
     </g>
    </g>
    <g id="ytick_5">
     <g id="line2d_19">
      <path d="M 49.732656 66.728114 
L 325.20028 66.728114 
" clip-path="url(#pfeaf421684)" style="fill: none; stroke: #b0b0b0; stroke-opacity: 0.1; stroke-width: 0.8; stroke-linecap: square"/>
     </g>
     <g id="line2d_20">
      <g>
       <use xlink:href="#mf4758837de" x="49.732656" y="66.728114" style="stroke: currentColor; stroke-width: 0.8"/>
      </g>
     </g>
     <g id="text_11" class="text">
      <!-- 0.0 -->
      <g transform="translate(28.419844 70.147411) scale(0.09 -0.09)">
       <use xlink:href="#DejaVuSans-30"/>
       <use xlink:href="#DejaVuSans-2e" transform="translate(63.623047 0)"/>
       <use xlink:href="#DejaVuSans-30" transform="translate(95.410156 0)"/>
      </g>
     </g>
    </g>
    <g id="text_12" class="text">
     <!-- $x(t), v(t)$ -->
     <g transform="translate(14.798437 184.626) rotate(-90) scale(0.1 -0.1)">
      <defs>
       <path id="DejaVuSans-Oblique-78" d="M 3841 3500 
L 2234 1784 
L 3219 0 
L 2559 0 
L 1819 1388 
L 531 0 
L -166 0 
L 1556 1844 
L 641 3500 
L 1300 3500 
L 1972 2234 
L 3144 3500 
L 3841 3500 
z
" transform="scale(0.015625)"/>
       <path id="DejaVuSans-28" d="M 1984 4856 
Q 1566 4138 1362 3434 
Q 1159 2731 1159 2009 
Q 1159 1288 1364 580 
Q 1569 -128 1984 -844 
L 1484 -844 
Q 1016 -109 783 600 
Q 550 1309 550 2009 
Q 550 2706 781 3412 
Q 1013 4119 1484 4856 
L 1984 4856 
z
" transform="scale(0.015625)"/>
       <path id="DejaVuSans-29" d="M 513 4856 
L 1013 4856 
Q 1481 4119 1714 3412 
Q 1947 2706 1947 2009 
Q 1947 1309 1714 600 
Q 1481 -109 1013 -844 
L 513 -844 
Q 928 -128 1133 580 
Q 1338 1288 1338 2009 
Q 1338 2731 1133 3434 
Q 928 4138 513 4856 
z
" transform="scale(0.015625)"/>
       <path id="DejaVuSans-2c" d="M 750 794 
L 1409 794 
L 1409 256 
L 897 -744 
L 494 -744 
L 750 256 
L 750 794 
z
" transform="scale(0.015625)"/>
       <path id="DejaVuSans-Oblique-76" d="M 459 3500 
L 1069 3500 
L 1581 525 
L 3256 3500 
L 3866 3500 
L 1875 0 
L 1100 0 
L 459 3500 
z
" transform="scale(0.015625)"/>
      </defs>
      <use xlink:href="#DejaVuSans-Oblique-78" transform="translate(0 0.125)"/>
      <use xlink:href="#DejaVuSans-28" transform="translate(59.179688 0.125)"/>
      <use xlink:href="#DejaVuSans-Oblique-74" transform="translate(98.193359 0.125)"/>
      <use xlink:href="#DejaVuSans-29" transform="translate(137.402344 0.125)"/>
      <use xlink:href="#DejaVuSans-2c" transform="translate(176.416016 0.125)"/>
      <use xlink:href="#DejaVuSans-Oblique-76" transform="translate(227.685547 0.125)"/>
      <use xlink:href="#DejaVuSans-28" transform="translate(286.865234 0.125)"/>
      <use xlink:href="#DejaVuSans-Oblique-74" transform="translate(325.878906 0.125)"/>
      <use xlink:href="#DejaVuSans-29" transform="translate(365.087891 0.125)"/>
     </g>
    </g>
   </g>
   <g id="line2d_21">
    <path d="M 49.732656 66.728114 
L 52.515157 68.584639 
L 55.297659 44.544595 
L 58.08016 48.565362 
L 60.862661 55.483725 
L 63.645162 49.032878 
L 66.427664 68.653678 
L 69.210165 58.445865 
L 71.992666 62.585606 
L 74.775167 75.073675 
L 77.557669 64.203964 
L 80.34017 82.023224 
L 83.122671 91.29111 
L 85.905172 95.731424 
L 88.687674 96.695548 
L 91.470175 83.809876 
L 94.252676 78.849996 
L 97.035177 74.738417 
L 99.817679 60.715429 
L 102.60018 60.547354 
L 105.382681 62.484779 
L 108.165182 56.180418 
L 110.947684 48.478935 
L 113.730185 72.027844 
L 116.512686 88.75762 
L 119.295187 88.427896 
L 122.077689 83.909228 
L 124.86019 98.866801 
L 127.642691 73.701948 
L 130.425192 63.912316 
L 133.207694 49.511959 
L 135.990195 53.319775 
L 138.772696 40.579362 
L 141.555197 31.32 
L 144.337699 39.312889 
L 147.1202 57.158833 
L 149.902701 62.393183 
L 152.685202 59.499239 
L 155.467704 69.593513 
L 158.250205 93.991684 
L 161.032706 84.346812 
L 163.815207 82.629352 
L 166.597709 91.354863 
L 169.38021 114.227668 
L 172.162711 118.928335 
L 174.945212 123.114616 
L 177.727714 139.573625 
L 180.510215 141.169783 
L 183.292716 131.928215 
L 186.075217 134.637124 
L 188.857719 143.259527 
L 191.64022 136.851801 
L 194.422721 122.269677 
L 197.205222 127.740583 
L 199.987724 138.145123 
L 202.770225 129.295514 
L 205.552726 132.792893 
L 208.335227 141.264923 
L 211.117729 148.819788 
L 213.90023 147.006851 
L 216.682731 167.820211 
L 219.465232 184.376292 
L 222.247734 184.885565 
L 225.030235 185.772999 
L 227.812736 185.923495 
L 230.595237 181.399743 
L 233.377739 191.832292 
L 236.16024 208.418677 
L 238.942741 202.411624 
L 241.725242 229.073519 
L 244.507744 219.494209 
L 247.290245 228.259648 
L 250.072746 227.873942 
L 252.855247 206.519733 
L 255.637749 221.79145 
L 258.42025 226.719066 
L 261.202751 200.363105 
L 263.985252 214.580791 
L 266.767754 217.601223 
L 269.550255 228.688823 
L 272.332756 248.095164 
L 275.115257 254.845344 
L 277.897759 268.616992 
L 280.68026 254.842183 
L 283.462761 253.109392 
L 286.245262 250.443026 
L 289.027764 242.411312 
L 291.810265 252.260603 
L 294.592766 235.266249 
L 297.375267 238.386578 
L 300.157769 257.748044 
L 302.94027 283.493342 
L 305.722771 276.461368 
L 308.505272 284.347343 
L 311.287774 269.593125 
L 314.070275 263.483094 
L 316.852776 269.999941 
L 319.635277 270.124609 
L 322.417779 292.338355 
L 325.20028 297.432 
" clip-path="url(#pfeaf421684)" style="fill: none; stroke: #8000ff; stroke-width: 2; stroke-linecap: square"/>
   </g>
   <g id="line2d_22">
    <path d="M 49.732656 66.728114 
L 52.515157 66.728114 
L 55.297659 66.74668 
L 58.08016 66.524844 
L 60.862661 66.343217 
L 63.645162 66.230773 
L 66.427664 66.053821 
L 69.210165 66.073076 
L 71.992666 65.990254 
L 74.775167 65.948829 
L 77.557669 66.032284 
L 80.34017 66.007043 
L 83.122671 66.159994 
L 85.905172 66.405624 
L 88.687674 66.695657 
L 91.470175 66.995331 
L 94.252676 67.166149 
L 97.035177 67.287368 
L 99.817679 67.367471 
L 102.60018 67.307344 
L 105.382681 67.245536 
L 108.165182 67.203103 
L 110.947684 67.097626 
L 113.730185 66.915134 
L 116.512686 66.968131 
L 119.295187 67.188427 
L 122.077689 67.405424 
L 124.86019 67.577236 
L 127.642691 67.898622 
L 130.425192 67.968361 
L 133.207694 67.940203 
L 135.990195 67.768041 
L 138.772696 67.633958 
L 141.555197 67.37247 
L 144.337699 67.018389 
L 147.1202 66.744237 
L 149.902701 66.648544 
L 152.685202 66.605195 
L 155.467704 66.532906 
L 158.250205 66.56156 
L 161.032706 66.834196 
L 163.815207 67.010383 
L 166.597709 67.169395 
L 169.38021 67.415662 
L 172.162711 67.890658 
L 174.945212 68.41266 
L 177.727714 68.976525 
L 180.510215 69.70498 
L 183.292716 70.449397 
L 186.075217 71.101398 
L 188.857719 71.780488 
L 191.64022 72.545802 
L 194.422721 73.247039 
L 197.205222 73.802455 
L 199.987724 74.412579 
L 202.770225 75.12675 
L 205.552726 75.752424 
L 208.335227 76.413071 
L 211.117729 77.158439 
L 213.90023 77.979356 
L 216.682731 78.782144 
L 219.465232 79.793064 
L 222.247734 80.969546 
L 225.030235 82.151121 
L 227.812736 83.34157 
L 230.595237 84.533523 
L 233.377739 85.68024 
L 236.16024 86.931281 
L 238.942741 88.348187 
L 241.725242 89.705022 
L 244.507744 91.328476 
L 247.290245 92.856137 
L 250.072746 94.471453 
L 252.855247 96.082911 
L 255.637749 97.480827 
L 258.42025 99.03146 
L 261.202751 100.63137 
L 263.985252 101.96772 
L 266.767754 103.446247 
L 269.550255 104.954978 
L 272.332756 106.574585 
L 275.115257 108.388255 
L 277.897759 110.269428 
L 280.68026 112.288316 
L 283.462761 114.169457 
L 286.245262 116.03327 
L 289.027764 117.870419 
L 291.810265 119.627251 
L 294.592766 121.482576 
L 297.375267 123.167957 
L 300.157769 124.884542 
L 302.94027 126.794741 
L 305.722771 128.962393 
L 308.505272 131.059726 
L 311.287774 133.235918 
L 314.070275 135.264568 
L 316.852776 137.232118 
L 319.635277 139.264836 
L 322.417779 141.298801 
L 325.20028 143.554904 
" clip-path="url(#pfeaf421684)" style="fill: none; stroke-dasharray: 7.4,3.2; stroke-dashoffset: 0; stroke: #ff8000; stroke-width: 2"/>
   </g>
   <g id="patch_3">
    <path d="M 49.732656 297.432 
L 49.732656 31.32 
" style="fill: none; stroke: currentColor; stroke-width: 0.8; stroke-linejoin: miter; stroke-linecap: square"/>
   </g>
   <g id="patch_4">
    <path d="M 49.732656 297.432 
L 325.20028 297.432 
" style="fill: none; stroke: currentColor; stroke-width: 0.8; stroke-linejoin: miter; stroke-linecap: square"/>
   </g>
   <g id="text_13" class="text">
    <!-- Constant Velocity Model with $x(0) = v(0) = 0$ -->
    <g transform="translate(55.466468 16.32) scale(0.12 -0.12)">
     <defs>
      <path id="DejaVuSans-43" d="M 4122 4306 
L 4122 3641 
Q 3803 3938 3442 4084 
Q 3081 4231 2675 4231 
Q 1875 4231 1450 3742 
Q 1025 3253 1025 2328 
Q 1025 1406 1450 917 
Q 1875 428 2675 428 
Q 3081 428 3442 575 
Q 3803 722 4122 1019 
L 4122 359 
Q 3791 134 3420 21 
Q 3050 -91 2638 -91 
Q 1578 -91 968 557 
Q 359 1206 359 2328 
Q 359 3453 968 4101 
Q 1578 4750 2638 4750 
Q 3056 4750 3426 4639 
Q 3797 4528 4122 4306 
z
" transform="scale(0.015625)"/>
      <path id="DejaVuSans-6f" d="M 1959 3097 
Q 1497 3097 1228 2736 
Q 959 2375 959 1747 
Q 959 1119 1226 758 
Q 1494 397 1959 397 
Q 2419 397 2687 759 
Q 2956 1122 2956 1747 
Q 2956 2369 2687 2733 
Q 2419 3097 1959 3097 
z
M 1959 3584 
Q 2709 3584 3137 3096 
Q 3566 2609 3566 1747 
Q 3566 888 3137 398 
Q 2709 -91 1959 -91 
Q 1206 -91 779 398 
Q 353 888 353 1747 
Q 353 2609 779 3096 
Q 1206 3584 1959 3584 
z
" transform="scale(0.015625)"/>
      <path id="DejaVuSans-6e" d="M 3513 2113 
L 3513 0 
L 2938 0 
L 2938 2094 
Q 2938 2591 2744 2837 
Q 2550 3084 2163 3084 
Q 1697 3084 1428 2787 
Q 1159 2491 1159 1978 
L 1159 0 
L 581 0 
L 581 3500 
L 1159 3500 
L 1159 2956 
Q 1366 3272 1645 3428 
Q 1925 3584 2291 3584 
Q 2894 3584 3203 3211 
Q 3513 2838 3513 2113 
z
" transform="scale(0.015625)"/>
      <path id="DejaVuSans-73" d="M 2834 3397 
L 2834 2853 
Q 2591 2978 2328 3040 
Q 2066 3103 1784 3103 
Q 1356 3103 1142 2972 
Q 928 2841 928 2578 
Q 928 2378 1081 2264 
Q 1234 2150 1697 2047 
L 1894 2003 
Q 2506 1872 2764 1633 
Q 3022 1394 3022 966 
Q 3022 478 2636 193 
Q 2250 -91 1575 -91 
Q 1294 -91 989 -36 
Q 684 19 347 128 
L 347 722 
Q 666 556 975 473 
Q 1284 391 1588 391 
Q 1994 391 2212 530 
Q 2431 669 2431 922 
Q 2431 1156 2273 1281 
Q 2116 1406 1581 1522 
L 1381 1569 
Q 847 1681 609 1914 
Q 372 2147 372 2553 
Q 372 3047 722 3315 
Q 1072 3584 1716 3584 
Q 2034 3584 2315 3537 
Q 2597 3491 2834 3397 
z
" transform="scale(0.015625)"/>
      <path id="DejaVuSans-74" d="M 1172 4494 
L 1172 3500 
L 2356 3500 
L 2356 3053 
L 1172 3053 
L 1172 1153 
Q 1172 725 1289 603 
Q 1406 481 1766 481 
L 2356 481 
L 2356 0 
L 1766 0 
Q 1100 0 847 248 
Q 594 497 594 1153 
L 594 3053 
L 172 3053 
L 172 3500 
L 594 3500 
L 594 4494 
L 1172 4494 
z
" transform="scale(0.015625)"/>
      <path id="DejaVuSans-61" d="M 2194 1759 
Q 1497 1759 1228 1600 
Q 959 1441 959 1056 
Q 959 750 1161 570 
Q 1363 391 1709 391 
Q 2188 391 2477 730 
Q 2766 1069 2766 1631 
L 2766 1759 
L 2194 1759 
z
M 3341 1997 
L 3341 0 
L 2766 0 
L 2766 531 
Q 2569 213 2275 61 
Q 1981 -91 1556 -91 
Q 1019 -91 701 211 
Q 384 513 384 1019 
Q 384 1609 779 1909 
Q 1175 2209 1959 2209 
L 2766 2209 
L 2766 2266 
Q 2766 2663 2505 2880 
Q 2244 3097 1772 3097 
Q 1472 3097 1187 3025 
Q 903 2953 641 2809 
L 641 3341 
Q 956 3463 1253 3523 
Q 1550 3584 1831 3584 
Q 2591 3584 2966 3190 
Q 3341 2797 3341 1997 
z
" transform="scale(0.015625)"/>
      <path id="DejaVuSans-20" transform="scale(0.015625)"/>
      <path id="DejaVuSans-56" d="M 1831 0 
L 50 4666 
L 709 4666 
L 2188 738 
L 3669 4666 
L 4325 4666 
L 2547 0 
L 1831 0 
z
" transform="scale(0.015625)"/>
      <path id="DejaVuSans-65" d="M 3597 1894 
L 3597 1613 
L 953 1613 
Q 991 1019 1311 708 
Q 1631 397 2203 397 
Q 2534 397 2845 478 
Q 3156 559 3463 722 
L 3463 178 
Q 3153 47 2828 -22 
Q 2503 -91 2169 -91 
Q 1331 -91 842 396 
Q 353 884 353 1716 
Q 353 2575 817 3079 
Q 1281 3584 2069 3584 
Q 2775 3584 3186 3129 
Q 3597 2675 3597 1894 
z
M 3022 2063 
Q 3016 2534 2758 2815 
Q 2500 3097 2075 3097 
Q 1594 3097 1305 2825 
Q 1016 2553 972 2059 
L 3022 2063 
z
" transform="scale(0.015625)"/>
      <path id="DejaVuSans-6c" d="M 603 4863 
L 1178 4863 
L 1178 0 
L 603 0 
L 603 4863 
z
" transform="scale(0.015625)"/>
      <path id="DejaVuSans-63" d="M 3122 3366 
L 3122 2828 
Q 2878 2963 2633 3030 
Q 2388 3097 2138 3097 
Q 1578 3097 1268 2742 
Q 959 2388 959 1747 
Q 959 1106 1268 751 
Q 1578 397 2138 397 
Q 2388 397 2633 464 
Q 2878 531 3122 666 
L 3122 134 
Q 2881 22 2623 -34 
Q 2366 -91 2075 -91 
Q 1284 -91 818 406 
Q 353 903 353 1747 
Q 353 2603 823 3093 
Q 1294 3584 2113 3584 
Q 2378 3584 2631 3529 
Q 2884 3475 3122 3366 
z
" transform="scale(0.015625)"/>
      <path id="DejaVuSans-69" d="M 603 3500 
L 1178 3500 
L 1178 0 
L 603 0 
L 603 3500 
z
M 603 4863 
L 1178 4863 
L 1178 4134 
L 603 4134 
L 603 4863 
z
" transform="scale(0.015625)"/>
      <path id="DejaVuSans-79" d="M 2059 -325 
Q 1816 -950 1584 -1140 
Q 1353 -1331 966 -1331 
L 506 -1331 
L 506 -850 
L 844 -850 
Q 1081 -850 1212 -737 
Q 1344 -625 1503 -206 
L 1606 56 
L 191 3500 
L 800 3500 
L 1894 763 
L 2988 3500 
L 3597 3500 
L 2059 -325 
z
" transform="scale(0.015625)"/>
      <path id="DejaVuSans-4d" d="M 628 4666 
L 1569 4666 
L 2759 1491 
L 3956 4666 
L 4897 4666 
L 4897 0 
L 4281 0 
L 4281 4097 
L 3078 897 
L 2444 897 
L 1241 4097 
L 1241 0 
L 628 0 
L 628 4666 
z
" transform="scale(0.015625)"/>
      <path id="DejaVuSans-64" d="M 2906 2969 
L 2906 4863 
L 3481 4863 
L 3481 0 
L 2906 0 
L 2906 525 
Q 2725 213 2448 61 
Q 2172 -91 1784 -91 
Q 1150 -91 751 415 
Q 353 922 353 1747 
Q 353 2572 751 3078 
Q 1150 3584 1784 3584 
Q 2172 3584 2448 3432 
Q 2725 3281 2906 2969 
z
M 947 1747 
Q 947 1113 1208 752 
Q 1469 391 1925 391 
Q 2381 391 2643 752 
Q 2906 1113 2906 1747 
Q 2906 2381 2643 2742 
Q 2381 3103 1925 3103 
Q 1469 3103 1208 2742 
Q 947 2381 947 1747 
z
" transform="scale(0.015625)"/>
      <path id="DejaVuSans-77" d="M 269 3500 
L 844 3500 
L 1563 769 
L 2278 3500 
L 2956 3500 
L 3675 769 
L 4391 3500 
L 4966 3500 
L 4050 0 
L 3372 0 
L 2619 2869 
L 1863 0 
L 1184 0 
L 269 3500 
z
" transform="scale(0.015625)"/>
      <path id="DejaVuSans-68" d="M 3513 2113 
L 3513 0 
L 2938 0 
L 2938 2094 
Q 2938 2591 2744 2837 
Q 2550 3084 2163 3084 
Q 1697 3084 1428 2787 
Q 1159 2491 1159 1978 
L 1159 0 
L 581 0 
L 581 4863 
L 1159 4863 
L 1159 2956 
Q 1366 3272 1645 3428 
Q 1925 3584 2291 3584 
Q 2894 3584 3203 3211 
Q 3513 2838 3513 2113 
z
" transform="scale(0.015625)"/>
      <path id="DejaVuSans-3d" d="M 678 2906 
L 4684 2906 
L 4684 2381 
L 678 2381 
L 678 2906 
z
M 678 1631 
L 4684 1631 
L 4684 1100 
L 678 1100 
L 678 1631 
z
" transform="scale(0.015625)"/>
     </defs>
     <use xlink:href="#DejaVuSans-43" transform="translate(0 0.015625)"/>
     <use xlink:href="#DejaVuSans-6f" transform="translate(69.824219 0.015625)"/>
     <use xlink:href="#DejaVuSans-6e" transform="translate(131.005859 0.015625)"/>
     <use xlink:href="#DejaVuSans-73" transform="translate(194.384766 0.015625)"/>
     <use xlink:href="#DejaVuSans-74" transform="translate(246.484375 0.015625)"/>
     <use xlink:href="#DejaVuSans-61" transform="translate(285.693359 0.015625)"/>
     <use xlink:href="#DejaVuSans-6e" transform="translate(346.972656 0.015625)"/>
     <use xlink:href="#DejaVuSans-74" transform="translate(410.351562 0.015625)"/>
     <use xlink:href="#DejaVuSans-20" transform="translate(449.560547 0.015625)"/>
     <use xlink:href="#DejaVuSans-56" transform="translate(481.347656 0.015625)"/>
     <use xlink:href="#DejaVuSans-65" transform="translate(549.755859 0.015625)"/>
     <use xlink:href="#DejaVuSans-6c" transform="translate(611.279297 0.015625)"/>
     <use xlink:href="#DejaVuSans-6f" transform="translate(639.0625 0.015625)"/>
     <use xlink:href="#DejaVuSans-63" transform="translate(700.244141 0.015625)"/>
     <use xlink:href="#DejaVuSans-69" transform="translate(755.224609 0.015625)"/>
     <use xlink:href="#DejaVuSans-74" transform="translate(783.007812 0.015625)"/>
     <use xlink:href="#DejaVuSans-79" transform="translate(822.216797 0.015625)"/>
     <use xlink:href="#DejaVuSans-20" transform="translate(881.396484 0.015625)"/>
     <use xlink:href="#DejaVuSans-4d" transform="translate(913.183594 0.015625)"/>
     <use xlink:href="#DejaVuSans-6f" transform="translate(999.462891 0.015625)"/>
     <use xlink:href="#DejaVuSans-64" transform="translate(1060.644531 0.015625)"/>
     <use xlink:href="#DejaVuSans-65" transform="translate(1124.121094 0.015625)"/>
     <use xlink:href="#DejaVuSans-6c" transform="translate(1185.644531 0.015625)"/>
     <use xlink:href="#DejaVuSans-20" transform="translate(1213.427734 0.015625)"/>
     <use xlink:href="#DejaVuSans-77" transform="translate(1245.214844 0.015625)"/>
     <use xlink:href="#DejaVuSans-69" transform="translate(1327.001953 0.015625)"/>
     <use xlink:href="#DejaVuSans-74" transform="translate(1354.785156 0.015625)"/>
     <use xlink:href="#DejaVuSans-68" transform="translate(1393.994141 0.015625)"/>
     <use xlink:href="#DejaVuSans-20" transform="translate(1457.373047 0.015625)"/>
     <use xlink:href="#DejaVuSans-Oblique-78" transform="translate(1489.160156 0.015625)"/>
     <use xlink:href="#DejaVuSans-28" transform="translate(1548.339844 0.015625)"/>
     <use xlink:href="#DejaVuSans-30" transform="translate(1587.353516 0.015625)"/>
     <use xlink:href="#DejaVuSans-29" transform="translate(1650.976562 0.015625)"/>
     <use xlink:href="#DejaVuSans-3d" transform="translate(1709.472656 0.015625)"/>
     <use xlink:href="#DejaVuSans-Oblique-76" transform="translate(1812.744141 0.015625)"/>
     <use xlink:href="#DejaVuSans-28" transform="translate(1871.923828 0.015625)"/>
     <use xlink:href="#DejaVuSans-30" transform="translate(1910.9375 0.015625)"/>
     <use xlink:href="#DejaVuSans-29" transform="translate(1974.560547 0.015625)"/>
     <use xlink:href="#DejaVuSans-3d" transform="translate(2033.056641 0.015625)"/>
     <use xlink:href="#DejaVuSans-30" transform="translate(2136.328125 0.015625)"/>
    </g>
   </g>
   <g class="legend">
    <g id="patch_5">
     <path d="M 268.660927 70.262865 
L 313.390927 70.262865 
Q 315.190927 70.262865 315.190927 68.462865 
L 315.190927 42.94224 
Q 315.190927 41.14224 313.390927 41.14224 
L 268.660927 41.14224 
Q 266.860927 41.14224 266.860927 42.94224 
L 266.860927 68.462865 
Q 266.860927 70.262865 268.660927 70.262865 
z
" style="fill: #ffffff; opacity: 0.9; stroke: #cccccc; stroke-linejoin: miter"/>
    </g>
    <g id="line2d_23">
     <path d="M 270.460927 48.430834 
L 279.460927 48.430834 
L 288.460927 48.430834 
" style="fill: none; stroke: #8000ff; stroke-width: 2; stroke-linecap: square"/>
    </g>
    <g id="text_14" class="text">
     <!-- $v(t)$ -->
     <g transform="translate(295.660927 51.580834) scale(0.09 -0.09)">
      <use xlink:href="#DejaVuSans-Oblique-76" transform="translate(0 0.125)"/>
      <use xlink:href="#DejaVuSans-28" transform="translate(59.179688 0.125)"/>
      <use xlink:href="#DejaVuSans-Oblique-74" transform="translate(98.193359 0.125)"/>
      <use xlink:href="#DejaVuSans-29" transform="translate(137.402344 0.125)"/>
     </g>
    </g>
    <g id="line2d_24">
     <path d="M 270.460927 61.641146 
L 279.460927 61.641146 
L 288.460927 61.641146 
" style="fill: none; stroke-dasharray: 7.4,3.2; stroke-dashoffset: 0; stroke: #ff8000; stroke-width: 2"/>
    </g>
    <g id="text_15" class="text">
     <!-- $x(t)$ -->
     <g transform="translate(295.660927 64.791146) scale(0.09 -0.09)">
      <use xlink:href="#DejaVuSans-Oblique-78" transform="translate(0 0.125)"/>
      <use xlink:href="#DejaVuSans-28" transform="translate(59.179688 0.125)"/>
      <use xlink:href="#DejaVuSans-Oblique-74" transform="translate(98.193359 0.125)"/>
      <use xlink:href="#DejaVuSans-29" transform="translate(137.402344 0.125)"/>
     </g>
    </g>
   </g>
  </g>
 </g>
 <defs>
  <clipPath id="pfeaf421684">
   <rect x="49.732656" y="31.32" width="275.467624" height="266.112"/>
  </clipPath>
 </defs>
</svg>
