<?xml version="1.0" encoding="utf-8" standalone="no"?>
<!DOCTYPE svg PUBLIC "-//W3C//DTD SVG 1.1//EN"
  "http://www.w3.org/Graphics/SVG/1.1/DTD/svg11.dtd">
<svg xmlns:xlink="http://www.w3.org/1999/xlink" width="414.052656pt" height="278.905066pt" viewBox="0 0 414.052656 278.905066" xmlns="http://www.w3.org/2000/svg" version="1.1"><defs> 
         </defs>
 <metadata>
  <rdf:RDF xmlns:dc="http://purl.org/dc/elements/1.1/" xmlns:cc="http://creativecommons.org/ns#" xmlns:rdf="http://www.w3.org/1999/02/22-rdf-syntax-ns#">
   <cc:Work>
    <dc:type rdf:resource="http://purl.org/dc/dcmitype/StillImage"/>
    <dc:date>2025-04-01T17:03:07.936079</dc:date>
    <dc:format>image/svg+xml</dc:format>
    <dc:creator>
     <cc:Agent>
      <dc:title>Matplotlib v3.10.1, https://matplotlib.org/</dc:title>
     </cc:Agent>
    </dc:creator>
   </cc:Work>
  </rdf:RDF>
 </metadata>
 <defs>
  <style type="text/css">*{stroke-linejoin: round; stroke-linecap: butt}</style>
 </defs>
 <g id="figure_1">
  <g id="patch_1">
   <path d="M 0 278.905066 
L 414.052656 278.905066 
L 414.052656 0 
L 0 0 
L 0 278.905066 
z
" style="fill: none"/>
  </g>
  <g id="axes_1">
   <g id="patch_2">
    <path d="M 49.732656 242.316629 
L 406.852656 242.316629 
L 406.852656 7.2 
L 49.732656 7.2 
L 49.732656 242.316629 
z
" style="fill: none"/>
   </g>
   <g id="patch_3">
    <path d="M 144.356216 124.758314 
L 163.008758 124.758314 
L 163.008758 115.392692 
L 144.356216 115.392692 
z
" clip-path="url(#p87c70614ec)" style="fill: #ff8000; opacity: 0.5; stroke: #ff8000; stroke-linejoin: miter"/>
   </g>
   <g id="patch_4">
    <path d="M 163.008758 124.758314 
L 181.661301 124.758314 
L 181.661301 79.618995 
L 163.008758 79.618995 
z
" clip-path="url(#p87c70614ec)" style="fill: #ff8000; opacity: 0.5; stroke: #ff8000; stroke-linejoin: miter"/>
   </g>
   <g id="patch_5">
    <path d="M 181.661301 124.758314 
L 200.313843 124.758314 
L 200.313843 49.289767 
L 181.661301 49.289767 
z
" clip-path="url(#p87c70614ec)" style="fill: #ff8000; opacity: 0.5; stroke: #ff8000; stroke-linejoin: miter"/>
   </g>
   <g id="patch_6">
    <path d="M 200.313843 124.758314 
L 218.966385 124.758314 
L 218.966385 28.063159 
L 200.313843 28.063159 
z
" clip-path="url(#p87c70614ec)" style="fill: #ff8000; opacity: 0.5; stroke: #ff8000; stroke-linejoin: miter"/>
   </g>
   <g id="patch_7">
    <path d="M 218.966385 124.758314 
L 237.618927 124.758314 
L 237.618927 18.499414 
L 218.966385 18.499414 
z
" clip-path="url(#p87c70614ec)" style="fill: #ff8000; opacity: 0.5; stroke: #ff8000; stroke-linejoin: miter"/>
   </g>
   <g id="patch_8">
    <path d="M 237.618927 124.758314 
L 256.27147 124.758314 
L 256.27147 21.752061 
L 237.618927 21.752061 
z
" clip-path="url(#p87c70614ec)" style="fill: #ff8000; opacity: 0.5; stroke: #ff8000; stroke-linejoin: miter"/>
   </g>
   <g id="patch_9">
    <path d="M 256.27147 124.758314 
L 274.924012 124.758314 
L 274.924012 37.428782 
L 256.27147 37.428782 
z
" clip-path="url(#p87c70614ec)" style="fill: #ff8000; opacity: 0.5; stroke: #ff8000; stroke-linejoin: miter"/>
   </g>
   <g id="patch_10">
    <path d="M 274.924012 124.758314 
L 293.576554 124.758314 
L 293.576554 63.638733 
L 274.924012 63.638733 
z
" clip-path="url(#p87c70614ec)" style="fill: #ff8000; opacity: 0.5; stroke: #ff8000; stroke-linejoin: miter"/>
   </g>
   <g id="patch_11">
    <path d="M 293.576554 124.758314 
L 293.576554 124.758314 
L 293.576554 97.220608 
L 293.576554 97.220608 
z
" clip-path="url(#p87c70614ec)" style="fill: #ff8000; opacity: 0.5; stroke: #ff8000; stroke-linejoin: miter"/>
   </g>
   <g class="axis">
    <g id="xtick_1">
     <g id="line2d_1">
      <path d="M 60.419776 242.316629 
L 60.419776 7.2 
" clip-path="url(#p87c70614ec)" style="fill: none; stroke: #b0b0b0; stroke-opacity: 0.1; stroke-width: 0.8; stroke-linecap: square"/>
     </g>
     <g id="line2d_2">
      <defs>
       <path id="ma4dddb21aa" d="M 0 0 
L 0 3.5 
" style="stroke: currentColor; stroke-width: 0.8"/>
      </defs>
      <g>
       <use xlink:href="#ma4dddb21aa" x="60.419776" y="242.316629" style="stroke: currentColor; stroke-width: 0.8"/>
      </g>
     </g>
     <g id="text_1" class="text">
      <!-- 0 -->
      <g transform="translate(57.556651 256.155223) scale(0.09 -0.09)">
       <defs>
        <path id="DejaVuSans-30" d="M 2034 4250 
Q 1547 4250 1301 3770 
Q 1056 3291 1056 2328 
Q 1056 1369 1301 889 
Q 1547 409 2034 409 
Q 2525 409 2770 889 
Q 3016 1369 3016 2328 
Q 3016 3291 2770 3770 
Q 2525 4250 2034 4250 
z
M 2034 4750 
Q 2819 4750 3233 4129 
Q 3647 3509 3647 2328 
Q 3647 1150 3233 529 
Q 2819 -91 2034 -91 
Q 1250 -91 836 529 
Q 422 1150 422 2328 
Q 422 3509 836 4129 
Q 1250 4750 2034 4750 
z
" transform="scale(0.015625)"/>
       </defs>
       <use xlink:href="#DejaVuSans-30"/>
      </g>
     </g>
    </g>
    <g id="xtick_2">
     <g id="line2d_3">
      <path d="M 113.855373 242.316629 
L 113.855373 7.2 
" clip-path="url(#p87c70614ec)" style="fill: none; stroke: #b0b0b0; stroke-opacity: 0.1; stroke-width: 0.8; stroke-linecap: square"/>
     </g>
     <g id="line2d_4">
      <g>
       <use xlink:href="#ma4dddb21aa" x="113.855373" y="242.316629" style="stroke: currentColor; stroke-width: 0.8"/>
      </g>
     </g>
     <g id="text_2" class="text">
      <!-- 1 -->
      <g transform="translate(110.992248 256.155223) scale(0.09 -0.09)">
       <defs>
        <path id="DejaVuSans-31" d="M 794 531 
L 1825 531 
L 1825 4091 
L 703 3866 
L 703 4441 
L 1819 4666 
L 2450 4666 
L 2450 531 
L 3481 531 
L 3481 0 
L 794 0 
L 794 531 
z
" transform="scale(0.015625)"/>
       </defs>
       <use xlink:href="#DejaVuSans-31"/>
      </g>
     </g>
    </g>
    <g id="xtick_3">
     <g id="line2d_5">
      <path d="M 167.290971 242.316629 
L 167.290971 7.2 
" clip-path="url(#p87c70614ec)" style="fill: none; stroke: #b0b0b0; stroke-opacity: 0.1; stroke-width: 0.8; stroke-linecap: square"/>
     </g>
     <g id="line2d_6">
      <g>
       <use xlink:href="#ma4dddb21aa" x="167.290971" y="242.316629" style="stroke: currentColor; stroke-width: 0.8"/>
      </g>
     </g>
     <g id="text_3" class="text">
      <!-- 2 -->
      <g transform="translate(164.427846 256.155223) scale(0.09 -0.09)">
       <defs>
        <path id="DejaVuSans-32" d="M 1228 531 
L 3431 531 
L 3431 0 
L 469 0 
L 469 531 
Q 828 903 1448 1529 
Q 2069 2156 2228 2338 
Q 2531 2678 2651 2914 
Q 2772 3150 2772 3378 
Q 2772 3750 2511 3984 
Q 2250 4219 1831 4219 
Q 1534 4219 1204 4116 
Q 875 4013 500 3803 
L 500 4441 
Q 881 4594 1212 4672 
Q 1544 4750 1819 4750 
Q 2544 4750 2975 4387 
Q 3406 4025 3406 3419 
Q 3406 3131 3298 2873 
Q 3191 2616 2906 2266 
Q 2828 2175 2409 1742 
Q 1991 1309 1228 531 
z
" transform="scale(0.015625)"/>
       </defs>
       <use xlink:href="#DejaVuSans-32"/>
      </g>
     </g>
    </g>
    <g id="xtick_4">
     <g id="line2d_7">
      <path d="M 220.726568 242.316629 
L 220.726568 7.2 
" clip-path="url(#p87c70614ec)" style="fill: none; stroke: #b0b0b0; stroke-opacity: 0.1; stroke-width: 0.8; stroke-linecap: square"/>
     </g>
     <g id="line2d_8">
      <g>
       <use xlink:href="#ma4dddb21aa" x="220.726568" y="242.316629" style="stroke: currentColor; stroke-width: 0.8"/>
      </g>
     </g>
     <g id="text_4" class="text">
      <!-- 3 -->
      <g transform="translate(217.863443 256.155223) scale(0.09 -0.09)">
       <defs>
        <path id="DejaVuSans-33" d="M 2597 2516 
Q 3050 2419 3304 2112 
Q 3559 1806 3559 1356 
Q 3559 666 3084 287 
Q 2609 -91 1734 -91 
Q 1441 -91 1130 -33 
Q 819 25 488 141 
L 488 750 
Q 750 597 1062 519 
Q 1375 441 1716 441 
Q 2309 441 2620 675 
Q 2931 909 2931 1356 
Q 2931 1769 2642 2001 
Q 2353 2234 1838 2234 
L 1294 2234 
L 1294 2753 
L 1863 2753 
Q 2328 2753 2575 2939 
Q 2822 3125 2822 3475 
Q 2822 3834 2567 4026 
Q 2313 4219 1838 4219 
Q 1578 4219 1281 4162 
Q 984 4106 628 3988 
L 628 4550 
Q 988 4650 1302 4700 
Q 1616 4750 1894 4750 
Q 2613 4750 3031 4423 
Q 3450 4097 3450 3541 
Q 3450 3153 3228 2886 
Q 3006 2619 2597 2516 
z
" transform="scale(0.015625)"/>
       </defs>
       <use xlink:href="#DejaVuSans-33"/>
      </g>
     </g>
    </g>
    <g id="xtick_5">
     <g id="line2d_9">
      <path d="M 274.162166 242.316629 
L 274.162166 7.2 
" clip-path="url(#p87c70614ec)" style="fill: none; stroke: #b0b0b0; stroke-opacity: 0.1; stroke-width: 0.8; stroke-linecap: square"/>
     </g>
     <g id="line2d_10">
      <g>
       <use xlink:href="#ma4dddb21aa" x="274.162166" y="242.316629" style="stroke: currentColor; stroke-width: 0.8"/>
      </g>
     </g>
     <g id="text_5" class="text">
      <!-- 4 -->
      <g transform="translate(271.299041 256.155223) scale(0.09 -0.09)">
       <defs>
        <path id="DejaVuSans-34" d="M 2419 4116 
L 825 1625 
L 2419 1625 
L 2419 4116 
z
M 2253 4666 
L 3047 4666 
L 3047 1625 
L 3713 1625 
L 3713 1100 
L 3047 1100 
L 3047 0 
L 2419 0 
L 2419 1100 
L 313 1100 
L 313 1709 
L 2253 4666 
z
" transform="scale(0.015625)"/>
       </defs>
       <use xlink:href="#DejaVuSans-34"/>
      </g>
     </g>
    </g>
    <g id="xtick_6">
     <g id="line2d_11">
      <path d="M 327.597763 242.316629 
L 327.597763 7.2 
" clip-path="url(#p87c70614ec)" style="fill: none; stroke: #b0b0b0; stroke-opacity: 0.1; stroke-width: 0.8; stroke-linecap: square"/>
     </g>
     <g id="line2d_12">
      <g>
       <use xlink:href="#ma4dddb21aa" x="327.597763" y="242.316629" style="stroke: currentColor; stroke-width: 0.8"/>
      </g>
     </g>
     <g id="text_6" class="text">
      <!-- 5 -->
      <g transform="translate(324.734638 256.155223) scale(0.09 -0.09)">
       <defs>
        <path id="DejaVuSans-35" d="M 691 4666 
L 3169 4666 
L 3169 4134 
L 1269 4134 
L 1269 2991 
Q 1406 3038 1543 3061 
Q 1681 3084 1819 3084 
Q 2600 3084 3056 2656 
Q 3513 2228 3513 1497 
Q 3513 744 3044 326 
Q 2575 -91 1722 -91 
Q 1428 -91 1123 -41 
Q 819 9 494 109 
L 494 744 
Q 775 591 1075 516 
Q 1375 441 1709 441 
Q 2250 441 2565 725 
Q 2881 1009 2881 1497 
Q 2881 1984 2565 2268 
Q 2250 2553 1709 2553 
Q 1456 2553 1204 2497 
Q 953 2441 691 2322 
L 691 4666 
z
" transform="scale(0.015625)"/>
       </defs>
       <use xlink:href="#DejaVuSans-35"/>
      </g>
     </g>
    </g>
    <g id="xtick_7">
     <g id="line2d_13">
      <path d="M 381.033361 242.316629 
L 381.033361 7.2 
" clip-path="url(#p87c70614ec)" style="fill: none; stroke: #b0b0b0; stroke-opacity: 0.1; stroke-width: 0.8; stroke-linecap: square"/>
     </g>
     <g id="line2d_14">
      <g>
       <use xlink:href="#ma4dddb21aa" x="381.033361" y="242.316629" style="stroke: currentColor; stroke-width: 0.8"/>
      </g>
     </g>
     <g id="text_7" class="text">
      <!-- 6 -->
      <g transform="translate(378.170236 256.155223) scale(0.09 -0.09)">
       <defs>
        <path id="DejaVuSans-36" d="M 2113 2584 
Q 1688 2584 1439 2293 
Q 1191 2003 1191 1497 
Q 1191 994 1439 701 
Q 1688 409 2113 409 
Q 2538 409 2786 701 
Q 3034 994 3034 1497 
Q 3034 2003 2786 2293 
Q 2538 2584 2113 2584 
z
M 3366 4563 
L 3366 3988 
Q 3128 4100 2886 4159 
Q 2644 4219 2406 4219 
Q 1781 4219 1451 3797 
Q 1122 3375 1075 2522 
Q 1259 2794 1537 2939 
Q 1816 3084 2150 3084 
Q 2853 3084 3261 2657 
Q 3669 2231 3669 1497 
Q 3669 778 3244 343 
Q 2819 -91 2113 -91 
Q 1303 -91 875 529 
Q 447 1150 447 2328 
Q 447 3434 972 4092 
Q 1497 4750 2381 4750 
Q 2619 4750 2861 4703 
Q 3103 4656 3366 4563 
z
" transform="scale(0.015625)"/>
       </defs>
       <use xlink:href="#DejaVuSans-36"/>
      </g>
     </g>
    </g>
    <g id="text_8" class="text">
     <!-- $t$ -->
     <g transform="translate(226.292656 269.625379) scale(0.1 -0.1)">
      <defs>
       <path id="DejaVuSans-Oblique-74" d="M 2706 3500 
L 2619 3053 
L 1472 3053 
L 1100 1153 
Q 1081 1047 1072 975 
Q 1063 903 1063 863 
Q 1063 663 1183 572 
Q 1303 481 1569 481 
L 2150 481 
L 2053 0 
L 1503 0 
Q 991 0 739 200 
Q 488 400 488 806 
Q 488 878 497 964 
Q 506 1050 525 1153 
L 897 3053 
L 409 3053 
L 500 3500 
L 978 3500 
L 1172 4494 
L 1747 4494 
L 1556 3500 
L 2706 3500 
z
" transform="scale(0.015625)"/>
      </defs>
      <use xlink:href="#DejaVuSans-Oblique-74" transform="translate(0 0.78125)"/>
     </g>
    </g>
   </g>
   <g class="axis">
    <g id="ytick_1">
     <g id="line2d_15">
      <path d="M 49.732656 231.629509 
L 406.852656 231.629509 
" clip-path="url(#p87c70614ec)" style="fill: none; stroke: #b0b0b0; stroke-opacity: 0.1; stroke-width: 0.8; stroke-linecap: square"/>
     </g>
     <g id="line2d_16">
      <defs>
       <path id="m0a36fda50b" d="M 0 0 
L -3.5 0 
" style="stroke: currentColor; stroke-width: 0.8"/>
      </defs>
      <g>
       <use xlink:href="#m0a36fda50b" x="49.732656" y="231.629509" style="stroke: currentColor; stroke-width: 0.8"/>
      </g>
     </g>
     <g id="text_9" class="text">
      <!-- −2.0 -->
      <g transform="translate(20.878125 235.048806) scale(0.09 -0.09)">
       <defs>
        <path id="DejaVuSans-2212" d="M 678 2272 
L 4684 2272 
L 4684 1741 
L 678 1741 
L 678 2272 
z
" transform="scale(0.015625)"/>
        <path id="DejaVuSans-2e" d="M 684 794 
L 1344 794 
L 1344 0 
L 684 0 
L 684 794 
z
" transform="scale(0.015625)"/>
       </defs>
       <use xlink:href="#DejaVuSans-2212"/>
       <use xlink:href="#DejaVuSans-32" transform="translate(83.789062 0)"/>
       <use xlink:href="#DejaVuSans-2e" transform="translate(147.412109 0)"/>
       <use xlink:href="#DejaVuSans-30" transform="translate(179.199219 0)"/>
      </g>
     </g>
    </g>
    <g id="ytick_2">
     <g id="line2d_17">
      <path d="M 49.732656 204.911711 
L 406.852656 204.911711 
" clip-path="url(#p87c70614ec)" style="fill: none; stroke: #b0b0b0; stroke-opacity: 0.1; stroke-width: 0.8; stroke-linecap: square"/>
     </g>
     <g id="line2d_18">
      <g>
       <use xlink:href="#m0a36fda50b" x="49.732656" y="204.911711" style="stroke: currentColor; stroke-width: 0.8"/>
      </g>
     </g>
     <g id="text_10" class="text">
      <!-- −1.5 -->
      <g transform="translate(20.878125 208.331008) scale(0.09 -0.09)">
       <use xlink:href="#DejaVuSans-2212"/>
       <use xlink:href="#DejaVuSans-31" transform="translate(83.789062 0)"/>
       <use xlink:href="#DejaVuSans-2e" transform="translate(147.412109 0)"/>
       <use xlink:href="#DejaVuSans-35" transform="translate(179.199219 0)"/>
      </g>
     </g>
    </g>
    <g id="ytick_3">
     <g id="line2d_19">
      <path d="M 49.732656 178.193912 
L 406.852656 178.193912 
" clip-path="url(#p87c70614ec)" style="fill: none; stroke: #b0b0b0; stroke-opacity: 0.1; stroke-width: 0.8; stroke-linecap: square"/>
     </g>
     <g id="line2d_20">
      <g>
       <use xlink:href="#m0a36fda50b" x="49.732656" y="178.193912" style="stroke: currentColor; stroke-width: 0.8"/>
      </g>
     </g>
     <g id="text_11" class="text">
      <!-- −1.0 -->
      <g transform="translate(20.878125 181.613209) scale(0.09 -0.09)">
       <use xlink:href="#DejaVuSans-2212"/>
       <use xlink:href="#DejaVuSans-31" transform="translate(83.789062 0)"/>
       <use xlink:href="#DejaVuSans-2e" transform="translate(147.412109 0)"/>
       <use xlink:href="#DejaVuSans-30" transform="translate(179.199219 0)"/>
      </g>
     </g>
    </g>
    <g id="ytick_4">
     <g id="line2d_21">
      <path d="M 49.732656 151.476113 
L 406.852656 151.476113 
" clip-path="url(#p87c70614ec)" style="fill: none; stroke: #b0b0b0; stroke-opacity: 0.1; stroke-width: 0.8; stroke-linecap: square"/>
     </g>
     <g id="line2d_22">
      <g>
       <use xlink:href="#m0a36fda50b" x="49.732656" y="151.476113" style="stroke: currentColor; stroke-width: 0.8"/>
      </g>
     </g>
     <g id="text_12" class="text">
      <!-- −0.5 -->
      <g transform="translate(20.878125 154.89541) scale(0.09 -0.09)">
       <use xlink:href="#DejaVuSans-2212"/>
       <use xlink:href="#DejaVuSans-30" transform="translate(83.789062 0)"/>
       <use xlink:href="#DejaVuSans-2e" transform="translate(147.412109 0)"/>
       <use xlink:href="#DejaVuSans-35" transform="translate(179.199219 0)"/>
      </g>
     </g>
    </g>
    <g id="ytick_5">
     <g id="line2d_23">
      <path d="M 49.732656 124.758314 
L 406.852656 124.758314 
" clip-path="url(#p87c70614ec)" style="fill: none; stroke: #b0b0b0; stroke-opacity: 0.1; stroke-width: 0.8; stroke-linecap: square"/>
     </g>
     <g id="line2d_24">
      <g>
       <use xlink:href="#m0a36fda50b" x="49.732656" y="124.758314" style="stroke: currentColor; stroke-width: 0.8"/>
      </g>
     </g>
     <g id="text_13" class="text">
      <!-- 0.0 -->
      <g transform="translate(28.419844 128.177611) scale(0.09 -0.09)">
       <use xlink:href="#DejaVuSans-30"/>
       <use xlink:href="#DejaVuSans-2e" transform="translate(63.623047 0)"/>
       <use xlink:href="#DejaVuSans-30" transform="translate(95.410156 0)"/>
      </g>
     </g>
    </g>
    <g id="ytick_6">
     <g id="line2d_25">
      <path d="M 49.732656 98.040516 
L 406.852656 98.040516 
" clip-path="url(#p87c70614ec)" style="fill: none; stroke: #b0b0b0; stroke-opacity: 0.1; stroke-width: 0.8; stroke-linecap: square"/>
     </g>
     <g id="line2d_26">
      <g>
       <use xlink:href="#m0a36fda50b" x="49.732656" y="98.040516" style="stroke: currentColor; stroke-width: 0.8"/>
      </g>
     </g>
     <g id="text_14" class="text">
      <!-- 0.5 -->
      <g transform="translate(28.419844 101.459813) scale(0.09 -0.09)">
       <use xlink:href="#DejaVuSans-30"/>
       <use xlink:href="#DejaVuSans-2e" transform="translate(63.623047 0)"/>
       <use xlink:href="#DejaVuSans-35" transform="translate(95.410156 0)"/>
      </g>
     </g>
    </g>
    <g id="ytick_7">
     <g id="line2d_27">
      <path d="M 49.732656 71.322717 
L 406.852656 71.322717 
" clip-path="url(#p87c70614ec)" style="fill: none; stroke: #b0b0b0; stroke-opacity: 0.1; stroke-width: 0.8; stroke-linecap: square"/>
     </g>
     <g id="line2d_28">
      <g>
       <use xlink:href="#m0a36fda50b" x="49.732656" y="71.322717" style="stroke: currentColor; stroke-width: 0.8"/>
      </g>
     </g>
     <g id="text_15" class="text">
      <!-- 1.0 -->
      <g transform="translate(28.419844 74.742014) scale(0.09 -0.09)">
       <use xlink:href="#DejaVuSans-31"/>
       <use xlink:href="#DejaVuSans-2e" transform="translate(63.623047 0)"/>
       <use xlink:href="#DejaVuSans-30" transform="translate(95.410156 0)"/>
      </g>
     </g>
    </g>
    <g id="ytick_8">
     <g id="line2d_29">
      <path d="M 49.732656 44.604918 
L 406.852656 44.604918 
" clip-path="url(#p87c70614ec)" style="fill: none; stroke: #b0b0b0; stroke-opacity: 0.1; stroke-width: 0.8; stroke-linecap: square"/>
     </g>
     <g id="line2d_30">
      <g>
       <use xlink:href="#m0a36fda50b" x="49.732656" y="44.604918" style="stroke: currentColor; stroke-width: 0.8"/>
      </g>
     </g>
     <g id="text_16" class="text">
      <!-- 1.5 -->
      <g transform="translate(28.419844 48.024215) scale(0.09 -0.09)">
       <use xlink:href="#DejaVuSans-31"/>
       <use xlink:href="#DejaVuSans-2e" transform="translate(63.623047 0)"/>
       <use xlink:href="#DejaVuSans-35" transform="translate(95.410156 0)"/>
      </g>
     </g>
    </g>
    <g id="ytick_9">
     <g id="line2d_31">
      <path d="M 49.732656 17.887119 
L 406.852656 17.887119 
" clip-path="url(#p87c70614ec)" style="fill: none; stroke: #b0b0b0; stroke-opacity: 0.1; stroke-width: 0.8; stroke-linecap: square"/>
     </g>
     <g id="line2d_32">
      <g>
       <use xlink:href="#m0a36fda50b" x="49.732656" y="17.887119" style="stroke: currentColor; stroke-width: 0.8"/>
      </g>
     </g>
     <g id="text_17" class="text">
      <!-- 2.0 -->
      <g transform="translate(28.419844 21.306416) scale(0.09 -0.09)">
       <use xlink:href="#DejaVuSans-32"/>
       <use xlink:href="#DejaVuSans-2e" transform="translate(63.623047 0)"/>
       <use xlink:href="#DejaVuSans-30" transform="translate(95.410156 0)"/>
      </g>
     </g>
    </g>
    <g id="text_18" class="text">
     <!-- $x(t)$ -->
     <g transform="translate(14.798438 133.608314) rotate(-90) scale(0.1 -0.1)">
      <defs>
       <path id="DejaVuSans-Oblique-78" d="M 3841 3500 
L 2234 1784 
L 3219 0 
L 2559 0 
L 1819 1388 
L 531 0 
L -166 0 
L 1556 1844 
L 641 3500 
L 1300 3500 
L 1972 2234 
L 3144 3500 
L 3841 3500 
z
" transform="scale(0.015625)"/>
       <path id="DejaVuSans-28" d="M 1984 4856 
Q 1566 4138 1362 3434 
Q 1159 2731 1159 2009 
Q 1159 1288 1364 580 
Q 1569 -128 1984 -844 
L 1484 -844 
Q 1016 -109 783 600 
Q 550 1309 550 2009 
Q 550 2706 781 3412 
Q 1013 4119 1484 4856 
L 1984 4856 
z
" transform="scale(0.015625)"/>
       <path id="DejaVuSans-29" d="M 513 4856 
L 1013 4856 
Q 1481 4119 1714 3412 
Q 1947 2706 1947 2009 
Q 1947 1309 1714 600 
Q 1481 -109 1013 -844 
L 513 -844 
Q 928 -128 1133 580 
Q 1338 1288 1338 2009 
Q 1338 2731 1133 3434 
Q 928 4138 513 4856 
z
" transform="scale(0.015625)"/>
      </defs>
      <use xlink:href="#DejaVuSans-Oblique-78" transform="translate(0 0.125)"/>
      <use xlink:href="#DejaVuSans-28" transform="translate(59.179688 0.125)"/>
      <use xlink:href="#DejaVuSans-Oblique-74" transform="translate(98.193359 0.125)"/>
      <use xlink:href="#DejaVuSans-29" transform="translate(137.402344 0.125)"/>
     </g>
    </g>
   </g>
   <g id="line2d_33">
    <path d="M 60.419776 231.005018 
L 63.811147 230.197104 
L 67.202518 228.964626 
L 70.59389 227.312546 
L 73.985261 225.247516 
L 77.376632 222.777851 
L 80.768004 219.913496 
L 84.159375 216.665985 
L 87.550746 213.048395 
L 90.942118 209.075291 
L 94.333489 204.762673 
L 97.72486 200.127905 
L 101.116232 195.18965 
L 104.507603 189.967794 
L 107.898974 184.483362 
L 111.290346 178.758438 
L 114.681717 172.816075 
L 118.073088 166.6802 
L 121.46446 160.37552 
L 124.855831 153.927423 
L 128.247202 147.361872 
L 131.638574 140.705304 
L 135.029945 133.984523 
L 138.421316 127.226592 
L 141.812688 120.458722 
L 145.204059 113.708164 
L 148.59543 107.002102 
L 151.986801 100.367538 
L 155.378173 93.831187 
L 158.769544 87.419368 
L 162.160915 81.157901 
L 165.552287 75.071996 
L 168.943658 69.186161 
L 172.335029 63.524096 
L 175.726401 58.108599 
L 179.117772 52.961477 
L 182.509143 48.103455 
L 185.900515 43.554096 
L 189.291886 39.331717 
L 192.683257 35.453321 
L 196.074629 31.934525 
L 199.466 28.789497 
L 202.857371 26.030902 
L 206.248743 23.669847 
L 209.640114 21.71584 
L 213.031485 20.176749 
L 216.422857 19.05877 
L 219.814228 18.366407 
L 223.205599 18.102446 
L 226.596971 18.26795 
L 229.988342 18.862254 
L 233.379713 19.882964 
L 236.771085 21.325969 
L 240.162456 23.185461 
L 243.553827 25.45395 
L 246.945199 28.122303 
L 250.33657 31.179775 
L 253.727941 34.614055 
L 257.119312 38.411314 
L 260.510684 42.556262 
L 263.902055 47.032208 
L 267.293426 51.82113 
L 270.684798 56.903745 
L 274.076169 62.259586 
L 277.46754 67.867087 
L 280.858912 73.703669 
L 284.250283 79.74583 
L 287.641654 85.96924 
L 291.033026 92.348841 
L 294.424397 98.858943 
L 297.815768 105.473332 
L 301.20714 112.165375 
L 304.598511 118.908126 
L 307.989882 125.674433 
L 311.381254 132.437052 
L 314.772625 139.168751 
L 318.163996 145.842424 
L 321.555368 152.431199 
L 324.946739 158.908544 
L 328.33811 165.248379 
L 331.729482 171.425175 
L 335.120853 177.41406 
L 338.512224 183.190919 
L 341.903596 188.73249 
L 345.294967 194.01646 
L 348.686338 199.021551 
L 352.07771 203.727611 
L 355.469081 208.11569 
L 358.860452 212.168117 
L 362.251824 215.868576 
L 365.643195 219.202167 
L 369.034566 222.155465 
L 372.425937 224.716579 
L 375.817309 226.875197 
L 379.20868 228.622626 
L 382.600051 229.95183 
L 385.991423 230.857457 
L 389.382794 231.33586 
L 392.774165 231.385113 
L 396.165537 231.005018 
" clip-path="url(#p87c70614ec)" style="fill: none; stroke: #8000ff; stroke-width: 2; stroke-linecap: square"/>
   </g>
   <g id="patch_12">
    <path d="M 49.732656 242.316629 
L 49.732656 7.2 
" style="fill: none; stroke: currentColor; stroke-width: 0.8; stroke-linejoin: miter; stroke-linecap: square"/>
   </g>
   <g id="patch_13">
    <path d="M 49.732656 242.316629 
L 406.852656 242.316629 
" style="fill: none; stroke: currentColor; stroke-width: 0.8; stroke-linejoin: miter; stroke-linecap: square"/>
   </g>
   <g id="text_19" class="text">
    <!-- $\int_{\frac{\pi}{2}}^{\frac{3\pi}{2}} x(t) dt$ -->
    <g style="fill: #ff0001" transform="translate(65.763335 44.604918) scale(0.12 -0.12)">
     <defs>
      <path id="DejaVuSansDisplay-222b" d="M 2134 5525 
Q 2172 6263 2528 6556 
Q 2884 6850 3218 6850 
Q 3553 6850 3833 6575 
Q 4113 6300 4200 5678 
L 3544 5613 
Q 3469 6188 3219 6188 
Q 2906 6188 2869 5413 
L 2581 -597 
Q 2547 -1334 2187 -1628 
Q 1828 -1922 1497 -1922 
Q 1163 -1922 883 -1647 
Q 603 -1372 516 -750 
L 1172 -684 
Q 1247 -1259 1497 -1259 
Q 1809 -1259 1847 -488 
L 2134 5525 
z
" transform="scale(0.015625)"/>
      <path id="DejaVuSans-Oblique-3c0" d="M 584 3500 
L 3938 3500 
L 3825 2925 
L 3384 2925 
L 2966 775 
Q 2922 550 2981 450 
Q 3038 353 3209 353 
Q 3256 353 3325 363 
Q 3397 369 3419 372 
L 3338 -44 
Q 3222 -84 3103 -103 
Q 2981 -122 2866 -122 
Q 2491 -122 2388 81 
Q 2284 288 2391 838 
L 2797 2925 
L 1506 2925 
L 938 0 
L 350 0 
L 919 2925 
L 472 2925 
L 584 3500 
z
" transform="scale(0.015625)"/>
      <path id="DejaVuSans-Oblique-64" d="M 2675 525 
Q 2444 222 2128 65 
Q 1813 -91 1428 -91 
Q 903 -91 598 267 
Q 294 625 294 1247 
Q 294 1766 478 2236 
Q 663 2706 1013 3078 
Q 1244 3325 1534 3454 
Q 1825 3584 2144 3584 
Q 2481 3584 2739 3421 
Q 2997 3259 3138 2956 
L 3513 4863 
L 4091 4863 
L 3144 0 
L 2566 0 
L 2675 525 
z
M 891 1350 
Q 891 897 1095 644 
Q 1300 391 1663 391 
Q 1931 391 2161 520 
Q 2391 650 2566 903 
Q 2750 1166 2856 1509 
Q 2963 1853 2963 2188 
Q 2963 2622 2758 2865 
Q 2553 3109 2194 3109 
Q 1922 3109 1687 2981 
Q 1453 2853 1288 2613 
Q 1106 2353 998 2009 
Q 891 1666 891 1350 
z
" transform="scale(0.015625)"/>
     </defs>
     <use xlink:href="#DejaVuSansDisplay-222b" transform="translate(0 0.884688)"/>
     <use xlink:href="#DejaVuSans-33" transform="translate(86.744141 117.632813) scale(0.49)"/>
     <use xlink:href="#DejaVuSans-Oblique-3c0" transform="translate(117.919434 117.632813) scale(0.49)"/>
     <use xlink:href="#DejaVuSans-32" transform="translate(101.744141 58.456563) scale(0.49)"/>
     <use xlink:href="#DejaVuSans-Oblique-3c0" transform="translate(72.759766 -19.429688) scale(0.49)"/>
     <use xlink:href="#DejaVuSans-32" transform="translate(71.759766 -78.605937) scale(0.49)"/>
     <use xlink:href="#DejaVuSans-Oblique-78" transform="translate(156.169922 0.884688)"/>
     <use xlink:href="#DejaVuSans-28" transform="translate(215.349609 0.884688)"/>
     <use xlink:href="#DejaVuSans-Oblique-74" transform="translate(254.363281 0.884688)"/>
     <use xlink:href="#DejaVuSans-29" transform="translate(293.572266 0.884688)"/>
     <use xlink:href="#DejaVuSans-Oblique-64" transform="translate(332.585938 0.884688)"/>
     <use xlink:href="#DejaVuSans-Oblique-74" transform="translate(396.0625 0.884688)"/>
     <path d="M 86.744141 99.19875 
L 86.744141 103.57375 
L 147.419922 103.57375 
L 147.419922 99.19875 
L 86.744141 99.19875 
z
"/>
     <path d="M 71.759766 -37.86375 
L 71.759766 -33.48875 
L 102.935059 -33.48875 
L 102.935059 -37.86375 
L 71.759766 -37.86375 
z
"/>
    </g>
   </g>
   <g id="text_20" class="text">
    <!-- $= \frac{2}{3}a$ -->
    <g style="fill: #ff0001" transform="translate(65.763335 71.322717) scale(0.12 -0.12)">
     <defs>
      <path id="DejaVuSans-3d" d="M 678 2906 
L 4684 2906 
L 4684 2381 
L 678 2381 
L 678 2906 
z
M 678 1631 
L 4684 1631 
L 4684 1100 
L 678 1100 
L 678 1631 
z
" transform="scale(0.015625)"/>
      <path id="DejaVuSans-Oblique-61" d="M 3438 1997 
L 3047 0 
L 2472 0 
L 2578 531 
Q 2325 219 2001 64 
Q 1678 -91 1281 -91 
Q 834 -91 548 182 
Q 263 456 263 884 
Q 263 1497 752 1853 
Q 1241 2209 2100 2209 
L 2900 2209 
L 2931 2363 
Q 2938 2388 2941 2417 
Q 2944 2447 2944 2509 
Q 2944 2788 2717 2942 
Q 2491 3097 2081 3097 
Q 1800 3097 1504 3025 
Q 1209 2953 897 2809 
L 997 3341 
Q 1322 3463 1633 3523 
Q 1944 3584 2234 3584 
Q 2853 3584 3176 3315 
Q 3500 3047 3500 2534 
Q 3500 2431 3484 2292 
Q 3469 2153 3438 1997 
z
M 2816 1759 
L 2241 1759 
Q 1534 1759 1195 1570 
Q 856 1381 856 984 
Q 856 709 1029 553 
Q 1203 397 1509 397 
Q 1978 397 2328 733 
Q 2678 1069 2791 1631 
L 2816 1759 
z
" transform="scale(0.015625)"/>
     </defs>
     <use xlink:href="#DejaVuSans-3d" transform="translate(19.482422 0.25)"/>
     <use xlink:href="#DejaVuSans-32" transform="translate(122.753906 44.046875) scale(0.7)"/>
     <use xlink:href="#DejaVuSans-33" transform="translate(122.753906 -39.15625) scale(0.7)"/>
     <use xlink:href="#DejaVuSans-Oblique-61" transform="translate(179.790039 0.25)"/>
     <path d="M 122.753906 19.046875 
L 122.753906 25.296875 
L 167.290039 25.296875 
L 167.290039 19.046875 
L 122.753906 19.046875 
z
"/>
    </g>
   </g>
   <g id="text_21" class="text">
    <!-- $= 1.33$ -->
    <g style="fill: #ff0001" transform="translate(65.763335 98.040516) scale(0.12 -0.12)">
     <use xlink:href="#DejaVuSans-3d" transform="translate(19.482422 0.78125)"/>
     <use xlink:href="#DejaVuSans-31" transform="translate(122.753906 0.78125)"/>
     <use xlink:href="#DejaVuSans-2e" transform="translate(186.376953 0.78125)"/>
     <use xlink:href="#DejaVuSans-33" transform="translate(218.164062 0.78125)"/>
     <use xlink:href="#DejaVuSans-33" transform="translate(281.787109 0.78125)"/>
    </g>
   </g>
  </g>
 </g>
 <defs>
  <clipPath id="p87c70614ec">
   <rect x="49.732656" y="7.2" width="357.12" height="235.116629"/>
  </clipPath>
 </defs>
</svg>
