<?xml version="1.0" encoding="utf-8" standalone="no"?>
<!DOCTYPE svg PUBLIC "-//W3C//DTD SVG 1.1//EN"
  "http://www.w3.org/Graphics/SVG/1.1/DTD/svg11.dtd">
<svg xmlns:xlink="http://www.w3.org/1999/xlink" width="406.510937pt" height="207.567007pt" viewBox="0 0 406.510937 207.567007" xmlns="http://www.w3.org/2000/svg" version="1.1"><defs> 
         </defs>
 <metadata>
  <rdf:RDF xmlns:dc="http://purl.org/dc/elements/1.1/" xmlns:cc="http://creativecommons.org/ns#" xmlns:rdf="http://www.w3.org/1999/02/22-rdf-syntax-ns#">
   <cc:Work>
    <dc:type rdf:resource="http://purl.org/dc/dcmitype/StillImage"/>
    <dc:date>2025-04-01T16:21:36.644603</dc:date>
    <dc:format>image/svg+xml</dc:format>
    <dc:creator>
     <cc:Agent>
      <dc:title>Matplotlib v3.10.1, https://matplotlib.org/</dc:title>
     </cc:Agent>
    </dc:creator>
   </cc:Work>
  </rdf:RDF>
 </metadata>
 <defs>
  <style type="text/css">*{stroke-linejoin: round; stroke-linecap: butt}</style>
 </defs>
 <g id="figure_1">
  <g id="patch_1">
   <path d="M -0 207.567007 
L 406.510937 207.567007 
L 406.510937 0 
L -0 0 
L -0 207.567007 
z
" style="fill: none"/>
  </g>
  <g id="axes_1">
   <g id="patch_2">
    <path d="M 42.190938 170.97857 
L 399.310938 170.97857 
L 399.310938 31.318125 
L 42.190938 31.318125 
L 42.190938 170.97857 
z
" style="fill: none"/>
   </g>
   <g class="axis">
    <g id="xtick_1">
     <g id="line2d_1">
      <path d="M 71.950938 170.97857 
L 71.950938 31.318125 
" clip-path="url(#p8177577b59)" style="fill: none; stroke: #b0b0b0; stroke-opacity: 0.1; stroke-width: 0.8; stroke-linecap: square"/>
     </g>
     <g id="line2d_2">
      <defs>
       <path id="m2269be3acd" d="M 0 0 
L 0 3.5 
" style="stroke: currentColor; stroke-width: 0.8"/>
      </defs>
      <g>
       <use xlink:href="#m2269be3acd" x="71.950938" y="170.97857" style="stroke: currentColor; stroke-width: 0.8"/>
      </g>
     </g>
     <g id="text_1" class="text">
      <!-- 0.0 -->
      <g transform="translate(64.794531 184.817164) scale(0.09 -0.09)">
       <defs>
        <path id="DejaVuSans-30" d="M 2034 4250 
Q 1547 4250 1301 3770 
Q 1056 3291 1056 2328 
Q 1056 1369 1301 889 
Q 1547 409 2034 409 
Q 2525 409 2770 889 
Q 3016 1369 3016 2328 
Q 3016 3291 2770 3770 
Q 2525 4250 2034 4250 
z
M 2034 4750 
Q 2819 4750 3233 4129 
Q 3647 3509 3647 2328 
Q 3647 1150 3233 529 
Q 2819 -91 2034 -91 
Q 1250 -91 836 529 
Q 422 1150 422 2328 
Q 422 3509 836 4129 
Q 1250 4750 2034 4750 
z
" transform="scale(0.015625)"/>
        <path id="DejaVuSans-2e" d="M 684 794 
L 1344 794 
L 1344 0 
L 684 0 
L 684 794 
z
" transform="scale(0.015625)"/>
       </defs>
       <use xlink:href="#DejaVuSans-30"/>
       <use xlink:href="#DejaVuSans-2e" transform="translate(63.623047 0)"/>
       <use xlink:href="#DejaVuSans-30" transform="translate(95.410156 0)"/>
      </g>
     </g>
    </g>
    <g id="xtick_2">
     <g id="line2d_3">
      <path d="M 146.350937 170.97857 
L 146.350937 31.318125 
" clip-path="url(#p8177577b59)" style="fill: none; stroke: #b0b0b0; stroke-opacity: 0.1; stroke-width: 0.8; stroke-linecap: square"/>
     </g>
     <g id="line2d_4">
      <g>
       <use xlink:href="#m2269be3acd" x="146.350937" y="170.97857" style="stroke: currentColor; stroke-width: 0.8"/>
      </g>
     </g>
     <g id="text_2" class="text">
      <!-- 0.5 -->
      <g transform="translate(139.194531 184.817164) scale(0.09 -0.09)">
       <defs>
        <path id="DejaVuSans-35" d="M 691 4666 
L 3169 4666 
L 3169 4134 
L 1269 4134 
L 1269 2991 
Q 1406 3038 1543 3061 
Q 1681 3084 1819 3084 
Q 2600 3084 3056 2656 
Q 3513 2228 3513 1497 
Q 3513 744 3044 326 
Q 2575 -91 1722 -91 
Q 1428 -91 1123 -41 
Q 819 9 494 109 
L 494 744 
Q 775 591 1075 516 
Q 1375 441 1709 441 
Q 2250 441 2565 725 
Q 2881 1009 2881 1497 
Q 2881 1984 2565 2268 
Q 2250 2553 1709 2553 
Q 1456 2553 1204 2497 
Q 953 2441 691 2322 
L 691 4666 
z
" transform="scale(0.015625)"/>
       </defs>
       <use xlink:href="#DejaVuSans-30"/>
       <use xlink:href="#DejaVuSans-2e" transform="translate(63.623047 0)"/>
       <use xlink:href="#DejaVuSans-35" transform="translate(95.410156 0)"/>
      </g>
     </g>
    </g>
    <g id="xtick_3">
     <g id="line2d_5">
      <path d="M 220.750937 170.97857 
L 220.750937 31.318125 
" clip-path="url(#p8177577b59)" style="fill: none; stroke: #b0b0b0; stroke-opacity: 0.1; stroke-width: 0.8; stroke-linecap: square"/>
     </g>
     <g id="line2d_6">
      <g>
       <use xlink:href="#m2269be3acd" x="220.750937" y="170.97857" style="stroke: currentColor; stroke-width: 0.8"/>
      </g>
     </g>
     <g id="text_3" class="text">
      <!-- 1.0 -->
      <g transform="translate(213.594531 184.817164) scale(0.09 -0.09)">
       <defs>
        <path id="DejaVuSans-31" d="M 794 531 
L 1825 531 
L 1825 4091 
L 703 3866 
L 703 4441 
L 1819 4666 
L 2450 4666 
L 2450 531 
L 3481 531 
L 3481 0 
L 794 0 
L 794 531 
z
" transform="scale(0.015625)"/>
       </defs>
       <use xlink:href="#DejaVuSans-31"/>
       <use xlink:href="#DejaVuSans-2e" transform="translate(63.623047 0)"/>
       <use xlink:href="#DejaVuSans-30" transform="translate(95.410156 0)"/>
      </g>
     </g>
    </g>
    <g id="xtick_4">
     <g id="line2d_7">
      <path d="M 295.150937 170.97857 
L 295.150937 31.318125 
" clip-path="url(#p8177577b59)" style="fill: none; stroke: #b0b0b0; stroke-opacity: 0.1; stroke-width: 0.8; stroke-linecap: square"/>
     </g>
     <g id="line2d_8">
      <g>
       <use xlink:href="#m2269be3acd" x="295.150937" y="170.97857" style="stroke: currentColor; stroke-width: 0.8"/>
      </g>
     </g>
     <g id="text_4" class="text">
      <!-- 1.5 -->
      <g transform="translate(287.994531 184.817164) scale(0.09 -0.09)">
       <use xlink:href="#DejaVuSans-31"/>
       <use xlink:href="#DejaVuSans-2e" transform="translate(63.623047 0)"/>
       <use xlink:href="#DejaVuSans-35" transform="translate(95.410156 0)"/>
      </g>
     </g>
    </g>
    <g id="xtick_5">
     <g id="line2d_9">
      <path d="M 369.550937 170.97857 
L 369.550937 31.318125 
" clip-path="url(#p8177577b59)" style="fill: none; stroke: #b0b0b0; stroke-opacity: 0.1; stroke-width: 0.8; stroke-linecap: square"/>
     </g>
     <g id="line2d_10">
      <g>
       <use xlink:href="#m2269be3acd" x="369.550937" y="170.97857" style="stroke: currentColor; stroke-width: 0.8"/>
      </g>
     </g>
     <g id="text_5" class="text">
      <!-- 2.0 -->
      <g transform="translate(362.394531 184.817164) scale(0.09 -0.09)">
       <defs>
        <path id="DejaVuSans-32" d="M 1228 531 
L 3431 531 
L 3431 0 
L 469 0 
L 469 531 
Q 828 903 1448 1529 
Q 2069 2156 2228 2338 
Q 2531 2678 2651 2914 
Q 2772 3150 2772 3378 
Q 2772 3750 2511 3984 
Q 2250 4219 1831 4219 
Q 1534 4219 1204 4116 
Q 875 4013 500 3803 
L 500 4441 
Q 881 4594 1212 4672 
Q 1544 4750 1819 4750 
Q 2544 4750 2975 4387 
Q 3406 4025 3406 3419 
Q 3406 3131 3298 2873 
Q 3191 2616 2906 2266 
Q 2828 2175 2409 1742 
Q 1991 1309 1228 531 
z
" transform="scale(0.015625)"/>
       </defs>
       <use xlink:href="#DejaVuSans-32"/>
       <use xlink:href="#DejaVuSans-2e" transform="translate(63.623047 0)"/>
       <use xlink:href="#DejaVuSans-30" transform="translate(95.410156 0)"/>
      </g>
     </g>
    </g>
    <g id="text_6" class="text">
     <!-- $t$ -->
     <g transform="translate(218.750938 198.28732) scale(0.1 -0.1)">
      <defs>
       <path id="DejaVuSans-Oblique-74" d="M 2706 3500 
L 2619 3053 
L 1472 3053 
L 1100 1153 
Q 1081 1047 1072 975 
Q 1063 903 1063 863 
Q 1063 663 1183 572 
Q 1303 481 1569 481 
L 2150 481 
L 2053 0 
L 1503 0 
Q 991 0 739 200 
Q 488 400 488 806 
Q 488 878 497 964 
Q 506 1050 525 1153 
L 897 3053 
L 409 3053 
L 500 3500 
L 978 3500 
L 1172 4494 
L 1747 4494 
L 1556 3500 
L 2706 3500 
z
" transform="scale(0.015625)"/>
      </defs>
      <use xlink:href="#DejaVuSans-Oblique-74" transform="translate(0 0.78125)"/>
     </g>
    </g>
   </g>
   <g class="axis">
    <g id="ytick_1">
     <g id="line2d_11">
      <path d="M 42.190938 147.741301 
L 399.310938 147.741301 
" clip-path="url(#p8177577b59)" style="fill: none; stroke: #b0b0b0; stroke-opacity: 0.1; stroke-width: 0.8; stroke-linecap: square"/>
     </g>
     <g id="line2d_12">
      <defs>
       <path id="mafd1dce12d" d="M 0 0 
L -3.5 0 
" style="stroke: currentColor; stroke-width: 0.8"/>
      </defs>
      <g>
       <use xlink:href="#mafd1dce12d" x="42.190938" y="147.741301" style="stroke: currentColor; stroke-width: 0.8"/>
      </g>
     </g>
     <g id="text_7" class="text">
      <!-- 0.4 -->
      <g transform="translate(20.878125 151.160598) scale(0.09 -0.09)">
       <defs>
        <path id="DejaVuSans-34" d="M 2419 4116 
L 825 1625 
L 2419 1625 
L 2419 4116 
z
M 2253 4666 
L 3047 4666 
L 3047 1625 
L 3713 1625 
L 3713 1100 
L 3047 1100 
L 3047 0 
L 2419 0 
L 2419 1100 
L 313 1100 
L 313 1709 
L 2253 4666 
z
" transform="scale(0.015625)"/>
       </defs>
       <use xlink:href="#DejaVuSans-30"/>
       <use xlink:href="#DejaVuSans-2e" transform="translate(63.623047 0)"/>
       <use xlink:href="#DejaVuSans-34" transform="translate(95.410156 0)"/>
      </g>
     </g>
    </g>
    <g id="ytick_2">
     <g id="line2d_13">
      <path d="M 42.190938 117.981301 
L 399.310938 117.981301 
" clip-path="url(#p8177577b59)" style="fill: none; stroke: #b0b0b0; stroke-opacity: 0.1; stroke-width: 0.8; stroke-linecap: square"/>
     </g>
     <g id="line2d_14">
      <g>
       <use xlink:href="#mafd1dce12d" x="42.190938" y="117.981301" style="stroke: currentColor; stroke-width: 0.8"/>
      </g>
     </g>
     <g id="text_8" class="text">
      <!-- 0.6 -->
      <g transform="translate(20.878125 121.400598) scale(0.09 -0.09)">
       <defs>
        <path id="DejaVuSans-36" d="M 2113 2584 
Q 1688 2584 1439 2293 
Q 1191 2003 1191 1497 
Q 1191 994 1439 701 
Q 1688 409 2113 409 
Q 2538 409 2786 701 
Q 3034 994 3034 1497 
Q 3034 2003 2786 2293 
Q 2538 2584 2113 2584 
z
M 3366 4563 
L 3366 3988 
Q 3128 4100 2886 4159 
Q 2644 4219 2406 4219 
Q 1781 4219 1451 3797 
Q 1122 3375 1075 2522 
Q 1259 2794 1537 2939 
Q 1816 3084 2150 3084 
Q 2853 3084 3261 2657 
Q 3669 2231 3669 1497 
Q 3669 778 3244 343 
Q 2819 -91 2113 -91 
Q 1303 -91 875 529 
Q 447 1150 447 2328 
Q 447 3434 972 4092 
Q 1497 4750 2381 4750 
Q 2619 4750 2861 4703 
Q 3103 4656 3366 4563 
z
" transform="scale(0.015625)"/>
       </defs>
       <use xlink:href="#DejaVuSans-30"/>
       <use xlink:href="#DejaVuSans-2e" transform="translate(63.623047 0)"/>
       <use xlink:href="#DejaVuSans-36" transform="translate(95.410156 0)"/>
      </g>
     </g>
    </g>
    <g id="ytick_3">
     <g id="line2d_15">
      <path d="M 42.190938 88.221301 
L 399.310938 88.221301 
" clip-path="url(#p8177577b59)" style="fill: none; stroke: #b0b0b0; stroke-opacity: 0.1; stroke-width: 0.8; stroke-linecap: square"/>
     </g>
     <g id="line2d_16">
      <g>
       <use xlink:href="#mafd1dce12d" x="42.190938" y="88.221301" style="stroke: currentColor; stroke-width: 0.8"/>
      </g>
     </g>
     <g id="text_9" class="text">
      <!-- 0.8 -->
      <g transform="translate(20.878125 91.640598) scale(0.09 -0.09)">
       <defs>
        <path id="DejaVuSans-38" d="M 2034 2216 
Q 1584 2216 1326 1975 
Q 1069 1734 1069 1313 
Q 1069 891 1326 650 
Q 1584 409 2034 409 
Q 2484 409 2743 651 
Q 3003 894 3003 1313 
Q 3003 1734 2745 1975 
Q 2488 2216 2034 2216 
z
M 1403 2484 
Q 997 2584 770 2862 
Q 544 3141 544 3541 
Q 544 4100 942 4425 
Q 1341 4750 2034 4750 
Q 2731 4750 3128 4425 
Q 3525 4100 3525 3541 
Q 3525 3141 3298 2862 
Q 3072 2584 2669 2484 
Q 3125 2378 3379 2068 
Q 3634 1759 3634 1313 
Q 3634 634 3220 271 
Q 2806 -91 2034 -91 
Q 1263 -91 848 271 
Q 434 634 434 1313 
Q 434 1759 690 2068 
Q 947 2378 1403 2484 
z
M 1172 3481 
Q 1172 3119 1398 2916 
Q 1625 2713 2034 2713 
Q 2441 2713 2670 2916 
Q 2900 3119 2900 3481 
Q 2900 3844 2670 4047 
Q 2441 4250 2034 4250 
Q 1625 4250 1398 4047 
Q 1172 3844 1172 3481 
z
" transform="scale(0.015625)"/>
       </defs>
       <use xlink:href="#DejaVuSans-30"/>
       <use xlink:href="#DejaVuSans-2e" transform="translate(63.623047 0)"/>
       <use xlink:href="#DejaVuSans-38" transform="translate(95.410156 0)"/>
      </g>
     </g>
    </g>
    <g id="ytick_4">
     <g id="line2d_17">
      <path d="M 42.190938 58.461301 
L 399.310938 58.461301 
" clip-path="url(#p8177577b59)" style="fill: none; stroke: #b0b0b0; stroke-opacity: 0.1; stroke-width: 0.8; stroke-linecap: square"/>
     </g>
     <g id="line2d_18">
      <g>
       <use xlink:href="#mafd1dce12d" x="42.190938" y="58.461301" style="stroke: currentColor; stroke-width: 0.8"/>
      </g>
     </g>
     <g id="text_10" class="text">
      <!-- 1.0 -->
      <g transform="translate(20.878125 61.880598) scale(0.09 -0.09)">
       <use xlink:href="#DejaVuSans-31"/>
       <use xlink:href="#DejaVuSans-2e" transform="translate(63.623047 0)"/>
       <use xlink:href="#DejaVuSans-30" transform="translate(95.410156 0)"/>
      </g>
     </g>
    </g>
    <g id="text_11" class="text">
     <!-- $x$ -->
     <g transform="translate(14.798438 104.148347) rotate(-90) scale(0.1 -0.1)">
      <defs>
       <path id="DejaVuSans-Oblique-78" d="M 3841 3500 
L 2234 1784 
L 3219 0 
L 2559 0 
L 1819 1388 
L 531 0 
L -166 0 
L 1556 1844 
L 641 3500 
L 1300 3500 
L 1972 2234 
L 3144 3500 
L 3841 3500 
z
" transform="scale(0.015625)"/>
      </defs>
      <use xlink:href="#DejaVuSans-Oblique-78" transform="translate(0 0.3125)"/>
     </g>
    </g>
   </g>
   <g id="line2d_19">
    <path d="M 42.190938 117.803158 
L 45.79821 133.232579 
L 49.405483 139.031686 
L 53.012756 144.549219 
L 56.620028 152.719889 
L 60.227301 155.026476 
L 63.834574 141.565913 
L 67.441847 130.507719 
L 71.049119 140.407656 
L 74.656392 143.836748 
L 78.263665 142.073633 
L 81.870938 169.889648 
L 85.47821 164.592161 
L 89.085483 137.786348 
L 92.692756 164.015617 
L 96.300028 170.79553 
L 99.907301 149.412903 
L 103.514574 165.617841 
L 107.121847 155.347683 
L 110.729119 135.642827 
L 114.336392 119.310632 
L 117.943665 116.864602 
L 121.550938 136.798451 
L 125.15821 120.275584 
L 128.765483 123.381381 
L 132.372756 120.221842 
L 135.980028 137.499047 
L 139.587301 115.652475 
L 143.194574 124.175602 
L 146.801847 116.68173 
L 150.409119 131.319611 
L 154.016392 117.830258 
L 157.623665 107.909053 
L 161.230938 124.263833 
L 164.83821 133.32457 
L 168.445483 134.632288 
L 172.052756 132.516812 
L 175.660028 130.932878 
L 179.267301 116.174581 
L 182.874574 118.944261 
L 186.481847 91.250582 
L 190.089119 86.071154 
L 193.696392 81.49335 
L 197.303665 80.859853 
L 200.910938 79.221343 
L 204.51821 81.821911 
L 208.125483 89.738336 
L 211.732756 99.418758 
L 215.340028 104.640303 
L 218.947301 103.632615 
L 222.554574 132.220776 
L 226.161847 139.802628 
L 229.769119 151.972262 
L 233.376392 130.212939 
L 236.983665 108.552326 
L 240.590938 91.97149 
L 244.19821 117.432411 
L 247.805483 123.985564 
L 251.412756 134.065999 
L 255.020028 141.725274 
L 258.627301 144.202625 
L 262.234574 119.773121 
L 265.841847 145.23525 
L 269.449119 139.893955 
L 273.056392 127.15042 
L 276.663665 123.233685 
L 280.270938 121.952751 
L 283.87821 113.339626 
L 287.485483 112.828507 
L 291.092756 119.525592 
L 294.700028 110.902482 
L 298.307301 108.229999 
L 301.914574 87.924103 
L 305.521847 105.831138 
L 309.129119 85.267652 
L 312.736392 93.961906 
L 316.343665 105.209446 
L 319.950938 119.430893 
L 323.55821 143.912945 
L 327.165483 149.242271 
L 330.772756 163.121436 
L 334.380028 170.97857 
L 337.987301 166.516293 
L 341.594574 150.006903 
L 345.201847 135.836215 
L 348.809119 131.987109 
L 352.416392 105.786909 
L 356.023665 103.7403 
L 359.630938 82.427984 
L 363.23821 86.682777 
L 366.845483 70.288931 
L 370.452756 77.89194 
L 374.060028 88.185346 
L 377.667301 74.794469 
L 381.274574 60.440595 
L 384.881847 54.326227 
L 388.489119 31.318125 
L 392.096392 37.017387 
L 395.703665 33.049081 
L 399.310938 31.371043 
" clip-path="url(#p8177577b59)" style="fill: none; stroke: #8000ff; stroke-width: 2; stroke-linecap: square"/>
   </g>
   <g id="patch_3">
    <path d="M 42.190938 170.97857 
L 42.190938 31.318125 
" style="fill: none; stroke: currentColor; stroke-width: 0.8; stroke-linejoin: miter; stroke-linecap: square"/>
   </g>
   <g id="patch_4">
    <path d="M 42.190938 170.97857 
L 399.310938 170.97857 
" style="fill: none; stroke: currentColor; stroke-width: 0.8; stroke-linejoin: miter; stroke-linecap: square"/>
   </g>
   <g id="text_12" class="text">
    <!-- Sample of a SDE -->
    <g transform="translate(170.851563 16.318125) scale(0.12 -0.12)">
     <defs>
      <path id="DejaVuSans-53" d="M 3425 4513 
L 3425 3897 
Q 3066 4069 2747 4153 
Q 2428 4238 2131 4238 
Q 1616 4238 1336 4038 
Q 1056 3838 1056 3469 
Q 1056 3159 1242 3001 
Q 1428 2844 1947 2747 
L 2328 2669 
Q 3034 2534 3370 2195 
Q 3706 1856 3706 1288 
Q 3706 609 3251 259 
Q 2797 -91 1919 -91 
Q 1588 -91 1214 -16 
Q 841 59 441 206 
L 441 856 
Q 825 641 1194 531 
Q 1563 422 1919 422 
Q 2459 422 2753 634 
Q 3047 847 3047 1241 
Q 3047 1584 2836 1778 
Q 2625 1972 2144 2069 
L 1759 2144 
Q 1053 2284 737 2584 
Q 422 2884 422 3419 
Q 422 4038 858 4394 
Q 1294 4750 2059 4750 
Q 2388 4750 2728 4690 
Q 3069 4631 3425 4513 
z
" transform="scale(0.015625)"/>
      <path id="DejaVuSans-61" d="M 2194 1759 
Q 1497 1759 1228 1600 
Q 959 1441 959 1056 
Q 959 750 1161 570 
Q 1363 391 1709 391 
Q 2188 391 2477 730 
Q 2766 1069 2766 1631 
L 2766 1759 
L 2194 1759 
z
M 3341 1997 
L 3341 0 
L 2766 0 
L 2766 531 
Q 2569 213 2275 61 
Q 1981 -91 1556 -91 
Q 1019 -91 701 211 
Q 384 513 384 1019 
Q 384 1609 779 1909 
Q 1175 2209 1959 2209 
L 2766 2209 
L 2766 2266 
Q 2766 2663 2505 2880 
Q 2244 3097 1772 3097 
Q 1472 3097 1187 3025 
Q 903 2953 641 2809 
L 641 3341 
Q 956 3463 1253 3523 
Q 1550 3584 1831 3584 
Q 2591 3584 2966 3190 
Q 3341 2797 3341 1997 
z
" transform="scale(0.015625)"/>
      <path id="DejaVuSans-6d" d="M 3328 2828 
Q 3544 3216 3844 3400 
Q 4144 3584 4550 3584 
Q 5097 3584 5394 3201 
Q 5691 2819 5691 2113 
L 5691 0 
L 5113 0 
L 5113 2094 
Q 5113 2597 4934 2840 
Q 4756 3084 4391 3084 
Q 3944 3084 3684 2787 
Q 3425 2491 3425 1978 
L 3425 0 
L 2847 0 
L 2847 2094 
Q 2847 2600 2669 2842 
Q 2491 3084 2119 3084 
Q 1678 3084 1418 2786 
Q 1159 2488 1159 1978 
L 1159 0 
L 581 0 
L 581 3500 
L 1159 3500 
L 1159 2956 
Q 1356 3278 1631 3431 
Q 1906 3584 2284 3584 
Q 2666 3584 2933 3390 
Q 3200 3197 3328 2828 
z
" transform="scale(0.015625)"/>
      <path id="DejaVuSans-70" d="M 1159 525 
L 1159 -1331 
L 581 -1331 
L 581 3500 
L 1159 3500 
L 1159 2969 
Q 1341 3281 1617 3432 
Q 1894 3584 2278 3584 
Q 2916 3584 3314 3078 
Q 3713 2572 3713 1747 
Q 3713 922 3314 415 
Q 2916 -91 2278 -91 
Q 1894 -91 1617 61 
Q 1341 213 1159 525 
z
M 3116 1747 
Q 3116 2381 2855 2742 
Q 2594 3103 2138 3103 
Q 1681 3103 1420 2742 
Q 1159 2381 1159 1747 
Q 1159 1113 1420 752 
Q 1681 391 2138 391 
Q 2594 391 2855 752 
Q 3116 1113 3116 1747 
z
" transform="scale(0.015625)"/>
      <path id="DejaVuSans-6c" d="M 603 4863 
L 1178 4863 
L 1178 0 
L 603 0 
L 603 4863 
z
" transform="scale(0.015625)"/>
      <path id="DejaVuSans-65" d="M 3597 1894 
L 3597 1613 
L 953 1613 
Q 991 1019 1311 708 
Q 1631 397 2203 397 
Q 2534 397 2845 478 
Q 3156 559 3463 722 
L 3463 178 
Q 3153 47 2828 -22 
Q 2503 -91 2169 -91 
Q 1331 -91 842 396 
Q 353 884 353 1716 
Q 353 2575 817 3079 
Q 1281 3584 2069 3584 
Q 2775 3584 3186 3129 
Q 3597 2675 3597 1894 
z
M 3022 2063 
Q 3016 2534 2758 2815 
Q 2500 3097 2075 3097 
Q 1594 3097 1305 2825 
Q 1016 2553 972 2059 
L 3022 2063 
z
" transform="scale(0.015625)"/>
      <path id="DejaVuSans-20" transform="scale(0.015625)"/>
      <path id="DejaVuSans-6f" d="M 1959 3097 
Q 1497 3097 1228 2736 
Q 959 2375 959 1747 
Q 959 1119 1226 758 
Q 1494 397 1959 397 
Q 2419 397 2687 759 
Q 2956 1122 2956 1747 
Q 2956 2369 2687 2733 
Q 2419 3097 1959 3097 
z
M 1959 3584 
Q 2709 3584 3137 3096 
Q 3566 2609 3566 1747 
Q 3566 888 3137 398 
Q 2709 -91 1959 -91 
Q 1206 -91 779 398 
Q 353 888 353 1747 
Q 353 2609 779 3096 
Q 1206 3584 1959 3584 
z
" transform="scale(0.015625)"/>
      <path id="DejaVuSans-66" d="M 2375 4863 
L 2375 4384 
L 1825 4384 
Q 1516 4384 1395 4259 
Q 1275 4134 1275 3809 
L 1275 3500 
L 2222 3500 
L 2222 3053 
L 1275 3053 
L 1275 0 
L 697 0 
L 697 3053 
L 147 3053 
L 147 3500 
L 697 3500 
L 697 3744 
Q 697 4328 969 4595 
Q 1241 4863 1831 4863 
L 2375 4863 
z
" transform="scale(0.015625)"/>
      <path id="DejaVuSans-44" d="M 1259 4147 
L 1259 519 
L 2022 519 
Q 2988 519 3436 956 
Q 3884 1394 3884 2338 
Q 3884 3275 3436 3711 
Q 2988 4147 2022 4147 
L 1259 4147 
z
M 628 4666 
L 1925 4666 
Q 3281 4666 3915 4102 
Q 4550 3538 4550 2338 
Q 4550 1131 3912 565 
Q 3275 0 1925 0 
L 628 0 
L 628 4666 
z
" transform="scale(0.015625)"/>
      <path id="DejaVuSans-45" d="M 628 4666 
L 3578 4666 
L 3578 4134 
L 1259 4134 
L 1259 2753 
L 3481 2753 
L 3481 2222 
L 1259 2222 
L 1259 531 
L 3634 531 
L 3634 0 
L 628 0 
L 628 4666 
z
" transform="scale(0.015625)"/>
     </defs>
     <use xlink:href="#DejaVuSans-53"/>
     <use xlink:href="#DejaVuSans-61" transform="translate(63.476562 0)"/>
     <use xlink:href="#DejaVuSans-6d" transform="translate(124.755859 0)"/>
     <use xlink:href="#DejaVuSans-70" transform="translate(222.167969 0)"/>
     <use xlink:href="#DejaVuSans-6c" transform="translate(285.644531 0)"/>
     <use xlink:href="#DejaVuSans-65" transform="translate(313.427734 0)"/>
     <use xlink:href="#DejaVuSans-20" transform="translate(374.951172 0)"/>
     <use xlink:href="#DejaVuSans-6f" transform="translate(406.738281 0)"/>
     <use xlink:href="#DejaVuSans-66" transform="translate(467.919922 0)"/>
     <use xlink:href="#DejaVuSans-20" transform="translate(503.125 0)"/>
     <use xlink:href="#DejaVuSans-61" transform="translate(534.912109 0)"/>
     <use xlink:href="#DejaVuSans-20" transform="translate(596.191406 0)"/>
     <use xlink:href="#DejaVuSans-53" transform="translate(627.978516 0)"/>
     <use xlink:href="#DejaVuSans-44" transform="translate(691.455078 0)"/>
     <use xlink:href="#DejaVuSans-45" transform="translate(768.457031 0)"/>
    </g>
   </g>
  </g>
 </g>
 <defs>
  <clipPath id="p8177577b59">
   <rect x="42.190938" y="31.318125" width="357.12" height="139.660445"/>
  </clipPath>
 </defs>
</svg>
