<?xml version="1.0" encoding="utf-8" standalone="no"?>
<!DOCTYPE svg PUBLIC "-//W3C//DTD SVG 1.1//EN"
  "http://www.w3.org/Graphics/SVG/1.1/DTD/svg11.dtd">
<svg xmlns:xlink="http://www.w3.org/1999/xlink" width="371.52pt" height="242.586696pt" viewBox="0 0 371.52 242.586696" xmlns="http://www.w3.org/2000/svg" version="1.1">
        <style>
            /* Light mode (default) */
            .c1 { fill: #d62728 !important; stroke: #d62728 !important; }
.c2 { fill: #2ca02c !important; stroke: #2ca02c !important; }
.c3 { fill: #1f77b4 !important; stroke: #1f77b4 !important; }
.c4 { fill: #9467bd !important; stroke: #9467bd !important; }
.c5 { fill: #8c564b !important; stroke: #8c564b !important; }
.c6 { fill: #e377c2 !important; stroke: #e377c2 !important; }
.c7 { fill: #7f7f7f !important; stroke: #7f7f7f !important; }
.c8 { fill: #bcbd22 !important; stroke: #bcbd22 !important; }

            /* Text and graphic elements */
            text, .text {
                fill: #000000 !important;
                stroke: none !important;
            }

            .axis line, .axis path, .tick line, .tick path, path.domain, line.grid {
                stroke: #000000 !important;
            }

            .legend text {
                fill: #000000 !important;
            }

            g.legend > g:first-child > path:first-child {
                fill: rgba(255, 255, 255, 0.8) !important;
                stroke: rgba(0, 0, 0, 0.1) !important;
            }

            [stroke="currentColor"], [stroke="black"] {
                stroke: #000000 !important;
            }

            /* Dark mode via media query */
            @media (prefers-color-scheme: dark) {
                /* Dark theme colors */
                .c1 { fill: #FF4A98 !important; stroke: #FF4A98 !important; }
                .c2 { fill: #0AFAFA !important; stroke: #0AFAFA !important; }
                .c3 { fill: #7F83FF !important; stroke: #7F83FF !important; }
                .c4 { fill: #B4A0FF !important; stroke: #B4A0FF !important; }
                .c5 { fill: #FFB86B !important; stroke: #FFB86B !important; }
                .c6 { fill: #FF79C6 !important; stroke: #FF79C6 !important; }
                .c7 { fill: #CCCCCC !important; stroke: #CCCCCC !important; }
                .c8 { fill: #E6DB74 !important; stroke: #E6DB74 !important; }

                /* Dark theme text and graphics */
                text, .text {
                    fill: #FFFFFF !important;
                    stroke: none !important;
                }

                .axis line, .axis path, .tick line, .tick path, path.domain, line.grid {
                    stroke: #FFFFFF !important;
                }

                .grid line {
                    stroke: rgba(255, 255, 255, 0.2) !important;
                }

                .legend text {
                    fill: #FFFFFF !important;
                }

                g.legend > g:first-child > path:first-child {
                    fill: rgba(26, 26, 26, 0.8) !important;
                    stroke: rgba(255, 255, 255, 0.1) !important;
                }

                [stroke="currentColor"], [stroke="black"] {
                    stroke: #FFFFFF !important;
                }
            }
        </style>
        
 <metadata>
  <rdf:RDF xmlns:dc="http://purl.org/dc/elements/1.1/" xmlns:cc="http://creativecommons.org/ns#" xmlns:rdf="http://www.w3.org/1999/02/22-rdf-syntax-ns#">
   <cc:Work>
    <dc:type rdf:resource="http://purl.org/dc/dcmitype/StillImage"/>
    <dc:date>2025-04-02T14:32:41.083879</dc:date>
    <dc:format>image/svg+xml</dc:format>
    <dc:creator>
     <cc:Agent>
      <dc:title>Matplotlib v3.10.1, https://matplotlib.org/</dc:title>
     </cc:Agent>
    </dc:creator>
   </cc:Work>
  </rdf:RDF>
 </metadata>
 <defs>
  <style type="text/css">*{stroke-linejoin: round; stroke-linecap: butt}</style>
 </defs>
 <g id="figure_1">
  <g class="patch">
   <path d="M 0 242.586696 
L 371.52 242.586696 
L 371.52 0 
L 0 0 
L 0 242.586696 
z
" style="fill: none"/>
  </g>
  <g id="axes_1">
   <g class="patch">
    <path d="M 7.2 235.386696 
L 364.32 235.386696 
L 364.32 31.318125 
L 7.2 31.318125 
L 7.2 235.386696 
z
" style="fill: none"/>
   </g>
   <g class="patch">
    <path d="M 83.725714 82.335268 
L 127.90656 107.843839 
L 127.90656 158.860982 
L 83.725714 184.369554 
L 39.544869 158.860982 
L 83.725714 82.335268 
z
" clip-path="url(#p3cbee7598c)" style="fill: none; opacity: 0.8; stroke: #ff0001; stroke-width: 2; stroke-linejoin: miter"/>
   </g>
   <g class="patch">
    <path d="M 262.285714 184.369554 
L 338.811429 184.369554 
L 338.811429 82.335268 
L 262.285714 82.335268 
L 262.285714 184.369554 
z
" clip-path="url(#p3cbee7598c)" style="fill: none; opacity: 0.8; stroke: #0000ff; stroke-width: 2; stroke-linejoin: miter"/>
   </g>
   <g class="axis"/>
   <g class="axis"/>
   <g id="line2d_1">
    <path d="M 58.217143 158.860982 
L 109.234286 107.843839 
" clip-path="url(#p3cbee7598c)" style="fill: none; stroke-dasharray: 5.55,2.4; stroke-dashoffset: 0; stroke: #ff0001; stroke-opacity: 0.8; stroke-width: 1.5"/>
   </g>
   <g id="line2d_2">
    <path d="M 226.573714 133.352411 
L 229.382229 130.580136 
L 231.887943 127.465601 
L 233.96121 124.062389 
L 235.488822 120.449564 
L 236.380659 116.726983 
L 236.574926 113.009183 
L 236.041658 109.418237 
L 234.78428 106.076034 
L 232.839133 103.096489 
L 230.272994 100.578188 
L 227.178764 98.597941 
L 223.669601 97.205679 
L 219.871875 96.421014 
L 215.917402 96.231703 
L 211.935457 96.594124 
L 208.045062 97.43574 
L 204.348055 98.659404 
L 200.923378 100.149244 
L 197.82293 101.777754 
L 195.069256 103.413645 
L 192.655208 104.929975 
L 190.545583 106.212023 
L 188.680624 107.164428 
L 186.981159 107.717124 
L 185.355007 107.829717 
L 183.704256 107.493998 
L 181.932917 106.734462 
L 179.954445 105.606774 
L 177.698646 104.1943 
L 175.117493 102.602907 
L 172.189486 100.954377 
L 168.922239 99.378838 
L 165.353143 98.006697 
L 161.548026 96.96059 
L 157.597901 96.347845 
L 153.614 96.253949 
L 149.721396 96.737411 
L 146.051628 97.826348 
L 142.734785 99.517008 
L 139.891569 101.774305 
L 137.625825 104.534327 
L 136.018037 107.708646 
L 135.120193 111.190139 
L 134.952364 114.859944 
L 135.501212 118.595099 
L 136.720535 122.276359 
L 138.533823 125.795688 
L 140.838661 129.062943 
L 143.51272 132.011317 
L 146.420948 134.601186 
L 149.423526 136.822123 
L 152.38408 138.692936 
L 155.17764 140.259741 
L 157.697844 141.592203 
L 159.862944 142.778168 
L 161.620229 143.917067 
L 162.948611 145.112499 
L 163.859195 146.464492 
L 164.39383 148.061943 
L 164.621722 149.975736 
L 164.634352 152.252987 
L 164.539012 154.912804 
L 164.451402 157.943844 
L 164.487737 161.303838 
L 164.756904 164.921126 
L 165.353143 168.698124 
L 166.349746 172.516506 
L 167.794155 176.243787 
L 169.70479 179.740894 
L 172.069782 182.870257 
L 174.847713 185.503901 
L 177.970289 187.531042 
L 181.346774 188.86469 
L 184.869895 189.446871 
L 188.42283 189.252096 
L 191.886813 188.288906 
L 195.148872 186.599348 
L 198.109187 184.256454 
L 200.68759 181.359859 
L 202.828775 178.029841 
L 204.505881 174.400165 
L 205.722219 170.610176 
L 206.510998 166.796642 
L 206.933097 163.085864 
L 207.07299 159.586543 
L 207.033104 156.383846 
L 206.926947 153.535054 
L 206.871474 151.067041 
L 206.979146 148.975737 
L 207.35023 147.227609 
L 208.065798 145.763023 
L 209.181914 144.50129 
L 210.725361 143.347034 
L 212.691203 142.197471 
L 215.042342 140.950129 
L 217.711105 139.510481 
L 220.602777 137.799017 
L 223.600857 135.757268 
L 226.573714 133.352411 
" clip-path="url(#p3cbee7598c)" style="fill: none; stroke: #00ff02; stroke-opacity: 0.8; stroke-width: 2; stroke-linecap: square"/>
   </g>
   <g id="line2d_3">
    <path d="M 160.251429 158.860982 
L 211.268571 107.843839 
" clip-path="url(#p3cbee7598c)" style="fill: none; stroke-dasharray: 5.55,2.4; stroke-dashoffset: 0; stroke: #00ff02; stroke-opacity: 0.8; stroke-width: 1.5"/>
   </g>
   <g id="line2d_4">
    <path d="M 272.489143 158.860982 
L 328.608 107.843839 
" clip-path="url(#p3cbee7598c)" style="fill: none; stroke-dasharray: 5.55,2.4; stroke-dashoffset: 0; stroke: #0000ff; stroke-opacity: 0.8; stroke-width: 1.5"/>
   </g>
   <g id="text_1" class="text">
    <!-- Convex -->
    <g transform="translate(65.098371 212.6375) scale(0.1 -0.1)">
     <defs>
      <path id="DejaVuSans-43" d="M 4122 4306 
L 4122 3641 
Q 3803 3938 3442 4084 
Q 3081 4231 2675 4231 
Q 1875 4231 1450 3742 
Q 1025 3253 1025 2328 
Q 1025 1406 1450 917 
Q 1875 428 2675 428 
Q 3081 428 3442 575 
Q 3803 722 4122 1019 
L 4122 359 
Q 3791 134 3420 21 
Q 3050 -91 2638 -91 
Q 1578 -91 968 557 
Q 359 1206 359 2328 
Q 359 3453 968 4101 
Q 1578 4750 2638 4750 
Q 3056 4750 3426 4639 
Q 3797 4528 4122 4306 
z
" transform="scale(0.015625)"/>
      <path id="DejaVuSans-6f" d="M 1959 3097 
Q 1497 3097 1228 2736 
Q 959 2375 959 1747 
Q 959 1119 1226 758 
Q 1494 397 1959 397 
Q 2419 397 2687 759 
Q 2956 1122 2956 1747 
Q 2956 2369 2687 2733 
Q 2419 3097 1959 3097 
z
M 1959 3584 
Q 2709 3584 3137 3096 
Q 3566 2609 3566 1747 
Q 3566 888 3137 398 
Q 2709 -91 1959 -91 
Q 1206 -91 779 398 
Q 353 888 353 1747 
Q 353 2609 779 3096 
Q 1206 3584 1959 3584 
z
" transform="scale(0.015625)"/>
      <path id="DejaVuSans-6e" d="M 3513 2113 
L 3513 0 
L 2938 0 
L 2938 2094 
Q 2938 2591 2744 2837 
Q 2550 3084 2163 3084 
Q 1697 3084 1428 2787 
Q 1159 2491 1159 1978 
L 1159 0 
L 581 0 
L 581 3500 
L 1159 3500 
L 1159 2956 
Q 1366 3272 1645 3428 
Q 1925 3584 2291 3584 
Q 2894 3584 3203 3211 
Q 3513 2838 3513 2113 
z
" transform="scale(0.015625)"/>
      <path id="DejaVuSans-76" d="M 191 3500 
L 800 3500 
L 1894 563 
L 2988 3500 
L 3597 3500 
L 2284 0 
L 1503 0 
L 191 3500 
z
" transform="scale(0.015625)"/>
      <path id="DejaVuSans-65" d="M 3597 1894 
L 3597 1613 
L 953 1613 
Q 991 1019 1311 708 
Q 1631 397 2203 397 
Q 2534 397 2845 478 
Q 3156 559 3463 722 
L 3463 178 
Q 3153 47 2828 -22 
Q 2503 -91 2169 -91 
Q 1331 -91 842 396 
Q 353 884 353 1716 
Q 353 2575 817 3079 
Q 1281 3584 2069 3584 
Q 2775 3584 3186 3129 
Q 3597 2675 3597 1894 
z
M 3022 2063 
Q 3016 2534 2758 2815 
Q 2500 3097 2075 3097 
Q 1594 3097 1305 2825 
Q 1016 2553 972 2059 
L 3022 2063 
z
" transform="scale(0.015625)"/>
      <path id="DejaVuSans-78" d="M 3513 3500 
L 2247 1797 
L 3578 0 
L 2900 0 
L 1881 1375 
L 863 0 
L 184 0 
L 1544 1831 
L 300 3500 
L 978 3500 
L 1906 2253 
L 2834 3500 
L 3513 3500 
z
" transform="scale(0.015625)"/>
     </defs>
     <use xlink:href="#DejaVuSans-43"/>
     <use xlink:href="#DejaVuSans-6f" transform="translate(69.824219 0)"/>
     <use xlink:href="#DejaVuSans-6e" transform="translate(131.005859 0)"/>
     <use xlink:href="#DejaVuSans-76" transform="translate(194.384766 0)"/>
     <use xlink:href="#DejaVuSans-65" transform="translate(253.564453 0)"/>
     <use xlink:href="#DejaVuSans-78" transform="translate(313.337891 0)"/>
    </g>
   </g>
   <g id="text_2" class="text">
    <!-- Non-convex -->
    <g transform="translate(156.102188 212.6375) scale(0.1 -0.1)">
     <defs>
      <path id="DejaVuSans-4e" d="M 628 4666 
L 1478 4666 
L 3547 763 
L 3547 4666 
L 4159 4666 
L 4159 0 
L 3309 0 
L 1241 3903 
L 1241 0 
L 628 0 
L 628 4666 
z
" transform="scale(0.015625)"/>
      <path id="DejaVuSans-2d" d="M 313 2009 
L 1997 2009 
L 1997 1497 
L 313 1497 
L 313 2009 
z
" transform="scale(0.015625)"/>
      <path id="DejaVuSans-63" d="M 3122 3366 
L 3122 2828 
Q 2878 2963 2633 3030 
Q 2388 3097 2138 3097 
Q 1578 3097 1268 2742 
Q 959 2388 959 1747 
Q 959 1106 1268 751 
Q 1578 397 2138 397 
Q 2388 397 2633 464 
Q 2878 531 3122 666 
L 3122 134 
Q 2881 22 2623 -34 
Q 2366 -91 2075 -91 
Q 1284 -91 818 406 
Q 353 903 353 1747 
Q 353 2603 823 3093 
Q 1294 3584 2113 3584 
Q 2378 3584 2631 3529 
Q 2884 3475 3122 3366 
z
" transform="scale(0.015625)"/>
     </defs>
     <use xlink:href="#DejaVuSans-4e"/>
     <use xlink:href="#DejaVuSans-6f" transform="translate(74.804688 0)"/>
     <use xlink:href="#DejaVuSans-6e" transform="translate(135.986328 0)"/>
     <use xlink:href="#DejaVuSans-2d" transform="translate(199.365234 0)"/>
     <use xlink:href="#DejaVuSans-63" transform="translate(235.449219 0)"/>
     <use xlink:href="#DejaVuSans-6f" transform="translate(290.429688 0)"/>
     <use xlink:href="#DejaVuSans-6e" transform="translate(351.611328 0)"/>
     <use xlink:href="#DejaVuSans-76" transform="translate(414.990234 0)"/>
     <use xlink:href="#DejaVuSans-65" transform="translate(474.169922 0)"/>
     <use xlink:href="#DejaVuSans-78" transform="translate(533.943359 0)"/>
    </g>
   </g>
   <g id="text_3" class="text">
    <!-- Convex -->
    <g transform="translate(281.921228 212.6375) scale(0.1 -0.1)">
     <use xlink:href="#DejaVuSans-43"/>
     <use xlink:href="#DejaVuSans-6f" transform="translate(69.824219 0)"/>
     <use xlink:href="#DejaVuSans-6e" transform="translate(131.005859 0)"/>
     <use xlink:href="#DejaVuSans-76" transform="translate(194.384766 0)"/>
     <use xlink:href="#DejaVuSans-65" transform="translate(253.564453 0)"/>
     <use xlink:href="#DejaVuSans-78" transform="translate(313.337891 0)"/>
    </g>
   </g>
   <g id="text_4" class="text">
    <!-- Examples of Convex and Non-convex Sets -->
    <g transform="translate(59.075625 16.318125) scale(0.12 -0.12)">
     <defs>
      <path id="DejaVuSans-45" d="M 628 4666 
L 3578 4666 
L 3578 4134 
L 1259 4134 
L 1259 2753 
L 3481 2753 
L 3481 2222 
L 1259 2222 
L 1259 531 
L 3634 531 
L 3634 0 
L 628 0 
L 628 4666 
z
" transform="scale(0.015625)"/>
      <path id="DejaVuSans-61" d="M 2194 1759 
Q 1497 1759 1228 1600 
Q 959 1441 959 1056 
Q 959 750 1161 570 
Q 1363 391 1709 391 
Q 2188 391 2477 730 
Q 2766 1069 2766 1631 
L 2766 1759 
L 2194 1759 
z
M 3341 1997 
L 3341 0 
L 2766 0 
L 2766 531 
Q 2569 213 2275 61 
Q 1981 -91 1556 -91 
Q 1019 -91 701 211 
Q 384 513 384 1019 
Q 384 1609 779 1909 
Q 1175 2209 1959 2209 
L 2766 2209 
L 2766 2266 
Q 2766 2663 2505 2880 
Q 2244 3097 1772 3097 
Q 1472 3097 1187 3025 
Q 903 2953 641 2809 
L 641 3341 
Q 956 3463 1253 3523 
Q 1550 3584 1831 3584 
Q 2591 3584 2966 3190 
Q 3341 2797 3341 1997 
z
" transform="scale(0.015625)"/>
      <path id="DejaVuSans-6d" d="M 3328 2828 
Q 3544 3216 3844 3400 
Q 4144 3584 4550 3584 
Q 5097 3584 5394 3201 
Q 5691 2819 5691 2113 
L 5691 0 
L 5113 0 
L 5113 2094 
Q 5113 2597 4934 2840 
Q 4756 3084 4391 3084 
Q 3944 3084 3684 2787 
Q 3425 2491 3425 1978 
L 3425 0 
L 2847 0 
L 2847 2094 
Q 2847 2600 2669 2842 
Q 2491 3084 2119 3084 
Q 1678 3084 1418 2786 
Q 1159 2488 1159 1978 
L 1159 0 
L 581 0 
L 581 3500 
L 1159 3500 
L 1159 2956 
Q 1356 3278 1631 3431 
Q 1906 3584 2284 3584 
Q 2666 3584 2933 3390 
Q 3200 3197 3328 2828 
z
" transform="scale(0.015625)"/>
      <path id="DejaVuSans-70" d="M 1159 525 
L 1159 -1331 
L 581 -1331 
L 581 3500 
L 1159 3500 
L 1159 2969 
Q 1341 3281 1617 3432 
Q 1894 3584 2278 3584 
Q 2916 3584 3314 3078 
Q 3713 2572 3713 1747 
Q 3713 922 3314 415 
Q 2916 -91 2278 -91 
Q 1894 -91 1617 61 
Q 1341 213 1159 525 
z
M 3116 1747 
Q 3116 2381 2855 2742 
Q 2594 3103 2138 3103 
Q 1681 3103 1420 2742 
Q 1159 2381 1159 1747 
Q 1159 1113 1420 752 
Q 1681 391 2138 391 
Q 2594 391 2855 752 
Q 3116 1113 3116 1747 
z
" transform="scale(0.015625)"/>
      <path id="DejaVuSans-6c" d="M 603 4863 
L 1178 4863 
L 1178 0 
L 603 0 
L 603 4863 
z
" transform="scale(0.015625)"/>
      <path id="DejaVuSans-73" d="M 2834 3397 
L 2834 2853 
Q 2591 2978 2328 3040 
Q 2066 3103 1784 3103 
Q 1356 3103 1142 2972 
Q 928 2841 928 2578 
Q 928 2378 1081 2264 
Q 1234 2150 1697 2047 
L 1894 2003 
Q 2506 1872 2764 1633 
Q 3022 1394 3022 966 
Q 3022 478 2636 193 
Q 2250 -91 1575 -91 
Q 1294 -91 989 -36 
Q 684 19 347 128 
L 347 722 
Q 666 556 975 473 
Q 1284 391 1588 391 
Q 1994 391 2212 530 
Q 2431 669 2431 922 
Q 2431 1156 2273 1281 
Q 2116 1406 1581 1522 
L 1381 1569 
Q 847 1681 609 1914 
Q 372 2147 372 2553 
Q 372 3047 722 3315 
Q 1072 3584 1716 3584 
Q 2034 3584 2315 3537 
Q 2597 3491 2834 3397 
z
" transform="scale(0.015625)"/>
      <path id="DejaVuSans-20" transform="scale(0.015625)"/>
      <path id="DejaVuSans-66" d="M 2375 4863 
L 2375 4384 
L 1825 4384 
Q 1516 4384 1395 4259 
Q 1275 4134 1275 3809 
L 1275 3500 
L 2222 3500 
L 2222 3053 
L 1275 3053 
L 1275 0 
L 697 0 
L 697 3053 
L 147 3053 
L 147 3500 
L 697 3500 
L 697 3744 
Q 697 4328 969 4595 
Q 1241 4863 1831 4863 
L 2375 4863 
z
" transform="scale(0.015625)"/>
      <path id="DejaVuSans-64" d="M 2906 2969 
L 2906 4863 
L 3481 4863 
L 3481 0 
L 2906 0 
L 2906 525 
Q 2725 213 2448 61 
Q 2172 -91 1784 -91 
Q 1150 -91 751 415 
Q 353 922 353 1747 
Q 353 2572 751 3078 
Q 1150 3584 1784 3584 
Q 2172 3584 2448 3432 
Q 2725 3281 2906 2969 
z
M 947 1747 
Q 947 1113 1208 752 
Q 1469 391 1925 391 
Q 2381 391 2643 752 
Q 2906 1113 2906 1747 
Q 2906 2381 2643 2742 
Q 2381 3103 1925 3103 
Q 1469 3103 1208 2742 
Q 947 2381 947 1747 
z
" transform="scale(0.015625)"/>
      <path id="DejaVuSans-53" d="M 3425 4513 
L 3425 3897 
Q 3066 4069 2747 4153 
Q 2428 4238 2131 4238 
Q 1616 4238 1336 4038 
Q 1056 3838 1056 3469 
Q 1056 3159 1242 3001 
Q 1428 2844 1947 2747 
L 2328 2669 
Q 3034 2534 3370 2195 
Q 3706 1856 3706 1288 
Q 3706 609 3251 259 
Q 2797 -91 1919 -91 
Q 1588 -91 1214 -16 
Q 841 59 441 206 
L 441 856 
Q 825 641 1194 531 
Q 1563 422 1919 422 
Q 2459 422 2753 634 
Q 3047 847 3047 1241 
Q 3047 1584 2836 1778 
Q 2625 1972 2144 2069 
L 1759 2144 
Q 1053 2284 737 2584 
Q 422 2884 422 3419 
Q 422 4038 858 4394 
Q 1294 4750 2059 4750 
Q 2388 4750 2728 4690 
Q 3069 4631 3425 4513 
z
" transform="scale(0.015625)"/>
      <path id="DejaVuSans-74" d="M 1172 4494 
L 1172 3500 
L 2356 3500 
L 2356 3053 
L 1172 3053 
L 1172 1153 
Q 1172 725 1289 603 
Q 1406 481 1766 481 
L 2356 481 
L 2356 0 
L 1766 0 
Q 1100 0 847 248 
Q 594 497 594 1153 
L 594 3053 
L 172 3053 
L 172 3500 
L 594 3500 
L 594 4494 
L 1172 4494 
z
" transform="scale(0.015625)"/>
     </defs>
     <use xlink:href="#DejaVuSans-45"/>
     <use xlink:href="#DejaVuSans-78" transform="translate(63.183594 0)"/>
     <use xlink:href="#DejaVuSans-61" transform="translate(122.363281 0)"/>
     <use xlink:href="#DejaVuSans-6d" transform="translate(183.642578 0)"/>
     <use xlink:href="#DejaVuSans-70" transform="translate(281.054688 0)"/>
     <use xlink:href="#DejaVuSans-6c" transform="translate(344.53125 0)"/>
     <use xlink:href="#DejaVuSans-65" transform="translate(372.314453 0)"/>
     <use xlink:href="#DejaVuSans-73" transform="translate(433.837891 0)"/>
     <use xlink:href="#DejaVuSans-20" transform="translate(485.9375 0)"/>
     <use xlink:href="#DejaVuSans-6f" transform="translate(517.724609 0)"/>
     <use xlink:href="#DejaVuSans-66" transform="translate(578.90625 0)"/>
     <use xlink:href="#DejaVuSans-20" transform="translate(614.111328 0)"/>
     <use xlink:href="#DejaVuSans-43" transform="translate(645.898438 0)"/>
     <use xlink:href="#DejaVuSans-6f" transform="translate(715.722656 0)"/>
     <use xlink:href="#DejaVuSans-6e" transform="translate(776.904297 0)"/>
     <use xlink:href="#DejaVuSans-76" transform="translate(840.283203 0)"/>
     <use xlink:href="#DejaVuSans-65" transform="translate(899.462891 0)"/>
     <use xlink:href="#DejaVuSans-78" transform="translate(959.236328 0)"/>
     <use xlink:href="#DejaVuSans-20" transform="translate(1018.416016 0)"/>
     <use xlink:href="#DejaVuSans-61" transform="translate(1050.203125 0)"/>
     <use xlink:href="#DejaVuSans-6e" transform="translate(1111.482422 0)"/>
     <use xlink:href="#DejaVuSans-64" transform="translate(1174.861328 0)"/>
     <use xlink:href="#DejaVuSans-20" transform="translate(1238.337891 0)"/>
     <use xlink:href="#DejaVuSans-4e" transform="translate(1270.125 0)"/>
     <use xlink:href="#DejaVuSans-6f" transform="translate(1344.929688 0)"/>
     <use xlink:href="#DejaVuSans-6e" transform="translate(1406.111328 0)"/>
     <use xlink:href="#DejaVuSans-2d" transform="translate(1469.490234 0)"/>
     <use xlink:href="#DejaVuSans-63" transform="translate(1505.574219 0)"/>
     <use xlink:href="#DejaVuSans-6f" transform="translate(1560.554688 0)"/>
     <use xlink:href="#DejaVuSans-6e" transform="translate(1621.736328 0)"/>
     <use xlink:href="#DejaVuSans-76" transform="translate(1685.115234 0)"/>
     <use xlink:href="#DejaVuSans-65" transform="translate(1744.294922 0)"/>
     <use xlink:href="#DejaVuSans-78" transform="translate(1804.068359 0)"/>
     <use xlink:href="#DejaVuSans-20" transform="translate(1863.248047 0)"/>
     <use xlink:href="#DejaVuSans-53" transform="translate(1895.035156 0)"/>
     <use xlink:href="#DejaVuSans-65" transform="translate(1958.511719 0)"/>
     <use xlink:href="#DejaVuSans-74" transform="translate(2020.035156 0)"/>
     <use xlink:href="#DejaVuSans-73" transform="translate(2059.244141 0)"/>
    </g>
   </g>
  </g>
 </g>
 <defs>
  <clipPath id="p3cbee7598c">
   <rect x="7.2" y="31.318125" width="357.12" height="204.068571"/>
  </clipPath>
 </defs>
</svg>
