<svg class="text-black dark:text-white"
<style>
    svg {
        color: currentColor;
        display: block;
        margin: auto;
        width: 85%;
        height: auto;
    }

    .math text {
        fill: currentColor;
    }
</style>
<defs>
<g class="glyph">
<g id="nn_glyph-0-0">
<path d="M 3.328125 -3.015625 C 3.390625 -3.265625 3.625 -4.1875 4.3125 -4.1875 C 4.359375 -4.1875 4.609375 -4.1875 4.8125 -4.0625 C 4.53125 -4 4.34375 -3.765625 4.34375 -3.515625 C 4.34375 -3.359375 4.453125 -3.171875 4.71875 -3.171875 C 4.9375 -3.171875 5.25 -3.34375 5.25 -3.75 C 5.25 -4.265625 4.671875 -4.40625 4.328125 -4.40625 C 3.75 -4.40625 3.40625 -3.875 3.28125 -3.65625 C 3.03125 -4.3125 2.5 -4.40625 2.203125 -4.40625 C 1.171875 -4.40625 0.59375 -3.125 0.59375 -2.875 C 0.59375 -2.765625 0.703125 -2.765625 0.71875 -2.765625 C 0.796875 -2.765625 0.828125 -2.796875 0.84375 -2.875 C 1.1875 -3.9375 1.84375 -4.1875 2.1875 -4.1875 C 2.375 -4.1875 2.71875 -4.09375 2.71875 -3.515625 C 2.71875 -3.203125 2.546875 -2.546875 2.1875 -1.140625 C 2.03125 -0.53125 1.671875 -0.109375 1.234375 -0.109375 C 1.171875 -0.109375 0.953125 -0.109375 0.734375 -0.234375 C 0.984375 -0.296875 1.203125 -0.5 1.203125 -0.78125 C 1.203125 -1.046875 0.984375 -1.125 0.84375 -1.125 C 0.53125 -1.125 0.296875 -0.875 0.296875 -0.546875 C 0.296875 -0.09375 0.78125 0.109375 1.21875 0.109375 C 1.890625 0.109375 2.25 -0.59375 2.265625 -0.640625 C 2.390625 -0.28125 2.75 0.109375 3.34375 0.109375 C 4.375 0.109375 4.9375 -1.171875 4.9375 -1.421875 C 4.9375 -1.53125 4.859375 -1.53125 4.828125 -1.53125 C 4.734375 -1.53125 4.71875 -1.484375 4.6875 -1.421875 C 4.359375 -0.34375 3.6875 -0.109375 3.375 -0.109375 C 2.984375 -0.109375 2.828125 -0.421875 2.828125 -0.765625 C 2.828125 -0.984375 2.875 -1.203125 2.984375 -1.640625 Z M 3.328125 -3.015625 "/>
</g>
<g id="nn_glyph-0-1">
<path d="M 1.90625 -0.53125 C 1.90625 -0.8125 1.671875 -1.0625 1.390625 -1.0625 C 1.09375 -1.0625 0.859375 -0.8125 0.859375 -0.53125 C 0.859375 -0.234375 1.09375 0 1.390625 0 C 1.671875 0 1.90625 -0.234375 1.90625 -0.53125 Z M 1.90625 -0.53125 "/>
</g>
<g id="nn_glyph-0-2">
<path d="M 3.71875 -3.765625 C 3.53125 -4.140625 3.25 -4.40625 2.796875 -4.40625 C 1.640625 -4.40625 0.40625 -2.9375 0.40625 -1.484375 C 0.40625 -0.546875 0.953125 0.109375 1.71875 0.109375 C 1.921875 0.109375 2.421875 0.0625 3.015625 -0.640625 C 3.09375 -0.21875 3.453125 0.109375 3.921875 0.109375 C 4.28125 0.109375 4.5 -0.125 4.671875 -0.4375 C 4.828125 -0.796875 4.96875 -1.40625 4.96875 -1.421875 C 4.96875 -1.53125 4.875 -1.53125 4.84375 -1.53125 C 4.75 -1.53125 4.734375 -1.484375 4.703125 -1.34375 C 4.53125 -0.703125 4.359375 -0.109375 3.953125 -0.109375 C 3.671875 -0.109375 3.65625 -0.375 3.65625 -0.5625 C 3.65625 -0.78125 3.671875 -0.875 3.78125 -1.3125 C 3.890625 -1.71875 3.90625 -1.828125 4 -2.203125 L 4.359375 -3.59375 C 4.421875 -3.875 4.421875 -3.890625 4.421875 -3.9375 C 4.421875 -4.109375 4.3125 -4.203125 4.140625 -4.203125 C 3.890625 -4.203125 3.75 -3.984375 3.71875 -3.765625 Z M 3.078125 -1.1875 C 3.015625 -1 3.015625 -0.984375 2.875 -0.8125 C 2.4375 -0.265625 2.03125 -0.109375 1.75 -0.109375 C 1.25 -0.109375 1.109375 -0.65625 1.109375 -1.046875 C 1.109375 -1.546875 1.421875 -2.765625 1.65625 -3.234375 C 1.96875 -3.8125 2.40625 -4.1875 2.8125 -4.1875 C 3.453125 -4.1875 3.59375 -3.375 3.59375 -3.3125 C 3.59375 -3.25 3.578125 -3.1875 3.5625 -3.140625 Z M 3.078125 -1.1875 "/>
</g>
<g id="nn_glyph-0-3">
<path d="M 4.84375 -3.796875 C 4.890625 -3.9375 4.890625 -3.953125 4.890625 -4.03125 C 4.890625 -4.203125 4.75 -4.296875 4.59375 -4.296875 C 4.5 -4.296875 4.34375 -4.234375 4.25 -4.09375 C 4.234375 -4.03125 4.140625 -3.734375 4.109375 -3.546875 C 4.03125 -3.296875 3.96875 -3.015625 3.90625 -2.75 L 3.453125 -0.953125 C 3.421875 -0.8125 2.984375 -0.109375 2.328125 -0.109375 C 1.828125 -0.109375 1.71875 -0.546875 1.71875 -0.921875 C 1.71875 -1.375 1.890625 -2 2.21875 -2.875 C 2.375 -3.28125 2.421875 -3.390625 2.421875 -3.59375 C 2.421875 -4.03125 2.109375 -4.40625 1.609375 -4.40625 C 0.65625 -4.40625 0.296875 -2.953125 0.296875 -2.875 C 0.296875 -2.765625 0.390625 -2.765625 0.40625 -2.765625 C 0.515625 -2.765625 0.515625 -2.796875 0.5625 -2.953125 C 0.84375 -3.890625 1.234375 -4.1875 1.578125 -4.1875 C 1.65625 -4.1875 1.828125 -4.1875 1.828125 -3.875 C 1.828125 -3.625 1.71875 -3.359375 1.65625 -3.171875 C 1.25 -2.109375 1.078125 -1.546875 1.078125 -1.078125 C 1.078125 -0.1875 1.703125 0.109375 2.296875 0.109375 C 2.6875 0.109375 3.015625 -0.0625 3.296875 -0.34375 C 3.171875 0.171875 3.046875 0.671875 2.65625 1.203125 C 2.390625 1.53125 2.015625 1.828125 1.5625 1.828125 C 1.421875 1.828125 0.96875 1.796875 0.796875 1.40625 C 0.953125 1.40625 1.09375 1.40625 1.21875 1.28125 C 1.328125 1.203125 1.421875 1.0625 1.421875 0.875 C 1.421875 0.5625 1.15625 0.53125 1.0625 0.53125 C 0.828125 0.53125 0.5 0.6875 0.5 1.171875 C 0.5 1.671875 0.9375 2.046875 1.5625 2.046875 C 2.578125 2.046875 3.609375 1.140625 3.890625 0.015625 Z M 4.84375 -3.796875 "/>
</g>
<g id="nn_glyph-1-0">
<path d="M 2.328125 -4.4375 C 2.328125 -4.625 2.328125 -4.625 2.125 -4.625 C 1.671875 -4.1875 1.046875 -4.1875 0.765625 -4.1875 L 0.765625 -3.9375 C 0.921875 -3.9375 1.390625 -3.9375 1.765625 -4.125 L 1.765625 -0.578125 C 1.765625 -0.34375 1.765625 -0.25 1.078125 -0.25 L 0.8125 -0.25 L 0.8125 0 C 0.9375 0 1.796875 -0.03125 2.046875 -0.03125 C 2.265625 -0.03125 3.140625 0 3.296875 0 L 3.296875 -0.25 L 3.03125 -0.25 C 2.328125 -0.25 2.328125 -0.34375 2.328125 -0.578125 Z M 2.328125 -4.4375 "/>
</g>
<g id="nn_glyph-1-1">
<path d="M 3.515625 -1.265625 L 3.28125 -1.265625 C 3.265625 -1.109375 3.1875 -0.703125 3.09375 -0.640625 C 3.046875 -0.59375 2.515625 -0.59375 2.40625 -0.59375 L 1.125 -0.59375 C 1.859375 -1.234375 2.109375 -1.4375 2.515625 -1.765625 C 3.03125 -2.171875 3.515625 -2.609375 3.515625 -3.265625 C 3.515625 -4.109375 2.78125 -4.625 1.890625 -4.625 C 1.03125 -4.625 0.4375 -4.015625 0.4375 -3.375 C 0.4375 -3.03125 0.734375 -2.984375 0.8125 -2.984375 C 0.96875 -2.984375 1.171875 -3.109375 1.171875 -3.359375 C 1.171875 -3.484375 1.125 -3.734375 0.765625 -3.734375 C 0.984375 -4.21875 1.453125 -4.375 1.78125 -4.375 C 2.484375 -4.375 2.84375 -3.828125 2.84375 -3.265625 C 2.84375 -2.65625 2.40625 -2.1875 2.1875 -1.9375 L 0.515625 -0.265625 C 0.4375 -0.203125 0.4375 -0.1875 0.4375 0 L 3.3125 0 Z M 3.515625 -1.265625 "/>
</g>
<g id="nn_glyph-2-0">
<path d="M 2.25 -6.03125 C 2.25 -6.390625 2.265625 -6.5 3.0625 -6.5 L 3.3125 -6.5 L 3.3125 -6.8125 C 2.96875 -6.78125 2.1875 -6.78125 1.796875 -6.78125 C 1.421875 -6.78125 0.625 -6.78125 0.28125 -6.8125 L 0.28125 -6.5 L 0.53125 -6.5 C 1.328125 -6.5 1.359375 -6.390625 1.359375 -6.03125 L 1.359375 -0.78125 C 1.359375 -0.421875 1.328125 -0.3125 0.53125 -0.3125 L 0.28125 -0.3125 L 0.28125 0 C 0.625 -0.03125 1.421875 -0.03125 1.796875 -0.03125 C 2.1875 -0.03125 2.96875 -0.03125 3.3125 0 L 3.3125 -0.3125 L 3.0625 -0.3125 C 2.265625 -0.3125 2.25 -0.421875 2.25 -0.78125 Z M 2.25 -6.03125 "/>
</g>
<g id="nn_glyph-2-1">
<path d="M 1.09375 -3.421875 L 1.09375 -0.75 C 1.09375 -0.3125 0.984375 -0.3125 0.3125 -0.3125 L 0.3125 0 C 0.671875 -0.015625 1.171875 -0.03125 1.453125 -0.03125 C 1.703125 -0.03125 2.21875 -0.015625 2.5625 0 L 2.5625 -0.3125 C 1.890625 -0.3125 1.78125 -0.3125 1.78125 -0.75 L 1.78125 -2.59375 C 1.78125 -3.625 2.5 -4.1875 3.125 -4.1875 C 3.765625 -4.1875 3.875 -3.65625 3.875 -3.078125 L 3.875 -0.75 C 3.875 -0.3125 3.765625 -0.3125 3.09375 -0.3125 L 3.09375 0 C 3.4375 -0.015625 3.953125 -0.03125 4.21875 -0.03125 C 4.46875 -0.03125 5 -0.015625 5.328125 0 L 5.328125 -0.3125 C 4.8125 -0.3125 4.5625 -0.3125 4.5625 -0.609375 L 4.5625 -2.515625 C 4.5625 -3.375 4.5625 -3.671875 4.25 -4.03125 C 4.109375 -4.203125 3.78125 -4.40625 3.203125 -4.40625 C 2.46875 -4.40625 2 -3.984375 1.71875 -3.359375 L 1.71875 -4.40625 L 0.3125 -4.296875 L 0.3125 -3.984375 C 1.015625 -3.984375 1.09375 -3.921875 1.09375 -3.421875 Z M 1.09375 -3.421875 "/>
</g>
<g id="nn_glyph-2-2">
<path d="M 1.71875 -3.75 L 1.71875 -4.40625 L 0.28125 -4.296875 L 0.28125 -3.984375 C 0.984375 -3.984375 1.0625 -3.921875 1.0625 -3.484375 L 1.0625 1.171875 C 1.0625 1.625 0.953125 1.625 0.28125 1.625 L 0.28125 1.9375 C 0.625 1.921875 1.140625 1.90625 1.390625 1.90625 C 1.671875 1.90625 2.171875 1.921875 2.515625 1.9375 L 2.515625 1.625 C 1.859375 1.625 1.75 1.625 1.75 1.171875 L 1.75 -0.59375 C 1.796875 -0.421875 2.21875 0.109375 2.96875 0.109375 C 4.15625 0.109375 5.1875 -0.875 5.1875 -2.15625 C 5.1875 -3.421875 4.234375 -4.40625 3.109375 -4.40625 C 2.328125 -4.40625 1.90625 -3.96875 1.71875 -3.75 Z M 1.75 -1.140625 L 1.75 -3.359375 C 2.03125 -3.875 2.515625 -4.15625 3.03125 -4.15625 C 3.765625 -4.15625 4.359375 -3.28125 4.359375 -2.15625 C 4.359375 -0.953125 3.671875 -0.109375 2.9375 -0.109375 C 2.53125 -0.109375 2.15625 -0.3125 1.890625 -0.71875 C 1.75 -0.921875 1.75 -0.9375 1.75 -1.140625 Z M 1.75 -1.140625 "/>
</g>
<g id="nn_glyph-2-3">
<path d="M 3.890625 -0.78125 L 3.890625 0.109375 L 5.328125 0 L 5.328125 -0.3125 C 4.640625 -0.3125 4.5625 -0.375 4.5625 -0.875 L 4.5625 -4.40625 L 3.09375 -4.296875 L 3.09375 -3.984375 C 3.78125 -3.984375 3.875 -3.921875 3.875 -3.421875 L 3.875 -1.65625 C 3.875 -0.78125 3.390625 -0.109375 2.65625 -0.109375 C 1.828125 -0.109375 1.78125 -0.578125 1.78125 -1.09375 L 1.78125 -4.40625 L 0.3125 -4.296875 L 0.3125 -3.984375 C 1.09375 -3.984375 1.09375 -3.953125 1.09375 -3.078125 L 1.09375 -1.578125 C 1.09375 -0.796875 1.09375 0.109375 2.609375 0.109375 C 3.171875 0.109375 3.609375 -0.171875 3.890625 -0.78125 Z M 3.890625 -0.78125 "/>
</g>
<g id="nn_glyph-2-4">
<path d="M 1.71875 -3.984375 L 3.15625 -3.984375 L 3.15625 -4.296875 L 1.71875 -4.296875 L 1.71875 -6.125 L 1.46875 -6.125 C 1.46875 -5.3125 1.171875 -4.25 0.1875 -4.203125 L 0.1875 -3.984375 L 1.03125 -3.984375 L 1.03125 -1.234375 C 1.03125 -0.015625 1.96875 0.109375 2.328125 0.109375 C 3.03125 0.109375 3.3125 -0.59375 3.3125 -1.234375 L 3.3125 -1.796875 L 3.0625 -1.796875 L 3.0625 -1.25 C 3.0625 -0.515625 2.765625 -0.140625 2.390625 -0.140625 C 1.71875 -0.140625 1.71875 -1.046875 1.71875 -1.21875 Z M 1.71875 -3.984375 "/>
</g>
<g id="nn_glyph-2-5">
<path d="M 5.796875 -2.578125 L 5.546875 -2.578125 C 5.4375 -1.5625 5.296875 -0.3125 3.546875 -0.3125 L 2.734375 -0.3125 C 2.265625 -0.3125 2.25 -0.375 2.25 -0.703125 L 2.25 -6.015625 C 2.25 -6.359375 2.25 -6.5 3.1875 -6.5 L 3.515625 -6.5 L 3.515625 -6.8125 C 3.15625 -6.78125 2.25 -6.78125 1.84375 -6.78125 C 1.453125 -6.78125 0.671875 -6.78125 0.328125 -6.8125 L 0.328125 -6.5 L 0.5625 -6.5 C 1.328125 -6.5 1.359375 -6.390625 1.359375 -6.03125 L 1.359375 -0.78125 C 1.359375 -0.421875 1.328125 -0.3125 0.5625 -0.3125 L 0.328125 -0.3125 L 0.328125 0 L 5.515625 0 Z M 5.796875 -2.578125 "/>
</g>
<g id="nn_glyph-2-6">
<path d="M 3.3125 -0.75 C 3.359375 -0.359375 3.625 0.0625 4.09375 0.0625 C 4.3125 0.0625 4.921875 -0.078125 4.921875 -0.890625 L 4.921875 -1.453125 L 4.671875 -1.453125 L 4.671875 -0.890625 C 4.671875 -0.3125 4.421875 -0.25 4.3125 -0.25 C 3.984375 -0.25 3.9375 -0.703125 3.9375 -0.75 L 3.9375 -2.734375 C 3.9375 -3.15625 3.9375 -3.546875 3.578125 -3.921875 C 3.1875 -4.3125 2.6875 -4.46875 2.21875 -4.46875 C 1.390625 -4.46875 0.703125 -4 0.703125 -3.34375 C 0.703125 -3.046875 0.90625 -2.875 1.171875 -2.875 C 1.453125 -2.875 1.625 -3.078125 1.625 -3.328125 C 1.625 -3.453125 1.578125 -3.78125 1.109375 -3.78125 C 1.390625 -4.140625 1.875 -4.25 2.1875 -4.25 C 2.6875 -4.25 3.25 -3.859375 3.25 -2.96875 L 3.25 -2.609375 C 2.734375 -2.578125 2.046875 -2.546875 1.421875 -2.25 C 0.671875 -1.90625 0.421875 -1.390625 0.421875 -0.953125 C 0.421875 -0.140625 1.390625 0.109375 2.015625 0.109375 C 2.671875 0.109375 3.125 -0.296875 3.3125 -0.75 Z M 3.25 -2.390625 L 3.25 -1.390625 C 3.25 -0.453125 2.53125 -0.109375 2.078125 -0.109375 C 1.59375 -0.109375 1.1875 -0.453125 1.1875 -0.953125 C 1.1875 -1.5 1.609375 -2.328125 3.25 -2.390625 Z M 3.25 -2.390625 "/>
</g>
<g id="nn_glyph-2-7">
<path d="M 4.140625 -3.34375 C 4.390625 -3.984375 4.90625 -3.984375 5.0625 -3.984375 L 5.0625 -4.296875 C 4.828125 -4.28125 4.546875 -4.265625 4.3125 -4.265625 C 4.140625 -4.265625 3.671875 -4.28125 3.453125 -4.296875 L 3.453125 -3.984375 C 3.765625 -3.984375 3.921875 -3.8125 3.921875 -3.5625 C 3.921875 -3.453125 3.90625 -3.4375 3.859375 -3.3125 L 2.84375 -0.875 L 1.75 -3.546875 C 1.703125 -3.65625 1.6875 -3.6875 1.6875 -3.734375 C 1.6875 -3.984375 2.046875 -3.984375 2.25 -3.984375 L 2.25 -4.296875 C 1.984375 -4.28125 1.328125 -4.265625 1.15625 -4.265625 C 0.890625 -4.265625 0.484375 -4.28125 0.1875 -4.296875 L 0.1875 -3.984375 C 0.671875 -3.984375 0.859375 -3.984375 1 -3.640625 L 2.5 0 C 2.4375 0.125 2.296875 0.453125 2.25 0.59375 C 2.03125 1.140625 1.75 1.828125 1.109375 1.828125 C 1.0625 1.828125 0.828125 1.828125 0.640625 1.640625 C 0.953125 1.609375 1.03125 1.390625 1.03125 1.21875 C 1.03125 0.96875 0.84375 0.8125 0.609375 0.8125 C 0.40625 0.8125 0.1875 0.9375 0.1875 1.234375 C 0.1875 1.6875 0.609375 2.046875 1.109375 2.046875 C 1.734375 2.046875 2.140625 1.46875 2.375 0.90625 Z M 4.140625 -3.34375 "/>
</g>
<g id="nn_glyph-2-8">
<path d="M 1.109375 -2.515625 C 1.171875 -4 2.015625 -4.25 2.359375 -4.25 C 3.375 -4.25 3.484375 -2.90625 3.484375 -2.515625 Z M 1.109375 -2.296875 L 3.890625 -2.296875 C 4.109375 -2.296875 4.140625 -2.296875 4.140625 -2.515625 C 4.140625 -3.5 3.59375 -4.46875 2.359375 -4.46875 C 1.203125 -4.46875 0.28125 -3.4375 0.28125 -2.1875 C 0.28125 -0.859375 1.328125 0.109375 2.46875 0.109375 C 3.6875 0.109375 4.140625 -1 4.140625 -1.1875 C 4.140625 -1.28125 4.0625 -1.3125 4 -1.3125 C 3.921875 -1.3125 3.890625 -1.25 3.875 -1.171875 C 3.53125 -0.140625 2.625 -0.140625 2.53125 -0.140625 C 2.03125 -0.140625 1.640625 -0.4375 1.40625 -0.8125 C 1.109375 -1.28125 1.109375 -1.9375 1.109375 -2.296875 Z M 1.109375 -2.296875 "/>
</g>
<g id="nn_glyph-2-9">
<path d="M 1.671875 -3.3125 L 1.671875 -4.40625 L 0.28125 -4.296875 L 0.28125 -3.984375 C 0.984375 -3.984375 1.0625 -3.921875 1.0625 -3.421875 L 1.0625 -0.75 C 1.0625 -0.3125 0.953125 -0.3125 0.28125 -0.3125 L 0.28125 0 C 0.671875 -0.015625 1.140625 -0.03125 1.421875 -0.03125 C 1.8125 -0.03125 2.28125 -0.03125 2.6875 0 L 2.6875 -0.3125 L 2.46875 -0.3125 C 1.734375 -0.3125 1.71875 -0.421875 1.71875 -0.78125 L 1.71875 -2.3125 C 1.71875 -3.296875 2.140625 -4.1875 2.890625 -4.1875 C 2.953125 -4.1875 2.984375 -4.1875 3 -4.171875 C 2.96875 -4.171875 2.765625 -4.046875 2.765625 -3.78125 C 2.765625 -3.515625 2.984375 -3.359375 3.203125 -3.359375 C 3.375 -3.359375 3.625 -3.484375 3.625 -3.796875 C 3.625 -4.109375 3.3125 -4.40625 2.890625 -4.40625 C 2.15625 -4.40625 1.796875 -3.734375 1.671875 -3.3125 Z M 1.671875 -3.3125 "/>
</g>
<g id="nn_glyph-2-10">
<path d="M 6.109375 -6.03125 C 6.109375 -6.390625 6.125 -6.5 6.890625 -6.5 L 7.140625 -6.5 L 7.140625 -6.8125 C 6.78125 -6.78125 6.046875 -6.78125 5.671875 -6.78125 C 5.296875 -6.78125 4.546875 -6.78125 4.203125 -6.8125 L 4.203125 -6.5 L 4.4375 -6.5 C 5.203125 -6.5 5.21875 -6.390625 5.21875 -6.03125 L 5.21875 -3.703125 L 2.25 -3.703125 L 2.25 -6.03125 C 2.25 -6.390625 2.265625 -6.5 3.03125 -6.5 L 3.265625 -6.5 L 3.265625 -6.8125 C 2.921875 -6.78125 2.1875 -6.78125 1.796875 -6.78125 C 1.421875 -6.78125 0.671875 -6.78125 0.328125 -6.8125 L 0.328125 -6.5 L 0.5625 -6.5 C 1.328125 -6.5 1.359375 -6.390625 1.359375 -6.03125 L 1.359375 -0.78125 C 1.359375 -0.421875 1.328125 -0.3125 0.5625 -0.3125 L 0.328125 -0.3125 L 0.328125 0 C 0.671875 -0.03125 1.421875 -0.03125 1.796875 -0.03125 C 2.171875 -0.03125 2.921875 -0.03125 3.265625 0 L 3.265625 -0.3125 L 3.03125 -0.3125 C 2.265625 -0.3125 2.25 -0.421875 2.25 -0.78125 L 2.25 -3.390625 L 5.21875 -3.390625 L 5.21875 -0.78125 C 5.21875 -0.421875 5.203125 -0.3125 4.4375 -0.3125 L 4.203125 -0.3125 L 4.203125 0 C 4.546875 -0.03125 5.28125 -0.03125 5.65625 -0.03125 C 6.046875 -0.03125 6.78125 -0.03125 7.140625 0 L 7.140625 -0.3125 L 6.890625 -0.3125 C 6.125 -0.3125 6.109375 -0.421875 6.109375 -0.78125 Z M 6.109375 -6.03125 "/>
</g>
<g id="nn_glyph-2-11">
<path d="M 1.765625 -4.40625 L 0.375 -4.296875 L 0.375 -3.984375 C 1.015625 -3.984375 1.109375 -3.921875 1.109375 -3.4375 L 1.109375 -0.75 C 1.109375 -0.3125 1 -0.3125 0.328125 -0.3125 L 0.328125 0 C 0.640625 -0.015625 1.1875 -0.03125 1.421875 -0.03125 C 1.78125 -0.03125 2.125 -0.015625 2.46875 0 L 2.46875 -0.3125 C 1.796875 -0.3125 1.765625 -0.359375 1.765625 -0.75 Z M 1.796875 -6.140625 C 1.796875 -6.453125 1.5625 -6.671875 1.28125 -6.671875 C 0.96875 -6.671875 0.75 -6.40625 0.75 -6.140625 C 0.75 -5.875 0.96875 -5.609375 1.28125 -5.609375 C 1.5625 -5.609375 1.796875 -5.828125 1.796875 -6.140625 Z M 1.796875 -6.140625 "/>
</g>
<g id="nn_glyph-2-12">
<path d="M 3.78125 -0.546875 L 3.78125 0.109375 L 5.25 0 L 5.25 -0.3125 C 4.5625 -0.3125 4.46875 -0.375 4.46875 -0.875 L 4.46875 -6.921875 L 3.046875 -6.8125 L 3.046875 -6.5 C 3.734375 -6.5 3.8125 -6.4375 3.8125 -5.9375 L 3.8125 -3.78125 C 3.53125 -4.140625 3.09375 -4.40625 2.5625 -4.40625 C 1.390625 -4.40625 0.34375 -3.421875 0.34375 -2.140625 C 0.34375 -0.875 1.3125 0.109375 2.453125 0.109375 C 3.09375 0.109375 3.53125 -0.234375 3.78125 -0.546875 Z M 3.78125 -3.21875 L 3.78125 -1.171875 C 3.78125 -1 3.78125 -0.984375 3.671875 -0.8125 C 3.375 -0.328125 2.9375 -0.109375 2.5 -0.109375 C 2.046875 -0.109375 1.6875 -0.375 1.453125 -0.75 C 1.203125 -1.15625 1.171875 -1.71875 1.171875 -2.140625 C 1.171875 -2.5 1.1875 -3.09375 1.46875 -3.546875 C 1.6875 -3.859375 2.0625 -4.1875 2.609375 -4.1875 C 2.953125 -4.1875 3.375 -4.03125 3.671875 -3.59375 C 3.78125 -3.421875 3.78125 -3.40625 3.78125 -3.21875 Z M 3.78125 -3.21875 "/>
</g>
<g id="nn_glyph-2-13">
<path d="M 7.1875 -3.375 C 7.1875 -5.40625 5.6875 -7.03125 3.875 -7.03125 C 2.078125 -7.03125 0.5625 -5.4375 0.5625 -3.375 C 0.5625 -1.328125 2.09375 0.21875 3.875 0.21875 C 5.6875 0.21875 7.1875 -1.359375 7.1875 -3.375 Z M 3.875 -0.046875 C 2.921875 -0.046875 1.578125 -0.921875 1.578125 -3.515625 C 1.578125 -6.09375 3.046875 -6.78125 3.875 -6.78125 C 4.734375 -6.78125 6.15625 -6.078125 6.15625 -3.515625 C 6.15625 -0.875 4.796875 -0.046875 3.875 -0.046875 Z M 3.875 -0.046875 "/>
</g>
<g id="nn_glyph-3-0">
<path d="M 0.84375 -0.4375 C 0.828125 -0.34375 0.78125 -0.171875 0.78125 -0.15625 C 0.78125 0 0.90625 0.0625 1.015625 0.0625 C 1.140625 0.0625 1.25 -0.015625 1.296875 -0.078125 C 1.328125 -0.140625 1.375 -0.375 1.421875 -0.515625 C 1.453125 -0.640625 1.53125 -0.96875 1.5625 -1.140625 C 1.609375 -1.296875 1.65625 -1.453125 1.6875 -1.609375 C 1.765625 -1.890625 1.78125 -1.953125 1.984375 -2.234375 C 2.171875 -2.515625 2.5 -2.875 3.03125 -2.875 C 3.421875 -2.875 3.4375 -2.515625 3.4375 -2.390625 C 3.4375 -1.96875 3.140625 -1.203125 3.03125 -0.90625 C 2.953125 -0.703125 2.921875 -0.640625 2.921875 -0.53125 C 2.921875 -0.15625 3.21875 0.0625 3.578125 0.0625 C 4.28125 0.0625 4.578125 -0.890625 4.578125 -1 C 4.578125 -1.09375 4.5 -1.09375 4.46875 -1.09375 C 4.375 -1.09375 4.375 -1.046875 4.34375 -0.96875 C 4.1875 -0.40625 3.875 -0.125 3.609375 -0.125 C 3.453125 -0.125 3.421875 -0.21875 3.421875 -0.375 C 3.421875 -0.53125 3.46875 -0.625 3.59375 -0.9375 C 3.671875 -1.15625 3.953125 -1.890625 3.953125 -2.28125 C 3.953125 -2.953125 3.421875 -3.078125 3.046875 -3.078125 C 2.46875 -3.078125 2.078125 -2.71875 1.875 -2.4375 C 1.828125 -2.921875 1.421875 -3.078125 1.125 -3.078125 C 0.828125 -3.078125 0.671875 -2.859375 0.578125 -2.703125 C 0.421875 -2.4375 0.328125 -2.046875 0.328125 -2 C 0.328125 -1.921875 0.421875 -1.921875 0.453125 -1.921875 C 0.546875 -1.921875 0.546875 -1.9375 0.59375 -2.125 C 0.703125 -2.53125 0.84375 -2.875 1.109375 -2.875 C 1.296875 -2.875 1.34375 -2.71875 1.34375 -2.53125 C 1.34375 -2.40625 1.28125 -2.140625 1.21875 -1.953125 C 1.171875 -1.765625 1.109375 -1.484375 1.078125 -1.328125 Z M 0.84375 -0.4375 "/>
</g>
</g>
<clipPath id="nn_clip-0">
<path clip-rule="nonzero" d="M 43 215 L 101 215 L 101 270.605469 L 43 270.605469 Z M 43 215 "/>
</clipPath>
<clipPath id="nn_clip-1">
<path clip-rule="nonzero" d="M 172 215 L 229 215 L 229 270.605469 L 172 270.605469 Z M 172 215 "/>
</clipPath>
<clipPath id="nn_clip-2">
<path clip-rule="nonzero" d="M 300 215 L 358 215 L 358 270.605469 L 300 270.605469 Z M 300 215 "/>
</clipPath>
</defs>
<path fill="none" stroke-width="0.99628" stroke-linecap="butt" stroke-linejoin="miter" stroke="currentColor" stroke-opacity="1" stroke-miterlimit="10" d="M 14.171625 0.00184375 C 14.171625 7.826063 7.827875 14.173719 -0.00025 14.173719 C -7.828375 14.173719 -14.172125 7.826063 -14.172125 0.00184375 C -14.172125 -7.826281 -7.828375 -14.173937 -0.00025 -14.173937 C 7.827875 -14.173937 14.171625 -7.826281 14.171625 0.00184375 Z M 14.171625 0.00184375 " transform="matrix(1, 0, 0, -1, 71.969, 70.912)"/>
<g fill="currentColor" fill-opacity="1" class="glyph">
<use xlink:href="#nn_glyph-0-0" x="66.887" y="72.31"/>
</g>
<g fill="currentColor" fill-opacity="1" class="glyph">
<use xlink:href="#nn_glyph-1-0" x="72.581" y="73.804"/>
</g>
<g fill="currentColor" fill-opacity="1" class="glyph">
<use xlink:href="#nn_glyph-2-0" x="46.149" y="22.138"/>
<use xlink:href="#nn_glyph-2-1" x="49.746495" y="22.138"/>
<use xlink:href="#nn_glyph-2-2" x="55.281715" y="22.138"/>
<use xlink:href="#nn_glyph-2-3" x="60.816936" y="22.138"/>
<use xlink:href="#nn_glyph-2-4" x="66.352157" y="22.138"/>
</g>
<g fill="currentColor" fill-opacity="1" class="glyph">
<use xlink:href="#nn_glyph-2-5" x="73.544157" y="22.138"/>
<use xlink:href="#nn_glyph-2-6" x="79.770782" y="22.138"/>
</g>
<g fill="currentColor" fill-opacity="1" class="glyph">
<use xlink:href="#nn_glyph-2-7" x="84.47313" y="22.138"/>
</g>
<g fill="currentColor" fill-opacity="1" class="glyph">
<use xlink:href="#nn_glyph-2-8" x="89.4624" y="22.138"/>
<use xlink:href="#nn_glyph-2-9" x="93.889779" y="22.138"/>
</g>
<g fill="currentColor" fill-opacity="1" class="glyph">
<use xlink:href="#nn_glyph-2-10" x="172.078" y="22.194"/>
<use xlink:href="#nn_glyph-2-11" x="179.54995" y="22.194"/>
<use xlink:href="#nn_glyph-2-12" x="182.31756" y="22.194"/>
<use xlink:href="#nn_glyph-2-12" x="187.852781" y="22.194"/>
<use xlink:href="#nn_glyph-2-8" x="193.388001" y="22.194"/>
<use xlink:href="#nn_glyph-2-1" x="197.815381" y="22.194"/>
</g>
<g fill="currentColor" fill-opacity="1" class="glyph">
<use xlink:href="#nn_glyph-2-5" x="206.668147" y="22.194"/>
<use xlink:href="#nn_glyph-2-6" x="212.894772" y="22.194"/>
</g>
<g fill="currentColor" fill-opacity="1" class="glyph">
<use xlink:href="#nn_glyph-2-7" x="217.597119" y="22.194"/>
</g>
<g fill="currentColor" fill-opacity="1" class="glyph">
<use xlink:href="#nn_glyph-2-8" x="222.586389" y="22.194"/>
<use xlink:href="#nn_glyph-2-9" x="227.013769" y="22.194"/>
</g>
<g fill="currentColor" fill-opacity="1" class="glyph">
<use xlink:href="#nn_glyph-2-13" x="299.773" y="22.138"/>
<use xlink:href="#nn_glyph-2-3" x="307.52191" y="22.138"/>
<use xlink:href="#nn_glyph-2-4" x="313.057131" y="22.138"/>
<use xlink:href="#nn_glyph-2-2" x="316.931586" y="22.138"/>
<use xlink:href="#nn_glyph-2-3" x="322.466807" y="22.138"/>
<use xlink:href="#nn_glyph-2-4" x="328.002027" y="22.138"/>
</g>
<g fill="currentColor" fill-opacity="1" class="glyph">
<use xlink:href="#nn_glyph-2-5" x="335.194028" y="22.138"/>
<use xlink:href="#nn_glyph-2-6" x="341.420653" y="22.138"/>
</g>
<g fill="currentColor" fill-opacity="1" class="glyph">
<use xlink:href="#nn_glyph-2-7" x="346.123" y="22.138"/>
</g>
<g fill="currentColor" fill-opacity="1" class="glyph">
<use xlink:href="#nn_glyph-2-8" x="351.11227" y="22.138"/>
<use xlink:href="#nn_glyph-2-9" x="355.53965" y="22.138"/>
</g>
<path fill="none" stroke-width="0.99628" stroke-linecap="butt" stroke-linejoin="miter" stroke="currentColor" stroke-opacity="1" stroke-miterlimit="10" d="M 14.171625 -57.689562 C 14.171625 -49.861437 7.827875 -43.517687 -0.00025 -43.517687 C -7.828375 -43.517687 -14.172125 -49.861437 -14.172125 -57.689562 C -14.172125 -65.517687 -7.828375 -71.861437 -0.00025 -71.861437 C 7.827875 -71.861437 14.171625 -65.517687 14.171625 -57.689562 Z M 14.171625 -57.689562 " transform="matrix(1, 0, 0, -1, 71.969, 70.912)"/>
<g fill="currentColor" fill-opacity="1" class="glyph">
<use xlink:href="#nn_glyph-0-0" x="66.887" y="129.999"/>
</g>
<g fill="currentColor" fill-opacity="1" class="glyph">
<use xlink:href="#nn_glyph-1-1" x="72.581" y="131.493"/>
</g>
<path fill="none" stroke-width="0.99628" stroke-linecap="butt" stroke-linejoin="miter" stroke="currentColor" stroke-opacity="1" stroke-miterlimit="10" d="M 14.171625 -115.380969 C 14.171625 -107.552844 7.827875 -101.205187 -0.00025 -101.205187 C -7.828375 -101.205187 -14.172125 -107.552844 -14.172125 -115.380969 C -14.172125 -123.209094 -7.828375 -129.552844 -0.00025 -129.552844 C 7.827875 -129.552844 14.171625 -123.209094 14.171625 -115.380969 Z M 14.171625 -115.380969 " transform="matrix(1, 0, 0, -1, 71.969, 70.912)"/>
<g fill="currentColor" fill-opacity="1" class="glyph">
<use xlink:href="#nn_glyph-0-1" x="66.157" y="186.816"/>
</g>
<g fill="currentColor" fill-opacity="1" class="glyph">
<use xlink:href="#nn_glyph-0-1" x="70.588364" y="186.816"/>
</g>
<g fill="currentColor" fill-opacity="1" class="glyph">
<use xlink:href="#nn_glyph-0-1" x="75.009766" y="186.816"/>
</g>
<g clip-path="url(#nn_clip-0)">
<path fill="none" stroke-width="0.99628" stroke-linecap="butt" stroke-linejoin="miter" stroke="currentColor" stroke-opacity="1" stroke-miterlimit="10" d="M 14.171625 -173.068469 C 14.171625 -165.240344 7.827875 -158.896594 -0.00025 -158.896594 C -7.828375 -158.896594 -14.172125 -165.240344 -14.172125 -173.068469 C -14.172125 -180.896594 -7.828375 -187.24425 -0.00025 -187.24425 C 7.827875 -187.24425 14.171625 -180.896594 14.171625 -173.068469 Z M 14.171625 -173.068469 " transform="matrix(1, 0, 0, -1, 71.969, 70.912)"/>
</g>
<g fill="currentColor" fill-opacity="1" class="glyph">
<use xlink:href="#nn_glyph-0-0" x="66.41" y="245.377"/>
</g>
<g fill="currentColor" fill-opacity="1" class="glyph">
<use xlink:href="#nn_glyph-3-0" x="72.104" y="246.871"/>
</g>
<path fill="none" stroke-width="0.99628" stroke-linecap="butt" stroke-linejoin="miter" stroke="currentColor" stroke-opacity="1" stroke-miterlimit="10" d="M 142.730219 0.00184375 C 142.730219 7.826063 136.386469 14.173719 128.558344 14.173719 C 120.730219 14.173719 114.382562 7.826063 114.382562 0.00184375 C 114.382562 -7.826281 120.730219 -14.173937 128.558344 -14.173937 C 136.386469 -14.173937 142.730219 -7.826281 142.730219 0.00184375 Z M 142.730219 0.00184375 " transform="matrix(1, 0, 0, -1, 71.969, 70.912)"/>
<g fill="currentColor" fill-opacity="1" class="glyph">
<use xlink:href="#nn_glyph-0-2" x="195.656" y="72.31"/>
</g>
<g fill="currentColor" fill-opacity="1" class="glyph">
<use xlink:href="#nn_glyph-1-0" x="200.922" y="73.804"/>
</g>
<path fill="none" stroke-width="0.99628" stroke-linecap="butt" stroke-linejoin="miter" stroke="currentColor" stroke-opacity="1" stroke-miterlimit="10" d="M 142.730219 -57.689562 C 142.730219 -49.861437 136.386469 -43.517687 128.558344 -43.517687 C 120.730219 -43.517687 114.382562 -49.861437 114.382562 -57.689562 C 114.382562 -65.517687 120.730219 -71.861437 128.558344 -71.861437 C 136.386469 -71.861437 142.730219 -65.517687 142.730219 -57.689562 Z M 142.730219 -57.689562 " transform="matrix(1, 0, 0, -1, 71.969, 70.912)"/>
<g fill="currentColor" fill-opacity="1" class="glyph">
<use xlink:href="#nn_glyph-0-2" x="195.656" y="129.999"/>
</g>
<g fill="currentColor" fill-opacity="1" class="glyph">
<use xlink:href="#nn_glyph-1-1" x="200.922" y="131.493"/>
</g>
<path fill="none" stroke-width="0.99628" stroke-linecap="butt" stroke-linejoin="miter" stroke="currentColor" stroke-opacity="1" stroke-miterlimit="10" d="M 142.730219 -115.380969 C 142.730219 -107.552844 136.386469 -101.205187 128.558344 -101.205187 C 120.730219 -101.205187 114.382562 -107.552844 114.382562 -115.380969 C 114.382562 -123.209094 120.730219 -129.552844 128.558344 -129.552844 C 136.386469 -129.552844 142.730219 -123.209094 142.730219 -115.380969 Z M 142.730219 -115.380969 " transform="matrix(1, 0, 0, -1, 71.969, 70.912)"/>
<g fill="currentColor" fill-opacity="1" class="glyph">
<use xlink:href="#nn_glyph-0-1" x="194.712" y="186.816"/>
</g>
<g fill="currentColor" fill-opacity="1" class="glyph">
<use xlink:href="#nn_glyph-0-1" x="199.143364" y="186.816"/>
</g>
<g fill="currentColor" fill-opacity="1" class="glyph">
<use xlink:href="#nn_glyph-0-1" x="203.564766" y="186.816"/>
</g>
<g clip-path="url(#nn_clip-1)">
<path fill="none" stroke-width="0.99628" stroke-linecap="butt" stroke-linejoin="miter" stroke="currentColor" stroke-opacity="1" stroke-miterlimit="10" d="M 142.730219 -173.068469 C 142.730219 -165.240344 136.386469 -158.896594 128.558344 -158.896594 C 120.730219 -158.896594 114.382562 -165.240344 114.382562 -173.068469 C 114.382562 -180.896594 120.730219 -187.24425 128.558344 -187.24425 C 136.386469 -187.24425 142.730219 -180.896594 142.730219 -173.068469 Z M 142.730219 -173.068469 " transform="matrix(1, 0, 0, -1, 71.969, 70.912)"/>
</g>
<g fill="currentColor" fill-opacity="1" class="glyph">
<use xlink:href="#nn_glyph-0-2" x="195.179" y="245.377"/>
</g>
<g fill="currentColor" fill-opacity="1" class="glyph">
<use xlink:href="#nn_glyph-3-0" x="200.445" y="246.871"/>
</g>
<path fill="none" stroke-width="0.99628" stroke-linecap="butt" stroke-linejoin="miter" stroke="currentColor" stroke-opacity="1" stroke-miterlimit="10" d="M 271.288813 0.00184375 C 271.288813 7.826063 264.941156 14.173719 257.113031 14.173719 C 249.284906 14.173719 242.941156 7.826063 242.941156 0.00184375 C 242.941156 -7.826281 249.284906 -14.173937 257.113031 -14.173937 C 264.941156 -14.173937 271.288813 -7.826281 271.288813 0.00184375 Z M 271.288813 0.00184375 " transform="matrix(1, 0, 0, -1, 71.969, 70.912)"/>
<g fill="currentColor" fill-opacity="1" class="glyph">
<use xlink:href="#nn_glyph-0-3" x="324.402" y="72.088"/>
</g>
<g fill="currentColor" fill-opacity="1" class="glyph">
<use xlink:href="#nn_glyph-1-0" x="329.287" y="73.583"/>
</g>
<path fill="none" stroke-width="0.99628" stroke-linecap="butt" stroke-linejoin="miter" stroke="currentColor" stroke-opacity="1" stroke-miterlimit="10" d="M 271.288813 -57.689562 C 271.288813 -49.861437 264.941156 -43.517687 257.113031 -43.517687 C 249.284906 -43.517687 242.941156 -49.861437 242.941156 -57.689562 C 242.941156 -65.517687 249.284906 -71.861437 257.113031 -71.861437 C 264.941156 -71.861437 271.288813 -65.517687 271.288813 -57.689562 Z M 271.288813 -57.689562 " transform="matrix(1, 0, 0, -1, 71.969, 70.912)"/>
<g fill="currentColor" fill-opacity="1" class="glyph">
<use xlink:href="#nn_glyph-0-3" x="324.402" y="129.777"/>
</g>
<g fill="currentColor" fill-opacity="1" class="glyph">
<use xlink:href="#nn_glyph-1-1" x="329.287" y="131.272"/>
</g>
<path fill="none" stroke-width="0.99628" stroke-linecap="butt" stroke-linejoin="miter" stroke="currentColor" stroke-opacity="1" stroke-miterlimit="10" d="M 271.288813 -115.380969 C 271.288813 -107.552844 264.941156 -101.205187 257.113031 -101.205187 C 249.284906 -101.205187 242.941156 -107.552844 242.941156 -115.380969 C 242.941156 -123.209094 249.284906 -129.552844 257.113031 -129.552844 C 264.941156 -129.552844 271.288813 -123.209094 271.288813 -115.380969 Z M 271.288813 -115.380969 " transform="matrix(1, 0, 0, -1, 71.969, 70.912)"/>
<g fill="currentColor" fill-opacity="1" class="glyph">
<use xlink:href="#nn_glyph-0-1" x="323.268" y="186.816"/>
</g>
<g fill="currentColor" fill-opacity="1" class="glyph">
<use xlink:href="#nn_glyph-0-1" x="327.699364" y="186.816"/>
</g>
<g fill="currentColor" fill-opacity="1" class="glyph">
<use xlink:href="#nn_glyph-0-1" x="332.120766" y="186.816"/>
</g>
<g clip-path="url(#nn_clip-2)">
<path fill="none" stroke-width="0.99628" stroke-linecap="butt" stroke-linejoin="miter" stroke="currentColor" stroke-opacity="1" stroke-miterlimit="10" d="M 271.288813 -173.068469 C 271.288813 -165.240344 264.941156 -158.896594 257.113031 -158.896594 C 249.284906 -158.896594 242.941156 -165.240344 242.941156 -173.068469 C 242.941156 -180.896594 249.284906 -187.24425 257.113031 -187.24425 C 264.941156 -187.24425 271.288813 -180.896594 271.288813 -173.068469 Z M 271.288813 -173.068469 " transform="matrix(1, 0, 0, -1, 71.969, 70.912)"/>
</g>
<g fill="currentColor" fill-opacity="1" class="glyph">
<use xlink:href="#nn_glyph-0-3" x="323.925" y="245.156"/>
</g>
<g fill="currentColor" fill-opacity="1" class="glyph">
<use xlink:href="#nn_glyph-3-0" x="328.81" y="246.65"/>
</g>
<path fill="none" stroke-width="0.99628" stroke-linecap="butt" stroke-linejoin="miter" stroke="currentColor" stroke-opacity="1" stroke-miterlimit="10" d="M 14.671625 0.00184375 L 108.554437 0.00184375 " transform="matrix(1, 0, 0, -1, 71.969, 70.912)"/>
<path fill-rule="nonzero" fill="currentColor" fill-opacity="1" class="glyph" stroke-width="0.99628" stroke-linecap="butt" stroke-linejoin="miter" stroke="currentColor" stroke-opacity="1" stroke-miterlimit="10" d="M 7.08714 0.00184375 L 1.610577 2.06825 L 3.423077 0.00184375 L 1.610577 -2.068469 Z M 7.08714 0.00184375 " transform="matrix(1, 0, 0, -1, 177.35036, 70.912)"/>
<path fill="none" stroke-width="0.99628" stroke-linecap="butt" stroke-linejoin="miter" stroke="currentColor" stroke-opacity="1" stroke-miterlimit="10" d="M 13.386469 -6.005969 L 110.308344 -49.502062 " transform="matrix(1, 0, 0, -1, 71.969, 70.912)"/>
<path fill-rule="nonzero" fill="currentColor" fill-opacity="1" class="glyph" stroke-width="0.99628" stroke-linecap="butt" stroke-linejoin="miter" stroke="currentColor" stroke-opacity="1" stroke-miterlimit="10" d="M 7.086555 -0.000459916 L 1.60947 2.071746 L 3.421617 -0.000926204 L 1.609264 -2.068763 Z M 7.086555 -0.000459916 " transform="matrix(0.91231, 0.4094, 0.4094, -0.91231, 179.38271, 119.11397)"/>
<path fill="none" stroke-width="0.99628" stroke-linecap="butt" stroke-linejoin="miter" stroke="currentColor" stroke-opacity="1" stroke-miterlimit="10" d="M 10.917719 -9.798937 L 113.671625 -102.021594 " transform="matrix(1, 0, 0, -1, 71.969, 70.912)"/>
<path fill-rule="nonzero" fill="currentColor" fill-opacity="1" class="glyph" stroke-width="0.99628" stroke-linecap="butt" stroke-linejoin="miter" stroke="currentColor" stroke-opacity="1" stroke-miterlimit="10" d="M 7.085805 -0.00210253 L 1.609853 2.069647 L 3.42349 0.00209256 L 1.607613 -2.068572 Z M 7.085805 -0.00210253 " transform="matrix(0.74419, 0.66791, 0.66791, -0.74419, 183.279, 170.81263)"/>
<path fill="none" stroke-width="0.99628" stroke-linecap="butt" stroke-linejoin="miter" stroke="currentColor" stroke-opacity="1" stroke-miterlimit="10" d="M 8.74975 -11.7755 L 116.632562 -157.013781 " transform="matrix(1, 0, 0, -1, 71.969, 70.912)"/>
<path fill-rule="nonzero" fill="currentColor" fill-opacity="1" class="glyph" stroke-width="0.99628" stroke-linecap="butt" stroke-linejoin="miter" stroke="currentColor" stroke-opacity="1" stroke-miterlimit="10" d="M 7.087001 0.000607402 L 1.607606 2.070706 L 3.423517 0.00164359 L 1.607214 -2.070144 Z M 7.087001 0.000607402 " transform="matrix(0.59627, 0.80273, 0.80273, -0.59627, 186.70734, 225.37782)"/>
<path fill="none" stroke-width="0.99628" stroke-linecap="butt" stroke-linejoin="miter" stroke="currentColor" stroke-opacity="1" stroke-miterlimit="10" d="M 13.386469 -51.68175 L 110.308344 -8.189562 " transform="matrix(1, 0, 0, -1, 71.969, 70.912)"/>
<path fill-rule="nonzero" fill="currentColor" fill-opacity="1" class="glyph" stroke-width="0.99628" stroke-linecap="butt" stroke-linejoin="miter" stroke="currentColor" stroke-opacity="1" stroke-miterlimit="10" d="M 7.085836 -0.00114132 L 1.610145 2.070726 L 3.420898 -0.000675031 L 1.610351 -2.069783 Z M 7.085836 -0.00114132 " transform="matrix(0.91231, -0.4094, -0.4094, -0.91231, 179.38271, 80.3999)"/>
<path fill="none" stroke-width="0.99628" stroke-linecap="butt" stroke-linejoin="miter" stroke="currentColor" stroke-opacity="1" stroke-miterlimit="10" d="M 14.671625 -57.689562 L 108.554437 -57.689562 " transform="matrix(1, 0, 0, -1, 71.969, 70.912)"/>
<path fill-rule="nonzero" fill="currentColor" fill-opacity="1" class="glyph" stroke-width="0.99628" stroke-linecap="butt" stroke-linejoin="miter" stroke="currentColor" stroke-opacity="1" stroke-miterlimit="10" d="M 7.08714 0.0003175 L 1.610577 2.07063 L 3.423077 0.0003175 L 1.610577 -2.069995 Z M 7.08714 0.0003175 " transform="matrix(1, 0, 0, -1, 177.35036, 128.60188)"/>
<path fill="none" stroke-width="0.99628" stroke-linecap="butt" stroke-linejoin="miter" stroke="currentColor" stroke-opacity="1" stroke-miterlimit="10" d="M 13.386469 -63.697375 L 110.308344 -107.189562 " transform="matrix(1, 0, 0, -1, 71.969, 70.912)"/>
<path fill-rule="nonzero" fill="currentColor" fill-opacity="1" class="glyph" stroke-width="0.99628" stroke-linecap="butt" stroke-linejoin="miter" stroke="currentColor" stroke-opacity="1" stroke-miterlimit="10" d="M 7.08558 0.00171156 L 1.610095 2.070354 L 3.422242 -0.00231873 L 1.609889 -2.070156 Z M 7.08558 0.00171156 " transform="matrix(0.91231, 0.4094, 0.4094, -0.91231, 179.38271, 176.80385)"/>
<path fill="none" stroke-width="0.99628" stroke-linecap="butt" stroke-linejoin="miter" stroke="currentColor" stroke-opacity="1" stroke-miterlimit="10" d="M 10.917719 -67.490344 L 113.671625 -159.709094 " transform="matrix(1, 0, 0, -1, 71.969, 70.912)"/>
<path fill-rule="nonzero" fill="currentColor" fill-opacity="1" class="glyph" stroke-width="0.99628" stroke-linecap="butt" stroke-linejoin="miter" stroke="currentColor" stroke-opacity="1" stroke-miterlimit="10" d="M 7.084209 -0.000323783 L 1.608257 2.071426 L 3.424503 0.00096409 L 1.608626 -2.0697 Z M 7.084209 -0.000323783 " transform="matrix(0.74419, 0.66791, 0.66791, -0.74419, 183.279, 228.50252)"/>
<path fill="none" stroke-width="0.99628" stroke-linecap="butt" stroke-linejoin="miter" stroke="currentColor" stroke-opacity="1" stroke-miterlimit="10" d="M 10.917719 -105.580187 L 113.671625 -13.357531 " transform="matrix(1, 0, 0, -1, 71.969, 70.912)"/>
<path fill-rule="nonzero" fill="currentColor" fill-opacity="1" class="glyph" stroke-width="0.99628" stroke-linecap="butt" stroke-linejoin="miter" stroke="currentColor" stroke-opacity="1" stroke-miterlimit="10" d="M 7.083607 -0.00034697 L 1.608024 2.069029 L 3.423901 -0.00163484 L 1.610264 -2.06919 Z M 7.083607 -0.00034697 " transform="matrix(0.74419, -0.66791, -0.66791, -0.74419, 183.279, 86.39111)"/>
<path fill="none" stroke-width="0.99628" stroke-linecap="butt" stroke-linejoin="miter" stroke="currentColor" stroke-opacity="1" stroke-miterlimit="10" d="M 13.386469 -109.373156 L 110.308344 -65.877062 " transform="matrix(1, 0, 0, -1, 71.969, 70.912)"/>
<path fill-rule="nonzero" fill="currentColor" fill-opacity="1" class="glyph" stroke-width="0.99628" stroke-linecap="butt" stroke-linejoin="miter" stroke="currentColor" stroke-opacity="1" stroke-miterlimit="10" d="M 7.08681 0.00103016 L 1.60952 2.069334 L 3.421873 0.00149644 L 1.609726 -2.071176 Z M 7.08681 0.00103016 " transform="matrix(0.91231, -0.4094, -0.4094, -0.91231, 179.38271, 138.08978)"/>
<path fill="none" stroke-width="0.99628" stroke-linecap="butt" stroke-linejoin="miter" stroke="currentColor" stroke-opacity="1" stroke-miterlimit="10" d="M 14.671625 -115.380969 L 108.554437 -115.380969 " transform="matrix(1, 0, 0, -1, 71.969, 70.912)"/>
<path fill-rule="nonzero" fill="currentColor" fill-opacity="1" class="glyph" stroke-width="0.99628" stroke-linecap="butt" stroke-linejoin="miter" stroke="currentColor" stroke-opacity="1" stroke-miterlimit="10" d="M 7.08714 -0.00120875 L 1.610577 2.069104 L 3.423077 -0.00120875 L 1.610577 -2.071521 Z M 7.08714 -0.00120875 " transform="matrix(1, 0, 0, -1, 177.35036, 186.29176)"/>
<path fill="none" stroke-width="0.99628" stroke-linecap="butt" stroke-linejoin="miter" stroke="currentColor" stroke-opacity="1" stroke-miterlimit="10" d="M 13.386469 -121.384875 L 110.308344 -164.880969 " transform="matrix(1, 0, 0, -1, 71.969, 70.912)"/>
<path fill-rule="nonzero" fill="currentColor" fill-opacity="1" class="glyph" stroke-width="0.99628" stroke-linecap="butt" stroke-linejoin="miter" stroke="currentColor" stroke-opacity="1" stroke-miterlimit="10" d="M 7.086205 0.000319033 L 1.61072 2.068961 L 3.421267 -0.000147256 L 1.608915 -2.067984 Z M 7.086205 0.000319033 " transform="matrix(0.91231, 0.4094, 0.4094, -0.91231, 179.38271, 234.49373)"/>
<path fill="none" stroke-width="0.99628" stroke-linecap="butt" stroke-linejoin="miter" stroke="currentColor" stroke-opacity="1" stroke-miterlimit="10" d="M 8.74975 -161.291125 L 116.632562 -16.05675 " transform="matrix(1, 0, 0, -1, 71.969, 70.912)"/>
<path fill-rule="nonzero" fill="currentColor" fill-opacity="1" class="glyph" stroke-width="0.99628" stroke-linecap="butt" stroke-linejoin="miter" stroke="currentColor" stroke-opacity="1" stroke-miterlimit="10" d="M 7.08627 -0.0011508 L 1.609618 2.07193 L 3.422786 -0.00218698 L 1.61001 -2.06892 Z M 7.08627 -0.0011508 " transform="matrix(0.59627, -0.80273, -0.80273, -0.59627, 186.70734, 89.5158)"/>
<path fill="none" stroke-width="0.99628" stroke-linecap="butt" stroke-linejoin="miter" stroke="currentColor" stroke-opacity="1" stroke-miterlimit="10" d="M 10.917719 -163.271594 L 113.671625 -71.048937 " transform="matrix(1, 0, 0, -1, 71.969, 70.912)"/>
<path fill-rule="nonzero" fill="currentColor" fill-opacity="1" class="glyph" stroke-width="0.99628" stroke-linecap="butt" stroke-linejoin="miter" stroke="currentColor" stroke-opacity="1" stroke-miterlimit="10" d="M 7.085203 0.00143178 L 1.60962 2.070808 L 3.425498 0.000143908 L 1.609251 -2.070318 Z M 7.085203 0.00143178 " transform="matrix(0.74419, -0.66791, -0.66791, -0.74419, 183.279, 144.081)"/>
<path fill="none" stroke-width="0.99628" stroke-linecap="butt" stroke-linejoin="miter" stroke="currentColor" stroke-opacity="1" stroke-miterlimit="10" d="M 13.386469 -167.064562 L 110.308344 -123.568469 " transform="matrix(1, 0, 0, -1, 71.969, 70.912)"/>
<path fill-rule="nonzero" fill="currentColor" fill-opacity="1" class="glyph" stroke-width="0.99628" stroke-linecap="butt" stroke-linejoin="miter" stroke="currentColor" stroke-opacity="1" stroke-miterlimit="10" d="M 7.086186 -0.000362371 L 1.608895 2.067941 L 3.421248 0.000103917 L 1.610701 -2.069004 Z M 7.086186 -0.000362371 " transform="matrix(0.91231, -0.4094, -0.4094, -0.91231, 179.38271, 195.77966)"/>
<path fill="none" stroke-width="0.99628" stroke-linecap="butt" stroke-linejoin="miter" stroke="currentColor" stroke-opacity="1" stroke-miterlimit="10" d="M 14.671625 -173.068469 L 108.554437 -173.068469 " transform="matrix(1, 0, 0, -1, 71.969, 70.912)"/>
<path fill-rule="nonzero" fill="currentColor" fill-opacity="1" class="glyph" stroke-width="0.99628" stroke-linecap="butt" stroke-linejoin="miter" stroke="currentColor" stroke-opacity="1" stroke-miterlimit="10" d="M 7.08714 0.00117125 L 1.610577 2.071484 L 3.423077 0.00117125 L 1.610577 -2.069141 Z M 7.08714 0.00117125 " transform="matrix(1, 0, 0, -1, 177.35036, 243.98164)"/>
<path fill="none" stroke-width="0.99628" stroke-linecap="butt" stroke-linejoin="miter" stroke="currentColor" stroke-opacity="1" stroke-miterlimit="10" d="M 143.230219 0.00184375 L 237.113031 0.00184375 " transform="matrix(1, 0, 0, -1, 71.969, 70.912)"/>
<path fill-rule="nonzero" fill="currentColor" fill-opacity="1" class="glyph" stroke-width="0.99628" stroke-linecap="butt" stroke-linejoin="miter" stroke="currentColor" stroke-opacity="1" stroke-miterlimit="10" d="M 7.084877 0.00184375 L 1.608315 2.06825 L 3.424721 0.00184375 L 1.608315 -2.068469 Z M 7.084877 0.00184375 " transform="matrix(1, 0, 0, -1, 305.90731, 70.912)"/>
<path fill="none" stroke-width="0.99628" stroke-linecap="butt" stroke-linejoin="miter" stroke="currentColor" stroke-opacity="1" stroke-miterlimit="10" d="M 141.941156 -6.005969 L 238.866938 -49.502062 " transform="matrix(1, 0, 0, -1, 71.969, 70.912)"/>
<path fill-rule="nonzero" fill="currentColor" fill-opacity="1" class="glyph" stroke-width="0.99628" stroke-linecap="butt" stroke-linejoin="miter" stroke="currentColor" stroke-opacity="1" stroke-miterlimit="10" d="M 7.084508 -0.00137807 L 1.607424 2.070828 L 3.423135 -0.000245009 L 1.607218 -2.069681 Z M 7.084508 -0.00137807 " transform="matrix(0.91231, 0.4094, 0.4094, -0.91231, 307.93964, 119.11397)"/>
<path fill="none" stroke-width="0.99628" stroke-linecap="butt" stroke-linejoin="miter" stroke="currentColor" stroke-opacity="1" stroke-miterlimit="10" d="M 139.476313 -9.798937 L 242.230219 -102.021594 " transform="matrix(1, 0, 0, -1, 71.969, 70.912)"/>
<path fill-rule="nonzero" fill="currentColor" fill-opacity="1" class="glyph" stroke-width="0.99628" stroke-linecap="butt" stroke-linejoin="miter" stroke="currentColor" stroke-opacity="1" stroke-miterlimit="10" d="M 7.087036 -0.000997893 L 1.608177 2.068143 L 3.421814 0.000587972 L 1.608844 -2.067467 Z M 7.087036 -0.000997893 " transform="matrix(0.74419, 0.66791, 0.66791, -0.74419, 311.83594, 170.81263)"/>
<path fill="none" stroke-width="0.99628" stroke-linecap="butt" stroke-linejoin="miter" stroke="currentColor" stroke-opacity="1" stroke-miterlimit="10" d="M 137.304438 -11.7755 L 245.18725 -157.013781 " transform="matrix(1, 0, 0, -1, 71.969, 70.912)"/>
<path fill-rule="nonzero" fill="currentColor" fill-opacity="1" class="glyph" stroke-width="0.99628" stroke-linecap="butt" stroke-linejoin="miter" stroke="currentColor" stroke-opacity="1" stroke-miterlimit="10" d="M 7.085652 -0.00120893 L 1.608586 2.072026 L 3.422168 -0.000172748 L 1.608194 -2.068825 Z M 7.085652 -0.00120893 " transform="matrix(0.59627, 0.80273, 0.80273, -0.59627, 315.26429, 225.37782)"/>
<path fill="none" stroke-width="0.99628" stroke-linecap="butt" stroke-linejoin="miter" stroke="currentColor" stroke-opacity="1" stroke-miterlimit="10" d="M 141.941156 -51.68175 L 238.866938 -8.189562 " transform="matrix(1, 0, 0, -1, 71.969, 70.912)"/>
<path fill-rule="nonzero" fill="currentColor" fill-opacity="1" class="glyph" stroke-width="0.99628" stroke-linecap="butt" stroke-linejoin="miter" stroke="currentColor" stroke-opacity="1" stroke-miterlimit="10" d="M 7.08379 -0.000223165 L 1.608099 2.071644 L 3.422416 -0.00135623 L 1.608305 -2.068865 Z M 7.08379 -0.000223165 " transform="matrix(0.91231, -0.4094, -0.4094, -0.91231, 307.93964, 80.3999)"/>
<path fill="none" stroke-width="0.99628" stroke-linecap="butt" stroke-linejoin="miter" stroke="currentColor" stroke-opacity="1" stroke-miterlimit="10" d="M 143.230219 -57.689562 L 237.113031 -57.689562 " transform="matrix(1, 0, 0, -1, 71.969, 70.912)"/>
<path fill-rule="nonzero" fill="currentColor" fill-opacity="1" class="glyph" stroke-width="0.99628" stroke-linecap="butt" stroke-linejoin="miter" stroke="currentColor" stroke-opacity="1" stroke-miterlimit="10" d="M 7.084877 0.0003175 L 1.608315 2.07063 L 3.424721 0.0003175 L 1.608315 -2.069995 Z M 7.084877 0.0003175 " transform="matrix(1, 0, 0, -1, 305.90731, 128.60188)"/>
<path fill="none" stroke-width="0.99628" stroke-linecap="butt" stroke-linejoin="miter" stroke="currentColor" stroke-opacity="1" stroke-miterlimit="10" d="M 141.941156 -63.697375 L 238.866938 -107.189562 " transform="matrix(1, 0, 0, -1, 71.969, 70.912)"/>
<path fill-rule="nonzero" fill="currentColor" fill-opacity="1" class="glyph" stroke-width="0.99628" stroke-linecap="butt" stroke-linejoin="miter" stroke="currentColor" stroke-opacity="1" stroke-miterlimit="10" d="M 7.083534 0.000793405 L 1.608049 2.069435 L 3.42376 -0.00163754 L 1.607843 -2.071074 Z M 7.083534 0.000793405 " transform="matrix(0.91231, 0.4094, 0.4094, -0.91231, 307.93964, 176.80385)"/>
<path fill="none" stroke-width="0.99628" stroke-linecap="butt" stroke-linejoin="miter" stroke="currentColor" stroke-opacity="1" stroke-miterlimit="10" d="M 139.476313 -67.490344 L 242.230219 -159.709094 " transform="matrix(1, 0, 0, -1, 71.969, 70.912)"/>
<path fill-rule="nonzero" fill="currentColor" fill-opacity="1" class="glyph" stroke-width="0.99628" stroke-linecap="butt" stroke-linejoin="miter" stroke="currentColor" stroke-opacity="1" stroke-miterlimit="10" d="M 7.08544 0.000780859 L 1.606581 2.069922 L 3.422827 -0.000540493 L 1.609857 -2.068595 Z M 7.08544 0.000780859 " transform="matrix(0.74419, 0.66791, 0.66791, -0.74419, 311.83594, 228.50252)"/>
<path fill="none" stroke-width="0.99628" stroke-linecap="butt" stroke-linejoin="miter" stroke="currentColor" stroke-opacity="1" stroke-miterlimit="10" d="M 139.476313 -105.580187 L 242.230219 -13.357531 " transform="matrix(1, 0, 0, -1, 71.969, 70.912)"/>
<path fill-rule="nonzero" fill="currentColor" fill-opacity="1" class="glyph" stroke-width="0.99628" stroke-linecap="butt" stroke-linejoin="miter" stroke="currentColor" stroke-opacity="1" stroke-miterlimit="10" d="M 7.084838 -0.00145161 L 1.609255 2.067925 L 3.422225 -0.00013026 L 1.608588 -2.067685 Z M 7.084838 -0.00145161 " transform="matrix(0.74419, -0.66791, -0.66791, -0.74419, 311.83594, 86.39111)"/>
<path fill="none" stroke-width="0.99628" stroke-linecap="butt" stroke-linejoin="miter" stroke="currentColor" stroke-opacity="1" stroke-miterlimit="10" d="M 141.941156 -109.373156 L 238.866938 -65.877062 " transform="matrix(1, 0, 0, -1, 71.969, 70.912)"/>
<path fill-rule="nonzero" fill="currentColor" fill-opacity="1" class="glyph" stroke-width="0.99628" stroke-linecap="butt" stroke-linejoin="miter" stroke="currentColor" stroke-opacity="1" stroke-miterlimit="10" d="M 7.084764 0.00194831 L 1.607474 2.070252 L 3.423391 0.00081525 L 1.60768 -2.070258 Z M 7.084764 0.00194831 " transform="matrix(0.91231, -0.4094, -0.4094, -0.91231, 307.93964, 138.08978)"/>
<path fill="none" stroke-width="0.99628" stroke-linecap="butt" stroke-linejoin="miter" stroke="currentColor" stroke-opacity="1" stroke-miterlimit="10" d="M 143.230219 -115.380969 L 237.113031 -115.380969 " transform="matrix(1, 0, 0, -1, 71.969, 70.912)"/>
<path fill-rule="nonzero" fill="currentColor" fill-opacity="1" class="glyph" stroke-width="0.99628" stroke-linecap="butt" stroke-linejoin="miter" stroke="currentColor" stroke-opacity="1" stroke-miterlimit="10" d="M 7.084877 -0.00120875 L 1.608315 2.069104 L 3.424721 -0.00120875 L 1.608315 -2.071521 Z M 7.084877 -0.00120875 " transform="matrix(1, 0, 0, -1, 305.90731, 186.29176)"/>
<path fill="none" stroke-width="0.99628" stroke-linecap="butt" stroke-linejoin="miter" stroke="currentColor" stroke-opacity="1" stroke-miterlimit="10" d="M 141.941156 -121.384875 L 238.866938 -164.880969 " transform="matrix(1, 0, 0, -1, 71.969, 70.912)"/>
<path fill-rule="nonzero" fill="currentColor" fill-opacity="1" class="glyph" stroke-width="0.99628" stroke-linecap="butt" stroke-linejoin="miter" stroke="currentColor" stroke-opacity="1" stroke-miterlimit="10" d="M 7.084159 -0.000599122 L 1.608674 2.068043 L 3.422785 0.000533939 L 1.606869 -2.068902 Z M 7.084159 -0.000599122 " transform="matrix(0.91231, 0.4094, 0.4094, -0.91231, 307.93964, 234.49373)"/>
<path fill="none" stroke-width="0.99628" stroke-linecap="butt" stroke-linejoin="miter" stroke="currentColor" stroke-opacity="1" stroke-miterlimit="10" d="M 137.304438 -161.291125 L 245.18725 -16.05675 " transform="matrix(1, 0, 0, -1, 71.969, 70.912)"/>
<path fill-rule="nonzero" fill="currentColor" fill-opacity="1" class="glyph" stroke-width="0.99628" stroke-linecap="butt" stroke-linejoin="miter" stroke="currentColor" stroke-opacity="1" stroke-miterlimit="10" d="M 7.08492 0.000665534 L 1.610598 2.070611 L 3.421437 -0.00037065 L 1.610991 -2.07024 Z M 7.08492 0.000665534 " transform="matrix(0.59627, -0.80273, -0.80273, -0.59627, 315.26429, 89.5158)"/>
<path fill="none" stroke-width="0.99628" stroke-linecap="butt" stroke-linejoin="miter" stroke="currentColor" stroke-opacity="1" stroke-miterlimit="10" d="M 139.476313 -163.271594 L 242.230219 -71.048937 " transform="matrix(1, 0, 0, -1, 71.969, 70.912)"/>
<path fill-rule="nonzero" fill="currentColor" fill-opacity="1" class="glyph" stroke-width="0.99628" stroke-linecap="butt" stroke-linejoin="miter" stroke="currentColor" stroke-opacity="1" stroke-miterlimit="10" d="M 7.086434 0.00032714 L 1.610851 2.069703 L 3.423821 0.00164849 L 1.607575 -2.068814 Z M 7.086434 0.00032714 " transform="matrix(0.74419, -0.66791, -0.66791, -0.74419, 311.83594, 144.081)"/>
<path fill="none" stroke-width="0.99628" stroke-linecap="butt" stroke-linejoin="miter" stroke="currentColor" stroke-opacity="1" stroke-miterlimit="10" d="M 141.941156 -167.064562 L 238.866938 -123.568469 " transform="matrix(1, 0, 0, -1, 71.969, 70.912)"/>
<path fill-rule="nonzero" fill="currentColor" fill-opacity="1" class="glyph" stroke-width="0.99628" stroke-linecap="butt" stroke-linejoin="miter" stroke="currentColor" stroke-opacity="1" stroke-miterlimit="10" d="M 7.084139 0.000555784 L 1.606849 2.068859 L 3.422766 -0.000577278 L 1.608655 -2.068086 Z M 7.084139 0.000555784 " transform="matrix(0.91231, -0.4094, -0.4094, -0.91231, 307.93964, 195.77966)"/>
<path fill="none" stroke-width="0.99628" stroke-linecap="butt" stroke-linejoin="miter" stroke="currentColor" stroke-opacity="1" stroke-miterlimit="10" d="M 143.230219 -173.068469 L 237.113031 -173.068469 " transform="matrix(1, 0, 0, -1, 71.969, 70.912)"/>
<path fill-rule="nonzero" fill="currentColor" fill-opacity="1" class="glyph" stroke-width="0.99628" stroke-linecap="butt" stroke-linejoin="miter" stroke="currentColor" stroke-opacity="1" stroke-miterlimit="10" d="M 7.084877 0.00117125 L 1.608315 2.071484 L 3.424721 0.00117125 L 1.608315 -2.069141 Z M 7.084877 0.00117125 " transform="matrix(1, 0, 0, -1, 305.90731, 243.98164)"/>
</svg>
