<?xml version="1.0" encoding="UTF-8"?>
<svg xmlns="http://www.w3.org/2000/svg" xmlns:xlink="http://www.w3.org/1999/xlink" width="325.517" height="187.186" viewBox="0 0 325.517 187.186">
<style>/* === RDF autogenerated palette === */
:root {
    --axis-color: #000;
    --grid-stroke: rgba(0,0,0,0.2);
    --plot3d-stroke: rgba(0,0,0,0.3);
    --plot3d-grid: rgba(0,0,0,0.2);
}
@media (prefers-color-scheme: dark) {
    :root {
        --axis-color: #fff;
        --grid-stroke: rgba(255,255,255,0.2);
        --plot3d-stroke: rgba(255,255,255,0.3);
        --plot3d-grid: rgba(255,255,255,0.2);
    }
}

/* Light‑mode palette */
.black { fill:#000000; stroke:#000000; }:root { --black: #000000; }.c1 { fill:#FF0001; stroke:#FF0001; }:root { --c1: #FF0001; }.c2 { fill:#00FF02; stroke:#00FF02; }:root { --c2: #00FF02; }.c3 { fill:#0000FF; stroke:#0000FF; }:root { --c3: #0000FF; }.c4 { fill:#FF00FF; stroke:#FF00FF; }:root { --c4: #FF00FF; }.c5 { fill:#00FFFF; stroke:#00FFFF; }:root { --c5: #00FFFF; }.c6 { fill:#FFFF00; stroke:#FFFF00; }:root { --c6: #FFFF00; }.c7 { fill:#FF8000; stroke:#FF8000; }:root { --c7: #FF8000; }.c8 { fill:#8000FF; stroke:#8000FF; }:root { --c8: #8000FF; }.gray { fill:#7f7f7f; stroke:#7f7f7f; }:root { --gray: #7f7f7f; }.grey { fill:#7f7f7f; stroke:#7f7f7f; }:root { --grey: #7f7f7f; }.octonary { fill:#bcbd22; stroke:#bcbd22; }:root { --octonary: #bcbd22; }.primary { fill:#d62728; stroke:#d62728; }:root { --primary: #d62728; }.quaternary { fill:#9467bd; stroke:#9467bd; }:root { --quaternary: #9467bd; }.quinary { fill:#8c564b; stroke:#8c564b; }:root { --quinary: #8c564b; }.secondary { fill:#2ca02c; stroke:#2ca02c; }:root { --secondary: #2ca02c; }.senary { fill:#e377c2; stroke:#e377c2; }:root { --senary: #e377c2; }.septenary { fill:#7f7f7f; stroke:#7f7f7f; }:root { --septenary: #7f7f7f; }.tertiary { fill:#1f77b4; stroke:#1f77b4; }:root { --tertiary: #1f77b4; }.white { fill:#ffffff; stroke:#ffffff; }:root { --white: #ffffff; }

/* Dark overrides */
@media (prefers-color-scheme: dark) {
    .black { fill:#FFFFFF; stroke:#FFFFFF; }:root { --black: #FFFFFF; }.c1 { fill:#FF0001; stroke:#FF0001; }:root { --c1: #FF0001; }.c2 { fill:#00FF02; stroke:#00FF02; }:root { --c2: #00FF02; }.c3 { fill:#0000FF; stroke:#0000FF; }:root { --c3: #0000FF; }.c4 { fill:#FF00FF; stroke:#FF00FF; }:root { --c4: #FF00FF; }.c5 { fill:#00FFFF; stroke:#00FFFF; }:root { --c5: #00FFFF; }.c6 { fill:#FFFF00; stroke:#FFFF00; }:root { --c6: #FFFF00; }.c7 { fill:#FF8000; stroke:#FF8000; }:root { --c7: #FF8000; }.c8 { fill:#8000FF; stroke:#8000FF; }:root { --c8: #8000FF; }.gray { fill:#CCCCCC; stroke:#CCCCCC; }:root { --gray: #CCCCCC; }.grey { fill:#CCCCCC; stroke:#CCCCCC; }:root { --grey: #CCCCCC; }.octonary { fill:#E6DB74; stroke:#E6DB74; }:root { --octonary: #E6DB74; }.primary { fill:#FF4A98; stroke:#FF4A98; }:root { --primary: #FF4A98; }.quaternary { fill:#B4A0FF; stroke:#B4A0FF; }:root { --quaternary: #B4A0FF; }.quinary { fill:#FFB86B; stroke:#FFB86B; }:root { --quinary: #FFB86B; }.secondary { fill:#0AFAFA; stroke:#0AFAFA; }:root { --secondary: #0AFAFA; }.senary { fill:#FF79C6; stroke:#FF79C6; }:root { --senary: #FF79C6; }.septenary { fill:#CCCCCC; stroke:#CCCCCC; }:root { --septenary: #CCCCCC; }.tertiary { fill:#7F83FF; stroke:#7F83FF; }:root { --tertiary: #7F83FF; }.white { fill:#000000; stroke:#000000; }:root { --white: #000000; }
}/* Axis, ticks, legend */
text, .text { fill: var(--axis-color) !important; stroke: none !important; }
.axis line, .axis path,
.tick line, .tick path,
path.domain,
line.grid { stroke: var(--axis-color) !important; }
.legend text { fill: var(--axis-color) !important; }

/* Patch paths that relied on currentColor */
.patch path[style*="stroke: currentColor"] { stroke: var(--axis-color) !important; }

/* Legend background (first child of legend group) */
g.legend > g:first-child > path:first-child {
    fill: rgba(255,255,255,0.8) !important;
    stroke: rgba(0,0,0,0.1) !important;
}
@media (prefers-color-scheme: dark) {
    g.legend > g:first-child > path:first-child {
        fill: rgba(26,26,26,0.8) !important;
        stroke: rgba(255,255,255,0.1) !important;
    }
}

/* 3‑D specific rules */
.plot3d path, .plot3d polygon {
    stroke: var(--plot3d-stroke) !important;
}
.plot3d-grid line { stroke: var(--plot3d-grid) !important; }
.plot3d-surface path[style*="fill:"] {
    fill-opacity: 0.9 !important;
}
@media (prefers-color-scheme: dark) {
    .plot3d-surface path[style*="fill:"] {
        fill-opacity: 0.95 !important;
        filter: saturate(1.2) !important;
    }
}</style>

<defs>
<g class="glyph">
<g id="bayesian_network_glyph-0-0">
<path d="M 10.171875 -2.546875 C 10.171875 -2.796875 9.921875 -2.796875 9.765625 -2.796875 C 9.5625 -2.796875 9.4375 -2.796875 9.359375 -2.5625 C 8.875 -1 7.625 -0.484375 6.921875 -0.484375 C 6.265625 -0.484375 5.953125 -0.796875 5.953125 -1.34375 C 5.953125 -1.703125 6.1875 -2.625 6.34375 -3.25 L 6.9375 -5.59375 C 7.203125 -6.625 7.796875 -7.15625 8.40625 -7.15625 C 8.484375 -7.15625 8.890625 -7.15625 9.234375 -6.90625 C 8.609375 -6.734375 8.296875 -6.140625 8.296875 -5.71875 C 8.296875 -5.34375 8.59375 -4.921875 9.15625 -4.921875 C 9.765625 -4.921875 10.40625 -5.421875 10.40625 -6.265625 C 10.40625 -7.1875 9.484375 -7.78125 8.4375 -7.78125 C 7.453125 -7.78125 6.8125 -7.046875 6.59375 -6.734375 C 6.171875 -7.453125 5.203125 -7.78125 4.21875 -7.78125 C 2.046875 -7.78125 0.875 -5.671875 0.875 -5.09375 C 0.875 -4.859375 1.140625 -4.859375 1.296875 -4.859375 C 1.5 -4.859375 1.625 -4.859375 1.6875 -5.078125 C 2.1875 -6.640625 3.421875 -7.15625 4.125 -7.15625 C 4.78125 -7.15625 5.09375 -6.859375 5.09375 -6.296875 C 5.09375 -5.96875 4.859375 -5.03125 4.703125 -4.40625 L 4.109375 -2.046875 C 3.859375 -1 3.234375 -0.484375 2.65625 -0.484375 C 2.5625 -0.484375 2.171875 -0.484375 1.828125 -0.734375 C 2.4375 -0.90625 2.75 -1.5 2.75 -1.921875 C 2.75 -2.3125 2.46875 -2.71875 1.890625 -2.71875 C 1.296875 -2.71875 0.65625 -2.21875 0.65625 -1.375 C 0.65625 -0.46875 1.5625 0.140625 2.625 0.140625 C 3.59375 0.140625 4.234375 -0.609375 4.453125 -0.90625 C 4.890625 -0.1875 5.859375 0.140625 6.828125 0.140625 C 9 0.140625 10.171875 -1.984375 10.171875 -2.546875 Z M 10.171875 -2.546875 "/>
</g>
<g id="bayesian_network_glyph-1-0">
<path d="M 5.765625 0 L 5.765625 -0.515625 L 4.140625 -0.515625 L 4.140625 -7.5 C 4.140625 -7.84375 4.109375 -7.84375 3.734375 -7.84375 C 2.84375 -7.078125 1.515625 -7.078125 1.25 -7.078125 L 1.03125 -7.078125 L 1.03125 -6.5625 L 1.25 -6.5625 C 1.671875 -6.5625 2.3125 -6.640625 2.78125 -6.796875 L 2.78125 -0.515625 L 1.125 -0.515625 L 1.125 0 L 3.4375 -0.03125 Z M 5.765625 0 "/>
</g>
<g id="bayesian_network_glyph-1-1">
<path d="M 6.140625 -2.140625 C 6.140625 -2.71875 5.84375 -3.859375 4 -4.1875 C 5.046875 -4.5 5.765625 -5.25 5.765625 -6.1875 C 5.765625 -7.09375 4.90625 -7.84375 3.25 -7.84375 C 1.90625 -7.84375 0.9375 -7.140625 0.9375 -6.171875 C 0.9375 -5.5625 1.40625 -5.375 1.703125 -5.375 C 2.0625 -5.375 2.46875 -5.609375 2.46875 -6.15625 C 2.46875 -6.4375 2.359375 -6.84375 1.796875 -6.921875 C 2.296875 -7.40625 3.109375 -7.40625 3.171875 -7.40625 C 4.25 -7.40625 4.25 -6.59375 4.25 -6.234375 C 4.25 -5.875 4.203125 -5.3125 3.8125 -4.828125 C 3.5 -4.421875 3.1875 -4.40625 2.734375 -4.375 C 2.59375 -4.359375 2.359375 -4.34375 2.3125 -4.328125 C 2.234375 -4.296875 2.234375 -4.203125 2.234375 -4.15625 C 2.234375 -3.953125 2.3125 -3.953125 2.546875 -3.953125 L 3.125 -3.953125 C 4.453125 -3.953125 4.453125 -2.71875 4.453125 -2.140625 C 4.453125 -1.609375 4.453125 -0.328125 3.171875 -0.328125 C 2.921875 -0.328125 2.125 -0.375 1.546875 -0.78125 C 2.0625 -0.890625 2.25 -1.25 2.25 -1.609375 C 2.25 -2.109375 1.90625 -2.453125 1.40625 -2.453125 C 0.90625 -2.453125 0.5625 -2.109375 0.5625 -1.609375 C 0.5625 -0.5 1.75 0.140625 3.234375 0.140625 C 5.203125 0.140625 6.140625 -0.9375 6.140625 -2.140625 Z M 6.140625 -2.140625 "/>
</g>
<g id="bayesian_network_glyph-1-2">
<path d="M 6.03125 -2.5625 L 5.53125 -2.5625 C 5.5 -2.3125 5.421875 -1.609375 5.234375 -1.5 C 5.140625 -1.40625 4.203125 -1.40625 4.03125 -1.40625 L 2.171875 -1.40625 L 3.890625 -2.828125 C 5.21875 -3.828125 6.03125 -4.4375 6.03125 -5.578125 C 6.03125 -7 4.75 -7.84375 3.171875 -7.84375 C 1.828125 -7.84375 0.671875 -7.078125 0.671875 -5.9375 C 0.671875 -5.3125 1.1875 -5.125 1.453125 -5.125 C 1.828125 -5.125 2.265625 -5.375 2.265625 -5.921875 C 2.265625 -6.4375 1.890625 -6.6875 1.515625 -6.734375 C 2 -7.28125 2.625 -7.328125 2.875 -7.328125 C 3.984375 -7.328125 4.5 -6.4375 4.5 -5.5625 C 4.5 -4.640625 3.875 -3.78125 3.375 -3.265625 L 0.78125 -0.546875 C 0.671875 -0.4375 0.671875 -0.421875 0.671875 -0.203125 L 0.671875 0 L 5.6875 0 Z M 6.03125 -2.5625 "/>
</g>
<g id="bayesian_network_glyph-1-3">
<path d="M 6.328125 0 L 6.328125 -0.515625 L 5.171875 -0.515625 L 5.171875 -1.875 L 6.328125 -1.875 L 6.328125 -2.390625 L 5.171875 -2.390625 L 5.171875 -7.515625 C 5.171875 -7.8125 5.15625 -7.859375 4.859375 -7.859375 C 4.65625 -7.859375 4.625 -7.859375 4.484375 -7.6875 L 0.375 -2.390625 L 0.375 -1.875 L 3.765625 -1.875 L 3.765625 -0.515625 L 2.46875 -0.515625 L 2.46875 0 C 2.8125 -0.03125 4 -0.03125 4.421875 -0.03125 C 4.828125 -0.03125 6.015625 -0.03125 6.328125 0 Z M 3.875 -2.390625 L 0.921875 -2.390625 L 3.875 -6.1875 Z M 3.875 -2.390625 "/>
</g>
<g id="bayesian_network_glyph-1-4">
<path d="M 6.03125 -2.40625 C 6.03125 -3.859375 5.046875 -4.90625 3.40625 -4.90625 C 2.921875 -4.90625 2.359375 -4.8125 1.84375 -4.421875 L 1.84375 -6.203125 C 2.25 -6.109375 2.5625 -6.109375 2.75 -6.109375 C 3.03125 -6.109375 3.71875 -6.109375 4.515625 -6.59375 C 4.890625 -6.828125 5.515625 -7.359375 5.515625 -7.640625 C 5.515625 -7.703125 5.515625 -7.84375 5.359375 -7.84375 C 5.359375 -7.84375 5.328125 -7.84375 5.21875 -7.78125 C 4.65625 -7.59375 4.078125 -7.453125 3.40625 -7.453125 C 2.71875 -7.453125 2.15625 -7.59375 1.59375 -7.796875 C 1.5 -7.8125 1.46875 -7.84375 1.4375 -7.84375 C 1.296875 -7.84375 1.296875 -7.71875 1.296875 -7.515625 L 1.296875 -4.046875 C 1.296875 -3.8125 1.296875 -3.6875 1.53125 -3.6875 C 1.65625 -3.6875 1.671875 -3.6875 1.765625 -3.8125 C 1.90625 -3.984375 2.34375 -4.5 3.359375 -4.5 C 4.453125 -4.5 4.453125 -3.375 4.453125 -2.4375 C 4.453125 -1.578125 4.453125 -0.328125 2.984375 -0.328125 C 2.546875 -0.328125 1.796875 -0.5 1.390625 -1.1875 C 2.015625 -1.1875 2.171875 -1.65625 2.171875 -1.921875 C 2.171875 -2.359375 1.859375 -2.671875 1.421875 -2.671875 C 1.0625 -2.671875 0.671875 -2.46875 0.671875 -1.90625 C 0.671875 -0.859375 1.609375 0.140625 3.03125 0.140625 C 4.875 0.140625 6.03125 -0.921875 6.03125 -2.40625 Z M 6.03125 -2.40625 "/>
</g>
</g>
<clipPath id="bayesian_network_clip-0">
<path clip-rule="nonzero" d="M 223 0 L 325.515625 0 L 325.515625 102 L 223 102 Z M 223 0 "/>
</clipPath>
<clipPath id="bayesian_network_clip-1">
<path clip-rule="nonzero" d="M 102 85 L 224 85 L 224 187.1875 L 102 187.1875 Z M 102 85 "/>
</clipPath>
<clipPath id="bayesian_network_clip-2">
<path clip-rule="nonzero" d="M 223 85 L 325.515625 85 L 325.515625 187.1875 L 223 187.1875 Z M 223 85 "/>
</clipPath>
</defs>
<path fill="none" stroke-width="2.26773" stroke-linecap="butt" stroke-linejoin="miter" stroke="var(--black)" stroke-opacity="1" stroke-miterlimit="10" d="M 28.34625 -0.0015 C 28.34625 15.65475 15.654844 28.346156 -0.00140625 28.346156 C -15.65375 28.346156 -28.345156 15.65475 -28.345156 -0.0015 C -28.345156 -15.653844 -15.65375 -28.34525 -0.00140625 -28.34525 C 15.654844 -28.34525 28.34625 -15.653844 28.34625 -0.0015 Z M 28.34625 -0.0015 " transform="matrix(1, 0, 0, -1, 41.435, 41.436)"/>
<g fill="var(--black)" fill-opacity="1">
<use xlink:href="#bayesian_network_glyph-0-0" x="32.151" y="43.97"/>
</g>
<g fill="var(--black)" fill-opacity="1">
<use xlink:href="#bayesian_network_glyph-1-0" x="43.497" y="46.552"/>
</g>
<path fill="none" stroke-width="2.26773" stroke-linecap="butt" stroke-linejoin="miter" stroke="var(--black)" stroke-opacity="1" stroke-miterlimit="10" d="M 149.670469 -0.0015 C 149.670469 15.65475 136.979062 28.346156 121.322812 28.346156 C 105.670469 28.346156 92.979062 15.65475 92.979062 -0.0015 C 92.979062 -15.653844 105.670469 -28.34525 121.322812 -28.34525 C 136.979062 -28.34525 149.670469 -15.653844 149.670469 -0.0015 Z M 149.670469 -0.0015 " transform="matrix(1, 0, 0, -1, 41.435, 41.436)"/>
<g fill="var(--black)" fill-opacity="1">
<use xlink:href="#bayesian_network_glyph-0-0" x="153.474" y="43.97"/>
</g>
<g fill="var(--black)" fill-opacity="1">
<use xlink:href="#bayesian_network_glyph-1-1" x="164.819" y="46.552"/>
</g>
<g clip-path="url(#bayesian_network_clip-0)">
<path fill="none" stroke-width="2.26773" stroke-linecap="butt" stroke-linejoin="miter" stroke="var(--black)" stroke-opacity="1" stroke-miterlimit="10" d="M 270.994687 -0.0015 C 270.994687 15.65475 258.303281 28.346156 242.647031 28.346156 C 226.994687 28.346156 214.303281 15.65475 214.303281 -0.0015 C 214.303281 -15.653844 226.994687 -28.34525 242.647031 -28.34525 C 258.303281 -28.34525 270.994687 -15.653844 270.994687 -0.0015 Z M 270.994687 -0.0015 " transform="matrix(1, 0, 0, -1, 41.435, 41.436)"/>
</g>
<g fill="var(--black)" fill-opacity="1">
<use xlink:href="#bayesian_network_glyph-0-0" x="274.797" y="43.97"/>
</g>
<g fill="var(--black)" fill-opacity="1">
<use xlink:href="#bayesian_network_glyph-1-2" x="286.142" y="46.552"/>
</g>
<g clip-path="url(#bayesian_network_clip-1)">
<path fill="none" stroke-width="2.26773" stroke-linecap="butt" stroke-linejoin="miter" stroke="var(--black)" stroke-opacity="1" stroke-miterlimit="10" d="M 149.670469 -104.317906 C 149.670469 -88.661656 136.979062 -75.97025 121.322812 -75.97025 C 105.670469 -75.97025 92.979062 -88.661656 92.979062 -104.317906 C 92.979062 -119.97025 105.670469 -132.661656 121.322812 -132.661656 C 136.979062 -132.661656 149.670469 -119.97025 149.670469 -104.317906 Z M 149.670469 -104.317906 " transform="matrix(1, 0, 0, -1, 41.435, 41.436)"/>
</g>
<g fill="var(--black)" fill-opacity="1">
<use xlink:href="#bayesian_network_glyph-0-0" x="153.474" y="148.285"/>
</g>
<g fill="var(--black)" fill-opacity="1">
<use xlink:href="#bayesian_network_glyph-1-3" x="164.819" y="150.867"/>
</g>
<g clip-path="url(#bayesian_network_clip-2)">
<path fill="none" stroke-width="2.26773" stroke-linecap="butt" stroke-linejoin="miter" stroke="var(--black)" stroke-opacity="1" stroke-miterlimit="10" d="M 270.994687 -104.317906 C 270.994687 -88.661656 258.303281 -75.97025 242.647031 -75.97025 C 226.994687 -75.97025 214.303281 -88.661656 214.303281 -104.317906 C 214.303281 -119.97025 226.994687 -132.661656 242.647031 -132.661656 C 258.303281 -132.661656 270.994687 -119.97025 270.994687 -104.317906 Z M 270.994687 -104.317906 " transform="matrix(1, 0, 0, -1, 41.435, 41.436)"/>
</g>
<g fill="var(--black)" fill-opacity="1">
<use xlink:href="#bayesian_network_glyph-0-0" x="274.797" y="148.285"/>
</g>
<g fill="var(--black)" fill-opacity="1">
<use xlink:href="#bayesian_network_glyph-1-4" x="286.142" y="150.867"/>
</g>
<path fill="none" stroke-width="2.26773" stroke-linecap="butt" stroke-linejoin="miter" stroke="var(--black)" stroke-opacity="1" stroke-miterlimit="10" d="M 29.479062 -0.0015 L 87.045469 -0.0015 " transform="matrix(1, 0, 0, -1, 41.435, 41.436)"/>
<path fill-rule="nonzero" fill="var(--black)" fill-opacity="1" d="M 133.277344 41.4375 L 125.605469 37.597656 L 128.480469 41.4375 L 125.605469 45.273438 "/>
<path fill="none" stroke-width="2.26773" stroke-linecap="butt" stroke-linejoin="miter" stroke="var(--black)" stroke-opacity="1" stroke-miterlimit="10" d="M 22.354062 -19.22025 L 95.334531 -81.97025 " transform="matrix(1, 0, 0, -1, 41.435, 41.436)"/>
<path fill-rule="nonzero" fill="var(--black)" fill-opacity="1" d="M 140.40625 126.53125 L 137.089844 118.621094 L 136.769531 123.40625 L 132.085938 124.4375 "/>
<path fill="none" stroke-width="2.26773" stroke-linecap="butt" stroke-linejoin="miter" stroke="var(--black)" stroke-opacity="1" stroke-miterlimit="10" d="M 121.322812 -29.481969 L 121.322812 -70.040562 " transform="matrix(1, 0, 0, -1, 41.435, 41.436)"/>
<path fill-rule="nonzero" fill="var(--black)" fill-opacity="1" d="M 162.757812 116.273438 L 166.597656 108.597656 L 162.757812 111.476562 L 158.921875 108.597656 "/>
<path fill="none" stroke-width="2.26773" stroke-linecap="butt" stroke-linejoin="miter" stroke="var(--black)" stroke-opacity="1" stroke-miterlimit="10" d="M 143.678281 -19.22025 L 216.65875 -81.97025 " transform="matrix(1, 0, 0, -1, 41.435, 41.436)"/>
<path fill-rule="nonzero" fill="var(--black)" fill-opacity="1" d="M 261.730469 126.53125 L 258.414062 118.621094 L 258.09375 123.40625 L 253.410156 124.4375 "/>
<path fill="none" stroke-width="2.26773" stroke-linecap="butt" stroke-linejoin="miter" stroke="var(--black)" stroke-opacity="1" stroke-miterlimit="10" d="M 242.647031 -29.481969 L 242.647031 -70.040562 " transform="matrix(1, 0, 0, -1, 41.435, 41.436)"/>
<path fill-rule="nonzero" fill="var(--black)" fill-opacity="1" d="M 284.082031 116.273438 L 287.921875 108.597656 L 284.082031 111.476562 L 280.246094 108.597656 "/>
<path fill="none" stroke-width="2.26773" stroke-linecap="butt" stroke-linejoin="miter" stroke="var(--black)" stroke-opacity="1" stroke-miterlimit="10" d="M 150.803281 -104.317906 L 208.373594 -104.317906 " transform="matrix(1, 0, 0, -1, 41.435, 41.436)"/>
<path fill-rule="nonzero" fill="var(--black)" fill-opacity="1" d="M 254.601562 145.753906 L 246.929688 141.914062 L 249.808594 145.753906 L 246.929688 149.589844 "/>
</svg>
