<?xml version="1.0" encoding="UTF-8"?>
<svg xmlns="http://www.w3.org/2000/svg" xmlns:xlink="http://www.w3.org/1999/xlink" width="417.403" height="394.159" viewBox="0 0 417.403 394.159">
<style>/* === RDF autogenerated palette === */
:root {
    --axis-color: #000;
    --grid-stroke: rgba(0,0,0,0.2);
    --plot3d-stroke: rgba(0,0,0,0.3);
    --plot3d-grid: rgba(0,0,0,0.2);
}
@media (prefers-color-scheme: dark) {
    :root {
        --axis-color: #fff;
        --grid-stroke: rgba(255,255,255,0.2);
        --plot3d-stroke: rgba(255,255,255,0.3);
        --plot3d-grid: rgba(255,255,255,0.2);
    }
}

/* Light‑mode palette */
.black { fill:#000000; stroke:#000000; }:root { --black: #000000; }.c1 { fill:#FF0001; stroke:#FF0001; }:root { --c1: #FF0001; }.c2 { fill:#00FF02; stroke:#00FF02; }:root { --c2: #00FF02; }.c3 { fill:#0000FF; stroke:#0000FF; }:root { --c3: #0000FF; }.c4 { fill:#FF00FF; stroke:#FF00FF; }:root { --c4: #FF00FF; }.c5 { fill:#00FFFF; stroke:#00FFFF; }:root { --c5: #00FFFF; }.c6 { fill:#FFFF00; stroke:#FFFF00; }:root { --c6: #FFFF00; }.c7 { fill:#FF8000; stroke:#FF8000; }:root { --c7: #FF8000; }.c8 { fill:#8000FF; stroke:#8000FF; }:root { --c8: #8000FF; }.gray { fill:#7f7f7f; stroke:#7f7f7f; }:root { --gray: #7f7f7f; }.grey { fill:#7f7f7f; stroke:#7f7f7f; }:root { --grey: #7f7f7f; }.octonary { fill:#bcbd22; stroke:#bcbd22; }:root { --octonary: #bcbd22; }.primary { fill:#d62728; stroke:#d62728; }:root { --primary: #d62728; }.quaternary { fill:#9467bd; stroke:#9467bd; }:root { --quaternary: #9467bd; }.quinary { fill:#8c564b; stroke:#8c564b; }:root { --quinary: #8c564b; }.secondary { fill:#2ca02c; stroke:#2ca02c; }:root { --secondary: #2ca02c; }.senary { fill:#e377c2; stroke:#e377c2; }:root { --senary: #e377c2; }.septenary { fill:#7f7f7f; stroke:#7f7f7f; }:root { --septenary: #7f7f7f; }.tertiary { fill:#1f77b4; stroke:#1f77b4; }:root { --tertiary: #1f77b4; }.white { fill:#ffffff; stroke:#ffffff; }:root { --white: #ffffff; }

/* Dark overrides */
@media (prefers-color-scheme: dark) {
    .black { fill:#FFFFFF; stroke:#FFFFFF; }:root { --black: #FFFFFF; }.c1 { fill:#FF0001; stroke:#FF0001; }:root { --c1: #FF0001; }.c2 { fill:#00FF02; stroke:#00FF02; }:root { --c2: #00FF02; }.c3 { fill:#0000FF; stroke:#0000FF; }:root { --c3: #0000FF; }.c4 { fill:#FF00FF; stroke:#FF00FF; }:root { --c4: #FF00FF; }.c5 { fill:#00FFFF; stroke:#00FFFF; }:root { --c5: #00FFFF; }.c6 { fill:#FFFF00; stroke:#FFFF00; }:root { --c6: #FFFF00; }.c7 { fill:#FF8000; stroke:#FF8000; }:root { --c7: #FF8000; }.c8 { fill:#8000FF; stroke:#8000FF; }:root { --c8: #8000FF; }.gray { fill:#CCCCCC; stroke:#CCCCCC; }:root { --gray: #CCCCCC; }.grey { fill:#CCCCCC; stroke:#CCCCCC; }:root { --grey: #CCCCCC; }.octonary { fill:#E6DB74; stroke:#E6DB74; }:root { --octonary: #E6DB74; }.primary { fill:#FF4A98; stroke:#FF4A98; }:root { --primary: #FF4A98; }.quaternary { fill:#B4A0FF; stroke:#B4A0FF; }:root { --quaternary: #B4A0FF; }.quinary { fill:#FFB86B; stroke:#FFB86B; }:root { --quinary: #FFB86B; }.secondary { fill:#0AFAFA; stroke:#0AFAFA; }:root { --secondary: #0AFAFA; }.senary { fill:#FF79C6; stroke:#FF79C6; }:root { --senary: #FF79C6; }.septenary { fill:#CCCCCC; stroke:#CCCCCC; }:root { --septenary: #CCCCCC; }.tertiary { fill:#7F83FF; stroke:#7F83FF; }:root { --tertiary: #7F83FF; }.white { fill:#000000; stroke:#000000; }:root { --white: #000000; }
}/* Axis, ticks, legend */
text, .text { fill: var(--axis-color) !important; stroke: none !important; }
.axis line, .axis path,
.tick line, .tick path,
path.domain,
line.grid { stroke: var(--axis-color) !important; }
.legend text { fill: var(--axis-color) !important; }

/* Patch paths that relied on currentColor */
.patch path[style*="stroke: currentColor"] { stroke: var(--axis-color) !important; }

/* Legend background (first child of legend group) */
g.legend > g:first-child > path:first-child {
    fill: rgba(255,255,255,0.8) !important;
    stroke: rgba(0,0,0,0.1) !important;
}
@media (prefers-color-scheme: dark) {
    g.legend > g:first-child > path:first-child {
        fill: rgba(26,26,26,0.8) !important;
        stroke: rgba(255,255,255,0.1) !important;
    }
}

/* 3‑D specific rules */
.plot3d path, .plot3d polygon {
    stroke: var(--plot3d-stroke) !important;
}
.plot3d-grid line { stroke: var(--plot3d-grid) !important; }
.plot3d-surface path[style*="fill:"] {
    fill-opacity: 0.9 !important;
}
@media (prefers-color-scheme: dark) {
    .plot3d-surface path[style*="fill:"] {
        fill-opacity: 0.95 !important;
        filter: saturate(1.2) !important;
    }
}</style>

<defs>
<g class="glyph">
<g id="mrf_factor_example1_glyph-0-0">
<path d="M 8.265625 -2.46875 C 8.265625 -2.546875 8.203125 -2.625 8.09375 -2.625 C 7.9375 -2.625 7.921875 -2.53125 7.875 -2.390625 C 7.40625 -0.875 6.40625 -0.171875 5.625 -0.171875 C 5.03125 -0.171875 4.703125 -0.625 4.703125 -1.328125 C 4.703125 -1.703125 4.765625 -1.984375 5.046875 -3.109375 L 5.640625 -5.453125 C 5.90625 -6.484375 6.484375 -7.25 7.28125 -7.25 C 7.28125 -7.25 7.796875 -7.25 8.15625 -7.03125 C 7.609375 -6.921875 7.40625 -6.515625 7.40625 -6.1875 C 7.40625 -5.765625 7.734375 -5.625 7.96875 -5.625 C 8.484375 -5.625 8.84375 -6.078125 8.84375 -6.546875 C 8.84375 -7.265625 8.03125 -7.59375 7.296875 -7.59375 C 6.25 -7.59375 5.671875 -6.5625 5.515625 -6.234375 C 5.109375 -7.53125 4.046875 -7.59375 3.734375 -7.59375 C 1.984375 -7.59375 1.046875 -5.34375 1.046875 -4.953125 C 1.046875 -4.890625 1.125 -4.796875 1.234375 -4.796875 C 1.375 -4.796875 1.40625 -4.90625 1.453125 -4.96875 C 2.03125 -6.890625 3.1875 -7.25 3.6875 -7.25 C 4.453125 -7.25 4.609375 -6.53125 4.609375 -6.109375 C 4.609375 -5.734375 4.515625 -5.34375 4.3125 -4.515625 L 3.71875 -2.15625 C 3.46875 -1.125 2.96875 -0.171875 2.046875 -0.171875 C 1.96875 -0.171875 1.53125 -0.171875 1.171875 -0.390625 C 1.796875 -0.515625 1.921875 -1.03125 1.921875 -1.234375 C 1.921875 -1.578125 1.671875 -1.796875 1.34375 -1.796875 C 0.9375 -1.796875 0.484375 -1.421875 0.484375 -0.875 C 0.484375 -0.15625 1.296875 0.171875 2.03125 0.171875 C 2.859375 0.171875 3.4375 -0.484375 3.8125 -1.1875 C 4.078125 -0.171875 4.9375 0.171875 5.578125 0.171875 C 7.328125 0.171875 8.265625 -2.078125 8.265625 -2.46875 Z M 8.265625 -2.46875 "/>
</g>
<g id="mrf_factor_example1_glyph-1-0">
<path d="M 5.359375 -2.046875 C 5.359375 -3.140625 4.46875 -4 3.328125 -4.203125 C 4.359375 -4.5 5.03125 -5.375 5.03125 -6.3125 C 5.03125 -7.25 4.046875 -7.953125 2.890625 -7.953125 C 1.703125 -7.953125 0.8125 -7.21875 0.8125 -6.34375 C 0.8125 -5.875 1.1875 -5.765625 1.359375 -5.765625 C 1.609375 -5.765625 1.90625 -5.953125 1.90625 -6.3125 C 1.90625 -6.6875 1.609375 -6.859375 1.34375 -6.859375 C 1.28125 -6.859375 1.25 -6.859375 1.21875 -6.84375 C 1.671875 -7.65625 2.796875 -7.65625 2.859375 -7.65625 C 3.25 -7.65625 4.03125 -7.484375 4.03125 -6.3125 C 4.03125 -6.078125 4 -5.421875 3.640625 -4.90625 C 3.28125 -4.375 2.875 -4.34375 2.5625 -4.328125 L 2.203125 -4.296875 C 2 -4.28125 1.953125 -4.265625 1.953125 -4.15625 C 1.953125 -4.046875 2.015625 -4.046875 2.21875 -4.046875 L 2.765625 -4.046875 C 3.796875 -4.046875 4.25 -3.203125 4.25 -2.0625 C 4.25 -0.484375 3.4375 -0.078125 2.84375 -0.078125 C 2.265625 -0.078125 1.296875 -0.34375 0.9375 -1.140625 C 1.328125 -1.078125 1.671875 -1.296875 1.671875 -1.71875 C 1.671875 -2.0625 1.421875 -2.3125 1.09375 -2.3125 C 0.796875 -2.3125 0.484375 -2.140625 0.484375 -1.6875 C 0.484375 -0.625 1.546875 0.25 2.875 0.25 C 4.296875 0.25 5.359375 -0.84375 5.359375 -2.046875 Z M 5.359375 -2.046875 "/>
</g>
<g id="mrf_factor_example1_glyph-1-1">
<path d="M 4.90625 0 L 4.90625 -0.34375 L 4.53125 -0.34375 C 3.484375 -0.34375 3.4375 -0.484375 3.4375 -0.921875 L 3.4375 -7.65625 C 3.4375 -7.9375 3.4375 -7.953125 3.203125 -7.953125 C 2.921875 -7.625 2.3125 -7.1875 1.09375 -7.1875 L 1.09375 -6.84375 C 1.359375 -6.84375 1.953125 -6.84375 2.625 -7.140625 L 2.625 -0.921875 C 2.625 -0.484375 2.578125 -0.34375 1.53125 -0.34375 L 1.15625 -0.34375 L 1.15625 0 C 1.484375 -0.03125 2.640625 -0.03125 3.03125 -0.03125 C 3.4375 -0.03125 4.578125 -0.03125 4.90625 0 Z M 4.90625 0 "/>
</g>
<g id="mrf_factor_example1_glyph-1-2">
<path d="M 5.265625 -2.015625 L 5 -2.015625 C 4.953125 -1.8125 4.859375 -1.140625 4.75 -0.953125 C 4.65625 -0.84375 3.984375 -0.84375 3.625 -0.84375 L 1.40625 -0.84375 C 1.734375 -1.125 2.46875 -1.890625 2.765625 -2.171875 C 4.59375 -3.84375 5.265625 -4.46875 5.265625 -5.65625 C 5.265625 -7.03125 4.171875 -7.953125 2.78125 -7.953125 C 1.40625 -7.953125 0.578125 -6.765625 0.578125 -5.734375 C 0.578125 -5.125 1.109375 -5.125 1.140625 -5.125 C 1.40625 -5.125 1.703125 -5.3125 1.703125 -5.6875 C 1.703125 -6.03125 1.484375 -6.25 1.140625 -6.25 C 1.046875 -6.25 1.015625 -6.25 0.984375 -6.234375 C 1.203125 -7.046875 1.859375 -7.609375 2.625 -7.609375 C 3.640625 -7.609375 4.265625 -6.75 4.265625 -5.65625 C 4.265625 -4.640625 3.6875 -3.75 3 -2.984375 L 0.578125 -0.28125 L 0.578125 0 L 4.953125 0 Z M 5.265625 -2.015625 "/>
</g>
<g id="mrf_factor_example1_glyph-1-3">
<path d="M 5.515625 -2 L 5.515625 -2.34375 L 4.3125 -2.34375 L 4.3125 -7.78125 C 4.3125 -8.015625 4.3125 -8.0625 4.140625 -8.0625 C 4.046875 -8.0625 4.015625 -8.0625 3.921875 -7.921875 L 0.328125 -2.34375 L 0.328125 -2 L 3.46875 -2 L 3.46875 -0.90625 C 3.46875 -0.46875 3.4375 -0.34375 2.5625 -0.34375 L 2.328125 -0.34375 L 2.328125 0 C 2.609375 -0.03125 3.546875 -0.03125 3.890625 -0.03125 C 4.21875 -0.03125 5.171875 -0.03125 5.453125 0 L 5.453125 -0.34375 L 5.21875 -0.34375 C 4.34375 -0.34375 4.3125 -0.46875 4.3125 -0.90625 L 4.3125 -2 Z M 3.53125 -2.34375 L 0.625 -2.34375 L 3.53125 -6.84375 Z M 3.53125 -2.34375 "/>
</g>
<g id="mrf_factor_example1_glyph-1-4">
<path d="M 5.265625 -2.40625 C 5.265625 -3.828125 4.296875 -5.015625 3.046875 -5.015625 C 2.359375 -5.015625 1.84375 -4.703125 1.53125 -4.375 L 1.53125 -6.84375 C 2.046875 -6.6875 2.46875 -6.671875 2.59375 -6.671875 C 3.9375 -6.671875 4.8125 -7.65625 4.8125 -7.828125 C 4.8125 -7.875 4.78125 -7.9375 4.703125 -7.9375 C 4.703125 -7.9375 4.65625 -7.9375 4.546875 -7.890625 C 3.890625 -7.609375 3.3125 -7.5625 3 -7.5625 C 2.21875 -7.5625 1.65625 -7.8125 1.421875 -7.90625 C 1.34375 -7.9375 1.296875 -7.9375 1.296875 -7.9375 C 1.203125 -7.9375 1.203125 -7.859375 1.203125 -7.671875 L 1.203125 -4.125 C 1.203125 -3.90625 1.203125 -3.84375 1.34375 -3.84375 C 1.40625 -3.84375 1.421875 -3.84375 1.546875 -4 C 1.875 -4.484375 2.4375 -4.765625 3.03125 -4.765625 C 3.671875 -4.765625 3.984375 -4.1875 4.078125 -3.984375 C 4.28125 -3.515625 4.296875 -2.921875 4.296875 -2.46875 C 4.296875 -2.015625 4.296875 -1.34375 3.953125 -0.796875 C 3.6875 -0.375 3.234375 -0.078125 2.703125 -0.078125 C 1.90625 -0.078125 1.140625 -0.609375 0.921875 -1.484375 C 0.984375 -1.453125 1.046875 -1.453125 1.109375 -1.453125 C 1.3125 -1.453125 1.640625 -1.5625 1.640625 -1.96875 C 1.640625 -2.3125 1.40625 -2.5 1.109375 -2.5 C 0.890625 -2.5 0.578125 -2.390625 0.578125 -1.921875 C 0.578125 -0.90625 1.40625 0.25 2.71875 0.25 C 4.078125 0.25 5.265625 -0.890625 5.265625 -2.40625 Z M 5.265625 -2.40625 "/>
</g>
<g id="mrf_factor_example1_glyph-1-5">
<path d="M 5.359375 -2.4375 C 5.359375 -4.03125 4.25 -5.09375 3.046875 -5.09375 C 1.984375 -5.09375 1.59375 -4.171875 1.46875 -3.84375 L 1.46875 -4.15625 C 1.46875 -7.1875 2.9375 -7.65625 3.578125 -7.65625 C 4.015625 -7.65625 4.453125 -7.53125 4.671875 -7.171875 C 4.53125 -7.171875 4.078125 -7.171875 4.078125 -6.6875 C 4.078125 -6.421875 4.25 -6.1875 4.5625 -6.1875 C 4.859375 -6.1875 5.0625 -6.375 5.0625 -6.71875 C 5.0625 -7.34375 4.609375 -7.953125 3.578125 -7.953125 C 2.0625 -7.953125 0.484375 -6.40625 0.484375 -3.78125 C 0.484375 -0.484375 1.921875 0.25 2.9375 0.25 C 4.25 0.25 5.359375 -0.890625 5.359375 -2.4375 Z M 4.375 -2.453125 C 4.375 -1.84375 4.375 -1.296875 4.140625 -0.84375 C 3.84375 -0.28125 3.421875 -0.078125 2.9375 -0.078125 C 2.1875 -0.078125 1.828125 -0.734375 1.71875 -0.984375 C 1.609375 -1.296875 1.5 -1.890625 1.5 -2.71875 C 1.5 -3.671875 1.921875 -4.859375 3 -4.859375 C 3.65625 -4.859375 4 -4.40625 4.1875 -4 C 4.375 -3.5625 4.375 -2.96875 4.375 -2.453125 Z M 4.375 -2.453125 "/>
</g>
</g>
<clipPath id="mrf_factor_example1_clip-0">
<path clip-rule="nonzero" d="M 302 235 L 417.402344 235 L 417.402344 356 L 302 356 Z M 302 235 "/>
</clipPath>
<clipPath id="mrf_factor_example1_clip-1">
<path clip-rule="nonzero" d="M 0 0 L 226 0 L 226 394.160156 L 0 394.160156 Z M 0 0 "/>
</clipPath>
<clipPath id="mrf_factor_example1_clip-2">
<path clip-rule="nonzero" d="M 30 0 L 310 0 L 310 394.160156 L 30 394.160156 Z M 30 0 "/>
</clipPath>
<clipPath id="mrf_factor_example1_clip-3">
<path clip-rule="nonzero" d="M 130 206 L 417.402344 206 L 417.402344 385 L 130 385 Z M 130 206 "/>
</clipPath>
</defs>
<path fill="none" stroke-width="2.26773" stroke-linecap="butt" stroke-linejoin="miter" stroke="var(--black)" stroke-opacity="1" stroke-miterlimit="10" d="M 28.3455 0.000875 C 28.3455 15.657125 15.654094 28.348531 0.00175 28.348531 C -15.6545 28.348531 -28.345906 15.657125 -28.345906 0.000875 C -28.345906 -15.655375 -15.6545 -28.346781 0.00175 -28.346781 C 15.654094 -28.346781 28.3455 -15.655375 28.3455 0.000875 Z M 28.3455 0.000875 " transform="matrix(1, 0, 0, -1, 134.717, 197.079)"/>
<g fill="var(--black)" fill-opacity="1">
<use xlink:href="#mrf_factor_example1_glyph-0-0" x="126.752" y="199.494"/>
</g>
<g fill="var(--black)" fill-opacity="1">
<use xlink:href="#mrf_factor_example1_glyph-1-0" x="136.331" y="202.077"/>
</g>
<path fill="none" stroke-width="2.26773" stroke-linecap="butt" stroke-linejoin="miter" stroke="var(--black)" stroke-opacity="1" stroke-miterlimit="10" d="M -55.865437 98.383688 C -55.865437 114.039938 -68.556844 126.731344 -84.213094 126.731344 C -99.869344 126.731344 -112.56075 114.039938 -112.56075 98.383688 C -112.56075 82.731344 -99.869344 70.039938 -84.213094 70.039938 C -68.556844 70.039938 -55.865437 82.731344 -55.865437 98.383688 Z M -55.865437 98.383688 " transform="matrix(1, 0, 0, -1, 134.717, 197.079)"/>
<g fill="var(--black)" fill-opacity="1">
<use xlink:href="#mrf_factor_example1_glyph-0-0" x="42.541" y="101.11"/>
</g>
<g fill="var(--black)" fill-opacity="1">
<use xlink:href="#mrf_factor_example1_glyph-1-1" x="52.12" y="103.692"/>
</g>
<path fill="none" stroke-width="2.26773" stroke-linecap="butt" stroke-linejoin="miter" stroke="var(--black)" stroke-opacity="1" stroke-miterlimit="10" d="M -55.865437 -98.385844 C -55.865437 -82.729594 -68.556844 -70.038187 -84.213094 -70.038187 C -99.869344 -70.038187 -112.56075 -82.729594 -112.56075 -98.385844 C -112.56075 -114.042094 -99.869344 -126.7335 -84.213094 -126.7335 C -68.556844 -126.7335 -55.865437 -114.042094 -55.865437 -98.385844 Z M -55.865437 -98.385844 " transform="matrix(1, 0, 0, -1, 134.717, 197.079)"/>
<g fill="var(--black)" fill-opacity="1">
<use xlink:href="#mrf_factor_example1_glyph-0-0" x="42.541" y="297.879"/>
</g>
<g fill="var(--black)" fill-opacity="1">
<use xlink:href="#mrf_factor_example1_glyph-1-2" x="52.12" y="300.461"/>
</g>
<path fill="none" stroke-width="2.26773" stroke-linecap="butt" stroke-linejoin="miter" stroke="var(--black)" stroke-opacity="1" stroke-miterlimit="10" d="M 112.560344 98.383688 C 112.560344 114.039938 99.868938 126.731344 84.212688 126.731344 C 68.556438 126.731344 55.865031 114.039938 55.865031 98.383688 C 55.865031 82.731344 68.556438 70.039938 84.212688 70.039938 C 99.868938 70.039938 112.560344 82.731344 112.560344 98.383688 Z M 112.560344 98.383688 " transform="matrix(1, 0, 0, -1, 134.717, 197.079)"/>
<g fill="var(--black)" fill-opacity="1">
<use xlink:href="#mrf_factor_example1_glyph-0-0" x="210.963" y="101.11"/>
</g>
<g fill="var(--black)" fill-opacity="1">
<use xlink:href="#mrf_factor_example1_glyph-1-3" x="220.542" y="103.692"/>
</g>
<path fill="none" stroke-width="2.26773" stroke-linecap="butt" stroke-linejoin="miter" stroke="var(--black)" stroke-opacity="1" stroke-miterlimit="10" d="M 112.560344 -98.385844 C 112.560344 -82.729594 99.868938 -70.038187 84.212688 -70.038187 C 68.556438 -70.038187 55.865031 -82.729594 55.865031 -98.385844 C 55.865031 -114.042094 68.556438 -126.7335 84.212688 -126.7335 C 99.868938 -126.7335 112.560344 -114.042094 112.560344 -98.385844 Z M 112.560344 -98.385844 " transform="matrix(1, 0, 0, -1, 134.717, 197.079)"/>
<g fill="var(--black)" fill-opacity="1">
<use xlink:href="#mrf_factor_example1_glyph-0-0" x="210.963" y="297.879"/>
</g>
<g fill="var(--black)" fill-opacity="1">
<use xlink:href="#mrf_factor_example1_glyph-1-4" x="220.542" y="300.461"/>
</g>
<g clip-path="url(#mrf_factor_example1_clip-0)">
<path fill="none" stroke-width="2.26773" stroke-linecap="butt" stroke-linejoin="miter" stroke="var(--black)" stroke-opacity="1" stroke-miterlimit="10" d="M 256.560344 -98.385844 C 256.560344 -82.729594 243.868938 -70.038187 228.212688 -70.038187 C 212.556438 -70.038187 199.868938 -82.729594 199.868938 -98.385844 C 199.868938 -114.042094 212.556438 -126.7335 228.212688 -126.7335 C 243.868938 -126.7335 256.560344 -114.042094 256.560344 -98.385844 Z M 256.560344 -98.385844 " transform="matrix(1, 0, 0, -1, 134.717, 197.079)"/>
</g>
<g fill="var(--black)" fill-opacity="1">
<use xlink:href="#mrf_factor_example1_glyph-0-0" x="354.963" y="297.879"/>
</g>
<g fill="var(--black)" fill-opacity="1">
<use xlink:href="#mrf_factor_example1_glyph-1-5" x="364.542" y="300.461"/>
</g>
<path fill="none" stroke-width="2.26773" stroke-linecap="butt" stroke-linejoin="miter" stroke="var(--black)" stroke-opacity="1" stroke-miterlimit="10" d="M -84.213094 68.903219 L -84.213094 -68.905375 " transform="matrix(1, 0, 0, -1, 134.717, 197.079)"/>
<path fill="none" stroke-width="2.26773" stroke-linecap="butt" stroke-linejoin="miter" stroke="var(--black)" stroke-opacity="1" stroke-miterlimit="10" d="M -65.045125 75.989156 L -19.170125 22.395406 " transform="matrix(1, 0, 0, -1, 134.717, 197.079)"/>
<path fill="none" stroke-width="2.26773" stroke-linecap="butt" stroke-linejoin="miter" stroke="var(--black)" stroke-opacity="1" stroke-miterlimit="10" d="M -65.045125 -75.991312 L -19.170125 -22.393656 " transform="matrix(1, 0, 0, -1, 134.717, 197.079)"/>
<path fill="none" stroke-width="2.26773" stroke-linecap="butt" stroke-linejoin="miter" stroke="var(--black)" stroke-opacity="1" stroke-miterlimit="10" d="M 19.169719 22.395406 L 65.044719 75.989156 " transform="matrix(1, 0, 0, -1, 134.717, 197.079)"/>
<path fill="none" stroke-width="2.26773" stroke-linecap="butt" stroke-linejoin="miter" stroke="var(--black)" stroke-opacity="1" stroke-miterlimit="10" d="M 19.169719 -22.393656 L 65.044719 -75.991312 " transform="matrix(1, 0, 0, -1, 134.717, 197.079)"/>
<path fill="none" stroke-width="2.26773" stroke-linecap="butt" stroke-linejoin="miter" stroke="var(--black)" stroke-opacity="1" stroke-miterlimit="10" d="M 84.212688 68.903219 L 84.212688 -68.905375 " transform="matrix(1, 0, 0, -1, 134.717, 197.079)"/>
<path fill="none" stroke-width="2.26773" stroke-linecap="butt" stroke-linejoin="miter" stroke="var(--black)" stroke-opacity="1" stroke-miterlimit="10" d="M 113.693156 -98.385844 L 198.732219 -98.385844 " transform="matrix(1, 0, 0, -1, 134.717, 197.079)"/>
<g clip-path="url(#mrf_factor_example1_clip-1)">
<path fill="none" stroke-width="3.4016" stroke-linecap="butt" stroke-linejoin="miter" stroke="rgb(100%, 0%, 0%)" stroke-opacity="1" stroke-miterlimit="10" d="M -121.064656 149.411031 L -121.064656 -149.409281 C -121.064656 -168.198344 -110.467 -172.491312 -97.392781 -158.999125 L 33.021281 -24.424906 C 46.0955 -10.936625 46.0955 10.934469 33.021281 24.426656 L -97.392781 159.000875 C -110.467 172.489156 -121.064656 168.196188 -121.064656 149.411031 Z M -121.064656 149.411031 " transform="matrix(1, 0, 0, -1, 134.717, 197.079)"/>
</g>
<g clip-path="url(#mrf_factor_example1_clip-2)">
<path fill="none" stroke-width="3.4016" stroke-linecap="butt" stroke-linejoin="miter" stroke="rgb(0%, 0%, 100%)" stroke-opacity="1" stroke-miterlimit="10" d="M -45.93575 23.1415 L 101.802531 160.286031 C 115.572063 173.067281 126.732219 168.196188 126.732219 149.411031 L 126.732219 -149.409281 C 126.732219 -168.198344 115.572063 -173.065531 101.802531 -160.284281 L -45.93575 -23.13975 C -59.705281 -10.362406 -59.705281 10.36025 -45.93575 23.1415 Z M -45.93575 23.1415 " transform="matrix(1, 0, 0, -1, 134.717, 197.079)"/>
</g>
<g clip-path="url(#mrf_factor_example1_clip-3)">
<path fill="none" stroke-width="3.4016" stroke-linecap="butt" stroke-linejoin="miter" stroke="rgb(0%, 59.999084%, 0%)" stroke-opacity="1" stroke-miterlimit="10" d="M 235.017375 -57.565531 L 77.408 -57.565531 C 58.622844 -57.565531 43.392375 -72.796 43.392375 -91.581156 L 43.392375 -105.190531 C 43.392375 -123.975687 58.622844 -139.206156 77.408 -139.206156 L 235.017375 -139.206156 C 253.802531 -139.206156 269.033 -123.975687 269.033 -105.190531 L 269.033 -91.581156 C 269.033 -72.796 253.802531 -57.565531 235.017375 -57.565531 Z M 235.017375 -57.565531 " transform="matrix(1, 0, 0, -1, 134.717, 197.079)"/>
</g>
</svg>
