<?xml version="1.0" encoding="UTF-8"?>
<svg xmlns="http://www.w3.org/2000/svg" xmlns:xlink="http://www.w3.org/1999/xlink" width="288.53" height="212.489" viewBox="0 0 288.53 212.489">
<style>/* === RDF autogenerated palette === */
:root {
    --axis-color: #000;
    --grid-stroke: rgba(0,0,0,0.2);
    --plot3d-stroke: rgba(0,0,0,0.3);
    --plot3d-grid: rgba(0,0,0,0.2);
}
@media (prefers-color-scheme: dark) {
    :root {
        --axis-color: #fff;
        --grid-stroke: rgba(255,255,255,0.2);
        --plot3d-stroke: rgba(255,255,255,0.3);
        --plot3d-grid: rgba(255,255,255,0.2);
    }
}

/* Light‑mode palette */
.black { fill:#000000; stroke:#000000; }:root { --black: #000000; }.c1 { fill:#FF0001; stroke:#FF0001; }:root { --c1: #FF0001; }.c2 { fill:#00FF02; stroke:#00FF02; }:root { --c2: #00FF02; }.c3 { fill:#0000FF; stroke:#0000FF; }:root { --c3: #0000FF; }.c4 { fill:#FF00FF; stroke:#FF00FF; }:root { --c4: #FF00FF; }.c5 { fill:#00FFFF; stroke:#00FFFF; }:root { --c5: #00FFFF; }.c6 { fill:#FFFF00; stroke:#FFFF00; }:root { --c6: #FFFF00; }.c7 { fill:#FF8000; stroke:#FF8000; }:root { --c7: #FF8000; }.c8 { fill:#8000FF; stroke:#8000FF; }:root { --c8: #8000FF; }.gray { fill:#7f7f7f; stroke:#7f7f7f; }:root { --gray: #7f7f7f; }.grey { fill:#7f7f7f; stroke:#7f7f7f; }:root { --grey: #7f7f7f; }.octonary { fill:#bcbd22; stroke:#bcbd22; }:root { --octonary: #bcbd22; }.primary { fill:#d62728; stroke:#d62728; }:root { --primary: #d62728; }.quaternary { fill:#9467bd; stroke:#9467bd; }:root { --quaternary: #9467bd; }.quinary { fill:#8c564b; stroke:#8c564b; }:root { --quinary: #8c564b; }.secondary { fill:#2ca02c; stroke:#2ca02c; }:root { --secondary: #2ca02c; }.senary { fill:#e377c2; stroke:#e377c2; }:root { --senary: #e377c2; }.septenary { fill:#7f7f7f; stroke:#7f7f7f; }:root { --septenary: #7f7f7f; }.tertiary { fill:#1f77b4; stroke:#1f77b4; }:root { --tertiary: #1f77b4; }.white { fill:#ffffff; stroke:#ffffff; }:root { --white: #ffffff; }

/* Dark overrides */
@media (prefers-color-scheme: dark) {
    .black { fill:#FFFFFF; stroke:#FFFFFF; }:root { --black: #FFFFFF; }.c1 { fill:#FF0001; stroke:#FF0001; }:root { --c1: #FF0001; }.c2 { fill:#00FF02; stroke:#00FF02; }:root { --c2: #00FF02; }.c3 { fill:#0000FF; stroke:#0000FF; }:root { --c3: #0000FF; }.c4 { fill:#FF00FF; stroke:#FF00FF; }:root { --c4: #FF00FF; }.c5 { fill:#00FFFF; stroke:#00FFFF; }:root { --c5: #00FFFF; }.c6 { fill:#FFFF00; stroke:#FFFF00; }:root { --c6: #FFFF00; }.c7 { fill:#FF8000; stroke:#FF8000; }:root { --c7: #FF8000; }.c8 { fill:#8000FF; stroke:#8000FF; }:root { --c8: #8000FF; }.gray { fill:#CCCCCC; stroke:#CCCCCC; }:root { --gray: #CCCCCC; }.grey { fill:#CCCCCC; stroke:#CCCCCC; }:root { --grey: #CCCCCC; }.octonary { fill:#E6DB74; stroke:#E6DB74; }:root { --octonary: #E6DB74; }.primary { fill:#FF4A98; stroke:#FF4A98; }:root { --primary: #FF4A98; }.quaternary { fill:#B4A0FF; stroke:#B4A0FF; }:root { --quaternary: #B4A0FF; }.quinary { fill:#FFB86B; stroke:#FFB86B; }:root { --quinary: #FFB86B; }.secondary { fill:#0AFAFA; stroke:#0AFAFA; }:root { --secondary: #0AFAFA; }.senary { fill:#FF79C6; stroke:#FF79C6; }:root { --senary: #FF79C6; }.septenary { fill:#CCCCCC; stroke:#CCCCCC; }:root { --septenary: #CCCCCC; }.tertiary { fill:#7F83FF; stroke:#7F83FF; }:root { --tertiary: #7F83FF; }.white { fill:#000000; stroke:#000000; }:root { --white: #000000; }
}/* Axis, ticks, legend */
text, .text { fill: var(--axis-color) !important; stroke: none !important; }
.axis line, .axis path,
.tick line, .tick path,
path.domain,
line.grid { stroke: var(--axis-color) !important; }
.legend text { fill: var(--axis-color) !important; }

/* Patch paths that relied on currentColor */
.patch path[style*="stroke: currentColor"] { stroke: var(--axis-color) !important; }

/* Legend background (first child of legend group) */
g.legend > g:first-child > path:first-child {
    fill: rgba(255,255,255,0.8) !important;
    stroke: rgba(0,0,0,0.1) !important;
}
@media (prefers-color-scheme: dark) {
    g.legend > g:first-child > path:first-child {
        fill: rgba(26,26,26,0.8) !important;
        stroke: rgba(255,255,255,0.1) !important;
    }
}

/* 3‑D specific rules */
.plot3d path, .plot3d polygon {
    stroke: var(--plot3d-stroke) !important;
}
.plot3d-grid line { stroke: var(--plot3d-grid) !important; }
.plot3d-surface path[style*="fill:"] {
    fill-opacity: 0.9 !important;
}
@media (prefers-color-scheme: dark) {
    .plot3d-surface path[style*="fill:"] {
        fill-opacity: 0.95 !important;
        filter: saturate(1.2) !important;
    }
}</style>

<defs>
<g class="glyph">
<g id="polynomial_network_glyph-0-0">
<path d="M 9.546875 -7.046875 C 9.546875 -7.421875 9.21875 -7.421875 8.90625 -7.421875 L 5.09375 -7.421875 C 2.515625 -7.421875 0.65625 -4.546875 0.65625 -2.515625 C 0.65625 -1.046875 1.59375 0.171875 3.15625 0.171875 C 5.1875 0.171875 7.40625 -2.015625 7.40625 -4.59375 C 7.40625 -5.265625 7.25 -5.921875 6.828125 -6.484375 L 8.75 -6.484375 C 8.96875 -6.484375 9.546875 -6.484375 9.546875 -7.046875 Z M 6.375 -4.796875 C 6.375 -4.203125 6.09375 -2.75 5.5 -1.75 C 4.875 -0.734375 3.9375 -0.171875 3.171875 -0.171875 C 2.296875 -0.171875 1.65625 -0.84375 1.65625 -2.03125 C 1.65625 -3.0625 2.265625 -6.484375 4.796875 -6.484375 C 5.546875 -6.484375 6.375 -6.125 6.375 -4.796875 Z M 6.375 -4.796875 "/>
</g>
<g id="polynomial_network_glyph-0-1">
<path d="M 8.171875 -6.703125 C 8.203125 -6.78125 8.234375 -6.890625 8.234375 -6.984375 C 8.234375 -7.25 8.03125 -7.421875 7.765625 -7.421875 C 7.609375 -7.421875 7.25 -7.359375 7.109375 -6.828125 L 5.84375 -1.78125 C 5.75 -1.46875 5.75 -1.421875 5.609375 -1.234375 C 5.265625 -0.75 4.703125 -0.171875 3.875 -0.171875 C 2.90625 -0.171875 2.828125 -1.125 2.828125 -1.578125 C 2.828125 -2.5625 3.28125 -3.890625 3.75 -5.125 C 3.9375 -5.625 4.046875 -5.875 4.046875 -6.21875 C 4.046875 -6.9375 3.53125 -7.59375 2.6875 -7.59375 C 1.109375 -7.59375 0.46875 -5.09375 0.46875 -4.953125 C 0.46875 -4.890625 0.53125 -4.796875 0.65625 -4.796875 C 0.8125 -4.796875 0.828125 -4.875 0.890625 -5.109375 C 1.3125 -6.5625 1.96875 -7.25 2.640625 -7.25 C 2.796875 -7.25 3.078125 -7.25 3.078125 -6.6875 C 3.078125 -6.234375 2.890625 -5.734375 2.640625 -5.078125 C 1.796875 -2.828125 1.796875 -2.25 1.796875 -1.84375 C 1.796875 -0.203125 2.96875 0.171875 3.828125 0.171875 C 4.328125 0.171875 4.9375 0.015625 5.546875 -0.625 L 5.5625 -0.609375 C 5.296875 0.40625 5.125 1.078125 4.53125 1.921875 C 4.0625 2.578125 3.390625 3.171875 2.546875 3.171875 C 2.34375 3.171875 1.515625 3.140625 1.25 2.34375 C 1.3125 2.359375 1.421875 2.359375 1.421875 2.359375 C 1.953125 2.359375 2.296875 1.90625 2.296875 1.515625 C 2.296875 1.125 1.96875 0.984375 1.703125 0.984375 C 1.421875 0.984375 0.828125 1.1875 0.828125 2.03125 C 0.828125 2.90625 1.5625 3.515625 2.546875 3.515625 C 4.265625 3.515625 6.015625 1.921875 6.484375 0.015625 Z M 8.171875 -6.703125 "/>
</g>
<g id="polynomial_network_glyph-0-2">
<path d="M 8.265625 -2.46875 C 8.265625 -2.546875 8.203125 -2.625 8.09375 -2.625 C 7.9375 -2.625 7.921875 -2.53125 7.875 -2.390625 C 7.40625 -0.875 6.40625 -0.171875 5.625 -0.171875 C 5.03125 -0.171875 4.703125 -0.625 4.703125 -1.328125 C 4.703125 -1.703125 4.765625 -1.984375 5.046875 -3.109375 L 5.640625 -5.453125 C 5.90625 -6.484375 6.484375 -7.25 7.28125 -7.25 C 7.28125 -7.25 7.796875 -7.25 8.15625 -7.03125 C 7.609375 -6.921875 7.40625 -6.515625 7.40625 -6.1875 C 7.40625 -5.765625 7.734375 -5.625 7.96875 -5.625 C 8.484375 -5.625 8.84375 -6.078125 8.84375 -6.546875 C 8.84375 -7.265625 8.03125 -7.59375 7.296875 -7.59375 C 6.25 -7.59375 5.671875 -6.5625 5.515625 -6.234375 C 5.109375 -7.53125 4.046875 -7.59375 3.734375 -7.59375 C 1.984375 -7.59375 1.046875 -5.34375 1.046875 -4.953125 C 1.046875 -4.890625 1.125 -4.796875 1.234375 -4.796875 C 1.375 -4.796875 1.40625 -4.90625 1.453125 -4.96875 C 2.03125 -6.890625 3.1875 -7.25 3.6875 -7.25 C 4.453125 -7.25 4.609375 -6.53125 4.609375 -6.109375 C 4.609375 -5.734375 4.515625 -5.34375 4.3125 -4.515625 L 3.71875 -2.15625 C 3.46875 -1.125 2.96875 -0.171875 2.046875 -0.171875 C 1.96875 -0.171875 1.53125 -0.171875 1.171875 -0.390625 C 1.796875 -0.515625 1.921875 -1.03125 1.921875 -1.234375 C 1.921875 -1.578125 1.671875 -1.796875 1.34375 -1.796875 C 0.9375 -1.796875 0.484375 -1.421875 0.484375 -0.875 C 0.484375 -0.15625 1.296875 0.171875 2.03125 0.171875 C 2.859375 0.171875 3.4375 -0.484375 3.8125 -1.1875 C 4.078125 -0.171875 4.9375 0.171875 5.578125 0.171875 C 7.328125 0.171875 8.265625 -2.078125 8.265625 -2.46875 Z M 8.265625 -2.46875 "/>
</g>
<g id="polynomial_network_glyph-0-3">
<path d="M 9.84375 -1.015625 C 9.84375 -1.171875 9.734375 -1.171875 9.671875 -1.171875 C 9.546875 -1.171875 9.515625 -1.125 9.46875 -0.984375 C 9.3125 -0.546875 8.921875 -0.171875 8.5 -0.171875 C 7.96875 -0.171875 7.96875 -1.28125 7.96875 -2.328125 C 9.734375 -4.421875 10.140625 -6.609375 10.140625 -6.609375 C 10.140625 -6.765625 10 -6.765625 9.953125 -6.765625 C 9.796875 -6.765625 9.78125 -6.71875 9.71875 -6.40625 C 9.484375 -5.640625 9.046875 -4.3125 7.96875 -2.890625 L 7.96875 -4.359375 C 7.96875 -6.03125 7.03125 -7.59375 5.203125 -7.59375 C 2.9375 -7.59375 0.6875 -5.125 0.6875 -2.6875 C 0.6875 -1.1875 1.625 0.171875 3.375 0.171875 C 4.4375 0.171875 5.71875 -0.234375 6.9375 -1.28125 C 7.1875 -0.3125 7.71875 0.171875 8.453125 0.171875 C 9.390625 0.171875 9.84375 -0.796875 9.84375 -1.015625 Z M 6.890625 -1.6875 C 5.375 -0.328125 4.015625 -0.171875 3.40625 -0.171875 C 2.1875 -0.171875 1.84375 -1.25 1.84375 -2.0625 C 1.84375 -2.8125 2.21875 -4.5625 2.75 -5.515625 C 3.46875 -6.71875 4.421875 -7.25 5.203125 -7.25 C 6.875 -7.25 6.875 -5.0625 6.875 -3.609375 L 6.859375 -2.3125 C 6.859375 -1.96875 6.875 -1.875 6.890625 -1.6875 Z M 6.890625 -1.6875 "/>
</g>
<g id="polynomial_network_glyph-0-4">
<path d="M 9.5625 -2.46875 C 9.5625 -2.546875 9.484375 -2.625 9.390625 -2.625 C 9.234375 -2.625 9.21875 -2.5625 9.125 -2.265625 C 8.734375 -0.859375 8.078125 -0.171875 7.40625 -0.171875 C 7.234375 -0.171875 6.953125 -0.1875 6.953125 -0.734375 C 6.953125 -1.171875 7.140625 -1.6875 7.25 -1.921875 C 7.59375 -2.875 8.3125 -4.796875 8.3125 -5.78125 C 8.3125 -6.8125 7.71875 -7.59375 6.40625 -7.59375 C 4.875 -7.59375 4.0625 -6.515625 3.75 -6.078125 C 3.703125 -7.0625 3 -7.59375 2.234375 -7.59375 C 1.6875 -7.59375 1.3125 -7.265625 1.015625 -6.6875 C 0.703125 -6.0625 0.46875 -5.03125 0.46875 -4.953125 C 0.46875 -4.890625 0.53125 -4.796875 0.65625 -4.796875 C 0.796875 -4.796875 0.8125 -4.828125 0.90625 -5.21875 C 1.1875 -6.265625 1.5 -7.25 2.1875 -7.25 C 2.578125 -7.25 2.71875 -6.96875 2.71875 -6.453125 C 2.71875 -6.078125 2.546875 -5.40625 2.421875 -4.875 L 1.953125 -3.015625 L 1.59375 -1.59375 C 1.484375 -1.15625 1.296875 -0.34375 1.296875 -0.265625 C 1.296875 -0.015625 1.484375 0.171875 1.734375 0.171875 C 1.953125 0.171875 2.1875 0.0625 2.328125 -0.1875 C 2.359375 -0.28125 2.515625 -0.875 2.59375 -1.21875 L 2.984375 -2.765625 L 3.546875 -5.046875 C 3.578125 -5.140625 4.015625 -6.015625 4.65625 -6.5625 C 5.09375 -6.96875 5.6875 -7.25 6.359375 -7.25 C 7.046875 -7.25 7.28125 -6.734375 7.28125 -6.046875 C 7.28125 -5.0625 6.578125 -3.09375 6.234375 -2.171875 C 6.078125 -1.75 5.984375 -1.53125 5.984375 -1.21875 C 5.984375 -0.453125 6.53125 0.171875 7.359375 0.171875 C 8.953125 0.171875 9.5625 -2.359375 9.5625 -2.46875 Z M 9.5625 -2.46875 "/>
</g>
<g id="polynomial_network_glyph-0-5">
<path d="M 3.359375 0.0625 C 3.359375 -0.9375 3.03125 -1.671875 2.328125 -1.671875 C 1.78125 -1.671875 1.5 -1.21875 1.5 -0.84375 C 1.5 -0.46875 1.75 0 2.34375 0 C 2.5625 0 2.75 -0.0625 2.90625 -0.21875 C 2.9375 -0.265625 2.984375 -0.265625 2.984375 -0.265625 C 2.984375 -0.265625 3.015625 -0.015625 3.015625 0.0625 C 3.015625 0.640625 2.90625 1.75 1.90625 2.875 C 1.71875 3.078125 1.71875 3.15625 1.71875 3.15625 C 1.71875 3.234375 1.8125 3.328125 1.890625 3.328125 C 2.03125 3.328125 3.359375 2.046875 3.359375 0.0625 Z M 3.359375 0.0625 "/>
</g>
<g id="polynomial_network_glyph-0-6">
<path d="M 3.171875 -0.828125 C 3.171875 -1.328125 2.75 -1.671875 2.34375 -1.671875 C 1.84375 -1.671875 1.5 -1.25 1.5 -0.84375 C 1.5 -0.34375 1.90625 0 2.328125 0 C 2.828125 0 3.171875 -0.40625 3.171875 -0.828125 Z M 3.171875 -0.828125 "/>
</g>
<g id="polynomial_network_glyph-0-7">
<path d="M 14.78125 -11.578125 C 14.78125 -11.765625 14.625 -11.765625 14.546875 -11.765625 L 12.984375 -11.71875 L 12.15625 -11.71875 C 11.921875 -11.71875 11.609375 -11.765625 11.359375 -11.765625 C 11.265625 -11.765625 11.046875 -11.765625 11.046875 -11.4375 C 11.046875 -11.265625 11.1875 -11.265625 11.3125 -11.265625 C 12.34375 -11.234375 12.421875 -10.828125 12.421875 -10.515625 C 12.421875 -10.359375 12.390625 -10.3125 12.34375 -10.078125 L 10.40625 -2.3125 L 6.71875 -11.46875 C 6.59375 -11.75 6.578125 -11.765625 6.203125 -11.765625 L 4.09375 -11.765625 C 3.75 -11.765625 3.59375 -11.765625 3.59375 -11.4375 C 3.59375 -11.265625 3.71875 -11.265625 4.046875 -11.265625 C 4.125 -11.265625 5.140625 -11.265625 5.140625 -11.109375 C 5.140625 -11.109375 5.109375 -10.9375 5.09375 -10.875 L 2.8125 -1.75 C 2.59375 -0.90625 2.1875 -0.546875 1.046875 -0.5 C 0.96875 -0.5 0.796875 -0.484375 0.796875 -0.171875 C 0.796875 0 0.96875 0 1.015625 0 L 2.578125 -0.03125 L 3.40625 -0.03125 C 3.65625 -0.03125 3.9375 0 4.1875 0 C 4.3125 0 4.5 0 4.5 -0.328125 C 4.5 -0.484375 4.328125 -0.5 4.25 -0.5 C 3.6875 -0.515625 3.140625 -0.625 3.140625 -1.234375 C 3.140625 -1.375 3.171875 -1.53125 3.203125 -1.671875 L 5.53125 -10.875 C 5.625 -10.703125 5.625 -10.671875 5.703125 -10.515625 L 9.796875 -0.3125 C 9.890625 -0.109375 9.921875 0 10.078125 0 C 10.25 0 10.265625 -0.046875 10.328125 -0.34375 L 12.734375 -9.953125 C 12.9375 -10.6875 13.203125 -11.203125 14.515625 -11.265625 C 14.5625 -11.265625 14.78125 -11.28125 14.78125 -11.578125 Z M 14.78125 -11.578125 "/>
</g>
<g id="polynomial_network_glyph-1-0">
<path d="M 5.265625 -2.015625 L 5 -2.015625 C 4.953125 -1.8125 4.859375 -1.140625 4.75 -0.953125 C 4.65625 -0.84375 3.984375 -0.84375 3.625 -0.84375 L 1.40625 -0.84375 C 1.734375 -1.125 2.46875 -1.890625 2.765625 -2.171875 C 4.59375 -3.84375 5.265625 -4.46875 5.265625 -5.65625 C 5.265625 -7.03125 4.171875 -7.953125 2.78125 -7.953125 C 1.40625 -7.953125 0.578125 -6.765625 0.578125 -5.734375 C 0.578125 -5.125 1.109375 -5.125 1.140625 -5.125 C 1.40625 -5.125 1.703125 -5.3125 1.703125 -5.6875 C 1.703125 -6.03125 1.484375 -6.25 1.140625 -6.25 C 1.046875 -6.25 1.015625 -6.25 0.984375 -6.234375 C 1.203125 -7.046875 1.859375 -7.609375 2.625 -7.609375 C 3.640625 -7.609375 4.265625 -6.75 4.265625 -5.65625 C 4.265625 -4.640625 3.6875 -3.75 3 -2.984375 L 0.578125 -0.28125 L 0.578125 0 L 4.953125 0 Z M 5.265625 -2.015625 "/>
</g>
<g id="polynomial_network_glyph-2-0">
<path d="M 6.640625 -1.703125 C 6.640625 -1.765625 6.59375 -1.8125 6.515625 -1.8125 C 6.40625 -1.8125 6.390625 -1.78125 6.328125 -1.578125 C 6.0625 -0.59375 5.609375 -0.125 5.140625 -0.125 C 5.015625 -0.125 4.828125 -0.125 4.828125 -0.515625 C 4.828125 -0.8125 4.953125 -1.171875 5.03125 -1.34375 C 5.265625 -2 5.765625 -3.328125 5.765625 -4.015625 C 5.765625 -4.734375 5.359375 -5.265625 4.453125 -5.265625 C 3.375 -5.265625 2.828125 -4.515625 2.609375 -4.21875 C 2.5625 -4.90625 2.078125 -5.265625 1.546875 -5.265625 C 1.171875 -5.265625 0.90625 -5.046875 0.703125 -4.640625 C 0.484375 -4.203125 0.328125 -3.484375 0.328125 -3.4375 C 0.328125 -3.390625 0.375 -3.328125 0.453125 -3.328125 C 0.546875 -3.328125 0.5625 -3.34375 0.640625 -3.625 C 0.828125 -4.34375 1.046875 -5.03125 1.515625 -5.03125 C 1.796875 -5.03125 1.890625 -4.84375 1.890625 -4.484375 C 1.890625 -4.21875 1.765625 -3.75 1.6875 -3.375 L 1.34375 -2.09375 L 1.109375 -1.109375 C 1.03125 -0.796875 0.890625 -0.234375 0.890625 -0.171875 C 0.890625 -0.015625 1.03125 0.125 1.203125 0.125 C 1.34375 0.125 1.515625 0.046875 1.609375 -0.125 C 1.640625 -0.1875 1.75 -0.609375 1.8125 -0.84375 L 2.0625 -1.921875 L 2.46875 -3.5 C 2.484375 -3.578125 2.78125 -4.171875 3.234375 -4.546875 C 3.53125 -4.84375 3.9375 -5.03125 4.40625 -5.03125 C 4.890625 -5.03125 5.0625 -4.671875 5.0625 -4.203125 C 5.0625 -3.515625 4.5625 -2.15625 4.328125 -1.5 C 4.21875 -1.21875 4.15625 -1.0625 4.15625 -0.84375 C 4.15625 -0.3125 4.53125 0.125 5.109375 0.125 C 6.21875 0.125 6.640625 -1.640625 6.640625 -1.703125 Z M 6.640625 -1.703125 "/>
</g>
<g id="polynomial_network_glyph-3-0">
<path d="M 13.5625 -6.90625 L 13.5625 -7.640625 C 13.0625 -7.609375 12.84375 -7.609375 12.21875 -7.609375 C 11.515625 -7.609375 11.296875 -7.609375 10.671875 -7.640625 L 10.671875 -6.90625 C 10.828125 -6.90625 11.671875 -6.90625 11.671875 -6.6875 C 11.671875 -6.6875 11.671875 -6.640625 11.609375 -6.46875 L 9.796875 -2 L 7.8125 -6.90625 L 8.796875 -6.90625 L 8.796875 -7.640625 C 8.390625 -7.609375 7.375 -7.609375 6.90625 -7.609375 L 5.125 -7.640625 L 5.125 -6.90625 L 6.140625 -6.90625 C 6.203125 -6.765625 6.28125 -6.546875 6.359375 -6.390625 C 6.40625 -6.28125 6.578125 -5.875 6.578125 -5.78125 L 6.515625 -5.578125 L 5.203125 -2.328125 L 3.34375 -6.90625 L 4.328125 -6.90625 L 4.328125 -7.640625 C 3.921875 -7.609375 2.75 -7.609375 2.296875 -7.609375 C 1.734375 -7.609375 0.90625 -7.609375 0.390625 -7.640625 L 0.390625 -6.90625 L 1.40625 -6.90625 L 4.046875 -0.34375 C 4.171875 -0.03125 4.234375 0.09375 4.609375 0.09375 C 4.796875 0.09375 5.015625 0.09375 5.140625 -0.265625 L 6.96875 -4.828125 L 8.796875 -0.296875 C 8.953125 0.09375 9.140625 0.09375 9.34375 0.09375 C 9.734375 0.09375 9.78125 -0.015625 9.90625 -0.328125 L 12.390625 -6.484375 C 12.515625 -6.78125 12.5625 -6.90625 13.5625 -6.90625 Z M 13.5625 -6.90625 "/>
</g>
<g id="polynomial_network_glyph-4-0">
<path d="M 11.59375 -5.8125 C 11.59375 -6.125 11.296875 -6.125 11 -6.125 L 1.375 -6.125 C 1.078125 -6.125 0.796875 -6.125 0.796875 -5.8125 C 0.796875 -5.53125 1.046875 -5.53125 1.3125 -5.53125 L 11.078125 -5.53125 C 11.328125 -5.53125 11.59375 -5.53125 11.59375 -5.8125 Z M 11.59375 -2.765625 C 11.59375 -3.0625 11.328125 -3.0625 11.078125 -3.0625 L 1.3125 -3.0625 C 1.046875 -3.0625 0.796875 -3.0625 0.796875 -2.765625 C 0.796875 -2.46875 1.078125 -2.46875 1.375 -2.46875 L 11 -2.46875 C 11.296875 -2.46875 11.59375 -2.46875 11.59375 -2.765625 Z M 11.59375 -2.765625 "/>
</g>
<g id="polynomial_network_glyph-4-1">
<path d="M 6.609375 0 L 6.609375 -0.453125 L 6.09375 -0.453125 C 4.609375 -0.453125 4.578125 -0.640625 4.578125 -1.25 L 4.578125 -11 C 4.578125 -11.359375 4.5625 -11.375 4.328125 -11.375 C 3.65625 -10.578125 2.640625 -10.3125 1.671875 -10.28125 C 1.625 -10.28125 1.53125 -10.28125 1.515625 -10.25 C 1.5 -10.203125 1.5 -10.171875 1.5 -9.8125 C 2.03125 -9.8125 2.921875 -9.921875 3.609375 -10.328125 L 3.609375 -1.25 C 3.609375 -0.65625 3.578125 -0.453125 2.09375 -0.453125 L 1.578125 -0.453125 L 1.578125 0 L 4.09375 -0.03125 Z M 6.609375 0 "/>
</g>
</g>
</defs>
<g fill="var(--black)" fill-opacity="1">
<use xlink:href="#polynomial_network_glyph-0-0" x="15.276" y="155.601"/>
</g>
<g fill="var(--black)" fill-opacity="1">
<use xlink:href="#polynomial_network_glyph-1-0" x="25.474" y="149.354"/>
</g>
<path fill-rule="nonzero" fill="rgb(59.999084%, 59.999084%, 100%)" fill-opacity="1" stroke-width="0.79701" stroke-linecap="butt" stroke-linejoin="miter" stroke="rgb(100%, 0%, 0%)" stroke-opacity="1" stroke-miterlimit="10" d="M 120.109156 -0.00184375 C 120.109156 15.654406 107.41775 28.345812 91.765406 28.345812 C 76.109156 28.345812 63.41775 15.654406 63.41775 -0.00184375 C 63.41775 -15.654188 76.109156 -28.345594 91.765406 -28.345594 C 107.41775 -28.345594 120.109156 -15.654188 120.109156 -0.00184375 Z M 120.109156 -0.00184375 " transform="matrix(1, 0, 0, -1, 23.551, 148.713)"/>
<g fill="var(--black)" fill-opacity="1">
<use xlink:href="#polynomial_network_glyph-0-1" x="75.563" y="180.17"/>
</g>
<g fill="var(--black)" fill-opacity="1">
<use xlink:href="#polynomial_network_glyph-2-0" x="83.783" y="182.752"/>
</g>
<path fill="none" stroke-width="0.79701" stroke-linecap="butt" stroke-linejoin="miter" stroke="rgb(100%, 0%, 0%)" stroke-opacity="1" stroke-miterlimit="10" d="M 239.964625 -0.00184375 C 239.964625 15.654406 227.273219 28.345812 211.616969 28.345812 C 195.960719 28.345812 183.269313 15.654406 183.269313 -0.00184375 C 183.269313 -15.654188 195.960719 -28.345594 211.616969 -28.345594 C 227.273219 -28.345594 239.964625 -15.654188 239.964625 -0.00184375 Z M 239.964625 -0.00184375 " transform="matrix(1, 0, 0, -1, 23.551, 148.713)"/>
<g fill="var(--black)" fill-opacity="1">
<use xlink:href="#polynomial_network_glyph-3-0" x="259.21" y="124.668"/>
</g>
<g fill="var(--black)" fill-opacity="1">
<use xlink:href="#polynomial_network_glyph-0-2" x="106.781" y="68.313"/>
</g>
<g fill="var(--black)" fill-opacity="1">
<use xlink:href="#polynomial_network_glyph-2-0" x="116.36" y="70.895"/>
</g>
<g fill="var(--black)" fill-opacity="1">
<use xlink:href="#polynomial_network_glyph-0-3" x="229.75" y="70.895"/>
</g>
<path fill="none" stroke-width="0.79701" stroke-linecap="butt" stroke-linejoin="miter" stroke="rgb(0%, 0%, 100%)" stroke-opacity="1" stroke-miterlimit="10" d="M 40.339625 -51.423719 L 143.187281 -51.423719 L 143.187281 114.209094 L 40.339625 114.209094 Z M 40.339625 -51.423719 " transform="matrix(1, 0, 0, -1, 23.551, 148.713)"/>
<g fill="var(--black)" fill-opacity="1">
<use xlink:href="#polynomial_network_glyph-0-4" x="68.829" y="27.039"/>
</g>
<g fill="var(--black)" fill-opacity="1">
<use xlink:href="#polynomial_network_glyph-4-0" x="83.673" y="27.039"/>
</g>
<g fill="var(--black)" fill-opacity="1">
<use xlink:href="#polynomial_network_glyph-4-1" x="100.852248" y="27.039"/>
</g>
<g fill="var(--black)" fill-opacity="1">
<use xlink:href="#polynomial_network_glyph-0-5" x="108.743" y="27.039"/>
</g>
<g fill="var(--black)" fill-opacity="1">
<use xlink:href="#polynomial_network_glyph-0-6" x="116.300561" y="27.039"/>
</g>
<g fill="var(--black)" fill-opacity="1">
<use xlink:href="#polynomial_network_glyph-0-6" x="123.840906" y="27.039"/>
</g>
<g fill="var(--black)" fill-opacity="1">
<use xlink:href="#polynomial_network_glyph-0-6" x="131.398466" y="27.039"/>
</g>
<g fill="var(--black)" fill-opacity="1">
<use xlink:href="#polynomial_network_glyph-0-5" x="138.956027" y="27.039"/>
</g>
<g fill="var(--black)" fill-opacity="1">
<use xlink:href="#polynomial_network_glyph-0-7" x="146.496372" y="27.039"/>
</g>
<path fill="none" stroke-width="2.5512" stroke-linecap="butt" stroke-linejoin="miter" stroke="rgb(100%, 0%, 0%)" stroke-opacity="1" stroke-miterlimit="10" d="M 11.995875 -0.00184375 L 57.796656 -0.00184375 " transform="matrix(1, 0, 0, -1, 23.551, 148.713)"/>
<path fill-rule="nonzero" fill="rgb(100%, 0%, 0%)" fill-opacity="1" d="M 86.570312 148.714844 L 78.214844 144.535156 L 81.347656 148.714844 L 78.214844 152.890625 "/>
<path fill="none" stroke-width="2.5512" stroke-linecap="butt" stroke-linejoin="miter" stroke="rgb(100%, 0%, 0%)" stroke-opacity="1" stroke-miterlimit="10" d="M 91.765406 74.099719 L 91.765406 33.966906 " transform="matrix(1, 0, 0, -1, 23.551, 148.713)"/>
<path fill-rule="nonzero" fill="rgb(100%, 0%, 0%)" fill-opacity="1" d="M 115.316406 119.96875 L 119.492188 111.613281 L 115.316406 114.746094 L 111.136719 111.613281 "/>
<path fill="none" stroke-width="2.5512" stroke-linecap="butt" stroke-linejoin="miter" stroke="rgb(100%, 0%, 0%)" stroke-opacity="1" stroke-miterlimit="10" d="M 182.870875 -0.00184375 L 125.73025 -0.00184375 " transform="matrix(1, 0, 0, -1, 23.551, 148.713)"/>
<path fill-rule="nonzero" fill="rgb(100%, 0%, 0%)" fill-opacity="1" d="M 144.058594 148.714844 L 152.414062 152.890625 L 149.28125 148.714844 L 152.414062 144.535156 "/>
<path fill="none" stroke-width="2.5512" stroke-linecap="butt" stroke-linejoin="miter" stroke="rgb(100%, 0%, 0%)" stroke-opacity="1" stroke-miterlimit="10" d="M 211.616969 74.099719 L 211.616969 33.966906 " transform="matrix(1, 0, 0, -1, 23.551, 148.713)"/>
<path fill-rule="nonzero" fill="rgb(100%, 0%, 0%)" fill-opacity="1" d="M 235.167969 119.96875 L 239.34375 111.613281 L 235.167969 114.746094 L 230.992188 111.613281 "/>
</svg>
