<?xml version="1.0" encoding="UTF-8"?>
<svg xmlns="http://www.w3.org/2000/svg" xmlns:xlink="http://www.w3.org/1999/xlink" width="421.412pt" height="71.6229pt" viewBox="0 0 312.157 53.054">
<style>:root { --axis-color:#2a241c; --grid-color:rgba(42, 36, 28, 0.14); --black:#000000;--c1:#D55E00;--c2:#009E73;--c3:#56B4E9;--c4:#CC79A7;--c5:#E69F00;--c6:#C7B42E;--c7:#999999;--c8:#0072B2;--gray:#999999;--grey:#999999;--octonary:#0072B2;--primary:#D55E00;--quaternary:#CC79A7;--quinary:#E69F00;--secondary:#009E73;--senary:#C7B42E;--septenary:#999999;--tertiary:#56B4E9;--white:#ffffff; }
@media (prefers-color-scheme:dark) {
  :root { --axis-color:#e6dfd2; --grid-color:rgba(230, 223, 210, 0.16); --black:#FFFFFF;--c1:#E36A1C;--c2:#23AB7F;--c3:#3F9FD3;--c4:#C673A1;--c5:#C38819;--c6:#847500;--c7:#929292;--c8:#1F81C2;--gray:#929292;--grey:#929292;--octonary:#1F81C2;--primary:#E36A1C;--quaternary:#C673A1;--quinary:#C38819;--secondary:#23AB7F;--senary:#847500;--septenary:#929292;--tertiary:#3F9FD3;--white:#000000; }
}
.plot3d path,.plot3d polygon { stroke:var(--axis-color); }
.plot3d-grid line { stroke:var(--grid-color); }</style>

<defs>
<g class="glyph">
<g id="simple_example_glyph-0-0">
<path d="M 5.734375 -1.703125 C 5.734375 -1.765625 5.6875 -1.8125 5.625 -1.8125 C 5.515625 -1.8125 5.5 -1.75 5.46875 -1.65625 C 5.140625 -0.609375 4.453125 -0.125 3.90625 -0.125 C 3.484375 -0.125 3.265625 -0.4375 3.265625 -0.921875 C 3.265625 -1.1875 3.3125 -1.375 3.5 -2.15625 L 3.921875 -3.796875 C 4.09375 -4.5 4.5 -5.03125 5.0625 -5.03125 C 5.0625 -5.03125 5.421875 -5.03125 5.671875 -4.875 C 5.28125 -4.8125 5.140625 -4.515625 5.140625 -4.296875 C 5.140625 -4 5.359375 -3.90625 5.53125 -3.90625 C 5.890625 -3.90625 6.140625 -4.21875 6.140625 -4.546875 C 6.140625 -5.046875 5.5625 -5.265625 5.0625 -5.265625 C 4.34375 -5.265625 3.9375 -4.546875 3.828125 -4.328125 C 3.546875 -5.21875 2.8125 -5.265625 2.59375 -5.265625 C 1.375 -5.265625 0.734375 -3.703125 0.734375 -3.4375 C 0.734375 -3.390625 0.78125 -3.328125 0.859375 -3.328125 C 0.953125 -3.328125 0.984375 -3.40625 1 -3.453125 C 1.40625 -4.78125 2.21875 -5.03125 2.5625 -5.03125 C 3.09375 -5.03125 3.203125 -4.53125 3.203125 -4.25 C 3.203125 -3.984375 3.125 -3.703125 2.984375 -3.125 L 2.578125 -1.5 C 2.40625 -0.78125 2.0625 -0.125 1.421875 -0.125 C 1.359375 -0.125 1.0625 -0.125 0.8125 -0.28125 C 1.25 -0.359375 1.34375 -0.71875 1.34375 -0.859375 C 1.34375 -1.09375 1.15625 -1.25 0.9375 -1.25 C 0.640625 -1.25 0.328125 -0.984375 0.328125 -0.609375 C 0.328125 -0.109375 0.890625 0.125 1.40625 0.125 C 1.984375 0.125 2.390625 -0.328125 2.640625 -0.828125 C 2.828125 -0.125 3.4375 0.125 3.875 0.125 C 5.09375 0.125 5.734375 -1.453125 5.734375 -1.703125 Z M 5.734375 -1.703125 "/>
</g>
<g id="simple_example_glyph-1-0">
<path d="M 3.5625 0 L 3.5625 -0.265625 L 3.28125 -0.265625 C 2.53125 -0.265625 2.5 -0.359375 2.5 -0.65625 L 2.5 -5.078125 C 2.5 -5.296875 2.484375 -5.296875 2.265625 -5.296875 C 1.9375 -4.984375 1.515625 -4.796875 0.765625 -4.796875 L 0.765625 -4.53125 C 0.984375 -4.53125 1.40625 -4.53125 1.875 -4.734375 L 1.875 -0.65625 C 1.875 -0.359375 1.84375 -0.265625 1.09375 -0.265625 L 0.8125 -0.265625 L 0.8125 0 C 1.140625 -0.03125 1.828125 -0.03125 2.1875 -0.03125 C 2.546875 -0.03125 3.234375 -0.03125 3.5625 0 Z M 3.5625 0 "/>
</g>
<g id="simple_example_glyph-1-1">
<path d="M 3.796875 -1.421875 L 3.546875 -1.421875 C 3.53125 -1.265625 3.46875 -0.875 3.375 -0.71875 C 3.328125 -0.65625 2.71875 -0.65625 2.59375 -0.65625 L 1.171875 -0.65625 L 2.25 -1.625 C 2.375 -1.75 2.703125 -2.015625 2.84375 -2.125 C 3.328125 -2.578125 3.796875 -3.015625 3.796875 -3.734375 C 3.796875 -4.6875 3 -5.296875 2.015625 -5.296875 C 1.046875 -5.296875 0.421875 -4.578125 0.421875 -3.859375 C 0.421875 -3.46875 0.734375 -3.421875 0.84375 -3.421875 C 1.015625 -3.421875 1.265625 -3.53125 1.265625 -3.84375 C 1.265625 -4.25 0.859375 -4.25 0.765625 -4.25 C 1 -4.84375 1.53125 -5.03125 1.921875 -5.03125 C 2.65625 -5.03125 3.046875 -4.40625 3.046875 -3.734375 C 3.046875 -2.90625 2.46875 -2.296875 1.515625 -1.34375 L 0.515625 -0.296875 C 0.421875 -0.21875 0.421875 -0.203125 0.421875 0 L 3.5625 0 Z M 3.796875 -1.421875 "/>
</g>
<g id="simple_example_glyph-1-2">
<path d="M 3.875 -1.359375 C 3.875 -2.03125 3.34375 -2.625 2.53125 -2.8125 C 3.15625 -3.03125 3.640625 -3.5625 3.640625 -4.203125 C 3.640625 -4.84375 2.921875 -5.296875 2.09375 -5.296875 C 1.234375 -5.296875 0.59375 -4.84375 0.59375 -4.234375 C 0.59375 -3.9375 0.78125 -3.8125 1 -3.8125 C 1.25 -3.8125 1.40625 -3.984375 1.40625 -4.21875 C 1.40625 -4.515625 1.140625 -4.625 0.96875 -4.625 C 1.3125 -5.0625 1.921875 -5.09375 2.0625 -5.09375 C 2.265625 -5.09375 2.875 -5.03125 2.875 -4.203125 C 2.875 -3.65625 2.640625 -3.3125 2.53125 -3.1875 C 2.296875 -2.9375 2.109375 -2.921875 1.625 -2.890625 C 1.46875 -2.890625 1.40625 -2.875 1.40625 -2.765625 C 1.40625 -2.65625 1.484375 -2.65625 1.625 -2.65625 L 2.015625 -2.65625 C 2.640625 -2.65625 3.046875 -2.203125 3.046875 -1.359375 C 3.046875 -0.359375 2.484375 -0.078125 2.0625 -0.078125 C 1.625 -0.078125 1.015625 -0.234375 0.734375 -0.65625 C 1.03125 -0.65625 1.234375 -0.84375 1.234375 -1.09375 C 1.234375 -1.359375 1.046875 -1.53125 0.78125 -1.53125 C 0.578125 -1.53125 0.34375 -1.40625 0.34375 -1.078125 C 0.34375 -0.328125 1.15625 0.171875 2.078125 0.171875 C 3.125 0.171875 3.875 -0.5625 3.875 -1.359375 Z M 3.875 -1.359375 "/>
</g>
<g id="simple_example_glyph-1-3">
<path d="M 3.984375 -1.3125 L 3.984375 -1.5625 L 3.140625 -1.5625 L 3.140625 -5.15625 C 3.140625 -5.3125 3.140625 -5.375 2.96875 -5.375 C 2.875 -5.375 2.859375 -5.375 2.78125 -5.265625 L 0.234375 -1.5625 L 0.234375 -1.3125 L 2.484375 -1.3125 L 2.484375 -0.640625 C 2.484375 -0.34375 2.46875 -0.265625 1.84375 -0.265625 L 1.671875 -0.265625 L 1.671875 0 L 2.8125 -0.03125 L 3.953125 0 L 3.953125 -0.265625 L 3.78125 -0.265625 C 3.15625 -0.265625 3.140625 -0.34375 3.140625 -0.640625 L 3.140625 -1.3125 Z M 2.546875 -1.5625 L 0.515625 -1.5625 L 2.546875 -4.515625 Z M 2.546875 -1.5625 "/>
</g>
<g id="simple_example_glyph-1-4">
<path d="M 3.796875 -1.59375 C 3.796875 -2.515625 3.125 -3.34375 2.1875 -3.34375 C 1.796875 -3.34375 1.421875 -3.21875 1.109375 -2.9375 L 1.109375 -4.484375 C 1.21875 -4.453125 1.53125 -4.359375 1.875 -4.359375 C 2.875 -4.359375 3.46875 -5.0625 3.46875 -5.1875 C 3.46875 -5.28125 3.421875 -5.296875 3.375 -5.296875 C 3.375 -5.296875 3.34375 -5.296875 3.28125 -5.265625 C 2.96875 -5.140625 2.59375 -5.046875 2.171875 -5.046875 C 1.703125 -5.046875 1.3125 -5.15625 1.0625 -5.265625 C 0.984375 -5.296875 0.953125 -5.296875 0.953125 -5.296875 C 0.859375 -5.296875 0.859375 -5.21875 0.859375 -5.0625 L 0.859375 -2.734375 C 0.859375 -2.59375 0.859375 -2.5 0.984375 -2.5 C 1.046875 -2.5 1.0625 -2.53125 1.109375 -2.59375 C 1.203125 -2.703125 1.5 -3.109375 2.1875 -3.109375 C 2.625 -3.109375 2.84375 -2.75 2.921875 -2.59375 C 3.046875 -2.3125 3.0625 -1.9375 3.0625 -1.640625 C 3.0625 -1.34375 3.0625 -0.90625 2.84375 -0.5625 C 2.6875 -0.3125 2.359375 -0.078125 1.9375 -0.078125 C 1.421875 -0.078125 0.921875 -0.390625 0.734375 -0.921875 C 0.75 -0.90625 0.8125 -0.90625 0.8125 -0.90625 C 1.03125 -0.90625 1.21875 -1.046875 1.21875 -1.296875 C 1.21875 -1.59375 0.984375 -1.703125 0.828125 -1.703125 C 0.671875 -1.703125 0.421875 -1.625 0.421875 -1.28125 C 0.421875 -0.5625 1.046875 0.171875 1.953125 0.171875 C 2.953125 0.171875 3.796875 -0.609375 3.796875 -1.59375 Z M 3.796875 -1.59375 "/>
</g>
<g id="simple_example_glyph-1-5">
<path d="M 3.875 -1.625 C 3.875 -2.65625 3.078125 -3.390625 2.203125 -3.390625 C 1.625 -3.390625 1.28125 -3.03125 1.09375 -2.640625 C 1.09375 -3.296875 1.15625 -3.875 1.4375 -4.359375 C 1.6875 -4.765625 2.09375 -5.09375 2.59375 -5.09375 C 2.75 -5.09375 3.109375 -5.0625 3.296875 -4.796875 C 2.9375 -4.765625 2.90625 -4.5 2.90625 -4.421875 C 2.90625 -4.171875 3.09375 -4.046875 3.28125 -4.046875 C 3.421875 -4.046875 3.65625 -4.125 3.65625 -4.4375 C 3.65625 -4.90625 3.296875 -5.296875 2.578125 -5.296875 C 1.46875 -5.296875 0.34375 -4.25 0.34375 -2.53125 C 0.34375 -0.359375 1.359375 0.171875 2.125 0.171875 C 2.515625 0.171875 2.921875 0.0625 3.28125 -0.28125 C 3.609375 -0.59375 3.875 -0.921875 3.875 -1.625 Z M 3.125 -1.625 C 3.125 -1.21875 3.125 -0.875 2.96875 -0.578125 C 2.75 -0.21875 2.484375 -0.078125 2.125 -0.078125 C 1.703125 -0.078125 1.4375 -0.359375 1.328125 -0.59375 C 1.140625 -0.953125 1.125 -1.484375 1.125 -1.796875 C 1.125 -2.578125 1.546875 -3.171875 2.171875 -3.171875 C 2.5625 -3.171875 2.8125 -2.96875 2.953125 -2.6875 C 3.125 -2.390625 3.125 -2.03125 3.125 -1.625 Z M 3.125 -1.625 "/>
</g>
</g>
</defs>
<path fill="none" stroke-width="0.79701" stroke-linecap="butt" stroke-linejoin="miter" stroke="var(--black)" stroke-opacity="1" stroke-miterlimit="10" d="M 14.172219 -0.00034375 C 14.172219 7.827781 7.828469 14.171531 0.00034375 14.171531 C -7.827781 14.171531 -14.171531 7.827781 -14.171531 -0.00034375 C -14.171531 -7.828469 -7.827781 -14.172219 0.00034375 -14.172219 C 7.828469 -14.172219 14.172219 -7.828469 14.172219 -0.00034375 Z M 14.172219 -0.00034375 " transform="matrix(1, 0, 0, -1, 26.527, 26.527)"/>
<g fill="var(--black)" fill-opacity="1">
<use xlink:href="#simple_example_glyph-0-0" x="20.835" y="28.204"/>
</g>
<g fill="var(--black)" fill-opacity="1">
<use xlink:href="#simple_example_glyph-1-0" x="27.487" y="29.997"/>
</g>
<path fill="none" stroke-width="0.79701" stroke-linecap="butt" stroke-linejoin="miter" stroke="var(--black)" stroke-opacity="1" stroke-miterlimit="10" d="M 65.996437 -0.00034375 C 65.996437 7.827781 59.648781 14.171531 51.820656 14.171531 C 43.992531 14.171531 37.648781 7.827781 37.648781 -0.00034375 C 37.648781 -7.828469 43.992531 -14.172219 51.820656 -14.172219 C 59.648781 -14.172219 65.996437 -7.828469 65.996437 -0.00034375 Z M 65.996437 -0.00034375 " transform="matrix(1, 0, 0, -1, 26.527, 26.527)"/>
<g fill="var(--black)" fill-opacity="1">
<use xlink:href="#simple_example_glyph-0-0" x="72.655" y="28.204"/>
</g>
<g fill="var(--black)" fill-opacity="1">
<use xlink:href="#simple_example_glyph-1-1" x="79.307" y="29.997"/>
</g>
<path fill="none" stroke-width="0.79701" stroke-linecap="butt" stroke-linejoin="miter" stroke="var(--black)" stroke-opacity="1" stroke-miterlimit="10" d="M 117.81675 -0.00034375 C 117.81675 7.827781 111.469094 14.171531 103.640969 14.171531 C 95.812844 14.171531 89.469094 7.827781 89.469094 -0.00034375 C 89.469094 -7.828469 95.812844 -14.172219 103.640969 -14.172219 C 111.469094 -14.172219 117.81675 -7.828469 117.81675 -0.00034375 Z M 117.81675 -0.00034375 " transform="matrix(1, 0, 0, -1, 26.527, 26.527)"/>
<g fill="var(--black)" fill-opacity="1">
<use xlink:href="#simple_example_glyph-0-0" x="124.476" y="28.204"/>
</g>
<g fill="var(--black)" fill-opacity="1">
<use xlink:href="#simple_example_glyph-1-2" x="131.128" y="29.997"/>
</g>
<path fill="none" stroke-width="0.79701" stroke-linecap="butt" stroke-linejoin="miter" stroke="var(--black)" stroke-opacity="1" stroke-miterlimit="10" d="M 169.637063 -0.00034375 C 169.637063 7.827781 163.293313 14.171531 155.465188 14.171531 C 147.637063 14.171531 141.289406 7.827781 141.289406 -0.00034375 C 141.289406 -7.828469 147.637063 -14.172219 155.465188 -14.172219 C 163.293313 -14.172219 169.637063 -7.828469 169.637063 -0.00034375 Z M 169.637063 -0.00034375 " transform="matrix(1, 0, 0, -1, 26.527, 26.527)"/>
<g fill="var(--black)" fill-opacity="1">
<use xlink:href="#simple_example_glyph-0-0" x="176.296" y="28.204"/>
</g>
<g fill="var(--black)" fill-opacity="1">
<use xlink:href="#simple_example_glyph-1-3" x="182.949" y="29.997"/>
</g>
<path fill="none" stroke-width="0.79701" stroke-linecap="butt" stroke-linejoin="miter" stroke="var(--black)" stroke-opacity="1" stroke-miterlimit="10" d="M 221.457375 -0.00034375 C 221.457375 7.827781 215.113625 14.171531 207.2855 14.171531 C 199.457375 14.171531 193.109719 7.827781 193.109719 -0.00034375 C 193.109719 -7.828469 199.457375 -14.172219 207.2855 -14.172219 C 215.113625 -14.172219 221.457375 -7.828469 221.457375 -0.00034375 Z M 221.457375 -0.00034375 " transform="matrix(1, 0, 0, -1, 26.527, 26.527)"/>
<g fill="var(--black)" fill-opacity="1">
<use xlink:href="#simple_example_glyph-0-0" x="228.117" y="28.204"/>
</g>
<g fill="var(--black)" fill-opacity="1">
<use xlink:href="#simple_example_glyph-1-4" x="234.769" y="29.997"/>
</g>
<path fill-rule="nonzero" fill="var(--c8)" fill-opacity="0.35" stroke-width="0.79701" stroke-linecap="butt" stroke-linejoin="miter" stroke="var(--black)" stroke-opacity="1" stroke-miterlimit="10" d="M 273.277688 -0.00034375 C 273.277688 7.827781 266.933938 14.171531 259.105813 14.171531 C 251.277688 14.171531 244.933938 7.827781 244.933938 -0.00034375 C 244.933938 -7.828469 251.277688 -14.172219 259.105813 -14.172219 C 266.933938 -14.172219 273.277688 -7.828469 273.277688 -0.00034375 Z M 273.277688 -0.00034375 " transform="matrix(1, 0, 0, -1, 26.527, 26.527)"/>
<g fill="var(--black)" fill-opacity="1">
<use xlink:href="#simple_example_glyph-0-0" x="279.938" y="28.204"/>
</g>
<g fill="var(--black)" fill-opacity="1">
<use xlink:href="#simple_example_glyph-1-5" x="286.59" y="29.997"/>
</g>
<path fill="none" stroke-width="0.79701" stroke-linecap="butt" stroke-linejoin="miter" stroke="var(--black)" stroke-opacity="1" stroke-miterlimit="10" d="M 14.570656 -0.00034375 L 32.793312 -0.00034375 " transform="matrix(1, 0, 0, -1, 26.527, 26.527)"/>
<path fill-rule="nonzero" fill="var(--black)" fill-opacity="1" stroke-width="0.79701" stroke-linecap="butt" stroke-linejoin="miter" stroke="var(--black)" stroke-opacity="1" stroke-miterlimit="10" d="M 5.950985 -0.00034375 L 1.286923 1.761375 L 2.829891 -0.00034375 L 1.286923 -1.762063 Z M 5.950985 -0.00034375 " transform="matrix(1, 0, 0, -1, 56.68964, 26.527)"/>
<path fill="none" stroke-width="0.79701" stroke-linecap="butt" stroke-linejoin="miter" stroke="var(--black)" stroke-opacity="1" stroke-miterlimit="10" d="M 66.394875 -0.00034375 L 84.613625 -0.00034375 " transform="matrix(1, 0, 0, -1, 26.527, 26.527)"/>
<path fill-rule="nonzero" fill="var(--black)" fill-opacity="1" stroke-width="0.79701" stroke-linecap="butt" stroke-linejoin="miter" stroke="var(--black)" stroke-opacity="1" stroke-miterlimit="10" d="M 5.950037 -0.00034375 L 1.285975 1.761375 L 2.828944 -0.00034375 L 1.285975 -1.762063 Z M 5.950037 -0.00034375 " transform="matrix(1, 0, 0, -1, 108.5109, 26.527)"/>
<path fill="none" stroke-width="0.79701" stroke-linecap="butt" stroke-linejoin="miter" stroke="var(--black)" stroke-opacity="1" stroke-miterlimit="10" d="M 118.215187 -0.00034375 L 136.437844 -0.00034375 " transform="matrix(1, 0, 0, -1, 26.527, 26.527)"/>
<path fill-rule="nonzero" fill="var(--black)" fill-opacity="1" stroke-width="0.79701" stroke-linecap="butt" stroke-linejoin="miter" stroke="var(--black)" stroke-opacity="1" stroke-miterlimit="10" d="M 5.953006 -0.00034375 L 1.285037 1.761375 L 2.831912 -0.00034375 L 1.285037 -1.762063 Z M 5.953006 -0.00034375 " transform="matrix(1, 0, 0, -1, 160.33215, 26.527)"/>
<path fill="none" stroke-width="0.79701" stroke-linecap="butt" stroke-linejoin="miter" stroke="var(--black)" stroke-opacity="1" stroke-miterlimit="10" d="M 170.0355 -0.00034375 L 188.258156 -0.00034375 " transform="matrix(1, 0, 0, -1, 26.527, 26.527)"/>
<path fill-rule="nonzero" fill="var(--black)" fill-opacity="1" stroke-width="0.79701" stroke-linecap="butt" stroke-linejoin="miter" stroke="var(--black)" stroke-opacity="1" stroke-miterlimit="10" d="M 5.952079 -0.00034375 L 1.288016 1.761375 L 2.830985 -0.00034375 L 1.288016 -1.762063 Z M 5.952079 -0.00034375 " transform="matrix(1, 0, 0, -1, 212.15339, 26.527)"/>
<path fill="none" stroke-width="0.79701" stroke-linecap="butt" stroke-linejoin="miter" stroke="var(--black)" stroke-opacity="1" stroke-miterlimit="10" d="M 221.855813 -0.00034375 L 240.078469 -0.00034375 " transform="matrix(1, 0, 0, -1, 26.527, 26.527)"/>
<path fill-rule="nonzero" fill="var(--black)" fill-opacity="1" stroke-width="0.79701" stroke-linecap="butt" stroke-linejoin="miter" stroke="var(--black)" stroke-opacity="1" stroke-miterlimit="10" d="M 5.951131 -0.00034375 L 1.287069 1.761375 L 2.830038 -0.00034375 L 1.287069 -1.762063 Z M 5.951131 -0.00034375 " transform="matrix(1, 0, 0, -1, 263.97465, 26.527)"/>
</svg>
