<?xml version="1.0" encoding="utf-8" standalone="no"?>
<!DOCTYPE svg PUBLIC "-//W3C//DTD SVG 1.1//EN"
  "http://www.w3.org/Graphics/SVG/1.1/DTD/svg11.dtd">
<svg xmlns:xlink="http://www.w3.org/1999/xlink" width="414.174531pt" height="334.018562pt" viewBox="0 0 414.174531 334.018562" xmlns="http://www.w3.org/2000/svg" version="1.1">
        <style>
            /* Light mode (default) */
            .c1 { fill: #d62728 !important; stroke: #d62728 !important; }
.c2 { fill: #2ca02c !important; stroke: #2ca02c !important; }
.c3 { fill: #1f77b4 !important; stroke: #1f77b4 !important; }
.c4 { fill: #9467bd !important; stroke: #9467bd !important; }
.c5 { fill: #8c564b !important; stroke: #8c564b !important; }
.c6 { fill: #e377c2 !important; stroke: #e377c2 !important; }
.c7 { fill: #7f7f7f !important; stroke: #7f7f7f !important; }
.c8 { fill: #bcbd22 !important; stroke: #bcbd22 !important; }

            /* Text and graphic elements */
            text, .text {
                fill: #000000 !important;
                stroke: none !important;
            }

            .axis line, .axis path, .tick line, .tick path, path.domain, line.grid {
                stroke: #000000 !important;
            }

            .legend text {
                fill: #000000 !important;
            }

            g.legend > g:first-child > path:first-child {
                fill: rgba(255, 255, 255, 0.8) !important;
                stroke: rgba(0, 0, 0, 0.1) !important;
            }

            [stroke="currentColor"], [stroke="black"] {
                stroke: #000000 !important;
            }

            /* Dark mode via media query */
            @media (prefers-color-scheme: dark) {
                /* Dark theme colors */
                .c1 { fill: #FF4A98 !important; stroke: #FF4A98 !important; }
                .c2 { fill: #0AFAFA !important; stroke: #0AFAFA !important; }
                .c3 { fill: #7F83FF !important; stroke: #7F83FF !important; }
                .c4 { fill: #B4A0FF !important; stroke: #B4A0FF !important; }
                .c5 { fill: #FFB86B !important; stroke: #FFB86B !important; }
                .c6 { fill: #FF79C6 !important; stroke: #FF79C6 !important; }
                .c7 { fill: #CCCCCC !important; stroke: #CCCCCC !important; }
                .c8 { fill: #E6DB74 !important; stroke: #E6DB74 !important; }

                /* Dark theme text and graphics */
                text, .text {
                    fill: #FFFFFF !important;
                    stroke: none !important;
                }

                .axis line, .axis path, .tick line, .tick path, path.domain, line.grid {
                    stroke: #FFFFFF !important;
                }

                .grid line {
                    stroke: rgba(255, 255, 255, 0.2) !important;
                }

                .legend text {
                    fill: #FFFFFF !important;
                }

                g.legend > g:first-child > path:first-child {
                    fill: rgba(26, 26, 26, 0.8) !important;
                    stroke: rgba(255, 255, 255, 0.1) !important;
                }

                [stroke="currentColor"], [stroke="black"] {
                    stroke: #FFFFFF !important;
                }
            }
        </style>
        
 <metadata>
  <rdf:RDF xmlns:dc="http://purl.org/dc/elements/1.1/" xmlns:cc="http://creativecommons.org/ns#" xmlns:rdf="http://www.w3.org/1999/02/22-rdf-syntax-ns#">
   <cc:Work>
    <dc:type rdf:resource="http://purl.org/dc/dcmitype/StillImage"/>
    <dc:date>2025-04-02T16:57:39.922180</dc:date>
    <dc:format>image/svg+xml</dc:format>
    <dc:creator>
     <cc:Agent>
      <dc:title>Matplotlib v3.10.1, https://matplotlib.org/</dc:title>
     </cc:Agent>
    </dc:creator>
   </cc:Work>
  </rdf:RDF>
 </metadata>
 <defs>
  <style type="text/css">*{stroke-linejoin: round; stroke-linecap: butt}</style>
 </defs>
 <g id="figure_1">
  <g class="patch">
   <path d="M 0 334.018562 
L 414.174531 334.018562 
L 414.174531 0 
L 0 0 
L 0 334.018562 
z
" style="fill: none"/>
  </g>
  <g id="axes_1">
   <g class="patch">
    <path d="M 49.854531 297.430125 
L 406.974531 297.430125 
L 406.974531 31.318125 
L 49.854531 31.318125 
L 49.854531 297.430125 
z
" style="fill: none"/>
   </g>
   <g id="PathCollection_1">
    <defs>
     <path id="m373db07b6b" d="M 0 3.535534 
C 0.937635 3.535534 1.836992 3.163008 2.5 2.5 
C 3.163008 1.836992 3.535534 0.937635 3.535534 0 
C 3.535534 -0.937635 3.163008 -1.836992 2.5 -2.5 
C 1.836992 -3.163008 0.937635 -3.535534 0 -3.535534 
C -0.937635 -3.535534 -1.836992 -3.163008 -2.5 -2.5 
C -3.163008 -1.836992 -3.535534 -0.937635 -3.535534 0 
C -3.535534 0.937635 -3.163008 1.836992 -2.5 2.5 
C -1.836992 3.163008 -0.937635 3.535534 0 3.535534 
z
" style="stroke: #ff8000"/>
    </defs>
    <g clip-path="url(#pe31d02f296)">
     <use xlink:href="#m373db07b6b" x="79.614531" y="223.51417" style="fill: #ff8000; stroke: #ff8000"/>
    </g>
   </g>
   <g id="PathCollection_2">
    <g clip-path="url(#pe31d02f296)">
     <use xlink:href="#m373db07b6b" x="109.374531" y="230.234443" style="fill: #ff8000; stroke: #ff8000"/>
    </g>
   </g>
   <g id="PathCollection_3">
    <g clip-path="url(#pe31d02f296)">
     <use xlink:href="#m373db07b6b" x="139.134531" y="268.840608" style="fill: #ff8000; stroke: #ff8000"/>
    </g>
   </g>
   <g id="PathCollection_4">
    <g clip-path="url(#pe31d02f296)">
     <use xlink:href="#m373db07b6b" x="168.894531" y="236.548311" style="fill: #ff8000; stroke: #ff8000"/>
    </g>
   </g>
   <g id="PathCollection_5">
    <g clip-path="url(#pe31d02f296)">
     <use xlink:href="#m373db07b6b" x="198.654531" y="225.724863" style="fill: #ff8000; stroke: #ff8000"/>
    </g>
   </g>
   <g id="PathCollection_6">
    <g clip-path="url(#pe31d02f296)">
     <use xlink:href="#m373db07b6b" x="228.414531" y="189.343192" style="fill: #ff8000; stroke: #ff8000"/>
    </g>
   </g>
   <g id="PathCollection_7">
    <g clip-path="url(#pe31d02f296)">
     <use xlink:href="#m373db07b6b" x="258.174531" y="117.378631" style="fill: #ff8000; stroke: #ff8000"/>
    </g>
   </g>
   <g id="PathCollection_8">
    <g clip-path="url(#pe31d02f296)">
     <use xlink:href="#m373db07b6b" x="287.934531" y="111.562479" style="fill: #ff8000; stroke: #ff8000"/>
    </g>
   </g>
   <g id="PathCollection_9">
    <g clip-path="url(#pe31d02f296)">
     <use xlink:href="#m373db07b6b" x="317.694531" y="101.906166" style="fill: #ff8000; stroke: #ff8000"/>
    </g>
   </g>
   <g id="PathCollection_10">
    <g clip-path="url(#pe31d02f296)">
     <use xlink:href="#m373db07b6b" x="347.454531" y="106.894643" style="fill: #ff8000; stroke: #ff8000"/>
    </g>
   </g>
   <g class="axis">
    <g class="tick xtick">
     <g id="line2d_1">
      <path d="M 79.614531 297.430125 
L 79.614531 31.318125 
" clip-path="url(#pe31d02f296)" style="fill: none; stroke: #b0b0b0; stroke-opacity: 0.1; stroke-width: 0.8; stroke-linecap: square"/>
     </g>
     <g id="line2d_2">
      <defs>
       <path id="m310c3ec048" d="M 0 0 
L 0 3.5 
" style="stroke: currentColor; stroke-width: 0.8"/>
      </defs>
      <g>
       <use xlink:href="#m310c3ec048" x="79.614531" y="297.430125" style="stroke: currentColor; stroke-width: 0.8"/>
      </g>
     </g>
     <g id="text_1" class="text">
      <!-- 0.0 -->
      <g transform="translate(72.458125 311.268719) scale(0.09 -0.09)">
       <defs>
        <path id="DejaVuSans-30" d="M 2034 4250 
Q 1547 4250 1301 3770 
Q 1056 3291 1056 2328 
Q 1056 1369 1301 889 
Q 1547 409 2034 409 
Q 2525 409 2770 889 
Q 3016 1369 3016 2328 
Q 3016 3291 2770 3770 
Q 2525 4250 2034 4250 
z
M 2034 4750 
Q 2819 4750 3233 4129 
Q 3647 3509 3647 2328 
Q 3647 1150 3233 529 
Q 2819 -91 2034 -91 
Q 1250 -91 836 529 
Q 422 1150 422 2328 
Q 422 3509 836 4129 
Q 1250 4750 2034 4750 
z
" transform="scale(0.015625)"/>
        <path id="DejaVuSans-2e" d="M 684 794 
L 1344 794 
L 1344 0 
L 684 0 
L 684 794 
z
" transform="scale(0.015625)"/>
       </defs>
       <use xlink:href="#DejaVuSans-30"/>
       <use xlink:href="#DejaVuSans-2e" transform="translate(63.623047 0)"/>
       <use xlink:href="#DejaVuSans-30" transform="translate(95.410156 0)"/>
      </g>
     </g>
    </g>
    <g class="tick xtick">
     <g id="line2d_3">
      <path d="M 154.014531 297.430125 
L 154.014531 31.318125 
" clip-path="url(#pe31d02f296)" style="fill: none; stroke: #b0b0b0; stroke-opacity: 0.1; stroke-width: 0.8; stroke-linecap: square"/>
     </g>
     <g id="line2d_4">
      <g>
       <use xlink:href="#m310c3ec048" x="154.014531" y="297.430125" style="stroke: currentColor; stroke-width: 0.8"/>
      </g>
     </g>
     <g id="text_2" class="text">
      <!-- 0.5 -->
      <g transform="translate(146.858125 311.268719) scale(0.09 -0.09)">
       <defs>
        <path id="DejaVuSans-35" d="M 691 4666 
L 3169 4666 
L 3169 4134 
L 1269 4134 
L 1269 2991 
Q 1406 3038 1543 3061 
Q 1681 3084 1819 3084 
Q 2600 3084 3056 2656 
Q 3513 2228 3513 1497 
Q 3513 744 3044 326 
Q 2575 -91 1722 -91 
Q 1428 -91 1123 -41 
Q 819 9 494 109 
L 494 744 
Q 775 591 1075 516 
Q 1375 441 1709 441 
Q 2250 441 2565 725 
Q 2881 1009 2881 1497 
Q 2881 1984 2565 2268 
Q 2250 2553 1709 2553 
Q 1456 2553 1204 2497 
Q 953 2441 691 2322 
L 691 4666 
z
" transform="scale(0.015625)"/>
       </defs>
       <use xlink:href="#DejaVuSans-30"/>
       <use xlink:href="#DejaVuSans-2e" transform="translate(63.623047 0)"/>
       <use xlink:href="#DejaVuSans-35" transform="translate(95.410156 0)"/>
      </g>
     </g>
    </g>
    <g class="tick xtick">
     <g id="line2d_5">
      <path d="M 228.414531 297.430125 
L 228.414531 31.318125 
" clip-path="url(#pe31d02f296)" style="fill: none; stroke: #b0b0b0; stroke-opacity: 0.1; stroke-width: 0.8; stroke-linecap: square"/>
     </g>
     <g id="line2d_6">
      <g>
       <use xlink:href="#m310c3ec048" x="228.414531" y="297.430125" style="stroke: currentColor; stroke-width: 0.8"/>
      </g>
     </g>
     <g id="text_3" class="text">
      <!-- 1.0 -->
      <g transform="translate(221.258125 311.268719) scale(0.09 -0.09)">
       <defs>
        <path id="DejaVuSans-31" d="M 794 531 
L 1825 531 
L 1825 4091 
L 703 3866 
L 703 4441 
L 1819 4666 
L 2450 4666 
L 2450 531 
L 3481 531 
L 3481 0 
L 794 0 
L 794 531 
z
" transform="scale(0.015625)"/>
       </defs>
       <use xlink:href="#DejaVuSans-31"/>
       <use xlink:href="#DejaVuSans-2e" transform="translate(63.623047 0)"/>
       <use xlink:href="#DejaVuSans-30" transform="translate(95.410156 0)"/>
      </g>
     </g>
    </g>
    <g class="tick xtick">
     <g id="line2d_7">
      <path d="M 302.814531 297.430125 
L 302.814531 31.318125 
" clip-path="url(#pe31d02f296)" style="fill: none; stroke: #b0b0b0; stroke-opacity: 0.1; stroke-width: 0.8; stroke-linecap: square"/>
     </g>
     <g id="line2d_8">
      <g>
       <use xlink:href="#m310c3ec048" x="302.814531" y="297.430125" style="stroke: currentColor; stroke-width: 0.8"/>
      </g>
     </g>
     <g id="text_4" class="text">
      <!-- 1.5 -->
      <g transform="translate(295.658125 311.268719) scale(0.09 -0.09)">
       <use xlink:href="#DejaVuSans-31"/>
       <use xlink:href="#DejaVuSans-2e" transform="translate(63.623047 0)"/>
       <use xlink:href="#DejaVuSans-35" transform="translate(95.410156 0)"/>
      </g>
     </g>
    </g>
    <g class="tick xtick">
     <g id="line2d_9">
      <path d="M 377.214531 297.430125 
L 377.214531 31.318125 
" clip-path="url(#pe31d02f296)" style="fill: none; stroke: #b0b0b0; stroke-opacity: 0.1; stroke-width: 0.8; stroke-linecap: square"/>
     </g>
     <g id="line2d_10">
      <g>
       <use xlink:href="#m310c3ec048" x="377.214531" y="297.430125" style="stroke: currentColor; stroke-width: 0.8"/>
      </g>
     </g>
     <g id="text_5" class="text">
      <!-- 2.0 -->
      <g transform="translate(370.058125 311.268719) scale(0.09 -0.09)">
       <defs>
        <path id="DejaVuSans-32" d="M 1228 531 
L 3431 531 
L 3431 0 
L 469 0 
L 469 531 
Q 828 903 1448 1529 
Q 2069 2156 2228 2338 
Q 2531 2678 2651 2914 
Q 2772 3150 2772 3378 
Q 2772 3750 2511 3984 
Q 2250 4219 1831 4219 
Q 1534 4219 1204 4116 
Q 875 4013 500 3803 
L 500 4441 
Q 881 4594 1212 4672 
Q 1544 4750 1819 4750 
Q 2544 4750 2975 4387 
Q 3406 4025 3406 3419 
Q 3406 3131 3298 2873 
Q 3191 2616 2906 2266 
Q 2828 2175 2409 1742 
Q 1991 1309 1228 531 
z
" transform="scale(0.015625)"/>
       </defs>
       <use xlink:href="#DejaVuSans-32"/>
       <use xlink:href="#DejaVuSans-2e" transform="translate(63.623047 0)"/>
       <use xlink:href="#DejaVuSans-30" transform="translate(95.410156 0)"/>
      </g>
     </g>
    </g>
    <g id="text_6" class="text">
     <!-- $t$ -->
     <g transform="translate(226.414531 324.738875) scale(0.1 -0.1)">
      <defs>
       <path id="DejaVuSans-Oblique-74" d="M 2706 3500 
L 2619 3053 
L 1472 3053 
L 1100 1153 
Q 1081 1047 1072 975 
Q 1063 903 1063 863 
Q 1063 663 1183 572 
Q 1303 481 1569 481 
L 2150 481 
L 2053 0 
L 1503 0 
Q 991 0 739 200 
Q 488 400 488 806 
Q 488 878 497 964 
Q 506 1050 525 1153 
L 897 3053 
L 409 3053 
L 500 3500 
L 978 3500 
L 1172 4494 
L 1747 4494 
L 1556 3500 
L 2706 3500 
z
" transform="scale(0.015625)"/>
      </defs>
      <use xlink:href="#DejaVuSans-Oblique-74" transform="translate(0 0.78125)"/>
     </g>
    </g>
   </g>
   <g class="axis">
    <g class="tick ytick">
     <g id="line2d_11">
      <path d="M 49.854531 288.014132 
L 406.974531 288.014132 
" clip-path="url(#pe31d02f296)" style="fill: none; stroke: #b0b0b0; stroke-opacity: 0.1; stroke-width: 0.8; stroke-linecap: square"/>
     </g>
     <g id="line2d_12">
      <defs>
       <path id="m59e05c7ac4" d="M 0 0 
L -3.5 0 
" style="stroke: currentColor; stroke-width: 0.8"/>
      </defs>
      <g>
       <use xlink:href="#m59e05c7ac4" x="49.854531" y="288.014132" style="stroke: currentColor; stroke-width: 0.8"/>
      </g>
     </g>
     <g id="text_7" class="text">
      <!-- −1.0 -->
      <g transform="translate(21 291.433429) scale(0.09 -0.09)">
       <defs>
        <path id="DejaVuSans-2212" d="M 678 2272 
L 4684 2272 
L 4684 1741 
L 678 1741 
L 678 2272 
z
" transform="scale(0.015625)"/>
       </defs>
       <use xlink:href="#DejaVuSans-2212"/>
       <use xlink:href="#DejaVuSans-31" transform="translate(83.789062 0)"/>
       <use xlink:href="#DejaVuSans-2e" transform="translate(147.412109 0)"/>
       <use xlink:href="#DejaVuSans-30" transform="translate(179.199219 0)"/>
      </g>
     </g>
    </g>
    <g class="tick ytick">
     <g id="line2d_13">
      <path d="M 49.854531 255.764151 
L 406.974531 255.764151 
" clip-path="url(#pe31d02f296)" style="fill: none; stroke: #b0b0b0; stroke-opacity: 0.1; stroke-width: 0.8; stroke-linecap: square"/>
     </g>
     <g id="line2d_14">
      <g>
       <use xlink:href="#m59e05c7ac4" x="49.854531" y="255.764151" style="stroke: currentColor; stroke-width: 0.8"/>
      </g>
     </g>
     <g id="text_8" class="text">
      <!-- −0.5 -->
      <g transform="translate(21 259.183448) scale(0.09 -0.09)">
       <use xlink:href="#DejaVuSans-2212"/>
       <use xlink:href="#DejaVuSans-30" transform="translate(83.789062 0)"/>
       <use xlink:href="#DejaVuSans-2e" transform="translate(147.412109 0)"/>
       <use xlink:href="#DejaVuSans-35" transform="translate(179.199219 0)"/>
      </g>
     </g>
    </g>
    <g class="tick ytick">
     <g id="line2d_15">
      <path d="M 49.854531 223.51417 
L 406.974531 223.51417 
" clip-path="url(#pe31d02f296)" style="fill: none; stroke: #b0b0b0; stroke-opacity: 0.1; stroke-width: 0.8; stroke-linecap: square"/>
     </g>
     <g id="line2d_16">
      <g>
       <use xlink:href="#m59e05c7ac4" x="49.854531" y="223.51417" style="stroke: currentColor; stroke-width: 0.8"/>
      </g>
     </g>
     <g id="text_9" class="text">
      <!-- 0.0 -->
      <g transform="translate(28.541719 226.933467) scale(0.09 -0.09)">
       <use xlink:href="#DejaVuSans-30"/>
       <use xlink:href="#DejaVuSans-2e" transform="translate(63.623047 0)"/>
       <use xlink:href="#DejaVuSans-30" transform="translate(95.410156 0)"/>
      </g>
     </g>
    </g>
    <g class="tick ytick">
     <g id="line2d_17">
      <path d="M 49.854531 191.264189 
L 406.974531 191.264189 
" clip-path="url(#pe31d02f296)" style="fill: none; stroke: #b0b0b0; stroke-opacity: 0.1; stroke-width: 0.8; stroke-linecap: square"/>
     </g>
     <g id="line2d_18">
      <g>
       <use xlink:href="#m59e05c7ac4" x="49.854531" y="191.264189" style="stroke: currentColor; stroke-width: 0.8"/>
      </g>
     </g>
     <g id="text_10" class="text">
      <!-- 0.5 -->
      <g transform="translate(28.541719 194.683486) scale(0.09 -0.09)">
       <use xlink:href="#DejaVuSans-30"/>
       <use xlink:href="#DejaVuSans-2e" transform="translate(63.623047 0)"/>
       <use xlink:href="#DejaVuSans-35" transform="translate(95.410156 0)"/>
      </g>
     </g>
    </g>
    <g class="tick ytick">
     <g id="line2d_19">
      <path d="M 49.854531 159.014208 
L 406.974531 159.014208 
" clip-path="url(#pe31d02f296)" style="fill: none; stroke: #b0b0b0; stroke-opacity: 0.1; stroke-width: 0.8; stroke-linecap: square"/>
     </g>
     <g id="line2d_20">
      <g>
       <use xlink:href="#m59e05c7ac4" x="49.854531" y="159.014208" style="stroke: currentColor; stroke-width: 0.8"/>
      </g>
     </g>
     <g id="text_11" class="text">
      <!-- 1.0 -->
      <g transform="translate(28.541719 162.433505) scale(0.09 -0.09)">
       <use xlink:href="#DejaVuSans-31"/>
       <use xlink:href="#DejaVuSans-2e" transform="translate(63.623047 0)"/>
       <use xlink:href="#DejaVuSans-30" transform="translate(95.410156 0)"/>
      </g>
     </g>
    </g>
    <g class="tick ytick">
     <g id="line2d_21">
      <path d="M 49.854531 126.764227 
L 406.974531 126.764227 
" clip-path="url(#pe31d02f296)" style="fill: none; stroke: #b0b0b0; stroke-opacity: 0.1; stroke-width: 0.8; stroke-linecap: square"/>
     </g>
     <g id="line2d_22">
      <g>
       <use xlink:href="#m59e05c7ac4" x="49.854531" y="126.764227" style="stroke: currentColor; stroke-width: 0.8"/>
      </g>
     </g>
     <g id="text_12" class="text">
      <!-- 1.5 -->
      <g transform="translate(28.541719 130.183524) scale(0.09 -0.09)">
       <use xlink:href="#DejaVuSans-31"/>
       <use xlink:href="#DejaVuSans-2e" transform="translate(63.623047 0)"/>
       <use xlink:href="#DejaVuSans-35" transform="translate(95.410156 0)"/>
      </g>
     </g>
    </g>
    <g class="tick ytick">
     <g id="line2d_23">
      <path d="M 49.854531 94.514246 
L 406.974531 94.514246 
" clip-path="url(#pe31d02f296)" style="fill: none; stroke: #b0b0b0; stroke-opacity: 0.1; stroke-width: 0.8; stroke-linecap: square"/>
     </g>
     <g id="line2d_24">
      <g>
       <use xlink:href="#m59e05c7ac4" x="49.854531" y="94.514246" style="stroke: currentColor; stroke-width: 0.8"/>
      </g>
     </g>
     <g id="text_13" class="text">
      <!-- 2.0 -->
      <g transform="translate(28.541719 97.933542) scale(0.09 -0.09)">
       <use xlink:href="#DejaVuSans-32"/>
       <use xlink:href="#DejaVuSans-2e" transform="translate(63.623047 0)"/>
       <use xlink:href="#DejaVuSans-30" transform="translate(95.410156 0)"/>
      </g>
     </g>
    </g>
    <g class="tick ytick">
     <g id="line2d_25">
      <path d="M 49.854531 62.264265 
L 406.974531 62.264265 
" clip-path="url(#pe31d02f296)" style="fill: none; stroke: #b0b0b0; stroke-opacity: 0.1; stroke-width: 0.8; stroke-linecap: square"/>
     </g>
     <g id="line2d_26">
      <g>
       <use xlink:href="#m59e05c7ac4" x="49.854531" y="62.264265" style="stroke: currentColor; stroke-width: 0.8"/>
      </g>
     </g>
     <g id="text_14" class="text">
      <!-- 2.5 -->
      <g transform="translate(28.541719 65.683561) scale(0.09 -0.09)">
       <use xlink:href="#DejaVuSans-32"/>
       <use xlink:href="#DejaVuSans-2e" transform="translate(63.623047 0)"/>
       <use xlink:href="#DejaVuSans-35" transform="translate(95.410156 0)"/>
      </g>
     </g>
    </g>
    <g id="text_15" class="text">
     <!-- $\beta(t)$ -->
     <g transform="translate(14.9 173.474125) rotate(-90) scale(0.1 -0.1)">
      <defs>
       <path id="DejaVuSans-Oblique-3b2" d="M 872 216 
L 572 -1331 
L -6 -1331 
L 928 3478 
Q 1206 4903 2538 4903 
Q 3888 4903 3659 3700 
Q 3503 2844 2894 2531 
Q 3713 2250 3553 1416 
Q 3272 -69 1759 -66 
Q 1097 -63 872 216 
z
M 1019 966 
Q 1259 422 1875 425 
Q 2775 425 2966 1406 
Q 3138 2288 1675 2219 
L 1778 2750 
Q 2909 2731 3106 3750 
Q 3241 4438 2509 4434 
Q 1691 4434 1503 3459 
L 1019 966 
z
" transform="scale(0.015625)"/>
       <path id="DejaVuSans-28" d="M 1984 4856 
Q 1566 4138 1362 3434 
Q 1159 2731 1159 2009 
Q 1159 1288 1364 580 
Q 1569 -128 1984 -844 
L 1484 -844 
Q 1016 -109 783 600 
Q 550 1309 550 2009 
Q 550 2706 781 3412 
Q 1013 4119 1484 4856 
L 1984 4856 
z
" transform="scale(0.015625)"/>
       <path id="DejaVuSans-29" d="M 513 4856 
L 1013 4856 
Q 1481 4119 1714 3412 
Q 1947 2706 1947 2009 
Q 1947 1309 1714 600 
Q 1481 -109 1013 -844 
L 513 -844 
Q 928 -128 1133 580 
Q 1338 1288 1338 2009 
Q 1338 2731 1133 3434 
Q 928 4138 513 4856 
z
" transform="scale(0.015625)"/>
      </defs>
      <use xlink:href="#DejaVuSans-Oblique-3b2" transform="translate(0 0.390625)"/>
      <use xlink:href="#DejaVuSans-28" transform="translate(63.818359 0.390625)"/>
      <use xlink:href="#DejaVuSans-Oblique-74" transform="translate(102.832031 0.390625)"/>
      <use xlink:href="#DejaVuSans-29" transform="translate(142.041016 0.390625)"/>
     </g>
    </g>
   </g>
   <g id="line2d_27">
    <path d="M 79.614531 223.51417 
L 82.620592 222.21114 
L 85.626652 220.908111 
L 88.632713 219.605081 
L 91.638774 218.302052 
L 94.644834 216.999022 
L 97.650895 215.695993 
L 100.656955 214.392963 
L 103.663016 213.089934 
L 106.669077 211.786904 
L 109.675137 210.483874 
L 112.681198 209.180845 
L 115.687259 207.877815 
L 118.693319 206.574786 
L 121.69938 205.271756 
L 124.70544 203.968727 
L 127.711501 202.665697 
L 130.717562 201.362668 
L 133.723622 200.059638 
L 136.729683 198.756609 
L 139.735743 197.453579 
L 142.741804 196.15055 
L 145.747865 194.84752 
L 148.753925 193.54449 
L 151.759986 192.241461 
L 154.766046 190.938431 
L 157.772107 189.635402 
L 160.778168 188.332372 
L 163.784228 187.029343 
L 166.790289 185.726313 
L 169.796349 184.423284 
L 172.80241 183.120254 
L 175.808471 181.817225 
L 178.814531 180.514195 
L 181.820592 179.211166 
L 184.826652 177.908136 
L 187.832713 176.605106 
L 190.838774 175.302077 
L 193.844834 173.999047 
L 196.850895 172.696018 
L 199.856955 171.392988 
L 202.863016 170.089959 
L 205.869077 168.786929 
L 208.875137 167.4839 
L 211.881198 166.18087 
L 214.887259 164.877841 
L 217.893319 163.574811 
L 220.89938 162.271782 
L 223.90544 160.968752 
L 226.911501 159.665722 
L 229.917562 158.362693 
L 232.923622 157.059663 
L 235.929683 155.756634 
L 238.935743 154.453604 
L 241.941804 153.150575 
L 244.947865 151.847545 
L 247.953925 150.544516 
L 250.959986 149.241486 
L 253.966046 147.938457 
L 256.972107 146.635427 
L 259.978168 145.332398 
L 262.984228 144.029368 
L 265.990289 142.726338 
L 268.996349 141.423309 
L 272.00241 140.120279 
L 275.008471 138.81725 
L 278.014531 137.51422 
L 281.020592 136.211191 
L 284.026652 134.908161 
L 287.032713 133.605132 
L 290.038774 132.302102 
L 293.044834 130.999073 
L 296.050895 129.696043 
L 299.056955 128.393014 
L 302.063016 127.089984 
L 305.069077 125.786955 
L 308.075137 124.483925 
L 311.081198 123.180895 
L 314.087259 121.877866 
L 317.093319 120.574836 
L 320.09938 119.271807 
L 323.10544 117.968777 
L 326.111501 116.665748 
L 329.117562 115.362718 
L 332.123622 114.059689 
L 335.129683 112.756659 
L 338.135743 111.45363 
L 341.141804 110.1506 
L 344.147865 108.847571 
L 347.153925 107.544541 
L 350.159986 106.241511 
L 353.166046 104.938482 
L 356.172107 103.635452 
L 359.178168 102.332423 
L 362.184228 101.029393 
L 365.190289 99.726364 
L 368.196349 98.423334 
L 371.20241 97.120305 
L 374.208471 95.817275 
L 377.214531 94.514246 
" clip-path="url(#pe31d02f296)" style="fill: none; stroke: #8000ff; stroke-width: 2; stroke-linecap: square"/>
   </g>
   <g id="line2d_28">
    <path d="M 79.614531 223.51417 
L 81.102531 234.64546 
L 82.590531 238.758939 
L 84.078531 231.968322 
L 85.566531 238.13424 
L 87.054531 245.216432 
L 88.542531 250.56875 
L 90.030531 237.543705 
L 91.518531 236.821483 
L 93.006531 228.376996 
L 94.494531 230.362768 
L 95.982531 226.069197 
L 97.470531 225.082124 
L 98.958531 228.247283 
L 100.446531 221.602276 
L 101.934531 223.244699 
L 103.422531 222.995849 
L 104.910531 236.411425 
L 106.398531 234.921155 
L 107.886531 229.149664 
L 109.374531 230.234443 
L 110.862531 224.8448 
L 112.350531 227.193071 
L 113.838531 232.467123 
L 115.326531 239.087897 
L 116.814531 245.001686 
L 118.302531 249.253837 
L 119.790531 248.450503 
L 121.278531 245.000442 
L 122.766531 242.910037 
L 124.254531 240.460321 
L 125.742531 239.940687 
L 127.230531 248.912903 
L 128.718531 249.665708 
L 130.206531 250.040917 
L 131.694531 257.343233 
L 133.182531 258.513565 
L 134.670531 262.244919 
L 136.158531 261.256891 
L 137.646531 259.753211 
L 139.134531 268.840608 
L 142.110531 268.813047 
L 143.598531 264.754457 
L 145.086531 257.384415 
L 146.574531 252.828551 
L 148.062531 249.833567 
L 149.550531 256.567488 
L 151.038531 254.827879 
L 152.526531 245.112231 
L 154.014531 249.474595 
L 155.502531 256.574779 
L 156.990531 264.612943 
L 158.478531 271.63014 
L 159.966531 267.017841 
L 162.942531 252.351483 
L 164.430531 240.253876 
L 165.918531 241.878181 
L 167.406531 234.39136 
L 168.894531 236.548311 
L 170.382531 235.376119 
L 171.870531 220.409616 
L 174.846531 228.026872 
L 176.334531 226.039907 
L 177.822531 222.514542 
L 179.310531 233.046352 
L 180.798531 232.630708 
L 182.286531 241.035882 
L 183.774531 246.283008 
L 185.262531 246.01018 
L 186.750531 243.914512 
L 188.238531 242.497643 
L 189.726531 240.325457 
L 191.214531 236.054855 
L 192.702531 234.326294 
L 194.190531 230.653518 
L 195.678531 231.088309 
L 197.166531 232.68893 
L 198.654531 225.724863 
L 200.142531 229.553092 
L 201.630531 219.98601 
L 203.118531 219.016601 
L 204.606531 212.924196 
L 206.094531 208.280251 
L 207.582531 206.76388 
L 209.070531 202.830558 
L 210.558531 192.403703 
L 212.046531 186.374931 
L 213.534531 191.242833 
L 215.022531 194.948639 
L 216.510531 193.213337 
L 217.998531 193.426234 
L 219.486531 199.178391 
L 220.974531 199.670446 
L 222.462531 197.003088 
L 223.950531 196.086544 
L 225.438531 197.127813 
L 226.926531 192.632518 
L 228.414531 189.343192 
L 229.902531 181.282435 
L 231.390531 182.181849 
L 232.878531 173.154116 
L 234.366531 172.505153 
L 237.342531 160.302809 
L 238.830531 158.574134 
L 240.318531 153.398373 
L 241.806531 156.171994 
L 243.294531 138.419038 
L 244.782531 136.452527 
L 246.270531 139.530919 
L 247.758531 133.746946 
L 249.246531 135.71308 
L 250.734531 133.037425 
L 252.222531 126.903027 
L 253.710531 121.862766 
L 255.198531 127.338971 
L 256.686531 120.02434 
L 258.174531 117.378631 
L 259.662531 122.31943 
L 261.150531 124.266725 
L 262.638531 115.771921 
L 264.126531 110.312142 
L 265.614531 112.509314 
L 267.102531 110.891725 
L 268.590531 103.509309 
L 270.078531 105.124055 
L 271.566531 106.267525 
L 273.054531 105.492455 
L 274.542531 108.367116 
L 276.030531 114.346806 
L 277.518531 118.300771 
L 279.006531 116.642476 
L 280.494531 118.740388 
L 281.982531 121.616614 
L 283.470531 115.754483 
L 284.958531 113.037978 
L 286.446531 108.544728 
L 287.934531 111.562479 
L 289.422531 113.009113 
L 290.910531 113.895902 
L 292.398531 115.32082 
L 293.886531 108.764822 
L 295.374531 114.935549 
L 296.862531 101.868131 
L 298.350531 111.895538 
L 299.838531 109.72098 
L 301.326531 96.225883 
L 302.814531 88.391221 
L 304.302531 95.637855 
L 305.790531 104.240464 
L 307.278531 105.577879 
L 308.766531 97.527557 
L 310.254531 110.532235 
L 311.742531 104.780388 
L 313.230531 102.007856 
L 314.718531 101.163428 
L 316.206531 96.970776 
L 317.694531 101.906166 
L 319.182531 102.89225 
L 320.670531 101.865789 
L 322.158531 107.939164 
L 323.646531 113.147561 
L 325.134531 116.709961 
L 326.622531 106.027013 
L 328.110531 114.521851 
L 329.598531 99.945981 
L 331.086531 96.338455 
L 332.574531 101.261028 
L 335.550531 120.209152 
L 337.038531 108.105871 
L 338.526531 118.931731 
L 340.014531 114.490858 
L 341.502531 99.456004 
L 342.990531 105.562569 
L 344.478531 106.630711 
L 345.966531 107.303824 
L 347.454531 106.894643 
L 348.942531 101.624475 
L 350.430531 85.648784 
L 351.918531 83.006158 
L 353.406531 83.9387 
L 354.894531 86.558787 
L 356.382531 93.829301 
L 357.870531 86.833381 
L 359.358531 87.00588 
L 360.846531 86.074369 
L 362.334531 94.190875 
L 363.822531 83.220965 
L 365.310531 80.653135 
L 366.798531 72.16933 
L 368.286531 65.64531 
L 369.774531 59.671826 
L 371.262531 63.624583 
L 372.750531 57.11811 
L 374.238531 62.611271 
L 375.726531 61.364769 
L 375.726531 61.364769 
" clip-path="url(#pe31d02f296)" style="fill: none; stroke: #ff8000; stroke-width: 2; stroke-linecap: square"/>
   </g>
   <g class="patch">
    <path d="M 49.854531 297.430125 
L 49.854531 31.318125 
" style="fill: none; stroke: currentColor; stroke-width: 0.8; stroke-linejoin: miter; stroke-linecap: square"/>
   </g>
   <g class="patch">
    <path d="M 49.854531 297.430125 
L 406.974531 297.430125 
" style="fill: none; stroke: currentColor; stroke-width: 0.8; stroke-linejoin: miter; stroke-linecap: square"/>
   </g>
   <g id="text_16" class="text">
    <!-- Left Riemann Sum, $n = 10$ -->
    <g transform="translate(150.354531 16.318125) scale(0.12 -0.12)">
     <defs>
      <path id="DejaVuSans-4c" d="M 628 4666 
L 1259 4666 
L 1259 531 
L 3531 531 
L 3531 0 
L 628 0 
L 628 4666 
z
" transform="scale(0.015625)"/>
      <path id="DejaVuSans-65" d="M 3597 1894 
L 3597 1613 
L 953 1613 
Q 991 1019 1311 708 
Q 1631 397 2203 397 
Q 2534 397 2845 478 
Q 3156 559 3463 722 
L 3463 178 
Q 3153 47 2828 -22 
Q 2503 -91 2169 -91 
Q 1331 -91 842 396 
Q 353 884 353 1716 
Q 353 2575 817 3079 
Q 1281 3584 2069 3584 
Q 2775 3584 3186 3129 
Q 3597 2675 3597 1894 
z
M 3022 2063 
Q 3016 2534 2758 2815 
Q 2500 3097 2075 3097 
Q 1594 3097 1305 2825 
Q 1016 2553 972 2059 
L 3022 2063 
z
" transform="scale(0.015625)"/>
      <path id="DejaVuSans-66" d="M 2375 4863 
L 2375 4384 
L 1825 4384 
Q 1516 4384 1395 4259 
Q 1275 4134 1275 3809 
L 1275 3500 
L 2222 3500 
L 2222 3053 
L 1275 3053 
L 1275 0 
L 697 0 
L 697 3053 
L 147 3053 
L 147 3500 
L 697 3500 
L 697 3744 
Q 697 4328 969 4595 
Q 1241 4863 1831 4863 
L 2375 4863 
z
" transform="scale(0.015625)"/>
      <path id="DejaVuSans-74" d="M 1172 4494 
L 1172 3500 
L 2356 3500 
L 2356 3053 
L 1172 3053 
L 1172 1153 
Q 1172 725 1289 603 
Q 1406 481 1766 481 
L 2356 481 
L 2356 0 
L 1766 0 
Q 1100 0 847 248 
Q 594 497 594 1153 
L 594 3053 
L 172 3053 
L 172 3500 
L 594 3500 
L 594 4494 
L 1172 4494 
z
" transform="scale(0.015625)"/>
      <path id="DejaVuSans-20" transform="scale(0.015625)"/>
      <path id="DejaVuSans-52" d="M 2841 2188 
Q 3044 2119 3236 1894 
Q 3428 1669 3622 1275 
L 4263 0 
L 3584 0 
L 2988 1197 
Q 2756 1666 2539 1819 
Q 2322 1972 1947 1972 
L 1259 1972 
L 1259 0 
L 628 0 
L 628 4666 
L 2053 4666 
Q 2853 4666 3247 4331 
Q 3641 3997 3641 3322 
Q 3641 2881 3436 2590 
Q 3231 2300 2841 2188 
z
M 1259 4147 
L 1259 2491 
L 2053 2491 
Q 2509 2491 2742 2702 
Q 2975 2913 2975 3322 
Q 2975 3731 2742 3939 
Q 2509 4147 2053 4147 
L 1259 4147 
z
" transform="scale(0.015625)"/>
      <path id="DejaVuSans-69" d="M 603 3500 
L 1178 3500 
L 1178 0 
L 603 0 
L 603 3500 
z
M 603 4863 
L 1178 4863 
L 1178 4134 
L 603 4134 
L 603 4863 
z
" transform="scale(0.015625)"/>
      <path id="DejaVuSans-6d" d="M 3328 2828 
Q 3544 3216 3844 3400 
Q 4144 3584 4550 3584 
Q 5097 3584 5394 3201 
Q 5691 2819 5691 2113 
L 5691 0 
L 5113 0 
L 5113 2094 
Q 5113 2597 4934 2840 
Q 4756 3084 4391 3084 
Q 3944 3084 3684 2787 
Q 3425 2491 3425 1978 
L 3425 0 
L 2847 0 
L 2847 2094 
Q 2847 2600 2669 2842 
Q 2491 3084 2119 3084 
Q 1678 3084 1418 2786 
Q 1159 2488 1159 1978 
L 1159 0 
L 581 0 
L 581 3500 
L 1159 3500 
L 1159 2956 
Q 1356 3278 1631 3431 
Q 1906 3584 2284 3584 
Q 2666 3584 2933 3390 
Q 3200 3197 3328 2828 
z
" transform="scale(0.015625)"/>
      <path id="DejaVuSans-61" d="M 2194 1759 
Q 1497 1759 1228 1600 
Q 959 1441 959 1056 
Q 959 750 1161 570 
Q 1363 391 1709 391 
Q 2188 391 2477 730 
Q 2766 1069 2766 1631 
L 2766 1759 
L 2194 1759 
z
M 3341 1997 
L 3341 0 
L 2766 0 
L 2766 531 
Q 2569 213 2275 61 
Q 1981 -91 1556 -91 
Q 1019 -91 701 211 
Q 384 513 384 1019 
Q 384 1609 779 1909 
Q 1175 2209 1959 2209 
L 2766 2209 
L 2766 2266 
Q 2766 2663 2505 2880 
Q 2244 3097 1772 3097 
Q 1472 3097 1187 3025 
Q 903 2953 641 2809 
L 641 3341 
Q 956 3463 1253 3523 
Q 1550 3584 1831 3584 
Q 2591 3584 2966 3190 
Q 3341 2797 3341 1997 
z
" transform="scale(0.015625)"/>
      <path id="DejaVuSans-6e" d="M 3513 2113 
L 3513 0 
L 2938 0 
L 2938 2094 
Q 2938 2591 2744 2837 
Q 2550 3084 2163 3084 
Q 1697 3084 1428 2787 
Q 1159 2491 1159 1978 
L 1159 0 
L 581 0 
L 581 3500 
L 1159 3500 
L 1159 2956 
Q 1366 3272 1645 3428 
Q 1925 3584 2291 3584 
Q 2894 3584 3203 3211 
Q 3513 2838 3513 2113 
z
" transform="scale(0.015625)"/>
      <path id="DejaVuSans-53" d="M 3425 4513 
L 3425 3897 
Q 3066 4069 2747 4153 
Q 2428 4238 2131 4238 
Q 1616 4238 1336 4038 
Q 1056 3838 1056 3469 
Q 1056 3159 1242 3001 
Q 1428 2844 1947 2747 
L 2328 2669 
Q 3034 2534 3370 2195 
Q 3706 1856 3706 1288 
Q 3706 609 3251 259 
Q 2797 -91 1919 -91 
Q 1588 -91 1214 -16 
Q 841 59 441 206 
L 441 856 
Q 825 641 1194 531 
Q 1563 422 1919 422 
Q 2459 422 2753 634 
Q 3047 847 3047 1241 
Q 3047 1584 2836 1778 
Q 2625 1972 2144 2069 
L 1759 2144 
Q 1053 2284 737 2584 
Q 422 2884 422 3419 
Q 422 4038 858 4394 
Q 1294 4750 2059 4750 
Q 2388 4750 2728 4690 
Q 3069 4631 3425 4513 
z
" transform="scale(0.015625)"/>
      <path id="DejaVuSans-75" d="M 544 1381 
L 544 3500 
L 1119 3500 
L 1119 1403 
Q 1119 906 1312 657 
Q 1506 409 1894 409 
Q 2359 409 2629 706 
Q 2900 1003 2900 1516 
L 2900 3500 
L 3475 3500 
L 3475 0 
L 2900 0 
L 2900 538 
Q 2691 219 2414 64 
Q 2138 -91 1772 -91 
Q 1169 -91 856 284 
Q 544 659 544 1381 
z
M 1991 3584 
L 1991 3584 
z
" transform="scale(0.015625)"/>
      <path id="DejaVuSans-2c" d="M 750 794 
L 1409 794 
L 1409 256 
L 897 -744 
L 494 -744 
L 750 256 
L 750 794 
z
" transform="scale(0.015625)"/>
      <path id="DejaVuSans-Oblique-6e" d="M 3566 2113 
L 3156 0 
L 2578 0 
L 2988 2091 
Q 3016 2238 3031 2350 
Q 3047 2463 3047 2528 
Q 3047 2791 2881 2937 
Q 2716 3084 2419 3084 
Q 1956 3084 1622 2776 
Q 1288 2469 1184 1941 
L 800 0 
L 225 0 
L 903 3500 
L 1478 3500 
L 1363 2950 
Q 1603 3253 1940 3418 
Q 2278 3584 2650 3584 
Q 3113 3584 3367 3334 
Q 3622 3084 3622 2631 
Q 3622 2519 3608 2391 
Q 3594 2263 3566 2113 
z
" transform="scale(0.015625)"/>
      <path id="DejaVuSans-3d" d="M 678 2906 
L 4684 2906 
L 4684 2381 
L 678 2381 
L 678 2906 
z
M 678 1631 
L 4684 1631 
L 4684 1100 
L 678 1100 
L 678 1631 
z
" transform="scale(0.015625)"/>
     </defs>
     <use xlink:href="#DejaVuSans-4c" transform="translate(0 0.015625)"/>
     <use xlink:href="#DejaVuSans-65" transform="translate(55.712891 0.015625)"/>
     <use xlink:href="#DejaVuSans-66" transform="translate(117.236328 0.015625)"/>
     <use xlink:href="#DejaVuSans-74" transform="translate(152.441406 0.015625)"/>
     <use xlink:href="#DejaVuSans-20" transform="translate(191.650391 0.015625)"/>
     <use xlink:href="#DejaVuSans-52" transform="translate(223.4375 0.015625)"/>
     <use xlink:href="#DejaVuSans-69" transform="translate(292.919922 0.015625)"/>
     <use xlink:href="#DejaVuSans-65" transform="translate(320.703125 0.015625)"/>
     <use xlink:href="#DejaVuSans-6d" transform="translate(382.226562 0.015625)"/>
     <use xlink:href="#DejaVuSans-61" transform="translate(479.638672 0.015625)"/>
     <use xlink:href="#DejaVuSans-6e" transform="translate(540.917969 0.015625)"/>
     <use xlink:href="#DejaVuSans-6e" transform="translate(604.296875 0.015625)"/>
     <use xlink:href="#DejaVuSans-20" transform="translate(667.675781 0.015625)"/>
     <use xlink:href="#DejaVuSans-53" transform="translate(699.462891 0.015625)"/>
     <use xlink:href="#DejaVuSans-75" transform="translate(762.939453 0.015625)"/>
     <use xlink:href="#DejaVuSans-6d" transform="translate(826.318359 0.015625)"/>
     <use xlink:href="#DejaVuSans-2c" transform="translate(923.730469 0.015625)"/>
     <use xlink:href="#DejaVuSans-20" transform="translate(955.517578 0.015625)"/>
     <use xlink:href="#DejaVuSans-Oblique-6e" transform="translate(987.304688 0.015625)"/>
     <use xlink:href="#DejaVuSans-3d" transform="translate(1070.166016 0.015625)"/>
     <use xlink:href="#DejaVuSans-31" transform="translate(1173.4375 0.015625)"/>
     <use xlink:href="#DejaVuSans-30" transform="translate(1237.060547 0.015625)"/>
    </g>
   </g>
  </g>
 </g>
 <defs>
  <clipPath id="pe31d02f296">
   <rect x="49.854531" y="31.318125" width="357.12" height="266.112"/>
  </clipPath>
 </defs>
</svg>
