<?xml version="1.0" encoding="utf-8" standalone="no"?>
<!DOCTYPE svg PUBLIC "-//W3C//DTD SVG 1.1//EN"
  "http://www.w3.org/Graphics/SVG/1.1/DTD/svg11.dtd">
<svg xmlns:xlink="http://www.w3.org/1999/xlink" width="468pt" height="316.8pt" viewBox="0 0 346.666667 234.666667" xmlns="http://www.w3.org/2000/svg" version="1.1">
<style>:root { --axis-color:#2a241c; --grid-color:rgba(42, 36, 28, 0.14); --black:#000000;--c1:#D55E00;--c2:#009E73;--c3:#56B4E9;--c4:#CC79A7;--c5:#E69F00;--c6:#C7B42E;--c7:#999999;--c8:#0072B2;--gray:#999999;--grey:#999999;--octonary:#0072B2;--primary:#D55E00;--quaternary:#CC79A7;--quinary:#E69F00;--secondary:#009E73;--senary:#C7B42E;--septenary:#999999;--tertiary:#56B4E9;--white:#ffffff; }
@media (prefers-color-scheme:dark) {
  :root { --axis-color:#e6dfd2; --grid-color:rgba(230, 223, 210, 0.16); --black:#FFFFFF;--c1:#E36A1C;--c2:#23AB7F;--c3:#3F9FD3;--c4:#C673A1;--c5:#C38819;--c6:#847500;--c7:#929292;--c8:#1F81C2;--gray:#929292;--grey:#929292;--octonary:#1F81C2;--primary:#E36A1C;--quaternary:#C673A1;--quinary:#C38819;--secondary:#23AB7F;--senary:#847500;--septenary:#929292;--tertiary:#3F9FD3;--white:#000000; }
}
.plot3d path,.plot3d polygon { stroke:var(--axis-color); }
.plot3d-grid line { stroke:var(--grid-color); }</style>

 <metadata>
  <rdf:RDF xmlns:dc="http://purl.org/dc/elements/1.1/" xmlns:cc="http://creativecommons.org/ns#" xmlns:rdf="http://www.w3.org/1999/02/22-rdf-syntax-ns#">
   <cc:Work>
    <dc:type rdf:resource="http://purl.org/dc/dcmitype/StillImage"/>
    <dc:format>image/svg+xml</dc:format>
    <dc:creator>
     <cc:Agent>
      <dc:title>Matplotlib v3.11.1, https://matplotlib.org/</dc:title>
     </cc:Agent>
    </dc:creator>
   </cc:Work>
  </rdf:RDF>
 </metadata>
 <defs>
  <style type="text/css">*{stroke-linejoin: round; stroke-linecap: butt}</style>
 </defs>
 <g id="figure_1">
  <g class="patch">
   <path d="M 0 234.67 
L 346.67 234.67 
L 346.67 0 
L 0 0 
L 0 234.67 
z
" style="fill: none"/>
  </g>
  <g id="axes_1">
   <g class="patch">
    <path d="M 41.16 93.29 
L 335.74 93.29 
L 335.74 3.12 
L 41.16 3.12 
L 41.16 93.29 
z
" style="fill: none"/>
   </g>
   <g class="axis">
    <g class="tick xtick">
     <g id="line2d_1">
      <path d="M 41.16 93.29 
L 41.16 3.12 
" clip-path="url(#p5be00511b8)" style="fill: none; stroke:var(--grid-color); stroke-width: 0.6; stroke-linecap: round"/>
     </g>
     <g id="line2d_2">
      <defs>
       <path id="mffb8127b41" d="M 0 0 
L 0 3 
" style="stroke:var(--axis-color); stroke-width: 0.7"/>
      </defs>
      <g>
       <use xlink:href="#mffb8127b41" x="41.16" y="93.28505" style="fill:var(--axis-color); stroke:var(--axis-color); stroke-width: 0.7"/>
      </g>
     </g>
    </g>
    <g class="tick xtick">
     <g id="line2d_3">
      <path d="M 77.98 93.29 
L 77.98 3.12 
" clip-path="url(#p5be00511b8)" style="fill: none; stroke:var(--grid-color); stroke-width: 0.6; stroke-linecap: round"/>
     </g>
     <g id="line2d_4">
      <g>
       <use xlink:href="#mffb8127b41" x="77.982396" y="93.28505" style="fill:var(--axis-color); stroke:var(--axis-color); stroke-width: 0.7"/>
      </g>
     </g>
    </g>
    <g class="tick xtick">
     <g id="line2d_5">
      <path d="M 114.8 93.29 
L 114.8 3.12 
" clip-path="url(#p5be00511b8)" style="fill: none; stroke:var(--grid-color); stroke-width: 0.6; stroke-linecap: round"/>
     </g>
     <g id="line2d_6">
      <g>
       <use xlink:href="#mffb8127b41" x="114.804792" y="93.28505" style="fill:var(--axis-color); stroke:var(--axis-color); stroke-width: 0.7"/>
      </g>
     </g>
    </g>
    <g class="tick xtick">
     <g id="line2d_7">
      <path d="M 151.63 93.29 
L 151.63 3.12 
" clip-path="url(#p5be00511b8)" style="fill: none; stroke:var(--grid-color); stroke-width: 0.6; stroke-linecap: round"/>
     </g>
     <g id="line2d_8">
      <g>
       <use xlink:href="#mffb8127b41" x="151.627187" y="93.28505" style="fill:var(--axis-color); stroke:var(--axis-color); stroke-width: 0.7"/>
      </g>
     </g>
    </g>
    <g class="tick xtick">
     <g id="line2d_9">
      <path d="M 188.45 93.29 
L 188.45 3.12 
" clip-path="url(#p5be00511b8)" style="fill: none; stroke:var(--grid-color); stroke-width: 0.6; stroke-linecap: round"/>
     </g>
     <g id="line2d_10">
      <g>
       <use xlink:href="#mffb8127b41" x="188.449583" y="93.28505" style="fill:var(--axis-color); stroke:var(--axis-color); stroke-width: 0.7"/>
      </g>
     </g>
    </g>
    <g class="tick xtick">
     <g id="line2d_11">
      <path d="M 225.27 93.29 
L 225.27 3.12 
" clip-path="url(#p5be00511b8)" style="fill: none; stroke:var(--grid-color); stroke-width: 0.6; stroke-linecap: round"/>
     </g>
     <g id="line2d_12">
      <g>
       <use xlink:href="#mffb8127b41" x="225.271979" y="93.28505" style="fill:var(--axis-color); stroke:var(--axis-color); stroke-width: 0.7"/>
      </g>
     </g>
    </g>
    <g class="tick xtick">
     <g id="line2d_13">
      <path d="M 262.09 93.29 
L 262.09 3.12 
" clip-path="url(#p5be00511b8)" style="fill: none; stroke:var(--grid-color); stroke-width: 0.6; stroke-linecap: round"/>
     </g>
     <g id="line2d_14">
      <g>
       <use xlink:href="#mffb8127b41" x="262.094375" y="93.28505" style="fill:var(--axis-color); stroke:var(--axis-color); stroke-width: 0.7"/>
      </g>
     </g>
    </g>
    <g class="tick xtick">
     <g id="line2d_15">
      <path d="M 298.92 93.29 
L 298.92 3.12 
" clip-path="url(#p5be00511b8)" style="fill: none; stroke:var(--grid-color); stroke-width: 0.6; stroke-linecap: round"/>
     </g>
     <g id="line2d_16">
      <g>
       <use xlink:href="#mffb8127b41" x="298.916771" y="93.28505" style="fill:var(--axis-color); stroke:var(--axis-color); stroke-width: 0.7"/>
      </g>
     </g>
    </g>
    <g class="tick xtick">
     <g id="line2d_17">
      <path d="M 335.74 93.29 
L 335.74 3.12 
" clip-path="url(#p5be00511b8)" style="fill: none; stroke:var(--grid-color); stroke-width: 0.6; stroke-linecap: round"/>
     </g>
     <g id="line2d_18">
      <g>
       <use xlink:href="#mffb8127b41" x="335.739167" y="93.28505" style="fill:var(--axis-color); stroke:var(--axis-color); stroke-width: 0.7"/>
      </g>
     </g>
    </g>
   </g>
   <g class="axis">
    <g class="tick ytick">
     <g id="line2d_19">
      <path d="M 41.16 81.3 
L 335.74 81.3 
" clip-path="url(#p5be00511b8)" style="fill: none; stroke:var(--grid-color); stroke-width: 0.6; stroke-linecap: round"/>
     </g>
     <g id="line2d_20">
      <defs>
       <path id="md54551f048" d="M 0 0 
L -3 0 
" style="stroke:var(--axis-color); stroke-width: 0.7"/>
      </defs>
      <g>
       <use xlink:href="#md54551f048" x="41.16" y="81.304751" style="fill:var(--axis-color); stroke:var(--axis-color); stroke-width: 0.7"/>
      </g>
     </g>
     <g id="text_1" class="text">
      <!-- $\mathdefault{−2}$ -->
      <g style="fill:var(--axis-color)" transform="translate(22.82 86.591501) scale(0.105 -0.105)">
       <defs>
        <path id="EBGaramond-Regular-b26" d="M 410 1421 
Q 378 1421 349 1446 
Q 320 1472 320 1498 
Q 320 1530 329 1603 
Q 339 1677 374 1741 
Q 410 1805 474 1805 
L 3437 1805 
Q 3469 1805 3494 1782 
Q 3520 1760 3520 1728 
Q 3520 1626 3465 1523 
Q 3411 1421 3322 1421 
L 410 1421 
z
" transform="scale(0.015625)"/>
        <path id="EBGaramond-Regular-8cf" d="M 2681 -19 
Q 2617 -19 2473 -9 
Q 2329 0 2153 9 
Q 1977 19 1817 19 
Q 1696 19 1472 12 
Q 1248 6 1001 3 
Q 755 0 569 -6 
Q 384 -13 332 -13 
Q 307 -13 255 28 
Q 204 70 204 96 
Q 204 128 217 141 
Q 230 154 256 179 
L 1350 1312 
Q 1670 1645 1881 2057 
Q 2092 2470 2092 2893 
Q 2092 3232 1887 3427 
Q 1683 3622 1408 3622 
Q 1145 3622 921 3478 
Q 697 3334 563 3104 
Q 518 3014 454 3014 
Q 428 3014 393 3068 
Q 358 3123 358 3206 
Q 358 3283 451 3417 
Q 544 3552 710 3693 
Q 876 3834 1106 3933 
Q 1337 4032 1606 4032 
Q 2086 4032 2358 3737 
Q 2630 3443 2630 2976 
Q 2630 2720 2499 2409 
Q 2368 2099 2163 1856 
Q 2080 1754 1916 1584 
Q 1753 1414 1564 1222 
Q 1376 1030 1206 860 
Q 1036 691 927 579 
Q 819 467 819 454 
Q 819 422 908 410 
Q 1120 390 1472 390 
Q 1856 390 2201 410 
Q 2387 422 2489 441 
Q 2592 461 2662 521 
Q 2732 582 2809 710 
Q 2835 749 2876 803 
Q 2918 858 2969 858 
Q 3001 858 3007 832 
Q 3014 806 3014 781 
Q 3014 736 2943 557 
Q 2873 378 2822 134 
Q 2803 32 2758 6 
Q 2713 -19 2681 -19 
z
" transform="scale(0.015625)"/>
       </defs>
       <use xlink:href="#EBGaramond-Regular-b26"/>
       <use xlink:href="#EBGaramond-Regular-8cf" transform="translate(59.999939 0)"/>
      </g>
     </g>
    </g>
    <g class="tick ytick">
     <g id="line2d_21">
      <path d="M 41.16 44.39 
L 335.74 44.39 
" clip-path="url(#p5be00511b8)" style="fill: none; stroke:var(--grid-color); stroke-width: 0.6; stroke-linecap: round"/>
     </g>
     <g id="line2d_22">
      <g>
       <use xlink:href="#md54551f048" x="41.16" y="44.385053" style="fill:var(--axis-color); stroke:var(--axis-color); stroke-width: 0.7"/>
      </g>
     </g>
     <g id="text_2" class="text">
      <!-- $\mathdefault{−1}$ -->
      <g style="fill:var(--axis-color)" transform="translate(22.82 49.671803) scale(0.105 -0.105)">
       <defs>
        <path id="EBGaramond-Regular-8ce" d="M 685 -19 
Q 589 -19 589 58 
Q 589 115 685 141 
Q 928 205 1085 259 
Q 1242 314 1315 413 
Q 1389 512 1389 698 
L 1389 3142 
Q 1389 3328 1222 3382 
Q 1056 3437 851 3450 
Q 787 3456 736 3481 
Q 685 3507 685 3558 
Q 685 3603 733 3635 
Q 781 3667 845 3674 
Q 1133 3718 1360 3785 
Q 1587 3853 1805 4070 
Q 1811 4077 1837 4077 
Q 1869 4077 1894 4061 
Q 1920 4045 1914 4019 
Q 1901 3923 1894 3811 
Q 1888 3699 1888 3565 
L 1888 621 
Q 1888 461 1949 377 
Q 2010 294 2157 246 
Q 2304 198 2566 134 
Q 2605 128 2640 105 
Q 2675 83 2675 51 
Q 2675 -19 2586 -19 
Q 2310 -19 2105 -3 
Q 1901 13 1645 13 
Q 1389 13 1168 -3 
Q 947 -19 685 -19 
z
" transform="scale(0.015625)"/>
       </defs>
       <use xlink:href="#EBGaramond-Regular-b26" transform="translate(0 0.296875)"/>
       <use xlink:href="#EBGaramond-Regular-8ce" transform="translate(59.999939 0.296875)"/>
      </g>
     </g>
    </g>
    <g class="tick ytick">
     <g id="line2d_23">
      <path d="M 41.16 7.47 
L 335.74 7.47 
" clip-path="url(#p5be00511b8)" style="fill: none; stroke:var(--grid-color); stroke-width: 0.6; stroke-linecap: round"/>
     </g>
     <g id="line2d_24">
      <g>
       <use xlink:href="#md54551f048" x="41.16" y="7.465355" style="fill:var(--axis-color); stroke:var(--axis-color); stroke-width: 0.7"/>
      </g>
     </g>
     <g id="text_3" class="text">
      <!-- $\mathdefault{0}$ -->
      <g style="fill:var(--axis-color)" transform="translate(29.12 12.752105) scale(0.105 -0.105)">
       <defs>
        <path id="EBGaramond-Regular-8cd" d="M 1568 -90 
Q 1242 -90 1002 89 
Q 762 269 602 566 
Q 442 864 365 1222 
Q 288 1581 288 1933 
Q 288 2298 365 2669 
Q 442 3040 605 3347 
Q 768 3654 1024 3843 
Q 1280 4032 1632 4032 
Q 1959 4032 2199 3853 
Q 2439 3674 2599 3376 
Q 2759 3078 2835 2723 
Q 2912 2368 2912 2022 
Q 2912 1664 2835 1293 
Q 2759 922 2595 608 
Q 2432 294 2179 102 
Q 1927 -90 1568 -90 
z
M 1677 77 
Q 1933 77 2090 336 
Q 2247 595 2317 1011 
Q 2387 1427 2387 1907 
Q 2387 2266 2333 2611 
Q 2279 2957 2167 3238 
Q 2055 3520 1891 3686 
Q 1728 3853 1511 3853 
Q 1255 3853 1104 3603 
Q 954 3354 886 2941 
Q 819 2528 819 2048 
Q 819 1690 873 1338 
Q 928 986 1033 701 
Q 1139 416 1299 246 
Q 1459 77 1677 77 
z
" transform="scale(0.015625)"/>
       </defs>
       <use xlink:href="#EBGaramond-Regular-8cd"/>
      </g>
     </g>
    </g>
    <g id="text_4" class="text">
     <!-- $\beta(t)$ -->
     <g style="fill:var(--axis-color)" transform="translate(14.244 56.542158) rotate(-90) scale(0.12 -0.12)">
      <defs>
       <path id="EBGaramond-Italic-72f" d="M -32 -1824 
Q -211 -1824 -284 -1661 
Q -358 -1498 -342 -1242 
Q -326 -986 -243 -710 
Q -90 -186 80 348 
Q 250 883 442 1481 
Q 634 2080 838 2790 
Q 1088 3648 1398 4080 
Q 1709 4512 2170 4512 
Q 2426 4512 2582 4403 
Q 2739 4294 2809 4131 
Q 2880 3968 2880 3802 
Q 2880 3597 2803 3350 
Q 2726 3104 2604 2861 
Q 2483 2618 2355 2416 
Q 2227 2214 2125 2093 
Q 2406 1952 2524 1705 
Q 2643 1459 2643 1210 
Q 2643 1011 2550 784 
Q 2458 557 2282 358 
Q 2106 160 1859 35 
Q 1613 -90 1312 -90 
Q 1171 -90 1030 -3 
Q 890 83 778 195 
Q 666 307 602 378 
Q 563 422 531 457 
Q 499 493 474 493 
Q 435 493 387 429 
Q 339 365 320 307 
L 77 -486 
Q 32 -627 32 -781 
Q 32 -992 96 -1155 
Q 160 -1318 218 -1421 
Q 243 -1466 265 -1510 
Q 288 -1555 288 -1574 
Q 288 -1619 224 -1676 
Q 160 -1734 86 -1779 
Q 13 -1824 -32 -1824 
z
M 1299 333 
Q 1453 333 1641 406 
Q 1830 480 2006 617 
Q 2182 755 2294 940 
Q 2406 1126 2406 1344 
Q 2406 1568 2288 1737 
Q 2170 1907 2042 1952 
Q 1952 1869 1846 1757 
Q 1741 1645 1638 1558 
Q 1536 1472 1453 1472 
Q 1363 1472 1280 1568 
Q 1197 1664 1197 1766 
Q 1197 1907 1363 1993 
Q 1530 2080 1702 2125 
Q 1939 2310 2156 2572 
Q 2374 2835 2518 3110 
Q 2662 3386 2662 3610 
Q 2662 3776 2553 3913 
Q 2445 4051 2253 4051 
Q 2093 4051 1897 3964 
Q 1702 3878 1510 3635 
Q 1318 3392 1165 2912 
L 563 979 
Q 557 941 547 902 
Q 538 864 538 826 
Q 538 742 630 627 
Q 723 512 892 422 
Q 1062 333 1299 333 
z
" transform="scale(0.015625)"/>
       <path id="EBGaramond-Regular-a11" d="M 1517 -1370 
Q 1453 -1370 1408 -1325 
Q 1274 -1190 1117 -940 
Q 960 -691 806 -371 
Q 653 -51 528 310 
Q 403 672 329 1033 
Q 256 1395 256 1722 
Q 256 2131 365 2540 
Q 474 2950 646 3318 
Q 819 3686 1014 3977 
Q 1210 4269 1382 4442 
Q 1453 4512 1555 4512 
Q 1587 4512 1641 4483 
Q 1696 4454 1696 4410 
Q 1696 4403 1661 4352 
Q 1626 4301 1613 4288 
Q 1421 4064 1229 3686 
Q 1037 3309 912 2825 
Q 787 2342 787 1798 
Q 787 1389 857 950 
Q 928 512 1043 105 
Q 1158 -301 1302 -617 
Q 1446 -934 1594 -1107 
Q 1600 -1114 1645 -1165 
Q 1690 -1216 1690 -1229 
Q 1690 -1293 1635 -1331 
Q 1581 -1370 1517 -1370 
z
" transform="scale(0.015625)"/>
       <path id="EBGaramond-Italic-223" d="M 410 -90 
Q 326 -90 236 -3 
Q 147 83 147 147 
Q 147 256 176 333 
Q 205 410 237 506 
L 845 2214 
Q 858 2259 835 2275 
Q 813 2291 781 2291 
L 525 2304 
Q 442 2310 426 2339 
Q 410 2368 410 2394 
Q 410 2406 477 2476 
Q 544 2547 627 2547 
L 858 2547 
Q 928 2547 953 2569 
Q 979 2592 1011 2662 
L 1165 2976 
Q 1190 3027 1260 3094 
Q 1331 3162 1404 3213 
Q 1478 3264 1510 3264 
Q 1562 3264 1574 3193 
Q 1587 3123 1562 3059 
L 1395 2630 
Q 1370 2560 1478 2560 
Q 1606 2560 1740 2541 
Q 1875 2522 1958 2509 
Q 2061 2490 2083 2467 
Q 2106 2445 2106 2413 
Q 2106 2400 2080 2371 
Q 2054 2342 1984 2336 
Q 1843 2330 1715 2320 
Q 1587 2310 1446 2304 
Q 1344 2298 1302 2272 
Q 1261 2246 1248 2208 
L 678 634 
Q 589 378 794 378 
Q 883 378 985 442 
Q 1088 506 1184 589 
Q 1280 672 1344 736 
Q 1414 806 1465 800 
Q 1517 794 1517 755 
Q 1517 672 1402 544 
Q 1235 365 1036 221 
Q 838 77 665 -6 
Q 493 -90 410 -90 
z
" transform="scale(0.015625)"/>
       <path id="EBGaramond-Regular-a12" d="M 499 -1370 
Q 435 -1370 380 -1331 
Q 326 -1293 326 -1229 
Q 326 -1216 371 -1165 
Q 416 -1114 422 -1107 
Q 570 -934 714 -617 
Q 858 -301 973 105 
Q 1088 512 1158 950 
Q 1229 1389 1229 1798 
Q 1229 2342 1104 2825 
Q 979 3309 790 3686 
Q 602 4064 403 4288 
Q 397 4301 358 4352 
Q 320 4403 320 4410 
Q 320 4454 374 4483 
Q 429 4512 461 4512 
Q 563 4512 634 4442 
Q 806 4269 1001 3977 
Q 1197 3686 1369 3318 
Q 1542 2950 1651 2540 
Q 1760 2131 1760 1722 
Q 1760 1395 1686 1033 
Q 1613 672 1488 310 
Q 1363 -51 1209 -371 
Q 1056 -691 899 -940 
Q 742 -1190 608 -1325 
Q 563 -1370 499 -1370 
z
" transform="scale(0.015625)"/>
      </defs>
      <use xlink:href="#EBGaramond-Italic-72f" transform="translate(0 0.5)"/>
      <use xlink:href="#EBGaramond-Regular-a11" transform="translate(45.899963 0.5)"/>
      <use xlink:href="#EBGaramond-Italic-223" transform="translate(77.399933 0.5)"/>
      <use xlink:href="#EBGaramond-Regular-a12" transform="translate(106.599899 0.5)"/>
     </g>
    </g>
   </g>
   <g id="line2d_25">
    <path d="M 41.16 7.47 
L 41.23 7.46 
L 41.31 7.22 
L 41.38 7.44 
L 41.6 9.37 
L 41.68 9.32 
L 41.75 8.22 
L 41.82 8.62 
L 41.9 9.14 
L 42.12 8.35 
L 42.26 9.14 
L 42.34 8.57 
L 42.85 15.45 
L 43 15.1 
L 43.07 15.25 
L 43.22 17.77 
L 43.3 17.81 
L 43.37 17.72 
L 43.59 20.19 
L 43.66 20.85 
L 43.74 19.98 
L 43.88 20.67 
L 43.96 19.94 
L 44.11 20.52 
L 44.25 20.37 
L 44.33 21.38 
L 44.4 21.32 
L 44.47 20.2 
L 44.55 21.48 
L 44.69 20.67 
L 44.77 21.2 
L 44.92 18.92 
L 44.99 19.91 
L 45.06 19.84 
L 45.28 18.96 
L 45.36 19.02 
L 45.51 17.28 
L 45.58 17.83 
L 45.65 17.67 
L 46.02 19.56 
L 46.17 17.88 
L 46.32 19.63 
L 46.39 19.09 
L 46.54 21.12 
L 46.61 21.2 
L 46.76 19.59 
L 46.98 20.37 
L 47.05 19.12 
L 47.13 19.47 
L 47.2 19.72 
L 47.27 19.43 
L 47.35 19.53 
L 47.42 19.69 
L 47.57 20.62 
L 47.64 20.99 
L 47.79 19.49 
L 47.86 19.51 
L 48.08 18.37 
L 48.16 18.37 
L 48.23 17.89 
L 48.67 22.74 
L 48.75 22.6 
L 48.82 20.75 
L 48.89 21.43 
L 48.97 21.95 
L 49.04 21.78 
L 49.11 21.37 
L 49.19 21.52 
L 49.26 21.69 
L 49.41 20.68 
L 49.56 21.6 
L 49.63 21.57 
L 49.85 22.93 
L 50 21.97 
L 50.07 21.9 
L 50.22 22.48 
L 50.37 25.07 
L 50.44 24.77 
L 50.51 26.52 
L 50.59 25.83 
L 50.66 27.27 
L 50.73 26.64 
L 50.81 27.34 
L 50.95 26.59 
L 51.03 27.86 
L 51.18 25.64 
L 51.25 25.69 
L 51.4 26.05 
L 51.47 26.85 
L 51.54 25.95 
L 51.62 26.39 
L 51.69 26.44 
L 51.91 28.66 
L 52.13 26.96 
L 52.21 26.94 
L 52.43 28.25 
L 52.5 28.24 
L 52.65 28.8 
L 52.8 30.61 
L 52.87 29.24 
L 52.94 29.79 
L 53.02 30.66 
L 53.09 30.39 
L 53.16 29.22 
L 53.46 32.57 
L 53.53 31.97 
L 53.61 31.98 
L 53.68 31.93 
L 53.75 32.55 
L 53.83 32.17 
L 54.05 33.65 
L 54.12 34.65 
L 54.2 33.55 
L 54.27 33.97 
L 54.34 33.73 
L 54.42 33.76 
L 54.56 34.54 
L 54.64 34.02 
L 54.71 34.27 
L 54.86 34.38 
L 55.08 32.53 
L 55.23 34.13 
L 55.3 33.35 
L 55.37 32.55 
L 55.45 32.67 
L 55.67 30.89 
L 55.89 29.25 
L 55.96 30.28 
L 56.33 25.67 
L 56.4 26.61 
L 56.48 28.01 
L 56.55 27.33 
L 56.7 28.18 
L 56.77 27.49 
L 56.92 30.58 
L 56.99 30.37 
L 57.07 30.33 
L 57.29 31.22 
L 57.58 34.76 
L 57.8 34.06 
L 58.1 36.98 
L 58.17 36.81 
L 58.25 37.46 
L 58.32 37.17 
L 58.39 36.89 
L 58.47 35.21 
L 58.54 36.36 
L 58.61 35.63 
L 58.69 35.71 
L 58.76 35.72 
L 58.91 37.29 
L 58.98 36.68 
L 59.06 36.75 
L 59.13 36.68 
L 59.2 36.92 
L 59.28 35.97 
L 59.35 35.99 
L 59.72 43.12 
L 59.87 41.98 
L 60.01 43.73 
L 60.16 42.66 
L 60.38 42.63 
L 60.6 41.34 
L 60.68 42.2 
L 60.75 41.77 
L 60.82 42.34 
L 60.9 41.44 
L 61.04 42.6 
L 61.12 42.61 
L 61.19 43.7 
L 61.34 41.07 
L 61.41 41.45 
L 61.56 40.51 
L 61.63 42.66 
L 61.71 42.46 
L 61.85 42.44 
L 62 43.55 
L 62.08 43.7 
L 62.22 42.44 
L 62.3 42.44 
L 62.37 41.18 
L 62.44 41.64 
L 62.52 41.96 
L 62.59 43.46 
L 62.89 40.06 
L 63.03 39.79 
L 63.18 40.17 
L 63.25 40.12 
L 63.4 38.42 
L 63.47 38.46 
L 63.62 39.47 
L 63.77 37.73 
L 63.84 37.67 
L 63.92 37.96 
L 64.06 38.93 
L 64.14 38.21 
L 64.21 38.53 
L 64.36 38.9 
L 64.43 38.81 
L 64.65 41.02 
L 64.73 40.29 
L 64.8 40.93 
L 64.87 40.45 
L 64.95 39.19 
L 65.02 39.45 
L 65.09 39.95 
L 65.17 39.79 
L 65.24 39.79 
L 65.32 40.61 
L 65.39 40.23 
L 65.46 38.57 
L 65.54 38.78 
L 65.61 38.95 
L 65.9 41.49 
L 65.98 40.44 
L 66.05 41.18 
L 66.42 36.75 
L 66.49 36.91 
L 66.64 38.52 
L 66.71 38.49 
L 66.86 36.47 
L 67.08 38.37 
L 67.16 38.13 
L 67.23 38.3 
L 67.38 37.88 
L 67.52 38.16 
L 67.75 37.64 
L 67.89 35.61 
L 67.97 35.56 
L 68.26 39.4 
L 68.41 38.12 
L 68.48 38.24 
L 68.7 40.52 
L 68.78 39.99 
L 68.92 37.95 
L 69.29 40.7 
L 69.37 40.61 
L 69.44 41.56 
L 69.66 38.86 
L 69.73 39.26 
L 69.81 38.83 
L 69.88 38.94 
L 70.03 39.54 
L 70.18 41.81 
L 70.25 41.15 
L 70.32 41.31 
L 70.4 41.13 
L 70.47 40.3 
L 70.62 42.38 
L 70.77 41.91 
L 70.84 42.22 
L 70.99 41.2 
L 71.13 42.97 
L 71.28 41.92 
L 71.35 43.49 
L 71.58 40.77 
L 71.72 41.34 
L 71.8 42.27 
L 72.02 39.01 
L 72.31 41.1 
L 72.39 40.29 
L 72.46 41.32 
L 72.61 40.16 
L 72.83 41.81 
L 72.9 41.85 
L 73.2 44.08 
L 73.34 45.18 
L 73.42 44.45 
L 73.56 45.71 
L 73.71 47.06 
L 73.78 46.35 
L 73.86 46.78 
L 73.93 45.54 
L 74.01 46.19 
L 74.08 45.87 
L 74.15 46.06 
L 74.23 46.68 
L 74.45 45.82 
L 74.52 45.86 
L 74.67 46.84 
L 74.74 46.8 
L 74.82 46.01 
L 75.04 48.21 
L 75.11 47.67 
L 75.33 50.11 
L 75.4 49.19 
L 75.7 52.9 
L 75.77 52.58 
L 75.92 53.84 
L 75.99 53.36 
L 76.07 53.99 
L 76.14 53.63 
L 76.36 56.95 
L 76.44 55.41 
L 76.51 55.68 
L 76.73 55.37 
L 76.8 55.33 
L 76.88 53.75 
L 77.17 57.83 
L 77.25 57.22 
L 77.32 56.54 
L 77.54 58.77 
L 77.61 57.62 
L 77.69 59.95 
L 77.76 59.52 
L 77.84 60.41 
L 77.91 59.55 
L 78.2 62.72 
L 78.35 60.9 
L 78.5 61.95 
L 78.65 63.84 
L 78.87 64.01 
L 79.01 64.99 
L 79.09 65.02 
L 79.23 62.42 
L 79.31 62.53 
L 79.6 64.33 
L 79.68 64.38 
L 79.75 65.24 
L 79.82 64.74 
L 79.9 64.83 
L 79.97 64.62 
L 80.04 64.77 
L 80.34 66.8 
L 80.49 66.61 
L 80.71 68.79 
L 80.85 69.54 
L 80.93 71.26 
L 81 71.18 
L 81.08 71.06 
L 81.22 71.54 
L 81.3 71.85 
L 81.52 73.33 
L 81.59 73.26 
L 81.66 74.25 
L 81.74 74.05 
L 81.81 73.94 
L 81.89 74.05 
L 81.96 74.42 
L 82.03 73.96 
L 82.11 75.33 
L 82.18 74.95 
L 82.4 74.2 
L 82.55 74.96 
L 82.77 73.9 
L 82.84 75.15 
L 82.92 74.71 
L 83.14 72.72 
L 83.21 74 
L 83.28 73.23 
L 83.36 73.35 
L 83.43 75.44 
L 83.51 75.13 
L 83.73 77.95 
L 83.8 76.9 
L 83.87 77.21 
L 83.95 76.99 
L 84.09 74.23 
L 84.17 74.31 
L 84.24 74.51 
L 84.39 76.13 
L 84.68 74.54 
L 84.83 75.22 
L 85.13 72.92 
L 85.2 73.18 
L 85.27 72.88 
L 85.42 75.06 
L 85.49 74.58 
L 85.57 74.63 
L 85.64 74.37 
L 85.86 76.57 
L 85.94 77.28 
L 86.08 79.42 
L 86.23 78.37 
L 86.38 78.87 
L 86.45 78.25 
L 86.6 80.63 
L 86.75 79.62 
L 86.97 77.02 
L 87.04 76.77 
L 87.11 76.12 
L 87.26 76.6 
L 87.41 74.24 
L 87.56 74.41 
L 87.63 74.24 
L 87.85 71.95 
L 88 72.9 
L 88.07 73.06 
L 88.22 71.55 
L 88.37 73.55 
L 88.44 73.27 
L 88.59 75.07 
L 88.66 74.22 
L 88.81 73.4 
L 88.88 73.79 
L 89.1 72.24 
L 89.25 73.69 
L 89.32 73.53 
L 89.4 74.11 
L 89.54 73.33 
L 89.62 74.09 
L 89.69 74.03 
L 89.77 74.32 
L 89.84 73.57 
L 89.99 74.45 
L 90.43 68.46 
L 90.5 68.56 
L 90.58 69.36 
L 90.65 69.27 
L 90.72 68.9 
L 90.87 70.94 
L 90.94 72.13 
L 91.02 71.58 
L 91.16 72.32 
L 91.24 72.14 
L 91.31 71.63 
L 91.39 71.91 
L 91.46 71.5 
L 91.68 73.38 
L 91.75 72.44 
L 91.83 72.46 
L 92.05 73.55 
L 92.12 72.97 
L 92.34 75.46 
L 92.49 72.58 
L 92.56 72.67 
L 92.64 72.08 
L 92.71 70.38 
L 92.78 70.57 
L 92.86 70.88 
L 93.08 68.91 
L 93.15 69.33 
L 93.45 65.3 
L 93.52 66.98 
L 93.6 66.45 
L 93.67 66.61 
L 93.82 65.69 
L 93.89 65.97 
L 93.96 67.37 
L 94.04 67.06 
L 94.41 70.63 
L 94.77 66.85 
L 94.99 70.07 
L 95.07 70.49 
L 95.14 70.42 
L 95.36 73.04 
L 95.44 72.79 
L 95.51 72.88 
L 95.8 74.15 
L 95.95 75.57 
L 96.25 70.73 
L 96.32 71.29 
L 96.39 70.1 
L 96.47 70.15 
L 96.54 70.2 
L 96.98 72 
L 97.06 70.12 
L 97.13 70.18 
L 97.2 70.37 
L 97.35 69.35 
L 97.5 70.44 
L 97.65 69.46 
L 97.72 69.36 
L 97.79 68.08 
L 97.87 68.63 
L 97.94 68.57 
L 98.01 69 
L 98.09 67.77 
L 98.31 70.37 
L 98.53 68.17 
L 98.6 69.47 
L 98.68 68.85 
L 98.97 69.95 
L 99.19 73.21 
L 99.27 73.74 
L 99.41 73.18 
L 99.49 71.87 
L 99.56 72.04 
L 99.85 75.69 
L 99.93 75.33 
L 100 75.86 
L 100.08 77.5 
L 100.15 76.92 
L 100.22 77.01 
L 100.52 76.08 
L 100.74 74.38 
L 100.81 74.04 
L 100.96 75.38 
L 101.03 75.6 
L 101.11 75.43 
L 101.18 76.55 
L 101.33 75.11 
L 101.62 77.83 
L 101.84 78.87 
L 101.92 78.42 
L 102.06 79.05 
L 102.14 78.24 
L 102.21 76.12 
L 102.29 76.95 
L 102.43 78.03 
L 102.51 77.38 
L 102.65 78.73 
L 102.73 78.75 
L 103.46 85.89 
L 103.61 84.77 
L 103.68 84.84 
L 103.76 85.57 
L 103.83 85.05 
L 104.05 87.15 
L 104.27 84.82 
L 104.35 85.21 
L 104.42 84.44 
L 104.57 85.07 
L 104.72 82.38 
L 104.86 82.86 
L 104.94 82.59 
L 105.01 81.6 
L 105.08 82 
L 105.23 83.67 
L 105.38 83.56 
L 105.6 81.55 
L 105.67 82.45 
L 106.11 77.56 
L 106.19 78.32 
L 106.26 78.41 
L 106.41 77.42 
L 106.48 77.78 
L 106.56 77.53 
L 106.63 77.76 
L 106.7 77.66 
L 106.78 77.77 
L 106.92 78.73 
L 107 78 
L 107.15 79 
L 107.22 78.45 
L 107.44 80.06 
L 107.59 77.21 
L 107.66 75.54 
L 107.73 75.72 
L 107.88 75.01 
L 107.96 74.93 
L 108.03 73.65 
L 108.1 74.74 
L 108.32 72.75 
L 108.4 72.59 
L 108.47 73.15 
L 108.54 72.92 
L 108.77 71.88 
L 108.84 72.31 
L 108.91 74.07 
L 108.99 73.33 
L 109.13 72.63 
L 109.21 72.57 
L 109.28 71.72 
L 109.36 72.09 
L 109.5 72.83 
L 109.58 71.85 
L 109.65 73 
L 109.72 72.01 
L 109.87 73.45 
L 109.94 72.41 
L 110.02 72.49 
L 110.17 73.86 
L 110.31 72.1 
L 110.39 72.46 
L 110.53 71.53 
L 110.61 72.06 
L 110.68 71.77 
L 110.75 71.8 
L 110.9 72.65 
L 110.98 72.59 
L 111.05 72.57 
L 111.2 73.39 
L 111.64 68.21 
L 111.71 68.89 
L 112.01 65.55 
L 112.15 67.96 
L 112.6 65.29 
L 112.67 65.36 
L 112.74 64.51 
L 112.82 66.38 
L 112.89 65.85 
L 112.96 66.71 
L 113.04 65.92 
L 113.11 66.1 
L 113.48 69.33 
L 113.55 69.35 
L 114.14 66.06 
L 114.36 66.68 
L 114.44 66.61 
L 114.51 67.35 
L 114.58 66.51 
L 114.66 66.84 
L 114.73 66.45 
L 114.8 67.14 
L 114.88 66.84 
L 114.95 66.52 
L 115.03 66.86 
L 115.32 62.63 
L 115.47 63.49 
L 115.61 63.08 
L 115.69 63.04 
L 115.76 63.28 
L 115.98 66.79 
L 116.06 66.48 
L 116.28 67.85 
L 116.35 67.63 
L 116.72 73.62 
L 116.79 72.3 
L 116.87 73.18 
L 116.94 72.64 
L 117.01 73.77 
L 117.09 73.52 
L 117.24 73.84 
L 117.31 73.37 
L 117.46 71.76 
L 117.53 71.65 
L 117.6 72.46 
L 117.82 71.49 
L 117.9 71.53 
L 117.97 70.09 
L 118.12 71.97 
L 118.19 71.24 
L 118.27 71.53 
L 118.49 73.55 
L 118.56 73.45 
L 118.71 70.49 
L 118.93 72.46 
L 119 71.63 
L 119.15 72.88 
L 119.3 71.43 
L 119.37 71.74 
L 119.67 76.36 
L 119.81 76.26 
L 119.89 75.87 
L 120.03 73.36 
L 120.11 74.31 
L 120.25 72.63 
L 120.55 75.45 
L 120.62 74.23 
L 120.84 77.36 
L 120.92 77.54 
L 121.06 77.18 
L 121.14 77.36 
L 121.21 76.42 
L 121.36 78.19 
L 121.43 78.78 
L 121.51 78.67 
L 121.58 78.49 
L 121.73 79.77 
L 121.87 78.82 
L 121.95 79.39 
L 122.1 75.8 
L 122.17 77 
L 122.24 76.75 
L 122.39 74.04 
L 122.46 73.85 
L 122.68 74.65 
L 122.76 75.1 
L 122.83 74.49 
L 122.98 75.18 
L 123.2 76.95 
L 123.27 77.1 
L 123.49 75.52 
L 123.64 75.18 
L 123.79 75.54 
L 123.86 74.91 
L 123.94 75.81 
L 124.08 74.67 
L 124.3 76.25 
L 124.38 76.12 
L 124.45 76.71 
L 124.53 75.77 
L 124.6 76.41 
L 124.82 80.55 
L 124.89 80.59 
L 125.04 79.18 
L 125.19 80.91 
L 125.34 79.18 
L 125.41 79.18 
L 125.56 76.28 
L 125.7 75.09 
L 125.85 74.29 
L 126.22 76.46 
L 126.29 76.38 
L 126.37 74.45 
L 126.44 75.15 
L 126.59 75.39 
L 126.74 74.16 
L 126.81 74.57 
L 127.03 77.36 
L 127.1 76.92 
L 127.18 76.88 
L 127.32 78.03 
L 127.4 78 
L 127.47 77.59 
L 127.69 79.79 
L 127.77 80.74 
L 127.84 79.4 
L 127.99 81.49 
L 128.06 81.3 
L 128.43 82.4 
L 128.65 84.78 
L 128.72 85.23 
L 128.8 85.05 
L 129.24 81.52 
L 129.31 80.37 
L 129.39 80.49 
L 129.46 80.63 
L 129.53 79.95 
L 129.61 81.08 
L 129.68 80.91 
L 129.83 81.65 
L 130.05 83.84 
L 130.2 82.29 
L 130.27 82.35 
L 130.34 82.51 
L 130.42 83.2 
L 130.49 82.86 
L 130.56 83.07 
L 130.64 82.57 
L 130.71 81.12 
L 130.79 81.15 
L 131.08 85.29 
L 131.23 84.02 
L 131.3 85.28 
L 131.37 84.74 
L 131.45 83.7 
L 131.52 84 
L 131.67 84.83 
L 131.82 84.07 
L 132.18 79.44 
L 132.33 80.81 
L 132.41 80.56 
L 132.48 80.87 
L 132.55 80.12 
L 132.63 80.42 
L 132.7 81.18 
L 132.92 79.26 
L 133.14 77.33 
L 133.29 79.92 
L 133.44 81.11 
L 133.51 80.95 
L 133.58 79.96 
L 133.66 80.36 
L 133.73 81.3 
L 133.81 79.63 
L 133.88 80 
L 133.95 81.02 
L 134.03 80.82 
L 134.1 80.47 
L 134.17 81.05 
L 134.25 80.4 
L 134.39 81.56 
L 134.47 81.41 
L 134.54 80.78 
L 134.62 81.3 
L 134.69 81.03 
L 134.76 81.11 
L 134.84 78.77 
L 134.91 79.36 
L 134.98 78.22 
L 135.06 78.26 
L 135.13 78.36 
L 135.43 75.71 
L 135.5 76.21 
L 135.57 76.65 
L 135.72 75.75 
L 136.01 72.13 
L 136.09 71.99 
L 136.31 75.38 
L 136.38 74.06 
L 136.46 74.76 
L 136.75 71.02 
L 136.82 71.1 
L 136.9 71.27 
L 136.97 71.2 
L 137.05 71.05 
L 137.19 71.52 
L 137.27 70.19 
L 137.34 71.59 
L 137.41 71.38 
L 137.49 72.13 
L 137.56 71.97 
L 137.78 70.69 
L 137.86 72 
L 137.93 71.09 
L 138 71.59 
L 138.15 70.92 
L 138.3 73.68 
L 138.37 73.5 
L 138.52 71.98 
L 138.59 71.77 
L 138.67 72.93 
L 138.89 70.24 
L 138.96 70.42 
L 139.03 71.75 
L 139.11 71.02 
L 139.33 67.16 
L 139.4 66.71 
L 139.48 67.52 
L 139.55 66.42 
L 139.7 67.61 
L 139.77 67.38 
L 139.99 65.99 
L 140.51 70.75 
L 140.73 74.74 
L 140.8 74.59 
L 140.88 74.25 
L 140.95 72.6 
L 141.1 74.39 
L 141.17 73.64 
L 141.24 73.82 
L 141.32 74.09 
L 141.39 72.68 
L 141.46 72.96 
L 141.61 75 
L 141.69 74.72 
L 141.76 74.47 
L 141.91 76.42 
L 142.05 75.5 
L 142.13 76.03 
L 142.27 75.04 
L 142.42 76.77 
L 142.5 76.43 
L 142.57 76.9 
L 142.72 78.9 
L 142.86 76.98 
L 142.94 78.79 
L 143.01 76.63 
L 143.08 77.56 
L 143.38 74.82 
L 143.45 75.77 
L 143.53 75.26 
L 143.6 75.85 
L 143.67 77.93 
L 143.89 73.51 
L 143.97 74.26 
L 144.19 70.45 
L 144.26 70.47 
L 144.7 75.58 
L 144.85 75.8 
L 145 73.14 
L 145.07 73.17 
L 145.15 72.18 
L 145.29 73.1 
L 145.37 72.35 
L 145.59 74.69 
L 145.66 74.6 
L 145.74 73.25 
L 145.81 73.87 
L 145.88 73.68 
L 146.1 76.39 
L 146.32 72.84 
L 146.4 73.43 
L 146.62 72.47 
L 146.84 71.49 
L 146.99 72.31 
L 147.21 75.27 
L 147.28 75.39 
L 147.36 76.18 
L 147.43 76.09 
L 147.5 75.72 
L 147.72 78.34 
L 148.09 74.69 
L 148.17 75.94 
L 148.24 74.7 
L 148.31 75.25 
L 148.39 77.54 
L 148.53 74.05 
L 148.61 74.9 
L 148.68 74.76 
L 148.76 74.94 
L 148.83 74.86 
L 148.98 76.64 
L 149.27 75.02 
L 149.34 73.08 
L 149.42 73.67 
L 149.49 73.45 
L 149.64 76.07 
L 149.71 74.97 
L 149.79 75.75 
L 149.86 75.31 
L 149.93 75.36 
L 150.15 76.94 
L 150.23 77.34 
L 150.38 76.18 
L 150.52 77.41 
L 150.6 77.17 
L 150.67 77.26 
L 150.74 76.41 
L 150.89 73.52 
L 151.04 73.69 
L 151.41 76.65 
L 151.48 76.04 
L 151.63 76.53 
L 151.7 77.54 
L 152.07 72.4 
L 152.14 72.6 
L 152.22 72.01 
L 152.29 69.78 
L 152.36 70.79 
L 152.73 66.38 
L 152.81 66.93 
L 152.88 66.59 
L 153.17 68.53 
L 153.25 68.41 
L 153.32 68.03 
L 153.39 69.22 
L 153.62 65.96 
L 153.76 66.34 
L 153.91 65.53 
L 153.98 66.95 
L 154.06 66.32 
L 154.13 63.85 
L 154.2 65.42 
L 154.35 64.26 
L 154.43 64.36 
L 154.5 63.2 
L 154.57 64.2 
L 154.65 64.06 
L 154.72 62.82 
L 154.79 62.99 
L 155.01 63.62 
L 155.09 62.31 
L 155.16 63.08 
L 155.24 62.34 
L 155.31 63.4 
L 155.38 62.83 
L 155.46 62.92 
L 155.6 65.12 
L 155.75 66.4 
L 155.82 65.09 
L 155.97 66.94 
L 156.19 64.31 
L 156.27 64.04 
L 156.41 64.84 
L 156.64 63 
L 156.71 62.96 
L 156.78 63.05 
L 156.86 63.55 
L 157 61.9 
L 157.15 63.27 
L 157.3 62.1 
L 157.37 62.22 
L 157.67 65.29 
L 157.81 65.02 
L 157.89 64.7 
L 158.26 60.73 
L 158.33 61.03 
L 158.48 60.06 
L 158.55 60.79 
L 158.62 60.73 
L 158.7 60.87 
L 158.84 62.68 
L 158.99 63.29 
L 159.14 64.99 
L 159.29 64.94 
L 159.36 65.9 
L 159.43 65.36 
L 159.58 66.59 
L 159.65 65.48 
L 159.8 66.5 
L 159.88 65.59 
L 159.95 65.91 
L 160.02 66.17 
L 160.1 65.98 
L 160.17 65.09 
L 160.39 68.51 
L 160.61 70.87 
L 160.69 70.62 
L 160.76 71.37 
L 160.83 71.26 
L 160.91 70.93 
L 160.98 71.54 
L 161.05 71.43 
L 161.2 69.77 
L 161.42 71.14 
L 161.5 70.91 
L 161.57 70.19 
L 161.72 71.05 
L 161.79 70.12 
L 161.86 70.54 
L 161.94 70.38 
L 162.16 72.36 
L 162.23 70.57 
L 162.31 70.9 
L 162.53 71.94 
L 162.82 69.37 
L 163.04 67.45 
L 163.19 68.74 
L 163.26 68.8 
L 163.34 69 
L 163.41 70.78 
L 163.48 70.05 
L 163.78 71.13 
L 163.85 70.8 
L 164 72.61 
L 164.07 72.37 
L 164.15 72.25 
L 164.29 73.04 
L 164.44 73.77 
L 164.52 72.8 
L 164.59 73.67 
L 164.74 71.72 
L 164.81 72.09 
L 164.88 71.45 
L 165.25 75.76 
L 165.33 76.18 
L 165.4 76.1 
L 165.47 77.86 
L 165.55 77.46 
L 165.91 81.6 
L 166.06 82.44 
L 166.21 81.49 
L 166.43 83.72 
L 166.5 83.35 
L 166.58 85.03 
L 166.65 84.01 
L 166.72 84.41 
L 166.8 85.06 
L 166.87 84.78 
L 167.09 82.77 
L 167.17 82.66 
L 167.46 79.51 
L 167.61 79.3 
L 167.76 80.3 
L 167.83 79.66 
L 167.9 80.75 
L 167.98 80.21 
L 168.12 79.69 
L 168.27 81.6 
L 168.34 81.06 
L 168.71 83.58 
L 168.79 82.86 
L 168.86 84.38 
L 168.93 83.81 
L 169.01 84 
L 169.08 83.33 
L 169.23 84.61 
L 169.3 82.76 
L 169.38 83.44 
L 169.6 85.1 
L 169.74 82.69 
L 169.82 83.27 
L 169.89 84.7 
L 170.19 81.18 
L 170.48 84.35 
L 170.55 83.54 
L 170.63 84.1 
L 170.77 82.15 
L 170.85 82.68 
L 171.07 80.13 
L 171.14 81.14 
L 171.22 80.83 
L 171.29 79.7 
L 171.36 80.1 
L 171.44 80.74 
L 171.58 79.79 
L 171.81 81.64 
L 171.95 81.3 
L 172.1 79.76 
L 172.17 81.06 
L 172.25 80.72 
L 172.47 78.75 
L 172.62 79.99 
L 172.69 79.22 
L 172.84 81.89 
L 172.98 81.64 
L 173.06 81.89 
L 173.35 85.39 
L 173.43 85.09 
L 173.5 86.98 
L 173.57 86.36 
L 173.72 88.22 
L 173.79 87.66 
L 173.87 87.72 
L 173.94 88.99 
L 174.02 87.47 
L 174.09 88.18 
L 174.24 87.81 
L 174.31 86.64 
L 174.38 87.02 
L 174.46 86.19 
L 174.53 86.8 
L 174.6 85.87 
L 174.75 86.8 
L 174.9 84.97 
L 174.97 84.88 
L 175.12 82.73 
L 175.19 83.41 
L 175.27 82.8 
L 175.34 83.78 
L 175.49 81.85 
L 175.56 82.32 
L 175.64 82.84 
L 175.71 82.69 
L 175.78 82.68 
L 175.86 83.49 
L 175.93 83.02 
L 176.08 85.06 
L 176.22 85.62 
L 176.3 85.37 
L 176.37 86.38 
L 176.45 85.9 
L 176.52 86.05 
L 176.67 87.71 
L 176.89 89.19 
L 176.96 89.13 
L 177.18 86.12 
L 177.26 86.36 
L 177.33 87.26 
L 177.55 85.23 
L 177.62 85.22 
L 177.92 82.53 
L 178.21 81 
L 178.29 81.43 
L 178.51 79.27 
L 178.65 79.55 
L 178.73 77.87 
L 178.8 78.12 
L 179.02 80.03 
L 179.24 77.31 
L 179.32 78.13 
L 179.39 77.84 
L 179.46 77.29 
L 179.54 75.8 
L 179.61 76.38 
L 179.76 75.63 
L 179.91 76.49 
L 179.98 76.71 
L 180.05 78.63 
L 180.13 78.13 
L 180.2 77.69 
L 180.28 78.05 
L 180.35 79.15 
L 180.64 75.71 
L 180.72 76.14 
L 180.79 75.47 
L 180.86 75.67 
L 181.09 75.79 
L 181.23 74.77 
L 181.38 75.12 
L 181.45 74.84 
L 181.67 76.04 
L 181.9 77.11 
L 182.12 73.98 
L 182.19 74.03 
L 182.34 71.95 
L 182.41 72.03 
L 182.56 71.52 
L 182.78 68.64 
L 182.85 69.37 
L 182.93 68.8 
L 183 69.62 
L 183.07 68.12 
L 183.15 68.4 
L 183.22 68.44 
L 183.37 66.64 
L 183.59 69 
L 183.66 68.89 
L 183.74 68.97 
L 183.96 70.14 
L 184.03 70.76 
L 184.1 70.32 
L 184.18 69.07 
L 184.33 70.76 
L 184.4 71.1 
L 184.47 70.7 
L 184.69 72.46 
L 184.84 71.81 
L 184.91 71.94 
L 184.99 71.63 
L 185.06 71.84 
L 185.14 73.12 
L 185.21 72.63 
L 185.43 71.7 
L 185.5 70.7 
L 185.65 72.24 
L 185.8 69.8 
L 186.31 74.66 
L 186.39 75.66 
L 186.46 74.9 
L 186.61 75.52 
L 186.76 74.33 
L 186.83 74.61 
L 186.9 74.57 
L 186.98 75.26 
L 187.12 73.28 
L 187.27 74.18 
L 187.49 71.69 
L 187.57 70.56 
L 187.64 71 
L 187.71 71.07 
L 187.79 72.13 
L 187.86 71.93 
L 187.93 71.8 
L 188.08 69.49 
L 188.23 71.77 
L 188.3 71.68 
L 188.52 73.73 
L 188.6 73.45 
L 188.67 73.59 
L 188.74 74.32 
L 188.82 73.67 
L 189.04 75.67 
L 189.11 76.32 
L 189.19 75.78 
L 189.33 77.17 
L 189.41 76.58 
L 189.48 76.89 
L 189.55 76.7 
L 189.63 77.62 
L 189.85 75.43 
L 190 77.74 
L 190.29 74.25 
L 190.36 74.75 
L 190.51 74.91 
L 190.59 74.56 
L 190.66 75.82 
L 190.81 73.95 
L 190.95 76.02 
L 191.03 75.73 
L 191.1 76.27 
L 191.17 78.23 
L 191.25 77.56 
L 191.32 77.43 
L 191.4 77.82 
L 191.54 75.96 
L 191.84 77.99 
L 191.91 77.67 
L 192.06 78.5 
L 192.28 75.75 
L 192.43 74.91 
L 192.65 72.2 
L 192.94 74.61 
L 193.02 74.19 
L 193.09 72.99 
L 193.16 73.54 
L 193.24 73.53 
L 193.38 74.44 
L 193.6 76.8 
L 193.75 76.69 
L 193.9 78.07 
L 193.97 79.21 
L 194.05 77.67 
L 194.12 78.77 
L 194.27 76.99 
L 194.34 77.29 
L 194.41 78.25 
L 194.56 75.96 
L 194.64 76.73 
L 194.71 76.98 
L 194.93 74.18 
L 195 74.65 
L 195.08 74.2 
L 195.15 75.24 
L 195.22 73.51 
L 195.3 74.11 
L 195.45 76.04 
L 195.52 76.15 
L 195.59 74.57 
L 195.67 74.85 
L 195.74 74.86 
L 195.81 74.37 
L 196.03 72.25 
L 196.11 71.83 
L 196.18 72.07 
L 196.26 72.01 
L 196.33 71.98 
L 196.4 72.74 
L 196.48 71.74 
L 196.55 72.88 
L 196.7 71.13 
L 196.77 71.2 
L 196.92 72.02 
L 197.21 69.96 
L 197.36 70.23 
L 197.43 71.52 
L 197.51 70.89 
L 197.58 70.77 
L 197.66 71.11 
L 197.8 69.58 
L 198.02 73.07 
L 198.17 70.14 
L 198.32 70.51 
L 198.39 70.71 
L 198.54 69.89 
L 198.61 68.83 
L 198.69 69.64 
L 198.76 68.35 
L 198.83 69.11 
L 198.91 68.89 
L 199.05 67.34 
L 199.28 69.08 
L 199.35 69.12 
L 199.42 68.17 
L 199.5 69.24 
L 199.57 68.85 
L 200.09 64.68 
L 200.16 63.19 
L 200.23 64.76 
L 200.31 63.7 
L 200.38 63.92 
L 200.45 64.15 
L 200.9 68.19 
L 201.04 66.78 
L 201.12 66.98 
L 201.78 71.87 
L 201.85 71.74 
L 202 69.68 
L 202.07 69.94 
L 202.29 73.84 
L 202.37 73.24 
L 202.59 74.33 
L 202.66 74.26 
L 202.74 73.1 
L 202.81 73.67 
L 202.96 74.61 
L 203.03 73.89 
L 203.33 77.98 
L 203.4 77.59 
L 203.47 75.47 
L 203.55 76.3 
L 203.69 75.3 
L 203.84 76.44 
L 203.91 76.63 
L 203.99 77.2 
L 204.06 75.61 
L 204.14 77.18 
L 204.21 76.87 
L 204.28 76.59 
L 204.36 77.07 
L 204.43 76.95 
L 204.65 75.75 
L 204.73 75.18 
L 204.8 76.86 
L 205.09 72.11 
L 205.31 74.04 
L 205.39 74.53 
L 205.46 73.73 
L 205.9 76.71 
L 205.98 77.31 
L 206.05 75.75 
L 206.27 78.29 
L 206.49 75.29 
L 206.64 76.23 
L 206.71 75.35 
L 206.79 76.1 
L 207.01 73.68 
L 207.16 72.53 
L 207.23 71.24 
L 207.3 72.11 
L 207.38 71.14 
L 207.45 71.44 
L 207.52 72.08 
L 207.6 71.99 
L 207.67 72.17 
L 207.89 75.08 
L 208.19 70.75 
L 208.33 71.24 
L 208.41 71 
L 208.55 72.71 
L 208.63 72.63 
L 208.7 72.9 
L 208.78 73.78 
L 208.85 73.46 
L 208.92 73.67 
L 209.07 72.84 
L 209.14 73.08 
L 209.22 72.98 
L 209.29 73.12 
L 209.44 74 
L 209.66 71.79 
L 209.81 73.51 
L 210.1 74.51 
L 210.25 73.72 
L 210.32 74.68 
L 210.47 72.75 
L 210.54 73.23 
L 210.62 72.54 
L 210.69 73.15 
L 210.76 72.22 
L 210.84 72.4 
L 211.06 74 
L 211.28 73.67 
L 211.35 74.13 
L 211.57 78.64 
L 211.65 78.44 
L 211.79 77.28 
L 212.24 79.56 
L 212.46 77.8 
L 212.53 78.01 
L 212.61 77.95 
L 212.68 78.09 
L 212.9 76.82 
L 213.05 78.02 
L 213.12 76.65 
L 213.19 76.89 
L 213.27 77.13 
L 213.49 74.58 
L 213.56 74.91 
L 213.71 72.64 
L 213.78 72.19 
L 213.86 72.33 
L 214 74.6 
L 214.08 74.26 
L 214.15 73.94 
L 214.23 74.14 
L 214.52 77.77 
L 214.67 76.08 
L 214.81 73.01 
L 214.96 74.22 
L 215.11 77.56 
L 215.18 77.71 
L 215.4 75.92 
L 215.48 75.74 
L 215.62 74 
L 215.7 74.88 
L 215.77 75.26 
L 215.85 76.41 
L 216.07 73.38 
L 216.14 74.37 
L 216.21 74.23 
L 216.43 74.51 
L 216.51 74.08 
L 216.58 74.4 
L 216.73 73.5 
L 216.95 74.2 
L 217.02 73.53 
L 217.1 73.75 
L 217.17 73.51 
L 217.24 73.83 
L 217.32 75.06 
L 217.39 74.31 
L 217.47 75.18 
L 217.61 74.27 
L 217.83 76.85 
L 217.98 78.5 
L 218.05 77.89 
L 218.13 78.09 
L 218.2 77.77 
L 218.28 78.12 
L 218.35 77.87 
L 218.5 78.51 
L 218.64 78 
L 218.79 79.27 
L 218.86 79.13 
L 218.94 78.85 
L 219.01 79.06 
L 219.09 79.7 
L 219.16 79.25 
L 219.23 77.2 
L 219.31 77.45 
L 219.45 76.86 
L 219.53 78.98 
L 219.6 78.87 
L 219.67 79.46 
L 219.75 78.32 
L 219.82 78.52 
L 219.97 79.35 
L 220.04 79.21 
L 220.34 81.02 
L 220.41 80.38 
L 220.63 77.95 
L 220.93 73.86 
L 221 73.96 
L 221.3 73.18 
L 221.37 73.83 
L 221.59 77.79 
L 221.74 77.73 
L 221.81 79.11 
L 221.88 78.55 
L 222.4 74.6 
L 222.55 73.49 
L 222.62 74.08 
L 222.99 77.16 
L 223.06 78.02 
L 223.28 77.29 
L 223.5 79.95 
L 223.58 79.92 
L 223.65 80.41 
L 223.73 79.64 
L 223.8 79.69 
L 223.95 79.66 
L 224.02 79.08 
L 224.09 79.47 
L 224.31 78.03 
L 224.39 78 
L 224.54 76.73 
L 224.76 74.91 
L 224.83 74.82 
L 224.9 73.78 
L 224.98 73.8 
L 225.05 75.52 
L 225.2 74.32 
L 225.42 76.18 
L 225.57 74.04 
L 225.64 75.33 
L 225.71 74.88 
L 225.79 75.21 
L 225.86 73.63 
L 226.3 78.7 
L 226.38 78.35 
L 226.45 76.97 
L 226.52 78.54 
L 226.82 75.75 
L 226.89 75.9 
L 227.04 74.55 
L 227.11 75.04 
L 227.19 74.46 
L 227.26 74.88 
L 227.33 76.35 
L 227.41 74.68 
L 227.48 74.97 
L 227.55 75.47 
L 227.63 75.19 
L 227.92 78.44 
L 228 78.38 
L 228.07 77.45 
L 228.14 77.84 
L 228.29 76.94 
L 228.51 78.42 
L 228.66 77.17 
L 228.73 77.15 
L 228.81 78.26 
L 228.88 78.16 
L 228.95 78.8 
L 229.03 78.21 
L 229.1 78.31 
L 229.18 78.98 
L 229.32 77.62 
L 229.4 78.11 
L 229.47 77.15 
L 229.54 77.4 
L 229.91 78.67 
L 230.21 75.06 
L 230.28 75.09 
L 230.5 73.81 
L 230.65 71.61 
L 230.72 72.6 
L 230.8 71.52 
L 230.87 71.86 
L 230.94 72.11 
L 231.02 74.58 
L 231.09 73.76 
L 231.53 69.48 
L 231.68 70.39 
L 231.83 69.19 
L 231.9 70.29 
L 231.97 70 
L 232.05 70.15 
L 232.12 70.82 
L 232.19 70.46 
L 232.27 70.8 
L 232.42 73.01 
L 232.49 71.55 
L 232.56 72.8 
L 232.64 72.62 
L 232.78 71.59 
L 232.93 72.86 
L 233 72.75 
L 233.08 72.09 
L 233.23 73.58 
L 233.45 71.53 
L 233.52 72.04 
L 233.74 70.92 
L 233.81 71.95 
L 233.89 71.85 
L 233.96 71.99 
L 234.04 72.9 
L 234.11 72.72 
L 234.18 72.69 
L 234.26 73.03 
L 234.33 72.71 
L 234.48 73.92 
L 234.7 72.44 
L 234.85 74.68 
L 234.92 74.48 
L 234.99 74.11 
L 235.14 71.85 
L 235.21 72.57 
L 235.29 71.9 
L 235.43 73.83 
L 235.58 71.41 
L 235.95 67.61 
L 236.02 68.46 
L 236.1 69.61 
L 236.39 66.61 
L 236.47 66.47 
L 236.54 67.04 
L 236.76 64.81 
L 236.83 64.5 
L 237.06 62.6 
L 237.13 63.56 
L 237.2 63.14 
L 237.28 61.34 
L 237.35 61.77 
L 237.42 61.87 
L 237.64 59.83 
L 237.72 61.17 
L 237.79 60.75 
L 237.94 62.41 
L 238.01 61.96 
L 238.09 62.2 
L 238.16 61.53 
L 238.31 58.29 
L 238.38 57.69 
L 239.12 65.02 
L 239.34 63.75 
L 239.41 62.89 
L 239.49 63.17 
L 239.56 62.62 
L 239.63 63.81 
L 239.78 60.94 
L 239.85 61.11 
L 240.15 63.95 
L 240.3 63.27 
L 240.37 63.67 
L 240.44 62.89 
L 240.52 63.74 
L 240.59 63.51 
L 240.88 65.06 
L 241.11 62.33 
L 241.18 63.23 
L 241.25 62.73 
L 241.4 64.83 
L 241.47 64.69 
L 241.55 64.14 
L 241.62 65.19 
L 241.69 64.21 
L 241.77 64.87 
L 241.84 64.76 
L 241.99 63.96 
L 242.06 65.44 
L 242.21 63.64 
L 242.36 64.84 
L 242.5 67.36 
L 242.58 66.91 
L 242.65 67.19 
L 242.8 68.56 
L 242.87 67.27 
L 242.95 67.54 
L 243.02 68.02 
L 243.17 66.53 
L 243.24 66.49 
L 243.31 66.99 
L 243.54 69.64 
L 243.61 69.82 
L 243.9 68.7 
L 244.57 75.32 
L 244.64 75.23 
L 244.71 75.77 
L 244.79 75.36 
L 244.86 75.54 
L 244.94 76.38 
L 245.01 76.35 
L 245.08 74.79 
L 245.16 75.35 
L 245.6 70.93 
L 245.75 71.33 
L 245.89 70.79 
L 245.97 70.94 
L 246.04 69.88 
L 246.19 71.34 
L 246.41 69.2 
L 246.48 70.08 
L 246.7 67.34 
L 246.78 68.37 
L 246.85 68.19 
L 246.92 68.42 
L 247.07 70.32 
L 247.14 69.39 
L 247.22 69.78 
L 247.29 70.37 
L 247.51 68.03 
L 247.66 68.73 
L 247.73 67.88 
L 247.88 69.04 
L 248.03 67.06 
L 248.1 68.01 
L 248.32 72.19 
L 248.4 72.3 
L 248.47 71.8 
L 248.54 71.92 
L 248.76 73.16 
L 248.84 73.2 
L 248.91 73.73 
L 249.06 70.84 
L 249.5 75.29 
L 249.57 74.56 
L 249.65 74.91 
L 250.02 77.87 
L 250.09 76.94 
L 250.16 77.46 
L 250.31 76.37 
L 250.38 76.37 
L 250.53 79.1 
L 250.83 76.53 
L 250.9 76.87 
L 251.05 77.72 
L 251.19 76.63 
L 251.34 77.1 
L 251.49 76.37 
L 251.56 77.06 
L 251.71 75.43 
L 251.78 75.42 
L 251.93 73.36 
L 252.01 73.43 
L 252.08 72.99 
L 252.45 76.82 
L 252.52 76.26 
L 252.74 77.92 
L 252.89 77.19 
L 253.11 74.71 
L 253.18 75.2 
L 253.33 74.48 
L 253.48 74.95 
L 253.55 75 
L 253.7 74.51 
L 253.85 75.54 
L 253.92 74.92 
L 254.07 76.83 
L 254.14 75.55 
L 254.29 78.36 
L 254.36 77.79 
L 254.44 79.15 
L 254.51 77.01 
L 254.58 79.15 
L 254.8 75.92 
L 254.88 76.1 
L 254.95 75.81 
L 255.02 76.55 
L 255.1 75.88 
L 255.25 77.03 
L 255.32 76.21 
L 255.47 77.43 
L 255.54 77.29 
L 255.61 78.4 
L 255.76 77.16 
L 255.98 79.09 
L 256.2 80.15 
L 256.28 79.36 
L 256.35 79.94 
L 256.57 78.46 
L 256.79 80.27 
L 256.87 79.79 
L 257.01 77.27 
L 257.16 76 
L 257.23 76.17 
L 257.31 75.85 
L 257.38 75.88 
L 257.53 73.89 
L 257.68 75.15 
L 257.82 73.76 
L 257.9 73.95 
L 257.97 72.98 
L 258.04 73.3 
L 258.19 73.91 
L 258.26 75.53 
L 258.34 74.81 
L 258.56 76.89 
L 258.63 76.29 
L 258.71 76.35 
L 258.78 76.34 
L 259 79.02 
L 259.22 78.47 
L 259.44 75.86 
L 259.52 75.74 
L 259.59 75.9 
L 259.74 74.19 
L 259.81 75.27 
L 260.11 72.8 
L 260.25 74.79 
L 260.4 73.08 
L 260.47 74.25 
L 260.55 73.96 
L 260.62 74.26 
L 260.84 78.99 
L 260.92 78.77 
L 260.99 78.81 
L 261.06 79.01 
L 261.21 78.28 
L 261.43 80.95 
L 261.65 82.52 
L 261.73 82.74 
L 261.87 84.34 
L 261.95 82.68 
L 262.09 84.94 
L 262.17 84.71 
L 262.32 83.84 
L 262.39 84.76 
L 262.46 83.94 
L 262.76 86.12 
L 263.05 84.26 
L 263.13 84.19 
L 263.2 83.45 
L 263.49 86.42 
L 263.79 87.53 
L 263.86 86.38 
L 263.94 88.46 
L 264.01 87.74 
L 264.16 85.82 
L 264.23 85.84 
L 264.38 83.73 
L 264.45 84.71 
L 264.52 84.64 
L 264.6 84.79 
L 264.82 83.65 
L 265.33 86.26 
L 265.41 84.97 
L 265.48 85.08 
L 265.56 86.22 
L 265.63 85.31 
L 265.7 85.93 
L 265.78 85.51 
L 265.85 85.52 
L 266 85.18 
L 266.07 85.65 
L 266.14 85.62 
L 266.22 83.94 
L 266.29 85.79 
L 266.37 85.73 
L 266.44 85.37 
L 266.59 87.37 
L 266.81 84.18 
L 267.54 79.37 
L 267.69 80.72 
L 267.77 80.45 
L 268.06 82.28 
L 268.28 81.1 
L 268.58 75.99 
L 268.65 75.58 
L 268.72 75.99 
L 268.87 78.45 
L 268.94 78.3 
L 269.02 76.71 
L 269.09 77.85 
L 269.16 76.28 
L 269.24 76.49 
L 269.31 75.89 
L 269.39 77.99 
L 269.46 77.87 
L 269.53 78.15 
L 269.68 77.52 
L 269.75 78.46 
L 270.12 74.87 
L 270.2 74.89 
L 270.34 77.15 
L 270.56 75.37 
L 270.64 75.72 
L 270.71 75.7 
L 270.78 75.68 
L 270.93 76.53 
L 271.08 74.56 
L 271.3 76.73 
L 271.37 76.14 
L 271.45 75.51 
L 271.52 75.69 
L 271.59 75.65 
L 271.67 75.9 
L 271.74 76.82 
L 271.96 73.39 
L 272.04 74.01 
L 272.11 74.13 
L 272.18 73.4 
L 272.26 73.6 
L 272.4 75.53 
L 272.48 75.45 
L 272.7 74.41 
L 272.85 73.33 
L 272.92 73.3 
L 272.99 73.51 
L 273.29 71.88 
L 273.36 72.14 
L 273.51 74.14 
L 274.02 69.15 
L 274.1 69.65 
L 274.17 69.8 
L 274.25 69.7 
L 274.32 70.51 
L 274.39 70.12 
L 274.61 68.04 
L 274.91 69.23 
L 274.98 68.89 
L 275.06 68.87 
L 275.28 66.55 
L 275.35 66.74 
L 275.57 68.68 
L 276.01 65.06 
L 276.09 64.88 
L 276.23 63.58 
L 276.31 64.17 
L 276.38 63.76 
L 276.46 61.6 
L 276.53 61.67 
L 276.6 61.88 
L 276.75 63.65 
L 276.9 62.62 
L 276.97 62.37 
L 277.12 58.78 
L 277.19 59.51 
L 277.41 57.8 
L 277.63 56.1 
L 278.08 52.88 
L 278.22 51.01 
L 278.3 51.08 
L 278.52 52.93 
L 278.59 52.84 
L 278.66 52.62 
L 278.74 54.31 
L 278.81 54.3 
L 278.96 53.62 
L 279.03 54.4 
L 279.11 53.35 
L 279.4 55.84 
L 279.62 53.89 
L 279.84 56.15 
L 279.92 56.3 
L 279.99 57.76 
L 280.06 57.67 
L 280.28 56.87 
L 280.51 59.37 
L 280.8 56.95 
L 280.87 57.21 
L 281.02 55.57 
L 281.09 55.94 
L 281.17 55.28 
L 281.39 57.89 
L 281.54 57.72 
L 281.61 57.79 
L 281.68 58.12 
L 281.76 56.94 
L 281.83 57.29 
L 281.9 57.88 
L 282.13 55.4 
L 282.27 57.33 
L 282.49 55.53 
L 282.57 56.66 
L 282.64 56.1 
L 282.71 56.62 
L 282.94 54.73 
L 283.08 56.43 
L 283.3 58.7 
L 283.53 56.37 
L 283.75 57.89 
L 283.97 56.03 
L 284.04 56.36 
L 284.26 59.58 
L 284.41 59.19 
L 284.56 60.17 
L 284.63 58.88 
L 284.92 61.2 
L 285 61.55 
L 285.07 61.11 
L 285.15 59.68 
L 285.29 61.16 
L 285.44 61.2 
L 285.59 61.64 
L 285.66 60.81 
L 285.73 61.19 
L 285.88 61.3 
L 285.96 61.21 
L 286.03 61.35 
L 286.1 60.52 
L 286.18 60.53 
L 286.25 60.39 
L 286.32 60.43 
L 286.54 62.81 
L 286.62 62.65 
L 286.77 64.12 
L 286.84 63.92 
L 286.91 63.48 
L 286.99 64.94 
L 287.13 63.52 
L 287.21 63.6 
L 287.35 62.67 
L 287.43 63.16 
L 287.5 61.35 
L 287.58 62.24 
L 287.65 62.32 
L 287.72 61.62 
L 287.87 62.59 
L 287.94 62.27 
L 288.02 60.29 
L 288.09 61.02 
L 288.16 61.06 
L 288.31 60.45 
L 288.39 61.44 
L 288.46 61.11 
L 288.53 61.02 
L 288.61 60.65 
L 288.9 58.29 
L 289.05 59.31 
L 289.12 59.12 
L 289.34 60.06 
L 289.49 57.01 
L 289.56 57.33 
L 289.64 57 
L 289.71 57.2 
L 289.86 55.79 
L 289.93 55.73 
L 290.01 55.92 
L 290.08 55.81 
L 290.15 56.64 
L 290.23 56.08 
L 290.3 56.67 
L 290.67 54.39 
L 290.74 55.15 
L 290.82 54.64 
L 290.89 54.83 
L 291.04 54.61 
L 291.11 53.84 
L 291.33 56.47 
L 291.41 55.47 
L 291.63 59.31 
L 291.7 57.96 
L 291.77 59.02 
L 291.85 58.93 
L 291.92 59.37 
L 292.07 61.14 
L 292.29 59.97 
L 292.51 60.58 
L 292.58 60.29 
L 292.73 58.43 
L 292.8 58.27 
L 292.95 59.4 
L 293.03 58.19 
L 293.25 59.94 
L 293.32 60.3 
L 293.39 58.68 
L 293.47 60.63 
L 293.54 60.34 
L 293.61 59.75 
L 293.76 61.2 
L 293.84 60.85 
L 293.91 59.5 
L 294.06 61.57 
L 294.13 60.76 
L 294.2 59.5 
L 294.28 59.78 
L 294.35 61.61 
L 294.57 59.65 
L 294.65 59.68 
L 294.79 60.37 
L 294.94 57.96 
L 295.09 60.5 
L 295.16 59.04 
L 295.23 59.34 
L 295.38 60.46 
L 295.53 60.63 
L 295.75 61.66 
L 295.82 61.38 
L 296.04 62.41 
L 296.19 61.02 
L 296.27 61.11 
L 296.56 59.02 
L 296.71 56.43 
L 296.78 56.46 
L 296.85 56.8 
L 297 55.65 
L 297.08 55.73 
L 297.22 58.46 
L 297.3 58.17 
L 297.44 56.87 
L 297.52 57.94 
L 297.59 57.08 
L 297.66 57.52 
L 297.81 56.86 
L 298.11 60.47 
L 298.18 61.96 
L 298.25 61.6 
L 298.33 61.55 
L 298.47 60.5 
L 298.55 61.03 
L 298.62 60.74 
L 298.7 61.06 
L 298.84 60.3 
L 298.99 61.11 
L 299.06 61.07 
L 299.14 61.32 
L 299.28 59.17 
L 299.36 59.47 
L 299.43 59.76 
L 299.58 61.72 
L 299.65 62.08 
L 299.73 63.87 
L 299.8 63.63 
L 299.87 63.14 
L 300.1 64.85 
L 300.17 64.22 
L 300.32 65.74 
L 300.46 64.08 
L 300.54 63.7 
L 300.61 63.82 
L 300.76 64.81 
L 300.83 64.48 
L 300.91 65.32 
L 300.98 65.04 
L 301.13 63.13 
L 301.35 66.57 
L 301.57 64.6 
L 301.72 66.29 
L 301.79 66.23 
L 301.86 66.15 
L 301.94 66.85 
L 302.01 66.73 
L 302.16 66.01 
L 302.38 68.83 
L 302.45 68.69 
L 302.6 69.26 
L 302.67 69.83 
L 302.75 69.24 
L 302.82 69.29 
L 302.89 69.18 
L 303.04 70.5 
L 303.11 70.36 
L 303.34 72.5 
L 303.56 70.15 
L 303.7 70.51 
L 303.85 72.14 
L 304.07 70.08 
L 304.22 69.5 
L 304.29 69.67 
L 304.37 69.58 
L 304.66 68.11 
L 304.88 69.74 
L 304.96 68.91 
L 305.1 70.82 
L 305.18 68.85 
L 305.25 69.14 
L 305.4 70.09 
L 305.47 69.02 
L 305.54 69.16 
L 305.69 68.57 
L 305.77 68.87 
L 305.91 66.22 
L 306.06 67.06 
L 306.35 65.66 
L 306.43 66.84 
L 306.5 66.4 
L 306.65 66.89 
L 306.87 69.19 
L 306.94 69.22 
L 307.02 70.42 
L 307.09 70.38 
L 307.16 70.27 
L 307.39 72.42 
L 307.46 71.67 
L 307.68 75.41 
L 307.75 75.77 
L 307.83 75.07 
L 308.05 76.18 
L 308.27 72.89 
L 308.42 74.9 
L 308.49 74 
L 308.56 74.16 
L 308.64 74.38 
L 308.71 74.1 
L 308.79 75.14 
L 309.01 74.09 
L 309.08 74.64 
L 309.15 74.22 
L 309.23 74.8 
L 309.6 71.38 
L 309.67 73.61 
L 309.74 72.92 
L 309.96 73.31 
L 310.11 74.9 
L 310.26 73.18 
L 310.33 73.7 
L 310.41 74.44 
L 310.48 73.25 
L 310.55 73.98 
L 310.7 72.22 
L 310.77 72.95 
L 310.92 70.74 
L 310.99 71.92 
L 311.22 69.64 
L 311.29 69.96 
L 311.36 71.26 
L 311.44 70.84 
L 311.58 68.35 
L 311.73 66.35 
L 311.95 67.22 
L 312.17 70.24 
L 312.32 70.11 
L 312.47 67.37 
L 312.54 67.76 
L 312.61 67.3 
L 312.84 70.35 
L 312.98 68.67 
L 313.13 69.69 
L 313.35 68.18 
L 313.5 69.42 
L 313.57 69.34 
L 313.65 68.58 
L 313.79 70.19 
L 313.87 69.25 
L 313.94 70.01 
L 314.38 65.55 
L 314.53 66.88 
L 314.68 65.08 
L 315.04 60.76 
L 315.19 60.8 
L 315.27 61.67 
L 315.34 60.85 
L 315.56 62.48 
L 315.63 61.58 
L 315.71 62.43 
L 315.78 61.73 
L 315.93 63.4 
L 316 62.43 
L 316.3 65.34 
L 316.37 65.09 
L 316.44 64.73 
L 316.52 65.65 
L 316.59 65.17 
L 316.89 67.21 
L 316.96 65.32 
L 317.03 66.61 
L 317.11 66 
L 317.18 65.18 
L 317.33 68.24 
L 317.4 67.78 
L 317.48 68.18 
L 317.55 67.86 
L 317.62 66.92 
L 317.7 67.23 
L 317.77 68.1 
L 317.84 70.36 
L 317.92 70.19 
L 317.99 70.96 
L 318.06 70.7 
L 318.14 70.51 
L 318.21 71.65 
L 318.43 68.63 
L 318.65 70.4 
L 318.73 70.74 
L 318.8 71.67 
L 318.87 71.31 
L 319.02 70.82 
L 319.1 71.24 
L 319.24 70.01 
L 319.39 72.8 
L 319.46 72.85 
L 319.54 72.05 
L 319.61 72.3 
L 319.68 72.51 
L 319.76 73.06 
L 319.83 72.51 
L 320.2 73.97 
L 320.27 75.35 
L 320.35 74.84 
L 320.42 75.42 
L 320.49 75.12 
L 320.57 74.81 
L 320.72 72.96 
L 320.94 74.63 
L 321.16 71.73 
L 321.23 72 
L 321.3 73.69 
L 321.45 72.35 
L 321.6 72.19 
L 321.75 71.22 
L 321.82 72.53 
L 321.89 71.63 
L 321.97 72.07 
L 322.04 72.46 
L 322.19 70.27 
L 322.26 70.55 
L 322.34 72.08 
L 322.41 71.95 
L 322.48 71.5 
L 322.56 71.57 
L 322.78 74.29 
L 322.85 74.11 
L 323 72.59 
L 323.07 73.19 
L 323.15 73 
L 323.22 72.54 
L 323.37 73.08 
L 323.59 70.43 
L 323.66 70.79 
L 323.74 70.76 
L 323.88 72.19 
L 324.25 67.88 
L 324.4 68.51 
L 324.47 68 
L 324.55 68.65 
L 324.62 67.88 
L 324.84 70.99 
L 324.99 73.5 
L 325.06 72.57 
L 325.13 72.73 
L 325.21 72.55 
L 325.5 69.88 
L 325.72 69.19 
L 325.94 71.11 
L 326.02 70.6 
L 326.17 71.02 
L 326.46 67.37 
L 326.53 67.7 
L 326.61 67.96 
L 326.68 67.69 
L 326.83 68.36 
L 326.9 67 
L 326.98 67.16 
L 327.05 67.96 
L 327.12 67.56 
L 327.34 64.96 
L 327.64 66.41 
L 327.71 64.9 
L 327.79 65.85 
L 327.86 64.5 
L 328.01 65.53 
L 328.23 64.08 
L 328.3 65.44 
L 328.37 65.15 
L 328.45 65.99 
L 328.52 63.87 
L 328.6 64.04 
L 328.67 63.89 
L 328.89 66.3 
L 328.96 65.49 
L 329.04 65.7 
L 329.11 65.24 
L 329.26 66.22 
L 329.33 65.15 
L 329.7 68.41 
L 329.77 67.66 
L 329.85 68.34 
L 329.92 67.61 
L 329.99 68.17 
L 330.14 65.85 
L 330.22 66.24 
L 330.29 66.41 
L 330.36 67.1 
L 330.44 66.94 
L 330.51 65.99 
L 330.58 67.18 
L 330.66 66.42 
L 330.88 69.7 
L 331.03 67.92 
L 331.1 67.71 
L 331.17 68.27 
L 331.25 67.39 
L 331.32 69.13 
L 331.39 69.11 
L 331.47 67.28 
L 331.54 67.6 
L 331.62 67.58 
L 331.69 67.03 
L 331.76 67.7 
L 331.84 67.68 
L 332.06 66.42 
L 332.13 66.71 
L 332.28 66.4 
L 332.43 64.6 
L 332.5 64.8 
L 332.57 66.82 
L 332.65 66.23 
L 332.72 65.61 
L 333.16 69.45 
L 333.24 69.27 
L 333.31 68.26 
L 333.38 68.28 
L 333.46 68.36 
L 333.53 68.81 
L 333.68 66.59 
L 333.75 66.66 
L 333.9 68.47 
L 333.97 67.99 
L 334.05 68.59 
L 334.27 67.31 
L 334.41 66.36 
L 334.56 67.33 
L 334.63 65.4 
L 334.78 66.79 
L 334.86 65.91 
L 334.93 66.04 
L 335.08 67.81 
L 335.15 67.36 
L 335.44 64.46 
L 335.67 65.73 
L 335.74 65.59 
L 335.74 65.59 
" clip-path="url(#p5be00511b8)" style="fill: none; stroke:var(--black); stroke-width: 0.7; stroke-linecap: round"/>
   </g>
   <g id="line2d_26">
    <defs>
     <path id="me71918b27b" d="M 0 2 
C 0.53 2 1.04 1.79 1.41 1.41 
C 1.79 1.04 2 0.53 2 0 
C 2 -0.53 1.79 -1.04 1.41 -1.41 
C 1.04 -1.79 0.53 -2 0 -2 
C -0.53 -2 -1.04 -1.79 -1.41 -1.41 
C -1.79 -1.04 -2 -0.53 -2 0 
C -2 0.53 -1.79 1.04 -1.41 1.41 
C -1.04 1.79 -0.53 2 0 2 
z
" style="stroke:var(--c1)"/>
    </defs>
    <g clip-path="url(#p5be00511b8)">
     <use xlink:href="#me71918b27b" x="41.16" y="7.465355" style="fill:var(--c1); stroke:var(--c1)"/>
     <use xlink:href="#me71918b27b" x="100.075833" y="77.495405" style="fill:var(--c1); stroke:var(--c1)"/>
     <use xlink:href="#me71918b27b" x="158.991667" y="63.293044" style="fill:var(--c1); stroke:var(--c1)"/>
     <use xlink:href="#me71918b27b" x="217.9075" y="77.523326" style="fill:var(--c1); stroke:var(--c1)"/>
     <use xlink:href="#me71918b27b" x="276.823333" y="62.67022" style="fill:var(--c1); stroke:var(--c1)"/>
     <use xlink:href="#me71918b27b" x="335.739167" y="65.587992" style="fill:var(--c1); stroke:var(--c1)"/>
    </g>
   </g>
   <g class="patch">
    <path d="M 41.16 93.29 
L 41.16 3.12 
" style="fill: none; stroke:var(--axis-color); stroke-width: 0.7; stroke-linejoin: miter; stroke-linecap: square"/>
   </g>
   <g class="patch">
    <path d="M 41.16 93.29 
L 335.74 93.29 
" style="fill: none; stroke:var(--axis-color); stroke-width: 0.7; stroke-linejoin: miter; stroke-linecap: square"/>
   </g>
  </g>
  <g id="axes_2">
   <g class="patch">
    <path d="M 41.16 191.14 
L 335.74 191.14 
L 335.74 100.98 
L 41.16 100.98 
L 41.16 191.14 
z
" style="fill: none"/>
   </g>
   <g class="axis">
    <g class="tick xtick">
     <g id="line2d_27">
      <path d="M 41.16 191.14 
L 41.16 100.98 
" clip-path="url(#p6acfd834c3)" style="fill: none; stroke:var(--grid-color); stroke-width: 0.6; stroke-linecap: round"/>
     </g>
     <g id="line2d_28">
      <g>
       <use xlink:href="#mffb8127b41" x="41.16" y="191.144167" style="fill:var(--axis-color); stroke:var(--axis-color); stroke-width: 0.7"/>
      </g>
     </g>
     <g id="text_5" class="text">
      <!-- $\mathdefault{0.00}$ -->
      <g style="fill:var(--axis-color)" transform="translate(32.3925 208.717667) scale(0.105 -0.105)">
       <defs>
        <path id="EBGaramond-Regular-998" d="M 736 -90 
Q 595 -90 489 16 
Q 384 122 384 262 
Q 384 410 489 512 
Q 595 614 736 614 
Q 883 614 985 512 
Q 1088 410 1088 262 
Q 1088 122 985 16 
Q 883 -90 736 -90 
z
" transform="scale(0.015625)"/>
       </defs>
       <use xlink:href="#EBGaramond-Regular-8cd"/>
       <use xlink:href="#EBGaramond-Regular-998" transform="translate(47.999954 0)"/>
       <use xlink:href="#EBGaramond-Regular-8cd" transform="translate(70.999939 0)"/>
       <use xlink:href="#EBGaramond-Regular-8cd" transform="translate(118.999893 0)"/>
      </g>
     </g>
    </g>
    <g class="tick xtick">
     <g id="line2d_29">
      <path d="M 77.98 191.14 
L 77.98 100.98 
" clip-path="url(#p6acfd834c3)" style="fill: none; stroke:var(--grid-color); stroke-width: 0.6; stroke-linecap: round"/>
     </g>
     <g id="line2d_30">
      <g>
       <use xlink:href="#mffb8127b41" x="77.982396" y="191.144167" style="fill:var(--axis-color); stroke:var(--axis-color); stroke-width: 0.7"/>
      </g>
     </g>
     <g id="text_6" class="text">
      <!-- $\mathdefault{0.25}$ -->
      <g style="fill:var(--axis-color)" transform="translate(69.214896 208.717667) scale(0.105 -0.105)">
       <defs>
        <path id="EBGaramond-Regular-8d2" d="M 698 -243 
Q 627 -243 544 -227 
Q 461 -211 461 -166 
Q 461 -115 547 -80 
Q 634 -45 691 -45 
Q 1197 -45 1526 137 
Q 1856 320 2019 595 
Q 2182 870 2182 1146 
Q 2182 1395 2035 1587 
Q 1888 1779 1552 1939 
Q 1216 2099 646 2246 
Q 563 2317 528 2387 
Q 493 2458 493 2541 
Q 493 2656 550 2841 
Q 608 3027 681 3222 
Q 755 3418 800 3558 
Q 864 3744 1062 3789 
Q 1357 3866 1686 3923 
Q 2016 3981 2387 4013 
Q 2438 4019 2460 3984 
Q 2483 3949 2458 3904 
Q 2432 3853 2403 3798 
Q 2374 3744 2349 3693 
Q 2266 3507 2112 3488 
Q 1946 3469 1725 3449 
Q 1504 3430 1305 3411 
Q 1107 3392 1011 3373 
Q 966 3366 902 3260 
Q 838 3155 787 3036 
Q 736 2918 730 2867 
Q 723 2822 739 2790 
Q 755 2758 813 2746 
Q 1171 2643 1465 2537 
Q 1760 2432 1978 2317 
Q 2336 2131 2512 1878 
Q 2688 1626 2688 1235 
Q 2688 883 2477 576 
Q 2266 269 1907 64 
Q 1651 -77 1344 -160 
Q 1037 -243 698 -243 
z
" transform="scale(0.015625)"/>
       </defs>
       <use xlink:href="#EBGaramond-Regular-8cd"/>
       <use xlink:href="#EBGaramond-Regular-998" transform="translate(47.999954 0)"/>
       <use xlink:href="#EBGaramond-Regular-8cf" transform="translate(70.999939 0)"/>
       <use xlink:href="#EBGaramond-Regular-8d2" transform="translate(118.999893 0)"/>
      </g>
     </g>
    </g>
    <g class="tick xtick">
     <g id="line2d_31">
      <path d="M 114.8 191.14 
L 114.8 100.98 
" clip-path="url(#p6acfd834c3)" style="fill: none; stroke:var(--grid-color); stroke-width: 0.6; stroke-linecap: round"/>
     </g>
     <g id="line2d_32">
      <g>
       <use xlink:href="#mffb8127b41" x="114.804792" y="191.144167" style="fill:var(--axis-color); stroke:var(--axis-color); stroke-width: 0.7"/>
      </g>
     </g>
     <g id="text_7" class="text">
      <!-- $\mathdefault{0.50}$ -->
      <g style="fill:var(--axis-color)" transform="translate(106.037292 208.717667) scale(0.105 -0.105)">
       <use xlink:href="#EBGaramond-Regular-8cd"/>
       <use xlink:href="#EBGaramond-Regular-998" transform="translate(47.999954 0)"/>
       <use xlink:href="#EBGaramond-Regular-8d2" transform="translate(70.999939 0)"/>
       <use xlink:href="#EBGaramond-Regular-8cd" transform="translate(118.999893 0)"/>
      </g>
     </g>
    </g>
    <g class="tick xtick">
     <g id="line2d_33">
      <path d="M 151.63 191.14 
L 151.63 100.98 
" clip-path="url(#p6acfd834c3)" style="fill: none; stroke:var(--grid-color); stroke-width: 0.6; stroke-linecap: round"/>
     </g>
     <g id="line2d_34">
      <g>
       <use xlink:href="#mffb8127b41" x="151.627187" y="191.144167" style="fill:var(--axis-color); stroke:var(--axis-color); stroke-width: 0.7"/>
      </g>
     </g>
     <g id="text_8" class="text">
      <!-- $\mathdefault{0.75}$ -->
      <g style="fill:var(--axis-color)" transform="translate(142.859687 208.717667) scale(0.105 -0.105)">
       <defs>
        <path id="EBGaramond-Regular-8d4" d="M 812 -205 
Q 742 -205 710 -157 
Q 678 -109 678 -38 
Q 678 -19 723 64 
Q 768 147 812 224 
L 2624 3462 
Q 2636 3482 2633 3501 
Q 2630 3520 2560 3526 
L 921 3526 
Q 768 3526 652 3468 
Q 537 3411 428 3232 
Q 409 3200 367 3136 
Q 326 3072 275 3072 
Q 249 3072 239 3104 
Q 230 3136 230 3162 
Q 230 3194 239 3235 
Q 249 3277 256 3302 
Q 288 3443 316 3628 
Q 345 3814 358 3936 
Q 364 3981 386 3993 
Q 409 4006 422 4006 
Q 435 4006 598 3977 
Q 761 3949 960 3949 
Q 1107 3949 1238 3945 
Q 1369 3942 1593 3942 
Q 1907 3942 2223 3945 
Q 2540 3949 2774 3958 
Q 3008 3968 3065 3974 
Q 3078 3974 3091 3945 
Q 3104 3917 3104 3891 
Q 3104 3840 3056 3753 
Q 3008 3667 2950 3584 
Q 2892 3501 2860 3443 
L 934 -32 
Q 908 -83 870 -144 
Q 832 -205 812 -205 
z
" transform="scale(0.015625)"/>
       </defs>
       <use xlink:href="#EBGaramond-Regular-8cd"/>
       <use xlink:href="#EBGaramond-Regular-998" transform="translate(47.999954 0)"/>
       <use xlink:href="#EBGaramond-Regular-8d4" transform="translate(70.999939 0)"/>
       <use xlink:href="#EBGaramond-Regular-8d2" transform="translate(118.999893 0)"/>
      </g>
     </g>
    </g>
    <g class="tick xtick">
     <g id="line2d_35">
      <path d="M 188.45 191.14 
L 188.45 100.98 
" clip-path="url(#p6acfd834c3)" style="fill: none; stroke:var(--grid-color); stroke-width: 0.6; stroke-linecap: round"/>
     </g>
     <g id="line2d_36">
      <g>
       <use xlink:href="#mffb8127b41" x="188.449583" y="191.144167" style="fill:var(--axis-color); stroke:var(--axis-color); stroke-width: 0.7"/>
      </g>
     </g>
     <g id="text_9" class="text">
      <!-- $\mathdefault{1.00}$ -->
      <g style="fill:var(--axis-color)" transform="translate(179.682083 208.717667) scale(0.105 -0.105)">
       <use xlink:href="#EBGaramond-Regular-8ce" transform="translate(0 0.296875)"/>
       <use xlink:href="#EBGaramond-Regular-998" transform="translate(47.999954 0.296875)"/>
       <use xlink:href="#EBGaramond-Regular-8cd" transform="translate(70.999939 0.296875)"/>
       <use xlink:href="#EBGaramond-Regular-8cd" transform="translate(118.999893 0.296875)"/>
      </g>
     </g>
    </g>
    <g class="tick xtick">
     <g id="line2d_37">
      <path d="M 225.27 191.14 
L 225.27 100.98 
" clip-path="url(#p6acfd834c3)" style="fill: none; stroke:var(--grid-color); stroke-width: 0.6; stroke-linecap: round"/>
     </g>
     <g id="line2d_38">
      <g>
       <use xlink:href="#mffb8127b41" x="225.271979" y="191.144167" style="fill:var(--axis-color); stroke:var(--axis-color); stroke-width: 0.7"/>
      </g>
     </g>
     <g id="text_10" class="text">
      <!-- $\mathdefault{1.25}$ -->
      <g style="fill:var(--axis-color)" transform="translate(216.504479 208.717667) scale(0.105 -0.105)">
       <use xlink:href="#EBGaramond-Regular-8ce" transform="translate(0 0.296875)"/>
       <use xlink:href="#EBGaramond-Regular-998" transform="translate(47.999954 0.296875)"/>
       <use xlink:href="#EBGaramond-Regular-8cf" transform="translate(70.999939 0.296875)"/>
       <use xlink:href="#EBGaramond-Regular-8d2" transform="translate(118.999893 0.296875)"/>
      </g>
     </g>
    </g>
    <g class="tick xtick">
     <g id="line2d_39">
      <path d="M 262.09 191.14 
L 262.09 100.98 
" clip-path="url(#p6acfd834c3)" style="fill: none; stroke:var(--grid-color); stroke-width: 0.6; stroke-linecap: round"/>
     </g>
     <g id="line2d_40">
      <g>
       <use xlink:href="#mffb8127b41" x="262.094375" y="191.144167" style="fill:var(--axis-color); stroke:var(--axis-color); stroke-width: 0.7"/>
      </g>
     </g>
     <g id="text_11" class="text">
      <!-- $\mathdefault{1.50}$ -->
      <g style="fill:var(--axis-color)" transform="translate(253.326875 208.717667) scale(0.105 -0.105)">
       <use xlink:href="#EBGaramond-Regular-8ce" transform="translate(0 0.296875)"/>
       <use xlink:href="#EBGaramond-Regular-998" transform="translate(47.999954 0.296875)"/>
       <use xlink:href="#EBGaramond-Regular-8d2" transform="translate(70.999939 0.296875)"/>
       <use xlink:href="#EBGaramond-Regular-8cd" transform="translate(118.999893 0.296875)"/>
      </g>
     </g>
    </g>
    <g class="tick xtick">
     <g id="line2d_41">
      <path d="M 298.92 191.14 
L 298.92 100.98 
" clip-path="url(#p6acfd834c3)" style="fill: none; stroke:var(--grid-color); stroke-width: 0.6; stroke-linecap: round"/>
     </g>
     <g id="line2d_42">
      <g>
       <use xlink:href="#mffb8127b41" x="298.916771" y="191.144167" style="fill:var(--axis-color); stroke:var(--axis-color); stroke-width: 0.7"/>
      </g>
     </g>
     <g id="text_12" class="text">
      <!-- $\mathdefault{1.75}$ -->
      <g style="fill:var(--axis-color)" transform="translate(290.149271 208.717667) scale(0.105 -0.105)">
       <use xlink:href="#EBGaramond-Regular-8ce" transform="translate(0 0.296875)"/>
       <use xlink:href="#EBGaramond-Regular-998" transform="translate(47.999954 0.296875)"/>
       <use xlink:href="#EBGaramond-Regular-8d4" transform="translate(70.999939 0.296875)"/>
       <use xlink:href="#EBGaramond-Regular-8d2" transform="translate(118.999893 0.296875)"/>
      </g>
     </g>
    </g>
    <g class="tick xtick">
     <g id="line2d_43">
      <path d="M 335.74 191.14 
L 335.74 100.98 
" clip-path="url(#p6acfd834c3)" style="fill: none; stroke:var(--grid-color); stroke-width: 0.6; stroke-linecap: round"/>
     </g>
     <g id="line2d_44">
      <g>
       <use xlink:href="#mffb8127b41" x="335.739167" y="191.144167" style="fill:var(--axis-color); stroke:var(--axis-color); stroke-width: 0.7"/>
      </g>
     </g>
     <g id="text_13" class="text">
      <!-- $\mathdefault{2.00}$ -->
      <g style="fill:var(--axis-color)" transform="translate(326.971667 208.717667) scale(0.105 -0.105)">
       <use xlink:href="#EBGaramond-Regular-8cf"/>
       <use xlink:href="#EBGaramond-Regular-998" transform="translate(47.999954 0)"/>
       <use xlink:href="#EBGaramond-Regular-8cd" transform="translate(70.999939 0)"/>
       <use xlink:href="#EBGaramond-Regular-8cd" transform="translate(118.999893 0)"/>
      </g>
     </g>
    </g>
    <g id="text_14" class="text">
     <!-- $t$ -->
     <g style="fill:var(--axis-color)" transform="translate(186.649583 228.930667) scale(0.12 -0.12)">
      <use xlink:href="#EBGaramond-Italic-223"/>
     </g>
    </g>
   </g>
   <g class="axis">
    <g class="tick ytick">
     <g id="line2d_45">
      <path d="M 41.16 187.05 
L 335.74 187.05 
" clip-path="url(#p6acfd834c3)" style="fill: none; stroke:var(--grid-color); stroke-width: 0.6; stroke-linecap: round"/>
     </g>
     <g id="line2d_46">
      <g>
       <use xlink:href="#md54551f048" x="41.16" y="187.045722" style="fill:var(--axis-color); stroke:var(--axis-color); stroke-width: 0.7"/>
      </g>
     </g>
     <g id="text_15" class="text">
      <!-- $\mathdefault{0}$ -->
      <g style="fill:var(--axis-color)" transform="translate(29.12 192.332472) scale(0.105 -0.105)">
       <use xlink:href="#EBGaramond-Regular-8cd"/>
      </g>
     </g>
    </g>
    <g class="tick ytick">
     <g id="line2d_47">
      <path d="M 41.16 146.69 
L 335.74 146.69 
" clip-path="url(#p6acfd834c3)" style="fill: none; stroke:var(--grid-color); stroke-width: 0.6; stroke-linecap: round"/>
     </g>
     <g id="line2d_48">
      <g>
       <use xlink:href="#md54551f048" x="41.16" y="146.692506" style="fill:var(--axis-color); stroke:var(--axis-color); stroke-width: 0.7"/>
      </g>
     </g>
     <g id="text_16" class="text">
      <!-- $\mathdefault{2}$ -->
      <g style="fill:var(--axis-color)" transform="translate(29.12 151.979256) scale(0.105 -0.105)">
       <use xlink:href="#EBGaramond-Regular-8cf"/>
      </g>
     </g>
    </g>
    <g class="tick ytick">
     <g id="line2d_49">
      <path d="M 41.16 106.34 
L 335.74 106.34 
" clip-path="url(#p6acfd834c3)" style="fill: none; stroke:var(--grid-color); stroke-width: 0.6; stroke-linecap: round"/>
     </g>
     <g id="line2d_50">
      <g>
       <use xlink:href="#md54551f048" x="41.16" y="106.33929" style="fill:var(--axis-color); stroke:var(--axis-color); stroke-width: 0.7"/>
      </g>
     </g>
     <g id="text_17" class="text">
      <!-- $\mathdefault{4}$ -->
      <g style="fill:var(--axis-color)" transform="translate(29.12 111.62604) scale(0.105 -0.105)">
       <defs>
        <path id="EBGaramond-Regular-8d1" d="M 1344 -19 
Q 1312 -19 1270 0 
Q 1229 19 1229 64 
Q 1229 96 1267 115 
Q 1306 134 1344 141 
Q 1645 179 1741 268 
Q 1837 358 1837 512 
L 1837 1107 
Q 1837 1139 1792 1152 
Q 1747 1165 1741 1165 
Q 1478 1165 1251 1155 
Q 1024 1146 774 1136 
Q 525 1126 186 1120 
Q 160 1120 141 1142 
Q 122 1165 122 1184 
Q 122 1197 128 1203 
Q 211 1306 249 1347 
Q 288 1389 313 1417 
Q 339 1446 378 1504 
L 2067 3930 
Q 2106 3987 2160 4048 
Q 2214 4109 2259 4109 
L 2394 4109 
Q 2426 4109 2403 4064 
Q 2381 4019 2381 4019 
L 653 1536 
Q 646 1523 640 1500 
Q 634 1478 653 1478 
L 1760 1478 
Q 1786 1478 1811 1494 
Q 1837 1510 1837 1530 
L 1837 2522 
Q 1837 2637 1894 2662 
Q 1990 2714 2099 2730 
Q 2208 2746 2253 2746 
Q 2323 2746 2336 2643 
Q 2349 2541 2349 2336 
L 2349 1510 
Q 2349 1472 2381 1472 
Q 2451 1466 2515 1466 
Q 2579 1466 2637 1466 
Q 2726 1466 2819 1469 
Q 2912 1472 3014 1478 
Q 3085 1478 3085 1427 
Q 3085 1350 3027 1267 
Q 2970 1184 2950 1184 
Q 2880 1184 2797 1187 
Q 2714 1190 2637 1190 
Q 2579 1190 2528 1187 
Q 2477 1184 2438 1178 
Q 2413 1171 2384 1158 
Q 2355 1146 2355 1139 
L 2355 538 
Q 2355 352 2441 281 
Q 2528 211 2784 141 
Q 2822 134 2860 108 
Q 2899 83 2899 51 
Q 2899 -19 2803 -19 
Q 2624 -19 2518 -9 
Q 2413 0 2323 6 
Q 2234 13 2080 13 
Q 1920 13 1821 6 
Q 1722 0 1619 -9 
Q 1517 -19 1344 -19 
z
" transform="scale(0.015625)"/>
       </defs>
       <use xlink:href="#EBGaramond-Regular-8d1" transform="translate(0 0.796875)"/>
      </g>
     </g>
    </g>
    <g id="text_18" class="text">
     <!-- $\sum_{t_i &lt; t} (\Delta \beta_i)^2$ -->
     <g style="fill:var(--axis-color)" transform="translate(15.36 167.301275) rotate(-90) scale(0.12 -0.12)">
      <defs>
       <path id="EBGaramond-Regular-b3a" d="M 2605 -544 
Q 1990 -544 1513 -521 
Q 1037 -499 557 -499 
L 64 -499 
Q 45 -499 19 -432 
Q -6 -365 -25 -301 
Q -45 -237 -45 -237 
Q -45 -205 22 -128 
Q 90 -51 186 45 
Q 282 141 365 237 
L 1805 1798 
L 1805 1837 
L 32 4064 
Q 13 4090 45 4134 
Q 77 4179 102 4179 
Q 282 4179 390 4176 
Q 499 4173 585 4169 
Q 672 4166 774 4163 
Q 877 4160 1043 4160 
Q 1184 4160 1382 4160 
Q 1581 4160 1779 4163 
Q 1978 4166 2112 4166 
Q 2330 4173 2480 4176 
Q 2630 4179 2656 4179 
Q 2688 4179 2726 4166 
Q 2765 4154 2771 4122 
Q 2803 3942 2835 3766 
Q 2867 3590 2867 3462 
Q 2867 3405 2838 3385 
Q 2810 3366 2778 3366 
Q 2726 3366 2707 3430 
Q 2682 3539 2646 3638 
Q 2611 3738 2566 3782 
Q 2477 3885 2368 3920 
Q 2259 3955 2138 3955 
L 998 3942 
Q 928 3936 902 3923 
Q 877 3910 877 3891 
Q 877 3878 886 3865 
Q 896 3853 902 3840 
L 2310 2022 
Q 2336 1990 2320 1948 
Q 2304 1907 2285 1882 
L 685 205 
Q 640 154 656 93 
Q 672 32 742 32 
L 1862 32 
Q 2067 32 2204 54 
Q 2342 77 2445 141 
Q 2547 211 2630 326 
Q 2714 442 2810 634 
Q 2854 723 2912 717 
Q 2982 704 2982 627 
Q 2982 544 2902 240 
Q 2822 -64 2694 -435 
Q 2682 -480 2662 -512 
Q 2643 -544 2605 -544 
z
" transform="scale(0.015625)"/>
       <path id="EBGaramond-Italic-1ed" d="M 422 -90 
Q 314 -90 243 -19 
Q 173 51 173 128 
Q 173 154 176 179 
Q 179 205 192 230 
Q 454 762 633 1232 
Q 813 1702 954 2054 
Q 979 2131 922 2131 
Q 890 2131 797 2096 
Q 704 2061 601 2003 
Q 499 1946 422 1888 
Q 390 1862 358 1875 
Q 326 1888 326 1920 
Q 326 1978 454 2102 
Q 582 2227 800 2374 
Q 1018 2522 1286 2643 
Q 1344 2669 1401 2630 
Q 1459 2592 1494 2534 
Q 1530 2477 1517 2445 
L 736 595 
Q 691 499 691 410 
Q 691 365 726 349 
Q 762 333 794 333 
Q 883 333 998 419 
Q 1114 506 1245 630 
Q 1376 755 1498 877 
Q 1510 890 1523 890 
Q 1562 890 1562 858 
Q 1562 755 1440 598 
Q 1318 442 1136 285 
Q 954 128 762 19 
Q 570 -90 422 -90 
z
M 1715 3283 
Q 1619 3283 1555 3360 
Q 1491 3437 1491 3533 
Q 1491 3686 1593 3804 
Q 1696 3923 1849 3923 
Q 1952 3923 2009 3836 
Q 2067 3750 2067 3648 
Q 2067 3507 1964 3395 
Q 1862 3283 1715 3283 
z
" transform="scale(0.015625)"/>
       <path id="EBGaramond-Regular-b2c" d="M 3117 -13 
L 602 1248 
Q 518 1286 428 1340 
Q 339 1395 339 1421 
Q 339 1466 396 1568 
Q 454 1670 550 1715 
L 3130 2982 
Q 3162 3002 3181 3002 
Q 3238 3002 3238 2938 
Q 3238 2880 3187 2771 
Q 3136 2662 3040 2611 
L 845 1498 
Q 832 1491 835 1481 
Q 838 1472 851 1466 
L 3091 352 
Q 3181 307 3213 198 
Q 3245 90 3245 45 
Q 3245 -19 3197 -22 
Q 3149 -26 3117 -13 
z
" transform="scale(0.015625)"/>
       <path id="EBGaramond-Regular-6f6" d="M 307 0 
Q 256 0 233 32 
Q 211 64 211 109 
Q 211 134 224 173 
L 1875 3648 
Q 1914 3731 1939 3840 
Q 1952 3891 1955 3952 
Q 1958 4013 1965 4019 
Q 2022 4038 2064 4048 
Q 2106 4058 2157 4083 
Q 2227 4115 2275 4201 
Q 2323 4288 2349 4288 
Q 2381 4288 2413 4198 
L 3936 173 
Q 3942 160 3942 128 
Q 3942 83 3916 41 
Q 3891 0 3846 0 
L 307 0 
z
M 966 352 
L 3104 352 
Q 3213 352 3213 429 
Q 3213 480 3184 563 
Q 3155 646 3110 768 
L 2176 3450 
Q 2138 3565 2118 3565 
Q 2106 3565 2054 3456 
L 794 666 
Q 736 531 736 474 
Q 736 390 806 371 
Q 877 352 966 352 
z
" transform="scale(0.015625)"/>
      </defs>
      <use xlink:href="#EBGaramond-Regular-b3a" transform="translate(35 0.915625)"/>
      <use xlink:href="#EBGaramond-Italic-223" transform="translate(0 -62.034375) scale(0.7)"/>
      <use xlink:href="#EBGaramond-Italic-1ed" transform="translate(20.439977 -70.729687) scale(0.49)"/>
      <use xlink:href="#EBGaramond-Regular-b2c" transform="translate(47.341173 -62.034375) scale(0.7)"/>
      <use xlink:href="#EBGaramond-Italic-223" transform="translate(97.58713 -62.034375) scale(0.7)"/>
      <use xlink:href="#EBGaramond-Regular-a11" transform="translate(118.027106 0.915625)"/>
      <use xlink:href="#EBGaramond-Regular-6f6" transform="translate(149.527076 0.915625)"/>
      <use xlink:href="#EBGaramond-Italic-72f" transform="translate(217.127005 0.915625)"/>
      <use xlink:href="#EBGaramond-Italic-1ed" transform="translate(263.026969 -11.50625) scale(0.7)"/>
      <use xlink:href="#EBGaramond-Regular-a12" transform="translate(285.677266 0.915625)"/>
      <use xlink:href="#EBGaramond-Regular-8cf" transform="translate(317.901845 29.9) scale(0.7)"/>
     </g>
    </g>
   </g>
   <g id="line2d_51">
    <path d="M 41.16 187.05 
L 100.08 187.05 
L 100.08 114.45 
L 158.99 114.45 
L 158.99 111.47 
L 217.91 111.47 
L 217.91 108.47 
L 276.82 108.47 
L 276.82 105.2 
L 335.74 105.2 
L 335.74 105.08 
" clip-path="url(#p6acfd834c3)" style="fill: none; stroke:var(--c1); stroke-width: 1.2; stroke-linecap: round"/>
   </g>
   <g id="line2d_52">
    <path d="M 41.16 187.05 
L 47.05 187.05 
L 47.05 185.04 
L 52.94 185.04 
L 52.94 183.35 
L 58.83 183.35 
L 58.83 182.6 
L 64.73 182.6 
L 64.73 182.43 
L 70.62 182.43 
L 70.62 182.36 
L 76.51 182.36 
L 76.51 179.75 
L 82.4 179.75 
L 82.4 174.67 
L 88.29 174.67 
L 88.29 174.64 
L 94.18 174.64 
L 94.18 174.29 
L 100.08 174.29 
L 100.08 172.94 
L 105.97 172.94 
L 105.97 172.9 
L 111.86 172.9 
L 111.86 171.21 
L 117.75 171.21 
L 117.75 171.01 
L 123.64 171.01 
L 123.64 170.88 
L 129.53 170.88 
L 129.53 170.54 
L 135.43 170.54 
L 135.43 170.27 
L 141.32 170.27 
L 141.32 170.23 
L 147.21 170.23 
L 147.21 170.21 
L 153.1 170.21 
L 153.1 169.52 
L 158.99 169.52 
L 158.99 169.13 
L 164.88 169.13 
L 164.88 168.15 
L 170.77 168.15 
L 170.77 166.45 
L 176.67 166.45 
L 176.67 165.99 
L 182.56 165.99 
L 182.56 162.11 
L 188.45 162.11 
L 188.45 162.06 
L 194.34 162.06 
L 194.34 161.84 
L 200.23 161.84 
L 200.23 159.51 
L 206.12 159.51 
L 206.12 157.39 
L 212.02 157.39 
L 212.02 157.37 
L 217.91 157.37 
L 217.91 157.37 
L 223.8 157.37 
L 223.8 157.3 
L 229.69 157.3 
L 229.69 157.23 
L 235.58 157.23 
L 235.58 156.67 
L 241.47 156.67 
L 241.47 156 
L 247.37 156 
L 247.37 155.64 
L 253.26 155.64 
L 253.26 155.28 
L 259.15 155.28 
L 259.15 155.06 
L 265.04 155.06 
L 265.04 154.52 
L 270.93 154.52 
L 270.93 153.57 
L 276.82 153.57 
L 276.82 150.73 
L 282.71 150.73 
L 282.71 150.19 
L 288.61 150.19 
L 288.61 149.94 
L 294.5 149.94 
L 294.5 149.94 
L 300.39 149.94 
L 300.39 149.76 
L 306.28 149.76 
L 306.28 149.72 
L 312.17 149.72 
L 312.17 149.42 
L 318.06 149.42 
L 318.06 149.42 
L 323.96 149.42 
L 323.96 149.42 
L 329.85 149.42 
L 329.85 149.29 
L 335.74 149.29 
L 335.74 149.18 
" clip-path="url(#p6acfd834c3)" style="fill: none; stroke:var(--c2); stroke-width: 1.2; stroke-linecap: round"/>
   </g>
   <g id="line2d_53">
    <path d="M 41.16 187.05 
L 42.63 187.04 
L 42.63 186.79 
L 43.22 186.69 
L 43.22 186.59 
L 45.58 186.49 
L 45.58 186.48 
L 46.46 186.44 
L 46.46 186.32 
L 47.94 186.26 
L 47.94 186.2 
L 48.52 186.19 
L 48.52 185.97 
L 50.29 185.89 
L 50.29 185.82 
L 52.65 185.72 
L 52.65 185.71 
L 54.12 185.65 
L 54.12 185.56 
L 55.89 185.46 
L 55.89 185.38 
L 57.07 185.37 
L 57.07 185.25 
L 57.66 185.18 
L 57.66 185.13 
L 59.42 185.02 
L 59.42 185.01 
L 59.72 185.01 
L 59.72 184.59 
L 61.19 184.54 
L 61.19 184.46 
L 61.49 184.46 
L 61.49 184.34 
L 62.37 184.28 
L 62.37 184.18 
L 63.84 184.08 
L 63.84 184.05 
L 65.61 183.98 
L 65.61 183.94 
L 66.2 183.84 
L 66.2 183.75 
L 67.97 183.66 
L 67.97 183.57 
L 68.26 183.57 
L 68.26 183.35 
L 69.44 183.28 
L 69.44 183.23 
L 70.32 183.15 
L 70.32 183.1 
L 72.09 183.05 
L 72.09 182.94 
L 73.27 182.9 
L 73.27 182.78 
L 75.33 182.71 
L 75.33 182.66 
L 76.51 182.55 
L 76.51 182.52 
L 77.69 182.49 
L 77.69 182.39 
L 79.75 182.3 
L 79.75 182.24 
L 80.93 182.16 
L 80.93 181.97 
L 83.58 181.86 
L 83.58 181.72 
L 84.17 181.71 
L 84.17 181.58 
L 85.94 181.48 
L 85.94 181.36 
L 86.82 181.27 
L 86.82 181.19 
L 87.41 181.13 
L 87.41 181.07 
L 88.88 180.98 
L 88.88 180.95 
L 90.35 180.92 
L 90.35 180.71 
L 90.94 180.71 
L 90.94 180.59 
L 92.71 180.58 
L 92.71 180.45 
L 93.3 180.44 
L 93.3 180.29 
L 94.77 180.19 
L 94.77 180.07 
L 95.07 180.07 
L 95.07 179.88 
L 95.95 179.78 
L 95.95 179.7 
L 96.25 179.7 
L 96.25 179.35 
L 99.19 179.28 
L 99.19 179.04 
L 99.78 179.02 
L 99.78 178.9 
L 100.08 178.9 
L 100.08 178.78 
L 101.55 178.71 
L 101.55 178.61 
L 103.02 178.58 
L 103.02 178.37 
L 104.79 178.31 
L 104.79 178.24 
L 105.97 178.18 
L 105.97 178.02 
L 107.73 177.96 
L 107.73 177.68 
L 108.91 177.6 
L 108.91 177.56 
L 111.56 177.47 
L 111.56 177.39 
L 112.74 177.3 
L 112.74 177.26 
L 113.92 177.16 
L 113.92 177.12 
L 115.39 177.04 
L 115.39 176.98 
L 115.98 176.97 
L 115.98 176.77 
L 116.57 176.75 
L 116.57 176.59 
L 117.46 176.52 
L 117.46 176.46 
L 119.81 176.38 
L 119.81 176.3 
L 120.7 176.24 
L 120.7 176.17 
L 122.46 176.09 
L 122.46 175.94 
L 124.82 175.88 
L 124.82 175.54 
L 125.7 175.52 
L 125.7 175.28 
L 127.77 175.2 
L 127.77 175.06 
L 128.94 174.95 
L 128.94 174.93 
L 129.53 174.86 
L 129.53 174.82 
L 130.71 174.75 
L 130.71 174.68 
L 131.01 174.68 
L 131.01 174.53 
L 132.18 174.48 
L 132.18 174.28 
L 133.07 174.24 
L 133.07 174.16 
L 133.95 174.05 
L 133.95 174.04 
L 135.43 173.97 
L 135.43 173.87 
L 136.01 173.87 
L 136.01 173.67 
L 136.31 173.67 
L 136.31 173.52 
L 136.9 173.45 
L 136.9 173.39 
L 138.37 173.35 
L 138.37 173.27 
L 139.25 173.17 
L 139.25 173.1 
L 140.43 173.03 
L 140.43 172.93 
L 140.73 172.93 
L 140.73 172.64 
L 142.79 172.56 
L 142.79 172.51 
L 143.38 172.5 
L 143.38 172.39 
L 143.67 172.39 
L 143.67 172.25 
L 143.97 172.25 
L 143.97 172.05 
L 144.26 172.05 
L 144.26 171.84 
L 144.56 171.84 
L 144.56 171.56 
L 145.15 171.54 
L 145.15 171.35 
L 146.32 171.26 
L 146.32 171.16 
L 147.21 171.16 
L 147.21 171 
L 148.09 170.93 
L 148.09 170.8 
L 148.39 170.8 
L 148.39 170.68 
L 148.68 170.68 
L 148.68 170.56 
L 150.15 170.47 
L 150.15 170.43 
L 151.04 170.43 
L 151.04 170.32 
L 151.92 170.22 
L 151.92 170.14 
L 152.51 170.07 
L 152.51 169.88 
L 153.69 169.8 
L 153.69 169.67 
L 155.75 169.57 
L 155.75 169.39 
L 157.81 169.3 
L 157.81 169.22 
L 158.4 169.17 
L 158.4 169.06 
L 159.29 168.97 
L 159.29 168.93 
L 160.46 168.87 
L 160.46 168.59 
L 162.82 168.48 
L 162.82 168.38 
L 164 168.31 
L 164 168.27 
L 165.18 168.18 
L 165.18 167.94 
L 165.77 167.86 
L 165.77 167.82 
L 166.06 167.82 
L 166.06 167.69 
L 167.53 167.59 
L 167.53 167.52 
L 168.71 167.46 
L 168.71 167.4 
L 170.19 167.3 
L 170.19 167.11 
L 170.48 167.11 
L 170.48 166.96 
L 171.07 166.89 
L 171.07 166.83 
L 172.84 166.78 
L 172.84 166.68 
L 173.72 166.59 
L 173.72 166.45 
L 175.49 166.37 
L 175.49 166.34 
L 176.37 166.24 
L 176.37 166.22 
L 177.26 166.16 
L 177.26 166.05 
L 178.14 165.95 
L 178.14 165.93 
L 178.73 165.89 
L 178.73 165.82 
L 179.32 165.75 
L 179.32 165.69 
L 180.79 165.63 
L 180.79 165.55 
L 182.26 165.53 
L 182.26 165.37 
L 183.74 165.27 
L 183.74 165.24 
L 185.5 165.18 
L 185.5 165.12 
L 186.39 165.01 
L 186.39 164.85 
L 187.57 164.83 
L 187.57 164.63 
L 188.74 164.52 
L 188.74 164.51 
L 190.51 164.4 
L 190.51 164.4 
L 191.4 164.31 
L 191.4 164.27 
L 192.28 164.21 
L 192.28 164.12 
L 193.46 164.05 
L 193.46 163.99 
L 194.93 163.95 
L 194.93 163.85 
L 195.81 163.74 
L 195.81 163.7 
L 196.7 163.59 
L 196.7 163.55 
L 198.76 163.46 
L 198.76 163.39 
L 199.94 163.32 
L 199.94 163.23 
L 201.41 163.15 
L 201.41 163.05 
L 202.29 162.98 
L 202.29 162.73 
L 204.65 162.63 
L 204.65 162.61 
L 205.83 162.53 
L 205.83 162.48 
L 207.89 162.38 
L 207.89 162.24 
L 208.19 162.24 
L 208.19 161.96 
L 209.66 161.86 
L 209.66 161.81 
L 211.43 161.71 
L 211.43 161.55 
L 213.49 161.51 
L 213.49 161.44 
L 214.08 161.35 
L 214.08 161.29 
L 214.96 161.23 
L 214.96 161.18 
L 215.55 161.07 
L 215.55 161.02 
L 217.32 160.93 
L 217.32 160.89 
L 217.91 160.88 
L 217.91 160.73 
L 219.38 160.71 
L 219.38 160.61 
L 220.56 160.5 
L 220.56 160.4 
L 220.85 160.4 
L 220.85 160.22 
L 221.74 160.15 
L 221.74 160.08 
L 222.33 160.08 
L 222.33 159.96 
L 223.5 159.86 
L 223.5 159.78 
L 224.68 159.74 
L 224.68 159.66 
L 226.16 159.55 
L 226.16 159.42 
L 227.63 159.33 
L 227.63 159.31 
L 227.92 159.31 
L 227.92 159.15 
L 230.28 159.12 
L 230.28 159.04 
L 230.57 159.04 
L 230.57 158.88 
L 231.46 158.85 
L 231.46 158.74 
L 233.52 158.65 
L 233.52 158.62 
L 235.29 158.52 
L 235.29 158.45 
L 235.88 158.44 
L 235.88 158.33 
L 237.06 158.23 
L 237.06 158.16 
L 237.94 158.09 
L 237.94 157.99 
L 238.23 157.99 
L 238.23 157.81 
L 238.82 157.81 
L 238.82 157.7 
L 239.12 157.7 
L 239.12 157.54 
L 240.3 157.46 
L 240.3 157.43 
L 241.47 157.34 
L 241.47 157.31 
L 243.54 157.2 
L 243.54 157.05 
L 244.13 157.04 
L 244.13 156.92 
L 244.71 156.82 
L 244.71 156.79 
L 245.3 156.79 
L 245.3 156.64 
L 246.78 156.54 
L 246.78 156.49 
L 248.25 156.42 
L 248.25 156.28 
L 249.43 156.21 
L 249.43 156.07 
L 250.31 155.97 
L 250.31 155.94 
L 251.78 155.83 
L 251.78 155.82 
L 252.37 155.73 
L 252.37 155.66 
L 252.96 155.56 
L 252.96 155.5 
L 254.44 155.48 
L 254.44 155.29 
L 255.61 155.19 
L 255.61 155.12 
L 257.09 155.05 
L 257.09 154.8 
L 258.26 154.72 
L 258.26 154.63 
L 259.44 154.58 
L 259.44 154.48 
L 260.92 154.41 
L 260.92 154.11 
L 261.51 154.11 
L 261.51 153.9 
L 262.98 153.81 
L 262.98 153.79 
L 265.33 153.7 
L 265.33 153.65 
L 266.51 153.61 
L 266.51 153.53 
L 267.4 153.44 
L 267.4 153.4 
L 268.58 153.36 
L 268.58 152.97 
L 269.16 152.88 
L 269.16 152.81 
L 270.05 152.77 
L 270.05 152.66 
L 272.11 152.59 
L 272.11 152.55 
L 273.58 152.45 
L 273.58 152.41 
L 274.17 152.33 
L 274.17 152.3 
L 275.94 152.2 
L 275.94 152.09 
L 277.12 151.99 
L 277.12 151.76 
L 278 151.67 
L 278 151.59 
L 278.89 151.48 
L 278.89 151.46 
L 280.95 151.37 
L 280.95 151.33 
L 282.42 151.23 
L 282.42 151.2 
L 283.3 151.17 
L 283.3 151 
L 284.19 150.96 
L 284.19 150.88 
L 286.54 150.84 
L 286.54 150.75 
L 288.9 150.66 
L 288.9 150.58 
L 289.78 150.47 
L 289.78 150.46 
L 291.55 150.4 
L 291.55 150.29 
L 293.32 150.19 
L 293.32 150.12 
L 296.56 150.05 
L 296.56 149.99 
L 298.03 149.91 
L 298.03 149.82 
L 299.8 149.74 
L 299.8 149.68 
L 302.45 149.6 
L 302.45 149.49 
L 303.63 149.4 
L 303.63 149.33 
L 305.69 149.22 
L 305.69 149.18 
L 306.87 149.11 
L 306.87 149.01 
L 307.75 148.97 
L 307.75 148.72 
L 309.52 148.64 
L 309.52 148.52 
L 310.7 148.44 
L 310.7 148.37 
L 311.88 148.27 
L 311.88 148.25 
L 312.17 148.25 
L 312.17 148.09 
L 312.47 148.09 
L 312.47 147.97 
L 314.23 147.86 
L 314.23 147.7 
L 314.82 147.7 
L 314.82 147.36 
L 316.3 147.31 
L 316.3 147.18 
L 317.18 147.12 
L 317.18 147.06 
L 317.48 147.06 
L 317.48 146.93 
L 318.36 146.83 
L 318.36 146.8 
L 320.13 146.69 
L 320.13 146.68 
L 320.72 146.63 
L 320.72 146.54 
L 322.78 146.44 
L 322.78 146.33 
L 324.25 146.23 
L 324.25 146.07 
L 325.13 145.98 
L 325.13 145.93 
L 326.02 145.84 
L 326.02 145.81 
L 328.67 145.71 
L 328.67 145.69 
L 330.14 145.61 
L 330.14 145.52 
L 332.5 145.42 
L 332.5 145.38 
L 333.09 145.35 
L 333.09 145.24 
L 334.86 145.15 
L 334.86 145.12 
L 335.44 145.09 
L 335.44 144.97 
L 335.74 144.97 
L 335.74 144.95 
" clip-path="url(#p6acfd834c3)" style="fill: none; stroke:var(--c8); stroke-width: 1.2; stroke-linecap: round"/>
   </g>
   <g id="line2d_54">
    <path d="M 41.16 187.05 
L 335.74 146.69 
L 335.74 146.69 
" clip-path="url(#p6acfd834c3)" style="fill: none; stroke-dasharray: 3.7,1.6; stroke-dashoffset: 0; stroke:var(--black); stroke-linecap: round"/>
   </g>
   <g class="patch">
    <path d="M 41.16 191.14 
L 41.16 100.98 
" style="fill: none; stroke:var(--axis-color); stroke-width: 0.7; stroke-linejoin: miter; stroke-linecap: square"/>
   </g>
   <g class="patch">
    <path d="M 41.16 191.14 
L 335.74 191.14 
" style="fill: none; stroke:var(--axis-color); stroke-width: 0.7; stroke-linejoin: miter; stroke-linecap: square"/>
   </g>
   <g class="legend">
    <g id="line2d_55">
     <path d="M 49.56 116.28 
L 59.01 116.28 
L 59.01 116.28 
L 68.46 116.28 
L 68.46 116.28 
" style="fill: none; stroke:var(--c1); stroke-width: 1.2; stroke-linecap: round"/>
    </g>
    <g id="text_19" class="text">
     <!-- $n = 5$ -->
     <g style="fill:var(--axis-color)" transform="translate(74.76 119.951883) scale(0.105 -0.105)">
      <defs>
       <path id="EBGaramond-Italic-203" d="M 403 -102 
Q 326 -102 268 -3 
Q 211 96 243 179 
L 986 1997 
Q 1101 2278 998 2278 
Q 902 2278 790 2233 
Q 678 2189 525 1984 
Q 499 1958 470 1961 
Q 442 1965 429 2010 
Q 422 2067 473 2169 
Q 525 2272 563 2330 
Q 659 2477 822 2560 
Q 986 2643 1203 2650 
Q 1306 2650 1382 2570 
Q 1459 2490 1414 2374 
L 992 1286 
Q 973 1242 1001 1235 
Q 1030 1229 1050 1261 
Q 1446 1933 1849 2291 
Q 2253 2650 2547 2650 
Q 2682 2650 2781 2557 
Q 2880 2464 2909 2307 
Q 2938 2150 2848 1946 
L 2259 550 
Q 2163 320 2291 320 
Q 2368 320 2480 377 
Q 2592 435 2707 515 
Q 2822 595 2908 662 
Q 2995 730 3021 755 
Q 3027 762 3040 762 
Q 3091 762 3091 704 
Q 3091 653 3066 614 
Q 2816 314 2515 112 
Q 2214 -90 1914 -90 
Q 1830 -90 1750 0 
Q 1670 90 1715 192 
Q 1901 621 2089 1046 
Q 2278 1472 2445 1901 
Q 2547 2163 2515 2268 
Q 2483 2374 2394 2381 
Q 2291 2387 2124 2265 
Q 1958 2144 1747 1882 
Q 1651 1760 1459 1475 
Q 1267 1190 1040 825 
Q 813 461 602 96 
Q 493 -102 403 -102 
z
" transform="scale(0.015625)"/>
       <path id="EBGaramond-Regular-b29" d="M 410 2010 
Q 378 2010 349 2035 
Q 320 2061 320 2086 
Q 320 2131 355 2230 
Q 390 2330 474 2330 
L 3213 2330 
Q 3245 2330 3273 2310 
Q 3302 2291 3302 2259 
Q 3302 2195 3238 2102 
Q 3174 2010 3098 2010 
L 410 2010 
z
M 410 915 
Q 378 915 349 940 
Q 320 966 320 992 
Q 320 1037 355 1136 
Q 390 1235 474 1235 
L 3213 1235 
Q 3245 1235 3273 1216 
Q 3302 1197 3302 1165 
Q 3302 1082 3238 998 
Q 3174 915 3098 915 
L 410 915 
z
" transform="scale(0.015625)"/>
      </defs>
      <use xlink:href="#EBGaramond-Italic-203" transform="translate(0 0.203125)"/>
      <use xlink:href="#EBGaramond-Regular-b29" transform="translate(68.479935 0.203125)"/>
      <use xlink:href="#EBGaramond-Regular-8d2" transform="translate(140.859863 0.203125)"/>
     </g>
    </g>
    <g id="line2d_56">
     <path d="M 49.56 133.65 
L 59.01 133.65 
L 59.01 133.65 
L 68.46 133.65 
L 68.46 133.65 
" style="fill: none; stroke:var(--c2); stroke-width: 1.2; stroke-linecap: round"/>
    </g>
    <g id="text_20" class="text">
     <!-- $n = 50$ -->
     <g style="fill:var(--axis-color)" transform="translate(74.76 137.329383) scale(0.105 -0.105)">
      <use xlink:href="#EBGaramond-Italic-203"/>
      <use xlink:href="#EBGaramond-Regular-b29" transform="translate(68.479935 0)"/>
      <use xlink:href="#EBGaramond-Regular-8d2" transform="translate(140.859863 0)"/>
      <use xlink:href="#EBGaramond-Regular-8cd" transform="translate(188.859818 0)"/>
     </g>
    </g>
    <g id="line2d_57">
     <path d="M 120.64 116.28 
L 130.09 116.28 
L 130.09 116.28 
L 139.54 116.28 
L 139.54 116.28 
" style="fill: none; stroke:var(--c8); stroke-width: 1.2; stroke-linecap: round"/>
    </g>
    <g id="text_21" class="text">
     <!-- $n = 1000$ -->
     <g style="fill:var(--axis-color)" transform="translate(145.845 119.951883) scale(0.105 -0.105)">
      <use xlink:href="#EBGaramond-Italic-203" transform="translate(0 0.296875)"/>
      <use xlink:href="#EBGaramond-Regular-b29" transform="translate(68.479935 0.296875)"/>
      <use xlink:href="#EBGaramond-Regular-8ce" transform="translate(140.859863 0.296875)"/>
      <use xlink:href="#EBGaramond-Regular-8cd" transform="translate(188.859818 0.296875)"/>
      <use xlink:href="#EBGaramond-Regular-8cd" transform="translate(236.859772 0.296875)"/>
      <use xlink:href="#EBGaramond-Regular-8cd" transform="translate(284.859726 0.296875)"/>
     </g>
    </g>
    <g id="line2d_58">
     <path d="M 120.64 133.65 
L 130.09 133.65 
L 139.54 133.65 
" style="fill: none; stroke-dasharray: 3.7,1.6; stroke-dashoffset: 0; stroke:var(--black); stroke-linecap: round"/>
    </g>
    <g id="text_22" class="text">
     <!-- $t$ -->
     <g style="fill:var(--axis-color)" transform="translate(145.845 137.329383) scale(0.105 -0.105)">
      <use xlink:href="#EBGaramond-Italic-223"/>
     </g>
    </g>
   </g>
  </g>
 </g>
 <defs>
  <clipPath id="p5be00511b8">
   <rect x="41.16" y="3.119266" width="294.579167" height="90.165784"/>
  </clipPath>
  <clipPath id="p6acfd834c3">
   <rect x="41.16" y="100.978383" width="294.579167" height="90.165784"/>
  </clipPath>
 </defs>
</svg>
