<?xml version="1.0" encoding="UTF-8"?>
<svg class="text-black dark:text-white"
        <style>
            svg {
                color: currentColor;
                display: block;
                margin: auto;
                width: 85%;
                height: auto;
            }

            .math text {
                fill: currentColor;
            }
        </style>
         xmlns="http://www.w3.org/2000/svg" xmlns:xlink="http://www.w3.org/1999/xlink" width="430.471" height="212.862" viewBox="0 0 430.471 212.862">
<defs>
<g class="glyph">
<g id="neuron_glyph-0-0">
<path d="M 3.328125 -3.015625 C 3.390625 -3.265625 3.625 -4.1875 4.3125 -4.1875 C 4.359375 -4.1875 4.609375 -4.1875 4.8125 -4.0625 C 4.53125 -4 4.34375 -3.765625 4.34375 -3.515625 C 4.34375 -3.359375 4.453125 -3.171875 4.71875 -3.171875 C 4.9375 -3.171875 5.25 -3.34375 5.25 -3.75 C 5.25 -4.265625 4.671875 -4.40625 4.328125 -4.40625 C 3.75 -4.40625 3.40625 -3.875 3.28125 -3.65625 C 3.03125 -4.3125 2.5 -4.40625 2.203125 -4.40625 C 1.171875 -4.40625 0.59375 -3.125 0.59375 -2.875 C 0.59375 -2.765625 0.703125 -2.765625 0.71875 -2.765625 C 0.796875 -2.765625 0.828125 -2.796875 0.84375 -2.875 C 1.1875 -3.9375 1.84375 -4.1875 2.1875 -4.1875 C 2.375 -4.1875 2.71875 -4.09375 2.71875 -3.515625 C 2.71875 -3.203125 2.546875 -2.546875 2.1875 -1.140625 C 2.03125 -0.53125 1.671875 -0.109375 1.234375 -0.109375 C 1.171875 -0.109375 0.953125 -0.109375 0.734375 -0.234375 C 0.984375 -0.296875 1.203125 -0.5 1.203125 -0.78125 C 1.203125 -1.046875 0.984375 -1.125 0.84375 -1.125 C 0.53125 -1.125 0.296875 -0.875 0.296875 -0.546875 C 0.296875 -0.09375 0.78125 0.109375 1.21875 0.109375 C 1.890625 0.109375 2.25 -0.59375 2.265625 -0.640625 C 2.390625 -0.28125 2.75 0.109375 3.34375 0.109375 C 4.375 0.109375 4.9375 -1.171875 4.9375 -1.421875 C 4.9375 -1.53125 4.859375 -1.53125 4.828125 -1.53125 C 4.734375 -1.53125 4.71875 -1.484375 4.6875 -1.421875 C 4.359375 -0.34375 3.6875 -0.109375 3.375 -0.109375 C 2.984375 -0.109375 2.828125 -0.421875 2.828125 -0.765625 C 2.828125 -0.984375 2.875 -1.203125 2.984375 -1.640625 Z M 3.328125 -3.015625 "/>
</g>
<g id="neuron_glyph-0-1">
<path d="M 1.90625 -0.53125 C 1.90625 -0.8125 1.671875 -1.0625 1.390625 -1.0625 C 1.09375 -1.0625 0.859375 -0.8125 0.859375 -0.53125 C 0.859375 -0.234375 1.09375 0 1.390625 0 C 1.671875 0 1.90625 -0.234375 1.90625 -0.53125 Z M 1.90625 -0.53125 "/>
</g>
<g id="neuron_glyph-0-2">
<path d="M 2.375 -6.8125 C 2.375 -6.8125 2.375 -6.921875 2.25 -6.921875 C 2.03125 -6.921875 1.296875 -6.84375 1.03125 -6.8125 C 0.953125 -6.8125 0.84375 -6.796875 0.84375 -6.625 C 0.84375 -6.5 0.9375 -6.5 1.09375 -6.5 C 1.5625 -6.5 1.578125 -6.4375 1.578125 -6.328125 C 1.578125 -6.265625 1.5 -5.921875 1.453125 -5.71875 L 0.625 -2.46875 C 0.515625 -1.96875 0.46875 -1.796875 0.46875 -1.453125 C 0.46875 -0.515625 1 0.109375 1.734375 0.109375 C 2.90625 0.109375 4.140625 -1.375 4.140625 -2.8125 C 4.140625 -3.71875 3.609375 -4.40625 2.8125 -4.40625 C 2.359375 -4.40625 1.9375 -4.109375 1.640625 -3.8125 Z M 1.453125 -3.046875 C 1.5 -3.265625 1.5 -3.28125 1.59375 -3.390625 C 2.078125 -4.03125 2.53125 -4.1875 2.796875 -4.1875 C 3.15625 -4.1875 3.421875 -3.890625 3.421875 -3.25 C 3.421875 -2.65625 3.09375 -1.515625 2.90625 -1.140625 C 2.578125 -0.46875 2.125 -0.109375 1.734375 -0.109375 C 1.390625 -0.109375 1.0625 -0.375 1.0625 -1.109375 C 1.0625 -1.3125 1.0625 -1.5 1.21875 -2.125 Z M 1.453125 -3.046875 "/>
</g>
<g id="neuron_glyph-0-3">
<path d="M 3.65625 -3.984375 L 4.515625 -3.984375 C 4.71875 -3.984375 4.8125 -3.984375 4.8125 -4.1875 C 4.8125 -4.296875 4.71875 -4.296875 4.546875 -4.296875 L 3.71875 -4.296875 L 3.921875 -5.4375 C 3.96875 -5.640625 4.109375 -6.34375 4.171875 -6.46875 C 4.25 -6.65625 4.421875 -6.8125 4.640625 -6.8125 C 4.671875 -6.8125 4.9375 -6.8125 5.125 -6.625 C 4.6875 -6.59375 4.578125 -6.234375 4.578125 -6.09375 C 4.578125 -5.859375 4.765625 -5.734375 4.953125 -5.734375 C 5.21875 -5.734375 5.5 -5.96875 5.5 -6.34375 C 5.5 -6.796875 5.046875 -7.03125 4.640625 -7.03125 C 4.296875 -7.03125 3.671875 -6.84375 3.375 -5.859375 C 3.3125 -5.65625 3.28125 -5.546875 3.046875 -4.296875 L 2.359375 -4.296875 C 2.15625 -4.296875 2.046875 -4.296875 2.046875 -4.109375 C 2.046875 -3.984375 2.140625 -3.984375 2.328125 -3.984375 L 2.984375 -3.984375 L 2.25 -0.046875 C 2.0625 0.921875 1.890625 1.828125 1.375 1.828125 C 1.328125 1.828125 1.09375 1.828125 0.890625 1.640625 C 1.359375 1.609375 1.453125 1.25 1.453125 1.109375 C 1.453125 0.875 1.265625 0.75 1.078125 0.75 C 0.8125 0.75 0.53125 0.984375 0.53125 1.359375 C 0.53125 1.796875 0.96875 2.046875 1.375 2.046875 C 1.921875 2.046875 2.328125 1.453125 2.5 1.078125 C 2.828125 0.453125 3.046875 -0.75 3.0625 -0.828125 Z M 3.65625 -3.984375 "/>
</g>
<g id="neuron_glyph-0-4">
<path d="M 4.84375 -3.796875 C 4.890625 -3.9375 4.890625 -3.953125 4.890625 -4.03125 C 4.890625 -4.203125 4.75 -4.296875 4.59375 -4.296875 C 4.5 -4.296875 4.34375 -4.234375 4.25 -4.09375 C 4.234375 -4.03125 4.140625 -3.734375 4.109375 -3.546875 C 4.03125 -3.296875 3.96875 -3.015625 3.90625 -2.75 L 3.453125 -0.953125 C 3.421875 -0.8125 2.984375 -0.109375 2.328125 -0.109375 C 1.828125 -0.109375 1.71875 -0.546875 1.71875 -0.921875 C 1.71875 -1.375 1.890625 -2 2.21875 -2.875 C 2.375 -3.28125 2.421875 -3.390625 2.421875 -3.59375 C 2.421875 -4.03125 2.109375 -4.40625 1.609375 -4.40625 C 0.65625 -4.40625 0.296875 -2.953125 0.296875 -2.875 C 0.296875 -2.765625 0.390625 -2.765625 0.40625 -2.765625 C 0.515625 -2.765625 0.515625 -2.796875 0.5625 -2.953125 C 0.84375 -3.890625 1.234375 -4.1875 1.578125 -4.1875 C 1.65625 -4.1875 1.828125 -4.1875 1.828125 -3.875 C 1.828125 -3.625 1.71875 -3.359375 1.65625 -3.171875 C 1.25 -2.109375 1.078125 -1.546875 1.078125 -1.078125 C 1.078125 -0.1875 1.703125 0.109375 2.296875 0.109375 C 2.6875 0.109375 3.015625 -0.0625 3.296875 -0.34375 C 3.171875 0.171875 3.046875 0.671875 2.65625 1.203125 C 2.390625 1.53125 2.015625 1.828125 1.5625 1.828125 C 1.421875 1.828125 0.96875 1.796875 0.796875 1.40625 C 0.953125 1.40625 1.09375 1.40625 1.21875 1.28125 C 1.328125 1.203125 1.421875 1.0625 1.421875 0.875 C 1.421875 0.5625 1.15625 0.53125 1.0625 0.53125 C 0.828125 0.53125 0.5 0.6875 0.5 1.171875 C 0.5 1.671875 0.9375 2.046875 1.5625 2.046875 C 2.578125 2.046875 3.609375 1.140625 3.890625 0.015625 Z M 4.84375 -3.796875 "/>
</g>
<g id="neuron_glyph-0-5">
<path d="M 4.609375 -3.375 C 4.65625 -3.59375 4.75 -3.96875 4.75 -4.03125 C 4.75 -4.203125 4.609375 -4.296875 4.46875 -4.296875 C 4.34375 -4.296875 4.171875 -4.21875 4.09375 -4.015625 C 4.0625 -3.953125 3.59375 -2.046875 3.53125 -1.78125 C 3.453125 -1.484375 3.4375 -1.3125 3.4375 -1.125 C 3.4375 -1.015625 3.4375 -1 3.453125 -0.953125 C 3.21875 -0.421875 2.921875 -0.109375 2.53125 -0.109375 C 1.734375 -0.109375 1.734375 -0.84375 1.734375 -1.015625 C 1.734375 -1.328125 1.78125 -1.71875 2.25 -2.953125 C 2.359375 -3.25 2.421875 -3.390625 2.421875 -3.59375 C 2.421875 -4.03125 2.09375 -4.40625 1.609375 -4.40625 C 0.65625 -4.40625 0.296875 -2.953125 0.296875 -2.875 C 0.296875 -2.765625 0.390625 -2.765625 0.40625 -2.765625 C 0.515625 -2.765625 0.515625 -2.796875 0.5625 -2.953125 C 0.84375 -3.875 1.21875 -4.1875 1.578125 -4.1875 C 1.671875 -4.1875 1.828125 -4.171875 1.828125 -3.859375 C 1.828125 -3.609375 1.71875 -3.328125 1.640625 -3.15625 C 1.203125 -1.984375 1.09375 -1.53125 1.09375 -1.140625 C 1.09375 -0.234375 1.75 0.109375 2.5 0.109375 C 2.671875 0.109375 3.140625 0.109375 3.53125 -0.59375 C 3.796875 0.046875 4.484375 0.109375 4.78125 0.109375 C 5.53125 0.109375 5.96875 -0.515625 6.234375 -1.109375 C 6.5625 -1.890625 6.890625 -3.234375 6.890625 -3.703125 C 6.890625 -4.25 6.625 -4.40625 6.453125 -4.40625 C 6.203125 -4.40625 5.953125 -4.140625 5.953125 -3.921875 C 5.953125 -3.796875 6.015625 -3.734375 6.09375 -3.65625 C 6.203125 -3.546875 6.453125 -3.296875 6.453125 -2.8125 C 6.453125 -2.46875 6.171875 -1.5 5.90625 -0.984375 C 5.65625 -0.453125 5.296875 -0.109375 4.8125 -0.109375 C 4.34375 -0.109375 4.078125 -0.40625 4.078125 -0.984375 C 4.078125 -1.25 4.140625 -1.5625 4.1875 -1.703125 Z M 4.609375 -3.375 "/>
</g>
<g id="neuron_glyph-0-6">
<path d="M 1.328125 -0.828125 C 1.859375 -1.40625 2.15625 -1.65625 2.515625 -1.96875 C 2.515625 -1.96875 3.125 -2.5 3.484375 -2.859375 C 4.4375 -3.78125 4.65625 -4.265625 4.65625 -4.3125 C 4.65625 -4.40625 4.5625 -4.40625 4.546875 -4.40625 C 4.46875 -4.40625 4.453125 -4.390625 4.390625 -4.296875 C 4.09375 -3.8125 3.890625 -3.65625 3.65625 -3.65625 C 3.40625 -3.65625 3.296875 -3.8125 3.140625 -3.984375 C 2.953125 -4.203125 2.78125 -4.40625 2.453125 -4.40625 C 1.703125 -4.40625 1.25 -3.484375 1.25 -3.265625 C 1.25 -3.21875 1.28125 -3.15625 1.359375 -3.15625 C 1.453125 -3.15625 1.46875 -3.203125 1.5 -3.265625 C 1.6875 -3.734375 2.265625 -3.734375 2.34375 -3.734375 C 2.546875 -3.734375 2.734375 -3.671875 2.96875 -3.59375 C 3.375 -3.4375 3.484375 -3.4375 3.734375 -3.4375 C 3.375 -3.015625 2.546875 -2.296875 2.359375 -2.140625 L 1.453125 -1.296875 C 0.78125 -0.625 0.421875 -0.0625 0.421875 0.015625 C 0.421875 0.109375 0.53125 0.109375 0.546875 0.109375 C 0.625 0.109375 0.640625 0.09375 0.703125 -0.015625 C 0.9375 -0.375 1.234375 -0.640625 1.5625 -0.640625 C 1.78125 -0.640625 1.890625 -0.546875 2.140625 -0.265625 C 2.296875 -0.046875 2.484375 0.109375 2.765625 0.109375 C 3.765625 0.109375 4.34375 -1.15625 4.34375 -1.421875 C 4.34375 -1.46875 4.296875 -1.53125 4.21875 -1.53125 C 4.125 -1.53125 4.109375 -1.46875 4.078125 -1.390625 C 3.84375 -0.75 3.203125 -0.5625 2.875 -0.5625 C 2.6875 -0.5625 2.5 -0.625 2.296875 -0.6875 C 1.953125 -0.8125 1.796875 -0.859375 1.59375 -0.859375 C 1.578125 -0.859375 1.421875 -0.859375 1.328125 -0.828125 Z M 1.328125 -0.828125 "/>
</g>
<g id="neuron_glyph-1-0">
<path d="M 2.328125 -4.4375 C 2.328125 -4.625 2.328125 -4.625 2.125 -4.625 C 1.671875 -4.1875 1.046875 -4.1875 0.765625 -4.1875 L 0.765625 -3.9375 C 0.921875 -3.9375 1.390625 -3.9375 1.765625 -4.125 L 1.765625 -0.578125 C 1.765625 -0.34375 1.765625 -0.25 1.078125 -0.25 L 0.8125 -0.25 L 0.8125 0 C 0.9375 0 1.796875 -0.03125 2.046875 -0.03125 C 2.265625 -0.03125 3.140625 0 3.296875 0 L 3.296875 -0.25 L 3.03125 -0.25 C 2.328125 -0.25 2.328125 -0.34375 2.328125 -0.578125 Z M 2.328125 -4.4375 "/>
</g>
<g id="neuron_glyph-2-0">
<path d="M 0.84375 -0.4375 C 0.828125 -0.34375 0.78125 -0.171875 0.78125 -0.15625 C 0.78125 0 0.90625 0.0625 1.015625 0.0625 C 1.140625 0.0625 1.25 -0.015625 1.296875 -0.078125 C 1.328125 -0.140625 1.375 -0.375 1.421875 -0.515625 C 1.453125 -0.640625 1.53125 -0.96875 1.5625 -1.140625 C 1.609375 -1.296875 1.65625 -1.453125 1.6875 -1.609375 C 1.765625 -1.890625 1.78125 -1.953125 1.984375 -2.234375 C 2.171875 -2.515625 2.5 -2.875 3.03125 -2.875 C 3.421875 -2.875 3.4375 -2.515625 3.4375 -2.390625 C 3.4375 -1.96875 3.140625 -1.203125 3.03125 -0.90625 C 2.953125 -0.703125 2.921875 -0.640625 2.921875 -0.53125 C 2.921875 -0.15625 3.21875 0.0625 3.578125 0.0625 C 4.28125 0.0625 4.578125 -0.890625 4.578125 -1 C 4.578125 -1.09375 4.5 -1.09375 4.46875 -1.09375 C 4.375 -1.09375 4.375 -1.046875 4.34375 -0.96875 C 4.1875 -0.40625 3.875 -0.125 3.609375 -0.125 C 3.453125 -0.125 3.421875 -0.21875 3.421875 -0.375 C 3.421875 -0.53125 3.46875 -0.625 3.59375 -0.9375 C 3.671875 -1.15625 3.953125 -1.890625 3.953125 -2.28125 C 3.953125 -2.953125 3.421875 -3.078125 3.046875 -3.078125 C 2.46875 -3.078125 2.078125 -2.71875 1.875 -2.4375 C 1.828125 -2.921875 1.421875 -3.078125 1.125 -3.078125 C 0.828125 -3.078125 0.671875 -2.859375 0.578125 -2.703125 C 0.421875 -2.4375 0.328125 -2.046875 0.328125 -2 C 0.328125 -1.921875 0.421875 -1.921875 0.453125 -1.921875 C 0.546875 -1.921875 0.546875 -1.9375 0.59375 -2.125 C 0.703125 -2.53125 0.84375 -2.875 1.109375 -2.875 C 1.296875 -2.875 1.34375 -2.71875 1.34375 -2.53125 C 1.34375 -2.40625 1.28125 -2.140625 1.21875 -1.953125 C 1.171875 -1.765625 1.109375 -1.484375 1.078125 -1.328125 Z M 0.84375 -0.4375 "/>
</g>
<g id="neuron_glyph-2-1">
<path d="M 3.0625 -4.359375 C 3.0625 -4.46875 2.96875 -4.625 2.78125 -4.625 C 2.578125 -4.625 2.390625 -4.421875 2.390625 -4.234375 C 2.390625 -4.125 2.46875 -3.96875 2.671875 -3.96875 C 2.859375 -3.96875 3.0625 -4.15625 3.0625 -4.359375 Z M 1.578125 0.34375 C 1.46875 0.828125 1.09375 1.21875 0.6875 1.21875 C 0.59375 1.21875 0.515625 1.21875 0.4375 1.1875 C 0.609375 1.09375 0.671875 0.9375 0.671875 0.828125 C 0.671875 0.65625 0.53125 0.578125 0.390625 0.578125 C 0.1875 0.578125 0 0.765625 0 0.984375 C 0 1.25 0.265625 1.421875 0.6875 1.421875 C 1.109375 1.421875 1.921875 1.171875 2.140625 0.328125 L 2.765625 -2.171875 C 2.78125 -2.25 2.796875 -2.3125 2.796875 -2.421875 C 2.796875 -2.796875 2.46875 -3.078125 2.0625 -3.078125 C 1.28125 -3.078125 0.84375 -2.109375 0.84375 -2 C 0.84375 -1.921875 0.9375 -1.921875 0.953125 -1.921875 C 1.03125 -1.921875 1.046875 -1.9375 1.09375 -2.046875 C 1.265625 -2.453125 1.625 -2.875 2.03125 -2.875 C 2.203125 -2.875 2.265625 -2.765625 2.265625 -2.53125 C 2.265625 -2.453125 2.265625 -2.359375 2.25 -2.328125 Z M 1.578125 0.34375 "/>
</g>
<g id="neuron_glyph-3-0">
<path d="M 3.703125 -3.25 C 3.796875 -3.34375 3.796875 -3.390625 3.796875 -3.40625 C 3.796875 -3.453125 3.765625 -3.515625 3.734375 -3.546875 L 1.6875 -6.5 L 3.984375 -6.5 C 5.671875 -6.5 6.171875 -6.140625 6.375 -4.5625 L 6.625 -4.5625 L 6.34375 -6.8125 L 0.8125 -6.8125 C 0.578125 -6.8125 0.5625 -6.8125 0.5625 -6.578125 L 3.046875 -2.96875 L 0.671875 -0.265625 C 0.5625 -0.15625 0.5625 -0.140625 0.5625 -0.109375 C 0.5625 0 0.671875 0 0.8125 0 L 6.34375 0 L 6.625 -2.359375 L 6.375 -2.359375 C 6.203125 -0.6875 5.515625 -0.421875 3.953125 -0.421875 L 1.203125 -0.421875 Z M 3.703125 -3.25 "/>
</g>
<g id="neuron_glyph-3-1">
<path d="M 3.296875 2.390625 C 3.296875 2.359375 3.296875 2.34375 3.125 2.171875 C 1.890625 0.921875 1.5625 -0.96875 1.5625 -2.5 C 1.5625 -4.234375 1.9375 -5.96875 3.171875 -7.203125 C 3.296875 -7.328125 3.296875 -7.34375 3.296875 -7.375 C 3.296875 -7.453125 3.265625 -7.484375 3.203125 -7.484375 C 3.09375 -7.484375 2.203125 -6.796875 1.609375 -5.53125 C 1.109375 -4.4375 0.984375 -3.328125 0.984375 -2.5 C 0.984375 -1.71875 1.09375 -0.515625 1.640625 0.625 C 2.25 1.84375 3.09375 2.5 3.203125 2.5 C 3.265625 2.5 3.296875 2.46875 3.296875 2.390625 Z M 3.296875 2.390625 "/>
</g>
<g id="neuron_glyph-3-2">
<path d="M 2.875 -2.5 C 2.875 -3.265625 2.765625 -4.46875 2.21875 -5.609375 C 1.625 -6.828125 0.765625 -7.484375 0.671875 -7.484375 C 0.609375 -7.484375 0.5625 -7.4375 0.5625 -7.375 C 0.5625 -7.34375 0.5625 -7.328125 0.75 -7.140625 C 1.734375 -6.15625 2.296875 -4.578125 2.296875 -2.5 C 2.296875 -0.78125 1.9375 0.96875 0.703125 2.21875 C 0.5625 2.34375 0.5625 2.359375 0.5625 2.390625 C 0.5625 2.453125 0.609375 2.5 0.671875 2.5 C 0.765625 2.5 1.671875 1.8125 2.25 0.546875 C 2.765625 -0.546875 2.875 -1.65625 2.875 -2.5 Z M 2.875 -2.5 "/>
</g>
<g id="neuron_glyph-3-3">
<path d="M 2.25 -6.03125 C 2.25 -6.390625 2.265625 -6.5 3.0625 -6.5 L 3.3125 -6.5 L 3.3125 -6.8125 C 2.96875 -6.78125 2.1875 -6.78125 1.796875 -6.78125 C 1.421875 -6.78125 0.625 -6.78125 0.28125 -6.8125 L 0.28125 -6.5 L 0.53125 -6.5 C 1.328125 -6.5 1.359375 -6.390625 1.359375 -6.03125 L 1.359375 -0.78125 C 1.359375 -0.421875 1.328125 -0.3125 0.53125 -0.3125 L 0.28125 -0.3125 L 0.28125 0 C 0.625 -0.03125 1.421875 -0.03125 1.796875 -0.03125 C 2.1875 -0.03125 2.96875 -0.03125 3.3125 0 L 3.3125 -0.3125 L 3.0625 -0.3125 C 2.265625 -0.3125 2.25 -0.421875 2.25 -0.78125 Z M 2.25 -6.03125 "/>
</g>
<g id="neuron_glyph-3-4">
<path d="M 1.09375 -3.421875 L 1.09375 -0.75 C 1.09375 -0.3125 0.984375 -0.3125 0.3125 -0.3125 L 0.3125 0 C 0.671875 -0.015625 1.171875 -0.03125 1.453125 -0.03125 C 1.703125 -0.03125 2.21875 -0.015625 2.5625 0 L 2.5625 -0.3125 C 1.890625 -0.3125 1.78125 -0.3125 1.78125 -0.75 L 1.78125 -2.59375 C 1.78125 -3.625 2.5 -4.1875 3.125 -4.1875 C 3.765625 -4.1875 3.875 -3.65625 3.875 -3.078125 L 3.875 -0.75 C 3.875 -0.3125 3.765625 -0.3125 3.09375 -0.3125 L 3.09375 0 C 3.4375 -0.015625 3.953125 -0.03125 4.21875 -0.03125 C 4.46875 -0.03125 5 -0.015625 5.328125 0 L 5.328125 -0.3125 C 4.8125 -0.3125 4.5625 -0.3125 4.5625 -0.609375 L 4.5625 -2.515625 C 4.5625 -3.375 4.5625 -3.671875 4.25 -4.03125 C 4.109375 -4.203125 3.78125 -4.40625 3.203125 -4.40625 C 2.46875 -4.40625 2 -3.984375 1.71875 -3.359375 L 1.71875 -4.40625 L 0.3125 -4.296875 L 0.3125 -3.984375 C 1.015625 -3.984375 1.09375 -3.921875 1.09375 -3.421875 Z M 1.09375 -3.421875 "/>
</g>
<g id="neuron_glyph-3-5">
<path d="M 1.71875 -3.75 L 1.71875 -4.40625 L 0.28125 -4.296875 L 0.28125 -3.984375 C 0.984375 -3.984375 1.0625 -3.921875 1.0625 -3.484375 L 1.0625 1.171875 C 1.0625 1.625 0.953125 1.625 0.28125 1.625 L 0.28125 1.9375 C 0.625 1.921875 1.140625 1.90625 1.390625 1.90625 C 1.671875 1.90625 2.171875 1.921875 2.515625 1.9375 L 2.515625 1.625 C 1.859375 1.625 1.75 1.625 1.75 1.171875 L 1.75 -0.59375 C 1.796875 -0.421875 2.21875 0.109375 2.96875 0.109375 C 4.15625 0.109375 5.1875 -0.875 5.1875 -2.15625 C 5.1875 -3.421875 4.234375 -4.40625 3.109375 -4.40625 C 2.328125 -4.40625 1.90625 -3.96875 1.71875 -3.75 Z M 1.75 -1.140625 L 1.75 -3.359375 C 2.03125 -3.875 2.515625 -4.15625 3.03125 -4.15625 C 3.765625 -4.15625 4.359375 -3.28125 4.359375 -2.15625 C 4.359375 -0.953125 3.671875 -0.109375 2.9375 -0.109375 C 2.53125 -0.109375 2.15625 -0.3125 1.890625 -0.71875 C 1.75 -0.921875 1.75 -0.9375 1.75 -1.140625 Z M 1.75 -1.140625 "/>
</g>
<g id="neuron_glyph-3-6">
<path d="M 3.890625 -0.78125 L 3.890625 0.109375 L 5.328125 0 L 5.328125 -0.3125 C 4.640625 -0.3125 4.5625 -0.375 4.5625 -0.875 L 4.5625 -4.40625 L 3.09375 -4.296875 L 3.09375 -3.984375 C 3.78125 -3.984375 3.875 -3.921875 3.875 -3.421875 L 3.875 -1.65625 C 3.875 -0.78125 3.390625 -0.109375 2.65625 -0.109375 C 1.828125 -0.109375 1.78125 -0.578125 1.78125 -1.09375 L 1.78125 -4.40625 L 0.3125 -4.296875 L 0.3125 -3.984375 C 1.09375 -3.984375 1.09375 -3.953125 1.09375 -3.078125 L 1.09375 -1.578125 C 1.09375 -0.796875 1.09375 0.109375 2.609375 0.109375 C 3.171875 0.109375 3.609375 -0.171875 3.890625 -0.78125 Z M 3.890625 -0.78125 "/>
</g>
<g id="neuron_glyph-3-7">
<path d="M 1.71875 -3.984375 L 3.15625 -3.984375 L 3.15625 -4.296875 L 1.71875 -4.296875 L 1.71875 -6.125 L 1.46875 -6.125 C 1.46875 -5.3125 1.171875 -4.25 0.1875 -4.203125 L 0.1875 -3.984375 L 1.03125 -3.984375 L 1.03125 -1.234375 C 1.03125 -0.015625 1.96875 0.109375 2.328125 0.109375 C 3.03125 0.109375 3.3125 -0.59375 3.3125 -1.234375 L 3.3125 -1.796875 L 3.0625 -1.796875 L 3.0625 -1.25 C 3.0625 -0.515625 2.765625 -0.140625 2.390625 -0.140625 C 1.71875 -0.140625 1.71875 -1.046875 1.71875 -1.21875 Z M 1.71875 -3.984375 "/>
</g>
<g id="neuron_glyph-3-8">
<path d="M 2.078125 -1.9375 C 2.296875 -1.890625 3.109375 -1.734375 3.109375 -1.015625 C 3.109375 -0.515625 2.765625 -0.109375 1.984375 -0.109375 C 1.140625 -0.109375 0.78125 -0.671875 0.59375 -1.53125 C 0.5625 -1.65625 0.5625 -1.6875 0.453125 -1.6875 C 0.328125 -1.6875 0.328125 -1.625 0.328125 -1.453125 L 0.328125 -0.125 C 0.328125 0.046875 0.328125 0.109375 0.4375 0.109375 C 0.484375 0.109375 0.5 0.09375 0.6875 -0.09375 C 0.703125 -0.109375 0.703125 -0.125 0.890625 -0.3125 C 1.328125 0.09375 1.78125 0.109375 1.984375 0.109375 C 3.125 0.109375 3.59375 -0.5625 3.59375 -1.28125 C 3.59375 -1.796875 3.296875 -2.109375 3.171875 -2.21875 C 2.84375 -2.546875 2.453125 -2.625 2.03125 -2.703125 C 1.46875 -2.8125 0.8125 -2.9375 0.8125 -3.515625 C 0.8125 -3.875 1.0625 -4.28125 1.921875 -4.28125 C 3.015625 -4.28125 3.078125 -3.375 3.09375 -3.078125 C 3.09375 -2.984375 3.1875 -2.984375 3.203125 -2.984375 C 3.34375 -2.984375 3.34375 -3.03125 3.34375 -3.21875 L 3.34375 -4.234375 C 3.34375 -4.390625 3.34375 -4.46875 3.234375 -4.46875 C 3.1875 -4.46875 3.15625 -4.46875 3.03125 -4.34375 C 3 -4.3125 2.90625 -4.21875 2.859375 -4.1875 C 2.484375 -4.46875 2.078125 -4.46875 1.921875 -4.46875 C 0.703125 -4.46875 0.328125 -3.796875 0.328125 -3.234375 C 0.328125 -2.890625 0.484375 -2.609375 0.75 -2.390625 C 1.078125 -2.140625 1.359375 -2.078125 2.078125 -1.9375 Z M 2.078125 -1.9375 "/>
</g>
<g id="neuron_glyph-3-9">
<path d="M 3.484375 -3.875 L 2.203125 -4.171875 C 1.578125 -4.328125 1.203125 -4.859375 1.203125 -5.4375 C 1.203125 -6.140625 1.734375 -6.75 2.515625 -6.75 C 4.171875 -6.75 4.390625 -5.109375 4.453125 -4.671875 C 4.46875 -4.609375 4.46875 -4.546875 4.578125 -4.546875 C 4.703125 -4.546875 4.703125 -4.59375 4.703125 -4.78125 L 4.703125 -6.78125 C 4.703125 -6.953125 4.703125 -7.03125 4.59375 -7.03125 C 4.53125 -7.03125 4.515625 -7.015625 4.453125 -6.890625 L 4.09375 -6.328125 C 3.796875 -6.625 3.390625 -7.03125 2.5 -7.03125 C 1.390625 -7.03125 0.5625 -6.15625 0.5625 -5.09375 C 0.5625 -4.265625 1.09375 -3.53125 1.859375 -3.265625 C 1.96875 -3.234375 2.484375 -3.109375 3.1875 -2.9375 C 3.453125 -2.875 3.75 -2.796875 4.03125 -2.4375 C 4.234375 -2.171875 4.34375 -1.84375 4.34375 -1.515625 C 4.34375 -0.8125 3.84375 -0.09375 3 -0.09375 C 2.71875 -0.09375 1.953125 -0.140625 1.421875 -0.625 C 0.84375 -1.171875 0.8125 -1.796875 0.8125 -2.15625 C 0.796875 -2.265625 0.71875 -2.265625 0.6875 -2.265625 C 0.5625 -2.265625 0.5625 -2.1875 0.5625 -2.015625 L 0.5625 -0.015625 C 0.5625 0.15625 0.5625 0.21875 0.671875 0.21875 C 0.734375 0.21875 0.75 0.203125 0.8125 0.09375 C 0.8125 0.078125 0.84375 0.046875 1.171875 -0.484375 C 1.484375 -0.140625 2.125 0.21875 3.015625 0.21875 C 4.171875 0.21875 4.96875 -0.75 4.96875 -1.859375 C 4.96875 -2.84375 4.3125 -3.671875 3.484375 -3.875 Z M 3.484375 -3.875 "/>
</g>
<g id="neuron_glyph-3-10">
<path d="M 1.09375 -3.421875 L 1.09375 -0.75 C 1.09375 -0.3125 0.984375 -0.3125 0.3125 -0.3125 L 0.3125 0 C 0.671875 -0.015625 1.171875 -0.03125 1.453125 -0.03125 C 1.703125 -0.03125 2.21875 -0.015625 2.5625 0 L 2.5625 -0.3125 C 1.890625 -0.3125 1.78125 -0.3125 1.78125 -0.75 L 1.78125 -2.59375 C 1.78125 -3.625 2.5 -4.1875 3.125 -4.1875 C 3.765625 -4.1875 3.875 -3.65625 3.875 -3.078125 L 3.875 -0.75 C 3.875 -0.3125 3.765625 -0.3125 3.09375 -0.3125 L 3.09375 0 C 3.4375 -0.015625 3.953125 -0.03125 4.21875 -0.03125 C 4.46875 -0.03125 5 -0.015625 5.328125 0 L 5.328125 -0.3125 C 4.671875 -0.3125 4.5625 -0.3125 4.5625 -0.75 L 4.5625 -2.59375 C 4.5625 -3.625 5.265625 -4.1875 5.90625 -4.1875 C 6.53125 -4.1875 6.640625 -3.65625 6.640625 -3.078125 L 6.640625 -0.75 C 6.640625 -0.3125 6.53125 -0.3125 5.859375 -0.3125 L 5.859375 0 C 6.203125 -0.015625 6.71875 -0.03125 6.984375 -0.03125 C 7.25 -0.03125 7.765625 -0.015625 8.109375 0 L 8.109375 -0.3125 C 7.59375 -0.3125 7.34375 -0.3125 7.328125 -0.609375 L 7.328125 -2.515625 C 7.328125 -3.375 7.328125 -3.671875 7.015625 -4.03125 C 6.875 -4.203125 6.546875 -4.40625 5.96875 -4.40625 C 5.140625 -4.40625 4.6875 -3.8125 4.53125 -3.421875 C 4.390625 -4.296875 3.65625 -4.40625 3.203125 -4.40625 C 2.46875 -4.40625 2 -3.984375 1.71875 -3.359375 L 1.71875 -4.40625 L 0.3125 -4.296875 L 0.3125 -3.984375 C 1.015625 -3.984375 1.09375 -3.921875 1.09375 -3.421875 Z M 1.09375 -3.421875 "/>
</g>
<g id="neuron_glyph-3-11">
<path d="M 3.3125 -0.75 C 3.359375 -0.359375 3.625 0.0625 4.09375 0.0625 C 4.3125 0.0625 4.921875 -0.078125 4.921875 -0.890625 L 4.921875 -1.453125 L 4.671875 -1.453125 L 4.671875 -0.890625 C 4.671875 -0.3125 4.421875 -0.25 4.3125 -0.25 C 3.984375 -0.25 3.9375 -0.703125 3.9375 -0.75 L 3.9375 -2.734375 C 3.9375 -3.15625 3.9375 -3.546875 3.578125 -3.921875 C 3.1875 -4.3125 2.6875 -4.46875 2.21875 -4.46875 C 1.390625 -4.46875 0.703125 -4 0.703125 -3.34375 C 0.703125 -3.046875 0.90625 -2.875 1.171875 -2.875 C 1.453125 -2.875 1.625 -3.078125 1.625 -3.328125 C 1.625 -3.453125 1.578125 -3.78125 1.109375 -3.78125 C 1.390625 -4.140625 1.875 -4.25 2.1875 -4.25 C 2.6875 -4.25 3.25 -3.859375 3.25 -2.96875 L 3.25 -2.609375 C 2.734375 -2.578125 2.046875 -2.546875 1.421875 -2.25 C 0.671875 -1.90625 0.421875 -1.390625 0.421875 -0.953125 C 0.421875 -0.140625 1.390625 0.109375 2.015625 0.109375 C 2.671875 0.109375 3.125 -0.296875 3.3125 -0.75 Z M 3.25 -2.390625 L 3.25 -1.390625 C 3.25 -0.453125 2.53125 -0.109375 2.078125 -0.109375 C 1.59375 -0.109375 1.1875 -0.453125 1.1875 -0.953125 C 1.1875 -1.5 1.609375 -2.328125 3.25 -2.390625 Z M 3.25 -2.390625 "/>
</g>
<g id="neuron_glyph-3-12">
<path d="M 1.765625 -4.40625 L 0.375 -4.296875 L 0.375 -3.984375 C 1.015625 -3.984375 1.109375 -3.921875 1.109375 -3.4375 L 1.109375 -0.75 C 1.109375 -0.3125 1 -0.3125 0.328125 -0.3125 L 0.328125 0 C 0.640625 -0.015625 1.1875 -0.03125 1.421875 -0.03125 C 1.78125 -0.03125 2.125 -0.015625 2.46875 0 L 2.46875 -0.3125 C 1.796875 -0.3125 1.765625 -0.359375 1.765625 -0.75 Z M 1.796875 -6.140625 C 1.796875 -6.453125 1.5625 -6.671875 1.28125 -6.671875 C 0.96875 -6.671875 0.75 -6.40625 0.75 -6.140625 C 0.75 -5.875 0.96875 -5.609375 1.28125 -5.609375 C 1.5625 -5.609375 1.796875 -5.828125 1.796875 -6.140625 Z M 1.796875 -6.140625 "/>
</g>
<g id="neuron_glyph-3-13">
<path d="M 4.6875 -2.140625 C 4.6875 -3.40625 3.703125 -4.46875 2.5 -4.46875 C 1.25 -4.46875 0.28125 -3.375 0.28125 -2.140625 C 0.28125 -0.84375 1.3125 0.109375 2.484375 0.109375 C 3.6875 0.109375 4.6875 -0.875 4.6875 -2.140625 Z M 2.5 -0.140625 C 2.0625 -0.140625 1.625 -0.34375 1.359375 -0.8125 C 1.109375 -1.25 1.109375 -1.859375 1.109375 -2.21875 C 1.109375 -2.609375 1.109375 -3.140625 1.34375 -3.578125 C 1.609375 -4.03125 2.078125 -4.25 2.484375 -4.25 C 2.921875 -4.25 3.34375 -4.03125 3.609375 -3.59375 C 3.875 -3.171875 3.875 -2.59375 3.875 -2.21875 C 3.875 -1.859375 3.875 -1.3125 3.65625 -0.875 C 3.421875 -0.421875 2.984375 -0.140625 2.5 -0.140625 Z M 2.5 -0.140625 "/>
</g>
<g id="neuron_glyph-3-14">
<path d="M 3.96875 -6.9375 C 3.921875 -7.0625 3.890625 -7.140625 3.734375 -7.140625 C 3.578125 -7.140625 3.546875 -7.078125 3.5 -6.9375 L 1.4375 -0.984375 C 1.25 -0.46875 0.859375 -0.3125 0.3125 -0.3125 L 0.3125 0 C 0.546875 -0.015625 0.984375 -0.03125 1.328125 -0.03125 C 1.640625 -0.03125 2.15625 -0.015625 2.484375 0 L 2.484375 -0.3125 C 1.984375 -0.3125 1.734375 -0.5625 1.734375 -0.8125 C 1.734375 -0.84375 1.75 -0.953125 1.75 -0.96875 L 2.21875 -2.265625 L 4.671875 -2.265625 L 5.203125 -0.75 C 5.21875 -0.703125 5.234375 -0.640625 5.234375 -0.609375 C 5.234375 -0.3125 4.671875 -0.3125 4.40625 -0.3125 L 4.40625 0 C 4.765625 -0.03125 5.46875 -0.03125 5.84375 -0.03125 C 6.265625 -0.03125 6.734375 -0.015625 7.140625 0 L 7.140625 -0.3125 L 6.96875 -0.3125 C 6.375 -0.3125 6.234375 -0.375 6.125 -0.703125 Z M 3.4375 -5.828125 L 4.5625 -2.578125 L 2.328125 -2.578125 Z M 3.4375 -5.828125 "/>
</g>
<g id="neuron_glyph-3-15">
<path d="M 1.171875 -2.171875 C 1.171875 -3.796875 1.984375 -4.21875 2.515625 -4.21875 C 2.609375 -4.21875 3.234375 -4.203125 3.578125 -3.84375 C 3.171875 -3.8125 3.109375 -3.515625 3.109375 -3.390625 C 3.109375 -3.125 3.296875 -2.9375 3.5625 -2.9375 C 3.828125 -2.9375 4.03125 -3.09375 4.03125 -3.40625 C 4.03125 -4.078125 3.265625 -4.46875 2.5 -4.46875 C 1.25 -4.46875 0.34375 -3.390625 0.34375 -2.15625 C 0.34375 -0.875 1.328125 0.109375 2.484375 0.109375 C 3.8125 0.109375 4.140625 -1.09375 4.140625 -1.1875 C 4.140625 -1.28125 4.03125 -1.28125 4 -1.28125 C 3.921875 -1.28125 3.890625 -1.25 3.875 -1.1875 C 3.59375 -0.265625 2.9375 -0.140625 2.578125 -0.140625 C 2.046875 -0.140625 1.171875 -0.5625 1.171875 -2.171875 Z M 1.171875 -2.171875 "/>
</g>
<g id="neuron_glyph-3-16">
<path d="M 4.140625 -3.3125 C 4.234375 -3.546875 4.40625 -3.984375 5.0625 -3.984375 L 5.0625 -4.296875 C 4.828125 -4.28125 4.546875 -4.265625 4.3125 -4.265625 C 4.078125 -4.265625 3.625 -4.28125 3.453125 -4.296875 L 3.453125 -3.984375 C 3.8125 -3.984375 3.921875 -3.75 3.921875 -3.5625 C 3.921875 -3.46875 3.90625 -3.421875 3.875 -3.3125 L 2.84375 -0.78125 L 1.734375 -3.5625 C 1.671875 -3.6875 1.671875 -3.703125 1.671875 -3.734375 C 1.671875 -3.984375 2.0625 -3.984375 2.25 -3.984375 L 2.25 -4.296875 C 1.9375 -4.28125 1.390625 -4.265625 1.15625 -4.265625 C 0.890625 -4.265625 0.484375 -4.28125 0.1875 -4.296875 L 0.1875 -3.984375 C 0.8125 -3.984375 0.859375 -3.921875 0.984375 -3.625 L 2.421875 -0.078125 C 2.484375 0.0625 2.5 0.109375 2.625 0.109375 C 2.765625 0.109375 2.796875 0.015625 2.84375 -0.078125 Z M 4.140625 -3.3125 "/>
</g>
<g id="neuron_glyph-3-17">
<path d="M 1.75 -4.296875 L 1.75 -5.453125 C 1.75 -6.328125 2.21875 -6.8125 2.65625 -6.8125 C 2.6875 -6.8125 2.84375 -6.8125 2.984375 -6.734375 C 2.875 -6.703125 2.6875 -6.5625 2.6875 -6.3125 C 2.6875 -6.09375 2.84375 -5.890625 3.125 -5.890625 C 3.40625 -5.890625 3.5625 -6.09375 3.5625 -6.328125 C 3.5625 -6.703125 3.1875 -7.03125 2.65625 -7.03125 C 1.96875 -7.03125 1.109375 -6.5 1.109375 -5.4375 L 1.109375 -4.296875 L 0.328125 -4.296875 L 0.328125 -3.984375 L 1.109375 -3.984375 L 1.109375 -0.75 C 1.109375 -0.3125 1 -0.3125 0.34375 -0.3125 L 0.34375 0 C 0.734375 -0.015625 1.203125 -0.03125 1.46875 -0.03125 C 1.875 -0.03125 2.34375 -0.03125 2.734375 0 L 2.734375 -0.3125 L 2.53125 -0.3125 C 1.796875 -0.3125 1.78125 -0.421875 1.78125 -0.78125 L 1.78125 -3.984375 L 2.90625 -3.984375 L 2.90625 -4.296875 Z M 1.75 -4.296875 "/>
</g>
<g id="neuron_glyph-3-18">
<path d="M 7.1875 -3.375 C 7.1875 -5.40625 5.6875 -7.03125 3.875 -7.03125 C 2.078125 -7.03125 0.5625 -5.4375 0.5625 -3.375 C 0.5625 -1.328125 2.09375 0.21875 3.875 0.21875 C 5.6875 0.21875 7.1875 -1.359375 7.1875 -3.375 Z M 3.875 -0.046875 C 2.921875 -0.046875 1.578125 -0.921875 1.578125 -3.515625 C 1.578125 -6.09375 3.046875 -6.78125 3.875 -6.78125 C 4.734375 -6.78125 6.15625 -6.078125 6.15625 -3.515625 C 6.15625 -0.875 4.796875 -0.046875 3.875 -0.046875 Z M 3.875 -0.046875 "/>
</g>
<g id="neuron_glyph-4-0">
<path d="M 5.703125 -0.453125 C 5.84375 -0.609375 6.125 -0.875 6.15625 -0.921875 C 6.25 -1.078125 6.1875 -1.234375 6.0625 -1.296875 C 5.953125 -1.375 5.765625 -1.390625 5.59375 -1.25 C 5.53125 -1.21875 4.140625 0.15625 3.9375 0.34375 C 3.71875 0.546875 3.609375 0.703125 3.515625 0.859375 C 3.453125 0.953125 3.453125 0.96875 3.4375 1 C 2.953125 1.328125 2.546875 1.4375 2.21875 1.234375 C 1.53125 0.8125 1.90625 0.1875 2 0.046875 C 2.171875 -0.21875 2.421875 -0.53125 3.46875 -1.328125 C 3.71875 -1.515625 3.84375 -1.59375 3.953125 -1.78125 C 4.1875 -2.140625 4.109375 -2.640625 3.703125 -2.90625 C 2.890625 -3.40625 1.8125 -2.359375 1.765625 -2.28125 C 1.703125 -2.1875 1.78125 -2.140625 1.796875 -2.125 C 1.890625 -2.078125 1.90625 -2.109375 2.046875 -2.21875 C 2.765625 -2.859375 3.234375 -2.921875 3.546875 -2.734375 C 3.625 -2.6875 3.75 -2.578125 3.578125 -2.3125 C 3.453125 -2.09375 3.21875 -1.921875 3.046875 -1.828125 C 2.0625 -1.046875 1.75 -0.71875 1.53125 -0.390625 C 1.0625 0.375 1.421875 1.015625 2.0625 1.40625 C 2.203125 1.5 2.609375 1.75 3.3125 1.359375 C 3.203125 2.046875 3.75 2.453125 4 2.609375 C 4.640625 3 5.34375 2.703125 5.875 2.34375 C 6.578125 1.84375 7.5625 0.875 7.8125 0.484375 C 8.09375 0.015625 7.953125 -0.265625 7.8125 -0.359375 C 7.59375 -0.484375 7.25 -0.375 7.125 -0.1875 C 7.0625 -0.09375 7.078125 0 7.109375 0.09375 C 7.140625 0.25 7.21875 0.59375 6.96875 1 C 6.78125 1.296875 6.046875 1.96875 5.53125 2.265625 C 5.046875 2.59375 4.5625 2.703125 4.15625 2.4375 C 3.75 2.1875 3.6875 1.796875 3.984375 1.296875 C 4.125 1.078125 4.34375 0.859375 4.453125 0.75 Z M 5.703125 -0.453125 "/>
</g>
<g id="neuron_glyph-5-0">
<path d="M 4.328125 -2.546875 C 4.421875 -2.71875 4.421875 -2.71875 4.25 -2.8125 C 3.625 -2.6875 3.09375 -3.015625 2.859375 -3.15625 L 2.734375 -2.9375 C 2.859375 -2.859375 3.265625 -2.609375 3.671875 -2.5625 L 1.796875 0.453125 C 1.6875 0.640625 1.625 0.71875 1.046875 0.34375 L 0.8125 0.203125 L 0.6875 0.421875 C 0.796875 0.5 1.546875 0.921875 1.75 1.046875 C 1.9375 1.15625 2.671875 1.65625 2.796875 1.734375 L 2.921875 1.515625 L 2.703125 1.375 C 2.109375 1 2.171875 0.921875 2.28125 0.734375 Z M 4.328125 -2.546875 "/>
</g>
<g id="neuron_glyph-6-0">
<path d="M 2.140625 -5.296875 C 2.0625 -5.515625 1.9375 -5.875 1.90625 -5.921875 C 1.8125 -6.078125 1.65625 -6.078125 1.53125 -6.015625 C 1.421875 -5.9375 1.328125 -5.796875 1.375 -5.5625 C 1.375 -5.5 1.984375 -3.625 2.0625 -3.375 C 2.15625 -3.078125 2.234375 -2.921875 2.328125 -2.765625 C 2.390625 -2.671875 2.390625 -2.65625 2.4375 -2.625 C 2.515625 -2.046875 2.421875 -1.625 2.09375 -1.421875 C 1.40625 -1 1.03125 -1.625 0.9375 -1.765625 C 0.765625 -2.03125 0.609375 -2.40625 0.34375 -3.703125 C 0.28125 -4.015625 0.28125 -4.15625 0.171875 -4.34375 C -0.0625 -4.703125 -0.546875 -4.859375 -0.953125 -4.59375 C -1.765625 -4.09375 -1.3125 -2.671875 -1.265625 -2.59375 C -1.203125 -2.5 -1.125 -2.546875 -1.109375 -2.5625 C -1.015625 -2.609375 -1.03125 -2.640625 -1.078125 -2.8125 C -1.328125 -3.734375 -1.171875 -4.203125 -0.859375 -4.390625 C -0.78125 -4.4375 -0.65625 -4.515625 -0.484375 -4.25 C -0.359375 -4.03125 -0.28125 -3.734375 -0.265625 -3.546875 C -0.03125 -2.328125 0.125 -1.875 0.34375 -1.546875 C 0.8125 -0.78125 1.546875 -0.828125 2.1875 -1.21875 C 2.328125 -1.3125 2.734375 -1.5625 2.6875 -2.359375 C 3.265625 -1.953125 3.875 -2.265625 4.125 -2.421875 C 4.765625 -2.8125 4.8125 -3.578125 4.71875 -4.21875 C 4.578125 -5.0625 4.15625 -6.375 3.90625 -6.765625 C 3.625 -7.234375 3.296875 -7.234375 3.15625 -7.140625 C 2.9375 -7.015625 2.875 -6.65625 3 -6.46875 C 3.0625 -6.375 3.140625 -6.34375 3.265625 -6.3125 C 3.390625 -6.28125 3.75 -6.1875 4 -5.78125 C 4.1875 -5.484375 4.453125 -4.53125 4.5 -3.953125 C 4.578125 -3.375 4.4375 -2.890625 4.03125 -2.625 C 3.625 -2.375 3.25 -2.484375 2.953125 -2.984375 C 2.8125 -3.203125 2.6875 -3.515625 2.671875 -3.65625 Z M 2.140625 -5.296875 "/>
</g>
<g id="neuron_glyph-7-0">
<path d="M 0.484375 -0.8125 C 0.515625 -0.734375 0.578125 -0.546875 0.59375 -0.546875 C 0.671875 -0.40625 0.796875 -0.4375 0.890625 -0.484375 C 1 -0.546875 1.046875 -0.671875 1.0625 -0.75 C 1.046875 -0.828125 0.96875 -1.03125 0.9375 -1.1875 C 0.890625 -1.3125 0.78125 -1.640625 0.734375 -1.796875 C 0.6875 -1.953125 0.640625 -2.109375 0.59375 -2.265625 C 0.5 -2.546875 0.484375 -2.59375 0.515625 -2.953125 C 0.515625 -3.28125 0.609375 -3.75 1.0625 -4.03125 C 1.390625 -4.234375 1.59375 -3.953125 1.65625 -3.84375 C 1.890625 -3.484375 2.03125 -2.671875 2.09375 -2.359375 C 2.140625 -2.15625 2.140625 -2.078125 2.203125 -1.984375 C 2.40625 -1.671875 2.765625 -1.640625 3.078125 -1.84375 C 3.671875 -2.203125 3.421875 -3.15625 3.359375 -3.25 C 3.3125 -3.34375 3.25 -3.3125 3.21875 -3.296875 C 3.140625 -3.234375 3.171875 -3.1875 3.171875 -3.109375 C 3.34375 -2.546875 3.234375 -2.15625 3 -2.015625 C 2.875 -1.921875 2.796875 -1.984375 2.703125 -2.109375 C 2.625 -2.25 2.625 -2.359375 2.5625 -2.6875 C 2.515625 -2.921875 2.359375 -3.6875 2.15625 -4.015625 C 1.796875 -4.59375 1.28125 -4.40625 0.96875 -4.21875 C 0.46875 -3.90625 0.328125 -3.40625 0.3125 -3.0625 C 0.015625 -3.453125 -0.421875 -3.359375 -0.671875 -3.203125 C -0.921875 -3.046875 -0.921875 -2.796875 -0.9375 -2.59375 C -0.921875 -2.296875 -0.796875 -1.90625 -0.765625 -1.875 C -0.734375 -1.8125 -0.65625 -1.859375 -0.625 -1.875 C -0.546875 -1.921875 -0.546875 -1.921875 -0.625 -2.125 C -0.734375 -2.53125 -0.796875 -2.875 -0.578125 -3.015625 C -0.40625 -3.125 -0.296875 -3.015625 -0.1875 -2.859375 C -0.125 -2.75 -0.03125 -2.484375 0 -2.296875 C 0.0625 -2.109375 0.15625 -1.84375 0.21875 -1.6875 Z M 0.484375 -0.8125 "/>
</g>
</g>
<clipPath id="neuron_clip-0">
<path clip-rule="nonzero" d="M 43 157 L 101 157 L 101 212.863281 L 43 212.863281 Z M 43 157 "/>
</clipPath>
</defs>
<path fill="none" stroke-width="0.99628" stroke-linecap="butt" stroke-linejoin="miter" stroke="currentColor" stroke-opacity="1" stroke-miterlimit="10" d="M 14.171625 0.00153125 C 14.171625 7.829656 7.827875 14.173406 -0.00025 14.173406 C -7.828375 14.173406 -14.172125 7.829656 -14.172125 0.00153125 C -14.172125 -7.826594 -7.828375 -14.17425 -0.00025 -14.17425 C 7.827875 -14.17425 14.171625 -7.826594 14.171625 0.00153125 Z M 14.171625 0.00153125 " transform="matrix(1, 0, 0, -1, 71.969, 70.857)"/>
<g fill="currentColor" fill-opacity="1" class="glyph">
<use xlink:href="#neuron_glyph-0-0" x="66.887" y="72.255"/>
</g>
<g fill="currentColor" fill-opacity="1" class="glyph">
<use xlink:href="#neuron_glyph-1-0" x="72.581" y="73.749"/>
</g>
<path fill="none" stroke-width="0.99628" stroke-linecap="butt" stroke-linejoin="miter" stroke="currentColor" stroke-opacity="1" stroke-miterlimit="10" d="M 14.171625 -57.689875 C 14.171625 -49.86175 7.827875 -43.518 -0.00025 -43.518 C -7.828375 -43.518 -14.172125 -49.86175 -14.172125 -57.689875 C -14.172125 -65.518 -7.828375 -71.86175 -0.00025 -71.86175 C 7.827875 -71.86175 14.171625 -65.518 14.171625 -57.689875 Z M 14.171625 -57.689875 " transform="matrix(1, 0, 0, -1, 71.969, 70.857)"/>
<g fill="currentColor" fill-opacity="1" class="glyph">
<use xlink:href="#neuron_glyph-0-1" x="66.157" y="129.072"/>
</g>
<g fill="currentColor" fill-opacity="1" class="glyph">
<use xlink:href="#neuron_glyph-0-1" x="70.588364" y="129.072"/>
</g>
<g fill="currentColor" fill-opacity="1" class="glyph">
<use xlink:href="#neuron_glyph-0-1" x="75.009766" y="129.072"/>
</g>
<g clip-path="url(#neuron_clip-0)">
<path fill="none" stroke-width="0.99628" stroke-linecap="butt" stroke-linejoin="miter" stroke="currentColor" stroke-opacity="1" stroke-miterlimit="10" d="M 14.171625 -115.381281 C 14.171625 -107.553156 7.827875 -101.2055 -0.00025 -101.2055 C -7.828375 -101.2055 -14.172125 -107.553156 -14.172125 -115.381281 C -14.172125 -123.209406 -7.828375 -129.553156 -0.00025 -129.553156 C 7.827875 -129.553156 14.171625 -123.209406 14.171625 -115.381281 Z M 14.171625 -115.381281 " transform="matrix(1, 0, 0, -1, 71.969, 70.857)"/>
</g>
<g fill="currentColor" fill-opacity="1" class="glyph">
<use xlink:href="#neuron_glyph-0-0" x="66.41" y="187.633"/>
</g>
<g fill="currentColor" fill-opacity="1" class="glyph">
<use xlink:href="#neuron_glyph-2-0" x="72.104" y="189.127"/>
</g>
<path fill="none" stroke-width="0.99628" stroke-linecap="butt" stroke-linejoin="miter" stroke="currentColor" stroke-opacity="1" stroke-miterlimit="10" d="M 114.382562 -57.689875 C 114.382562 -45.947687 104.866937 -36.428156 93.12475 -36.428156 C 81.382562 -36.428156 71.863031 -45.947687 71.863031 -57.689875 C 71.863031 -69.432062 81.382562 -78.951594 93.12475 -78.951594 C 104.866937 -78.951594 114.382562 -69.432062 114.382562 -57.689875 Z M 114.382562 -57.689875 " transform="matrix(1, 0, 0, -1, 71.969, 70.857)"/>
<g fill="currentColor" fill-opacity="1" class="glyph">
<use xlink:href="#neuron_glyph-3-0" x="161.493" y="131.95"/>
</g>
<path fill="none" stroke-width="0.99628" stroke-linecap="butt" stroke-linejoin="miter" stroke="currentColor" stroke-opacity="1" stroke-miterlimit="10" d="M 107.296625 7.087469 C 107.296625 14.915594 100.952875 21.259344 93.12475 21.259344 C 85.296625 21.259344 78.948969 14.915594 78.948969 7.087469 C 78.948969 -0.740656 85.296625 -7.088312 93.12475 -7.088312 C 100.952875 -7.088312 107.296625 -0.740656 107.296625 7.087469 Z M 107.296625 7.087469 " transform="matrix(1, 0, 0, -1, 71.969, 70.857)"/>
<g fill="currentColor" fill-opacity="1" class="glyph">
<use xlink:href="#neuron_glyph-0-2" x="162.953" y="67.23"/>
</g>
<path fill="none" stroke-width="0.99628" stroke-linecap="butt" stroke-linejoin="miter" stroke="currentColor" stroke-opacity="1" stroke-miterlimit="10" d="M 172.073969 -71.86175 L 214.5935 -71.86175 L 214.5935 -43.518 L 172.073969 -43.518 Z M 172.073969 -71.86175 " transform="matrix(1, 0, 0, -1, 71.969, 70.857)"/>
<g fill="currentColor" fill-opacity="1" class="glyph">
<use xlink:href="#neuron_glyph-0-3" x="262.325" y="131.037"/>
</g>
<path fill="none" stroke-width="0.99628" stroke-linecap="butt" stroke-linejoin="miter" stroke="currentColor" stroke-opacity="1" stroke-miterlimit="10" d="M 300.628656 -57.689875 C 300.628656 -49.86175 294.284906 -43.518 286.456781 -43.518 C 278.628656 -43.518 272.284906 -49.86175 272.284906 -57.689875 C 272.284906 -65.518 278.628656 -71.86175 286.456781 -71.86175 C 294.284906 -71.86175 300.628656 -65.518 300.628656 -57.689875 Z M 300.628656 -57.689875 " transform="matrix(1, 0, 0, -1, 71.969, 70.857)"/>
<g fill="currentColor" fill-opacity="1" class="glyph">
<use xlink:href="#neuron_glyph-0-4" x="355.801" y="129.722"/>
</g>
<path fill="none" stroke-width="0.99628" stroke-linecap="butt" stroke-linejoin="miter" stroke="currentColor" stroke-opacity="1" stroke-miterlimit="10" d="M 12.472406 -7.725031 L 70.097406 -43.42425 " transform="matrix(1, 0, 0, -1, 71.969, 70.857)"/>
<path fill-rule="nonzero" fill="currentColor" fill-opacity="1" class="glyph" stroke-width="0.99628" stroke-linecap="butt" stroke-linejoin="miter" stroke="currentColor" stroke-opacity="1" stroke-miterlimit="10" d="M 7.086098 -0.00159989 L 1.608087 2.068579 L 3.423105 -0.000753987 L 1.608664 -2.071445 Z M 7.086098 -0.00159989 " transform="matrix(0.85005, 0.52661, 0.52661, -0.85005, 139.36793, 112.61078)"/>
<g fill="currentColor" fill-opacity="1" class="glyph">
<use xlink:href="#neuron_glyph-4-0" x="113.385" y="90.265"/>
</g>
<g fill="currentColor" fill-opacity="1" class="glyph">
<use xlink:href="#neuron_glyph-5-0" x="118.660801" y="95.290757"/>
</g>
<path fill="none" stroke-width="0.99628" stroke-linecap="butt" stroke-linejoin="miter" stroke="currentColor" stroke-opacity="1" stroke-miterlimit="10" d="M 14.671625 -57.689875 L 66.034906 -57.689875 " transform="matrix(1, 0, 0, -1, 71.969, 70.857)"/>
<path fill-rule="nonzero" fill="currentColor" fill-opacity="1" class="glyph" stroke-width="0.99628" stroke-linecap="butt" stroke-linejoin="miter" stroke="currentColor" stroke-opacity="1" stroke-miterlimit="10" d="M 7.083933 0.000005 L 1.60737 2.070318 L 3.423776 0.000005 L 1.60737 -2.070307 Z M 7.083933 0.000005 " transform="matrix(1, 0, 0, -1, 134.83013, 128.54688)"/>
<g fill="currentColor" fill-opacity="1" class="glyph">
<use xlink:href="#neuron_glyph-0-5" x="109.321" y="121.877"/>
</g>
<g fill="currentColor" fill-opacity="1" class="glyph">
<use xlink:href="#neuron_glyph-2-1" x="116.454" y="123.372"/>
</g>
<path fill="none" stroke-width="0.99628" stroke-linecap="butt" stroke-linejoin="miter" stroke="currentColor" stroke-opacity="1" stroke-miterlimit="10" d="M 12.472406 -107.654719 L 70.097406 -71.9555 " transform="matrix(1, 0, 0, -1, 71.969, 70.857)"/>
<path fill-rule="nonzero" fill="currentColor" fill-opacity="1" class="glyph" stroke-width="0.99628" stroke-linecap="butt" stroke-linejoin="miter" stroke="currentColor" stroke-opacity="1" stroke-miterlimit="10" d="M 7.086103 0.00160839 L 1.608669 2.071453 L 3.423111 0.000762489 L 1.608092 -2.068571 Z M 7.086103 0.00160839 " transform="matrix(0.85005, -0.52661, -0.52661, -0.85005, 139.36793, 144.48298)"/>
<g fill="currentColor" fill-opacity="1" class="glyph">
<use xlink:href="#neuron_glyph-6-0" x="107.383" y="158.046"/>
</g>
<g fill="currentColor" fill-opacity="1" class="glyph">
<use xlink:href="#neuron_glyph-7-0" x="114.233689" y="155.560516"/>
</g>
<path fill="none" stroke-width="0.99628" stroke-linecap="butt" stroke-linejoin="miter" stroke="currentColor" stroke-opacity="1" stroke-miterlimit="10" d="M 93.12475 -7.584406 L 93.12475 -30.600031 " transform="matrix(1, 0, 0, -1, 71.969, 70.857)"/>
<path fill-rule="nonzero" fill="currentColor" fill-opacity="1" class="glyph" stroke-width="0.99628" stroke-linecap="butt" stroke-linejoin="miter" stroke="currentColor" stroke-opacity="1" stroke-miterlimit="10" d="M 7.086494 0.00135 L 1.609931 2.071663 L 3.422431 0.00135 L 1.609931 -2.068962 Z M 7.086494 0.00135 " transform="matrix(0, 1, 1, 0, 165.0924, 98.2846)"/>
<path fill="none" stroke-width="0.99628" stroke-linecap="butt" stroke-linejoin="miter" stroke="currentColor" stroke-opacity="1" stroke-miterlimit="10" d="M 114.882562 -57.689875 L 166.245844 -57.689875 " transform="matrix(1, 0, 0, -1, 71.969, 70.857)"/>
<path fill-rule="nonzero" fill="currentColor" fill-opacity="1" class="glyph" stroke-width="0.99628" stroke-linecap="butt" stroke-linejoin="miter" stroke="currentColor" stroke-opacity="1" stroke-miterlimit="10" d="M 7.08476 0.000005 L 1.608197 2.070318 L 3.424604 0.000005 L 1.608197 -2.070307 Z M 7.08476 0.000005 " transform="matrix(1, 0, 0, -1, 235.04024, 128.54688)"/>
<path fill="none" stroke-width="0.99628" stroke-linecap="butt" stroke-linejoin="miter" stroke="currentColor" stroke-opacity="1" stroke-miterlimit="10" d="M 215.0935 -57.689875 L 266.456781 -57.689875 " transform="matrix(1, 0, 0, -1, 71.969, 70.857)"/>
<path fill-rule="nonzero" fill="currentColor" fill-opacity="1" class="glyph" stroke-width="0.99628" stroke-linecap="butt" stroke-linejoin="miter" stroke="currentColor" stroke-opacity="1" stroke-miterlimit="10" d="M 7.085568 0.000005 L 1.609005 2.070318 L 3.421505 0.000005 L 1.609005 -2.070307 Z M 7.085568 0.000005 " transform="matrix(1, 0, 0, -1, 335.25037, 128.54688)"/>
<path fill="none" stroke-width="0.99628" stroke-linecap="butt" stroke-linejoin="miter" stroke="currentColor" stroke-opacity="1" stroke-miterlimit="10" d="M 114.882562 -57.689875 L 166.245844 -57.689875 " transform="matrix(1, 0, 0, -1, 71.969, 70.857)"/>
<path fill-rule="nonzero" fill="currentColor" fill-opacity="1" class="glyph" stroke-width="0.99628" stroke-linecap="butt" stroke-linejoin="miter" stroke="currentColor" stroke-opacity="1" stroke-miterlimit="10" d="M 7.08476 0.000005 L 1.608197 2.070318 L 3.424604 0.000005 L 1.608197 -2.070307 Z M 7.08476 0.000005 " transform="matrix(1, 0, 0, -1, 235.04024, 128.54688)"/>
<g fill="currentColor" fill-opacity="1" class="glyph">
<use xlink:href="#neuron_glyph-3-1" x="208.785" y="122.237"/>
</g>
<g fill="currentColor" fill-opacity="1" class="glyph">
<use xlink:href="#neuron_glyph-0-6" x="212.66" y="122.237"/>
</g>
<g fill="currentColor" fill-opacity="1" class="glyph">
<use xlink:href="#neuron_glyph-3-2" x="217.731" y="122.237"/>
</g>
<g fill="currentColor" fill-opacity="1" class="glyph">
<use xlink:href="#neuron_glyph-3-3" x="57.966" y="22.084"/>
<use xlink:href="#neuron_glyph-3-4" x="61.563495" y="22.084"/>
<use xlink:href="#neuron_glyph-3-5" x="67.098715" y="22.084"/>
<use xlink:href="#neuron_glyph-3-6" x="72.633936" y="22.084"/>
<use xlink:href="#neuron_glyph-3-7" x="78.169157" y="22.084"/>
<use xlink:href="#neuron_glyph-3-8" x="82.043612" y="22.084"/>
</g>
<g fill="currentColor" fill-opacity="1" class="glyph">
<use xlink:href="#neuron_glyph-3-9" x="139.739" y="23.052"/>
<use xlink:href="#neuron_glyph-3-6" x="145.274221" y="23.052"/>
<use xlink:href="#neuron_glyph-3-10" x="150.809441" y="23.052"/>
<use xlink:href="#neuron_glyph-3-10" x="159.111276" y="23.052"/>
<use xlink:href="#neuron_glyph-3-11" x="167.41311" y="23.052"/>
<use xlink:href="#neuron_glyph-3-7" x="172.39441" y="23.052"/>
<use xlink:href="#neuron_glyph-3-12" x="176.268865" y="23.052"/>
<use xlink:href="#neuron_glyph-3-13" x="179.036476" y="23.052"/>
<use xlink:href="#neuron_glyph-3-4" x="184.017776" y="23.052"/>
</g>
<g fill="currentColor" fill-opacity="1" class="glyph">
<use xlink:href="#neuron_glyph-3-14" x="220.788" y="23.107"/>
<use xlink:href="#neuron_glyph-3-15" x="228.25995" y="23.107"/>
<use xlink:href="#neuron_glyph-3-7" x="232.687329" y="23.107"/>
<use xlink:href="#neuron_glyph-3-12" x="236.561785" y="23.107"/>
<use xlink:href="#neuron_glyph-3-16" x="239.329395" y="23.107"/>
</g>
<g fill="currentColor" fill-opacity="1" class="glyph">
<use xlink:href="#neuron_glyph-3-11" x="244.02975" y="23.107"/>
<use xlink:href="#neuron_glyph-3-7" x="249.01105" y="23.107"/>
<use xlink:href="#neuron_glyph-3-12" x="252.885505" y="23.107"/>
<use xlink:href="#neuron_glyph-3-13" x="255.653115" y="23.107"/>
<use xlink:href="#neuron_glyph-3-4" x="260.634415" y="23.107"/>
</g>
<g fill="currentColor" fill-opacity="1" class="glyph">
<use xlink:href="#neuron_glyph-3-17" x="269.497144" y="23.107"/>
<use xlink:href="#neuron_glyph-3-6" x="272.541714" y="23.107"/>
<use xlink:href="#neuron_glyph-3-4" x="278.076935" y="23.107"/>
<use xlink:href="#neuron_glyph-3-15" x="283.612156" y="23.107"/>
<use xlink:href="#neuron_glyph-3-7" x="288.039535" y="23.107"/>
<use xlink:href="#neuron_glyph-3-12" x="291.91399" y="23.107"/>
<use xlink:href="#neuron_glyph-3-13" x="294.6816" y="23.107"/>
<use xlink:href="#neuron_glyph-3-4" x="299.6629" y="23.107"/>
</g>
<g fill="currentColor" fill-opacity="1" class="glyph">
<use xlink:href="#neuron_glyph-3-18" x="342.452" y="22.084"/>
<use xlink:href="#neuron_glyph-3-6" x="350.20091" y="22.084"/>
<use xlink:href="#neuron_glyph-3-7" x="355.736131" y="22.084"/>
<use xlink:href="#neuron_glyph-3-5" x="359.610586" y="22.084"/>
<use xlink:href="#neuron_glyph-3-6" x="365.145807" y="22.084"/>
<use xlink:href="#neuron_glyph-3-7" x="370.681027" y="22.084"/>
</g>
</svg>
