<?xml version="1.0" encoding="utf-8" standalone="no"?>
<!DOCTYPE svg PUBLIC "-//W3C//DTD SVG 1.1//EN"
  "http://www.w3.org/Graphics/SVG/1.1/DTD/svg11.dtd">
<svg xmlns:xlink="http://www.w3.org/1999/xlink" width="409.739107pt" height="325.986375pt" viewBox="0 0 409.739107 325.986375" xmlns="http://www.w3.org/2000/svg" version="1.1"><defs>
            <style>
                /* Light mode colors */
                :root {
                    --primary-color: #d62728;
--secondary-color: #2ca02c;
--tertiary-color: #1f77b4;
--quaternary-color: #9467bd;
--quinary-color: #8c564b;
--senary-color: #e377c2;
--septenary-color: #7f7f7f;
--octonary-color: #bcbd22;
                }
                /* Dark mode colors */
                .dark {
                    --primary-color: #FF4A98;
--secondary-color: #0AFAFA;
--tertiary-color: #7F83FF;
--quaternary-color: #B4A0FF;
--quinary-color: #FFB86B;
--senary-color: #FF79C6;
--septenary-color: #CCCCCC;
--octonary-color: #E6DB74;
                }
                /* Color classes */
                .c1 { fill: var(--primary-color) !important; }
.c2 { fill: var(--secondary-color) !important; }
.c3 { fill: var(--tertiary-color) !important; }
.c4 { fill: var(--quaternary-color) !important; }
.c5 { fill: var(--quinary-color) !important; }
.c6 { fill: var(--senary-color) !important; }
.c7 { fill: var(--septenary-color) !important; }
.c8 { fill: var(--octonary-color) !important; }
                /* Make all text inherit color */
                text, .text {
                    fill: currentColor !important;
                    stroke: none !important;
                }
                /* Make all lines inherit color */
                .axis line, .axis path {
                    stroke: currentColor !important;
                }
                /* Special handling for legend */
                .legend text {
                    fill: currentColor !important;
                }
                /* Make all default black strokes use currentColor */
                [stroke="currentColor"] {
                    stroke: currentColor !important;
                }
            </style>
        </defs>
 <metadata>
  <rdf:RDF xmlns:dc="http://purl.org/dc/elements/1.1/" xmlns:cc="http://creativecommons.org/ns#" xmlns:rdf="http://www.w3.org/1999/02/22-rdf-syntax-ns#">
   <cc:Work>
    <dc:type rdf:resource="http://purl.org/dc/dcmitype/StillImage"/>
    <dc:date>2024-12-23T13:02:58.111072</dc:date>
    <dc:format>image/svg+xml</dc:format>
    <dc:creator>
     <cc:Agent>
      <dc:title>Matplotlib v3.8.3, https://matplotlib.org/</dc:title>
     </cc:Agent>
    </dc:creator>
   </cc:Work>
  </rdf:RDF>
 </metadata>
 <defs>
  <style type="text/css">*{stroke-linejoin: round; stroke-linecap: butt}</style>
 </defs>
 <g id="figure_1">
  <g id="patch_1">
   <path d="M 0 325.986375 
L 409.739107 325.986375 
L 409.739107 0 
L 0 0 
L 0 325.986375 
z
" style="fill: none"/>
  </g>
  <g id="axes_1">
   <g id="patch_2">
    <path d="M 42.620313 288.430125 
L 399.740313 288.430125 
L 399.740313 22.318125 
L 42.620313 22.318125 
L 42.620313 288.430125 
z
" style="fill: none"/>
   </g>
   <g id="PathCollection_1">
    <defs>
     <path id="mca1f113744" d="M 0 3 
C 0.795609 3 1.55874 2.683901 2.12132 2.12132 
C 2.683901 1.55874 3 0.795609 3 0 
C 3 -0.795609 2.683901 -1.55874 2.12132 -2.12132 
C 1.55874 -2.683901 0.795609 -3 0 -3 
C -0.795609 -3 -1.55874 -2.683901 -2.12132 -2.12132 
C -2.683901 -1.55874 -3 -0.795609 -3 0 
C -3 0.795609 -2.683901 1.55874 -2.12132 2.12132 
C -1.55874 2.683901 -0.795609 3 0 3 
z
" style="stroke: #ff0001; stroke-opacity: 0.6"/>
    </defs>
    <g clip-path="url(#p0e139d87ec)">
     <use xlink:href="#mca1f113744" x="226.238467" y="148.04393" style="fill: #ff0001; fill-opacity: 0.6; stroke: #ff0001; stroke-opacity: 0.6"/>
     <use xlink:href="#mca1f113744" x="214.671196" y="156.935536" style="fill: #ff0001; fill-opacity: 0.6; stroke: #ff0001; stroke-opacity: 0.6"/>
     <use xlink:href="#mca1f113744" x="228.988736" y="160.594656" style="fill: #ff0001; fill-opacity: 0.6; stroke: #ff0001; stroke-opacity: 0.6"/>
     <use xlink:href="#mca1f113744" x="244.934648" y="144.438065" style="fill: #ff0001; fill-opacity: 0.6; stroke: #ff0001; stroke-opacity: 0.6"/>
     <use xlink:href="#mca1f113744" x="212.924405" y="139.180543" style="fill: #ff0001; fill-opacity: 0.6; stroke: #ff0001; stroke-opacity: 0.6"/>
     <use xlink:href="#mca1f113744" x="212.924704" y="140.430836" style="fill: #ff0001; fill-opacity: 0.6; stroke: #ff0001; stroke-opacity: 0.6"/>
     <use xlink:href="#mca1f113744" x="245.958121" y="162.629535" style="fill: #ff0001; fill-opacity: 0.6; stroke: #ff0001; stroke-opacity: 0.6"/>
     <use xlink:href="#mca1f113744" x="231.170128" y="155.984271" style="fill: #ff0001; fill-opacity: 0.6; stroke: #ff0001; stroke-opacity: 0.6"/>
     <use xlink:href="#mca1f113744" x="208.637611" y="147.953913" style="fill: #ff0001; fill-opacity: 0.6; stroke: #ff0001; stroke-opacity: 0.6"/>
     <use xlink:href="#mca1f113744" x="227.073632" y="139.875836" style="fill: #ff0001; fill-opacity: 0.6; stroke: #ff0001; stroke-opacity: 0.6"/>
     <use xlink:href="#mca1f113744" x="208.747944" y="158.115272" style="fill: #ff0001; fill-opacity: 0.6; stroke: #ff0001; stroke-opacity: 0.6"/>
     <use xlink:href="#mca1f113744" x="208.705826" y="154.435144" style="fill: #ff0001; fill-opacity: 0.6; stroke: #ff0001; stroke-opacity: 0.6"/>
     <use xlink:href="#mca1f113744" x="221.597705" y="165.978684" style="fill: #ff0001; fill-opacity: 0.6; stroke: #ff0001; stroke-opacity: 0.6"/>
     <use xlink:href="#mca1f113744" x="182.336098" y="167.105505" style="fill: #ff0001; fill-opacity: 0.6; stroke: #ff0001; stroke-opacity: 0.6"/>
     <use xlink:href="#mca1f113744" x="185.767458" y="141.919791" style="fill: #ff0001; fill-opacity: 0.6; stroke: #ff0001; stroke-opacity: 0.6"/>
     <use xlink:href="#mca1f113744" x="206.946853" y="135.102641" style="fill: #ff0001; fill-opacity: 0.6; stroke: #ff0001; stroke-opacity: 0.6"/>
     <use xlink:href="#mca1f113744" x="198.739394" y="153.010202" style="fill: #ff0001; fill-opacity: 0.6; stroke: #ff0001; stroke-opacity: 0.6"/>
     <use xlink:href="#mca1f113744" x="222.914507" y="139.524923" style="fill: #ff0001; fill-opacity: 0.6; stroke: #ff0001; stroke-opacity: 0.6"/>
     <use xlink:href="#mca1f113744" x="200.648642" y="147.573098" style="fill: #ff0001; fill-opacity: 0.6; stroke: #ff0001; stroke-opacity: 0.6"/>
     <use xlink:href="#mca1f113744" x="191.462284" y="160.195915" style="fill: #ff0001; fill-opacity: 0.6; stroke: #ff0001; stroke-opacity: 0.6"/>
     <use xlink:href="#mca1f113744" x="243.889348" y="147.576112" style="fill: #ff0001; fill-opacity: 0.6; stroke: #ff0001; stroke-opacity: 0.6"/>
     <use xlink:href="#mca1f113744" x="213.077008" y="132.823255" style="fill: #ff0001; fill-opacity: 0.6; stroke: #ff0001; stroke-opacity: 0.6"/>
     <use xlink:href="#mca1f113744" x="218.420076" y="152.556522" style="fill: #ff0001; fill-opacity: 0.6; stroke: #ff0001; stroke-opacity: 0.6"/>
     <use xlink:href="#mca1f113744" x="191.235586" y="132.489653" style="fill: #ff0001; fill-opacity: 0.6; stroke: #ff0001; stroke-opacity: 0.6"/>
     <use xlink:href="#mca1f113744" x="207.273021" y="184.953991" style="fill: #ff0001; fill-opacity: 0.6; stroke: #ff0001; stroke-opacity: 0.6"/>
     <use xlink:href="#mca1f113744" x="219.210582" y="141.802225" style="fill: #ff0001; fill-opacity: 0.6; stroke: #ff0001; stroke-opacity: 0.6"/>
     <use xlink:href="#mca1f113744" x="196.222517" y="151.015925" style="fill: #ff0001; fill-opacity: 0.6; stroke: #ff0001; stroke-opacity: 0.6"/>
     <use xlink:href="#mca1f113744" x="224.033941" y="155.856319" style="fill: #ff0001; fill-opacity: 0.6; stroke: #ff0001; stroke-opacity: 0.6"/>
     <use xlink:href="#mca1f113744" x="206.248218" y="150.956824" style="fill: #ff0001; fill-opacity: 0.6; stroke: #ff0001; stroke-opacity: 0.6"/>
     <use xlink:href="#mca1f113744" x="211.876204" y="177.027694" style="fill: #ff0001; fill-opacity: 0.6; stroke: #ff0001; stroke-opacity: 0.6"/>
     <use xlink:href="#mca1f113744" x="206.228764" y="154.861602" style="fill: #ff0001; fill-opacity: 0.6; stroke: #ff0001; stroke-opacity: 0.6"/>
     <use xlink:href="#mca1f113744" x="250.932496" y="147.629813" style="fill: #ff0001; fill-opacity: 0.6; stroke: #ff0001; stroke-opacity: 0.6"/>
     <use xlink:href="#mca1f113744" x="216.944052" y="133.577329" style="fill: #ff0001; fill-opacity: 0.6; stroke: #ff0001; stroke-opacity: 0.6"/>
     <use xlink:href="#mca1f113744" x="197.921827" y="158.605462" style="fill: #ff0001; fill-opacity: 0.6; stroke: #ff0001; stroke-opacity: 0.6"/>
     <use xlink:href="#mca1f113744" x="232.174059" y="162.244315" style="fill: #ff0001; fill-opacity: 0.6; stroke: #ff0001; stroke-opacity: 0.6"/>
     <use xlink:href="#mca1f113744" x="194.950072" y="158.398418" style="fill: #ff0001; fill-opacity: 0.6; stroke: #ff0001; stroke-opacity: 0.6"/>
     <use xlink:href="#mca1f113744" x="220.994753" y="140.629916" style="fill: #ff0001; fill-opacity: 0.6; stroke: #ff0001; stroke-opacity: 0.6"/>
     <use xlink:href="#mca1f113744" x="181.491024" y="147.985413" style="fill: #ff0001; fill-opacity: 0.6; stroke: #ff0001; stroke-opacity: 0.6"/>
     <use xlink:href="#mca1f113744" x="192.994638" y="158.749524" style="fill: #ff0001; fill-opacity: 0.6; stroke: #ff0001; stroke-opacity: 0.6"/>
     <use xlink:href="#mca1f113744" x="220.776109" y="145.671926" style="fill: #ff0001; fill-opacity: 0.6; stroke: #ff0001; stroke-opacity: 0.6"/>
     <use xlink:href="#mca1f113744" x="230.642421" y="150.890162" style="fill: #ff0001; fill-opacity: 0.6; stroke: #ff0001; stroke-opacity: 0.6"/>
     <use xlink:href="#mca1f113744" x="220.311709" y="139.962351" style="fill: #ff0001; fill-opacity: 0.6; stroke: #ff0001; stroke-opacity: 0.6"/>
     <use xlink:href="#mca1f113744" x="215.083188" y="160.909752" style="fill: #ff0001; fill-opacity: 0.6; stroke: #ff0001; stroke-opacity: 0.6"/>
     <use xlink:href="#mca1f113744" x="211.704785" y="156.215596" style="fill: #ff0001; fill-opacity: 0.6; stroke: #ff0001; stroke-opacity: 0.6"/>
     <use xlink:href="#mca1f113744" x="190.256" y="157.023627" style="fill: #ff0001; fill-opacity: 0.6; stroke: #ff0001; stroke-opacity: 0.6"/>
     <use xlink:href="#mca1f113744" x="204.076676" y="170.457047" style="fill: #ff0001; fill-opacity: 0.6; stroke: #ff0001; stroke-opacity: 0.6"/>
     <use xlink:href="#mca1f113744" x="208.798567" y="148.394542" style="fill: #ff0001; fill-opacity: 0.6; stroke: #ff0001; stroke-opacity: 0.6"/>
     <use xlink:href="#mca1f113744" x="236.447305" y="148.834191" style="fill: #ff0001; fill-opacity: 0.6; stroke: #ff0001; stroke-opacity: 0.6"/>
     <use xlink:href="#mca1f113744" x="223.449552" y="152.043218" style="fill: #ff0001; fill-opacity: 0.6; stroke: #ff0001; stroke-opacity: 0.6"/>
     <use xlink:href="#mca1f113744" x="185.072991" y="155.048611" style="fill: #ff0001; fill-opacity: 0.6; stroke: #ff0001; stroke-opacity: 0.6"/>
    </g>
   </g>
   <g id="PathCollection_2">
    <defs>
     <path id="m25027494f2" d="M 0 3 
C 0.795609 3 1.55874 2.683901 2.12132 2.12132 
C 2.683901 1.55874 3 0.795609 3 0 
C 3 -0.795609 2.683901 -1.55874 2.12132 -2.12132 
C 1.55874 -2.683901 0.795609 -3 0 -3 
C -0.795609 -3 -1.55874 -2.683901 -2.12132 -2.12132 
C -2.683901 -1.55874 -3 -0.795609 -3 0 
C -3 0.795609 -2.683901 1.55874 -2.12132 2.12132 
C -1.55874 2.683901 -0.795609 3 0 3 
z
" style="stroke: #00ff02; stroke-opacity: 0.6"/>
    </defs>
    <g clip-path="url(#p0e139d87ec)">
     <use xlink:href="#m25027494f2" x="312.851698" y="65.379205" style="fill: #00ff02; fill-opacity: 0.6; stroke: #00ff02; stroke-opacity: 0.6"/>
     <use xlink:href="#m25027494f2" x="330.972405" y="64.176106" style="fill: #00ff02; fill-opacity: 0.6; stroke: #00ff02; stroke-opacity: 0.6"/>
     <use xlink:href="#m25027494f2" x="332.392055" y="77.046139" style="fill: #00ff02; fill-opacity: 0.6; stroke: #00ff02; stroke-opacity: 0.6"/>
     <use xlink:href="#m25027494f2" x="324.020295" y="65.60789" style="fill: #00ff02; fill-opacity: 0.6; stroke: #00ff02; stroke-opacity: 0.6"/>
     <use xlink:href="#m25027494f2" x="335.697106" y="64.845337" style="fill: #00ff02; fill-opacity: 0.6; stroke: #00ff02; stroke-opacity: 0.6"/>
     <use xlink:href="#m25027494f2" x="345.995725" y="77.476531" style="fill: #00ff02; fill-opacity: 0.6; stroke: #00ff02; stroke-opacity: 0.6"/>
     <use xlink:href="#m25027494f2" x="372.995472" y="45.126622" style="fill: #00ff02; fill-opacity: 0.6; stroke: #00ff02; stroke-opacity: 0.6"/>
     <use xlink:href="#m25027494f2" x="341.815462" y="62.578942" style="fill: #00ff02; fill-opacity: 0.6; stroke: #00ff02; stroke-opacity: 0.6"/>
     <use xlink:href="#m25027494f2" x="343.326956" y="83.45661" style="fill: #00ff02; fill-opacity: 0.6; stroke: #00ff02; stroke-opacity: 0.6"/>
     <use xlink:href="#m25027494f2" x="337.279048" y="60.28797" style="fill: #00ff02; fill-opacity: 0.6; stroke: #00ff02; stroke-opacity: 0.6"/>
     <use xlink:href="#m25027494f2" x="303.681356" y="80.740581" style="fill: #00ff02; fill-opacity: 0.6; stroke: #00ff02; stroke-opacity: 0.6"/>
     <use xlink:href="#m25027494f2" x="338.152216" y="58.651357" style="fill: #00ff02; fill-opacity: 0.6; stroke: #00ff02; stroke-opacity: 0.6"/>
     <use xlink:href="#m25027494f2" x="339.732415" y="53.993311" style="fill: #00ff02; fill-opacity: 0.6; stroke: #00ff02; stroke-opacity: 0.6"/>
     <use xlink:href="#m25027494f2" x="383.507585" y="78.80972" style="fill: #00ff02; fill-opacity: 0.6; stroke: #00ff02; stroke-opacity: 0.6"/>
     <use xlink:href="#m25027494f2" x="335.131014" y="56.440994" style="fill: #00ff02; fill-opacity: 0.6; stroke: #00ff02; stroke-opacity: 0.6"/>
     <use xlink:href="#m25027494f2" x="344.128439" y="63.344419" style="fill: #00ff02; fill-opacity: 0.6; stroke: #00ff02; stroke-opacity: 0.6"/>
     <use xlink:href="#m25027494f2" x="338.002877" y="58.21283" style="fill: #00ff02; fill-opacity: 0.6; stroke: #00ff02; stroke-opacity: 0.6"/>
     <use xlink:href="#m25027494f2" x="317.345648" y="44.737708" style="fill: #00ff02; fill-opacity: 0.6; stroke: #00ff02; stroke-opacity: 0.6"/>
     <use xlink:href="#m25027494f2" x="359.45378" y="71.596617" style="fill: #00ff02; fill-opacity: 0.6; stroke: #00ff02; stroke-opacity: 0.6"/>
     <use xlink:href="#m25027494f2" x="352.333022" y="77.970342" style="fill: #00ff02; fill-opacity: 0.6; stroke: #00ff02; stroke-opacity: 0.6"/>
     <use xlink:href="#m25027494f2" x="353.045279" y="79.672745" style="fill: #00ff02; fill-opacity: 0.6; stroke: #00ff02; stroke-opacity: 0.6"/>
     <use xlink:href="#m25027494f2" x="322.069091" y="78.748634" style="fill: #00ff02; fill-opacity: 0.6; stroke: #00ff02; stroke-opacity: 0.6"/>
     <use xlink:href="#m25027494f2" x="364.189627" y="69.486623" style="fill: #00ff02; fill-opacity: 0.6; stroke: #00ff02; stroke-opacity: 0.6"/>
     <use xlink:href="#m25027494f2" x="313.097984" y="64.242511" style="fill: #00ff02; fill-opacity: 0.6; stroke: #00ff02; stroke-opacity: 0.6"/>
     <use xlink:href="#m25027494f2" x="349.325868" y="65.050732" style="fill: #00ff02; fill-opacity: 0.6; stroke: #00ff02; stroke-opacity: 0.6"/>
     <use xlink:href="#m25027494f2" x="378.53829" y="58.148596" style="fill: #00ff02; fill-opacity: 0.6; stroke: #00ff02; stroke-opacity: 0.6"/>
     <use xlink:href="#m25027494f2" x="320.590819" y="68.356894" style="fill: #00ff02; fill-opacity: 0.6; stroke: #00ff02; stroke-opacity: 0.6"/>
     <use xlink:href="#m25027494f2" x="328.319086" y="50.295339" style="fill: #00ff02; fill-opacity: 0.6; stroke: #00ff02; stroke-opacity: 0.6"/>
     <use xlink:href="#m25027494f2" x="340.450542" y="71.83821" style="fill: #00ff02; fill-opacity: 0.6; stroke: #00ff02; stroke-opacity: 0.6"/>
     <use xlink:href="#m25027494f2" x="329.463502" y="34.414125" style="fill: #00ff02; fill-opacity: 0.6; stroke: #00ff02; stroke-opacity: 0.6"/>
     <use xlink:href="#m25027494f2" x="310.387099" y="60.675225" style="fill: #00ff02; fill-opacity: 0.6; stroke: #00ff02; stroke-opacity: 0.6"/>
     <use xlink:href="#m25027494f2" x="339.884211" y="79.267051" style="fill: #00ff02; fill-opacity: 0.6; stroke: #00ff02; stroke-opacity: 0.6"/>
     <use xlink:href="#m25027494f2" x="319.283447" y="81.946884" style="fill: #00ff02; fill-opacity: 0.6; stroke: #00ff02; stroke-opacity: 0.6"/>
     <use xlink:href="#m25027494f2" x="347.262549" y="62.470619" style="fill: #00ff02; fill-opacity: 0.6; stroke: #00ff02; stroke-opacity: 0.6"/>
     <use xlink:href="#m25027494f2" x="321.886253" y="71.321714" style="fill: #00ff02; fill-opacity: 0.6; stroke: #00ff02; stroke-opacity: 0.6"/>
     <use xlink:href="#m25027494f2" x="366.870048" y="59.567694" style="fill: #00ff02; fill-opacity: 0.6; stroke: #00ff02; stroke-opacity: 0.6"/>
     <use xlink:href="#m25027494f2" x="324.366851" y="62.586406" style="fill: #00ff02; fill-opacity: 0.6; stroke: #00ff02; stroke-opacity: 0.6"/>
     <use xlink:href="#m25027494f2" x="332.768286" y="69.43305" style="fill: #00ff02; fill-opacity: 0.6; stroke: #00ff02; stroke-opacity: 0.6"/>
     <use xlink:href="#m25027494f2" x="353.454889" y="79.137108" style="fill: #00ff02; fill-opacity: 0.6; stroke: #00ff02; stroke-opacity: 0.6"/>
     <use xlink:href="#m25027494f2" x="316.212814" y="87.513238" style="fill: #00ff02; fill-opacity: 0.6; stroke: #00ff02; stroke-opacity: 0.6"/>
     <use xlink:href="#m25027494f2" x="342.778804" y="74.118368" style="fill: #00ff02; fill-opacity: 0.6; stroke: #00ff02; stroke-opacity: 0.6"/>
     <use xlink:href="#m25027494f2" x="362.447163" y="57.782288" style="fill: #00ff02; fill-opacity: 0.6; stroke: #00ff02; stroke-opacity: 0.6"/>
     <use xlink:href="#m25027494f2" x="309.352025" y="65.835581" style="fill: #00ff02; fill-opacity: 0.6; stroke: #00ff02; stroke-opacity: 0.6"/>
     <use xlink:href="#m25027494f2" x="341.998651" y="84.139126" style="fill: #00ff02; fill-opacity: 0.6; stroke: #00ff02; stroke-opacity: 0.6"/>
     <use xlink:href="#m25027494f2" x="343.369445" y="66.348551" style="fill: #00ff02; fill-opacity: 0.6; stroke: #00ff02; stroke-opacity: 0.6"/>
     <use xlink:href="#m25027494f2" x="352.877519" y="63.68876" style="fill: #00ff02; fill-opacity: 0.6; stroke: #00ff02; stroke-opacity: 0.6"/>
     <use xlink:href="#m25027494f2" x="316.101939" y="79.601817" style="fill: #00ff02; fill-opacity: 0.6; stroke: #00ff02; stroke-opacity: 0.6"/>
     <use xlink:href="#m25027494f2" x="314.580729" y="66.59249" style="fill: #00ff02; fill-opacity: 0.6; stroke: #00ff02; stroke-opacity: 0.6"/>
     <use xlink:href="#m25027494f2" x="348.143315" y="67.790085" style="fill: #00ff02; fill-opacity: 0.6; stroke: #00ff02; stroke-opacity: 0.6"/>
     <use xlink:href="#m25027494f2" x="344.045322" y="82.850603" style="fill: #00ff02; fill-opacity: 0.6; stroke: #00ff02; stroke-opacity: 0.6"/>
    </g>
   </g>
   <g id="PathCollection_3">
    <defs>
     <path id="mf696fe7773" d="M 0 3 
C 0.795609 3 1.55874 2.683901 2.12132 2.12132 
C 2.683901 1.55874 3 0.795609 3 0 
C 3 -0.795609 2.683901 -1.55874 2.12132 -2.12132 
C 1.55874 -2.683901 0.795609 -3 0 -3 
C -0.795609 -3 -1.55874 -2.683901 -2.12132 -2.12132 
C -2.683901 -1.55874 -3 -0.795609 -3 0 
C -3 0.795609 -2.683901 1.55874 -2.12132 2.12132 
C -1.55874 2.683901 -0.795609 3 0 3 
z
" style="stroke: #0000ff; stroke-opacity: 0.6"/>
    </defs>
    <g clip-path="url(#p0e139d87ec)">
     <use xlink:href="#mf696fe7773" x="102.262381" y="251.503855" style="fill: #0000ff; fill-opacity: 0.6; stroke: #0000ff; stroke-opacity: 0.6"/>
     <use xlink:href="#mf696fe7773" x="105.960338" y="224.186493" style="fill: #0000ff; fill-opacity: 0.6; stroke: #0000ff; stroke-opacity: 0.6"/>
     <use xlink:href="#mf696fe7773" x="115.474363" y="209.086916" style="fill: #0000ff; fill-opacity: 0.6; stroke: #0000ff; stroke-opacity: 0.6"/>
     <use xlink:href="#mf696fe7773" x="114.941536" y="222.749584" style="fill: #0000ff; fill-opacity: 0.6; stroke: #0000ff; stroke-opacity: 0.6"/>
     <use xlink:href="#mf696fe7773" x="70.647925" y="254.744782" style="fill: #0000ff; fill-opacity: 0.6; stroke: #0000ff; stroke-opacity: 0.6"/>
     <use xlink:href="#mf696fe7773" x="78.660478" y="241.766131" style="fill: #0000ff; fill-opacity: 0.6; stroke: #0000ff; stroke-opacity: 0.6"/>
     <use xlink:href="#mf696fe7773" x="105.126934" y="219.810075" style="fill: #0000ff; fill-opacity: 0.6; stroke: #0000ff; stroke-opacity: 0.6"/>
     <use xlink:href="#mf696fe7773" x="105.104175" y="244.567589" style="fill: #0000ff; fill-opacity: 0.6; stroke: #0000ff; stroke-opacity: 0.6"/>
     <use xlink:href="#mf696fe7773" x="105.12716" y="230.130092" style="fill: #0000ff; fill-opacity: 0.6; stroke: #0000ff; stroke-opacity: 0.6"/>
     <use xlink:href="#mf696fe7773" x="165.929054" y="225.9823" style="fill: #0000ff; fill-opacity: 0.6; stroke: #0000ff; stroke-opacity: 0.6"/>
     <use xlink:href="#mf696fe7773" x="106.144437" y="247.316708" style="fill: #0000ff; fill-opacity: 0.6; stroke: #0000ff; stroke-opacity: 0.6"/>
     <use xlink:href="#mf696fe7773" x="116.431007" y="236.441085" style="fill: #0000ff; fill-opacity: 0.6; stroke: #0000ff; stroke-opacity: 0.6"/>
     <use xlink:href="#mf696fe7773" x="113.123495" y="276.334125" style="fill: #0000ff; fill-opacity: 0.6; stroke: #0000ff; stroke-opacity: 0.6"/>
     <use xlink:href="#mf696fe7773" x="107.610902" y="248.538637" style="fill: #0000ff; fill-opacity: 0.6; stroke: #0000ff; stroke-opacity: 0.6"/>
     <use xlink:href="#mf696fe7773" x="90.001448" y="238.861478" style="fill: #0000ff; fill-opacity: 0.6; stroke: #0000ff; stroke-opacity: 0.6"/>
     <use xlink:href="#mf696fe7773" x="109.570628" y="251.339596" style="fill: #0000ff; fill-opacity: 0.6; stroke: #0000ff; stroke-opacity: 0.6"/>
     <use xlink:href="#mf696fe7773" x="81.666246" y="215.227393" style="fill: #0000ff; fill-opacity: 0.6; stroke: #0000ff; stroke-opacity: 0.6"/>
     <use xlink:href="#mf696fe7773" x="91.430567" y="253.626023" style="fill: #0000ff; fill-opacity: 0.6; stroke: #0000ff; stroke-opacity: 0.6"/>
     <use xlink:href="#mf696fe7773" x="86.902876" y="241.212077" style="fill: #0000ff; fill-opacity: 0.6; stroke: #0000ff; stroke-opacity: 0.6"/>
     <use xlink:href="#mf696fe7773" x="97.236127" y="234.055509" style="fill: #0000ff; fill-opacity: 0.6; stroke: #0000ff; stroke-opacity: 0.6"/>
     <use xlink:href="#mf696fe7773" x="137.910298" y="217.623903" style="fill: #0000ff; fill-opacity: 0.6; stroke: #0000ff; stroke-opacity: 0.6"/>
     <use xlink:href="#mf696fe7773" x="61.72906" y="253.697751" style="fill: #0000ff; fill-opacity: 0.6; stroke: #0000ff; stroke-opacity: 0.6"/>
     <use xlink:href="#mf696fe7773" x="108.246102" y="221.110871" style="fill: #0000ff; fill-opacity: 0.6; stroke: #0000ff; stroke-opacity: 0.6"/>
     <use xlink:href="#mf696fe7773" x="66.366132" y="235.566446" style="fill: #0000ff; fill-opacity: 0.6; stroke: #0000ff; stroke-opacity: 0.6"/>
     <use xlink:href="#mf696fe7773" x="87.147558" y="248.001016" style="fill: #0000ff; fill-opacity: 0.6; stroke: #0000ff; stroke-opacity: 0.6"/>
     <use xlink:href="#mf696fe7773" x="115.58183" y="229.900844" style="fill: #0000ff; fill-opacity: 0.6; stroke: #0000ff; stroke-opacity: 0.6"/>
     <use xlink:href="#mf696fe7773" x="96.915619" y="233.198917" style="fill: #0000ff; fill-opacity: 0.6; stroke: #0000ff; stroke-opacity: 0.6"/>
     <use xlink:href="#mf696fe7773" x="76.111589" y="243.220336" style="fill: #0000ff; fill-opacity: 0.6; stroke: #0000ff; stroke-opacity: 0.6"/>
     <use xlink:href="#mf696fe7773" x="82.714103" y="234.819563" style="fill: #0000ff; fill-opacity: 0.6; stroke: #0000ff; stroke-opacity: 0.6"/>
     <use xlink:href="#mf696fe7773" x="108.124734" y="240.525855" style="fill: #0000ff; fill-opacity: 0.6; stroke: #0000ff; stroke-opacity: 0.6"/>
     <use xlink:href="#mf696fe7773" x="82.439705" y="234.271456" style="fill: #0000ff; fill-opacity: 0.6; stroke: #0000ff; stroke-opacity: 0.6"/>
     <use xlink:href="#mf696fe7773" x="99.687824" y="227.392881" style="fill: #0000ff; fill-opacity: 0.6; stroke: #0000ff; stroke-opacity: 0.6"/>
     <use xlink:href="#mf696fe7773" x="96.574816" y="215.809092" style="fill: #0000ff; fill-opacity: 0.6; stroke: #0000ff; stroke-opacity: 0.6"/>
     <use xlink:href="#mf696fe7773" x="83.874574" y="251.21462" style="fill: #0000ff; fill-opacity: 0.6; stroke: #0000ff; stroke-opacity: 0.6"/>
     <use xlink:href="#mf696fe7773" x="134.800428" y="208.950537" style="fill: #0000ff; fill-opacity: 0.6; stroke: #0000ff; stroke-opacity: 0.6"/>
     <use xlink:href="#mf696fe7773" x="107.292614" y="260.170247" style="fill: #0000ff; fill-opacity: 0.6; stroke: #0000ff; stroke-opacity: 0.6"/>
     <use xlink:href="#mf696fe7773" x="58.85304" y="237.597848" style="fill: #0000ff; fill-opacity: 0.6; stroke: #0000ff; stroke-opacity: 0.6"/>
     <use xlink:href="#mf696fe7773" x="99.141242" y="228.318362" style="fill: #0000ff; fill-opacity: 0.6; stroke: #0000ff; stroke-opacity: 0.6"/>
     <use xlink:href="#mf696fe7773" x="83.689016" y="232.171642" style="fill: #0000ff; fill-opacity: 0.6; stroke: #0000ff; stroke-opacity: 0.6"/>
     <use xlink:href="#mf696fe7773" x="111.273244" y="243.502226" style="fill: #0000ff; fill-opacity: 0.6; stroke: #0000ff; stroke-opacity: 0.6"/>
     <use xlink:href="#mf696fe7773" x="81.307457" y="238.30421" style="fill: #0000ff; fill-opacity: 0.6; stroke: #0000ff; stroke-opacity: 0.6"/>
     <use xlink:href="#mf696fe7773" x="93.654513" y="241.876051" style="fill: #0000ff; fill-opacity: 0.6; stroke: #0000ff; stroke-opacity: 0.6"/>
     <use xlink:href="#mf696fe7773" x="104.943891" y="243.084271" style="fill: #0000ff; fill-opacity: 0.6; stroke: #0000ff; stroke-opacity: 0.6"/>
     <use xlink:href="#mf696fe7773" x="111.515926" y="225.042343" style="fill: #0000ff; fill-opacity: 0.6; stroke: #0000ff; stroke-opacity: 0.6"/>
     <use xlink:href="#mf696fe7773" x="73.879092" y="231.218449" style="fill: #0000ff; fill-opacity: 0.6; stroke: #0000ff; stroke-opacity: 0.6"/>
     <use xlink:href="#mf696fe7773" x="89.651103" y="244.382528" style="fill: #0000ff; fill-opacity: 0.6; stroke: #0000ff; stroke-opacity: 0.6"/>
     <use xlink:href="#mf696fe7773" x="87.092662" y="224.415465" style="fill: #0000ff; fill-opacity: 0.6; stroke: #0000ff; stroke-opacity: 0.6"/>
     <use xlink:href="#mf696fe7773" x="83.843079" y="231.841794" style="fill: #0000ff; fill-opacity: 0.6; stroke: #0000ff; stroke-opacity: 0.6"/>
     <use xlink:href="#mf696fe7773" x="127.905557" y="225.502993" style="fill: #0000ff; fill-opacity: 0.6; stroke: #0000ff; stroke-opacity: 0.6"/>
     <use xlink:href="#mf696fe7773" x="103.122111" y="227.800392" style="fill: #0000ff; fill-opacity: 0.6; stroke: #0000ff; stroke-opacity: 0.6"/>
    </g>
   </g>
   <g class="axis">
    <g id="xtick_1">
     <g id="line2d_1">
      <defs>
       <path id="m43bfbcecad" d="M 0 0 
L 0 3.5 
" style="stroke: currentColor; stroke-width: 0.8"/>
      </defs>
      <g>
       <use xlink:href="#m43bfbcecad" x="95.744643" y="288.430125" style="stroke: currentColor; stroke-width: 0.8"/>
      </g>
     </g>
     <g id="text_1" class="text">
      <!-- −2 -->
      <g transform="translate(88.373549 303.028562) scale(0.1 -0.1)">
       <defs>
        <path id="DejaVuSans-2212" d="M 678 2272 
L 4684 2272 
L 4684 1741 
L 678 1741 
L 678 2272 
z
" transform="scale(0.015625)"/>
        <path id="DejaVuSans-32" d="M 1228 531 
L 3431 531 
L 3431 0 
L 469 0 
L 469 531 
Q 828 903 1448 1529 
Q 2069 2156 2228 2338 
Q 2531 2678 2651 2914 
Q 2772 3150 2772 3378 
Q 2772 3750 2511 3984 
Q 2250 4219 1831 4219 
Q 1534 4219 1204 4116 
Q 875 4013 500 3803 
L 500 4441 
Q 881 4594 1212 4672 
Q 1544 4750 1819 4750 
Q 2544 4750 2975 4387 
Q 3406 4025 3406 3419 
Q 3406 3131 3298 2873 
Q 3191 2616 2906 2266 
Q 2828 2175 2409 1742 
Q 1991 1309 1228 531 
z
" transform="scale(0.015625)"/>
       </defs>
       <use xlink:href="#DejaVuSans-2212"/>
       <use xlink:href="#DejaVuSans-32" x="83.789062"/>
      </g>
     </g>
    </g>
    <g id="xtick_2">
     <g id="line2d_2">
      <g>
       <use xlink:href="#m43bfbcecad" x="156.467286" y="288.430125" style="stroke: currentColor; stroke-width: 0.8"/>
      </g>
     </g>
     <g id="text_2" class="text">
      <!-- −1 -->
      <g transform="translate(149.096192 303.028562) scale(0.1 -0.1)">
       <defs>
        <path id="DejaVuSans-31" d="M 794 531 
L 1825 531 
L 1825 4091 
L 703 3866 
L 703 4441 
L 1819 4666 
L 2450 4666 
L 2450 531 
L 3481 531 
L 3481 0 
L 794 0 
L 794 531 
z
" transform="scale(0.015625)"/>
       </defs>
       <use xlink:href="#DejaVuSans-2212"/>
       <use xlink:href="#DejaVuSans-31" x="83.789062"/>
      </g>
     </g>
    </g>
    <g id="xtick_3">
     <g id="line2d_3">
      <g>
       <use xlink:href="#m43bfbcecad" x="217.189928" y="288.430125" style="stroke: currentColor; stroke-width: 0.8"/>
      </g>
     </g>
     <g id="text_3" class="text">
      <!-- 0 -->
      <g transform="translate(214.008678 303.028562) scale(0.1 -0.1)">
       <defs>
        <path id="DejaVuSans-30" d="M 2034 4250 
Q 1547 4250 1301 3770 
Q 1056 3291 1056 2328 
Q 1056 1369 1301 889 
Q 1547 409 2034 409 
Q 2525 409 2770 889 
Q 3016 1369 3016 2328 
Q 3016 3291 2770 3770 
Q 2525 4250 2034 4250 
z
M 2034 4750 
Q 2819 4750 3233 4129 
Q 3647 3509 3647 2328 
Q 3647 1150 3233 529 
Q 2819 -91 2034 -91 
Q 1250 -91 836 529 
Q 422 1150 422 2328 
Q 422 3509 836 4129 
Q 1250 4750 2034 4750 
z
" transform="scale(0.015625)"/>
       </defs>
       <use xlink:href="#DejaVuSans-30"/>
      </g>
     </g>
    </g>
    <g id="xtick_4">
     <g id="line2d_4">
      <g>
       <use xlink:href="#m43bfbcecad" x="277.912571" y="288.430125" style="stroke: currentColor; stroke-width: 0.8"/>
      </g>
     </g>
     <g id="text_4" class="text">
      <!-- 1 -->
      <g transform="translate(274.731321 303.028562) scale(0.1 -0.1)">
       <use xlink:href="#DejaVuSans-31"/>
      </g>
     </g>
    </g>
    <g id="xtick_5">
     <g id="line2d_5">
      <g>
       <use xlink:href="#m43bfbcecad" x="338.635214" y="288.430125" style="stroke: currentColor; stroke-width: 0.8"/>
      </g>
     </g>
     <g id="text_5" class="text">
      <!-- 2 -->
      <g transform="translate(335.453964 303.028562) scale(0.1 -0.1)">
       <use xlink:href="#DejaVuSans-32"/>
      </g>
     </g>
    </g>
    <g id="xtick_6">
     <g id="line2d_6">
      <g>
       <use xlink:href="#m43bfbcecad" x="399.357857" y="288.430125" style="stroke: currentColor; stroke-width: 0.8"/>
      </g>
     </g>
     <g id="text_6" class="text">
      <!-- 3 -->
      <g transform="translate(396.176607 303.028562) scale(0.1 -0.1)">
       <defs>
        <path id="DejaVuSans-33" d="M 2597 2516 
Q 3050 2419 3304 2112 
Q 3559 1806 3559 1356 
Q 3559 666 3084 287 
Q 2609 -91 1734 -91 
Q 1441 -91 1130 -33 
Q 819 25 488 141 
L 488 750 
Q 750 597 1062 519 
Q 1375 441 1716 441 
Q 2309 441 2620 675 
Q 2931 909 2931 1356 
Q 2931 1769 2642 2001 
Q 2353 2234 1838 2234 
L 1294 2234 
L 1294 2753 
L 1863 2753 
Q 2328 2753 2575 2939 
Q 2822 3125 2822 3475 
Q 2822 3834 2567 4026 
Q 2313 4219 1838 4219 
Q 1578 4219 1281 4162 
Q 984 4106 628 3988 
L 628 4550 
Q 988 4650 1302 4700 
Q 1616 4750 1894 4750 
Q 2613 4750 3031 4423 
Q 3450 4097 3450 3541 
Q 3450 3153 3228 2886 
Q 3006 2619 2597 2516 
z
" transform="scale(0.015625)"/>
       </defs>
       <use xlink:href="#DejaVuSans-33"/>
      </g>
     </g>
    </g>
    <g id="text_7" class="text">
     <!-- X axis -->
     <g transform="translate(206.149063 316.706687) scale(0.1 -0.1)">
      <defs>
       <path id="DejaVuSans-58" d="M 403 4666 
L 1081 4666 
L 2241 2931 
L 3406 4666 
L 4084 4666 
L 2584 2425 
L 4184 0 
L 3506 0 
L 2194 1984 
L 872 0 
L 191 0 
L 1856 2491 
L 403 4666 
z
" transform="scale(0.015625)"/>
       <path id="DejaVuSans-20" transform="scale(0.015625)"/>
       <path id="DejaVuSans-61" d="M 2194 1759 
Q 1497 1759 1228 1600 
Q 959 1441 959 1056 
Q 959 750 1161 570 
Q 1363 391 1709 391 
Q 2188 391 2477 730 
Q 2766 1069 2766 1631 
L 2766 1759 
L 2194 1759 
z
M 3341 1997 
L 3341 0 
L 2766 0 
L 2766 531 
Q 2569 213 2275 61 
Q 1981 -91 1556 -91 
Q 1019 -91 701 211 
Q 384 513 384 1019 
Q 384 1609 779 1909 
Q 1175 2209 1959 2209 
L 2766 2209 
L 2766 2266 
Q 2766 2663 2505 2880 
Q 2244 3097 1772 3097 
Q 1472 3097 1187 3025 
Q 903 2953 641 2809 
L 641 3341 
Q 956 3463 1253 3523 
Q 1550 3584 1831 3584 
Q 2591 3584 2966 3190 
Q 3341 2797 3341 1997 
z
" transform="scale(0.015625)"/>
       <path id="DejaVuSans-78" d="M 3513 3500 
L 2247 1797 
L 3578 0 
L 2900 0 
L 1881 1375 
L 863 0 
L 184 0 
L 1544 1831 
L 300 3500 
L 978 3500 
L 1906 2253 
L 2834 3500 
L 3513 3500 
z
" transform="scale(0.015625)"/>
       <path id="DejaVuSans-69" d="M 603 3500 
L 1178 3500 
L 1178 0 
L 603 0 
L 603 3500 
z
M 603 4863 
L 1178 4863 
L 1178 4134 
L 603 4134 
L 603 4863 
z
" transform="scale(0.015625)"/>
       <path id="DejaVuSans-73" d="M 2834 3397 
L 2834 2853 
Q 2591 2978 2328 3040 
Q 2066 3103 1784 3103 
Q 1356 3103 1142 2972 
Q 928 2841 928 2578 
Q 928 2378 1081 2264 
Q 1234 2150 1697 2047 
L 1894 2003 
Q 2506 1872 2764 1633 
Q 3022 1394 3022 966 
Q 3022 478 2636 193 
Q 2250 -91 1575 -91 
Q 1294 -91 989 -36 
Q 684 19 347 128 
L 347 722 
Q 666 556 975 473 
Q 1284 391 1588 391 
Q 1994 391 2212 530 
Q 2431 669 2431 922 
Q 2431 1156 2273 1281 
Q 2116 1406 1581 1522 
L 1381 1569 
Q 847 1681 609 1914 
Q 372 2147 372 2553 
Q 372 3047 722 3315 
Q 1072 3584 1716 3584 
Q 2034 3584 2315 3537 
Q 2597 3491 2834 3397 
z
" transform="scale(0.015625)"/>
      </defs>
      <use xlink:href="#DejaVuSans-58"/>
      <use xlink:href="#DejaVuSans-20" x="68.505859"/>
      <use xlink:href="#DejaVuSans-61" x="100.292969"/>
      <use xlink:href="#DejaVuSans-78" x="161.572266"/>
      <use xlink:href="#DejaVuSans-69" x="220.751953"/>
      <use xlink:href="#DejaVuSans-73" x="248.535156"/>
     </g>
    </g>
   </g>
   <g class="axis">
    <g id="ytick_1">
     <g id="line2d_7">
      <defs>
       <path id="m1bee3d7b36" d="M 0 0 
L -3.5 0 
" style="stroke: currentColor; stroke-width: 0.8"/>
      </defs>
      <g>
       <use xlink:href="#m1bee3d7b36" x="42.620313" y="277.488459" style="stroke: currentColor; stroke-width: 0.8"/>
      </g>
     </g>
     <g id="text_8" class="text">
      <!-- −3 -->
      <g transform="translate(20.878125 281.287678) scale(0.1 -0.1)">
       <use xlink:href="#DejaVuSans-2212"/>
       <use xlink:href="#DejaVuSans-33" x="83.789062"/>
      </g>
     </g>
    </g>
    <g id="ytick_2">
     <g id="line2d_8">
      <g>
       <use xlink:href="#m1bee3d7b36" x="42.620313" y="235.69475" style="stroke: currentColor; stroke-width: 0.8"/>
      </g>
     </g>
     <g id="text_9" class="text">
      <!-- −2 -->
      <g transform="translate(20.878125 239.493968) scale(0.1 -0.1)">
       <use xlink:href="#DejaVuSans-2212"/>
       <use xlink:href="#DejaVuSans-32" x="83.789062"/>
      </g>
     </g>
    </g>
    <g id="ytick_3">
     <g id="line2d_9">
      <g>
       <use xlink:href="#m1bee3d7b36" x="42.620313" y="193.90104" style="stroke: currentColor; stroke-width: 0.8"/>
      </g>
     </g>
     <g id="text_10" class="text">
      <!-- −1 -->
      <g transform="translate(20.878125 197.700259) scale(0.1 -0.1)">
       <use xlink:href="#DejaVuSans-2212"/>
       <use xlink:href="#DejaVuSans-31" x="83.789062"/>
      </g>
     </g>
    </g>
    <g id="ytick_4">
     <g id="line2d_10">
      <g>
       <use xlink:href="#m1bee3d7b36" x="42.620313" y="152.107331" style="stroke: currentColor; stroke-width: 0.8"/>
      </g>
     </g>
     <g id="text_11" class="text">
      <!-- 0 -->
      <g transform="translate(29.257813 155.90655) scale(0.1 -0.1)">
       <use xlink:href="#DejaVuSans-30"/>
      </g>
     </g>
    </g>
    <g id="ytick_5">
     <g id="line2d_11">
      <g>
       <use xlink:href="#m1bee3d7b36" x="42.620313" y="110.313622" style="stroke: currentColor; stroke-width: 0.8"/>
      </g>
     </g>
     <g id="text_12" class="text">
      <!-- 1 -->
      <g transform="translate(29.257813 114.112841) scale(0.1 -0.1)">
       <use xlink:href="#DejaVuSans-31"/>
      </g>
     </g>
    </g>
    <g id="ytick_6">
     <g id="line2d_12">
      <g>
       <use xlink:href="#m1bee3d7b36" x="42.620313" y="68.519913" style="stroke: currentColor; stroke-width: 0.8"/>
      </g>
     </g>
     <g id="text_13" class="text">
      <!-- 2 -->
      <g transform="translate(29.257813 72.319131) scale(0.1 -0.1)">
       <use xlink:href="#DejaVuSans-32"/>
      </g>
     </g>
    </g>
    <g id="ytick_7">
     <g id="line2d_13">
      <g>
       <use xlink:href="#m1bee3d7b36" x="42.620313" y="26.726204" style="stroke: currentColor; stroke-width: 0.8"/>
      </g>
     </g>
     <g id="text_14" class="text">
      <!-- 3 -->
      <g transform="translate(29.257813 30.525422) scale(0.1 -0.1)">
       <use xlink:href="#DejaVuSans-33"/>
      </g>
     </g>
    </g>
    <g id="text_15" class="text">
     <!-- Y axis -->
     <g transform="translate(14.798438 170.034281) rotate(-90) scale(0.1 -0.1)">
      <defs>
       <path id="DejaVuSans-59" d="M -13 4666 
L 666 4666 
L 1959 2747 
L 3244 4666 
L 3922 4666 
L 2272 2222 
L 2272 0 
L 1638 0 
L 1638 2222 
L -13 4666 
z
" transform="scale(0.015625)"/>
      </defs>
      <use xlink:href="#DejaVuSans-59"/>
      <use xlink:href="#DejaVuSans-20" x="61.083984"/>
      <use xlink:href="#DejaVuSans-61" x="92.871094"/>
      <use xlink:href="#DejaVuSans-78" x="154.150391"/>
      <use xlink:href="#DejaVuSans-69" x="213.330078"/>
      <use xlink:href="#DejaVuSans-73" x="241.113281"/>
     </g>
    </g>
   </g>
   <g id="patch_3">
    <path d="M 42.620313 288.430125 
L 42.620313 22.318125 
" style="fill: none; stroke: currentColor; stroke-width: 0.8; stroke-linejoin: miter; stroke-linecap: square"/>
   </g>
   <g id="patch_4">
    <path d="M 399.740313 288.430125 
L 399.740313 22.318125 
" style="fill: none; stroke: currentColor; stroke-width: 0.8; stroke-linejoin: miter; stroke-linecap: square"/>
   </g>
   <g id="patch_5">
    <path d="M 42.620313 288.430125 
L 399.740312 288.430125 
" style="fill: none; stroke: currentColor; stroke-width: 0.8; stroke-linejoin: miter; stroke-linecap: square"/>
   </g>
   <g id="patch_6">
    <path d="M 42.620313 22.318125 
L 399.740312 22.318125 
" style="fill: none; stroke: currentColor; stroke-width: 0.8; stroke-linejoin: miter; stroke-linecap: square"/>
   </g>
   <g id="text_16" class="text">
    <!-- Scatter Plot Example -->
    <g transform="translate(158.379063 16.318125) scale(0.12 -0.12)">
     <defs>
      <path id="DejaVuSans-53" d="M 3425 4513 
L 3425 3897 
Q 3066 4069 2747 4153 
Q 2428 4238 2131 4238 
Q 1616 4238 1336 4038 
Q 1056 3838 1056 3469 
Q 1056 3159 1242 3001 
Q 1428 2844 1947 2747 
L 2328 2669 
Q 3034 2534 3370 2195 
Q 3706 1856 3706 1288 
Q 3706 609 3251 259 
Q 2797 -91 1919 -91 
Q 1588 -91 1214 -16 
Q 841 59 441 206 
L 441 856 
Q 825 641 1194 531 
Q 1563 422 1919 422 
Q 2459 422 2753 634 
Q 3047 847 3047 1241 
Q 3047 1584 2836 1778 
Q 2625 1972 2144 2069 
L 1759 2144 
Q 1053 2284 737 2584 
Q 422 2884 422 3419 
Q 422 4038 858 4394 
Q 1294 4750 2059 4750 
Q 2388 4750 2728 4690 
Q 3069 4631 3425 4513 
z
" transform="scale(0.015625)"/>
      <path id="DejaVuSans-63" d="M 3122 3366 
L 3122 2828 
Q 2878 2963 2633 3030 
Q 2388 3097 2138 3097 
Q 1578 3097 1268 2742 
Q 959 2388 959 1747 
Q 959 1106 1268 751 
Q 1578 397 2138 397 
Q 2388 397 2633 464 
Q 2878 531 3122 666 
L 3122 134 
Q 2881 22 2623 -34 
Q 2366 -91 2075 -91 
Q 1284 -91 818 406 
Q 353 903 353 1747 
Q 353 2603 823 3093 
Q 1294 3584 2113 3584 
Q 2378 3584 2631 3529 
Q 2884 3475 3122 3366 
z
" transform="scale(0.015625)"/>
      <path id="DejaVuSans-74" d="M 1172 4494 
L 1172 3500 
L 2356 3500 
L 2356 3053 
L 1172 3053 
L 1172 1153 
Q 1172 725 1289 603 
Q 1406 481 1766 481 
L 2356 481 
L 2356 0 
L 1766 0 
Q 1100 0 847 248 
Q 594 497 594 1153 
L 594 3053 
L 172 3053 
L 172 3500 
L 594 3500 
L 594 4494 
L 1172 4494 
z
" transform="scale(0.015625)"/>
      <path id="DejaVuSans-65" d="M 3597 1894 
L 3597 1613 
L 953 1613 
Q 991 1019 1311 708 
Q 1631 397 2203 397 
Q 2534 397 2845 478 
Q 3156 559 3463 722 
L 3463 178 
Q 3153 47 2828 -22 
Q 2503 -91 2169 -91 
Q 1331 -91 842 396 
Q 353 884 353 1716 
Q 353 2575 817 3079 
Q 1281 3584 2069 3584 
Q 2775 3584 3186 3129 
Q 3597 2675 3597 1894 
z
M 3022 2063 
Q 3016 2534 2758 2815 
Q 2500 3097 2075 3097 
Q 1594 3097 1305 2825 
Q 1016 2553 972 2059 
L 3022 2063 
z
" transform="scale(0.015625)"/>
      <path id="DejaVuSans-72" d="M 2631 2963 
Q 2534 3019 2420 3045 
Q 2306 3072 2169 3072 
Q 1681 3072 1420 2755 
Q 1159 2438 1159 1844 
L 1159 0 
L 581 0 
L 581 3500 
L 1159 3500 
L 1159 2956 
Q 1341 3275 1631 3429 
Q 1922 3584 2338 3584 
Q 2397 3584 2469 3576 
Q 2541 3569 2628 3553 
L 2631 2963 
z
" transform="scale(0.015625)"/>
      <path id="DejaVuSans-50" d="M 1259 4147 
L 1259 2394 
L 2053 2394 
Q 2494 2394 2734 2622 
Q 2975 2850 2975 3272 
Q 2975 3691 2734 3919 
Q 2494 4147 2053 4147 
L 1259 4147 
z
M 628 4666 
L 2053 4666 
Q 2838 4666 3239 4311 
Q 3641 3956 3641 3272 
Q 3641 2581 3239 2228 
Q 2838 1875 2053 1875 
L 1259 1875 
L 1259 0 
L 628 0 
L 628 4666 
z
" transform="scale(0.015625)"/>
      <path id="DejaVuSans-6c" d="M 603 4863 
L 1178 4863 
L 1178 0 
L 603 0 
L 603 4863 
z
" transform="scale(0.015625)"/>
      <path id="DejaVuSans-6f" d="M 1959 3097 
Q 1497 3097 1228 2736 
Q 959 2375 959 1747 
Q 959 1119 1226 758 
Q 1494 397 1959 397 
Q 2419 397 2687 759 
Q 2956 1122 2956 1747 
Q 2956 2369 2687 2733 
Q 2419 3097 1959 3097 
z
M 1959 3584 
Q 2709 3584 3137 3096 
Q 3566 2609 3566 1747 
Q 3566 888 3137 398 
Q 2709 -91 1959 -91 
Q 1206 -91 779 398 
Q 353 888 353 1747 
Q 353 2609 779 3096 
Q 1206 3584 1959 3584 
z
" transform="scale(0.015625)"/>
      <path id="DejaVuSans-45" d="M 628 4666 
L 3578 4666 
L 3578 4134 
L 1259 4134 
L 1259 2753 
L 3481 2753 
L 3481 2222 
L 1259 2222 
L 1259 531 
L 3634 531 
L 3634 0 
L 628 0 
L 628 4666 
z
" transform="scale(0.015625)"/>
      <path id="DejaVuSans-6d" d="M 3328 2828 
Q 3544 3216 3844 3400 
Q 4144 3584 4550 3584 
Q 5097 3584 5394 3201 
Q 5691 2819 5691 2113 
L 5691 0 
L 5113 0 
L 5113 2094 
Q 5113 2597 4934 2840 
Q 4756 3084 4391 3084 
Q 3944 3084 3684 2787 
Q 3425 2491 3425 1978 
L 3425 0 
L 2847 0 
L 2847 2094 
Q 2847 2600 2669 2842 
Q 2491 3084 2119 3084 
Q 1678 3084 1418 2786 
Q 1159 2488 1159 1978 
L 1159 0 
L 581 0 
L 581 3500 
L 1159 3500 
L 1159 2956 
Q 1356 3278 1631 3431 
Q 1906 3584 2284 3584 
Q 2666 3584 2933 3390 
Q 3200 3197 3328 2828 
z
" transform="scale(0.015625)"/>
      <path id="DejaVuSans-70" d="M 1159 525 
L 1159 -1331 
L 581 -1331 
L 581 3500 
L 1159 3500 
L 1159 2969 
Q 1341 3281 1617 3432 
Q 1894 3584 2278 3584 
Q 2916 3584 3314 3078 
Q 3713 2572 3713 1747 
Q 3713 922 3314 415 
Q 2916 -91 2278 -91 
Q 1894 -91 1617 61 
Q 1341 213 1159 525 
z
M 3116 1747 
Q 3116 2381 2855 2742 
Q 2594 3103 2138 3103 
Q 1681 3103 1420 2742 
Q 1159 2381 1159 1747 
Q 1159 1113 1420 752 
Q 1681 391 2138 391 
Q 2594 391 2855 752 
Q 3116 1113 3116 1747 
z
" transform="scale(0.015625)"/>
     </defs>
     <use xlink:href="#DejaVuSans-53"/>
     <use xlink:href="#DejaVuSans-63" x="63.476562"/>
     <use xlink:href="#DejaVuSans-61" x="118.457031"/>
     <use xlink:href="#DejaVuSans-74" x="179.736328"/>
     <use xlink:href="#DejaVuSans-74" x="218.945312"/>
     <use xlink:href="#DejaVuSans-65" x="258.154297"/>
     <use xlink:href="#DejaVuSans-72" x="319.677734"/>
     <use xlink:href="#DejaVuSans-20" x="360.791016"/>
     <use xlink:href="#DejaVuSans-50" x="392.578125"/>
     <use xlink:href="#DejaVuSans-6c" x="452.880859"/>
     <use xlink:href="#DejaVuSans-6f" x="480.664062"/>
     <use xlink:href="#DejaVuSans-74" x="541.845703"/>
     <use xlink:href="#DejaVuSans-20" x="581.054688"/>
     <use xlink:href="#DejaVuSans-45" x="612.841797"/>
     <use xlink:href="#DejaVuSans-78" x="676.025391"/>
     <use xlink:href="#DejaVuSans-61" x="735.205078"/>
     <use xlink:href="#DejaVuSans-6d" x="796.484375"/>
     <use xlink:href="#DejaVuSans-70" x="893.896484"/>
     <use xlink:href="#DejaVuSans-6c" x="957.373047"/>
     <use xlink:href="#DejaVuSans-65" x="985.15625"/>
    </g>
   </g>
   <g class="legend">
    <g id="patch_7">
     <path d="M 49.620313 74.3525 
L 126.653125 74.3525 
Q 128.653125 74.3525 128.653125 72.3525 
L 128.653125 29.318125 
Q 128.653125 27.318125 126.653125 27.318125 
L 49.620313 27.318125 
Q 47.620313 27.318125 47.620313 29.318125 
L 47.620313 72.3525 
Q 47.620313 74.3525 49.620313 74.3525 
z
" style="fill: #ffffff; opacity: 0.8; stroke: #cccccc; stroke-linejoin: miter"/>
    </g>
    <g id="PathCollection_4">
     <g>
      <use xlink:href="#mca1f113744" x="61.620313" y="36.291562" style="fill: #ff0001; fill-opacity: 0.6; stroke: #ff0001; stroke-opacity: 0.6"/>
     </g>
    </g>
    <g id="text_17" class="text">
     <!-- Cluster 1 -->
     <g transform="translate(79.620313 38.916562) scale(0.1 -0.1)">
      <defs>
       <path id="DejaVuSans-43" d="M 4122 4306 
L 4122 3641 
Q 3803 3938 3442 4084 
Q 3081 4231 2675 4231 
Q 1875 4231 1450 3742 
Q 1025 3253 1025 2328 
Q 1025 1406 1450 917 
Q 1875 428 2675 428 
Q 3081 428 3442 575 
Q 3803 722 4122 1019 
L 4122 359 
Q 3791 134 3420 21 
Q 3050 -91 2638 -91 
Q 1578 -91 968 557 
Q 359 1206 359 2328 
Q 359 3453 968 4101 
Q 1578 4750 2638 4750 
Q 3056 4750 3426 4639 
Q 3797 4528 4122 4306 
z
" transform="scale(0.015625)"/>
       <path id="DejaVuSans-75" d="M 544 1381 
L 544 3500 
L 1119 3500 
L 1119 1403 
Q 1119 906 1312 657 
Q 1506 409 1894 409 
Q 2359 409 2629 706 
Q 2900 1003 2900 1516 
L 2900 3500 
L 3475 3500 
L 3475 0 
L 2900 0 
L 2900 538 
Q 2691 219 2414 64 
Q 2138 -91 1772 -91 
Q 1169 -91 856 284 
Q 544 659 544 1381 
z
M 1991 3584 
L 1991 3584 
z
" transform="scale(0.015625)"/>
      </defs>
      <use xlink:href="#DejaVuSans-43"/>
      <use xlink:href="#DejaVuSans-6c" x="69.824219"/>
      <use xlink:href="#DejaVuSans-75" x="97.607422"/>
      <use xlink:href="#DejaVuSans-73" x="160.986328"/>
      <use xlink:href="#DejaVuSans-74" x="213.085938"/>
      <use xlink:href="#DejaVuSans-65" x="252.294922"/>
      <use xlink:href="#DejaVuSans-72" x="313.818359"/>
      <use xlink:href="#DejaVuSans-20" x="354.931641"/>
      <use xlink:href="#DejaVuSans-31" x="386.71875"/>
     </g>
    </g>
    <g id="PathCollection_5">
     <g>
      <use xlink:href="#m25027494f2" x="61.620313" y="50.969688" style="fill: #00ff02; fill-opacity: 0.6; stroke: #00ff02; stroke-opacity: 0.6"/>
     </g>
    </g>
    <g id="text_18" class="text">
     <!-- Cluster 2 -->
     <g transform="translate(79.620313 53.594688) scale(0.1 -0.1)">
      <use xlink:href="#DejaVuSans-43"/>
      <use xlink:href="#DejaVuSans-6c" x="69.824219"/>
      <use xlink:href="#DejaVuSans-75" x="97.607422"/>
      <use xlink:href="#DejaVuSans-73" x="160.986328"/>
      <use xlink:href="#DejaVuSans-74" x="213.085938"/>
      <use xlink:href="#DejaVuSans-65" x="252.294922"/>
      <use xlink:href="#DejaVuSans-72" x="313.818359"/>
      <use xlink:href="#DejaVuSans-20" x="354.931641"/>
      <use xlink:href="#DejaVuSans-32" x="386.71875"/>
     </g>
    </g>
    <g id="PathCollection_6">
     <g>
      <use xlink:href="#mf696fe7773" x="61.620313" y="65.647812" style="fill: #0000ff; fill-opacity: 0.6; stroke: #0000ff; stroke-opacity: 0.6"/>
     </g>
    </g>
    <g id="text_19" class="text">
     <!-- Cluster 3 -->
     <g transform="translate(79.620313 68.272812) scale(0.1 -0.1)">
      <use xlink:href="#DejaVuSans-43"/>
      <use xlink:href="#DejaVuSans-6c" x="69.824219"/>
      <use xlink:href="#DejaVuSans-75" x="97.607422"/>
      <use xlink:href="#DejaVuSans-73" x="160.986328"/>
      <use xlink:href="#DejaVuSans-74" x="213.085938"/>
      <use xlink:href="#DejaVuSans-65" x="252.294922"/>
      <use xlink:href="#DejaVuSans-72" x="313.818359"/>
      <use xlink:href="#DejaVuSans-20" x="354.931641"/>
      <use xlink:href="#DejaVuSans-33" x="386.71875"/>
     </g>
    </g>
   </g>
  </g>
 </g>
 <defs>
  <clipPath id="p0e139d87ec">
   <rect x="42.620313" y="22.318125" width="357.12" height="266.112"/>
  </clipPath>
 </defs>
</svg>
