<?xml version="1.0" encoding="utf-8" standalone="no"?>
<!DOCTYPE svg PUBLIC "-//W3C//DTD SVG 1.1//EN"
  "http://www.w3.org/Graphics/SVG/1.1/DTD/svg11.dtd">
<svg xmlns:xlink="http://www.w3.org/1999/xlink" width="422.843437pt" height="325.986375pt" viewBox="0 0 422.843437 325.986375" xmlns="http://www.w3.org/2000/svg" version="1.1"><defs>
            <style>
                /* Light mode colors */
                :root {
                    --primary-color: #d62728;
--secondary-color: #2ca02c;
--tertiary-color: #1f77b4;
--quaternary-color: #9467bd;
--quinary-color: #8c564b;
--senary-color: #e377c2;
--septenary-color: #7f7f7f;
--octonary-color: #bcbd22;
                }
                /* Dark mode colors */
                .dark {
                    --primary-color: #FF4A98;
--secondary-color: #0AFAFA;
--tertiary-color: #7F83FF;
--quaternary-color: #B4A0FF;
--quinary-color: #FFB86B;
--senary-color: #FF79C6;
--septenary-color: #CCCCCC;
--octonary-color: #E6DB74;
                }
                /* Color classes */
                .c1 { fill: var(--primary-color) !important; }
.c2 { fill: var(--secondary-color) !important; }
.c3 { fill: var(--tertiary-color) !important; }
.c4 { fill: var(--quaternary-color) !important; }
.c5 { fill: var(--quinary-color) !important; }
.c6 { fill: var(--senary-color) !important; }
.c7 { fill: var(--septenary-color) !important; }
.c8 { fill: var(--octonary-color) !important; }
                /* Make all text inherit color */
                text, .text {
                    fill: currentColor !important;
                    stroke: none !important;
                }
                /* Make all lines inherit color */
                .axis line, .axis path {
                    stroke: currentColor !important;
                }
                /* Special handling for legend */
                .legend text {
                    fill: currentColor !important;
                }
                /* Make all default black strokes use currentColor */
                [stroke="currentColor"] {
                    stroke: currentColor !important;
                }
            </style>
        </defs>
 <metadata>
  <rdf:RDF xmlns:dc="http://purl.org/dc/elements/1.1/" xmlns:cc="http://creativecommons.org/ns#" xmlns:rdf="http://www.w3.org/1999/02/22-rdf-syntax-ns#">
   <cc:Work>
    <dc:type rdf:resource="http://purl.org/dc/dcmitype/StillImage"/>
    <dc:date>2024-12-23T13:02:57.966220</dc:date>
    <dc:format>image/svg+xml</dc:format>
    <dc:creator>
     <cc:Agent>
      <dc:title>Matplotlib v3.8.3, https://matplotlib.org/</dc:title>
     </cc:Agent>
    </dc:creator>
   </cc:Work>
  </rdf:RDF>
 </metadata>
 <defs>
  <style type="text/css">*{stroke-linejoin: round; stroke-linecap: butt}</style>
 </defs>
 <g id="figure_1">
  <g id="patch_1">
   <path d="M 0 325.986375 
L 422.843437 325.986375 
L 422.843437 0 
L 0 0 
L 0 325.986375 
z
" style="fill: none"/>
  </g>
  <g id="axes_1">
   <g id="patch_2">
    <path d="M 58.523438 288.430125 
L 415.643438 288.430125 
L 415.643438 22.318125 
L 58.523438 22.318125 
L 58.523438 288.430125 
z
" style="fill: none"/>
   </g>
   <g class="axis">
    <g id="xtick_1">
     <g id="line2d_1">
      <defs>
       <path id="m7ce8d90375" d="M 0 0 
L 0 3.5 
" style="stroke: currentColor; stroke-width: 0.8"/>
      </defs>
      <g>
       <use xlink:href="#m7ce8d90375" x="74.756165" y="288.430125" style="stroke: currentColor; stroke-width: 0.8"/>
      </g>
     </g>
     <g id="text_1" class="text">
      <!-- 0 -->
      <g transform="translate(71.574915 303.028562) scale(0.1 -0.1)">
       <defs>
        <path id="DejaVuSans-30" d="M 2034 4250 
Q 1547 4250 1301 3770 
Q 1056 3291 1056 2328 
Q 1056 1369 1301 889 
Q 1547 409 2034 409 
Q 2525 409 2770 889 
Q 3016 1369 3016 2328 
Q 3016 3291 2770 3770 
Q 2525 4250 2034 4250 
z
M 2034 4750 
Q 2819 4750 3233 4129 
Q 3647 3509 3647 2328 
Q 3647 1150 3233 529 
Q 2819 -91 2034 -91 
Q 1250 -91 836 529 
Q 422 1150 422 2328 
Q 422 3509 836 4129 
Q 1250 4750 2034 4750 
z
" transform="scale(0.015625)"/>
       </defs>
       <use xlink:href="#DejaVuSans-30"/>
      </g>
     </g>
    </g>
    <g id="xtick_2">
     <g id="line2d_2">
      <g>
       <use xlink:href="#m7ce8d90375" x="139.687074" y="288.430125" style="stroke: currentColor; stroke-width: 0.8"/>
      </g>
     </g>
     <g id="text_2" class="text">
      <!-- 2 -->
      <g transform="translate(136.505824 303.028562) scale(0.1 -0.1)">
       <defs>
        <path id="DejaVuSans-32" d="M 1228 531 
L 3431 531 
L 3431 0 
L 469 0 
L 469 531 
Q 828 903 1448 1529 
Q 2069 2156 2228 2338 
Q 2531 2678 2651 2914 
Q 2772 3150 2772 3378 
Q 2772 3750 2511 3984 
Q 2250 4219 1831 4219 
Q 1534 4219 1204 4116 
Q 875 4013 500 3803 
L 500 4441 
Q 881 4594 1212 4672 
Q 1544 4750 1819 4750 
Q 2544 4750 2975 4387 
Q 3406 4025 3406 3419 
Q 3406 3131 3298 2873 
Q 3191 2616 2906 2266 
Q 2828 2175 2409 1742 
Q 1991 1309 1228 531 
z
" transform="scale(0.015625)"/>
       </defs>
       <use xlink:href="#DejaVuSans-32"/>
      </g>
     </g>
    </g>
    <g id="xtick_3">
     <g id="line2d_3">
      <g>
       <use xlink:href="#m7ce8d90375" x="204.617983" y="288.430125" style="stroke: currentColor; stroke-width: 0.8"/>
      </g>
     </g>
     <g id="text_3" class="text">
      <!-- 4 -->
      <g transform="translate(201.436733 303.028562) scale(0.1 -0.1)">
       <defs>
        <path id="DejaVuSans-34" d="M 2419 4116 
L 825 1625 
L 2419 1625 
L 2419 4116 
z
M 2253 4666 
L 3047 4666 
L 3047 1625 
L 3713 1625 
L 3713 1100 
L 3047 1100 
L 3047 0 
L 2419 0 
L 2419 1100 
L 313 1100 
L 313 1709 
L 2253 4666 
z
" transform="scale(0.015625)"/>
       </defs>
       <use xlink:href="#DejaVuSans-34"/>
      </g>
     </g>
    </g>
    <g id="xtick_4">
     <g id="line2d_4">
      <g>
       <use xlink:href="#m7ce8d90375" x="269.548892" y="288.430125" style="stroke: currentColor; stroke-width: 0.8"/>
      </g>
     </g>
     <g id="text_4" class="text">
      <!-- 6 -->
      <g transform="translate(266.367642 303.028562) scale(0.1 -0.1)">
       <defs>
        <path id="DejaVuSans-36" d="M 2113 2584 
Q 1688 2584 1439 2293 
Q 1191 2003 1191 1497 
Q 1191 994 1439 701 
Q 1688 409 2113 409 
Q 2538 409 2786 701 
Q 3034 994 3034 1497 
Q 3034 2003 2786 2293 
Q 2538 2584 2113 2584 
z
M 3366 4563 
L 3366 3988 
Q 3128 4100 2886 4159 
Q 2644 4219 2406 4219 
Q 1781 4219 1451 3797 
Q 1122 3375 1075 2522 
Q 1259 2794 1537 2939 
Q 1816 3084 2150 3084 
Q 2853 3084 3261 2657 
Q 3669 2231 3669 1497 
Q 3669 778 3244 343 
Q 2819 -91 2113 -91 
Q 1303 -91 875 529 
Q 447 1150 447 2328 
Q 447 3434 972 4092 
Q 1497 4750 2381 4750 
Q 2619 4750 2861 4703 
Q 3103 4656 3366 4563 
z
" transform="scale(0.015625)"/>
       </defs>
       <use xlink:href="#DejaVuSans-36"/>
      </g>
     </g>
    </g>
    <g id="xtick_5">
     <g id="line2d_5">
      <g>
       <use xlink:href="#m7ce8d90375" x="334.479801" y="288.430125" style="stroke: currentColor; stroke-width: 0.8"/>
      </g>
     </g>
     <g id="text_5" class="text">
      <!-- 8 -->
      <g transform="translate(331.298551 303.028562) scale(0.1 -0.1)">
       <defs>
        <path id="DejaVuSans-38" d="M 2034 2216 
Q 1584 2216 1326 1975 
Q 1069 1734 1069 1313 
Q 1069 891 1326 650 
Q 1584 409 2034 409 
Q 2484 409 2743 651 
Q 3003 894 3003 1313 
Q 3003 1734 2745 1975 
Q 2488 2216 2034 2216 
z
M 1403 2484 
Q 997 2584 770 2862 
Q 544 3141 544 3541 
Q 544 4100 942 4425 
Q 1341 4750 2034 4750 
Q 2731 4750 3128 4425 
Q 3525 4100 3525 3541 
Q 3525 3141 3298 2862 
Q 3072 2584 2669 2484 
Q 3125 2378 3379 2068 
Q 3634 1759 3634 1313 
Q 3634 634 3220 271 
Q 2806 -91 2034 -91 
Q 1263 -91 848 271 
Q 434 634 434 1313 
Q 434 1759 690 2068 
Q 947 2378 1403 2484 
z
M 1172 3481 
Q 1172 3119 1398 2916 
Q 1625 2713 2034 2713 
Q 2441 2713 2670 2916 
Q 2900 3119 2900 3481 
Q 2900 3844 2670 4047 
Q 2441 4250 2034 4250 
Q 1625 4250 1398 4047 
Q 1172 3844 1172 3481 
z
" transform="scale(0.015625)"/>
       </defs>
       <use xlink:href="#DejaVuSans-38"/>
      </g>
     </g>
    </g>
    <g id="xtick_6">
     <g id="line2d_6">
      <g>
       <use xlink:href="#m7ce8d90375" x="399.41071" y="288.430125" style="stroke: currentColor; stroke-width: 0.8"/>
      </g>
     </g>
     <g id="text_6" class="text">
      <!-- 10 -->
      <g transform="translate(393.04821 303.028562) scale(0.1 -0.1)">
       <defs>
        <path id="DejaVuSans-31" d="M 794 531 
L 1825 531 
L 1825 4091 
L 703 3866 
L 703 4441 
L 1819 4666 
L 2450 4666 
L 2450 531 
L 3481 531 
L 3481 0 
L 794 0 
L 794 531 
z
" transform="scale(0.015625)"/>
       </defs>
       <use xlink:href="#DejaVuSans-31"/>
       <use xlink:href="#DejaVuSans-30" x="63.623047"/>
      </g>
     </g>
    </g>
    <g id="text_7" class="text">
     <!-- x -->
     <g transform="translate(234.124063 316.706687) scale(0.1 -0.1)">
      <defs>
       <path id="DejaVuSans-78" d="M 3513 3500 
L 2247 1797 
L 3578 0 
L 2900 0 
L 1881 1375 
L 863 0 
L 184 0 
L 1544 1831 
L 300 3500 
L 978 3500 
L 1906 2253 
L 2834 3500 
L 3513 3500 
z
" transform="scale(0.015625)"/>
      </defs>
      <use xlink:href="#DejaVuSans-78"/>
     </g>
    </g>
   </g>
   <g class="axis">
    <g id="ytick_1">
     <g id="line2d_7">
      <defs>
       <path id="m2c0fa8745f" d="M 0 0 
L -3.5 0 
" style="stroke: currentColor; stroke-width: 0.8"/>
      </defs>
      <g>
       <use xlink:href="#m2c0fa8745f" x="58.523438" y="276.340516" style="stroke: currentColor; stroke-width: 0.8"/>
      </g>
     </g>
     <g id="text_8" class="text">
      <!-- −1.00 -->
      <g transform="translate(20.878125 280.139735) scale(0.1 -0.1)">
       <defs>
        <path id="DejaVuSans-2212" d="M 678 2272 
L 4684 2272 
L 4684 1741 
L 678 1741 
L 678 2272 
z
" transform="scale(0.015625)"/>
        <path id="DejaVuSans-2e" d="M 684 794 
L 1344 794 
L 1344 0 
L 684 0 
L 684 794 
z
" transform="scale(0.015625)"/>
       </defs>
       <use xlink:href="#DejaVuSans-2212"/>
       <use xlink:href="#DejaVuSans-31" x="83.789062"/>
       <use xlink:href="#DejaVuSans-2e" x="147.412109"/>
       <use xlink:href="#DejaVuSans-30" x="179.199219"/>
       <use xlink:href="#DejaVuSans-30" x="242.822266"/>
      </g>
     </g>
    </g>
    <g id="ytick_2">
     <g id="line2d_8">
      <g>
       <use xlink:href="#m2c0fa8745f" x="58.523438" y="246.099717" style="stroke: currentColor; stroke-width: 0.8"/>
      </g>
     </g>
     <g id="text_9" class="text">
      <!-- −0.75 -->
      <g transform="translate(20.878125 249.898936) scale(0.1 -0.1)">
       <defs>
        <path id="DejaVuSans-37" d="M 525 4666 
L 3525 4666 
L 3525 4397 
L 1831 0 
L 1172 0 
L 2766 4134 
L 525 4134 
L 525 4666 
z
" transform="scale(0.015625)"/>
        <path id="DejaVuSans-35" d="M 691 4666 
L 3169 4666 
L 3169 4134 
L 1269 4134 
L 1269 2991 
Q 1406 3038 1543 3061 
Q 1681 3084 1819 3084 
Q 2600 3084 3056 2656 
Q 3513 2228 3513 1497 
Q 3513 744 3044 326 
Q 2575 -91 1722 -91 
Q 1428 -91 1123 -41 
Q 819 9 494 109 
L 494 744 
Q 775 591 1075 516 
Q 1375 441 1709 441 
Q 2250 441 2565 725 
Q 2881 1009 2881 1497 
Q 2881 1984 2565 2268 
Q 2250 2553 1709 2553 
Q 1456 2553 1204 2497 
Q 953 2441 691 2322 
L 691 4666 
z
" transform="scale(0.015625)"/>
       </defs>
       <use xlink:href="#DejaVuSans-2212"/>
       <use xlink:href="#DejaVuSans-30" x="83.789062"/>
       <use xlink:href="#DejaVuSans-2e" x="147.412109"/>
       <use xlink:href="#DejaVuSans-37" x="179.199219"/>
       <use xlink:href="#DejaVuSans-35" x="242.822266"/>
      </g>
     </g>
    </g>
    <g id="ytick_3">
     <g id="line2d_9">
      <g>
       <use xlink:href="#m2c0fa8745f" x="58.523438" y="215.858918" style="stroke: currentColor; stroke-width: 0.8"/>
      </g>
     </g>
     <g id="text_10" class="text">
      <!-- −0.50 -->
      <g transform="translate(20.878125 219.658137) scale(0.1 -0.1)">
       <use xlink:href="#DejaVuSans-2212"/>
       <use xlink:href="#DejaVuSans-30" x="83.789062"/>
       <use xlink:href="#DejaVuSans-2e" x="147.412109"/>
       <use xlink:href="#DejaVuSans-35" x="179.199219"/>
       <use xlink:href="#DejaVuSans-30" x="242.822266"/>
      </g>
     </g>
    </g>
    <g id="ytick_4">
     <g id="line2d_10">
      <g>
       <use xlink:href="#m2c0fa8745f" x="58.523438" y="185.618119" style="stroke: currentColor; stroke-width: 0.8"/>
      </g>
     </g>
     <g id="text_11" class="text">
      <!-- −0.25 -->
      <g transform="translate(20.878125 189.417338) scale(0.1 -0.1)">
       <use xlink:href="#DejaVuSans-2212"/>
       <use xlink:href="#DejaVuSans-30" x="83.789062"/>
       <use xlink:href="#DejaVuSans-2e" x="147.412109"/>
       <use xlink:href="#DejaVuSans-32" x="179.199219"/>
       <use xlink:href="#DejaVuSans-35" x="242.822266"/>
      </g>
     </g>
    </g>
    <g id="ytick_5">
     <g id="line2d_11">
      <g>
       <use xlink:href="#m2c0fa8745f" x="58.523438" y="155.37732" style="stroke: currentColor; stroke-width: 0.8"/>
      </g>
     </g>
     <g id="text_12" class="text">
      <!-- 0.00 -->
      <g transform="translate(29.257813 159.176539) scale(0.1 -0.1)">
       <use xlink:href="#DejaVuSans-30"/>
       <use xlink:href="#DejaVuSans-2e" x="63.623047"/>
       <use xlink:href="#DejaVuSans-30" x="95.410156"/>
       <use xlink:href="#DejaVuSans-30" x="159.033203"/>
      </g>
     </g>
    </g>
    <g id="ytick_6">
     <g id="line2d_12">
      <g>
       <use xlink:href="#m2c0fa8745f" x="58.523438" y="125.136522" style="stroke: currentColor; stroke-width: 0.8"/>
      </g>
     </g>
     <g id="text_13" class="text">
      <!-- 0.25 -->
      <g transform="translate(29.257813 128.93574) scale(0.1 -0.1)">
       <use xlink:href="#DejaVuSans-30"/>
       <use xlink:href="#DejaVuSans-2e" x="63.623047"/>
       <use xlink:href="#DejaVuSans-32" x="95.410156"/>
       <use xlink:href="#DejaVuSans-35" x="159.033203"/>
      </g>
     </g>
    </g>
    <g id="ytick_7">
     <g id="line2d_13">
      <g>
       <use xlink:href="#m2c0fa8745f" x="58.523438" y="94.895723" style="stroke: currentColor; stroke-width: 0.8"/>
      </g>
     </g>
     <g id="text_14" class="text">
      <!-- 0.50 -->
      <g transform="translate(29.257813 98.694941) scale(0.1 -0.1)">
       <use xlink:href="#DejaVuSans-30"/>
       <use xlink:href="#DejaVuSans-2e" x="63.623047"/>
       <use xlink:href="#DejaVuSans-35" x="95.410156"/>
       <use xlink:href="#DejaVuSans-30" x="159.033203"/>
      </g>
     </g>
    </g>
    <g id="ytick_8">
     <g id="line2d_14">
      <g>
       <use xlink:href="#m2c0fa8745f" x="58.523438" y="64.654924" style="stroke: currentColor; stroke-width: 0.8"/>
      </g>
     </g>
     <g id="text_15" class="text">
      <!-- 0.75 -->
      <g transform="translate(29.257813 68.454143) scale(0.1 -0.1)">
       <use xlink:href="#DejaVuSans-30"/>
       <use xlink:href="#DejaVuSans-2e" x="63.623047"/>
       <use xlink:href="#DejaVuSans-37" x="95.410156"/>
       <use xlink:href="#DejaVuSans-35" x="159.033203"/>
      </g>
     </g>
    </g>
    <g id="ytick_9">
     <g id="line2d_15">
      <g>
       <use xlink:href="#m2c0fa8745f" x="58.523438" y="34.414125" style="stroke: currentColor; stroke-width: 0.8"/>
      </g>
     </g>
     <g id="text_16" class="text">
      <!-- 1.00 -->
      <g transform="translate(29.257813 38.213344) scale(0.1 -0.1)">
       <use xlink:href="#DejaVuSans-31"/>
       <use xlink:href="#DejaVuSans-2e" x="63.623047"/>
       <use xlink:href="#DejaVuSans-30" x="95.410156"/>
       <use xlink:href="#DejaVuSans-30" x="159.033203"/>
      </g>
     </g>
    </g>
    <g id="text_17" class="text">
     <!-- y -->
     <g transform="translate(14.798438 158.3335) rotate(-90) scale(0.1 -0.1)">
      <defs>
       <path id="DejaVuSans-79" d="M 2059 -325 
Q 1816 -950 1584 -1140 
Q 1353 -1331 966 -1331 
L 506 -1331 
L 506 -850 
L 844 -850 
Q 1081 -850 1212 -737 
Q 1344 -625 1503 -206 
L 1606 56 
L 191 3500 
L 800 3500 
L 1894 763 
L 2988 3500 
L 3597 3500 
L 2059 -325 
z
" transform="scale(0.015625)"/>
      </defs>
      <use xlink:href="#DejaVuSans-79"/>
     </g>
    </g>
   </g>
   <g id="line2d_16">
    <path d="M 74.756165 155.37732 
L 78.035504 143.179583 
L 81.314842 131.106194 
L 84.594181 119.280233 
L 87.87352 107.82226 
L 91.152859 96.84908 
L 94.432198 86.472559 
L 97.711537 76.798478 
L 100.990876 67.925459 
L 104.270214 59.943956 
L 107.549553 52.935336 
L 110.828892 46.971048 
L 114.108231 42.111893 
L 117.38757 38.407408 
L 120.666909 35.895357 
L 123.946247 34.601349 
L 127.225586 34.538575 
L 130.504925 35.707677 
L 133.784264 38.096735 
L 137.063603 41.681394 
L 140.342942 46.425112 
L 143.62228 52.279528 
L 146.901619 59.184961 
L 150.180958 67.071015 
L 153.460297 75.857296 
L 156.739636 85.454233 
L 160.018975 95.763991 
L 163.298314 106.68147 
L 166.577652 118.095373 
L 169.856991 129.889341 
L 173.13633 141.943143 
L 176.415669 154.133899 
L 179.695008 166.33733 
L 182.974347 178.42903 
L 186.253685 190.285733 
L 189.533024 201.786567 
L 192.812363 212.814288 
L 196.091702 223.256475 
L 199.371041 233.006677 
L 202.65038 241.965497 
L 205.929718 250.041606 
L 209.209057 257.152671 
L 212.488396 263.226201 
L 215.767735 268.20028 
L 219.047074 272.0242 
L 222.326413 274.658979 
L 225.605752 276.077757 
L 228.88509 276.26607 
L 232.164429 275.221999 
L 235.443768 272.956186 
L 238.723107 269.491732 
L 242.002446 264.863953 
L 245.281785 259.120027 
L 248.561123 252.31851 
L 251.840462 244.528739 
L 255.119801 235.830125 
L 258.39914 226.311346 
L 261.678479 216.069439 
L 264.957818 205.208814 
L 268.237157 193.840189 
L 271.516495 182.079459 
L 274.795834 170.046518 
L 278.075173 157.864033 
L 281.354512 145.656198 
L 284.633851 133.547464 
L 287.91319 121.661271 
L 291.192528 110.118792 
L 294.471867 99.037695 
L 297.751206 88.530945 
L 301.030545 78.705652 
L 304.309884 69.661978 
L 307.589223 61.492118 
L 310.868561 54.279358 
L 314.1479 48.097227 
L 317.427239 43.00875 
L 320.706578 39.065799 
L 323.985917 36.308571 
L 327.265256 34.765173 
L 330.544595 34.45134 
L 333.823933 35.370271 
L 337.103272 37.512599 
L 340.382611 40.856482 
L 343.66195 45.367833 
L 346.941289 51.000661 
L 350.220628 57.697544 
L 353.499966 65.39021 
L 356.779305 74.000238 
L 360.058644 83.439853 
L 363.337983 93.612826 
L 366.617322 104.415449 
L 369.896661 115.737596 
L 373.175999 127.463844 
L 376.455338 139.474653 
L 379.734677 151.64758 
L 383.014016 163.858529 
L 386.293355 175.983018 
L 389.572694 187.897444 
L 392.852033 199.480348 
L 396.131371 210.61365 
L 399.41071 221.183852 
" clip-path="url(#pa0284641ff)" style="fill: none; stroke: #ff0001; stroke-width: 1.5; stroke-linecap: square"/>
   </g>
   <g id="line2d_17">
    <path d="M 74.756165 34.414125 
L 78.035504 35.030697 
L 81.314842 36.874126 
L 84.594181 39.925621 
L 87.87352 44.154073 
L 91.152859 49.516375 
L 94.432198 55.957863 
L 97.711537 63.41287 
L 100.990876 71.805396 
L 104.270214 81.049885 
L 107.549553 91.052095 
L 110.828892 101.710061 
L 114.108231 112.91513 
L 117.38757 124.553074 
L 120.666909 136.505252 
L 123.946247 148.649819 
L 127.225586 160.862969 
L 130.504925 173.020196 
L 133.784264 184.997564 
L 137.063603 196.672974 
L 140.342942 207.9274 
L 143.62228 218.646111 
L 146.901619 228.719837 
L 150.180958 238.045882 
L 153.460297 246.529173 
L 156.739636 254.083229 
L 160.018975 260.631041 
L 163.298314 266.105857 
L 166.577652 270.451866 
L 169.856991 273.624763 
L 173.13633 275.592201 
L 176.415669 276.334125 
L 179.695008 275.842971 
L 182.974347 274.123745 
L 186.253685 271.193975 
L 189.533024 267.083527 
L 192.812363 261.834304 
L 196.091702 255.49982 
L 199.371041 248.144651 
L 202.65038 239.843777 
L 205.929718 230.681821 
L 209.209057 220.752183 
L 212.488396 210.15609 
L 215.767735 199.001562 
L 219.047074 187.402312 
L 222.326413 175.476587 
L 225.605752 163.345964 
L 228.88509 151.134105 
L 232.164429 138.965503 
L 235.443768 126.964209 
L 238.723107 115.252568 
L 242.002446 103.949975 
L 245.281785 93.17165 
L 248.561123 83.027473 
L 251.840462 73.620857 
L 255.119801 65.047697 
L 258.39914 57.39539 
L 261.678479 50.741947 
L 264.957818 45.155195 
L 268.237157 40.692089 
L 271.516495 37.398125 
L 274.795834 35.306886 
L 278.075173 34.439688 
L 281.354512 34.805373 
L 284.633851 36.400213 
L 287.91319 39.20795 
L 291.192528 43.19996 
L 294.471867 48.335547 
L 297.751206 54.562357 
L 301.030545 61.816913 
L 304.309884 70.025257 
L 307.589223 79.103712 
L 310.868561 88.959728 
L 314.1479 99.49283 
L 317.427239 110.595639 
L 320.706578 122.154968 
L 323.985917 134.052979 
L 327.265256 146.168377 
L 330.544595 158.377655 
L 333.823933 170.556347 
L 337.103272 182.580298 
L 340.382611 194.326932 
L 343.66195 205.676499 
L 346.941289 216.513298 
L 350.220628 226.726854 
L 353.499966 236.213046 
L 356.779305 244.87517 
L 360.058644 252.624919 
L 363.337983 259.383291 
L 366.617322 265.081387 
L 369.896661 269.66112 
L 373.175999 273.075802 
L 376.455338 275.290622 
L 379.734677 276.283001 
L 383.014016 276.042824 
L 386.293355 274.572538 
L 389.572694 271.887132 
L 392.852033 268.013982 
L 396.131371 262.992573 
L 399.41071 256.874094 
" clip-path="url(#pa0284641ff)" style="fill: none; stroke: #00ff02; stroke-width: 1.5; stroke-linecap: square"/>
   </g>
   <g id="line2d_18">
    <path d="M 74.756165 155.37732 
L 78.035504 167.575058 
L 81.314842 179.648447 
L 84.594181 191.474408 
L 87.87352 202.932381 
L 91.152859 213.905561 
L 94.432198 224.282082 
L 97.711537 233.956163 
L 100.990876 242.829182 
L 104.270214 250.810685 
L 107.549553 257.819304 
L 110.828892 263.783593 
L 114.108231 268.642748 
L 117.38757 272.347233 
L 120.666909 274.859284 
L 123.946247 276.153292 
L 127.225586 276.216066 
L 130.504925 275.046964 
L 133.784264 272.657906 
L 137.063603 269.073247 
L 140.342942 264.329529 
L 143.62228 258.475113 
L 146.901619 251.56968 
L 150.180958 243.683626 
L 153.460297 234.897345 
L 156.739636 225.300408 
L 160.018975 214.99065 
L 163.298314 204.073171 
L 166.577652 192.659268 
L 169.856991 180.8653 
L 173.13633 168.811498 
L 176.415669 156.620742 
L 179.695008 144.417311 
L 182.974347 132.325611 
L 186.253685 120.468908 
L 189.533024 108.968074 
L 192.812363 97.940353 
L 196.091702 87.498166 
L 199.371041 77.747963 
L 202.65038 68.789144 
L 205.929718 60.713035 
L 209.209057 53.60197 
L 212.488396 47.52844 
L 215.767735 42.554361 
L 219.047074 38.730441 
L 222.326413 36.095662 
L 225.605752 34.676884 
L 228.88509 34.488571 
L 232.164429 35.532642 
L 235.443768 37.798454 
L 238.723107 41.262909 
L 242.002446 45.890688 
L 245.281785 51.634614 
L 248.561123 58.436131 
L 251.840462 66.225902 
L 255.119801 74.924516 
L 258.39914 84.443295 
L 261.678479 94.685202 
L 264.957818 105.545827 
L 268.237157 116.914452 
L 271.516495 128.675182 
L 274.795834 140.708123 
L 278.075173 152.890608 
L 281.354512 165.098443 
L 284.633851 177.207177 
L 287.91319 189.09337 
L 291.192528 200.635849 
L 294.471867 211.716946 
L 297.751206 222.223696 
L 301.030545 232.048989 
L 304.309884 241.092663 
L 307.589223 249.262523 
L 310.868561 256.475283 
L 314.1479 262.657414 
L 317.427239 267.745891 
L 320.706578 271.688842 
L 323.985917 274.44607 
L 327.265256 275.989468 
L 330.544595 276.303301 
L 333.823933 275.384369 
L 337.103272 273.242042 
L 340.382611 269.898159 
L 343.66195 265.386808 
L 346.941289 259.75398 
L 350.220628 253.057097 
L 353.499966 245.364431 
L 356.779305 236.754403 
L 360.058644 227.314788 
L 363.337983 217.141815 
L 366.617322 206.339192 
L 369.896661 195.017045 
L 373.175999 183.290797 
L 376.455338 171.279988 
L 379.734677 159.107061 
L 383.014016 146.896112 
L 386.293355 134.771623 
L 389.572694 122.857197 
L 392.852033 111.274293 
L 396.131371 100.140991 
L 399.41071 89.570788 
" clip-path="url(#pa0284641ff)" style="fill: none; stroke: #0000ff; stroke-width: 1.5; stroke-linecap: square"/>
   </g>
   <g id="patch_3">
    <path d="M 58.523438 288.430125 
L 58.523438 22.318125 
" style="fill: none; stroke: currentColor; stroke-width: 0.8; stroke-linejoin: miter; stroke-linecap: square"/>
   </g>
   <g id="patch_4">
    <path d="M 415.643438 288.430125 
L 415.643438 22.318125 
" style="fill: none; stroke: currentColor; stroke-width: 0.8; stroke-linejoin: miter; stroke-linecap: square"/>
   </g>
   <g id="patch_5">
    <path d="M 58.523438 288.430125 
L 415.643438 288.430125 
" style="fill: none; stroke: currentColor; stroke-width: 0.8; stroke-linejoin: miter; stroke-linecap: square"/>
   </g>
   <g id="patch_6">
    <path d="M 58.523438 22.318125 
L 415.643438 22.318125 
" style="fill: none; stroke: currentColor; stroke-width: 0.8; stroke-linejoin: miter; stroke-linecap: square"/>
   </g>
   <g id="text_18" class="text">
    <!-- Trigonometric Functions -->
    <g transform="translate(165.345 16.318125) scale(0.12 -0.12)">
     <defs>
      <path id="DejaVuSans-54" d="M -19 4666 
L 3928 4666 
L 3928 4134 
L 2272 4134 
L 2272 0 
L 1638 0 
L 1638 4134 
L -19 4134 
L -19 4666 
z
" transform="scale(0.015625)"/>
      <path id="DejaVuSans-72" d="M 2631 2963 
Q 2534 3019 2420 3045 
Q 2306 3072 2169 3072 
Q 1681 3072 1420 2755 
Q 1159 2438 1159 1844 
L 1159 0 
L 581 0 
L 581 3500 
L 1159 3500 
L 1159 2956 
Q 1341 3275 1631 3429 
Q 1922 3584 2338 3584 
Q 2397 3584 2469 3576 
Q 2541 3569 2628 3553 
L 2631 2963 
z
" transform="scale(0.015625)"/>
      <path id="DejaVuSans-69" d="M 603 3500 
L 1178 3500 
L 1178 0 
L 603 0 
L 603 3500 
z
M 603 4863 
L 1178 4863 
L 1178 4134 
L 603 4134 
L 603 4863 
z
" transform="scale(0.015625)"/>
      <path id="DejaVuSans-67" d="M 2906 1791 
Q 2906 2416 2648 2759 
Q 2391 3103 1925 3103 
Q 1463 3103 1205 2759 
Q 947 2416 947 1791 
Q 947 1169 1205 825 
Q 1463 481 1925 481 
Q 2391 481 2648 825 
Q 2906 1169 2906 1791 
z
M 3481 434 
Q 3481 -459 3084 -895 
Q 2688 -1331 1869 -1331 
Q 1566 -1331 1297 -1286 
Q 1028 -1241 775 -1147 
L 775 -588 
Q 1028 -725 1275 -790 
Q 1522 -856 1778 -856 
Q 2344 -856 2625 -561 
Q 2906 -266 2906 331 
L 2906 616 
Q 2728 306 2450 153 
Q 2172 0 1784 0 
Q 1141 0 747 490 
Q 353 981 353 1791 
Q 353 2603 747 3093 
Q 1141 3584 1784 3584 
Q 2172 3584 2450 3431 
Q 2728 3278 2906 2969 
L 2906 3500 
L 3481 3500 
L 3481 434 
z
" transform="scale(0.015625)"/>
      <path id="DejaVuSans-6f" d="M 1959 3097 
Q 1497 3097 1228 2736 
Q 959 2375 959 1747 
Q 959 1119 1226 758 
Q 1494 397 1959 397 
Q 2419 397 2687 759 
Q 2956 1122 2956 1747 
Q 2956 2369 2687 2733 
Q 2419 3097 1959 3097 
z
M 1959 3584 
Q 2709 3584 3137 3096 
Q 3566 2609 3566 1747 
Q 3566 888 3137 398 
Q 2709 -91 1959 -91 
Q 1206 -91 779 398 
Q 353 888 353 1747 
Q 353 2609 779 3096 
Q 1206 3584 1959 3584 
z
" transform="scale(0.015625)"/>
      <path id="DejaVuSans-6e" d="M 3513 2113 
L 3513 0 
L 2938 0 
L 2938 2094 
Q 2938 2591 2744 2837 
Q 2550 3084 2163 3084 
Q 1697 3084 1428 2787 
Q 1159 2491 1159 1978 
L 1159 0 
L 581 0 
L 581 3500 
L 1159 3500 
L 1159 2956 
Q 1366 3272 1645 3428 
Q 1925 3584 2291 3584 
Q 2894 3584 3203 3211 
Q 3513 2838 3513 2113 
z
" transform="scale(0.015625)"/>
      <path id="DejaVuSans-6d" d="M 3328 2828 
Q 3544 3216 3844 3400 
Q 4144 3584 4550 3584 
Q 5097 3584 5394 3201 
Q 5691 2819 5691 2113 
L 5691 0 
L 5113 0 
L 5113 2094 
Q 5113 2597 4934 2840 
Q 4756 3084 4391 3084 
Q 3944 3084 3684 2787 
Q 3425 2491 3425 1978 
L 3425 0 
L 2847 0 
L 2847 2094 
Q 2847 2600 2669 2842 
Q 2491 3084 2119 3084 
Q 1678 3084 1418 2786 
Q 1159 2488 1159 1978 
L 1159 0 
L 581 0 
L 581 3500 
L 1159 3500 
L 1159 2956 
Q 1356 3278 1631 3431 
Q 1906 3584 2284 3584 
Q 2666 3584 2933 3390 
Q 3200 3197 3328 2828 
z
" transform="scale(0.015625)"/>
      <path id="DejaVuSans-65" d="M 3597 1894 
L 3597 1613 
L 953 1613 
Q 991 1019 1311 708 
Q 1631 397 2203 397 
Q 2534 397 2845 478 
Q 3156 559 3463 722 
L 3463 178 
Q 3153 47 2828 -22 
Q 2503 -91 2169 -91 
Q 1331 -91 842 396 
Q 353 884 353 1716 
Q 353 2575 817 3079 
Q 1281 3584 2069 3584 
Q 2775 3584 3186 3129 
Q 3597 2675 3597 1894 
z
M 3022 2063 
Q 3016 2534 2758 2815 
Q 2500 3097 2075 3097 
Q 1594 3097 1305 2825 
Q 1016 2553 972 2059 
L 3022 2063 
z
" transform="scale(0.015625)"/>
      <path id="DejaVuSans-74" d="M 1172 4494 
L 1172 3500 
L 2356 3500 
L 2356 3053 
L 1172 3053 
L 1172 1153 
Q 1172 725 1289 603 
Q 1406 481 1766 481 
L 2356 481 
L 2356 0 
L 1766 0 
Q 1100 0 847 248 
Q 594 497 594 1153 
L 594 3053 
L 172 3053 
L 172 3500 
L 594 3500 
L 594 4494 
L 1172 4494 
z
" transform="scale(0.015625)"/>
      <path id="DejaVuSans-63" d="M 3122 3366 
L 3122 2828 
Q 2878 2963 2633 3030 
Q 2388 3097 2138 3097 
Q 1578 3097 1268 2742 
Q 959 2388 959 1747 
Q 959 1106 1268 751 
Q 1578 397 2138 397 
Q 2388 397 2633 464 
Q 2878 531 3122 666 
L 3122 134 
Q 2881 22 2623 -34 
Q 2366 -91 2075 -91 
Q 1284 -91 818 406 
Q 353 903 353 1747 
Q 353 2603 823 3093 
Q 1294 3584 2113 3584 
Q 2378 3584 2631 3529 
Q 2884 3475 3122 3366 
z
" transform="scale(0.015625)"/>
      <path id="DejaVuSans-20" transform="scale(0.015625)"/>
      <path id="DejaVuSans-46" d="M 628 4666 
L 3309 4666 
L 3309 4134 
L 1259 4134 
L 1259 2759 
L 3109 2759 
L 3109 2228 
L 1259 2228 
L 1259 0 
L 628 0 
L 628 4666 
z
" transform="scale(0.015625)"/>
      <path id="DejaVuSans-75" d="M 544 1381 
L 544 3500 
L 1119 3500 
L 1119 1403 
Q 1119 906 1312 657 
Q 1506 409 1894 409 
Q 2359 409 2629 706 
Q 2900 1003 2900 1516 
L 2900 3500 
L 3475 3500 
L 3475 0 
L 2900 0 
L 2900 538 
Q 2691 219 2414 64 
Q 2138 -91 1772 -91 
Q 1169 -91 856 284 
Q 544 659 544 1381 
z
M 1991 3584 
L 1991 3584 
z
" transform="scale(0.015625)"/>
      <path id="DejaVuSans-73" d="M 2834 3397 
L 2834 2853 
Q 2591 2978 2328 3040 
Q 2066 3103 1784 3103 
Q 1356 3103 1142 2972 
Q 928 2841 928 2578 
Q 928 2378 1081 2264 
Q 1234 2150 1697 2047 
L 1894 2003 
Q 2506 1872 2764 1633 
Q 3022 1394 3022 966 
Q 3022 478 2636 193 
Q 2250 -91 1575 -91 
Q 1294 -91 989 -36 
Q 684 19 347 128 
L 347 722 
Q 666 556 975 473 
Q 1284 391 1588 391 
Q 1994 391 2212 530 
Q 2431 669 2431 922 
Q 2431 1156 2273 1281 
Q 2116 1406 1581 1522 
L 1381 1569 
Q 847 1681 609 1914 
Q 372 2147 372 2553 
Q 372 3047 722 3315 
Q 1072 3584 1716 3584 
Q 2034 3584 2315 3537 
Q 2597 3491 2834 3397 
z
" transform="scale(0.015625)"/>
     </defs>
     <use xlink:href="#DejaVuSans-54"/>
     <use xlink:href="#DejaVuSans-72" x="46.333984"/>
     <use xlink:href="#DejaVuSans-69" x="87.447266"/>
     <use xlink:href="#DejaVuSans-67" x="115.230469"/>
     <use xlink:href="#DejaVuSans-6f" x="178.707031"/>
     <use xlink:href="#DejaVuSans-6e" x="239.888672"/>
     <use xlink:href="#DejaVuSans-6f" x="303.267578"/>
     <use xlink:href="#DejaVuSans-6d" x="364.449219"/>
     <use xlink:href="#DejaVuSans-65" x="461.861328"/>
     <use xlink:href="#DejaVuSans-74" x="523.384766"/>
     <use xlink:href="#DejaVuSans-72" x="562.59375"/>
     <use xlink:href="#DejaVuSans-69" x="603.707031"/>
     <use xlink:href="#DejaVuSans-63" x="631.490234"/>
     <use xlink:href="#DejaVuSans-20" x="686.470703"/>
     <use xlink:href="#DejaVuSans-46" x="718.257812"/>
     <use xlink:href="#DejaVuSans-75" x="770.277344"/>
     <use xlink:href="#DejaVuSans-6e" x="833.65625"/>
     <use xlink:href="#DejaVuSans-63" x="897.035156"/>
     <use xlink:href="#DejaVuSans-74" x="952.015625"/>
     <use xlink:href="#DejaVuSans-69" x="991.224609"/>
     <use xlink:href="#DejaVuSans-6f" x="1019.007812"/>
     <use xlink:href="#DejaVuSans-6e" x="1080.189453"/>
     <use xlink:href="#DejaVuSans-73" x="1143.568359"/>
    </g>
   </g>
   <g class="legend">
    <g id="patch_7">
     <path d="M 205.256094 178.891312 
L 268.910781 178.891312 
Q 270.910781 178.891312 270.910781 176.891312 
L 270.910781 133.856937 
Q 270.910781 131.856937 268.910781 131.856937 
L 205.256094 131.856937 
Q 203.256094 131.856937 203.256094 133.856937 
L 203.256094 176.891312 
Q 203.256094 178.891312 205.256094 178.891312 
z
" style="fill: #ffffff; opacity: 0.8; stroke: #cccccc; stroke-linejoin: miter"/>
    </g>
    <g id="line2d_19">
     <path d="M 207.256094 139.955375 
L 217.256094 139.955375 
L 227.256094 139.955375 
" style="fill: none; stroke: #ff0001; stroke-width: 1.5; stroke-linecap: square"/>
    </g>
    <g id="text_19" class="text">
     <!-- sin(x) -->
     <g transform="translate(235.256094 143.455375) scale(0.1 -0.1)">
      <defs>
       <path id="DejaVuSans-28" d="M 1984 4856 
Q 1566 4138 1362 3434 
Q 1159 2731 1159 2009 
Q 1159 1288 1364 580 
Q 1569 -128 1984 -844 
L 1484 -844 
Q 1016 -109 783 600 
Q 550 1309 550 2009 
Q 550 2706 781 3412 
Q 1013 4119 1484 4856 
L 1984 4856 
z
" transform="scale(0.015625)"/>
       <path id="DejaVuSans-29" d="M 513 4856 
L 1013 4856 
Q 1481 4119 1714 3412 
Q 1947 2706 1947 2009 
Q 1947 1309 1714 600 
Q 1481 -109 1013 -844 
L 513 -844 
Q 928 -128 1133 580 
Q 1338 1288 1338 2009 
Q 1338 2731 1133 3434 
Q 928 4138 513 4856 
z
" transform="scale(0.015625)"/>
      </defs>
      <use xlink:href="#DejaVuSans-73"/>
      <use xlink:href="#DejaVuSans-69" x="52.099609"/>
      <use xlink:href="#DejaVuSans-6e" x="79.882812"/>
      <use xlink:href="#DejaVuSans-28" x="143.261719"/>
      <use xlink:href="#DejaVuSans-78" x="182.275391"/>
      <use xlink:href="#DejaVuSans-29" x="241.455078"/>
     </g>
    </g>
    <g id="line2d_20">
     <path d="M 207.256094 154.6335 
L 217.256094 154.6335 
L 227.256094 154.6335 
" style="fill: none; stroke: #00ff02; stroke-width: 1.5; stroke-linecap: square"/>
    </g>
    <g id="text_20" class="text">
     <!-- cos(x) -->
     <g transform="translate(235.256094 158.1335) scale(0.1 -0.1)">
      <use xlink:href="#DejaVuSans-63"/>
      <use xlink:href="#DejaVuSans-6f" x="54.980469"/>
      <use xlink:href="#DejaVuSans-73" x="116.162109"/>
      <use xlink:href="#DejaVuSans-28" x="168.261719"/>
      <use xlink:href="#DejaVuSans-78" x="207.275391"/>
      <use xlink:href="#DejaVuSans-29" x="266.455078"/>
     </g>
    </g>
    <g id="line2d_21">
     <path d="M 207.256094 169.311625 
L 217.256094 169.311625 
L 227.256094 169.311625 
" style="fill: none; stroke: #0000ff; stroke-width: 1.5; stroke-linecap: square"/>
    </g>
    <g id="text_21" class="text">
     <!-- -sin(x) -->
     <g transform="translate(235.256094 172.811625) scale(0.1 -0.1)">
      <defs>
       <path id="DejaVuSans-2d" d="M 313 2009 
L 1997 2009 
L 1997 1497 
L 313 1497 
L 313 2009 
z
" transform="scale(0.015625)"/>
      </defs>
      <use xlink:href="#DejaVuSans-2d"/>
      <use xlink:href="#DejaVuSans-73" x="36.083984"/>
      <use xlink:href="#DejaVuSans-69" x="88.183594"/>
      <use xlink:href="#DejaVuSans-6e" x="115.966797"/>
      <use xlink:href="#DejaVuSans-28" x="179.345703"/>
      <use xlink:href="#DejaVuSans-78" x="218.359375"/>
      <use xlink:href="#DejaVuSans-29" x="277.539062"/>
     </g>
    </g>
   </g>
  </g>
 </g>
 <defs>
  <clipPath id="pa0284641ff">
   <rect x="58.523438" y="22.318125" width="357.12" height="266.112"/>
  </clipPath>
 </defs>
</svg>
