<?xml version="1.0" encoding="utf-8" standalone="no"?>
<!DOCTYPE svg PUBLIC "-//W3C//DTD SVG 1.1//EN"
  "http://www.w3.org/Graphics/SVG/1.1/DTD/svg11.dtd">
<svg xmlns:xlink="http://www.w3.org/1999/xlink" width="410.110449pt" height="325.986375pt" viewBox="0 0 410.110449 325.986375" xmlns="http://www.w3.org/2000/svg" version="1.1">
<style>
    @keyframes drawLine { from { stroke-dashoffset: var(--len); } to { stroke-dashoffset: 0; } }
    @keyframes fadeIn { from { opacity:0; } to { opacity:1; } }
    @keyframes pulse { 0% { opacity:.7; } 50% { opacity:1; } 100% { opacity:.7; } }

    .anim-draw { --len:1000; stroke-dasharray:var(--len); stroke-dashoffset:var(--len); animation:drawLine 2.0s ease-in-out infinite; animation-delay:0.0s; }
    .anim-fade { opacity:0; animation:fadeIn 2.0s ease-in-out infinite; animation-delay:0.0s; }
    .anim-pulse { animation:pulse 2.0s ease-in-out infinite; animation-delay:0.0s; }
</style>

<style>/* === RDF autogenerated palette === */
:root {
    --axis-color: #000;
    --grid-stroke: rgba(0,0,0,0.2);
    --plot3d-stroke: rgba(0,0,0,0.3);
    --plot3d-grid: rgba(0,0,0,0.2);
}
@media (prefers-color-scheme: dark) {
    :root {
        --axis-color: #fff;
        --grid-stroke: rgba(255,255,255,0.2);
        --plot3d-stroke: rgba(255,255,255,0.3);
        --plot3d-grid: rgba(255,255,255,0.2);
    }
}

/* Light‑mode palette */
.c1 { fill:#FF0001; stroke:#FF0001; }.c2 { fill:#00FF02; stroke:#00FF02; }.c3 { fill:#0000FF; stroke:#0000FF; }.c4 { fill:#FF00FF; stroke:#FF00FF; }.c5 { fill:#00FFFF; stroke:#00FFFF; }.c6 { fill:#FFFF00; stroke:#FFFF00; }.c7 { fill:#FF8000; stroke:#FF8000; }.c8 { fill:#8000FF; stroke:#8000FF; }.octonary { fill:#bcbd22; stroke:#bcbd22; }.primary { fill:#d62728; stroke:#d62728; }.quaternary { fill:#9467bd; stroke:#9467bd; }.quinary { fill:#8c564b; stroke:#8c564b; }.secondary { fill:#2ca02c; stroke:#2ca02c; }.senary { fill:#e377c2; stroke:#e377c2; }.septenary { fill:#7f7f7f; stroke:#7f7f7f; }.tertiary { fill:#1f77b4; stroke:#1f77b4; }

/* Dark overrides */
@media (prefers-color-scheme: dark) {
    .c1 { fill:#FF0001; stroke:#FF0001; }.c2 { fill:#00FF02; stroke:#00FF02; }.c3 { fill:#0000FF; stroke:#0000FF; }.c4 { fill:#FF00FF; stroke:#FF00FF; }.c5 { fill:#00FFFF; stroke:#00FFFF; }.c6 { fill:#FFFF00; stroke:#FFFF00; }.c7 { fill:#FF8000; stroke:#FF8000; }.c8 { fill:#8000FF; stroke:#8000FF; }.octonary { fill:#E6DB74; stroke:#E6DB74; }.primary { fill:#FF4A98; stroke:#FF4A98; }.quaternary { fill:#B4A0FF; stroke:#B4A0FF; }.quinary { fill:#FFB86B; stroke:#FFB86B; }.secondary { fill:#0AFAFA; stroke:#0AFAFA; }.senary { fill:#FF79C6; stroke:#FF79C6; }.septenary { fill:#CCCCCC; stroke:#CCCCCC; }.tertiary { fill:#7F83FF; stroke:#7F83FF; }
}/* Axis, ticks, legend */
text, .text { fill: var(--axis-color) !important; stroke: none !important; }
.axis line, .axis path,
.tick line, .tick path,
path.domain,
line.grid { stroke: var(--axis-color) !important; }
.legend text { fill: var(--axis-color) !important; }

/* Patch paths that relied on currentColor */
.patch path[style*="stroke: currentColor"] { stroke: var(--axis-color) !important; }

/* Legend background (first child of legend group) */
g.legend > g:first-child > path:first-child {
    fill: rgba(255,255,255,0.8) !important;
    stroke: rgba(0,0,0,0.1) !important;
}
@media (prefers-color-scheme: dark) {
    g.legend > g:first-child > path:first-child {
        fill: rgba(26,26,26,0.8) !important;
        stroke: rgba(255,255,255,0.1) !important;
    }
}

/* 3‑D specific rules */
.plot3d path, .plot3d polygon {
    stroke: var(--plot3d-stroke) !important;
}
.plot3d-grid line { stroke: var(--plot3d-grid) !important; }
.plot3d-surface path[style*="fill:"] {
    fill-opacity: 0.9 !important;
}
@media (prefers-color-scheme: dark) {
    .plot3d-surface path[style*="fill:"] {
        fill-opacity: 0.95 !important;
        filter: saturate(1.2) !important;
    }
}</style>

 <metadata>
  <rdf:RDF xmlns:dc="http://purl.org/dc/elements/1.1/" xmlns:cc="http://creativecommons.org/ns#" xmlns:rdf="http://www.w3.org/1999/02/22-rdf-syntax-ns#">
   <cc:Work>
    <dc:type rdf:resource="http://purl.org/dc/dcmitype/StillImage"/>
    <dc:date>2025-04-16T21:55:23.604271</dc:date>
    <dc:format>image/svg+xml</dc:format>
    <dc:creator>
     <cc:Agent>
      <dc:title>Matplotlib v3.10.1, https://matplotlib.org/</dc:title>
     </cc:Agent>
    </dc:creator>
   </cc:Work>
  </rdf:RDF>
 </metadata>
 <defs>
  <style type="text/css">*{stroke-linejoin: round; stroke-linecap: butt}</style>
 </defs>
 <g id="figure_1">
  <g class="patch">
   <path class="anim-draw" d="M 0 325.986375 
L 410.110449 325.986375 
L 410.110449 0 
L 0 0 
L 0 325.986375 
z
" style="fill: none"/>
  </g>
  <g id="axes_1">
   <g class="patch">
    <path class="anim-draw" d="M 43.78125 288.430125 
L 400.90125 288.430125 
L 400.90125 22.318125 
L 43.78125 22.318125 
L 43.78125 288.430125 
z
" style="fill: none"/>
   </g>
   <g id="PathCollection_1">
    <path class="anim-draw" d="M 181.06131 39.932962 
C 181.393763 39.932962 181.712644 39.800877 181.947724 39.565797 
C 182.182804 39.330718 182.314889 39.011836 182.314889 38.679383 
C 182.314889 38.34693 182.182804 38.028049 181.947724 37.792969 
C 181.712644 37.55789 181.393763 37.425805 181.06131 37.425805 
C 180.728857 37.425805 180.409976 37.55789 180.174896 37.792969 
C 179.939816 38.028049 179.807731 38.34693 179.807731 38.679383 
C 179.807731 39.011836 179.939816 39.330718 180.174896 39.565797 
C 180.409976 39.800877 180.728857 39.932962 181.06131 39.932962 
z
" clip-path="url(#p5c676d9784)" style="fill: #ff0001; fill-opacity: 0.7; stroke: #ff0001; stroke-opacity: 0.7"/>
    <path class="anim-draw" d="M 378.103944 92.25541 
C 379.599946 92.25541 381.034877 91.661042 382.092711 90.603209 
C 383.150544 89.545376 383.744912 88.110445 383.744912 86.614442 
C 383.744912 85.11844 383.150544 83.683509 382.092711 82.625676 
C 381.034877 81.567842 379.599946 80.973474 378.103944 80.973474 
C 376.607942 80.973474 375.17301 81.567842 374.115177 82.625676 
C 373.057344 83.683509 372.462976 85.11844 372.462976 86.614442 
C 372.462976 88.110445 373.057344 89.545376 374.115177 90.603209 
C 375.17301 91.661042 376.607942 92.25541 378.103944 92.25541 
z
" clip-path="url(#p5c676d9784)" style="fill: #ff0001; fill-opacity: 0.7; stroke: #ff0001; stroke-opacity: 0.7"/>
    <path class="anim-draw" d="M 303.304972 50.060489 
C 304.356388 50.060489 305.364882 49.642757 306.108345 48.899294 
C 306.851808 48.155831 307.26954 47.147337 307.26954 46.095921 
C 307.26954 45.044505 306.851808 44.036011 306.108345 43.292548 
C 305.364882 42.549085 304.356388 42.131353 303.304972 42.131353 
C 302.253556 42.131353 301.245062 42.549085 300.501599 43.292548 
C 299.758136 44.036011 299.340404 45.044505 299.340404 46.095921 
C 299.340404 47.147337 299.758136 48.155831 300.501599 48.899294 
C 301.245062 49.642757 302.253556 50.060489 303.304972 50.060489 
z
" clip-path="url(#p5c676d9784)" style="fill: #ff0001; fill-opacity: 0.7; stroke: #ff0001; stroke-opacity: 0.7"/>
    <path class="anim-draw" d="M 257.706314 62.150758 
C 259.043646 62.150758 260.326385 61.61943 261.272021 60.673793 
C 262.217658 59.728157 262.748985 58.445418 262.748985 57.108086 
C 262.748985 55.770754 262.217658 54.488016 261.272021 53.542379 
C 260.326385 52.596742 259.043646 52.065415 257.706314 52.065415 
C 256.368982 52.065415 255.086244 52.596742 254.140607 53.542379 
C 253.19497 54.488016 252.663643 55.770754 252.663643 57.108086 
C 252.663643 58.445418 253.19497 59.728157 254.140607 60.673793 
C 255.086244 61.61943 256.368982 62.150758 257.706314 62.150758 
z
" clip-path="url(#p5c676d9784)" style="fill: #ff0001; fill-opacity: 0.7; stroke: #ff0001; stroke-opacity: 0.7"/>
    <path class="anim-draw" d="M 106.330354 137.041133 
C 108.116853 137.041133 109.830423 136.33135 111.093668 135.068104 
C 112.356914 133.804858 113.066698 132.091289 113.066698 130.30479 
C 113.066698 128.51829 112.356914 126.804721 111.093668 125.541476 
C 109.830423 124.27823 108.116853 123.568446 106.330354 123.568446 
C 104.543855 123.568446 102.830286 124.27823 101.56704 125.541476 
C 100.303794 126.804721 99.594011 128.51829 99.594011 130.30479 
C 99.594011 132.091289 100.303794 133.804858 101.56704 135.068104 
C 102.830286 136.33135 104.543855 137.041133 106.330354 137.041133 
z
" clip-path="url(#p5c676d9784)" style="fill: #ff0001; fill-opacity: 0.7; stroke: #ff0001; stroke-opacity: 0.7"/>
    <path class="anim-draw" d="M 106.322106 53.971181 
C 107.258412 53.971181 108.156496 53.599182 108.818564 52.937114 
C 109.480633 52.275045 109.852631 51.376961 109.852631 50.440655 
C 109.852631 49.504349 109.480633 48.606265 108.818564 47.944196 
C 108.156496 47.282128 107.258412 46.910129 106.322106 46.910129 
C 105.385799 46.910129 104.487715 47.282128 103.825647 47.944196 
C 103.163578 48.606265 102.79158 49.504349 102.79158 50.440655 
C 102.79158 51.376961 103.163578 52.275045 103.825647 52.937114 
C 104.487715 53.599182 105.385799 53.971181 106.322106 53.971181 
z
" clip-path="url(#p5c676d9784)" style="fill: #ff0001; fill-opacity: 0.7; stroke: #ff0001; stroke-opacity: 0.7"/>
    <path class="anim-draw" d="M 72.838094 260.410584 
C 74.039413 260.410584 75.19169 259.933295 76.041151 259.083834 
C 76.890611 258.234374 77.3679 257.082096 77.3679 255.880778 
C 77.3679 254.679459 76.890611 253.527181 76.041151 252.677721 
C 75.19169 251.82826 74.039413 251.350971 72.838094 251.350971 
C 71.636775 251.350971 70.484498 251.82826 69.635037 252.677721 
C 68.785576 253.527181 68.308287 254.679459 68.308287 255.880778 
C 68.308287 257.082096 68.785576 258.234374 69.635037 259.083834 
C 70.484498 259.933295 71.636775 260.410584 72.838094 260.410584 
z
" clip-path="url(#p5c676d9784)" style="fill: #ff0001; fill-opacity: 0.7; stroke: #ff0001; stroke-opacity: 0.7"/>
    <path class="anim-draw" d="M 349.193204 235.529262 
C 350.823234 235.529262 352.386722 234.881645 353.539327 233.729039 
C 354.691932 232.576434 355.339549 231.012947 355.339549 229.382917 
C 355.339549 227.752888 354.691932 226.1894 353.539327 225.036795 
C 352.386722 223.88419 350.823234 223.236572 349.193204 223.236572 
C 347.563175 223.236572 345.999687 223.88419 344.847082 225.036795 
C 343.694477 226.1894 343.046859 227.752888 343.046859 229.382917 
C 343.046859 231.012947 343.694477 232.576434 344.847082 233.729039 
C 345.999687 234.881645 347.563175 235.529262 349.193204 235.529262 
z
" clip-path="url(#p5c676d9784)" style="fill: #ff0001; fill-opacity: 0.7; stroke: #ff0001; stroke-opacity: 0.7"/>
    <path class="anim-draw" d="M 258.546408 269.928544 
C 259.443403 269.928544 260.30378 269.572165 260.938051 268.937894 
C 261.572322 268.303623 261.928702 267.443246 261.928702 266.546251 
C 261.928702 265.649256 261.572322 264.78888 260.938051 264.154608 
C 260.30378 263.520337 259.443403 263.163958 258.546408 263.163958 
C 257.649414 263.163958 256.789037 263.520337 256.154766 264.154608 
C 255.520495 264.78888 255.164115 265.649256 255.164115 266.546251 
C 255.164115 267.443246 255.520495 268.303623 256.154766 268.937894 
C 256.789037 269.572165 257.649414 269.928544 258.546408 269.928544 
z
" clip-path="url(#p5c676d9784)" style="fill: #ff0001; fill-opacity: 0.7; stroke: #ff0001; stroke-opacity: 0.7"/>
    <path class="anim-draw" d="M 295.124237 199.458863 
C 295.644535 199.458863 296.143593 199.252147 296.511499 198.88424 
C 296.879406 198.516334 297.086122 198.017276 297.086122 197.496977 
C 297.086122 196.976679 296.879406 196.477621 296.511499 196.109715 
C 296.143593 195.741808 295.644535 195.535092 295.124237 195.535092 
C 294.603939 195.535092 294.10488 195.741808 293.736974 196.109715 
C 293.369068 196.477621 293.162351 196.976679 293.162351 197.496977 
C 293.162351 198.017276 293.369068 198.516334 293.736974 198.88424 
C 294.10488 199.252147 294.603939 199.458863 295.124237 199.458863 
z
" clip-path="url(#p5c676d9784)" style="fill: #ff0001; fill-opacity: 0.7; stroke: #ff0001; stroke-opacity: 0.7"/>
    <path class="anim-draw" d="M 60.013977 185.68733 
C 61.023408 185.68733 61.99163 185.286279 62.705406 184.572504 
C 63.419181 183.858729 63.820232 182.890507 63.820232 181.881076 
C 63.820232 180.871646 63.419181 179.903423 62.705406 179.189648 
C 61.99163 178.475873 61.023408 178.074822 60.013977 178.074822 
C 59.004547 178.074822 58.036324 178.475873 57.322549 179.189648 
C 56.608774 179.903423 56.207723 180.871646 56.207723 181.881076 
C 56.207723 182.890507 56.608774 183.858729 57.322549 184.572504 
C 58.036324 185.286279 59.004547 185.68733 60.013977 185.68733 
z
" clip-path="url(#p5c676d9784)" style="fill: #ff0001; fill-opacity: 0.7; stroke: #ff0001; stroke-opacity: 0.7"/>
    <path class="anim-draw" d="M 384.668523 213.643316 
C 385.421488 213.643316 386.143715 213.344159 386.676141 212.811733 
C 387.208568 212.279306 387.507724 211.557079 387.507724 210.804114 
C 387.507724 210.051149 387.208568 209.328922 386.676141 208.796496 
C 386.143715 208.264069 385.421488 207.964913 384.668523 207.964913 
C 383.915558 207.964913 383.193331 208.264069 382.660904 208.796496 
C 382.128478 209.328922 381.829321 210.051149 381.829321 210.804114 
C 381.829321 211.557079 382.128478 212.279306 382.660904 212.811733 
C 383.193331 213.344159 383.915558 213.643316 384.668523 213.643316 
z
" clip-path="url(#p5c676d9784)" style="fill: #ff0001; fill-opacity: 0.7; stroke: #ff0001; stroke-opacity: 0.7"/>
    <path class="anim-draw" d="M 337.656869 80.218128 
C 339.465019 80.218128 341.199355 79.499743 342.47791 78.221188 
C 343.756466 76.942632 344.474851 75.208296 344.474851 73.400146 
C 344.474851 71.591996 343.756466 69.85766 342.47791 68.579105 
C 341.199355 67.300549 339.465019 66.582164 337.656869 66.582164 
C 335.848719 66.582164 334.114383 67.300549 332.835827 68.579105 
C 331.557272 69.85766 330.838887 71.591996 330.838887 73.400146 
C 330.838887 75.208296 331.557272 76.942632 332.835827 78.221188 
C 334.114383 79.499743 335.848719 80.218128 337.656869 80.218128 
z
" clip-path="url(#p5c676d9784)" style="fill: #ff0001; fill-opacity: 0.7; stroke: #ff0001; stroke-opacity: 0.7"/>
    <path class="anim-draw" d="M 125.591081 196.107347 
C 127.276864 196.107347 128.893829 195.437579 130.085857 194.24555 
C 131.277886 193.053522 131.947654 191.436557 131.947654 189.750774 
C 131.947654 188.064992 131.277886 186.448027 130.085857 185.255999 
C 128.893829 184.06397 127.276864 183.394202 125.591081 183.394202 
C 123.905299 183.394202 122.288334 184.06397 121.096306 185.255999 
C 119.904277 186.448027 119.234508 188.064992 119.234508 189.750774 
C 119.234508 191.436557 119.904277 193.053522 121.096306 194.24555 
C 122.288334 195.437579 123.905299 196.107347 125.591081 196.107347 
z
" clip-path="url(#p5c676d9784)" style="fill: #ff0001; fill-opacity: 0.7; stroke: #ff0001; stroke-opacity: 0.7"/>
    <path class="anim-draw" d="M 115.155718 214.068789 
C 116.648182 214.068789 118.079719 213.475826 119.135051 212.420495 
C 120.190383 211.365163 120.783345 209.933626 120.783345 208.441161 
C 120.783345 206.948697 120.190383 205.51716 119.135051 204.461828 
C 118.079719 203.406496 116.648182 202.813534 115.155718 202.813534 
C 113.663253 202.813534 112.231716 203.406496 111.176384 204.461828 
C 110.121053 205.51716 109.52809 206.948697 109.52809 208.441161 
C 109.52809 209.933626 110.121053 211.365163 111.176384 212.420495 
C 112.231716 213.475826 113.663253 214.068789 115.155718 214.068789 
z
" clip-path="url(#p5c676d9784)" style="fill: #ff0001; fill-opacity: 0.7; stroke: #ff0001; stroke-opacity: 0.7"/>
    <path class="anim-draw" d="M 115.695897 150.5143 
C 117.446499 150.5143 119.125637 149.818779 120.363499 148.580916 
C 121.601362 147.343053 122.296884 145.663916 122.296884 143.913313 
C 122.296884 142.162711 121.601362 140.483573 120.363499 139.245711 
C 119.125637 138.007848 117.446499 137.312326 115.695897 137.312326 
C 113.945295 137.312326 112.266157 138.007848 111.028294 139.245711 
C 109.790431 140.483573 109.09491 142.162711 109.09491 143.913313 
C 109.09491 145.663916 109.790431 147.343053 111.028294 148.580916 
C 112.266157 149.818779 113.945295 150.5143 115.695897 150.5143 
z
" clip-path="url(#p5c676d9784)" style="fill: #ff0001; fill-opacity: 0.7; stroke: #ff0001; stroke-opacity: 0.7"/>
    <path class="anim-draw" d="M 157.020527 249.294687 
C 158.701664 249.294687 160.314172 248.626764 161.502915 247.438021 
C 162.691658 246.249278 163.359581 244.63677 163.359581 242.955633 
C 163.359581 241.274496 162.691658 239.661988 161.502915 238.473245 
C 160.314172 237.284502 158.701664 236.616579 157.020527 236.616579 
C 155.33939 236.616579 153.726882 237.284502 152.538139 238.473245 
C 151.349396 239.661988 150.681473 241.274496 150.681473 242.955633 
C 150.681473 244.63677 151.349396 246.249278 152.538139 247.438021 
C 153.726882 248.626764 155.33939 249.294687 157.020527 249.294687 
z
" clip-path="url(#p5c676d9784)" style="fill: #ff0001; fill-opacity: 0.7; stroke: #ff0001; stroke-opacity: 0.7"/>
    <path class="anim-draw" d="M 232.432959 82.997013 
C 233.242958 82.997013 234.019891 82.675197 234.592646 82.102441 
C 235.165402 81.529685 235.487218 80.752752 235.487218 79.942753 
C 235.487218 79.132754 235.165402 78.355821 234.592646 77.783066 
C 234.019891 77.21031 233.242958 76.888494 232.432959 76.888494 
C 231.622959 76.888494 230.846027 77.21031 230.273271 77.783066 
C 229.700515 78.355821 229.378699 79.132754 229.378699 79.942753 
C 229.378699 80.752752 229.700515 81.529685 230.273271 82.102441 
C 230.846027 82.675197 231.622959 82.997013 232.432959 82.997013 
z
" clip-path="url(#p5c676d9784)" style="fill: #ff0001; fill-opacity: 0.7; stroke: #ff0001; stroke-opacity: 0.7"/>
    <path class="anim-draw" d="M 200.692895 265.998054 
C 202.464562 265.998054 204.163905 265.294163 205.416662 264.041406 
C 206.66942 262.788648 207.373311 261.089305 207.373311 259.317639 
C 207.373311 257.545972 206.66942 255.846629 205.416662 254.593872 
C 204.163905 253.341114 202.464562 252.637223 200.692895 252.637223 
C 198.921228 252.637223 197.221886 253.341114 195.969128 254.593872 
C 194.71637 255.846629 194.01248 257.545972 194.01248 259.317639 
C 194.01248 261.089305 194.71637 262.788648 195.969128 264.041406 
C 197.221886 265.294163 198.921228 265.998054 200.692895 265.998054 
z
" clip-path="url(#p5c676d9784)" style="fill: #ff0001; fill-opacity: 0.7; stroke: #ff0001; stroke-opacity: 0.7"/>
    <path class="anim-draw" d="M 152.570248 39.607112 
C 153.947444 39.607112 155.268419 39.059946 156.242244 38.086121 
C 157.216069 37.112296 157.763234 35.791321 157.763234 34.414125 
C 157.763234 33.036929 157.216069 31.715954 156.242244 30.742129 
C 155.268419 29.768304 153.947444 29.221138 152.570248 29.221138 
C 151.193051 29.221138 149.872076 29.768304 148.898251 30.742129 
C 147.924427 31.715954 147.377261 33.036929 147.377261 34.414125 
C 147.377261 35.791321 147.924427 37.112296 148.898251 38.086121 
C 149.872076 39.059946 151.193051 39.607112 152.570248 39.607112 
z
" clip-path="url(#p5c676d9784)" style="fill: #ff0001; fill-opacity: 0.7; stroke: #ff0001; stroke-opacity: 0.7"/>
    <path class="anim-draw" d="M 262.218598 93.680285 
C 263.903671 93.680285 265.519955 93.010798 266.711482 91.819271 
C 267.903008 90.627745 268.572495 89.011461 268.572495 87.326388 
C 268.572495 85.641314 267.903008 84.025031 266.711482 82.833504 
C 265.519955 81.641977 263.903671 80.972491 262.218598 80.972491 
C 260.533525 80.972491 258.917241 81.641977 257.725714 82.833504 
C 256.534187 84.025031 255.864701 85.641314 255.864701 87.326388 
C 255.864701 89.011461 256.534187 90.627745 257.725714 91.819271 
C 258.917241 93.010798 260.533525 93.680285 262.218598 93.680285 
z
" clip-path="url(#p5c676d9784)" style="fill: #ff0001; fill-opacity: 0.7; stroke: #ff0001; stroke-opacity: 0.7"/>
    <path class="anim-draw" d="M 100.679136 235.402861 
C 102.454305 235.402861 104.157007 234.697579 105.412241 233.442345 
C 106.667475 232.18711 107.372757 230.484409 107.372757 228.70924 
C 107.372757 226.93407 106.667475 225.231369 105.412241 223.976135 
C 104.157007 222.720901 102.454305 222.015618 100.679136 222.015618 
C 98.903967 222.015618 97.201265 222.720901 95.946031 223.976135 
C 94.690797 225.231369 93.985515 226.93407 93.985515 228.70924 
C 93.985515 230.484409 94.690797 232.18711 95.946031 233.442345 
C 97.201265 234.697579 98.903967 235.402861 100.679136 235.402861 
z
" clip-path="url(#p5c676d9784)" style="fill: #ff0001; fill-opacity: 0.7; stroke: #ff0001; stroke-opacity: 0.7"/>
    <path class="anim-draw" d="M 152.883337 280.321627 
C 153.940835 280.321627 154.955163 279.901479 155.702927 279.153715 
C 156.450691 278.405951 156.870839 277.391623 156.870839 276.334125 
C 156.870839 275.276627 156.450691 274.262299 155.702927 273.514535 
C 154.955163 272.766771 153.940835 272.346623 152.883337 272.346623 
C 151.825839 272.346623 150.811511 272.766771 150.063747 273.514535 
C 149.315983 274.262299 148.895835 275.276627 148.895835 276.334125 
C 148.895835 277.391623 149.315983 278.405951 150.063747 279.153715 
C 150.811511 279.901479 151.825839 280.321627 152.883337 280.321627 
z
" clip-path="url(#p5c676d9784)" style="fill: #ff0001; fill-opacity: 0.7; stroke: #ff0001; stroke-opacity: 0.7"/>
    <path class="anim-draw" d="M 178.264467 79.018645 
C 178.88657 79.018645 179.483277 78.771481 179.92317 78.331587 
C 180.363064 77.891694 180.610228 77.294987 180.610228 76.672884 
C 180.610228 76.05078 180.363064 75.454073 179.92317 75.01418 
C 179.483277 74.574286 178.88657 74.327122 178.264467 74.327122 
C 177.642363 74.327122 177.045656 74.574286 176.605763 75.01418 
C 176.165869 75.454073 175.918705 76.05078 175.918705 76.672884 
C 175.918705 77.294987 176.165869 77.891694 176.605763 78.331587 
C 177.045656 78.771481 177.642363 79.018645 178.264467 79.018645 
z
" clip-path="url(#p5c676d9784)" style="fill: #ff0001; fill-opacity: 0.7; stroke: #ff0001; stroke-opacity: 0.7"/>
    <path class="anim-draw" d="M 208.943259 106.821201 
C 209.838561 106.821201 210.697313 106.465494 211.330387 105.83242 
C 211.963461 105.199346 212.319168 104.340594 212.319168 103.445292 
C 212.319168 102.549991 211.963461 101.691238 211.330387 101.058165 
C 210.697313 100.425091 209.838561 100.069384 208.943259 100.069384 
C 208.047958 100.069384 207.189205 100.425091 206.556131 101.058165 
C 205.923058 101.691238 205.567351 102.549991 205.567351 103.445292 
C 205.567351 104.340594 205.923058 105.199346 206.556131 105.83242 
C 207.189205 106.465494 208.047958 106.821201 208.943259 106.821201 
z
" clip-path="url(#p5c676d9784)" style="fill: #ff0001; fill-opacity: 0.7; stroke: #ff0001; stroke-opacity: 0.7"/>
    <path class="anim-draw" d="M 321.492398 102.606244 
C 322.717952 102.606244 323.893475 102.119326 324.760072 101.252729 
C 325.626669 100.386131 326.113587 99.210608 326.113587 97.985054 
C 326.113587 96.759501 325.626669 95.583977 324.760072 94.71738 
C 323.893475 93.850783 322.717952 93.363865 321.492398 93.363865 
C 320.266844 93.363865 319.091321 93.850783 318.224724 94.71738 
C 317.358126 95.583977 316.871209 96.759501 316.871209 97.985054 
C 316.871209 99.210608 317.358126 100.386131 318.224724 101.252729 
C 319.091321 102.119326 320.266844 102.606244 321.492398 102.606244 
z
" clip-path="url(#p5c676d9784)" style="fill: #ff0001; fill-opacity: 0.7; stroke: #ff0001; stroke-opacity: 0.7"/>
    <path class="anim-draw" d="M 121.259735 93.961965 
C 122.955807 93.961965 124.58264 93.288108 125.781944 92.088805 
C 126.981248 90.889501 127.655104 89.262668 127.655104 87.566596 
C 127.655104 85.870525 126.981248 84.243692 125.781944 83.044388 
C 124.58264 81.845084 122.955807 81.171228 121.259735 81.171228 
C 119.563664 81.171228 117.936831 81.845084 116.737527 83.044388 
C 115.538223 84.243692 114.864367 85.870525 114.864367 87.566596 
C 114.864367 89.262668 115.538223 90.889501 116.737527 92.088805 
C 117.936831 93.288108 119.563664 93.961965 121.259735 93.961965 
z
" clip-path="url(#p5c676d9784)" style="fill: #ff0001; fill-opacity: 0.7; stroke: #ff0001; stroke-opacity: 0.7"/>
    <path class="anim-draw" d="M 228.8346 266.002596 
C 230.574392 266.002596 232.24316 265.311369 233.473378 264.081151 
C 234.703597 262.850933 235.394823 261.182164 235.394823 259.442373 
C 235.394823 257.702581 234.703597 256.033813 233.473378 254.803594 
C 232.24316 253.573376 230.574392 252.882149 228.8346 252.882149 
C 227.094809 252.882149 225.42604 253.573376 224.195822 254.803594 
C 222.965603 256.033813 222.274377 257.702581 222.274377 259.442373 
C 222.274377 261.182164 222.965603 262.850933 224.195822 264.081151 
C 225.42604 265.311369 227.094809 266.002596 228.8346 266.002596 
z
" clip-path="url(#p5c676d9784)" style="fill: #ff0001; fill-opacity: 0.7; stroke: #ff0001; stroke-opacity: 0.7"/>
    <path class="anim-draw" d="M 255.570992 189.918225 
C 255.727351 189.918225 255.877327 189.856103 255.987889 189.745541 
C 256.098452 189.634978 256.160574 189.485003 256.160574 189.328644 
C 256.160574 189.172285 256.098452 189.022309 255.987889 188.911746 
C 255.877327 188.801184 255.727351 188.739062 255.570992 188.739062 
C 255.414633 188.739062 255.264657 188.801184 255.154095 188.911746 
C 255.043532 189.022309 254.98141 189.172285 254.98141 189.328644 
C 254.98141 189.485003 255.043532 189.634978 255.154095 189.745541 
C 255.264657 189.856103 255.414633 189.918225 255.570992 189.918225 
z
" clip-path="url(#p5c676d9784)" style="fill: #ff0001; fill-opacity: 0.7; stroke: #ff0001; stroke-opacity: 0.7"/>
    <path class="anim-draw" d="M 68.85972 254.185528 
C 70.199911 254.185528 71.485391 253.653065 72.433049 252.705407 
C 73.380707 251.757749 73.913171 250.472268 73.913171 249.132078 
C 73.913171 247.791887 73.380707 246.506406 72.433049 245.558748 
C 71.485391 244.61109 70.199911 244.078627 68.85972 244.078627 
C 67.519529 244.078627 66.234049 244.61109 65.286391 245.558748 
C 64.338733 246.506406 63.806269 247.791887 63.806269 249.132078 
C 63.806269 250.472268 64.338733 251.757749 65.286391 252.705407 
C 66.234049 253.653065 67.519529 254.185528 68.85972 254.185528 
z
" clip-path="url(#p5c676d9784)" style="fill: #ff0001; fill-opacity: 0.7; stroke: #ff0001; stroke-opacity: 0.7"/>
    <path class="anim-draw" d="M 260.745314 69.496902 
C 261.956876 69.496902 263.118978 69.015543 263.975682 68.15884 
C 264.832385 67.302136 265.313744 66.140034 265.313744 64.928472 
C 265.313744 63.716911 264.832385 62.554808 263.975682 61.698105 
C 263.118978 60.841401 261.956876 60.360043 260.745314 60.360043 
C 259.533752 60.360043 258.37165 60.841401 257.514946 61.698105 
C 256.658243 62.554808 256.176884 63.716911 256.176884 64.928472 
C 256.176884 66.140034 256.658243 67.302136 257.514946 68.15884 
C 258.37165 69.015543 259.533752 69.496902 260.745314 69.496902 
z
" clip-path="url(#p5c676d9784)" style="fill: #ff0001; fill-opacity: 0.7; stroke: #ff0001; stroke-opacity: 0.7"/>
    <path class="anim-draw" d="M 111.291005 127.37627 
C 112.174787 127.37627 113.022492 127.025139 113.64742 126.400211 
C 114.272349 125.775282 114.62348 124.927578 114.62348 124.043795 
C 114.62348 123.160012 114.272349 122.312308 113.64742 121.687379 
C 113.022492 121.06245 112.174787 120.71132 111.291005 120.71132 
C 110.407222 120.71132 109.559518 121.06245 108.934589 121.687379 
C 108.30966 122.312308 107.958529 123.160012 107.958529 124.043795 
C 107.958529 124.927578 108.30966 125.775282 108.934589 126.400211 
C 109.559518 127.025139 110.407222 127.37627 111.291005 127.37627 
z
" clip-path="url(#p5c676d9784)" style="fill: #ff0001; fill-opacity: 0.7; stroke: #ff0001; stroke-opacity: 0.7"/>
    <path class="anim-draw" d="M 75.221035 198.572579 
C 75.870283 198.572579 76.493027 198.31463 76.952114 197.855543 
C 77.411202 197.396455 77.66915 196.773712 77.66915 196.124464 
C 77.66915 195.475216 77.411202 194.852472 76.952114 194.393385 
C 76.493027 193.934297 75.870283 193.676349 75.221035 193.676349 
C 74.571787 193.676349 73.949044 193.934297 73.489956 194.393385 
C 73.030869 194.852472 72.77292 195.475216 72.77292 196.124464 
C 72.77292 196.773712 73.030869 197.396455 73.489956 197.855543 
C 73.949044 198.31463 74.571787 198.572579 75.221035 198.572579 
z
" clip-path="url(#p5c676d9784)" style="fill: #ff0001; fill-opacity: 0.7; stroke: #ff0001; stroke-opacity: 0.7"/>
    <path class="anim-draw" d="M 377.478533 266.136011 
C 378.568152 266.136011 379.613289 265.703101 380.383766 264.932624 
C 381.154243 264.162147 381.587153 263.11701 381.587153 262.027391 
C 381.587153 260.937772 381.154243 259.892635 380.383766 259.122158 
C 379.613289 258.351681 378.568152 257.918771 377.478533 257.918771 
C 376.388914 257.918771 375.343777 258.351681 374.5733 259.122158 
C 373.802823 259.892635 373.369913 260.937772 373.369913 262.027391 
C 373.369913 263.11701 373.802823 264.162147 374.5733 264.932624 
C 375.343777 265.703101 376.388914 266.136011 377.478533 266.136011 
z
" clip-path="url(#p5c676d9784)" style="fill: #ff0001; fill-opacity: 0.7; stroke: #ff0001; stroke-opacity: 0.7"/>
    <path class="anim-draw" d="M 383.205575 207.900217 
C 385.026528 207.900217 386.773144 207.176745 388.060752 205.889137 
C 389.34836 204.601529 390.071832 202.854913 390.071832 201.03396 
C 390.071832 199.213007 389.34836 197.466391 388.060752 196.178783 
C 386.773144 194.891175 385.026528 194.167703 383.205575 194.167703 
C 381.384622 194.167703 379.638006 194.891175 378.350398 196.178783 
C 377.06279 197.466391 376.339318 199.213007 376.339318 201.03396 
C 376.339318 202.854913 377.06279 204.601529 378.350398 205.889137 
C 379.638006 207.176745 381.384622 207.900217 383.205575 207.900217 
z
" clip-path="url(#p5c676d9784)" style="fill: #ff0001; fill-opacity: 0.7; stroke: #ff0001; stroke-opacity: 0.7"/>
    <path class="anim-draw" d="M 329.433752 201.553186 
C 330.49986 201.553186 331.522447 201.129616 332.276299 200.375764 
C 333.030151 199.621912 333.45372 198.599325 333.45372 197.533217 
C 333.45372 196.467109 333.030151 195.444522 332.276299 194.69067 
C 331.522447 193.936818 330.49986 193.513249 329.433752 193.513249 
C 328.367644 193.513249 327.345057 193.936818 326.591205 194.69067 
C 325.837353 195.444522 325.413783 196.467109 325.413783 197.533217 
C 325.413783 198.599325 325.837353 199.621912 326.591205 200.375764 
C 327.345057 201.129616 328.367644 201.553186 329.433752 201.553186 
z
" clip-path="url(#p5c676d9784)" style="fill: #ff0001; fill-opacity: 0.7; stroke: #ff0001; stroke-opacity: 0.7"/>
    <path class="anim-draw" d="M 157.147583 102.930477 
C 158.498285 102.930477 159.793848 102.393837 160.748939 101.438746 
C 161.70403 100.483655 162.24067 99.188092 162.24067 97.83739 
C 162.24067 96.486688 161.70403 95.191125 160.748939 94.236034 
C 159.793848 93.280943 158.498285 92.744303 157.147583 92.744303 
C 155.796881 92.744303 154.501318 93.280943 153.546227 94.236034 
C 152.591136 95.191125 152.054497 96.486688 152.054497 97.83739 
C 152.054497 99.188092 152.591136 100.483655 153.546227 101.438746 
C 154.501318 102.393837 155.796881 102.930477 157.147583 102.930477 
z
" clip-path="url(#p5c676d9784)" style="fill: #ff0001; fill-opacity: 0.7; stroke: #ff0001; stroke-opacity: 0.7"/>
    <path class="anim-draw" d="M 86.376747 126.457493 
C 87.94909 126.457493 89.457245 125.832795 90.569059 124.720981 
C 91.680873 123.609167 92.305571 122.101012 92.305571 120.528669 
C 92.305571 118.956327 91.680873 117.448172 90.569059 116.336358 
C 89.457245 115.224544 87.94909 114.599846 86.376747 114.599846 
C 84.804405 114.599846 83.29625 115.224544 82.184436 116.336358 
C 81.072622 117.448172 80.447924 118.956327 80.447924 120.528669 
C 80.447924 122.101012 81.072622 123.609167 82.184436 124.720981 
C 83.29625 125.832795 84.804405 126.457493 86.376747 126.457493 
z
" clip-path="url(#p5c676d9784)" style="fill: #ff0001; fill-opacity: 0.7; stroke: #ff0001; stroke-opacity: 0.7"/>
    <path class="anim-draw" d="M 286.97148 63.249167 
C 288.102299 63.249167 289.186955 62.799888 289.986565 62.000278 
C 290.786175 61.200668 291.235455 60.116012 291.235455 58.985192 
C 291.235455 57.854373 290.786175 56.769717 289.986565 55.970107 
C 289.186955 55.170497 288.102299 54.721218 286.97148 54.721218 
C 285.840661 54.721218 284.756005 55.170497 283.956395 55.970107 
C 283.156785 56.769717 282.707505 57.854373 282.707505 58.985192 
C 282.707505 60.116012 283.156785 61.200668 283.956395 62.000278 
C 284.756005 62.799888 285.840661 63.249167 286.97148 63.249167 
z
" clip-path="url(#p5c676d9784)" style="fill: #ff0001; fill-opacity: 0.7; stroke: #ff0001; stroke-opacity: 0.7"/>
    <path class="anim-draw" d="M 203.499724 168.258482 
C 205.348346 168.258482 207.121502 167.524017 208.428675 166.216844 
C 209.735848 164.909671 210.470313 163.136515 210.470313 161.287894 
C 210.470313 159.439272 209.735848 157.666116 208.428675 156.358943 
C 207.121502 155.05177 205.348346 154.317305 203.499724 154.317305 
C 201.651103 154.317305 199.877947 155.05177 198.570774 156.358943 
C 197.263601 157.666116 196.529136 159.439272 196.529136 161.287894 
C 196.529136 163.136515 197.263601 164.909671 198.570774 166.216844 
C 199.877947 167.524017 201.651103 168.258482 203.499724 168.258482 
z
" clip-path="url(#p5c676d9784)" style="fill: #ff0001; fill-opacity: 0.7; stroke: #ff0001; stroke-opacity: 0.7"/>
    <path class="anim-draw" d="M 94.709583 255.150796 
C 96.549304 255.150796 98.313923 254.419867 99.614803 253.118988 
C 100.915682 251.818108 101.646611 250.053489 101.646611 248.213768 
C 101.646611 246.374046 100.915682 244.609427 99.614803 243.308548 
C 98.313923 242.007668 96.549304 241.276739 94.709583 241.276739 
C 92.869861 241.276739 91.105242 242.007668 89.804363 243.308548 
C 88.503483 244.609427 87.772554 246.374046 87.772554 248.213768 
C 87.772554 250.053489 88.503483 251.818108 89.804363 253.118988 
C 91.105242 254.419867 92.869861 255.150796 94.709583 255.150796 
z
" clip-path="url(#p5c676d9784)" style="fill: #ff0001; fill-opacity: 0.7; stroke: #ff0001; stroke-opacity: 0.7"/>
    <path class="anim-draw" d="M 222.317221 105.418813 
C 223.258192 105.418813 224.16075 105.044962 224.826117 104.379595 
C 225.491484 103.714228 225.865335 102.81167 225.865335 101.870699 
C 225.865335 100.929728 225.491484 100.02717 224.826117 99.361804 
C 224.16075 98.696437 223.258192 98.322585 222.317221 98.322585 
C 221.37625 98.322585 220.473692 98.696437 219.808325 99.361804 
C 219.142959 100.02717 218.769107 100.929728 218.769107 101.870699 
C 218.769107 102.81167 219.142959 103.714228 219.808325 104.379595 
C 220.473692 105.044962 221.37625 105.418813 222.317221 105.418813 
z
" clip-path="url(#p5c676d9784)" style="fill: #ff0001; fill-opacity: 0.7; stroke: #ff0001; stroke-opacity: 0.7"/>
    <path class="anim-draw" d="M 64.73474 95.137591 
C 66.057102 95.137591 67.325482 94.612211 68.260533 93.67716 
C 69.195584 92.742109 69.720964 91.473729 69.720964 90.151367 
C 69.720964 88.829005 69.195584 87.560626 68.260533 86.625575 
C 67.325482 85.690524 66.057102 85.165144 64.73474 85.165144 
C 63.412378 85.165144 62.143999 85.690524 61.208948 86.625575 
C 60.273897 87.560626 59.748517 88.829005 59.748517 90.151367 
C 59.748517 91.473729 60.273897 92.742109 61.208948 93.67716 
C 62.143999 94.612211 63.412378 95.137591 64.73474 95.137591 
z
" clip-path="url(#p5c676d9784)" style="fill: #ff0001; fill-opacity: 0.7; stroke: #ff0001; stroke-opacity: 0.7"/>
    <path class="anim-draw" d="M 363.947871 143.21146 
C 364.9765 143.21146 365.963139 142.802782 366.69049 142.075431 
C 367.417841 141.34808 367.826519 140.361441 367.826519 139.332812 
C 367.826519 138.304182 367.417841 137.317544 366.69049 136.590193 
C 365.963139 135.862842 364.9765 135.454163 363.947871 135.454163 
C 362.919241 135.454163 361.932603 135.862842 361.205252 136.590193 
C 360.477901 137.317544 360.069222 138.304182 360.069222 139.332812 
C 360.069222 140.361441 360.477901 141.34808 361.205252 142.075431 
C 361.932603 142.802782 362.919241 143.21146 363.947871 143.21146 
z
" clip-path="url(#p5c676d9784)" style="fill: #ff0001; fill-opacity: 0.7; stroke: #ff0001; stroke-opacity: 0.7"/>
    <path class="anim-draw" d="M 141.473139 91.415192 
C 142.473978 91.415192 143.433961 91.017554 144.141661 90.309854 
C 144.849362 89.602153 145.247 88.642171 145.247 87.641331 
C 145.247 86.640492 144.849362 85.680509 144.141661 84.972809 
C 143.433961 84.265108 142.473978 83.86747 141.473139 83.86747 
C 140.472299 83.86747 139.512317 84.265108 138.804616 84.972809 
C 138.096916 85.680509 137.699278 86.640492 137.699278 87.641331 
C 137.699278 88.642171 138.096916 89.602153 138.804616 90.309854 
C 139.512317 91.017554 140.472299 91.415192 141.473139 91.415192 
z
" clip-path="url(#p5c676d9784)" style="fill: #ff0001; fill-opacity: 0.7; stroke: #ff0001; stroke-opacity: 0.7"/>
    <path class="anim-draw" d="M 279.546743 157.326027 
C 279.906907 157.326027 280.252368 157.182933 280.507042 156.928258 
C 280.761716 156.673584 280.904811 156.328123 280.904811 155.96796 
C 280.904811 155.607796 280.761716 155.262335 280.507042 155.007661 
C 280.252368 154.752987 279.906907 154.609892 279.546743 154.609892 
C 279.186579 154.609892 278.841119 154.752987 278.586444 155.007661 
C 278.33177 155.262335 278.188676 155.607796 278.188676 155.96796 
C 278.188676 156.328123 278.33177 156.673584 278.586444 156.928258 
C 278.841119 157.182933 279.186579 157.326027 279.546743 157.326027 
z
" clip-path="url(#p5c676d9784)" style="fill: #ff0001; fill-opacity: 0.7; stroke: #ff0001; stroke-opacity: 0.7"/>
    <path class="anim-draw" d="M 159.574752 154.35524 
C 161.038861 154.35524 162.443201 153.773543 163.478482 152.738262 
C 164.513763 151.70298 165.09546 150.29864 165.09546 148.834532 
C 165.09546 147.370423 164.513763 145.966083 163.478482 144.930801 
C 162.443201 143.89552 161.038861 143.313824 159.574752 143.313824 
C 158.110643 143.313824 156.706303 143.89552 155.671022 144.930801 
C 154.635741 145.966083 154.054044 147.370423 154.054044 148.834532 
C 154.054044 150.29864 154.635741 151.70298 155.671022 152.738262 
C 156.706303 153.773543 158.110643 154.35524 159.574752 154.35524 
z
" clip-path="url(#p5c676d9784)" style="fill: #ff0001; fill-opacity: 0.7; stroke: #ff0001; stroke-opacity: 0.7"/>
    <path class="anim-draw" d="M 230.829595 177.314007 
C 232.159158 177.314007 233.434445 176.785766 234.374588 175.845622 
C 235.314731 174.905479 235.842972 173.630193 235.842972 172.300629 
C 235.842972 170.971066 235.314731 169.69578 234.374588 168.755636 
C 233.434445 167.815493 232.159158 167.287252 230.829595 167.287252 
C 229.500032 167.287252 228.224745 167.815493 227.284602 168.755636 
C 226.344459 169.69578 225.816218 170.971066 225.816218 172.300629 
C 225.816218 173.630193 226.344459 174.905479 227.284602 175.845622 
C 228.224745 176.785766 229.500032 177.314007 230.829595 177.314007 
z
" clip-path="url(#p5c676d9784)" style="fill: #ff0001; fill-opacity: 0.7; stroke: #ff0001; stroke-opacity: 0.7"/>
    <path class="anim-draw" d="M 239.940834 273.033587 
C 240.366312 273.033587 240.774422 272.864542 241.07528 272.563683 
C 241.376139 272.262825 241.545184 271.854715 241.545184 271.429237 
C 241.545184 271.003758 241.376139 270.595649 241.07528 270.29479 
C 240.774422 269.993932 240.366312 269.824887 239.940834 269.824887 
C 239.515355 269.824887 239.107246 269.993932 238.806387 270.29479 
C 238.505529 270.595649 238.336484 271.003758 238.336484 271.429237 
C 238.336484 271.854715 238.505529 272.262825 238.806387 272.563683 
C 239.107246 272.864542 239.515355 273.033587 239.940834 273.033587 
z
" clip-path="url(#p5c676d9784)" style="fill: #ff0001; fill-opacity: 0.7; stroke: #ff0001; stroke-opacity: 0.7"/>
    <path class="anim-draw" d="M 116.191756 254.831277 
C 117.181654 254.831277 118.131141 254.437987 118.831104 253.738023 
C 119.531068 253.03806 119.924358 252.088572 119.924358 251.098674 
C 119.924358 250.108777 119.531068 249.159289 118.831104 248.459326 
C 118.131141 247.759362 117.181654 247.366072 116.191756 247.366072 
C 115.201858 247.366072 114.25237 247.759362 113.552407 248.459326 
C 112.852444 249.159289 112.459153 250.108777 112.459153 251.098674 
C 112.459153 252.088572 112.852444 253.03806 113.552407 253.738023 
C 114.25237 254.437987 115.201858 254.831277 116.191756 254.831277 
z
" clip-path="url(#p5c676d9784)" style="fill: #ff0001; fill-opacity: 0.7; stroke: #ff0001; stroke-opacity: 0.7"/>
   </g>
   <g class="axis">
    <g class="tick xtick">
     <g id="line2d_1">
      <path class="anim-draw" d="M 52.9744 288.430125 
L 52.9744 22.318125 
" clip-path="url(#p5c676d9784)" style="fill: none; stroke: #b0b0b0; stroke-opacity: 0.15; stroke-width: 0.8; stroke-linecap: square"/>
     </g>
     <g id="line2d_2">
      <defs>
       <path class="anim-draw" id="mafac605876" d="M 0 0 
L 0 3.5 
" style="stroke: currentColor; stroke-width: 0.8"/>
      </defs>
      <g>
       <use xlink:href="#mafac605876" x="52.9744" y="288.430125" style="stroke: currentColor; stroke-width: 0.8"/>
      </g>
     </g>
     <g id="text_1" class="text">
      <!-- 0.0 -->
      <g transform="translate(45.022837 303.028562) scale(0.1 -0.1)">
       <defs>
        <path class="anim-draw" id="DejaVuSans-30" d="M 2034 4250 
Q 1547 4250 1301 3770 
Q 1056 3291 1056 2328 
Q 1056 1369 1301 889 
Q 1547 409 2034 409 
Q 2525 409 2770 889 
Q 3016 1369 3016 2328 
Q 3016 3291 2770 3770 
Q 2525 4250 2034 4250 
z
M 2034 4750 
Q 2819 4750 3233 4129 
Q 3647 3509 3647 2328 
Q 3647 1150 3233 529 
Q 2819 -91 2034 -91 
Q 1250 -91 836 529 
Q 422 1150 422 2328 
Q 422 3509 836 4129 
Q 1250 4750 2034 4750 
z
" transform="scale(0.015625)"/>
        <path class="anim-draw" id="DejaVuSans-2e" d="M 684 794 
L 1344 794 
L 1344 0 
L 684 0 
L 684 794 
z
" transform="scale(0.015625)"/>
       </defs>
       <use xlink:href="#DejaVuSans-30"/>
       <use xlink:href="#DejaVuSans-2e" transform="translate(63.623047 0)"/>
       <use xlink:href="#DejaVuSans-30" transform="translate(95.410156 0)"/>
      </g>
     </g>
    </g>
    <g class="tick xtick">
     <g id="line2d_3">
      <path class="anim-draw" d="M 121.371297 288.430125 
L 121.371297 22.318125 
" clip-path="url(#p5c676d9784)" style="fill: none; stroke: #b0b0b0; stroke-opacity: 0.15; stroke-width: 0.8; stroke-linecap: square"/>
     </g>
     <g id="line2d_4">
      <g>
       <use xlink:href="#mafac605876" x="121.371297" y="288.430125" style="stroke: currentColor; stroke-width: 0.8"/>
      </g>
     </g>
     <g id="text_2" class="text">
      <!-- 0.2 -->
      <g transform="translate(113.419734 303.028562) scale(0.1 -0.1)">
       <defs>
        <path class="anim-draw" id="DejaVuSans-32" d="M 1228 531 
L 3431 531 
L 3431 0 
L 469 0 
L 469 531 
Q 828 903 1448 1529 
Q 2069 2156 2228 2338 
Q 2531 2678 2651 2914 
Q 2772 3150 2772 3378 
Q 2772 3750 2511 3984 
Q 2250 4219 1831 4219 
Q 1534 4219 1204 4116 
Q 875 4013 500 3803 
L 500 4441 
Q 881 4594 1212 4672 
Q 1544 4750 1819 4750 
Q 2544 4750 2975 4387 
Q 3406 4025 3406 3419 
Q 3406 3131 3298 2873 
Q 3191 2616 2906 2266 
Q 2828 2175 2409 1742 
Q 1991 1309 1228 531 
z
" transform="scale(0.015625)"/>
       </defs>
       <use xlink:href="#DejaVuSans-30"/>
       <use xlink:href="#DejaVuSans-2e" transform="translate(63.623047 0)"/>
       <use xlink:href="#DejaVuSans-32" transform="translate(95.410156 0)"/>
      </g>
     </g>
    </g>
    <g class="tick xtick">
     <g id="line2d_5">
      <path class="anim-draw" d="M 189.768194 288.430125 
L 189.768194 22.318125 
" clip-path="url(#p5c676d9784)" style="fill: none; stroke: #b0b0b0; stroke-opacity: 0.15; stroke-width: 0.8; stroke-linecap: square"/>
     </g>
     <g id="line2d_6">
      <g>
       <use xlink:href="#mafac605876" x="189.768194" y="288.430125" style="stroke: currentColor; stroke-width: 0.8"/>
      </g>
     </g>
     <g id="text_3" class="text">
      <!-- 0.4 -->
      <g transform="translate(181.816632 303.028562) scale(0.1 -0.1)">
       <defs>
        <path class="anim-draw" id="DejaVuSans-34" d="M 2419 4116 
L 825 1625 
L 2419 1625 
L 2419 4116 
z
M 2253 4666 
L 3047 4666 
L 3047 1625 
L 3713 1625 
L 3713 1100 
L 3047 1100 
L 3047 0 
L 2419 0 
L 2419 1100 
L 313 1100 
L 313 1709 
L 2253 4666 
z
" transform="scale(0.015625)"/>
       </defs>
       <use xlink:href="#DejaVuSans-30"/>
       <use xlink:href="#DejaVuSans-2e" transform="translate(63.623047 0)"/>
       <use xlink:href="#DejaVuSans-34" transform="translate(95.410156 0)"/>
      </g>
     </g>
    </g>
    <g class="tick xtick">
     <g id="line2d_7">
      <path class="anim-draw" d="M 258.165092 288.430125 
L 258.165092 22.318125 
" clip-path="url(#p5c676d9784)" style="fill: none; stroke: #b0b0b0; stroke-opacity: 0.15; stroke-width: 0.8; stroke-linecap: square"/>
     </g>
     <g id="line2d_8">
      <g>
       <use xlink:href="#mafac605876" x="258.165092" y="288.430125" style="stroke: currentColor; stroke-width: 0.8"/>
      </g>
     </g>
     <g id="text_4" class="text">
      <!-- 0.6 -->
      <g transform="translate(250.213529 303.028562) scale(0.1 -0.1)">
       <defs>
        <path class="anim-draw" id="DejaVuSans-36" d="M 2113 2584 
Q 1688 2584 1439 2293 
Q 1191 2003 1191 1497 
Q 1191 994 1439 701 
Q 1688 409 2113 409 
Q 2538 409 2786 701 
Q 3034 994 3034 1497 
Q 3034 2003 2786 2293 
Q 2538 2584 2113 2584 
z
M 3366 4563 
L 3366 3988 
Q 3128 4100 2886 4159 
Q 2644 4219 2406 4219 
Q 1781 4219 1451 3797 
Q 1122 3375 1075 2522 
Q 1259 2794 1537 2939 
Q 1816 3084 2150 3084 
Q 2853 3084 3261 2657 
Q 3669 2231 3669 1497 
Q 3669 778 3244 343 
Q 2819 -91 2113 -91 
Q 1303 -91 875 529 
Q 447 1150 447 2328 
Q 447 3434 972 4092 
Q 1497 4750 2381 4750 
Q 2619 4750 2861 4703 
Q 3103 4656 3366 4563 
z
" transform="scale(0.015625)"/>
       </defs>
       <use xlink:href="#DejaVuSans-30"/>
       <use xlink:href="#DejaVuSans-2e" transform="translate(63.623047 0)"/>
       <use xlink:href="#DejaVuSans-36" transform="translate(95.410156 0)"/>
      </g>
     </g>
    </g>
    <g class="tick xtick">
     <g id="line2d_9">
      <path class="anim-draw" d="M 326.561989 288.430125 
L 326.561989 22.318125 
" clip-path="url(#p5c676d9784)" style="fill: none; stroke: #b0b0b0; stroke-opacity: 0.15; stroke-width: 0.8; stroke-linecap: square"/>
     </g>
     <g id="line2d_10">
      <g>
       <use xlink:href="#mafac605876" x="326.561989" y="288.430125" style="stroke: currentColor; stroke-width: 0.8"/>
      </g>
     </g>
     <g id="text_5" class="text">
      <!-- 0.8 -->
      <g transform="translate(318.610427 303.028562) scale(0.1 -0.1)">
       <defs>
        <path class="anim-draw" id="DejaVuSans-38" d="M 2034 2216 
Q 1584 2216 1326 1975 
Q 1069 1734 1069 1313 
Q 1069 891 1326 650 
Q 1584 409 2034 409 
Q 2484 409 2743 651 
Q 3003 894 3003 1313 
Q 3003 1734 2745 1975 
Q 2488 2216 2034 2216 
z
M 1403 2484 
Q 997 2584 770 2862 
Q 544 3141 544 3541 
Q 544 4100 942 4425 
Q 1341 4750 2034 4750 
Q 2731 4750 3128 4425 
Q 3525 4100 3525 3541 
Q 3525 3141 3298 2862 
Q 3072 2584 2669 2484 
Q 3125 2378 3379 2068 
Q 3634 1759 3634 1313 
Q 3634 634 3220 271 
Q 2806 -91 2034 -91 
Q 1263 -91 848 271 
Q 434 634 434 1313 
Q 434 1759 690 2068 
Q 947 2378 1403 2484 
z
M 1172 3481 
Q 1172 3119 1398 2916 
Q 1625 2713 2034 2713 
Q 2441 2713 2670 2916 
Q 2900 3119 2900 3481 
Q 2900 3844 2670 4047 
Q 2441 4250 2034 4250 
Q 1625 4250 1398 4047 
Q 1172 3844 1172 3481 
z
" transform="scale(0.015625)"/>
       </defs>
       <use xlink:href="#DejaVuSans-30"/>
       <use xlink:href="#DejaVuSans-2e" transform="translate(63.623047 0)"/>
       <use xlink:href="#DejaVuSans-38" transform="translate(95.410156 0)"/>
      </g>
     </g>
    </g>
    <g class="tick xtick">
     <g id="line2d_11">
      <path class="anim-draw" d="M 394.958886 288.430125 
L 394.958886 22.318125 
" clip-path="url(#p5c676d9784)" style="fill: none; stroke: #b0b0b0; stroke-opacity: 0.15; stroke-width: 0.8; stroke-linecap: square"/>
     </g>
     <g id="line2d_12">
      <g>
       <use xlink:href="#mafac605876" x="394.958886" y="288.430125" style="stroke: currentColor; stroke-width: 0.8"/>
      </g>
     </g>
     <g id="text_6" class="text">
      <!-- 1.0 -->
      <g transform="translate(387.007324 303.028562) scale(0.1 -0.1)">
       <defs>
        <path class="anim-draw" id="DejaVuSans-31" d="M 794 531 
L 1825 531 
L 1825 4091 
L 703 3866 
L 703 4441 
L 1819 4666 
L 2450 4666 
L 2450 531 
L 3481 531 
L 3481 0 
L 794 0 
L 794 531 
z
" transform="scale(0.015625)"/>
       </defs>
       <use xlink:href="#DejaVuSans-31"/>
       <use xlink:href="#DejaVuSans-2e" transform="translate(63.623047 0)"/>
       <use xlink:href="#DejaVuSans-30" transform="translate(95.410156 0)"/>
      </g>
     </g>
    </g>
    <g id="text_7" class="text">
     <!-- x -->
     <g transform="translate(219.381875 316.706687) scale(0.1 -0.1)">
      <defs>
       <path class="anim-draw" id="DejaVuSans-78" d="M 3513 3500 
L 2247 1797 
L 3578 0 
L 2900 0 
L 1881 1375 
L 863 0 
L 184 0 
L 1544 1831 
L 300 3500 
L 978 3500 
L 1906 2253 
L 2834 3500 
L 3513 3500 
z
" transform="scale(0.015625)"/>
      </defs>
      <use xlink:href="#DejaVuSans-78"/>
     </g>
    </g>
   </g>
   <g class="axis">
    <g class="tick ytick">
     <g id="line2d_13">
      <path class="anim-draw" d="M 43.78125 277.695403 
L 400.90125 277.695403 
" clip-path="url(#p5c676d9784)" style="fill: none; stroke: #b0b0b0; stroke-opacity: 0.15; stroke-width: 0.8; stroke-linecap: square"/>
     </g>
     <g id="line2d_14">
      <defs>
       <path class="anim-draw" id="mcfbd200a02" d="M 0 0 
L -3.5 0 
" style="stroke: currentColor; stroke-width: 0.8"/>
      </defs>
      <g>
       <use xlink:href="#mcfbd200a02" x="43.78125" y="277.695403" style="stroke: currentColor; stroke-width: 0.8"/>
      </g>
     </g>
     <g id="text_8" class="text">
      <!-- 0.0 -->
      <g transform="translate(20.878125 281.494622) scale(0.1 -0.1)">
       <use xlink:href="#DejaVuSans-30"/>
       <use xlink:href="#DejaVuSans-2e" transform="translate(63.623047 0)"/>
       <use xlink:href="#DejaVuSans-30" transform="translate(95.410156 0)"/>
      </g>
     </g>
    </g>
    <g class="tick ytick">
     <g id="line2d_15">
      <path class="anim-draw" d="M 43.78125 228.392637 
L 400.90125 228.392637 
" clip-path="url(#p5c676d9784)" style="fill: none; stroke: #b0b0b0; stroke-opacity: 0.15; stroke-width: 0.8; stroke-linecap: square"/>
     </g>
     <g id="line2d_16">
      <g>
       <use xlink:href="#mcfbd200a02" x="43.78125" y="228.392637" style="stroke: currentColor; stroke-width: 0.8"/>
      </g>
     </g>
     <g id="text_9" class="text">
      <!-- 0.2 -->
      <g transform="translate(20.878125 232.191856) scale(0.1 -0.1)">
       <use xlink:href="#DejaVuSans-30"/>
       <use xlink:href="#DejaVuSans-2e" transform="translate(63.623047 0)"/>
       <use xlink:href="#DejaVuSans-32" transform="translate(95.410156 0)"/>
      </g>
     </g>
    </g>
    <g class="tick ytick">
     <g id="line2d_17">
      <path class="anim-draw" d="M 43.78125 179.089871 
L 400.90125 179.089871 
" clip-path="url(#p5c676d9784)" style="fill: none; stroke: #b0b0b0; stroke-opacity: 0.15; stroke-width: 0.8; stroke-linecap: square"/>
     </g>
     <g id="line2d_18">
      <g>
       <use xlink:href="#mcfbd200a02" x="43.78125" y="179.089871" style="stroke: currentColor; stroke-width: 0.8"/>
      </g>
     </g>
     <g id="text_10" class="text">
      <!-- 0.4 -->
      <g transform="translate(20.878125 182.88909) scale(0.1 -0.1)">
       <use xlink:href="#DejaVuSans-30"/>
       <use xlink:href="#DejaVuSans-2e" transform="translate(63.623047 0)"/>
       <use xlink:href="#DejaVuSans-34" transform="translate(95.410156 0)"/>
      </g>
     </g>
    </g>
    <g class="tick ytick">
     <g id="line2d_19">
      <path class="anim-draw" d="M 43.78125 129.787105 
L 400.90125 129.787105 
" clip-path="url(#p5c676d9784)" style="fill: none; stroke: #b0b0b0; stroke-opacity: 0.15; stroke-width: 0.8; stroke-linecap: square"/>
     </g>
     <g id="line2d_20">
      <g>
       <use xlink:href="#mcfbd200a02" x="43.78125" y="129.787105" style="stroke: currentColor; stroke-width: 0.8"/>
      </g>
     </g>
     <g id="text_11" class="text">
      <!-- 0.6 -->
      <g transform="translate(20.878125 133.586324) scale(0.1 -0.1)">
       <use xlink:href="#DejaVuSans-30"/>
       <use xlink:href="#DejaVuSans-2e" transform="translate(63.623047 0)"/>
       <use xlink:href="#DejaVuSans-36" transform="translate(95.410156 0)"/>
      </g>
     </g>
    </g>
    <g class="tick ytick">
     <g id="line2d_21">
      <path class="anim-draw" d="M 43.78125 80.484339 
L 400.90125 80.484339 
" clip-path="url(#p5c676d9784)" style="fill: none; stroke: #b0b0b0; stroke-opacity: 0.15; stroke-width: 0.8; stroke-linecap: square"/>
     </g>
     <g id="line2d_22">
      <g>
       <use xlink:href="#mcfbd200a02" x="43.78125" y="80.484339" style="stroke: currentColor; stroke-width: 0.8"/>
      </g>
     </g>
     <g id="text_12" class="text">
      <!-- 0.8 -->
      <g transform="translate(20.878125 84.283558) scale(0.1 -0.1)">
       <use xlink:href="#DejaVuSans-30"/>
       <use xlink:href="#DejaVuSans-2e" transform="translate(63.623047 0)"/>
       <use xlink:href="#DejaVuSans-38" transform="translate(95.410156 0)"/>
      </g>
     </g>
    </g>
    <g class="tick ytick">
     <g id="line2d_23">
      <path class="anim-draw" d="M 43.78125 31.181574 
L 400.90125 31.181574 
" clip-path="url(#p5c676d9784)" style="fill: none; stroke: #b0b0b0; stroke-opacity: 0.15; stroke-width: 0.8; stroke-linecap: square"/>
     </g>
     <g id="line2d_24">
      <g>
       <use xlink:href="#mcfbd200a02" x="43.78125" y="31.181574" style="stroke: currentColor; stroke-width: 0.8"/>
      </g>
     </g>
     <g id="text_13" class="text">
      <!-- 1.0 -->
      <g transform="translate(20.878125 34.980792) scale(0.1 -0.1)">
       <use xlink:href="#DejaVuSans-31"/>
       <use xlink:href="#DejaVuSans-2e" transform="translate(63.623047 0)"/>
       <use xlink:href="#DejaVuSans-30" transform="translate(95.410156 0)"/>
      </g>
     </g>
    </g>
    <g id="text_14" class="text">
     <!-- y -->
     <g transform="translate(14.798438 158.3335) rotate(-90) scale(0.1 -0.1)">
      <defs>
       <path class="anim-draw" id="DejaVuSans-79" d="M 2059 -325 
Q 1816 -950 1584 -1140 
Q 1353 -1331 966 -1331 
L 506 -1331 
L 506 -850 
L 844 -850 
Q 1081 -850 1212 -737 
Q 1344 -625 1503 -206 
L 1606 56 
L 191 3500 
L 800 3500 
L 1894 763 
L 2988 3500 
L 3597 3500 
L 2059 -325 
z
" transform="scale(0.015625)"/>
      </defs>
      <use xlink:href="#DejaVuSans-79"/>
     </g>
    </g>
   </g>
   <g class="patch">
    <path class="anim-draw" d="M 43.78125 288.430125 
L 43.78125 22.318125 
" style="fill: none; stroke: currentColor; stroke-width: 0.8; stroke-linejoin: miter; stroke-linecap: square"/>
   </g>
   <g class="patch">
    <path class="anim-draw" d="M 400.90125 288.430125 
L 400.90125 22.318125 
" style="fill: none; stroke: currentColor; stroke-width: 0.8; stroke-linejoin: miter; stroke-linecap: square"/>
   </g>
   <g class="patch">
    <path class="anim-draw" d="M 43.78125 288.430125 
L 400.90125 288.430125 
" style="fill: none; stroke: currentColor; stroke-width: 0.8; stroke-linejoin: miter; stroke-linecap: square"/>
   </g>
   <g class="patch">
    <path class="anim-draw" d="M 43.78125 22.318125 
L 400.90125 22.318125 
" style="fill: none; stroke: currentColor; stroke-width: 0.8; stroke-linejoin: miter; stroke-linecap: square"/>
   </g>
   <g id="text_15" class="text">
    <!-- Scatter Plot -->
    <g transform="translate(187.478438 16.318125) scale(0.12 -0.12)">
     <defs>
      <path class="anim-draw" id="DejaVuSans-53" d="M 3425 4513 
L 3425 3897 
Q 3066 4069 2747 4153 
Q 2428 4238 2131 4238 
Q 1616 4238 1336 4038 
Q 1056 3838 1056 3469 
Q 1056 3159 1242 3001 
Q 1428 2844 1947 2747 
L 2328 2669 
Q 3034 2534 3370 2195 
Q 3706 1856 3706 1288 
Q 3706 609 3251 259 
Q 2797 -91 1919 -91 
Q 1588 -91 1214 -16 
Q 841 59 441 206 
L 441 856 
Q 825 641 1194 531 
Q 1563 422 1919 422 
Q 2459 422 2753 634 
Q 3047 847 3047 1241 
Q 3047 1584 2836 1778 
Q 2625 1972 2144 2069 
L 1759 2144 
Q 1053 2284 737 2584 
Q 422 2884 422 3419 
Q 422 4038 858 4394 
Q 1294 4750 2059 4750 
Q 2388 4750 2728 4690 
Q 3069 4631 3425 4513 
z
" transform="scale(0.015625)"/>
      <path class="anim-draw" id="DejaVuSans-63" d="M 3122 3366 
L 3122 2828 
Q 2878 2963 2633 3030 
Q 2388 3097 2138 3097 
Q 1578 3097 1268 2742 
Q 959 2388 959 1747 
Q 959 1106 1268 751 
Q 1578 397 2138 397 
Q 2388 397 2633 464 
Q 2878 531 3122 666 
L 3122 134 
Q 2881 22 2623 -34 
Q 2366 -91 2075 -91 
Q 1284 -91 818 406 
Q 353 903 353 1747 
Q 353 2603 823 3093 
Q 1294 3584 2113 3584 
Q 2378 3584 2631 3529 
Q 2884 3475 3122 3366 
z
" transform="scale(0.015625)"/>
      <path class="anim-draw" id="DejaVuSans-61" d="M 2194 1759 
Q 1497 1759 1228 1600 
Q 959 1441 959 1056 
Q 959 750 1161 570 
Q 1363 391 1709 391 
Q 2188 391 2477 730 
Q 2766 1069 2766 1631 
L 2766 1759 
L 2194 1759 
z
M 3341 1997 
L 3341 0 
L 2766 0 
L 2766 531 
Q 2569 213 2275 61 
Q 1981 -91 1556 -91 
Q 1019 -91 701 211 
Q 384 513 384 1019 
Q 384 1609 779 1909 
Q 1175 2209 1959 2209 
L 2766 2209 
L 2766 2266 
Q 2766 2663 2505 2880 
Q 2244 3097 1772 3097 
Q 1472 3097 1187 3025 
Q 903 2953 641 2809 
L 641 3341 
Q 956 3463 1253 3523 
Q 1550 3584 1831 3584 
Q 2591 3584 2966 3190 
Q 3341 2797 3341 1997 
z
" transform="scale(0.015625)"/>
      <path class="anim-draw" id="DejaVuSans-74" d="M 1172 4494 
L 1172 3500 
L 2356 3500 
L 2356 3053 
L 1172 3053 
L 1172 1153 
Q 1172 725 1289 603 
Q 1406 481 1766 481 
L 2356 481 
L 2356 0 
L 1766 0 
Q 1100 0 847 248 
Q 594 497 594 1153 
L 594 3053 
L 172 3053 
L 172 3500 
L 594 3500 
L 594 4494 
L 1172 4494 
z
" transform="scale(0.015625)"/>
      <path class="anim-draw" id="DejaVuSans-65" d="M 3597 1894 
L 3597 1613 
L 953 1613 
Q 991 1019 1311 708 
Q 1631 397 2203 397 
Q 2534 397 2845 478 
Q 3156 559 3463 722 
L 3463 178 
Q 3153 47 2828 -22 
Q 2503 -91 2169 -91 
Q 1331 -91 842 396 
Q 353 884 353 1716 
Q 353 2575 817 3079 
Q 1281 3584 2069 3584 
Q 2775 3584 3186 3129 
Q 3597 2675 3597 1894 
z
M 3022 2063 
Q 3016 2534 2758 2815 
Q 2500 3097 2075 3097 
Q 1594 3097 1305 2825 
Q 1016 2553 972 2059 
L 3022 2063 
z
" transform="scale(0.015625)"/>
      <path class="anim-draw" id="DejaVuSans-72" d="M 2631 2963 
Q 2534 3019 2420 3045 
Q 2306 3072 2169 3072 
Q 1681 3072 1420 2755 
Q 1159 2438 1159 1844 
L 1159 0 
L 581 0 
L 581 3500 
L 1159 3500 
L 1159 2956 
Q 1341 3275 1631 3429 
Q 1922 3584 2338 3584 
Q 2397 3584 2469 3576 
Q 2541 3569 2628 3553 
L 2631 2963 
z
" transform="scale(0.015625)"/>
      <path class="anim-draw" id="DejaVuSans-20" transform="scale(0.015625)"/>
      <path class="anim-draw" id="DejaVuSans-50" d="M 1259 4147 
L 1259 2394 
L 2053 2394 
Q 2494 2394 2734 2622 
Q 2975 2850 2975 3272 
Q 2975 3691 2734 3919 
Q 2494 4147 2053 4147 
L 1259 4147 
z
M 628 4666 
L 2053 4666 
Q 2838 4666 3239 4311 
Q 3641 3956 3641 3272 
Q 3641 2581 3239 2228 
Q 2838 1875 2053 1875 
L 1259 1875 
L 1259 0 
L 628 0 
L 628 4666 
z
" transform="scale(0.015625)"/>
      <path class="anim-draw" id="DejaVuSans-6c" d="M 603 4863 
L 1178 4863 
L 1178 0 
L 603 0 
L 603 4863 
z
" transform="scale(0.015625)"/>
      <path class="anim-draw" id="DejaVuSans-6f" d="M 1959 3097 
Q 1497 3097 1228 2736 
Q 959 2375 959 1747 
Q 959 1119 1226 758 
Q 1494 397 1959 397 
Q 2419 397 2687 759 
Q 2956 1122 2956 1747 
Q 2956 2369 2687 2733 
Q 2419 3097 1959 3097 
z
M 1959 3584 
Q 2709 3584 3137 3096 
Q 3566 2609 3566 1747 
Q 3566 888 3137 398 
Q 2709 -91 1959 -91 
Q 1206 -91 779 398 
Q 353 888 353 1747 
Q 353 2609 779 3096 
Q 1206 3584 1959 3584 
z
" transform="scale(0.015625)"/>
     </defs>
     <use xlink:href="#DejaVuSans-53"/>
     <use xlink:href="#DejaVuSans-63" transform="translate(63.476562 0)"/>
     <use xlink:href="#DejaVuSans-61" transform="translate(118.457031 0)"/>
     <use xlink:href="#DejaVuSans-74" transform="translate(179.736328 0)"/>
     <use xlink:href="#DejaVuSans-74" transform="translate(218.945312 0)"/>
     <use xlink:href="#DejaVuSans-65" transform="translate(258.154297 0)"/>
     <use xlink:href="#DejaVuSans-72" transform="translate(319.677734 0)"/>
     <use xlink:href="#DejaVuSans-20" transform="translate(360.791016 0)"/>
     <use xlink:href="#DejaVuSans-50" transform="translate(392.578125 0)"/>
     <use xlink:href="#DejaVuSans-6c" transform="translate(452.880859 0)"/>
     <use xlink:href="#DejaVuSans-6f" transform="translate(480.664062 0)"/>
     <use xlink:href="#DejaVuSans-74" transform="translate(541.845703 0)"/>
    </g>
   </g>
  </g>
 </g>
 <defs>
  <clipPath id="p5c676d9784">
   <rect x="43.78125" y="22.318125" width="357.12" height="266.112"/>
  </clipPath>
 </defs>

<script>
    document.addEventListener('DOMContentLoaded',()=>{
        document.querySelectorAll('.anim-draw').forEach(p=>{
            if(p.getTotalLength){
                const L=p.getTotalLength();
                p.style.setProperty('--len',L);
                p.setAttribute('stroke-dasharray',L);
                p.setAttribute('stroke-dashoffset',L);
            }
        });
    });
</script>
</svg>
